#Cliff_GRP_1995_235.obj

v 14.89374 -21.65578 23.54683
v 15.99504 -26.78136 23.0889
v 12.7349 -26.78136 27.03478
v 12.23721 -20.55872 26.8198
v 12.23721 -20.55872 26.8198
v 12.7349 -26.78136 27.03478
v 9.093825 -26.78136 29.97277
v 9.31481 -22.58589 29.11218
v -21.45197 -33.84684 -2.832182
v -20.93224 -38.69993 -1.469132
v -20.15205 -39.53981 -5.798157
v -19.66698 -36.28652 -4.118994
v 15.99504 -26.78136 23.0889
v 15.22888 -30.71928 22.29951
v 11.65072 -30.71928 26.63029
v 12.7349 -26.78136 27.03478
v 12.7349 -26.78136 27.03478
v 11.65072 -30.71928 26.63029
v 10.88739 -30.71928 31.18127
v 9.093825 -26.78136 29.97277
v -26.16908 -36.31285 0.527706
v -27.79854 -39.36869 -0.06468371
v -23.8521 -38.62278 0.286241
v -24.41631 -33.69439 -1.047979
v -24.41631 -33.69439 -1.047979
v -23.8521 -38.62278 0.286241
v -20.93224 -38.69993 -1.469132
v -21.45197 -33.84684 -2.832182
v -20.93224 -38.69993 -1.469132
v -22.02571 -44.83492 -4.013978
v -21.3839 -44.83492 -8.506783
v -20.15205 -39.53981 -5.798157
v -27.79854 -39.36869 -0.06468371
v -30.41884 -44.83492 -1.841634
v -25.97542 -44.83492 -1.742885
v -23.8521 -38.62278 0.286241
v -23.8521 -38.62278 0.286241
v -25.97542 -44.83492 -1.742885
v -22.02571 -44.83492 -4.013978
v -20.93224 -38.69993 -1.469132

vn 0.8064105 0.09615287 0.5834867
vn 0.8064104 0.09615286 0.5834867
vn 0.8064105 0.09615287 0.5834867
vn 0.8064105 0.09615286 0.5834868
vn 0.6395786 0.09782676 0.7624756
vn 0.6395786 0.09782675 0.7624757
vn 0.6395786 0.09782674 0.7624757
vn 0.6395786 0.09782676 0.7624756
vn -0.9262449 0.01256193 -0.3767129
vn -0.9262449 0.01256193 -0.3767129
vn -0.9262449 0.01256193 -0.3767129
vn -0.9262448 0.01256193 -0.3767129
vn 0.7719027 -0.2675464 0.5767019
vn 0.7719027 -0.2675464 0.5767019
vn 0.7719027 -0.2675464 0.5767019
vn 0.7719027 -0.2675464 0.5767019
vn 0.8783905 0.1283221 0.460395
vn 0.8783905 0.1283221 0.460395
vn 0.8783905 0.1283221 0.460395
vn 0.8783904 0.1283221 0.4603951
vn -0.2185804 -0.06854174 -0.9734088
vn -0.2185804 -0.06854174 -0.9734088
vn -0.2185804 -0.06854174 -0.9734088
vn -0.2185804 -0.06854174 -0.9734088
vn -0.5420401 -0.2811265 -0.7919346
vn -0.5420401 -0.2811265 -0.7919346
vn -0.5420401 -0.2811265 -0.7919346
vn -0.5420401 -0.2811265 -0.7919346
vn -0.9525485 0.2742499 -0.1320543
vn -0.9525485 0.2742499 -0.1320543
vn -0.9525485 0.2742499 -0.1320543
vn -0.9525484 0.2742499 -0.1320543
vn -0.02224703 0.300819 -0.9534217
vn -0.02224703 0.300819 -0.9534217
vn -0.02224703 0.300819 -0.9534217
vn -0.02224703 0.300819 -0.9534217
vn -0.4954551 0.4112511 -0.7651123
vn -0.4954551 0.4112511 -0.7651123
vn -0.4954551 0.4112511 -0.7651122
vn -0.4954551 0.4112511 -0.7651123

vt 0.4228516 0.9130859
vt 0.4228516 0.9130859
vt 0.3266602 0.8701172
vt 0.3266602 0.8701172
vt 0.3266602 0.8701172
vt 0.3266602 0.8701172
vt 0.2324219 0.8710938
vt 0.2324219 0.8710938
vt 0.7236328 0.2893066
vt 0.7236328 0.2893066
vt 0.7929688 0.2893066
vt 0.7929688 0.2893066
vt 0.4228516 0.9130859
vt 0.4228516 0.9130859
vt 0.3266602 0.8701172
vt 0.3266602 0.8701172
vt 0.3266602 0.8701172
vt 0.3266602 0.8701172
vt 0.2324219 0.8710938
vt 0.2324219 0.8710938
vt 0.6728516 0.1669922
vt 0.6728516 0.1669922
vt 0.6806641 0.234375
vt 0.6806641 0.234375
vt 0.6806641 0.234375
vt 0.6806641 0.234375
vt 0.7236328 0.2893066
vt 0.7236328 0.2893066
vt 0.7236328 0.2893066
vt 0.7236328 0.2893066
vt 0.7929688 0.2893066
vt 0.7929688 0.2893066
vt 0.6728516 0.1669922
vt 0.6728516 0.1669922
vt 0.6806641 0.234375
vt 0.6806641 0.234375
vt 0.6806641 0.234375
vt 0.6806641 0.234375
vt 0.7236328 0.2893066
vt 0.7236328 0.2893066

g Cliff_GRP_1995_235
usemtl Cliff_GRP_1995_235
usemap Cliff_GRP_1995_235
f 1/1/1 3/3/3 2/2/2
f 1/1/1 4/4/4 3/3/3
f 5/5/5 7/7/7 6/6/6
f 5/5/5 8/8/8 7/7/7
f 9/9/9 11/11/11 10/10/10
f 9/9/9 12/12/12 11/11/11
f 13/13/13 15/15/15 14/14/14
f 13/13/13 16/16/16 15/15/15
f 17/17/17 19/19/19 18/18/18
f 17/17/17 20/20/20 19/19/19
f 21/21/21 23/23/23 22/22/22
f 21/21/21 24/24/24 23/23/23
f 25/25/25 27/27/27 26/26/26
f 25/25/25 28/28/28 27/27/27
f 29/29/29 31/31/31 30/30/30
f 29/29/29 32/32/32 31/31/31
f 33/33/33 35/35/35 34/34/34
f 33/33/33 36/36/36 35/35/35
f 37/37/37 39/39/39 38/38/38
f 37/37/37 40/40/40 39/39/39
