#Cube_005_1850_260.obj

v -1.1444 -0.9723052 -0.989931
v -1.499414 -0.9723054 -0.989931
v -1.499414 -0.9723052 -0.348522
v -1.1444 -0.9723051 -0.348522
v -3.621581 -0.9723055 -0.989931
v -3.976596 -0.9723057 -0.989931
v -3.976596 -0.9723055 -0.348522
v -3.621581 -0.9723054 -0.348522

vn 1 1.192093E-07 -1.192093E-07
vn 1 1.192093E-07 -1.192093E-07
vn 1 1.192093E-07 -1.192093E-07
vn 1 1.192093E-07 -1.192093E-07
vn 1 1.192093E-07 -1.192093E-07
vn 1 1.192093E-07 -1.192093E-07
vn 1 1.192093E-07 -1.192093E-07
vn 1 1.192093E-07 -1.192093E-07

vt 0 0
vt 0 0
vt 0 0
vt 0 0
vt 0 0
vt 0 0
vt 0 0
vt 0 0

g Cube_005_1850_260
usemtl Cube_005_1850_260
usemap Cube_005_1850_260
f 1/1/1 3/3/3 2/2/2
f 1/1/1 4/4/4 3/3/3
f 5/5/5 7/7/7 6/6/6
f 5/5/5 8/8/8 7/7/7
