#Cube_008_(3)_1580_127.obj

v -1.144405 -0.9734567 -0.9887911
v -1.499419 -0.973457 -0.9887911
v -1.499419 -0.9727055 -0.3473826
v -1.144405 -0.9727052 -0.3473826
v -3.621586 -0.9734586 -0.988791
v -3.976601 -0.973459 -0.988791
v -3.976601 -0.9727075 -0.3473826
v -3.621586 -0.9727072 -0.3473826

vn -5.13196E-05 0 0.9999999
vn -5.13196E-05 0 0.9999999
vn -5.13196E-05 0 0.9999999
vn -5.13196E-05 0 0.9999999
vn -5.13196E-05 0 0.9999999
vn -5.13196E-05 0 0.9999999
vn -5.13196E-05 0 0.9999999
vn -5.13196E-05 0 0.9999999

vt 0 0
vt 0 0
vt 0 0
vt 0 0
vt 0 0
vt 0 0
vt 0 0
vt 0 0

g Cube_008_(3)_1580_127
usemtl Cube_008_(3)_1580_127
usemap Cube_008_(3)_1580_127
f 1/1/1 3/3/3 2/2/2
f 1/1/1 4/4/4 3/3/3
f 5/5/5 7/7/7 6/6/6
f 5/5/5 8/8/8 7/7/7
