#Cube_009_(4)_1590_216.obj

v -1.129732 -0.9706295 0.1949209
v -1.503173 -0.9706302 0.1949209
v -1.503173 -0.9706299 0.5683628
v -1.129732 -0.9706303 0.568363
v 0.1495602 -0.9706298 0.194921
v -0.2238809 -0.9706305 0.1949209
v -0.2238808 -0.9706302 0.568363
v 0.1495603 -0.9706295 0.5683629
v 0.1495602 -0.9706295 1.085471
v -0.2238809 -0.9706302 1.085471
v -0.2238808 -0.9706299 1.458913
v 0.1495603 -0.9706303 1.458913
v -1.11315 -0.9706303 1.085471
v -1.486591 -0.9706299 1.085471
v -1.486591 -0.9706297 1.458913
v -1.11315 -0.9706301 1.458913
v -2.344321 -0.9706304 0.1949207
v -2.717763 -0.97063 0.1949208
v -2.717763 -0.9706297 0.5683628
v -2.344321 -0.9706301 0.5683628
v -2.32774 -0.9706302 1.085471
v -2.701181 -0.9706298 1.085471
v -2.701181 -0.9706306 1.458913
v -2.32774 -0.9706299 1.458913
v -3.581586 -0.9706302 0.1949208
v -3.955026 -0.9706309 0.1949208
v -3.955027 -0.9706306 0.5683627
v -3.581585 -0.9706299 0.5683628
v -3.565003 -0.9706299 1.085471
v -3.938445 -0.9706306 1.085471
v -3.938445 -0.9706303 1.458913
v -3.565004 -0.9706308 1.458913
v -4.807171 -0.9706299 0.1949207
v -5.180614 -0.9706306 0.1949208
v -5.180614 -0.9706303 0.5683627
v -4.807172 -0.9706308 0.5683627
v -4.79059 -0.9706308 1.085471
v -5.164032 -0.9706304 1.085471
v -5.164031 -0.9706301 1.458913
v -4.790589 -0.9706305 1.458912

vn -1 -0.0003493429 1.215175E-06
vn -1 -0.0003493429 1.215175E-06
vn -1 -0.0003493429 1.215175E-06
vn -1 -0.0003493429 1.215175E-06
vn -1 -0.0003493429 1.215175E-06
vn -1 -0.0003493429 1.215175E-06
vn -1 -0.0003493429 1.215175E-06
vn -1 -0.0003493429 1.215175E-06
vn -1 -0.0003493429 1.215175E-06
vn -1 -0.0003493429 1.215175E-06
vn -1 -0.0003493429 1.215175E-06
vn -1 -0.0003493429 1.215175E-06
vn -1 -0.0003493429 1.215175E-06
vn -1 -0.0003493429 1.215175E-06
vn -1 -0.0003493429 1.215175E-06
vn -1 -0.0003493429 1.215175E-06
vn -1 -0.0003493429 1.215175E-06
vn -1 -0.0003493429 1.215175E-06
vn -1 -0.0003493429 1.215175E-06
vn -1 -0.0003493429 1.215175E-06
vn -1 -0.0003493429 1.215175E-06
vn -1 -0.0003493429 1.215175E-06
vn -1 -0.0003493429 1.215175E-06
vn -1 -0.0003493429 1.215175E-06
vn -1 -0.0003493429 1.215175E-06
vn -1 -0.0003493429 1.215175E-06
vn -1 -0.0003493429 1.215175E-06
vn -1 -0.0003493429 1.215175E-06
vn -1 -0.0003493429 1.215175E-06
vn -1 -0.0003493429 1.215175E-06
vn -1 -0.0003493429 1.215175E-06
vn -1 -0.0003493429 1.215175E-06
vn -1 -0.0003493429 1.215175E-06
vn -1 -0.0003493429 1.215175E-06
vn -1 -0.0003493429 1.215175E-06
vn -1 -0.0003493429 1.215175E-06
vn -1 -0.0003493429 1.215175E-06
vn -1 -0.0003493429 1.215175E-06
vn -1 -0.0003493429 1.215175E-06
vn -1 -0.0003493429 1.215175E-06

vt 0 0
vt 0 0
vt 0 0
vt 0 0
vt 0 0
vt 0 0
vt 0 0
vt 0 0
vt 0 0
vt 0 0
vt 0 0
vt 0 0
vt 0 0
vt 0 0
vt 0 0
vt 0 0
vt 0 0
vt 0 0
vt 0 0
vt 0 0
vt 0 0
vt 0 0
vt 0 0
vt 0 0
vt 0 0
vt 0 0
vt 0 0
vt 0 0
vt 0 0
vt 0 0
vt 0 0
vt 0 0
vt 0 0
vt 0 0
vt 0 0
vt 0 0
vt 0 0
vt 0 0
vt 0 0
vt 0 0

g Cube_009_(4)_1590_216
usemtl Cube_009_(4)_1590_216
usemap Cube_009_(4)_1590_216
f 1/1/1 3/3/3 2/2/2
f 1/1/1 4/4/4 3/3/3
f 5/5/5 7/7/7 6/6/6
f 5/5/5 8/8/8 7/7/7
f 9/9/9 11/11/11 10/10/10
f 9/9/9 12/12/12 11/11/11
f 13/13/13 15/15/15 14/14/14
f 13/13/13 16/16/16 15/15/15
f 17/17/17 19/19/19 18/18/18
f 17/17/17 20/20/20 19/19/19
f 21/21/21 23/23/23 22/22/22
f 21/21/21 24/24/24 23/23/23
f 25/25/25 27/27/27 26/26/26
f 25/25/25 28/28/28 27/27/27
f 29/29/29 31/31/31 30/30/30
f 29/29/29 32/32/32 31/31/31
f 33/33/33 35/35/35 34/34/34
f 33/33/33 36/36/36 35/35/35
f 37/37/37 39/39/39 38/38/38
f 37/37/37 40/40/40 39/39/39
