#Cube_008_(3)_1580_129.obj

v -5.913386 -0.8467232 1.86023
v -5.913386 3.672751 1.854935
v -5.913386 3.672801 1.897315
v -5.913386 -0.8466735 1.90261
v -5.913386 3.672751 1.854935
v 0.8872705 3.672752 1.854935
v 0.8872705 3.672801 1.897315
v -5.913386 3.672801 1.897315
v 0.8872705 3.672752 1.854935
v 0.8872714 -0.8467183 1.86023
v 0.8872714 -0.8466687 1.90261
v 0.8872705 3.672801 1.897315
v 0.8872714 -0.8467183 1.86023
v -5.913386 -0.8467232 1.86023
v -5.913386 -0.8466735 1.90261
v 0.8872714 -0.8466687 1.90261
v -5.913386 3.672751 1.854935
v -5.913386 -0.8467232 1.86023
v 0.8872714 -0.8467183 1.86023
v 0.8872705 3.672752 1.854935
v 0.8872705 3.672801 1.897315
v 0.8872714 -0.8466687 1.90261
v -5.913386 -0.8466735 1.90261
v -5.913386 3.672801 1.897315

vn -1 0 -5.13792E-05
vn -1 0 -5.13792E-05
vn -1 0 -5.13792E-05
vn -1 0 -5.13792E-05
vn 5.13196E-05 0 -0.9999999
vn 5.13196E-05 0 -0.9999999
vn 5.13196E-05 0 -0.9999999
vn 5.13196E-05 0 -0.9999999
vn 1 0 5.13792E-05
vn 1 0 5.13792E-05
vn 1 0 5.13792E-05
vn 1 0 5.13792E-05
vn -5.13196E-05 0 0.9999999
vn -5.13196E-05 0 0.9999999
vn -5.13196E-05 0 0.9999999
vn -5.13196E-05 0 0.9999999
vn 0 -0.9999996 0
vn 0 -0.9999996 0
vn 0 -0.9999996 0
vn 0 -0.9999996 0
vn 0 0.9999996 0
vn 0 0.9999996 0
vn 0 0.9999996 0
vn 0 0.9999996 0

vt 0 0
vt 0 0
vt 0 0
vt 0 0
vt 0 0
vt 0 0
vt 0 0
vt 0 0
vt 0 0
vt 0 0
vt 0 0
vt 0 0
vt 0 0
vt 0 0
vt 0 0
vt 0 0
vt 0 0
vt 0 0
vt 0 0
vt 0 0
vt 0 0
vt 0 0
vt 0 0
vt 0 0

g Cube_008_(3)_1580_129
usemtl Cube_008_(3)_1580_129
usemap Cube_008_(3)_1580_129
f 1/1/1 3/3/3 2/2/2
f 1/1/1 4/4/4 3/3/3
f 5/5/5 7/7/7 6/6/6
f 5/5/5 8/8/8 7/7/7
f 9/9/9 11/11/11 10/10/10
f 9/9/9 12/12/12 11/11/11
f 13/13/13 15/15/15 14/14/14
f 13/13/13 16/16/16 15/15/15
f 17/17/17 19/19/19 18/18/18
f 17/17/17 20/20/20 19/19/19
f 21/21/21 23/23/23 22/22/22
f 21/21/21 24/24/24 23/23/23
