#Cube_006_(1)_1750_166.obj

v -0.9406302 -0.7997584 1.767012
v -0.01854733 2.058252 1.767011
v 1.293828 2.058253 1.767011
v 2.302088 -0.7997578 1.767012
v 1.293828 2.751855 1.767011
v 2.302087 3.655149 1.767011
v -0.01854733 2.751854 1.767011
v -0.9406307 3.655149 1.767011

vn -1.192093E-07 0.9999999 1.421085E-14
vn -1.192093E-07 0.9999999 1.421085E-14
vn -1.192093E-07 0.9999999 1.421085E-14
vn -1.192093E-07 0.9999999 1.421085E-14
vn -1.192093E-07 0.9999999 1.421085E-14
vn -1.192093E-07 0.9999999 1.421085E-14
vn -1.192093E-07 0.9999999 1.421085E-14
vn -1.192093E-07 0.9999999 1.421085E-14

vt 0 0
vt 0 0
vt 0 0
vt 0 0
vt 0 0
vt 0 0
vt 0 0
vt 0 0

g Cube_006_(1)_1750_166
usemtl Cube_006_(1)_1750_166
usemap Cube_006_(1)_1750_166
f 1/1/1 3/3/3 2/2/2
f 1/1/1 4/4/4 3/3/3
f 4/4/4 5/5/5 3/3/3
f 4/4/4 6/6/6 5/5/5
f 6/6/6 7/7/7 5/5/5
f 6/6/6 8/8/8 7/7/7
f 8/8/8 2/2/2 7/7/7
f 8/8/8 1/1/1 2/2/2
