#Cube_009_(4)_1590_215.obj

v -1.144398 -0.9723067 -0.9899311
v -1.499412 -0.9723074 -0.989931
v -1.499412 -0.9723066 -0.3485222
v -1.144398 -0.972307 -0.3485222
v -3.621579 -0.9723073 -0.9899311
v -3.976594 -0.9723069 -0.9899312
v -3.976594 -0.9723073 -0.3485223
v -3.621579 -0.9723077 -0.3485223

vn -1 -0.0003493429 1.215175E-06
vn -1 -0.0003493429 1.215175E-06
vn -1 -0.0003493429 1.215175E-06
vn -1 -0.0003493429 1.215175E-06
vn -1 -0.0003493429 1.215175E-06
vn -1 -0.0003493429 1.215175E-06
vn -1 -0.0003493429 1.215175E-06
vn -1 -0.0003493429 1.215175E-06

vt 0 0
vt 0 0
vt 0 0
vt 0 0
vt 0 0
vt 0 0
vt 0 0
vt 0 0

g Cube_009_(4)_1590_215
usemtl Cube_009_(4)_1590_215
usemap Cube_009_(4)_1590_215
f 1/1/1 3/3/3 2/2/2
f 1/1/1 4/4/4 3/3/3
f 5/5/5 7/7/7 6/6/6
f 5/5/5 8/8/8 7/7/7
