#Cube_283_2371_0.obj

v -21.35773 3.617887 7.858944
v -23.78166 8.753709 6.715044
v -23.78166 8.753709 8.046324
v -21.35773 3.617894 10.33415
v -21.35773 3.617887 -2.441437E-05
v -23.78166 8.753709 -2.512381E-05
v -23.78166 8.753709 6.715044
v -8.854451 22.79498 6.715042
v -8.854451 22.79498 8.046322
v -23.78166 8.753709 8.046324
v -23.78166 8.753709 -2.512381E-05
v -8.854451 22.79498 -2.677918E-05
v 24.49477 -10.0994 8.629261
v 26.74165 -15.88985 5.681114
v 26.74165 -15.88985 8.398107
v 22.91555 -11.58489 17.25856
v 26.74165 -15.88985 5.681114
v 12.6557 -29.1398 5.681116
v 12.6557 -29.1398 8.398108
v 26.74165 -15.88985 8.398107
v 26.74165 -15.88985 -2.204955E-05
v 12.6557 -29.1398 -2.063066E-05
v 7.01337 -26.54329 -2.086714E-05
v 12.6557 -29.1398 -2.063066E-05
v 26.74165 -15.88985 -2.204955E-05
v 24.49477 -10.0994 -2.2759E-05
v -2.680888 -16.23736 -2.204955E-05
v 14.8005 0.2065194 -2.417789E-05
v -12.37514 -5.931448 -2.323196E-05
v 5.106238 10.51243 -2.536029E-05
v -15.01594 -3.124035 -2.370492E-05
v 2.465461 13.31983 -2.559678E-05
v -17.65673 -0.3166385 -2.39414E-05
v -0.1753473 16.12725 -2.606974E-05
v -21.35773 3.617887 -2.441437E-05
v -3.87635 20.06176 -2.65427E-05
v -23.78166 8.753709 -2.512381E-05
v -8.854451 22.79498 -2.677918E-05
v 22.91555 -11.58489 17.25856
v 22.25776 -13.82332 15.44287
v 10.86704 -24.53801 15.44288
v 8.592598 -25.05778 17.25856
v 26.74165 -15.88985 8.398107
v 24.49147 -16.38679 10.21379
v 13.28923 -26.92418 10.21379
v 12.6557 -29.1398 8.398108
v 13.22128 -1.278971 17.25856
v 22.91555 -11.58489 17.25856
v 8.592598 -25.05778 17.25856
v -1.101659 -14.75187 17.25856
v 3.527025 9.026937 17.25856
v -10.79593 -4.445964 17.25856
v 24.49477 -10.0994 8.629261
v 23.76219 -9.687222 9.629042
v 15.74069 -1.159618 9.629041
v 14.8005 0.2065194 8.62926
v 22.91555 -11.58489 17.25856
v 21.2414 -9.438497 16.25878
v 13.22128 -1.278971 17.25856
v 14.52741 -2.300905 16.25878
v 3.527025 9.026937 17.25856
v 12.23878 0.1662986 16.20595
v 4.909561 7.957957 16.20595
v 12.6557 -29.1398 5.681116
v 7.01337 -26.54327 8.629263
v 8.592598 -25.05778 17.25856
v 12.6557 -29.1398 8.398108
v 1.744104 14.08671 9.517031
v 2.250031 13.54884 8.629258
v 3.527025 9.026937 17.25856
v 1.539058 12.44841 13.79635
v 1.539058 12.44841 13.79635
v 0.7765651 11.73119 13.79635
v -0.6157103 14.55016 11.09501
v -0.1753322 16.12725 10.33415
v -16.05567 0.02655122 11.09501
v -17.65673 -0.3166234 10.33415
v -13.32706 -1.535401 13.79635
v -14.08953 -2.252617 13.79635
v -10.53997 -3.042338 16.4977
v -10.79593 -4.445964 17.25856
v 2.110375 8.857238 16.49769
v 3.527025 9.026937 17.25856
v -15.61544 -2.486715 8.62926
v -14.6125 -3.552941 9.522037
v -3.683835 -15.17114 9.522038
v -2.680888 -16.23736 8.629262
v -2.680888 -16.23736 -2.204955E-05
v -12.37514 -5.931448 -2.323196E-05
v -16.071 -2.002409 6.898164
v -15.01594 -3.124035 -2.370492E-05
v -17.65673 -0.3166234 5.167056
v -17.65673 -0.3166385 -2.39414E-05
v -21.35773 3.617887 7.858944
v -21.35773 3.617894 10.33415
v -17.65673 -0.3166234 10.33415
v -21.35773 3.617887 -2.441437E-05
v 7.01337 -26.54329 -2.086714E-05
v 7.01337 -26.54327 8.629263
v -3.87635 20.06177 10.33415
v -0.1753322 16.12725 10.33415
v -17.65673 -0.3166234 10.33415
v -21.35773 3.617894 10.33415
v -3.87635 20.06176 7.858942
v -0.1753473 16.12725 7.858942
v -0.1753322 16.12725 10.33415
v -3.87635 20.06177 10.33415
v -3.87635 20.06176 -2.65427E-05
v -0.1753473 16.12725 -2.606974E-05
v 1.744104 14.08671 9.517031
v 2.465461 13.31983 -2.559678E-05
v 2.250031 13.54884 8.629258
v 5.106238 10.51243 -2.536029E-05
v 14.8005 0.2065194 8.62926
v 14.8005 0.2065194 -2.417789E-05
v 24.49477 -10.0994 8.629261
v 24.49477 -10.0994 -2.2759E-05
v 3.432546 12.29172 9.681875
v 13.61798 1.463648 9.681877
v -16.071 -2.002409 6.898164
v -17.65673 -0.3166234 5.167056
v -17.65673 -0.3166234 10.33415
v -14.08953 -2.252617 13.79635
v -8.854451 22.79498 6.715042
v -3.87635 20.06176 7.858942
v -3.87635 20.06177 10.33415
v -8.854451 22.79498 8.046322
v -8.854451 22.79498 -2.677918E-05
v -3.87635 20.06176 -2.65427E-05
v -8.854451 22.79498 8.046322
v -3.87635 20.06177 10.33415
v -21.35773 3.617894 10.33415
v -23.78166 8.753709 8.046324
v -15.61544 -2.486715 8.62926
v -16.071 -2.002409 6.898164
v -14.08953 -2.252617 13.79635
v -10.79593 -4.445964 17.25856
v -0.1753473 16.12725 7.858942
v 1.744104 14.08671 9.517031
v 1.539058 12.44841 13.79635
v -0.1753322 16.12725 10.33415
v 12.6557 -29.1398 -2.063066E-05
v 7.01337 -26.54329 -2.086714E-05
v 7.01337 -26.54327 8.629263
v 12.6557 -29.1398 5.681116
v 24.49477 -10.0994 -2.2759E-05
v 26.74165 -15.88985 -2.204955E-05
v 26.74165 -15.88985 5.681114
v 24.49477 -10.0994 8.629261
v 7.01337 -26.54327 8.629263
v 6.295465 -25.33239 9.85006
v 5.961477 -22.70831 16.03776
v 8.592598 -25.05778 17.25856
v -2.680888 -16.23736 8.629262
v -1.086017 -17.48519 9.850059
v -1.101659 -14.75187 17.25856
v 0.04637788 -16.42001 16.03776
v -2.265845 -13.8373 16.3658
v -9.954216 -5.663848 16.36579
v -10.79593 -4.445964 17.25856
v 2.250031 13.54884 8.629258
v 3.432546 12.29172 9.681875
v 4.909561 7.957957 16.20595
v 3.527025 9.026937 17.25856
v 13.22128 -1.278971 17.25856
v 12.23878 0.1662986 16.20595
v 13.61798 1.463648 9.681877
v 14.8005 0.2065194 8.62926
v -10.79593 -4.445964 17.25856
v -9.954216 -5.663848 16.36579
v -14.6125 -3.552941 9.522037
v -15.61544 -2.486715 8.62926
v -2.680888 -16.23736 8.629262
v -3.683835 -15.17114 9.522038
v -2.265845 -13.8373 16.3658
v -1.101659 -14.75187 17.25856

vn -0.904339 5.088031E-08 0.426815
vn -0.904339 5.088031E-08 0.426815
vn -0.904339 5.088031E-08 0.426815
vn -0.904339 5.088031E-08 0.426815
vn -0.904339 5.088031E-08 0.426815
vn -0.904339 5.088031E-08 0.426815
vn -0.6851613 -8.683102E-08 -0.7283914
vn -0.6851613 -8.683102E-08 -0.7283914
vn -0.6851613 -8.683102E-08 -0.7283914
vn -0.6851613 -8.683102E-08 -0.7283914
vn -0.6851608 -8.683107E-08 -0.7283919
vn -0.6851608 -8.683107E-08 -0.7283919
vn 0.9203832 0.173951 -0.3501941
vn 0.9203832 0.173951 -0.3501941
vn 0.9203832 0.173951 -0.3501941
vn 0.9203832 0.173951 -0.3501941
vn 0.6851613 8.683102E-08 0.7283914
vn 0.6851613 8.683102E-08 0.7283914
vn 0.6851613 8.683102E-08 0.7283914
vn 0.6851613 8.683102E-08 0.7283914
vn 0.6851613 8.683102E-08 0.7283914
vn 0.6851613 8.683102E-08 0.7283914
vn 0 -1 1.192093E-07
vn 0 -1 1.192093E-07
vn 0 -1 1.192093E-07
vn 0 -1 1.192093E-07
vn 0 -1 1.192093E-07
vn 0 -1 1.192093E-07
vn 0 -1 1.192093E-07
vn 0 -1 1.192093E-07
vn 0 -1 1.192093E-07
vn 0 -1 1.192093E-07
vn 0 -1 1.192093E-07
vn 0 -1 1.192093E-07
vn 0 -1 1.192093E-07
vn 0 -1 1.192093E-07
vn 0 -1 1.192093E-07
vn 0 -1 1.192093E-07
vn 0.5745311 0.5448492 0.6107811
vn 0.5745311 0.5448492 0.6107811
vn 0.5745311 0.5448492 0.6107811
vn 0.5745311 0.5448492 0.6107811
vn 0.5745317 0.5448489 0.6107807
vn 0.5745314 0.5448484 0.6107814
vn 0.5745314 0.5448484 0.6107814
vn 0.5745311 0.5448481 0.610782
vn 0 1 -1.192093E-07
vn 0 1 -1.192093E-07
vn 0 1 -1.192093E-07
vn 0 1 -1.192093E-07
vn 0 1 -1.192093E-07
vn 0 1 -1.192093E-07
vn 0.706435 0.2436749 -0.664509
vn 0.706435 0.2436749 -0.664509
vn 0.706435 0.2436749 -0.664509
vn 0.706435 0.2436749 -0.664509
vn 0.7064359 0.2436699 -0.66451
vn 0.706435 0.2436749 -0.664509
vn 0.7048034 0.2524251 -0.6629735
vn 0.706435 0.2436749 -0.664509
vn 0.7048034 0.2524251 -0.6629735
vn 0.7048034 0.2524251 -0.6629735
vn 0.7048034 0.2524251 -0.6629735
vn -0.4057819 0.1739511 0.8972638
vn -0.4057819 0.1739511 0.8972638
vn -0.4057819 0.1739511 0.8972638
vn -0.4057819 0.1739511 0.8972638
vn 0.7460453 0.23532 -0.6229293
vn 0.7460453 0.23532 -0.6229293
vn 0.7460453 0.23532 -0.6229293
vn 0.7460453 0.23532 -0.6229293
vn -0.4578629 0.7439309 -0.486753
vn -0.4578629 0.7439309 -0.486753
vn -0.4578629 0.7439309 -0.486753
vn -0.4578629 0.7439309 -0.486753
vn -0.4578637 0.7439306 -0.4867528
vn -0.4578637 0.7439306 -0.4867528
vn -0.4578649 0.7439297 -0.486753
vn -0.4578649 0.7439297 -0.486753
vn -0.4578649 0.7439297 -0.486753
vn -0.4578649 0.7439297 -0.486753
vn -0.4578649 0.7439297 -0.486753
vn -0.4578651 0.7439301 -0.4867522
vn -0.7283908 8.167765E-08 0.6851619
vn -0.7283908 8.167765E-08 0.6851619
vn -0.7283908 8.167765E-08 0.6851619
vn -0.7283908 8.167765E-08 0.6851619
vn -0.7283908 8.167765E-08 0.6851619
vn -0.7283923 8.167747E-08 0.6851603
vn -0.7283923 8.167747E-08 0.6851603
vn -0.7283923 8.167747E-08 0.6851603
vn -0.7283908 8.167765E-08 0.6851619
vn -0.7283913 8.167759E-08 0.6851614
vn -0.7283908 8.167765E-08 0.6851619
vn -0.7283908 8.167765E-08 0.6851619
vn -0.7283908 8.167765E-08 0.6851619
vn -0.7283913 8.167759E-08 0.6851614
vn -0.7283908 8.167765E-08 0.6851619
vn -0.7283908 8.167765E-08 0.6851619
vn 0 1 -1.192093E-07
vn 0 1 -1.192093E-07
vn 0 1 -1.192093E-07
vn 0 1 -1.192093E-07
vn 0.7283903 -8.167772E-08 -0.6851624
vn 0.7283903 -8.167772E-08 -0.6851624
vn 0.7283903 -8.167772E-08 -0.6851624
vn 0.7283903 -8.167772E-08 -0.6851624
vn 0.7283903 -8.167772E-08 -0.6851624
vn 0.7283918 -8.167753E-08 -0.6851609
vn 0.7283918 -8.167753E-08 -0.6851609
vn 0.7283918 -8.167753E-08 -0.6851609
vn 0.7283913 -8.167759E-08 -0.6851614
vn 0.7283913 -8.167759E-08 -0.6851614
vn 0.7283908 -8.167765E-08 -0.6851619
vn 0.7283908 -8.167765E-08 -0.6851619
vn 0.7283908 -8.167765E-08 -0.6851619
vn 0.7283908 -8.167765E-08 -0.6851619
vn 0.7283908 -8.167765E-08 -0.6851619
vn 0.7283908 -8.167765E-08 -0.6851619
vn -0.6303638 0.08752707 0.7713499
vn -0.6303638 0.08752707 0.7713499
vn -0.6303638 0.08752707 0.7713499
vn -0.6303638 0.08752707 0.7713499
vn 0.481278 -1.044951E-07 -0.8765681
vn 0.481278 -1.044951E-07 -0.8765681
vn 0.481278 -1.044951E-07 -0.8765681
vn 0.481278 -1.044951E-07 -0.8765681
vn 0.481278 -1.044951E-07 -0.8765681
vn 0.481278 -1.044951E-07 -0.8765681
vn -0.2672141 0.9208144 -0.2840733
vn -0.2672141 0.9208144 -0.2840733
vn -0.2672141 0.9208144 -0.2840733
vn -0.2672141 0.9208144 -0.2840733
vn -0.7698601 0.2538771 0.5855441
vn -0.7698601 0.2538771 0.5855441
vn -0.7698601 0.2538771 0.5855441
vn -0.7698601 0.2538771 0.5855441
vn 0.751278 0.177019 -0.6358031
vn 0.751278 0.177019 -0.6358031
vn 0.751278 0.177019 -0.6358031
vn 0.751278 0.177019 -0.6358031
vn -0.4180451 1.082929E-07 0.9084264
vn -0.4180451 1.082929E-07 0.9084264
vn -0.4180451 1.082929E-07 0.9084264
vn -0.4180451 1.082929E-07 0.9084264
vn 0.932274 -4.312432E-08 -0.361753
vn 0.932274 -4.312432E-08 -0.361753
vn 0.932274 -4.312432E-08 -0.361753
vn 0.932274 -4.312432E-08 -0.361753
vn -0.706436 0.2436751 0.664508
vn -0.706436 0.2436751 0.664508
vn -0.706436 0.2436751 0.664508
vn -0.706436 0.2436751 0.664508
vn -0.706435 0.2436751 0.664509
vn -0.706435 0.2436751 0.664509
vn -0.7069861 0.2406472 0.6650262
vn -0.706435 0.2436751 0.664509
vn -0.7005981 0.2736011 0.659018
vn -0.7005981 0.2736011 0.659018
vn -0.7069861 0.2406472 0.6650262
vn 0.6414891 0.296813 -0.7073852
vn 0.6414891 0.296813 -0.7073852
vn 0.6414891 0.296813 -0.7073852
vn 0.6414891 0.296813 -0.7073852
vn 0.7539828 0.2581329 -0.6040509
vn 0.7539828 0.2581329 -0.6040509
vn 0.7539828 0.2581329 -0.6040509
vn 0.7539828 0.2581329 -0.6040509
vn -0.7428218 0.2972 0.5999067
vn -0.7428218 0.2972 0.5999067
vn -0.7428218 0.2972 0.5999067
vn -0.7428218 0.2972 0.5999067
vn -0.6521242 0.2563202 0.7134662
vn -0.6521242 0.2563202 0.7134662
vn -0.6521242 0.2563202 0.7134662
vn -0.6521242 0.2563202 0.7134662

g Cube_283_2371_0
usemtl Cube_283_2371_0
usemap Cube_283_2371_0
f 1//1 3//3 2//2
f 1//1 4//4 3//3
f 5//5 1//1 2//2
f 5//5 2//2 6//6
f 7//7 9//9 8//8
f 7//7 10//10 9//9
f 11//11 7//7 8//8
f 11//11 8//8 12//12
f 13//13 15//15 14//14
f 13//13 16//16 15//15
f 17//17 19//19 18//18
f 17//17 20//20 19//19
f 21//21 17//17 18//18
f 21//21 18//18 22//22
f 23//23 25//25 24//24
f 23//23 26//26 25//25
f 27//27 26//26 23//23
f 27//27 28//28 26//26
f 29//29 28//28 27//27
f 29//29 30//30 28//28
f 31//31 30//30 29//29
f 31//31 32//32 30//30
f 33//33 32//32 31//31
f 33//33 34//34 32//32
f 35//35 34//34 33//33
f 35//35 36//36 34//34
f 37//37 36//36 35//35
f 37//37 38//38 36//36
f 39//39 41//41 40//40
f 39//39 42//42 41//41
f 43//43 39//39 40//40
f 43//43 40//40 44//44
f 42//42 45//45 41//41
f 42//42 46//46 45//45
f 46//46 44//44 45//45
f 46//46 43//43 44//44
f 47//47 49//49 48//48
f 47//47 50//50 49//49
f 51//51 50//50 47//47
f 51//51 52//52 50//50
f 53//53 55//55 54//54
f 53//53 56//56 55//55
f 57//57 53//53 54//54
f 57//57 54//54 58//58
f 59//59 57//57 58//58
f 59//59 58//58 60//60
f 56//56 60//60 55//55
f 56//56 59//59 60//60
f 61//61 59//59 62//62
f 61//61 62//62 63//63
f 64//64 66//66 65//65
f 64//64 67//67 66//66
f 68//68 70//70 69//69
f 68//68 71//71 70//70
f 72//72 74//74 73//73
f 72//72 75//75 74//74
f 75//75 76//76 74//74
f 75//75 77//77 76//76
f 77//77 78//78 76//76
f 77//77 79//79 78//78
f 79//79 80//80 78//78
f 79//79 81//81 80//80
f 81//81 82//82 80//80
f 81//81 83//83 82//82
f 83//83 73//73 82//82
f 83//83 72//72 73//73
f 84//84 86//86 85//85
f 84//84 87//87 86//86
f 88//88 87//87 84//84
f 88//88 84//84 89//89
f 89//89 84//84 90//90
f 89//89 90//90 91//91
f 91//91 90//90 92//92
f 91//91 92//92 93//93
f 93//93 92//92 94//94
f 92//92 95//95 94//94
f 92//92 96//96 95//95
f 93//93 94//94 97//97
f 98//98 87//87 88//88
f 98//98 99//99 87//87
f 100//100 102//102 101//101
f 100//100 103//103 102//102
f 104//104 106//106 105//105
f 104//104 107//107 106//106
f 108//108 104//104 105//105
f 108//108 105//105 109//109
f 109//109 105//105 110//110
f 109//109 110//110 111//111
f 111//111 110//110 112//112
f 111//111 112//112 113//113
f 113//113 112//112 114//114
f 113//113 114//114 115//115
f 115//115 114//114 116//116
f 115//115 116//116 117//117
f 114//114 112//112 118//118
f 114//114 118//118 119//119
f 120//120 122//122 121//121
f 120//120 123//123 122//122
f 124//124 126//126 125//125
f 124//124 127//127 126//126
f 128//128 124//124 125//125
f 128//128 125//125 129//129
f 130//130 132//132 131//131
f 130//130 133//133 132//132
f 134//134 136//136 135//135
f 134//134 137//137 136//136
f 138//138 140//140 139//139
f 138//138 141//141 140//140
f 142//142 144//144 143//143
f 142//142 145//145 144//144
f 146//146 148//148 147//147
f 146//146 149//149 148//148
f 150//150 152//152 151//151
f 150//150 153//153 152//152
f 154//154 150//150 151//151
f 154//154 151//151 155//155
f 156//156 154//154 155//155
f 156//156 155//155 157//157
f 153//153 157//157 152//152
f 153//153 156//156 157//157
f 156//156 159//159 158//158
f 156//156 160//160 159//159
f 161//161 163//163 162//162
f 161//161 164//164 163//163
f 165//165 167//167 166//166
f 165//165 168//168 167//167
f 169//169 171//171 170//170
f 169//169 172//172 171//171
f 173//173 175//175 174//174
f 173//173 176//176 175//175
