#Cube_283_2371_1.obj

v 0.7765651 11.73119 13.79635
v 2.110375 8.857238 16.49769
v -10.53997 -3.042338 16.4977
v -13.32706 -1.535401 13.79635
v -0.6157103 14.55016 11.09501
v -16.05567 0.02655122 11.09501
v 3.432546 12.29172 9.681875
v 13.61798 1.463648 9.681877
v 12.23878 0.1662986 16.20595
v 4.909561 7.957957 16.20595
v -3.683835 -15.17114 9.522038
v -14.6125 -3.552941 9.522037
v -9.954216 -5.663848 16.36579
v -2.265845 -13.8373 16.3658
v 22.25776 -13.82332 15.44287
v 24.49147 -16.38679 10.21379
v 13.28923 -26.92418 10.21379
v 10.86704 -24.53801 15.44288
v 15.74069 -1.159618 9.629041
v 23.76219 -9.687222 9.629042
v 21.2414 -9.438497 16.25878
v 14.52741 -2.300905 16.25878
v 6.295465 -25.33239 9.85006
v -1.086017 -17.48519 9.850059
v 0.04637788 -16.42001 16.03776
v 5.961477 -22.70831 16.03776
v -14.61991 -4.079898 0.03162038
v -16.18569 -2.415324 3.989821
v -13.5037 0.1075074 3.98982
v -11.93791 -1.557074 0.03162014
v 7.391794 -22.10638 -3.926578
v 8.957575 -23.77095 0.03162275
v 7.391794 -22.10638 3.989823
v 4.260239 -18.77724 -3.926578
v 4.260239 -18.77724 3.989823
v 2.694465 -17.11268 0.03162203
v 15.3363 -5.221132 0.03162061
v 16.90208 -6.885691 -3.92658
v 19.58407 -4.362866 -3.92658
v 18.0183 -2.6983 0.03162038
v -16.18569 -2.415324 3.989821
v -14.61991 -4.079898 0.03162038
v -16.18569 -2.415324 -3.92658
v -19.31724 0.9138077 3.98982
v -19.31724 0.9138077 -3.92658
v -20.88301 2.578374 0.03161967
v 6.275578 -26.29376 0.03162298
v 4.709804 -24.6292 3.989823
v 7.391794 -22.10638 3.989823
v 8.957575 -23.77095 0.03162275
v 16.90208 -6.885691 -3.92658
v 20.03363 -10.21482 -3.926579
v 22.71562 -7.692006 -3.926579
v 19.58407 -4.362866 -3.92658
v 4.709804 -24.6292 3.989823
v 6.275578 -26.29376 0.03162298
v 4.709804 -24.6292 -3.926578
v 1.578249 -21.30005 3.989823
v 1.578249 -21.30005 -3.926578
v 0.01247587 -19.6355 0.03162227
v 4.709804 -24.6292 -3.926578
v 6.275578 -26.29376 0.03162298
v 8.957575 -23.77095 0.03162275
v 7.391794 -22.10638 -3.926578
v 20.03363 -10.21482 -3.926579
v 21.59941 -11.8794 0.03162133
v 24.2814 -9.356587 0.03162109
v 22.71562 -7.692006 -3.926579
v 1.578249 -21.30005 3.989823
v 0.01247587 -19.6355 0.03162227
v 2.694465 -17.11268 0.03162203
v 4.260239 -18.77724 3.989823
v 1.578249 -21.30005 -3.926578
v 4.709804 -24.6292 -3.926578
v 7.391794 -22.10638 -3.926578
v 4.260239 -18.77724 -3.926578
v 21.59941 -11.8794 0.03162133
v 20.03363 -10.21482 3.989822
v 22.71562 -7.691998 3.989821
v 24.2814 -9.356587 0.03162109
v 22.71562 -7.692006 -3.926579
v 24.2814 -9.356587 0.03162109
v 22.71562 -7.691998 3.989821
v 19.58407 -4.362866 -3.92658
v 19.58407 -4.362866 3.989821
v 18.0183 -2.6983 0.03162038
v 0.01247587 -19.6355 0.03162227
v 1.578249 -21.30005 -3.926578
v 4.260239 -18.77724 -3.926578
v 2.694465 -17.11268 0.03162203
v 20.03363 -10.21482 3.989822
v 16.90208 -6.885691 3.989821
v 19.58407 -4.362866 3.989821
v 22.71562 -7.691998 3.989821
v -13.5037 0.1074923 -3.92658
v -11.93791 -1.557074 0.03162014
v -13.5037 0.1075074 3.98982
v -16.63524 3.436632 -3.926581
v -16.63524 3.436632 3.98982
v -18.20102 5.101198 0.03161943
v 4.709804 -24.6292 3.989823
v 1.578249 -21.30005 3.989823
v 4.260239 -18.77724 3.989823
v 7.391794 -22.10638 3.989823
v 16.90208 -6.885691 3.989821
v 15.3363 -5.221132 0.03162061
v 18.0183 -2.6983 0.03162038
v 19.58407 -4.362866 3.989821
v 20.03363 -10.21482 3.989822
v 21.59941 -11.8794 0.03162133
v 20.03363 -10.21482 -3.926579
v 16.90208 -6.885691 3.989821
v 16.90208 -6.885691 -3.92658
v 15.3363 -5.221132 0.03162061
v -16.18569 -2.415324 -3.92658
v -14.61991 -4.079898 0.03162038
v -11.93791 -1.557074 0.03162014
v -13.5037 0.1074923 -3.92658
v -19.31724 0.9138077 3.98982
v -20.88301 2.578374 0.03161967
v -18.20102 5.101198 0.03161943
v -16.63524 3.436632 3.98982
v -19.31724 0.9138077 -3.92658
v -16.18569 -2.415324 -3.92658
v -13.5037 0.1074923 -3.92658
v -16.63524 3.436632 -3.926581
v -20.88301 2.578374 0.03161967
v -19.31724 0.9138077 -3.92658
v -16.63524 3.436632 -3.926581
v -18.20102 5.101198 0.03161943
v -16.18569 -2.415324 3.989821
v -19.31724 0.9138077 3.98982
v -16.63524 3.436632 3.98982
v -13.5037 0.1075074 3.98982
v 0.6733305 10.30571 0.03161873
v -0.8924581 11.97026 3.989819
v 1.789547 14.49309 3.989818
v 3.355328 12.82851 0.03161849
v -0.8924581 11.97026 3.989819
v 0.6733305 10.30571 0.03161873
v -0.892443 11.97027 -3.926582
v -4.023997 15.29941 3.989818
v -4.023997 15.29941 -3.926582
v -5.589771 16.96398 0.03161801
v 1.789547 14.49308 -3.926582
v 3.355328 12.82851 0.03161849
v 1.789547 14.49309 3.989818
v -1.342008 17.82223 -3.926583
v -1.342008 17.82223 3.989818
v -2.907781 19.48679 0.03161754
v -0.892443 11.97027 -3.926582
v 0.6733305 10.30571 0.03161873
v 3.355328 12.82851 0.03161849
v 1.789547 14.49308 -3.926582
v -4.023997 15.29941 3.989818
v -5.589771 16.96398 0.03161801
v -2.907781 19.48679 0.03161754
v -1.342008 17.82223 3.989818
v -4.023997 15.29941 -3.926582
v -0.892443 11.97027 -3.926582
v 1.789547 14.49308 -3.926582
v -1.342008 17.82223 -3.926583
v -5.589771 16.96398 0.03161801
v -4.023997 15.29941 -3.926582
v -1.342008 17.82223 -3.926583
v -2.907781 19.48679 0.03161754
v -0.8924581 11.97026 3.989819
v -4.023997 15.29941 3.989818
v -1.342008 17.82223 3.989818
v 1.789547 14.49309 3.989818

vn -0.4578629 0.7439309 -0.486753
vn -0.4578649 0.7439297 -0.486753
vn -0.4578649 0.7439297 -0.486753
vn -0.4578649 0.7439297 -0.486753
vn -0.4578629 0.7439309 -0.486753
vn -0.4578637 0.7439306 -0.4867528
vn 0.6995249 0.2787299 -0.658008
vn 0.6995249 0.2787299 -0.658008
vn 0.7048034 0.2524251 -0.6629735
vn 0.7048034 0.2524251 -0.6629735
vn -0.7005981 0.2736011 0.659018
vn -0.7005981 0.2736011 0.659018
vn -0.7005981 0.2736011 0.659018
vn -0.7005981 0.2736011 0.659018
vn 0.5745311 0.5448492 0.6107811
vn 0.5745314 0.5448484 0.6107814
vn 0.5745314 0.5448484 0.6107814
vn 0.5745311 0.5448492 0.6107811
vn 0.706435 0.2436749 -0.664509
vn 0.706435 0.2436749 -0.664509
vn 0.706435 0.2436749 -0.664509
vn 0.706435 0.2436749 -0.664509
vn -0.706436 0.2436751 0.664508
vn -0.706435 0.2436751 0.664509
vn -0.706435 0.2436751 0.664509
vn -0.706436 0.2436751 0.664508
vn 0.5933669 0.500001 0.6308049
vn 0.5933669 0.500001 0.6308049
vn 0.5933669 0.500001 0.6308049
vn 0.5933669 0.500001 0.6308049
vn 0.7283918 -8.167753E-08 -0.6851609
vn 0.7283918 -8.167753E-08 -0.6851609
vn 0.7283918 -8.167753E-08 -0.6851609
vn 0.7283918 -8.167753E-08 -0.6851609
vn 0.7283918 -8.167753E-08 -0.6851609
vn 0.7283918 -8.167753E-08 -0.6851609
vn -0.5933682 -0.4999993 -0.6308052
vn -0.5933682 -0.4999993 -0.6308052
vn -0.5933682 -0.4999993 -0.6308052
vn -0.5933682 -0.4999993 -0.6308052
vn -0.7283908 8.167765E-08 0.6851619
vn -0.7283908 8.167765E-08 0.6851619
vn -0.7283908 8.167765E-08 0.6851619
vn -0.7283908 8.167765E-08 0.6851619
vn -0.7283908 8.167765E-08 0.6851619
vn -0.7283908 8.167765E-08 0.6851619
vn 0.5933658 0.5 0.6308067
vn 0.5933658 0.5 0.6308067
vn 0.5933658 0.5 0.6308067
vn 0.5933658 0.5 0.6308067
vn 0 -1 1.192093E-07
vn 0 -1 1.192093E-07
vn 0 -1 1.192093E-07
vn 0 -1 1.192093E-07
vn -0.7283913 8.167759E-08 0.6851614
vn -0.7283913 8.167759E-08 0.6851614
vn -0.7283913 8.167759E-08 0.6851614
vn -0.7283913 8.167759E-08 0.6851614
vn -0.7283913 8.167759E-08 0.6851614
vn -0.7283913 8.167759E-08 0.6851614
vn 0.5933658 -0.4999998 0.6308069
vn 0.5933658 -0.4999998 0.6308069
vn 0.5933658 -0.4999998 0.6308069
vn 0.5933658 -0.4999998 0.6308069
vn 0.5933678 -0.4999998 0.630805
vn 0.5933678 -0.4999998 0.630805
vn 0.5933678 -0.4999998 0.630805
vn 0.5933678 -0.4999998 0.630805
vn -0.5933678 0.4999988 -0.6308059
vn -0.5933678 0.4999988 -0.6308059
vn -0.5933678 0.4999988 -0.6308059
vn -0.5933678 0.4999988 -0.6308059
vn 0 -1 1.192093E-07
vn 0 -1 1.192093E-07
vn 0 -1 1.192093E-07
vn 0 -1 1.192093E-07
vn 0.5933672 0.5000003 0.6308053
vn 0.5933672 0.5000003 0.6308053
vn 0.5933672 0.5000003 0.6308053
vn 0.5933672 0.5000003 0.6308053
vn 0.7283913 -8.167759E-08 -0.6851614
vn 0.7283913 -8.167759E-08 -0.6851614
vn 0.7283913 -8.167759E-08 -0.6851614
vn 0.7283913 -8.167759E-08 -0.6851614
vn 0.7283913 -8.167759E-08 -0.6851614
vn 0.7283913 -8.167759E-08 -0.6851614
vn -0.5933682 -0.4999993 -0.6308052
vn -0.5933682 -0.4999993 -0.6308052
vn -0.5933682 -0.4999993 -0.6308052
vn -0.5933682 -0.4999993 -0.6308052
vn 0 1 -1.192093E-07
vn 0 1 -1.192093E-07
vn 0 1 -1.192093E-07
vn 0 1 -1.192093E-07
vn 0.7283913 -8.167759E-08 -0.6851614
vn 0.7283913 -8.167759E-08 -0.6851614
vn 0.7283913 -8.167759E-08 -0.6851614
vn 0.7283913 -8.167759E-08 -0.6851614
vn 0.7283913 -8.167759E-08 -0.6851614
vn 0.7283913 -8.167759E-08 -0.6851614
vn 0 1 -1.192093E-07
vn 0 1 -1.192093E-07
vn 0 1 -1.192093E-07
vn 0 1 -1.192093E-07
vn -0.5933682 0.4999991 -0.6308053
vn -0.5933682 0.4999991 -0.6308053
vn -0.5933682 0.4999991 -0.6308053
vn -0.5933682 0.4999991 -0.6308053
vn -0.7283913 8.167759E-08 0.6851614
vn -0.7283913 8.167759E-08 0.6851614
vn -0.7283913 8.167759E-08 0.6851614
vn -0.7283913 8.167759E-08 0.6851614
vn -0.7283913 8.167759E-08 0.6851614
vn -0.7283913 8.167759E-08 0.6851614
vn 0.5933668 -0.4999998 0.6308059
vn 0.5933668 -0.4999998 0.6308059
vn 0.5933668 -0.4999998 0.6308059
vn 0.5933668 -0.4999998 0.6308059
vn -0.5933692 0.4999991 -0.6308043
vn -0.5933692 0.4999991 -0.6308043
vn -0.5933692 0.4999991 -0.6308043
vn -0.5933692 0.4999991 -0.6308043
vn 0 -1 1.192093E-07
vn 0 -1 1.192093E-07
vn 0 -1 1.192093E-07
vn 0 -1 1.192093E-07
vn -0.5933689 -0.5000001 -0.6308039
vn -0.5933689 -0.5000001 -0.6308039
vn -0.5933689 -0.5000001 -0.6308039
vn -0.5933689 -0.5000001 -0.6308039
vn 0 1 -1.192093E-07
vn 0 1 -1.192093E-07
vn 0 1 -1.192093E-07
vn 0 1 -1.192093E-07
vn 0.5933669 0.500001 0.6308049
vn 0.5933669 0.500001 0.6308049
vn 0.5933669 0.500001 0.6308049
vn 0.5933669 0.500001 0.6308049
vn -0.7283913 8.167759E-08 0.6851614
vn -0.7283913 8.167759E-08 0.6851614
vn -0.7283913 8.167759E-08 0.6851614
vn -0.7283913 8.167759E-08 0.6851614
vn -0.7283913 8.167759E-08 0.6851614
vn -0.7283913 8.167759E-08 0.6851614
vn 0.7283913 -8.167759E-08 -0.6851614
vn 0.7283913 -8.167759E-08 -0.6851614
vn 0.7283913 -8.167759E-08 -0.6851614
vn 0.7283913 -8.167759E-08 -0.6851614
vn 0.7283913 -8.167759E-08 -0.6851614
vn 0.7283913 -8.167759E-08 -0.6851614
vn 0.5933662 -0.5000001 0.6308063
vn 0.5933662 -0.5000001 0.6308063
vn 0.5933662 -0.5000001 0.6308063
vn 0.5933662 -0.5000001 0.6308063
vn -0.5933671 0.499999 -0.6308063
vn -0.5933671 0.499999 -0.6308063
vn -0.5933671 0.499999 -0.6308063
vn -0.5933671 0.499999 -0.6308063
vn 0 -1 1.192093E-07
vn 0 -1 1.192093E-07
vn 0 -1 1.192093E-07
vn 0 -1 1.192093E-07
vn -0.5933668 -0.5 -0.6308058
vn -0.5933668 -0.5 -0.6308058
vn -0.5933668 -0.5 -0.6308058
vn -0.5933668 -0.5 -0.6308058
vn 0 1 -1.192093E-07
vn 0 1 -1.192093E-07
vn 0 1 -1.192093E-07
vn 0 1 -1.192093E-07

g Cube_283_2371_1
usemtl Cube_283_2371_1
usemap Cube_283_2371_1
f 1//1 3//3 2//2
f 1//1 4//4 3//3
f 5//5 4//4 1//1
f 5//5 6//6 4//4
f 7//7 9//9 8//8
f 7//7 10//10 9//9
f 11//11 13//13 12//12
f 11//11 14//14 13//13
f 15//15 17//17 16//16
f 15//15 18//18 17//17
f 19//19 21//21 20//20
f 19//19 22//22 21//21
f 23//23 25//25 24//24
f 23//23 26//26 25//25
f 27//27 29//29 28//28
f 27//27 30//30 29//29
f 31//31 33//33 32//32
f 33//33 31//31 34//34
f 33//33 34//34 35//35
f 35//35 34//34 36//36
f 37//37 39//39 38//38
f 37//37 40//40 39//39
f 41//41 43//43 42//42
f 43//43 41//41 44//44
f 43//43 44//44 45//45
f 45//45 44//44 46//46
f 47//47 49//49 48//48
f 47//47 50//50 49//49
f 51//51 53//53 52//52
f 51//51 54//54 53//53
f 55//55 57//57 56//56
f 57//57 55//55 58//58
f 57//57 58//58 59//59
f 59//59 58//58 60//60
f 61//61 63//63 62//62
f 61//61 64//64 63//63
f 65//65 67//67 66//66
f 65//65 68//68 67//67
f 69//69 71//71 70//70
f 69//69 72//72 71//71
f 73//73 75//75 74//74
f 73//73 76//76 75//75
f 77//77 79//79 78//78
f 77//77 80//80 79//79
f 81//81 83//83 82//82
f 83//83 81//81 84//84
f 83//83 84//84 85//85
f 85//85 84//84 86//86
f 87//87 89//89 88//88
f 87//87 90//90 89//89
f 91//91 93//93 92//92
f 91//91 94//94 93//93
f 95//95 97//97 96//96
f 97//97 95//95 98//98
f 97//97 98//98 99//99
f 99//99 98//98 100//100
f 101//101 103//103 102//102
f 101//101 104//104 103//103
f 105//105 107//107 106//106
f 105//105 108//108 107//107
f 109//109 111//111 110//110
f 111//111 109//109 112//112
f 111//111 112//112 113//113
f 113//113 112//112 114//114
f 115//115 117//117 116//116
f 115//115 118//118 117//117
f 119//119 121//121 120//120
f 119//119 122//122 121//121
f 123//123 125//125 124//124
f 123//123 126//126 125//125
f 127//127 129//129 128//128
f 127//127 130//130 129//129
f 131//131 133//133 132//132
f 131//131 134//134 133//133
f 135//135 137//137 136//136
f 135//135 138//138 137//137
f 139//139 141//141 140//140
f 141//141 139//139 142//142
f 141//141 142//142 143//143
f 143//143 142//142 144//144
f 145//145 147//147 146//146
f 147//147 145//145 148//148
f 147//147 148//148 149//149
f 149//149 148//148 150//150
f 151//151 153//153 152//152
f 151//151 154//154 153//153
f 155//155 157//157 156//156
f 155//155 158//158 157//157
f 159//159 161//161 160//160
f 159//159 162//162 161//161
f 163//163 165//165 164//164
f 163//163 166//166 165//165
f 167//167 169//169 168//168
f 167//167 170//170 169//169
