#Flag_1053_6.obj

v -0.1500006 0.2364287 5.708502E-07
v -0.1500006 0.2461134 5.708502E-07
v -6.344155 0.2461134 4.92133E-08
v -6.344155 0.2364287 4.92133E-08
v -14.50964 0.2461134 2.015392E-06
v -14.50964 0.2364287 2.015392E-06
v -0.1500006 0.2180878 5.708502E-07
v -0.1500006 0.2270665 5.708502E-07
v -6.344155 0.2270665 4.92133E-08
v -6.344155 0.2180878 4.92133E-08
v -14.50964 0.2270665 2.015392E-06
v -14.50964 0.2180878 2.015392E-06
v -0.1500006 0.2013581 5.708502E-07
v -0.1500006 0.2102589 5.708502E-07
v -6.344155 0.2102589 4.92133E-08
v -6.344155 0.2013581 4.92133E-08
v -14.50964 0.2102589 2.015392E-06
v -14.50964 0.2013581 2.015392E-06
v -6.344155 0.2747898 4.92133E-08
v -6.344155 0.2848337 4.92133E-08
v -14.50964 0.2848337 2.015392E-06
v -14.50964 0.2747898 2.015392E-06
v -6.344155 0.2551789 4.92133E-08
v -6.344155 0.2642874 4.92133E-08
v -14.50964 0.2642874 2.015392E-06
v -14.50964 0.2551789 2.015392E-06
v -6.344155 0.1829861 4.92133E-08
v -0.1500006 0.1829861 5.708502E-07
v -0.1500006 0.1920323 5.708502E-07
v -6.344155 0.1920323 4.92133E-08
v -14.50964 0.1829861 2.015392E-06
v -14.50964 0.1920323 2.015392E-06

vn 0.5740522 0 -0.8188187
vn 0.5740522 0 -0.8188187
vn 0.5740522 0 -0.8188187
vn 0.5740522 0 -0.8188187
vn 0.5740522 0 -0.8188187
vn 0.5740522 0 -0.8188187
vn 0.5740522 0 -0.8188187
vn 0.5740522 0 -0.8188187
vn 0.5740522 0 -0.8188187
vn 0.5740522 0 -0.8188187
vn 0.5740522 0 -0.8188187
vn 0.5740522 0 -0.8188187
vn 0.5740522 0 -0.8188187
vn 0.5740522 0 -0.8188187
vn 0.5740522 0 -0.8188187
vn 0.5740522 0 -0.8188187
vn 0.5740522 0 -0.8188187
vn 0.5740522 0 -0.8188187
vn 0.5740522 0 -0.8188187
vn 0.5740522 0 -0.8188187
vn 0.5740522 0 -0.8188187
vn 0.5740522 0 -0.8188187
vn 0.5740522 0 -0.8188187
vn 0.5740522 0 -0.8188187
vn 0.5740522 0 -0.8188187
vn 0.5740522 0 -0.8188187
vn 0.5740522 0 -0.8188187
vn 0.5740522 0 -0.8188187
vn 0.5740522 0 -0.8188187
vn 0.5740522 0 -0.8188187
vn 0.5740522 0 -0.8188187
vn 0.5740522 0 -0.8188187

vt 0 0
vt 1 0
vt 1 0.4404297
vt 0 0.4404297
vt 1 1
vt 0 1
vt 0 0
vt 1 0
vt 1 0.4404297
vt 0 0.4404297
vt 1 1
vt 0 1
vt 0 0
vt 1 0
vt 1 0.4404297
vt 0 0.4404297
vt 1 1
vt 0 1
vt 0 0.4404297
vt 1 0.4404297
vt 1 1
vt 0 1
vt 0 0.4404297
vt 1 0.4404297
vt 1 1
vt 0 1
vt 0.5429688 0.4404297
vt 0.5273438 0
vt 1 0
vt 1 0.4404297
vt 0.5317383 1
vt 1 1

g Flag_1053_6
usemtl Flag_1053_6
usemap Flag_1053_6
f 1/1/1 3/3/3 2/2/2
f 1/1/1 4/4/4 3/3/3
f 4/4/4 5/5/5 3/3/3
f 4/4/4 6/6/6 5/5/5
f 7/7/7 9/9/9 8/8/8
f 7/7/7 10/10/10 9/9/9
f 10/10/10 11/11/11 9/9/9
f 10/10/10 12/12/12 11/11/11
f 13/13/13 15/15/15 14/14/14
f 13/13/13 16/16/16 15/15/15
f 16/16/16 17/17/17 15/15/15
f 16/16/16 18/18/18 17/17/17
f 19/19/19 21/21/21 20/20/20
f 19/19/19 22/22/22 21/21/21
f 23/23/23 25/25/25 24/24/24
f 23/23/23 26/26/26 25/25/25
f 27/27/27 29/29/29 28/28/28
f 27/27/27 30/30/30 29/29/29
f 31/31/31 30/30/30 27/27/27
f 31/31/31 32/32/32 30/30/30
