#Flag_1053_5.obj

v -0.1500006 0.2848337 5.708502E-07
v -0.1500006 0.2942904 5.708502E-07
v -6.344155 0.2942904 4.92133E-08
v -6.344155 0.2848337 4.92133E-08
v -0.1500006 0.2747898 5.708502E-07
v -0.1500006 0.2848337 5.708502E-07
v -6.344155 0.2848337 4.92133E-08
v -6.344155 0.2747898 4.92133E-08
v -0.1500006 0.2642874 5.708502E-07
v -0.1500006 0.2747898 5.708502E-07
v -6.344155 0.2747898 4.92133E-08
v -6.344155 0.2642874 4.92133E-08
v -0.1500006 0.2551789 5.708502E-07
v -0.1500006 0.2642874 5.708502E-07
v -6.344155 0.2642874 4.92133E-08
v -6.344155 0.2551789 4.92133E-08
v -0.1500006 0.2461134 5.708502E-07
v -0.1500006 0.2551789 5.708502E-07
v -6.344155 0.2551789 4.92133E-08
v -6.344155 0.2461134 4.92133E-08

vn 0.5740522 0 -0.8188187
vn 0.5740522 0 -0.8188187
vn 0.5740522 0 -0.8188187
vn 0.5740522 0 -0.8188187
vn 0.5740522 0 -0.8188187
vn 0.5740522 0 -0.8188187
vn 0.5740522 0 -0.8188187
vn 0.5740522 0 -0.8188187
vn 0.5740522 0 -0.8188187
vn 0.5740522 0 -0.8188187
vn 0.5740522 0 -0.8188187
vn 0.5740522 0 -0.8188187
vn 0.5740522 0 -0.8188187
vn 0.5740522 0 -0.8188187
vn 0.5740522 0 -0.8188187
vn 0.5740522 0 -0.8188187
vn 0.5740522 0 -0.8188187
vn 0.5740522 0 -0.8188187
vn 0.5740522 0 -0.8188187
vn 0.5740522 0 -0.8188187

vt 0 0
vt 1 0
vt 1 0.4404297
vt 0 0.4404297
vt 0 0
vt 1 0
vt 1 0.4404297
vt 0 0.4404297
vt 0 0
vt 1 0
vt 1 0.4404297
vt 0 0.4404297
vt 0 0
vt 1 0
vt 1 0.4404297
vt 0 0.4404297
vt 0 0
vt 1 0
vt 1 0.4404297
vt 0 0.4404297

g Flag_1053_5
usemtl Flag_1053_5
usemap Flag_1053_5
f 1/1/1 3/3/3 2/2/2
f 1/1/1 4/4/4 3/3/3
f 5/5/5 7/7/7 6/6/6
f 5/5/5 8/8/8 7/7/7
f 9/9/9 11/11/11 10/10/10
f 9/9/9 12/12/12 11/11/11
f 13/13/13 15/15/15 14/14/14
f 13/13/13 16/16/16 15/15/15
f 17/17/17 19/19/19 18/18/18
f 17/17/17 20/20/20 19/19/19
