#Foliage3_38_4003_72.obj

v 0.01454483 -0.02577563 -0.0403592
v 0.004623498 -0.03397605 0.001090563
v 0.03878405 -0.02577565 -0.02105564
v -0.009663887 -0.02577565 -0.03817628
v -0.01825124 -0.02577563 -0.01778129
v -0.03822242 -0.0222322 0.001090812
v -0.02135127 -0.02577567 0.0199625
v -0.00529799 -0.02577563 0.03271723
v 0.02109371 -0.02577562 0.04035742
v 0.03059824 -0.02577564 0.01996246
v 0.03218911 -0.02223221 0.001090553
v 0.03878405 -0.02577565 -0.02105564
v 0.04796654 -0.01489237 -0.02772684
v 0.01805238 -0.01489239 -0.05115346
v 0.01454483 -0.02577563 -0.0403592
v 0.01454483 -0.02577563 -0.0403592
v 0.01805238 -0.01489239 -0.05115346
v -0.01317108 -0.01489237 -0.04897046
v -0.009663887 -0.02577565 -0.03817628
v -0.009663887 -0.02577565 -0.03817628
v -0.01317108 -0.01489237 -0.04897046
v -0.02743356 -0.01489241 -0.02445248
v -0.01825124 -0.02577563 -0.01778129
v -0.01825124 -0.02577563 -0.01778129
v -0.02743356 -0.01489241 -0.02445248
v -0.04796732 -0.0128882 0.001090747
v -0.03822242 -0.0222322 0.001090812
v -0.03822242 -0.0222322 0.001090812
v -0.04796732 -0.0128882 0.001090747
v -0.03053355 -0.01489239 0.02663402
v -0.02135127 -0.02577567 0.0199625
v -0.02135127 -0.02577567 0.0199625
v -0.03053355 -0.01489239 0.02663402
v -0.008805326 -0.0148924 0.0435118
v -0.00529799 -0.02577563 0.03271723
v -0.00529799 -0.02577563 0.03271723
v -0.008805326 -0.0148924 0.0435118
v 0.02460101 -0.0148924 0.05115195
v 0.02109371 -0.02577562 0.04035742
v 0.02109371 -0.02577562 0.04035742
v 0.02460101 -0.0148924 0.05115195
v 0.03978059 -0.01489236 0.02663381
v 0.03059824 -0.02577564 0.01996246
v 0.03059824 -0.02577564 0.01996246
v 0.03978059 -0.01489236 0.02663381
v 0.04193395 -0.0128882 0.001090707
v 0.03218911 -0.02223221 0.001090553
v 0.03218911 -0.02223221 0.001090553
v 0.04193395 -0.0128882 0.001090707
v 0.04796654 -0.01489237 -0.02772684
v 0.03878405 -0.02577565 -0.02105564
v 0.04796654 -0.01489237 -0.02772684
v 0.04796658 -0.0001483102 -0.02772686
v 0.01805231 -0.0001483014 -0.05115344
v 0.01805238 -0.01489239 -0.05115346
v 0.01805238 -0.01489239 -0.05115346
v 0.01805231 -0.0001483014 -0.05115344
v -0.01317104 -0.0001483154 -0.04897049
v -0.01317108 -0.01489237 -0.04897046
v -0.01317108 -0.01489237 -0.04897046
v -0.01317104 -0.0001483154 -0.04897049
v -0.02743352 -0.0001483089 -0.0244525
v -0.02743356 -0.01489241 -0.02445248
v -0.02743356 -0.01489241 -0.02445248
v -0.02743352 -0.0001483089 -0.0244525
v -0.04796732 -0.0002294238 0.001090728
v -0.04796732 -0.0128882 0.001090747
v -0.04796732 -0.0128882 0.001090747
v -0.04796732 -0.0002294238 0.001090728
v -0.03053362 -0.0001483079 0.02663403
v -0.03053355 -0.01489239 0.02663402
v -0.03053355 -0.01489239 0.02663402
v -0.03053362 -0.0001483079 0.02663403
v -0.008805291 -0.0001482989 0.04351178
v -0.008805326 -0.0148924 0.0435118
v -0.008805326 -0.0148924 0.0435118
v -0.008805291 -0.0001482989 0.04351178
v 0.02460105 -0.000148303 0.05115193
v 0.02460101 -0.0148924 0.05115195
v 0.02460101 -0.0148924 0.05115195
v 0.02460105 -0.000148303 0.05115193
v 0.03978064 -0.0001483066 0.02663379
v 0.03978059 -0.01489236 0.02663381
v 0.03978059 -0.01489236 0.02663381
v 0.03978064 -0.0001483066 0.02663379
v 0.04193395 -0.0002294298 0.001090688
v 0.04193395 -0.0128882 0.001090707
v 0.04193395 -0.0128882 0.001090707
v 0.04193395 -0.0002294298 0.001090688
v 0.04796658 -0.0001483102 -0.02772686
v 0.04796654 -0.01489237 -0.02772684
v 0.04796658 -0.0001483102 -0.02772686
v 0.0456886 0.01428336 -0.02539752
v 0.01714476 0.01428335 -0.04799196
v 0.01805231 -0.0001483014 -0.05115344
v 0.01805231 -0.0001483014 -0.05115344
v 0.01714476 0.01428335 -0.04799196
v -0.01182956 0.01428335 -0.04559859
v -0.01317104 -0.0001483154 -0.04897049
v -0.01317104 -0.0001483154 -0.04897049
v -0.01182956 0.01428335 -0.04559859
v -0.02321064 0.01428336 -0.02180707
v -0.02743352 -0.0001483089 -0.0244525
v -0.02743352 -0.0001483089 -0.0244525
v -0.02321064 0.01428336 -0.02180707
v -0.04530452 0.01197208 0.001195904
v -0.04796732 -0.0002294238 0.001090728
v -0.04796732 -0.0002294238 0.001090728
v -0.04530452 0.01197208 0.001195904
v -0.02660998 0.01428336 0.02419931
v -0.03053362 -0.0001483079 0.02663403
v -0.03053362 -0.0001483079 0.02663403
v -0.02660998 0.01428336 0.02419931
v -0.007042188 0.01428338 0.03961286
v -0.008805291 -0.0001482989 0.04351178
v -0.008805291 -0.0001482989 0.04351178
v -0.007042188 0.01428338 0.03961286
v 0.02432555 0.01428336 0.04799039
v 0.02460105 -0.000148303 0.05115193
v 0.02460105 -0.000148303 0.05115193
v 0.02432555 0.01428336 0.04799039
v 0.03671238 0.01428338 0.02419918
v 0.03978064 -0.0001483066 0.02663379
v 0.03978064 -0.0001483066 0.02663379
v 0.03671238 0.01428338 0.02419918
v 0.0386516 0.01197208 0.001196104
v 0.04193395 -0.0002294298 0.001090688
v 0.04193395 -0.0002294298 0.001090688
v 0.0386516 0.01197208 0.001196104
v 0.0456886 0.01428336 -0.02539752
v 0.04796658 -0.0001483102 -0.02772686
v 0.0456886 0.01428336 -0.02539752
v 0.03225199 0.02437441 -0.01614865
v 0.0120361 0.02437442 -0.03256945
v 0.01714476 0.01428335 -0.04799196
v 0.01714476 0.01428335 -0.04799196
v 0.0120361 0.02437442 -0.03256945
v -0.002592604 0.02437438 -0.0213945
v -0.01182956 0.01428335 -0.04559859
v -0.01182956 0.01428335 -0.04559859
v -0.002592604 0.02437438 -0.0213945
v -0.0112536 0.02437439 -0.01279617
v -0.02321064 0.01428336 -0.02180707
v -0.02321064 0.01428336 -0.02180707
v -0.0112536 0.02437439 -0.01279617
v -0.03124505 0.02074648 0.00111675
v -0.04530452 0.01197208 0.001195904
v -0.04530452 0.01197208 0.001195904
v -0.03124505 0.02074648 0.00111675
v -0.01442748 0.02437442 0.01502933
v -0.02660998 0.01428336 0.02419931
v -0.02660998 0.01428336 0.02419931
v -0.01442748 0.02437442 0.01502933
v -0.002592658 0.02437438 0.02474542
v -0.007042188 0.01428338 0.03961286
v -0.007042188 0.01428338 0.03961286
v -0.002592658 0.02437438 0.02474542
v 0.01874092 0.02437438 0.03256783
v 0.02432555 0.01428336 0.04799039
v 0.02432555 0.01428336 0.04799039
v 0.01874092 0.02437438 0.03256783
v 0.02387103 0.0243744 0.01502949
v 0.03671238 0.01428338 0.02419918
v 0.03671238 0.01428338 0.02419918
v 0.02387103 0.0243744 0.01502949
v 0.0250438 0.02074647 0.001116721
v 0.0386516 0.01197208 0.001196104
v 0.0386516 0.01197208 0.001196104
v 0.0250438 0.02074647 0.001116721
v 0.03225199 0.02437441 -0.01614865
v 0.0456886 0.01428336 -0.02539752
v 0.03225199 0.02437441 -0.01614865
v 0.004623498 0.03397606 0.00109076
v 0.0120361 0.02437442 -0.03256945
v 0.0120361 0.02437442 -0.03256945
v 0.004623498 0.03397606 0.00109076
v -0.002592604 0.02437438 -0.0213945
v -0.002592604 0.02437438 -0.0213945
v 0.004623498 0.03397606 0.00109076
v -0.0112536 0.02437439 -0.01279617
v -0.0112536 0.02437439 -0.01279617
v 0.004623498 0.03397606 0.00109076
v -0.03124505 0.02074648 0.00111675
v -0.03124505 0.02074648 0.00111675
v 0.004623498 0.03397606 0.00109076
v -0.01442748 0.02437442 0.01502933
v -0.01442748 0.02437442 0.01502933
v 0.004623498 0.03397606 0.00109076
v -0.002592658 0.02437438 0.02474542
v -0.002592658 0.02437438 0.02474542
v 0.004623498 0.03397606 0.00109076
v 0.01874092 0.02437438 0.03256783
v 0.01874092 0.02437438 0.03256783
v 0.004623498 0.03397606 0.00109076
v 0.02387103 0.0243744 0.01502949
v 0.02387103 0.0243744 0.01502949
v 0.004623498 0.03397606 0.00109076
v 0.0250438 0.02074647 0.001116721
v 0.0250438 0.02074647 0.001116721
v 0.004623498 0.03397606 0.00109076
v 0.03225199 0.02437441 -0.01614865

vn -0.01946805 -0.9854684 -0.1687394
vn -0.1681555 -0.9857475 0.005079858
vn 0.09832215 -0.99465 0.0316878
vn -0.1939668 -0.9551247 -0.2238606
vn -0.417779 -0.8825582 -0.2157585
vn -0.4569282 -0.8803018 -0.1276138
vn -0.4652203 -0.884844 0.02492282
vn -0.3680105 -0.908332 0.1987489
vn -0.1699509 -0.9585199 0.2288149
vn 0.16931 -0.9727266 0.1585466
vn 0.2691731 -0.9212014 0.2809514
vn 0.5911492 -0.7095532 -0.3835061
vn 0.5911491 -0.7095532 -0.3835061
vn 0.5911492 -0.7095532 -0.3835061
vn 0.5911491 -0.7095532 -0.3835061
vn 0.09921917 -0.6637699 -0.7413266
vn 0.09921914 -0.66377 -0.7413265
vn 0.09921915 -0.6637699 -0.7413266
vn 0.09921918 -0.66377 -0.7413266
vn -0.6582388 -0.4969722 -0.5654557
vn -0.6582389 -0.4969722 -0.5654558
vn -0.6582388 -0.4969722 -0.5654557
vn -0.6582389 -0.4969722 -0.5654558
vn -0.5452874 -0.5418462 -0.6395814
vn -0.5452875 -0.5418461 -0.6395814
vn -0.5452875 -0.5418462 -0.6395814
vn -0.5452875 -0.5418462 -0.6395814
vn -0.856317 -0.4992361 0.132229
vn -0.856317 -0.4992361 0.132229
vn -0.856317 -0.4992361 0.132229
vn -0.856317 -0.4992361 0.132229
vn -0.7642022 -0.5286916 0.3694324
vn -0.7642022 -0.5286915 0.3694323
vn -0.7642022 -0.5286916 0.3694324
vn -0.7642021 -0.5286916 0.3694324
vn -0.5553387 -0.5546958 0.619606
vn -0.5553386 -0.5546958 0.619606
vn -0.5553386 -0.5546958 0.6196061
vn -0.5553387 -0.5546958 0.619606
vn 0.4683556 -0.6367905 0.6124874
vn 0.4683556 -0.6367906 0.6124874
vn 0.4683556 -0.6367906 0.6124874
vn 0.4683557 -0.6367905 0.6124874
vn 0.6922604 -0.6698526 0.2684642
vn 0.6922604 -0.6698526 0.2684642
vn 0.6922604 -0.6698526 0.2684642
vn 0.6922604 -0.6698526 0.2684642
vn 0.6037234 -0.5928212 0.5329924
vn 0.6037235 -0.5928211 0.5329924
vn 0.6037234 -0.5928212 0.5329924
vn 0.6037235 -0.5928212 0.5329924
vn 0.8701377 -0.09321423 -0.4839127
vn 0.8701377 -0.09321424 -0.4839127
vn 0.8701377 -0.09321424 -0.4839127
vn 0.8701377 -0.09321423 -0.4839127
vn 0.2794941 -0.03684001 -0.9594404
vn 0.2794941 -0.03684001 -0.9594404
vn 0.2794941 -0.03684001 -0.9594404
vn 0.2794941 -0.03684001 -0.9594404
vn -0.6637469 0.06154074 -0.7454212
vn -0.6637469 0.06154074 -0.7454212
vn -0.6637469 0.06154074 -0.7454212
vn -0.6637469 0.06154074 -0.7454212
vn -0.5484349 0.04897154 -0.834758
vn -0.5484349 0.04897154 -0.834758
vn -0.5484349 0.04897154 -0.834758
vn -0.5484349 0.04897154 -0.834758
vn -0.9739795 0.1014296 0.202672
vn -0.9739795 0.1014296 0.202672
vn -0.9739795 0.1014296 0.2026721
vn -0.9739795 0.1014296 0.202672
vn -0.8682129 0.09304705 0.4873897
vn -0.8682129 0.09304705 0.4873897
vn -0.8682129 0.09304705 0.4873897
vn -0.8682129 0.09304705 0.4873897
vn -0.5664567 0.06502827 0.8215218
vn -0.5664567 0.06502827 0.8215218
vn -0.5664567 0.06502827 0.8215218
vn -0.5664567 0.06502827 0.8215218
vn 0.6438506 -0.05935476 0.7628456
vn 0.6438506 -0.05935476 0.7628456
vn 0.6438506 -0.05935476 0.7628456
vn 0.6438506 -0.05935476 0.7628456
vn 0.9058348 -0.08916198 0.4141417
vn 0.9058348 -0.08916198 0.4141417
vn 0.9058348 -0.08916198 0.4141417
vn 0.9058348 -0.08916198 0.4141417
vn 0.8539694 -0.08299942 0.5136607
vn 0.8539695 -0.08299942 0.5136607
vn 0.8539694 -0.08299942 0.5136607
vn 0.8539694 -0.08299942 0.5136607
vn 0.878954 0.07817079 -0.4704562
vn 0.878954 0.07817081 -0.4704563
vn 0.878954 0.07817081 -0.4704563
vn 0.878954 0.07817081 -0.4704563
vn 0.2994272 0.1493203 -0.9423624
vn 0.2994272 0.1493203 -0.9423624
vn 0.2994272 0.1493203 -0.9423624
vn 0.2994272 0.1493203 -0.9423624
vn -0.6474757 0.2697756 -0.7127387
vn -0.6474757 0.2697755 -0.7127387
vn -0.6474757 0.2697755 -0.7127387
vn -0.6474757 0.2697755 -0.7127387
vn -0.4777091 0.2510755 -0.8418759
vn -0.4777092 0.2510755 -0.8418759
vn -0.4777091 0.2510755 -0.8418759
vn -0.4777092 0.2510755 -0.8418759
vn -0.9277202 0.2946319 0.2291886
vn -0.9277202 0.2946319 0.2291886
vn -0.9277202 0.2946319 0.2291886
vn -0.9277202 0.2946319 0.2291886
vn -0.8175681 0.3230392 0.4766844
vn -0.8175682 0.3230392 0.4766844
vn -0.8175681 0.3230393 0.4766844
vn -0.8175681 0.3230393 0.4766844
vn -0.5387444 0.2686307 0.7984936
vn -0.5387443 0.2686307 0.7984936
vn -0.5387444 0.2686307 0.7984936
vn -0.5387444 0.2686307 0.7984936
vn 0.6827491 0.08933108 0.7251714
vn 0.6827491 0.08933108 0.7251714
vn 0.6827491 0.0893311 0.7251714
vn 0.6827491 0.08933109 0.7251714
vn 0.9153445 0.09317173 0.3917442
vn 0.9153445 0.09317169 0.3917441
vn 0.9153445 0.09317169 0.3917441
vn 0.9153445 0.09317169 0.3917441
vn 0.8465689 0.05640728 0.5292819
vn 0.8465689 0.05640729 0.5292819
vn 0.8465689 0.05640729 0.5292819
vn 0.8465689 0.05640731 0.5292819
vn 0.6641681 0.6874437 -0.2937717
vn 0.6641681 0.6874437 -0.2937718
vn 0.6641681 0.6874437 -0.2937717
vn 0.6641681 0.6874437 -0.2937718
vn 0.1615863 0.8337077 -0.5280353
vn 0.1615863 0.8337077 -0.5280353
vn 0.1615863 0.8337077 -0.5280353
vn 0.1615863 0.8337077 -0.5280353
vn -0.2424731 0.8550392 -0.4583828
vn -0.2424731 0.8550392 -0.4583829
vn -0.2424731 0.8550392 -0.4583828
vn -0.2424731 0.8550392 -0.4583829
vn -0.2336047 0.7729924 -0.5898402
vn -0.2336047 0.7729925 -0.5898402
vn -0.2336047 0.7729925 -0.5898402
vn -0.2336047 0.7729925 -0.5898402
vn -0.5389221 0.8311543 0.1369139
vn -0.538922 0.8311543 0.136914
vn -0.5389221 0.8311542 0.136914
vn -0.5389221 0.8311543 0.1369139
vn -0.4534956 0.8338317 0.3147481
vn -0.4534957 0.8338317 0.3147481
vn -0.4534956 0.8338317 0.3147481
vn -0.4534957 0.8338317 0.3147481
vn -0.2820895 0.8145348 0.5069107
vn -0.2820895 0.8145348 0.5069107
vn -0.2820895 0.8145348 0.5069107
vn -0.2820895 0.8145348 0.5069107
vn 0.6258323 0.640947 0.4444332
vn 0.6258323 0.640947 0.4444333
vn 0.6258323 0.6409469 0.4444333
vn 0.6258323 0.640947 0.4444333
vn 0.7730372 0.6158721 0.1520361
vn 0.7730371 0.6158723 0.152036
vn 0.7730371 0.6158722 0.1520361
vn 0.7730372 0.6158721 0.1520361
vn 0.6388871 0.5709088 0.5156417
vn 0.638887 0.5709088 0.5156417
vn 0.6388871 0.5709088 0.5156417
vn 0.6388871 0.5709088 0.5156417
vn 0.4660646 0.8683885 -0.169367
vn 0.4660646 0.8683885 -0.169367
vn 0.4660646 0.8683885 -0.169367
vn -0.004156398 0.893855 -0.4483369
vn -0.004156387 0.893855 -0.4483369
vn -0.004156356 0.893855 -0.4483369
vn -0.0750242 0.8909104 -0.4479398
vn -0.0750242 0.8909104 -0.4479399
vn -0.07502425 0.8909104 -0.4479399
vn -0.1460757 0.8987179 -0.4134828
vn -0.1460757 0.8987179 -0.4134828
vn -0.1460757 0.8987179 -0.4134828
vn -0.3222888 0.9460562 0.03327708
vn -0.3222888 0.9460563 0.03327712
vn -0.3222888 0.9460562 0.03327708
vn -0.2622167 0.9406566 0.215424
vn -0.2622167 0.9406567 0.215424
vn -0.2622167 0.9406567 0.215424
vn -0.132966 0.9400984 0.3139029
vn -0.132966 0.9400984 0.3139028
vn -0.132966 0.9400984 0.3139028
vn 0.5293278 0.8053241 0.2669555
vn 0.5293279 0.805324 0.2669555
vn 0.5293279 0.805324 0.2669555
vn 0.757423 0.6516741 0.04039038
vn 0.7574229 0.6516741 0.04039036
vn 0.7574229 0.6516741 0.04039036
vn 0.5202698 0.6426493 0.5624244
vn 0.5202698 0.6426493 0.5624245
vn 0.5202698 0.6426493 0.5624245

vt 0.5483398 0.007648468
vt 0.5 0.1500244
vt 0.6264648 0.06439209
vt 0.4516602 0.007648468
vt 0.3735352 0.06439209
vt 0.34375 0.15625
vt 0.3735352 0.2480469
vt 0.4516602 0.3049316
vt 0.5483398 0.3049316
vt 0.6264648 0.2480469
vt 0.65625 0.15625
vt 0 0
vt 0 1
vt 1 1
vt 1 0
vt 0 0
vt 0 1
vt 1 1
vt 1 0
vt 0 0
vt 0 1
vt 1 1
vt 1 0
vt 0 0
vt 0 1
vt 1 1
vt 1 0
vt 0 0
vt 0 1
vt 1 1
vt 1 0
vt 0 0
vt 0 1
vt 1 1
vt 1 0
vt 0 0
vt 0 1
vt 1 1
vt 1 0
vt 0 0
vt 0 1
vt 1 1
vt 1 0
vt 0 0
vt 0 1
vt 1 1
vt 1 0
vt 0 0
vt 0 1
vt 1 1
vt 1 0
vt 0 0
vt 0 1
vt 1 1
vt 1 0
vt 0 0
vt 0 1
vt 1 1
vt 1 0
vt 0 0
vt 0 1
vt 1 1
vt 1 0
vt 0 0
vt 0 1
vt 1 1
vt 1 0
vt 0 0
vt 0 1
vt 1 1
vt 1 0
vt 0 0
vt 0 1
vt 1 1
vt 1 0
vt 0 0
vt 0 1
vt 1 1
vt 1 0
vt 0 0
vt 0 1
vt 1 1
vt 1 0
vt 0 0
vt 0 1
vt 1 1
vt 1 0
vt 0 0
vt 0 1
vt 1 1
vt 1 0
vt 0 0
vt 0 1
vt 1 1
vt 1 0
vt 0 0
vt 0 1
vt 1 1
vt 1 0
vt 0 0
vt 0 1
vt 1 1
vt 1 0
vt 0 0
vt 0 1
vt 1 1
vt 1 0
vt 0 0
vt 0 1
vt 1 1
vt 1 0
vt 0 0
vt 0 1
vt 1 1
vt 1 0
vt 0 0
vt 0 1
vt 1 1
vt 1 0
vt 0 0
vt 0 1
vt 1 1
vt 1 0
vt 0 0
vt 0 1
vt 1 1
vt 1 0
vt 0 0
vt 0 1
vt 1 1
vt 1 0
vt 0 0
vt 0 1
vt 1 1
vt 1 0
vt 0 0
vt 0 1
vt 1 1
vt 1 0
vt 0 0
vt 0 1
vt 1 1
vt 1 0
vt 0 0
vt 0 1
vt 1 1
vt 1 0
vt 0 0
vt 0 1
vt 1 1
vt 1 0
vt 0 0
vt 0 1
vt 1 1
vt 1 0
vt 0 0
vt 0 1
vt 1 1
vt 1 0
vt 0 0
vt 0 1
vt 1 1
vt 1 0
vt 0 0
vt 0 1
vt 1 1
vt 1 0
vt 0 0
vt 0 1
vt 1 1
vt 1 0
vt 0 0
vt 0.5 1
vt 1 0
vt 0 0
vt 0.5 1
vt 1 0
vt 0 0
vt 0.5 1
vt 1 0
vt 0 0
vt 0.5 1
vt 1 0
vt 0 0
vt 0.5 1
vt 1 0
vt 0 0
vt 0.5 1
vt 1 0
vt 0 0
vt 0.5 1
vt 1 0
vt 0 0
vt 0.5 1
vt 1 0
vt 0 0
vt 0.5 1
vt 1 0
vt 0 0
vt 0.5 1
vt 1 0

g Foliage3_38_4003_72
usemtl Foliage3_38_4003_72
usemap Foliage3_38_4003_72
f 1/1/1 3/3/3 2/2/2
f 4/4/4 1/1/1 2/2/2
f 5/5/5 4/4/4 2/2/2
f 6/6/6 5/5/5 2/2/2
f 7/7/7 6/6/6 2/2/2
f 8/8/8 7/7/7 2/2/2
f 9/9/9 8/8/8 2/2/2
f 10/10/10 9/9/9 2/2/2
f 11/11/11 10/10/10 2/2/2
f 3/3/3 11/11/11 2/2/2
f 12/12/12 14/14/14 13/13/13
f 12/12/12 15/15/15 14/14/14
f 16/16/16 18/18/18 17/17/17
f 16/16/16 19/19/19 18/18/18
f 20/20/20 22/22/22 21/21/21
f 20/20/20 23/23/23 22/22/22
f 24/24/24 26/26/26 25/25/25
f 24/24/24 27/27/27 26/26/26
f 28/28/28 30/30/30 29/29/29
f 28/28/28 31/31/31 30/30/30
f 32/32/32 34/34/34 33/33/33
f 32/32/32 35/35/35 34/34/34
f 36/36/36 38/38/38 37/37/37
f 36/36/36 39/39/39 38/38/38
f 40/40/40 42/42/42 41/41/41
f 40/40/40 43/43/43 42/42/42
f 44/44/44 46/46/46 45/45/45
f 44/44/44 47/47/47 46/46/46
f 48/48/48 50/50/50 49/49/49
f 48/48/48 51/51/51 50/50/50
f 52/52/52 54/54/54 53/53/53
f 52/52/52 55/55/55 54/54/54
f 56/56/56 58/58/58 57/57/57
f 56/56/56 59/59/59 58/58/58
f 60/60/60 62/62/62 61/61/61
f 60/60/60 63/63/63 62/62/62
f 64/64/64 66/66/66 65/65/65
f 64/64/64 67/67/67 66/66/66
f 68/68/68 70/70/70 69/69/69
f 68/68/68 71/71/71 70/70/70
f 72/72/72 74/74/74 73/73/73
f 72/72/72 75/75/75 74/74/74
f 76/76/76 78/78/78 77/77/77
f 76/76/76 79/79/79 78/78/78
f 80/80/80 82/82/82 81/81/81
f 80/80/80 83/83/83 82/82/82
f 84/84/84 86/86/86 85/85/85
f 84/84/84 87/87/87 86/86/86
f 88/88/88 90/90/90 89/89/89
f 88/88/88 91/91/91 90/90/90
f 92/92/92 94/94/94 93/93/93
f 92/92/92 95/95/95 94/94/94
f 96/96/96 98/98/98 97/97/97
f 96/96/96 99/99/99 98/98/98
f 100/100/100 102/102/102 101/101/101
f 100/100/100 103/103/103 102/102/102
f 104/104/104 106/106/106 105/105/105
f 104/104/104 107/107/107 106/106/106
f 108/108/108 110/110/110 109/109/109
f 108/108/108 111/111/111 110/110/110
f 112/112/112 114/114/114 113/113/113
f 112/112/112 115/115/115 114/114/114
f 116/116/116 118/118/118 117/117/117
f 116/116/116 119/119/119 118/118/118
f 120/120/120 122/122/122 121/121/121
f 120/120/120 123/123/123 122/122/122
f 124/124/124 126/126/126 125/125/125
f 124/124/124 127/127/127 126/126/126
f 128/128/128 130/130/130 129/129/129
f 128/128/128 131/131/131 130/130/130
f 132/132/132 134/134/134 133/133/133
f 132/132/132 135/135/135 134/134/134
f 136/136/136 138/138/138 137/137/137
f 136/136/136 139/139/139 138/138/138
f 140/140/140 142/142/142 141/141/141
f 140/140/140 143/143/143 142/142/142
f 144/144/144 146/146/146 145/145/145
f 144/144/144 147/147/147 146/146/146
f 148/148/148 150/150/150 149/149/149
f 148/148/148 151/151/151 150/150/150
f 152/152/152 154/154/154 153/153/153
f 152/152/152 155/155/155 154/154/154
f 156/156/156 158/158/158 157/157/157
f 156/156/156 159/159/159 158/158/158
f 160/160/160 162/162/162 161/161/161
f 160/160/160 163/163/163 162/162/162
f 164/164/164 166/166/166 165/165/165
f 164/164/164 167/167/167 166/166/166
f 168/168/168 170/170/170 169/169/169
f 168/168/168 171/171/171 170/170/170
f 172/172/172 174/174/174 173/173/173
f 175/175/175 177/177/177 176/176/176
f 178/178/178 180/180/180 179/179/179
f 181/181/181 183/183/183 182/182/182
f 184/184/184 186/186/186 185/185/185
f 187/187/187 189/189/189 188/188/188
f 190/190/190 192/192/192 191/191/191
f 193/193/193 195/195/195 194/194/194
f 196/196/196 198/198/198 197/197/197
f 199/199/199 201/201/201 200/200/200
