#Foliage5_24_4225_97.obj

v 0.01454429 -0.0257756 -0.04036049
v 0.004622822 -0.03397608 0.001089162
v 0.03878323 -0.0257756 -0.02105734
v -0.009664666 -0.02577561 -0.0381779
v -0.01825174 -0.02577563 -0.01778252
v -0.03822326 -0.02223218 0.001089058
v -0.0213521 -0.02577561 0.01996072
v -0.005298688 -0.0257756 0.03271569
v 0.02109291 -0.02577562 0.04035582
v 0.0305975 -0.02577564 0.01996092
v 0.03218836 -0.02223219 0.001089069
v 0.03878323 -0.0257756 -0.02105734
v 0.04796575 -0.01489234 -0.02772852
v 0.01805139 -0.01489233 -0.05115538
v 0.01454429 -0.0257756 -0.04036049
v 0.01454429 -0.0257756 -0.04036049
v 0.01805139 -0.01489233 -0.05115538
v -0.01317176 -0.01489235 -0.04897204
v -0.009664666 -0.02577561 -0.0381779
v -0.009664666 -0.02577561 -0.0381779
v -0.01317176 -0.01489235 -0.04897204
v -0.0274344 -0.01489233 -0.02445426
v -0.01825174 -0.02577563 -0.01778252
v -0.01825174 -0.02577563 -0.01778252
v -0.0274344 -0.01489233 -0.02445426
v -0.04796818 -0.01288818 0.001088915
v -0.03822326 -0.02223218 0.001089058
v -0.03822326 -0.02223218 0.001089058
v -0.04796818 -0.01288818 0.001088915
v -0.0305344 -0.01489236 0.02663223
v -0.0213521 -0.02577561 0.01996072
v -0.0213521 -0.02577561 0.01996072
v -0.0305344 -0.01489236 0.02663223
v -0.008805883 -0.01489235 0.04351038
v -0.005298688 -0.0257756 0.03271569
v -0.005298688 -0.0257756 0.03271569
v -0.008805883 -0.01489235 0.04351038
v 0.02460022 -0.01489238 0.0511503
v 0.02109291 -0.02577562 0.04035582
v 0.02109291 -0.02577562 0.04035582
v 0.02460022 -0.01489238 0.0511503
v 0.03978004 -0.01489234 0.02663248
v 0.0305975 -0.02577564 0.01996092
v 0.0305975 -0.02577564 0.01996092
v 0.03978004 -0.01489234 0.02663248
v 0.04193317 -0.01288815 0.001089062
v 0.03218836 -0.02223219 0.001089069
v 0.03218836 -0.02223219 0.001089069
v 0.04193317 -0.01288815 0.001089062
v 0.04796575 -0.01489234 -0.02772852
v 0.03878323 -0.0257756 -0.02105734
v 0.04796575 -0.01489234 -0.02772852
v 0.04796578 -0.0001483073 -0.0277285
v 0.01805139 -0.0001482923 -0.05115534
v 0.01805139 -0.01489233 -0.05115538
v 0.01805139 -0.01489233 -0.05115538
v 0.01805139 -0.0001482923 -0.05115534
v -0.01317172 -0.0001483154 -0.04897202
v -0.01317176 -0.01489235 -0.04897204
v -0.01317176 -0.01489235 -0.04897204
v -0.01317172 -0.0001483154 -0.04897202
v -0.02743439 -0.0001482954 -0.02445422
v -0.0274344 -0.01489233 -0.02445426
v -0.0274344 -0.01489233 -0.02445426
v -0.02743439 -0.0001482954 -0.02445422
v -0.04796791 -0.0002294122 0.001089232
v -0.04796818 -0.01288818 0.001088915
v -0.04796818 -0.01288818 0.001088915
v -0.04796791 -0.0002294122 0.001089232
v -0.03053439 -0.0001482525 0.02663227
v -0.0305344 -0.01489236 0.02663223
v -0.0305344 -0.01489236 0.02663223
v -0.03053439 -0.0001482525 0.02663227
v -0.008806249 -0.0001483075 0.04350993
v -0.008805883 -0.01489235 0.04351038
v -0.008805883 -0.01489235 0.04351038
v -0.008806249 -0.0001483075 0.04350993
v 0.02460025 -0.0001482656 0.05115032
v 0.02460022 -0.01489238 0.0511503
v 0.02460022 -0.01489238 0.0511503
v 0.02460025 -0.0001482656 0.05115032
v 0.03977967 -0.0001482931 0.02663204
v 0.03978004 -0.01489234 0.02663248
v 0.03978004 -0.01489234 0.02663248
v 0.03977967 -0.0001482931 0.02663204
v 0.04193303 -0.0002293682 0.001088916
v 0.04193317 -0.01288815 0.001089062
v 0.04193317 -0.01288815 0.001089062
v 0.04193303 -0.0002293682 0.001088916
v 0.04796578 -0.0001483073 -0.0277285
v 0.04796575 -0.01489234 -0.02772852
v 0.04796578 -0.0001483073 -0.0277285
v 0.04568782 0.01428339 -0.02539912
v 0.01714403 0.01428338 -0.04799354
v 0.01805139 -0.0001482923 -0.05115534
v 0.01805139 -0.0001482923 -0.05115534
v 0.01714403 0.01428338 -0.04799354
v -0.01183014 0.0142834 -0.04559991
v -0.01317172 -0.0001483154 -0.04897202
v -0.01317172 -0.0001483154 -0.04897202
v -0.01183014 0.0142834 -0.04559991
v -0.02321124 0.01428337 -0.02180856
v -0.02743439 -0.0001482954 -0.02445422
v -0.02743439 -0.0001482954 -0.02445422
v -0.02321124 0.01428337 -0.02180856
v -0.04530534 0.01197216 0.001194257
v -0.04796791 -0.0002294122 0.001089232
v -0.04796791 -0.0002294122 0.001089232
v -0.04530534 0.01197216 0.001194257
v -0.02661054 0.01428342 0.02419785
v -0.03053439 -0.0001482525 0.02663227
v -0.03053439 -0.0001482525 0.02663227
v -0.02661054 0.01428342 0.02419785
v -0.007042894 0.0142834 0.0396113
v -0.008806249 -0.0001483075 0.04350993
v -0.008806249 -0.0001483075 0.04350993
v -0.007042894 0.0142834 0.0396113
v 0.02432474 0.0142834 0.04798876
v 0.02460025 -0.0001482656 0.05115032
v 0.02460025 -0.0001482656 0.05115032
v 0.02432474 0.0142834 0.04798876
v 0.03671163 0.01428344 0.02419752
v 0.03977967 -0.0001482931 0.02663204
v 0.03977967 -0.0001482931 0.02663204
v 0.03671163 0.01428344 0.02419752
v 0.03865101 0.01197209 0.001194596
v 0.04193303 -0.0002293682 0.001088916
v 0.04193303 -0.0002293682 0.001088916
v 0.03865101 0.01197209 0.001194596
v 0.04568782 0.01428339 -0.02539912
v 0.04796578 -0.0001483073 -0.0277285
v 0.04568782 0.01428339 -0.02539912
v 0.03225115 0.02437442 -0.01615027
v 0.01203531 0.02437445 -0.03257101
v 0.01714403 0.01428338 -0.04799354
v 0.01714403 0.01428338 -0.04799354
v 0.01203531 0.02437445 -0.03257101
v -0.002593334 0.02437444 -0.02139617
v -0.01183014 0.0142834 -0.04559991
v -0.01183014 0.0142834 -0.04559991
v -0.002593334 0.02437444 -0.02139617
v -0.0112541 0.02437443 -0.01279739
v -0.02321124 0.01428337 -0.02180856
v -0.02321124 0.01428337 -0.02180856
v -0.0112541 0.02437443 -0.01279739
v -0.0312457 0.02074654 0.00111528
v -0.04530534 0.01197216 0.001194257
v -0.04530534 0.01197216 0.001194257
v -0.0312457 0.02074654 0.00111528
v -0.01442842 0.02437443 0.01502761
v -0.02661054 0.01428342 0.02419785
v -0.02661054 0.01428342 0.02419785
v -0.01442842 0.02437443 0.01502761
v -0.002593179 0.02437446 0.02474406
v -0.007042894 0.0142834 0.0396113
v -0.007042894 0.0142834 0.0396113
v -0.002593179 0.02437446 0.02474406
v 0.01874022 0.02437444 0.03256625
v 0.02432474 0.0142834 0.04798876
v 0.02432474 0.0142834 0.04798876
v 0.01874022 0.02437444 0.03256625
v 0.02387016 0.02437442 0.01502774
v 0.03671163 0.01428344 0.02419752
v 0.03671163 0.01428344 0.02419752
v 0.02387016 0.02437442 0.01502774
v 0.025043 0.02074649 0.001115012
v 0.03865101 0.01197209 0.001194596
v 0.03865101 0.01197209 0.001194596
v 0.025043 0.02074649 0.001115012
v 0.03225115 0.02437442 -0.01615027
v 0.04568782 0.01428339 -0.02539912
v 0.03225115 0.02437442 -0.01615027
v 0.004622915 0.03397612 0.001089268
v 0.01203531 0.02437445 -0.03257101
v 0.01203531 0.02437445 -0.03257101
v 0.004622915 0.03397612 0.001089268
v -0.002593334 0.02437444 -0.02139617
v -0.002593334 0.02437444 -0.02139617
v 0.004622915 0.03397612 0.001089268
v -0.0112541 0.02437443 -0.01279739
v -0.0112541 0.02437443 -0.01279739
v 0.004622915 0.03397612 0.001089268
v -0.0312457 0.02074654 0.00111528
v -0.0312457 0.02074654 0.00111528
v 0.004622915 0.03397612 0.001089268
v -0.01442842 0.02437443 0.01502761
v -0.01442842 0.02437443 0.01502761
v 0.004622915 0.03397612 0.001089268
v -0.002593179 0.02437446 0.02474406
v -0.002593179 0.02437446 0.02474406
v 0.004622915 0.03397612 0.001089268
v 0.01874022 0.02437444 0.03256625
v 0.01874022 0.02437444 0.03256625
v 0.004622915 0.03397612 0.001089268
v 0.02387016 0.02437442 0.01502774
v 0.02387016 0.02437442 0.01502774
v 0.004622915 0.03397612 0.001089268
v 0.025043 0.02074649 0.001115012
v 0.025043 0.02074649 0.001115012
v 0.004622915 0.03397612 0.001089268
v 0.03225115 0.02437442 -0.01615027

vn -0.09297396 -0.9759365 -0.1972392
vn 0.01491622 -0.9989803 -0.04260369
vn 0.09047405 -0.9685192 -0.2319147
vn -0.1758548 -0.9811901 -0.07962614
vn -0.2256679 -0.9686022 0.104322
vn -0.1611953 -0.9740074 0.1591381
vn -0.0358646 -0.9779055 0.2059462
vn 0.128088 -0.9765943 0.1727897
vn 0.1926583 -0.9810097 0.02240652
vn 0.2061907 -0.9463158 -0.2489401
vn 0.3284723 -0.8998627 -0.2869713
vn -0.1663657 -0.6773088 -0.7166415
vn -0.1663658 -0.6773088 -0.7166414
vn -0.1663657 -0.6773088 -0.7166414
vn -0.1663658 -0.6773088 -0.7166414
vn -0.587472 -0.6948194 -0.414852
vn -0.587472 -0.6948195 -0.414852
vn -0.587472 -0.6948194 -0.414852
vn -0.587472 -0.6948195 -0.414852
vn -0.6661692 -0.6842517 0.2966778
vn -0.6661693 -0.6842517 0.2966778
vn -0.6661692 -0.6842517 0.2966778
vn -0.6661692 -0.6842517 0.2966778
vn -0.6919316 -0.7034045 0.162642
vn -0.6919316 -0.7034045 0.1626421
vn -0.6919316 -0.7034045 0.1626421
vn -0.6919315 -0.7034045 0.1626421
vn -0.05507794 -0.7251439 0.6863908
vn -0.05507794 -0.7251439 0.6863908
vn -0.05507797 -0.7251438 0.6863908
vn -0.05507794 -0.725144 0.6863908
vn 0.1879585 -0.7291965 0.6579845
vn 0.1879584 -0.7291965 0.6579846
vn 0.1879584 -0.7291965 0.6579844
vn 0.1879584 -0.7291965 0.6579844
vn 0.4565103 -0.7093766 0.5370126
vn 0.4565103 -0.7093767 0.5370126
vn 0.4565103 -0.7093767 0.5370126
vn 0.4565103 -0.7093766 0.5370126
vn 0.6899598 -0.6453803 -0.3277797
vn 0.6899596 -0.6453803 -0.3277797
vn 0.6899596 -0.6453803 -0.3277797
vn 0.6899598 -0.6453803 -0.3277798
vn 0.4364483 -0.6477984 -0.6243955
vn 0.4364483 -0.6477984 -0.6243955
vn 0.4364483 -0.6477984 -0.6243955
vn 0.4364483 -0.6477984 -0.6243955
vn 0.6619487 -0.5877279 -0.4651877
vn 0.6619487 -0.5877278 -0.4651878
vn 0.6619487 -0.5877279 -0.4651877
vn 0.6619486 -0.5877278 -0.4651877
vn -0.2515656 0.03644728 -0.9671537
vn -0.2515656 0.03644728 -0.9671538
vn -0.2515656 0.03644728 -0.9671538
vn -0.2515656 0.03644728 -0.9671537
vn -0.8351153 0.01108745 -0.549963
vn -0.8351153 0.01108745 -0.549963
vn -0.8351153 0.01108745 -0.549963
vn -0.8351153 0.01108745 -0.549963
vn -0.9241228 -0.02860877 0.3810228
vn -0.9241228 -0.02860877 0.3810228
vn -0.9241228 -0.02860877 0.3810228
vn -0.9241228 -0.02860877 0.3810228
vn -0.9708656 -0.02337172 0.2384818
vn -0.9708656 -0.02337172 0.2384818
vn -0.9708656 -0.02337172 0.2384818
vn -0.9708656 -0.02337172 0.2384818
vn -0.05317992 -0.0419532 0.9977032
vn -0.05317992 -0.0419532 0.9977032
vn -0.05317983 -0.04195321 0.9977033
vn -0.05317992 -0.0419532 0.9977032
vn 0.2553891 -0.03635276 0.9661547
vn 0.2553891 -0.03635276 0.9661547
vn 0.2553891 -0.03635276 0.9661547
vn 0.2553891 -0.03635276 0.9661547
vn 0.6394418 -0.02283968 0.7685
vn 0.6394418 -0.02283968 0.7685
vn 0.6394418 -0.02283968 0.7685
vn 0.6394418 -0.02283968 0.7685
vn 0.9342716 0.02769521 -0.3554851
vn 0.9342716 0.02769521 -0.3554851
vn 0.9342716 0.02769521 -0.3554851
vn 0.9342716 0.02769521 -0.3554851
vn 0.6714173 0.03991809 -0.7400036
vn 0.6714173 0.03991809 -0.7400036
vn 0.6714173 0.03991809 -0.7400036
vn 0.6714173 0.03991809 -0.7400036
vn 0.7567664 0.03749664 -0.652609
vn 0.7567664 0.03749665 -0.652609
vn 0.7567664 0.03749664 -0.652609
vn 0.7567664 0.03749664 -0.652609
vn -0.2463537 0.2482272 -0.9368528
vn -0.2463537 0.2482273 -0.9368527
vn -0.2463537 0.2482273 -0.9368527
vn -0.2463537 0.2482273 -0.9368527
vn -0.8207453 0.2315862 -0.5222497
vn -0.8207453 0.2315862 -0.5222497
vn -0.8207453 0.2315862 -0.5222497
vn -0.8207453 0.2315862 -0.5222497
vn -0.8812128 0.2298061 0.4131016
vn -0.8812129 0.2298061 0.4131016
vn -0.8812129 0.2298061 0.4131016
vn -0.8812128 0.2298061 0.4131015
vn -0.9496707 0.2330026 0.2093688
vn -0.9496706 0.2330026 0.2093687
vn -0.9496707 0.2330026 0.2093688
vn -0.9496706 0.2330026 0.2093689
vn -0.02498144 0.2032333 0.9788116
vn -0.02498144 0.2032333 0.9788116
vn -0.0249815 0.2032333 0.9788116
vn -0.02498144 0.2032333 0.9788116
vn 0.2380866 0.2470439 0.9392997
vn 0.2380866 0.2470439 0.9392997
vn 0.2380866 0.2470439 0.9392998
vn 0.2380866 0.2470439 0.9392998
vn 0.6037902 0.2193682 0.7663646
vn 0.6037902 0.2193682 0.7663646
vn 0.6037902 0.2193682 0.7663646
vn 0.6037902 0.2193682 0.7663646
vn 0.9009119 0.2211618 -0.3734234
vn 0.9009119 0.2211618 -0.3734234
vn 0.9009119 0.2211618 -0.3734233
vn 0.9009119 0.2211618 -0.3734234
vn 0.6402869 0.2759123 -0.7168717
vn 0.6402869 0.2759123 -0.7168717
vn 0.6402869 0.2759123 -0.7168717
vn 0.6402869 0.2759123 -0.7168717
vn 0.7629064 0.2142523 -0.6099751
vn 0.7629063 0.2142524 -0.6099751
vn 0.7629064 0.2142524 -0.6099751
vn 0.7629064 0.2142524 -0.6099751
vn -0.1438099 0.8561311 -0.4963442
vn -0.1438099 0.8561311 -0.4963442
vn -0.1438099 0.8561311 -0.4963442
vn -0.1438099 0.8561311 -0.4963442
vn -0.4434315 0.8880998 -0.1210238
vn -0.4434315 0.8880997 -0.1210238
vn -0.4434315 0.8880998 -0.1210238
vn -0.4434314 0.8880998 -0.1210239
vn -0.473791 0.8548177 0.2116795
vn -0.473791 0.8548177 0.2116795
vn -0.473791 0.8548177 0.2116795
vn -0.473791 0.8548177 0.2116795
vn -0.5912215 0.7909119 0.1578449
vn -0.5912215 0.790912 0.1578449
vn -0.5912215 0.790912 0.1578449
vn -0.5912215 0.790912 0.1578449
vn -0.04127508 0.7936583 0.6069616
vn -0.04127505 0.7936584 0.6069615
vn -0.04127505 0.7936583 0.6069617
vn -0.04127508 0.7936583 0.6069616
vn 0.1259268 0.8005976 0.5858203
vn 0.1259268 0.8005975 0.5858203
vn 0.1259268 0.8005975 0.5858204
vn 0.1259268 0.8005975 0.5858203
vn 0.3236681 0.8017658 0.5024042
vn 0.3236681 0.8017658 0.5024042
vn 0.3236681 0.8017658 0.5024042
vn 0.3236681 0.8017658 0.5024042
vn 0.5145488 0.8151454 -0.2660392
vn 0.5145488 0.8151454 -0.2660393
vn 0.5145489 0.8151454 -0.2660393
vn 0.5145488 0.8151454 -0.2660393
vn 0.2889711 0.8234645 -0.4882635
vn 0.288971 0.8234645 -0.4882635
vn 0.2889711 0.8234645 -0.4882635
vn 0.2889711 0.8234645 -0.4882635
vn 0.5980134 0.7529125 -0.2747767
vn 0.5980134 0.7529126 -0.2747766
vn 0.5980134 0.7529125 -0.2747767
vn 0.5980134 0.7529125 -0.2747767
vn -0.08300965 0.9647526 -0.2497222
vn -0.08300969 0.9647526 -0.2497222
vn -0.08300965 0.9647526 -0.2497222
vn -0.4089713 0.9117656 0.03775418
vn -0.4089713 0.9117656 0.03775416
vn -0.4089713 0.9117656 0.03775415
vn -0.4242829 0.9009505 0.09094897
vn -0.4242829 0.9009505 0.09094895
vn -0.4242829 0.9009505 0.09094903
vn -0.4111356 0.8982612 0.1552218
vn -0.4111357 0.8982611 0.1552219
vn -0.4111357 0.8982611 0.1552219
vn -0.08382957 0.9071202 0.4124379
vn -0.08382952 0.9071202 0.4124378
vn -0.08382957 0.9071202 0.4124379
vn 0.07593074 0.9067883 0.4146913
vn 0.07593073 0.9067883 0.4146913
vn 0.07593073 0.9067883 0.4146913
vn 0.1817381 0.9212276 0.3439627
vn 0.181738 0.9212276 0.3439627
vn 0.1817381 0.9212276 0.3439627
vn 0.3047268 0.9322155 -0.1952312
vn 0.3047268 0.9322155 -0.1952313
vn 0.3047268 0.9322154 -0.1952313
vn 0.1782402 0.8505844 -0.494708
vn 0.1782401 0.8505844 -0.4947079
vn 0.1782401 0.8505845 -0.4947079
vn 0.5921819 0.7933824 -0.1409413
vn 0.5921819 0.7933824 -0.1409412
vn 0.592182 0.7933824 -0.1409412

vt 0.5483398 0.007648468
vt 0.5 0.1500244
vt 0.6264648 0.06439209
vt 0.4516602 0.007648468
vt 0.3735352 0.06439209
vt 0.34375 0.15625
vt 0.3735352 0.2480469
vt 0.4516602 0.3049316
vt 0.5483398 0.3049316
vt 0.6264648 0.2480469
vt 0.65625 0.15625
vt 0 0
vt 0 1
vt 1 1
vt 1 0
vt 0 0
vt 0 1
vt 1 1
vt 1 0
vt 0 0
vt 0 1
vt 1 1
vt 1 0
vt 0 0
vt 0 1
vt 1 1
vt 1 0
vt 0 0
vt 0 1
vt 1 1
vt 1 0
vt 0 0
vt 0 1
vt 1 1
vt 1 0
vt 0 0
vt 0 1
vt 1 1
vt 1 0
vt 0 0
vt 0 1
vt 1 1
vt 1 0
vt 0 0
vt 0 1
vt 1 1
vt 1 0
vt 0 0
vt 0 1
vt 1 1
vt 1 0
vt 0 0
vt 0 1
vt 1 1
vt 1 0
vt 0 0
vt 0 1
vt 1 1
vt 1 0
vt 0 0
vt 0 1
vt 1 1
vt 1 0
vt 0 0
vt 0 1
vt 1 1
vt 1 0
vt 0 0
vt 0 1
vt 1 1
vt 1 0
vt 0 0
vt 0 1
vt 1 1
vt 1 0
vt 0 0
vt 0 1
vt 1 1
vt 1 0
vt 0 0
vt 0 1
vt 1 1
vt 1 0
vt 0 0
vt 0 1
vt 1 1
vt 1 0
vt 0 0
vt 0 1
vt 1 1
vt 1 0
vt 0 0
vt 0 1
vt 1 1
vt 1 0
vt 0 0
vt 0 1
vt 1 1
vt 1 0
vt 0 0
vt 0 1
vt 1 1
vt 1 0
vt 0 0
vt 0 1
vt 1 1
vt 1 0
vt 0 0
vt 0 1
vt 1 1
vt 1 0
vt 0 0
vt 0 1
vt 1 1
vt 1 0
vt 0 0
vt 0 1
vt 1 1
vt 1 0
vt 0 0
vt 0 1
vt 1 1
vt 1 0
vt 0 0
vt 0 1
vt 1 1
vt 1 0
vt 0 0
vt 0 1
vt 1 1
vt 1 0
vt 0 0
vt 0 1
vt 1 1
vt 1 0
vt 0 0
vt 0 1
vt 1 1
vt 1 0
vt 0 0
vt 0 1
vt 1 1
vt 1 0
vt 0 0
vt 0 1
vt 1 1
vt 1 0
vt 0 0
vt 0 1
vt 1 1
vt 1 0
vt 0 0
vt 0 1
vt 1 1
vt 1 0
vt 0 0
vt 0 1
vt 1 1
vt 1 0
vt 0 0
vt 0 1
vt 1 1
vt 1 0
vt 0 0
vt 0 1
vt 1 1
vt 1 0
vt 0 0
vt 0 1
vt 1 1
vt 1 0
vt 0 0
vt 0.5 1
vt 1 0
vt 0 0
vt 0.5 1
vt 1 0
vt 0 0
vt 0.5 1
vt 1 0
vt 0 0
vt 0.5 1
vt 1 0
vt 0 0
vt 0.5 1
vt 1 0
vt 0 0
vt 0.5 1
vt 1 0
vt 0 0
vt 0.5 1
vt 1 0
vt 0 0
vt 0.5 1
vt 1 0
vt 0 0
vt 0.5 1
vt 1 0
vt 0 0
vt 0.5 1
vt 1 0

g Foliage5_24_4225_97
usemtl Foliage5_24_4225_97
usemap Foliage5_24_4225_97
f 1/1/1 3/3/3 2/2/2
f 4/4/4 1/1/1 2/2/2
f 5/5/5 4/4/4 2/2/2
f 6/6/6 5/5/5 2/2/2
f 7/7/7 6/6/6 2/2/2
f 8/8/8 7/7/7 2/2/2
f 9/9/9 8/8/8 2/2/2
f 10/10/10 9/9/9 2/2/2
f 11/11/11 10/10/10 2/2/2
f 3/3/3 11/11/11 2/2/2
f 12/12/12 14/14/14 13/13/13
f 12/12/12 15/15/15 14/14/14
f 16/16/16 18/18/18 17/17/17
f 16/16/16 19/19/19 18/18/18
f 20/20/20 22/22/22 21/21/21
f 20/20/20 23/23/23 22/22/22
f 24/24/24 26/26/26 25/25/25
f 24/24/24 27/27/27 26/26/26
f 28/28/28 30/30/30 29/29/29
f 28/28/28 31/31/31 30/30/30
f 32/32/32 34/34/34 33/33/33
f 32/32/32 35/35/35 34/34/34
f 36/36/36 38/38/38 37/37/37
f 36/36/36 39/39/39 38/38/38
f 40/40/40 42/42/42 41/41/41
f 40/40/40 43/43/43 42/42/42
f 44/44/44 46/46/46 45/45/45
f 44/44/44 47/47/47 46/46/46
f 48/48/48 50/50/50 49/49/49
f 48/48/48 51/51/51 50/50/50
f 52/52/52 54/54/54 53/53/53
f 52/52/52 55/55/55 54/54/54
f 56/56/56 58/58/58 57/57/57
f 56/56/56 59/59/59 58/58/58
f 60/60/60 62/62/62 61/61/61
f 60/60/60 63/63/63 62/62/62
f 64/64/64 66/66/66 65/65/65
f 64/64/64 67/67/67 66/66/66
f 68/68/68 70/70/70 69/69/69
f 68/68/68 71/71/71 70/70/70
f 72/72/72 74/74/74 73/73/73
f 72/72/72 75/75/75 74/74/74
f 76/76/76 78/78/78 77/77/77
f 76/76/76 79/79/79 78/78/78
f 80/80/80 82/82/82 81/81/81
f 80/80/80 83/83/83 82/82/82
f 84/84/84 86/86/86 85/85/85
f 84/84/84 87/87/87 86/86/86
f 88/88/88 90/90/90 89/89/89
f 88/88/88 91/91/91 90/90/90
f 92/92/92 94/94/94 93/93/93
f 92/92/92 95/95/95 94/94/94
f 96/96/96 98/98/98 97/97/97
f 96/96/96 99/99/99 98/98/98
f 100/100/100 102/102/102 101/101/101
f 100/100/100 103/103/103 102/102/102
f 104/104/104 106/106/106 105/105/105
f 104/104/104 107/107/107 106/106/106
f 108/108/108 110/110/110 109/109/109
f 108/108/108 111/111/111 110/110/110
f 112/112/112 114/114/114 113/113/113
f 112/112/112 115/115/115 114/114/114
f 116/116/116 118/118/118 117/117/117
f 116/116/116 119/119/119 118/118/118
f 120/120/120 122/122/122 121/121/121
f 120/120/120 123/123/123 122/122/122
f 124/124/124 126/126/126 125/125/125
f 124/124/124 127/127/127 126/126/126
f 128/128/128 130/130/130 129/129/129
f 128/128/128 131/131/131 130/130/130
f 132/132/132 134/134/134 133/133/133
f 132/132/132 135/135/135 134/134/134
f 136/136/136 138/138/138 137/137/137
f 136/136/136 139/139/139 138/138/138
f 140/140/140 142/142/142 141/141/141
f 140/140/140 143/143/143 142/142/142
f 144/144/144 146/146/146 145/145/145
f 144/144/144 147/147/147 146/146/146
f 148/148/148 150/150/150 149/149/149
f 148/148/148 151/151/151 150/150/150
f 152/152/152 154/154/154 153/153/153
f 152/152/152 155/155/155 154/154/154
f 156/156/156 158/158/158 157/157/157
f 156/156/156 159/159/159 158/158/158
f 160/160/160 162/162/162 161/161/161
f 160/160/160 163/163/163 162/162/162
f 164/164/164 166/166/166 165/165/165
f 164/164/164 167/167/167 166/166/166
f 168/168/168 170/170/170 169/169/169
f 168/168/168 171/171/171 170/170/170
f 172/172/172 174/174/174 173/173/173
f 175/175/175 177/177/177 176/176/176
f 178/178/178 180/180/180 179/179/179
f 181/181/181 183/183/183 182/182/182
f 184/184/184 186/186/186 185/185/185
f 187/187/187 189/189/189 188/188/188
f 190/190/190 192/192/192 191/191/191
f 193/193/193 195/195/195 194/194/194
f 196/196/196 198/198/198 197/197/197
f 199/199/199 201/201/201 200/200/200
