#Foliage_12_4153_14.obj

v 0.01454533 -0.02577567 -0.04035835
v 0.004623876 -0.0339761 0.001091352
v 0.03878451 -0.02577567 -0.02105482
v -0.009663401 -0.02577567 -0.03817542
v -0.01825078 -0.02577567 -0.01778046
v -0.03822211 -0.02223221 0.00109136
v -0.02135085 -0.02577567 0.01996313
v -0.005297589 -0.02577567 0.03271795
v 0.02109405 -0.02577567 0.04035814
v 0.03059859 -0.02577567 0.01996315
v 0.03218947 -0.02223221 0.001091367
v 0.03878451 -0.02577567 -0.02105482
v 0.0479669 -0.01489238 -0.0277262
v 0.01805268 -0.01489238 -0.05115286
v 0.01454533 -0.02577567 -0.04035835
v 0.01454533 -0.02577567 -0.04035835
v 0.01805268 -0.01489238 -0.05115286
v -0.01317075 -0.01489238 -0.04896994
v -0.009663401 -0.02577567 -0.03817542
v -0.009663401 -0.02577567 -0.03817542
v -0.01317075 -0.01489238 -0.04896994
v -0.02743317 -0.01489238 -0.02445184
v -0.01825078 -0.02577567 -0.01778046
v -0.01825078 -0.02577567 -0.01778046
v -0.02743317 -0.01489238 -0.02445184
v -0.04796691 -0.01288819 0.001091354
v -0.03822211 -0.02223221 0.00109136
v -0.03822211 -0.02223221 0.00109136
v -0.04796691 -0.01288819 0.001091354
v -0.03053326 -0.01489238 0.02663455
v -0.02135085 -0.02577567 0.01996313
v -0.02135085 -0.02577567 0.01996313
v -0.03053326 -0.01489238 0.02663455
v -0.008804939 -0.01489238 0.04351243
v -0.005297589 -0.02577567 0.03271795
v -0.005297589 -0.02577567 0.03271795
v -0.008804939 -0.01489238 0.04351243
v 0.0246014 -0.01489238 0.05115264
v 0.02109405 -0.02577567 0.04035814
v 0.02109405 -0.02577567 0.04035814
v 0.0246014 -0.01489238 0.05115264
v 0.03978098 -0.01489238 0.02663455
v 0.03059859 -0.02577567 0.01996315
v 0.03059859 -0.02577567 0.01996315
v 0.03978098 -0.01489238 0.02663455
v 0.04193428 -0.01288819 0.001091354
v 0.03218947 -0.02223221 0.001091367
v 0.03218947 -0.02223221 0.001091367
v 0.04193428 -0.01288819 0.001091354
v 0.0479669 -0.01489238 -0.0277262
v 0.03878451 -0.02577567 -0.02105482
v 0.0479669 -0.01489238 -0.0277262
v 0.0479669 -0.0001483285 -0.0277262
v 0.01805267 -0.0001483285 -0.05115282
v 0.01805268 -0.01489238 -0.05115286
v 0.01805268 -0.01489238 -0.05115286
v 0.01805267 -0.0001483285 -0.05115282
v -0.01317075 -0.0001483285 -0.04896994
v -0.01317075 -0.01489238 -0.04896994
v -0.01317075 -0.01489238 -0.04896994
v -0.01317075 -0.0001483285 -0.04896994
v -0.02743317 -0.0001483285 -0.02445184
v -0.02743317 -0.01489238 -0.02445184
v -0.02743317 -0.01489238 -0.02445184
v -0.02743317 -0.0001483285 -0.02445184
v -0.04796691 -0.0002294307 0.001091354
v -0.04796691 -0.01288819 0.001091354
v -0.04796691 -0.01288819 0.001091354
v -0.04796691 -0.0002294307 0.001091354
v -0.03053326 -0.0001483285 0.02663455
v -0.03053326 -0.01489238 0.02663455
v -0.03053326 -0.01489238 0.02663455
v -0.03053326 -0.0001483285 0.02663455
v -0.008804939 -0.0001483285 0.04351243
v -0.008804939 -0.01489238 0.04351243
v -0.008804939 -0.01489238 0.04351243
v -0.008804939 -0.0001483285 0.04351243
v 0.0246014 -0.0001483285 0.05115264
v 0.0246014 -0.01489238 0.05115264
v 0.0246014 -0.01489238 0.05115264
v 0.0246014 -0.0001483285 0.05115264
v 0.03978098 -0.0001483285 0.02663455
v 0.03978098 -0.01489238 0.02663455
v 0.03978098 -0.01489238 0.02663455
v 0.03978098 -0.0001483285 0.02663455
v 0.04193428 -0.0002294307 0.001091354
v 0.04193428 -0.01288819 0.001091354
v 0.04193428 -0.01288819 0.001091354
v 0.04193428 -0.0002294307 0.001091354
v 0.0479669 -0.0001483285 -0.0277262
v 0.0479669 -0.01489238 -0.0277262
v 0.0479669 -0.0001483285 -0.0277262
v 0.0456889 0.01428335 -0.02539689
v 0.01714512 0.01428335 -0.04799136
v 0.01805267 -0.0001483285 -0.05115282
v 0.01805267 -0.0001483285 -0.05115282
v 0.01714512 0.01428335 -0.04799136
v -0.0118291 0.01428335 -0.04559776
v -0.01317075 -0.0001483285 -0.04896994
v -0.01317075 -0.0001483285 -0.04896994
v -0.0118291 0.01428335 -0.04559776
v -0.02321027 0.01428335 -0.02180647
v -0.02743317 -0.0001483285 -0.02445184
v -0.02743317 -0.0001483285 -0.02445184
v -0.02321027 0.01428335 -0.02180647
v -0.04530408 0.01197209 0.001196698
v -0.04796691 -0.0002294307 0.001091354
v -0.04796691 -0.0002294307 0.001091354
v -0.04530408 0.01197209 0.001196698
v -0.02660959 0.01428335 0.0241999
v -0.03053326 -0.0001483285 0.02663455
v -0.03053326 -0.0001483285 0.02663455
v -0.02660959 0.01428335 0.0241999
v -0.007041871 0.01428335 0.03961347
v -0.008804939 -0.0001483285 0.04351243
v -0.008804939 -0.0001483285 0.04351243
v -0.007041871 0.01428335 0.03961347
v 0.02432595 0.01428335 0.04799114
v 0.0246014 -0.0001483285 0.05115264
v 0.0246014 -0.0001483285 0.05115264
v 0.02432595 0.01428335 0.04799114
v 0.03671283 0.01428335 0.02419991
v 0.03978098 -0.0001483285 0.02663455
v 0.03978098 -0.0001483285 0.02663455
v 0.03671283 0.01428335 0.02419991
v 0.038652 0.01197209 0.001196728
v 0.04193428 -0.0002294307 0.001091354
v 0.04193428 -0.0002294307 0.001091354
v 0.038652 0.01197209 0.001196728
v 0.0456889 0.01428335 -0.02539689
v 0.0479669 -0.0001483285 -0.0277262
v 0.0456889 0.01428335 -0.02539689
v 0.03225246 0.02437439 -0.01614776
v 0.01203646 0.02437439 -0.03256871
v 0.01714512 0.01428335 -0.04799136
v 0.01714512 0.01428335 -0.04799136
v 0.01203646 0.02437439 -0.03256871
v -0.002592233 0.02437439 -0.02139391
v -0.0118291 0.01428335 -0.04559776
v -0.0118291 0.01428335 -0.04559776
v -0.002592233 0.02437439 -0.02139391
v -0.01125312 0.02437439 -0.01279532
v -0.02321027 0.01428335 -0.02180647
v -0.02321027 0.01428335 -0.02180647
v -0.01125312 0.02437439 -0.01279532
v -0.0312447 0.02074645 0.001117379
v -0.04530408 0.01197209 0.001196698
v -0.04530408 0.01197209 0.001196698
v -0.0312447 0.02074645 0.001117379
v -0.01442711 0.02437439 0.01503011
v -0.02660959 0.01428335 0.0241999
v -0.02660959 0.01428335 0.0241999
v -0.01442711 0.02437439 0.01503011
v -0.00259223 0.02437439 0.02474612
v -0.007041871 0.01428335 0.03961347
v -0.007041871 0.01428335 0.03961347
v -0.00259223 0.02437439 0.02474612
v 0.01874134 0.02437439 0.03256851
v 0.02432595 0.01428335 0.04799114
v 0.02432595 0.01428335 0.04799114
v 0.01874134 0.02437439 0.03256851
v 0.02387135 0.02437439 0.01503011
v 0.03671283 0.01428335 0.02419991
v 0.03671283 0.01428335 0.02419991
v 0.02387135 0.02437439 0.01503011
v 0.02504418 0.02074645 0.001117388
v 0.038652 0.01197209 0.001196728
v 0.038652 0.01197209 0.001196728
v 0.02504418 0.02074645 0.001117388
v 0.03225246 0.02437439 -0.01614776
v 0.0456889 0.01428335 -0.02539689
v 0.03225246 0.02437439 -0.01614776
v 0.004623862 0.03397606 0.001091329
v 0.01203646 0.02437439 -0.03256871
v 0.01203646 0.02437439 -0.03256871
v 0.004623862 0.03397606 0.001091329
v -0.002592233 0.02437439 -0.02139391
v -0.002592233 0.02437439 -0.02139391
v 0.004623862 0.03397606 0.001091329
v -0.01125312 0.02437439 -0.01279532
v -0.01125312 0.02437439 -0.01279532
v 0.004623862 0.03397606 0.001091329
v -0.0312447 0.02074645 0.001117379
v -0.0312447 0.02074645 0.001117379
v 0.004623862 0.03397606 0.001091329
v -0.01442711 0.02437439 0.01503011
v -0.01442711 0.02437439 0.01503011
v 0.004623862 0.03397606 0.001091329
v -0.00259223 0.02437439 0.02474612
v -0.00259223 0.02437439 0.02474612
v 0.004623862 0.03397606 0.001091329
v 0.01874134 0.02437439 0.03256851
v 0.01874134 0.02437439 0.03256851
v 0.004623862 0.03397606 0.001091329
v 0.02387135 0.02437439 0.01503011
v 0.02387135 0.02437439 0.01503011
v 0.004623862 0.03397606 0.001091329
v 0.02504418 0.02074645 0.001117388
v 0.02504418 0.02074645 0.001117388
v 0.004623862 0.03397606 0.001091329
v 0.03225246 0.02437439 -0.01614776

vn 0.1887701 -0.9818568 0.01796484
vn 0.0003891942 -0.9999985 0.001625686
vn 0.09855768 -0.97843 0.1815514
vn 0.1510287 -0.9810987 -0.1209764
vn 0.04154417 -0.9602385 -0.2760722
vn -0.04190772 -0.9642734 -0.2615726
vn -0.157999 -0.9679798 -0.1950666
vn -0.2370792 -0.9703193 -0.04768147
vn -0.1626554 -0.9818349 0.09768841
vn 0.0383238 -0.9585602 0.2822999
vn -0.009378828 -0.915422 0.4023858
vn 0.642161 -0.7039262 0.3035079
vn 0.642161 -0.7039262 0.3035078
vn 0.642161 -0.7039262 0.3035079
vn 0.642161 -0.7039262 0.3035078
vn 0.678241 -0.7031069 -0.2136106
vn 0.678241 -0.7031071 -0.2136106
vn 0.678241 -0.7031069 -0.2136106
vn 0.678241 -0.703107 -0.2136106
vn 0.1811313 -0.6620908 -0.7272049
vn 0.1811313 -0.6620907 -0.727205
vn 0.1811313 -0.6620908 -0.7272049
vn 0.1811313 -0.6620907 -0.727205
vn 0.300283 -0.6863983 -0.6623347
vn 0.3002829 -0.6863983 -0.6623348
vn 0.3002829 -0.6863983 -0.6623348
vn 0.3002829 -0.6863983 -0.6623347
vn -0.5096853 -0.6953636 -0.5066459
vn -0.5096853 -0.6953636 -0.5066459
vn -0.5096853 -0.6953635 -0.506646
vn -0.5096853 -0.6953636 -0.506646
vn -0.6430113 -0.7039661 -0.3016089
vn -0.6430114 -0.7039661 -0.301609
vn -0.6430113 -0.7039661 -0.3016089
vn -0.6430113 -0.7039661 -0.3016089
vn -0.7208377 -0.6928937 -0.01706086
vn -0.7208377 -0.6928937 -0.01706089
vn -0.7208377 -0.6928937 -0.01706085
vn -0.7208377 -0.6928937 -0.01706086
vn -0.2028292 -0.6678945 0.7160845
vn -0.2028292 -0.6678945 0.7160845
vn -0.2028292 -0.6678945 0.7160845
vn -0.2028292 -0.6678945 0.7160846
vn 0.1871608 -0.679024 0.709857
vn 0.1871608 -0.679024 0.709857
vn 0.1871608 -0.679024 0.709857
vn 0.1871608 -0.679024 0.709857
vn -0.07788844 -0.6155777 0.7842176
vn -0.0778884 -0.6155776 0.7842177
vn -0.07788844 -0.6155777 0.7842176
vn -0.07788841 -0.6155776 0.7842176
vn 0.9056646 0 0.4239947
vn 0.9056647 0 0.4239947
vn 0.9056647 0 0.4239947
vn 0.9056646 0 0.4239947
vn 0.9564189 0 -0.2919979
vn 0.9564189 0 -0.2919979
vn 0.9564189 0 -0.2919979
vn 0.9564189 0 -0.2919979
vn 0.2958506 0 -0.9552342
vn 0.2958506 0 -0.9552342
vn 0.2958506 0 -0.9552342
vn 0.2958506 0 -0.9552342
vn 0.435495 0 -0.9001911
vn 0.435495 0 -0.9001912
vn 0.435495 0 -0.9001911
vn 0.435495 0 -0.9001911
vn -0.7348271 0 -0.6782544
vn -0.7348271 0 -0.6782544
vn -0.7348272 0 -0.6782544
vn -0.7348271 0 -0.6782544
vn -0.9073336 0 -0.4204113
vn -0.9073336 0 -0.4204113
vn -0.9073336 0 -0.4204113
vn -0.9073336 0 -0.4204113
vn -0.9999985 0 0.001678407
vn -0.9999985 0 0.001678407
vn -0.9999985 0 0.001678407
vn -0.9999985 0 0.001678407
vn -0.3220011 0 0.9467393
vn -0.3220011 0 0.9467393
vn -0.3220011 0 0.9467393
vn -0.3220011 0 0.9467393
vn 0.1419337 0 0.9898762
vn 0.1419337 0 0.9898762
vn 0.1419337 0 0.9898762
vn 0.1419337 0 0.9898762
vn 0.02015628 0 0.9997968
vn 0.02015629 0 0.9997968
vn 0.02015628 0 0.9997968
vn 0.02015628 0 0.9997968
vn 0.8838701 0.212757 0.4165431
vn 0.8838701 0.212757 0.416543
vn 0.8838701 0.212757 0.416543
vn 0.8838701 0.212757 0.416543
vn 0.9309711 0.2212333 -0.2904279
vn 0.9309711 0.2212334 -0.2904279
vn 0.9309711 0.2212334 -0.2904279
vn 0.9309711 0.2212334 -0.2904279
vn 0.249699 0.2588966 -0.9330717
vn 0.249699 0.2588966 -0.9330717
vn 0.249699 0.2588966 -0.9330717
vn 0.249699 0.2588965 -0.9330717
vn 0.4502454 0.2546348 -0.8558272
vn 0.4502454 0.2546348 -0.8558272
vn 0.4502454 0.2546348 -0.8558272
vn 0.4502453 0.2546348 -0.8558272
vn -0.7326683 0.243782 -0.635427
vn -0.7326683 0.243782 -0.635427
vn -0.7326683 0.243782 -0.635427
vn -0.7326683 0.2437819 -0.635427
vn -0.8691349 0.2822603 -0.4061201
vn -0.8691348 0.2822603 -0.4061202
vn -0.8691349 0.2822603 -0.4061201
vn -0.8691349 0.2822603 -0.4061201
vn -0.9700571 0.242386 -0.01543303
vn -0.9700571 0.242386 -0.01543301
vn -0.9700571 0.242386 -0.01543303
vn -0.9700571 0.242386 -0.01543303
vn -0.2824771 0.1930069 0.9396568
vn -0.2824771 0.1930069 0.9396568
vn -0.2824771 0.1930069 0.9396567
vn -0.2824771 0.1930069 0.9396568
vn 0.1494027 0.2371581 0.9599139
vn 0.1494027 0.2371581 0.959914
vn 0.1494027 0.2371581 0.959914
vn 0.1494027 0.2371581 0.959914
vn -0.01252371 0.178262 0.9839033
vn -0.01252368 0.1782621 0.9839033
vn -0.01252371 0.1782621 0.9839033
vn -0.01252371 0.1782621 0.9839033
vn 0.4933514 0.8368366 0.2372943
vn 0.4933514 0.8368366 0.2372943
vn 0.4933514 0.8368366 0.2372943
vn 0.4933514 0.8368366 0.2372943
vn 0.3964517 0.8884324 -0.2313301
vn 0.3964517 0.8884323 -0.2313301
vn 0.3964517 0.8884324 -0.2313301
vn 0.3964518 0.8884324 -0.23133
vn 0.1590248 0.8693344 -0.4679406
vn 0.1590248 0.8693344 -0.4679406
vn 0.1590248 0.8693344 -0.4679406
vn 0.1590248 0.8693344 -0.4679406
vn 0.2739291 0.8049014 -0.5263993
vn 0.2739291 0.8049015 -0.5263993
vn 0.2739291 0.8049015 -0.5263993
vn 0.2739291 0.8049015 -0.5263993
vn -0.4225838 0.818528 -0.389146
vn -0.4225838 0.8185281 -0.3891459
vn -0.4225838 0.818528 -0.389146
vn -0.4225838 0.818528 -0.389146
vn -0.5128552 0.822262 -0.2467075
vn -0.5128552 0.8222619 -0.2467076
vn -0.5128553 0.8222619 -0.2467075
vn -0.5128552 0.8222619 -0.2467076
vn -0.5748227 0.8172354 -0.0412909
vn -0.5748227 0.8172354 -0.04129089
vn -0.5748227 0.8172354 -0.04129089
vn -0.5748227 0.8172354 -0.04129089
vn -0.1049554 0.7962342 0.5958147
vn -0.1049554 0.7962342 0.5958148
vn -0.1049555 0.7962342 0.5958148
vn -0.1049554 0.7962342 0.5958148
vn 0.210205 0.7985131 0.5640837
vn 0.210205 0.7985132 0.5640836
vn 0.210205 0.7985132 0.5640836
vn 0.210205 0.7985131 0.5640837
vn -0.1529197 0.7325385 0.663327
vn -0.1529196 0.7325386 0.663327
vn -0.1529197 0.7325385 0.663327
vn -0.1529197 0.7325385 0.663327
vn 0.2672462 0.9546868 0.1309669
vn 0.2672462 0.9546868 0.1309669
vn 0.2672462 0.9546868 0.1309669
vn 0.2528121 0.9181488 -0.3051041
vn 0.2528121 0.9181488 -0.3051041
vn 0.2528121 0.9181488 -0.305104
vn 0.2213983 0.9097522 -0.3511885
vn 0.2213984 0.9097522 -0.3511885
vn 0.2213983 0.9097522 -0.3511885
vn 0.1634843 0.909535 -0.3821239
vn 0.1634843 0.909535 -0.382124
vn 0.1634843 0.909535 -0.382124
vn -0.2431294 0.9244466 -0.2937452
vn -0.2431294 0.9244466 -0.2937451
vn -0.2431294 0.9244466 -0.2937452
vn -0.3468224 0.9219853 -0.1722122
vn -0.3468224 0.9219853 -0.1722122
vn -0.3468224 0.9219853 -0.1722122
vn -0.359582 0.9320199 -0.04515819
vn -0.359582 0.9320199 -0.04515821
vn -0.359582 0.9320199 -0.04515819
vn -0.02286796 0.9190346 0.3935125
vn -0.02286794 0.9190346 0.3935125
vn -0.02286794 0.9190345 0.3935126
vn 0.2864486 0.826882 0.4839557
vn 0.2864486 0.826882 0.4839557
vn 0.2864486 0.8268821 0.4839557
vn -0.2512672 0.7785743 0.5750536
vn -0.2512673 0.7785743 0.5750536
vn -0.2512673 0.7785743 0.5750537

vt 0.5482839 0.007647395
vt 0.5 0.15
vt 0.6264089 0.06440853
vt 0.4517161 0.00764741
vt 0.3735911 0.06440856
vt 0.34375 0.15625
vt 0.3735911 0.2480915
vt 0.4517161 0.3048526
vt 0.5482839 0.3048526
vt 0.6264089 0.2480914
vt 0.65625 0.15625
vt 0 0
vt 0 1
vt 1 1
vt 1 0
vt 0 0
vt 0 1
vt 1 1
vt 1 0
vt 0 0
vt 0 1
vt 1 1
vt 1 0
vt 0 0
vt 0 1
vt 1 1
vt 1 0
vt 0 0
vt 0 1
vt 1 1
vt 1 0
vt 0 0
vt 0 1
vt 1 1
vt 1 0
vt 0 0
vt 0 1
vt 1 1
vt 1 0
vt 0 0
vt 0 1
vt 1 1
vt 1 0
vt 0 0
vt 0 1
vt 1 1
vt 1 0
vt 0 0
vt 0 1
vt 1 1
vt 1 0
vt 0 0
vt 0 1
vt 1 1
vt 1 0
vt 0 0
vt 0 1
vt 1 1
vt 1 0
vt 0 0
vt 0 1
vt 1 1
vt 1 0
vt 0 0
vt 0 1
vt 1 1
vt 1 0
vt 0 0
vt 0 1
vt 1 1
vt 1 0
vt 0 0
vt 0 1
vt 1 1
vt 1 0
vt 0 0
vt 0 1
vt 1 1
vt 1 0
vt 0 0
vt 0 1
vt 1 1
vt 1 0
vt 0 0
vt 0 1
vt 1 1
vt 1 0
vt 0 0
vt 0 1
vt 1 1
vt 1 0
vt 0 0
vt 0 1
vt 1 1
vt 1 0
vt 0 0
vt 0 1
vt 1 1
vt 1 0
vt 0 0
vt 0 1
vt 1 1
vt 1 0
vt 0 0
vt 0 1
vt 1 1
vt 1 0
vt 0 0
vt 0 1
vt 1 1
vt 1 0
vt 0 0
vt 0 1
vt 1 1
vt 1 0
vt 0 0
vt 0 1
vt 1 1
vt 1 0
vt 0 0
vt 0 1
vt 1 1
vt 1 0
vt 0 0
vt 0 1
vt 1 1
vt 1 0
vt 0 0
vt 0 1
vt 1 1
vt 1 0
vt 0 0
vt 0 1
vt 1 1
vt 1 0
vt 0 0
vt 0 1
vt 1 1
vt 1 0
vt 0 0
vt 0 1
vt 1 1
vt 1 0
vt 0 0
vt 0 1
vt 1 1
vt 1 0
vt 0 0
vt 0 1
vt 1 1
vt 1 0
vt 0 0
vt 0 1
vt 1 1
vt 1 0
vt 0 0
vt 0 1
vt 1 1
vt 1 0
vt 0 0
vt 0 1
vt 1 1
vt 1 0
vt 0 0
vt 0 1
vt 1 1
vt 1 0
vt 0 0
vt 0 1
vt 1 1
vt 1 0
vt 0 0
vt 0.5 1
vt 1 0
vt 0 0
vt 0.5 1
vt 1 0
vt 0 0
vt 0.5 1
vt 1 0
vt 0 0
vt 0.5 1
vt 1 0
vt 0 0
vt 0.5 1
vt 1 0
vt 0 0
vt 0.5 1
vt 1 0
vt 0 0
vt 0.5 1
vt 1 0
vt 0 0
vt 0.5 1
vt 1 0
vt 0 0
vt 0.5 1
vt 1 0
vt 0 0
vt 0.5 1
vt 1 0

g Foliage_12_4153_14
usemtl Foliage_12_4153_14
usemap Foliage_12_4153_14
f 1/1/1 3/3/3 2/2/2
f 4/4/4 1/1/1 2/2/2
f 5/5/5 4/4/4 2/2/2
f 6/6/6 5/5/5 2/2/2
f 7/7/7 6/6/6 2/2/2
f 8/8/8 7/7/7 2/2/2
f 9/9/9 8/8/8 2/2/2
f 10/10/10 9/9/9 2/2/2
f 11/11/11 10/10/10 2/2/2
f 3/3/3 11/11/11 2/2/2
f 12/12/12 14/14/14 13/13/13
f 12/12/12 15/15/15 14/14/14
f 16/16/16 18/18/18 17/17/17
f 16/16/16 19/19/19 18/18/18
f 20/20/20 22/22/22 21/21/21
f 20/20/20 23/23/23 22/22/22
f 24/24/24 26/26/26 25/25/25
f 24/24/24 27/27/27 26/26/26
f 28/28/28 30/30/30 29/29/29
f 28/28/28 31/31/31 30/30/30
f 32/32/32 34/34/34 33/33/33
f 32/32/32 35/35/35 34/34/34
f 36/36/36 38/38/38 37/37/37
f 36/36/36 39/39/39 38/38/38
f 40/40/40 42/42/42 41/41/41
f 40/40/40 43/43/43 42/42/42
f 44/44/44 46/46/46 45/45/45
f 44/44/44 47/47/47 46/46/46
f 48/48/48 50/50/50 49/49/49
f 48/48/48 51/51/51 50/50/50
f 52/52/52 54/54/54 53/53/53
f 52/52/52 55/55/55 54/54/54
f 56/56/56 58/58/58 57/57/57
f 56/56/56 59/59/59 58/58/58
f 60/60/60 62/62/62 61/61/61
f 60/60/60 63/63/63 62/62/62
f 64/64/64 66/66/66 65/65/65
f 64/64/64 67/67/67 66/66/66
f 68/68/68 70/70/70 69/69/69
f 68/68/68 71/71/71 70/70/70
f 72/72/72 74/74/74 73/73/73
f 72/72/72 75/75/75 74/74/74
f 76/76/76 78/78/78 77/77/77
f 76/76/76 79/79/79 78/78/78
f 80/80/80 82/82/82 81/81/81
f 80/80/80 83/83/83 82/82/82
f 84/84/84 86/86/86 85/85/85
f 84/84/84 87/87/87 86/86/86
f 88/88/88 90/90/90 89/89/89
f 88/88/88 91/91/91 90/90/90
f 92/92/92 94/94/94 93/93/93
f 92/92/92 95/95/95 94/94/94
f 96/96/96 98/98/98 97/97/97
f 96/96/96 99/99/99 98/98/98
f 100/100/100 102/102/102 101/101/101
f 100/100/100 103/103/103 102/102/102
f 104/104/104 106/106/106 105/105/105
f 104/104/104 107/107/107 106/106/106
f 108/108/108 110/110/110 109/109/109
f 108/108/108 111/111/111 110/110/110
f 112/112/112 114/114/114 113/113/113
f 112/112/112 115/115/115 114/114/114
f 116/116/116 118/118/118 117/117/117
f 116/116/116 119/119/119 118/118/118
f 120/120/120 122/122/122 121/121/121
f 120/120/120 123/123/123 122/122/122
f 124/124/124 126/126/126 125/125/125
f 124/124/124 127/127/127 126/126/126
f 128/128/128 130/130/130 129/129/129
f 128/128/128 131/131/131 130/130/130
f 132/132/132 134/134/134 133/133/133
f 132/132/132 135/135/135 134/134/134
f 136/136/136 138/138/138 137/137/137
f 136/136/136 139/139/139 138/138/138
f 140/140/140 142/142/142 141/141/141
f 140/140/140 143/143/143 142/142/142
f 144/144/144 146/146/146 145/145/145
f 144/144/144 147/147/147 146/146/146
f 148/148/148 150/150/150 149/149/149
f 148/148/148 151/151/151 150/150/150
f 152/152/152 154/154/154 153/153/153
f 152/152/152 155/155/155 154/154/154
f 156/156/156 158/158/158 157/157/157
f 156/156/156 159/159/159 158/158/158
f 160/160/160 162/162/162 161/161/161
f 160/160/160 163/163/163 162/162/162
f 164/164/164 166/166/166 165/165/165
f 164/164/164 167/167/167 166/166/166
f 168/168/168 170/170/170 169/169/169
f 168/168/168 171/171/171 170/170/170
f 172/172/172 174/174/174 173/173/173
f 175/175/175 177/177/177 176/176/176
f 178/178/178 180/180/180 179/179/179
f 181/181/181 183/183/183 182/182/182
f 184/184/184 186/186/186 185/185/185
f 187/187/187 189/189/189 188/188/188
f 190/190/190 192/192/192 191/191/191
f 193/193/193 195/195/195 194/194/194
f 196/196/196 198/198/198 197/197/197
f 199/199/199 201/201/201 200/200/200
