#Foliage5_4_4072_137.obj

v 0.01454521 -0.02577566 -0.04035827
v 0.004623739 -0.03397608 0.001091428
v 0.03878438 -0.02577566 -0.02105475
v -0.009663534 -0.02577566 -0.03817537
v -0.01825091 -0.02577566 -0.01778038
v -0.03822225 -0.02223219 0.001091432
v -0.02135099 -0.02577566 0.01996323
v -0.005297715 -0.02577566 0.03271803
v 0.02109392 -0.02577566 0.04035822
v 0.03059846 -0.02577566 0.01996323
v 0.03218934 -0.02223219 0.001091442
v 0.03878438 -0.02577566 -0.02105475
v 0.04796677 -0.01489236 -0.02772611
v 0.01805255 -0.01489236 -0.05115278
v 0.01454521 -0.02577566 -0.04035827
v 0.01454521 -0.02577566 -0.04035827
v 0.01805255 -0.01489236 -0.05115278
v -0.0131709 -0.01489236 -0.04896986
v -0.009663534 -0.02577566 -0.03817537
v -0.009663534 -0.02577566 -0.03817537
v -0.0131709 -0.01489236 -0.04896986
v -0.0274333 -0.01489236 -0.02445177
v -0.01825091 -0.02577566 -0.01778038
v -0.01825091 -0.02577566 -0.01778038
v -0.0274333 -0.01489236 -0.02445177
v -0.04796704 -0.01288817 0.001091428
v -0.03822225 -0.02223219 0.001091432
v -0.03822225 -0.02223219 0.001091432
v -0.04796704 -0.01288817 0.001091428
v -0.03053338 -0.01489236 0.02663464
v -0.02135099 -0.02577566 0.01996323
v -0.02135099 -0.02577566 0.01996323
v -0.03053338 -0.01489236 0.02663464
v -0.008805076 -0.01489236 0.04351252
v -0.005297715 -0.02577566 0.03271803
v -0.005297715 -0.02577566 0.03271803
v -0.008805076 -0.01489236 0.04351252
v 0.02460128 -0.01489236 0.05115271
v 0.02109392 -0.02577566 0.04035822
v 0.02109392 -0.02577566 0.04035822
v 0.02460128 -0.01489236 0.05115271
v 0.03978086 -0.01489236 0.02663464
v 0.03059846 -0.02577566 0.01996323
v 0.03059846 -0.02577566 0.01996323
v 0.03978086 -0.01489236 0.02663464
v 0.04193415 -0.01288817 0.001091444
v 0.03218934 -0.02223219 0.001091442
v 0.03218934 -0.02223219 0.001091442
v 0.04193415 -0.01288817 0.001091444
v 0.04796677 -0.01489236 -0.02772611
v 0.03878438 -0.02577566 -0.02105475
v 0.04796677 -0.01489236 -0.02772611
v 0.04796677 -0.0001483099 -0.02772611
v 0.01805255 -0.0001483099 -0.05115278
v 0.01805255 -0.01489236 -0.05115278
v 0.01805255 -0.01489236 -0.05115278
v 0.01805255 -0.0001483099 -0.05115278
v -0.0131709 -0.0001483099 -0.04896986
v -0.0131709 -0.01489236 -0.04896986
v -0.0131709 -0.01489236 -0.04896986
v -0.0131709 -0.0001483099 -0.04896986
v -0.0274333 -0.0001483099 -0.02445177
v -0.0274333 -0.01489236 -0.02445177
v -0.0274333 -0.01489236 -0.02445177
v -0.0274333 -0.0001483099 -0.02445177
v -0.04796704 -0.0002294122 0.001091428
v -0.04796704 -0.01288817 0.001091428
v -0.04796704 -0.01288817 0.001091428
v -0.04796704 -0.0002294122 0.001091428
v -0.03053338 -0.0001483099 0.02663464
v -0.03053338 -0.01489236 0.02663464
v -0.03053338 -0.01489236 0.02663464
v -0.03053338 -0.0001483099 0.02663464
v -0.008805076 -0.0001483099 0.04351252
v -0.008805076 -0.01489236 0.04351252
v -0.008805076 -0.01489236 0.04351252
v -0.008805076 -0.0001483099 0.04351252
v 0.02460128 -0.0001483099 0.05115271
v 0.02460128 -0.01489236 0.05115271
v 0.02460128 -0.01489236 0.05115271
v 0.02460128 -0.0001483099 0.05115271
v 0.03978086 -0.0001483099 0.02663464
v 0.03978086 -0.01489236 0.02663464
v 0.03978086 -0.01489236 0.02663464
v 0.03978086 -0.0001483099 0.02663464
v 0.04193415 -0.0002294122 0.001091444
v 0.04193415 -0.01288817 0.001091444
v 0.04193415 -0.01288817 0.001091444
v 0.04193415 -0.0002294122 0.001091444
v 0.04796677 -0.0001483099 -0.02772611
v 0.04796677 -0.01489236 -0.02772611
v 0.04796677 -0.0001483099 -0.02772611
v 0.04568878 0.01428336 -0.02539681
v 0.01714499 0.01428336 -0.04799128
v 0.01805255 -0.0001483099 -0.05115278
v 0.01805255 -0.0001483099 -0.05115278
v 0.01714499 0.01428336 -0.04799128
v -0.01182924 0.01428336 -0.04559768
v -0.0131709 -0.0001483099 -0.04896986
v -0.0131709 -0.0001483099 -0.04896986
v -0.01182924 0.01428336 -0.04559768
v -0.02321041 0.01428336 -0.02180641
v -0.0274333 -0.0001483099 -0.02445177
v -0.0274333 -0.0001483099 -0.02445177
v -0.02321041 0.01428336 -0.02180641
v -0.04530423 0.01197211 0.001196784
v -0.04796704 -0.0002294122 0.001091428
v -0.04796704 -0.0002294122 0.001091428
v -0.04530423 0.01197211 0.001196784
v -0.02660971 0.01428336 0.02419997
v -0.03053338 -0.0001483099 0.02663464
v -0.03053338 -0.0001483099 0.02663464
v -0.02660971 0.01428336 0.02419997
v -0.007042002 0.01428336 0.03961356
v -0.008805076 -0.0001483099 0.04351252
v -0.008805076 -0.0001483099 0.04351252
v -0.007042002 0.01428336 0.03961356
v 0.02432583 0.01428336 0.04799123
v 0.02460128 -0.0001483099 0.05115271
v 0.02460128 -0.0001483099 0.05115271
v 0.02432583 0.01428336 0.04799123
v 0.03671269 0.01428336 0.02419999
v 0.03978086 -0.0001483099 0.02663464
v 0.03978086 -0.0001483099 0.02663464
v 0.03671269 0.01428336 0.02419999
v 0.03865186 0.01197211 0.001196795
v 0.04193415 -0.0002294122 0.001091444
v 0.04193415 -0.0002294122 0.001091444
v 0.03865186 0.01197211 0.001196795
v 0.04568878 0.01428336 -0.02539681
v 0.04796677 -0.0001483099 -0.02772611
v 0.04568878 0.01428336 -0.02539681
v 0.03225234 0.0243744 -0.01614769
v 0.01203633 0.0243744 -0.03256865
v 0.01714499 0.01428336 -0.04799128
v 0.01714499 0.01428336 -0.04799128
v 0.01203633 0.0243744 -0.03256865
v -0.00259237 0.0243744 -0.02139383
v -0.01182924 0.01428336 -0.04559768
v -0.01182924 0.01428336 -0.04559768
v -0.00259237 0.0243744 -0.02139383
v -0.01125326 0.0243744 -0.01279524
v -0.02321041 0.01428336 -0.02180641
v -0.02321041 0.01428336 -0.02180641
v -0.01125326 0.0243744 -0.01279524
v -0.03124484 0.02074647 0.00111747
v -0.04530423 0.01197211 0.001196784
v -0.04530423 0.01197211 0.001196784
v -0.03124484 0.02074647 0.00111747
v -0.01442725 0.0243744 0.01503018
v -0.02660971 0.01428336 0.02419997
v -0.02660971 0.01428336 0.02419997
v -0.01442725 0.0243744 0.01503018
v -0.002592368 0.0243744 0.02474622
v -0.007042002 0.01428336 0.03961356
v -0.007042002 0.01428336 0.03961356
v -0.002592368 0.0243744 0.02474622
v 0.0187412 0.0243744 0.03256859
v 0.02432583 0.01428336 0.04799123
v 0.02432583 0.01428336 0.04799123
v 0.0187412 0.0243744 0.03256859
v 0.02387122 0.0243744 0.01503019
v 0.03671269 0.01428336 0.02419999
v 0.03671269 0.01428336 0.02419999
v 0.02387122 0.0243744 0.01503019
v 0.02504406 0.02074647 0.001117461
v 0.03865186 0.01197211 0.001196795
v 0.03865186 0.01197211 0.001196795
v 0.02504406 0.02074647 0.001117461
v 0.03225234 0.0243744 -0.01614769
v 0.04568878 0.01428336 -0.02539681
v 0.03225234 0.0243744 -0.01614769
v 0.004623737 0.03397608 0.0010914
v 0.01203633 0.0243744 -0.03256865
v 0.01203633 0.0243744 -0.03256865
v 0.004623737 0.03397608 0.0010914
v -0.00259237 0.0243744 -0.02139383
v -0.00259237 0.0243744 -0.02139383
v 0.004623737 0.03397608 0.0010914
v -0.01125326 0.0243744 -0.01279524
v -0.01125326 0.0243744 -0.01279524
v 0.004623737 0.03397608 0.0010914
v -0.03124484 0.02074647 0.00111747
v -0.03124484 0.02074647 0.00111747
v 0.004623737 0.03397608 0.0010914
v -0.01442725 0.0243744 0.01503018
v -0.01442725 0.0243744 0.01503018
v 0.004623737 0.03397608 0.0010914
v -0.002592368 0.0243744 0.02474622
v -0.002592368 0.0243744 0.02474622
v 0.004623737 0.03397608 0.0010914
v 0.0187412 0.0243744 0.03256859
v 0.0187412 0.0243744 0.03256859
v 0.004623737 0.03397608 0.0010914
v 0.02387122 0.0243744 0.01503019
v 0.02387122 0.0243744 0.01503019
v 0.004623737 0.03397608 0.0010914
v 0.02504406 0.02074647 0.001117461
v 0.02504406 0.02074647 0.001117461
v 0.004623737 0.03397608 0.0010914
v 0.03225234 0.0243744 -0.01614769

vn -0.06955817 -0.9818567 -0.1764045
vn 0.001272635 -0.9999983 -0.001083848
vn 0.1171494 -0.9784299 -0.1701486
vn -0.1762955 -0.9810986 -0.07978027
vn -0.2649102 -0.9602383 0.08811549
vn -0.2141565 -0.9642733 0.1559278
vn -0.1022509 -0.9679797 0.2292584
vn 0.0649691 -0.9703192 0.2329358
vn 0.1608081 -0.9818348 0.1007005
vn 0.2342565 -0.9585601 -0.1621292
vn 0.3629195 -0.9154218 -0.1740453
vn -0.02056465 -0.7039261 -0.7099754
vn -0.02056471 -0.7039261 -0.7099753
vn -0.02056462 -0.7039261 -0.7099753
vn -0.02056471 -0.7039261 -0.7099753
vn -0.4978554 -0.7031068 -0.5077208
vn -0.4978554 -0.7031069 -0.5077208
vn -0.4978554 -0.7031068 -0.5077208
vn -0.4978554 -0.7031069 -0.5077208
vn -0.7303051 -0.6620907 0.1681966
vn -0.7303052 -0.6620907 0.1681966
vn -0.7303051 -0.6620907 0.1681966
vn -0.7303052 -0.6620907 0.1681966
vn -0.7264954 -0.6863983 0.03258413
vn -0.7264955 -0.6863982 0.03258422
vn -0.7264954 -0.6863982 0.03258416
vn -0.7264954 -0.6863982 0.03258422
vn -0.2205556 -0.6953635 0.683977
vn -0.2205556 -0.6953635 0.683977
vn -0.2205557 -0.6953635 0.683977
vn -0.2205556 -0.6953635 0.683977
vn 0.02264276 -0.703966 0.7098725
vn 0.0226427 -0.703966 0.7098725
vn 0.02264273 -0.703966 0.7098724
vn 0.02264273 -0.703966 0.7098724
vn 0.311555 -0.6928936 0.650255
vn 0.311555 -0.6928937 0.650255
vn 0.3115551 -0.6928937 0.650255
vn 0.311555 -0.6928936 0.650255
vn 0.7302288 -0.6678945 -0.1438151
vn 0.7302287 -0.6678945 -0.1438151
vn 0.7302287 -0.6678945 -0.1438151
vn 0.7302288 -0.6678945 -0.1438152
vn 0.5478919 -0.6790239 -0.4886111
vn 0.5478919 -0.679024 -0.4886111
vn 0.5478919 -0.6790239 -0.4886111
vn 0.5478919 -0.6790239 -0.4886111
vn 0.7343227 -0.6155776 -0.2860669
vn 0.7343227 -0.6155775 -0.2860669
vn 0.7343227 -0.6155776 -0.2860669
vn 0.7343227 -0.6155776 -0.2860669
vn -0.03261697 -2.137515E-17 -0.999468
vn -0.03261691 -2.137517E-17 -0.999468
vn -0.03261691 -2.137517E-17 -0.999468
vn -0.03261697 -2.137515E-17 -0.999468
vn -0.6938268 1.368931E-16 -0.720142
vn -0.6938268 1.368931E-16 -0.720142
vn -0.6938268 1.368931E-16 -0.720142
vn -0.6938268 1.368931E-16 -0.720142
vn -0.985563 2.28791E-16 0.1693089
vn -0.985563 2.28791E-16 0.1693089
vn -0.985563 2.28791E-16 0.1693089
vn -0.985563 2.28791E-16 0.1693089
vn -0.9998022 2.277225E-16 0.01988488
vn -0.9998024 2.277225E-16 0.01988488
vn -0.9998022 2.277225E-16 0.01988488
vn -0.9998022 2.277225E-16 0.01988488
vn -0.2714606 8.939381E-17 0.9624496
vn -0.2714606 8.939381E-17 0.9624496
vn -0.2714605 8.939379E-17 0.9624497
vn -0.2714606 8.939381E-17 0.9624496
vn 0.03656748 2.047367E-17 0.9993312
vn 0.03656748 2.047367E-17 0.9993312
vn 0.03656748 2.047367E-17 0.9993312
vn 0.03656748 2.047367E-17 0.9993312
vn 0.4548045 -7.767939E-17 0.8905913
vn 0.4548045 -7.767939E-17 0.8905913
vn 0.4548045 -7.767939E-17 0.8905913
vn 0.4548045 -7.767939E-17 0.8905913
vn 0.9898454 -2.289817E-16 -0.1421488
vn 0.9898454 -2.289817E-16 -0.1421488
vn 0.9898454 -2.289817E-16 -0.1421488
vn 0.9898454 -2.289817E-16 -0.1421488
vn 0.8179897 -2.024102E-16 -0.575233
vn 0.8179897 -2.024102E-16 -0.575233
vn 0.8179897 -2.024102E-16 -0.575233
vn 0.8179897 -2.024102E-16 -0.575233
vn 0.8820353 -2.139643E-16 -0.4711834
vn 0.8820353 -2.139643E-16 -0.4711834
vn 0.8820353 -2.139643E-16 -0.4711834
vn 0.8820353 -2.139643E-16 -0.4711834
vn -0.02937931 0.212757 -0.9766635
vn -0.02937931 0.212757 -0.9766634
vn -0.02937931 0.212757 -0.9766634
vn -0.02937931 0.212757 -0.9766634
vn -0.6808916 0.2212333 -0.6981707
vn -0.6808916 0.2212333 -0.6981707
vn -0.6808916 0.2212333 -0.6981707
vn -0.6808916 0.2212333 -0.6981707
vn -0.9448875 0.2588966 0.2003999
vn -0.9448876 0.2588966 0.2003999
vn -0.9448875 0.2588966 0.2003999
vn -0.9448875 0.2588965 0.2003999
vn -0.9669449 0.2546348 -0.01337346
vn -0.9669448 0.2546348 -0.01337349
vn -0.9669449 0.2546348 -0.01337346
vn -0.9669448 0.2546348 -0.01337343
vn -0.2342649 0.2437819 0.9411113
vn -0.2342649 0.243782 0.9411113
vn -0.2342649 0.2437819 0.9411113
vn -0.2342649 0.2437819 0.9411113
vn 0.03199023 0.2822602 0.9588044
vn 0.03199017 0.2822602 0.9588043
vn 0.0319902 0.2822603 0.9588044
vn 0.0319902 0.2822603 0.9588044
vn 0.4259794 0.242386 0.8716596
vn 0.4259794 0.242386 0.8716596
vn 0.4259794 0.242386 0.8716596
vn 0.4259794 0.242386 0.8716596
vn 0.9656158 0.1930069 -0.1741681
vn 0.9656158 0.1930069 -0.1741681
vn 0.9656157 0.1930069 -0.174168
vn 0.9656158 0.1930069 -0.1741681
vn 0.787897 0.2371581 -0.5683084
vn 0.7878971 0.2371581 -0.5683084
vn 0.7878971 0.2371581 -0.5683084
vn 0.7878971 0.2371581 -0.5683084
vn 0.8826827 0.178262 -0.4348493
vn 0.8826827 0.178262 -0.4348493
vn 0.8826827 0.178262 -0.4348493
vn 0.8826827 0.178262 -0.4348493
vn -0.01212761 0.8368365 -0.5473181
vn -0.01212764 0.8368365 -0.5473182
vn -0.01212761 0.8368365 -0.5473181
vn -0.01212764 0.8368365 -0.5473182
vn -0.3859121 0.8884323 -0.2485146
vn -0.3859121 0.8884323 -0.2485146
vn -0.3859121 0.8884323 -0.2485146
vn -0.385912 0.8884323 -0.2485147
vn -0.4891879 0.8693343 0.07037444
vn -0.4891879 0.8693343 0.07037441
vn -0.4891879 0.8693343 0.07037444
vn -0.4891879 0.8693343 0.07037441
vn -0.5933824 0.8049013 -0.005546063
vn -0.5933824 0.8049014 -0.005546063
vn -0.5933824 0.8049014 -0.005546063
vn -0.5933824 0.8049014 -0.005546063
vn -0.1553055 0.8185279 0.553075
vn -0.1553055 0.8185279 0.553075
vn -0.1553055 0.8185279 0.553075
vn -0.1553055 0.8185279 0.553075
vn 0.01257834 0.8222619 0.5689701
vn 0.01257831 0.8222618 0.56897
vn 0.01257834 0.8222618 0.5689701
vn 0.01257831 0.8222618 0.56897
vn 0.2237675 0.8172353 0.5310877
vn 0.2237676 0.8172353 0.5310877
vn 0.2237676 0.8172353 0.5310877
vn 0.2237676 0.8172353 0.5310877
vn 0.5786588 0.7962341 -0.1765358
vn 0.5786588 0.7962341 -0.1765359
vn 0.5786588 0.7962341 -0.1765358
vn 0.5786588 0.7962341 -0.1765359
vn 0.4075101 0.798513 -0.4430712
vn 0.40751 0.7985131 -0.4430712
vn 0.40751 0.7985131 -0.4430712
vn 0.4075101 0.798513 -0.4430712
vn 0.6605787 0.7325384 -0.1643867
vn 0.6605787 0.7325385 -0.1643867
vn 0.6605787 0.7325384 -0.1643867
vn 0.6605787 0.7325384 -0.1643867
vn -0.004407316 0.9546866 -0.2975793
vn -0.004407346 0.9546866 -0.2975793
vn -0.004407316 0.9546866 -0.2975793
vn -0.3865576 0.9181487 -0.08703846
vn -0.3865576 0.9181487 -0.08703849
vn -0.3865576 0.9181487 -0.08703849
vn -0.4133949 0.9097521 -0.03814723
vn -0.413395 0.9097521 -0.03814726
vn -0.413395 0.9097521 -0.03814721
vn -0.4147164 0.9095349 0.02749793
vn -0.4147165 0.9095349 0.02749795
vn -0.4147165 0.9095349 0.02749795
vn -0.151618 0.9244465 0.3498716
vn -0.151618 0.9244465 0.3498715
vn -0.151618 0.9244465 0.3498716
vn 0.003715768 0.9219851 0.3872067
vn 0.003715754 0.9219852 0.3872067
vn 0.003715754 0.9219852 0.3872067
vn 0.1227499 0.9320198 0.3409853
vn 0.1227499 0.9320198 0.3409853
vn 0.1227499 0.9320198 0.3409853
vn 0.361125 0.9190345 -0.1579994
vn 0.3611251 0.9190345 -0.1579994
vn 0.3611251 0.9190344 -0.1579994
vn 0.3015259 0.8268819 -0.4747085
vn 0.3015258 0.8268819 -0.4747084
vn 0.3015258 0.8268819 -0.4747084
vn 0.6264778 0.7785742 -0.03670916
vn 0.6264778 0.7785742 -0.0367091
vn 0.6264778 0.7785742 -0.03670913

vt 0.5483398 0.007648468
vt 0.5 0.1500244
vt 0.6264648 0.06439209
vt 0.4516602 0.007648468
vt 0.3735352 0.06439209
vt 0.34375 0.15625
vt 0.3735352 0.2480469
vt 0.4516602 0.3049316
vt 0.5483398 0.3049316
vt 0.6264648 0.2480469
vt 0.65625 0.15625
vt 0 0
vt 0 1
vt 1 1
vt 1 0
vt 0 0
vt 0 1
vt 1 1
vt 1 0
vt 0 0
vt 0 1
vt 1 1
vt 1 0
vt 0 0
vt 0 1
vt 1 1
vt 1 0
vt 0 0
vt 0 1
vt 1 1
vt 1 0
vt 0 0
vt 0 1
vt 1 1
vt 1 0
vt 0 0
vt 0 1
vt 1 1
vt 1 0
vt 0 0
vt 0 1
vt 1 1
vt 1 0
vt 0 0
vt 0 1
vt 1 1
vt 1 0
vt 0 0
vt 0 1
vt 1 1
vt 1 0
vt 0 0
vt 0 1
vt 1 1
vt 1 0
vt 0 0
vt 0 1
vt 1 1
vt 1 0
vt 0 0
vt 0 1
vt 1 1
vt 1 0
vt 0 0
vt 0 1
vt 1 1
vt 1 0
vt 0 0
vt 0 1
vt 1 1
vt 1 0
vt 0 0
vt 0 1
vt 1 1
vt 1 0
vt 0 0
vt 0 1
vt 1 1
vt 1 0
vt 0 0
vt 0 1
vt 1 1
vt 1 0
vt 0 0
vt 0 1
vt 1 1
vt 1 0
vt 0 0
vt 0 1
vt 1 1
vt 1 0
vt 0 0
vt 0 1
vt 1 1
vt 1 0
vt 0 0
vt 0 1
vt 1 1
vt 1 0
vt 0 0
vt 0 1
vt 1 1
vt 1 0
vt 0 0
vt 0 1
vt 1 1
vt 1 0
vt 0 0
vt 0 1
vt 1 1
vt 1 0
vt 0 0
vt 0 1
vt 1 1
vt 1 0
vt 0 0
vt 0 1
vt 1 1
vt 1 0
vt 0 0
vt 0 1
vt 1 1
vt 1 0
vt 0 0
vt 0 1
vt 1 1
vt 1 0
vt 0 0
vt 0 1
vt 1 1
vt 1 0
vt 0 0
vt 0 1
vt 1 1
vt 1 0
vt 0 0
vt 0 1
vt 1 1
vt 1 0
vt 0 0
vt 0 1
vt 1 1
vt 1 0
vt 0 0
vt 0 1
vt 1 1
vt 1 0
vt 0 0
vt 0 1
vt 1 1
vt 1 0
vt 0 0
vt 0 1
vt 1 1
vt 1 0
vt 0 0
vt 0 1
vt 1 1
vt 1 0
vt 0 0
vt 0 1
vt 1 1
vt 1 0
vt 0 0
vt 0 1
vt 1 1
vt 1 0
vt 0 0
vt 0 1
vt 1 1
vt 1 0
vt 0 0
vt 0.5 1
vt 1 0
vt 0 0
vt 0.5 1
vt 1 0
vt 0 0
vt 0.5 1
vt 1 0
vt 0 0
vt 0.5 1
vt 1 0
vt 0 0
vt 0.5 1
vt 1 0
vt 0 0
vt 0.5 1
vt 1 0
vt 0 0
vt 0.5 1
vt 1 0
vt 0 0
vt 0.5 1
vt 1 0
vt 0 0
vt 0.5 1
vt 1 0
vt 0 0
vt 0.5 1
vt 1 0

g Foliage5_4_4072_137
usemtl Foliage5_4_4072_137
usemap Foliage5_4_4072_137
f 1/1/1 3/3/3 2/2/2
f 4/4/4 1/1/1 2/2/2
f 5/5/5 4/4/4 2/2/2
f 6/6/6 5/5/5 2/2/2
f 7/7/7 6/6/6 2/2/2
f 8/8/8 7/7/7 2/2/2
f 9/9/9 8/8/8 2/2/2
f 10/10/10 9/9/9 2/2/2
f 11/11/11 10/10/10 2/2/2
f 3/3/3 11/11/11 2/2/2
f 12/12/12 14/14/14 13/13/13
f 12/12/12 15/15/15 14/14/14
f 16/16/16 18/18/18 17/17/17
f 16/16/16 19/19/19 18/18/18
f 20/20/20 22/22/22 21/21/21
f 20/20/20 23/23/23 22/22/22
f 24/24/24 26/26/26 25/25/25
f 24/24/24 27/27/27 26/26/26
f 28/28/28 30/30/30 29/29/29
f 28/28/28 31/31/31 30/30/30
f 32/32/32 34/34/34 33/33/33
f 32/32/32 35/35/35 34/34/34
f 36/36/36 38/38/38 37/37/37
f 36/36/36 39/39/39 38/38/38
f 40/40/40 42/42/42 41/41/41
f 40/40/40 43/43/43 42/42/42
f 44/44/44 46/46/46 45/45/45
f 44/44/44 47/47/47 46/46/46
f 48/48/48 50/50/50 49/49/49
f 48/48/48 51/51/51 50/50/50
f 52/52/52 54/54/54 53/53/53
f 52/52/52 55/55/55 54/54/54
f 56/56/56 58/58/58 57/57/57
f 56/56/56 59/59/59 58/58/58
f 60/60/60 62/62/62 61/61/61
f 60/60/60 63/63/63 62/62/62
f 64/64/64 66/66/66 65/65/65
f 64/64/64 67/67/67 66/66/66
f 68/68/68 70/70/70 69/69/69
f 68/68/68 71/71/71 70/70/70
f 72/72/72 74/74/74 73/73/73
f 72/72/72 75/75/75 74/74/74
f 76/76/76 78/78/78 77/77/77
f 76/76/76 79/79/79 78/78/78
f 80/80/80 82/82/82 81/81/81
f 80/80/80 83/83/83 82/82/82
f 84/84/84 86/86/86 85/85/85
f 84/84/84 87/87/87 86/86/86
f 88/88/88 90/90/90 89/89/89
f 88/88/88 91/91/91 90/90/90
f 92/92/92 94/94/94 93/93/93
f 92/92/92 95/95/95 94/94/94
f 96/96/96 98/98/98 97/97/97
f 96/96/96 99/99/99 98/98/98
f 100/100/100 102/102/102 101/101/101
f 100/100/100 103/103/103 102/102/102
f 104/104/104 106/106/106 105/105/105
f 104/104/104 107/107/107 106/106/106
f 108/108/108 110/110/110 109/109/109
f 108/108/108 111/111/111 110/110/110
f 112/112/112 114/114/114 113/113/113
f 112/112/112 115/115/115 114/114/114
f 116/116/116 118/118/118 117/117/117
f 116/116/116 119/119/119 118/118/118
f 120/120/120 122/122/122 121/121/121
f 120/120/120 123/123/123 122/122/122
f 124/124/124 126/126/126 125/125/125
f 124/124/124 127/127/127 126/126/126
f 128/128/128 130/130/130 129/129/129
f 128/128/128 131/131/131 130/130/130
f 132/132/132 134/134/134 133/133/133
f 132/132/132 135/135/135 134/134/134
f 136/136/136 138/138/138 137/137/137
f 136/136/136 139/139/139 138/138/138
f 140/140/140 142/142/142 141/141/141
f 140/140/140 143/143/143 142/142/142
f 144/144/144 146/146/146 145/145/145
f 144/144/144 147/147/147 146/146/146
f 148/148/148 150/150/150 149/149/149
f 148/148/148 151/151/151 150/150/150
f 152/152/152 154/154/154 153/153/153
f 152/152/152 155/155/155 154/154/154
f 156/156/156 158/158/158 157/157/157
f 156/156/156 159/159/159 158/158/158
f 160/160/160 162/162/162 161/161/161
f 160/160/160 163/163/163 162/162/162
f 164/164/164 166/166/166 165/165/165
f 164/164/164 167/167/167 166/166/166
f 168/168/168 170/170/170 169/169/169
f 168/168/168 171/171/171 170/170/170
f 172/172/172 174/174/174 173/173/173
f 175/175/175 177/177/177 176/176/176
f 178/178/178 180/180/180 179/179/179
f 181/181/181 183/183/183 182/182/182
f 184/184/184 186/186/186 185/185/185
f 187/187/187 189/189/189 188/188/188
f 190/190/190 192/192/192 191/191/191
f 193/193/193 195/195/195 194/194/194
f 196/196/196 198/198/198 197/197/197
f 199/199/199 201/201/201 200/200/200
