#Foliage2_16_3615_110.obj

v 0.01454687 -0.02577573 -0.04035883
v 0.004625335 -0.0339761 0.00109089
v 0.03878582 -0.02577573 -0.02105527
v -0.009662192 -0.02577565 -0.03817588
v -0.01824955 -0.02577575 -0.01778093
v -0.03822041 -0.02223221 0.001090911
v -0.0213492 -0.02577572 0.01996269
v -0.005296189 -0.02577575 0.03271753
v 0.02109572 -0.02577574 0.04035769
v 0.03059973 -0.02577568 0.01996277
v 0.0321909 -0.0222323 0.001090879
v 0.03878582 -0.02577573 -0.02105527
v 0.04796822 -0.01489247 -0.02772673
v 0.01805382 -0.01489244 -0.05115335
v 0.01454687 -0.02577573 -0.04035883
v 0.01454687 -0.02577573 -0.04035883
v 0.01805382 -0.01489244 -0.05115335
v -0.01316956 -0.0148924 -0.04897036
v -0.009662192 -0.02577565 -0.03817588
v -0.009662192 -0.02577565 -0.03817588
v -0.01316956 -0.0148924 -0.04897036
v -0.0274315 -0.01489242 -0.0244523
v -0.01824955 -0.02577575 -0.01778093
v -0.01824955 -0.02577575 -0.01778093
v -0.0274315 -0.01489242 -0.0244523
v -0.04796563 -0.01288823 0.001090905
v -0.03822041 -0.02223221 0.001090911
v -0.03822041 -0.02223221 0.001090911
v -0.04796563 -0.01288823 0.001090905
v -0.0305317 -0.01489243 0.02663397
v -0.0213492 -0.02577572 0.01996269
v -0.0213492 -0.02577572 0.01996269
v -0.0305317 -0.01489243 0.02663397
v -0.008803257 -0.01489249 0.04351187
v -0.005296189 -0.02577575 0.03271753
v -0.005296189 -0.02577575 0.03271753
v -0.008803257 -0.01489249 0.04351187
v 0.024603 -0.01489244 0.05115217
v 0.02109572 -0.02577574 0.04035769
v 0.02109572 -0.02577574 0.04035769
v 0.024603 -0.01489244 0.05115217
v 0.03978226 -0.01489244 0.02663404
v 0.03059973 -0.02577568 0.01996277
v 0.03059973 -0.02577568 0.01996277
v 0.03978226 -0.01489244 0.02663404
v 0.04193578 -0.01288833 0.001090909
v 0.0321909 -0.0222323 0.001090879
v 0.0321909 -0.0222323 0.001090879
v 0.04193578 -0.01288833 0.001090909
v 0.04796822 -0.01489247 -0.02772673
v 0.03878582 -0.02577573 -0.02105527
v 0.04796822 -0.01489247 -0.02772673
v 0.04796824 -0.0001484516 -0.02772671
v 0.01805384 -0.000148422 -0.05115332
v 0.01805382 -0.01489244 -0.05115335
v 0.01805382 -0.01489244 -0.05115335
v 0.01805384 -0.000148422 -0.05115332
v -0.01316954 -0.0001483892 -0.04897033
v -0.01316956 -0.0148924 -0.04897036
v -0.01316956 -0.0148924 -0.04897036
v -0.01316954 -0.0001483892 -0.04897033
v -0.02743148 -0.0001484019 -0.02445227
v -0.0274315 -0.01489242 -0.0244523
v -0.0274315 -0.01489242 -0.0244523
v -0.02743148 -0.0001484019 -0.02445227
v -0.04796535 -0.0002295501 0.001090846
v -0.04796563 -0.01288823 0.001090905
v -0.04796563 -0.01288823 0.001090905
v -0.04796535 -0.0002295501 0.001090846
v -0.03053168 -0.0001484164 0.026634
v -0.0305317 -0.01489243 0.02663397
v -0.0305317 -0.01489243 0.02663397
v -0.03053168 -0.0001484164 0.026634
v -0.008803239 -0.0001483341 0.0435119
v -0.008803257 -0.01489249 0.04351187
v -0.008803257 -0.01489249 0.04351187
v -0.008803239 -0.0001483341 0.0435119
v 0.02460302 -0.0001484208 0.0511522
v 0.024603 -0.01489244 0.05115217
v 0.024603 -0.01489244 0.05115217
v 0.02460302 -0.0001484208 0.0511522
v 0.03978228 -0.0001484256 0.02663407
v 0.03978226 -0.01489244 0.02663404
v 0.03978226 -0.01489244 0.02663404
v 0.03978228 -0.0001484256 0.02663407
v 0.04193538 -0.0002295343 0.001090944
v 0.04193578 -0.01288833 0.001090909
v 0.04193578 -0.01288833 0.001090909
v 0.04193538 -0.0002295343 0.001090944
v 0.04796824 -0.0001484516 -0.02772671
v 0.04796822 -0.01489247 -0.02772673
v 0.04796824 -0.0001484516 -0.02772671
v 0.0456905 0.01428325 -0.02539744
v 0.01714638 0.01428329 -0.0479918
v 0.01805384 -0.000148422 -0.05115332
v 0.01805384 -0.000148422 -0.05115332
v 0.01714638 0.01428329 -0.0479918
v -0.01182759 0.01428326 -0.04559819
v -0.01316954 -0.0001483892 -0.04897033
v -0.01316954 -0.0001483892 -0.04897033
v -0.01182759 0.01428326 -0.04559819
v -0.02320876 0.0142833 -0.0218069
v -0.02743148 -0.0001484019 -0.02445227
v -0.02743148 -0.0001484019 -0.02445227
v -0.02320876 0.0142833 -0.0218069
v -0.04530279 0.01197206 0.001196253
v -0.04796535 -0.0002295501 0.001090846
v -0.04796535 -0.0002295501 0.001090846
v -0.04530279 0.01197206 0.001196253
v -0.02660816 0.01428324 0.02419934
v -0.03053168 -0.0001484164 0.026634
v -0.03053168 -0.0001484164 0.026634
v -0.02660816 0.01428324 0.02419934
v -0.00704041 0.01428336 0.03961302
v -0.008803239 -0.0001483341 0.0435119
v -0.008803239 -0.0001483341 0.0435119
v -0.00704041 0.01428336 0.03961302
v 0.02432718 0.01428335 0.04799078
v 0.02460302 -0.0001484208 0.0511522
v 0.02460302 -0.0001484208 0.0511522
v 0.02432718 0.01428335 0.04799078
v 0.0367141 0.01428332 0.0241994
v 0.03978228 -0.0001484256 0.02663407
v 0.03978228 -0.0001484256 0.02663407
v 0.0367141 0.01428332 0.0241994
v 0.03865314 0.01197198 0.001196286
v 0.04193538 -0.0002295343 0.001090944
v 0.04193538 -0.0002295343 0.001090944
v 0.03865314 0.01197198 0.001196286
v 0.0456905 0.01428325 -0.02539744
v 0.04796824 -0.0001484516 -0.02772671
v 0.0456905 0.01428325 -0.02539744
v 0.03225359 0.02437428 -0.01614817
v 0.01203792 0.02437433 -0.03256922
v 0.01714638 0.01428329 -0.0479918
v 0.01714638 0.01428329 -0.0479918
v 0.01203792 0.02437433 -0.03256922
v -0.002591011 0.02437434 -0.02139436
v -0.01182759 0.01428326 -0.04559819
v -0.01182759 0.01428326 -0.04559819
v -0.002591011 0.02437434 -0.02139436
v -0.01125179 0.02437434 -0.01279573
v -0.02320876 0.0142833 -0.0218069
v -0.02320876 0.0142833 -0.0218069
v -0.01125179 0.02437434 -0.01279573
v -0.03124326 0.02074642 0.001116909
v -0.04530279 0.01197206 0.001196253
v -0.04530279 0.01197206 0.001196253
v -0.03124326 0.02074642 0.001116909
v -0.01442561 0.02437435 0.0150296
v -0.02660816 0.01428324 0.02419934
v -0.02660816 0.01428324 0.02419934
v -0.01442561 0.02437435 0.0150296
v -0.002590839 0.02437431 0.02474574
v -0.00704041 0.01428336 0.03961302
v -0.00704041 0.01428336 0.03961302
v -0.002590839 0.02437431 0.02474574
v 0.01874268 0.02437432 0.03256811
v 0.02432718 0.01428335 0.04799078
v 0.02432718 0.01428335 0.04799078
v 0.01874268 0.02437432 0.03256811
v 0.02387243 0.02437426 0.01502965
v 0.0367141 0.01428332 0.0241994
v 0.0367141 0.01428332 0.0241994
v 0.02387243 0.02437426 0.01502965
v 0.02504547 0.02074644 0.001116882
v 0.03865314 0.01197198 0.001196286
v 0.03865314 0.01197198 0.001196286
v 0.02504547 0.02074644 0.001116882
v 0.03225359 0.02437428 -0.01614817
v 0.0456905 0.01428325 -0.02539744
v 0.03225359 0.02437428 -0.01614817
v 0.004625385 0.03397593 0.001090766
v 0.01203792 0.02437433 -0.03256922
v 0.01203792 0.02437433 -0.03256922
v 0.004625385 0.03397593 0.001090766
v -0.002591011 0.02437434 -0.02139436
v -0.002591011 0.02437434 -0.02139436
v 0.004625385 0.03397593 0.001090766
v -0.01125179 0.02437434 -0.01279573
v -0.01125179 0.02437434 -0.01279573
v 0.004625385 0.03397593 0.001090766
v -0.03124326 0.02074642 0.001116909
v -0.03124326 0.02074642 0.001116909
v 0.004625385 0.03397593 0.001090766
v -0.01442561 0.02437435 0.0150296
v -0.01442561 0.02437435 0.0150296
v 0.004625385 0.03397593 0.001090766
v -0.002590839 0.02437431 0.02474574
v -0.002590839 0.02437431 0.02474574
v 0.004625385 0.03397593 0.001090766
v 0.01874268 0.02437432 0.03256811
v 0.01874268 0.02437432 0.03256811
v 0.004625385 0.03397593 0.001090766
v 0.02387243 0.02437426 0.01502965
v 0.02387243 0.02437426 0.01502965
v 0.004625385 0.03397593 0.001090766
v 0.02504547 0.02074644 0.001116882
v 0.02504547 0.02074644 0.001116882
v 0.004625385 0.03397593 0.001090766
v 0.03225359 0.02437428 -0.01614817

vn 0.06165825 -0.9707967 -0.2318449
vn -0.03800565 -0.9987436 -0.03266268
vn 0.203203 -0.9771211 -0.06279343
vn -0.1068306 -0.9625595 -0.2491315
vn -0.3195386 -0.927789 -0.19262
vn -0.3400162 -0.9354808 -0.09625381
vn -0.3180553 -0.946282 0.05823392
vn -0.1917495 -0.9591997 0.2077693
vn -0.001307144 -0.9819677 0.1890438
vn 0.2873028 -0.9566844 0.04703197
vn 0.3943707 -0.9066898 0.1496174
vn 0.5327594 -0.6434122 -0.5497166
vn 0.5327593 -0.6434122 -0.5497166
vn 0.5327594 -0.6434122 -0.5497165
vn 0.5327593 -0.6434122 -0.5497166
vn 0.02557089 -0.6193979 -0.7846606
vn 0.02557088 -0.6193979 -0.7846606
vn 0.02557088 -0.6193979 -0.7846606
vn 0.02557089 -0.619398 -0.7846606
vn -0.6739274 -0.5622782 -0.4792339
vn -0.6739274 -0.5622782 -0.479234
vn -0.6739274 -0.5622782 -0.4792339
vn -0.6739274 -0.5622782 -0.4792339
vn -0.5676032 -0.5881235 -0.5761401
vn -0.5676033 -0.5881234 -0.5761401
vn -0.5676032 -0.5881234 -0.5761401
vn -0.5676032 -0.5881234 -0.5761401
vn -0.7317711 -0.6155247 0.2926437
vn -0.7317711 -0.6155247 0.2926437
vn -0.7317712 -0.6155246 0.2926437
vn -0.7317712 -0.6155247 0.2926437
vn -0.5813552 -0.6354272 0.5081914
vn -0.5813552 -0.6354271 0.5081914
vn -0.5813552 -0.6354272 0.5081914
vn -0.5813552 -0.6354272 0.5081914
vn -0.3253203 -0.6373045 0.6985768
vn -0.3253203 -0.6373046 0.6985767
vn -0.3253203 -0.6373046 0.6985768
vn -0.3253203 -0.6373045 0.6985768
vn 0.61668 -0.6355078 0.464581
vn 0.61668 -0.6355079 0.464581
vn 0.61668 -0.6355079 0.464581
vn 0.61668 -0.6355079 0.464581
vn 0.7640623 -0.641412 0.0692781
vn 0.7640623 -0.641412 0.06927809
vn 0.7640623 -0.641412 0.0692781
vn 0.7640623 -0.641412 0.06927809
vn 0.727616 -0.5822096 0.3627767
vn 0.727616 -0.5822096 0.3627767
vn 0.727616 -0.5822096 0.3627767
vn 0.727616 -0.5822096 0.3627767
vn 0.7236642 -0.00438641 -0.6901383
vn 0.7236643 -0.004386411 -0.6901382
vn 0.7236643 -0.004386411 -0.6901382
vn 0.7236642 -0.00438641 -0.6901383
vn 0.07541171 0.02109428 -0.9969293
vn 0.07541171 0.02109428 -0.9969293
vn 0.07541171 0.02109428 -0.9969293
vn 0.07541171 0.02109428 -0.9969293
vn -0.7822414 0.0366115 -0.6218988
vn -0.7822414 0.0366115 -0.6218988
vn -0.7822414 0.0366115 -0.6218988
vn -0.7822414 0.0366115 -0.6218988
vn -0.6802496 0.03629421 -0.7320814
vn -0.6802496 0.0362942 -0.7320814
vn -0.6802496 0.03629421 -0.7320814
vn -0.6802496 0.03629421 -0.7320814
vn -0.8984203 0.01518268 0.4388739
vn -0.8984203 0.01518268 0.4388739
vn -0.8984203 0.01518268 0.4388741
vn -0.8984203 0.01518268 0.4388739
vn -0.7209336 0.004242712 0.6929913
vn -0.7209336 0.004242712 0.6929913
vn -0.7209336 0.004242712 0.6929913
vn -0.7209336 0.004242712 0.6929913
vn -0.3615663 -0.01149534 0.9322755
vn -0.3615663 -0.01149534 0.9322755
vn -0.3615663 -0.01149534 0.9322755
vn -0.3615663 -0.01149534 0.9322755
vn 0.764831 -0.03661517 0.6431897
vn 0.764831 -0.03661517 0.6431897
vn 0.764831 -0.03661517 0.6431897
vn 0.764831 -0.03661517 0.6431897
vn 0.9734658 -0.0328065 0.2264689
vn 0.9734658 -0.0328065 0.2264689
vn 0.9734658 -0.0328065 0.2264689
vn 0.9734658 -0.0328065 0.2264689
vn 0.9384985 -0.03454544 0.3435509
vn 0.9384985 -0.03454544 0.3435509
vn 0.9384985 -0.03454544 0.3435509
vn 0.9384985 -0.03454544 0.3435509
vn 0.72052 0.1753989 -0.6708847
vn 0.72052 0.1753989 -0.6708846
vn 0.72052 0.1753989 -0.6708846
vn 0.72052 0.1753989 -0.6708846
vn 0.07573626 0.2083844 -0.9751102
vn 0.07573625 0.2083844 -0.9751102
vn 0.07573625 0.2083844 -0.9751102
vn 0.07573625 0.2083844 -0.9751102
vn -0.7798566 0.2561345 -0.5711558
vn -0.7798566 0.2561344 -0.5711557
vn -0.7798565 0.2561344 -0.5711558
vn -0.7798566 0.2561344 -0.5711558
vn -0.6330264 0.2520022 -0.7319648
vn -0.6330264 0.2520022 -0.7319648
vn -0.6330264 0.2520022 -0.7319648
vn -0.6330264 0.2520022 -0.7319647
vn -0.8580661 0.2206336 0.4637277
vn -0.8580661 0.2206336 0.4637277
vn -0.8580661 0.2206336 0.4637276
vn -0.8580661 0.2206335 0.4637277
vn -0.6926866 0.2441829 0.6786457
vn -0.6926867 0.2441829 0.6786457
vn -0.6926866 0.2441829 0.6786457
vn -0.6926866 0.2441829 0.6786457
vn -0.361275 0.1944994 0.9119487
vn -0.361275 0.1944994 0.9119487
vn -0.361275 0.1944994 0.9119487
vn -0.361275 0.1944994 0.9119487
vn 0.7814507 0.1265926 0.6109903
vn 0.7814507 0.1265926 0.6109903
vn 0.7814506 0.1265926 0.6109904
vn 0.7814507 0.1265926 0.6109903
vn 0.9616516 0.168469 0.2164357
vn 0.9616516 0.168469 0.2164357
vn 0.9616516 0.168469 0.2164357
vn 0.9616516 0.168469 0.2164357
vn 0.9201378 0.1156599 0.3741247
vn 0.9201378 0.1156599 0.3741247
vn 0.9201378 0.1156599 0.3741247
vn 0.9201378 0.1156599 0.3741247
vn 0.4798529 0.7845405 -0.3927306
vn 0.479853 0.7845405 -0.3927307
vn 0.4798529 0.7845405 -0.3927306
vn 0.479853 0.7845405 -0.3927307
vn -0.04766296 0.8696904 -0.4912911
vn -0.04766297 0.8696904 -0.4912911
vn -0.04766296 0.8696904 -0.4912911
vn -0.04766293 0.8696904 -0.491291
vn -0.3980759 0.8539368 -0.3351531
vn -0.3980759 0.8539368 -0.3351532
vn -0.3980759 0.8539368 -0.3351531
vn -0.3980759 0.8539368 -0.3351532
vn -0.4070518 0.7806484 -0.474233
vn -0.4070518 0.7806484 -0.474233
vn -0.4070518 0.7806484 -0.474233
vn -0.4070518 0.7806484 -0.474233
vn -0.5463407 0.7788321 0.3081108
vn -0.5463406 0.7788322 0.3081109
vn -0.5463408 0.7788321 0.3081109
vn -0.5463407 0.7788321 0.3081108
vn -0.4340311 0.774846 0.4595983
vn -0.4340312 0.774846 0.4595983
vn -0.4340312 0.774846 0.4595984
vn -0.4340312 0.774846 0.4595983
vn -0.2445275 0.7580947 0.604565
vn -0.2445275 0.7580947 0.604565
vn -0.2445275 0.7580947 0.604565
vn -0.2445275 0.7580947 0.604565
vn 0.5978413 0.7114734 0.3693122
vn 0.5978413 0.7114733 0.3693122
vn 0.5978413 0.7114733 0.3693122
vn 0.5978413 0.7114733 0.3693122
vn 0.6928202 0.720318 0.03379554
vn 0.6928201 0.7203181 0.03379552
vn 0.6928201 0.7203181 0.03379553
vn 0.6928202 0.720318 0.03379555
vn 0.6344549 0.6383482 0.4358651
vn 0.634455 0.6383483 0.4358651
vn 0.6344549 0.6383482 0.4358651
vn 0.6344549 0.6383482 0.4358651
vn 0.2930578 0.9339984 -0.2043626
vn 0.2930578 0.9339984 -0.2043627
vn 0.2930578 0.9339984 -0.2043626
vn -0.1871088 0.9093201 -0.3716549
vn -0.1871088 0.9093201 -0.3716549
vn -0.1871088 0.9093201 -0.3716549
vn -0.249762 0.9003108 -0.3564541
vn -0.249762 0.9003108 -0.3564541
vn -0.249762 0.9003108 -0.3564541
vn -0.3074172 0.9006677 -0.3070704
vn -0.3074172 0.9006677 -0.3070705
vn -0.3074172 0.9006677 -0.3070705
vn -0.3832056 0.9081088 0.1687953
vn -0.3832055 0.9081088 0.1687953
vn -0.3832056 0.9081088 0.1687953
vn -0.2948517 0.8965313 0.3305964
vn -0.2948517 0.8965313 0.3305963
vn -0.2948517 0.8965313 0.3305963
vn -0.1634533 0.9024965 0.3984761
vn -0.1634533 0.9024965 0.3984761
vn -0.1634533 0.9024965 0.3984761
vn 0.4457849 0.8684473 0.216968
vn 0.445785 0.8684472 0.216968
vn 0.445785 0.8684472 0.2169681
vn 0.6481643 0.7576615 -0.07636856
vn 0.6481643 0.7576615 -0.07636855
vn 0.6481642 0.7576615 -0.07636854
vn 0.5148714 0.6906208 0.5078883
vn 0.5148712 0.6906208 0.5078883
vn 0.5148714 0.6906208 0.5078883

vt 0.5483398 0.007648468
vt 0.5 0.1500244
vt 0.6264648 0.06439209
vt 0.4516602 0.007648468
vt 0.3735352 0.06439209
vt 0.34375 0.15625
vt 0.3735352 0.2480469
vt 0.4516602 0.3049316
vt 0.5483398 0.3049316
vt 0.6264648 0.2480469
vt 0.65625 0.15625
vt 0 0
vt 0 1
vt 1 1
vt 1 0
vt 0 0
vt 0 1
vt 1 1
vt 1 0
vt 0 0
vt 0 1
vt 1 1
vt 1 0
vt 0 0
vt 0 1
vt 1 1
vt 1 0
vt 0 0
vt 0 1
vt 1 1
vt 1 0
vt 0 0
vt 0 1
vt 1 1
vt 1 0
vt 0 0
vt 0 1
vt 1 1
vt 1 0
vt 0 0
vt 0 1
vt 1 1
vt 1 0
vt 0 0
vt 0 1
vt 1 1
vt 1 0
vt 0 0
vt 0 1
vt 1 1
vt 1 0
vt 0 0
vt 0 1
vt 1 1
vt 1 0
vt 0 0
vt 0 1
vt 1 1
vt 1 0
vt 0 0
vt 0 1
vt 1 1
vt 1 0
vt 0 0
vt 0 1
vt 1 1
vt 1 0
vt 0 0
vt 0 1
vt 1 1
vt 1 0
vt 0 0
vt 0 1
vt 1 1
vt 1 0
vt 0 0
vt 0 1
vt 1 1
vt 1 0
vt 0 0
vt 0 1
vt 1 1
vt 1 0
vt 0 0
vt 0 1
vt 1 1
vt 1 0
vt 0 0
vt 0 1
vt 1 1
vt 1 0
vt 0 0
vt 0 1
vt 1 1
vt 1 0
vt 0 0
vt 0 1
vt 1 1
vt 1 0
vt 0 0
vt 0 1
vt 1 1
vt 1 0
vt 0 0
vt 0 1
vt 1 1
vt 1 0
vt 0 0
vt 0 1
vt 1 1
vt 1 0
vt 0 0
vt 0 1
vt 1 1
vt 1 0
vt 0 0
vt 0 1
vt 1 1
vt 1 0
vt 0 0
vt 0 1
vt 1 1
vt 1 0
vt 0 0
vt 0 1
vt 1 1
vt 1 0
vt 0 0
vt 0 1
vt 1 1
vt 1 0
vt 0 0
vt 0 1
vt 1 1
vt 1 0
vt 0 0
vt 0 1
vt 1 1
vt 1 0
vt 0 0
vt 0 1
vt 1 1
vt 1 0
vt 0 0
vt 0 1
vt 1 1
vt 1 0
vt 0 0
vt 0 1
vt 1 1
vt 1 0
vt 0 0
vt 0 1
vt 1 1
vt 1 0
vt 0 0
vt 0 1
vt 1 1
vt 1 0
vt 0 0
vt 0 1
vt 1 1
vt 1 0
vt 0 0
vt 0 1
vt 1 1
vt 1 0
vt 0 0
vt 0 1
vt 1 1
vt 1 0
vt 0 0
vt 0.5 1
vt 1 0
vt 0 0
vt 0.5 1
vt 1 0
vt 0 0
vt 0.5 1
vt 1 0
vt 0 0
vt 0.5 1
vt 1 0
vt 0 0
vt 0.5 1
vt 1 0
vt 0 0
vt 0.5 1
vt 1 0
vt 0 0
vt 0.5 1
vt 1 0
vt 0 0
vt 0.5 1
vt 1 0
vt 0 0
vt 0.5 1
vt 1 0
vt 0 0
vt 0.5 1
vt 1 0

g Foliage2_16_3615_110
usemtl Foliage2_16_3615_110
usemap Foliage2_16_3615_110
f 1/1/1 3/3/3 2/2/2
f 4/4/4 1/1/1 2/2/2
f 5/5/5 4/4/4 2/2/2
f 6/6/6 5/5/5 2/2/2
f 7/7/7 6/6/6 2/2/2
f 8/8/8 7/7/7 2/2/2
f 9/9/9 8/8/8 2/2/2
f 10/10/10 9/9/9 2/2/2
f 11/11/11 10/10/10 2/2/2
f 3/3/3 11/11/11 2/2/2
f 12/12/12 14/14/14 13/13/13
f 12/12/12 15/15/15 14/14/14
f 16/16/16 18/18/18 17/17/17
f 16/16/16 19/19/19 18/18/18
f 20/20/20 22/22/22 21/21/21
f 20/20/20 23/23/23 22/22/22
f 24/24/24 26/26/26 25/25/25
f 24/24/24 27/27/27 26/26/26
f 28/28/28 30/30/30 29/29/29
f 28/28/28 31/31/31 30/30/30
f 32/32/32 34/34/34 33/33/33
f 32/32/32 35/35/35 34/34/34
f 36/36/36 38/38/38 37/37/37
f 36/36/36 39/39/39 38/38/38
f 40/40/40 42/42/42 41/41/41
f 40/40/40 43/43/43 42/42/42
f 44/44/44 46/46/46 45/45/45
f 44/44/44 47/47/47 46/46/46
f 48/48/48 50/50/50 49/49/49
f 48/48/48 51/51/51 50/50/50
f 52/52/52 54/54/54 53/53/53
f 52/52/52 55/55/55 54/54/54
f 56/56/56 58/58/58 57/57/57
f 56/56/56 59/59/59 58/58/58
f 60/60/60 62/62/62 61/61/61
f 60/60/60 63/63/63 62/62/62
f 64/64/64 66/66/66 65/65/65
f 64/64/64 67/67/67 66/66/66
f 68/68/68 70/70/70 69/69/69
f 68/68/68 71/71/71 70/70/70
f 72/72/72 74/74/74 73/73/73
f 72/72/72 75/75/75 74/74/74
f 76/76/76 78/78/78 77/77/77
f 76/76/76 79/79/79 78/78/78
f 80/80/80 82/82/82 81/81/81
f 80/80/80 83/83/83 82/82/82
f 84/84/84 86/86/86 85/85/85
f 84/84/84 87/87/87 86/86/86
f 88/88/88 90/90/90 89/89/89
f 88/88/88 91/91/91 90/90/90
f 92/92/92 94/94/94 93/93/93
f 92/92/92 95/95/95 94/94/94
f 96/96/96 98/98/98 97/97/97
f 96/96/96 99/99/99 98/98/98
f 100/100/100 102/102/102 101/101/101
f 100/100/100 103/103/103 102/102/102
f 104/104/104 106/106/106 105/105/105
f 104/104/104 107/107/107 106/106/106
f 108/108/108 110/110/110 109/109/109
f 108/108/108 111/111/111 110/110/110
f 112/112/112 114/114/114 113/113/113
f 112/112/112 115/115/115 114/114/114
f 116/116/116 118/118/118 117/117/117
f 116/116/116 119/119/119 118/118/118
f 120/120/120 122/122/122 121/121/121
f 120/120/120 123/123/123 122/122/122
f 124/124/124 126/126/126 125/125/125
f 124/124/124 127/127/127 126/126/126
f 128/128/128 130/130/130 129/129/129
f 128/128/128 131/131/131 130/130/130
f 132/132/132 134/134/134 133/133/133
f 132/132/132 135/135/135 134/134/134
f 136/136/136 138/138/138 137/137/137
f 136/136/136 139/139/139 138/138/138
f 140/140/140 142/142/142 141/141/141
f 140/140/140 143/143/143 142/142/142
f 144/144/144 146/146/146 145/145/145
f 144/144/144 147/147/147 146/146/146
f 148/148/148 150/150/150 149/149/149
f 148/148/148 151/151/151 150/150/150
f 152/152/152 154/154/154 153/153/153
f 152/152/152 155/155/155 154/154/154
f 156/156/156 158/158/158 157/157/157
f 156/156/156 159/159/159 158/158/158
f 160/160/160 162/162/162 161/161/161
f 160/160/160 163/163/163 162/162/162
f 164/164/164 166/166/166 165/165/165
f 164/164/164 167/167/167 166/166/166
f 168/168/168 170/170/170 169/169/169
f 168/168/168 171/171/171 170/170/170
f 172/172/172 174/174/174 173/173/173
f 175/175/175 177/177/177 176/176/176
f 178/178/178 180/180/180 179/179/179
f 181/181/181 183/183/183 182/182/182
f 184/184/184 186/186/186 185/185/185
f 187/187/187 189/189/189 188/188/188
f 190/190/190 192/192/192 191/191/191
f 193/193/193 195/195/195 194/194/194
f 196/196/196 198/198/198 197/197/197
f 199/199/199 201/201/201 200/200/200
