#Foliage6_38_3441_174.obj

v 0.01454499 -0.02577566 -0.04036022
v 0.004623422 -0.03397613 0.00108939
v 0.03878404 -0.02577569 -0.02105664
v -0.0096637 -0.02577565 -0.03817751
v -0.01825125 -0.02577567 -0.01778244
v -0.03822259 -0.02223224 0.001089456
v -0.02135122 -0.02577565 0.01996106
v -0.005298024 -0.02577568 0.03271614
v 0.02109362 -0.0257757 0.04035608
v 0.03059812 -0.02577569 0.01996142
v 0.03218902 -0.02223227 0.001089389
v 0.03878404 -0.02577569 -0.02105664
v 0.04796646 -0.01489241 -0.02772826
v 0.0180523 -0.01489244 -0.0511549
v 0.01454499 -0.02577566 -0.04036022
v 0.01454499 -0.02577566 -0.04036022
v 0.0180523 -0.01489244 -0.0511549
v -0.01317108 -0.0148924 -0.04897177
v -0.0096637 -0.02577565 -0.03817751
v -0.0096637 -0.02577565 -0.03817751
v -0.01317108 -0.0148924 -0.04897177
v -0.02743354 -0.01489241 -0.02445395
v -0.01825125 -0.02577567 -0.01778244
v -0.01825125 -0.02577567 -0.01778244
v -0.02743354 -0.01489241 -0.02445395
v -0.04796727 -0.01288821 0.00108955
v -0.03822259 -0.02223224 0.001089456
v -0.03822259 -0.02223224 0.001089456
v -0.04796727 -0.01288821 0.00108955
v -0.03053368 -0.01489242 0.02663259
v -0.02135122 -0.02577565 0.01996106
v -0.02135122 -0.02577565 0.01996106
v -0.03053368 -0.01489242 0.02663259
v -0.008805368 -0.01489244 0.04351073
v -0.005298024 -0.02577568 0.03271614
v -0.005298024 -0.02577568 0.03271614
v -0.008805368 -0.01489244 0.04351073
v 0.02460096 -0.01489244 0.05115068
v 0.02109362 -0.0257757 0.04035608
v 0.02109362 -0.0257757 0.04035608
v 0.02460096 -0.01489244 0.05115068
v 0.03978061 -0.01489241 0.02663244
v 0.03059812 -0.02577569 0.01996142
v 0.03059812 -0.02577569 0.01996142
v 0.03978061 -0.01489241 0.02663244
v 0.04193388 -0.01288825 0.001089249
v 0.03218902 -0.02223227 0.001089389
v 0.03218902 -0.02223227 0.001089389
v 0.04193388 -0.01288825 0.001089249
v 0.04796646 -0.01489241 -0.02772826
v 0.03878404 -0.02577569 -0.02105664
v 0.04796646 -0.01489241 -0.02772826
v 0.04796662 -0.0001483466 -0.02772819
v 0.01805223 -0.000148357 -0.05115486
v 0.0180523 -0.01489244 -0.0511549
v 0.0180523 -0.01489244 -0.0511549
v 0.01805223 -0.000148357 -0.05115486
v -0.01317115 -0.0001483658 -0.04897172
v -0.01317108 -0.0148924 -0.04897177
v -0.01317108 -0.0148924 -0.04897177
v -0.01317115 -0.0001483658 -0.04897172
v -0.02743361 -0.0001483769 -0.0244539
v -0.02743354 -0.01489241 -0.02445395
v -0.02743354 -0.01489241 -0.02445395
v -0.02743361 -0.0001483769 -0.0244539
v -0.04796737 -0.0002294445 0.001089561
v -0.04796727 -0.01288821 0.00108955
v -0.04796727 -0.01288821 0.00108955
v -0.04796737 -0.0002294445 0.001089561
v -0.03053352 -0.0001483575 0.02663266
v -0.03053368 -0.01489242 0.02663259
v -0.03053368 -0.01489242 0.02663259
v -0.03053352 -0.0001483575 0.02663266
v -0.008805206 -0.0001483317 0.04351037
v -0.008805368 -0.01489244 0.04351073
v -0.008805368 -0.01489244 0.04351073
v -0.008805206 -0.0001483317 0.04351037
v 0.02460111 -0.0001483314 0.05115075
v 0.02460096 -0.01489244 0.05115068
v 0.02460096 -0.01489244 0.05115068
v 0.02460111 -0.0001483314 0.05115075
v 0.03978054 -0.0001483728 0.0266325
v 0.03978061 -0.01489241 0.02663244
v 0.03978061 -0.01489241 0.02663244
v 0.03978054 -0.0001483728 0.0266325
v 0.04193401 -0.0002294522 0.001089277
v 0.04193388 -0.01288825 0.001089249
v 0.04193388 -0.01288825 0.001089249
v 0.04193401 -0.0002294522 0.001089277
v 0.04796662 -0.0001483466 -0.02772819
v 0.04796646 -0.01489241 -0.02772826
v 0.04796662 -0.0001483466 -0.02772819
v 0.04568854 0.01428334 -0.02539875
v 0.01714471 0.01428335 -0.04799338
v 0.01805223 -0.000148357 -0.05115486
v 0.01805223 -0.000148357 -0.05115486
v 0.01714471 0.01428335 -0.04799338
v -0.01182942 0.01428336 -0.04559957
v -0.01317115 -0.0001483658 -0.04897172
v -0.01317115 -0.0001483658 -0.04897172
v -0.01182942 0.01428336 -0.04559957
v -0.02321069 0.01428331 -0.02180851
v -0.02743361 -0.0001483769 -0.0244539
v -0.02743361 -0.0001483769 -0.0244539
v -0.02321069 0.01428331 -0.02180851
v -0.04530437 0.01197209 0.001194597
v -0.04796737 -0.0002294445 0.001089561
v -0.04796737 -0.0002294445 0.001089561
v -0.04530437 0.01197209 0.001194597
v -0.02661006 0.0142833 0.02419789
v -0.03053352 -0.0001483575 0.02663266
v -0.03053352 -0.0001483575 0.02663266
v -0.02661006 0.0142833 0.02419789
v -0.007042147 0.01428335 0.03961168
v -0.008805206 -0.0001483317 0.04351037
v -0.008805206 -0.0001483317 0.04351037
v -0.007042147 0.01428335 0.03961168
v 0.02432557 0.01428335 0.0479894
v 0.02460111 -0.0001483314 0.05115075
v 0.02460111 -0.0001483314 0.05115075
v 0.02432557 0.01428335 0.0479894
v 0.03671253 0.01428336 0.02419819
v 0.03978054 -0.0001483728 0.0266325
v 0.03978054 -0.0001483728 0.0266325
v 0.03671253 0.01428336 0.02419819
v 0.03865165 0.01197205 0.001194682
v 0.04193401 -0.0002294522 0.001089277
v 0.04193401 -0.0002294522 0.001089277
v 0.03865165 0.01197205 0.001194682
v 0.04568854 0.01428334 -0.02539875
v 0.04796662 -0.0001483466 -0.02772819
v 0.04568854 0.01428334 -0.02539875
v 0.032252 0.02437436 -0.01614958
v 0.01203602 0.02437438 -0.03257075
v 0.01714471 0.01428335 -0.04799338
v 0.01714471 0.01428335 -0.04799338
v 0.01203602 0.02437438 -0.03257075
v -0.002592545 0.02437436 -0.02139585
v -0.01182942 0.01428336 -0.04559957
v -0.01182942 0.01428336 -0.04559957
v -0.002592545 0.02437436 -0.02139585
v -0.01125348 0.02437438 -0.01279705
v -0.02321069 0.01428331 -0.02180851
v -0.02321069 0.01428331 -0.02180851
v -0.01125348 0.02437438 -0.01279705
v -0.03124498 0.02074645 0.001115346
v -0.04530437 0.01197209 0.001194597
v -0.04530437 0.01197209 0.001194597
v -0.03124498 0.02074645 0.001115346
v -0.01442754 0.02437437 0.0150281
v -0.02661006 0.0142833 0.02419789
v -0.02661006 0.0142833 0.02419789
v -0.01442754 0.02437437 0.0150281
v -0.002592592 0.02437436 0.02474414
v -0.007042147 0.01428335 0.03961168
v -0.007042147 0.01428335 0.03961168
v -0.002592592 0.02437436 0.02474414
v 0.018741 0.02437438 0.03256676
v 0.02432557 0.01428335 0.0479894
v 0.02432557 0.01428335 0.0479894
v 0.018741 0.02437438 0.03256676
v 0.02387101 0.02437439 0.0150284
v 0.03671253 0.01428336 0.02419819
v 0.03671253 0.01428336 0.02419819
v 0.02387101 0.02437439 0.0150284
v 0.02504388 0.02074645 0.001115489
v 0.03865165 0.01197205 0.001194682
v 0.03865165 0.01197205 0.001194682
v 0.02504388 0.02074645 0.001115489
v 0.032252 0.02437436 -0.01614958
v 0.04568854 0.01428334 -0.02539875
v 0.032252 0.02437436 -0.01614958
v 0.004623546 0.03397606 0.001089446
v 0.01203602 0.02437438 -0.03257075
v 0.01203602 0.02437438 -0.03257075
v 0.004623546 0.03397606 0.001089446
v -0.002592545 0.02437436 -0.02139585
v -0.002592545 0.02437436 -0.02139585
v 0.004623546 0.03397606 0.001089446
v -0.01125348 0.02437438 -0.01279705
v -0.01125348 0.02437438 -0.01279705
v 0.004623546 0.03397606 0.001089446
v -0.03124498 0.02074645 0.001115346
v -0.03124498 0.02074645 0.001115346
v 0.004623546 0.03397606 0.001089446
v -0.01442754 0.02437437 0.0150281
v -0.01442754 0.02437437 0.0150281
v 0.004623546 0.03397606 0.001089446
v -0.002592592 0.02437436 0.02474414
v -0.002592592 0.02437436 0.02474414
v 0.004623546 0.03397606 0.001089446
v 0.018741 0.02437438 0.03256676
v 0.018741 0.02437438 0.03256676
v 0.004623546 0.03397606 0.001089446
v 0.02387101 0.02437439 0.0150284
v 0.02387101 0.02437439 0.0150284
v 0.004623546 0.03397606 0.001089446
v 0.02504388 0.02074645 0.001115489
v 0.02504388 0.02074645 0.001115489
v 0.004623546 0.03397606 0.001089446
v 0.032252 0.02437436 -0.01614958

vn -0.1076708 -0.9714218 -0.2115343
vn -0.1680534 -0.9857686 0.004283299
vn 0.08294856 -0.9942225 -0.06812663
vn -0.2858842 -0.9376876 -0.1975148
vn -0.4820396 -0.8698231 -0.105098
vn -0.4820958 -0.8760756 -0.008673328
vn -0.4275921 -0.8933889 0.1379176
vn -0.2662877 -0.9265657 0.2656445
vn -0.0742272 -0.9732332 0.2175025
vn 0.2016609 -0.9790972 0.02649062
vn 0.3449711 -0.9323334 0.1083944
vn 0.3584461 -0.6939197 -0.6244934
vn 0.358446 -0.6939197 -0.6244934
vn 0.3584461 -0.6939197 -0.6244933
vn 0.358446 -0.6939197 -0.6244934
vn -0.2333404 -0.6141462 -0.7539076
vn -0.2333404 -0.6141463 -0.7539076
vn -0.2333404 -0.6141462 -0.7539076
vn -0.2333404 -0.6141462 -0.7539076
vn -0.8261281 -0.4666336 -0.3158569
vn -0.8261281 -0.4666335 -0.3158569
vn -0.8261281 -0.4666336 -0.3158569
vn -0.8261281 -0.4666335 -0.3158569
vn -0.7530615 -0.5030879 -0.4240293
vn -0.7530616 -0.5030878 -0.4240292
vn -0.7530615 -0.5030879 -0.4240293
vn -0.7530616 -0.5030879 -0.4240292
vn -0.7436093 -0.5243645 0.4148337
vn -0.7436093 -0.5243645 0.4148337
vn -0.7436094 -0.5243644 0.4148337
vn -0.7436093 -0.5243644 0.4148337
vn -0.5564643 -0.5658799 0.6083809
vn -0.5564643 -0.5658799 0.6083809
vn -0.5564643 -0.5658799 0.6083809
vn -0.5564643 -0.56588 0.6083809
vn -0.2512365 -0.5963823 0.7623702
vn -0.2512365 -0.5963824 0.7623702
vn -0.2512365 -0.5963824 0.7623702
vn -0.2512365 -0.5963823 0.7623702
vn 0.664528 -0.6540487 0.3614178
vn 0.664528 -0.6540487 0.3614179
vn 0.664528 -0.6540487 0.3614179
vn 0.664528 -0.6540487 0.3614178
vn 0.7306083 -0.6815123 -0.04186387
vn 0.7306082 -0.6815123 -0.04186387
vn 0.7306083 -0.6815123 -0.04186387
vn 0.7306083 -0.6815123 -0.04186388
vn 0.7556112 -0.608504 0.2424346
vn 0.7556114 -0.6085039 0.2424346
vn 0.7556112 -0.608504 0.2424346
vn 0.7556113 -0.608504 0.2424346
vn 0.5943053 -0.06770588 -0.8013846
vn 0.5943053 -0.06770588 -0.8013845
vn 0.5943053 -0.06770588 -0.8013845
vn 0.5943053 -0.06770588 -0.8013846
vn -0.155317 0.007420899 -0.9878368
vn -0.155317 0.007420899 -0.9878368
vn -0.155317 0.007420899 -0.9878368
vn -0.155317 0.007420899 -0.9878368
vn -0.8920596 0.08750127 -0.4433657
vn -0.8920596 0.08750127 -0.4433657
vn -0.8920596 0.08750127 -0.4433657
vn -0.8920596 0.08750127 -0.4433657
vn -0.8226045 0.07936531 -0.563048
vn -0.8226045 0.07936531 -0.563048
vn -0.8226045 0.07936531 -0.563048
vn -0.8226045 0.07936531 -0.563048
vn -0.8168244 0.0884966 0.5700581
vn -0.8168244 0.0884966 0.5700581
vn -0.8168243 0.0884966 0.5700582
vn -0.8168244 0.0884966 0.5700581
vn -0.5909129 0.06738038 0.8039166
vn -0.5909129 0.06738038 0.8039166
vn -0.5909129 0.06738038 0.8039166
vn -0.5909129 0.06738038 0.8039166
vn -0.1597512 0.02481902 0.9868453
vn -0.1597512 0.02481902 0.9868453
vn -0.1597512 0.02481902 0.9868453
vn -0.1597512 0.02481902 0.9868453
vn 0.8806516 -0.08614054 0.4658677
vn 0.8806516 -0.08614054 0.4658677
vn 0.8806516 -0.08614054 0.4658677
vn 0.8806516 -0.08614054 0.4658677
vn 0.9933994 -0.1012151 0.05397319
vn 0.9933994 -0.1012151 0.0539732
vn 0.9933994 -0.1012151 0.05397319
vn 0.9933994 -0.1012151 0.0539732
vn 0.9812155 -0.09901043 0.1655688
vn 0.9812155 -0.09901043 0.1655688
vn 0.9812155 -0.09901043 0.1655688
vn 0.9812155 -0.09901043 0.1655688
vn 0.6132162 0.1088177 -0.7823839
vn 0.6132162 0.1088177 -0.782384
vn 0.6132162 0.1088177 -0.782384
vn 0.6132162 0.1088177 -0.782384
vn -0.1277111 0.1908938 -0.9732674
vn -0.1277111 0.1908938 -0.9732674
vn -0.1277111 0.1908938 -0.9732674
vn -0.1277111 0.1908938 -0.9732674
vn -0.8650519 0.290844 -0.4087725
vn -0.865052 0.290844 -0.4087725
vn -0.8650519 0.290844 -0.4087725
vn -0.8650519 0.2908439 -0.4087725
vn -0.7628227 0.2769057 -0.5843157
vn -0.7628226 0.2769057 -0.5843157
vn -0.7628227 0.2769056 -0.5843157
vn -0.7628227 0.2769057 -0.5843157
vn -0.7556403 0.2865892 0.5889603
vn -0.7556403 0.2865892 0.5889603
vn -0.7556403 0.2865892 0.5889603
vn -0.7556403 0.2865892 0.5889604
vn -0.5406514 0.3036287 0.7845417
vn -0.5406514 0.3036287 0.7845417
vn -0.5406514 0.3036287 0.7845417
vn -0.5406514 0.3036287 0.7845417
vn -0.1399191 0.229643 0.963165
vn -0.1399191 0.229643 0.963165
vn -0.1399191 0.229643 0.963165
vn -0.1399191 0.229643 0.963165
vn 0.9022834 0.06054677 0.4268709
vn 0.9022834 0.06054677 0.4268709
vn 0.9022834 0.06054678 0.426871
vn 0.9022834 0.06054677 0.4268709
vn 0.9957491 0.08255382 0.0408487
vn 0.9957491 0.08255379 0.04084871
vn 0.9957491 0.08255379 0.0408487
vn 0.9957491 0.08255377 0.04084871
vn 0.9808453 0.03870736 0.1909038
vn 0.9808453 0.03870737 0.1909037
vn 0.9808453 0.03870737 0.1909038
vn 0.9808453 0.03870737 0.1909038
vn 0.4967563 0.7200755 -0.4844836
vn 0.4967563 0.7200755 -0.4844836
vn 0.4967563 0.7200755 -0.4844836
vn 0.4967563 0.7200755 -0.4844836
vn -0.06379984 0.8611971 -0.5042512
vn -0.06379985 0.8611971 -0.5042512
vn -0.06379984 0.8611971 -0.5042512
vn -0.0637998 0.8611971 -0.5042512
vn -0.3967002 0.8715581 -0.2881238
vn -0.3967002 0.8715581 -0.2881239
vn -0.3967002 0.8715581 -0.2881238
vn -0.3967002 0.8715581 -0.2881239
vn -0.4444317 0.7923478 -0.4179299
vn -0.4444316 0.7923478 -0.4179299
vn -0.4444316 0.7923478 -0.4179299
vn -0.4444316 0.7923478 -0.4179299
vn -0.4143754 0.8272882 0.379325
vn -0.4143753 0.8272882 0.379325
vn -0.4143754 0.8272881 0.379325
vn -0.4143754 0.8272882 0.379325
vn -0.2589121 0.8180799 0.5135268
vn -0.2589122 0.8180798 0.5135269
vn -0.2589122 0.8180798 0.5135269
vn -0.2589122 0.8180798 0.5135269
vn -0.02217786 0.7819033 0.6230053
vn -0.02217785 0.7819033 0.6230053
vn -0.02217785 0.7819033 0.6230053
vn -0.02217785 0.7819033 0.6230053
vn 0.7542793 0.6163108 0.2263268
vn 0.7542793 0.6163107 0.2263269
vn 0.7542793 0.6163107 0.2263269
vn 0.7542793 0.6163107 0.2263269
vn 0.7788711 0.6190637 -0.1005989
vn 0.7788709 0.6190638 -0.1005989
vn 0.778871 0.6190637 -0.1005989
vn 0.7788711 0.6190637 -0.1005989
vn 0.7914341 0.5422558 0.2821183
vn 0.7914341 0.5422558 0.2821182
vn 0.7914341 0.5422558 0.2821183
vn 0.7914341 0.5422558 0.2821183
vn 0.3679655 0.8876541 -0.2768961
vn 0.3679655 0.8876541 -0.2768962
vn 0.3679655 0.8876541 -0.2768961
vn -0.1779342 0.9142969 -0.3638691
vn -0.1779342 0.9142969 -0.3638691
vn -0.1779342 0.9142969 -0.3638691
vn -0.2414693 0.9098228 -0.3375132
vn -0.2414693 0.9098228 -0.3375133
vn -0.2414694 0.9098228 -0.3375132
vn -0.2905596 0.9153479 -0.2787711
vn -0.2905597 0.9153479 -0.2787711
vn -0.2905597 0.9153479 -0.2787711
vn -0.2584195 0.9434015 0.2078773
vn -0.2584195 0.9434015 0.2078773
vn -0.2584195 0.9434015 0.2078773
vn -0.125981 0.926216 0.3553205
vn -0.125981 0.9262161 0.3553205
vn -0.125981 0.9262161 0.3553205
vn 0.03178186 0.9167418 0.3982139
vn 0.03178184 0.9167418 0.3982138
vn 0.03178186 0.9167418 0.3982138
vn 0.6018139 0.7913401 0.1077079
vn 0.6018139 0.7913401 0.1077078
vn 0.6018139 0.79134 0.1077079
vn 0.7212045 0.6634461 -0.1992571
vn 0.7212045 0.6634461 -0.199257
vn 0.7212045 0.6634461 -0.1992571
vn 0.7037182 0.6065459 0.3699767
vn 0.7037181 0.6065459 0.3699767
vn 0.7037182 0.6065459 0.3699767

vt 0.5483398 0.007648468
vt 0.5 0.1500244
vt 0.6264648 0.06439209
vt 0.4516602 0.007648468
vt 0.3735352 0.06439209
vt 0.34375 0.15625
vt 0.3735352 0.2480469
vt 0.4516602 0.3049316
vt 0.5483398 0.3049316
vt 0.6264648 0.2480469
vt 0.65625 0.15625
vt 0 0
vt 0 1
vt 1 1
vt 1 0
vt 0 0
vt 0 1
vt 1 1
vt 1 0
vt 0 0
vt 0 1
vt 1 1
vt 1 0
vt 0 0
vt 0 1
vt 1 1
vt 1 0
vt 0 0
vt 0 1
vt 1 1
vt 1 0
vt 0 0
vt 0 1
vt 1 1
vt 1 0
vt 0 0
vt 0 1
vt 1 1
vt 1 0
vt 0 0
vt 0 1
vt 1 1
vt 1 0
vt 0 0
vt 0 1
vt 1 1
vt 1 0
vt 0 0
vt 0 1
vt 1 1
vt 1 0
vt 0 0
vt 0 1
vt 1 1
vt 1 0
vt 0 0
vt 0 1
vt 1 1
vt 1 0
vt 0 0
vt 0 1
vt 1 1
vt 1 0
vt 0 0
vt 0 1
vt 1 1
vt 1 0
vt 0 0
vt 0 1
vt 1 1
vt 1 0
vt 0 0
vt 0 1
vt 1 1
vt 1 0
vt 0 0
vt 0 1
vt 1 1
vt 1 0
vt 0 0
vt 0 1
vt 1 1
vt 1 0
vt 0 0
vt 0 1
vt 1 1
vt 1 0
vt 0 0
vt 0 1
vt 1 1
vt 1 0
vt 0 0
vt 0 1
vt 1 1
vt 1 0
vt 0 0
vt 0 1
vt 1 1
vt 1 0
vt 0 0
vt 0 1
vt 1 1
vt 1 0
vt 0 0
vt 0 1
vt 1 1
vt 1 0
vt 0 0
vt 0 1
vt 1 1
vt 1 0
vt 0 0
vt 0 1
vt 1 1
vt 1 0
vt 0 0
vt 0 1
vt 1 1
vt 1 0
vt 0 0
vt 0 1
vt 1 1
vt 1 0
vt 0 0
vt 0 1
vt 1 1
vt 1 0
vt 0 0
vt 0 1
vt 1 1
vt 1 0
vt 0 0
vt 0 1
vt 1 1
vt 1 0
vt 0 0
vt 0 1
vt 1 1
vt 1 0
vt 0 0
vt 0 1
vt 1 1
vt 1 0
vt 0 0
vt 0 1
vt 1 1
vt 1 0
vt 0 0
vt 0 1
vt 1 1
vt 1 0
vt 0 0
vt 0 1
vt 1 1
vt 1 0
vt 0 0
vt 0 1
vt 1 1
vt 1 0
vt 0 0
vt 0 1
vt 1 1
vt 1 0
vt 0 0
vt 0 1
vt 1 1
vt 1 0
vt 0 0
vt 0 1
vt 1 1
vt 1 0
vt 0 0
vt 0.5 1
vt 1 0
vt 0 0
vt 0.5 1
vt 1 0
vt 0 0
vt 0.5 1
vt 1 0
vt 0 0
vt 0.5 1
vt 1 0
vt 0 0
vt 0.5 1
vt 1 0
vt 0 0
vt 0.5 1
vt 1 0
vt 0 0
vt 0.5 1
vt 1 0
vt 0 0
vt 0.5 1
vt 1 0
vt 0 0
vt 0.5 1
vt 1 0
vt 0 0
vt 0.5 1
vt 1 0

g Foliage6_38_3441_174
usemtl Foliage6_38_3441_174
usemap Foliage6_38_3441_174
f 1/1/1 3/3/3 2/2/2
f 4/4/4 1/1/1 2/2/2
f 5/5/5 4/4/4 2/2/2
f 6/6/6 5/5/5 2/2/2
f 7/7/7 6/6/6 2/2/2
f 8/8/8 7/7/7 2/2/2
f 9/9/9 8/8/8 2/2/2
f 10/10/10 9/9/9 2/2/2
f 11/11/11 10/10/10 2/2/2
f 3/3/3 11/11/11 2/2/2
f 12/12/12 14/14/14 13/13/13
f 12/12/12 15/15/15 14/14/14
f 16/16/16 18/18/18 17/17/17
f 16/16/16 19/19/19 18/18/18
f 20/20/20 22/22/22 21/21/21
f 20/20/20 23/23/23 22/22/22
f 24/24/24 26/26/26 25/25/25
f 24/24/24 27/27/27 26/26/26
f 28/28/28 30/30/30 29/29/29
f 28/28/28 31/31/31 30/30/30
f 32/32/32 34/34/34 33/33/33
f 32/32/32 35/35/35 34/34/34
f 36/36/36 38/38/38 37/37/37
f 36/36/36 39/39/39 38/38/38
f 40/40/40 42/42/42 41/41/41
f 40/40/40 43/43/43 42/42/42
f 44/44/44 46/46/46 45/45/45
f 44/44/44 47/47/47 46/46/46
f 48/48/48 50/50/50 49/49/49
f 48/48/48 51/51/51 50/50/50
f 52/52/52 54/54/54 53/53/53
f 52/52/52 55/55/55 54/54/54
f 56/56/56 58/58/58 57/57/57
f 56/56/56 59/59/59 58/58/58
f 60/60/60 62/62/62 61/61/61
f 60/60/60 63/63/63 62/62/62
f 64/64/64 66/66/66 65/65/65
f 64/64/64 67/67/67 66/66/66
f 68/68/68 70/70/70 69/69/69
f 68/68/68 71/71/71 70/70/70
f 72/72/72 74/74/74 73/73/73
f 72/72/72 75/75/75 74/74/74
f 76/76/76 78/78/78 77/77/77
f 76/76/76 79/79/79 78/78/78
f 80/80/80 82/82/82 81/81/81
f 80/80/80 83/83/83 82/82/82
f 84/84/84 86/86/86 85/85/85
f 84/84/84 87/87/87 86/86/86
f 88/88/88 90/90/90 89/89/89
f 88/88/88 91/91/91 90/90/90
f 92/92/92 94/94/94 93/93/93
f 92/92/92 95/95/95 94/94/94
f 96/96/96 98/98/98 97/97/97
f 96/96/96 99/99/99 98/98/98
f 100/100/100 102/102/102 101/101/101
f 100/100/100 103/103/103 102/102/102
f 104/104/104 106/106/106 105/105/105
f 104/104/104 107/107/107 106/106/106
f 108/108/108 110/110/110 109/109/109
f 108/108/108 111/111/111 110/110/110
f 112/112/112 114/114/114 113/113/113
f 112/112/112 115/115/115 114/114/114
f 116/116/116 118/118/118 117/117/117
f 116/116/116 119/119/119 118/118/118
f 120/120/120 122/122/122 121/121/121
f 120/120/120 123/123/123 122/122/122
f 124/124/124 126/126/126 125/125/125
f 124/124/124 127/127/127 126/126/126
f 128/128/128 130/130/130 129/129/129
f 128/128/128 131/131/131 130/130/130
f 132/132/132 134/134/134 133/133/133
f 132/132/132 135/135/135 134/134/134
f 136/136/136 138/138/138 137/137/137
f 136/136/136 139/139/139 138/138/138
f 140/140/140 142/142/142 141/141/141
f 140/140/140 143/143/143 142/142/142
f 144/144/144 146/146/146 145/145/145
f 144/144/144 147/147/147 146/146/146
f 148/148/148 150/150/150 149/149/149
f 148/148/148 151/151/151 150/150/150
f 152/152/152 154/154/154 153/153/153
f 152/152/152 155/155/155 154/154/154
f 156/156/156 158/158/158 157/157/157
f 156/156/156 159/159/159 158/158/158
f 160/160/160 162/162/162 161/161/161
f 160/160/160 163/163/163 162/162/162
f 164/164/164 166/166/166 165/165/165
f 164/164/164 167/167/167 166/166/166
f 168/168/168 170/170/170 169/169/169
f 168/168/168 171/171/171 170/170/170
f 172/172/172 174/174/174 173/173/173
f 175/175/175 177/177/177 176/176/176
f 178/178/178 180/180/180 179/179/179
f 181/181/181 183/183/183 182/182/182
f 184/184/184 186/186/186 185/185/185
f 187/187/187 189/189/189 188/188/188
f 190/190/190 192/192/192 191/191/191
f 193/193/193 195/195/195 194/194/194
f 196/196/196 198/198/198 197/197/197
f 199/199/199 201/201/201 200/200/200
