#Foliage6_31_3583_238.obj

v 0.01454763 -0.02577565 -0.04035509
v 0.004625573 -0.0339761 0.001094357
v 0.03878595 -0.02577568 -0.02105187
v -0.009661188 -0.02577563 -0.03817219
v -0.01824862 -0.02577564 -0.01777721
v -0.03822015 -0.02223222 0.001094449
v -0.02134865 -0.02577565 0.01996645
v -0.005295549 -0.02577564 0.03272105
v 0.02109563 -0.02577567 0.040361
v 0.03060075 -0.02577564 0.0199663
v 0.03219097 -0.02223223 0.001094305
v 0.03878595 -0.02577568 -0.02105187
v 0.04796848 -0.0148924 -0.02772322
v 0.01805475 -0.01489238 -0.05114963
v 0.01454763 -0.02577565 -0.04035509
v 0.01454763 -0.02577565 -0.04035509
v 0.01805475 -0.01489238 -0.05114963
v -0.0131692 -0.0148924 -0.04896708
v -0.009661188 -0.02577563 -0.03817219
v -0.009661188 -0.02577563 -0.03817219
v -0.0131692 -0.0148924 -0.04896708
v -0.02743165 -0.0148924 -0.02444888
v -0.01824862 -0.02577564 -0.01777721
v -0.01824862 -0.02577564 -0.01777721
v -0.02743165 -0.0148924 -0.02444888
v -0.04796508 -0.01288821 0.00109441
v -0.03822015 -0.02223222 0.001094449
v -0.03822015 -0.02223222 0.001094449
v -0.04796508 -0.01288821 0.00109441
v -0.0305312 -0.01489239 0.02663777
v -0.02134865 -0.02577565 0.01996645
v -0.02134865 -0.02577565 0.01996645
v -0.0305312 -0.01489239 0.02663777
v -0.008802684 -0.01489238 0.04351557
v -0.005295549 -0.02577564 0.03272105
v -0.005295549 -0.02577564 0.03272105
v -0.008802684 -0.01489238 0.04351557
v 0.02460363 -0.01489239 0.05115586
v 0.02109563 -0.02577567 0.040361
v 0.02109563 -0.02577567 0.040361
v 0.02460363 -0.01489239 0.05115586
v 0.03978292 -0.01489239 0.02663754
v 0.03060075 -0.02577564 0.0199663
v 0.03060075 -0.02577564 0.0199663
v 0.03978292 -0.01489239 0.02663754
v 0.04193606 -0.01288821 0.001094282
v 0.03219097 -0.02223223 0.001094305
v 0.03219097 -0.02223223 0.001094305
v 0.04193606 -0.01288821 0.001094282
v 0.04796848 -0.0148924 -0.02772322
v 0.03878595 -0.02577568 -0.02105187
v 0.04796848 -0.0148924 -0.02772322
v 0.04796864 -0.0001483433 -0.02772323
v 0.0180549 -0.0001483147 -0.05114965
v 0.01805475 -0.01489238 -0.05114963
v 0.01805475 -0.01489238 -0.05114963
v 0.0180549 -0.0001483147 -0.05114965
v -0.01316905 -0.0001483367 -0.04896709
v -0.0131692 -0.0148924 -0.04896708
v -0.0131692 -0.0148924 -0.04896708
v -0.01316905 -0.0001483367 -0.04896709
v -0.0274315 -0.0001483412 -0.0244489
v -0.02743165 -0.0148924 -0.02444888
v -0.02743165 -0.0148924 -0.02444888
v -0.0274315 -0.0001483412 -0.0244489
v -0.04796482 -0.0002294205 0.001094509
v -0.04796508 -0.01288821 0.00109441
v -0.04796508 -0.01288821 0.00109441
v -0.04796482 -0.0002294205 0.001094509
v -0.03053105 -0.0001483241 0.02663776
v -0.0305312 -0.01489239 0.02663777
v -0.0305312 -0.01489239 0.02663777
v -0.03053105 -0.0001483241 0.02663776
v -0.008802633 -0.0001483265 0.04351576
v -0.008802684 -0.01489238 0.04351557
v -0.008802684 -0.01489238 0.04351557
v -0.008802633 -0.0001483265 0.04351576
v 0.02460294 -0.0001483258 0.05115544
v 0.02460363 -0.01489239 0.05115586
v 0.02460363 -0.01489239 0.05115586
v 0.02460294 -0.0001483258 0.05115544
v 0.03978297 -0.0001483389 0.02663773
v 0.03978292 -0.01489239 0.02663754
v 0.03978292 -0.01489239 0.02663754
v 0.03978297 -0.0001483389 0.02663773
v 0.04193632 -0.0002294114 0.001094382
v 0.04193606 -0.01288821 0.001094282
v 0.04193606 -0.01288821 0.001094282
v 0.04193632 -0.0002294114 0.001094382
v 0.04796864 -0.0001483433 -0.02772323
v 0.04796848 -0.0148924 -0.02772322
v 0.04796864 -0.0001483433 -0.02772323
v 0.0456906 0.01428335 -0.02539385
v 0.01714736 0.01428336 -0.04798805
v 0.0180549 -0.0001483147 -0.05114965
v 0.0180549 -0.0001483147 -0.05114965
v 0.01714736 0.01428336 -0.04798805
v -0.01182733 0.01428335 -0.04559482
v -0.01316905 -0.0001483367 -0.04896709
v -0.01316905 -0.0001483367 -0.04896709
v -0.01182733 0.01428335 -0.04559482
v -0.02320851 0.01428334 -0.02180337
v -0.0274315 -0.0001483412 -0.0244489
v -0.0274315 -0.0001483412 -0.0244489
v -0.02320851 0.01428334 -0.02180337
v -0.04530191 0.0119721 0.001199945
v -0.04796482 -0.0002294205 0.001094509
v -0.04796482 -0.0002294205 0.001094509
v -0.04530191 0.0119721 0.001199945
v -0.02660728 0.01428336 0.02420313
v -0.03053105 -0.0001483241 0.02663776
v -0.03053105 -0.0001483241 0.02663776
v -0.02660728 0.01428336 0.02420313
v -0.007039917 0.01428336 0.03961653
v -0.008802633 -0.0001483265 0.04351576
v -0.008802633 -0.0001483265 0.04351576
v -0.007039917 0.01428336 0.03961653
v 0.02432762 0.01428334 0.04799408
v 0.02460294 -0.0001483258 0.05115544
v 0.02460294 -0.0001483258 0.05115544
v 0.02432762 0.01428334 0.04799408
v 0.03671519 0.01428337 0.02420311
v 0.03978297 -0.0001483389 0.02663773
v 0.03978297 -0.0001483389 0.02663773
v 0.03671519 0.01428337 0.02420311
v 0.03865363 0.01197207 0.001199616
v 0.04193632 -0.0002294114 0.001094382
v 0.04193632 -0.0002294114 0.001094382
v 0.03865363 0.01197207 0.001199616
v 0.0456906 0.01428335 -0.02539385
v 0.04796864 -0.0001483433 -0.02772323
v 0.0456906 0.01428335 -0.02539385
v 0.03225414 0.02437437 -0.01614481
v 0.01203852 0.02437439 -0.0325655
v 0.01714736 0.01428336 -0.04798805
v 0.01714736 0.01428336 -0.04798805
v 0.01203852 0.02437439 -0.0325655
v -0.002590611 0.02437437 -0.02139092
v -0.01182733 0.01428335 -0.04559482
v -0.01182733 0.01428335 -0.04559482
v -0.002590611 0.02437437 -0.02139092
v -0.01125131 0.02437438 -0.01279231
v -0.02320851 0.01428334 -0.02180337
v -0.02320851 0.01428334 -0.02180337
v -0.01125131 0.02437438 -0.01279231
v -0.03124258 0.02074646 0.001120598
v -0.04530191 0.0119721 0.001199945
v -0.04530191 0.0119721 0.001199945
v -0.03124258 0.02074646 0.001120598
v -0.01442546 0.02437438 0.01503304
v -0.02660728 0.01428336 0.02420313
v -0.02660728 0.01428336 0.02420313
v -0.01442546 0.02437438 0.01503304
v -0.002590606 0.02437437 0.02474906
v -0.007039917 0.01428336 0.03961653
v -0.007039917 0.01428336 0.03961653
v -0.002590606 0.02437437 0.02474906
v 0.01874361 0.0243744 0.03257168
v 0.02432762 0.01428334 0.04799408
v 0.02432762 0.01428334 0.04799408
v 0.01874361 0.0243744 0.03257168
v 0.02387317 0.02437437 0.01503309
v 0.03671519 0.01428337 0.02420311
v 0.03671519 0.01428337 0.02420311
v 0.02387317 0.02437437 0.01503309
v 0.02504606 0.02074646 0.001120464
v 0.03865363 0.01197207 0.001199616
v 0.03865363 0.01197207 0.001199616
v 0.02504606 0.02074646 0.001120464
v 0.03225414 0.02437437 -0.01614481
v 0.0456906 0.01428335 -0.02539385
v 0.03225414 0.02437437 -0.01614481
v 0.004626021 0.03397604 0.001094441
v 0.01203852 0.02437439 -0.0325655
v 0.01203852 0.02437439 -0.0325655
v 0.004626021 0.03397604 0.001094441
v -0.002590611 0.02437437 -0.02139092
v -0.002590611 0.02437437 -0.02139092
v 0.004626021 0.03397604 0.001094441
v -0.01125131 0.02437438 -0.01279231
v -0.01125131 0.02437438 -0.01279231
v 0.004626021 0.03397604 0.001094441
v -0.03124258 0.02074646 0.001120598
v -0.03124258 0.02074646 0.001120598
v 0.004626021 0.03397604 0.001094441
v -0.01442546 0.02437438 0.01503304
v -0.01442546 0.02437438 0.01503304
v 0.004626021 0.03397604 0.001094441
v -0.002590606 0.02437437 0.02474906
v -0.002590606 0.02437437 0.02474906
v 0.004626021 0.03397604 0.001094441
v 0.01874361 0.0243744 0.03257168
v 0.01874361 0.0243744 0.03257168
v 0.004626021 0.03397604 0.001094441
v 0.02387317 0.02437437 0.01503309
v 0.02387317 0.02437437 0.01503309
v 0.004626021 0.03397604 0.001094441
v 0.02504606 0.02074646 0.001120464
v 0.02504606 0.02074646 0.001120464
v 0.004626021 0.03397604 0.001094441
v 0.03225414 0.02437437 -0.01614481

vn 0.1408637 -0.9885415 -0.0542421
vn -0.04706166 -0.9984882 -0.02838549
vn 0.08968425 -0.988037 0.1254548
vn 0.07316101 -0.9807448 -0.1810696
vn -0.06703567 -0.9493724 -0.3069162
vn -0.1452456 -0.9506491 -0.27417
vn -0.2436177 -0.9523673 -0.1834289
vn -0.2878481 -0.9574186 -0.02218471
vn -0.1835106 -0.9776753 0.1023434
vn 0.0544619 -0.9698088 0.2377059
vn 0.03686613 -0.9296191 0.366672
vn 0.6592797 -0.7405142 0.1303412
vn 0.6592796 -0.7405142 0.1303411
vn 0.6592797 -0.7405142 0.1303412
vn 0.6592796 -0.7405142 0.1303411
vn 0.5790968 -0.7205383 -0.3814065
vn 0.5790968 -0.7205384 -0.3814065
vn 0.5790968 -0.7205383 -0.3814065
vn 0.5790969 -0.7205384 -0.3814065
vn -0.01750842 -0.6392986 -0.768759
vn -0.01750842 -0.6392986 -0.768759
vn -0.01750842 -0.6392986 -0.768759
vn -0.01750845 -0.6392986 -0.768759
vn 0.1118096 -0.6709048 -0.7330654
vn 0.1118096 -0.6709048 -0.7330655
vn 0.1118096 -0.6709048 -0.7330655
vn 0.1118095 -0.6709048 -0.7330655
vn -0.6425006 -0.6537439 -0.3997643
vn -0.6425006 -0.6537439 -0.3997643
vn -0.6425007 -0.6537438 -0.3997644
vn -0.6425008 -0.6537439 -0.3997643
vn -0.7269859 -0.6651805 -0.1703705
vn -0.726986 -0.6651805 -0.1703706
vn -0.7269859 -0.6651805 -0.1703706
vn -0.7269859 -0.6651805 -0.1703706
vn -0.7387582 -0.6623546 0.124588
vn -0.7387583 -0.6623547 0.124588
vn -0.7387583 -0.6623547 0.124588
vn -0.7387582 -0.6623546 0.124588
vn -0.06967562 -0.6872627 0.7230594
vn -0.06967565 -0.6872627 0.7230594
vn -0.06967565 -0.6872627 0.7230594
vn -0.06967559 -0.6872627 0.7230595
vn 0.3081096 -0.7136848 0.6290644
vn 0.3081096 -0.7136849 0.6290644
vn 0.3081096 -0.7136848 0.6290644
vn 0.3081096 -0.7136848 0.6290644
vn 0.06966959 -0.6427273 0.7629203
vn 0.06966965 -0.6427272 0.7629203
vn 0.06966959 -0.6427273 0.7629203
vn 0.06966962 -0.6427273 0.7629203
vn 0.9763613 -0.05301901 0.209542
vn 0.9763613 -0.05301902 0.209542
vn 0.9763613 -0.05301902 0.209542
vn 0.9763613 -0.05301901 0.209542
vn 0.866065 -0.02652525 -0.4992276
vn 0.866065 -0.02652525 -0.4992276
vn 0.866065 -0.02652525 -0.4992276
vn 0.866065 -0.02652525 -0.4992276
vn 0.07497093 0.02624497 -0.9968402
vn 0.07497093 0.02624497 -0.9968402
vn 0.07497093 0.02624497 -0.9968402
vn 0.07497093 0.02624497 -0.9968402
vn 0.2232111 0.01848153 -0.9745949
vn 0.2232111 0.01848153 -0.974595
vn 0.2232111 0.01848153 -0.9745949
vn 0.2232111 0.01848153 -0.9745949
vn -0.8667448 0.05633092 -0.4955608
vn -0.8667448 0.05633092 -0.4955608
vn -0.8667449 0.05633093 -0.4955607
vn -0.8667448 0.05633092 -0.4955608
vn -0.9771869 0.05294287 -0.205677
vn -0.9771869 0.05294287 -0.205677
vn -0.9771869 0.05294287 -0.205677
vn -0.9771869 0.05294287 -0.205677
vn -0.9732553 0.0398275 0.2262478
vn -0.9732553 0.0398275 0.2262478
vn -0.9732553 0.0398275 0.2262478
vn -0.9732553 0.0398275 0.2262478
vn -0.1023267 -0.02486336 0.9944401
vn -0.1023267 -0.02486336 0.9944401
vn -0.1023267 -0.02486336 0.9944401
vn -0.1023267 -0.02486336 0.9944401
vn 0.358997 -0.04508994 0.932249
vn 0.358997 -0.04508994 0.932249
vn 0.358997 -0.04508994 0.932249
vn 0.358997 -0.04508994 0.932249
vn 0.2426436 -0.04062685 0.9692644
vn 0.2426436 -0.04062685 0.9692644
vn 0.2426436 -0.04062685 0.9692644
vn 0.2426436 -0.04062685 0.9692644
vn 0.9636497 0.1605659 0.213537
vn 0.9636497 0.1605659 0.213537
vn 0.9636497 0.1605659 0.213537
vn 0.9636497 0.1605659 0.213537
vn 0.8522141 0.1953089 -0.4853716
vn 0.8522141 0.1953089 -0.4853716
vn 0.8522141 0.1953089 -0.4853716
vn 0.8522141 0.1953089 -0.4853716
vn 0.04735595 0.2856882 -0.9571518
vn 0.04735592 0.2856882 -0.9571519
vn 0.04735598 0.2856882 -0.9571518
vn 0.04735595 0.2856882 -0.9571518
vn 0.2596409 0.2703559 -0.9270892
vn 0.2596409 0.2703559 -0.9270891
vn 0.2596409 0.2703558 -0.9270892
vn 0.2596408 0.2703559 -0.9270891
vn -0.8434361 0.2979332 -0.4470477
vn -0.8434361 0.2979332 -0.4470477
vn -0.8434361 0.2979331 -0.4470477
vn -0.8434361 0.2979332 -0.4470477
vn -0.9233146 0.3326611 -0.1919031
vn -0.9233146 0.3326611 -0.1919031
vn -0.9233147 0.3326611 -0.1919031
vn -0.9233147 0.3326611 -0.1919031
vn -0.9363335 0.2813151 0.2100991
vn -0.9363334 0.2813151 0.2100991
vn -0.9363335 0.2813151 0.2100991
vn -0.9363335 0.2813151 0.2100991
vn -0.05619836 0.1665419 0.9844316
vn -0.05619836 0.1665419 0.9844316
vn -0.05619845 0.1665419 0.9844316
vn -0.05619836 0.1665419 0.9844316
vn 0.3709225 0.1925865 0.9084751
vn 0.3709225 0.1925864 0.9084751
vn 0.3709225 0.1925864 0.9084751
vn 0.3709225 0.1925864 0.9084751
vn 0.2158016 0.1392885 0.9664514
vn 0.2158016 0.1392885 0.9664514
vn 0.2158016 0.1392885 0.9664514
vn 0.2158016 0.1392885 0.9664514
vn 0.5732777 0.806372 0.1453148
vn 0.5732777 0.806372 0.1453148
vn 0.5732777 0.806372 0.1453148
vn 0.5732777 0.806372 0.1453148
vn 0.3768663 0.8804172 -0.2878138
vn 0.3768663 0.8804171 -0.2878138
vn 0.3768663 0.8804172 -0.2878138
vn 0.3768663 0.8804172 -0.2878138
vn 0.09200779 0.8802459 -0.4655114
vn 0.0920078 0.8802459 -0.4655114
vn 0.09200779 0.8802459 -0.4655114
vn 0.0920078 0.8802459 -0.4655114
vn 0.187762 0.8136598 -0.550184
vn 0.187762 0.8136599 -0.550184
vn 0.187762 0.8136599 -0.550184
vn 0.187762 0.8136599 -0.550184
vn -0.4591169 0.8495848 -0.2596473
vn -0.4591169 0.8495849 -0.2596473
vn -0.459117 0.8495848 -0.2596473
vn -0.4591169 0.8495848 -0.2596473
vn -0.5150566 0.8512407 -0.100526
vn -0.5150566 0.8512406 -0.100526
vn -0.5150566 0.8512406 -0.100526
vn -0.5150566 0.8512406 -0.100526
vn -0.5298092 0.8405124 0.1133162
vn -0.5298092 0.8405124 0.1133162
vn -0.5298092 0.8405124 0.1133162
vn -0.5298092 0.8405124 0.1133162
vn 0.06877965 0.775423 0.6276845
vn 0.06877966 0.775423 0.6276846
vn 0.06877963 0.775423 0.6276846
vn 0.06877966 0.775423 0.6276846
vn 0.3686605 0.7663891 0.5260575
vn 0.3686605 0.7663891 0.5260575
vn 0.3686605 0.7663891 0.5260575
vn 0.3686605 0.7663891 0.5260575
vn 0.0340949 0.7110531 0.7023109
vn 0.03409493 0.7110532 0.7023109
vn 0.0340949 0.7110531 0.7023109
vn 0.0340949 0.7110531 0.7023109
vn 0.3350504 0.9372901 0.09606083
vn 0.3350504 0.9372901 0.0960608
vn 0.3350504 0.9372901 0.09606083
vn 0.2219785 0.9187552 -0.3265176
vn 0.2219785 0.9187552 -0.3265176
vn 0.2219785 0.9187552 -0.3265175
vn 0.1807119 0.9134609 -0.3645982
vn 0.1807119 0.9134609 -0.3645982
vn 0.1807119 0.9134609 -0.3645982
vn 0.1174141 0.9167866 -0.3817272
vn 0.117414 0.9167866 -0.3817273
vn 0.117414 0.9167866 -0.3817273
vn -0.2580507 0.9443759 -0.2038708
vn -0.2580507 0.9443759 -0.2038707
vn -0.2580507 0.9443759 -0.2038708
vn -0.3320175 0.9412144 -0.06228165
vn -0.3320175 0.9412145 -0.06228165
vn -0.3320175 0.9412145 -0.06228165
vn -0.3156198 0.9466815 0.06463353
vn -0.3156198 0.9466815 0.0646335
vn -0.3156198 0.9466815 0.06463351
vn 0.1094465 0.9028112 0.4158757
vn 0.1094465 0.9028112 0.4158758
vn 0.1094465 0.9028112 0.4158758
vn 0.4263761 0.7948627 0.4317362
vn 0.4263761 0.7948627 0.4317362
vn 0.4263761 0.7948628 0.4317362
vn -0.07914934 0.7644552 0.6397993
vn -0.0791494 0.7644552 0.6397992
vn -0.07914937 0.7644552 0.6397994

vt 0.5483398 0.007648468
vt 0.5 0.1500244
vt 0.6264648 0.06439209
vt 0.4516602 0.007648468
vt 0.3735352 0.06439209
vt 0.34375 0.15625
vt 0.3735352 0.2480469
vt 0.4516602 0.3049316
vt 0.5483398 0.3049316
vt 0.6264648 0.2480469
vt 0.65625 0.15625
vt 0 0
vt 0 1
vt 1 1
vt 1 0
vt 0 0
vt 0 1
vt 1 1
vt 1 0
vt 0 0
vt 0 1
vt 1 1
vt 1 0
vt 0 0
vt 0 1
vt 1 1
vt 1 0
vt 0 0
vt 0 1
vt 1 1
vt 1 0
vt 0 0
vt 0 1
vt 1 1
vt 1 0
vt 0 0
vt 0 1
vt 1 1
vt 1 0
vt 0 0
vt 0 1
vt 1 1
vt 1 0
vt 0 0
vt 0 1
vt 1 1
vt 1 0
vt 0 0
vt 0 1
vt 1 1
vt 1 0
vt 0 0
vt 0 1
vt 1 1
vt 1 0
vt 0 0
vt 0 1
vt 1 1
vt 1 0
vt 0 0
vt 0 1
vt 1 1
vt 1 0
vt 0 0
vt 0 1
vt 1 1
vt 1 0
vt 0 0
vt 0 1
vt 1 1
vt 1 0
vt 0 0
vt 0 1
vt 1 1
vt 1 0
vt 0 0
vt 0 1
vt 1 1
vt 1 0
vt 0 0
vt 0 1
vt 1 1
vt 1 0
vt 0 0
vt 0 1
vt 1 1
vt 1 0
vt 0 0
vt 0 1
vt 1 1
vt 1 0
vt 0 0
vt 0 1
vt 1 1
vt 1 0
vt 0 0
vt 0 1
vt 1 1
vt 1 0
vt 0 0
vt 0 1
vt 1 1
vt 1 0
vt 0 0
vt 0 1
vt 1 1
vt 1 0
vt 0 0
vt 0 1
vt 1 1
vt 1 0
vt 0 0
vt 0 1
vt 1 1
vt 1 0
vt 0 0
vt 0 1
vt 1 1
vt 1 0
vt 0 0
vt 0 1
vt 1 1
vt 1 0
vt 0 0
vt 0 1
vt 1 1
vt 1 0
vt 0 0
vt 0 1
vt 1 1
vt 1 0
vt 0 0
vt 0 1
vt 1 1
vt 1 0
vt 0 0
vt 0 1
vt 1 1
vt 1 0
vt 0 0
vt 0 1
vt 1 1
vt 1 0
vt 0 0
vt 0 1
vt 1 1
vt 1 0
vt 0 0
vt 0 1
vt 1 1
vt 1 0
vt 0 0
vt 0 1
vt 1 1
vt 1 0
vt 0 0
vt 0 1
vt 1 1
vt 1 0
vt 0 0
vt 0 1
vt 1 1
vt 1 0
vt 0 0
vt 0 1
vt 1 1
vt 1 0
vt 0 0
vt 0 1
vt 1 1
vt 1 0
vt 0 0
vt 0.5 1
vt 1 0
vt 0 0
vt 0.5 1
vt 1 0
vt 0 0
vt 0.5 1
vt 1 0
vt 0 0
vt 0.5 1
vt 1 0
vt 0 0
vt 0.5 1
vt 1 0
vt 0 0
vt 0.5 1
vt 1 0
vt 0 0
vt 0.5 1
vt 1 0
vt 0 0
vt 0.5 1
vt 1 0
vt 0 0
vt 0.5 1
vt 1 0
vt 0 0
vt 0.5 1
vt 1 0

g Foliage6_31_3583_238
usemtl Foliage6_31_3583_238
usemap Foliage6_31_3583_238
f 1/1/1 3/3/3 2/2/2
f 4/4/4 1/1/1 2/2/2
f 5/5/5 4/4/4 2/2/2
f 6/6/6 5/5/5 2/2/2
f 7/7/7 6/6/6 2/2/2
f 8/8/8 7/7/7 2/2/2
f 9/9/9 8/8/8 2/2/2
f 10/10/10 9/9/9 2/2/2
f 11/11/11 10/10/10 2/2/2
f 3/3/3 11/11/11 2/2/2
f 12/12/12 14/14/14 13/13/13
f 12/12/12 15/15/15 14/14/14
f 16/16/16 18/18/18 17/17/17
f 16/16/16 19/19/19 18/18/18
f 20/20/20 22/22/22 21/21/21
f 20/20/20 23/23/23 22/22/22
f 24/24/24 26/26/26 25/25/25
f 24/24/24 27/27/27 26/26/26
f 28/28/28 30/30/30 29/29/29
f 28/28/28 31/31/31 30/30/30
f 32/32/32 34/34/34 33/33/33
f 32/32/32 35/35/35 34/34/34
f 36/36/36 38/38/38 37/37/37
f 36/36/36 39/39/39 38/38/38
f 40/40/40 42/42/42 41/41/41
f 40/40/40 43/43/43 42/42/42
f 44/44/44 46/46/46 45/45/45
f 44/44/44 47/47/47 46/46/46
f 48/48/48 50/50/50 49/49/49
f 48/48/48 51/51/51 50/50/50
f 52/52/52 54/54/54 53/53/53
f 52/52/52 55/55/55 54/54/54
f 56/56/56 58/58/58 57/57/57
f 56/56/56 59/59/59 58/58/58
f 60/60/60 62/62/62 61/61/61
f 60/60/60 63/63/63 62/62/62
f 64/64/64 66/66/66 65/65/65
f 64/64/64 67/67/67 66/66/66
f 68/68/68 70/70/70 69/69/69
f 68/68/68 71/71/71 70/70/70
f 72/72/72 74/74/74 73/73/73
f 72/72/72 75/75/75 74/74/74
f 76/76/76 78/78/78 77/77/77
f 76/76/76 79/79/79 78/78/78
f 80/80/80 82/82/82 81/81/81
f 80/80/80 83/83/83 82/82/82
f 84/84/84 86/86/86 85/85/85
f 84/84/84 87/87/87 86/86/86
f 88/88/88 90/90/90 89/89/89
f 88/88/88 91/91/91 90/90/90
f 92/92/92 94/94/94 93/93/93
f 92/92/92 95/95/95 94/94/94
f 96/96/96 98/98/98 97/97/97
f 96/96/96 99/99/99 98/98/98
f 100/100/100 102/102/102 101/101/101
f 100/100/100 103/103/103 102/102/102
f 104/104/104 106/106/106 105/105/105
f 104/104/104 107/107/107 106/106/106
f 108/108/108 110/110/110 109/109/109
f 108/108/108 111/111/111 110/110/110
f 112/112/112 114/114/114 113/113/113
f 112/112/112 115/115/115 114/114/114
f 116/116/116 118/118/118 117/117/117
f 116/116/116 119/119/119 118/118/118
f 120/120/120 122/122/122 121/121/121
f 120/120/120 123/123/123 122/122/122
f 124/124/124 126/126/126 125/125/125
f 124/124/124 127/127/127 126/126/126
f 128/128/128 130/130/130 129/129/129
f 128/128/128 131/131/131 130/130/130
f 132/132/132 134/134/134 133/133/133
f 132/132/132 135/135/135 134/134/134
f 136/136/136 138/138/138 137/137/137
f 136/136/136 139/139/139 138/138/138
f 140/140/140 142/142/142 141/141/141
f 140/140/140 143/143/143 142/142/142
f 144/144/144 146/146/146 145/145/145
f 144/144/144 147/147/147 146/146/146
f 148/148/148 150/150/150 149/149/149
f 148/148/148 151/151/151 150/150/150
f 152/152/152 154/154/154 153/153/153
f 152/152/152 155/155/155 154/154/154
f 156/156/156 158/158/158 157/157/157
f 156/156/156 159/159/159 158/158/158
f 160/160/160 162/162/162 161/161/161
f 160/160/160 163/163/163 162/162/162
f 164/164/164 166/166/166 165/165/165
f 164/164/164 167/167/167 166/166/166
f 168/168/168 170/170/170 169/169/169
f 168/168/168 171/171/171 170/170/170
f 172/172/172 174/174/174 173/173/173
f 175/175/175 177/177/177 176/176/176
f 178/178/178 180/180/180 179/179/179
f 181/181/181 183/183/183 182/182/182
f 184/184/184 186/186/186 185/185/185
f 187/187/187 189/189/189 188/188/188
f 190/190/190 192/192/192 191/191/191
f 193/193/193 195/195/195 194/194/194
f 196/196/196 198/198/198 197/197/197
f 199/199/199 201/201/201 200/200/200
