#Foliage2_5_3303_302.obj

v 0.01454542 -0.02577567 -0.04035814
v 0.004623989 -0.0339761 0.001091569
v 0.03878462 -0.02577567 -0.02105462
v -0.009663292 -0.02577567 -0.03817523
v -0.01825066 -0.02577567 -0.01778025
v -0.03822201 -0.0222322 0.001091573
v -0.02135074 -0.02577567 0.01996335
v -0.005297469 -0.02577567 0.03271817
v 0.02109415 -0.02577567 0.04035836
v 0.0305987 -0.02577567 0.01996335
v 0.03218959 -0.0222322 0.001091559
v 0.03878462 -0.02577567 -0.02105462
v 0.04796701 -0.0148924 -0.027726
v 0.01805279 -0.0148924 -0.05115265
v 0.01454542 -0.02577567 -0.04035814
v 0.01454542 -0.02577567 -0.04035814
v 0.01805279 -0.0148924 -0.05115265
v -0.01317064 -0.0148924 -0.04896974
v -0.009663292 -0.02577567 -0.03817523
v -0.009663292 -0.02577567 -0.03817523
v -0.01317064 -0.0148924 -0.04896974
v -0.02743306 -0.0148924 -0.02445164
v -0.01825066 -0.02577567 -0.01778025
v -0.01825066 -0.02577567 -0.01778025
v -0.02743306 -0.0148924 -0.02445164
v -0.04796682 -0.01288818 0.001091559
v -0.03822201 -0.0222322 0.001091573
v -0.03822201 -0.0222322 0.001091573
v -0.04796682 -0.01288818 0.001091559
v -0.03053313 -0.0148924 0.02663477
v -0.02135074 -0.02577567 0.01996335
v -0.02135074 -0.02577567 0.01996335
v -0.03053313 -0.0148924 0.02663477
v -0.008804816 -0.0148924 0.04351267
v -0.005297469 -0.02577567 0.03271817
v -0.005297469 -0.02577567 0.03271817
v -0.008804816 -0.0148924 0.04351267
v 0.02460155 -0.0148924 0.05115287
v 0.02109415 -0.02577567 0.04035836
v 0.02109415 -0.02577567 0.04035836
v 0.02460155 -0.0148924 0.05115287
v 0.03978109 -0.0148924 0.02663475
v 0.0305987 -0.02577567 0.01996335
v 0.0305987 -0.02577567 0.01996335
v 0.03978109 -0.0148924 0.02663475
v 0.0419344 -0.01288818 0.001091562
v 0.03218959 -0.0222322 0.001091559
v 0.03218959 -0.0222322 0.001091559
v 0.0419344 -0.01288818 0.001091562
v 0.04796701 -0.0148924 -0.027726
v 0.03878462 -0.02577567 -0.02105462
v 0.04796701 -0.0148924 -0.027726
v 0.04796701 -0.0001483256 -0.027726
v 0.01805279 -0.0001483256 -0.05115265
v 0.01805279 -0.0148924 -0.05115265
v 0.01805279 -0.0148924 -0.05115265
v 0.01805279 -0.0001483256 -0.05115265
v -0.01317064 -0.0001483256 -0.04896974
v -0.01317064 -0.0148924 -0.04896974
v -0.01317064 -0.0148924 -0.04896974
v -0.01317064 -0.0001483256 -0.04896974
v -0.02743306 -0.0001483256 -0.02445164
v -0.02743306 -0.0148924 -0.02445164
v -0.02743306 -0.0148924 -0.02445164
v -0.02743306 -0.0001483256 -0.02445164
v -0.04796682 -0.0002294467 0.001091559
v -0.04796682 -0.01288818 0.001091559
v -0.04796682 -0.01288818 0.001091559
v -0.04796682 -0.0002294467 0.001091559
v -0.03053313 -0.0001483256 0.02663477
v -0.03053313 -0.0148924 0.02663477
v -0.03053313 -0.0148924 0.02663477
v -0.03053313 -0.0001483256 0.02663477
v -0.008804816 -0.0001483256 0.04351267
v -0.008804816 -0.0148924 0.04351267
v -0.008804816 -0.0148924 0.04351267
v -0.008804816 -0.0001483256 0.04351267
v 0.02460155 -0.0001483256 0.05115287
v 0.02460155 -0.0148924 0.05115287
v 0.02460155 -0.0148924 0.05115287
v 0.02460155 -0.0001483256 0.05115287
v 0.03978109 -0.0001483256 0.02663475
v 0.03978109 -0.0148924 0.02663475
v 0.03978109 -0.0148924 0.02663475
v 0.03978109 -0.0001483256 0.02663475
v 0.0419344 -0.0002294467 0.001091562
v 0.0419344 -0.01288818 0.001091562
v 0.0419344 -0.01288818 0.001091562
v 0.0419344 -0.0002294467 0.001091562
v 0.04796701 -0.0001483256 -0.027726
v 0.04796701 -0.0148924 -0.027726
v 0.04796701 -0.0001483256 -0.027726
v 0.04568902 0.01428338 -0.0253967
v 0.01714524 0.01428338 -0.04799113
v 0.01805279 -0.0001483256 -0.05115265
v 0.01805279 -0.0001483256 -0.05115265
v 0.01714524 0.01428338 -0.04799113
v -0.01182899 0.01428338 -0.04559753
v -0.01317064 -0.0001483256 -0.04896974
v -0.01317064 -0.0001483256 -0.04896974
v -0.01182899 0.01428338 -0.04559753
v -0.02321017 0.01428338 -0.02180627
v -0.02743306 -0.0001483256 -0.02445164
v -0.02743306 -0.0001483256 -0.02445164
v -0.02321017 0.01428338 -0.02180627
v -0.04530399 0.01197209 0.001196902
v -0.04796682 -0.0002294467 0.001091559
v -0.04796682 -0.0002294467 0.001091559
v -0.04530399 0.01197209 0.001196902
v -0.02660947 0.01428338 0.02420012
v -0.03053313 -0.0001483256 0.02663477
v -0.03053313 -0.0001483256 0.02663477
v -0.02660947 0.01428338 0.02420012
v -0.007041757 0.01428338 0.03961369
v -0.008804816 -0.0001483256 0.04351267
v -0.008804816 -0.0001483256 0.04351267
v -0.007041757 0.01428338 0.03961369
v 0.02432607 0.01428338 0.04799136
v 0.02460155 -0.0001483256 0.05115287
v 0.02460155 -0.0001483256 0.05115287
v 0.02432607 0.01428338 0.04799136
v 0.03671293 0.01428338 0.02420011
v 0.03978109 -0.0001483256 0.02663475
v 0.03978109 -0.0001483256 0.02663475
v 0.03671293 0.01428338 0.02420011
v 0.03865213 0.01197209 0.001196934
v 0.0419344 -0.0002294467 0.001091562
v 0.0419344 -0.0002294467 0.001091562
v 0.03865213 0.01197209 0.001196934
v 0.04568902 0.01428338 -0.0253967
v 0.04796701 -0.0001483256 -0.027726
v 0.04568902 0.01428338 -0.0253967
v 0.03225258 0.0243744 -0.01614757
v 0.01203657 0.0243744 -0.03256852
v 0.01714524 0.01428338 -0.04799113
v 0.01714524 0.01428338 -0.04799113
v 0.01203657 0.0243744 -0.03256852
v -0.002592124 0.0243744 -0.02139371
v -0.01182899 0.01428338 -0.04559753
v -0.01182899 0.01428338 -0.04559753
v -0.002592124 0.0243744 -0.02139371
v -0.011253 0.0243744 -0.01279511
v -0.02321017 0.01428338 -0.02180627
v -0.02321017 0.01428338 -0.02180627
v -0.011253 0.0243744 -0.01279511
v -0.03124461 0.02074646 0.001117585
v -0.04530399 0.01197209 0.001196902
v -0.04530399 0.01197209 0.001196902
v -0.03124461 0.02074646 0.001117585
v -0.014427 0.0243744 0.01503033
v -0.02660947 0.01428338 0.02420012
v -0.02660947 0.01428338 0.02420012
v -0.014427 0.0243744 0.01503033
v -0.002592114 0.0243744 0.02474635
v -0.007041757 0.01428338 0.03961369
v -0.007041757 0.01428338 0.03961369
v -0.002592114 0.0243744 0.02474635
v 0.01874146 0.0243744 0.03256872
v 0.02432607 0.01428338 0.04799136
v 0.02432607 0.01428338 0.04799136
v 0.01874146 0.0243744 0.03256872
v 0.02387146 0.0243744 0.01503033
v 0.03671293 0.01428338 0.02420011
v 0.03671293 0.01428338 0.02420011
v 0.02387146 0.0243744 0.01503033
v 0.0250443 0.02074646 0.001117593
v 0.03865213 0.01197209 0.001196934
v 0.03865213 0.01197209 0.001196934
v 0.0250443 0.02074646 0.001117593
v 0.03225258 0.0243744 -0.01614757
v 0.04568902 0.01428338 -0.0253967
v 0.03225258 0.0243744 -0.01614757
v 0.004623976 0.03397609 0.001091536
v 0.01203657 0.0243744 -0.03256852
v 0.01203657 0.0243744 -0.03256852
v 0.004623976 0.03397609 0.001091536
v -0.002592124 0.0243744 -0.02139371
v -0.002592124 0.0243744 -0.02139371
v 0.004623976 0.03397609 0.001091536
v -0.011253 0.0243744 -0.01279511
v -0.011253 0.0243744 -0.01279511
v 0.004623976 0.03397609 0.001091536
v -0.03124461 0.02074646 0.001117585
v -0.03124461 0.02074646 0.001117585
v 0.004623976 0.03397609 0.001091536
v -0.014427 0.0243744 0.01503033
v -0.014427 0.0243744 0.01503033
v 0.004623976 0.03397609 0.001091536
v -0.002592114 0.0243744 0.02474635
v -0.002592114 0.0243744 0.02474635
v 0.004623976 0.03397609 0.001091536
v 0.01874146 0.0243744 0.03256872
v 0.01874146 0.0243744 0.03256872
v 0.004623976 0.03397609 0.001091536
v 0.02387146 0.0243744 0.01503033
v 0.02387146 0.0243744 0.01503033
v 0.004623976 0.03397609 0.001091536
v 0.0250443 0.02074646 0.001117593
v 0.0250443 0.02074646 0.001117593
v 0.004623976 0.03397609 0.001091536
v 0.03225258 0.0243744 -0.01614757

vn -0.07406121 -0.9818566 -0.1745618
vn 0.001244409 -0.9999983 -0.001116142
vn 0.1127454 -0.9784298 -0.1730983
vn -0.1782843 -0.9810985 -0.07523087
vn -0.2625623 -0.9602383 0.09488317
vn -0.2100854 -0.9642732 0.161371
vn -0.09633525 -0.9679797 0.2318064
vn 0.07092404 -0.9703191 0.2311922
vn 0.1633388 -0.9818348 0.09654151
vn 0.2300197 -0.95856 -0.168086
vn 0.3583346 -0.9154218 -0.1832993
vn -0.03877342 -0.7039261 -0.709214
vn -0.03877348 -0.7039261 -0.709214
vn -0.03877339 -0.7039261 -0.709214
vn -0.03877348 -0.7039261 -0.709214
vn -0.5107178 -0.7031068 -0.4947804
vn -0.5107178 -0.7031069 -0.4947804
vn -0.5107179 -0.7031068 -0.4947803
vn -0.5107179 -0.7031069 -0.4947804
vn -0.7257494 -0.6620907 0.1868784
vn -0.7257494 -0.6620906 0.1868784
vn -0.7257494 -0.6620907 0.1868784
vn -0.7257494 -0.6620906 0.1868784
vn -0.7254202 -0.6863982 0.05121279
vn -0.7254203 -0.6863981 0.05121288
vn -0.7254202 -0.6863981 0.05121285
vn -0.7254202 -0.6863981 0.05121291
vn -0.2029345 -0.6953635 0.6894105
vn -0.2029345 -0.6953635 0.6894105
vn -0.2029345 -0.6953634 0.6894106
vn -0.2029345 -0.6953635 0.6894106
vn 0.04084823 -0.703966 0.7090578
vn 0.04084817 -0.703966 0.7090579
vn 0.04084817 -0.703966 0.7090578
vn 0.0408482 -0.703966 0.7090578
vn 0.3281358 -0.6928936 0.6420475
vn 0.3281358 -0.6928936 0.6420475
vn 0.3281358 -0.6928936 0.6420475
vn 0.3281358 -0.6928936 0.6420475
vn 0.7262986 -0.6678944 -0.1625029
vn 0.7262985 -0.6678944 -0.1625029
vn 0.7262985 -0.6678944 -0.1625029
vn 0.7262986 -0.6678944 -0.162503
vn 0.5351754 -0.6790239 -0.5025072
vn 0.5351754 -0.6790239 -0.5025072
vn 0.5351754 -0.6790239 -0.5025072
vn 0.5351754 -0.6790239 -0.5025072
vn 0.7267414 -0.6155776 -0.3048129
vn 0.7267414 -0.6155775 -0.304813
vn 0.7267414 -0.6155776 -0.3048129
vn 0.7267414 -0.6155775 -0.3048129
vn -0.05824915 4.533164E-17 -0.9983021
vn -0.05824909 4.533164E-17 -0.9983021
vn -0.05824909 4.533164E-17 -0.9983021
vn -0.05824915 4.533164E-17 -0.9983021
vn -0.7120748 1.58809E-16 -0.7021037
vn -0.7120748 1.58809E-16 -0.7021037
vn -0.7120748 1.58809E-16 -0.7021037
vn -0.7120748 1.58809E-16 -0.7021037
vn -0.9808947 1.788306E-16 0.1945393
vn -0.9808947 1.788306E-16 0.1945393
vn -0.9808947 1.788306E-16 0.1945393
vn -0.9808947 1.788306E-16 0.1945393
vn -0.998963 1.873699E-16 0.04552984
vn -0.998963 1.873699E-16 0.0455299
vn -0.998963 1.873699E-16 0.04552984
vn -0.998963 1.873699E-16 0.04552984
vn -0.246678 1.33434E-17 0.9690975
vn -0.246678 1.33434E-17 0.9690975
vn -0.2466779 1.334338E-17 0.9690976
vn -0.246678 1.33434E-17 0.9690975
vn 0.06219494 -4.606973E-17 0.998064
vn 0.06219494 -4.606973E-17 0.998064
vn 0.06219494 -4.606973E-17 0.998064
vn 0.06219494 -4.606973E-17 0.998064
vn 0.4775043 -1.205122E-16 0.8786294
vn 0.4775043 -1.205122E-16 0.8786294
vn 0.4775043 -1.205122E-16 0.8786294
vn 0.4775043 -1.205122E-16 0.8786294
vn 0.9858724 -1.807016E-16 -0.1674981
vn 0.9858724 -1.807016E-16 -0.1674981
vn 0.9858724 -1.807016E-16 -0.1674981
vn 0.9858724 -1.807016E-16 -0.1674981
vn 0.8029619 -1.313775E-16 -0.5960304
vn 0.8029619 -1.313775E-16 -0.5960304
vn 0.8029619 -1.313775E-16 -0.5960304
vn 0.8029619 -1.313775E-16 -0.5960304
vn 0.869656 -1.475102E-16 -0.4936583
vn 0.869656 -1.475102E-16 -0.4936583
vn 0.869656 -1.475102E-16 -0.4936583
vn 0.869656 -1.475102E-16 -0.4936583
vn -0.05442744 0.212757 -0.9755881
vn -0.0544275 0.212757 -0.9755881
vn -0.0544275 0.212757 -0.9755881
vn -0.0544275 0.212757 -0.9755881
vn -0.6985801 0.2212333 -0.6804715
vn -0.6985801 0.2212333 -0.6804715
vn -0.6985801 0.2212333 -0.6804715
vn -0.6985801 0.2212333 -0.6804715
vn -0.9394349 0.2588966 0.2245765
vn -0.9394349 0.2588966 0.2245766
vn -0.9394349 0.2588966 0.2245764
vn -0.9394349 0.2588965 0.2245765
vn -0.9669696 0.2546348 0.01143944
vn -0.9669696 0.2546348 0.01143938
vn -0.9669696 0.2546348 0.01143944
vn -0.9669696 0.2546348 0.0114395
vn -0.210042 0.2437819 0.9468119
vn -0.210042 0.2437819 0.9468119
vn -0.2100421 0.2437819 0.9468119
vn -0.210042 0.2437819 0.9468119
vn 0.05657935 0.2822602 0.9576679
vn 0.05657926 0.2822602 0.9576679
vn 0.05657932 0.2822603 0.9576679
vn 0.05657932 0.2822603 0.9576679
vn 0.448203 0.242386 0.8604435
vn 0.448203 0.242386 0.8604435
vn 0.448203 0.242386 0.8604435
vn 0.448203 0.242386 0.8604435
vn 0.9608294 0.1930069 -0.1988851
vn 0.9608294 0.1930069 -0.1988851
vn 0.9608294 0.1930069 -0.198885
vn 0.9608294 0.1930069 -0.1988851
vn 0.7730567 0.2371581 -0.5883361
vn 0.7730568 0.2371581 -0.5883361
vn 0.7730568 0.2371581 -0.5883361
vn 0.7730568 0.2371581 -0.5883361
vn 0.8712354 0.178262 -0.4573528
vn 0.8712354 0.178262 -0.4573528
vn 0.8712354 0.178262 -0.4573528
vn 0.8712354 0.178262 -0.4573528
vn -0.0261659 0.8368365 -0.5468268
vn -0.02616593 0.8368365 -0.5468268
vn -0.0261659 0.8368365 -0.5468268
vn -0.02616593 0.8368365 -0.5468268
vn -0.392161 0.8884323 -0.2385316
vn -0.392161 0.8884322 -0.2385316
vn -0.392161 0.8884323 -0.2385316
vn -0.392161 0.8884323 -0.2385316
vn -0.4872213 0.8693343 0.08290216
vn -0.4872213 0.8693343 0.08290213
vn -0.4872213 0.8693343 0.08290216
vn -0.4872213 0.8693343 0.08290213
vn -0.5933294 0.8049012 0.009679973
vn -0.5933294 0.8049013 0.009679973
vn -0.5933294 0.8049013 0.009679973
vn -0.5933294 0.8049013 0.009679973
vn -0.1410644 0.8185278 0.5568775
vn -0.1410643 0.8185279 0.5568775
vn -0.1410643 0.8185278 0.5568776
vn -0.1410644 0.8185278 0.5568775
vn 0.02717203 0.8222618 0.56846
vn 0.027172 0.8222617 0.56846
vn 0.02717203 0.8222617 0.5684601
vn 0.027172 0.8222617 0.56846
vn 0.2373198 0.8172352 0.5251718
vn 0.2373198 0.8172352 0.5251718
vn 0.2373198 0.8172352 0.5251718
vn 0.2373198 0.8172352 0.5251718
vn 0.573939 0.796234 -0.1913241
vn 0.573939 0.796234 -0.1913241
vn 0.573939 0.796234 -0.1913241
vn 0.573939 0.796234 -0.1913241
vn 0.3960082 0.7985129 -0.4533807
vn 0.3960081 0.798513 -0.4533806
vn 0.3960082 0.798513 -0.4533807
vn 0.3960083 0.7985129 -0.4533807
vn 0.6561436 0.7325384 -0.1812808
vn 0.6561435 0.7325385 -0.1812808
vn 0.6561436 0.7325384 -0.1812808
vn 0.6561436 0.7325384 -0.1812808
vn -0.01204073 0.9546866 -0.2973683
vn -0.01204078 0.9546866 -0.2973683
vn -0.01204073 0.9546866 -0.2973683
vn -0.3886635 0.9181486 -0.07709205
vn -0.3886635 0.9181486 -0.07709208
vn -0.3886634 0.9181486 -0.07709208
vn -0.4142376 0.9097521 -0.02752836
vn -0.4142376 0.9097521 -0.02752839
vn -0.4142376 0.9097521 -0.02752835
vn -0.4138744 0.9095349 0.03812909
vn -0.4138744 0.9095349 0.03812911
vn -0.4138744 0.9095349 0.03812911
vn -0.1425916 0.9244465 0.3536464
vn -0.1425915 0.9244465 0.3536463
vn -0.1425916 0.9244465 0.3536464
vn 0.01364896 0.9219851 0.3869839
vn 0.01364894 0.9219851 0.3869839
vn 0.01364894 0.9219851 0.3869839
vn 0.131458 0.9320197 0.3377237
vn 0.131458 0.9320197 0.3377237
vn 0.131458 0.9320197 0.3377237
vn 0.3569524 0.9190344 -0.1672126
vn 0.3569524 0.9190344 -0.1672126
vn 0.3569524 0.9190344 -0.1672127
vn 0.2892472 0.8268818 -0.4822884
vn 0.2892472 0.8268818 -0.4822883
vn 0.2892472 0.8268819 -0.4822883
vn 0.6253297 0.7785741 -0.05277035
vn 0.6253297 0.7785741 -0.05277029
vn 0.6253297 0.7785741 -0.05277035

vt 0.5483398 0.007648468
vt 0.5 0.1500244
vt 0.6264648 0.06439209
vt 0.4516602 0.007648468
vt 0.3735352 0.06439209
vt 0.34375 0.15625
vt 0.3735352 0.2480469
vt 0.4516602 0.3049316
vt 0.5483398 0.3049316
vt 0.6264648 0.2480469
vt 0.65625 0.15625
vt 0 0
vt 0 1
vt 1 1
vt 1 0
vt 0 0
vt 0 1
vt 1 1
vt 1 0
vt 0 0
vt 0 1
vt 1 1
vt 1 0
vt 0 0
vt 0 1
vt 1 1
vt 1 0
vt 0 0
vt 0 1
vt 1 1
vt 1 0
vt 0 0
vt 0 1
vt 1 1
vt 1 0
vt 0 0
vt 0 1
vt 1 1
vt 1 0
vt 0 0
vt 0 1
vt 1 1
vt 1 0
vt 0 0
vt 0 1
vt 1 1
vt 1 0
vt 0 0
vt 0 1
vt 1 1
vt 1 0
vt 0 0
vt 0 1
vt 1 1
vt 1 0
vt 0 0
vt 0 1
vt 1 1
vt 1 0
vt 0 0
vt 0 1
vt 1 1
vt 1 0
vt 0 0
vt 0 1
vt 1 1
vt 1 0
vt 0 0
vt 0 1
vt 1 1
vt 1 0
vt 0 0
vt 0 1
vt 1 1
vt 1 0
vt 0 0
vt 0 1
vt 1 1
vt 1 0
vt 0 0
vt 0 1
vt 1 1
vt 1 0
vt 0 0
vt 0 1
vt 1 1
vt 1 0
vt 0 0
vt 0 1
vt 1 1
vt 1 0
vt 0 0
vt 0 1
vt 1 1
vt 1 0
vt 0 0
vt 0 1
vt 1 1
vt 1 0
vt 0 0
vt 0 1
vt 1 1
vt 1 0
vt 0 0
vt 0 1
vt 1 1
vt 1 0
vt 0 0
vt 0 1
vt 1 1
vt 1 0
vt 0 0
vt 0 1
vt 1 1
vt 1 0
vt 0 0
vt 0 1
vt 1 1
vt 1 0
vt 0 0
vt 0 1
vt 1 1
vt 1 0
vt 0 0
vt 0 1
vt 1 1
vt 1 0
vt 0 0
vt 0 1
vt 1 1
vt 1 0
vt 0 0
vt 0 1
vt 1 1
vt 1 0
vt 0 0
vt 0 1
vt 1 1
vt 1 0
vt 0 0
vt 0 1
vt 1 1
vt 1 0
vt 0 0
vt 0 1
vt 1 1
vt 1 0
vt 0 0
vt 0 1
vt 1 1
vt 1 0
vt 0 0
vt 0 1
vt 1 1
vt 1 0
vt 0 0
vt 0 1
vt 1 1
vt 1 0
vt 0 0
vt 0 1
vt 1 1
vt 1 0
vt 0 0
vt 0 1
vt 1 1
vt 1 0
vt 0 0
vt 0 1
vt 1 1
vt 1 0
vt 0 0
vt 0.5 1
vt 1 0
vt 0 0
vt 0.5 1
vt 1 0
vt 0 0
vt 0.5 1
vt 1 0
vt 0 0
vt 0.5 1
vt 1 0
vt 0 0
vt 0.5 1
vt 1 0
vt 0 0
vt 0.5 1
vt 1 0
vt 0 0
vt 0.5 1
vt 1 0
vt 0 0
vt 0.5 1
vt 1 0
vt 0 0
vt 0.5 1
vt 1 0
vt 0 0
vt 0.5 1
vt 1 0

g Foliage2_5_3303_302
usemtl Foliage2_5_3303_302
usemap Foliage2_5_3303_302
f 1/1/1 3/3/3 2/2/2
f 4/4/4 1/1/1 2/2/2
f 5/5/5 4/4/4 2/2/2
f 6/6/6 5/5/5 2/2/2
f 7/7/7 6/6/6 2/2/2
f 8/8/8 7/7/7 2/2/2
f 9/9/9 8/8/8 2/2/2
f 10/10/10 9/9/9 2/2/2
f 11/11/11 10/10/10 2/2/2
f 3/3/3 11/11/11 2/2/2
f 12/12/12 14/14/14 13/13/13
f 12/12/12 15/15/15 14/14/14
f 16/16/16 18/18/18 17/17/17
f 16/16/16 19/19/19 18/18/18
f 20/20/20 22/22/22 21/21/21
f 20/20/20 23/23/23 22/22/22
f 24/24/24 26/26/26 25/25/25
f 24/24/24 27/27/27 26/26/26
f 28/28/28 30/30/30 29/29/29
f 28/28/28 31/31/31 30/30/30
f 32/32/32 34/34/34 33/33/33
f 32/32/32 35/35/35 34/34/34
f 36/36/36 38/38/38 37/37/37
f 36/36/36 39/39/39 38/38/38
f 40/40/40 42/42/42 41/41/41
f 40/40/40 43/43/43 42/42/42
f 44/44/44 46/46/46 45/45/45
f 44/44/44 47/47/47 46/46/46
f 48/48/48 50/50/50 49/49/49
f 48/48/48 51/51/51 50/50/50
f 52/52/52 54/54/54 53/53/53
f 52/52/52 55/55/55 54/54/54
f 56/56/56 58/58/58 57/57/57
f 56/56/56 59/59/59 58/58/58
f 60/60/60 62/62/62 61/61/61
f 60/60/60 63/63/63 62/62/62
f 64/64/64 66/66/66 65/65/65
f 64/64/64 67/67/67 66/66/66
f 68/68/68 70/70/70 69/69/69
f 68/68/68 71/71/71 70/70/70
f 72/72/72 74/74/74 73/73/73
f 72/72/72 75/75/75 74/74/74
f 76/76/76 78/78/78 77/77/77
f 76/76/76 79/79/79 78/78/78
f 80/80/80 82/82/82 81/81/81
f 80/80/80 83/83/83 82/82/82
f 84/84/84 86/86/86 85/85/85
f 84/84/84 87/87/87 86/86/86
f 88/88/88 90/90/90 89/89/89
f 88/88/88 91/91/91 90/90/90
f 92/92/92 94/94/94 93/93/93
f 92/92/92 95/95/95 94/94/94
f 96/96/96 98/98/98 97/97/97
f 96/96/96 99/99/99 98/98/98
f 100/100/100 102/102/102 101/101/101
f 100/100/100 103/103/103 102/102/102
f 104/104/104 106/106/106 105/105/105
f 104/104/104 107/107/107 106/106/106
f 108/108/108 110/110/110 109/109/109
f 108/108/108 111/111/111 110/110/110
f 112/112/112 114/114/114 113/113/113
f 112/112/112 115/115/115 114/114/114
f 116/116/116 118/118/118 117/117/117
f 116/116/116 119/119/119 118/118/118
f 120/120/120 122/122/122 121/121/121
f 120/120/120 123/123/123 122/122/122
f 124/124/124 126/126/126 125/125/125
f 124/124/124 127/127/127 126/126/126
f 128/128/128 130/130/130 129/129/129
f 128/128/128 131/131/131 130/130/130
f 132/132/132 134/134/134 133/133/133
f 132/132/132 135/135/135 134/134/134
f 136/136/136 138/138/138 137/137/137
f 136/136/136 139/139/139 138/138/138
f 140/140/140 142/142/142 141/141/141
f 140/140/140 143/143/143 142/142/142
f 144/144/144 146/146/146 145/145/145
f 144/144/144 147/147/147 146/146/146
f 148/148/148 150/150/150 149/149/149
f 148/148/148 151/151/151 150/150/150
f 152/152/152 154/154/154 153/153/153
f 152/152/152 155/155/155 154/154/154
f 156/156/156 158/158/158 157/157/157
f 156/156/156 159/159/159 158/158/158
f 160/160/160 162/162/162 161/161/161
f 160/160/160 163/163/163 162/162/162
f 164/164/164 166/166/166 165/165/165
f 164/164/164 167/167/167 166/166/166
f 168/168/168 170/170/170 169/169/169
f 168/168/168 171/171/171 170/170/170
f 172/172/172 174/174/174 173/173/173
f 175/175/175 177/177/177 176/176/176
f 178/178/178 180/180/180 179/179/179
f 181/181/181 183/183/183 182/182/182
f 184/184/184 186/186/186 185/185/185
f 187/187/187 189/189/189 188/188/188
f 190/190/190 192/192/192 191/191/191
f 193/193/193 195/195/195 194/194/194
f 196/196/196 198/198/198 197/197/197
f 199/199/199 201/201/201 200/200/200
