#Foliage7_38_3635_175.obj

v 0.01454663 -0.0257757 -0.04035981
v 0.004625217 -0.03397616 0.001089722
v 0.03878576 -0.0257757 -0.02105624
v -0.009662148 -0.0257757 -0.03817701
v -0.01824956 -0.02577572 -0.01778183
v -0.03822084 -0.02223229 0.001089704
v -0.0213498 -0.02577572 0.01996176
v -0.005296322 -0.0257757 0.03271626
v 0.02109524 -0.0257757 0.04035666
v 0.03059981 -0.02577567 0.01996178
v 0.03219071 -0.02223225 0.001089729
v 0.03878576 -0.0257757 -0.02105624
v 0.04796794 -0.01489248 -0.02772761
v 0.018054 -0.01489244 -0.05115451
v 0.01454663 -0.0257757 -0.04035981
v 0.01454663 -0.0257757 -0.04035981
v 0.018054 -0.01489244 -0.05115451
v -0.01316963 -0.01489244 -0.04897153
v -0.009662148 -0.0257757 -0.03817701
v -0.009662148 -0.0257757 -0.03817701
v -0.01316963 -0.01489244 -0.04897153
v -0.02743213 -0.01489247 -0.02445322
v -0.01824956 -0.02577572 -0.01778183
v -0.01824956 -0.02577572 -0.01778183
v -0.02743213 -0.01489247 -0.02445322
v -0.04796589 -0.01288827 0.001089952
v -0.03822084 -0.02223229 0.001089704
v -0.03822084 -0.02223229 0.001089704
v -0.04796589 -0.01288827 0.001089952
v -0.03053194 -0.01489243 0.02663304
v -0.0213498 -0.02577572 0.01996176
v -0.0213498 -0.02577572 0.01996176
v -0.03053194 -0.01489243 0.02663304
v -0.008803654 -0.01489245 0.04351086
v -0.005296322 -0.0257757 0.03271626
v -0.005296322 -0.0257757 0.03271626
v -0.008803654 -0.01489245 0.04351086
v 0.02460277 -0.01489245 0.05115109
v 0.02109524 -0.0257757 0.04035666
v 0.02109524 -0.0257757 0.04035666
v 0.02460277 -0.01489245 0.05115109
v 0.03978226 -0.01489244 0.0266329
v 0.03059981 -0.02577567 0.01996178
v 0.03059981 -0.02577567 0.01996178
v 0.03978226 -0.01489244 0.0266329
v 0.04193562 -0.01288827 0.001089875
v 0.03219071 -0.02223225 0.001089729
v 0.03219071 -0.02223225 0.001089729
v 0.04193562 -0.01288827 0.001089875
v 0.04796794 -0.01489248 -0.02772761
v 0.03878576 -0.0257757 -0.02105624
v 0.04796794 -0.01489248 -0.02772761
v 0.04796831 -0.000148366 -0.02772775
v 0.01805391 -0.0001484046 -0.05115452
v 0.018054 -0.01489244 -0.05115451
v 0.018054 -0.01489244 -0.05115451
v 0.01805391 -0.0001484046 -0.05115452
v -0.01316957 -0.0001483778 -0.04897137
v -0.01316963 -0.01489244 -0.04897153
v -0.01316963 -0.01489244 -0.04897153
v -0.01316957 -0.0001483778 -0.04897137
v -0.02743191 -0.0001483936 -0.02445353
v -0.02743213 -0.01489247 -0.02445322
v -0.02743213 -0.01489247 -0.02445322
v -0.02743191 -0.0001483936 -0.02445353
v -0.04796582 -0.0002294726 0.00109006
v -0.04796589 -0.01288827 0.001089952
v -0.04796589 -0.01288827 0.001089952
v -0.04796582 -0.0002294726 0.00109006
v -0.03053202 -0.0001483914 0.02663303
v -0.03053194 -0.01489243 0.02663304
v -0.03053194 -0.01489243 0.02663304
v -0.03053202 -0.0001483914 0.02663303
v -0.008803743 -0.0001483741 0.04351084
v -0.008803654 -0.01489245 0.04351086
v -0.008803654 -0.01489245 0.04351086
v -0.008803743 -0.0001483741 0.04351084
v 0.02460268 -0.0001483671 0.05115107
v 0.02460277 -0.01489245 0.05115109
v 0.02460277 -0.01489245 0.05115109
v 0.02460268 -0.0001483671 0.05115107
v 0.03978233 -0.000148372 0.02663306
v 0.03978226 -0.01489244 0.0266329
v 0.03978226 -0.01489244 0.0266329
v 0.03978233 -0.000148372 0.02663306
v 0.04193554 -0.0002295004 0.001089809
v 0.04193562 -0.01288827 0.001089875
v 0.04193562 -0.01288827 0.001089875
v 0.04193554 -0.0002295004 0.001089809
v 0.04796831 -0.000148366 -0.02772775
v 0.04796794 -0.01489248 -0.02772761
v 0.04796831 -0.000148366 -0.02772775
v 0.04569026 0.01428332 -0.0253984
v 0.0171464 0.01428329 -0.04799303
v 0.01805391 -0.0001484046 -0.05115452
v 0.01805391 -0.0001484046 -0.05115452
v 0.0171464 0.01428329 -0.04799303
v -0.01182776 0.0142833 -0.04559925
v -0.01316957 -0.0001483778 -0.04897137
v -0.01316957 -0.0001483778 -0.04897137
v -0.01182776 0.0142833 -0.04559925
v -0.02320911 0.0142833 -0.02180807
v -0.02743191 -0.0001483936 -0.02445353
v -0.02743191 -0.0001483936 -0.02445353
v -0.02320911 0.0142833 -0.02180807
v -0.04530301 0.01197204 0.001195347
v -0.04796582 -0.0002294726 0.00109006
v -0.04796582 -0.0002294726 0.00109006
v -0.04530301 0.01197204 0.001195347
v -0.02660852 0.01428329 0.02419839
v -0.03053202 -0.0001483914 0.02663303
v -0.03053202 -0.0001483914 0.02663303
v -0.02660852 0.01428329 0.02419839
v -0.007040515 0.01428331 0.03961193
v -0.008803743 -0.0001483741 0.04351084
v -0.008803743 -0.0001483741 0.04351084
v -0.007040515 0.01428331 0.03961193
v 0.02432725 0.0142833 0.04798965
v 0.02460268 -0.0001483671 0.05115107
v 0.02460268 -0.0001483671 0.05115107
v 0.02432725 0.0142833 0.04798965
v 0.0367141 0.01428329 0.02419819
v 0.03978233 -0.000148372 0.02663306
v 0.03978233 -0.000148372 0.02663306
v 0.0367141 0.01428329 0.02419819
v 0.03865329 0.01197201 0.001195034
v 0.04193554 -0.0002295004 0.001089809
v 0.04193554 -0.0002295004 0.001089809
v 0.03865329 0.01197201 0.001195034
v 0.04569026 0.01428332 -0.0253984
v 0.04796831 -0.000148366 -0.02772775
v 0.04569026 0.01428332 -0.0253984
v 0.03225377 0.02437435 -0.01614943
v 0.01203754 0.02437433 -0.03257011
v 0.0171464 0.01428329 -0.04799303
v 0.0171464 0.01428329 -0.04799303
v 0.01203754 0.02437433 -0.03257011
v -0.002591106 0.02437433 -0.02139548
v -0.01182776 0.0142833 -0.04559925
v -0.01182776 0.0142833 -0.04559925
v -0.002591106 0.02437433 -0.02139548
v -0.01125189 0.02437436 -0.01279677
v -0.02320911 0.0142833 -0.02180807
v -0.02320911 0.0142833 -0.02180807
v -0.01125189 0.02437436 -0.01279677
v -0.0312434 0.02074642 0.00111593
v -0.04530301 0.01197204 0.001195347
v -0.04530301 0.01197204 0.001195347
v -0.0312434 0.02074642 0.00111593
v -0.01442585 0.02437431 0.01502846
v -0.02660852 0.01428329 0.02419839
v -0.02660852 0.01428329 0.02419839
v -0.01442585 0.02437431 0.01502846
v -0.002590989 0.02437436 0.02474471
v -0.007040515 0.01428331 0.03961193
v -0.007040515 0.01428331 0.03961193
v -0.002590989 0.02437436 0.02474471
v 0.0187427 0.02437434 0.03256697
v 0.02432725 0.0142833 0.04798965
v 0.02432725 0.0142833 0.04798965
v 0.0187427 0.02437434 0.03256697
v 0.02387264 0.02437432 0.01502856
v 0.0367141 0.01428329 0.02419819
v 0.0367141 0.01428329 0.02419819
v 0.02387264 0.02437432 0.01502856
v 0.02504537 0.02074642 0.001115924
v 0.03865329 0.01197201 0.001195034
v 0.03865329 0.01197201 0.001195034
v 0.02504537 0.02074642 0.001115924
v 0.03225377 0.02437435 -0.01614943
v 0.04569026 0.01428332 -0.0253984
v 0.03225377 0.02437435 -0.01614943
v 0.004625117 0.033976 0.001089675
v 0.01203754 0.02437433 -0.03257011
v 0.01203754 0.02437433 -0.03257011
v 0.004625117 0.033976 0.001089675
v -0.002591106 0.02437433 -0.02139548
v -0.002591106 0.02437433 -0.02139548
v 0.004625117 0.033976 0.001089675
v -0.01125189 0.02437436 -0.01279677
v -0.01125189 0.02437436 -0.01279677
v 0.004625117 0.033976 0.001089675
v -0.0312434 0.02074642 0.00111593
v -0.0312434 0.02074642 0.00111593
v 0.004625117 0.033976 0.001089675
v -0.01442585 0.02437431 0.01502846
v -0.01442585 0.02437431 0.01502846
v 0.004625117 0.033976 0.001089675
v -0.002590989 0.02437436 0.02474471
v -0.002590989 0.02437436 0.02474471
v 0.004625117 0.033976 0.001089675
v 0.0187427 0.02437434 0.03256697
v 0.0187427 0.02437434 0.03256697
v 0.004625117 0.033976 0.001089675
v 0.02387264 0.02437432 0.01502856
v 0.02387264 0.02437432 0.01502856
v 0.004625117 0.033976 0.001089675
v 0.02504537 0.02074642 0.001115924
v 0.02504537 0.02074642 0.001115924
v 0.004625117 0.033976 0.001089675
v 0.03225377 0.02437435 -0.01614943

vn -0.2875184 -0.9384267 -0.1915425
vn -0.1688042 -0.9856454 0.002886633
vn -0.05491401 -0.975378 -0.2135931
vn -0.3955438 -0.9162331 -0.06373395
vn -0.4603871 -0.8765817 0.1401721
vn -0.3891832 -0.8962751 0.2126671
vn -0.2405707 -0.9276229 0.2857298
vn -0.03263678 -0.9623158 0.2699688
vn 0.05811996 -0.9931397 0.1014671
vn 0.09785509 -0.9704768 -0.2204518
vn 0.2613795 -0.9324359 -0.2494875
vn -0.2666904 -0.6094271 -0.7466424
vn -0.2666905 -0.6094272 -0.7466423
vn -0.2666904 -0.6094272 -0.7466424
vn -0.2666905 -0.6094272 -0.7466423
vn -0.7245696 -0.5248454 -0.4466949
vn -0.7245695 -0.5248454 -0.4466949
vn -0.7245696 -0.5248454 -0.4466949
vn -0.7245695 -0.5248454 -0.4466949
vn -0.8434106 -0.4716188 0.2573605
vn -0.8434106 -0.4716187 0.2573605
vn -0.8434106 -0.4716188 0.2573605
vn -0.8434106 -0.4716187 0.2573605
vn -0.8639423 -0.4888888 0.1207952
vn -0.8639423 -0.4888887 0.1207953
vn -0.8639423 -0.4888888 0.1207952
vn -0.8639422 -0.4888888 0.1207952
vn -0.2263401 -0.6019597 0.7657771
vn -0.2263401 -0.6019597 0.7657771
vn -0.2263402 -0.6019596 0.7657772
vn -0.2263402 -0.6019596 0.7657772
vn 0.05611211 -0.6410313 0.7654608
vn 0.05611205 -0.6410313 0.7654608
vn 0.05611201 -0.6410313 0.7654608
vn 0.05611205 -0.6410313 0.7654608
vn 0.3733896 -0.6562518 0.655678
vn 0.3733896 -0.6562518 0.655678
vn 0.3733896 -0.6562518 0.655678
vn 0.3733896 -0.6562518 0.655678
vn 0.6979219 -0.6739267 -0.2423383
vn 0.6979219 -0.6739267 -0.2423383
vn 0.6979219 -0.6739267 -0.2423383
vn 0.6979219 -0.6739267 -0.2423383
vn 0.4325957 -0.6736556 -0.599207
vn 0.4325957 -0.6736557 -0.599207
vn 0.4325957 -0.6736556 -0.599207
vn 0.4325957 -0.6736556 -0.599207
vn 0.6780763 -0.6220905 -0.3914279
vn 0.6780764 -0.6220905 -0.391428
vn 0.6780763 -0.6220905 -0.3914279
vn 0.6780763 -0.6220906 -0.391428
vn -0.2122139 0.01333637 -0.9771323
vn -0.2122139 0.01333636 -0.9771323
vn -0.2122139 0.01333636 -0.9771323
vn -0.2122139 0.01333637 -0.9771323
vn -0.8041114 0.07724603 -0.5894386
vn -0.8041114 0.07724603 -0.5894386
vn -0.8041114 0.07724603 -0.5894386
vn -0.8041114 0.07724603 -0.5894386
vn -0.9579558 0.1003568 0.2687922
vn -0.9579558 0.1003568 0.2687922
vn -0.9579558 0.1003568 0.2687922
vn -0.9579558 0.1003568 0.2687922
vn -0.9864388 0.1020686 0.1285326
vn -0.9864388 0.1020686 0.1285327
vn -0.9864388 0.1020686 0.1285326
vn -0.9864388 0.1020686 0.1285326
vn -0.1144255 0.02023451 0.9932258
vn -0.1144255 0.02023451 0.9932258
vn -0.1144254 0.0202345 0.9932258
vn -0.1144255 0.02023451 0.9932258
vn 0.2162559 -0.01375773 0.9762398
vn 0.2162559 -0.01375773 0.9762398
vn 0.2162559 -0.01375773 0.9762398
vn 0.2162559 -0.01375773 0.9762398
vn 0.6104385 -0.05570102 0.7901026
vn 0.6104385 -0.05570102 0.7901026
vn 0.6104385 -0.05570102 0.7901026
vn 0.6104385 -0.05570102 0.7901026
vn 0.9647189 -0.1008295 -0.2432094
vn 0.9647189 -0.1008295 -0.2432094
vn 0.9647189 -0.1008295 -0.2432094
vn 0.9647189 -0.1008295 -0.2432094
vn 0.7496741 -0.08236662 -0.6566616
vn 0.7496741 -0.08236662 -0.6566616
vn 0.7496741 -0.08236662 -0.6566616
vn 0.7496741 -0.08236662 -0.6566616
vn 0.8260264 -0.08932219 -0.5565086
vn 0.8260264 -0.08932219 -0.5565086
vn 0.8260264 -0.08932219 -0.5565086
vn 0.8260264 -0.08932219 -0.5565086
vn -0.1766768 0.1882154 -0.9661058
vn -0.1766767 0.1882155 -0.9661058
vn -0.1766767 0.1882155 -0.9661058
vn -0.1766767 0.1882155 -0.9661058
vn -0.7732781 0.2503749 -0.5825405
vn -0.7732781 0.2503749 -0.5825405
vn -0.7732781 0.2503749 -0.5825405
vn -0.7732781 0.2503749 -0.5825405
vn -0.9028926 0.3066914 0.3012065
vn -0.9028925 0.3066914 0.3012065
vn -0.9028926 0.3066914 0.3012065
vn -0.9028926 0.3066914 0.3012065
vn -0.9482815 0.3027432 0.09543964
vn -0.9482815 0.3027432 0.09543961
vn -0.9482815 0.3027431 0.09543964
vn -0.9482815 0.3027432 0.09543968
vn -0.04413706 0.2203524 0.9744212
vn -0.04413706 0.2203524 0.9744212
vn -0.04413714 0.2203524 0.9744212
vn -0.04413706 0.2203524 0.9744212
vn 0.2461058 0.2190885 0.9441568
vn 0.2461057 0.2190885 0.9441569
vn 0.2461057 0.2190885 0.9441568
vn 0.2461057 0.2190885 0.9441568
vn 0.6133814 0.1381517 0.77761
vn 0.6133814 0.1381517 0.77761
vn 0.6133814 0.1381517 0.77761
vn 0.6133814 0.1381517 0.77761
vn 0.9610978 0.05226805 -0.2712179
vn 0.9610978 0.05226805 -0.2712179
vn 0.9610978 0.05226806 -0.2712179
vn 0.9610978 0.05226805 -0.2712179
vn 0.7533727 0.113353 -0.6477505
vn 0.7533727 0.113353 -0.6477505
vn 0.7533727 0.113353 -0.6477505
vn 0.7533727 0.1133529 -0.6477505
vn 0.8530107 0.05310523 -0.5191848
vn 0.8530106 0.05310525 -0.5191848
vn 0.8530107 0.05310525 -0.5191848
vn 0.8530107 0.05310525 -0.5191848
vn 0.008697833 0.7877107 -0.615984
vn 0.008697795 0.7877107 -0.615984
vn 0.008697833 0.7877107 -0.615984
vn 0.008697795 0.7877107 -0.615984
vn -0.3764291 0.8959477 -0.2357518
vn -0.3764291 0.8959477 -0.2357518
vn -0.3764291 0.8959477 -0.2357518
vn -0.3764291 0.8959477 -0.2357518
vn -0.439153 0.88693 0.1431772
vn -0.439153 0.88693 0.1431772
vn -0.439153 0.88693 0.1431772
vn -0.439153 0.88693 0.1431772
vn -0.5751969 0.8151287 0.06865681
vn -0.5751969 0.8151287 0.06865681
vn -0.5751969 0.8151287 0.06865681
vn -0.5751969 0.8151287 0.06865681
vn 0.05833283 0.7711753 0.6339447
vn 0.05833292 0.7711754 0.6339447
vn 0.05833284 0.7711753 0.6339447
vn 0.05833283 0.7711753 0.6339447
vn 0.2574752 0.7417086 0.6193343
vn 0.2574752 0.7417086 0.6193343
vn 0.2574752 0.7417085 0.6193343
vn 0.2574752 0.7417086 0.6193343
vn 0.482781 0.6929028 0.5355448
vn 0.482781 0.6929028 0.5355448
vn 0.482781 0.6929028 0.5355448
vn 0.482781 0.6929028 0.5355448
vn 0.7329011 0.6286533 -0.2600982
vn 0.7329012 0.6286532 -0.2600982
vn 0.7329012 0.6286532 -0.2600981
vn 0.7329012 0.6286532 -0.2600982
vn 0.5075622 0.6749318 -0.5355817
vn 0.5075621 0.6749319 -0.5355817
vn 0.5075621 0.6749318 -0.5355817
vn 0.5075622 0.6749318 -0.5355817
vn 0.79688 0.549574 -0.2508996
vn 0.7968799 0.5495741 -0.2508996
vn 0.79688 0.549574 -0.2508996
vn 0.79688 0.549574 -0.2508996
vn 0.09150022 0.9316859 -0.3515526
vn 0.09150021 0.9316859 -0.3515526
vn 0.09150022 0.9316859 -0.3515526
vn -0.3443018 0.937426 -0.05185386
vn -0.3443018 0.937426 -0.0518539
vn -0.3443018 0.937426 -0.0518539
vn -0.3677349 0.9298899 0.008711117
vn -0.367735 0.9298899 0.008711078
vn -0.367735 0.9298899 0.008711137
vn -0.3561372 0.9305438 0.08517326
vn -0.3561373 0.9305438 0.08517329
vn -0.3561373 0.9305438 0.08517329
vn 0.04003836 0.9054958 0.4224621
vn 0.04003841 0.9054958 0.4224621
vn 0.04003836 0.9054958 0.4224621
vn 0.2353977 0.8681188 0.436987
vn 0.2353977 0.8681188 0.436987
vn 0.2353977 0.8681188 0.436987
vn 0.3685712 0.8550686 0.3647096
vn 0.3685711 0.8550686 0.3647096
vn 0.3685712 0.8550686 0.3647096
vn 0.5436483 0.8079121 -0.2274305
vn 0.5436484 0.807912 -0.2274305
vn 0.5436484 0.807912 -0.2274306
vn 0.390139 0.7260823 -0.566212
vn 0.390139 0.7260823 -0.566212
vn 0.390139 0.7260824 -0.5662119
vn 0.7951775 0.594959 -0.1171182
vn 0.7951775 0.594959 -0.1171181
vn 0.7951775 0.594959 -0.1171182

vt 0.5483398 0.007648468
vt 0.5 0.1500244
vt 0.6264648 0.06439209
vt 0.4516602 0.007648468
vt 0.3735352 0.06439209
vt 0.34375 0.15625
vt 0.3735352 0.2480469
vt 0.4516602 0.3049316
vt 0.5483398 0.3049316
vt 0.6264648 0.2480469
vt 0.65625 0.15625
vt 0 0
vt 0 1
vt 1 1
vt 1 0
vt 0 0
vt 0 1
vt 1 1
vt 1 0
vt 0 0
vt 0 1
vt 1 1
vt 1 0
vt 0 0
vt 0 1
vt 1 1
vt 1 0
vt 0 0
vt 0 1
vt 1 1
vt 1 0
vt 0 0
vt 0 1
vt 1 1
vt 1 0
vt 0 0
vt 0 1
vt 1 1
vt 1 0
vt 0 0
vt 0 1
vt 1 1
vt 1 0
vt 0 0
vt 0 1
vt 1 1
vt 1 0
vt 0 0
vt 0 1
vt 1 1
vt 1 0
vt 0 0
vt 0 1
vt 1 1
vt 1 0
vt 0 0
vt 0 1
vt 1 1
vt 1 0
vt 0 0
vt 0 1
vt 1 1
vt 1 0
vt 0 0
vt 0 1
vt 1 1
vt 1 0
vt 0 0
vt 0 1
vt 1 1
vt 1 0
vt 0 0
vt 0 1
vt 1 1
vt 1 0
vt 0 0
vt 0 1
vt 1 1
vt 1 0
vt 0 0
vt 0 1
vt 1 1
vt 1 0
vt 0 0
vt 0 1
vt 1 1
vt 1 0
vt 0 0
vt 0 1
vt 1 1
vt 1 0
vt 0 0
vt 0 1
vt 1 1
vt 1 0
vt 0 0
vt 0 1
vt 1 1
vt 1 0
vt 0 0
vt 0 1
vt 1 1
vt 1 0
vt 0 0
vt 0 1
vt 1 1
vt 1 0
vt 0 0
vt 0 1
vt 1 1
vt 1 0
vt 0 0
vt 0 1
vt 1 1
vt 1 0
vt 0 0
vt 0 1
vt 1 1
vt 1 0
vt 0 0
vt 0 1
vt 1 1
vt 1 0
vt 0 0
vt 0 1
vt 1 1
vt 1 0
vt 0 0
vt 0 1
vt 1 1
vt 1 0
vt 0 0
vt 0 1
vt 1 1
vt 1 0
vt 0 0
vt 0 1
vt 1 1
vt 1 0
vt 0 0
vt 0 1
vt 1 1
vt 1 0
vt 0 0
vt 0 1
vt 1 1
vt 1 0
vt 0 0
vt 0 1
vt 1 1
vt 1 0
vt 0 0
vt 0 1
vt 1 1
vt 1 0
vt 0 0
vt 0 1
vt 1 1
vt 1 0
vt 0 0
vt 0 1
vt 1 1
vt 1 0
vt 0 0
vt 0 1
vt 1 1
vt 1 0
vt 0 0
vt 0 1
vt 1 1
vt 1 0
vt 0 0
vt 0.5 1
vt 1 0
vt 0 0
vt 0.5 1
vt 1 0
vt 0 0
vt 0.5 1
vt 1 0
vt 0 0
vt 0.5 1
vt 1 0
vt 0 0
vt 0.5 1
vt 1 0
vt 0 0
vt 0.5 1
vt 1 0
vt 0 0
vt 0.5 1
vt 1 0
vt 0 0
vt 0.5 1
vt 1 0
vt 0 0
vt 0.5 1
vt 1 0
vt 0 0
vt 0.5 1
vt 1 0

g Foliage7_38_3635_175
usemtl Foliage7_38_3635_175
usemap Foliage7_38_3635_175
f 1/1/1 3/3/3 2/2/2
f 4/4/4 1/1/1 2/2/2
f 5/5/5 4/4/4 2/2/2
f 6/6/6 5/5/5 2/2/2
f 7/7/7 6/6/6 2/2/2
f 8/8/8 7/7/7 2/2/2
f 9/9/9 8/8/8 2/2/2
f 10/10/10 9/9/9 2/2/2
f 11/11/11 10/10/10 2/2/2
f 3/3/3 11/11/11 2/2/2
f 12/12/12 14/14/14 13/13/13
f 12/12/12 15/15/15 14/14/14
f 16/16/16 18/18/18 17/17/17
f 16/16/16 19/19/19 18/18/18
f 20/20/20 22/22/22 21/21/21
f 20/20/20 23/23/23 22/22/22
f 24/24/24 26/26/26 25/25/25
f 24/24/24 27/27/27 26/26/26
f 28/28/28 30/30/30 29/29/29
f 28/28/28 31/31/31 30/30/30
f 32/32/32 34/34/34 33/33/33
f 32/32/32 35/35/35 34/34/34
f 36/36/36 38/38/38 37/37/37
f 36/36/36 39/39/39 38/38/38
f 40/40/40 42/42/42 41/41/41
f 40/40/40 43/43/43 42/42/42
f 44/44/44 46/46/46 45/45/45
f 44/44/44 47/47/47 46/46/46
f 48/48/48 50/50/50 49/49/49
f 48/48/48 51/51/51 50/50/50
f 52/52/52 54/54/54 53/53/53
f 52/52/52 55/55/55 54/54/54
f 56/56/56 58/58/58 57/57/57
f 56/56/56 59/59/59 58/58/58
f 60/60/60 62/62/62 61/61/61
f 60/60/60 63/63/63 62/62/62
f 64/64/64 66/66/66 65/65/65
f 64/64/64 67/67/67 66/66/66
f 68/68/68 70/70/70 69/69/69
f 68/68/68 71/71/71 70/70/70
f 72/72/72 74/74/74 73/73/73
f 72/72/72 75/75/75 74/74/74
f 76/76/76 78/78/78 77/77/77
f 76/76/76 79/79/79 78/78/78
f 80/80/80 82/82/82 81/81/81
f 80/80/80 83/83/83 82/82/82
f 84/84/84 86/86/86 85/85/85
f 84/84/84 87/87/87 86/86/86
f 88/88/88 90/90/90 89/89/89
f 88/88/88 91/91/91 90/90/90
f 92/92/92 94/94/94 93/93/93
f 92/92/92 95/95/95 94/94/94
f 96/96/96 98/98/98 97/97/97
f 96/96/96 99/99/99 98/98/98
f 100/100/100 102/102/102 101/101/101
f 100/100/100 103/103/103 102/102/102
f 104/104/104 106/106/106 105/105/105
f 104/104/104 107/107/107 106/106/106
f 108/108/108 110/110/110 109/109/109
f 108/108/108 111/111/111 110/110/110
f 112/112/112 114/114/114 113/113/113
f 112/112/112 115/115/115 114/114/114
f 116/116/116 118/118/118 117/117/117
f 116/116/116 119/119/119 118/118/118
f 120/120/120 122/122/122 121/121/121
f 120/120/120 123/123/123 122/122/122
f 124/124/124 126/126/126 125/125/125
f 124/124/124 127/127/127 126/126/126
f 128/128/128 130/130/130 129/129/129
f 128/128/128 131/131/131 130/130/130
f 132/132/132 134/134/134 133/133/133
f 132/132/132 135/135/135 134/134/134
f 136/136/136 138/138/138 137/137/137
f 136/136/136 139/139/139 138/138/138
f 140/140/140 142/142/142 141/141/141
f 140/140/140 143/143/143 142/142/142
f 144/144/144 146/146/146 145/145/145
f 144/144/144 147/147/147 146/146/146
f 148/148/148 150/150/150 149/149/149
f 148/148/148 151/151/151 150/150/150
f 152/152/152 154/154/154 153/153/153
f 152/152/152 155/155/155 154/154/154
f 156/156/156 158/158/158 157/157/157
f 156/156/156 159/159/159 158/158/158
f 160/160/160 162/162/162 161/161/161
f 160/160/160 163/163/163 162/162/162
f 164/164/164 166/166/166 165/165/165
f 164/164/164 167/167/167 166/166/166
f 168/168/168 170/170/170 169/169/169
f 168/168/168 171/171/171 170/170/170
f 172/172/172 174/174/174 173/173/173
f 175/175/175 177/177/177 176/176/176
f 178/178/178 180/180/180 179/179/179
f 181/181/181 183/183/183 182/182/182
f 184/184/184 186/186/186 185/185/185
f 187/187/187 189/189/189 188/188/188
f 190/190/190 192/192/192 191/191/191
f 193/193/193 195/195/195 194/194/194
f 196/196/196 198/198/198 197/197/197
f 199/199/199 201/201/201 200/200/200
