#Foliage8_33_3485_173.obj

v 0.01454256 -0.02577544 -0.04035939
v 0.004621217 -0.03397588 0.001090362
v 0.03878127 -0.02577545 -0.02105563
v -0.009666733 -0.02577543 -0.03817637
v -0.01825332 -0.02577544 -0.0177815
v -0.03822457 -0.02223201 0.001090345
v -0.02135354 -0.02577546 0.0199623
v -0.005300674 -0.02577545 0.03271711
v 0.02109154 -0.02577546 0.0403572
v 0.03059543 -0.02577544 0.01996226
v 0.03218685 -0.02223201 0.00109034
v 0.03878127 -0.02577545 -0.02105563
v 0.04796358 -0.01489217 -0.0277271
v 0.01804991 -0.0148922 -0.05115372
v 0.01454256 -0.02577544 -0.04035939
v 0.01454256 -0.02577544 -0.04035939
v 0.01804991 -0.0148922 -0.05115372
v -0.01317383 -0.01489219 -0.04897078
v -0.009666733 -0.02577543 -0.03817637
v -0.009666733 -0.02577543 -0.03817637
v -0.01317383 -0.01489219 -0.04897078
v -0.02743642 -0.01489218 -0.02445266
v -0.01825332 -0.02577544 -0.0177815
v -0.01825332 -0.02577544 -0.0177815
v -0.02743642 -0.01489218 -0.02445266
v -0.04796983 -0.01288799 0.001090362
v -0.03822457 -0.02223201 0.001090345
v -0.03822457 -0.02223201 0.001090345
v -0.04796983 -0.01288799 0.001090362
v -0.03053582 -0.01489218 0.02663351
v -0.02135354 -0.02577546 0.0199623
v -0.02135354 -0.02577546 0.0199623
v -0.03053582 -0.01489218 0.02663351
v -0.008807896 -0.0148922 0.04351163
v -0.005300674 -0.02577545 0.03271711
v -0.005300674 -0.02577545 0.03271711
v -0.008807896 -0.0148922 0.04351163
v 0.02459876 -0.01489221 0.05115179
v 0.02109154 -0.02577546 0.0403572
v 0.02109154 -0.02577546 0.0403572
v 0.02459876 -0.01489221 0.05115179
v 0.03977775 -0.0148922 0.0266338
v 0.03059543 -0.02577544 0.01996226
v 0.03059543 -0.02577544 0.01996226
v 0.03977775 -0.0148922 0.0266338
v 0.04193161 -0.012888 0.001090377
v 0.03218685 -0.02223201 0.00109034
v 0.03218685 -0.02223201 0.00109034
v 0.04193161 -0.012888 0.001090377
v 0.04796358 -0.01489217 -0.0277271
v 0.03878127 -0.02577545 -0.02105563
v 0.04796358 -0.01489217 -0.0277271
v 0.04796448 -0.0001481255 -0.02772723
v 0.01804986 -0.0001481074 -0.05115387
v 0.01804991 -0.0148922 -0.05115372
v 0.01804991 -0.0148922 -0.05115372
v 0.01804986 -0.0001481074 -0.05115387
v -0.01317383 -0.0001481291 -0.04897071
v -0.01317383 -0.01489219 -0.04897078
v -0.01317383 -0.01489219 -0.04897078
v -0.01317383 -0.0001481291 -0.04897071
v -0.02743642 -0.0001481236 -0.02445259
v -0.02743642 -0.01489218 -0.02445266
v -0.02743642 -0.01489218 -0.02445266
v -0.02743642 -0.0001481236 -0.02445259
v -0.04796994 -0.0002292292 0.001090594
v -0.04796983 -0.01288799 0.001090362
v -0.04796983 -0.01288799 0.001090362
v -0.04796994 -0.0002292292 0.001090594
v -0.03053582 -0.0001481244 0.02663358
v -0.03053582 -0.01489218 0.02663351
v -0.03053582 -0.01489218 0.02663351
v -0.03053582 -0.0001481244 0.02663358
v -0.008807947 -0.0001481081 0.04351147
v -0.008807896 -0.0148922 0.04351163
v -0.008807896 -0.0148922 0.04351163
v -0.008807947 -0.0001481081 0.04351147
v 0.02459871 -0.0001481197 0.05115164
v 0.02459876 -0.01489221 0.05115179
v 0.02459876 -0.01489221 0.05115179
v 0.02459871 -0.0001481197 0.05115164
v 0.0397777 -0.0001481068 0.02663365
v 0.03977775 -0.0148922 0.0266338
v 0.03977775 -0.0148922 0.0266338
v 0.0397777 -0.0001481068 0.02663365
v 0.04193144 -0.0002292147 0.001090385
v 0.04193161 -0.012888 0.001090377
v 0.04193161 -0.012888 0.001090377
v 0.04193144 -0.0002292147 0.001090385
v 0.04796448 -0.0001481255 -0.02772723
v 0.04796358 -0.01489217 -0.0277271
v 0.04796448 -0.0001481255 -0.02772723
v 0.04568571 0.01428358 -0.02539785
v 0.01714184 0.01428357 -0.04799219
v 0.01804986 -0.0001481074 -0.05115387
v 0.01804986 -0.0001481074 -0.05115387
v 0.01714184 0.01428357 -0.04799219
v -0.01183153 0.01428355 -0.04559867
v -0.01317383 -0.0001481291 -0.04897071
v -0.01317383 -0.0001481291 -0.04897071
v -0.01183153 0.01428355 -0.04559867
v -0.02321314 0.01428356 -0.02180737
v -0.02743642 -0.0001481236 -0.02445259
v -0.02743642 -0.0001481236 -0.02445259
v -0.02321314 0.01428356 -0.02180737
v -0.04530666 0.01197229 0.001195698
v -0.04796994 -0.0002292292 0.001090594
v -0.04796994 -0.0002292292 0.001090594
v -0.04530666 0.01197229 0.001195698
v -0.02661207 0.01428355 0.02419899
v -0.03053582 -0.0001481244 0.02663358
v -0.03053582 -0.0001481244 0.02663358
v -0.02661207 0.01428355 0.02419899
v -0.007044936 0.01428356 0.03961264
v -0.008807947 -0.0001481081 0.04351147
v -0.008807947 -0.0001481081 0.04351147
v -0.007044936 0.01428356 0.03961264
v 0.02432344 0.01428354 0.04799028
v 0.02459871 -0.0001481197 0.05115164
v 0.02459871 -0.0001481197 0.05115164
v 0.02432344 0.01428354 0.04799028
v 0.03670982 0.01428357 0.02419897
v 0.0397777 -0.0001481068 0.02663365
v 0.0397777 -0.0001481068 0.02663365
v 0.03670982 0.01428357 0.02419897
v 0.03864886 0.01197228 0.001195912
v 0.04193144 -0.0002292147 0.001090385
v 0.04193144 -0.0002292147 0.001090385
v 0.03864886 0.01197228 0.001195912
v 0.04568571 0.01428358 -0.02539785
v 0.04796448 -0.0001481255 -0.02772723
v 0.04568571 0.01428358 -0.02539785
v 0.03224954 0.02437461 -0.01614874
v 0.01203319 0.0243746 -0.03256956
v 0.01714184 0.01428357 -0.04799219
v 0.01714184 0.01428357 -0.04799219
v 0.01203319 0.0243746 -0.03256956
v -0.002595457 0.02437461 -0.02139477
v -0.01183153 0.01428355 -0.04559867
v -0.01183153 0.01428355 -0.04559867
v -0.002595457 0.02437461 -0.02139477
v -0.01125589 0.02437461 -0.01279633
v -0.02321314 0.01428356 -0.02180737
v -0.02321314 0.01428356 -0.02180737
v -0.01125589 0.02437461 -0.01279633
v -0.03124784 0.02074669 0.001116431
v -0.04530666 0.01197229 0.001195698
v -0.04530666 0.01197229 0.001195698
v -0.03124784 0.02074669 0.001116431
v -0.01442992 0.02437459 0.01502925
v -0.02661207 0.01428355 0.02419899
v -0.02661207 0.01428355 0.02419899
v -0.01442992 0.02437459 0.01502925
v -0.002594788 0.02437459 0.02474517
v -0.007044936 0.01428356 0.03961264
v -0.007044936 0.01428356 0.03961264
v -0.002594788 0.02437459 0.02474517
v 0.01873809 0.02437461 0.03256759
v 0.02432344 0.01428354 0.04799028
v 0.02432344 0.01428354 0.04799028
v 0.01873809 0.02437461 0.03256759
v 0.02386855 0.02437459 0.01502926
v 0.03670982 0.01428357 0.02419897
v 0.03670982 0.01428357 0.02419897
v 0.02386855 0.02437459 0.01502926
v 0.02504157 0.02074667 0.001116481
v 0.03864886 0.01197228 0.001195912
v 0.03864886 0.01197228 0.001195912
v 0.02504157 0.02074667 0.001116481
v 0.03224954 0.02437461 -0.01614874
v 0.04568571 0.01428358 -0.02539785
v 0.03224954 0.02437461 -0.01614874
v 0.00462083 0.03397625 0.001090568
v 0.01203319 0.0243746 -0.03256956
v 0.01203319 0.0243746 -0.03256956
v 0.00462083 0.03397625 0.001090568
v -0.002595457 0.02437461 -0.02139477
v -0.002595457 0.02437461 -0.02139477
v 0.00462083 0.03397625 0.001090568
v -0.01125589 0.02437461 -0.01279633
v -0.01125589 0.02437461 -0.01279633
v 0.00462083 0.03397625 0.001090568
v -0.03124784 0.02074669 0.001116431
v -0.03124784 0.02074669 0.001116431
v 0.00462083 0.03397625 0.001090568
v -0.01442992 0.02437459 0.01502925
v -0.01442992 0.02437459 0.01502925
v 0.00462083 0.03397625 0.001090568
v -0.002594788 0.02437459 0.02474517
v -0.002594788 0.02437459 0.02474517
v 0.00462083 0.03397625 0.001090568
v 0.01873809 0.02437461 0.03256759
v 0.01873809 0.02437461 0.03256759
v 0.00462083 0.03397625 0.001090568
v 0.02386855 0.02437459 0.01502926
v 0.02386855 0.02437459 0.01502926
v 0.00462083 0.03397625 0.001090568
v 0.02504157 0.02074667 0.001116481
v 0.02504157 0.02074667 0.001116481
v 0.00462083 0.03397625 0.001090568
v 0.03224954 0.02437461 -0.01614874

vn -0.03230119 -0.9935163 -0.1090004
vn 0.1317557 -0.9911929 -0.0132749
vn 0.1176786 -0.9689001 -0.2176774
vn -0.05779418 -0.9977944 0.03263809
vn -0.02858733 -0.9750785 0.2200085
vn 0.05282185 -0.9686248 0.2428477
vn 0.1855562 -0.9546497 0.2328348
vn 0.319428 -0.9381006 0.1339106
vn 0.316236 -0.9482225 -0.02946398
vn 0.2118978 -0.9356046 -0.2823871
vn 0.3000779 -0.8793709 -0.3696747
vn -0.3530655 -0.7503768 -0.5588193
vn -0.3530655 -0.7503768 -0.5588192
vn -0.3530654 -0.7503768 -0.5588193
vn -0.3530655 -0.7503768 -0.5588192
vn -0.6057227 -0.7883418 -0.1077794
vn -0.6057227 -0.7883419 -0.1077794
vn -0.6057227 -0.7883418 -0.1077794
vn -0.6057228 -0.7883419 -0.1077794
vn -0.3848684 -0.7256485 0.5703594
vn -0.3848684 -0.7256485 0.5703595
vn -0.3848684 -0.7256485 0.5703594
vn -0.3848684 -0.7256485 0.5703595
vn -0.4607049 -0.7589304 0.4601903
vn -0.4607049 -0.7589303 0.4601904
vn -0.4607049 -0.7589303 0.4601904
vn -0.4607049 -0.7589303 0.4601904
vn 0.3318402 -0.6653553 0.668718
vn 0.3318402 -0.6653553 0.668718
vn 0.3318402 -0.6653553 0.6687181
vn 0.3318402 -0.6653553 0.6687181
vn 0.5396493 -0.6449854 0.541084
vn 0.5396493 -0.6449854 0.5410841
vn 0.5396492 -0.6449854 0.541084
vn 0.5396492 -0.6449854 0.541084
vn 0.729057 -0.6060861 0.3180174
vn 0.729057 -0.6060861 0.3180174
vn 0.729057 -0.6060861 0.3180174
vn 0.729057 -0.6060861 0.3180174
vn 0.5743311 -0.5909923 -0.5664553
vn 0.5743311 -0.5909923 -0.5664552
vn 0.5743311 -0.5909923 -0.5664552
vn 0.5743311 -0.5909922 -0.5664554
vn 0.2240356 -0.6467493 -0.7290562
vn 0.2240356 -0.6467493 -0.7290562
vn 0.2240356 -0.6467493 -0.7290562
vn 0.2240356 -0.6467493 -0.7290562
vn 0.4846327 -0.5487583 -0.6811718
vn 0.4846327 -0.5487583 -0.6811719
vn 0.4846327 -0.5487583 -0.6811718
vn 0.4846327 -0.5487583 -0.6811718
vn -0.6301312 -0.0744606 -0.7729102
vn -0.6301312 -0.07446059 -0.7729102
vn -0.6301312 -0.07446059 -0.7729102
vn -0.6301312 -0.0744606 -0.7729102
vn -0.9805216 -0.1282414 -0.1487663
vn -0.9805216 -0.1282414 -0.1487663
vn -0.9805216 -0.1282414 -0.1487663
vn -0.9805216 -0.1282414 -0.1487663
vn -0.6716905 -0.09767004 0.7343653
vn -0.6716905 -0.09767004 0.7343653
vn -0.6716905 -0.09767004 0.7343653
vn -0.6716905 -0.09767004 0.7343653
vn -0.7732512 -0.109844 0.6245132
vn -0.7732512 -0.109844 0.6245133
vn -0.7732512 -0.109844 0.6245132
vn -0.7732512 -0.109844 0.6245132
vn 0.3689086 0.03800084 0.9286885
vn 0.3689086 0.03800084 0.9286885
vn 0.3689087 0.03800086 0.9286885
vn 0.3689086 0.03800084 0.9286885
vn 0.6331515 0.0748905 0.7703964
vn 0.6331515 0.0748905 0.7703964
vn 0.6331515 0.0748905 0.7703964
vn 0.6331515 0.0748905 0.7703964
vn 0.8958791 0.1137237 0.4294966
vn 0.8958791 0.1137237 0.4294966
vn 0.8958791 0.1137237 0.4294966
vn 0.8958791 0.1137237 0.4294966
vn 0.6914812 0.1000714 -0.7154295
vn 0.6914812 0.1000714 -0.7154295
vn 0.6914812 0.1000714 -0.7154295
vn 0.6914812 0.1000714 -0.7154295
vn 0.2945557 0.0502559 -0.9543119
vn 0.2945557 0.0502559 -0.9543119
vn 0.2945557 0.0502559 -0.9543119
vn 0.2945557 0.0502559 -0.9543119
vn 0.4077921 0.06475647 -0.9107755
vn 0.4077921 0.06475646 -0.9107755
vn 0.4077921 0.06475647 -0.9107755
vn 0.4077921 0.06475647 -0.9107755
vn -0.6417541 0.1384132 -0.7543165
vn -0.641754 0.1384132 -0.7543164
vn -0.641754 0.1384132 -0.7543164
vn -0.641754 0.1384132 -0.7543164
vn -0.9861456 0.09405467 -0.1366394
vn -0.9861456 0.09405468 -0.1366393
vn -0.9861456 0.09405468 -0.1366393
vn -0.9861456 0.09405468 -0.1366393
vn -0.6549596 0.1656932 0.7372743
vn -0.6549597 0.1656932 0.7372744
vn -0.6549597 0.1656932 0.7372743
vn -0.6549596 0.1656931 0.7372743
vn -0.8010217 0.1438644 0.5810914
vn -0.8010217 0.1438644 0.5810913
vn -0.8010217 0.1438643 0.5810914
vn -0.8010216 0.1438644 0.5810914
vn 0.3531813 0.2822787 0.8919538
vn 0.3531813 0.2822787 0.8919538
vn 0.3531812 0.2822787 0.8919538
vn 0.3531813 0.2822787 0.8919538
vn 0.5679519 0.3513022 0.7443233
vn 0.5679518 0.3513022 0.7443234
vn 0.5679518 0.3513022 0.7443234
vn 0.5679518 0.3513022 0.7443234
vn 0.829936 0.3494418 0.4348521
vn 0.829936 0.3494418 0.4348521
vn 0.829936 0.3494418 0.4348521
vn 0.829936 0.3494418 0.4348521
vn 0.6277208 0.2864259 -0.7238278
vn 0.6277208 0.2864259 -0.7238278
vn 0.6277208 0.2864259 -0.7238277
vn 0.6277208 0.2864259 -0.7238278
vn 0.2439427 0.2824833 -0.9277365
vn 0.2439428 0.2824832 -0.9277366
vn 0.2439428 0.2824832 -0.9277366
vn 0.2439428 0.2824832 -0.9277366
vn 0.406851 0.2441074 -0.8802748
vn 0.4068509 0.2441074 -0.8802748
vn 0.406851 0.2441074 -0.8802748
vn 0.406851 0.2441074 -0.8802748
vn -0.4505326 0.7893847 -0.4170029
vn -0.4505327 0.7893847 -0.4170029
vn -0.4505326 0.7893847 -0.4170029
vn -0.4505327 0.7893847 -0.4170029
vn -0.5701691 0.8201124 0.04818885
vn -0.5701691 0.8201123 0.04818885
vn -0.5701691 0.8201124 0.04818885
vn -0.5701691 0.8201124 0.04818882
vn -0.4559005 0.8122886 0.3637872
vn -0.4559006 0.8122886 0.3637872
vn -0.4559005 0.8122886 0.3637872
vn -0.4559006 0.8122886 0.3637872
vn -0.5751905 0.7314441 0.3662577
vn -0.5751905 0.7314442 0.3662577
vn -0.5751905 0.7314442 0.3662577
vn -0.5751905 0.7314442 0.3662577
vn 0.1049724 0.8332875 0.5427817
vn 0.1049724 0.8332876 0.5427817
vn 0.1049724 0.8332875 0.5427818
vn 0.1049724 0.8332875 0.5427817
vn 0.2459572 0.8567966 0.4532151
vn 0.2459572 0.8567965 0.4532151
vn 0.2459572 0.8567965 0.4532152
vn 0.2459572 0.8567965 0.4532151
vn 0.3895803 0.8726294 0.2945237
vn 0.3895803 0.8726294 0.2945237
vn 0.3895803 0.8726294 0.2945237
vn 0.3895803 0.8726294 0.2945237
vn 0.2430884 0.8411539 -0.483081
vn 0.2430884 0.841154 -0.4830811
vn 0.2430884 0.841154 -0.483081
vn 0.2430884 0.841154 -0.4830811
vn -0.05284686 0.8054793 -0.5902624
vn -0.0528469 0.8054793 -0.5902622
vn -0.05284689 0.8054793 -0.5902623
vn -0.05284684 0.8054793 -0.5902624
vn 0.3231496 0.7879917 -0.5240637
vn 0.3231496 0.7879918 -0.5240637
vn 0.3231496 0.7879917 -0.5240637
vn 0.3231496 0.7879917 -0.5240637
vn -0.3089051 0.9247625 -0.222241
vn -0.3089052 0.9247625 -0.222241
vn -0.3089051 0.9247625 -0.222241
vn -0.4769149 0.8609409 0.1770093
vn -0.4769149 0.8609408 0.1770093
vn -0.4769149 0.8609409 0.1770093
vn -0.4673193 0.8530963 0.2320319
vn -0.4673193 0.8530962 0.2320319
vn -0.4673193 0.8530963 0.2320319
vn -0.4286242 0.8573861 0.2849031
vn -0.4286242 0.8573861 0.2849032
vn -0.4286242 0.8573861 0.2849032
vn -0.02895474 0.9242899 0.3805903
vn -0.02895473 0.9242899 0.3805903
vn -0.02895474 0.9242899 0.3805903
vn 0.1159547 0.9417808 0.3155988
vn 0.1159546 0.9417809 0.3155989
vn 0.1159546 0.9417809 0.3155989
vn 0.1801731 0.9616976 0.206578
vn 0.1801731 0.9616976 0.206578
vn 0.1801731 0.9616976 0.206578
vn 0.0673041 0.9399886 -0.3345008
vn 0.06730411 0.9399886 -0.3345008
vn 0.06730413 0.9399885 -0.3345009
vn -0.1589537 0.8195647 -0.5504968
vn -0.1589537 0.8195647 -0.5504968
vn -0.1589538 0.8195648 -0.5504968
vn 0.3675398 0.8388789 -0.4014924
vn 0.3675398 0.8388789 -0.4014924
vn 0.3675398 0.8388789 -0.4014924

vt 0.5483398 0.007648468
vt 0.5 0.1500244
vt 0.6264648 0.06439209
vt 0.4516602 0.007648468
vt 0.3735352 0.06439209
vt 0.34375 0.15625
vt 0.3735352 0.2480469
vt 0.4516602 0.3049316
vt 0.5483398 0.3049316
vt 0.6264648 0.2480469
vt 0.65625 0.15625
vt 0 0
vt 0 1
vt 1 1
vt 1 0
vt 0 0
vt 0 1
vt 1 1
vt 1 0
vt 0 0
vt 0 1
vt 1 1
vt 1 0
vt 0 0
vt 0 1
vt 1 1
vt 1 0
vt 0 0
vt 0 1
vt 1 1
vt 1 0
vt 0 0
vt 0 1
vt 1 1
vt 1 0
vt 0 0
vt 0 1
vt 1 1
vt 1 0
vt 0 0
vt 0 1
vt 1 1
vt 1 0
vt 0 0
vt 0 1
vt 1 1
vt 1 0
vt 0 0
vt 0 1
vt 1 1
vt 1 0
vt 0 0
vt 0 1
vt 1 1
vt 1 0
vt 0 0
vt 0 1
vt 1 1
vt 1 0
vt 0 0
vt 0 1
vt 1 1
vt 1 0
vt 0 0
vt 0 1
vt 1 1
vt 1 0
vt 0 0
vt 0 1
vt 1 1
vt 1 0
vt 0 0
vt 0 1
vt 1 1
vt 1 0
vt 0 0
vt 0 1
vt 1 1
vt 1 0
vt 0 0
vt 0 1
vt 1 1
vt 1 0
vt 0 0
vt 0 1
vt 1 1
vt 1 0
vt 0 0
vt 0 1
vt 1 1
vt 1 0
vt 0 0
vt 0 1
vt 1 1
vt 1 0
vt 0 0
vt 0 1
vt 1 1
vt 1 0
vt 0 0
vt 0 1
vt 1 1
vt 1 0
vt 0 0
vt 0 1
vt 1 1
vt 1 0
vt 0 0
vt 0 1
vt 1 1
vt 1 0
vt 0 0
vt 0 1
vt 1 1
vt 1 0
vt 0 0
vt 0 1
vt 1 1
vt 1 0
vt 0 0
vt 0 1
vt 1 1
vt 1 0
vt 0 0
vt 0 1
vt 1 1
vt 1 0
vt 0 0
vt 0 1
vt 1 1
vt 1 0
vt 0 0
vt 0 1
vt 1 1
vt 1 0
vt 0 0
vt 0 1
vt 1 1
vt 1 0
vt 0 0
vt 0 1
vt 1 1
vt 1 0
vt 0 0
vt 0 1
vt 1 1
vt 1 0
vt 0 0
vt 0 1
vt 1 1
vt 1 0
vt 0 0
vt 0 1
vt 1 1
vt 1 0
vt 0 0
vt 0 1
vt 1 1
vt 1 0
vt 0 0
vt 0 1
vt 1 1
vt 1 0
vt 0 0
vt 0 1
vt 1 1
vt 1 0
vt 0 0
vt 0 1
vt 1 1
vt 1 0
vt 0 0
vt 0.5 1
vt 1 0
vt 0 0
vt 0.5 1
vt 1 0
vt 0 0
vt 0.5 1
vt 1 0
vt 0 0
vt 0.5 1
vt 1 0
vt 0 0
vt 0.5 1
vt 1 0
vt 0 0
vt 0.5 1
vt 1 0
vt 0 0
vt 0.5 1
vt 1 0
vt 0 0
vt 0.5 1
vt 1 0
vt 0 0
vt 0.5 1
vt 1 0
vt 0 0
vt 0.5 1
vt 1 0

g Foliage8_33_3485_173
usemtl Foliage8_33_3485_173
usemap Foliage8_33_3485_173
f 1/1/1 3/3/3 2/2/2
f 4/4/4 1/1/1 2/2/2
f 5/5/5 4/4/4 2/2/2
f 6/6/6 5/5/5 2/2/2
f 7/7/7 6/6/6 2/2/2
f 8/8/8 7/7/7 2/2/2
f 9/9/9 8/8/8 2/2/2
f 10/10/10 9/9/9 2/2/2
f 11/11/11 10/10/10 2/2/2
f 3/3/3 11/11/11 2/2/2
f 12/12/12 14/14/14 13/13/13
f 12/12/12 15/15/15 14/14/14
f 16/16/16 18/18/18 17/17/17
f 16/16/16 19/19/19 18/18/18
f 20/20/20 22/22/22 21/21/21
f 20/20/20 23/23/23 22/22/22
f 24/24/24 26/26/26 25/25/25
f 24/24/24 27/27/27 26/26/26
f 28/28/28 30/30/30 29/29/29
f 28/28/28 31/31/31 30/30/30
f 32/32/32 34/34/34 33/33/33
f 32/32/32 35/35/35 34/34/34
f 36/36/36 38/38/38 37/37/37
f 36/36/36 39/39/39 38/38/38
f 40/40/40 42/42/42 41/41/41
f 40/40/40 43/43/43 42/42/42
f 44/44/44 46/46/46 45/45/45
f 44/44/44 47/47/47 46/46/46
f 48/48/48 50/50/50 49/49/49
f 48/48/48 51/51/51 50/50/50
f 52/52/52 54/54/54 53/53/53
f 52/52/52 55/55/55 54/54/54
f 56/56/56 58/58/58 57/57/57
f 56/56/56 59/59/59 58/58/58
f 60/60/60 62/62/62 61/61/61
f 60/60/60 63/63/63 62/62/62
f 64/64/64 66/66/66 65/65/65
f 64/64/64 67/67/67 66/66/66
f 68/68/68 70/70/70 69/69/69
f 68/68/68 71/71/71 70/70/70
f 72/72/72 74/74/74 73/73/73
f 72/72/72 75/75/75 74/74/74
f 76/76/76 78/78/78 77/77/77
f 76/76/76 79/79/79 78/78/78
f 80/80/80 82/82/82 81/81/81
f 80/80/80 83/83/83 82/82/82
f 84/84/84 86/86/86 85/85/85
f 84/84/84 87/87/87 86/86/86
f 88/88/88 90/90/90 89/89/89
f 88/88/88 91/91/91 90/90/90
f 92/92/92 94/94/94 93/93/93
f 92/92/92 95/95/95 94/94/94
f 96/96/96 98/98/98 97/97/97
f 96/96/96 99/99/99 98/98/98
f 100/100/100 102/102/102 101/101/101
f 100/100/100 103/103/103 102/102/102
f 104/104/104 106/106/106 105/105/105
f 104/104/104 107/107/107 106/106/106
f 108/108/108 110/110/110 109/109/109
f 108/108/108 111/111/111 110/110/110
f 112/112/112 114/114/114 113/113/113
f 112/112/112 115/115/115 114/114/114
f 116/116/116 118/118/118 117/117/117
f 116/116/116 119/119/119 118/118/118
f 120/120/120 122/122/122 121/121/121
f 120/120/120 123/123/123 122/122/122
f 124/124/124 126/126/126 125/125/125
f 124/124/124 127/127/127 126/126/126
f 128/128/128 130/130/130 129/129/129
f 128/128/128 131/131/131 130/130/130
f 132/132/132 134/134/134 133/133/133
f 132/132/132 135/135/135 134/134/134
f 136/136/136 138/138/138 137/137/137
f 136/136/136 139/139/139 138/138/138
f 140/140/140 142/142/142 141/141/141
f 140/140/140 143/143/143 142/142/142
f 144/144/144 146/146/146 145/145/145
f 144/144/144 147/147/147 146/146/146
f 148/148/148 150/150/150 149/149/149
f 148/148/148 151/151/151 150/150/150
f 152/152/152 154/154/154 153/153/153
f 152/152/152 155/155/155 154/154/154
f 156/156/156 158/158/158 157/157/157
f 156/156/156 159/159/159 158/158/158
f 160/160/160 162/162/162 161/161/161
f 160/160/160 163/163/163 162/162/162
f 164/164/164 166/166/166 165/165/165
f 164/164/164 167/167/167 166/166/166
f 168/168/168 170/170/170 169/169/169
f 168/168/168 171/171/171 170/170/170
f 172/172/172 174/174/174 173/173/173
f 175/175/175 177/177/177 176/176/176
f 178/178/178 180/180/180 179/179/179
f 181/181/181 183/183/183 182/182/182
f 184/184/184 186/186/186 185/185/185
f 187/187/187 189/189/189 188/188/188
f 190/190/190 192/192/192 191/191/191
f 193/193/193 195/195/195 194/194/194
f 196/196/196 198/198/198 197/197/197
f 199/199/199 201/201/201 200/200/200
