#Foliage5_1_3482_102.obj

v 0.01454526 -0.02577556 -0.0403583
v 0.004623804 -0.03397597 0.001091399
v 0.03878445 -0.02577559 -0.02105478
v -0.009663465 -0.02577549 -0.03817539
v -0.01825085 -0.02577563 -0.01778041
v -0.03822221 -0.02223215 0.001091407
v -0.02135093 -0.02577555 0.0199632
v -0.005297656 -0.02577562 0.03271802
v 0.02109397 -0.02577555 0.0403582
v 0.03059851 -0.02577558 0.0199632
v 0.03218939 -0.02223214 0.001091431
v 0.03878445 -0.02577559 -0.02105478
v 0.04796681 -0.01489233 -0.02772614
v 0.01805259 -0.01489233 -0.05115279
v 0.01454526 -0.02577556 -0.0403583
v 0.01454526 -0.02577556 -0.0403583
v 0.01805259 -0.01489233 -0.05115279
v -0.01317085 -0.01489233 -0.04896988
v -0.009663465 -0.02577549 -0.03817539
v -0.009663465 -0.02577549 -0.03817539
v -0.01317085 -0.01489233 -0.04896988
v -0.02743324 -0.01489235 -0.02445179
v -0.01825085 -0.02577563 -0.01778041
v -0.01825085 -0.02577563 -0.01778041
v -0.02743324 -0.01489235 -0.02445179
v -0.04796696 -0.01288804 0.001091386
v -0.03822221 -0.02223215 0.001091407
v -0.03822221 -0.02223215 0.001091407
v -0.04796696 -0.01288804 0.001091386
v -0.03053332 -0.01489233 0.02663459
v -0.02135093 -0.02577555 0.0199632
v -0.02135093 -0.02577555 0.0199632
v -0.03053332 -0.01489233 0.02663459
v -0.008805005 -0.01489222 0.04351248
v -0.005297656 -0.02577562 0.03271802
v -0.005297656 -0.02577562 0.03271802
v -0.008805005 -0.01489222 0.04351248
v 0.02460135 -0.01489224 0.05115267
v 0.02109397 -0.02577555 0.0403582
v 0.02109397 -0.02577555 0.0403582
v 0.02460135 -0.01489224 0.05115267
v 0.03978093 -0.01489223 0.0266346
v 0.03059851 -0.02577558 0.0199632
v 0.03059851 -0.02577558 0.0199632
v 0.03978093 -0.01489223 0.0266346
v 0.04193421 -0.01288816 0.001091415
v 0.03218939 -0.02223214 0.001091431
v 0.03218939 -0.02223214 0.001091431
v 0.04193421 -0.01288816 0.001091415
v 0.04796681 -0.01489233 -0.02772614
v 0.03878445 -0.02577559 -0.02105478
v 0.04796681 -0.01489233 -0.02772614
v 0.04796685 -0.0001481684 -0.02772615
v 0.01805262 -0.000148173 -0.05115281
v 0.01805259 -0.01489233 -0.05115279
v 0.01805259 -0.01489233 -0.05115279
v 0.01805262 -0.000148173 -0.05115281
v -0.01317082 -0.0001481707 -0.0489699
v -0.01317085 -0.01489233 -0.04896988
v -0.01317085 -0.01489233 -0.04896988
v -0.01317082 -0.0001481707 -0.0489699
v -0.02743325 -0.0001481807 -0.0244518
v -0.02743324 -0.01489235 -0.02445179
v -0.02743324 -0.01489235 -0.02445179
v -0.02743325 -0.0001481807 -0.0244518
v -0.047967 -0.0002293952 0.001091416
v -0.04796696 -0.01288804 0.001091386
v -0.04796696 -0.01288804 0.001091386
v -0.047967 -0.0002293952 0.001091416
v -0.03053331 -0.0001481571 0.0266346
v -0.03053332 -0.01489233 0.02663459
v -0.03053332 -0.01489233 0.02663459
v -0.03053331 -0.0001481571 0.0266346
v -0.008804998 -0.0001482043 0.0435125
v -0.008805005 -0.01489222 0.04351248
v -0.008805005 -0.01489222 0.04351248
v -0.008804998 -0.0001482043 0.0435125
v 0.02460132 -0.0001482191 0.0511527
v 0.02460135 -0.01489224 0.05115267
v 0.02460135 -0.01489224 0.05115267
v 0.02460132 -0.0001482191 0.0511527
v 0.03978093 -0.0001482144 0.0266346
v 0.03978093 -0.01489223 0.0266346
v 0.03978093 -0.01489223 0.0266346
v 0.03978093 -0.0001482144 0.0266346
v 0.04193421 -0.0002293656 0.00109142
v 0.04193421 -0.01288816 0.001091415
v 0.04193421 -0.01288816 0.001091415
v 0.04193421 -0.0002293656 0.00109142
v 0.04796685 -0.0001481684 -0.02772615
v 0.04796681 -0.01489233 -0.02772614
v 0.04796685 -0.0001481684 -0.02772615
v 0.04568882 0.01428346 -0.02539684
v 0.01714502 0.0142834 -0.04799129
v 0.01805262 -0.000148173 -0.05115281
v 0.01805262 -0.000148173 -0.05115281
v 0.01714502 0.0142834 -0.04799129
v -0.01182919 0.01428343 -0.04559768
v -0.01317082 -0.0001481707 -0.0489699
v -0.01317082 -0.0001481707 -0.0489699
v -0.01182919 0.01428343 -0.04559768
v -0.02321035 0.0142834 -0.02180642
v -0.02743325 -0.0001481807 -0.0244518
v -0.02743325 -0.0001481807 -0.0244518
v -0.02321035 0.0142834 -0.02180642
v -0.04530417 0.01197218 0.001196753
v -0.047967 -0.0002293952 0.001091416
v -0.047967 -0.0002293952 0.001091416
v -0.04530417 0.01197218 0.001196753
v -0.02660967 0.01428347 0.02419996
v -0.03053331 -0.0001481571 0.0266346
v -0.03053331 -0.0001481571 0.0266346
v -0.02660967 0.01428347 0.02419996
v -0.007041942 0.01428342 0.03961353
v -0.008804998 -0.0001482043 0.0435125
v -0.008804998 -0.0001482043 0.0435125
v -0.007041942 0.01428342 0.03961353
v 0.0243259 0.01428349 0.04799118
v 0.02460132 -0.0001482191 0.0511527
v 0.02460132 -0.0001482191 0.0511527
v 0.0243259 0.01428349 0.04799118
v 0.03671276 0.01428352 0.02419994
v 0.03978093 -0.0001482144 0.0266346
v 0.03978093 -0.0001482144 0.0266346
v 0.03671276 0.01428352 0.02419994
v 0.03865192 0.01197221 0.001196761
v 0.04193421 -0.0002293656 0.00109142
v 0.04193421 -0.0002293656 0.00109142
v 0.03865192 0.01197221 0.001196761
v 0.04568882 0.01428346 -0.02539684
v 0.04796685 -0.0001481684 -0.02772615
v 0.04568882 0.01428346 -0.02539684
v 0.03225239 0.02437457 -0.01614772
v 0.01203639 0.02437448 -0.03256868
v 0.01714502 0.0142834 -0.04799129
v 0.01714502 0.0142834 -0.04799129
v 0.01203639 0.02437448 -0.03256868
v -0.002592327 0.02437447 -0.02139384
v -0.01182919 0.01428343 -0.04559768
v -0.01182919 0.01428343 -0.04559768
v -0.002592327 0.02437447 -0.02139384
v -0.01125318 0.02437454 -0.01279528
v -0.02321035 0.0142834 -0.02180642
v -0.02321035 0.0142834 -0.02180642
v -0.01125318 0.02437454 -0.01279528
v -0.03124478 0.02074654 0.001117433
v -0.04530417 0.01197218 0.001196753
v -0.04530417 0.01197218 0.001196753
v -0.03124478 0.02074654 0.001117433
v -0.01442719 0.02437451 0.01503017
v -0.02660967 0.01428347 0.02419996
v -0.02660967 0.01428347 0.02419996
v -0.01442719 0.02437451 0.01503017
v -0.002592328 0.02437446 0.02474619
v -0.007041942 0.01428342 0.03961353
v -0.007041942 0.01428342 0.03961353
v -0.002592328 0.02437446 0.02474619
v 0.01874126 0.02437455 0.03256856
v 0.0243259 0.01428349 0.04799118
v 0.0243259 0.01428349 0.04799118
v 0.01874126 0.02437455 0.03256856
v 0.02387129 0.02437455 0.01503015
v 0.03671276 0.01428352 0.02419994
v 0.03671276 0.01428352 0.02419994
v 0.02387129 0.02437455 0.01503015
v 0.02504409 0.02074654 0.001117447
v 0.03865192 0.01197221 0.001196761
v 0.03865192 0.01197221 0.001196761
v 0.02504409 0.02074654 0.001117447
v 0.03225239 0.02437457 -0.01614772
v 0.04568882 0.01428346 -0.02539684
v 0.03225239 0.02437457 -0.01614772
v 0.004623774 0.03397617 0.001091381
v 0.01203639 0.02437448 -0.03256868
v 0.01203639 0.02437448 -0.03256868
v 0.004623774 0.03397617 0.001091381
v -0.002592327 0.02437447 -0.02139384
v -0.002592327 0.02437447 -0.02139384
v 0.004623774 0.03397617 0.001091381
v -0.01125318 0.02437454 -0.01279528
v -0.01125318 0.02437454 -0.01279528
v 0.004623774 0.03397617 0.001091381
v -0.03124478 0.02074654 0.001117433
v -0.03124478 0.02074654 0.001117433
v 0.004623774 0.03397617 0.001091381
v -0.01442719 0.02437451 0.01503017
v -0.01442719 0.02437451 0.01503017
v 0.004623774 0.03397617 0.001091381
v -0.002592328 0.02437446 0.02474619
v -0.002592328 0.02437446 0.02474619
v 0.004623774 0.03397617 0.001091381
v 0.01874126 0.02437455 0.03256856
v 0.01874126 0.02437455 0.03256856
v 0.004623774 0.03397617 0.001091381
v 0.02387129 0.02437455 0.01503015
v 0.02387129 0.02437455 0.01503015
v 0.004623774 0.03397617 0.001091381
v 0.02504409 0.02074654 0.001117447
v 0.02504409 0.02074654 0.001117447
v 0.004623774 0.03397617 0.001091381
v 0.03225239 0.02437457 -0.01614772

vn 0.4064951 -0.9030041 -0.1390859
vn 0.2731928 -0.9618053 -0.0171993
vn 0.4570691 -0.888522 0.04019912
vn 0.2854353 -0.9350815 -0.2101157
vn 0.09944649 -0.9653586 -0.2412312
vn 0.0542331 -0.9836276 -0.1718574
vn 0.02263501 -0.9988316 -0.04268939
vn 0.0711571 -0.9905577 0.1171814
vn 0.224288 -0.9601929 0.1665049
vn 0.4802373 -0.8634681 0.1542549
vn 0.5188082 -0.8099762 0.2734521
vn 0.832718 -0.4915681 -0.2548361
vn 0.832718 -0.4915682 -0.2548361
vn 0.832718 -0.4915681 -0.254836
vn 0.832718 -0.4915682 -0.2548361
vn 0.5017313 -0.5769019 -0.6445538
vn 0.5017313 -0.576902 -0.6445538
vn 0.5017313 -0.5769019 -0.6445538
vn 0.5017313 -0.5769019 -0.6445538
vn -0.1972592 -0.7315863 -0.6525871
vn -0.1972593 -0.7315863 -0.6525871
vn -0.1972592 -0.7315863 -0.6525871
vn -0.1972593 -0.7315863 -0.6525871
vn -0.06577079 -0.7189654 -0.6919268
vn -0.06577091 -0.7189653 -0.6919269
vn -0.06577085 -0.7189653 -0.6919269
vn -0.06577088 -0.7189653 -0.6919268
vn -0.5025396 -0.8645212 -0.007518739
vn -0.5025396 -0.8645212 -0.007518739
vn -0.5025396 -0.8645211 -0.007518768
vn -0.5025396 -0.8645213 -0.007518739
vn -0.4493019 -0.8629076 0.2313393
vn -0.449302 -0.8629076 0.2313393
vn -0.4493019 -0.8629076 0.2313393
vn -0.4493018 -0.8629076 0.2313393
vn -0.3093941 -0.8166797 0.4871438
vn -0.3093941 -0.8166798 0.4871438
vn -0.3093941 -0.8166798 0.4871438
vn -0.3093941 -0.8166797 0.4871438
vn 0.5365028 -0.554531 0.6361289
vn 0.5365027 -0.5545311 0.6361288
vn 0.5365027 -0.5545311 0.6361288
vn 0.5365028 -0.554531 0.6361289
vn 0.7981985 -0.486885 0.3547142
vn 0.7981985 -0.486885 0.3547142
vn 0.7981985 -0.486885 0.3547142
vn 0.7981985 -0.486885 0.3547142
vn 0.6533074 -0.466414 0.5963618
vn 0.6533074 -0.4664138 0.5963618
vn 0.6533074 -0.466414 0.5963618
vn 0.6533074 -0.4664139 0.5963618
vn 0.9017801 0.2612171 -0.3443228
vn 0.9017801 0.2612171 -0.3443227
vn 0.9017801 0.2612171 -0.3443227
vn 0.9017801 0.2612171 -0.3443228
vn 0.4443489 0.1421371 -0.8845061
vn 0.4443489 0.1421371 -0.8845061
vn 0.4443489 0.1421371 -0.8845061
vn 0.4443489 0.1421371 -0.8845061
vn -0.4564579 -0.1123748 -0.88262
vn -0.4564579 -0.1123748 -0.88262
vn -0.4564579 -0.1123748 -0.88262
vn -0.4564579 -0.1123748 -0.88262
vn -0.3245077 -0.07396555 -0.9429866
vn -0.3245077 -0.07396556 -0.9429867
vn -0.3245077 -0.07396555 -0.9429866
vn -0.3245077 -0.07396555 -0.9429866
vn -0.9611876 -0.2723606 0.0440228
vn -0.9611876 -0.2723606 0.0440228
vn -0.9611877 -0.2723607 0.04402292
vn -0.9611876 -0.2723606 0.0440228
vn -0.9004449 -0.2609095 0.3480306
vn -0.9004449 -0.2609095 0.3480306
vn -0.9004449 -0.2609095 0.3480306
vn -0.9004449 -0.2609095 0.3480306
vn -0.6730862 -0.2034972 0.7110159
vn -0.6730862 -0.2034972 0.7110159
vn -0.6730862 -0.2034972 0.7110159
vn -0.6730862 -0.2034972 0.7110159
vn 0.4329931 0.1055098 0.895201
vn 0.4329931 0.1055098 0.895201
vn 0.4329931 0.1055098 0.895201
vn 0.4329931 0.1055098 0.895201
vn 0.7754171 0.2078576 0.5962579
vn 0.7754171 0.2078576 0.5962579
vn 0.7754171 0.2078576 0.5962579
vn 0.7754171 0.2078576 0.5962579
vn 0.7001222 0.1848325 0.6896853
vn 0.7001222 0.1848326 0.6896853
vn 0.7001222 0.1848325 0.6896853
vn 0.7001222 0.1848325 0.6896853
vn 0.8241382 0.460139 -0.3302552
vn 0.8241381 0.460139 -0.3302551
vn 0.8241381 0.460139 -0.3302551
vn 0.8241381 0.460139 -0.3302551
vn 0.3681347 0.3501009 -0.8613397
vn 0.3681347 0.3501009 -0.8613397
vn 0.3681347 0.3501009 -0.8613397
vn 0.3681347 0.3501009 -0.8613397
vn -0.5427287 0.1313306 -0.8295768
vn -0.5427288 0.1313306 -0.8295769
vn -0.5427287 0.1313306 -0.8295768
vn -0.5427287 0.1313306 -0.8295768
vn -0.3533124 0.1820644 -0.9176181
vn -0.3533123 0.1820644 -0.917618
vn -0.3533123 0.1820644 -0.9176181
vn -0.3533124 0.1820644 -0.917618
vn -0.9965872 -0.02961703 0.07705131
vn -0.9965872 -0.029617 0.07705131
vn -0.9965872 -0.02961702 0.07705128
vn -0.9965872 -0.02961704 0.07705131
vn -0.9415988 0.02104387 0.3360786
vn -0.9415988 0.02104387 0.3360785
vn -0.9415989 0.02104389 0.3360786
vn -0.9415989 0.02104389 0.3360786
vn -0.7305324 0.03273077 0.6820931
vn -0.7305324 0.03273077 0.6820931
vn -0.7305324 0.03273077 0.6820931
vn -0.7305324 0.03273077 0.6820931
vn 0.4023163 0.297992 0.8656456
vn 0.4023163 0.297992 0.8656456
vn 0.4023163 0.297992 0.8656456
vn 0.4023163 0.297992 0.8656456
vn 0.6954159 0.4321526 0.5741436
vn 0.6954159 0.4321526 0.5741436
vn 0.6954159 0.4321526 0.5741436
vn 0.6954159 0.4321526 0.5741436
vn 0.6187202 0.3468195 0.7049123
vn 0.6187202 0.3468196 0.7049123
vn 0.6187202 0.3468196 0.7049123
vn 0.6187202 0.3468196 0.7049123
vn 0.2681161 0.9486265 -0.167991
vn 0.2681161 0.9486265 -0.167991
vn 0.2681161 0.9486265 -0.167991
vn 0.2681161 0.9486265 -0.167991
vn -0.133033 0.8938135 -0.4282513
vn -0.133033 0.8938135 -0.4282513
vn -0.133033 0.8938135 -0.4282513
vn -0.133033 0.8938136 -0.4282513
vn -0.4503983 0.7842799 -0.4266683
vn -0.4503983 0.7842799 -0.4266683
vn -0.4503983 0.7842799 -0.4266683
vn -0.4503983 0.7842799 -0.4266683
vn -0.3955534 0.7351342 -0.5505585
vn -0.3955534 0.7351343 -0.5505585
vn -0.3955534 0.7351343 -0.5505585
vn -0.3955534 0.7351343 -0.5505585
vn -0.774626 0.6311057 0.04074217
vn -0.774626 0.6311057 0.0407422
vn -0.774626 0.6311057 0.04074219
vn -0.774626 0.6311057 0.04074217
vn -0.7386971 0.6420484 0.2051835
vn -0.7386971 0.6420484 0.2051834
vn -0.7386971 0.6420483 0.2051835
vn -0.7386971 0.6420484 0.2051834
vn -0.6380579 0.6617143 0.3937206
vn -0.6380579 0.6617143 0.3937206
vn -0.6380579 0.6617143 0.3937206
vn -0.6380579 0.6617143 0.3937206
vn 0.1219359 0.8524308 0.5084218
vn 0.121936 0.8524309 0.5084219
vn 0.121936 0.8524309 0.5084219
vn 0.121936 0.8524309 0.5084219
vn 0.3120214 0.9131178 0.2624081
vn 0.3120213 0.9131178 0.262408
vn 0.3120213 0.9131178 0.262408
vn 0.3120214 0.9131178 0.2624081
vn 0.1532687 0.7935727 0.5888555
vn 0.1532688 0.7935727 0.5888555
vn 0.1532687 0.7935727 0.5888555
vn 0.1532687 0.7935727 0.5888555
vn 0.01062158 0.9967192 -0.08023317
vn 0.01062159 0.9967192 -0.08023321
vn 0.01062158 0.9967192 -0.08023317
vn -0.2886165 0.8797967 -0.3777008
vn -0.2886165 0.8797967 -0.3777008
vn -0.2886164 0.8797967 -0.3777008
vn -0.3391594 0.8569853 -0.3880036
vn -0.3391594 0.8569853 -0.3880036
vn -0.3391594 0.8569853 -0.3880036
vn -0.3993908 0.8393814 -0.3686809
vn -0.3993908 0.8393813 -0.3686809
vn -0.3993908 0.8393813 -0.3686809
vn -0.6169119 0.7868363 -0.01755208
vn -0.6169118 0.7868363 -0.01755205
vn -0.6169119 0.7868363 -0.01755208
vn -0.6027036 0.7853038 0.1415841
vn -0.6027036 0.7853038 0.1415841
vn -0.6027036 0.7853038 0.1415841
vn -0.5267898 0.8153248 0.240286
vn -0.5267898 0.8153248 0.240286
vn -0.5267898 0.8153248 0.240286
vn 0.004988465 0.9507481 0.3099237
vn 0.004988525 0.9507481 0.3099237
vn 0.004988566 0.950748 0.3099238
vn 0.3006952 0.9414682 0.1523793
vn 0.3006952 0.9414682 0.1523792
vn 0.3006951 0.9414683 0.1523792
vn 0.01383092 0.8018676 0.5973414
vn 0.01383087 0.8018676 0.5973414
vn 0.0138309 0.8018676 0.5973415

vt 0.5483398 0.007648468
vt 0.5 0.1500244
vt 0.6264648 0.06439209
vt 0.4516602 0.007648468
vt 0.3735352 0.06439209
vt 0.34375 0.15625
vt 0.3735352 0.2480469
vt 0.4516602 0.3049316
vt 0.5483398 0.3049316
vt 0.6264648 0.2480469
vt 0.65625 0.15625
vt 0 0
vt 0 1
vt 1 1
vt 1 0
vt 0 0
vt 0 1
vt 1 1
vt 1 0
vt 0 0
vt 0 1
vt 1 1
vt 1 0
vt 0 0
vt 0 1
vt 1 1
vt 1 0
vt 0 0
vt 0 1
vt 1 1
vt 1 0
vt 0 0
vt 0 1
vt 1 1
vt 1 0
vt 0 0
vt 0 1
vt 1 1
vt 1 0
vt 0 0
vt 0 1
vt 1 1
vt 1 0
vt 0 0
vt 0 1
vt 1 1
vt 1 0
vt 0 0
vt 0 1
vt 1 1
vt 1 0
vt 0 0
vt 0 1
vt 1 1
vt 1 0
vt 0 0
vt 0 1
vt 1 1
vt 1 0
vt 0 0
vt 0 1
vt 1 1
vt 1 0
vt 0 0
vt 0 1
vt 1 1
vt 1 0
vt 0 0
vt 0 1
vt 1 1
vt 1 0
vt 0 0
vt 0 1
vt 1 1
vt 1 0
vt 0 0
vt 0 1
vt 1 1
vt 1 0
vt 0 0
vt 0 1
vt 1 1
vt 1 0
vt 0 0
vt 0 1
vt 1 1
vt 1 0
vt 0 0
vt 0 1
vt 1 1
vt 1 0
vt 0 0
vt 0 1
vt 1 1
vt 1 0
vt 0 0
vt 0 1
vt 1 1
vt 1 0
vt 0 0
vt 0 1
vt 1 1
vt 1 0
vt 0 0
vt 0 1
vt 1 1
vt 1 0
vt 0 0
vt 0 1
vt 1 1
vt 1 0
vt 0 0
vt 0 1
vt 1 1
vt 1 0
vt 0 0
vt 0 1
vt 1 1
vt 1 0
vt 0 0
vt 0 1
vt 1 1
vt 1 0
vt 0 0
vt 0 1
vt 1 1
vt 1 0
vt 0 0
vt 0 1
vt 1 1
vt 1 0
vt 0 0
vt 0 1
vt 1 1
vt 1 0
vt 0 0
vt 0 1
vt 1 1
vt 1 0
vt 0 0
vt 0 1
vt 1 1
vt 1 0
vt 0 0
vt 0 1
vt 1 1
vt 1 0
vt 0 0
vt 0 1
vt 1 1
vt 1 0
vt 0 0
vt 0 1
vt 1 1
vt 1 0
vt 0 0
vt 0 1
vt 1 1
vt 1 0
vt 0 0
vt 0 1
vt 1 1
vt 1 0
vt 0 0
vt 0 1
vt 1 1
vt 1 0
vt 0 0
vt 0 1
vt 1 1
vt 1 0
vt 0 0
vt 0.5 1
vt 1 0
vt 0 0
vt 0.5 1
vt 1 0
vt 0 0
vt 0.5 1
vt 1 0
vt 0 0
vt 0.5 1
vt 1 0
vt 0 0
vt 0.5 1
vt 1 0
vt 0 0
vt 0.5 1
vt 1 0
vt 0 0
vt 0.5 1
vt 1 0
vt 0 0
vt 0.5 1
vt 1 0
vt 0 0
vt 0.5 1
vt 1 0
vt 0 0
vt 0.5 1
vt 1 0

g Foliage5_1_3482_102
usemtl Foliage5_1_3482_102
usemap Foliage5_1_3482_102
f 1/1/1 3/3/3 2/2/2
f 4/4/4 1/1/1 2/2/2
f 5/5/5 4/4/4 2/2/2
f 6/6/6 5/5/5 2/2/2
f 7/7/7 6/6/6 2/2/2
f 8/8/8 7/7/7 2/2/2
f 9/9/9 8/8/8 2/2/2
f 10/10/10 9/9/9 2/2/2
f 11/11/11 10/10/10 2/2/2
f 3/3/3 11/11/11 2/2/2
f 12/12/12 14/14/14 13/13/13
f 12/12/12 15/15/15 14/14/14
f 16/16/16 18/18/18 17/17/17
f 16/16/16 19/19/19 18/18/18
f 20/20/20 22/22/22 21/21/21
f 20/20/20 23/23/23 22/22/22
f 24/24/24 26/26/26 25/25/25
f 24/24/24 27/27/27 26/26/26
f 28/28/28 30/30/30 29/29/29
f 28/28/28 31/31/31 30/30/30
f 32/32/32 34/34/34 33/33/33
f 32/32/32 35/35/35 34/34/34
f 36/36/36 38/38/38 37/37/37
f 36/36/36 39/39/39 38/38/38
f 40/40/40 42/42/42 41/41/41
f 40/40/40 43/43/43 42/42/42
f 44/44/44 46/46/46 45/45/45
f 44/44/44 47/47/47 46/46/46
f 48/48/48 50/50/50 49/49/49
f 48/48/48 51/51/51 50/50/50
f 52/52/52 54/54/54 53/53/53
f 52/52/52 55/55/55 54/54/54
f 56/56/56 58/58/58 57/57/57
f 56/56/56 59/59/59 58/58/58
f 60/60/60 62/62/62 61/61/61
f 60/60/60 63/63/63 62/62/62
f 64/64/64 66/66/66 65/65/65
f 64/64/64 67/67/67 66/66/66
f 68/68/68 70/70/70 69/69/69
f 68/68/68 71/71/71 70/70/70
f 72/72/72 74/74/74 73/73/73
f 72/72/72 75/75/75 74/74/74
f 76/76/76 78/78/78 77/77/77
f 76/76/76 79/79/79 78/78/78
f 80/80/80 82/82/82 81/81/81
f 80/80/80 83/83/83 82/82/82
f 84/84/84 86/86/86 85/85/85
f 84/84/84 87/87/87 86/86/86
f 88/88/88 90/90/90 89/89/89
f 88/88/88 91/91/91 90/90/90
f 92/92/92 94/94/94 93/93/93
f 92/92/92 95/95/95 94/94/94
f 96/96/96 98/98/98 97/97/97
f 96/96/96 99/99/99 98/98/98
f 100/100/100 102/102/102 101/101/101
f 100/100/100 103/103/103 102/102/102
f 104/104/104 106/106/106 105/105/105
f 104/104/104 107/107/107 106/106/106
f 108/108/108 110/110/110 109/109/109
f 108/108/108 111/111/111 110/110/110
f 112/112/112 114/114/114 113/113/113
f 112/112/112 115/115/115 114/114/114
f 116/116/116 118/118/118 117/117/117
f 116/116/116 119/119/119 118/118/118
f 120/120/120 122/122/122 121/121/121
f 120/120/120 123/123/123 122/122/122
f 124/124/124 126/126/126 125/125/125
f 124/124/124 127/127/127 126/126/126
f 128/128/128 130/130/130 129/129/129
f 128/128/128 131/131/131 130/130/130
f 132/132/132 134/134/134 133/133/133
f 132/132/132 135/135/135 134/134/134
f 136/136/136 138/138/138 137/137/137
f 136/136/136 139/139/139 138/138/138
f 140/140/140 142/142/142 141/141/141
f 140/140/140 143/143/143 142/142/142
f 144/144/144 146/146/146 145/145/145
f 144/144/144 147/147/147 146/146/146
f 148/148/148 150/150/150 149/149/149
f 148/148/148 151/151/151 150/150/150
f 152/152/152 154/154/154 153/153/153
f 152/152/152 155/155/155 154/154/154
f 156/156/156 158/158/158 157/157/157
f 156/156/156 159/159/159 158/158/158
f 160/160/160 162/162/162 161/161/161
f 160/160/160 163/163/163 162/162/162
f 164/164/164 166/166/166 165/165/165
f 164/164/164 167/167/167 166/166/166
f 168/168/168 170/170/170 169/169/169
f 168/168/168 171/171/171 170/170/170
f 172/172/172 174/174/174 173/173/173
f 175/175/175 177/177/177 176/176/176
f 178/178/178 180/180/180 179/179/179
f 181/181/181 183/183/183 182/182/182
f 184/184/184 186/186/186 185/185/185
f 187/187/187 189/189/189 188/188/188
f 190/190/190 192/192/192 191/191/191
f 193/193/193 195/195/195 194/194/194
f 196/196/196 198/198/198 197/197/197
f 199/199/199 201/201/201 200/200/200
