#Foliage8_23_3328_101.obj

v 0.01454664 -0.0257752 -0.04036287
v 0.004625201 -0.03397577 0.00108764
v 0.03878583 -0.0257753 -0.021059
v -0.009662079 -0.02577532 -0.03817942
v -0.01824945 -0.02577538 -0.01778387
v -0.0382208 -0.02223193 0.001087523
v -0.02134954 -0.02577523 0.01995872
v -0.005296257 -0.02577523 0.03271408
v 0.02109538 -0.0257753 0.04035407
v 0.03059991 -0.02577532 0.01995876
v 0.03219082 -0.02223186 0.001087354
v 0.03878583 -0.0257753 -0.021059
v 0.04796825 -0.01489204 -0.02772966
v 0.01805401 -0.01489204 -0.05115696
v 0.01454664 -0.0257752 -0.04036287
v 0.01454664 -0.0257752 -0.04036287
v 0.01805401 -0.01489204 -0.05115696
v -0.01316943 -0.01489211 -0.04897334
v -0.009662079 -0.02577532 -0.03817942
v -0.009662079 -0.02577532 -0.03817942
v -0.01316943 -0.01489211 -0.04897334
v -0.02743185 -0.01489206 -0.02445525
v -0.01824945 -0.02577538 -0.01778387
v -0.01824945 -0.02577538 -0.01778387
v -0.02743185 -0.01489206 -0.02445525
v -0.0479656 -0.01288775 0.001086992
v -0.0382208 -0.02223193 0.001087523
v -0.0382208 -0.02223193 0.001087523
v -0.0479656 -0.01288775 0.001086992
v -0.03053193 -0.014892 0.02663022
v -0.02134954 -0.02577523 0.01995872
v -0.02134954 -0.02577523 0.01995872
v -0.03053193 -0.014892 0.02663022
v -0.008803602 -0.01489207 0.04350899
v -0.005296257 -0.02577523 0.03271408
v -0.005296257 -0.02577523 0.03271408
v -0.008803602 -0.01489207 0.04350899
v 0.02460274 -0.01489202 0.05114885
v 0.02109538 -0.0257753 0.04035407
v 0.02109538 -0.0257753 0.04035407
v 0.02460274 -0.01489202 0.05114885
v 0.03978232 -0.01489214 0.02663099
v 0.03059991 -0.02577532 0.01995876
v 0.03059991 -0.02577532 0.01995876
v 0.03978232 -0.01489214 0.02663099
v 0.04193562 -0.01288773 0.001087082
v 0.03219082 -0.02223186 0.001087354
v 0.03219082 -0.02223186 0.001087354
v 0.04193562 -0.01288773 0.001087082
v 0.04796825 -0.01489204 -0.02772966
v 0.03878583 -0.0257753 -0.021059
v 0.04796825 -0.01489204 -0.02772966
v 0.04796823 -0.0001478604 -0.02773048
v 0.01805401 -0.0001480333 -0.05115647
v 0.01805401 -0.01489204 -0.05115696
v 0.01805401 -0.01489204 -0.05115696
v 0.01805401 -0.0001480333 -0.05115647
v -0.01316943 -0.0001479334 -0.04897417
v -0.01316943 -0.01489211 -0.04897334
v -0.01316943 -0.01489211 -0.04897334
v -0.01316943 -0.0001479334 -0.04897417
v -0.02743185 -0.0001478872 -0.02445608
v -0.02743185 -0.01489206 -0.02445525
v -0.02743185 -0.01489206 -0.02445525
v -0.02743185 -0.0001478872 -0.02445608
v -0.0479656 -0.0002290873 0.001087031
v -0.0479656 -0.01288775 0.001086992
v -0.0479656 -0.01288775 0.001086992
v -0.0479656 -0.0002290873 0.001087031
v -0.03053193 -0.000147994 0.02663071
v -0.03053193 -0.014892 0.02663022
v -0.03053193 -0.014892 0.02663022
v -0.03053193 -0.000147994 0.02663071
v -0.008803615 -0.0001478892 0.04350816
v -0.008803602 -0.01489207 0.04350899
v -0.008803602 -0.01489207 0.04350899
v -0.008803615 -0.0001478892 0.04350816
v 0.02460274 -0.0001480073 0.05114933
v 0.02460274 -0.01489202 0.05114885
v 0.02460274 -0.01489202 0.05114885
v 0.02460274 -0.0001480073 0.05114933
v 0.03978232 -0.0001479636 0.02663017
v 0.03978232 -0.01489214 0.02663099
v 0.03978232 -0.01489214 0.02663099
v 0.03978232 -0.0001479636 0.02663017
v 0.04193562 -0.0002290726 0.001087121
v 0.04193562 -0.01288773 0.001087082
v 0.04193562 -0.01288773 0.001087082
v 0.04193562 -0.0002290726 0.001087121
v 0.04796823 -0.0001478604 -0.02773048
v 0.04796825 -0.01489204 -0.02772966
v 0.04796823 -0.0001478604 -0.02773048
v 0.04569023 0.01428378 -0.02540112
v 0.01714645 0.0142837 -0.04799516
v 0.01805401 -0.0001480333 -0.05115647
v 0.01805401 -0.0001480333 -0.05115647
v 0.01714645 0.0142837 -0.04799516
v -0.01182778 0.01428377 -0.0456021
v -0.01316943 -0.0001479334 -0.04897417
v -0.01316943 -0.0001479334 -0.04897417
v -0.01182778 0.01428377 -0.0456021
v -0.02320895 0.01428366 -0.02181024
v -0.02743185 -0.0001478872 -0.02445608
v -0.02743185 -0.0001478872 -0.02445608
v -0.02320895 0.01428366 -0.02181024
v -0.04530277 0.01197237 0.00119294
v -0.0479656 -0.0002290873 0.001087031
v -0.0479656 -0.0002290873 0.001087031
v -0.04530277 0.01197237 0.00119294
v -0.02660827 0.01428366 0.02419588
v -0.03053193 -0.000147994 0.02663071
v -0.03053193 -0.000147994 0.02663071
v -0.02660827 0.01428366 0.02419588
v -0.007040542 0.01428359 0.03961007
v -0.008803615 -0.0001478892 0.04350816
v -0.008803615 -0.0001478892 0.04350816
v -0.007040542 0.01428359 0.03961007
v 0.02432729 0.0142836 0.04798777
v 0.02460274 -0.0001480073 0.05114933
v 0.02460274 -0.0001480073 0.05114933
v 0.02432729 0.0142836 0.04798777
v 0.03671417 0.01428367 0.0241966
v 0.03978232 -0.0001479636 0.02663017
v 0.03978232 -0.0001479636 0.02663017
v 0.03671417 0.01428367 0.0241966
v 0.03865334 0.01197241 0.00119326
v 0.04193562 -0.0002290726 0.001087121
v 0.04193562 -0.0002290726 0.001087121
v 0.03865334 0.01197241 0.00119326
v 0.04569023 0.01428378 -0.02540112
v 0.04796823 -0.0001478604 -0.02773048
v 0.04569023 0.01428378 -0.02540112
v 0.03225379 0.02437484 -0.016152
v 0.01203778 0.02437481 -0.03257306
v 0.01714645 0.0142837 -0.04799516
v 0.01714645 0.0142837 -0.04799516
v 0.01203778 0.02437481 -0.03257306
v -0.002590906 0.02437488 -0.02139824
v -0.01182778 0.01428377 -0.0456021
v -0.01182778 0.01428377 -0.0456021
v -0.002590906 0.02437488 -0.02139824
v -0.0112518 0.02437467 -0.01279902
v -0.02320895 0.01428366 -0.02181024
v -0.02320895 0.01428366 -0.02181024
v -0.0112518 0.02437467 -0.01279902
v -0.03124339 0.02074679 0.001113426
v -0.04530277 0.01197237 0.00119294
v -0.04530277 0.01197237 0.00119294
v -0.03124339 0.02074679 0.001113426
v -0.01442579 0.02437481 0.01502601
v -0.02660827 0.01428366 0.02419588
v -0.02660827 0.01428366 0.02419588
v -0.01442579 0.02437481 0.01502601
v -0.002590904 0.02437483 0.02474201
v -0.007040542 0.01428359 0.03961007
v -0.007040542 0.01428359 0.03961007
v -0.002590904 0.02437483 0.02474201
v 0.01874268 0.02437472 0.03256519
v 0.02432729 0.0142836 0.04798777
v 0.02432729 0.0142836 0.04798777
v 0.01874268 0.02437472 0.03256519
v 0.02387268 0.02437473 0.0150266
v 0.03671417 0.01428367 0.0241966
v 0.03671417 0.01428367 0.0241966
v 0.02387268 0.02437473 0.0150266
v 0.02504552 0.02074692 0.001113167
v 0.03865334 0.01197241 0.00119326
v 0.03865334 0.01197241 0.00119326
v 0.02504552 0.02074692 0.001113167
v 0.03225379 0.02437484 -0.016152
v 0.04569023 0.01428378 -0.02540112
v 0.03225379 0.02437484 -0.016152
v 0.004625188 0.03397647 0.001086957
v 0.01203778 0.02437481 -0.03257306
v 0.01203778 0.02437481 -0.03257306
v 0.004625188 0.03397647 0.001086957
v -0.002590906 0.02437488 -0.02139824
v -0.002590906 0.02437488 -0.02139824
v 0.004625188 0.03397647 0.001086957
v -0.0112518 0.02437467 -0.01279902
v -0.0112518 0.02437467 -0.01279902
v 0.004625188 0.03397647 0.001086957
v -0.03124339 0.02074679 0.001113426
v -0.03124339 0.02074679 0.001113426
v 0.004625188 0.03397647 0.001086957
v -0.01442579 0.02437481 0.01502601
v -0.01442579 0.02437481 0.01502601
v 0.004625188 0.03397647 0.001086957
v -0.002590904 0.02437483 0.02474201
v -0.002590904 0.02437483 0.02474201
v 0.004625188 0.03397647 0.001086957
v 0.01874268 0.02437472 0.03256519
v 0.01874268 0.02437472 0.03256519
v 0.004625188 0.03397647 0.001086957
v 0.02387268 0.02437473 0.0150266
v 0.02387268 0.02437473 0.0150266
v 0.004625188 0.03397647 0.001086957
v 0.02504552 0.02074692 0.001113167
v 0.02504552 0.02074692 0.001113167
v 0.004625188 0.03397647 0.001086957
v 0.03225379 0.02437484 -0.016152

vn -0.05391614 -0.9935163 -0.1000875
vn 0.1262538 -0.9911929 -0.03994724
vn 0.07066004 -0.9689001 -0.2371473
vn -0.04989523 -0.9977944 0.04377074
vn 0.01702406 -0.9750786 0.2212038
vn 0.1013838 -0.9686248 0.2269063
vn 0.2292628 -0.9546497 0.1899519
vn 0.3400668 -0.9381006 0.06573381
vn 0.3035209 -0.9482225 -0.09353282
vn 0.1496491 -0.9356046 -0.3197629
vn 0.2181081 -0.8793709 -0.4232433
vn -0.4599158 -0.7503768 -0.4747754
vn -0.4599158 -0.7503768 -0.4747753
vn -0.4599158 -0.7503768 -0.4747754
vn -0.4599158 -0.7503768 -0.4747753
vn -0.6149614 -0.7883418 0.01841168
vn -0.6149613 -0.7883419 0.01841168
vn -0.6149614 -0.7883418 0.01841169
vn -0.6149614 -0.7883419 0.01841168
vn -0.2600517 -0.7256485 0.6370296
vn -0.2600517 -0.7256485 0.6370297
vn -0.2600517 -0.7256485 0.6370296
vn -0.2600517 -0.7256485 0.6370297
vn -0.3568216 -0.7589304 0.544704
vn -0.3568216 -0.7589303 0.5447041
vn -0.3568216 -0.7589303 0.544704
vn -0.3568215 -0.7589303 0.544704
vn 0.4616212 -0.6653553 0.5866922
vn 0.4616212 -0.6653553 0.5866922
vn 0.4616212 -0.6653553 0.5866922
vn 0.4616213 -0.6653553 0.5866922
vn 0.6389258 -0.6449854 0.419246
vn 0.6389258 -0.6449854 0.4192461
vn 0.6389257 -0.6449854 0.419246
vn 0.6389257 -0.6449854 0.419246
vn 0.7786955 -0.6060861 0.1621499
vn 0.7786955 -0.6060861 0.16215
vn 0.7786955 -0.6060861 0.1621499
vn 0.7786955 -0.6060861 0.1621499
vn 0.4463064 -0.5909923 -0.6719661
vn 0.4463064 -0.5909923 -0.6719661
vn 0.4463064 -0.5909923 -0.6719661
vn 0.4463064 -0.5909922 -0.6719662
vn 0.0701558 -0.6467493 -0.7594689
vn 0.0701558 -0.6467493 -0.7594689
vn 0.0701558 -0.6467493 -0.7594689
vn 0.07015579 -0.6467493 -0.7594689
vn 0.3350375 -0.5487583 -0.7659071
vn 0.3350375 -0.5487582 -0.7659072
vn 0.3350375 -0.5487583 -0.7659071
vn 0.3350375 -0.5487583 -0.7659071
vn -0.7749185 -0.0744606 -0.6276599
vn -0.7749185 -0.0744606 -0.6276599
vn -0.7749185 -0.0744606 -0.6276599
vn -0.7749185 -0.0744606 -0.6276599
vn -0.9902187 -0.1282414 0.05496365
vn -0.9902187 -0.1282414 0.05496365
vn -0.9902187 -0.1282414 0.05496365
vn -0.9902187 -0.1282414 0.05496365
vn -0.5072576 -0.09767005 0.8562419
vn -0.5072576 -0.09767005 0.8562419
vn -0.5072576 -0.09767005 0.8562419
vn -0.5072576 -0.09767005 0.8562419
vn -0.6291429 -0.109844 0.769489
vn -0.6291429 -0.109844 0.7694891
vn -0.6291429 -0.109844 0.769489
vn -0.6291429 -0.109844 0.769489
vn 0.5510874 0.03800086 0.8335817
vn 0.5510874 0.03800086 0.8335817
vn 0.5510875 0.03800087 0.8335817
vn 0.5510874 0.03800086 0.8335817
vn 0.7773606 0.07489052 0.6245813
vn 0.7773606 0.07489052 0.6245813
vn 0.7773606 0.07489052 0.6245813
vn 0.7773606 0.07489052 0.6245813
vn 0.9647948 0.1137237 0.237145
vn 0.9647948 0.1137237 0.237145
vn 0.9647948 0.1137237 0.237145
vn 0.9647948 0.1137237 0.237145
vn 0.5305036 0.1000714 -0.8417551
vn 0.5305036 0.1000714 -0.8417551
vn 0.5305036 0.1000714 -0.8417551
vn 0.5305036 0.1000714 -0.8417551
vn 0.09310434 0.0502559 -0.9943872
vn 0.09310435 0.0502559 -0.9943872
vn 0.09310434 0.0502559 -0.9943872
vn 0.09310435 0.0502559 -0.9943872
vn 0.2128522 0.06475647 -0.9749362
vn 0.2128522 0.06475647 -0.9749362
vn 0.2128522 0.06475647 -0.9749362
vn 0.2128522 0.06475647 -0.9749362
vn -0.7824919 0.1384132 -0.6070818
vn -0.7824919 0.1384132 -0.6070817
vn -0.7824919 0.1384132 -0.6070817
vn -0.7824919 0.1384132 -0.6070817
vn -0.993243 0.09405465 0.06798461
vn -0.993243 0.09405467 0.06798462
vn -0.993243 0.09405467 0.06798462
vn -0.993243 0.09405467 0.06798462
vn -0.4902856 0.1656932 0.8556668
vn -0.4902856 0.1656932 0.8556668
vn -0.4902857 0.1656932 0.8556668
vn -0.4902856 0.1656931 0.8556668
vn -0.6652089 0.1438643 0.7326665
vn -0.6652089 0.1438643 0.7326664
vn -0.6652089 0.1438643 0.7326664
vn -0.6652088 0.1438644 0.7326665
vn 0.528178 0.2822787 0.8008412
vn 0.528178 0.2822787 0.8008412
vn 0.528178 0.2822787 0.8008412
vn 0.528178 0.2822787 0.8008412
vn 0.7082061 0.3513022 0.6123975
vn 0.7082061 0.3513022 0.6123976
vn 0.7082061 0.3513022 0.6123976
vn 0.7082061 0.3513022 0.6123976
vn 0.9013418 0.3494418 0.2558772
vn 0.9013418 0.3494418 0.2558771
vn 0.9013418 0.3494418 0.2558772
vn 0.9013418 0.3494418 0.2558772
vn 0.4663735 0.2864259 -0.8369324
vn 0.4663735 0.2864259 -0.8369324
vn 0.4663735 0.2864259 -0.8369324
vn 0.4663735 0.2864259 -0.8369324
vn 0.0489982 0.2824833 -0.95802
vn 0.04899821 0.2824832 -0.9580201
vn 0.0489982 0.2824832 -0.9580201
vn 0.04899821 0.2824832 -0.9580201
vn 0.2181704 0.2441074 -0.9448879
vn 0.2181704 0.2441074 -0.9448879
vn 0.2181704 0.2441074 -0.9448879
vn 0.2181704 0.2441074 -0.9448879
vn -0.5263106 0.7893847 -0.3160194
vn -0.5263106 0.7893847 -0.3160194
vn -0.5263106 0.7893847 -0.3160194
vn -0.5263106 0.7893847 -0.3160194
vn -0.5482534 0.8201123 0.1638084
vn -0.5482534 0.8201123 0.1638084
vn -0.5482534 0.8201123 0.1638084
vn -0.5482534 0.8201123 0.1638084
vn -0.3718399 0.8122886 0.4493569
vn -0.3718399 0.8122886 0.4493569
vn -0.3718399 0.8122886 0.4493569
vn -0.3718399 0.8122886 0.4493569
vn -0.4881017 0.7314441 0.4761781
vn -0.4881018 0.7314442 0.4761781
vn -0.4881018 0.7314442 0.4761781
vn -0.4881018 0.7314442 0.4761781
vn 0.2137885 0.8332875 0.509829
vn 0.2137885 0.8332876 0.509829
vn 0.2137886 0.8332875 0.5098291
vn 0.2137885 0.8332875 0.509829
vn 0.3334693 0.8567966 0.3933155
vn 0.3334693 0.8567965 0.3933156
vn 0.3334694 0.8567965 0.3933156
vn 0.3334693 0.8567965 0.3933156
vn 0.4415919 0.8726295 0.2085994
vn 0.4415919 0.8726295 0.2085994
vn 0.4415919 0.8726295 0.2085994
vn 0.4415919 0.8726295 0.2085994
vn 0.1391244 0.8411539 -0.5225932
vn 0.1391244 0.841154 -0.5225933
vn 0.1391245 0.841154 -0.5225933
vn 0.1391244 0.841154 -0.5225933
vn -0.1724784 0.8054793 -0.5669688
vn -0.1724784 0.8054793 -0.5669686
vn -0.1724784 0.8054793 -0.5669687
vn -0.1724784 0.8054793 -0.5669688
vn 0.2091087 0.7879918 -0.5790872
vn 0.2091087 0.7879918 -0.5790872
vn 0.2091087 0.7879918 -0.5790872
vn 0.2091087 0.7879918 -0.5790872
vn -0.347836 0.9247625 -0.1543488
vn -0.347836 0.9247625 -0.1543488
vn -0.347836 0.9247625 -0.1543488
vn -0.4306187 0.8609408 0.2708277
vn -0.4306187 0.8609408 0.2708277
vn -0.4306187 0.8609408 0.2708277
vn -0.4099701 0.8530962 0.3227237
vn -0.4099702 0.8530962 0.3227237
vn -0.4099701 0.8530962 0.3227238
vn -0.3612776 0.8573861 0.3665611
vn -0.3612776 0.8573861 0.3665611
vn -0.3612776 0.8573861 0.3665611
vn 0.0495144 0.9242899 0.3784649
vn 0.0495144 0.9242899 0.3784649
vn 0.0495144 0.9242899 0.3784649
vn 0.1780641 0.9417808 0.285204
vn 0.1780641 0.9417809 0.285204
vn 0.1780641 0.9417809 0.285204
vn 0.2186222 0.9616976 0.1653516
vn 0.2186222 0.9616976 0.1653516
vn 0.2186222 0.9616976 0.1653516
vn -0.002547584 0.9399886 -0.3411952
vn -0.002547584 0.9399886 -0.3411952
vn -0.00254757 0.9399885 -0.3411953
vn -0.2682066 0.8195647 -0.5063382
vn -0.2682066 0.8195647 -0.5063381
vn -0.2682066 0.8195648 -0.5063381
vn 0.2776344 0.8388789 -0.4681889
vn 0.2776344 0.8388789 -0.4681888
vn 0.2776344 0.8388789 -0.4681889

vt 0.5483398 0.007648468
vt 0.5 0.1500244
vt 0.6264648 0.06439209
vt 0.4516602 0.007648468
vt 0.3735352 0.06439209
vt 0.34375 0.15625
vt 0.3735352 0.2480469
vt 0.4516602 0.3049316
vt 0.5483398 0.3049316
vt 0.6264648 0.2480469
vt 0.65625 0.15625
vt 0 0
vt 0 1
vt 1 1
vt 1 0
vt 0 0
vt 0 1
vt 1 1
vt 1 0
vt 0 0
vt 0 1
vt 1 1
vt 1 0
vt 0 0
vt 0 1
vt 1 1
vt 1 0
vt 0 0
vt 0 1
vt 1 1
vt 1 0
vt 0 0
vt 0 1
vt 1 1
vt 1 0
vt 0 0
vt 0 1
vt 1 1
vt 1 0
vt 0 0
vt 0 1
vt 1 1
vt 1 0
vt 0 0
vt 0 1
vt 1 1
vt 1 0
vt 0 0
vt 0 1
vt 1 1
vt 1 0
vt 0 0
vt 0 1
vt 1 1
vt 1 0
vt 0 0
vt 0 1
vt 1 1
vt 1 0
vt 0 0
vt 0 1
vt 1 1
vt 1 0
vt 0 0
vt 0 1
vt 1 1
vt 1 0
vt 0 0
vt 0 1
vt 1 1
vt 1 0
vt 0 0
vt 0 1
vt 1 1
vt 1 0
vt 0 0
vt 0 1
vt 1 1
vt 1 0
vt 0 0
vt 0 1
vt 1 1
vt 1 0
vt 0 0
vt 0 1
vt 1 1
vt 1 0
vt 0 0
vt 0 1
vt 1 1
vt 1 0
vt 0 0
vt 0 1
vt 1 1
vt 1 0
vt 0 0
vt 0 1
vt 1 1
vt 1 0
vt 0 0
vt 0 1
vt 1 1
vt 1 0
vt 0 0
vt 0 1
vt 1 1
vt 1 0
vt 0 0
vt 0 1
vt 1 1
vt 1 0
vt 0 0
vt 0 1
vt 1 1
vt 1 0
vt 0 0
vt 0 1
vt 1 1
vt 1 0
vt 0 0
vt 0 1
vt 1 1
vt 1 0
vt 0 0
vt 0 1
vt 1 1
vt 1 0
vt 0 0
vt 0 1
vt 1 1
vt 1 0
vt 0 0
vt 0 1
vt 1 1
vt 1 0
vt 0 0
vt 0 1
vt 1 1
vt 1 0
vt 0 0
vt 0 1
vt 1 1
vt 1 0
vt 0 0
vt 0 1
vt 1 1
vt 1 0
vt 0 0
vt 0 1
vt 1 1
vt 1 0
vt 0 0
vt 0 1
vt 1 1
vt 1 0
vt 0 0
vt 0 1
vt 1 1
vt 1 0
vt 0 0
vt 0 1
vt 1 1
vt 1 0
vt 0 0
vt 0 1
vt 1 1
vt 1 0
vt 0 0
vt 0 1
vt 1 1
vt 1 0
vt 0 0
vt 0.5 1
vt 1 0
vt 0 0
vt 0.5 1
vt 1 0
vt 0 0
vt 0.5 1
vt 1 0
vt 0 0
vt 0.5 1
vt 1 0
vt 0 0
vt 0.5 1
vt 1 0
vt 0 0
vt 0.5 1
vt 1 0
vt 0 0
vt 0.5 1
vt 1 0
vt 0 0
vt 0.5 1
vt 1 0
vt 0 0
vt 0.5 1
vt 1 0
vt 0 0
vt 0.5 1
vt 1 0

g Foliage8_23_3328_101
usemtl Foliage8_23_3328_101
usemap Foliage8_23_3328_101
f 1/1/1 3/3/3 2/2/2
f 4/4/4 1/1/1 2/2/2
f 5/5/5 4/4/4 2/2/2
f 6/6/6 5/5/5 2/2/2
f 7/7/7 6/6/6 2/2/2
f 8/8/8 7/7/7 2/2/2
f 9/9/9 8/8/8 2/2/2
f 10/10/10 9/9/9 2/2/2
f 11/11/11 10/10/10 2/2/2
f 3/3/3 11/11/11 2/2/2
f 12/12/12 14/14/14 13/13/13
f 12/12/12 15/15/15 14/14/14
f 16/16/16 18/18/18 17/17/17
f 16/16/16 19/19/19 18/18/18
f 20/20/20 22/22/22 21/21/21
f 20/20/20 23/23/23 22/22/22
f 24/24/24 26/26/26 25/25/25
f 24/24/24 27/27/27 26/26/26
f 28/28/28 30/30/30 29/29/29
f 28/28/28 31/31/31 30/30/30
f 32/32/32 34/34/34 33/33/33
f 32/32/32 35/35/35 34/34/34
f 36/36/36 38/38/38 37/37/37
f 36/36/36 39/39/39 38/38/38
f 40/40/40 42/42/42 41/41/41
f 40/40/40 43/43/43 42/42/42
f 44/44/44 46/46/46 45/45/45
f 44/44/44 47/47/47 46/46/46
f 48/48/48 50/50/50 49/49/49
f 48/48/48 51/51/51 50/50/50
f 52/52/52 54/54/54 53/53/53
f 52/52/52 55/55/55 54/54/54
f 56/56/56 58/58/58 57/57/57
f 56/56/56 59/59/59 58/58/58
f 60/60/60 62/62/62 61/61/61
f 60/60/60 63/63/63 62/62/62
f 64/64/64 66/66/66 65/65/65
f 64/64/64 67/67/67 66/66/66
f 68/68/68 70/70/70 69/69/69
f 68/68/68 71/71/71 70/70/70
f 72/72/72 74/74/74 73/73/73
f 72/72/72 75/75/75 74/74/74
f 76/76/76 78/78/78 77/77/77
f 76/76/76 79/79/79 78/78/78
f 80/80/80 82/82/82 81/81/81
f 80/80/80 83/83/83 82/82/82
f 84/84/84 86/86/86 85/85/85
f 84/84/84 87/87/87 86/86/86
f 88/88/88 90/90/90 89/89/89
f 88/88/88 91/91/91 90/90/90
f 92/92/92 94/94/94 93/93/93
f 92/92/92 95/95/95 94/94/94
f 96/96/96 98/98/98 97/97/97
f 96/96/96 99/99/99 98/98/98
f 100/100/100 102/102/102 101/101/101
f 100/100/100 103/103/103 102/102/102
f 104/104/104 106/106/106 105/105/105
f 104/104/104 107/107/107 106/106/106
f 108/108/108 110/110/110 109/109/109
f 108/108/108 111/111/111 110/110/110
f 112/112/112 114/114/114 113/113/113
f 112/112/112 115/115/115 114/114/114
f 116/116/116 118/118/118 117/117/117
f 116/116/116 119/119/119 118/118/118
f 120/120/120 122/122/122 121/121/121
f 120/120/120 123/123/123 122/122/122
f 124/124/124 126/126/126 125/125/125
f 124/124/124 127/127/127 126/126/126
f 128/128/128 130/130/130 129/129/129
f 128/128/128 131/131/131 130/130/130
f 132/132/132 134/134/134 133/133/133
f 132/132/132 135/135/135 134/134/134
f 136/136/136 138/138/138 137/137/137
f 136/136/136 139/139/139 138/138/138
f 140/140/140 142/142/142 141/141/141
f 140/140/140 143/143/143 142/142/142
f 144/144/144 146/146/146 145/145/145
f 144/144/144 147/147/147 146/146/146
f 148/148/148 150/150/150 149/149/149
f 148/148/148 151/151/151 150/150/150
f 152/152/152 154/154/154 153/153/153
f 152/152/152 155/155/155 154/154/154
f 156/156/156 158/158/158 157/157/157
f 156/156/156 159/159/159 158/158/158
f 160/160/160 162/162/162 161/161/161
f 160/160/160 163/163/163 162/162/162
f 164/164/164 166/166/166 165/165/165
f 164/164/164 167/167/167 166/166/166
f 168/168/168 170/170/170 169/169/169
f 168/168/168 171/171/171 170/170/170
f 172/172/172 174/174/174 173/173/173
f 175/175/175 177/177/177 176/176/176
f 178/178/178 180/180/180 179/179/179
f 181/181/181 183/183/183 182/182/182
f 184/184/184 186/186/186 185/185/185
f 187/187/187 189/189/189 188/188/188
f 190/190/190 192/192/192 191/191/191
f 193/193/193 195/195/195 194/194/194
f 196/196/196 198/198/198 197/197/197
f 199/199/199 201/201/201 200/200/200
