#Foliage_15_3778_6.obj

v 0.01454529 -0.0257756 -0.04035807
v 0.004623826 -0.03397608 0.001091609
v 0.03878447 -0.02577562 -0.02105455
v -0.00966344 -0.02577564 -0.03817516
v -0.01825082 -0.02577565 -0.01778021
v -0.03822216 -0.02223216 0.001091601
v -0.0213509 -0.02577564 0.01996341
v -0.005297631 -0.0257756 0.03271821
v 0.021094 -0.02577562 0.04035841
v 0.03059855 -0.02577566 0.01996342
v 0.03218945 -0.02223222 0.001091633
v 0.03878447 -0.02577562 -0.02105455
v 0.04796687 -0.01489235 -0.02772592
v 0.01805264 -0.01489239 -0.05115259
v 0.01454529 -0.0257756 -0.04035807
v 0.01454529 -0.0257756 -0.04035807
v 0.01805264 -0.01489239 -0.05115259
v -0.0131708 -0.01489237 -0.04896968
v -0.00966344 -0.02577564 -0.03817516
v -0.00966344 -0.02577564 -0.03817516
v -0.0131708 -0.01489237 -0.04896968
v -0.02743321 -0.01489234 -0.02445159
v -0.01825082 -0.02577565 -0.01778021
v -0.01825082 -0.02577565 -0.01778021
v -0.02743321 -0.01489234 -0.02445159
v -0.04796693 -0.0128882 0.001091623
v -0.03822216 -0.02223216 0.001091601
v -0.03822216 -0.02223216 0.001091601
v -0.04796693 -0.0128882 0.001091623
v -0.03053327 -0.01489233 0.02663482
v -0.0213509 -0.02577564 0.01996341
v -0.0213509 -0.02577564 0.01996341
v -0.03053327 -0.01489233 0.02663482
v -0.008804964 -0.01489239 0.04351272
v -0.005297631 -0.0257756 0.03271821
v -0.005297631 -0.0257756 0.03271821
v -0.008804964 -0.01489239 0.04351272
v 0.02460135 -0.01489239 0.05115289
v 0.021094 -0.02577562 0.04035841
v 0.021094 -0.02577562 0.04035841
v 0.02460135 -0.01489239 0.05115289
v 0.03978093 -0.01489239 0.02663482
v 0.03059855 -0.02577566 0.01996342
v 0.03059855 -0.02577566 0.01996342
v 0.03978093 -0.01489239 0.02663482
v 0.04193425 -0.01288817 0.001091635
v 0.03218945 -0.02223222 0.001091633
v 0.03218945 -0.02223222 0.001091633
v 0.04193425 -0.01288817 0.001091635
v 0.04796687 -0.01489235 -0.02772592
v 0.03878447 -0.02577562 -0.02105455
v 0.04796687 -0.01489235 -0.02772592
v 0.04796686 -0.0001483141 -0.02772594
v 0.01805265 -0.0001482753 -0.05115258
v 0.01805264 -0.01489239 -0.05115259
v 0.01805264 -0.01489239 -0.05115259
v 0.01805265 -0.0001482753 -0.05115258
v -0.01317079 -0.0001483343 -0.04896967
v -0.0131708 -0.01489237 -0.04896968
v -0.0131708 -0.01489237 -0.04896968
v -0.01317079 -0.0001483343 -0.04896967
v -0.02743321 -0.0001483059 -0.02445157
v -0.02743321 -0.01489234 -0.02445159
v -0.02743321 -0.01489234 -0.02445159
v -0.02743321 -0.0001483059 -0.02445157
v -0.04796696 -0.000229392 0.001091606
v -0.04796693 -0.0128882 0.001091623
v -0.04796693 -0.0128882 0.001091623
v -0.04796696 -0.000229392 0.001091606
v -0.03053329 -0.0001482956 0.0266348
v -0.03053327 -0.01489233 0.02663482
v -0.03053327 -0.01489233 0.02663482
v -0.03053329 -0.0001482956 0.0266348
v -0.008804993 -0.0001482738 0.04351271
v -0.008804964 -0.01489239 0.04351272
v -0.008804964 -0.01489239 0.04351272
v -0.008804993 -0.0001482738 0.04351271
v 0.02460136 -0.0001482727 0.0511529
v 0.02460135 -0.01489239 0.05115289
v 0.02460135 -0.01489239 0.05115289
v 0.02460136 -0.0001482727 0.0511529
v 0.03978094 -0.0001482778 0.02663482
v 0.03978093 -0.01489239 0.02663482
v 0.03978093 -0.01489239 0.02663482
v 0.03978094 -0.0001482778 0.02663482
v 0.04193423 -0.0002293629 0.001091612
v 0.04193425 -0.01288817 0.001091635
v 0.04193425 -0.01288817 0.001091635
v 0.04193423 -0.0002293629 0.001091612
v 0.04796686 -0.0001483141 -0.02772594
v 0.04796687 -0.01489235 -0.02772592
v 0.04796686 -0.0001483141 -0.02772594
v 0.04568886 0.01428338 -0.02539664
v 0.01714507 0.01428338 -0.04799109
v 0.01805265 -0.0001482753 -0.05115258
v 0.01805265 -0.0001482753 -0.05115258
v 0.01714507 0.01428338 -0.04799109
v -0.01182915 0.01428339 -0.04559749
v -0.01317079 -0.0001483343 -0.04896967
v -0.01317079 -0.0001483343 -0.04896967
v -0.01182915 0.01428339 -0.04559749
v -0.02321031 0.01428336 -0.02180621
v -0.02743321 -0.0001483059 -0.02445157
v -0.02743321 -0.0001483059 -0.02445157
v -0.02321031 0.01428336 -0.02180621
v -0.04530414 0.0119721 0.001196958
v -0.04796696 -0.000229392 0.001091606
v -0.04796696 -0.000229392 0.001091606
v -0.04530414 0.0119721 0.001196958
v -0.02660962 0.01428339 0.02420017
v -0.03053329 -0.0001482956 0.0266348
v -0.03053329 -0.0001482956 0.0266348
v -0.02660962 0.01428339 0.02420017
v -0.007041906 0.01428339 0.03961373
v -0.008804993 -0.0001482738 0.04351271
v -0.008804993 -0.0001482738 0.04351271
v -0.007041906 0.01428339 0.03961373
v 0.02432592 0.01428336 0.04799141
v 0.02460136 -0.0001482727 0.0511529
v 0.02460136 -0.0001482727 0.0511529
v 0.02432592 0.01428336 0.04799141
v 0.03671278 0.01428335 0.02420017
v 0.03978094 -0.0001482778 0.02663482
v 0.03978094 -0.0001482778 0.02663482
v 0.03671278 0.01428335 0.02420017
v 0.03865195 0.01197211 0.001196978
v 0.04193423 -0.0002293629 0.001091612
v 0.04193423 -0.0002293629 0.001091612
v 0.03865195 0.01197211 0.001196978
v 0.04568886 0.01428338 -0.02539664
v 0.04796686 -0.0001483141 -0.02772594
v 0.04568886 0.01428338 -0.02539664
v 0.03225241 0.02437443 -0.01614752
v 0.01203642 0.0243744 -0.03256846
v 0.01714507 0.01428338 -0.04799109
v 0.01714507 0.01428338 -0.04799109
v 0.01203642 0.0243744 -0.03256846
v -0.002592267 0.0243744 -0.02139364
v -0.01182915 0.01428339 -0.04559749
v -0.01182915 0.01428339 -0.04559749
v -0.002592267 0.0243744 -0.02139364
v -0.01125316 0.02437439 -0.01279506
v -0.02321031 0.01428336 -0.02180621
v -0.02321031 0.01428336 -0.02180621
v -0.01125316 0.02437439 -0.01279506
v -0.03124475 0.02074648 0.001117634
v -0.04530414 0.0119721 0.001196958
v -0.04530414 0.0119721 0.001196958
v -0.03124475 0.02074648 0.001117634
v -0.01442715 0.02437441 0.01503038
v -0.02660962 0.01428339 0.02420017
v -0.02660962 0.01428339 0.02420017
v -0.01442715 0.02437441 0.01503038
v -0.002592277 0.02437443 0.02474638
v -0.007041906 0.01428339 0.03961373
v -0.007041906 0.01428339 0.03961373
v -0.002592277 0.02437443 0.02474638
v 0.01874129 0.02437441 0.03256876
v 0.02432592 0.01428336 0.04799141
v 0.02432592 0.01428336 0.04799141
v 0.01874129 0.02437441 0.03256876
v 0.0238713 0.02437442 0.01503038
v 0.03671278 0.01428335 0.02420017
v 0.03671278 0.01428335 0.02420017
v 0.0238713 0.02437442 0.01503038
v 0.02504414 0.02074652 0.001117643
v 0.03865195 0.01197211 0.001196978
v 0.03865195 0.01197211 0.001196978
v 0.02504414 0.02074652 0.001117643
v 0.03225241 0.02437443 -0.01614752
v 0.04568886 0.01428338 -0.02539664
v 0.03225241 0.02437443 -0.01614752
v 0.004623814 0.03397609 0.001091582
v 0.01203642 0.0243744 -0.03256846
v 0.01203642 0.0243744 -0.03256846
v 0.004623814 0.03397609 0.001091582
v -0.002592267 0.0243744 -0.02139364
v -0.002592267 0.0243744 -0.02139364
v 0.004623814 0.03397609 0.001091582
v -0.01125316 0.02437439 -0.01279506
v -0.01125316 0.02437439 -0.01279506
v 0.004623814 0.03397609 0.001091582
v -0.03124475 0.02074648 0.001117634
v -0.03124475 0.02074648 0.001117634
v 0.004623814 0.03397609 0.001091582
v -0.01442715 0.02437441 0.01503038
v -0.01442715 0.02437441 0.01503038
v 0.004623814 0.03397609 0.001091582
v -0.002592277 0.02437443 0.02474638
v -0.002592277 0.02437443 0.02474638
v 0.004623814 0.03397609 0.001091582
v 0.01874129 0.02437441 0.03256876
v 0.01874129 0.02437441 0.03256876
v 0.004623814 0.03397609 0.001091582
v 0.0238713 0.02437442 0.01503038
v 0.0238713 0.02437442 0.01503038
v 0.004623814 0.03397609 0.001091582
v 0.02504414 0.02074652 0.001117643
v 0.02504414 0.02074652 0.001117643
v 0.004623814 0.03397609 0.001091582
v 0.03225241 0.02437443 -0.01614752

vn 0.1696729 -0.9776827 -0.1238836
vn 0.01550093 -0.9997651 -0.01513234
vn 0.2062825 -0.9766915 0.05933578
vn 0.05117664 -0.9772832 -0.2056647
vn -0.132826 -0.958257 -0.2531804
vn -0.1871527 -0.9641078 -0.1883337
vn -0.2328544 -0.9704883 -0.06269675
vn -0.1981151 -0.9749742 0.1008715
vn -0.04730025 -0.985371 0.1637261
vn 0.2250077 -0.9584251 0.1754775
vn 0.2654532 -0.9166912 0.2986827
vn 0.6962991 -0.6911054 -0.1937546
vn 0.696299 -0.6911054 -0.1937546
vn 0.696299 -0.6911054 -0.1937545
vn 0.696299 -0.6911054 -0.1937546
vn 0.3901491 -0.6878746 -0.6120556
vn 0.3901491 -0.6878747 -0.6120556
vn 0.390149 -0.6878746 -0.6120556
vn 0.3901491 -0.6878746 -0.6120556
vn -0.3215453 -0.65578 -0.6830526
vn -0.3215453 -0.65578 -0.6830527
vn -0.3215453 -0.65578 -0.6830526
vn -0.3215453 -0.65578 -0.6830527
vn -0.1883327 -0.6777604 -0.710754
vn -0.1883328 -0.6777603 -0.7107542
vn -0.1883327 -0.6777603 -0.7107542
vn -0.1883328 -0.6777603 -0.7107541
vn -0.7063926 -0.7044047 -0.06944916
vn -0.7063926 -0.7044047 -0.06944916
vn -0.7063927 -0.7044046 -0.06944919
vn -0.7063927 -0.7044047 -0.06944916
vn -0.6757949 -0.7164867 0.1730541
vn -0.675795 -0.7164867 0.1730541
vn -0.6757949 -0.7164867 0.173054
vn -0.6757948 -0.7164867 0.173054
vn -0.5517766 -0.7079741 0.4408117
vn -0.5517766 -0.7079741 0.4408117
vn -0.5517766 -0.7079741 0.4408118
vn -0.5517766 -0.7079741 0.4408117
vn 0.3166219 -0.674324 0.6671113
vn 0.3166218 -0.674324 0.6671113
vn 0.3166218 -0.674324 0.6671113
vn 0.316622 -0.674324 0.6671113
vn 0.6106347 -0.6771565 0.4105898
vn 0.6106347 -0.6771566 0.4105898
vn 0.6106347 -0.6771565 0.4105898
vn 0.6106347 -0.6771565 0.4105898
vn 0.4552773 -0.6195852 0.6394033
vn 0.4552773 -0.6195851 0.6394033
vn 0.4552773 -0.6195852 0.6394033
vn 0.4552773 -0.6195852 0.6394032
vn 0.965349 0.01786594 -0.2603501
vn 0.965349 0.01786594 -0.26035
vn 0.965349 0.01786594 -0.26035
vn 0.965349 0.01786594 -0.2603501
vn 0.5420855 0.02122227 -0.8400553
vn 0.5420855 0.02122227 -0.8400553
vn 0.5420855 0.02122227 -0.8400553
vn 0.5420855 0.02122227 -0.8400553
vn -0.3904416 0.009318285 -0.9205805
vn -0.3904416 0.009318285 -0.9205805
vn -0.3904416 0.009318285 -0.9205805
vn -0.3904416 0.009318285 -0.9205805
vn -0.2482622 0.01210593 -0.9686172
vn -0.2482622 0.01210593 -0.9686172
vn -0.2482622 0.01210593 -0.9686172
vn -0.2482622 0.01210593 -0.9686172
vn -0.9989371 -0.01343175 -0.0440931
vn -0.9989371 -0.01343175 -0.0440931
vn -0.9989372 -0.01343175 -0.04409298
vn -0.9989371 -0.01343175 -0.0440931
vn -0.9643114 -0.01791276 0.2641642
vn -0.9643114 -0.01791276 0.2641642
vn -0.9643114 -0.01791276 0.2641642
vn -0.9643114 -0.01791276 0.2641642
vn -0.7627146 -0.02122265 0.646387
vn -0.7627146 -0.02122265 0.646387
vn -0.7627146 -0.02122265 0.646387
vn -0.7627146 -0.02122265 0.646387
vn 0.3649862 -0.009846082 0.9309609
vn 0.3649862 -0.009846082 0.9309609
vn 0.3649862 -0.009846082 0.9309609
vn 0.3649862 -0.009846082 0.9309609
vn 0.7471752 -0.0001399559 0.6646271
vn 0.7471752 -0.000139956 0.6646271
vn 0.7471752 -0.0001399559 0.6646271
vn 0.7471752 -0.000139956 0.6646271
vn 0.6605635 -0.002755332 0.7507651
vn 0.6605635 -0.002755332 0.750765
vn 0.6605635 -0.002755332 0.7507651
vn 0.6605635 -0.002755332 0.7507651
vn 0.9408823 0.2301353 -0.2485524
vn 0.9408822 0.2301353 -0.2485525
vn 0.9408822 0.2301353 -0.2485525
vn 0.9408822 0.2301353 -0.2485525
vn 0.5205302 0.2418597 -0.8188725
vn 0.5205302 0.2418598 -0.8188725
vn 0.5205302 0.2418598 -0.8188725
vn 0.5205302 0.2418598 -0.8188725
vn -0.4150554 0.2671055 -0.8697032
vn -0.4150554 0.2671055 -0.8697032
vn -0.4150553 0.2671055 -0.8697032
vn -0.4150554 0.2671054 -0.8697032
vn -0.2119721 0.2668538 -0.9401366
vn -0.2119721 0.2668538 -0.9401366
vn -0.2119721 0.2668538 -0.9401366
vn -0.2119721 0.2668538 -0.9401366
vn -0.9731024 0.2302035 -0.008838385
vn -0.9731024 0.2302036 -0.008838385
vn -0.9731023 0.2302035 -0.008838415
vn -0.9731024 0.2302035 -0.008838385
vn -0.9299085 0.2650475 0.2549903
vn -0.9299085 0.2650475 0.2549902
vn -0.9299085 0.2650476 0.2549903
vn -0.9299085 0.2650476 0.2549903
vn -0.7543182 0.2217973 0.6179078
vn -0.7543182 0.2217973 0.6179078
vn -0.7543182 0.2217973 0.6179078
vn -0.7543182 0.2217973 0.6179078
vn 0.3878723 0.1839775 0.9031652
vn 0.3878723 0.1839775 0.9031652
vn 0.3878722 0.1839775 0.9031652
vn 0.3878723 0.1839775 0.9031652
vn 0.7301885 0.2372175 0.6407437
vn 0.7301885 0.2372174 0.6407437
vn 0.7301885 0.2372174 0.6407437
vn 0.7301885 0.2372174 0.6407437
vn 0.6228232 0.1748229 0.7625799
vn 0.6228232 0.1748229 0.7625798
vn 0.6228232 0.1748229 0.7625799
vn 0.6228232 0.1748229 0.7625799
vn 0.5181019 0.846356 -0.1234967
vn 0.5181019 0.846356 -0.1234968
vn 0.5181019 0.846356 -0.1234967
vn 0.5181019 0.846356 -0.1234968
vn 0.1409568 0.8973759 -0.4181474
vn 0.1409568 0.8973759 -0.4181474
vn 0.1409568 0.8973759 -0.4181474
vn 0.1409568 0.8973759 -0.4181473
vn -0.1928039 0.8739981 -0.4460421
vn -0.1928039 0.8739981 -0.4460421
vn -0.1928039 0.8739981 -0.4460421
vn -0.1928039 0.8739981 -0.4460421
vn -0.1418515 0.812204 -0.5658643
vn -0.1418515 0.8122041 -0.5658643
vn -0.1418515 0.8122041 -0.5658643
vn -0.1418515 0.8122041 -0.5658643
vn -0.5854706 0.8106123 -0.0114691
vn -0.5854705 0.8106124 -0.01146907
vn -0.5854706 0.8106123 -0.01146913
vn -0.5854706 0.8106123 -0.0114691
vn -0.5625572 0.8119766 0.1556377
vn -0.5625572 0.8119765 0.1556377
vn -0.5625572 0.8119765 0.1556377
vn -0.5625572 0.8119765 0.1556377
vn -0.4772615 0.8049825 0.3524548
vn -0.4772615 0.8049825 0.3524548
vn -0.4772615 0.8049825 0.3524548
vn -0.4772615 0.8049825 0.3524548
vn 0.2930436 0.7919271 0.5357019
vn 0.2930436 0.7919271 0.5357019
vn 0.2930436 0.7919271 0.5357019
vn 0.2930436 0.7919271 0.5357019
vn 0.5132545 0.8009934 0.3081867
vn 0.5132544 0.8009934 0.3081867
vn 0.5132544 0.8009934 0.3081867
vn 0.5132545 0.8009934 0.3081867
vn 0.3008758 0.7270135 0.6171911
vn 0.3008758 0.7270136 0.6171911
vn 0.3008758 0.7270135 0.6171911
vn 0.3008758 0.7270135 0.6171911
vn 0.2751219 0.9597203 -0.05696079
vn 0.2751219 0.9597203 -0.05696082
vn 0.2751219 0.9597203 -0.05696079
vn -0.01678196 0.9242727 -0.3813631
vn -0.01678194 0.9242727 -0.3813632
vn -0.01678193 0.9242727 -0.3813631
vn -0.07039511 0.9153583 -0.3964382
vn -0.07039508 0.9153583 -0.3964383
vn -0.07039514 0.9153583 -0.3964383
vn -0.1345893 0.9140109 -0.3827134
vn -0.1345893 0.9140109 -0.3827135
vn -0.1345893 0.9140109 -0.3827135
vn -0.3883407 0.9200104 -0.05264956
vn -0.3883406 0.9200104 -0.05264951
vn -0.3883407 0.9200104 -0.05264956
vn -0.3890813 0.9149626 0.1070455
vn -0.3890813 0.9149627 0.1070455
vn -0.3890813 0.9149627 0.1070455
vn -0.3169813 0.9243197 0.2124982
vn -0.3169813 0.9243197 0.2124982
vn -0.3169813 0.9243197 0.2124982
vn 0.2234582 0.917085 0.3301834
vn 0.2234583 0.917085 0.3301834
vn 0.2234583 0.9170849 0.3301834
vn 0.5193812 0.8312285 0.1982474
vn 0.5193811 0.8312285 0.1982473
vn 0.5193811 0.8312286 0.1982473
vn 0.1681437 0.771233 0.6139439
vn 0.1681436 0.771233 0.6139438
vn 0.1681437 0.771233 0.6139439

vt 0.5482839 0.007647395
vt 0.5 0.15
vt 0.6264089 0.06440853
vt 0.4517161 0.00764741
vt 0.3735911 0.06440856
vt 0.34375 0.15625
vt 0.3735911 0.2480915
vt 0.4517161 0.3048526
vt 0.5482839 0.3048526
vt 0.6264089 0.2480914
vt 0.65625 0.15625
vt 0 0
vt 0 1
vt 1 1
vt 1 0
vt 0 0
vt 0 1
vt 1 1
vt 1 0
vt 0 0
vt 0 1
vt 1 1
vt 1 0
vt 0 0
vt 0 1
vt 1 1
vt 1 0
vt 0 0
vt 0 1
vt 1 1
vt 1 0
vt 0 0
vt 0 1
vt 1 1
vt 1 0
vt 0 0
vt 0 1
vt 1 1
vt 1 0
vt 0 0
vt 0 1
vt 1 1
vt 1 0
vt 0 0
vt 0 1
vt 1 1
vt 1 0
vt 0 0
vt 0 1
vt 1 1
vt 1 0
vt 0 0
vt 0 1
vt 1 1
vt 1 0
vt 0 0
vt 0 1
vt 1 1
vt 1 0
vt 0 0
vt 0 1
vt 1 1
vt 1 0
vt 0 0
vt 0 1
vt 1 1
vt 1 0
vt 0 0
vt 0 1
vt 1 1
vt 1 0
vt 0 0
vt 0 1
vt 1 1
vt 1 0
vt 0 0
vt 0 1
vt 1 1
vt 1 0
vt 0 0
vt 0 1
vt 1 1
vt 1 0
vt 0 0
vt 0 1
vt 1 1
vt 1 0
vt 0 0
vt 0 1
vt 1 1
vt 1 0
vt 0 0
vt 0 1
vt 1 1
vt 1 0
vt 0 0
vt 0 1
vt 1 1
vt 1 0
vt 0 0
vt 0 1
vt 1 1
vt 1 0
vt 0 0
vt 0 1
vt 1 1
vt 1 0
vt 0 0
vt 0 1
vt 1 1
vt 1 0
vt 0 0
vt 0 1
vt 1 1
vt 1 0
vt 0 0
vt 0 1
vt 1 1
vt 1 0
vt 0 0
vt 0 1
vt 1 1
vt 1 0
vt 0 0
vt 0 1
vt 1 1
vt 1 0
vt 0 0
vt 0 1
vt 1 1
vt 1 0
vt 0 0
vt 0 1
vt 1 1
vt 1 0
vt 0 0
vt 0 1
vt 1 1
vt 1 0
vt 0 0
vt 0 1
vt 1 1
vt 1 0
vt 0 0
vt 0 1
vt 1 1
vt 1 0
vt 0 0
vt 0 1
vt 1 1
vt 1 0
vt 0 0
vt 0 1
vt 1 1
vt 1 0
vt 0 0
vt 0 1
vt 1 1
vt 1 0
vt 0 0
vt 0 1
vt 1 1
vt 1 0
vt 0 0
vt 0 1
vt 1 1
vt 1 0
vt 0 0
vt 0 1
vt 1 1
vt 1 0
vt 0 0
vt 0.5 1
vt 1 0
vt 0 0
vt 0.5 1
vt 1 0
vt 0 0
vt 0.5 1
vt 1 0
vt 0 0
vt 0.5 1
vt 1 0
vt 0 0
vt 0.5 1
vt 1 0
vt 0 0
vt 0.5 1
vt 1 0
vt 0 0
vt 0.5 1
vt 1 0
vt 0 0
vt 0.5 1
vt 1 0
vt 0 0
vt 0.5 1
vt 1 0
vt 0 0
vt 0.5 1
vt 1 0

g Foliage_15_3778_6
usemtl Foliage_15_3778_6
usemap Foliage_15_3778_6
f 1/1/1 3/3/3 2/2/2
f 4/4/4 1/1/1 2/2/2
f 5/5/5 4/4/4 2/2/2
f 6/6/6 5/5/5 2/2/2
f 7/7/7 6/6/6 2/2/2
f 8/8/8 7/7/7 2/2/2
f 9/9/9 8/8/8 2/2/2
f 10/10/10 9/9/9 2/2/2
f 11/11/11 10/10/10 2/2/2
f 3/3/3 11/11/11 2/2/2
f 12/12/12 14/14/14 13/13/13
f 12/12/12 15/15/15 14/14/14
f 16/16/16 18/18/18 17/17/17
f 16/16/16 19/19/19 18/18/18
f 20/20/20 22/22/22 21/21/21
f 20/20/20 23/23/23 22/22/22
f 24/24/24 26/26/26 25/25/25
f 24/24/24 27/27/27 26/26/26
f 28/28/28 30/30/30 29/29/29
f 28/28/28 31/31/31 30/30/30
f 32/32/32 34/34/34 33/33/33
f 32/32/32 35/35/35 34/34/34
f 36/36/36 38/38/38 37/37/37
f 36/36/36 39/39/39 38/38/38
f 40/40/40 42/42/42 41/41/41
f 40/40/40 43/43/43 42/42/42
f 44/44/44 46/46/46 45/45/45
f 44/44/44 47/47/47 46/46/46
f 48/48/48 50/50/50 49/49/49
f 48/48/48 51/51/51 50/50/50
f 52/52/52 54/54/54 53/53/53
f 52/52/52 55/55/55 54/54/54
f 56/56/56 58/58/58 57/57/57
f 56/56/56 59/59/59 58/58/58
f 60/60/60 62/62/62 61/61/61
f 60/60/60 63/63/63 62/62/62
f 64/64/64 66/66/66 65/65/65
f 64/64/64 67/67/67 66/66/66
f 68/68/68 70/70/70 69/69/69
f 68/68/68 71/71/71 70/70/70
f 72/72/72 74/74/74 73/73/73
f 72/72/72 75/75/75 74/74/74
f 76/76/76 78/78/78 77/77/77
f 76/76/76 79/79/79 78/78/78
f 80/80/80 82/82/82 81/81/81
f 80/80/80 83/83/83 82/82/82
f 84/84/84 86/86/86 85/85/85
f 84/84/84 87/87/87 86/86/86
f 88/88/88 90/90/90 89/89/89
f 88/88/88 91/91/91 90/90/90
f 92/92/92 94/94/94 93/93/93
f 92/92/92 95/95/95 94/94/94
f 96/96/96 98/98/98 97/97/97
f 96/96/96 99/99/99 98/98/98
f 100/100/100 102/102/102 101/101/101
f 100/100/100 103/103/103 102/102/102
f 104/104/104 106/106/106 105/105/105
f 104/104/104 107/107/107 106/106/106
f 108/108/108 110/110/110 109/109/109
f 108/108/108 111/111/111 110/110/110
f 112/112/112 114/114/114 113/113/113
f 112/112/112 115/115/115 114/114/114
f 116/116/116 118/118/118 117/117/117
f 116/116/116 119/119/119 118/118/118
f 120/120/120 122/122/122 121/121/121
f 120/120/120 123/123/123 122/122/122
f 124/124/124 126/126/126 125/125/125
f 124/124/124 127/127/127 126/126/126
f 128/128/128 130/130/130 129/129/129
f 128/128/128 131/131/131 130/130/130
f 132/132/132 134/134/134 133/133/133
f 132/132/132 135/135/135 134/134/134
f 136/136/136 138/138/138 137/137/137
f 136/136/136 139/139/139 138/138/138
f 140/140/140 142/142/142 141/141/141
f 140/140/140 143/143/143 142/142/142
f 144/144/144 146/146/146 145/145/145
f 144/144/144 147/147/147 146/146/146
f 148/148/148 150/150/150 149/149/149
f 148/148/148 151/151/151 150/150/150
f 152/152/152 154/154/154 153/153/153
f 152/152/152 155/155/155 154/154/154
f 156/156/156 158/158/158 157/157/157
f 156/156/156 159/159/159 158/158/158
f 160/160/160 162/162/162 161/161/161
f 160/160/160 163/163/163 162/162/162
f 164/164/164 166/166/166 165/165/165
f 164/164/164 167/167/167 166/166/166
f 168/168/168 170/170/170 169/169/169
f 168/168/168 171/171/171 170/170/170
f 172/172/172 174/174/174 173/173/173
f 175/175/175 177/177/177 176/176/176
f 178/178/178 180/180/180 179/179/179
f 181/181/181 183/183/183 182/182/182
f 184/184/184 186/186/186 185/185/185
f 187/187/187 189/189/189 188/188/188
f 190/190/190 192/192/192 191/191/191
f 193/193/193 195/195/195 194/194/194
f 196/196/196 198/198/198 197/197/197
f 199/199/199 201/201/201 200/200/200
