#Foliage7_10_4002_55.obj

v 0.01454539 -0.0257757 -0.04035849
v 0.004623918 -0.03397588 0.001091211
v 0.03878456 -0.02577577 -0.02105492
v -0.00966339 -0.02577564 -0.03817557
v -0.01825069 -0.02577553 -0.0177806
v -0.03822203 -0.02223201 0.001091209
v -0.02135082 -0.02577555 0.01996299
v -0.005297541 -0.02577565 0.0327178
v 0.02109413 -0.02577571 0.040358
v 0.03059868 -0.02577545 0.01996301
v 0.0321895 -0.02223201 0.001091221
v 0.03878456 -0.02577577 -0.02105492
v 0.04796699 -0.01489243 -0.02772635
v 0.01805275 -0.01489236 -0.05115299
v 0.01454539 -0.0257757 -0.04035849
v 0.01454539 -0.0257757 -0.04035849
v 0.01805275 -0.01489236 -0.05115299
v -0.0131707 -0.01489234 -0.04897009
v -0.00966339 -0.02577564 -0.03817557
v -0.00966339 -0.02577564 -0.03817557
v -0.0131707 -0.01489234 -0.04897009
v -0.02743312 -0.01489244 -0.02445195
v -0.01825069 -0.02577553 -0.0177806
v -0.01825069 -0.02577553 -0.0177806
v -0.02743312 -0.01489244 -0.02445195
v -0.04796683 -0.01288807 0.001091223
v -0.03822203 -0.02223201 0.001091209
v -0.03822203 -0.02223201 0.001091209
v -0.04796683 -0.01288807 0.001091223
v -0.03053322 -0.01489219 0.02663437
v -0.02135082 -0.02577555 0.01996299
v -0.02135082 -0.02577555 0.01996299
v -0.03053322 -0.01489219 0.02663437
v -0.008804893 -0.01489229 0.04351228
v -0.005297541 -0.02577565 0.0327178
v -0.005297541 -0.02577565 0.0327178
v -0.008804893 -0.01489229 0.04351228
v 0.02460145 -0.01489231 0.05115251
v 0.02109413 -0.02577571 0.040358
v 0.02109413 -0.02577571 0.040358
v 0.02460145 -0.01489231 0.05115251
v 0.03978102 -0.0148925 0.02663436
v 0.03059868 -0.02577545 0.01996301
v 0.03059868 -0.02577545 0.01996301
v 0.03978102 -0.0148925 0.02663436
v 0.04193436 -0.01288829 0.001091183
v 0.0321895 -0.02223201 0.001091221
v 0.0321895 -0.02223201 0.001091221
v 0.04193436 -0.01288829 0.001091183
v 0.04796699 -0.01489243 -0.02772635
v 0.03878456 -0.02577577 -0.02105492
v 0.04796699 -0.01489243 -0.02772635
v 0.04796693 -0.0001483352 -0.02772635
v 0.01805269 -0.0001482562 -0.05115299
v 0.01805275 -0.01489236 -0.05115299
v 0.01805275 -0.01489236 -0.05115299
v 0.01805269 -0.0001482562 -0.05115299
v -0.01317069 -0.0001482407 -0.04897005
v -0.0131707 -0.01489234 -0.04897009
v -0.0131707 -0.01489234 -0.04897009
v -0.01317069 -0.0001482407 -0.04897005
v -0.02743314 -0.0001483438 -0.02445203
v -0.02743312 -0.01489244 -0.02445195
v -0.02743312 -0.01489244 -0.02445195
v -0.02743314 -0.0001483438 -0.02445203
v -0.04796684 -0.0002292831 0.001091229
v -0.04796683 -0.01288807 0.001091223
v -0.04796683 -0.01288807 0.001091223
v -0.04796684 -0.0002292831 0.001091229
v -0.03053321 -0.000148422 0.0266344
v -0.03053322 -0.01489219 0.02663437
v -0.03053322 -0.01489219 0.02663437
v -0.03053321 -0.000148422 0.0266344
v -0.008804878 -0.000148193 0.04351231
v -0.008804893 -0.01489229 0.04351228
v -0.008804893 -0.01489229 0.04351228
v -0.008804878 -0.000148193 0.04351231
v 0.02460148 -0.0001482095 0.0511525
v 0.02460145 -0.01489231 0.05115251
v 0.02460145 -0.01489231 0.05115251
v 0.02460148 -0.0001482095 0.0511525
v 0.03978103 -0.0001483986 0.02663439
v 0.03978102 -0.0148925 0.02663436
v 0.03978102 -0.0148925 0.02663436
v 0.03978103 -0.0001483986 0.02663439
v 0.04193434 -0.0002294997 0.001091226
v 0.04193436 -0.01288829 0.001091183
v 0.04193436 -0.01288829 0.001091183
v 0.04193434 -0.0002294997 0.001091226
v 0.04796693 -0.0001483352 -0.02772635
v 0.04796699 -0.01489243 -0.02772635
v 0.04796693 -0.0001483352 -0.02772635
v 0.04568898 0.01428341 -0.02539706
v 0.01714515 0.0142834 -0.04799152
v 0.01805269 -0.0001482562 -0.05115299
v 0.01805269 -0.0001482562 -0.05115299
v 0.01714515 0.0142834 -0.04799152
v -0.01182903 0.01428329 -0.04559792
v -0.01317069 -0.0001482407 -0.04897005
v -0.01317069 -0.0001482407 -0.04897005
v -0.01182903 0.01428329 -0.04559792
v -0.02321022 0.0142834 -0.02180663
v -0.02743314 -0.0001483438 -0.02445203
v -0.02743314 -0.0001483438 -0.02445203
v -0.02321022 0.0142834 -0.02180663
v -0.04530401 0.01197217 0.001196561
v -0.04796684 -0.0002292831 0.001091229
v -0.04796684 -0.0002292831 0.001091229
v -0.04530401 0.01197217 0.001196561
v -0.02660955 0.01428325 0.02419977
v -0.03053321 -0.000148422 0.0266344
v -0.03053321 -0.000148422 0.0266344
v -0.02660955 0.01428325 0.02419977
v -0.007041834 0.01428342 0.03961331
v -0.008804878 -0.000148193 0.04351231
v -0.008804878 -0.000148193 0.04351231
v -0.007041834 0.01428342 0.03961331
v 0.02432601 0.01428332 0.04799101
v 0.02460148 -0.0001482095 0.0511525
v 0.02460148 -0.0001482095 0.0511525
v 0.02432601 0.01428332 0.04799101
v 0.03671286 0.01428333 0.02419978
v 0.03978103 -0.0001483986 0.02663439
v 0.03978103 -0.0001483986 0.02663439
v 0.03671286 0.01428333 0.02419978
v 0.03865206 0.01197201 0.001196567
v 0.04193434 -0.0002294997 0.001091226
v 0.04193434 -0.0002294997 0.001091226
v 0.03865206 0.01197201 0.001196567
v 0.04568898 0.01428341 -0.02539706
v 0.04796693 -0.0001483352 -0.02772635
v 0.04568898 0.01428341 -0.02539706
v 0.03225256 0.02437439 -0.01614793
v 0.01203652 0.0243745 -0.03256889
v 0.01714515 0.0142834 -0.04799152
v 0.01714515 0.0142834 -0.04799152
v 0.01203652 0.0243745 -0.03256889
v -0.002592198 0.0243743 -0.02139402
v -0.01182903 0.01428329 -0.04559792
v -0.01182903 0.01428329 -0.04559792
v -0.002592198 0.0243743 -0.02139402
v -0.01125309 0.02437444 -0.01279543
v -0.02321022 0.0142834 -0.02180663
v -0.02321022 0.0142834 -0.02180663
v -0.01125309 0.02437444 -0.01279543
v -0.03124466 0.02074647 0.001117247
v -0.04530401 0.01197217 0.001196561
v -0.04530401 0.01197217 0.001196561
v -0.03124466 0.02074647 0.001117247
v -0.01442703 0.02437451 0.01502998
v -0.02660955 0.01428325 0.02419977
v -0.02660955 0.01428325 0.02419977
v -0.01442703 0.02437451 0.01502998
v -0.002592201 0.02437448 0.02474596
v -0.007041834 0.01428342 0.03961331
v -0.007041834 0.01428342 0.03961331
v -0.002592201 0.02437448 0.02474596
v 0.01874136 0.02437439 0.03256835
v 0.02432601 0.01428332 0.04799101
v 0.02432601 0.01428332 0.04799101
v 0.01874136 0.02437439 0.03256835
v 0.02387141 0.02437456 0.01502995
v 0.03671286 0.01428333 0.02419978
v 0.03671286 0.01428333 0.02419978
v 0.02387141 0.02437456 0.01502995
v 0.02504423 0.02074636 0.001117209
v 0.03865206 0.01197201 0.001196567
v 0.03865206 0.01197201 0.001196567
v 0.02504423 0.02074636 0.001117209
v 0.03225256 0.02437439 -0.01614793
v 0.04568898 0.01428341 -0.02539706
v 0.03225256 0.02437439 -0.01614793
v 0.004623909 0.0339762 0.00109119
v 0.01203652 0.0243745 -0.03256889
v 0.01203652 0.0243745 -0.03256889
v 0.004623909 0.0339762 0.00109119
v -0.002592198 0.0243743 -0.02139402
v -0.002592198 0.0243743 -0.02139402
v 0.004623909 0.0339762 0.00109119
v -0.01125309 0.02437444 -0.01279543
v -0.01125309 0.02437444 -0.01279543
v 0.004623909 0.0339762 0.00109119
v -0.03124466 0.02074647 0.001117247
v -0.03124466 0.02074647 0.001117247
v 0.004623909 0.0339762 0.00109119
v -0.01442703 0.02437451 0.01502998
v -0.01442703 0.02437451 0.01502998
v 0.004623909 0.0339762 0.00109119
v -0.002592201 0.02437448 0.02474596
v -0.002592201 0.02437448 0.02474596
v 0.004623909 0.0339762 0.00109119
v 0.01874136 0.02437439 0.03256835
v 0.01874136 0.02437439 0.03256835
v 0.004623909 0.0339762 0.00109119
v 0.02387141 0.02437456 0.01502995
v 0.02387141 0.02437456 0.01502995
v 0.004623909 0.0339762 0.00109119
v 0.02504423 0.02074636 0.001117209
v 0.02504423 0.02074636 0.001117209
v 0.004623909 0.0339762 0.00109119
v 0.03225256 0.02437439 -0.01614793

vn -0.01640387 -0.9816117 -0.1901812
vn 0.01199339 -0.9999225 -0.003254018
vn 0.1637081 -0.9764159 -0.1407517
vn -0.1426525 -0.9823524 -0.1209685
vn -0.2680254 -0.9631642 0.02182563
vn -0.2343549 -0.9670396 0.09955602
vn -0.1424895 -0.9700241 0.1968485
vn 0.01932698 -0.9707696 0.2392323
vn 0.1433527 -0.9807176 0.1328247
vn 0.2755417 -0.9554576 -0.1057204
vn 0.402997 -0.9110239 -0.08734
vn 0.1521548 -0.7006292 -0.6971136
vn 0.1521548 -0.7006292 -0.6971135
vn 0.1521549 -0.7006292 -0.6971135
vn 0.1521548 -0.7006292 -0.6971135
vn -0.3590239 -0.7053941 -0.6111631
vn -0.3590239 -0.7053943 -0.6111631
vn -0.359024 -0.7053941 -0.6111631
vn -0.359024 -0.7053942 -0.6111632
vn -0.7424044 -0.6699091 -0.007557482
vn -0.7424045 -0.6699091 -0.007557482
vn -0.7424044 -0.6699091 -0.007557482
vn -0.7424045 -0.6699091 -0.007557452
vn -0.7069721 -0.6935188 -0.1386424
vn -0.7069722 -0.6935187 -0.1386423
vn -0.7069722 -0.6935187 -0.1386424
vn -0.7069722 -0.6935187 -0.1386423
vn -0.3659471 -0.7007762 0.6123684
vn -0.3659471 -0.7007762 0.6123684
vn -0.3659472 -0.7007761 0.6123685
vn -0.3659471 -0.7007762 0.6123685
vn -0.1353211 -0.7071602 0.693983
vn -0.1353212 -0.7071602 0.693983
vn -0.1353212 -0.7071602 0.6939829
vn -0.1353211 -0.7071602 0.6939828
vn 0.1594063 -0.6930138 0.7030796
vn 0.1594063 -0.6930139 0.7030797
vn 0.1594063 -0.6930139 0.7030797
vn 0.1594063 -0.6930138 0.7030796
vn 0.7506422 -0.6601178 0.02793679
vn 0.7506421 -0.6601178 0.02793682
vn 0.7506421 -0.6601178 0.02793682
vn 0.7506422 -0.6601178 0.02793676
vn 0.6534267 -0.6713266 -0.3497911
vn 0.6534267 -0.6713266 -0.3497911
vn 0.6534267 -0.6713266 -0.3497911
vn 0.6534267 -0.6713266 -0.3497911
vn 0.7870867 -0.6070725 -0.1093489
vn 0.7870867 -0.6070724 -0.1093489
vn 0.7870867 -0.6070725 -0.1093489
vn 0.7870867 -0.6070724 -0.1093489
vn 0.2002203 0.004548001 -0.9797403
vn 0.2002203 0.004548002 -0.9797404
vn 0.2002203 0.004548002 -0.9797404
vn 0.2002203 0.004548001 -0.9797403
vn -0.5077234 -0.003183721 -0.8615143
vn -0.5077234 -0.003183721 -0.8615143
vn -0.5077234 -0.003183721 -0.8615143
vn -0.5077234 -0.003183721 -0.8615143
vn -0.9978919 -0.01032265 -0.06407049
vn -0.9978919 -0.01032265 -0.06407049
vn -0.9978919 -0.01032265 -0.06407049
vn -0.9978919 -0.01032265 -0.06407049
vn -0.977065 -0.009732944 -0.2127183
vn -0.9770651 -0.009732945 -0.2127183
vn -0.977065 -0.009732944 -0.2127183
vn -0.977065 -0.009732944 -0.2127183
vn -0.4873882 -0.007298642 0.8731549
vn -0.4873882 -0.007298642 0.8731549
vn -0.4873882 -0.007298641 0.873155
vn -0.4873882 -0.007298642 0.8731549
vn -0.196346 -0.00450926 0.9805243
vn -0.196346 -0.00450926 0.9805243
vn -0.196346 -0.00450926 0.9805243
vn -0.196346 -0.00450926 0.9805243
vn 0.2356842 5.076872E-05 0.9718297
vn 0.2356842 5.076872E-05 0.9718297
vn 0.2356842 5.076872E-05 0.9718297
vn 0.2356842 5.076872E-05 0.9718297
vn 0.9957541 0.01023179 0.09148267
vn 0.9957541 0.01023179 0.09148267
vn 0.9957541 0.01023179 0.09148267
vn 0.9957541 0.01023179 0.09148267
vn 0.929105 0.01068236 -0.3696615
vn 0.929105 0.01068236 -0.3696615
vn 0.929105 0.01068236 -0.3696615
vn 0.929105 0.01068236 -0.3696615
vn 0.967252 0.01079344 -0.2535884
vn 0.967252 0.01079344 -0.2535884
vn 0.967252 0.01079344 -0.2535884
vn 0.967252 0.01079344 -0.2535884
vn 0.1958423 0.2172129 -0.9562764
vn 0.1958423 0.2172129 -0.9562763
vn 0.1958423 0.2172129 -0.9562763
vn 0.1958423 0.2172129 -0.9562763
vn -0.5025648 0.2180545 -0.8365888
vn -0.5025648 0.2180545 -0.8365888
vn -0.5025648 0.2180545 -0.8365888
vn -0.5025648 0.2180545 -0.8365888
vn -0.9682639 0.2487996 -0.0237416
vn -0.9682639 0.2487996 -0.0237416
vn -0.9682639 0.2487996 -0.02374163
vn -0.9682639 0.2487995 -0.0237416
vn -0.9400629 0.2453655 -0.2368065
vn -0.9400629 0.2453655 -0.2368065
vn -0.9400629 0.2453655 -0.2368065
vn -0.9400629 0.2453655 -0.2368065
vn -0.4488188 0.2369314 0.861641
vn -0.4488188 0.2369314 0.861641
vn -0.4488188 0.2369314 0.8616409
vn -0.4488188 0.2369313 0.861641
vn -0.1943579 0.2778876 0.9407462
vn -0.194358 0.2778876 0.9407462
vn -0.194358 0.2778876 0.9407462
vn -0.194358 0.2778876 0.9407462
vn 0.2094951 0.2422369 0.9473294
vn 0.2094951 0.2422369 0.9473294
vn 0.2094951 0.2422369 0.9473294
vn 0.2094951 0.2422369 0.9473294
vn 0.9775907 0.2031496 0.05519569
vn 0.9775907 0.2031496 0.05519569
vn 0.9775907 0.2031496 0.05519575
vn 0.9775907 0.2031496 0.05519569
vn 0.8957375 0.2475029 -0.369319
vn 0.8957375 0.2475029 -0.369319
vn 0.8957375 0.2475029 -0.369319
vn 0.8957375 0.2475029 -0.369319
vn 0.9575771 0.1888745 -0.2176517
vn 0.9575771 0.1888745 -0.2176517
vn 0.9575771 0.1888745 -0.2176517
vn 0.9575771 0.1888746 -0.2176517
vn 0.1064292 0.8393335 -0.5330962
vn 0.1064292 0.8393335 -0.5330963
vn 0.1064292 0.8393335 -0.5330962
vn 0.1064292 0.8393335 -0.5330963
vn -0.3270143 0.88587 -0.3290827
vn -0.3270143 0.8858699 -0.3290827
vn -0.3270143 0.88587 -0.3290827
vn -0.3270143 0.88587 -0.3290827
vn -0.5012683 0.8642264 -0.04292196
vn -0.5012683 0.8642264 -0.04292199
vn -0.5012683 0.8642264 -0.04292196
vn -0.5012683 0.8642264 -0.04292199
vn -0.5843167 0.7991623 -0.1411138
vn -0.5843167 0.7991623 -0.1411138
vn -0.5843167 0.7991623 -0.1411138
vn -0.5843167 0.7991623 -0.1411138
vn -0.2880058 0.8142926 0.503964
vn -0.2880058 0.8142927 0.503964
vn -0.2880058 0.8142926 0.5039641
vn -0.2880058 0.8142926 0.503964
vn -0.1284428 0.8195671 0.5584011
vn -0.1284428 0.819567 0.5584011
vn -0.1284428 0.819567 0.5584012
vn -0.1284428 0.819567 0.5584011
vn 0.08581293 0.8167606 0.5705591
vn 0.08581294 0.8167606 0.5705591
vn 0.08581294 0.8167606 0.5705591
vn 0.08581294 0.8167606 0.5705591
vn 0.5954329 0.8026237 -0.03541729
vn 0.5954329 0.8026237 -0.0354173
vn 0.5954329 0.8026237 -0.03541729
vn 0.5954329 0.8026237 -0.0354173
vn 0.4907969 0.8045495 -0.3343918
vn 0.4907968 0.8045496 -0.3343918
vn 0.4907968 0.8045496 -0.3343918
vn 0.4907969 0.8045495 -0.3343918
vn 0.6729614 0.7396621 -0.004744828
vn 0.6729613 0.7396622 -0.004744858
vn 0.6729614 0.7396621 -0.004744828
vn 0.6729614 0.7396621 -0.004744828
vn 0.05474392 0.9560362 -0.2880925
vn 0.05474389 0.9560362 -0.2880925
vn 0.05474392 0.9560362 -0.2880925
vn -0.3654278 0.9147929 -0.1720926
vn -0.3654279 0.9147929 -0.1720926
vn -0.3654278 0.9147929 -0.1720926
vn -0.4027889 0.9059003 -0.1307868
vn -0.4027889 0.9059003 -0.1307868
vn -0.4027889 0.9059003 -0.1307868
vn -0.4193061 0.905351 -0.06724182
vn -0.4193061 0.905351 -0.06724182
vn -0.4193061 0.905351 -0.06724182
vn -0.2383747 0.9212291 0.3074308
vn -0.2383746 0.9212291 0.3074308
vn -0.2383747 0.9212291 0.3074308
vn -0.09592888 0.9200835 0.379794
vn -0.09592889 0.9200835 0.379794
vn -0.09592889 0.9200835 0.379794
vn 0.03046991 0.9314896 0.3624886
vn 0.03046989 0.9314896 0.3624886
vn 0.03046991 0.9314896 0.3624886
vn 0.3782586 0.9232301 -0.06757159
vn 0.3782586 0.9232301 -0.0675716
vn 0.3782587 0.9232301 -0.06757161
vn 0.3947561 0.8320492 -0.3896938
vn 0.394756 0.8320492 -0.3896937
vn 0.394756 0.8320493 -0.3896937
vn 0.6096798 0.7847455 0.1116454
vn 0.6096798 0.7847455 0.1116454
vn 0.6096799 0.7847455 0.1116454

vt 0.5482839 0.007647395
vt 0.5 0.15
vt 0.6264089 0.06440853
vt 0.4517161 0.00764741
vt 0.3735911 0.06440856
vt 0.34375 0.15625
vt 0.3735911 0.2480915
vt 0.4517161 0.3048526
vt 0.5482839 0.3048526
vt 0.6264089 0.2480914
vt 0.65625 0.15625
vt 0 0
vt 0 1
vt 1 1
vt 1 0
vt 0 0
vt 0 1
vt 1 1
vt 1 0
vt 0 0
vt 0 1
vt 1 1
vt 1 0
vt 0 0
vt 0 1
vt 1 1
vt 1 0
vt 0 0
vt 0 1
vt 1 1
vt 1 0
vt 0 0
vt 0 1
vt 1 1
vt 1 0
vt 0 0
vt 0 1
vt 1 1
vt 1 0
vt 0 0
vt 0 1
vt 1 1
vt 1 0
vt 0 0
vt 0 1
vt 1 1
vt 1 0
vt 0 0
vt 0 1
vt 1 1
vt 1 0
vt 0 0
vt 0 1
vt 1 1
vt 1 0
vt 0 0
vt 0 1
vt 1 1
vt 1 0
vt 0 0
vt 0 1
vt 1 1
vt 1 0
vt 0 0
vt 0 1
vt 1 1
vt 1 0
vt 0 0
vt 0 1
vt 1 1
vt 1 0
vt 0 0
vt 0 1
vt 1 1
vt 1 0
vt 0 0
vt 0 1
vt 1 1
vt 1 0
vt 0 0
vt 0 1
vt 1 1
vt 1 0
vt 0 0
vt 0 1
vt 1 1
vt 1 0
vt 0 0
vt 0 1
vt 1 1
vt 1 0
vt 0 0
vt 0 1
vt 1 1
vt 1 0
vt 0 0
vt 0 1
vt 1 1
vt 1 0
vt 0 0
vt 0 1
vt 1 1
vt 1 0
vt 0 0
vt 0 1
vt 1 1
vt 1 0
vt 0 0
vt 0 1
vt 1 1
vt 1 0
vt 0 0
vt 0 1
vt 1 1
vt 1 0
vt 0 0
vt 0 1
vt 1 1
vt 1 0
vt 0 0
vt 0 1
vt 1 1
vt 1 0
vt 0 0
vt 0 1
vt 1 1
vt 1 0
vt 0 0
vt 0 1
vt 1 1
vt 1 0
vt 0 0
vt 0 1
vt 1 1
vt 1 0
vt 0 0
vt 0 1
vt 1 1
vt 1 0
vt 0 0
vt 0 1
vt 1 1
vt 1 0
vt 0 0
vt 0 1
vt 1 1
vt 1 0
vt 0 0
vt 0 1
vt 1 1
vt 1 0
vt 0 0
vt 0 1
vt 1 1
vt 1 0
vt 0 0
vt 0 1
vt 1 1
vt 1 0
vt 0 0
vt 0 1
vt 1 1
vt 1 0
vt 0 0
vt 0 1
vt 1 1
vt 1 0
vt 0 0
vt 0 1
vt 1 1
vt 1 0
vt 0 0
vt 0.5 1
vt 1 0
vt 0 0
vt 0.5 1
vt 1 0
vt 0 0
vt 0.5 1
vt 1 0
vt 0 0
vt 0.5 1
vt 1 0
vt 0 0
vt 0.5 1
vt 1 0
vt 0 0
vt 0.5 1
vt 1 0
vt 0 0
vt 0.5 1
vt 1 0
vt 0 0
vt 0.5 1
vt 1 0
vt 0 0
vt 0.5 1
vt 1 0
vt 0 0
vt 0.5 1
vt 1 0

g Foliage7_10_4002_55
usemtl Foliage7_10_4002_55
usemap Foliage7_10_4002_55
f 1/1/1 3/3/3 2/2/2
f 4/4/4 1/1/1 2/2/2
f 5/5/5 4/4/4 2/2/2
f 6/6/6 5/5/5 2/2/2
f 7/7/7 6/6/6 2/2/2
f 8/8/8 7/7/7 2/2/2
f 9/9/9 8/8/8 2/2/2
f 10/10/10 9/9/9 2/2/2
f 11/11/11 10/10/10 2/2/2
f 3/3/3 11/11/11 2/2/2
f 12/12/12 14/14/14 13/13/13
f 12/12/12 15/15/15 14/14/14
f 16/16/16 18/18/18 17/17/17
f 16/16/16 19/19/19 18/18/18
f 20/20/20 22/22/22 21/21/21
f 20/20/20 23/23/23 22/22/22
f 24/24/24 26/26/26 25/25/25
f 24/24/24 27/27/27 26/26/26
f 28/28/28 30/30/30 29/29/29
f 28/28/28 31/31/31 30/30/30
f 32/32/32 34/34/34 33/33/33
f 32/32/32 35/35/35 34/34/34
f 36/36/36 38/38/38 37/37/37
f 36/36/36 39/39/39 38/38/38
f 40/40/40 42/42/42 41/41/41
f 40/40/40 43/43/43 42/42/42
f 44/44/44 46/46/46 45/45/45
f 44/44/44 47/47/47 46/46/46
f 48/48/48 50/50/50 49/49/49
f 48/48/48 51/51/51 50/50/50
f 52/52/52 54/54/54 53/53/53
f 52/52/52 55/55/55 54/54/54
f 56/56/56 58/58/58 57/57/57
f 56/56/56 59/59/59 58/58/58
f 60/60/60 62/62/62 61/61/61
f 60/60/60 63/63/63 62/62/62
f 64/64/64 66/66/66 65/65/65
f 64/64/64 67/67/67 66/66/66
f 68/68/68 70/70/70 69/69/69
f 68/68/68 71/71/71 70/70/70
f 72/72/72 74/74/74 73/73/73
f 72/72/72 75/75/75 74/74/74
f 76/76/76 78/78/78 77/77/77
f 76/76/76 79/79/79 78/78/78
f 80/80/80 82/82/82 81/81/81
f 80/80/80 83/83/83 82/82/82
f 84/84/84 86/86/86 85/85/85
f 84/84/84 87/87/87 86/86/86
f 88/88/88 90/90/90 89/89/89
f 88/88/88 91/91/91 90/90/90
f 92/92/92 94/94/94 93/93/93
f 92/92/92 95/95/95 94/94/94
f 96/96/96 98/98/98 97/97/97
f 96/96/96 99/99/99 98/98/98
f 100/100/100 102/102/102 101/101/101
f 100/100/100 103/103/103 102/102/102
f 104/104/104 106/106/106 105/105/105
f 104/104/104 107/107/107 106/106/106
f 108/108/108 110/110/110 109/109/109
f 108/108/108 111/111/111 110/110/110
f 112/112/112 114/114/114 113/113/113
f 112/112/112 115/115/115 114/114/114
f 116/116/116 118/118/118 117/117/117
f 116/116/116 119/119/119 118/118/118
f 120/120/120 122/122/122 121/121/121
f 120/120/120 123/123/123 122/122/122
f 124/124/124 126/126/126 125/125/125
f 124/124/124 127/127/127 126/126/126
f 128/128/128 130/130/130 129/129/129
f 128/128/128 131/131/131 130/130/130
f 132/132/132 134/134/134 133/133/133
f 132/132/132 135/135/135 134/134/134
f 136/136/136 138/138/138 137/137/137
f 136/136/136 139/139/139 138/138/138
f 140/140/140 142/142/142 141/141/141
f 140/140/140 143/143/143 142/142/142
f 144/144/144 146/146/146 145/145/145
f 144/144/144 147/147/147 146/146/146
f 148/148/148 150/150/150 149/149/149
f 148/148/148 151/151/151 150/150/150
f 152/152/152 154/154/154 153/153/153
f 152/152/152 155/155/155 154/154/154
f 156/156/156 158/158/158 157/157/157
f 156/156/156 159/159/159 158/158/158
f 160/160/160 162/162/162 161/161/161
f 160/160/160 163/163/163 162/162/162
f 164/164/164 166/166/166 165/165/165
f 164/164/164 167/167/167 166/166/166
f 168/168/168 170/170/170 169/169/169
f 168/168/168 171/171/171 170/170/170
f 172/172/172 174/174/174 173/173/173
f 175/175/175 177/177/177 176/176/176
f 178/178/178 180/180/180 179/179/179
f 181/181/181 183/183/183 182/182/182
f 184/184/184 186/186/186 185/185/185
f 187/187/187 189/189/189 188/188/188
f 190/190/190 192/192/192 191/191/191
f 193/193/193 195/195/195 194/194/194
f 196/196/196 198/198/198 197/197/197
f 199/199/199 201/201/201 200/200/200
