#Foliage3_22_3965_150.obj

v 0.01454412 -0.02577579 -0.04035595
v 0.004622766 -0.03397615 0.001093407
v 0.03878341 -0.02577572 -0.02105281
v -0.00966454 -0.02577574 -0.03817331
v -0.01825201 -0.02577579 -0.01777797
v -0.03822324 -0.02223233 0.001093481
v -0.02135209 -0.02577573 0.01996568
v -0.005298677 -0.02577576 0.03271996
v 0.02109285 -0.02577579 0.04036056
v 0.03059736 -0.0257758 0.01996569
v 0.03218837 -0.02223233 0.001093404
v 0.03878341 -0.02577572 -0.02105281
v 0.04796571 -0.01489247 -0.02772379
v 0.01805153 -0.01489247 -0.05115066
v 0.01454412 -0.02577579 -0.04035595
v 0.01454412 -0.02577579 -0.04035595
v 0.01805153 -0.01489247 -0.05115066
v -0.01317185 -0.0148925 -0.04896796
v -0.00966454 -0.02577574 -0.03817331
v -0.00966454 -0.02577574 -0.03817331
v -0.01317185 -0.0148925 -0.04896796
v -0.02743428 -0.0148925 -0.02444983
v -0.01825201 -0.02577579 -0.01777797
v -0.01825201 -0.02577579 -0.01777797
v -0.02743428 -0.0148925 -0.02444983
v -0.04796802 -0.01288829 0.001093385
v -0.03822324 -0.02223233 0.001093481
v -0.03822324 -0.02223233 0.001093481
v -0.04796802 -0.01288829 0.001093385
v -0.03053435 -0.01489251 0.02663661
v -0.02135209 -0.02577573 0.01996568
v -0.02135209 -0.02577573 0.01996568
v -0.03053435 -0.01489251 0.02663661
v -0.008806068 -0.01489246 0.04351463
v -0.005298677 -0.02577576 0.03271996
v -0.005298677 -0.02577576 0.03271996
v -0.008806068 -0.01489246 0.04351463
v 0.02460018 -0.01489254 0.05115516
v 0.02109285 -0.02577579 0.04036056
v 0.02109285 -0.02577579 0.04036056
v 0.02460018 -0.01489254 0.05115516
v 0.0397798 -0.0148925 0.02663692
v 0.03059736 -0.0257758 0.01996569
v 0.03059736 -0.0257758 0.01996569
v 0.0397798 -0.0148925 0.02663692
v 0.04193318 -0.01288827 0.001093445
v 0.03218837 -0.02223233 0.001093404
v 0.03218837 -0.02223233 0.001093404
v 0.04193318 -0.01288827 0.001093445
v 0.04796571 -0.01489247 -0.02772379
v 0.03878341 -0.02577572 -0.02105281
v 0.04796571 -0.01489247 -0.02772379
v 0.04796569 -0.000148473 -0.02772374
v 0.01805152 -0.0001483887 -0.05115061
v 0.01805153 -0.01489247 -0.05115066
v 0.01805153 -0.01489247 -0.05115066
v 0.01805152 -0.0001483887 -0.05115061
v -0.01317187 -0.0001484264 -0.04896791
v -0.01317185 -0.0148925 -0.04896796
v -0.01317185 -0.0148925 -0.04896796
v -0.01317187 -0.0001484264 -0.04896791
v -0.02743429 -0.0001484214 -0.02444978
v -0.02743428 -0.0148925 -0.02444983
v -0.02743428 -0.0148925 -0.02444983
v -0.02743429 -0.0001484214 -0.02444978
v -0.04796816 -0.0002295372 0.00109391
v -0.04796802 -0.01288829 0.001093385
v -0.04796802 -0.01288829 0.001093385
v -0.04796816 -0.0002295372 0.00109391
v -0.03053437 -0.0001484289 0.02663666
v -0.03053435 -0.01489251 0.02663661
v -0.03053435 -0.01489251 0.02663661
v -0.03053437 -0.0001484289 0.02663666
v -0.008806083 -0.0001484547 0.04351467
v -0.008806068 -0.01489246 0.04351463
v -0.008806068 -0.01489246 0.04351463
v -0.008806083 -0.0001484547 0.04351467
v 0.02460033 -0.0001484342 0.05115462
v 0.02460018 -0.01489254 0.05115516
v 0.02460018 -0.01489254 0.05115516
v 0.02460033 -0.0001484342 0.05115462
v 0.03977979 -0.0001484263 0.02663697
v 0.0397798 -0.0148925 0.02663692
v 0.0397798 -0.0148925 0.02663692
v 0.03977979 -0.0001484263 0.02663697
v 0.04193319 -0.0002294804 0.001093376
v 0.04193318 -0.01288827 0.001093445
v 0.04193318 -0.01288827 0.001093445
v 0.04193319 -0.0002294804 0.001093376
v 0.04796569 -0.000148473 -0.02772374
v 0.04796571 -0.01489247 -0.02772379
v 0.04796569 -0.000148473 -0.02772374
v 0.04568778 0.01428326 -0.02539477
v 0.01714388 0.01428326 -0.04798885
v 0.01805152 -0.0001483887 -0.05115061
v 0.01805152 -0.0001483887 -0.05115061
v 0.01714388 0.01428326 -0.04798885
v -0.01183034 0.01428327 -0.04559522
v -0.01317187 -0.0001484264 -0.04896791
v -0.01317187 -0.0001484264 -0.04896791
v -0.01183034 0.01428327 -0.04559522
v -0.02321142 0.01428326 -0.02180432
v -0.02743429 -0.0001484214 -0.02444978
v -0.02743429 -0.0001484214 -0.02444978
v -0.02321142 0.01428326 -0.02180432
v -0.04530524 0.01197201 0.001198921
v -0.04796816 -0.0002295372 0.00109391
v -0.04796816 -0.0002295372 0.00109391
v -0.04530524 0.01197201 0.001198921
v -0.02661078 0.01428322 0.02420232
v -0.03053437 -0.0001484289 0.02663666
v -0.03053437 -0.0001484289 0.02663666
v -0.02661078 0.01428322 0.02420232
v -0.007043 0.01428326 0.03961566
v -0.008806083 -0.0001484547 0.04351467
v -0.008806083 -0.0001484547 0.04351467
v -0.007043 0.01428326 0.03961566
v 0.0243248 0.01428329 0.0479934
v 0.02460033 -0.0001484342 0.05115462
v 0.02460033 -0.0001484342 0.05115462
v 0.0243248 0.01428329 0.0479934
v 0.03671165 0.01428327 0.02420225
v 0.03977979 -0.0001484263 0.02663697
v 0.03977979 -0.0001484263 0.02663697
v 0.03671165 0.01428327 0.02420225
v 0.03865092 0.01197198 0.001198692
v 0.04193319 -0.0002294804 0.001093376
v 0.04193319 -0.0002294804 0.001093376
v 0.03865092 0.01197198 0.001198692
v 0.04568778 0.01428326 -0.02539477
v 0.04796569 -0.000148473 -0.02772374
v 0.04568778 0.01428326 -0.02539477
v 0.03225124 0.02437424 -0.01614525
v 0.01203536 0.02437431 -0.03256671
v 0.01714388 0.01428326 -0.04798885
v 0.01714388 0.01428326 -0.04798885
v 0.01203536 0.02437431 -0.03256671
v -0.00259345 0.02437429 -0.02139146
v -0.01183034 0.01428327 -0.04559522
v -0.01183034 0.01428327 -0.04559522
v -0.00259345 0.02437429 -0.02139146
v -0.01125422 0.0243743 -0.01279329
v -0.02321142 0.01428326 -0.02180432
v -0.02321142 0.01428326 -0.02180432
v -0.01125422 0.0243743 -0.01279329
v -0.03124594 0.02074632 0.001119871
v -0.04530524 0.01197201 0.001198921
v -0.04530524 0.01197201 0.001198921
v -0.03124594 0.02074632 0.001119871
v -0.01442832 0.02437427 0.01503254
v -0.02661078 0.01428322 0.02420232
v -0.02661078 0.01428322 0.02420232
v -0.01442832 0.02437427 0.01503254
v -0.002593359 0.02437431 0.02474829
v -0.007043 0.01428326 0.03961566
v -0.007043 0.01428326 0.03961566
v -0.002593359 0.02437431 0.02474829
v 0.01874022 0.02437427 0.03257063
v 0.0243248 0.01428329 0.0479934
v 0.0243248 0.01428329 0.0479934
v 0.01874022 0.02437427 0.03257063
v 0.02387012 0.02437427 0.01503268
v 0.03671165 0.01428327 0.02420225
v 0.03671165 0.01428327 0.02420225
v 0.02387012 0.02437427 0.01503268
v 0.02504307 0.02074639 0.001119505
v 0.03865092 0.01197198 0.001198692
v 0.03865092 0.01197198 0.001198692
v 0.02504307 0.02074639 0.001119505
v 0.03225124 0.02437424 -0.01614525
v 0.04568778 0.01428326 -0.02539477
v 0.03225124 0.02437424 -0.01614525
v 0.004622756 0.03397594 0.001093383
v 0.01203536 0.02437431 -0.03256671
v 0.01203536 0.02437431 -0.03256671
v 0.004622756 0.03397594 0.001093383
v -0.00259345 0.02437429 -0.02139146
v -0.00259345 0.02437429 -0.02139146
v 0.004622756 0.03397594 0.001093383
v -0.01125422 0.0243743 -0.01279329
v -0.01125422 0.0243743 -0.01279329
v 0.004622756 0.03397594 0.001093383
v -0.03124594 0.02074632 0.001119871
v -0.03124594 0.02074632 0.001119871
v 0.004622756 0.03397594 0.001093383
v -0.01442832 0.02437427 0.01503254
v -0.01442832 0.02437427 0.01503254
v 0.004622756 0.03397594 0.001093383
v -0.002593359 0.02437431 0.02474829
v -0.002593359 0.02437431 0.02474829
v 0.004622756 0.03397594 0.001093383
v 0.01874022 0.02437427 0.03257063
v 0.01874022 0.02437427 0.03257063
v 0.004622756 0.03397594 0.001093383
v 0.02387012 0.02437427 0.01503268
v 0.02387012 0.02437427 0.01503268
v 0.004622756 0.03397594 0.001093383
v 0.02504307 0.02074639 0.001119505
v 0.02504307 0.02074639 0.001119505
v 0.004622756 0.03397594 0.001093383
v 0.03225124 0.02437424 -0.01614525

vn 0.136936 -0.9905621 -0.005876739
vn -0.05247768 -0.9984621 -0.01785536
vn 0.0509699 -0.9858084 0.1599479
vn 0.09597515 -0.9849427 -0.1437908
vn -0.01593082 -0.9551576 -0.2956678
vn -0.0991086 -0.9551132 -0.2791695
vn -0.2136094 -0.9541097 -0.2098692
vn -0.2891546 -0.9553602 -0.06062818
vn -0.2119886 -0.9737761 0.08258554
vn -0.005701378 -0.9649047 0.2625374
vn -0.04816899 -0.9218276 0.3845945
vn 0.611096 -0.7427647 0.2736093
vn 0.611096 -0.7427647 0.2736092
vn 0.611096 -0.7427647 0.2736093
vn 0.611096 -0.7427647 0.2736092
vn 0.6347895 -0.7331029 -0.2441351
vn 0.6347895 -0.733103 -0.2441351
vn 0.6347895 -0.7331029 -0.2441351
vn 0.6347896 -0.7331029 -0.2441352
vn 0.1284038 -0.6554352 -0.7442559
vn 0.1284039 -0.6554351 -0.744256
vn 0.1284038 -0.6554352 -0.7442559
vn 0.1284038 -0.6554351 -0.744256
vn 0.2476201 -0.6872957 -0.6828679
vn 0.2476201 -0.6872957 -0.682868
vn 0.2476201 -0.6872957 -0.6828679
vn 0.2476201 -0.6872957 -0.6828679
vn -0.5577322 -0.657026 -0.5071995
vn -0.5577322 -0.657026 -0.5071995
vn -0.5577322 -0.6570259 -0.5071995
vn -0.5577323 -0.657026 -0.5071995
vn -0.6863843 -0.6628832 -0.2991024
vn -0.6863843 -0.6628832 -0.2991025
vn -0.6863842 -0.6628832 -0.2991025
vn -0.6863842 -0.6628832 -0.2991024
vn -0.7566875 -0.6536562 -0.01253748
vn -0.7566875 -0.6536563 -0.01253752
vn -0.7566875 -0.6536563 -0.01253748
vn -0.7566875 -0.6536562 -0.01253748
vn -0.2206943 -0.6710668 0.7077876
vn -0.2206943 -0.6710668 0.7077876
vn -0.2206943 -0.6710668 0.7077876
vn -0.2206943 -0.6710668 0.7077877
vn 0.1679001 -0.7024897 0.691605
vn 0.1679001 -0.7024898 0.691605
vn 0.1679001 -0.7024897 0.691605
vn 0.1679001 -0.7024897 0.691605
vn -0.09156676 -0.626796 0.7737843
vn -0.09156671 -0.6267959 0.7737843
vn -0.09156676 -0.626796 0.7737843
vn -0.09156673 -0.6267959 0.7737842
vn 0.9142784 -0.05627031 0.4011593
vn 0.9142784 -0.05627032 0.4011594
vn 0.9142784 -0.05627032 0.4011594
vn 0.9142784 -0.05627031 0.4011593
vn 0.9478213 -0.04406705 -0.3157419
vn 0.9478213 -0.04406705 -0.3157419
vn 0.9478213 -0.04406705 -0.3157419
vn 0.9478213 -0.04406705 -0.3157419
vn 0.2725036 0.004323507 -0.9621451
vn 0.2725036 0.004323507 -0.9621451
vn 0.2725036 0.004323507 -0.9621451
vn 0.2725036 0.004323507 -0.9621451
vn 0.4132288 -0.004138308 -0.9106178
vn 0.4132288 -0.004138306 -0.9106179
vn 0.4132288 -0.004138308 -0.9106178
vn 0.4132288 -0.004138308 -0.9106178
vn -0.7498106 0.05259445 -0.6595589
vn -0.7498106 0.05259445 -0.6595589
vn -0.7498107 0.05259445 -0.6595589
vn -0.7498106 0.05259445 -0.6595589
vn -0.9158588 0.0562834 -0.3975361
vn -0.9158588 0.0562834 -0.3975361
vn -0.9158588 0.0562834 -0.3975361
vn -0.9158588 0.0562834 -0.3975361
vn -0.9982715 0.05237799 0.02665655
vn -0.9982715 0.05237799 0.02665655
vn -0.9982715 0.05237799 0.02665655
vn -0.9982715 0.05237799 0.02665655
vn -0.298813 -0.002776541 0.9543077
vn -0.298813 -0.002776541 0.9543077
vn -0.298813 -0.002776541 0.9543077
vn -0.298813 -0.002776541 0.9543077
vn 0.1653709 -0.0279882 0.9858342
vn 0.1653709 -0.0279882 0.9858342
vn 0.1653709 -0.0279882 0.9858342
vn 0.1653709 -0.0279882 0.9858342
vn 0.04403621 -0.02181143 0.9987919
vn 0.04403622 -0.02181143 0.9987919
vn 0.04403621 -0.02181143 0.9987919
vn 0.04403621 -0.02181143 0.9987919
vn 0.9035984 0.1574453 0.3983983
vn 0.9035983 0.1574454 0.3983984
vn 0.9035983 0.1574454 0.3983984
vn 0.9035983 0.1574454 0.3983984
vn 0.9341584 0.1781156 -0.3092295
vn 0.9341584 0.1781156 -0.3092295
vn 0.9341584 0.1781156 -0.3092295
vn 0.9341584 0.1781156 -0.3092295
vn 0.2406568 0.2647672 -0.9338001
vn 0.2406568 0.2647672 -0.9338002
vn 0.2406568 0.2647672 -0.9338001
vn 0.2406568 0.2647671 -0.9338001
vn 0.4424869 0.2483975 -0.8616868
vn 0.442487 0.2483975 -0.8616868
vn 0.4424869 0.2483975 -0.8616868
vn 0.4424869 0.2483975 -0.8616868
vn -0.7337338 0.2949865 -0.6120604
vn -0.7337338 0.2949865 -0.6120604
vn -0.7337337 0.2949865 -0.6120604
vn -0.7337338 0.2949864 -0.6120604
vn -0.8624497 0.335796 -0.3787104
vn -0.8624496 0.335796 -0.3787105
vn -0.8624497 0.335796 -0.3787105
vn -0.8624497 0.335796 -0.3787105
vn -0.9559664 0.2931644 0.01352519
vn -0.9559664 0.2931644 0.0135252
vn -0.9559664 0.2931644 0.01352519
vn -0.9559664 0.2931644 0.01352519
vn -0.2493141 0.1879988 0.9499995
vn -0.2493141 0.1879988 0.9499995
vn -0.2493141 0.1879989 0.9499995
vn -0.2493141 0.1879989 0.9499995
vn 0.1846576 0.2090233 0.9603181
vn 0.1846576 0.2090233 0.9603181
vn 0.1846576 0.2090233 0.9603181
vn 0.1846576 0.2090233 0.9603181
vn 0.02046219 0.1582099 0.9871935
vn 0.02046221 0.1582099 0.9871935
vn 0.02046219 0.1582099 0.9871935
vn 0.02046219 0.1582099 0.9871935
vn 0.542468 0.8047216 0.2411455
vn 0.542468 0.8047215 0.2411455
vn 0.542468 0.8047216 0.2411455
vn 0.542468 0.8047215 0.2411455
vn 0.4372526 0.8710424 -0.2238188
vn 0.4372526 0.8710423 -0.2238188
vn 0.4372526 0.8710424 -0.2238188
vn 0.4372526 0.8710424 -0.2238187
vn 0.1935563 0.8693309 -0.4547518
vn 0.1935563 0.8693309 -0.4547518
vn 0.1935563 0.8693309 -0.4547518
vn 0.1935563 0.8693309 -0.4547518
vn 0.3034596 0.8001915 -0.517306
vn 0.3034596 0.8001915 -0.517306
vn 0.3034596 0.8001915 -0.517306
vn 0.3034596 0.8001915 -0.517306
vn -0.3878745 0.8474533 -0.3624579
vn -0.3878745 0.8474534 -0.3624578
vn -0.3878745 0.8474533 -0.3624579
vn -0.3878745 0.8474533 -0.3624579
vn -0.4743891 0.8529558 -0.2177633
vn -0.4743891 0.8529557 -0.2177633
vn -0.4743892 0.8529557 -0.2177633
vn -0.4743891 0.8529557 -0.2177633
vn -0.5316046 0.8469208 -0.01099966
vn -0.5316046 0.8469208 -0.01099965
vn -0.5316046 0.8469208 -0.01099965
vn -0.5316046 0.8469208 -0.01099965
vn -0.04840231 0.7881001 0.6136407
vn -0.04840231 0.7881001 0.6136407
vn -0.04840234 0.7881001 0.6136407
vn -0.04840231 0.7881001 0.6136407
vn 0.2655881 0.7745157 0.5740975
vn 0.2655881 0.7745157 0.5740974
vn 0.2655881 0.7745157 0.5740975
vn 0.2655881 0.7745157 0.5740975
vn -0.09804064 0.7256182 0.6810769
vn -0.09804061 0.7256183 0.6810769
vn -0.09804064 0.7256182 0.6810769
vn -0.09804064 0.7256182 0.6810769
vn 0.3204359 0.9364424 0.1428139
vn 0.3204359 0.9364424 0.1428139
vn 0.3204359 0.9364424 0.1428139
vn 0.2936628 0.9097716 -0.2933892
vn 0.2936628 0.9097716 -0.2933892
vn 0.2936628 0.9097716 -0.2933892
vn 0.2607555 0.9039916 -0.3388293
vn 0.2607555 0.9039916 -0.3388293
vn 0.2607555 0.9039916 -0.3388293
vn 0.2021877 0.9074523 -0.3683068
vn 0.2021877 0.9074523 -0.3683068
vn 0.2021877 0.9074523 -0.3683068
vn -0.2008373 0.9418173 -0.2695252
vn -0.2008373 0.9418173 -0.2695252
vn -0.2008373 0.9418173 -0.2695252
vn -0.3015786 0.9422718 -0.145511
vn -0.3015786 0.9422719 -0.145511
vn -0.3015786 0.9422719 -0.145511
vn -0.3107469 0.9503217 -0.01800659
vn -0.3107469 0.9503217 -0.01800662
vn -0.3107469 0.9503217 -0.0180066
vn 0.03520466 0.9106025 0.4117804
vn 0.03520467 0.9106025 0.4117805
vn 0.03520466 0.9106025 0.4117805
vn 0.3412874 0.8005067 0.4926576
vn 0.3412874 0.8005067 0.4926575
vn 0.3412874 0.8005068 0.4926575
vn -0.1958982 0.7785679 0.5962009
vn -0.1958982 0.7785679 0.5962009
vn -0.1958982 0.7785679 0.5962009

vt 0.5482839 0.007647395
vt 0.5 0.15
vt 0.6264089 0.06440853
vt 0.4517161 0.00764741
vt 0.3735911 0.06440856
vt 0.34375 0.15625
vt 0.3735911 0.2480915
vt 0.4517161 0.3048526
vt 0.5482839 0.3048526
vt 0.6264089 0.2480914
vt 0.65625 0.15625
vt 0 0
vt 0 1
vt 1 1
vt 1 0
vt 0 0
vt 0 1
vt 1 1
vt 1 0
vt 0 0
vt 0 1
vt 1 1
vt 1 0
vt 0 0
vt 0 1
vt 1 1
vt 1 0
vt 0 0
vt 0 1
vt 1 1
vt 1 0
vt 0 0
vt 0 1
vt 1 1
vt 1 0
vt 0 0
vt 0 1
vt 1 1
vt 1 0
vt 0 0
vt 0 1
vt 1 1
vt 1 0
vt 0 0
vt 0 1
vt 1 1
vt 1 0
vt 0 0
vt 0 1
vt 1 1
vt 1 0
vt 0 0
vt 0 1
vt 1 1
vt 1 0
vt 0 0
vt 0 1
vt 1 1
vt 1 0
vt 0 0
vt 0 1
vt 1 1
vt 1 0
vt 0 0
vt 0 1
vt 1 1
vt 1 0
vt 0 0
vt 0 1
vt 1 1
vt 1 0
vt 0 0
vt 0 1
vt 1 1
vt 1 0
vt 0 0
vt 0 1
vt 1 1
vt 1 0
vt 0 0
vt 0 1
vt 1 1
vt 1 0
vt 0 0
vt 0 1
vt 1 1
vt 1 0
vt 0 0
vt 0 1
vt 1 1
vt 1 0
vt 0 0
vt 0 1
vt 1 1
vt 1 0
vt 0 0
vt 0 1
vt 1 1
vt 1 0
vt 0 0
vt 0 1
vt 1 1
vt 1 0
vt 0 0
vt 0 1
vt 1 1
vt 1 0
vt 0 0
vt 0 1
vt 1 1
vt 1 0
vt 0 0
vt 0 1
vt 1 1
vt 1 0
vt 0 0
vt 0 1
vt 1 1
vt 1 0
vt 0 0
vt 0 1
vt 1 1
vt 1 0
vt 0 0
vt 0 1
vt 1 1
vt 1 0
vt 0 0
vt 0 1
vt 1 1
vt 1 0
vt 0 0
vt 0 1
vt 1 1
vt 1 0
vt 0 0
vt 0 1
vt 1 1
vt 1 0
vt 0 0
vt 0 1
vt 1 1
vt 1 0
vt 0 0
vt 0 1
vt 1 1
vt 1 0
vt 0 0
vt 0 1
vt 1 1
vt 1 0
vt 0 0
vt 0 1
vt 1 1
vt 1 0
vt 0 0
vt 0 1
vt 1 1
vt 1 0
vt 0 0
vt 0 1
vt 1 1
vt 1 0
vt 0 0
vt 0 1
vt 1 1
vt 1 0
vt 0 0
vt 0 1
vt 1 1
vt 1 0
vt 0 0
vt 0.5 1
vt 1 0
vt 0 0
vt 0.5 1
vt 1 0
vt 0 0
vt 0.5 1
vt 1 0
vt 0 0
vt 0.5 1
vt 1 0
vt 0 0
vt 0.5 1
vt 1 0
vt 0 0
vt 0.5 1
vt 1 0
vt 0 0
vt 0.5 1
vt 1 0
vt 0 0
vt 0.5 1
vt 1 0
vt 0 0
vt 0.5 1
vt 1 0
vt 0 0
vt 0.5 1
vt 1 0

g Foliage3_22_3965_150
usemtl Foliage3_22_3965_150
usemap Foliage3_22_3965_150
f 1/1/1 3/3/3 2/2/2
f 4/4/4 1/1/1 2/2/2
f 5/5/5 4/4/4 2/2/2
f 6/6/6 5/5/5 2/2/2
f 7/7/7 6/6/6 2/2/2
f 8/8/8 7/7/7 2/2/2
f 9/9/9 8/8/8 2/2/2
f 10/10/10 9/9/9 2/2/2
f 11/11/11 10/10/10 2/2/2
f 3/3/3 11/11/11 2/2/2
f 12/12/12 14/14/14 13/13/13
f 12/12/12 15/15/15 14/14/14
f 16/16/16 18/18/18 17/17/17
f 16/16/16 19/19/19 18/18/18
f 20/20/20 22/22/22 21/21/21
f 20/20/20 23/23/23 22/22/22
f 24/24/24 26/26/26 25/25/25
f 24/24/24 27/27/27 26/26/26
f 28/28/28 30/30/30 29/29/29
f 28/28/28 31/31/31 30/30/30
f 32/32/32 34/34/34 33/33/33
f 32/32/32 35/35/35 34/34/34
f 36/36/36 38/38/38 37/37/37
f 36/36/36 39/39/39 38/38/38
f 40/40/40 42/42/42 41/41/41
f 40/40/40 43/43/43 42/42/42
f 44/44/44 46/46/46 45/45/45
f 44/44/44 47/47/47 46/46/46
f 48/48/48 50/50/50 49/49/49
f 48/48/48 51/51/51 50/50/50
f 52/52/52 54/54/54 53/53/53
f 52/52/52 55/55/55 54/54/54
f 56/56/56 58/58/58 57/57/57
f 56/56/56 59/59/59 58/58/58
f 60/60/60 62/62/62 61/61/61
f 60/60/60 63/63/63 62/62/62
f 64/64/64 66/66/66 65/65/65
f 64/64/64 67/67/67 66/66/66
f 68/68/68 70/70/70 69/69/69
f 68/68/68 71/71/71 70/70/70
f 72/72/72 74/74/74 73/73/73
f 72/72/72 75/75/75 74/74/74
f 76/76/76 78/78/78 77/77/77
f 76/76/76 79/79/79 78/78/78
f 80/80/80 82/82/82 81/81/81
f 80/80/80 83/83/83 82/82/82
f 84/84/84 86/86/86 85/85/85
f 84/84/84 87/87/87 86/86/86
f 88/88/88 90/90/90 89/89/89
f 88/88/88 91/91/91 90/90/90
f 92/92/92 94/94/94 93/93/93
f 92/92/92 95/95/95 94/94/94
f 96/96/96 98/98/98 97/97/97
f 96/96/96 99/99/99 98/98/98
f 100/100/100 102/102/102 101/101/101
f 100/100/100 103/103/103 102/102/102
f 104/104/104 106/106/106 105/105/105
f 104/104/104 107/107/107 106/106/106
f 108/108/108 110/110/110 109/109/109
f 108/108/108 111/111/111 110/110/110
f 112/112/112 114/114/114 113/113/113
f 112/112/112 115/115/115 114/114/114
f 116/116/116 118/118/118 117/117/117
f 116/116/116 119/119/119 118/118/118
f 120/120/120 122/122/122 121/121/121
f 120/120/120 123/123/123 122/122/122
f 124/124/124 126/126/126 125/125/125
f 124/124/124 127/127/127 126/126/126
f 128/128/128 130/130/130 129/129/129
f 128/128/128 131/131/131 130/130/130
f 132/132/132 134/134/134 133/133/133
f 132/132/132 135/135/135 134/134/134
f 136/136/136 138/138/138 137/137/137
f 136/136/136 139/139/139 138/138/138
f 140/140/140 142/142/142 141/141/141
f 140/140/140 143/143/143 142/142/142
f 144/144/144 146/146/146 145/145/145
f 144/144/144 147/147/147 146/146/146
f 148/148/148 150/150/150 149/149/149
f 148/148/148 151/151/151 150/150/150
f 152/152/152 154/154/154 153/153/153
f 152/152/152 155/155/155 154/154/154
f 156/156/156 158/158/158 157/157/157
f 156/156/156 159/159/159 158/158/158
f 160/160/160 162/162/162 161/161/161
f 160/160/160 163/163/163 162/162/162
f 164/164/164 166/166/166 165/165/165
f 164/164/164 167/167/167 166/166/166
f 168/168/168 170/170/170 169/169/169
f 168/168/168 171/171/171 170/170/170
f 172/172/172 174/174/174 173/173/173
f 175/175/175 177/177/177 176/176/176
f 178/178/178 180/180/180 179/179/179
f 181/181/181 183/183/183 182/182/182
f 184/184/184 186/186/186 185/185/185
f 187/187/187 189/189/189 188/188/188
f 190/190/190 192/192/192 191/191/191
f 193/193/193 195/195/195 194/194/194
f 196/196/196 198/198/198 197/197/197
f 199/199/199 201/201/201 200/200/200
