#Foliage6_11_3888_128.obj

v 0.01454552 -0.02577555 -0.04035804
v 0.00462413 -0.03397613 0.001091656
v 0.03878473 -0.02577555 -0.02105452
v -0.009663173 -0.02577558 -0.03817514
v -0.01825052 -0.02577565 -0.01778017
v -0.03822189 -0.0222323 0.001091653
v -0.02135059 -0.02577576 0.01996344
v -0.005297387 -0.02577568 0.03271826
v 0.02109427 -0.02577546 0.04035845
v 0.03059882 -0.02577576 0.01996345
v 0.03218968 -0.02223214 0.001091655
v 0.03878473 -0.02577555 -0.02105452
v 0.04796709 -0.01489238 -0.0277259
v 0.01805292 -0.01489221 -0.05115256
v 0.01454552 -0.02577555 -0.04035804
v 0.01454552 -0.02577555 -0.04035804
v 0.01805292 -0.01489221 -0.05115256
v -0.01317051 -0.01489245 -0.04896965
v -0.009663173 -0.02577558 -0.03817514
v -0.009663173 -0.02577558 -0.03817514
v -0.01317051 -0.01489245 -0.04896965
v -0.02743297 -0.0148922 -0.02445154
v -0.01825052 -0.02577565 -0.01778017
v -0.01825052 -0.02577565 -0.01778017
v -0.02743297 -0.0148922 -0.02445154
v -0.04796665 -0.01288822 0.00109165
v -0.03822189 -0.0222323 0.001091653
v -0.03822189 -0.0222323 0.001091653
v -0.04796665 -0.01288822 0.00109165
v -0.03053301 -0.01489221 0.02663485
v -0.02135059 -0.02577576 0.01996344
v -0.02135059 -0.02577576 0.01996344
v -0.03053301 -0.01489221 0.02663485
v -0.008804681 -0.0148923 0.04351274
v -0.005297387 -0.02577568 0.03271826
v -0.005297387 -0.02577568 0.03271826
v -0.008804681 -0.0148923 0.04351274
v 0.02460157 -0.01489221 0.05115294
v 0.02109427 -0.02577546 0.04035845
v 0.02109427 -0.02577546 0.04035845
v 0.02460157 -0.01489221 0.05115294
v 0.03978122 -0.01489248 0.02663485
v 0.03059882 -0.02577576 0.01996345
v 0.03059882 -0.02577576 0.01996345
v 0.03978122 -0.01489248 0.02663485
v 0.04193453 -0.01288828 0.001091653
v 0.03218968 -0.02223214 0.001091655
v 0.03218968 -0.02223214 0.001091655
v 0.04193453 -0.01288828 0.001091653
v 0.04796709 -0.01489238 -0.0277259
v 0.03878473 -0.02577555 -0.02105452
v 0.04796709 -0.01489238 -0.0277259
v 0.04796711 -0.0001481763 -0.0277259
v 0.01805295 -0.0001483361 -0.05115256
v 0.01805292 -0.01489221 -0.05115256
v 0.01805292 -0.01489221 -0.05115256
v 0.01805295 -0.0001483361 -0.05115256
v -0.0131705 -0.0001482394 -0.04896965
v -0.01317051 -0.01489245 -0.04896965
v -0.01317051 -0.01489245 -0.04896965
v -0.0131705 -0.0001482394 -0.04896965
v -0.02743295 -0.0001483279 -0.02445154
v -0.02743297 -0.0148922 -0.02445154
v -0.02743297 -0.0148922 -0.02445154
v -0.02743295 -0.0001483279 -0.02445154
v -0.04796664 -0.0002295134 0.001091646
v -0.04796665 -0.01288822 0.00109165
v -0.04796665 -0.01288822 0.00109165
v -0.04796664 -0.0002295134 0.001091646
v -0.03053299 -0.0001483419 0.02663485
v -0.03053301 -0.01489221 0.02663485
v -0.03053301 -0.01489221 0.02663485
v -0.03053299 -0.0001483419 0.02663485
v -0.008804741 -0.0001484287 0.04351275
v -0.008804681 -0.0148923 0.04351274
v -0.008804681 -0.0148923 0.04351274
v -0.008804741 -0.0001484287 0.04351275
v 0.02460159 -0.0001483413 0.05115294
v 0.02460157 -0.01489221 0.05115294
v 0.02460157 -0.01489221 0.05115294
v 0.02460159 -0.0001483413 0.05115294
v 0.03978123 -0.000148278 0.02663486
v 0.03978122 -0.01489248 0.02663485
v 0.03978122 -0.01489248 0.02663485
v 0.03978123 -0.000148278 0.02663486
v 0.04193453 -0.000229234 0.001091663
v 0.04193453 -0.01288828 0.001091653
v 0.04193453 -0.01288828 0.001091653
v 0.04193453 -0.000229234 0.001091663
v 0.04796711 -0.0001481763 -0.0277259
v 0.04796709 -0.01489238 -0.0277259
v 0.04796711 -0.0001481763 -0.0277259
v 0.04568912 0.01428356 -0.0253966
v 0.01714533 0.01428354 -0.04799105
v 0.01805295 -0.0001483361 -0.05115256
v 0.01805295 -0.0001483361 -0.05115256
v 0.01714533 0.01428354 -0.04799105
v -0.01182889 0.01428347 -0.04559745
v -0.0131705 -0.0001482394 -0.04896965
v -0.0131705 -0.0001482394 -0.04896965
v -0.01182889 0.01428347 -0.04559745
v -0.02321001 0.01428324 -0.02180619
v -0.02743295 -0.0001483279 -0.02445154
v -0.02743295 -0.0001483279 -0.02445154
v -0.02321001 0.01428324 -0.02180619
v -0.04530382 0.01197204 0.001197002
v -0.04796664 -0.0002295134 0.001091646
v -0.04796664 -0.0002295134 0.001091646
v -0.04530382 0.01197204 0.001197002
v -0.02660933 0.01428348 0.02420019
v -0.03053299 -0.0001483419 0.02663485
v -0.03053299 -0.0001483419 0.02663485
v -0.02660933 0.01428348 0.02420019
v -0.007041674 0.01428342 0.03961378
v -0.008804741 -0.0001484287 0.04351275
v -0.008804741 -0.0001484287 0.04351275
v -0.007041674 0.01428342 0.03961378
v 0.02432617 0.01428338 0.04799144
v 0.02460159 -0.0001483413 0.05115294
v 0.02460159 -0.0001483413 0.05115294
v 0.02432617 0.01428338 0.04799144
v 0.03671307 0.01428331 0.0242002
v 0.03978123 -0.000148278 0.02663486
v 0.03978123 -0.000148278 0.02663486
v 0.03671307 0.01428331 0.0242002
v 0.03865219 0.01197218 0.001197013
v 0.04193453 -0.000229234 0.001091663
v 0.04193453 -0.000229234 0.001091663
v 0.03865219 0.01197218 0.001197013
v 0.04568912 0.01428356 -0.0253966
v 0.04796711 -0.0001481763 -0.0277259
v 0.04568912 0.01428356 -0.0253966
v 0.03225272 0.02437446 -0.01614747
v 0.01203672 0.02437435 -0.03256843
v 0.01714533 0.01428354 -0.04799105
v 0.01714533 0.01428354 -0.04799105
v 0.01203672 0.02437435 -0.03256843
v -0.002592012 0.0243744 -0.02139361
v -0.01182889 0.01428347 -0.04559745
v -0.01182889 0.01428347 -0.04559745
v -0.002592012 0.0243744 -0.02139361
v -0.01125293 0.02437454 -0.01279502
v -0.02321001 0.01428324 -0.02180619
v -0.02321001 0.01428324 -0.02180619
v -0.01125293 0.02437454 -0.01279502
v -0.03124451 0.02074636 0.001117676
v -0.04530382 0.01197204 0.001197002
v -0.04530382 0.01197204 0.001197002
v -0.03124451 0.02074636 0.001117676
v -0.01442687 0.02437445 0.01503041
v -0.02660933 0.01428348 0.02420019
v -0.02660933 0.01428348 0.02420019
v -0.01442687 0.02437445 0.01503041
v -0.002591969 0.02437443 0.02474643
v -0.007041674 0.01428342 0.03961378
v -0.007041674 0.01428342 0.03961378
v -0.002591969 0.02437443 0.02474643
v 0.01874155 0.02437459 0.0325688
v 0.02432617 0.01428338 0.04799144
v 0.02432617 0.01428338 0.04799144
v 0.01874155 0.02437459 0.0325688
v 0.02387154 0.02437433 0.01503042
v 0.03671307 0.01428331 0.0242002
v 0.03671307 0.01428331 0.0242002
v 0.02387154 0.02437433 0.01503042
v 0.02504438 0.02074653 0.001117684
v 0.03865219 0.01197218 0.001197013
v 0.03865219 0.01197218 0.001197013
v 0.02504438 0.02074653 0.001117684
v 0.03225272 0.02437446 -0.01614747
v 0.04568912 0.01428356 -0.0253966
v 0.03225272 0.02437446 -0.01614747
v 0.00462408 0.03397603 0.00109163
v 0.01203672 0.02437435 -0.03256843
v 0.01203672 0.02437435 -0.03256843
v 0.00462408 0.03397603 0.00109163
v -0.002592012 0.0243744 -0.02139361
v -0.002592012 0.0243744 -0.02139361
v 0.00462408 0.03397603 0.00109163
v -0.01125293 0.02437454 -0.01279502
v -0.01125293 0.02437454 -0.01279502
v 0.00462408 0.03397603 0.00109163
v -0.03124451 0.02074636 0.001117676
v -0.03124451 0.02074636 0.001117676
v 0.00462408 0.03397603 0.00109163
v -0.01442687 0.02437445 0.01503041
v -0.01442687 0.02437445 0.01503041
v 0.00462408 0.03397603 0.00109163
v -0.002591969 0.02437443 0.02474643
v -0.002591969 0.02437443 0.02474643
v 0.00462408 0.03397603 0.00109163
v 0.01874155 0.02437459 0.0325688
v 0.01874155 0.02437459 0.0325688
v 0.00462408 0.03397603 0.00109163
v 0.02387154 0.02437433 0.01503042
v 0.02387154 0.02437433 0.01503042
v 0.00462408 0.03397603 0.00109163
v 0.02504438 0.02074653 0.001117684
v 0.02504438 0.02074653 0.001117684
v 0.00462408 0.03397603 0.00109163
v 0.03225272 0.02437446 -0.01614747

vn 0.026487 -0.9853878 -0.1682528
vn -0.04100131 -0.9991204 0.008778857
vn 0.1595325 -0.9864962 -0.03707255
vn -0.1173195 -0.9784989 -0.1696338
vn -0.2952272 -0.94947 -0.1065238
vn -0.3040482 -0.952397 -0.02223644
vn -0.2716765 -0.9563575 0.1075725
vn -0.1514443 -0.9628218 0.2236929
vn 0.008016716 -0.9814389 0.191607
vn 0.2409638 -0.9693431 0.04806207
vn 0.3453776 -0.9299423 0.12618
vn 0.4357029 -0.727822 -0.5295642
vn 0.4357029 -0.7278219 -0.5295642
vn 0.4357029 -0.727822 -0.5295641
vn 0.4357029 -0.7278219 -0.5295642
vn -0.05181148 -0.7077063 -0.7046043
vn -0.05181149 -0.7077065 -0.7046043
vn -0.05181149 -0.7077063 -0.7046043
vn -0.05181149 -0.7077064 -0.7046043
vn -0.6785728 -0.6369278 -0.365871
vn -0.6785729 -0.6369278 -0.365871
vn -0.6785728 -0.6369278 -0.365871
vn -0.6785729 -0.6369278 -0.365871
vn -0.5849657 -0.6661012 -0.4627355
vn -0.5849658 -0.6661012 -0.4627355
vn -0.5849657 -0.6661012 -0.4627355
vn -0.5849657 -0.6661012 -0.4627355
vn -0.6549051 -0.6649206 0.3591375
vn -0.6549051 -0.6649206 0.3591375
vn -0.6549052 -0.6649205 0.3591375
vn -0.6549052 -0.6649206 0.3591376
vn -0.4941818 -0.678791 0.5431638
vn -0.4941819 -0.678791 0.5431638
vn -0.4941819 -0.678791 0.5431638
vn -0.4941818 -0.678791 0.5431638
vn -0.2411271 -0.6771906 0.6951766
vn -0.2411272 -0.6771907 0.6951766
vn -0.2411272 -0.6771907 0.6951767
vn -0.2411271 -0.6771906 0.6951766
vn 0.6052532 -0.6909321 0.3953242
vn 0.6052532 -0.6909321 0.3953242
vn 0.6052532 -0.6909321 0.3953242
vn 0.6052533 -0.6909321 0.3953242
vn 0.704372 -0.7095927 0.01838631
vn 0.704372 -0.7095928 0.01838631
vn 0.704372 -0.7095927 0.01838631
vn 0.704372 -0.7095927 0.0183863
vn 0.7068352 -0.6437957 0.2931057
vn 0.7068353 -0.6437955 0.2931056
vn 0.7068352 -0.6437957 0.2931057
vn 0.7068352 -0.6437956 0.2931056
vn 0.6529515 -0.03448616 -0.7566143
vn 0.6529516 -0.03448616 -0.7566143
vn 0.6529516 -0.03448616 -0.7566143
vn 0.6529515 -0.03448616 -0.7566143
vn -0.02188396 -0.007783592 -0.9997304
vn -0.02188396 -0.007783592 -0.9997304
vn -0.02188396 -0.007783592 -0.9997304
vn -0.02188396 -0.007783592 -0.9997304
vn -0.8385608 0.03107218 -0.5439212
vn -0.8385608 0.03107218 -0.5439212
vn -0.8385608 0.03107218 -0.5439212
vn -0.8385608 0.03107218 -0.5439212
vn -0.7478192 0.02615473 -0.6633869
vn -0.7478193 0.02615473 -0.6633869
vn -0.7478192 0.02615473 -0.6633869
vn -0.7478192 0.02615473 -0.6633869
vn -0.8512242 0.04091904 0.5232047
vn -0.8512242 0.04091904 0.5232047
vn -0.8512242 0.04091904 0.5232048
vn -0.8512242 0.04091904 0.5232047
vn -0.6499573 0.03438076 0.7591929
vn -0.6499573 0.03438076 0.7591929
vn -0.6499573 0.03438076 0.7591929
vn -0.6499573 0.03438076 0.7591929
vn -0.2691173 0.01989129 0.9629022
vn -0.2691173 0.01989129 0.9629022
vn -0.2691173 0.01989129 0.9629022
vn -0.2691173 0.01989129 0.9629022
vn 0.8233115 -0.03022148 0.5667847
vn 0.8233115 -0.03022148 0.5667847
vn 0.8233115 -0.03022148 0.5667847
vn 0.8233115 -0.03022148 0.5667847
vn 0.9903985 -0.04114969 0.1319757
vn 0.9903985 -0.04114969 0.1319757
vn 0.9903985 -0.04114969 0.1319757
vn 0.9903985 -0.04114969 0.1319757
vn 0.9669702 -0.03910348 0.2518719
vn 0.9669702 -0.03910348 0.2518719
vn 0.9669702 -0.03910348 0.2518719
vn 0.9669702 -0.03910348 0.2518719
vn 0.6489632 0.1787924 -0.7395137
vn 0.6489631 0.1787924 -0.7395136
vn 0.6489631 0.1787924 -0.7395136
vn 0.6489631 0.1787924 -0.7395136
vn -0.01782349 0.2136869 -0.9767397
vn -0.0178235 0.2136869 -0.9767397
vn -0.0178235 0.2136869 -0.9767397
vn -0.0178235 0.2136869 -0.9767397
vn -0.8186945 0.2897863 -0.4957449
vn -0.8186946 0.2897863 -0.4957449
vn -0.8186945 0.2897863 -0.4957449
vn -0.8186945 0.2897862 -0.4957449
vn -0.6902954 0.2785363 -0.6677648
vn -0.6902953 0.2785363 -0.6677648
vn -0.6902954 0.2785363 -0.6677648
vn -0.6902954 0.2785363 -0.6677647
vn -0.7990501 0.2827688 0.5306233
vn -0.7990501 0.2827688 0.5306233
vn -0.7990501 0.2827688 0.5306232
vn -0.7990501 0.2827688 0.5306233
vn -0.6138276 0.3150577 0.723847
vn -0.6138276 0.3150577 0.723847
vn -0.6138276 0.3150578 0.723847
vn -0.6138276 0.3150578 0.723847
vn -0.2671247 0.2621122 0.9273306
vn -0.2671247 0.2621122 0.9273306
vn -0.2671247 0.2621122 0.9273306
vn -0.2671247 0.2621122 0.9273306
vn 0.8354363 0.1620877 0.5251417
vn 0.8354363 0.1620877 0.5251417
vn 0.8354362 0.1620877 0.5251418
vn 0.8354363 0.1620877 0.5251417
vn 0.9737251 0.1967942 0.1145914
vn 0.9737252 0.1967942 0.1145914
vn 0.9737252 0.1967942 0.1145914
vn 0.9737252 0.1967942 0.1145914
vn 0.9504443 0.1402568 0.2774593
vn 0.9504443 0.1402568 0.2774592
vn 0.9504443 0.1402568 0.2774593
vn 0.9504443 0.1402569 0.2774593
vn 0.3974819 0.8170117 -0.4177318
vn 0.3974819 0.8170117 -0.4177318
vn 0.3974819 0.8170117 -0.4177318
vn 0.3974819 0.8170117 -0.4177318
vn -0.07723045 0.8886324 -0.4520706
vn -0.07723046 0.8886323 -0.4520706
vn -0.07723045 0.8886324 -0.4520706
vn -0.07723042 0.8886324 -0.4520706
vn -0.3698748 0.8834496 -0.2875917
vn -0.3698748 0.8834496 -0.2875918
vn -0.3698748 0.8834496 -0.2875917
vn -0.3698748 0.8834496 -0.2875918
vn -0.3977362 0.8190476 -0.4134812
vn -0.3977362 0.8190476 -0.4134812
vn -0.3977362 0.8190476 -0.4134812
vn -0.3977362 0.8190476 -0.4134812
vn -0.4537252 0.8412481 0.2939982
vn -0.4537251 0.8412482 0.2939982
vn -0.4537252 0.8412481 0.2939982
vn -0.4537252 0.8412481 0.2939982
vn -0.3410209 0.8412663 0.4194945
vn -0.3410209 0.8412662 0.4194945
vn -0.3410209 0.8412662 0.4194945
vn -0.3410209 0.8412662 0.4194945
vn -0.160461 0.8295297 0.5349137
vn -0.160461 0.8295297 0.5349137
vn -0.160461 0.8295297 0.5349137
vn -0.160461 0.8295297 0.5349137
vn 0.5785609 0.7745098 0.2557374
vn 0.5785609 0.7745097 0.2557374
vn 0.5785609 0.7745097 0.2557374
vn 0.5785609 0.7745097 0.2557374
vn 0.6334661 0.7717254 -0.05621759
vn 0.6334659 0.7717255 -0.0562176
vn 0.633466 0.7717255 -0.0562176
vn 0.6334661 0.7717254 -0.05621757
vn 0.6277847 0.7092184 0.3207732
vn 0.6277847 0.7092185 0.3207732
vn 0.6277847 0.7092184 0.3207732
vn 0.6277847 0.7092184 0.3207732
vn 0.2390407 0.9433781 -0.2299934
vn 0.2390407 0.9433781 -0.2299934
vn 0.2390407 0.9433781 -0.2299934
vn -0.1857994 0.9240428 -0.3341005
vn -0.1857994 0.9240428 -0.3341006
vn -0.1857994 0.9240428 -0.3341005
vn -0.2389822 0.918065 -0.3162972
vn -0.2389821 0.918065 -0.3162972
vn -0.2389822 0.918065 -0.3162972
vn -0.2844215 0.9202012 -0.2689497
vn -0.2844215 0.9202012 -0.2689497
vn -0.2844215 0.9202012 -0.2689497
vn -0.3088738 0.9397921 0.1462445
vn -0.3088737 0.9397921 0.1462445
vn -0.3088738 0.9397921 0.1462445
vn -0.2201725 0.934698 0.2790402
vn -0.2201726 0.934698 0.2790402
vn -0.2201726 0.934698 0.2790402
vn -0.1010099 0.9400595 0.3257064
vn -0.1010099 0.9400595 0.3257063
vn -0.1010098 0.9400595 0.3257063
vn 0.4114687 0.9033865 0.1207726
vn 0.4114687 0.9033865 0.1207726
vn 0.4114687 0.9033864 0.1207726
vn 0.5782584 0.8016475 -0.1515861
vn 0.5782583 0.8016475 -0.1515861
vn 0.5782583 0.8016475 -0.1515861
vn 0.51823 0.7605901 0.3910757
vn 0.5182299 0.7605901 0.3910757
vn 0.51823 0.7605901 0.3910757

vt 0.5483398 0.007648468
vt 0.5 0.1500244
vt 0.6264648 0.06439209
vt 0.4516602 0.007648468
vt 0.3735352 0.06439209
vt 0.34375 0.15625
vt 0.3735352 0.2480469
vt 0.4516602 0.3049316
vt 0.5483398 0.3049316
vt 0.6264648 0.2480469
vt 0.65625 0.15625
vt 0 0
vt 0 1
vt 1 1
vt 1 0
vt 0 0
vt 0 1
vt 1 1
vt 1 0
vt 0 0
vt 0 1
vt 1 1
vt 1 0
vt 0 0
vt 0 1
vt 1 1
vt 1 0
vt 0 0
vt 0 1
vt 1 1
vt 1 0
vt 0 0
vt 0 1
vt 1 1
vt 1 0
vt 0 0
vt 0 1
vt 1 1
vt 1 0
vt 0 0
vt 0 1
vt 1 1
vt 1 0
vt 0 0
vt 0 1
vt 1 1
vt 1 0
vt 0 0
vt 0 1
vt 1 1
vt 1 0
vt 0 0
vt 0 1
vt 1 1
vt 1 0
vt 0 0
vt 0 1
vt 1 1
vt 1 0
vt 0 0
vt 0 1
vt 1 1
vt 1 0
vt 0 0
vt 0 1
vt 1 1
vt 1 0
vt 0 0
vt 0 1
vt 1 1
vt 1 0
vt 0 0
vt 0 1
vt 1 1
vt 1 0
vt 0 0
vt 0 1
vt 1 1
vt 1 0
vt 0 0
vt 0 1
vt 1 1
vt 1 0
vt 0 0
vt 0 1
vt 1 1
vt 1 0
vt 0 0
vt 0 1
vt 1 1
vt 1 0
vt 0 0
vt 0 1
vt 1 1
vt 1 0
vt 0 0
vt 0 1
vt 1 1
vt 1 0
vt 0 0
vt 0 1
vt 1 1
vt 1 0
vt 0 0
vt 0 1
vt 1 1
vt 1 0
vt 0 0
vt 0 1
vt 1 1
vt 1 0
vt 0 0
vt 0 1
vt 1 1
vt 1 0
vt 0 0
vt 0 1
vt 1 1
vt 1 0
vt 0 0
vt 0 1
vt 1 1
vt 1 0
vt 0 0
vt 0 1
vt 1 1
vt 1 0
vt 0 0
vt 0 1
vt 1 1
vt 1 0
vt 0 0
vt 0 1
vt 1 1
vt 1 0
vt 0 0
vt 0 1
vt 1 1
vt 1 0
vt 0 0
vt 0 1
vt 1 1
vt 1 0
vt 0 0
vt 0 1
vt 1 1
vt 1 0
vt 0 0
vt 0 1
vt 1 1
vt 1 0
vt 0 0
vt 0 1
vt 1 1
vt 1 0
vt 0 0
vt 0 1
vt 1 1
vt 1 0
vt 0 0
vt 0 1
vt 1 1
vt 1 0
vt 0 0
vt 0 1
vt 1 1
vt 1 0
vt 0 0
vt 0 1
vt 1 1
vt 1 0
vt 0 0
vt 0.5 1
vt 1 0
vt 0 0
vt 0.5 1
vt 1 0
vt 0 0
vt 0.5 1
vt 1 0
vt 0 0
vt 0.5 1
vt 1 0
vt 0 0
vt 0.5 1
vt 1 0
vt 0 0
vt 0.5 1
vt 1 0
vt 0 0
vt 0.5 1
vt 1 0
vt 0 0
vt 0.5 1
vt 1 0
vt 0 0
vt 0.5 1
vt 1 0
vt 0 0
vt 0.5 1
vt 1 0

g Foliage6_11_3888_128
usemtl Foliage6_11_3888_128
usemap Foliage6_11_3888_128
f 1/1/1 3/3/3 2/2/2
f 4/4/4 1/1/1 2/2/2
f 5/5/5 4/4/4 2/2/2
f 6/6/6 5/5/5 2/2/2
f 7/7/7 6/6/6 2/2/2
f 8/8/8 7/7/7 2/2/2
f 9/9/9 8/8/8 2/2/2
f 10/10/10 9/9/9 2/2/2
f 11/11/11 10/10/10 2/2/2
f 3/3/3 11/11/11 2/2/2
f 12/12/12 14/14/14 13/13/13
f 12/12/12 15/15/15 14/14/14
f 16/16/16 18/18/18 17/17/17
f 16/16/16 19/19/19 18/18/18
f 20/20/20 22/22/22 21/21/21
f 20/20/20 23/23/23 22/22/22
f 24/24/24 26/26/26 25/25/25
f 24/24/24 27/27/27 26/26/26
f 28/28/28 30/30/30 29/29/29
f 28/28/28 31/31/31 30/30/30
f 32/32/32 34/34/34 33/33/33
f 32/32/32 35/35/35 34/34/34
f 36/36/36 38/38/38 37/37/37
f 36/36/36 39/39/39 38/38/38
f 40/40/40 42/42/42 41/41/41
f 40/40/40 43/43/43 42/42/42
f 44/44/44 46/46/46 45/45/45
f 44/44/44 47/47/47 46/46/46
f 48/48/48 50/50/50 49/49/49
f 48/48/48 51/51/51 50/50/50
f 52/52/52 54/54/54 53/53/53
f 52/52/52 55/55/55 54/54/54
f 56/56/56 58/58/58 57/57/57
f 56/56/56 59/59/59 58/58/58
f 60/60/60 62/62/62 61/61/61
f 60/60/60 63/63/63 62/62/62
f 64/64/64 66/66/66 65/65/65
f 64/64/64 67/67/67 66/66/66
f 68/68/68 70/70/70 69/69/69
f 68/68/68 71/71/71 70/70/70
f 72/72/72 74/74/74 73/73/73
f 72/72/72 75/75/75 74/74/74
f 76/76/76 78/78/78 77/77/77
f 76/76/76 79/79/79 78/78/78
f 80/80/80 82/82/82 81/81/81
f 80/80/80 83/83/83 82/82/82
f 84/84/84 86/86/86 85/85/85
f 84/84/84 87/87/87 86/86/86
f 88/88/88 90/90/90 89/89/89
f 88/88/88 91/91/91 90/90/90
f 92/92/92 94/94/94 93/93/93
f 92/92/92 95/95/95 94/94/94
f 96/96/96 98/98/98 97/97/97
f 96/96/96 99/99/99 98/98/98
f 100/100/100 102/102/102 101/101/101
f 100/100/100 103/103/103 102/102/102
f 104/104/104 106/106/106 105/105/105
f 104/104/104 107/107/107 106/106/106
f 108/108/108 110/110/110 109/109/109
f 108/108/108 111/111/111 110/110/110
f 112/112/112 114/114/114 113/113/113
f 112/112/112 115/115/115 114/114/114
f 116/116/116 118/118/118 117/117/117
f 116/116/116 119/119/119 118/118/118
f 120/120/120 122/122/122 121/121/121
f 120/120/120 123/123/123 122/122/122
f 124/124/124 126/126/126 125/125/125
f 124/124/124 127/127/127 126/126/126
f 128/128/128 130/130/130 129/129/129
f 128/128/128 131/131/131 130/130/130
f 132/132/132 134/134/134 133/133/133
f 132/132/132 135/135/135 134/134/134
f 136/136/136 138/138/138 137/137/137
f 136/136/136 139/139/139 138/138/138
f 140/140/140 142/142/142 141/141/141
f 140/140/140 143/143/143 142/142/142
f 144/144/144 146/146/146 145/145/145
f 144/144/144 147/147/147 146/146/146
f 148/148/148 150/150/150 149/149/149
f 148/148/148 151/151/151 150/150/150
f 152/152/152 154/154/154 153/153/153
f 152/152/152 155/155/155 154/154/154
f 156/156/156 158/158/158 157/157/157
f 156/156/156 159/159/159 158/158/158
f 160/160/160 162/162/162 161/161/161
f 160/160/160 163/163/163 162/162/162
f 164/164/164 166/166/166 165/165/165
f 164/164/164 167/167/167 166/166/166
f 168/168/168 170/170/170 169/169/169
f 168/168/168 171/171/171 170/170/170
f 172/172/172 174/174/174 173/173/173
f 175/175/175 177/177/177 176/176/176
f 178/178/178 180/180/180 179/179/179
f 181/181/181 183/183/183 182/182/182
f 184/184/184 186/186/186 185/185/185
f 187/187/187 189/189/189 188/188/188
f 190/190/190 192/192/192 191/191/191
f 193/193/193 195/195/195 194/194/194
f 196/196/196 198/198/198 197/197/197
f 199/199/199 201/201/201 200/200/200
