#Foliage8_8_4162_233.obj

v 0.01454537 -0.02577549 -0.04035801
v 0.004623972 -0.03397591 0.001091703
v 0.03878459 -0.02577548 -0.02105448
v -0.009663331 -0.02577547 -0.03817511
v -0.0182507 -0.02577553 -0.01778014
v -0.03822201 -0.02223209 0.001091694
v -0.02135077 -0.02577549 0.01996348
v -0.005297482 -0.02577557 0.03271829
v 0.02109415 -0.0257756 0.0403585
v 0.03059866 -0.02577552 0.01996347
v 0.03218957 -0.02223206 0.001091694
v 0.03878459 -0.02577548 -0.02105448
v 0.04796698 -0.0148923 -0.02772587
v 0.01805277 -0.01489233 -0.05115252
v 0.01454537 -0.02577549 -0.04035801
v 0.01454537 -0.02577549 -0.04035801
v 0.01805277 -0.01489233 -0.05115252
v -0.01317064 -0.0148923 -0.0489696
v -0.009663331 -0.02577547 -0.03817511
v -0.009663331 -0.02577547 -0.03817511
v -0.01317064 -0.0148923 -0.0489696
v -0.02743312 -0.01489221 -0.02445152
v -0.0182507 -0.02577553 -0.01778014
v -0.0182507 -0.02577553 -0.01778014
v -0.02743312 -0.01489221 -0.02445152
v -0.04796683 -0.01288812 0.001091701
v -0.03822201 -0.02223209 0.001091694
v -0.03822201 -0.02223209 0.001091694
v -0.04796683 -0.01288812 0.001091701
v -0.03053319 -0.01489222 0.02663489
v -0.02135077 -0.02577549 0.01996348
v -0.02135077 -0.02577549 0.01996348
v -0.03053319 -0.01489222 0.02663489
v -0.008804891 -0.01489229 0.04351278
v -0.005297482 -0.02577557 0.03271829
v -0.005297482 -0.02577557 0.03271829
v -0.008804891 -0.01489229 0.04351278
v 0.02460146 -0.01489233 0.05115295
v 0.02109415 -0.0257756 0.0403585
v 0.02109415 -0.0257756 0.0403585
v 0.02460146 -0.01489233 0.05115295
v 0.03978105 -0.01489224 0.02663487
v 0.03059866 -0.02577552 0.01996347
v 0.03059866 -0.02577552 0.01996347
v 0.03978105 -0.01489224 0.02663487
v 0.04193433 -0.01288816 0.001091681
v 0.03218957 -0.02223206 0.001091694
v 0.03218957 -0.02223206 0.001091694
v 0.04193433 -0.01288816 0.001091681
v 0.04796698 -0.0148923 -0.02772587
v 0.03878459 -0.02577548 -0.02105448
v 0.04796698 -0.0148923 -0.02772587
v 0.04796699 -0.0001481748 -0.02772587
v 0.01805278 -0.000148202 -0.05115251
v 0.01805277 -0.01489233 -0.05115252
v 0.01805277 -0.01489233 -0.05115252
v 0.01805278 -0.000148202 -0.05115251
v -0.01317064 -0.0001481674 -0.04896959
v -0.01317064 -0.0148923 -0.0489696
v -0.01317064 -0.0148923 -0.0489696
v -0.01317064 -0.0001481674 -0.04896959
v -0.0274331 -0.0001482503 -0.02445151
v -0.02743312 -0.01489221 -0.02445152
v -0.02743312 -0.01489221 -0.02445152
v -0.0274331 -0.0001482503 -0.02445151
v -0.04796683 -0.0002293265 0.001091697
v -0.04796683 -0.01288812 0.001091701
v -0.04796683 -0.01288812 0.001091701
v -0.04796683 -0.0002293265 0.001091697
v -0.03053317 -0.0001482584 0.02663488
v -0.03053319 -0.01489222 0.02663489
v -0.03053319 -0.01489222 0.02663489
v -0.03053317 -0.0001482584 0.02663488
v -0.008804876 -0.0001481596 0.04351277
v -0.008804891 -0.01489229 0.04351278
v -0.008804891 -0.01489229 0.04351278
v -0.008804876 -0.0001481596 0.04351277
v 0.02460146 -0.0001482046 0.05115298
v 0.02460146 -0.01489233 0.05115295
v 0.02460146 -0.01489233 0.05115295
v 0.02460146 -0.0001482046 0.05115298
v 0.03978107 -0.000148275 0.02663487
v 0.03978105 -0.01489224 0.02663487
v 0.03978105 -0.01489224 0.02663487
v 0.03978107 -0.000148275 0.02663487
v 0.04193433 -0.0002293661 0.001091676
v 0.04193433 -0.01288816 0.001091681
v 0.04193433 -0.01288816 0.001091681
v 0.04193433 -0.0002293661 0.001091676
v 0.04796699 -0.0001481748 -0.02772587
v 0.04796698 -0.0148923 -0.02772587
v 0.04796699 -0.0001481748 -0.02772587
v 0.04568898 0.0142834 -0.02539657
v 0.01714517 0.01428351 -0.04799103
v 0.01805278 -0.000148202 -0.05115251
v 0.01805278 -0.000148202 -0.05115251
v 0.01714517 0.01428351 -0.04799103
v -0.01182905 0.01428343 -0.04559742
v -0.01317064 -0.0001481674 -0.04896959
v -0.01317064 -0.0001481674 -0.04896959
v -0.01182905 0.01428343 -0.04559742
v -0.02321016 0.01428348 -0.02180613
v -0.0274331 -0.0001482503 -0.02445151
v -0.0274331 -0.0001482503 -0.02445151
v -0.02321016 0.01428348 -0.02180613
v -0.045304 0.01197213 0.001197064
v -0.04796683 -0.0002293265 0.001091697
v -0.04796683 -0.0002293265 0.001091697
v -0.045304 0.01197213 0.001197064
v -0.02660952 0.01428345 0.0242002
v -0.03053317 -0.0001482584 0.02663488
v -0.03053317 -0.0001482584 0.02663488
v -0.02660952 0.01428345 0.0242002
v -0.007041775 0.01428354 0.03961381
v -0.008804876 -0.0001481596 0.04351277
v -0.008804876 -0.0001481596 0.04351277
v -0.007041775 0.01428354 0.03961381
v 0.02432606 0.01428344 0.04799149
v 0.02460146 -0.0001482046 0.05115298
v 0.02460146 -0.0001482046 0.05115298
v 0.02432606 0.01428344 0.04799149
v 0.0367129 0.01428352 0.02420025
v 0.03978107 -0.000148275 0.02663487
v 0.03978107 -0.000148275 0.02663487
v 0.0367129 0.01428352 0.02420025
v 0.03865208 0.01197226 0.001197056
v 0.04193433 -0.0002293661 0.001091676
v 0.04193433 -0.0002293661 0.001091676
v 0.03865208 0.01197226 0.001197056
v 0.04568898 0.0142834 -0.02539657
v 0.04796699 -0.0001481748 -0.02772587
v 0.04568898 0.0142834 -0.02539657
v 0.03225255 0.02437457 -0.01614743
v 0.01203656 0.02437451 -0.03256838
v 0.01714517 0.01428351 -0.04799103
v 0.01714517 0.01428351 -0.04799103
v 0.01203656 0.02437451 -0.03256838
v -0.00259215 0.02437454 -0.02139357
v -0.01182905 0.01428343 -0.04559742
v -0.01182905 0.01428343 -0.04559742
v -0.00259215 0.02437454 -0.02139357
v -0.01125302 0.02437457 -0.01279499
v -0.02321016 0.01428348 -0.02180613
v -0.02321016 0.01428348 -0.02180613
v -0.01125302 0.02437457 -0.01279499
v -0.03124465 0.02074663 0.001117697
v -0.045304 0.01197213 0.001197064
v -0.045304 0.01197213 0.001197064
v -0.03124465 0.02074663 0.001117697
v -0.01442702 0.02437451 0.01503047
v -0.02660952 0.01428345 0.0242002
v -0.02660952 0.01428345 0.0242002
v -0.01442702 0.02437451 0.01503047
v -0.00259213 0.02437448 0.02474647
v -0.007041775 0.01428354 0.03961381
v -0.007041775 0.01428354 0.03961381
v -0.00259213 0.02437448 0.02474647
v 0.01874142 0.02437452 0.03256885
v 0.02432606 0.01428344 0.04799149
v 0.02432606 0.01428344 0.04799149
v 0.01874142 0.02437452 0.03256885
v 0.0238714 0.02437456 0.01503044
v 0.0367129 0.01428352 0.02420025
v 0.0367129 0.01428352 0.02420025
v 0.0238714 0.02437456 0.01503044
v 0.0250443 0.02074652 0.001117737
v 0.03865208 0.01197226 0.001197056
v 0.03865208 0.01197226 0.001197056
v 0.0250443 0.02074652 0.001117737
v 0.03225255 0.02437457 -0.01614743
v 0.04568898 0.0142834 -0.02539657
v 0.03225255 0.02437457 -0.01614743
v 0.004623977 0.03397617 0.001091679
v 0.01203656 0.02437451 -0.03256838
v 0.01203656 0.02437451 -0.03256838
v 0.004623977 0.03397617 0.001091679
v -0.00259215 0.02437454 -0.02139357
v -0.00259215 0.02437454 -0.02139357
v 0.004623977 0.03397617 0.001091679
v -0.01125302 0.02437457 -0.01279499
v -0.01125302 0.02437457 -0.01279499
v 0.004623977 0.03397617 0.001091679
v -0.03124465 0.02074663 0.001117697
v -0.03124465 0.02074663 0.001117697
v 0.004623977 0.03397617 0.001091679
v -0.01442702 0.02437451 0.01503047
v -0.01442702 0.02437451 0.01503047
v 0.004623977 0.03397617 0.001091679
v -0.00259213 0.02437448 0.02474647
v -0.00259213 0.02437448 0.02474647
v 0.004623977 0.03397617 0.001091679
v 0.01874142 0.02437452 0.03256885
v 0.01874142 0.02437452 0.03256885
v 0.004623977 0.03397617 0.001091679
v 0.0238714 0.02437456 0.01503044
v 0.0238714 0.02437456 0.01503044
v 0.004623977 0.03397617 0.001091679
v 0.0250443 0.02074652 0.001117737
v 0.0250443 0.02074652 0.001117737
v 0.004623977 0.03397617 0.001091679
v 0.03225255 0.02437457 -0.01614743

vn 0.2035004 -0.978935 -0.01653286
vn 0.01470223 -0.9997859 -0.01454389
vn 0.1298252 -0.9793195 0.1551716
vn 0.1522305 -0.9767331 -0.151055
vn 0.02769651 -0.9553217 -0.2942666
vn -0.05385259 -0.9608762 -0.2716916
vn -0.1627532 -0.9673758 -0.1941519
vn -0.226868 -0.9731134 -0.03975671
vn -0.138312 -0.9855895 0.09737857
vn 0.07954812 -0.9618744 0.261666
vn 0.04331801 -0.9212531 0.3865434
vn 0.6788673 -0.6981449 0.2274482
vn 0.6788673 -0.6981449 0.2274482
vn 0.6788673 -0.6981449 0.2274483
vn 0.6788673 -0.6981449 0.2274482
vn 0.6637458 -0.6891845 -0.29063
vn 0.6637458 -0.6891846 -0.29063
vn 0.6637458 -0.6891845 -0.29063
vn 0.6637458 -0.6891845 -0.29063
vn 0.1178674 -0.6484457 -0.7520806
vn 0.1178674 -0.6484456 -0.7520806
vn 0.1178674 -0.6484457 -0.7520806
vn 0.1178674 -0.6484456 -0.7520806
vn 0.243169 -0.6718303 -0.6996517
vn 0.243169 -0.6718302 -0.6996518
vn 0.243169 -0.6718302 -0.6996518
vn 0.2431689 -0.6718302 -0.6996518
vn -0.5472828 -0.6957702 -0.465172
vn -0.5472828 -0.6957702 -0.465172
vn -0.5472829 -0.6957701 -0.4651721
vn -0.5472829 -0.6957702 -0.4651721
vn -0.659598 -0.7094643 -0.2481747
vn -0.659598 -0.7094643 -0.2481748
vn -0.6595979 -0.7094643 -0.2481748
vn -0.6595979 -0.7094643 -0.2481747
vn -0.7091248 -0.703783 0.04279247
vn -0.7091248 -0.703783 0.04279244
vn -0.7091249 -0.703783 0.0427925
vn -0.7091248 -0.703783 0.04279247
vn -0.1217288 -0.6814105 0.7217073
vn -0.1217288 -0.6814105 0.7217073
vn -0.1217288 -0.6814105 0.7217073
vn -0.1217288 -0.6814105 0.7217074
vn 0.2658632 -0.6863333 0.6769513
vn 0.2658632 -0.6863334 0.6769513
vn 0.2658632 -0.6863333 0.6769513
vn 0.2658632 -0.6863333 0.6769513
vn 0.008570418 -0.6281456 0.7780485
vn 0.008570477 -0.6281455 0.7780486
vn 0.008570418 -0.6281456 0.7780485
vn 0.008570448 -0.6281455 0.7780485
vn 0.9429808 0.007984359 0.3327517
vn 0.9429808 0.007984359 0.3327517
vn 0.9429808 0.007984359 0.3327517
vn 0.9429808 0.007984359 0.3327517
vn 0.9228544 0.01926915 -0.3846666
vn 0.9228544 0.01926915 -0.3846666
vn 0.9228544 0.01926915 -0.3846666
vn 0.9228544 0.01926915 -0.3846666
vn 0.2001505 0.01863143 -0.979588
vn 0.2001505 0.01863143 -0.979588
vn 0.2001505 0.01863143 -0.979588
vn 0.2001505 0.01863143 -0.979588
vn 0.3445293 0.02001391 -0.9385621
vn 0.3445293 0.02001391 -0.9385622
vn 0.3445293 0.02001391 -0.9385621
vn 0.3445293 0.02001391 -0.9385621
vn -0.7980746 -0.001581676 -0.6025566
vn -0.7980746 -0.001581676 -0.6025566
vn -0.7980747 -0.001581679 -0.6025566
vn -0.7980746 -0.001581676 -0.6025566
vn -0.944288 -0.008063016 -0.329022
vn -0.944288 -0.008063016 -0.329022
vn -0.944288 -0.008063016 -0.329022
vn -0.944288 -0.008063016 -0.329022
vn -0.9948552 -0.01569908 0.1000831
vn -0.9948552 -0.01569908 0.1000831
vn -0.9948552 -0.01569908 0.1000831
vn -0.9948552 -0.01569908 0.1000831
vn -0.2270086 -0.01891688 0.973709
vn -0.2270086 -0.01891688 0.973709
vn -0.2270086 -0.01891688 0.973709
vn -0.2270086 -0.01891688 0.973709
vn 0.2388719 -0.01227687 0.9709734
vn 0.2388719 -0.01227687 0.9709734
vn 0.2388719 -0.01227687 0.9709734
vn 0.2388719 -0.01227687 0.9709734
vn 0.1186793 -0.01433101 0.9928292
vn 0.1186793 -0.01433101 0.9928291
vn 0.1186793 -0.01433101 0.9928292
vn 0.1186793 -0.01433101 0.9928292
vn 0.9175482 0.2204599 0.3309124
vn 0.9175481 0.22046 0.3309124
vn 0.9175481 0.22046 0.3309124
vn 0.9175481 0.22046 0.3309124
vn 0.8945567 0.2400297 -0.377033
vn 0.8945567 0.2400297 -0.377033
vn 0.8945567 0.2400297 -0.377033
vn 0.8945567 0.2400297 -0.377033
vn 0.1527501 0.2764203 -0.9488198
vn 0.1527501 0.2764203 -0.9488199
vn 0.1527501 0.2764204 -0.9488198
vn 0.1527501 0.2764203 -0.9488198
vn 0.3599782 0.2741714 -0.8917655
vn 0.3599782 0.2741714 -0.8917655
vn 0.3599782 0.2741714 -0.8917655
vn 0.3599781 0.2741714 -0.8917655
vn -0.7951525 0.2415505 -0.5562246
vn -0.7951525 0.2415506 -0.5562246
vn -0.7951525 0.2415505 -0.5562246
vn -0.7951525 0.2415505 -0.5562246
vn -0.9088649 0.2745216 -0.3140103
vn -0.9088649 0.2745216 -0.3140103
vn -0.9088649 0.2745217 -0.3140103
vn -0.9088649 0.2745217 -0.3140103
vn -0.9701816 0.2273511 0.08401838
vn -0.9701816 0.2273511 0.08401839
vn -0.9701816 0.2273511 0.08401838
vn -0.9701816 0.2273511 0.08401838
vn -0.191112 0.1747689 0.965884
vn -0.191112 0.1747689 0.965884
vn -0.1911121 0.1747689 0.965884
vn -0.191112 0.1747689 0.965884
vn 0.2399913 0.2253827 0.9442493
vn 0.2399913 0.2253827 0.9442494
vn 0.2399913 0.2253827 0.9442494
vn 0.2399913 0.2253826 0.9442494
vn 0.08207095 0.1636106 0.9831052
vn 0.08207098 0.1636106 0.9831052
vn 0.08207095 0.1636106 0.9831052
vn 0.08207095 0.1636106 0.9831052
vn 0.502458 0.8409006 0.2010516
vn 0.5024581 0.8409006 0.2010516
vn 0.502458 0.8409006 0.2010516
vn 0.5024581 0.8409006 0.2010516
vn 0.3590837 0.8978309 -0.2548686
vn 0.3590837 0.8978308 -0.2548686
vn 0.3590837 0.8978309 -0.2548686
vn 0.3590837 0.8978309 -0.2548686
vn 0.09976888 0.8784822 -0.4672416
vn 0.09976889 0.8784822 -0.4672416
vn 0.09976888 0.8784822 -0.4672416
vn 0.09976889 0.8784822 -0.4672416
vn 0.2092467 0.8167214 -0.5377559
vn 0.2092467 0.8167214 -0.5377558
vn 0.2092467 0.8167214 -0.5377558
vn 0.2092467 0.8167214 -0.5377558
vn -0.470453 0.8174167 -0.3324209
vn -0.4704529 0.8174167 -0.3324209
vn -0.470453 0.8174167 -0.3324209
vn -0.470453 0.8174167 -0.3324209
vn -0.5462772 0.8176481 -0.1817485
vn -0.5462772 0.8176479 -0.1817485
vn -0.5462773 0.8176479 -0.1817485
vn -0.5462772 0.8176479 -0.1817485
vn -0.5876021 0.808642 0.02866153
vn -0.5876021 0.808642 0.02866153
vn -0.5876021 0.808642 0.02866153
vn -0.5876021 0.808642 0.02866153
vn -0.05693024 0.785677 0.6160114
vn -0.05693023 0.785677 0.6160114
vn -0.05693026 0.785677 0.6160114
vn -0.05693023 0.785677 0.6160114
vn 0.2534991 0.7933603 0.5534594
vn 0.2534991 0.7933604 0.5534593
vn 0.2534991 0.7933604 0.5534593
vn 0.2534991 0.7933603 0.5534594
vn -0.09709445 0.7202551 0.6868805
vn -0.09709442 0.7202552 0.6868805
vn -0.09709445 0.7202551 0.6868805
vn -0.09709445 0.7202551 0.6868805
vn 0.2653217 0.9567372 0.1194061
vn 0.2653217 0.9567372 0.1194061
vn 0.2653217 0.9567372 0.1194061
vn 0.2084611 0.9263698 -0.3136597
vn 0.2084611 0.9263698 -0.3136597
vn 0.2084611 0.9263698 -0.3136597
vn 0.1727766 0.9181579 -0.3565582
vn 0.1727767 0.9181579 -0.3565582
vn 0.1727766 0.9181579 -0.3565582
vn 0.1121024 0.9174861 -0.3816434
vn 0.1121024 0.9174861 -0.3816435
vn 0.1121024 0.9174861 -0.3816435
vn -0.2839804 0.9247261 -0.2534487
vn -0.2839803 0.9247261 -0.2534486
vn -0.2839804 0.9247261 -0.2534487
vn -0.3751339 0.9188595 -0.1223565
vn -0.3751339 0.9188596 -0.1223565
vn -0.3751339 0.9188596 -0.1223565
vn -0.3754391 0.9268306 0.005481698
vn -0.3754391 0.9268306 0.005481683
vn -0.3754391 0.9268306 0.00548169
vn 0.003054678 0.9126996 0.4086191
vn 0.003054693 0.9126996 0.4086192
vn 0.003054701 0.9126995 0.4086192
vn 0.3210576 0.8240915 0.4666849
vn 0.3210575 0.8240915 0.4666848
vn 0.3210575 0.8240916 0.4666848
vn -0.2043117 0.7660319 0.6094682
vn -0.2043117 0.7660319 0.6094681
vn -0.2043117 0.7660319 0.6094682

vt 0.5483398 0.007648468
vt 0.5 0.1500244
vt 0.6264648 0.06439209
vt 0.4516602 0.007648468
vt 0.3735352 0.06439209
vt 0.34375 0.15625
vt 0.3735352 0.2480469
vt 0.4516602 0.3049316
vt 0.5483398 0.3049316
vt 0.6264648 0.2480469
vt 0.65625 0.15625
vt 0 0
vt 0 1
vt 1 1
vt 1 0
vt 0 0
vt 0 1
vt 1 1
vt 1 0
vt 0 0
vt 0 1
vt 1 1
vt 1 0
vt 0 0
vt 0 1
vt 1 1
vt 1 0
vt 0 0
vt 0 1
vt 1 1
vt 1 0
vt 0 0
vt 0 1
vt 1 1
vt 1 0
vt 0 0
vt 0 1
vt 1 1
vt 1 0
vt 0 0
vt 0 1
vt 1 1
vt 1 0
vt 0 0
vt 0 1
vt 1 1
vt 1 0
vt 0 0
vt 0 1
vt 1 1
vt 1 0
vt 0 0
vt 0 1
vt 1 1
vt 1 0
vt 0 0
vt 0 1
vt 1 1
vt 1 0
vt 0 0
vt 0 1
vt 1 1
vt 1 0
vt 0 0
vt 0 1
vt 1 1
vt 1 0
vt 0 0
vt 0 1
vt 1 1
vt 1 0
vt 0 0
vt 0 1
vt 1 1
vt 1 0
vt 0 0
vt 0 1
vt 1 1
vt 1 0
vt 0 0
vt 0 1
vt 1 1
vt 1 0
vt 0 0
vt 0 1
vt 1 1
vt 1 0
vt 0 0
vt 0 1
vt 1 1
vt 1 0
vt 0 0
vt 0 1
vt 1 1
vt 1 0
vt 0 0
vt 0 1
vt 1 1
vt 1 0
vt 0 0
vt 0 1
vt 1 1
vt 1 0
vt 0 0
vt 0 1
vt 1 1
vt 1 0
vt 0 0
vt 0 1
vt 1 1
vt 1 0
vt 0 0
vt 0 1
vt 1 1
vt 1 0
vt 0 0
vt 0 1
vt 1 1
vt 1 0
vt 0 0
vt 0 1
vt 1 1
vt 1 0
vt 0 0
vt 0 1
vt 1 1
vt 1 0
vt 0 0
vt 0 1
vt 1 1
vt 1 0
vt 0 0
vt 0 1
vt 1 1
vt 1 0
vt 0 0
vt 0 1
vt 1 1
vt 1 0
vt 0 0
vt 0 1
vt 1 1
vt 1 0
vt 0 0
vt 0 1
vt 1 1
vt 1 0
vt 0 0
vt 0 1
vt 1 1
vt 1 0
vt 0 0
vt 0 1
vt 1 1
vt 1 0
vt 0 0
vt 0 1
vt 1 1
vt 1 0
vt 0 0
vt 0 1
vt 1 1
vt 1 0
vt 0 0
vt 0 1
vt 1 1
vt 1 0
vt 0 0
vt 0 1
vt 1 1
vt 1 0
vt 0 0
vt 0.5 1
vt 1 0
vt 0 0
vt 0.5 1
vt 1 0
vt 0 0
vt 0.5 1
vt 1 0
vt 0 0
vt 0.5 1
vt 1 0
vt 0 0
vt 0.5 1
vt 1 0
vt 0 0
vt 0.5 1
vt 1 0
vt 0 0
vt 0.5 1
vt 1 0
vt 0 0
vt 0.5 1
vt 1 0
vt 0 0
vt 0.5 1
vt 1 0
vt 0 0
vt 0.5 1
vt 1 0

g Foliage8_8_4162_233
usemtl Foliage8_8_4162_233
usemap Foliage8_8_4162_233
f 1/1/1 3/3/3 2/2/2
f 4/4/4 1/1/1 2/2/2
f 5/5/5 4/4/4 2/2/2
f 6/6/6 5/5/5 2/2/2
f 7/7/7 6/6/6 2/2/2
f 8/8/8 7/7/7 2/2/2
f 9/9/9 8/8/8 2/2/2
f 10/10/10 9/9/9 2/2/2
f 11/11/11 10/10/10 2/2/2
f 3/3/3 11/11/11 2/2/2
f 12/12/12 14/14/14 13/13/13
f 12/12/12 15/15/15 14/14/14
f 16/16/16 18/18/18 17/17/17
f 16/16/16 19/19/19 18/18/18
f 20/20/20 22/22/22 21/21/21
f 20/20/20 23/23/23 22/22/22
f 24/24/24 26/26/26 25/25/25
f 24/24/24 27/27/27 26/26/26
f 28/28/28 30/30/30 29/29/29
f 28/28/28 31/31/31 30/30/30
f 32/32/32 34/34/34 33/33/33
f 32/32/32 35/35/35 34/34/34
f 36/36/36 38/38/38 37/37/37
f 36/36/36 39/39/39 38/38/38
f 40/40/40 42/42/42 41/41/41
f 40/40/40 43/43/43 42/42/42
f 44/44/44 46/46/46 45/45/45
f 44/44/44 47/47/47 46/46/46
f 48/48/48 50/50/50 49/49/49
f 48/48/48 51/51/51 50/50/50
f 52/52/52 54/54/54 53/53/53
f 52/52/52 55/55/55 54/54/54
f 56/56/56 58/58/58 57/57/57
f 56/56/56 59/59/59 58/58/58
f 60/60/60 62/62/62 61/61/61
f 60/60/60 63/63/63 62/62/62
f 64/64/64 66/66/66 65/65/65
f 64/64/64 67/67/67 66/66/66
f 68/68/68 70/70/70 69/69/69
f 68/68/68 71/71/71 70/70/70
f 72/72/72 74/74/74 73/73/73
f 72/72/72 75/75/75 74/74/74
f 76/76/76 78/78/78 77/77/77
f 76/76/76 79/79/79 78/78/78
f 80/80/80 82/82/82 81/81/81
f 80/80/80 83/83/83 82/82/82
f 84/84/84 86/86/86 85/85/85
f 84/84/84 87/87/87 86/86/86
f 88/88/88 90/90/90 89/89/89
f 88/88/88 91/91/91 90/90/90
f 92/92/92 94/94/94 93/93/93
f 92/92/92 95/95/95 94/94/94
f 96/96/96 98/98/98 97/97/97
f 96/96/96 99/99/99 98/98/98
f 100/100/100 102/102/102 101/101/101
f 100/100/100 103/103/103 102/102/102
f 104/104/104 106/106/106 105/105/105
f 104/104/104 107/107/107 106/106/106
f 108/108/108 110/110/110 109/109/109
f 108/108/108 111/111/111 110/110/110
f 112/112/112 114/114/114 113/113/113
f 112/112/112 115/115/115 114/114/114
f 116/116/116 118/118/118 117/117/117
f 116/116/116 119/119/119 118/118/118
f 120/120/120 122/122/122 121/121/121
f 120/120/120 123/123/123 122/122/122
f 124/124/124 126/126/126 125/125/125
f 124/124/124 127/127/127 126/126/126
f 128/128/128 130/130/130 129/129/129
f 128/128/128 131/131/131 130/130/130
f 132/132/132 134/134/134 133/133/133
f 132/132/132 135/135/135 134/134/134
f 136/136/136 138/138/138 137/137/137
f 136/136/136 139/139/139 138/138/138
f 140/140/140 142/142/142 141/141/141
f 140/140/140 143/143/143 142/142/142
f 144/144/144 146/146/146 145/145/145
f 144/144/144 147/147/147 146/146/146
f 148/148/148 150/150/150 149/149/149
f 148/148/148 151/151/151 150/150/150
f 152/152/152 154/154/154 153/153/153
f 152/152/152 155/155/155 154/154/154
f 156/156/156 158/158/158 157/157/157
f 156/156/156 159/159/159 158/158/158
f 160/160/160 162/162/162 161/161/161
f 160/160/160 163/163/163 162/162/162
f 164/164/164 166/166/166 165/165/165
f 164/164/164 167/167/167 166/166/166
f 168/168/168 170/170/170 169/169/169
f 168/168/168 171/171/171 170/170/170
f 172/172/172 174/174/174 173/173/173
f 175/175/175 177/177/177 176/176/176
f 178/178/178 180/180/180 179/179/179
f 181/181/181 183/183/183 182/182/182
f 184/184/184 186/186/186 185/185/185
f 187/187/187 189/189/189 188/188/188
f 190/190/190 192/192/192 191/191/191
f 193/193/193 195/195/195 194/194/194
f 196/196/196 198/198/198 197/197/197
f 199/199/199 201/201/201 200/200/200
