#Foliage4_33_3891_85.obj

v 0.01454364 -0.02577549 -0.04035823
v 0.004622329 -0.03397593 0.001091504
v 0.038783 -0.02577549 -0.02105477
v -0.009664912 -0.0257755 -0.03817533
v -0.01825245 -0.0257755 -0.01778028
v -0.03822377 -0.02223206 0.001091542
v -0.02135254 -0.0257755 0.01996331
v -0.005299151 -0.02577549 0.03271804
v 0.02109237 -0.0257755 0.04035829
v 0.03059674 -0.02577548 0.01996339
v 0.03218767 -0.02223204 0.001091559
v 0.038783 -0.02577549 -0.02105477
v 0.04796533 -0.01489223 -0.02772615
v 0.01805084 -0.01489224 -0.05115255
v 0.01454364 -0.02577549 -0.04035823
v 0.01454364 -0.02577549 -0.04035823
v 0.01805084 -0.01489224 -0.05115255
v -0.01317257 -0.01489224 -0.04896968
v -0.009664912 -0.0257755 -0.03817533
v -0.009664912 -0.0257755 -0.03817533
v -0.01317257 -0.01489224 -0.04896968
v -0.02743475 -0.01489224 -0.02445168
v -0.01825245 -0.0257755 -0.01778028
v -0.01825245 -0.0257755 -0.01778028
v -0.02743475 -0.01489224 -0.02445168
v -0.04796863 -0.01288805 0.001091591
v -0.03822377 -0.02223206 0.001091542
v -0.03822377 -0.02223206 0.001091542
v -0.04796863 -0.01288805 0.001091591
v -0.03053484 -0.01489223 0.02663463
v -0.02135254 -0.0257755 0.01996331
v -0.02135254 -0.0257755 0.01996331
v -0.03053484 -0.01489223 0.02663463
v -0.00880664 -0.01489223 0.04351262
v -0.005299151 -0.02577549 0.03271804
v -0.005299151 -0.02577549 0.03271804
v -0.00880664 -0.01489223 0.04351262
v 0.0245997 -0.01489223 0.05115281
v 0.02109237 -0.0257755 0.04035829
v 0.02109237 -0.0257755 0.04035829
v 0.0245997 -0.01489223 0.05115281
v 0.03977913 -0.01489223 0.02663482
v 0.03059674 -0.02577548 0.01996339
v 0.03059674 -0.02577548 0.01996339
v 0.03977913 -0.01489223 0.02663482
v 0.04193252 -0.01288805 0.001091644
v 0.03218767 -0.02223204 0.001091559
v 0.03218767 -0.02223204 0.001091559
v 0.04193252 -0.01288805 0.001091644
v 0.04796533 -0.01489223 -0.02772615
v 0.038783 -0.02577549 -0.02105477
v 0.04796533 -0.01489223 -0.02772615
v 0.04796538 -0.0001481743 -0.02772611
v 0.01805085 -0.0001481653 -0.0511526
v 0.01805084 -0.01489224 -0.05115255
v 0.01805084 -0.01489224 -0.05115255
v 0.01805085 -0.0001481653 -0.0511526
v -0.01317257 -0.0001481646 -0.04896973
v -0.01317257 -0.01489224 -0.04896968
v -0.01317257 -0.01489224 -0.04896968
v -0.01317257 -0.0001481646 -0.04896973
v -0.02743475 -0.0001481626 -0.02445173
v -0.02743475 -0.01489224 -0.02445168
v -0.02743475 -0.01489224 -0.02445168
v -0.02743475 -0.0001481626 -0.02445173
v -0.04796841 -0.0002292627 0.001091443
v -0.04796863 -0.01288805 0.001091591
v -0.04796863 -0.01288805 0.001091591
v -0.04796841 -0.0002292627 0.001091443
v -0.03053478 -0.0001481689 0.02663467
v -0.03053484 -0.01489223 0.02663463
v -0.03053484 -0.01489223 0.02663463
v -0.03053478 -0.0001481689 0.02663467
v -0.008806583 -0.0001481715 0.04351266
v -0.00880664 -0.01489223 0.04351262
v -0.00880664 -0.01489223 0.04351262
v -0.008806583 -0.0001481715 0.04351266
v 0.02459976 -0.0001481741 0.05115285
v 0.0245997 -0.01489223 0.05115281
v 0.0245997 -0.01489223 0.05115281
v 0.02459976 -0.0001481741 0.05115285
v 0.03977913 -0.0001481664 0.02663477
v 0.03977913 -0.01489223 0.02663482
v 0.03977913 -0.01489223 0.02663482
v 0.03977913 -0.0001481664 0.02663477
v 0.04193274 -0.0002292786 0.001091495
v 0.04193252 -0.01288805 0.001091644
v 0.04193252 -0.01288805 0.001091644
v 0.04193274 -0.0002292786 0.001091495
v 0.04796538 -0.0001481743 -0.02772611
v 0.04796533 -0.01489223 -0.02772615
v 0.04796538 -0.0001481743 -0.02772611
v 0.04568716 0.01428351 -0.02539666
v 0.01714346 0.01428351 -0.04799123
v 0.01805085 -0.0001481653 -0.0511526
v 0.01805085 -0.0001481653 -0.0511526
v 0.01714346 0.01428351 -0.04799123
v -0.01183091 0.01428351 -0.04559745
v -0.01317257 -0.0001481646 -0.04896973
v -0.01317257 -0.0001481646 -0.04896973
v -0.01183091 0.01428351 -0.04559745
v -0.02321179 0.01428352 -0.02180644
v -0.02743475 -0.0001481626 -0.02445173
v -0.02743475 -0.0001481626 -0.02445173
v -0.02321179 0.01428352 -0.02180644
v -0.04530565 0.01197224 0.00119679
v -0.04796841 -0.0002292627 0.001091443
v -0.04796841 -0.0002292627 0.001091443
v -0.04530565 0.01197224 0.00119679
v -0.02661135 0.01428352 0.02420007
v -0.03053478 -0.0001481689 0.02663467
v -0.03053478 -0.0001481689 0.02663467
v -0.02661135 0.01428352 0.02420007
v -0.007043452 0.01428351 0.03961362
v -0.008806583 -0.0001481715 0.04351266
v -0.008806583 -0.0001481715 0.04351266
v -0.007043452 0.01428351 0.03961362
v 0.0243244 0.01428351 0.04799126
v 0.02459976 -0.0001481741 0.05115285
v 0.02459976 -0.0001481741 0.05115285
v 0.0243244 0.01428351 0.04799126
v 0.03671097 0.01428352 0.02420018
v 0.03977913 -0.0001481664 0.02663477
v 0.03977913 -0.0001481664 0.02663477
v 0.03671097 0.01428352 0.02420018
v 0.0386502 0.01197223 0.001197011
v 0.04193274 -0.0002292786 0.001091495
v 0.04193274 -0.0002292786 0.001091495
v 0.0386502 0.01197223 0.001197011
v 0.04568716 0.01428351 -0.02539666
v 0.04796538 -0.0001481743 -0.02772611
v 0.04568716 0.01428351 -0.02539666
v 0.03225081 0.02437455 -0.01614763
v 0.01203487 0.02437455 -0.03256858
v 0.01714346 0.01428351 -0.04799123
v 0.01714346 0.01428351 -0.04799123
v 0.01203487 0.02437455 -0.03256858
v -0.002593714 0.02437454 -0.02139382
v -0.01183091 0.01428351 -0.04559745
v -0.01183091 0.01428351 -0.04559745
v -0.002593714 0.02437454 -0.02139382
v -0.01125484 0.02437455 -0.01279514
v -0.02321179 0.01428352 -0.02180644
v -0.02321179 0.01428352 -0.02180644
v -0.01125484 0.02437455 -0.01279514
v -0.03124633 0.02074662 0.001117527
v -0.04530565 0.01197224 0.00119679
v -0.04530565 0.01197224 0.00119679
v -0.03124633 0.02074662 0.001117527
v -0.01442889 0.02437455 0.01503037
v -0.02661135 0.01428352 0.02420007
v -0.02661135 0.01428352 0.02420007
v -0.01442889 0.02437455 0.01503037
v -0.002594088 0.02437455 0.02474639
v -0.007043452 0.01428351 0.03961362
v -0.007043452 0.01428351 0.03961362
v -0.002594088 0.02437455 0.02474639
v 0.01873972 0.02437455 0.03256867
v 0.0243244 0.01428351 0.04799126
v 0.0243244 0.01428351 0.04799126
v 0.01873972 0.02437455 0.03256867
v 0.02386978 0.02437455 0.0150302
v 0.03671097 0.01428352 0.02420018
v 0.03671097 0.01428352 0.02420018
v 0.02386978 0.02437455 0.0150302
v 0.02504245 0.02074662 0.001117653
v 0.0386502 0.01197223 0.001197011
v 0.0386502 0.01197223 0.001197011
v 0.02504245 0.02074662 0.001117653
v 0.03225081 0.02437455 -0.01614763
v 0.04568716 0.01428351 -0.02539666
v 0.03225081 0.02437455 -0.01614763
v 0.004622345 0.03397622 0.001091368
v 0.01203487 0.02437455 -0.03256858
v 0.01203487 0.02437455 -0.03256858
v 0.004622345 0.03397622 0.001091368
v -0.002593714 0.02437454 -0.02139382
v -0.002593714 0.02437454 -0.02139382
v 0.004622345 0.03397622 0.001091368
v -0.01125484 0.02437455 -0.01279514
v -0.01125484 0.02437455 -0.01279514
v 0.004622345 0.03397622 0.001091368
v -0.03124633 0.02074662 0.001117527
v -0.03124633 0.02074662 0.001117527
v 0.004622345 0.03397622 0.001091368
v -0.01442889 0.02437455 0.01503037
v -0.01442889 0.02437455 0.01503037
v 0.004622345 0.03397622 0.001091368
v -0.002594088 0.02437455 0.02474639
v -0.002594088 0.02437455 0.02474639
v 0.004622345 0.03397622 0.001091368
v 0.01873972 0.02437455 0.03256867
v 0.01873972 0.02437455 0.03256867
v 0.004622345 0.03397622 0.001091368
v 0.02386978 0.02437455 0.0150302
v 0.02386978 0.02437455 0.0150302
v 0.004622345 0.03397622 0.001091368
v 0.02504245 0.02074662 0.001117653
v 0.02504245 0.02074662 0.001117653
v 0.004622345 0.03397622 0.001091368
v 0.03225081 0.02437455 -0.01614763

vn 0.008322239 -0.9875677 -0.1569723
vn 0.1322689 -0.9911274 -0.01306953
vn 0.1854274 -0.960012 -0.2097457
vn -0.06187849 -0.9975809 -0.03166759
vn -0.09533963 -0.9831743 0.1558144
vn -0.02582326 -0.9785966 0.2041596
vn 0.1028916 -0.9656754 0.2385036
vn 0.2616187 -0.9464157 0.1893478
vn 0.3118225 -0.9495477 0.03354768
vn 0.2954666 -0.9250385 -0.2387528
vn 0.4070681 -0.8661224 -0.2900468
vn -0.1493514 -0.7219992 -0.675582
vn -0.1493515 -0.7219992 -0.6755819
vn -0.1493514 -0.7219992 -0.6755819
vn -0.1493515 -0.7219992 -0.6755819
vn -0.5349526 -0.7763101 -0.3334182
vn -0.5349526 -0.7763103 -0.3334182
vn -0.5349526 -0.7763101 -0.3334182
vn -0.5349527 -0.7763102 -0.3334182
vn -0.5471162 -0.744943 0.3817374
vn -0.5471162 -0.7449429 0.3817375
vn -0.5471162 -0.744943 0.3817374
vn -0.5471162 -0.7449429 0.3817375
vn -0.5828415 -0.7726721 0.2515418
vn -0.5828416 -0.772672 0.2515419
vn -0.5828415 -0.772672 0.2515419
vn -0.5828415 -0.772672 0.2515419
vn 0.09831771 -0.6968042 0.7104908
vn 0.09831771 -0.6968042 0.7104908
vn 0.09831767 -0.6968042 0.7104908
vn 0.09831771 -0.6968042 0.7104908
vn 0.3362875 -0.6733235 0.658442
vn 0.3362874 -0.6733235 0.6584421
vn 0.3362874 -0.6733235 0.658442
vn 0.3362875 -0.6733235 0.658442
vn 0.5878639 -0.6270713 0.5110746
vn 0.5878639 -0.6270714 0.5110747
vn 0.587864 -0.6270714 0.5110747
vn 0.5878639 -0.6270713 0.5110746
vn 0.7294618 -0.572686 -0.3740537
vn 0.7294617 -0.572686 -0.3740537
vn 0.7294617 -0.572686 -0.3740537
vn 0.7294618 -0.572686 -0.3740538
vn 0.4513767 -0.6176087 -0.6440639
vn 0.4513767 -0.6176088 -0.6440639
vn 0.4513767 -0.6176087 -0.6440639
vn 0.4513767 -0.6176087 -0.6440639
vn 0.6818535 -0.5246258 -0.5097484
vn 0.6818535 -0.5246257 -0.5097485
vn 0.6818535 -0.5246258 -0.5097484
vn 0.6818534 -0.5246258 -0.5097485
vn -0.3439213 -0.03457467 -0.9383618
vn -0.3439212 -0.03457467 -0.9383618
vn -0.3439212 -0.03457467 -0.9383618
vn -0.3439213 -0.03457467 -0.9383618
vn -0.878232 -0.1109651 -0.4651831
vn -0.878232 -0.1109651 -0.4651831
vn -0.878232 -0.1109651 -0.4651831
vn -0.878232 -0.1109651 -0.4651831
vn -0.8738394 -0.1213743 0.4708217
vn -0.8738394 -0.1213743 0.4708217
vn -0.8738394 -0.1213743 0.4708217
vn -0.8738394 -0.1213743 0.4708217
vn -0.9340624 -0.1277453 0.3334796
vn -0.9340625 -0.1277453 0.3334796
vn -0.9340624 -0.1277453 0.3334796
vn -0.9340624 -0.1277453 0.3334796
vn 0.04634029 -0.00558684 0.9989101
vn 0.04634029 -0.00558684 0.9989101
vn 0.04634038 -0.005586829 0.9989101
vn 0.04634029 -0.00558684 0.9989101
vn 0.3475939 0.03507767 0.9369888
vn 0.3475939 0.03507767 0.9369888
vn 0.3475939 0.03507767 0.9369888
vn 0.3475939 0.03507767 0.9369888
vn 0.7068571 0.08546284 0.7021745
vn 0.7068571 0.08546284 0.7021745
vn 0.7068571 0.08546284 0.7021745
vn 0.7068571 0.08546284 0.7021745
vn 0.8863791 0.1227498 -0.4463908
vn 0.8863791 0.1227498 -0.4463908
vn 0.8863791 0.1227498 -0.4463908
vn 0.8863791 0.1227498 -0.4463908
vn 0.5890182 0.08752042 -0.8033665
vn 0.5890182 0.08752042 -0.8033665
vn 0.5890182 0.08752042 -0.8033665
vn 0.5890182 0.08752042 -0.8033665
vn 0.6818623 0.09890579 -0.724763
vn 0.6818622 0.09890578 -0.724763
vn 0.6818623 0.09890579 -0.724763
vn 0.6818623 0.09890579 -0.724763
vn -0.361688 0.1774317 -0.9152595
vn -0.3616879 0.1774317 -0.9152594
vn -0.3616879 0.1774317 -0.9152594
vn -0.3616879 0.1774317 -0.9152594
vn -0.8882534 0.1106631 -0.4458246
vn -0.8882534 0.1106631 -0.4458246
vn -0.8882534 0.1106631 -0.4458246
vn -0.8882534 0.1106631 -0.4458246
vn -0.8598626 0.1414264 0.4905455
vn -0.8598626 0.1414264 0.4905456
vn -0.8598626 0.1414264 0.4905455
vn -0.8598626 0.1414264 0.4905455
vn -0.9470463 0.1278708 0.2945379
vn -0.9470462 0.1278708 0.2945378
vn -0.9470463 0.1278708 0.2945379
vn -0.9470462 0.1278709 0.2945379
vn 0.04259861 0.2401906 0.9697907
vn 0.04259861 0.2401906 0.9697907
vn 0.04259858 0.2401905 0.9697906
vn 0.04259861 0.2401906 0.9697907
vn 0.2934951 0.313051 0.9032494
vn 0.293495 0.313051 0.9032494
vn 0.293495 0.313051 0.9032495
vn 0.293495 0.313051 0.9032495
vn 0.6419619 0.3214542 0.6960977
vn 0.6419619 0.3214542 0.6960977
vn 0.6419619 0.3214542 0.6960977
vn 0.6419619 0.3214542 0.6960977
vn 0.828193 0.3099857 -0.4669103
vn 0.828193 0.3099857 -0.4669103
vn 0.8281929 0.3099857 -0.4669102
vn 0.828193 0.3099857 -0.4669103
vn 0.5317214 0.318953 -0.7845643
vn 0.5317215 0.318953 -0.7845644
vn 0.5317214 0.318953 -0.7845644
vn 0.5317215 0.318953 -0.7845644
vn 0.6704329 0.2767975 -0.688406
vn 0.6704329 0.2767975 -0.688406
vn 0.6704329 0.2767975 -0.688406
vn 0.6704329 0.2767975 -0.688406
vn -0.2929124 0.8113248 -0.5059189
vn -0.2929124 0.8113248 -0.5059189
vn -0.2929124 0.8113248 -0.5059189
vn -0.2929124 0.8113248 -0.5059189
vn -0.5575809 0.8235697 -0.1040967
vn -0.5575809 0.8235697 -0.1040967
vn -0.5575809 0.8235697 -0.1040967
vn -0.5575809 0.8235697 -0.1040967
vn -0.5522563 0.801076 0.2308459
vn -0.5522563 0.801076 0.2308459
vn -0.5522563 0.801076 0.2308459
vn -0.5522563 0.801076 0.2308459
vn -0.6655765 0.7215219 0.1908241
vn -0.6655765 0.7215219 0.1908241
vn -0.6655765 0.7215219 0.1908241
vn -0.6655765 0.7215219 0.1908241
vn -0.08028561 0.8082517 0.5833379
vn -0.08028555 0.8082517 0.5833378
vn -0.08028558 0.8082517 0.5833379
vn -0.08028561 0.8082517 0.5833379
vn 0.08209693 0.8339884 0.5456401
vn 0.08209693 0.8339883 0.5456401
vn 0.08209696 0.8339883 0.5456402
vn 0.08209693 0.8339883 0.5456401
vn 0.269504 0.8549654 0.4431717
vn 0.269504 0.8549654 0.4431717
vn 0.269504 0.8549654 0.4431717
vn 0.269504 0.8549654 0.4431717
vn 0.3842541 0.8581927 -0.3403727
vn 0.3842541 0.8581927 -0.3403727
vn 0.3842541 0.8581927 -0.3403727
vn 0.3842541 0.8581927 -0.3403727
vn 0.1394571 0.8303768 -0.5394679
vn 0.139457 0.8303769 -0.5394678
vn 0.1394571 0.8303769 -0.5394678
vn 0.1394571 0.8303768 -0.5394679
vn 0.4734762 0.8059396 -0.3553606
vn 0.4734762 0.8059397 -0.3553606
vn 0.4734762 0.8059396 -0.3553606
vn 0.4734762 0.8059396 -0.3553606
vn -0.2228673 0.936729 -0.2699418
vn -0.2228673 0.936729 -0.2699418
vn -0.2228673 0.936729 -0.2699418
vn -0.5114846 0.8578529 0.04971422
vn -0.5114846 0.8578529 0.04971421
vn -0.5114845 0.8578529 0.04971419
vn -0.520298 0.847571 0.1044655
vn -0.520298 0.847571 0.1044655
vn -0.520298 0.847571 0.1044655
vn -0.5009382 0.8491818 0.1671846
vn -0.5009383 0.8491818 0.1671847
vn -0.5009383 0.8491818 0.1671847
vn -0.154423 0.9075398 0.390544
vn -0.154423 0.9075398 0.3905439
vn -0.154423 0.9075398 0.390544
vn 0.003690153 0.9261761 0.3770726
vn 0.003690124 0.9261761 0.3770726
vn 0.003690124 0.9261761 0.3770726
vn 0.0998344 0.9499987 0.295863
vn 0.09983435 0.9499987 0.295863
vn 0.09983437 0.9499987 0.295863
vn 0.1693399 0.9525574 -0.2528987
vn 0.16934 0.9525574 -0.2528988
vn 0.16934 0.9525574 -0.2528988
vn 0.02613749 0.8439301 -0.5358156
vn 0.02613747 0.8439301 -0.5358156
vn 0.02613747 0.8439301 -0.5358156
vn 0.4753711 0.8510771 -0.2229117
vn 0.4753711 0.8510771 -0.2229116
vn 0.4753711 0.8510771 -0.2229116

vt 0.5483398 0.007648468
vt 0.5 0.1500244
vt 0.6264648 0.06439209
vt 0.4516602 0.007648468
vt 0.3735352 0.06439209
vt 0.34375 0.15625
vt 0.3735352 0.2480469
vt 0.4516602 0.3049316
vt 0.5483398 0.3049316
vt 0.6264648 0.2480469
vt 0.65625 0.15625
vt 0 0
vt 0 1
vt 1 1
vt 1 0
vt 0 0
vt 0 1
vt 1 1
vt 1 0
vt 0 0
vt 0 1
vt 1 1
vt 1 0
vt 0 0
vt 0 1
vt 1 1
vt 1 0
vt 0 0
vt 0 1
vt 1 1
vt 1 0
vt 0 0
vt 0 1
vt 1 1
vt 1 0
vt 0 0
vt 0 1
vt 1 1
vt 1 0
vt 0 0
vt 0 1
vt 1 1
vt 1 0
vt 0 0
vt 0 1
vt 1 1
vt 1 0
vt 0 0
vt 0 1
vt 1 1
vt 1 0
vt 0 0
vt 0 1
vt 1 1
vt 1 0
vt 0 0
vt 0 1
vt 1 1
vt 1 0
vt 0 0
vt 0 1
vt 1 1
vt 1 0
vt 0 0
vt 0 1
vt 1 1
vt 1 0
vt 0 0
vt 0 1
vt 1 1
vt 1 0
vt 0 0
vt 0 1
vt 1 1
vt 1 0
vt 0 0
vt 0 1
vt 1 1
vt 1 0
vt 0 0
vt 0 1
vt 1 1
vt 1 0
vt 0 0
vt 0 1
vt 1 1
vt 1 0
vt 0 0
vt 0 1
vt 1 1
vt 1 0
vt 0 0
vt 0 1
vt 1 1
vt 1 0
vt 0 0
vt 0 1
vt 1 1
vt 1 0
vt 0 0
vt 0 1
vt 1 1
vt 1 0
vt 0 0
vt 0 1
vt 1 1
vt 1 0
vt 0 0
vt 0 1
vt 1 1
vt 1 0
vt 0 0
vt 0 1
vt 1 1
vt 1 0
vt 0 0
vt 0 1
vt 1 1
vt 1 0
vt 0 0
vt 0 1
vt 1 1
vt 1 0
vt 0 0
vt 0 1
vt 1 1
vt 1 0
vt 0 0
vt 0 1
vt 1 1
vt 1 0
vt 0 0
vt 0 1
vt 1 1
vt 1 0
vt 0 0
vt 0 1
vt 1 1
vt 1 0
vt 0 0
vt 0 1
vt 1 1
vt 1 0
vt 0 0
vt 0 1
vt 1 1
vt 1 0
vt 0 0
vt 0 1
vt 1 1
vt 1 0
vt 0 0
vt 0 1
vt 1 1
vt 1 0
vt 0 0
vt 0 1
vt 1 1
vt 1 0
vt 0 0
vt 0 1
vt 1 1
vt 1 0
vt 0 0
vt 0 1
vt 1 1
vt 1 0
vt 0 0
vt 0 1
vt 1 1
vt 1 0
vt 0 0
vt 0.5 1
vt 1 0
vt 0 0
vt 0.5 1
vt 1 0
vt 0 0
vt 0.5 1
vt 1 0
vt 0 0
vt 0.5 1
vt 1 0
vt 0 0
vt 0.5 1
vt 1 0
vt 0 0
vt 0.5 1
vt 1 0
vt 0 0
vt 0.5 1
vt 1 0
vt 0 0
vt 0.5 1
vt 1 0
vt 0 0
vt 0.5 1
vt 1 0
vt 0 0
vt 0.5 1
vt 1 0

g Foliage4_33_3891_85
usemtl Foliage4_33_3891_85
usemap Foliage4_33_3891_85
f 1/1/1 3/3/3 2/2/2
f 4/4/4 1/1/1 2/2/2
f 5/5/5 4/4/4 2/2/2
f 6/6/6 5/5/5 2/2/2
f 7/7/7 6/6/6 2/2/2
f 8/8/8 7/7/7 2/2/2
f 9/9/9 8/8/8 2/2/2
f 10/10/10 9/9/9 2/2/2
f 11/11/11 10/10/10 2/2/2
f 3/3/3 11/11/11 2/2/2
f 12/12/12 14/14/14 13/13/13
f 12/12/12 15/15/15 14/14/14
f 16/16/16 18/18/18 17/17/17
f 16/16/16 19/19/19 18/18/18
f 20/20/20 22/22/22 21/21/21
f 20/20/20 23/23/23 22/22/22
f 24/24/24 26/26/26 25/25/25
f 24/24/24 27/27/27 26/26/26
f 28/28/28 30/30/30 29/29/29
f 28/28/28 31/31/31 30/30/30
f 32/32/32 34/34/34 33/33/33
f 32/32/32 35/35/35 34/34/34
f 36/36/36 38/38/38 37/37/37
f 36/36/36 39/39/39 38/38/38
f 40/40/40 42/42/42 41/41/41
f 40/40/40 43/43/43 42/42/42
f 44/44/44 46/46/46 45/45/45
f 44/44/44 47/47/47 46/46/46
f 48/48/48 50/50/50 49/49/49
f 48/48/48 51/51/51 50/50/50
f 52/52/52 54/54/54 53/53/53
f 52/52/52 55/55/55 54/54/54
f 56/56/56 58/58/58 57/57/57
f 56/56/56 59/59/59 58/58/58
f 60/60/60 62/62/62 61/61/61
f 60/60/60 63/63/63 62/62/62
f 64/64/64 66/66/66 65/65/65
f 64/64/64 67/67/67 66/66/66
f 68/68/68 70/70/70 69/69/69
f 68/68/68 71/71/71 70/70/70
f 72/72/72 74/74/74 73/73/73
f 72/72/72 75/75/75 74/74/74
f 76/76/76 78/78/78 77/77/77
f 76/76/76 79/79/79 78/78/78
f 80/80/80 82/82/82 81/81/81
f 80/80/80 83/83/83 82/82/82
f 84/84/84 86/86/86 85/85/85
f 84/84/84 87/87/87 86/86/86
f 88/88/88 90/90/90 89/89/89
f 88/88/88 91/91/91 90/90/90
f 92/92/92 94/94/94 93/93/93
f 92/92/92 95/95/95 94/94/94
f 96/96/96 98/98/98 97/97/97
f 96/96/96 99/99/99 98/98/98
f 100/100/100 102/102/102 101/101/101
f 100/100/100 103/103/103 102/102/102
f 104/104/104 106/106/106 105/105/105
f 104/104/104 107/107/107 106/106/106
f 108/108/108 110/110/110 109/109/109
f 108/108/108 111/111/111 110/110/110
f 112/112/112 114/114/114 113/113/113
f 112/112/112 115/115/115 114/114/114
f 116/116/116 118/118/118 117/117/117
f 116/116/116 119/119/119 118/118/118
f 120/120/120 122/122/122 121/121/121
f 120/120/120 123/123/123 122/122/122
f 124/124/124 126/126/126 125/125/125
f 124/124/124 127/127/127 126/126/126
f 128/128/128 130/130/130 129/129/129
f 128/128/128 131/131/131 130/130/130
f 132/132/132 134/134/134 133/133/133
f 132/132/132 135/135/135 134/134/134
f 136/136/136 138/138/138 137/137/137
f 136/136/136 139/139/139 138/138/138
f 140/140/140 142/142/142 141/141/141
f 140/140/140 143/143/143 142/142/142
f 144/144/144 146/146/146 145/145/145
f 144/144/144 147/147/147 146/146/146
f 148/148/148 150/150/150 149/149/149
f 148/148/148 151/151/151 150/150/150
f 152/152/152 154/154/154 153/153/153
f 152/152/152 155/155/155 154/154/154
f 156/156/156 158/158/158 157/157/157
f 156/156/156 159/159/159 158/158/158
f 160/160/160 162/162/162 161/161/161
f 160/160/160 163/163/163 162/162/162
f 164/164/164 166/166/166 165/165/165
f 164/164/164 167/167/167 166/166/166
f 168/168/168 170/170/170 169/169/169
f 168/168/168 171/171/171 170/170/170
f 172/172/172 174/174/174 173/173/173
f 175/175/175 177/177/177 176/176/176
f 178/178/178 180/180/180 179/179/179
f 181/181/181 183/183/183 182/182/182
f 184/184/184 186/186/186 185/185/185
f 187/187/187 189/189/189 188/188/188
f 190/190/190 192/192/192 191/191/191
f 193/193/193 195/195/195 194/194/194
f 196/196/196 198/198/198 197/197/197
f 199/199/199 201/201/201 200/200/200
