#Foliage6_10_3586_300.obj

v 0.01454501 -0.02577555 -0.04035846
v 0.004623515 -0.03397607 0.00109124
v 0.03878419 -0.02577581 -0.02105496
v -0.009663787 -0.02577561 -0.03817553
v -0.01825118 -0.0257758 -0.01778059
v -0.0382225 -0.02223221 0.001091237
v -0.02135121 -0.02577584 0.01996302
v -0.005297901 -0.02577581 0.03271783
v 0.0210937 -0.02577581 0.04035803
v 0.03059825 -0.02577566 0.01996299
v 0.03218909 -0.02223232 0.001091231
v 0.03878419 -0.02577581 -0.02105496
v 0.04796655 -0.0148925 -0.02772632
v 0.0180523 -0.01489233 -0.05115294
v 0.01454501 -0.02577555 -0.04035846
v 0.01454501 -0.02577555 -0.04035846
v 0.0180523 -0.01489233 -0.05115294
v -0.01317113 -0.01489232 -0.04897003
v -0.009663787 -0.02577561 -0.03817553
v -0.009663787 -0.02577561 -0.03817553
v -0.01317113 -0.01489232 -0.04897003
v -0.02743356 -0.01489242 -0.02445198
v -0.01825118 -0.0257758 -0.01778059
v -0.01825118 -0.0257758 -0.01778059
v -0.02743356 -0.01489242 -0.02445198
v -0.04796726 -0.01288821 0.001091229
v -0.0382225 -0.02223221 0.001091237
v -0.0382225 -0.02223221 0.001091237
v -0.04796726 -0.01288821 0.001091229
v -0.03053364 -0.01489245 0.02663443
v -0.02135121 -0.02577584 0.01996302
v -0.02135121 -0.02577584 0.01996302
v -0.03053364 -0.01489245 0.02663443
v -0.00880527 -0.01489233 0.04351232
v -0.005297901 -0.02577581 0.03271783
v -0.005297901 -0.02577581 0.03271783
v -0.00880527 -0.01489233 0.04351232
v 0.02460104 -0.01489239 0.05115252
v 0.0210937 -0.02577581 0.04035803
v 0.0210937 -0.02577581 0.04035803
v 0.02460104 -0.01489239 0.05115252
v 0.03978064 -0.01489234 0.02663441
v 0.03059825 -0.02577566 0.01996299
v 0.03059825 -0.02577566 0.01996299
v 0.03978064 -0.01489234 0.02663441
v 0.04193391 -0.01288833 0.001091254
v 0.03218909 -0.02223232 0.001091231
v 0.03218909 -0.02223232 0.001091231
v 0.04193391 -0.01288833 0.001091254
v 0.04796655 -0.0148925 -0.02772632
v 0.03878419 -0.02577581 -0.02105496
v 0.04796655 -0.0148925 -0.02772632
v 0.04796657 -0.0001484062 -0.02772634
v 0.01805231 -0.0001482333 -0.05115301
v 0.0180523 -0.01489233 -0.05115294
v 0.0180523 -0.01489233 -0.05115294
v 0.01805231 -0.0001482333 -0.05115301
v -0.01317113 -0.0001482252 -0.04897009
v -0.01317113 -0.01489232 -0.04897003
v -0.01317113 -0.01489232 -0.04897003
v -0.01317113 -0.0001482252 -0.04897009
v -0.02743352 -0.0001483255 -0.02445197
v -0.02743356 -0.01489242 -0.02445198
v -0.02743356 -0.01489242 -0.02445198
v -0.02743352 -0.0001483255 -0.02445197
v -0.04796726 -0.0002294214 0.001091239
v -0.04796726 -0.01288821 0.001091229
v -0.04796726 -0.01288821 0.001091229
v -0.04796726 -0.0002294214 0.001091239
v -0.03053362 -0.0001483478 0.0266344
v -0.03053364 -0.01489245 0.02663443
v -0.03053364 -0.01489245 0.02663443
v -0.03053362 -0.0001483478 0.0266344
v -0.008805329 -0.0001482261 0.04351232
v -0.00880527 -0.01489233 0.04351232
v -0.00880527 -0.01489233 0.04351232
v -0.008805329 -0.0001482261 0.04351232
v 0.02460106 -0.0001482957 0.05115249
v 0.02460104 -0.01489239 0.05115252
v 0.02460104 -0.01489239 0.05115252
v 0.02460106 -0.0001482957 0.05115249
v 0.0397806 -0.0001482385 0.02663445
v 0.03978064 -0.01489234 0.02663441
v 0.03978064 -0.01489234 0.02663441
v 0.0397806 -0.0001482385 0.02663445
v 0.04193397 -0.0002295471 0.001091198
v 0.04193391 -0.01288833 0.001091254
v 0.04193391 -0.01288833 0.001091254
v 0.04193397 -0.0002295471 0.001091198
v 0.04796657 -0.0001484062 -0.02772634
v 0.04796655 -0.0148925 -0.02772632
v 0.04796657 -0.0001484062 -0.02772634
v 0.04568858 0.01428328 -0.02539703
v 0.01714478 0.01428337 -0.04799151
v 0.01805231 -0.0001482333 -0.05115301
v 0.01805231 -0.0001482333 -0.05115301
v 0.01714478 0.01428337 -0.04799151
v -0.01182946 0.01428337 -0.0455979
v -0.01317113 -0.0001482252 -0.04897009
v -0.01317113 -0.0001482252 -0.04897009
v -0.01182946 0.01428337 -0.0455979
v -0.02321061 0.01428346 -0.02180663
v -0.02743352 -0.0001483255 -0.02445197
v -0.02743352 -0.0001483255 -0.02445197
v -0.02321061 0.01428346 -0.02180663
v -0.04530447 0.01197218 0.0011966
v -0.04796726 -0.0002294214 0.001091239
v -0.04796726 -0.0002294214 0.001091239
v -0.04530447 0.01197218 0.0011966
v -0.02660995 0.01428344 0.02419979
v -0.03053362 -0.0001483478 0.0266344
v -0.03053362 -0.0001483478 0.0266344
v -0.02660995 0.01428344 0.02419979
v -0.0070422 0.01428324 0.03961332
v -0.008805329 -0.0001482261 0.04351232
v -0.008805329 -0.0001482261 0.04351232
v -0.0070422 0.01428324 0.03961332
v 0.02432559 0.01428335 0.04799102
v 0.02460106 -0.0001482957 0.05115249
v 0.02460106 -0.0001482957 0.05115249
v 0.02432559 0.01428335 0.04799102
v 0.03671244 0.01428341 0.02419976
v 0.0397806 -0.0001482385 0.02663445
v 0.0397806 -0.0001482385 0.02663445
v 0.03671244 0.01428341 0.02419976
v 0.03865163 0.01197203 0.001196583
v 0.04193397 -0.0002295471 0.001091198
v 0.04193397 -0.0002295471 0.001091198
v 0.03865163 0.01197203 0.001196583
v 0.04568858 0.01428328 -0.02539703
v 0.04796657 -0.0001484062 -0.02772634
v 0.04568858 0.01428328 -0.02539703
v 0.03225209 0.02437423 -0.01614787
v 0.01203611 0.02437425 -0.03256886
v 0.01714478 0.01428337 -0.04799151
v 0.01714478 0.01428337 -0.04799151
v 0.01203611 0.02437425 -0.03256886
v -0.002592609 0.02437447 -0.02139406
v -0.01182946 0.01428337 -0.0455979
v -0.01182946 0.01428337 -0.0455979
v -0.002592609 0.02437447 -0.02139406
v -0.01125349 0.02437445 -0.01279546
v -0.02321061 0.01428346 -0.02180663
v -0.02321061 0.01428346 -0.02180663
v -0.01125349 0.02437445 -0.01279546
v -0.03124505 0.02074631 0.001117229
v -0.04530447 0.01197218 0.0011966
v -0.04530447 0.01197218 0.0011966
v -0.03124505 0.02074631 0.001117229
v -0.01442747 0.02437433 0.01503
v -0.02660995 0.01428344 0.02419979
v -0.02660995 0.01428344 0.02419979
v -0.01442747 0.02437433 0.01503
v -0.002592604 0.0243745 0.024746
v -0.0070422 0.01428324 0.03961332
v -0.0070422 0.01428324 0.03961332
v -0.002592604 0.0243745 0.024746
v 0.01874099 0.0243744 0.03256837
v 0.02432559 0.01428335 0.04799102
v 0.02432559 0.01428335 0.04799102
v 0.01874099 0.0243744 0.03256837
v 0.02387101 0.02437419 0.01502998
v 0.03671244 0.01428341 0.02419976
v 0.03671244 0.01428341 0.02419976
v 0.02387101 0.02437419 0.01502998
v 0.02504386 0.02074653 0.001117254
v 0.03865163 0.01197203 0.001196583
v 0.03865163 0.01197203 0.001196583
v 0.02504386 0.02074653 0.001117254
v 0.03225209 0.02437423 -0.01614787
v 0.04568858 0.01428328 -0.02539703
v 0.03225209 0.02437423 -0.01614787
v 0.004623481 0.03397601 0.001091192
v 0.01203611 0.02437425 -0.03256886
v 0.01203611 0.02437425 -0.03256886
v 0.004623481 0.03397601 0.001091192
v -0.002592609 0.02437447 -0.02139406
v -0.002592609 0.02437447 -0.02139406
v 0.004623481 0.03397601 0.001091192
v -0.01125349 0.02437445 -0.01279546
v -0.01125349 0.02437445 -0.01279546
v 0.004623481 0.03397601 0.001091192
v -0.03124505 0.02074631 0.001117229
v -0.03124505 0.02074631 0.001117229
v 0.004623481 0.03397601 0.001091192
v -0.01442747 0.02437433 0.01503
v -0.01442747 0.02437433 0.01503
v 0.004623481 0.03397601 0.001091192
v -0.002592604 0.0243745 0.024746
v -0.002592604 0.0243745 0.024746
v 0.004623481 0.03397601 0.001091192
v 0.01874099 0.0243744 0.03256837
v 0.01874099 0.0243744 0.03256837
v 0.004623481 0.03397601 0.001091192
v 0.02387101 0.02437419 0.01502998
v 0.02387101 0.02437419 0.01502998
v 0.004623481 0.03397601 0.001091192
v 0.02504386 0.02074653 0.001117254
v 0.02504386 0.02074653 0.001117254
v 0.004623481 0.03397601 0.001091192
v 0.03225209 0.02437423 -0.01614787

vn 0.1247388 -0.98022 -0.1536492
vn 0.01209178 -0.9999245 -0.001972485
vn 0.2165248 -0.9762347 0.00904686
vn -0.01331892 -0.9808102 -0.1945074
vn -0.2030122 -0.9619707 -0.1827499
vn -0.2344592 -0.9665323 -0.1041305
vn -0.2387976 -0.9706183 0.02957987
vn -0.1548907 -0.9724375 0.174279
vn 0.008015178 -0.9822749 0.1872717
vn 0.2704119 -0.9560579 0.1132691
vn 0.3470904 -0.9123705 0.2170424
vn 0.6029077 -0.6966635 -0.3887953
vn 0.6029077 -0.6966635 -0.3887953
vn 0.6029077 -0.6966635 -0.3887953
vn 0.6029077 -0.6966635 -0.3887953
vn 0.1818184 -0.6995133 -0.6911024
vn 0.1818184 -0.6995134 -0.6911024
vn 0.1818184 -0.6995133 -0.6911024
vn 0.1818184 -0.6995133 -0.6911024
vn -0.5167158 -0.6662153 -0.5377374
vn -0.5167158 -0.6662152 -0.5377375
vn -0.5167158 -0.6662153 -0.5377374
vn -0.5167158 -0.6662152 -0.5377374
vn -0.3986845 -0.6891162 -0.605119
vn -0.3986846 -0.6891161 -0.605119
vn -0.3986846 -0.6891161 -0.605119
vn -0.3986846 -0.6891161 -0.605119
vn -0.6914911 -0.7030817 0.1658784
vn -0.6914911 -0.7030817 0.1658784
vn -0.6914911 -0.7030816 0.1658784
vn -0.6914911 -0.7030817 0.1658785
vn -0.5869498 -0.7111383 0.3870034
vn -0.5869499 -0.7111383 0.3870034
vn -0.5869498 -0.7111383 0.3870034
vn -0.5869498 -0.7111383 0.3870034
vn -0.3858099 -0.6984906 0.6027113
vn -0.38581 -0.6984907 0.6027113
vn -0.38581 -0.6984907 0.6027113
vn -0.3858099 -0.6984906 0.6027113
vn 0.509828 -0.6639428 0.5470421
vn 0.5098279 -0.6639428 0.5470421
vn 0.5098279 -0.6639428 0.5470421
vn 0.509828 -0.6639428 0.5470421
vn 0.7094613 -0.6721393 0.2118791
vn 0.7094613 -0.6721394 0.2118791
vn 0.7094613 -0.6721393 0.2118791
vn 0.7094613 -0.6721393 0.2118791
vn 0.6328713 -0.6101547 0.4766391
vn 0.6328713 -0.6101546 0.4766391
vn 0.6328713 -0.6101547 0.4766391
vn 0.6328713 -0.6101546 0.4766391
vn 0.8364261 0.01015377 -0.5479855
vn 0.8364261 0.01015377 -0.5479854
vn 0.8364261 0.01015377 -0.5479854
vn 0.8364261 0.01015377 -0.5479855
vn 0.253825 0.0050799 -0.9672366
vn 0.253825 0.0050799 -0.9672366
vn 0.253825 0.0050799 -0.9672366
vn 0.253825 0.0050799 -0.9672366
vn -0.6574578 -0.005026223 -0.7534745
vn -0.6574578 -0.005026223 -0.7534745
vn -0.6574578 -0.005026223 -0.7534745
vn -0.6574578 -0.005026223 -0.7534745
vn -0.5372816 -0.003539433 -0.8433954
vn -0.5372816 -0.003539433 -0.8433954
vn -0.5372816 -0.003539433 -0.8433954
vn -0.5372816 -0.003539433 -0.8433954
vn -0.9630615 -0.01078804 0.2690651
vn -0.9630615 -0.01078804 0.2690651
vn -0.9630615 -0.01078804 0.2690652
vn -0.9630615 -0.01078804 0.2690651
vn -0.8342535 -0.01013919 0.5512878
vn -0.8342535 -0.01013919 0.5512878
vn -0.8342535 -0.01013919 0.5512878
vn -0.8342535 -0.01013919 0.5512878
vn -0.5237525 -0.007627438 0.8518361
vn -0.5237525 -0.007627438 0.8518361
vn -0.5237525 -0.007627438 0.8518361
vn -0.5237525 -0.007627438 0.8518361
vn 0.6364956 0.004761628 0.7712656
vn 0.6364956 0.004761628 0.7712656
vn 0.6364956 0.004761628 0.7712656
vn 0.6364956 0.004761628 0.7712656
vn 0.9168518 0.008635258 0.3991344
vn 0.9168518 0.008635258 0.3991344
vn 0.9168518 0.008635258 0.3991344
vn 0.9168518 0.008635258 0.3991344
vn 0.8613382 0.007780523 0.5079722
vn 0.8613383 0.007780523 0.5079722
vn 0.8613382 0.007780523 0.5079722
vn 0.8613382 0.007780523 0.5079722
vn 0.8164045 0.222675 -0.5328222
vn 0.8164044 0.222675 -0.5328222
vn 0.8164044 0.222675 -0.5328222
vn 0.8164044 0.222675 -0.5328222
vn 0.2394724 0.2261178 -0.9442051
vn 0.2394724 0.2261178 -0.9442051
vn 0.2394724 0.2261178 -0.9442051
vn 0.2394724 0.2261178 -0.9442051
vn -0.6655567 0.2536716 -0.701915
vn -0.6655567 0.2536716 -0.701915
vn -0.6655567 0.2536716 -0.7019151
vn -0.6655567 0.2536716 -0.701915
vn -0.4944594 0.2515316 -0.8320106
vn -0.4944593 0.2515316 -0.8320106
vn -0.4944594 0.2515316 -0.8320106
vn -0.4944594 0.2515316 -0.8320105
vn -0.9280455 0.2333228 0.2903306
vn -0.9280455 0.2333229 0.2903306
vn -0.9280455 0.2333228 0.2903306
vn -0.9280455 0.2333228 0.2903306
vn -0.8049963 0.2725054 0.5269929
vn -0.8049964 0.2725054 0.5269927
vn -0.8049964 0.2725054 0.5269928
vn -0.8049964 0.2725054 0.5269928
vn -0.5251344 0.2348426 0.8179746
vn -0.5251344 0.2348426 0.8179746
vn -0.5251344 0.2348426 0.8179746
vn -0.5251344 0.2348426 0.8179746
vn 0.6491989 0.1980052 0.7343941
vn 0.6491989 0.1980052 0.7343941
vn 0.6491988 0.1980052 0.7343941
vn 0.6491989 0.1980052 0.7343941
vn 0.8927876 0.245608 0.3776333
vn 0.8927876 0.245608 0.3776333
vn 0.8927876 0.245608 0.3776333
vn 0.8927876 0.245608 0.3776333
vn 0.8287786 0.1856612 0.5278785
vn 0.8287787 0.1856612 0.5278785
vn 0.8287786 0.1856612 0.5278785
vn 0.8287786 0.1856612 0.5278785
vn 0.4522286 0.8423671 -0.2930979
vn 0.4522286 0.8423671 -0.2930979
vn 0.4522286 0.8423671 -0.2930979
vn 0.4522286 0.8423671 -0.2930979
vn 0.002032325 0.8896447 -0.4566479
vn 0.00203234 0.8896447 -0.4566479
vn 0.002032325 0.8896447 -0.4566479
vn 0.002032354 0.8896447 -0.4566479
vn -0.3237973 0.866929 -0.3789309
vn -0.3237972 0.866929 -0.378931
vn -0.3237973 0.866929 -0.3789309
vn -0.3237972 0.866929 -0.378931
vn -0.3125188 0.8029317 -0.5075745
vn -0.3125188 0.8029318 -0.5075745
vn -0.3125188 0.8029318 -0.5075745
vn -0.3125188 0.8029318 -0.5075745
vn -0.5616652 0.8122829 0.157251
vn -0.5616652 0.812283 0.157251
vn -0.5616653 0.8122829 0.157251
vn -0.5616652 0.8122829 0.157251
vn -0.4879088 0.8164135 0.3088904
vn -0.4879088 0.8164134 0.3088903
vn -0.4879089 0.8164134 0.3088904
vn -0.4879088 0.8164134 0.3088903
vn -0.345606 0.8124807 0.4695006
vn -0.345606 0.8124807 0.4695006
vn -0.345606 0.8124807 0.4695006
vn -0.345606 0.8124807 0.4695006
vn 0.4435096 0.7999306 0.4042396
vn 0.4435096 0.7999306 0.4042396
vn 0.4435096 0.7999306 0.4042396
vn 0.4435096 0.7999306 0.4042396
vn 0.5820013 0.8043752 0.1193915
vn 0.5820012 0.8043752 0.1193915
vn 0.5820013 0.8043752 0.1193915
vn 0.5820013 0.8043752 0.1193915
vn 0.4764366 0.7363872 0.4803556
vn 0.4764366 0.7363873 0.4803556
vn 0.4764366 0.7363872 0.4803556
vn 0.4764366 0.7363872 0.4803556
vn 0.2417678 0.9576717 -0.1562447
vn 0.2417678 0.9576717 -0.1562448
vn 0.2417678 0.9576717 -0.1562447
vn -0.1364929 0.9176992 -0.3730911
vn -0.1364929 0.9176992 -0.3730912
vn -0.1364928 0.9176992 -0.3730911
vn -0.192117 0.9087116 -0.3705853
vn -0.192117 0.9087116 -0.3705854
vn -0.192117 0.9087116 -0.3705853
vn -0.2488538 0.9078159 -0.3375519
vn -0.2488539 0.9078159 -0.3375519
vn -0.2488539 0.9078159 -0.3375519
vn -0.3873527 0.9202942 0.05491491
vn -0.3873526 0.9202942 0.05491494
vn -0.3873527 0.9202942 0.05491491
vn -0.338369 0.9179678 0.2069798
vn -0.338369 0.9179679 0.2069798
vn -0.338369 0.9179679 0.2069798
vn -0.2370621 0.9288735 0.2845955
vn -0.2370621 0.9288735 0.2845955
vn -0.237062 0.9288735 0.2845955
vn 0.3131863 0.9218078 0.2284378
vn 0.3131864 0.9218078 0.2284378
vn 0.3131864 0.9218077 0.2284378
vn 0.5535621 0.8327137 0.01249667
vn 0.553562 0.8327137 0.01249667
vn 0.553562 0.8327138 0.01249667
vn 0.3491887 0.7809954 0.517796
vn 0.3491886 0.7809954 0.517796
vn 0.3491887 0.7809954 0.517796

vt 0.5483398 0.007648468
vt 0.5 0.1500244
vt 0.6264648 0.06439209
vt 0.4516602 0.007648468
vt 0.3735352 0.06439209
vt 0.34375 0.15625
vt 0.3735352 0.2480469
vt 0.4516602 0.3049316
vt 0.5483398 0.3049316
vt 0.6264648 0.2480469
vt 0.65625 0.15625
vt 0 0
vt 0 1
vt 1 1
vt 1 0
vt 0 0
vt 0 1
vt 1 1
vt 1 0
vt 0 0
vt 0 1
vt 1 1
vt 1 0
vt 0 0
vt 0 1
vt 1 1
vt 1 0
vt 0 0
vt 0 1
vt 1 1
vt 1 0
vt 0 0
vt 0 1
vt 1 1
vt 1 0
vt 0 0
vt 0 1
vt 1 1
vt 1 0
vt 0 0
vt 0 1
vt 1 1
vt 1 0
vt 0 0
vt 0 1
vt 1 1
vt 1 0
vt 0 0
vt 0 1
vt 1 1
vt 1 0
vt 0 0
vt 0 1
vt 1 1
vt 1 0
vt 0 0
vt 0 1
vt 1 1
vt 1 0
vt 0 0
vt 0 1
vt 1 1
vt 1 0
vt 0 0
vt 0 1
vt 1 1
vt 1 0
vt 0 0
vt 0 1
vt 1 1
vt 1 0
vt 0 0
vt 0 1
vt 1 1
vt 1 0
vt 0 0
vt 0 1
vt 1 1
vt 1 0
vt 0 0
vt 0 1
vt 1 1
vt 1 0
vt 0 0
vt 0 1
vt 1 1
vt 1 0
vt 0 0
vt 0 1
vt 1 1
vt 1 0
vt 0 0
vt 0 1
vt 1 1
vt 1 0
vt 0 0
vt 0 1
vt 1 1
vt 1 0
vt 0 0
vt 0 1
vt 1 1
vt 1 0
vt 0 0
vt 0 1
vt 1 1
vt 1 0
vt 0 0
vt 0 1
vt 1 1
vt 1 0
vt 0 0
vt 0 1
vt 1 1
vt 1 0
vt 0 0
vt 0 1
vt 1 1
vt 1 0
vt 0 0
vt 0 1
vt 1 1
vt 1 0
vt 0 0
vt 0 1
vt 1 1
vt 1 0
vt 0 0
vt 0 1
vt 1 1
vt 1 0
vt 0 0
vt 0 1
vt 1 1
vt 1 0
vt 0 0
vt 0 1
vt 1 1
vt 1 0
vt 0 0
vt 0 1
vt 1 1
vt 1 0
vt 0 0
vt 0 1
vt 1 1
vt 1 0
vt 0 0
vt 0 1
vt 1 1
vt 1 0
vt 0 0
vt 0 1
vt 1 1
vt 1 0
vt 0 0
vt 0 1
vt 1 1
vt 1 0
vt 0 0
vt 0 1
vt 1 1
vt 1 0
vt 0 0
vt 0 1
vt 1 1
vt 1 0
vt 0 0
vt 0 1
vt 1 1
vt 1 0
vt 0 0
vt 0.5 1
vt 1 0
vt 0 0
vt 0.5 1
vt 1 0
vt 0 0
vt 0.5 1
vt 1 0
vt 0 0
vt 0.5 1
vt 1 0
vt 0 0
vt 0.5 1
vt 1 0
vt 0 0
vt 0.5 1
vt 1 0
vt 0 0
vt 0.5 1
vt 1 0
vt 0 0
vt 0.5 1
vt 1 0
vt 0 0
vt 0.5 1
vt 1 0
vt 0 0
vt 0.5 1
vt 1 0

g Foliage6_10_3586_300
usemtl Foliage6_10_3586_300
usemap Foliage6_10_3586_300
f 1/1/1 3/3/3 2/2/2
f 4/4/4 1/1/1 2/2/2
f 5/5/5 4/4/4 2/2/2
f 6/6/6 5/5/5 2/2/2
f 7/7/7 6/6/6 2/2/2
f 8/8/8 7/7/7 2/2/2
f 9/9/9 8/8/8 2/2/2
f 10/10/10 9/9/9 2/2/2
f 11/11/11 10/10/10 2/2/2
f 3/3/3 11/11/11 2/2/2
f 12/12/12 14/14/14 13/13/13
f 12/12/12 15/15/15 14/14/14
f 16/16/16 18/18/18 17/17/17
f 16/16/16 19/19/19 18/18/18
f 20/20/20 22/22/22 21/21/21
f 20/20/20 23/23/23 22/22/22
f 24/24/24 26/26/26 25/25/25
f 24/24/24 27/27/27 26/26/26
f 28/28/28 30/30/30 29/29/29
f 28/28/28 31/31/31 30/30/30
f 32/32/32 34/34/34 33/33/33
f 32/32/32 35/35/35 34/34/34
f 36/36/36 38/38/38 37/37/37
f 36/36/36 39/39/39 38/38/38
f 40/40/40 42/42/42 41/41/41
f 40/40/40 43/43/43 42/42/42
f 44/44/44 46/46/46 45/45/45
f 44/44/44 47/47/47 46/46/46
f 48/48/48 50/50/50 49/49/49
f 48/48/48 51/51/51 50/50/50
f 52/52/52 54/54/54 53/53/53
f 52/52/52 55/55/55 54/54/54
f 56/56/56 58/58/58 57/57/57
f 56/56/56 59/59/59 58/58/58
f 60/60/60 62/62/62 61/61/61
f 60/60/60 63/63/63 62/62/62
f 64/64/64 66/66/66 65/65/65
f 64/64/64 67/67/67 66/66/66
f 68/68/68 70/70/70 69/69/69
f 68/68/68 71/71/71 70/70/70
f 72/72/72 74/74/74 73/73/73
f 72/72/72 75/75/75 74/74/74
f 76/76/76 78/78/78 77/77/77
f 76/76/76 79/79/79 78/78/78
f 80/80/80 82/82/82 81/81/81
f 80/80/80 83/83/83 82/82/82
f 84/84/84 86/86/86 85/85/85
f 84/84/84 87/87/87 86/86/86
f 88/88/88 90/90/90 89/89/89
f 88/88/88 91/91/91 90/90/90
f 92/92/92 94/94/94 93/93/93
f 92/92/92 95/95/95 94/94/94
f 96/96/96 98/98/98 97/97/97
f 96/96/96 99/99/99 98/98/98
f 100/100/100 102/102/102 101/101/101
f 100/100/100 103/103/103 102/102/102
f 104/104/104 106/106/106 105/105/105
f 104/104/104 107/107/107 106/106/106
f 108/108/108 110/110/110 109/109/109
f 108/108/108 111/111/111 110/110/110
f 112/112/112 114/114/114 113/113/113
f 112/112/112 115/115/115 114/114/114
f 116/116/116 118/118/118 117/117/117
f 116/116/116 119/119/119 118/118/118
f 120/120/120 122/122/122 121/121/121
f 120/120/120 123/123/123 122/122/122
f 124/124/124 126/126/126 125/125/125
f 124/124/124 127/127/127 126/126/126
f 128/128/128 130/130/130 129/129/129
f 128/128/128 131/131/131 130/130/130
f 132/132/132 134/134/134 133/133/133
f 132/132/132 135/135/135 134/134/134
f 136/136/136 138/138/138 137/137/137
f 136/136/136 139/139/139 138/138/138
f 140/140/140 142/142/142 141/141/141
f 140/140/140 143/143/143 142/142/142
f 144/144/144 146/146/146 145/145/145
f 144/144/144 147/147/147 146/146/146
f 148/148/148 150/150/150 149/149/149
f 148/148/148 151/151/151 150/150/150
f 152/152/152 154/154/154 153/153/153
f 152/152/152 155/155/155 154/154/154
f 156/156/156 158/158/158 157/157/157
f 156/156/156 159/159/159 158/158/158
f 160/160/160 162/162/162 161/161/161
f 160/160/160 163/163/163 162/162/162
f 164/164/164 166/166/166 165/165/165
f 164/164/164 167/167/167 166/166/166
f 168/168/168 170/170/170 169/169/169
f 168/168/168 171/171/171 170/170/170
f 172/172/172 174/174/174 173/173/173
f 175/175/175 177/177/177 176/176/176
f 178/178/178 180/180/180 179/179/179
f 181/181/181 183/183/183 182/182/182
f 184/184/184 186/186/186 185/185/185
f 187/187/187 189/189/189 188/188/188
f 190/190/190 192/192/192 191/191/191
f 193/193/193 195/195/195 194/194/194
f 196/196/196 198/198/198 197/197/197
f 199/199/199 201/201/201 200/200/200
