#Foliage8_39_3868_140.obj

v 0.01454328 -0.02577553 -0.04035915
v 0.004621814 -0.03397593 0.001090515
v 0.03878283 -0.02577554 -0.02105555
v -0.009665523 -0.02577554 -0.03817632
v -0.01825253 -0.02577551 -0.01778116
v -0.03822419 -0.02223211 0.00109052
v -0.02135321 -0.02577548 0.01996216
v -0.005299428 -0.02577551 0.03271713
v 0.02109216 -0.02577552 0.04035738
v 0.03059673 -0.02577552 0.01996232
v 0.03218735 -0.02223206 0.001090466
v 0.03878283 -0.02577554 -0.02105555
v 0.04796466 -0.01489226 -0.02772711
v 0.01805047 -0.01489224 -0.05115377
v 0.01454328 -0.02577553 -0.04035915
v 0.01454328 -0.02577553 -0.04035915
v 0.01805047 -0.01489224 -0.05115377
v -0.01317254 -0.01489227 -0.04897073
v -0.009665523 -0.02577554 -0.03817632
v -0.009665523 -0.02577554 -0.03817632
v -0.01317254 -0.01489227 -0.04897073
v -0.02743557 -0.01489223 -0.02445285
v -0.01825253 -0.02577551 -0.01778116
v -0.01825253 -0.02577551 -0.01778116
v -0.02743557 -0.01489223 -0.02445285
v -0.04796904 -0.01288806 0.001090426
v -0.03822419 -0.02223211 0.00109052
v -0.03822419 -0.02223211 0.00109052
v -0.04796904 -0.01288806 0.001090426
v -0.03053558 -0.01489229 0.02663352
v -0.02135321 -0.02577548 0.01996216
v -0.02135321 -0.02577548 0.01996216
v -0.03053558 -0.01489229 0.02663352
v -0.008807147 -0.01489223 0.04351154
v -0.005299428 -0.02577551 0.03271713
v -0.005299428 -0.02577551 0.03271713
v -0.008807147 -0.01489223 0.04351154
v 0.02459947 -0.01489226 0.05115183
v 0.02109216 -0.02577552 0.04035738
v 0.02109216 -0.02577552 0.04035738
v 0.02459947 -0.01489226 0.05115183
v 0.03977925 -0.01489224 0.02663381
v 0.03059673 -0.02577552 0.01996232
v 0.03059673 -0.02577552 0.01996232
v 0.03977925 -0.01489224 0.02663381
v 0.0419324 -0.01288805 0.001090557
v 0.03218735 -0.02223206 0.001090466
v 0.03218735 -0.02223206 0.001090466
v 0.0419324 -0.01288805 0.001090557
v 0.04796466 -0.01489226 -0.02772711
v 0.03878283 -0.02577554 -0.02105555
v 0.04796466 -0.01489226 -0.02772711
v 0.04796478 -0.0001482277 -0.02772714
v 0.01805059 -0.0001482024 -0.05115379
v 0.01805047 -0.01489224 -0.05115377
v 0.01805047 -0.01489224 -0.05115377
v 0.01805059 -0.0001482024 -0.05115379
v -0.01317247 -0.0001482347 -0.04897065
v -0.01317254 -0.01489227 -0.04897073
v -0.01317254 -0.01489227 -0.04897073
v -0.01317247 -0.0001482347 -0.04897065
v -0.0274355 -0.0001481952 -0.02445277
v -0.02743557 -0.01489223 -0.02445285
v -0.02743557 -0.01489223 -0.02445285
v -0.0274355 -0.0001481952 -0.02445277
v -0.04796858 -0.0002293079 0.001090639
v -0.04796904 -0.01288806 0.001090426
v -0.04796904 -0.01288806 0.001090426
v -0.04796858 -0.0002293079 0.001090639
v -0.0305355 -0.0001481659 0.02663361
v -0.03053558 -0.01489229 0.02663352
v -0.03053558 -0.01489229 0.02663352
v -0.0305355 -0.0001481659 0.02663361
v -0.008807024 -0.0001481989 0.04351152
v -0.008807147 -0.01489223 0.04351154
v -0.008807147 -0.01489223 0.04351154
v -0.008807024 -0.0001481989 0.04351152
v 0.02459954 -0.0001482251 0.05115191
v 0.02459947 -0.01489226 0.05115183
v 0.02459947 -0.01489226 0.05115183
v 0.02459954 -0.0001482251 0.05115191
v 0.03977854 -0.0001481809 0.02663354
v 0.03977925 -0.01489224 0.02663381
v 0.03977925 -0.01489224 0.02663381
v 0.03977854 -0.0001481809 0.02663354
v 0.04193208 -0.0002292682 0.00109042
v 0.0419324 -0.01288805 0.001090557
v 0.0419324 -0.01288805 0.001090557
v 0.04193208 -0.0002292682 0.00109042
v 0.04796478 -0.0001482277 -0.02772714
v 0.04796466 -0.01489226 -0.02772711
v 0.04796478 -0.0001482277 -0.02772714
v 0.04568704 0.01428351 -0.02539773
v 0.0171432 0.01428344 -0.04799213
v 0.01805059 -0.0001482024 -0.05115379
v 0.01805059 -0.0001482024 -0.05115379
v 0.0171432 0.01428344 -0.04799213
v -0.01183144 0.01428347 -0.04559874
v -0.01317247 -0.0001482347 -0.04897065
v -0.01317247 -0.0001482347 -0.04897065
v -0.01183144 0.01428347 -0.04559874
v -0.02321204 0.01428343 -0.02180717
v -0.0274355 -0.0001481952 -0.02445277
v -0.0274355 -0.0001481952 -0.02445277
v -0.02321204 0.01428343 -0.02180717
v -0.04530636 0.01197224 0.001195756
v -0.04796858 -0.0002293079 0.001090639
v -0.04796858 -0.0002293079 0.001090639
v -0.04530636 0.01197224 0.001195756
v -0.0266116 0.01428346 0.02419909
v -0.0305355 -0.0001481659 0.02663361
v -0.0305355 -0.0001481659 0.02663361
v -0.0266116 0.01428346 0.02419909
v -0.007043922 0.01428353 0.03961259
v -0.008807024 -0.0001481989 0.04351152
v -0.008807024 -0.0001481989 0.04351152
v -0.007043922 0.01428353 0.03961259
v 0.02432423 0.01428347 0.04799049
v 0.02459954 -0.0001482251 0.05115191
v 0.02459954 -0.0001482251 0.05115191
v 0.02432423 0.01428347 0.04799049
v 0.0367104 0.01428347 0.0241989
v 0.03977854 -0.0001481809 0.02663354
v 0.03977854 -0.0001481809 0.02663354
v 0.0367104 0.01428347 0.0241989
v 0.03864969 0.01197225 0.001195753
v 0.04193208 -0.0002292682 0.00109042
v 0.04193208 -0.0002292682 0.00109042
v 0.03864969 0.01197225 0.001195753
v 0.04568704 0.01428351 -0.02539773
v 0.04796478 -0.0001482277 -0.02772714
v 0.04568704 0.01428351 -0.02539773
v 0.03225077 0.02437453 -0.01614851
v 0.01203442 0.0243745 -0.03256955
v 0.0171432 0.01428344 -0.04799213
v 0.0171432 0.01428344 -0.04799213
v 0.01203442 0.0243745 -0.03256955
v -0.002594373 0.02437451 -0.02139485
v -0.01183144 0.01428347 -0.04559874
v -0.01183144 0.01428347 -0.04559874
v -0.002594373 0.02437451 -0.02139485
v -0.01125513 0.02437456 -0.01279623
v -0.02321204 0.01428343 -0.02180717
v -0.02321204 0.01428343 -0.02180717
v -0.01125513 0.02437456 -0.01279623
v -0.03124698 0.02074658 0.001116476
v -0.04530636 0.01197224 0.001195756
v -0.04530636 0.01197224 0.001195756
v -0.03124698 0.02074658 0.001116476
v -0.01442918 0.02437455 0.01502921
v -0.0266116 0.01428346 0.02419909
v -0.0266116 0.01428346 0.02419909
v -0.01442918 0.02437455 0.01502921
v -0.002594615 0.02437451 0.02474512
v -0.007043922 0.01428353 0.03961259
v -0.007043922 0.01428353 0.03961259
v -0.002594615 0.02437451 0.02474512
v 0.01873966 0.02437455 0.03256782
v 0.02432423 0.01428347 0.04799049
v 0.02432423 0.01428347 0.04799049
v 0.01873966 0.02437455 0.03256782
v 0.02386927 0.02437453 0.01502919
v 0.0367104 0.01428347 0.0241989
v 0.0367104 0.01428347 0.0241989
v 0.02386927 0.02437453 0.01502919
v 0.02504178 0.02074665 0.001116342
v 0.03864969 0.01197225 0.001195753
v 0.03864969 0.01197225 0.001195753
v 0.02504178 0.02074665 0.001116342
v 0.03225077 0.02437453 -0.01614851
v 0.04568704 0.01428351 -0.02539773
v 0.03225077 0.02437453 -0.01614851
v 0.004622146 0.0339762 0.001090655
v 0.01203442 0.0243745 -0.03256955
v 0.01203442 0.0243745 -0.03256955
v 0.004622146 0.0339762 0.001090655
v -0.002594373 0.02437451 -0.02139485
v -0.002594373 0.02437451 -0.02139485
v 0.004622146 0.0339762 0.001090655
v -0.01125513 0.02437456 -0.01279623
v -0.01125513 0.02437456 -0.01279623
v 0.004622146 0.0339762 0.001090655
v -0.03124698 0.02074658 0.001116476
v -0.03124698 0.02074658 0.001116476
v 0.004622146 0.0339762 0.001090655
v -0.01442918 0.02437455 0.01502921
v -0.01442918 0.02437455 0.01502921
v 0.004622146 0.0339762 0.001090655
v -0.002594615 0.02437451 0.02474512
v -0.002594615 0.02437451 0.02474512
v 0.004622146 0.0339762 0.001090655
v 0.01873966 0.02437455 0.03256782
v 0.01873966 0.02437455 0.03256782
v 0.004622146 0.0339762 0.001090655
v 0.02386927 0.02437453 0.01502919
v 0.02386927 0.02437453 0.01502919
v 0.004622146 0.0339762 0.001090655
v 0.02504178 0.02074665 0.001116342
v 0.02504178 0.02074665 0.001116342
v 0.004622146 0.0339762 0.001090655
v 0.03225077 0.02437453 -0.01614851

vn 0.2130736 -0.9768481 0.01916527
vn -0.02821886 -0.9985779 0.04523033
vn 0.1515422 -0.9613647 0.2298103
vn 0.1224996 -0.9832875 -0.134683
vn -0.06295508 -0.9552626 -0.2889808
vn -0.1618913 -0.9540802 -0.2520359
vn -0.2837179 -0.947534 -0.1472528
vn -0.3347606 -0.9414173 0.04085167
vn -0.2000764 -0.9604891 0.1934687
vn 0.1079065 -0.9280386 0.3565116
vn 0.08623827 -0.8648465 0.4945741
vn 0.7624906 -0.6140997 0.2036897
vn 0.7624906 -0.6140997 0.2036897
vn 0.7624906 -0.6140997 0.2036898
vn 0.7624906 -0.6140997 0.2036897
vn 0.6814931 -0.6488864 -0.3383987
vn 0.681493 -0.6488864 -0.3383986
vn 0.6814931 -0.6488864 -0.3383987
vn 0.6814931 -0.6488864 -0.3383987
vn -0.0208892 -0.6208236 -0.7836719
vn -0.0208892 -0.6208236 -0.783672
vn -0.0208892 -0.6208236 -0.7836719
vn -0.02088923 -0.6208236 -0.783672
vn 0.1338867 -0.6511013 -0.7470887
vn 0.1338866 -0.6511012 -0.7470888
vn 0.1338867 -0.6511012 -0.7470887
vn 0.1338866 -0.6511012 -0.7470887
vn -0.7068725 -0.5950249 -0.3824614
vn -0.7068725 -0.5950249 -0.3824614
vn -0.7068725 -0.5950248 -0.3824614
vn -0.7068725 -0.5950249 -0.3824614
vn -0.7925466 -0.5915997 -0.147918
vn -0.7925466 -0.5915996 -0.147918
vn -0.7925466 -0.5915997 -0.147918
vn -0.7925466 -0.5915997 -0.147918
vn -0.8028858 -0.575806 0.1543434
vn -0.8028858 -0.5758061 0.1543433
vn -0.8028858 -0.5758061 0.1543434
vn -0.8028858 -0.575806 0.1543434
vn -0.04157897 -0.5700049 0.8205885
vn -0.04157902 -0.570005 0.8205885
vn -0.04157902 -0.570005 0.8205885
vn -0.04157894 -0.5700049 0.8205885
vn 0.3870815 -0.5788541 0.7177016
vn 0.3870815 -0.5788543 0.7177016
vn 0.3870815 -0.5788541 0.7177016
vn 0.3870815 -0.5788541 0.7177016
vn 0.1176474 -0.515708 0.8486485
vn 0.1176475 -0.5157079 0.8486486
vn 0.1176474 -0.515708 0.8486485
vn 0.1176475 -0.5157079 0.8486485
vn 0.9757834 -0.01146274 0.2184384
vn 0.9757834 -0.01146274 0.2184385
vn 0.9757834 -0.01146274 0.2184385
vn 0.9757834 -0.01146274 0.2184384
vn 0.8899682 -0.03081066 -0.4549806
vn 0.8899682 -0.03081066 -0.4549806
vn 0.8899682 -0.03081066 -0.4549806
vn 0.8899682 -0.03081066 -0.4549806
vn 0.05682282 -0.03211245 -0.9978678
vn 0.05682282 -0.03211245 -0.9978678
vn 0.05682282 -0.03211245 -0.9978678
vn 0.05682282 -0.03211245 -0.9978678
vn 0.2195098 -0.03444529 -0.9750021
vn 0.2195098 -0.03444529 -0.9750021
vn 0.2195098 -0.03444529 -0.9750021
vn 0.2195098 -0.03444529 -0.9750021
vn -0.8772683 0.001480707 -0.479998
vn -0.8772683 0.001480707 -0.479998
vn -0.8772684 0.00148071 -0.4799979
vn -0.8772683 0.001480707 -0.479998
vn -0.9765616 0.0115866 -0.2149259
vn -0.9765616 0.0115866 -0.2149259
vn -0.9765616 0.0115866 -0.2149259
vn -0.9765616 0.0115866 -0.2149259
vn -0.9824398 0.02414085 0.1850118
vn -0.9824398 0.02414085 0.1850118
vn -0.9824398 0.02414085 0.1850118
vn -0.9824398 0.02414085 0.1850118
vn -0.0867346 0.03260466 0.9956978
vn -0.0867346 0.03260466 0.9956978
vn -0.0867346 0.03260466 0.9956978
vn -0.0867346 0.03260466 0.9956978
vn 0.4006496 0.02100424 0.9159905
vn 0.4006496 0.02100424 0.9159905
vn 0.4006496 0.02100424 0.9159905
vn 0.4006496 0.02100424 0.9159905
vn 0.2820228 0.02456523 0.9590932
vn 0.2820228 0.02456523 0.9590932
vn 0.2820228 0.02456523 0.9590932
vn 0.2820228 0.02456523 0.9590932
vn 0.9656694 0.152459 0.2103308
vn 0.9656693 0.152459 0.2103307
vn 0.9656693 0.152459 0.2103307
vn 0.9656693 0.152459 0.2103307
vn 0.8758228 0.1475883 -0.4595129
vn 0.8758228 0.1475884 -0.4595129
vn 0.8758228 0.1475884 -0.4595129
vn 0.8758228 0.1475884 -0.4595129
vn 0.02055376 0.1868308 -0.9821771
vn 0.02055372 0.1868308 -0.9821771
vn 0.02055383 0.1868308 -0.9821771
vn 0.02055376 0.1868307 -0.9821771
vn 0.2549863 0.1809081 -0.9498706
vn 0.2549863 0.1809082 -0.9498706
vn 0.2549863 0.1809081 -0.9498706
vn 0.2549862 0.1809081 -0.9498706
vn -0.8695282 0.191562 -0.4552194
vn -0.8695282 0.191562 -0.4552194
vn -0.8695282 0.191562 -0.4552194
vn -0.8695282 0.1915619 -0.4552194
vn -0.9472985 0.2306015 -0.2223703
vn -0.9472985 0.2306015 -0.2223703
vn -0.9472985 0.2306015 -0.2223703
vn -0.9472985 0.2306015 -0.2223703
vn -0.9639404 0.2144266 0.1576078
vn -0.9639404 0.2144267 0.1576078
vn -0.9639404 0.2144266 0.1576078
vn -0.9639404 0.2144266 0.1576078
vn -0.04248521 0.1938786 0.9801052
vn -0.04248521 0.1938786 0.9801052
vn -0.04248528 0.1938786 0.9801052
vn -0.04248521 0.1938786 0.9801052
vn 0.4102338 0.2139006 0.8865409
vn 0.4102338 0.2139005 0.8865409
vn 0.4102338 0.2139005 0.8865409
vn 0.4102338 0.2139005 0.8865409
vn 0.2507495 0.1722689 0.9526007
vn 0.2507496 0.1722689 0.9526007
vn 0.2507495 0.1722689 0.9526007
vn 0.2507496 0.1722689 0.9526007
vn 0.6531119 0.74852 0.114729
vn 0.6531119 0.74852 0.114729
vn 0.6531119 0.74852 0.114729
vn 0.6531119 0.74852 0.114729
vn 0.4268823 0.819778 -0.381753
vn 0.4268823 0.819778 -0.3817531
vn 0.4268823 0.819778 -0.381753
vn 0.4268823 0.8197781 -0.381753
vn 0.07233007 0.8027471 -0.5919167
vn 0.07233009 0.8027471 -0.5919168
vn 0.07233007 0.8027471 -0.5919167
vn 0.07233009 0.8027471 -0.5919168
vn 0.1860861 0.7220933 -0.6662982
vn 0.1860861 0.7220933 -0.6662982
vn 0.1860861 0.7220933 -0.6662982
vn 0.1860861 0.7220933 -0.6662982
vn -0.5717361 0.7392163 -0.3559173
vn -0.5717361 0.7392163 -0.3559173
vn -0.5717362 0.7392163 -0.3559173
vn -0.5717361 0.7392163 -0.3559173
vn -0.6344249 0.7503248 -0.1857893
vn -0.6344249 0.7503248 -0.1857894
vn -0.634425 0.7503248 -0.1857894
vn -0.6344249 0.7503248 -0.1857894
vn -0.6502506 0.7582873 0.04663329
vn -0.6502506 0.7582873 0.04663331
vn -0.6502506 0.7582873 0.04663331
vn -0.6502506 0.7582873 0.04663331
vn 0.07565998 0.761009 0.6443142
vn 0.07565999 0.761009 0.6443142
vn 0.07565995 0.761009 0.6443142
vn 0.07565999 0.761009 0.6443142
vn 0.4260782 0.7350913 0.5273501
vn 0.4260781 0.7350914 0.52735
vn 0.4260781 0.7350914 0.5273501
vn 0.4260781 0.7350913 0.5273501
vn 0.03704643 0.6935107 0.7194933
vn 0.0370465 0.6935107 0.7194932
vn 0.03704643 0.6935107 0.7194933
vn 0.03704643 0.6935107 0.7194933
vn 0.3933605 0.9181207 0.04818651
vn 0.3933605 0.9181206 0.04818648
vn 0.3933605 0.9181207 0.04818651
vn 0.238639 0.8652505 -0.4409002
vn 0.238639 0.8652505 -0.4409003
vn 0.238639 0.8652505 -0.4409002
vn 0.1857472 0.8548366 -0.4845124
vn 0.1857472 0.8548366 -0.4845125
vn 0.1857471 0.8548366 -0.4845125
vn 0.1062339 0.8556699 -0.5065013
vn 0.1062338 0.8556698 -0.5065013
vn 0.1062338 0.8556698 -0.5065013
vn -0.3564246 0.8800499 -0.3138053
vn -0.3564246 0.8800499 -0.3138052
vn -0.3564246 0.8800499 -0.3138053
vn -0.4435877 0.8829733 -0.1535846
vn -0.4435877 0.8829733 -0.1535846
vn -0.4435877 0.8829733 -0.1535846
vn -0.4241534 0.905549 -0.008651512
vn -0.4241534 0.905549 -0.008651551
vn -0.4241533 0.905549 -0.008651531
vn 0.1198466 0.9017181 0.4153808
vn 0.1198466 0.9017181 0.4153808
vn 0.1198466 0.9017181 0.4153809
vn 0.4926621 0.7590584 0.4255753
vn 0.4926621 0.7590585 0.4255753
vn 0.4926621 0.7590585 0.4255753
vn -0.1029649 0.7487392 0.6548189
vn -0.102965 0.7487392 0.6548189
vn -0.1029649 0.7487392 0.6548189

vt 0.5483398 0.007648468
vt 0.5 0.1500244
vt 0.6264648 0.06439209
vt 0.4516602 0.007648468
vt 0.3735352 0.06439209
vt 0.34375 0.15625
vt 0.3735352 0.2480469
vt 0.4516602 0.3049316
vt 0.5483398 0.3049316
vt 0.6264648 0.2480469
vt 0.65625 0.15625
vt 0 0
vt 0 1
vt 1 1
vt 1 0
vt 0 0
vt 0 1
vt 1 1
vt 1 0
vt 0 0
vt 0 1
vt 1 1
vt 1 0
vt 0 0
vt 0 1
vt 1 1
vt 1 0
vt 0 0
vt 0 1
vt 1 1
vt 1 0
vt 0 0
vt 0 1
vt 1 1
vt 1 0
vt 0 0
vt 0 1
vt 1 1
vt 1 0
vt 0 0
vt 0 1
vt 1 1
vt 1 0
vt 0 0
vt 0 1
vt 1 1
vt 1 0
vt 0 0
vt 0 1
vt 1 1
vt 1 0
vt 0 0
vt 0 1
vt 1 1
vt 1 0
vt 0 0
vt 0 1
vt 1 1
vt 1 0
vt 0 0
vt 0 1
vt 1 1
vt 1 0
vt 0 0
vt 0 1
vt 1 1
vt 1 0
vt 0 0
vt 0 1
vt 1 1
vt 1 0
vt 0 0
vt 0 1
vt 1 1
vt 1 0
vt 0 0
vt 0 1
vt 1 1
vt 1 0
vt 0 0
vt 0 1
vt 1 1
vt 1 0
vt 0 0
vt 0 1
vt 1 1
vt 1 0
vt 0 0
vt 0 1
vt 1 1
vt 1 0
vt 0 0
vt 0 1
vt 1 1
vt 1 0
vt 0 0
vt 0 1
vt 1 1
vt 1 0
vt 0 0
vt 0 1
vt 1 1
vt 1 0
vt 0 0
vt 0 1
vt 1 1
vt 1 0
vt 0 0
vt 0 1
vt 1 1
vt 1 0
vt 0 0
vt 0 1
vt 1 1
vt 1 0
vt 0 0
vt 0 1
vt 1 1
vt 1 0
vt 0 0
vt 0 1
vt 1 1
vt 1 0
vt 0 0
vt 0 1
vt 1 1
vt 1 0
vt 0 0
vt 0 1
vt 1 1
vt 1 0
vt 0 0
vt 0 1
vt 1 1
vt 1 0
vt 0 0
vt 0 1
vt 1 1
vt 1 0
vt 0 0
vt 0 1
vt 1 1
vt 1 0
vt 0 0
vt 0 1
vt 1 1
vt 1 0
vt 0 0
vt 0 1
vt 1 1
vt 1 0
vt 0 0
vt 0 1
vt 1 1
vt 1 0
vt 0 0
vt 0 1
vt 1 1
vt 1 0
vt 0 0
vt 0 1
vt 1 1
vt 1 0
vt 0 0
vt 0 1
vt 1 1
vt 1 0
vt 0 0
vt 0 1
vt 1 1
vt 1 0
vt 0 0
vt 0.5 1
vt 1 0
vt 0 0
vt 0.5 1
vt 1 0
vt 0 0
vt 0.5 1
vt 1 0
vt 0 0
vt 0.5 1
vt 1 0
vt 0 0
vt 0.5 1
vt 1 0
vt 0 0
vt 0.5 1
vt 1 0
vt 0 0
vt 0.5 1
vt 1 0
vt 0 0
vt 0.5 1
vt 1 0
vt 0 0
vt 0.5 1
vt 1 0
vt 0 0
vt 0.5 1
vt 1 0

g Foliage8_39_3868_140
usemtl Foliage8_39_3868_140
usemap Foliage8_39_3868_140
f 1/1/1 3/3/3 2/2/2
f 4/4/4 1/1/1 2/2/2
f 5/5/5 4/4/4 2/2/2
f 6/6/6 5/5/5 2/2/2
f 7/7/7 6/6/6 2/2/2
f 8/8/8 7/7/7 2/2/2
f 9/9/9 8/8/8 2/2/2
f 10/10/10 9/9/9 2/2/2
f 11/11/11 10/10/10 2/2/2
f 3/3/3 11/11/11 2/2/2
f 12/12/12 14/14/14 13/13/13
f 12/12/12 15/15/15 14/14/14
f 16/16/16 18/18/18 17/17/17
f 16/16/16 19/19/19 18/18/18
f 20/20/20 22/22/22 21/21/21
f 20/20/20 23/23/23 22/22/22
f 24/24/24 26/26/26 25/25/25
f 24/24/24 27/27/27 26/26/26
f 28/28/28 30/30/30 29/29/29
f 28/28/28 31/31/31 30/30/30
f 32/32/32 34/34/34 33/33/33
f 32/32/32 35/35/35 34/34/34
f 36/36/36 38/38/38 37/37/37
f 36/36/36 39/39/39 38/38/38
f 40/40/40 42/42/42 41/41/41
f 40/40/40 43/43/43 42/42/42
f 44/44/44 46/46/46 45/45/45
f 44/44/44 47/47/47 46/46/46
f 48/48/48 50/50/50 49/49/49
f 48/48/48 51/51/51 50/50/50
f 52/52/52 54/54/54 53/53/53
f 52/52/52 55/55/55 54/54/54
f 56/56/56 58/58/58 57/57/57
f 56/56/56 59/59/59 58/58/58
f 60/60/60 62/62/62 61/61/61
f 60/60/60 63/63/63 62/62/62
f 64/64/64 66/66/66 65/65/65
f 64/64/64 67/67/67 66/66/66
f 68/68/68 70/70/70 69/69/69
f 68/68/68 71/71/71 70/70/70
f 72/72/72 74/74/74 73/73/73
f 72/72/72 75/75/75 74/74/74
f 76/76/76 78/78/78 77/77/77
f 76/76/76 79/79/79 78/78/78
f 80/80/80 82/82/82 81/81/81
f 80/80/80 83/83/83 82/82/82
f 84/84/84 86/86/86 85/85/85
f 84/84/84 87/87/87 86/86/86
f 88/88/88 90/90/90 89/89/89
f 88/88/88 91/91/91 90/90/90
f 92/92/92 94/94/94 93/93/93
f 92/92/92 95/95/95 94/94/94
f 96/96/96 98/98/98 97/97/97
f 96/96/96 99/99/99 98/98/98
f 100/100/100 102/102/102 101/101/101
f 100/100/100 103/103/103 102/102/102
f 104/104/104 106/106/106 105/105/105
f 104/104/104 107/107/107 106/106/106
f 108/108/108 110/110/110 109/109/109
f 108/108/108 111/111/111 110/110/110
f 112/112/112 114/114/114 113/113/113
f 112/112/112 115/115/115 114/114/114
f 116/116/116 118/118/118 117/117/117
f 116/116/116 119/119/119 118/118/118
f 120/120/120 122/122/122 121/121/121
f 120/120/120 123/123/123 122/122/122
f 124/124/124 126/126/126 125/125/125
f 124/124/124 127/127/127 126/126/126
f 128/128/128 130/130/130 129/129/129
f 128/128/128 131/131/131 130/130/130
f 132/132/132 134/134/134 133/133/133
f 132/132/132 135/135/135 134/134/134
f 136/136/136 138/138/138 137/137/137
f 136/136/136 139/139/139 138/138/138
f 140/140/140 142/142/142 141/141/141
f 140/140/140 143/143/143 142/142/142
f 144/144/144 146/146/146 145/145/145
f 144/144/144 147/147/147 146/146/146
f 148/148/148 150/150/150 149/149/149
f 148/148/148 151/151/151 150/150/150
f 152/152/152 154/154/154 153/153/153
f 152/152/152 155/155/155 154/154/154
f 156/156/156 158/158/158 157/157/157
f 156/156/156 159/159/159 158/158/158
f 160/160/160 162/162/162 161/161/161
f 160/160/160 163/163/163 162/162/162
f 164/164/164 166/166/166 165/165/165
f 164/164/164 167/167/167 166/166/166
f 168/168/168 170/170/170 169/169/169
f 168/168/168 171/171/171 170/170/170
f 172/172/172 174/174/174 173/173/173
f 175/175/175 177/177/177 176/176/176
f 178/178/178 180/180/180 179/179/179
f 181/181/181 183/183/183 182/182/182
f 184/184/184 186/186/186 185/185/185
f 187/187/187 189/189/189 188/188/188
f 190/190/190 192/192/192 191/191/191
f 193/193/193 195/195/195 194/194/194
f 196/196/196 198/198/198 197/197/197
f 199/199/199 201/201/201 200/200/200
