#Foliage8_27_3542_124.obj

v 0.01454381 -0.02577567 -0.04036107
v 0.004622328 -0.03397608 0.001088728
v 0.03878307 -0.02577567 -0.02105768
v -0.009664792 -0.02577567 -0.03817833
v -0.01825226 -0.02577567 -0.01778329
v -0.03822365 -0.02223223 0.00108841
v -0.02135228 -0.02577567 0.01995989
v -0.005299179 -0.02577567 0.03271469
v 0.02109244 -0.02577567 0.04035526
v 0.0305971 -0.02577567 0.01995992
v 0.03218827 -0.02223223 0.001088459
v 0.03878307 -0.02577567 -0.02105768
v 0.04796549 -0.01489241 -0.02772918
v 0.01805124 -0.01489241 -0.05115581
v 0.01454381 -0.02577567 -0.04036107
v 0.01454381 -0.02577567 -0.04036107
v 0.01805124 -0.01489241 -0.05115581
v -0.01317224 -0.01489241 -0.04897318
v -0.009664792 -0.02577567 -0.03817833
v -0.009664792 -0.02577567 -0.03817833
v -0.01317224 -0.01489241 -0.04897318
v -0.02743453 -0.01489241 -0.02445516
v -0.01825226 -0.02577567 -0.01778329
v -0.01825226 -0.02577567 -0.01778329
v -0.02743453 -0.01489241 -0.02445516
v -0.04796825 -0.01288819 0.001088322
v -0.03822365 -0.02223223 0.00108841
v -0.03822365 -0.02223223 0.00108841
v -0.04796825 -0.01288819 0.001088322
v -0.0305347 -0.01489241 0.0266314
v -0.02135228 -0.02577567 0.01995989
v -0.02135228 -0.02577567 0.01995989
v -0.0305347 -0.01489241 0.0266314
v -0.008806612 -0.01489241 0.04350944
v -0.005299179 -0.02577567 0.03271469
v -0.005299179 -0.02577567 0.03271469
v -0.008806612 -0.01489241 0.04350944
v 0.02459959 -0.01489241 0.05114923
v 0.02109244 -0.02577567 0.04035526
v 0.02109244 -0.02577567 0.04035526
v 0.02459959 -0.01489241 0.05114923
v 0.0397798 -0.01489241 0.02663164
v 0.0305971 -0.02577567 0.01995992
v 0.0305971 -0.02577567 0.01995992
v 0.0397798 -0.01489241 0.02663164
v 0.04193287 -0.01288819 0.001088547
v 0.03218827 -0.02223223 0.001088459
v 0.03218827 -0.02223223 0.001088459
v 0.04193287 -0.01288819 0.001088547
v 0.04796549 -0.01489241 -0.02772918
v 0.03878307 -0.02577567 -0.02105768
v 0.04796549 -0.01489241 -0.02772918
v 0.04796549 -0.0001483464 -0.02772918
v 0.01805124 -0.0001483464 -0.05115581
v 0.01805124 -0.01489241 -0.05115581
v 0.01805124 -0.01489241 -0.05115581
v 0.01805124 -0.0001483464 -0.05115581
v -0.01317224 -0.0001483464 -0.04897318
v -0.01317224 -0.01489241 -0.04897318
v -0.01317224 -0.01489241 -0.04897318
v -0.01317224 -0.0001483464 -0.04897318
v -0.02743453 -0.0001483464 -0.02445516
v -0.02743453 -0.01489241 -0.02445516
v -0.02743453 -0.01489241 -0.02445516
v -0.02743453 -0.0001483464 -0.02445516
v -0.04796825 -0.0002294128 0.001088322
v -0.04796825 -0.01288819 0.001088322
v -0.04796825 -0.01288819 0.001088322
v -0.04796825 -0.0002294128 0.001088322
v -0.0305347 -0.0001483464 0.0266314
v -0.0305347 -0.01489241 0.0266314
v -0.0305347 -0.01489241 0.0266314
v -0.0305347 -0.0001483464 0.0266314
v -0.008806612 -0.0001483464 0.04350944
v -0.008806612 -0.01489241 0.04350944
v -0.008806612 -0.01489241 0.04350944
v -0.008806612 -0.0001483464 0.04350944
v 0.02459959 -0.0001483464 0.05114923
v 0.02459959 -0.01489241 0.05114923
v 0.02459959 -0.01489241 0.05114923
v 0.02459959 -0.0001483464 0.05114923
v 0.0397798 -0.0001483464 0.02663164
v 0.0397798 -0.01489241 0.02663164
v 0.0397798 -0.01489241 0.02663164
v 0.0397798 -0.0001483464 0.02663164
v 0.04193287 -0.0002294128 0.001088547
v 0.04193287 -0.01288819 0.001088547
v 0.04193287 -0.01288819 0.001088547
v 0.04193287 -0.0002294128 0.001088547
v 0.04796549 -0.0001483464 -0.02772918
v 0.04796549 -0.01489241 -0.02772918
v 0.04796549 -0.0001483464 -0.02772918
v 0.04568747 0.01428334 -0.02540039
v 0.01714388 0.01428334 -0.04799403
v 0.01805124 -0.0001483464 -0.05115581
v 0.01805124 -0.0001483464 -0.05115581
v 0.01714388 0.01428334 -0.04799403
v -0.01183047 0.01428334 -0.04560108
v -0.01317224 -0.0001483464 -0.04897318
v -0.01317224 -0.0001483464 -0.04897318
v -0.01183047 0.01428334 -0.04560108
v -0.02321176 0.01428334 -0.02180947
v -0.02743453 -0.0001483464 -0.02445516
v -0.02743453 -0.0001483464 -0.02445516
v -0.02321176 0.01428334 -0.02180947
v -0.04530539 0.01197207 0.001193818
v -0.04796825 -0.0002294128 0.001088322
v -0.04796825 -0.0002294128 0.001088322
v -0.04530539 0.01197207 0.001193818
v -0.0266109 0.01428334 0.02419677
v -0.0305347 -0.0001483464 0.0266314
v -0.0305347 -0.0001483464 0.0266314
v -0.0266109 0.01428334 0.02419677
v -0.007043166 0.01428334 0.03961084
v -0.008806612 -0.0001483464 0.04350944
v -0.008806612 -0.0001483464 0.04350944
v -0.007043166 0.01428334 0.03961084
v 0.02432464 0.01428334 0.04798851
v 0.02459959 -0.0001483464 0.05114923
v 0.02459959 -0.0001483464 0.05114923
v 0.02432464 0.01428334 0.04798851
v 0.03671131 0.01428334 0.02419674
v 0.0397798 -0.0001483464 0.02663164
v 0.0397798 -0.0001483464 0.02663164
v 0.03671131 0.01428334 0.02419674
v 0.03865062 0.01197207 0.001193522
v 0.04193287 -0.0002294128 0.001088547
v 0.04193287 -0.0002294128 0.001088547
v 0.03865062 0.01197207 0.001193522
v 0.04568747 0.01428334 -0.02540039
v 0.04796549 -0.0001483464 -0.02772918
v 0.04568747 0.01428334 -0.02540039
v 0.03225105 0.02437437 -0.0161512
v 0.0120349 0.02437437 -0.03257146
v 0.01714388 0.01428334 -0.04799403
v 0.01714388 0.01428334 -0.04799403
v 0.0120349 0.02437437 -0.03257146
v -0.00259377 0.02437437 -0.02139742
v -0.01183047 0.01428334 -0.04560108
v -0.01183047 0.01428334 -0.04560108
v -0.00259377 0.02437437 -0.02139742
v -0.01125446 0.02437437 -0.01279822
v -0.02321176 0.01428334 -0.02180947
v -0.02321176 0.01428334 -0.02180947
v -0.01125446 0.02437437 -0.01279822
v -0.03124625 0.02074644 0.001114649
v -0.04530539 0.01197207 0.001193818
v -0.04530539 0.01197207 0.001193818
v -0.03124625 0.02074644 0.001114649
v -0.01442828 0.02437437 0.01502723
v -0.0266109 0.01428334 0.02419677
v -0.0266109 0.01428334 0.02419677
v -0.01442828 0.02437437 0.01502723
v -0.002593635 0.02437437 0.02474288
v -0.007043166 0.01428334 0.03961084
v -0.007043166 0.01428334 0.03961084
v -0.002593635 0.02437437 0.02474288
v 0.01874013 0.02437437 0.0325656
v 0.02432464 0.01428334 0.04798851
v 0.02432464 0.01428334 0.04798851
v 0.01874013 0.02437437 0.0325656
v 0.02387003 0.02437437 0.01502725
v 0.03671131 0.01428334 0.02419674
v 0.03671131 0.01428334 0.02419674
v 0.02387003 0.02437437 0.01502725
v 0.02504272 0.02074644 0.00111415
v 0.03865062 0.01197207 0.001193522
v 0.03865062 0.01197207 0.001193522
v 0.02504272 0.02074644 0.00111415
v 0.03225105 0.02437437 -0.0161512
v 0.04568747 0.01428334 -0.02540039
v 0.03225105 0.02437437 -0.0161512
v 0.004622328 0.03397605 0.001088728
v 0.0120349 0.02437437 -0.03257146
v 0.0120349 0.02437437 -0.03257146
v 0.004622328 0.03397605 0.001088728
v -0.00259377 0.02437437 -0.02139742
v -0.00259377 0.02437437 -0.02139742
v 0.004622328 0.03397605 0.001088728
v -0.01125446 0.02437437 -0.01279822
v -0.01125446 0.02437437 -0.01279822
v 0.004622328 0.03397605 0.001088728
v -0.03124625 0.02074644 0.001114649
v -0.03124625 0.02074644 0.001114649
v 0.004622328 0.03397605 0.001088728
v -0.01442828 0.02437437 0.01502723
v -0.01442828 0.02437437 0.01502723
v 0.004622328 0.03397605 0.001088728
v -0.002593635 0.02437437 0.02474288
v -0.002593635 0.02437437 0.02474288
v 0.004622328 0.03397605 0.001088728
v 0.01874013 0.02437437 0.0325656
v 0.01874013 0.02437437 0.0325656
v 0.004622328 0.03397605 0.001088728
v 0.02387003 0.02437437 0.01502725
v 0.02387003 0.02437437 0.01502725
v 0.004622328 0.03397605 0.001088728
v 0.02504272 0.02074644 0.00111415
v 0.02504272 0.02074644 0.00111415
v 0.004622328 0.03397605 0.001088728
v 0.03225105 0.02437437 -0.0161512

vn -0.149434 -0.9818566 -0.1167321
vn 0.0005468709 -0.9999983 -0.001579639
vn 0.01463786 -0.9784298 -0.2060589
vn -0.1923984 -0.9810985 0.0206839
vn -0.183589 -0.9602383 0.2103255
vn -0.1054496 -0.9642732 0.2430162
vn 0.02818791 -0.9679797 0.2494396
vn 0.1741579 -0.9703191 0.1677769
vn 0.1896649 -0.9818348 0.005201247
vn 0.1196251 -0.95856 -0.2585572
vn 0.2244573 -0.9154218 -0.3340976
vn -0.3778969 -0.7039261 -0.6013999
vn -0.3778969 -0.7039261 -0.6013998
vn -0.3778968 -0.7039261 -0.6013999
vn -0.3778969 -0.7039261 -0.6013998
vn -0.6866047 -0.7031068 -0.1849713
vn -0.6866047 -0.7031069 -0.1849713
vn -0.6866047 -0.7031068 -0.1849713
vn -0.6866047 -0.7031069 -0.1849713
vn -0.5440248 -0.6620907 0.5154344
vn -0.5440248 -0.6620906 0.5154345
vn -0.5440248 -0.6620907 0.5154344
vn -0.5440248 -0.6620906 0.5154345
vn -0.6095387 -0.6863982 0.3966356
vn -0.6095388 -0.6863981 0.3966357
vn -0.6095387 -0.6863981 0.3966356
vn -0.6095387 -0.6863981 0.3966357
vn 0.1569185 -0.6953635 0.7013172
vn 0.1569185 -0.6953635 0.7013172
vn 0.1569185 -0.6953634 0.7013173
vn 0.1569185 -0.6953635 0.7013173
vn 0.3796355 -0.703966 0.600257
vn 0.3796355 -0.703966 0.6002571
vn 0.3796355 -0.703966 0.600257
vn 0.3796355 -0.703966 0.600257
vn 0.598366 -0.6928936 0.4023137
vn 0.5983659 -0.6928936 0.4023137
vn 0.598366 -0.6928936 0.4023137
vn 0.598366 -0.6928936 0.4023137
vn 0.5563279 -0.6678944 -0.4943846
vn 0.5563279 -0.6678944 -0.4943845
vn 0.5563279 -0.6678944 -0.4943845
vn 0.5563279 -0.6678944 -0.4943846
vn 0.224279 -0.6790239 -0.6990173
vn 0.224279 -0.6790239 -0.6990173
vn 0.224279 -0.6790239 -0.6990173
vn 0.224279 -0.6790239 -0.6990173
vn 0.4876906 -0.6155776 -0.6190491
vn 0.4876906 -0.6155775 -0.6190492
vn 0.4876906 -0.6155776 -0.6190491
vn 0.4876906 -0.6155775 -0.6190491
vn -0.5351446 7.3117E-17 -0.8447605
vn -0.5351445 7.3117E-17 -0.8447605
vn -0.5351445 7.3117E-17 -0.8447605
vn -0.5351446 7.3117E-17 -0.8447605
vn -0.9632487 1.259858E-16 -0.2686111
vn -0.9632487 1.259858E-16 -0.2686111
vn -0.9632487 1.259858E-16 -0.2686111
vn -0.9632487 1.259858E-16 -0.2686111
vn -0.7634331 9.599412E-17 0.6458869
vn -0.7634331 9.599412E-17 0.6458869
vn -0.7634331 9.599412E-17 0.6458869
vn -0.7634331 9.599412E-17 0.6458869
vn -0.8515077 1.079492E-16 0.5243421
vn -0.8515077 1.079492E-16 0.5243421
vn -0.8515077 1.079492E-16 0.5243421
vn -0.8515077 1.079492E-16 0.5243421
vn 0.2543212 -3.728872E-17 0.9671198
vn 0.2543212 -3.728872E-17 0.9671198
vn 0.2543213 -3.728873E-17 0.9671199
vn 0.2543212 -3.728872E-17 0.9671198
vn 0.5384796 -7.353949E-17 0.8426386
vn 0.5384796 -7.353949E-17 0.8426386
vn 0.5384796 -7.353949E-17 0.8426386
vn 0.5384796 -7.353949E-17 0.8426386
vn 0.8437375 -1.117087E-16 0.536756
vn 0.8437375 -1.117087E-16 0.536756
vn 0.8437375 -1.117087E-16 0.536756
vn 0.8437375 -1.117087E-16 0.536756
vn 0.7809019 -9.83524E-17 -0.6246538
vn 0.7809019 -9.83524E-17 -0.6246538
vn 0.7809019 -9.83524E-17 -0.6246538
vn 0.7809019 -9.83524E-17 -0.6246538
vn 0.4130962 -4.942207E-17 -0.9106874
vn 0.4130962 -4.942207E-17 -0.9106874
vn 0.4130962 -4.942207E-17 -0.9106874
vn 0.4130962 -4.942207E-17 -0.9106874
vn 0.5210736 -6.366628E-17 -0.8535118
vn 0.5210736 -6.366628E-17 -0.8535118
vn 0.5210736 -6.366628E-17 -0.8535118
vn 0.5210736 -6.366628E-17 -0.8535118
vn -0.5207856 0.212757 -0.8267509
vn -0.5207856 0.212757 -0.8267508
vn -0.5207856 0.212757 -0.8267508
vn -0.5207856 0.212757 -0.8267508
vn -0.9409555 0.2212333 -0.2562391
vn -0.9409555 0.2212333 -0.2562391
vn -0.9409555 0.2212333 -0.2562391
vn -0.9409555 0.2212333 -0.2562391
vn -0.7126076 0.2588966 0.6520451
vn -0.7126077 0.2588966 0.6520452
vn -0.7126077 0.2588966 0.6520451
vn -0.7126076 0.2588965 0.6520451
vn -0.8400645 0.2546348 0.4790124
vn -0.8400644 0.2546348 0.4790123
vn -0.8400645 0.2546348 0.4790124
vn -0.8400644 0.2546348 0.4790124
vn 0.2755502 0.2437819 0.9298616
vn 0.2755502 0.2437819 0.9298616
vn 0.2755501 0.2437819 0.9298615
vn 0.2755502 0.2437819 0.9298616
vn 0.5139756 0.2822602 0.8100359
vn 0.5139755 0.2822602 0.810036
vn 0.5139755 0.2822603 0.8100361
vn 0.5139755 0.2822603 0.8100361
vn 0.8092929 0.242386 0.5350645
vn 0.8092929 0.242386 0.5350645
vn 0.8092929 0.242386 0.5350645
vn 0.8092929 0.242386 0.5350645
vn 0.7437781 0.1930069 -0.639955
vn 0.7437781 0.1930069 -0.639955
vn 0.7437782 0.1930069 -0.6399549
vn 0.7437781 0.1930069 -0.639955
vn 0.3906763 0.2371581 -0.8894538
vn 0.3906763 0.2371581 -0.8894538
vn 0.3906763 0.2371581 -0.8894538
vn 0.3906763 0.2371581 -0.8894538
vn 0.540064 0.178262 -0.8225287
vn 0.540064 0.178262 -0.8225287
vn 0.540064 0.178262 -0.8225287
vn 0.540064 0.178262 -0.8225287
vn -0.2881091 0.8368365 -0.4655076
vn -0.2881091 0.8368365 -0.4655076
vn -0.2881091 0.8368365 -0.4655076
vn -0.2881091 0.8368365 -0.4655076
vn -0.4586388 0.8884323 -0.0183858
vn -0.4586388 0.8884322 -0.0183858
vn -0.4586388 0.8884323 -0.0183858
vn -0.4586388 0.8884323 -0.01838583
vn -0.385864 0.8693343 0.3088143
vn -0.385864 0.8693343 0.3088143
vn -0.385864 0.8693343 0.3088143
vn -0.385864 0.8693343 0.3088143
vn -0.5141702 0.8049012 0.2962472
vn -0.5141702 0.8049013 0.2962472
vn -0.5141702 0.8049013 0.2962472
vn -0.5141702 0.8049013 0.2962472
vn 0.1467414 0.8185278 0.5554085
vn 0.1467414 0.8185279 0.5554085
vn 0.1467414 0.8185278 0.5554086
vn 0.1467414 0.8185278 0.5554085
vn 0.2994817 0.8222618 0.4839379
vn 0.2994816 0.8222617 0.4839379
vn 0.2994817 0.8222617 0.4839379
vn 0.2994816 0.8222617 0.4839379
vn 0.4622594 0.8172352 0.3441545
vn 0.4622594 0.8172352 0.3441545
vn 0.4622594 0.8172352 0.3441545
vn 0.4622594 0.8172352 0.3441545
vn 0.4091106 0.796234 -0.4456897
vn 0.4091106 0.796234 -0.4456898
vn 0.4091107 0.796234 -0.4456898
vn 0.4091106 0.796234 -0.4456898
vn 0.1264054 0.7985129 -0.5885561
vn 0.1264054 0.798513 -0.5885559
vn 0.1264054 0.798513 -0.588556
vn 0.1264054 0.7985129 -0.5885561
vn 0.4858697 0.7325384 -0.4767785
vn 0.4858697 0.7325385 -0.4767785
vn 0.4858697 0.7325384 -0.4767785
vn 0.4858697 0.7325384 -0.4767785
vn -0.1547619 0.9546866 -0.2542078
vn -0.154762 0.9546866 -0.2542078
vn -0.1547619 0.9546866 -0.2542078
vn -0.3772773 0.9181486 0.1210963
vn -0.3772773 0.9181486 0.1210963
vn -0.3772773 0.9181486 0.1210963
vn -0.3756019 0.9097521 0.1768439
vn -0.375602 0.9097521 0.1768439
vn -0.3756019 0.9097521 0.1768439
vn -0.3434385 0.9095349 0.234085
vn -0.3434386 0.9095349 0.2340851
vn -0.3434386 0.9095349 0.2340851
vn 0.04683284 0.9244465 0.3784241
vn 0.04683285 0.9244465 0.3784241
vn 0.04683284 0.9244465 0.3784241
vn 0.1996345 0.9219851 0.3317964
vn 0.1996345 0.9219851 0.3317964
vn 0.1996345 0.9219851 0.3317964
vn 0.2787656 0.9320197 0.2315777
vn 0.2787656 0.9320197 0.2315777
vn 0.2787656 0.9320197 0.2315777
vn 0.2310511 0.9190344 -0.3193594
vn 0.2310511 0.9190344 -0.3193595
vn 0.2310511 0.9190344 -0.3193595
vn 0.01902206 0.8268818 -0.5620535
vn 0.01902206 0.8268818 -0.5620534
vn 0.01902206 0.8268819 -0.5620534
vn 0.5212544 0.7785741 -0.3494508
vn 0.5212544 0.7785741 -0.3494507
vn 0.5212544 0.7785741 -0.3494508

vt 0.5482839 0.007647395
vt 0.5 0.15
vt 0.6264089 0.06440853
vt 0.4517161 0.00764741
vt 0.3735911 0.06440856
vt 0.34375 0.15625
vt 0.3735911 0.2480915
vt 0.4517161 0.3048526
vt 0.5482839 0.3048526
vt 0.6264089 0.2480914
vt 0.65625 0.15625
vt 0 0
vt 0 1
vt 1 1
vt 1 0
vt 0 0
vt 0 1
vt 1 1
vt 1 0
vt 0 0
vt 0 1
vt 1 1
vt 1 0
vt 0 0
vt 0 1
vt 1 1
vt 1 0
vt 0 0
vt 0 1
vt 1 1
vt 1 0
vt 0 0
vt 0 1
vt 1 1
vt 1 0
vt 0 0
vt 0 1
vt 1 1
vt 1 0
vt 0 0
vt 0 1
vt 1 1
vt 1 0
vt 0 0
vt 0 1
vt 1 1
vt 1 0
vt 0 0
vt 0 1
vt 1 1
vt 1 0
vt 0 0
vt 0 1
vt 1 1
vt 1 0
vt 0 0
vt 0 1
vt 1 1
vt 1 0
vt 0 0
vt 0 1
vt 1 1
vt 1 0
vt 0 0
vt 0 1
vt 1 1
vt 1 0
vt 0 0
vt 0 1
vt 1 1
vt 1 0
vt 0 0
vt 0 1
vt 1 1
vt 1 0
vt 0 0
vt 0 1
vt 1 1
vt 1 0
vt 0 0
vt 0 1
vt 1 1
vt 1 0
vt 0 0
vt 0 1
vt 1 1
vt 1 0
vt 0 0
vt 0 1
vt 1 1
vt 1 0
vt 0 0
vt 0 1
vt 1 1
vt 1 0
vt 0 0
vt 0 1
vt 1 1
vt 1 0
vt 0 0
vt 0 1
vt 1 1
vt 1 0
vt 0 0
vt 0 1
vt 1 1
vt 1 0
vt 0 0
vt 0 1
vt 1 1
vt 1 0
vt 0 0
vt 0 1
vt 1 1
vt 1 0
vt 0 0
vt 0 1
vt 1 1
vt 1 0
vt 0 0
vt 0 1
vt 1 1
vt 1 0
vt 0 0
vt 0 1
vt 1 1
vt 1 0
vt 0 0
vt 0 1
vt 1 1
vt 1 0
vt 0 0
vt 0 1
vt 1 1
vt 1 0
vt 0 0
vt 0 1
vt 1 1
vt 1 0
vt 0 0
vt 0 1
vt 1 1
vt 1 0
vt 0 0
vt 0 1
vt 1 1
vt 1 0
vt 0 0
vt 0 1
vt 1 1
vt 1 0
vt 0 0
vt 0 1
vt 1 1
vt 1 0
vt 0 0
vt 0 1
vt 1 1
vt 1 0
vt 0 0
vt 0 1
vt 1 1
vt 1 0
vt 0 0
vt 0 1
vt 1 1
vt 1 0
vt 0 0
vt 0 1
vt 1 1
vt 1 0
vt 0 0
vt 0.5 1
vt 1 0
vt 0 0
vt 0.5 1
vt 1 0
vt 0 0
vt 0.5 1
vt 1 0
vt 0 0
vt 0.5 1
vt 1 0
vt 0 0
vt 0.5 1
vt 1 0
vt 0 0
vt 0.5 1
vt 1 0
vt 0 0
vt 0.5 1
vt 1 0
vt 0 0
vt 0.5 1
vt 1 0
vt 0 0
vt 0.5 1
vt 1 0
vt 0 0
vt 0.5 1
vt 1 0

g Foliage8_27_3542_124
usemtl Foliage8_27_3542_124
usemap Foliage8_27_3542_124
f 1/1/1 3/3/3 2/2/2
f 4/4/4 1/1/1 2/2/2
f 5/5/5 4/4/4 2/2/2
f 6/6/6 5/5/5 2/2/2
f 7/7/7 6/6/6 2/2/2
f 8/8/8 7/7/7 2/2/2
f 9/9/9 8/8/8 2/2/2
f 10/10/10 9/9/9 2/2/2
f 11/11/11 10/10/10 2/2/2
f 3/3/3 11/11/11 2/2/2
f 12/12/12 14/14/14 13/13/13
f 12/12/12 15/15/15 14/14/14
f 16/16/16 18/18/18 17/17/17
f 16/16/16 19/19/19 18/18/18
f 20/20/20 22/22/22 21/21/21
f 20/20/20 23/23/23 22/22/22
f 24/24/24 26/26/26 25/25/25
f 24/24/24 27/27/27 26/26/26
f 28/28/28 30/30/30 29/29/29
f 28/28/28 31/31/31 30/30/30
f 32/32/32 34/34/34 33/33/33
f 32/32/32 35/35/35 34/34/34
f 36/36/36 38/38/38 37/37/37
f 36/36/36 39/39/39 38/38/38
f 40/40/40 42/42/42 41/41/41
f 40/40/40 43/43/43 42/42/42
f 44/44/44 46/46/46 45/45/45
f 44/44/44 47/47/47 46/46/46
f 48/48/48 50/50/50 49/49/49
f 48/48/48 51/51/51 50/50/50
f 52/52/52 54/54/54 53/53/53
f 52/52/52 55/55/55 54/54/54
f 56/56/56 58/58/58 57/57/57
f 56/56/56 59/59/59 58/58/58
f 60/60/60 62/62/62 61/61/61
f 60/60/60 63/63/63 62/62/62
f 64/64/64 66/66/66 65/65/65
f 64/64/64 67/67/67 66/66/66
f 68/68/68 70/70/70 69/69/69
f 68/68/68 71/71/71 70/70/70
f 72/72/72 74/74/74 73/73/73
f 72/72/72 75/75/75 74/74/74
f 76/76/76 78/78/78 77/77/77
f 76/76/76 79/79/79 78/78/78
f 80/80/80 82/82/82 81/81/81
f 80/80/80 83/83/83 82/82/82
f 84/84/84 86/86/86 85/85/85
f 84/84/84 87/87/87 86/86/86
f 88/88/88 90/90/90 89/89/89
f 88/88/88 91/91/91 90/90/90
f 92/92/92 94/94/94 93/93/93
f 92/92/92 95/95/95 94/94/94
f 96/96/96 98/98/98 97/97/97
f 96/96/96 99/99/99 98/98/98
f 100/100/100 102/102/102 101/101/101
f 100/100/100 103/103/103 102/102/102
f 104/104/104 106/106/106 105/105/105
f 104/104/104 107/107/107 106/106/106
f 108/108/108 110/110/110 109/109/109
f 108/108/108 111/111/111 110/110/110
f 112/112/112 114/114/114 113/113/113
f 112/112/112 115/115/115 114/114/114
f 116/116/116 118/118/118 117/117/117
f 116/116/116 119/119/119 118/118/118
f 120/120/120 122/122/122 121/121/121
f 120/120/120 123/123/123 122/122/122
f 124/124/124 126/126/126 125/125/125
f 124/124/124 127/127/127 126/126/126
f 128/128/128 130/130/130 129/129/129
f 128/128/128 131/131/131 130/130/130
f 132/132/132 134/134/134 133/133/133
f 132/132/132 135/135/135 134/134/134
f 136/136/136 138/138/138 137/137/137
f 136/136/136 139/139/139 138/138/138
f 140/140/140 142/142/142 141/141/141
f 140/140/140 143/143/143 142/142/142
f 144/144/144 146/146/146 145/145/145
f 144/144/144 147/147/147 146/146/146
f 148/148/148 150/150/150 149/149/149
f 148/148/148 151/151/151 150/150/150
f 152/152/152 154/154/154 153/153/153
f 152/152/152 155/155/155 154/154/154
f 156/156/156 158/158/158 157/157/157
f 156/156/156 159/159/159 158/158/158
f 160/160/160 162/162/162 161/161/161
f 160/160/160 163/163/163 162/162/162
f 164/164/164 166/166/166 165/165/165
f 164/164/164 167/167/167 166/166/166
f 168/168/168 170/170/170 169/169/169
f 168/168/168 171/171/171 170/170/170
f 172/172/172 174/174/174 173/173/173
f 175/175/175 177/177/177 176/176/176
f 178/178/178 180/180/180 179/179/179
f 181/181/181 183/183/183 182/182/182
f 184/184/184 186/186/186 185/185/185
f 187/187/187 189/189/189 188/188/188
f 190/190/190 192/192/192 191/191/191
f 193/193/193 195/195/195 194/194/194
f 196/196/196 198/198/198 197/197/197
f 199/199/199 201/201/201 200/200/200
