#Foliage2_10_3550_36.obj

v 0.01454535 -0.02577573 -0.04035847
v 0.004623882 -0.03397617 0.001091263
v 0.0387845 -0.02577577 -0.02105493
v -0.009663392 -0.0257756 -0.03817555
v -0.01825076 -0.02577577 -0.01778059
v -0.0382221 -0.02223223 0.001091235
v -0.02135084 -0.02577556 0.01996305
v -0.00529756 -0.02577568 0.03271784
v 0.02109405 -0.02577559 0.04035803
v 0.03059859 -0.0257756 0.01996305
v 0.03218946 -0.02223221 0.001091226
v 0.0387845 -0.02577577 -0.02105493
v 0.04796691 -0.01489227 -0.0277263
v 0.01805269 -0.01489242 -0.05115298
v 0.01454535 -0.02577573 -0.04035847
v 0.01454535 -0.02577573 -0.04035847
v 0.01805269 -0.01489242 -0.05115298
v -0.01317075 -0.01489248 -0.04897006
v -0.009663392 -0.0257756 -0.03817555
v -0.009663392 -0.0257756 -0.03817555
v -0.01317075 -0.01489248 -0.04897006
v -0.02743319 -0.01489236 -0.02445197
v -0.01825076 -0.02577577 -0.01778059
v -0.01825076 -0.02577577 -0.01778059
v -0.02743319 -0.01489236 -0.02445197
v -0.04796692 -0.01288814 0.00109121
v -0.0382221 -0.02223223 0.001091235
v -0.0382221 -0.02223223 0.001091235
v -0.04796692 -0.01288814 0.00109121
v -0.03053325 -0.01489249 0.02663443
v -0.02135084 -0.02577556 0.01996305
v -0.02135084 -0.02577556 0.01996305
v -0.03053325 -0.01489249 0.02663443
v -0.008804955 -0.01489242 0.04351233
v -0.00529756 -0.02577568 0.03271784
v -0.00529756 -0.02577568 0.03271784
v -0.008804955 -0.01489242 0.04351233
v 0.02460142 -0.01489239 0.05115253
v 0.02109405 -0.02577559 0.04035803
v 0.02109405 -0.02577559 0.04035803
v 0.02460142 -0.01489239 0.05115253
v 0.03978096 -0.01489245 0.02663443
v 0.03059859 -0.0257756 0.01996305
v 0.03059859 -0.0257756 0.01996305
v 0.03978096 -0.01489245 0.02663443
v 0.04193428 -0.01288817 0.001091241
v 0.03218946 -0.02223221 0.001091226
v 0.03218946 -0.02223221 0.001091226
v 0.04193428 -0.01288817 0.001091241
v 0.04796691 -0.01489227 -0.0277263
v 0.0387845 -0.02577577 -0.02105493
v 0.04796691 -0.01489227 -0.0277263
v 0.04796687 -0.0001483968 -0.02772631
v 0.01805265 -0.0001482997 -0.05115299
v 0.01805269 -0.01489242 -0.05115298
v 0.01805269 -0.01489242 -0.05115298
v 0.01805265 -0.0001482997 -0.05115299
v -0.01317079 -0.0001483539 -0.04897007
v -0.01317075 -0.01489248 -0.04897006
v -0.01317075 -0.01489248 -0.04897006
v -0.01317079 -0.0001483539 -0.04897007
v -0.02743317 -0.000148235 -0.02445195
v -0.02743319 -0.01489236 -0.02445197
v -0.02743319 -0.01489236 -0.02445197
v -0.02743317 -0.000148235 -0.02445195
v -0.04796693 -0.0002295383 0.001091233
v -0.04796692 -0.01288814 0.00109121
v -0.04796692 -0.01288814 0.00109121
v -0.04796693 -0.0002295383 0.001091233
v -0.03053323 -0.0001483687 0.02663446
v -0.03053325 -0.01489249 0.02663443
v -0.03053325 -0.01489249 0.02663443
v -0.03053323 -0.0001483687 0.02663446
v -0.00880492 -0.0001482932 0.04351233
v -0.008804955 -0.01489242 0.04351233
v -0.008804955 -0.01489242 0.04351233
v -0.00880492 -0.0001482932 0.04351233
v 0.02460138 -0.0001482692 0.05115253
v 0.02460142 -0.01489239 0.05115253
v 0.02460142 -0.01489239 0.05115253
v 0.02460138 -0.0001482692 0.05115253
v 0.03978099 -0.0001483236 0.02663445
v 0.03978096 -0.01489245 0.02663443
v 0.03978096 -0.01489245 0.02663443
v 0.03978099 -0.0001483236 0.02663445
v 0.04193429 -0.0002293154 0.001091237
v 0.04193428 -0.01288817 0.001091241
v 0.04193428 -0.01288817 0.001091241
v 0.04193429 -0.0002293154 0.001091237
v 0.04796687 -0.0001483968 -0.02772631
v 0.04796691 -0.01489227 -0.0277263
v 0.04796687 -0.0001483968 -0.02772631
v 0.04568889 0.01428335 -0.02539702
v 0.01714509 0.01428338 -0.04799148
v 0.01805265 -0.0001482997 -0.05115299
v 0.01805265 -0.0001482997 -0.05115299
v 0.01714509 0.01428338 -0.04799148
v -0.01182913 0.0142833 -0.04559788
v -0.01317079 -0.0001483539 -0.04897007
v -0.01317079 -0.0001483539 -0.04897007
v -0.01182913 0.0142833 -0.04559788
v -0.02321027 0.01428332 -0.02180661
v -0.02743317 -0.000148235 -0.02445195
v -0.02743317 -0.000148235 -0.02445195
v -0.02321027 0.01428332 -0.02180661
v -0.0453041 0.01197214 0.001196593
v -0.04796693 -0.0002295383 0.001091233
v -0.04796693 -0.0002295383 0.001091233
v -0.0453041 0.01197214 0.001196593
v -0.02660961 0.01428339 0.02419979
v -0.03053323 -0.0001483687 0.02663446
v -0.03053323 -0.0001483687 0.02663446
v -0.02660961 0.01428339 0.02419979
v -0.007041861 0.01428346 0.03961337
v -0.00880492 -0.0001482932 0.04351233
v -0.00880492 -0.0001482932 0.04351233
v -0.007041861 0.01428346 0.03961337
v 0.02432595 0.0142834 0.04799102
v 0.02460138 -0.0001482692 0.05115253
v 0.02460138 -0.0001482692 0.05115253
v 0.02432595 0.0142834 0.04799102
v 0.03671282 0.01428326 0.02419978
v 0.03978099 -0.0001483236 0.02663445
v 0.03978099 -0.0001483236 0.02663445
v 0.03671282 0.01428326 0.02419978
v 0.038652 0.01197214 0.001196604
v 0.04193429 -0.0002293154 0.001091237
v 0.04193429 -0.0002293154 0.001091237
v 0.038652 0.01197214 0.001196604
v 0.04568889 0.01428335 -0.02539702
v 0.04796687 -0.0001483968 -0.02772631
v 0.04568889 0.01428335 -0.02539702
v 0.03225246 0.02437436 -0.01614789
v 0.01203645 0.02437442 -0.03256885
v 0.01714509 0.01428338 -0.04799148
v 0.01714509 0.01428338 -0.04799148
v 0.01203645 0.02437442 -0.03256885
v -0.00259223 0.0243745 -0.02139402
v -0.01182913 0.0142833 -0.04559788
v -0.01182913 0.0142833 -0.04559788
v -0.00259223 0.0243745 -0.02139402
v -0.01125313 0.0243743 -0.01279546
v -0.02321027 0.01428332 -0.02180661
v -0.02321027 0.01428332 -0.02180661
v -0.01125313 0.0243743 -0.01279546
v -0.03124472 0.0207464 0.001117241
v -0.0453041 0.01197214 0.001196593
v -0.0453041 0.01197214 0.001196593
v -0.03124472 0.0207464 0.001117241
v -0.01442711 0.02437451 0.01502998
v -0.02660961 0.01428339 0.02419979
v -0.02660961 0.01428339 0.02419979
v -0.01442711 0.02437451 0.01502998
v -0.002592244 0.02437433 0.02474603
v -0.007041861 0.01428346 0.03961337
v -0.007041861 0.01428346 0.03961337
v -0.002592244 0.02437433 0.02474603
v 0.01874135 0.02437438 0.03256839
v 0.02432595 0.0142834 0.04799102
v 0.02432595 0.0142834 0.04799102
v 0.01874135 0.02437438 0.03256839
v 0.02387136 0.02437436 0.01502999
v 0.03671282 0.01428326 0.02419978
v 0.03671282 0.01428326 0.02419978
v 0.02387136 0.02437436 0.01502999
v 0.02504419 0.02074654 0.001117271
v 0.038652 0.01197214 0.001196604
v 0.038652 0.01197214 0.001196604
v 0.02504419 0.02074654 0.001117271
v 0.03225246 0.02437436 -0.01614789
v 0.04568889 0.01428335 -0.02539702
v 0.03225246 0.02437436 -0.01614789
v 0.004623873 0.033976 0.001091217
v 0.01203645 0.02437442 -0.03256885
v 0.01203645 0.02437442 -0.03256885
v 0.004623873 0.033976 0.001091217
v -0.00259223 0.0243745 -0.02139402
v -0.00259223 0.0243745 -0.02139402
v 0.004623873 0.033976 0.001091217
v -0.01125313 0.0243743 -0.01279546
v -0.01125313 0.0243743 -0.01279546
v 0.004623873 0.033976 0.001091217
v -0.03124472 0.0207464 0.001117241
v -0.03124472 0.0207464 0.001117241
v 0.004623873 0.033976 0.001091217
v -0.01442711 0.02437451 0.01502998
v -0.01442711 0.02437451 0.01502998
v 0.004623873 0.033976 0.001091217
v -0.002592244 0.02437433 0.02474603
v -0.002592244 0.02437433 0.02474603
v 0.004623873 0.033976 0.001091217
v 0.01874135 0.02437438 0.03256839
v 0.01874135 0.02437438 0.03256839
v 0.004623873 0.033976 0.001091217
v 0.02387136 0.02437436 0.01502999
v 0.02387136 0.02437436 0.01502999
v 0.004623873 0.033976 0.001091217
v 0.02504419 0.02074654 0.001117271
v 0.02504419 0.02074654 0.001117271
v 0.004623873 0.033976 0.001091217
v 0.03225246 0.02437436 -0.01614789

vn -0.017253 -0.9816211 -0.1900584
vn 0.01198994 -0.9999227 -0.00326075
vn 0.1630807 -0.976421 -0.1414446
vn -0.1431872 -0.98236 -0.1202752
vn -0.267913 -0.9631664 0.02308383
vn -0.2338911 -0.9670377 0.1006613
vn -0.1415864 -0.9700165 0.1975372
vn 0.02042028 -0.9707582 0.2391885
vn 0.1439634 -0.9807099 0.1322214
vn 0.2750715 -0.9554598 -0.1069207
vn 0.4026082 -0.9110237 -0.08911919
vn 0.1490071 -0.7006609 -0.6977617
vn 0.1490071 -0.7006609 -0.6977616
vn 0.1490072 -0.7006609 -0.6977616
vn 0.1490071 -0.7006609 -0.6977616
vn -0.3617775 -0.7054274 -0.609499
vn -0.3617775 -0.7054275 -0.609499
vn -0.3617776 -0.7054274 -0.609499
vn -0.3617776 -0.7054275 -0.609499
vn -0.7424235 -0.6699179 -0.004166603
vn -0.7424236 -0.6699178 -0.004166603
vn -0.7424235 -0.6699179 -0.004166603
vn -0.7424236 -0.6699178 -0.004166573
vn -0.7075845 -0.6935334 -0.1354094
vn -0.7075846 -0.6935334 -0.1354093
vn -0.7075845 -0.6935334 -0.1354094
vn -0.7075845 -0.6935334 -0.1354093
vn -0.3631647 -0.7007514 0.6140512
vn -0.3631647 -0.7007514 0.6140512
vn -0.3631648 -0.7007513 0.6140512
vn -0.3631648 -0.7007514 0.6140512
vn -0.1321717 -0.7071288 0.6946217
vn -0.1321718 -0.7071288 0.6946218
vn -0.1321718 -0.7071288 0.6946217
vn -0.1321718 -0.7071288 0.6946217
vn 0.1625937 -0.6929788 0.7023842
vn 0.1625937 -0.6929789 0.7023842
vn 0.1625938 -0.6929789 0.7023843
vn 0.1625937 -0.6929788 0.7023842
vn 0.7507685 -0.6601082 0.02457163
vn 0.7507685 -0.6601082 0.02457166
vn 0.7507685 -0.6601082 0.02457166
vn 0.7507686 -0.6601082 0.0245716
vn 0.6518452 -0.6713361 -0.352712
vn 0.6518452 -0.6713361 -0.352712
vn 0.6518452 -0.6713361 -0.352712
vn 0.6518452 -0.6713361 -0.352712
vn 0.7865909 -0.6070691 -0.1128801
vn 0.786591 -0.607069 -0.1128802
vn 0.7865909 -0.6070691 -0.1128801
vn 0.7865909 -0.607069 -0.1128801
vn 0.1957853 0.00450365 -0.9806366
vn 0.1957853 0.004503651 -0.9806366
vn 0.1957853 0.004503651 -0.9806366
vn 0.1957853 0.00450365 -0.9806366
vn -0.5116162 -0.003230368 -0.8592082
vn -0.5116162 -0.003230368 -0.8592082
vn -0.5116162 -0.003230368 -0.8592082
vn -0.5116162 -0.003230368 -0.8592082
vn -0.9981717 -0.01033685 -0.05955443
vn -0.9981717 -0.01033685 -0.05955443
vn -0.9981717 -0.01033685 -0.05955443
vn -0.9981717 -0.01033685 -0.05955443
vn -0.9780176 -0.009753988 -0.208295
vn -0.9780176 -0.009753989 -0.2082949
vn -0.9780176 -0.009753988 -0.208295
vn -0.9780176 -0.009753988 -0.208295
vn -0.4834326 -0.007262571 0.8753515
vn -0.4834326 -0.007262571 0.8753515
vn -0.4834325 -0.00726257 0.8753517
vn -0.4834326 -0.007262571 0.8753515
vn -0.1919076 -0.004464828 0.981403
vn -0.1919076 -0.004464828 0.981403
vn -0.1919076 -0.004464828 0.981403
vn -0.1919076 -0.004464828 0.981403
vn 0.2400789 9.961985E-05 0.9707534
vn 0.2400789 9.961985E-05 0.9707534
vn 0.2400789 9.961985E-05 0.9707534
vn 0.2400789 9.961985E-05 0.9707534
vn 0.9961579 0.01024728 0.08697602
vn 0.9961579 0.01024728 0.08697602
vn 0.9961579 0.01024728 0.08697602
vn 0.9961579 0.01024728 0.08697602
vn 0.927423 0.01067517 -0.373862
vn 0.927423 0.01067517 -0.373862
vn 0.927423 0.01067517 -0.373862
vn 0.927423 0.01067517 -0.373862
vn 0.9660947 0.0107922 -0.2579626
vn 0.9660947 0.0107922 -0.2579627
vn 0.9660947 0.0107922 -0.2579626
vn 0.9660947 0.0107922 -0.2579626
vn 0.1915111 0.2171696 -0.9571631
vn 0.1915111 0.2171696 -0.957163
vn 0.1915111 0.2171696 -0.957163
vn 0.1915111 0.2171696 -0.957163
vn -0.5063474 0.2180091 -0.8343168
vn -0.5063474 0.2180091 -0.8343168
vn -0.5063474 0.2180091 -0.8343168
vn -0.5063474 0.2180091 -0.8343168
vn -0.9683644 0.2487877 -0.01937231
vn -0.9683644 0.2487877 -0.01937228
vn -0.9683644 0.2487877 -0.01937237
vn -0.9683644 0.2487877 -0.01937231
vn -0.9411278 0.2453438 -0.2325625
vn -0.9411278 0.2453438 -0.2325625
vn -0.9411278 0.2453438 -0.2325625
vn -0.9411278 0.2453438 -0.2325624
vn -0.4449185 0.2369674 0.8636516
vn -0.4449185 0.2369674 0.8636516
vn -0.4449185 0.2369674 0.8636516
vn -0.4449185 0.2369674 0.8636516
vn -0.1901026 0.2779302 0.9416028
vn -0.1901027 0.2779302 0.9416028
vn -0.1901027 0.2779302 0.9416028
vn -0.1901027 0.2779302 0.9416028
vn 0.2137765 0.2422843 0.9463605
vn 0.2137765 0.2422843 0.9463605
vn 0.2137765 0.2422843 0.9463605
vn 0.2137765 0.2422843 0.9463605
vn 0.9778283 0.2031632 0.05076241
vn 0.9778283 0.2031632 0.05076241
vn 0.9778283 0.2031633 0.05076244
vn 0.9778283 0.2031633 0.05076241
vn 0.8940547 0.2474954 -0.3733798
vn 0.8940547 0.2474954 -0.3733797
vn 0.8940547 0.2474954 -0.3733798
vn 0.8940547 0.2474954 -0.3733797
vn 0.9565806 0.1888749 -0.221991
vn 0.9565806 0.1888749 -0.221991
vn 0.9565806 0.1888749 -0.221991
vn 0.9565806 0.188875 -0.221991
vn 0.1040066 0.8393095 -0.5336122
vn 0.1040065 0.8393095 -0.5336123
vn 0.1040066 0.8393095 -0.5336122
vn 0.1040065 0.8393095 -0.5336123
vn -0.32851 0.8858509 -0.3276419
vn -0.32851 0.8858508 -0.3276419
vn -0.32851 0.8858509 -0.3276419
vn -0.32851 0.8858509 -0.3276419
vn -0.5014672 0.864219 -0.04069461
vn -0.5014673 0.864219 -0.04069464
vn -0.5014672 0.864219 -0.04069461
vn -0.5014673 0.864219 -0.04069464
vn -0.5849585 0.7991492 -0.1385066
vn -0.5849585 0.7991492 -0.1385066
vn -0.5849585 0.7991492 -0.1385066
vn -0.5849585 0.7991492 -0.1385066
vn -0.285732 0.8143135 0.5052233
vn -0.285732 0.8143136 0.5052233
vn -0.285732 0.8143135 0.5052233
vn -0.285732 0.8143135 0.5052233
vn -0.1259243 0.8195924 0.5589377
vn -0.1259244 0.8195922 0.5589377
vn -0.1259244 0.8195922 0.5589377
vn -0.1259244 0.8195922 0.5589377
vn 0.08838429 0.8167889 0.5701264
vn 0.0883843 0.8167889 0.5701263
vn 0.0883843 0.8167889 0.5701263
vn 0.0883843 0.8167889 0.5701263
vn 0.5952575 0.8026288 -0.03814909
vn 0.5952576 0.8026288 -0.0381491
vn 0.5952576 0.8026288 -0.03814907
vn 0.5952576 0.8026288 -0.0381491
vn 0.4892698 0.8045393 -0.3366472
vn 0.4892697 0.8045394 -0.3366472
vn 0.4892697 0.8045394 -0.3366472
vn 0.4892698 0.8045393 -0.3366472
vn 0.6729247 0.7396696 -0.007824719
vn 0.6729247 0.7396697 -0.007824719
vn 0.6729247 0.7396696 -0.007824719
vn 0.6729247 0.7396696 -0.007824719
vn 0.05342899 0.9560233 -0.2883826
vn 0.05342896 0.9560233 -0.2883827
vn 0.05342899 0.9560233 -0.2883826
vn -0.3662132 0.9147809 -0.1704809
vn -0.3662133 0.9147809 -0.170481
vn -0.3662132 0.9147809 -0.170481
vn -0.4033869 0.9058897 -0.1290061
vn -0.4033869 0.9058897 -0.1290061
vn -0.403387 0.9058897 -0.1290061
vn -0.4196164 0.9053433 -0.06538701
vn -0.4196165 0.9053433 -0.06538701
vn -0.4196165 0.9053433 -0.06538701
vn -0.2369918 0.9212413 0.3084625
vn -0.2369917 0.9212413 0.3084624
vn -0.2369918 0.9212413 0.3084625
vn -0.09422 0.9201006 0.3801804
vn -0.09422001 0.9201007 0.3801804
vn -0.09422001 0.9201007 0.3801804
vn 0.0320991 0.9315074 0.3623028
vn 0.03209907 0.9315074 0.3623028
vn 0.03209908 0.9315074 0.3623028
vn 0.3779386 0.9232313 -0.06932618
vn 0.3779386 0.9232313 -0.06932621
vn 0.3779387 0.9232312 -0.0693262
vn 0.3929794 0.8320353 -0.3915154
vn 0.3929794 0.8320353 -0.3915154
vn 0.3929794 0.8320354 -0.3915154
vn 0.6101699 0.7847577 0.1088485
vn 0.6101699 0.7847577 0.1088485
vn 0.61017 0.7847577 0.1088485

vt 0.5482839 0.007647395
vt 0.5 0.15
vt 0.6264089 0.06440853
vt 0.4517161 0.00764741
vt 0.3735911 0.06440856
vt 0.34375 0.15625
vt 0.3735911 0.2480915
vt 0.4517161 0.3048526
vt 0.5482839 0.3048526
vt 0.6264089 0.2480914
vt 0.65625 0.15625
vt 0 0
vt 0 1
vt 1 1
vt 1 0
vt 0 0
vt 0 1
vt 1 1
vt 1 0
vt 0 0
vt 0 1
vt 1 1
vt 1 0
vt 0 0
vt 0 1
vt 1 1
vt 1 0
vt 0 0
vt 0 1
vt 1 1
vt 1 0
vt 0 0
vt 0 1
vt 1 1
vt 1 0
vt 0 0
vt 0 1
vt 1 1
vt 1 0
vt 0 0
vt 0 1
vt 1 1
vt 1 0
vt 0 0
vt 0 1
vt 1 1
vt 1 0
vt 0 0
vt 0 1
vt 1 1
vt 1 0
vt 0 0
vt 0 1
vt 1 1
vt 1 0
vt 0 0
vt 0 1
vt 1 1
vt 1 0
vt 0 0
vt 0 1
vt 1 1
vt 1 0
vt 0 0
vt 0 1
vt 1 1
vt 1 0
vt 0 0
vt 0 1
vt 1 1
vt 1 0
vt 0 0
vt 0 1
vt 1 1
vt 1 0
vt 0 0
vt 0 1
vt 1 1
vt 1 0
vt 0 0
vt 0 1
vt 1 1
vt 1 0
vt 0 0
vt 0 1
vt 1 1
vt 1 0
vt 0 0
vt 0 1
vt 1 1
vt 1 0
vt 0 0
vt 0 1
vt 1 1
vt 1 0
vt 0 0
vt 0 1
vt 1 1
vt 1 0
vt 0 0
vt 0 1
vt 1 1
vt 1 0
vt 0 0
vt 0 1
vt 1 1
vt 1 0
vt 0 0
vt 0 1
vt 1 1
vt 1 0
vt 0 0
vt 0 1
vt 1 1
vt 1 0
vt 0 0
vt 0 1
vt 1 1
vt 1 0
vt 0 0
vt 0 1
vt 1 1
vt 1 0
vt 0 0
vt 0 1
vt 1 1
vt 1 0
vt 0 0
vt 0 1
vt 1 1
vt 1 0
vt 0 0
vt 0 1
vt 1 1
vt 1 0
vt 0 0
vt 0 1
vt 1 1
vt 1 0
vt 0 0
vt 0 1
vt 1 1
vt 1 0
vt 0 0
vt 0 1
vt 1 1
vt 1 0
vt 0 0
vt 0 1
vt 1 1
vt 1 0
vt 0 0
vt 0 1
vt 1 1
vt 1 0
vt 0 0
vt 0 1
vt 1 1
vt 1 0
vt 0 0
vt 0 1
vt 1 1
vt 1 0
vt 0 0
vt 0 1
vt 1 1
vt 1 0
vt 0 0
vt 0 1
vt 1 1
vt 1 0
vt 0 0
vt 0.5 1
vt 1 0
vt 0 0
vt 0.5 1
vt 1 0
vt 0 0
vt 0.5 1
vt 1 0
vt 0 0
vt 0.5 1
vt 1 0
vt 0 0
vt 0.5 1
vt 1 0
vt 0 0
vt 0.5 1
vt 1 0
vt 0 0
vt 0.5 1
vt 1 0
vt 0 0
vt 0.5 1
vt 1 0
vt 0 0
vt 0.5 1
vt 1 0
vt 0 0
vt 0.5 1
vt 1 0

g Foliage2_10_3550_36
usemtl Foliage2_10_3550_36
usemap Foliage2_10_3550_36
f 1/1/1 3/3/3 2/2/2
f 4/4/4 1/1/1 2/2/2
f 5/5/5 4/4/4 2/2/2
f 6/6/6 5/5/5 2/2/2
f 7/7/7 6/6/6 2/2/2
f 8/8/8 7/7/7 2/2/2
f 9/9/9 8/8/8 2/2/2
f 10/10/10 9/9/9 2/2/2
f 11/11/11 10/10/10 2/2/2
f 3/3/3 11/11/11 2/2/2
f 12/12/12 14/14/14 13/13/13
f 12/12/12 15/15/15 14/14/14
f 16/16/16 18/18/18 17/17/17
f 16/16/16 19/19/19 18/18/18
f 20/20/20 22/22/22 21/21/21
f 20/20/20 23/23/23 22/22/22
f 24/24/24 26/26/26 25/25/25
f 24/24/24 27/27/27 26/26/26
f 28/28/28 30/30/30 29/29/29
f 28/28/28 31/31/31 30/30/30
f 32/32/32 34/34/34 33/33/33
f 32/32/32 35/35/35 34/34/34
f 36/36/36 38/38/38 37/37/37
f 36/36/36 39/39/39 38/38/38
f 40/40/40 42/42/42 41/41/41
f 40/40/40 43/43/43 42/42/42
f 44/44/44 46/46/46 45/45/45
f 44/44/44 47/47/47 46/46/46
f 48/48/48 50/50/50 49/49/49
f 48/48/48 51/51/51 50/50/50
f 52/52/52 54/54/54 53/53/53
f 52/52/52 55/55/55 54/54/54
f 56/56/56 58/58/58 57/57/57
f 56/56/56 59/59/59 58/58/58
f 60/60/60 62/62/62 61/61/61
f 60/60/60 63/63/63 62/62/62
f 64/64/64 66/66/66 65/65/65
f 64/64/64 67/67/67 66/66/66
f 68/68/68 70/70/70 69/69/69
f 68/68/68 71/71/71 70/70/70
f 72/72/72 74/74/74 73/73/73
f 72/72/72 75/75/75 74/74/74
f 76/76/76 78/78/78 77/77/77
f 76/76/76 79/79/79 78/78/78
f 80/80/80 82/82/82 81/81/81
f 80/80/80 83/83/83 82/82/82
f 84/84/84 86/86/86 85/85/85
f 84/84/84 87/87/87 86/86/86
f 88/88/88 90/90/90 89/89/89
f 88/88/88 91/91/91 90/90/90
f 92/92/92 94/94/94 93/93/93
f 92/92/92 95/95/95 94/94/94
f 96/96/96 98/98/98 97/97/97
f 96/96/96 99/99/99 98/98/98
f 100/100/100 102/102/102 101/101/101
f 100/100/100 103/103/103 102/102/102
f 104/104/104 106/106/106 105/105/105
f 104/104/104 107/107/107 106/106/106
f 108/108/108 110/110/110 109/109/109
f 108/108/108 111/111/111 110/110/110
f 112/112/112 114/114/114 113/113/113
f 112/112/112 115/115/115 114/114/114
f 116/116/116 118/118/118 117/117/117
f 116/116/116 119/119/119 118/118/118
f 120/120/120 122/122/122 121/121/121
f 120/120/120 123/123/123 122/122/122
f 124/124/124 126/126/126 125/125/125
f 124/124/124 127/127/127 126/126/126
f 128/128/128 130/130/130 129/129/129
f 128/128/128 131/131/131 130/130/130
f 132/132/132 134/134/134 133/133/133
f 132/132/132 135/135/135 134/134/134
f 136/136/136 138/138/138 137/137/137
f 136/136/136 139/139/139 138/138/138
f 140/140/140 142/142/142 141/141/141
f 140/140/140 143/143/143 142/142/142
f 144/144/144 146/146/146 145/145/145
f 144/144/144 147/147/147 146/146/146
f 148/148/148 150/150/150 149/149/149
f 148/148/148 151/151/151 150/150/150
f 152/152/152 154/154/154 153/153/153
f 152/152/152 155/155/155 154/154/154
f 156/156/156 158/158/158 157/157/157
f 156/156/156 159/159/159 158/158/158
f 160/160/160 162/162/162 161/161/161
f 160/160/160 163/163/163 162/162/162
f 164/164/164 166/166/166 165/165/165
f 164/164/164 167/167/167 166/166/166
f 168/168/168 170/170/170 169/169/169
f 168/168/168 171/171/171 170/170/170
f 172/172/172 174/174/174 173/173/173
f 175/175/175 177/177/177 176/176/176
f 178/178/178 180/180/180 179/179/179
f 181/181/181 183/183/183 182/182/182
f 184/184/184 186/186/186 185/185/185
f 187/187/187 189/189/189 188/188/188
f 190/190/190 192/192/192 191/191/191
f 193/193/193 195/195/195 194/194/194
f 196/196/196 198/198/198 197/197/197
f 199/199/199 201/201/201 200/200/200
