#Foliage3_39_3547_73.obj

v 0.01454574 -0.0257756 -0.04035942
v 0.004624173 -0.03397607 0.001090598
v 0.03878491 -0.02577562 -0.02105589
v -0.009663023 -0.02577562 -0.03817641
v -0.01825048 -0.02577562 -0.01778129
v -0.03822177 -0.02223219 0.001090474
v -0.02135045 -0.02577564 0.01996214
v -0.005297202 -0.0257756 0.03271704
v 0.02109444 -0.02577562 0.04035712
v 0.03059891 -0.0257756 0.01996236
v 0.03218983 -0.02223215 0.001090509
v 0.03878491 -0.02577562 -0.02105589
v 0.04796727 -0.01489239 -0.02772709
v 0.01805301 -0.0148924 -0.05115369
v 0.01454574 -0.0257756 -0.04035942
v 0.01454574 -0.0257756 -0.04035942
v 0.01805301 -0.0148924 -0.05115369
v -0.01317047 -0.0148924 -0.04897076
v -0.009663023 -0.02577562 -0.03817641
v -0.009663023 -0.02577562 -0.03817641
v -0.01317047 -0.0148924 -0.04897076
v -0.02743281 -0.01489235 -0.02445283
v -0.01825048 -0.02577562 -0.01778129
v -0.01825048 -0.02577562 -0.01778129
v -0.02743281 -0.01489235 -0.02445283
v -0.04796664 -0.0128882 0.00109055
v -0.03822177 -0.02223219 0.001090474
v -0.03822177 -0.02223219 0.001090474
v -0.04796664 -0.0128882 0.00109055
v -0.03053291 -0.01489236 0.02663371
v -0.02135045 -0.02577564 0.01996214
v -0.02135045 -0.02577564 0.01996214
v -0.03053291 -0.01489236 0.02663371
v -0.008804617 -0.01489237 0.04351165
v -0.005297202 -0.0257756 0.03271704
v -0.005297202 -0.0257756 0.03271704
v -0.008804617 -0.01489237 0.04351165
v 0.02460175 -0.01489237 0.0511518
v 0.02109444 -0.02577562 0.04035712
v 0.02109444 -0.02577562 0.04035712
v 0.02460175 -0.01489237 0.0511518
v 0.03978139 -0.01489238 0.02663351
v 0.03059891 -0.0257756 0.01996236
v 0.03059891 -0.0257756 0.01996236
v 0.03978139 -0.01489238 0.02663351
v 0.04193458 -0.0128882 0.001090581
v 0.03218983 -0.02223215 0.001090509
v 0.03218983 -0.02223215 0.001090509
v 0.04193458 -0.0128882 0.001090581
v 0.04796727 -0.01489239 -0.02772709
v 0.03878491 -0.02577562 -0.02105589
v 0.04796727 -0.01489239 -0.02772709
v 0.04796724 -0.0001482731 -0.02772709
v 0.01805298 -0.0001482818 -0.05115369
v 0.01805301 -0.0148924 -0.05115369
v 0.01805301 -0.0148924 -0.05115369
v 0.01805298 -0.0001482818 -0.05115369
v -0.01317045 -0.000148277 -0.04897074
v -0.01317047 -0.0148924 -0.04897076
v -0.01317047 -0.0148924 -0.04897076
v -0.01317045 -0.000148277 -0.04897074
v -0.02743279 -0.0001483082 -0.02445281
v -0.02743281 -0.01489235 -0.02445283
v -0.02743281 -0.01489235 -0.02445283
v -0.02743279 -0.0001483082 -0.02445281
v -0.04796652 -0.0002293601 0.001090424
v -0.04796664 -0.0128882 0.00109055
v -0.04796664 -0.0128882 0.00109055
v -0.04796652 -0.0002293601 0.001090424
v -0.03053294 -0.0001483195 0.02663371
v -0.03053291 -0.01489236 0.02663371
v -0.03053291 -0.01489236 0.02663371
v -0.03053294 -0.0001483195 0.02663371
v -0.008804645 -0.0001483312 0.04351165
v -0.008804617 -0.01489237 0.04351165
v -0.008804617 -0.01489237 0.04351165
v -0.008804645 -0.0001483312 0.04351165
v 0.02460171 -0.0001482559 0.05115181
v 0.02460175 -0.01489237 0.0511518
v 0.02460175 -0.01489237 0.0511518
v 0.02460171 -0.0001482559 0.05115181
v 0.03978136 -0.0001482636 0.02663351
v 0.03978139 -0.01489238 0.02663351
v 0.03978139 -0.01489238 0.02663351
v 0.03978136 -0.0001482636 0.02663351
v 0.04193465 -0.0002293553 0.001090435
v 0.04193458 -0.0128882 0.001090581
v 0.04193458 -0.0128882 0.001090581
v 0.04193465 -0.0002293553 0.001090435
v 0.04796724 -0.0001482731 -0.02772709
v 0.04796727 -0.01489239 -0.02772709
v 0.04796724 -0.0001482731 -0.02772709
v 0.04568923 0.01428341 -0.02539774
v 0.01714551 0.01428342 -0.04799239
v 0.01805298 -0.0001482818 -0.05115369
v 0.01805298 -0.0001482818 -0.05115369
v 0.01714551 0.01428342 -0.04799239
v -0.0118287 0.01428341 -0.0455988
v -0.01317045 -0.000148277 -0.04897074
v -0.01317045 -0.000148277 -0.04897074
v -0.0118287 0.01428341 -0.0455988
v -0.02320995 0.01428337 -0.02180726
v -0.02743279 -0.0001483082 -0.02445281
v -0.02743279 -0.0001483082 -0.02445281
v -0.02320995 0.01428337 -0.02180726
v -0.04530368 0.01197209 0.001195661
v -0.04796652 -0.0002293601 0.001090424
v -0.04796652 -0.0002293601 0.001090424
v -0.04530368 0.01197209 0.001195661
v -0.02660928 0.0142834 0.02419912
v -0.03053294 -0.0001483195 0.02663371
v -0.03053294 -0.0001483195 0.02663371
v -0.02660928 0.0142834 0.02419912
v -0.007041502 0.01428337 0.03961257
v -0.008804645 -0.0001483312 0.04351165
v -0.008804645 -0.0001483312 0.04351165
v -0.007041502 0.01428337 0.03961257
v 0.02432631 0.01428341 0.04799025
v 0.02460171 -0.0001482559 0.05115181
v 0.02460171 -0.0001482559 0.05115181
v 0.02432631 0.01428341 0.04799025
v 0.03671324 0.01428341 0.0241989
v 0.03978136 -0.0001482636 0.02663351
v 0.03978136 -0.0001482636 0.02663351
v 0.03671324 0.01428341 0.0241989
v 0.03865237 0.01197211 0.001195716
v 0.04193465 -0.0002293553 0.001090435
v 0.04193465 -0.0002293553 0.001090435
v 0.03865237 0.01197211 0.001195716
v 0.04568923 0.01428341 -0.02539774
v 0.04796724 -0.0001482731 -0.02772709
v 0.04568923 0.01428341 -0.02539774
v 0.03225284 0.02437443 -0.01614879
v 0.01203677 0.02437446 -0.03256951
v 0.01714551 0.01428342 -0.04799239
v 0.01714551 0.01428342 -0.04799239
v 0.01203677 0.02437446 -0.03256951
v -0.002591898 0.02437442 -0.02139477
v -0.0118287 0.01428341 -0.0455988
v -0.0118287 0.01428341 -0.0455988
v -0.002591898 0.02437442 -0.02139477
v -0.01125281 0.0243744 -0.01279611
v -0.02320995 0.01428337 -0.02180726
v -0.02320995 0.01428337 -0.02180726
v -0.01125281 0.0243744 -0.01279611
v -0.03124435 0.02074649 0.001116392
v -0.04530368 0.01197209 0.001195661
v -0.04530368 0.01197209 0.001195661
v -0.03124435 0.02074649 0.001116392
v -0.01442679 0.02437445 0.01502931
v -0.02660928 0.0142834 0.02419912
v -0.02660928 0.0142834 0.02419912
v -0.01442679 0.02437445 0.01502931
v -0.00259183 0.02437446 0.02474499
v -0.007041502 0.01428337 0.03961257
v -0.007041502 0.01428337 0.03961257
v -0.00259183 0.02437446 0.02474499
v 0.01874171 0.02437441 0.0325676
v 0.02432631 0.01428341 0.04799025
v 0.02432631 0.01428341 0.04799025
v 0.01874171 0.02437441 0.0325676
v 0.02387171 0.02437447 0.01502911
v 0.03671324 0.01428341 0.0241989
v 0.03671324 0.01428341 0.0241989
v 0.02387171 0.02437447 0.01502911
v 0.02504457 0.02074648 0.00111636
v 0.03865237 0.01197211 0.001195716
v 0.03865237 0.01197211 0.001195716
v 0.02504457 0.02074648 0.00111636
v 0.03225284 0.02437443 -0.01614879
v 0.04568923 0.01428341 -0.02539774
v 0.03225284 0.02437443 -0.01614879
v 0.004624297 0.03397612 0.001090222
v 0.01203677 0.02437446 -0.03256951
v 0.01203677 0.02437446 -0.03256951
v 0.004624297 0.03397612 0.001090222
v -0.002591898 0.02437442 -0.02139477
v -0.002591898 0.02437442 -0.02139477
v 0.004624297 0.03397612 0.001090222
v -0.01125281 0.0243744 -0.01279611
v -0.01125281 0.0243744 -0.01279611
v 0.004624297 0.03397612 0.001090222
v -0.03124435 0.02074649 0.001116392
v -0.03124435 0.02074649 0.001116392
v 0.004624297 0.03397612 0.001090222
v -0.01442679 0.02437445 0.01502931
v -0.01442679 0.02437445 0.01502931
v 0.004624297 0.03397612 0.001090222
v -0.00259183 0.02437446 0.02474499
v -0.00259183 0.02437446 0.02474499
v 0.004624297 0.03397612 0.001090222
v 0.01874171 0.02437441 0.0325676
v 0.01874171 0.02437441 0.0325676
v 0.004624297 0.03397612 0.001090222
v 0.02387171 0.02437447 0.01502911
v 0.02387171 0.02437447 0.01502911
v 0.004624297 0.03397612 0.001090222
v 0.02504457 0.02074648 0.00111636
v 0.02504457 0.02074648 0.00111636
v 0.004624297 0.03397612 0.001090222
v 0.03225284 0.02437443 -0.01614879

vn -0.04098829 -0.9820721 -0.1839955
vn -0.0272113 -0.9987147 0.04276022
vn 0.1850313 -0.9781068 -0.09523974
vn -0.2103355 -0.9699055 -0.1226472
vn -0.3797059 -0.9248271 0.0227668
vn -0.3477815 -0.9300441 0.1186005
vn -0.2446233 -0.9373439 0.2480843
vn -0.04425888 -0.9444754 0.3255877
vn 0.1262432 -0.9665437 0.2232839
vn 0.3212165 -0.9463382 -0.03555213
vn 0.4701923 -0.8825502 0.004924534
vn 0.227666 -0.6707659 -0.705862
vn 0.227666 -0.6707659 -0.705862
vn 0.2276661 -0.670766 -0.705862
vn 0.227666 -0.6707659 -0.705862
vn -0.3761286 -0.6387487 -0.6712133
vn -0.3761286 -0.6387488 -0.6712133
vn -0.3761287 -0.6387487 -0.6712133
vn -0.3761287 -0.6387487 -0.6712133
vn -0.833553 -0.5453157 -0.08843276
vn -0.833553 -0.5453156 -0.08843274
vn -0.833553 -0.5453157 -0.08843276
vn -0.833553 -0.5453156 -0.08843274
vn -0.7890841 -0.5752624 -0.2154514
vn -0.7890843 -0.5752624 -0.2154513
vn -0.7890842 -0.5752624 -0.2154514
vn -0.7890842 -0.5752624 -0.2154513
vn -0.5137329 -0.5914986 0.6214564
vn -0.5137329 -0.5914986 0.6214564
vn -0.513733 -0.5914985 0.6214564
vn -0.513733 -0.5914986 0.6214564
vn -0.2590908 -0.6069093 0.751354
vn -0.259091 -0.6069093 0.751354
vn -0.259091 -0.6069095 0.751354
vn -0.2590909 -0.6069095 0.751354
vn 0.08386251 -0.596284 0.7983812
vn 0.08386246 -0.596284 0.7983811
vn 0.08386252 -0.596284 0.7983811
vn 0.08386251 -0.596284 0.7983812
vn 0.7996718 -0.5783102 0.1615007
vn 0.7996718 -0.5783102 0.1615007
vn 0.7996718 -0.5783102 0.1615007
vn 0.7996718 -0.5783102 0.1615006
vn 0.7504891 -0.615604 -0.2404119
vn 0.7504891 -0.615604 -0.2404119
vn 0.7504891 -0.615604 -0.2404119
vn 0.7504891 -0.615604 -0.2404119
vn 0.8457699 -0.5329285 0.02570032
vn 0.8457699 -0.5329284 0.02570026
vn 0.8457699 -0.5329285 0.02570032
vn 0.8457699 -0.5329285 0.02570028
vn 0.314401 -0.03540039 -0.94863
vn 0.314401 -0.03540039 -0.94863
vn 0.314401 -0.03540039 -0.94863
vn 0.314401 -0.03540039 -0.94863
vn -0.4480524 -0.01942663 -0.8937962
vn -0.4480524 -0.01942663 -0.8937962
vn -0.4480524 -0.01942663 -0.8937962
vn -0.4480524 -0.01942663 -0.8937962
vn -0.9822516 0.01255743 -0.1871471
vn -0.9822516 0.01255743 -0.1871471
vn -0.9822516 0.01255743 -0.1871471
vn -0.9822516 0.01255743 -0.1871471
vn -0.9476307 0.007798416 -0.3192729
vn -0.9476307 0.007798417 -0.3192728
vn -0.9476307 0.007798416 -0.3192729
vn -0.9476307 0.007798416 -0.3192729
vn -0.6089399 0.03605073 0.7923967
vn -0.6089399 0.03605073 0.7923967
vn -0.6089398 0.03605073 0.7923968
vn -0.6089399 0.03605073 0.7923967
vn -0.3102761 0.03536547 0.9499885
vn -0.3102761 0.03536547 0.9499885
vn -0.3102761 0.03536547 0.9499885
vn -0.3102761 0.03536547 0.9499885
vn 0.1577167 0.0277626 0.9870941
vn 0.1577167 0.0277626 0.9870941
vn 0.1577167 0.0277626 0.9870941
vn 0.1577167 0.0277626 0.9870941
vn 0.977268 -0.01170067 0.2116846
vn 0.977268 -0.01170067 0.2116846
vn 0.977268 -0.01170067 0.2116846
vn 0.977268 -0.01170067 0.2116846
vn 0.975023 -0.02511189 -0.2206796
vn 0.975023 -0.02511189 -0.2206796
vn 0.975023 -0.02511189 -0.2206796
vn 0.975023 -0.02511189 -0.2206796
vn 0.9940364 -0.02192491 -0.106821
vn 0.9940364 -0.02192491 -0.1068211
vn 0.9940364 -0.02192491 -0.106821
vn 0.9940364 -0.02192491 -0.106821
vn 0.3163093 0.1442693 -0.9376218
vn 0.3163093 0.1442694 -0.9376218
vn 0.3163093 0.1442694 -0.9376218
vn 0.3163093 0.1442694 -0.9376218
vn -0.4404277 0.1603092 -0.8833597
vn -0.4404277 0.1603092 -0.8833597
vn -0.4404277 0.1603092 -0.8833597
vn -0.4404277 0.1603092 -0.8833597
vn -0.9638571 0.2144311 -0.1581104
vn -0.9638571 0.2144311 -0.1581104
vn -0.9638571 0.2144311 -0.1581104
vn -0.9638571 0.214431 -0.1581104
vn -0.9141987 0.2037923 -0.3502991
vn -0.9141987 0.2037923 -0.3502991
vn -0.9141987 0.2037923 -0.3502991
vn -0.9141987 0.2037923 -0.350299
vn -0.5657632 0.2404055 0.7887441
vn -0.5657632 0.2404055 0.7887441
vn -0.5657632 0.2404055 0.788744
vn -0.5657632 0.2404054 0.7887441
vn -0.2985342 0.2747034 0.9140106
vn -0.2985343 0.2747034 0.9140106
vn -0.2985343 0.2747034 0.9140106
vn -0.2985343 0.2747034 0.9140106
vn 0.1425149 0.2302257 0.9626451
vn 0.1425149 0.2302257 0.9626451
vn 0.1425149 0.2302257 0.9626451
vn 0.1425149 0.2302257 0.9626451
vn 0.9758794 0.1356724 0.1710332
vn 0.9758794 0.1356724 0.1710332
vn 0.9758794 0.1356724 0.1710333
vn 0.9758794 0.1356724 0.1710332
vn 0.9583195 0.1620677 -0.2352826
vn 0.9583195 0.1620677 -0.2352826
vn 0.9583195 0.1620677 -0.2352826
vn 0.9583195 0.1620676 -0.2352826
vn 0.9897274 0.1175466 -0.08137842
vn 0.9897274 0.1175467 -0.08137846
vn 0.9897274 0.1175467 -0.08137842
vn 0.9897274 0.1175467 -0.08137842
vn 0.2214456 0.7601985 -0.6107864
vn 0.2214455 0.7601985 -0.6107865
vn 0.2214456 0.7601985 -0.6107864
vn 0.2214455 0.7601985 -0.6107865
vn -0.3258211 0.8276764 -0.456938
vn -0.3258211 0.8276764 -0.456938
vn -0.3258211 0.8276764 -0.456938
vn -0.3258211 0.8276764 -0.456938
vn -0.5620167 0.8111752 -0.1616536
vn -0.5620167 0.8111752 -0.1616536
vn -0.5620167 0.8111752 -0.1616536
vn -0.5620167 0.8111752 -0.1616536
vn -0.6325949 0.7254806 -0.2711117
vn -0.6325949 0.7254806 -0.2711117
vn -0.6325949 0.7254806 -0.2711117
vn -0.6325949 0.7254806 -0.2711117
vn -0.3733357 0.7920413 0.4830021
vn -0.3733357 0.7920413 0.483002
vn -0.3733358 0.7920413 0.4830021
vn -0.3733357 0.7920413 0.4830021
vn -0.1858556 0.798896 0.572034
vn -0.1858557 0.798896 0.572034
vn -0.1858557 0.798896 0.5720341
vn -0.1858557 0.798896 0.572034
vn 0.07432736 0.7847089 0.6153921
vn 0.07432739 0.7847089 0.6153921
vn 0.07432739 0.7847089 0.6153921
vn 0.07432739 0.7847089 0.6153921
vn 0.7190796 0.694626 0.02047519
vn 0.7190796 0.694626 0.02047519
vn 0.7190796 0.694626 0.02047523
vn 0.7190796 0.694626 0.02047519
vn 0.6407397 0.6996696 -0.3160936
vn 0.6407397 0.6996697 -0.3160935
vn 0.6407397 0.6996697 -0.3160936
vn 0.6407397 0.6996696 -0.3160936
vn 0.7811823 0.6208875 0.06521548
vn 0.7811823 0.6208875 0.06521547
vn 0.7811823 0.6208875 0.06521548
vn 0.7811823 0.6208875 0.06521548
vn 0.1426426 0.9191939 -0.3670635
vn 0.1426425 0.9191939 -0.3670635
vn 0.1426426 0.9191939 -0.3670635
vn -0.3931808 0.8718125 -0.2921503
vn -0.3931809 0.8718125 -0.2921503
vn -0.3931808 0.8718125 -0.2921503
vn -0.4418748 0.8615873 -0.249828
vn -0.4418748 0.8615873 -0.249828
vn -0.4418748 0.8615873 -0.249828
vn -0.4693225 0.8642625 -0.181071
vn -0.4693226 0.8642625 -0.181071
vn -0.4693226 0.8642625 -0.181071
vn -0.2968429 0.9141245 0.2761531
vn -0.2968429 0.9141245 0.276153
vn -0.2968429 0.9141245 0.2761531
vn -0.1260683 0.9144897 0.3844677
vn -0.1260683 0.9144897 0.3844677
vn -0.1260683 0.9144897 0.3844677
vn 0.03613798 0.9221345 0.3851781
vn 0.03613796 0.9221345 0.3851781
vn 0.03613798 0.9221345 0.3851781
vn 0.508809 0.8591666 -0.05427836
vn 0.5088091 0.8591666 -0.05427837
vn 0.5088091 0.8591666 -0.05427837
vn 0.5449369 0.7378736 -0.398229
vn 0.5449368 0.7378736 -0.398229
vn 0.5449368 0.7378737 -0.3982289
vn 0.7133552 0.6780818 0.1770012
vn 0.7133552 0.6780818 0.1770012
vn 0.7133552 0.6780818 0.1770012

vt 0.5483398 0.007648468
vt 0.5 0.1500244
vt 0.6264648 0.06439209
vt 0.4516602 0.007648468
vt 0.3735352 0.06439209
vt 0.34375 0.15625
vt 0.3735352 0.2480469
vt 0.4516602 0.3049316
vt 0.5483398 0.3049316
vt 0.6264648 0.2480469
vt 0.65625 0.15625
vt 0 0
vt 0 1
vt 1 1
vt 1 0
vt 0 0
vt 0 1
vt 1 1
vt 1 0
vt 0 0
vt 0 1
vt 1 1
vt 1 0
vt 0 0
vt 0 1
vt 1 1
vt 1 0
vt 0 0
vt 0 1
vt 1 1
vt 1 0
vt 0 0
vt 0 1
vt 1 1
vt 1 0
vt 0 0
vt 0 1
vt 1 1
vt 1 0
vt 0 0
vt 0 1
vt 1 1
vt 1 0
vt 0 0
vt 0 1
vt 1 1
vt 1 0
vt 0 0
vt 0 1
vt 1 1
vt 1 0
vt 0 0
vt 0 1
vt 1 1
vt 1 0
vt 0 0
vt 0 1
vt 1 1
vt 1 0
vt 0 0
vt 0 1
vt 1 1
vt 1 0
vt 0 0
vt 0 1
vt 1 1
vt 1 0
vt 0 0
vt 0 1
vt 1 1
vt 1 0
vt 0 0
vt 0 1
vt 1 1
vt 1 0
vt 0 0
vt 0 1
vt 1 1
vt 1 0
vt 0 0
vt 0 1
vt 1 1
vt 1 0
vt 0 0
vt 0 1
vt 1 1
vt 1 0
vt 0 0
vt 0 1
vt 1 1
vt 1 0
vt 0 0
vt 0 1
vt 1 1
vt 1 0
vt 0 0
vt 0 1
vt 1 1
vt 1 0
vt 0 0
vt 0 1
vt 1 1
vt 1 0
vt 0 0
vt 0 1
vt 1 1
vt 1 0
vt 0 0
vt 0 1
vt 1 1
vt 1 0
vt 0 0
vt 0 1
vt 1 1
vt 1 0
vt 0 0
vt 0 1
vt 1 1
vt 1 0
vt 0 0
vt 0 1
vt 1 1
vt 1 0
vt 0 0
vt 0 1
vt 1 1
vt 1 0
vt 0 0
vt 0 1
vt 1 1
vt 1 0
vt 0 0
vt 0 1
vt 1 1
vt 1 0
vt 0 0
vt 0 1
vt 1 1
vt 1 0
vt 0 0
vt 0 1
vt 1 1
vt 1 0
vt 0 0
vt 0 1
vt 1 1
vt 1 0
vt 0 0
vt 0 1
vt 1 1
vt 1 0
vt 0 0
vt 0 1
vt 1 1
vt 1 0
vt 0 0
vt 0 1
vt 1 1
vt 1 0
vt 0 0
vt 0 1
vt 1 1
vt 1 0
vt 0 0
vt 0 1
vt 1 1
vt 1 0
vt 0 0
vt 0 1
vt 1 1
vt 1 0
vt 0 0
vt 0.5 1
vt 1 0
vt 0 0
vt 0.5 1
vt 1 0
vt 0 0
vt 0.5 1
vt 1 0
vt 0 0
vt 0.5 1
vt 1 0
vt 0 0
vt 0.5 1
vt 1 0
vt 0 0
vt 0.5 1
vt 1 0
vt 0 0
vt 0.5 1
vt 1 0
vt 0 0
vt 0.5 1
vt 1 0
vt 0 0
vt 0.5 1
vt 1 0
vt 0 0
vt 0.5 1
vt 1 0

g Foliage3_39_3547_73
usemtl Foliage3_39_3547_73
usemap Foliage3_39_3547_73
f 1/1/1 3/3/3 2/2/2
f 4/4/4 1/1/1 2/2/2
f 5/5/5 4/4/4 2/2/2
f 6/6/6 5/5/5 2/2/2
f 7/7/7 6/6/6 2/2/2
f 8/8/8 7/7/7 2/2/2
f 9/9/9 8/8/8 2/2/2
f 10/10/10 9/9/9 2/2/2
f 11/11/11 10/10/10 2/2/2
f 3/3/3 11/11/11 2/2/2
f 12/12/12 14/14/14 13/13/13
f 12/12/12 15/15/15 14/14/14
f 16/16/16 18/18/18 17/17/17
f 16/16/16 19/19/19 18/18/18
f 20/20/20 22/22/22 21/21/21
f 20/20/20 23/23/23 22/22/22
f 24/24/24 26/26/26 25/25/25
f 24/24/24 27/27/27 26/26/26
f 28/28/28 30/30/30 29/29/29
f 28/28/28 31/31/31 30/30/30
f 32/32/32 34/34/34 33/33/33
f 32/32/32 35/35/35 34/34/34
f 36/36/36 38/38/38 37/37/37
f 36/36/36 39/39/39 38/38/38
f 40/40/40 42/42/42 41/41/41
f 40/40/40 43/43/43 42/42/42
f 44/44/44 46/46/46 45/45/45
f 44/44/44 47/47/47 46/46/46
f 48/48/48 50/50/50 49/49/49
f 48/48/48 51/51/51 50/50/50
f 52/52/52 54/54/54 53/53/53
f 52/52/52 55/55/55 54/54/54
f 56/56/56 58/58/58 57/57/57
f 56/56/56 59/59/59 58/58/58
f 60/60/60 62/62/62 61/61/61
f 60/60/60 63/63/63 62/62/62
f 64/64/64 66/66/66 65/65/65
f 64/64/64 67/67/67 66/66/66
f 68/68/68 70/70/70 69/69/69
f 68/68/68 71/71/71 70/70/70
f 72/72/72 74/74/74 73/73/73
f 72/72/72 75/75/75 74/74/74
f 76/76/76 78/78/78 77/77/77
f 76/76/76 79/79/79 78/78/78
f 80/80/80 82/82/82 81/81/81
f 80/80/80 83/83/83 82/82/82
f 84/84/84 86/86/86 85/85/85
f 84/84/84 87/87/87 86/86/86
f 88/88/88 90/90/90 89/89/89
f 88/88/88 91/91/91 90/90/90
f 92/92/92 94/94/94 93/93/93
f 92/92/92 95/95/95 94/94/94
f 96/96/96 98/98/98 97/97/97
f 96/96/96 99/99/99 98/98/98
f 100/100/100 102/102/102 101/101/101
f 100/100/100 103/103/103 102/102/102
f 104/104/104 106/106/106 105/105/105
f 104/104/104 107/107/107 106/106/106
f 108/108/108 110/110/110 109/109/109
f 108/108/108 111/111/111 110/110/110
f 112/112/112 114/114/114 113/113/113
f 112/112/112 115/115/115 114/114/114
f 116/116/116 118/118/118 117/117/117
f 116/116/116 119/119/119 118/118/118
f 120/120/120 122/122/122 121/121/121
f 120/120/120 123/123/123 122/122/122
f 124/124/124 126/126/126 125/125/125
f 124/124/124 127/127/127 126/126/126
f 128/128/128 130/130/130 129/129/129
f 128/128/128 131/131/131 130/130/130
f 132/132/132 134/134/134 133/133/133
f 132/132/132 135/135/135 134/134/134
f 136/136/136 138/138/138 137/137/137
f 136/136/136 139/139/139 138/138/138
f 140/140/140 142/142/142 141/141/141
f 140/140/140 143/143/143 142/142/142
f 144/144/144 146/146/146 145/145/145
f 144/144/144 147/147/147 146/146/146
f 148/148/148 150/150/150 149/149/149
f 148/148/148 151/151/151 150/150/150
f 152/152/152 154/154/154 153/153/153
f 152/152/152 155/155/155 154/154/154
f 156/156/156 158/158/158 157/157/157
f 156/156/156 159/159/159 158/158/158
f 160/160/160 162/162/162 161/161/161
f 160/160/160 163/163/163 162/162/162
f 164/164/164 166/166/166 165/165/165
f 164/164/164 167/167/167 166/166/166
f 168/168/168 170/170/170 169/169/169
f 168/168/168 171/171/171 170/170/170
f 172/172/172 174/174/174 173/173/173
f 175/175/175 177/177/177 176/176/176
f 178/178/178 180/180/180 179/179/179
f 181/181/181 183/183/183 182/182/182
f 184/184/184 186/186/186 185/185/185
f 187/187/187 189/189/189 188/188/188
f 190/190/190 192/192/192 191/191/191
f 193/193/193 195/195/195 194/194/194
f 196/196/196 198/198/198 197/197/197
f 199/199/199 201/201/201 200/200/200
