#Foliage_46_4308_126.obj

v 0.01454517 -0.02577565 -0.0403589
v 0.004623641 -0.03397604 0.001090611
v 0.03878425 -0.02577564 -0.02105563
v -0.009663552 -0.02577564 -0.03817604
v -0.01825097 -0.02577565 -0.01778112
v -0.03822238 -0.02223222 0.001090524
v -0.02135104 -0.02577562 0.01996244
v -0.005297881 -0.02577563 0.03271715
v 0.02109391 -0.0257756 0.04035759
v 0.03059833 -0.02577563 0.01996243
v 0.03218919 -0.02223221 0.001090594
v 0.03878425 -0.02577564 -0.02105563
v 0.04796667 -0.01489235 -0.02772692
v 0.0180525 -0.01489241 -0.05115352
v 0.01454517 -0.02577565 -0.0403589
v 0.01454517 -0.02577565 -0.0403589
v 0.0180525 -0.01489241 -0.05115352
v -0.01317104 -0.01489239 -0.04897075
v -0.009663552 -0.02577564 -0.03817604
v -0.009663552 -0.02577564 -0.03817604
v -0.01317104 -0.01489239 -0.04897075
v -0.02743341 -0.01489234 -0.02445255
v -0.01825097 -0.02577565 -0.01778112
v -0.01825097 -0.02577565 -0.01778112
v -0.02743341 -0.01489234 -0.02445255
v -0.04796702 -0.0128882 0.001090816
v -0.03822238 -0.02223222 0.001090524
v -0.03822238 -0.02223222 0.001090524
v -0.04796702 -0.0128882 0.001090816
v -0.0305335 -0.01489234 0.02663373
v -0.02135104 -0.02577562 0.01996244
v -0.02135104 -0.02577562 0.01996244
v -0.0305335 -0.01489234 0.02663373
v -0.008805156 -0.01489238 0.04351171
v -0.005297881 -0.02577563 0.03271715
v -0.005297881 -0.02577563 0.03271715
v -0.008805156 -0.01489238 0.04351171
v 0.02460121 -0.01489235 0.05115194
v 0.02109391 -0.0257756 0.04035759
v 0.02109391 -0.0257756 0.04035759
v 0.02460121 -0.01489235 0.05115194
v 0.03978074 -0.01489238 0.02663385
v 0.03059833 -0.02577563 0.01996243
v 0.03059833 -0.02577563 0.01996243
v 0.03978074 -0.01489238 0.02663385
v 0.04193413 -0.01288823 0.001090798
v 0.03218919 -0.02223221 0.001090594
v 0.03218919 -0.02223221 0.001090594
v 0.04193413 -0.01288823 0.001090798
v 0.04796667 -0.01489235 -0.02772692
v 0.03878425 -0.02577564 -0.02105563
v 0.04796667 -0.01489235 -0.02772692
v 0.0479667 -0.000148313 -0.02772692
v 0.01805248 -0.0001482941 -0.0511535
v 0.0180525 -0.01489241 -0.05115352
v 0.0180525 -0.01489241 -0.05115352
v 0.01805248 -0.0001482941 -0.0511535
v -0.01317101 -0.0001482731 -0.04897075
v -0.01317104 -0.01489239 -0.04897075
v -0.01317104 -0.01489239 -0.04897075
v -0.01317101 -0.0001482731 -0.04897075
v -0.02743338 -0.0001482975 -0.02445255
v -0.02743341 -0.01489234 -0.02445255
v -0.02743341 -0.01489234 -0.02445255
v -0.02743338 -0.0001482975 -0.02445255
v -0.04796709 -0.0002294353 0.001090665
v -0.04796702 -0.0128882 0.001090816
v -0.04796702 -0.0128882 0.001090816
v -0.04796709 -0.0002294353 0.001090665
v -0.03053352 -0.0001483056 0.02663375
v -0.0305335 -0.01489234 0.02663373
v -0.0305335 -0.01489234 0.02663373
v -0.03053352 -0.0001483056 0.02663375
v -0.008805174 -0.0001483468 0.04351173
v -0.008805156 -0.01489238 0.04351171
v -0.008805156 -0.01489238 0.04351171
v -0.008805174 -0.0001483468 0.04351173
v 0.02460119 -0.0001483115 0.05115196
v 0.02460121 -0.01489235 0.05115194
v 0.02460121 -0.01489235 0.05115194
v 0.02460119 -0.0001483115 0.05115196
v 0.03978077 -0.0001483395 0.02663385
v 0.03978074 -0.01489238 0.02663385
v 0.03978074 -0.01489238 0.02663385
v 0.03978077 -0.0001483395 0.02663385
v 0.04193406 -0.0002293888 0.001090651
v 0.04193413 -0.01288823 0.001090798
v 0.04193413 -0.01288823 0.001090798
v 0.04193406 -0.0002293888 0.001090651
v 0.0479667 -0.000148313 -0.02772692
v 0.04796667 -0.01489235 -0.02772692
v 0.0479667 -0.000148313 -0.02772692
v 0.0456886 0.0142834 -0.02539774
v 0.01714481 0.01428342 -0.04799217
v 0.01805248 -0.0001482941 -0.0511535
v 0.01805248 -0.0001482941 -0.0511535
v 0.01714481 0.01428342 -0.04799217
v -0.01182931 0.0142834 -0.04559843
v -0.01317101 -0.0001482731 -0.04897075
v -0.01317101 -0.0001482731 -0.04897075
v -0.01182931 0.0142834 -0.04559843
v -0.02321057 0.01428337 -0.0218073
v -0.02743338 -0.0001482975 -0.02445255
v -0.02743338 -0.0001482975 -0.02445255
v -0.02321057 0.01428337 -0.0218073
v -0.04530438 0.01197214 0.001195894
v -0.04796709 -0.0002294353 0.001090665
v -0.04796709 -0.0002294353 0.001090665
v -0.04530438 0.01197214 0.001195894
v -0.02660983 0.01428341 0.02419911
v -0.03053352 -0.0001483056 0.02663375
v -0.03053352 -0.0001483056 0.02663375
v -0.02660983 0.01428341 0.02419911
v -0.007042006 0.01428336 0.03961285
v -0.008805174 -0.0001483468 0.04351173
v -0.008805174 -0.0001483468 0.04351173
v -0.007042006 0.01428336 0.03961285
v 0.02432578 0.01428341 0.04799047
v 0.02460119 -0.0001483115 0.05115196
v 0.02460119 -0.0001483115 0.05115196
v 0.02432578 0.01428341 0.04799047
v 0.03671265 0.01428334 0.02419925
v 0.03978077 -0.0001483395 0.02663385
v 0.03978077 -0.0001483395 0.02663385
v 0.03671265 0.01428334 0.02419925
v 0.03865179 0.01197212 0.001196024
v 0.04193406 -0.0002293888 0.001090651
v 0.04193406 -0.0002293888 0.001090651
v 0.03865179 0.01197212 0.001196024
v 0.0456886 0.0142834 -0.02539774
v 0.0479667 -0.000148313 -0.02772692
v 0.0456886 0.0142834 -0.02539774
v 0.0322522 0.02437438 -0.01614855
v 0.01203631 0.02437436 -0.03256926
v 0.01714481 0.01428342 -0.04799217
v 0.01714481 0.01428342 -0.04799217
v 0.01203631 0.02437436 -0.03256926
v -0.002592497 0.02437438 -0.02139466
v -0.01182931 0.0142834 -0.04559843
v -0.01182931 0.0142834 -0.04559843
v -0.002592497 0.02437438 -0.02139466
v -0.01125333 0.02437437 -0.01279607
v -0.02321057 0.01428337 -0.0218073
v -0.02321057 0.01428337 -0.0218073
v -0.01125333 0.02437437 -0.01279607
v -0.03124487 0.02074646 0.001116731
v -0.04530438 0.01197214 0.001195894
v -0.04530438 0.01197214 0.001195894
v -0.03124487 0.02074646 0.001116731
v -0.01442726 0.02437444 0.01502956
v -0.02660983 0.01428341 0.02419911
v -0.02660983 0.01428341 0.02419911
v -0.01442726 0.02437444 0.01502956
v -0.002592477 0.02437443 0.02474533
v -0.007042006 0.01428336 0.03961285
v -0.007042006 0.01428336 0.03961285
v -0.002592477 0.02437443 0.02474533
v 0.01874109 0.0243744 0.03256771
v 0.02432578 0.01428341 0.04799047
v 0.02432578 0.01428341 0.04799047
v 0.01874109 0.0243744 0.03256771
v 0.02387118 0.0243744 0.01502948
v 0.03671265 0.01428334 0.02419925
v 0.03671265 0.01428334 0.02419925
v 0.02387118 0.0243744 0.01502948
v 0.02504394 0.02074652 0.001116642
v 0.03865179 0.01197212 0.001196024
v 0.03865179 0.01197212 0.001196024
v 0.02504394 0.02074652 0.001116642
v 0.0322522 0.02437438 -0.01614855
v 0.0456886 0.0142834 -0.02539774
v 0.0322522 0.02437438 -0.01614855
v 0.004623639 0.03397606 0.001090607
v 0.01203631 0.02437436 -0.03256926
v 0.01203631 0.02437436 -0.03256926
v 0.004623639 0.03397606 0.001090607
v -0.002592497 0.02437438 -0.02139466
v -0.002592497 0.02437438 -0.02139466
v 0.004623639 0.03397606 0.001090607
v -0.01125333 0.02437437 -0.01279607
v -0.01125333 0.02437437 -0.01279607
v 0.004623639 0.03397606 0.001090607
v -0.03124487 0.02074646 0.001116731
v -0.03124487 0.02074646 0.001116731
v 0.004623639 0.03397606 0.001090607
v -0.01442726 0.02437444 0.01502956
v -0.01442726 0.02437444 0.01502956
v 0.004623639 0.03397606 0.001090607
v -0.002592477 0.02437443 0.02474533
v -0.002592477 0.02437443 0.02474533
v 0.004623639 0.03397606 0.001090607
v 0.01874109 0.0243744 0.03256771
v 0.01874109 0.0243744 0.03256771
v 0.004623639 0.03397606 0.001090607
v 0.02387118 0.0243744 0.01502948
v 0.02387118 0.0243744 0.01502948
v 0.004623639 0.03397606 0.001090607
v 0.02504394 0.02074652 0.001116642
v 0.02504394 0.02074652 0.001116642
v 0.004623639 0.03397606 0.001090607
v 0.0322522 0.02437438 -0.01614855

vn 0.1499513 -0.9831722 -0.1043407
vn -0.02730593 -0.9986391 0.04443367
vn 0.2303741 -0.9670908 0.107996
vn -0.01733982 -0.982082 -0.1876548
vn -0.2564586 -0.9412082 -0.2199001
vn -0.3121772 -0.9400339 -0.1374108
vn -0.3459383 -0.9381439 0.0145848
vn -0.2728826 -0.9405214 0.2023724
vn -0.07191767 -0.9624986 0.2615806
vn 0.273558 -0.9318618 0.2383269
vn 0.3410552 -0.8660808 0.3654936
vn 0.7291511 -0.6420627 -0.2368422
vn 0.7291511 -0.6420628 -0.2368422
vn 0.7291511 -0.6420628 -0.2368422
vn 0.7291511 -0.6420628 -0.2368422
vn 0.3219595 -0.6697852 -0.6691261
vn 0.3219595 -0.6697853 -0.6691261
vn 0.3219595 -0.6697852 -0.6691261
vn 0.3219595 -0.6697853 -0.669126
vn -0.4992615 -0.585715 -0.638495
vn -0.4992615 -0.5857149 -0.638495
vn -0.4992615 -0.585715 -0.638495
vn -0.4992615 -0.5857149 -0.638495
vn -0.3631096 -0.6228451 -0.6929758
vn -0.3631097 -0.6228451 -0.6929758
vn -0.3631096 -0.6228451 -0.6929758
vn -0.3631097 -0.6228451 -0.6929758
vn -0.8147634 -0.5784931 0.0388121
vn -0.8147634 -0.5784931 0.0388121
vn -0.8147634 -0.578493 0.03881206
vn -0.8147634 -0.578493 0.03881209
vn -0.7542172 -0.5896734 0.2888627
vn -0.7542172 -0.5896734 0.2888627
vn -0.7542172 -0.5896734 0.2888627
vn -0.7542172 -0.5896735 0.2888627
vn -0.5809897 -0.5863631 0.5644727
vn -0.5809897 -0.5863631 0.5644726
vn -0.5809897 -0.5863631 0.5644727
vn -0.5809897 -0.5863631 0.5644727
vn 0.4398531 -0.5667112 0.6966833
vn 0.4398531 -0.5667113 0.6966834
vn 0.4398531 -0.5667113 0.6966834
vn 0.4398532 -0.5667111 0.6966833
vn 0.7122549 -0.5807938 0.394172
vn 0.7122548 -0.5807938 0.394172
vn 0.7122549 -0.5807938 0.394172
vn 0.7122549 -0.5807938 0.394172
vn 0.5777125 -0.5128254 0.6350263
vn 0.5777126 -0.5128253 0.6350263
vn 0.5777125 -0.5128254 0.6350263
vn 0.5777125 -0.5128254 0.6350262
vn 0.9414102 -0.02807405 -0.3360932
vn 0.9414102 -0.02807405 -0.3360932
vn 0.9414102 -0.02807405 -0.3360932
vn 0.9414102 -0.02807405 -0.3360932
vn 0.4475162 -0.0361773 -0.8935438
vn 0.4475162 -0.0361773 -0.8935438
vn 0.4475162 -0.0361773 -0.8935438
vn 0.4475162 -0.0361773 -0.8935438
vn -0.5423297 -0.01598897 -0.8400135
vn -0.5423297 -0.01598897 -0.8400135
vn -0.5423297 -0.01598897 -0.8400135
vn -0.5423297 -0.01598897 -0.8400135
vn -0.4096873 -0.02071068 -0.9119909
vn -0.4096874 -0.02071068 -0.9119909
vn -0.4096873 -0.02071068 -0.9119909
vn -0.4096873 -0.02071068 -0.9119909
vn -0.9985127 0.02025984 0.05061632
vn -0.9985127 0.02025984 0.05061632
vn -0.9985127 0.02025984 0.05061642
vn -0.9985127 0.02025984 0.05061632
vn -0.9401059 0.02816241 0.3397173
vn -0.9401059 0.02816241 0.3397173
vn -0.9401059 0.02816241 0.3397173
vn -0.9401059 0.02816241 0.3397173
vn -0.703986 0.03524492 0.7093388
vn -0.703986 0.03524492 0.7093388
vn -0.703986 0.03524492 0.7093388
vn -0.703986 0.03524492 0.7093388
vn 0.5191655 0.01687341 0.8545071
vn 0.5191655 0.01687341 0.8545071
vn 0.5191655 0.01687341 0.8545071
vn 0.5191655 0.01687341 0.8545071
vn 0.8393669 0.001206424 0.543564
vn 0.8393669 0.001206424 0.543564
vn 0.8393669 0.001206424 0.543564
vn 0.8393669 0.001206424 0.543564
vn 0.7721153 0.005324278 0.6354601
vn 0.7721153 0.005324277 0.6354601
vn 0.7721153 0.005324278 0.6354601
vn 0.7721153 0.005324278 0.6354601
vn 0.9313741 0.1413704 -0.3354947
vn 0.931374 0.1413704 -0.3354947
vn 0.931374 0.1413704 -0.3354947
vn 0.931374 0.1413704 -0.3354947
vn 0.4380076 0.1503395 -0.8863111
vn 0.4380076 0.1503395 -0.8863111
vn 0.4380076 0.1503395 -0.8863111
vn 0.4380076 0.1503395 -0.8863111
vn -0.5550439 0.1934185 -0.8090214
vn -0.5550439 0.1934185 -0.8090214
vn -0.5550438 0.1934185 -0.8090214
vn -0.5550439 0.1934184 -0.8090214
vn -0.3629857 0.1870696 -0.9128233
vn -0.3629857 0.1870696 -0.9128233
vn -0.3629857 0.1870695 -0.9128233
vn -0.3629858 0.1870696 -0.9128233
vn -0.9748233 0.2117805 0.06977575
vn -0.9748233 0.2117805 0.06977575
vn -0.9748233 0.2117805 0.06977567
vn -0.9748233 0.2117804 0.06977575
vn -0.9129322 0.2543305 0.319172
vn -0.9129323 0.2543305 0.3191719
vn -0.9129322 0.2543305 0.319172
vn -0.9129322 0.2543305 0.319172
vn -0.6987383 0.235835 0.6753862
vn -0.6987383 0.235835 0.6753862
vn -0.6987383 0.235835 0.6753862
vn -0.6987383 0.235835 0.6753862
vn 0.5475202 0.1702596 0.8192883
vn 0.5475202 0.1702596 0.8192883
vn 0.5475202 0.1702596 0.8192884
vn 0.5475202 0.1702596 0.8192883
vn 0.8358411 0.1851806 0.5167958
vn 0.8358411 0.1851805 0.5167957
vn 0.8358411 0.1851805 0.5167957
vn 0.8358411 0.1851805 0.5167957
vn 0.7488099 0.1457455 0.6465616
vn 0.7488099 0.1457455 0.6465616
vn 0.7488099 0.1457455 0.6465616
vn 0.7488099 0.1457455 0.6465616
vn 0.6210524 0.7460916 -0.2400858
vn 0.6210524 0.7460916 -0.2400858
vn 0.6210524 0.7460916 -0.2400858
vn 0.6210524 0.7460916 -0.2400858
vn 0.1331439 0.8270831 -0.5460826
vn 0.1331439 0.8270831 -0.5460827
vn 0.1331439 0.8270831 -0.5460826
vn 0.1331439 0.8270831 -0.5460826
vn -0.2765388 0.8021095 -0.5292889
vn -0.2765388 0.8021094 -0.5292889
vn -0.2765388 0.8021095 -0.5292889
vn -0.2765388 0.8021094 -0.5292889
vn -0.234653 0.7217135 -0.6512048
vn -0.234653 0.7217135 -0.6512047
vn -0.234653 0.7217135 -0.6512047
vn -0.234653 0.7217135 -0.6512047
vn -0.6536041 0.756832 0.002661071
vn -0.653604 0.756832 0.002661091
vn -0.6536041 0.7568319 0.002661071
vn -0.6536041 0.756832 0.002661071
vn -0.6050472 0.7746784 0.1838239
vn -0.6050473 0.7746784 0.1838238
vn -0.6050473 0.7746783 0.1838239
vn -0.6050473 0.7746784 0.1838238
vn -0.4758082 0.7849091 0.3968933
vn -0.4758082 0.7849091 0.3968933
vn -0.4758082 0.7849091 0.3968933
vn -0.4758082 0.7849091 0.3968933
vn 0.4670046 0.7281809 0.5016566
vn 0.4670046 0.7281809 0.5016566
vn 0.4670046 0.7281809 0.5016567
vn 0.4670046 0.7281809 0.5016566
vn 0.6715802 0.7050702 0.2277191
vn 0.6715801 0.7050703 0.227719
vn 0.6715802 0.7050703 0.227719
vn 0.6715802 0.7050702 0.2277191
vn 0.4778894 0.6591979 0.5805858
vn 0.4778894 0.6591979 0.5805857
vn 0.4778894 0.6591979 0.5805858
vn 0.4778894 0.6591979 0.5805858
vn 0.3734287 0.9142573 -0.1571134
vn 0.3734287 0.9142573 -0.1571134
vn 0.3734287 0.9142573 -0.1571134
vn -0.05252144 0.868578 -0.4927613
vn -0.05252142 0.868578 -0.4927613
vn -0.05252142 0.868578 -0.4927613
vn -0.1213229 0.8569962 -0.5008377
vn -0.1213229 0.8569962 -0.5008377
vn -0.1213229 0.8569962 -0.5008377
vn -0.1972216 0.8566924 -0.4766358
vn -0.1972217 0.8566924 -0.4766359
vn -0.1972217 0.8566924 -0.4766359
vn -0.4483268 0.8908758 -0.07309824
vn -0.4483268 0.8908759 -0.07309821
vn -0.4483268 0.8908758 -0.07309824
vn -0.4225777 0.899583 0.1103557
vn -0.4225778 0.899583 0.1103557
vn -0.4225778 0.899583 0.1103557
vn -0.3168649 0.9212957 0.2254127
vn -0.3168649 0.9212957 0.2254127
vn -0.3168649 0.9212957 0.2254127
vn 0.3739539 0.8793938 0.2946609
vn 0.373954 0.8793938 0.2946609
vn 0.373954 0.8793938 0.2946609
vn 0.6686298 0.7354249 0.1099286
vn 0.6686298 0.7354249 0.1099286
vn 0.6686298 0.735425 0.1099286
vn 0.3365859 0.722118 0.6043639
vn 0.3365858 0.722118 0.6043638
vn 0.3365858 0.722118 0.6043639

vt 0.5483398 0.007648468
vt 0.5 0.1500244
vt 0.6264648 0.06439209
vt 0.4516602 0.007648468
vt 0.3735352 0.06439209
vt 0.34375 0.15625
vt 0.3735352 0.2480469
vt 0.4516602 0.3049316
vt 0.5483398 0.3049316
vt 0.6264648 0.2480469
vt 0.65625 0.15625
vt 0 0
vt 0 1
vt 1 1
vt 1 0
vt 0 0
vt 0 1
vt 1 1
vt 1 0
vt 0 0
vt 0 1
vt 1 1
vt 1 0
vt 0 0
vt 0 1
vt 1 1
vt 1 0
vt 0 0
vt 0 1
vt 1 1
vt 1 0
vt 0 0
vt 0 1
vt 1 1
vt 1 0
vt 0 0
vt 0 1
vt 1 1
vt 1 0
vt 0 0
vt 0 1
vt 1 1
vt 1 0
vt 0 0
vt 0 1
vt 1 1
vt 1 0
vt 0 0
vt 0 1
vt 1 1
vt 1 0
vt 0 0
vt 0 1
vt 1 1
vt 1 0
vt 0 0
vt 0 1
vt 1 1
vt 1 0
vt 0 0
vt 0 1
vt 1 1
vt 1 0
vt 0 0
vt 0 1
vt 1 1
vt 1 0
vt 0 0
vt 0 1
vt 1 1
vt 1 0
vt 0 0
vt 0 1
vt 1 1
vt 1 0
vt 0 0
vt 0 1
vt 1 1
vt 1 0
vt 0 0
vt 0 1
vt 1 1
vt 1 0
vt 0 0
vt 0 1
vt 1 1
vt 1 0
vt 0 0
vt 0 1
vt 1 1
vt 1 0
vt 0 0
vt 0 1
vt 1 1
vt 1 0
vt 0 0
vt 0 1
vt 1 1
vt 1 0
vt 0 0
vt 0 1
vt 1 1
vt 1 0
vt 0 0
vt 0 1
vt 1 1
vt 1 0
vt 0 0
vt 0 1
vt 1 1
vt 1 0
vt 0 0
vt 0 1
vt 1 1
vt 1 0
vt 0 0
vt 0 1
vt 1 1
vt 1 0
vt 0 0
vt 0 1
vt 1 1
vt 1 0
vt 0 0
vt 0 1
vt 1 1
vt 1 0
vt 0 0
vt 0 1
vt 1 1
vt 1 0
vt 0 0
vt 0 1
vt 1 1
vt 1 0
vt 0 0
vt 0 1
vt 1 1
vt 1 0
vt 0 0
vt 0 1
vt 1 1
vt 1 0
vt 0 0
vt 0 1
vt 1 1
vt 1 0
vt 0 0
vt 0 1
vt 1 1
vt 1 0
vt 0 0
vt 0 1
vt 1 1
vt 1 0
vt 0 0
vt 0 1
vt 1 1
vt 1 0
vt 0 0
vt 0 1
vt 1 1
vt 1 0
vt 0 0
vt 0 1
vt 1 1
vt 1 0
vt 0 0
vt 0 1
vt 1 1
vt 1 0
vt 0 0
vt 0.5 1
vt 1 0
vt 0 0
vt 0.5 1
vt 1 0
vt 0 0
vt 0.5 1
vt 1 0
vt 0 0
vt 0.5 1
vt 1 0
vt 0 0
vt 0.5 1
vt 1 0
vt 0 0
vt 0.5 1
vt 1 0
vt 0 0
vt 0.5 1
vt 1 0
vt 0 0
vt 0.5 1
vt 1 0
vt 0 0
vt 0.5 1
vt 1 0
vt 0 0
vt 0.5 1
vt 1 0

g Foliage_46_4308_126
usemtl Foliage_46_4308_126
usemap Foliage_46_4308_126
f 1/1/1 3/3/3 2/2/2
f 4/4/4 1/1/1 2/2/2
f 5/5/5 4/4/4 2/2/2
f 6/6/6 5/5/5 2/2/2
f 7/7/7 6/6/6 2/2/2
f 8/8/8 7/7/7 2/2/2
f 9/9/9 8/8/8 2/2/2
f 10/10/10 9/9/9 2/2/2
f 11/11/11 10/10/10 2/2/2
f 3/3/3 11/11/11 2/2/2
f 12/12/12 14/14/14 13/13/13
f 12/12/12 15/15/15 14/14/14
f 16/16/16 18/18/18 17/17/17
f 16/16/16 19/19/19 18/18/18
f 20/20/20 22/22/22 21/21/21
f 20/20/20 23/23/23 22/22/22
f 24/24/24 26/26/26 25/25/25
f 24/24/24 27/27/27 26/26/26
f 28/28/28 30/30/30 29/29/29
f 28/28/28 31/31/31 30/30/30
f 32/32/32 34/34/34 33/33/33
f 32/32/32 35/35/35 34/34/34
f 36/36/36 38/38/38 37/37/37
f 36/36/36 39/39/39 38/38/38
f 40/40/40 42/42/42 41/41/41
f 40/40/40 43/43/43 42/42/42
f 44/44/44 46/46/46 45/45/45
f 44/44/44 47/47/47 46/46/46
f 48/48/48 50/50/50 49/49/49
f 48/48/48 51/51/51 50/50/50
f 52/52/52 54/54/54 53/53/53
f 52/52/52 55/55/55 54/54/54
f 56/56/56 58/58/58 57/57/57
f 56/56/56 59/59/59 58/58/58
f 60/60/60 62/62/62 61/61/61
f 60/60/60 63/63/63 62/62/62
f 64/64/64 66/66/66 65/65/65
f 64/64/64 67/67/67 66/66/66
f 68/68/68 70/70/70 69/69/69
f 68/68/68 71/71/71 70/70/70
f 72/72/72 74/74/74 73/73/73
f 72/72/72 75/75/75 74/74/74
f 76/76/76 78/78/78 77/77/77
f 76/76/76 79/79/79 78/78/78
f 80/80/80 82/82/82 81/81/81
f 80/80/80 83/83/83 82/82/82
f 84/84/84 86/86/86 85/85/85
f 84/84/84 87/87/87 86/86/86
f 88/88/88 90/90/90 89/89/89
f 88/88/88 91/91/91 90/90/90
f 92/92/92 94/94/94 93/93/93
f 92/92/92 95/95/95 94/94/94
f 96/96/96 98/98/98 97/97/97
f 96/96/96 99/99/99 98/98/98
f 100/100/100 102/102/102 101/101/101
f 100/100/100 103/103/103 102/102/102
f 104/104/104 106/106/106 105/105/105
f 104/104/104 107/107/107 106/106/106
f 108/108/108 110/110/110 109/109/109
f 108/108/108 111/111/111 110/110/110
f 112/112/112 114/114/114 113/113/113
f 112/112/112 115/115/115 114/114/114
f 116/116/116 118/118/118 117/117/117
f 116/116/116 119/119/119 118/118/118
f 120/120/120 122/122/122 121/121/121
f 120/120/120 123/123/123 122/122/122
f 124/124/124 126/126/126 125/125/125
f 124/124/124 127/127/127 126/126/126
f 128/128/128 130/130/130 129/129/129
f 128/128/128 131/131/131 130/130/130
f 132/132/132 134/134/134 133/133/133
f 132/132/132 135/135/135 134/134/134
f 136/136/136 138/138/138 137/137/137
f 136/136/136 139/139/139 138/138/138
f 140/140/140 142/142/142 141/141/141
f 140/140/140 143/143/143 142/142/142
f 144/144/144 146/146/146 145/145/145
f 144/144/144 147/147/147 146/146/146
f 148/148/148 150/150/150 149/149/149
f 148/148/148 151/151/151 150/150/150
f 152/152/152 154/154/154 153/153/153
f 152/152/152 155/155/155 154/154/154
f 156/156/156 158/158/158 157/157/157
f 156/156/156 159/159/159 158/158/158
f 160/160/160 162/162/162 161/161/161
f 160/160/160 163/163/163 162/162/162
f 164/164/164 166/166/166 165/165/165
f 164/164/164 167/167/167 166/166/166
f 168/168/168 170/170/170 169/169/169
f 168/168/168 171/171/171 170/170/170
f 172/172/172 174/174/174 173/173/173
f 175/175/175 177/177/177 176/176/176
f 178/178/178 180/180/180 179/179/179
f 181/181/181 183/183/183 182/182/182
f 184/184/184 186/186/186 185/185/185
f 187/187/187 189/189/189 188/188/188
f 190/190/190 192/192/192 191/191/191
f 193/193/193 195/195/195 194/194/194
f 196/196/196 198/198/198 197/197/197
f 199/199/199 201/201/201 200/200/200
