#Foliage1_9_3884_82.obj

v 0.01454506 -0.02577558 -0.04035838
v 0.00462363 -0.03397599 0.001091384
v 0.03878425 -0.02577553 -0.02105484
v -0.009663626 -0.02577565 -0.03817543
v -0.018251 -0.02577568 -0.01778046
v -0.03822239 -0.02223214 0.001091324
v -0.0213511 -0.02577562 0.01996311
v -0.005297811 -0.02577565 0.0327179
v 0.02109381 -0.02577567 0.04035809
v 0.03059831 -0.02577558 0.01996314
v 0.03218921 -0.02223219 0.00109136
v 0.03878425 -0.02577553 -0.02105484
v 0.0479667 -0.01489234 -0.02772619
v 0.01805246 -0.01489229 -0.05115285
v 0.01454506 -0.02577558 -0.04035838
v 0.01454506 -0.02577558 -0.04035838
v 0.01805246 -0.01489229 -0.05115285
v -0.01317098 -0.01489239 -0.04896994
v -0.009663626 -0.02577565 -0.03817543
v -0.009663626 -0.02577565 -0.03817543
v -0.01317098 -0.01489239 -0.04896994
v -0.02743341 -0.01489238 -0.02445187
v -0.018251 -0.02577568 -0.01778046
v -0.018251 -0.02577568 -0.01778046
v -0.02743341 -0.01489238 -0.02445187
v -0.04796717 -0.01288813 0.001091334
v -0.03822239 -0.02223214 0.001091324
v -0.03822239 -0.02223214 0.001091324
v -0.04796717 -0.01288813 0.001091334
v -0.03053348 -0.01489227 0.02663454
v -0.0213511 -0.02577562 0.01996311
v -0.0213511 -0.02577562 0.01996311
v -0.03053348 -0.01489227 0.02663454
v -0.008805149 -0.01489239 0.04351244
v -0.005297811 -0.02577565 0.0327179
v -0.005297811 -0.02577565 0.0327179
v -0.008805149 -0.01489239 0.04351244
v 0.02460116 -0.01489239 0.05115262
v 0.02109381 -0.02577567 0.04035809
v 0.02109381 -0.02577567 0.04035809
v 0.02460116 -0.01489239 0.05115262
v 0.03978076 -0.01489235 0.02663451
v 0.03059831 -0.02577558 0.01996314
v 0.03059831 -0.02577558 0.01996314
v 0.03978076 -0.01489235 0.02663451
v 0.04193407 -0.01288822 0.001091382
v 0.03218921 -0.02223219 0.00109136
v 0.03218921 -0.02223219 0.00109136
v 0.04193407 -0.01288822 0.001091382
v 0.0479667 -0.01489234 -0.02772619
v 0.03878425 -0.02577553 -0.02105484
v 0.0479667 -0.01489234 -0.02772619
v 0.04796668 -0.0001482797 -0.02772616
v 0.01805244 -0.0001482353 -0.05115281
v 0.01805246 -0.01489229 -0.05115285
v 0.01805246 -0.01489229 -0.05115285
v 0.01805244 -0.0001482353 -0.05115281
v -0.01317095 -0.0001483248 -0.04896998
v -0.01317098 -0.01489239 -0.04896994
v -0.01317098 -0.01489239 -0.04896994
v -0.01317095 -0.0001483248 -0.04896998
v -0.02743343 -0.0001483198 -0.02445184
v -0.02743341 -0.01489238 -0.02445187
v -0.02743341 -0.01489238 -0.02445187
v -0.02743343 -0.0001483198 -0.02445184
v -0.04796713 -0.0002294467 0.001091313
v -0.04796717 -0.01288813 0.001091334
v -0.04796717 -0.01288813 0.001091334
v -0.04796713 -0.0002294467 0.001091313
v -0.03053349 -0.0001482142 0.02663457
v -0.03053348 -0.01489227 0.02663454
v -0.03053348 -0.01489227 0.02663454
v -0.03053349 -0.0001482142 0.02663457
v -0.008805121 -0.0001483285 0.04351241
v -0.008805149 -0.01489239 0.04351244
v -0.008805149 -0.01489239 0.04351244
v -0.008805121 -0.0001483285 0.04351241
v 0.02460119 -0.0001483276 0.05115259
v 0.02460116 -0.01489239 0.05115262
v 0.02460116 -0.01489239 0.05115262
v 0.02460119 -0.0001483276 0.05115259
v 0.03978074 -0.0001482887 0.02663455
v 0.03978076 -0.01489235 0.02663451
v 0.03978076 -0.01489235 0.02663451
v 0.03978074 -0.0001482887 0.02663455
v 0.04193408 -0.0002293745 0.001091366
v 0.04193407 -0.01288822 0.001091382
v 0.04193407 -0.01288822 0.001091382
v 0.04193408 -0.0002293745 0.001091366
v 0.04796668 -0.0001482797 -0.02772616
v 0.0479667 -0.01489234 -0.02772619
v 0.04796668 -0.0001482797 -0.02772616
v 0.04568866 0.01428337 -0.0253969
v 0.01714486 0.01428334 -0.04799133
v 0.01805244 -0.0001482353 -0.05115281
v 0.01805244 -0.0001482353 -0.05115281
v 0.01714486 0.01428334 -0.04799133
v -0.01182931 0.01428342 -0.04559774
v -0.01317095 -0.0001483248 -0.04896998
v -0.01317095 -0.0001483248 -0.04896998
v -0.01182931 0.01428342 -0.04559774
v -0.02321048 0.01428335 -0.02180649
v -0.02743343 -0.0001483198 -0.02445184
v -0.02743343 -0.0001483198 -0.02445184
v -0.02321048 0.01428335 -0.02180649
v -0.04530431 0.01197217 0.001196746
v -0.04796713 -0.0002294467 0.001091313
v -0.04796713 -0.0002294467 0.001091313
v -0.04530431 0.01197217 0.001196746
v -0.02660983 0.01428347 0.02419987
v -0.03053349 -0.0001482142 0.02663457
v -0.03053349 -0.0001482142 0.02663457
v -0.02660983 0.01428347 0.02419987
v -0.007042103 0.01428342 0.03961343
v -0.008805121 -0.0001483285 0.04351241
v -0.008805121 -0.0001483285 0.04351241
v -0.007042103 0.01428342 0.03961343
v 0.02432573 0.01428341 0.04799113
v 0.02460119 -0.0001483276 0.05115259
v 0.02460119 -0.0001483276 0.05115259
v 0.02432573 0.01428341 0.04799113
v 0.03671256 0.01428344 0.0241999
v 0.03978074 -0.0001482887 0.02663455
v 0.03978074 -0.0001482887 0.02663455
v 0.03671256 0.01428344 0.0241999
v 0.03865174 0.01197212 0.001196736
v 0.04193408 -0.0002293745 0.001091366
v 0.04193408 -0.0002293745 0.001091366
v 0.03865174 0.01197212 0.001196736
v 0.04568866 0.01428337 -0.0253969
v 0.04796668 -0.0001482797 -0.02772616
v 0.04568866 0.01428337 -0.0253969
v 0.03225223 0.02437446 -0.01614781
v 0.01203622 0.0243744 -0.0325687
v 0.01714486 0.01428334 -0.04799133
v 0.01714486 0.01428334 -0.04799133
v 0.01203622 0.0243744 -0.0325687
v -0.002592428 0.02437441 -0.0213939
v -0.01182931 0.01428342 -0.04559774
v -0.01182931 0.01428342 -0.04559774
v -0.002592428 0.02437441 -0.0213939
v -0.01125339 0.02437451 -0.01279532
v -0.02321048 0.01428335 -0.02180649
v -0.02321048 0.01428335 -0.02180649
v -0.01125339 0.02437451 -0.01279532
v -0.03124489 0.02074654 0.001117351
v -0.04530431 0.01197217 0.001196746
v -0.04530431 0.01197217 0.001196746
v -0.03124489 0.02074654 0.001117351
v -0.01442735 0.02437449 0.01503006
v -0.02660983 0.01428347 0.02419987
v -0.02660983 0.01428347 0.02419987
v -0.01442735 0.02437449 0.01503006
v -0.002592479 0.02437453 0.02474608
v -0.007042103 0.01428342 0.03961343
v -0.007042103 0.01428342 0.03961343
v -0.002592479 0.02437453 0.02474608
v 0.01874114 0.02437438 0.03256848
v 0.02432573 0.01428341 0.04799113
v 0.02432573 0.01428341 0.04799113
v 0.01874114 0.02437438 0.03256848
v 0.02387107 0.02437451 0.0150301
v 0.03671256 0.01428344 0.0241999
v 0.03671256 0.01428344 0.0241999
v 0.02387107 0.02437451 0.0150301
v 0.02504395 0.0207466 0.001117424
v 0.03865174 0.01197212 0.001196736
v 0.03865174 0.01197212 0.001196736
v 0.02504395 0.0207466 0.001117424
v 0.03225223 0.02437446 -0.01614781
v 0.04568866 0.01428337 -0.0253969
v 0.03225223 0.02437446 -0.01614781
v 0.004623629 0.03397607 0.00109127
v 0.01203622 0.0243744 -0.0325687
v 0.01203622 0.0243744 -0.0325687
v 0.004623629 0.03397607 0.00109127
v -0.002592428 0.02437441 -0.0213939
v -0.002592428 0.02437441 -0.0213939
v 0.004623629 0.03397607 0.00109127
v -0.01125339 0.02437451 -0.01279532
v -0.01125339 0.02437451 -0.01279532
v 0.004623629 0.03397607 0.00109127
v -0.03124489 0.02074654 0.001117351
v -0.03124489 0.02074654 0.001117351
v 0.004623629 0.03397607 0.00109127
v -0.01442735 0.02437449 0.01503006
v -0.01442735 0.02437449 0.01503006
v 0.004623629 0.03397607 0.00109127
v -0.002592479 0.02437453 0.02474608
v -0.002592479 0.02437453 0.02474608
v 0.004623629 0.03397607 0.00109127
v 0.01874114 0.02437438 0.03256848
v 0.01874114 0.02437438 0.03256848
v 0.004623629 0.03397607 0.00109127
v 0.02387107 0.02437451 0.0150301
v 0.02387107 0.02437451 0.0150301
v 0.004623629 0.03397607 0.00109127
v 0.02504395 0.0207466 0.001117424
v 0.02504395 0.0207466 0.001117424
v 0.004623629 0.03397607 0.00109127
v 0.03225223 0.02437446 -0.01614781

vn 0.08921546 -0.9872391 -0.1319057
vn -0.09566756 -0.9914709 -0.08850288
vn 0.05539192 -0.997131 0.05158461
vn 0.01021999 -0.9680027 -0.2507305
vn -0.1396812 -0.9224513 -0.3599615
vn -0.2144069 -0.9228796 -0.3198789
vn -0.3037011 -0.9269578 -0.2202601
vn -0.3326218 -0.9413878 -0.05613551
vn -0.2179905 -0.9743419 0.05601431
vn 0.03185786 -0.985325 0.1676878
vn 0.02845322 -0.9534847 0.300095
vn 0.6337168 -0.7733816 0.01684532
vn 0.6337167 -0.7733816 0.01684529
vn 0.6337167 -0.7733816 0.01684535
vn 0.6337167 -0.7733816 0.01684529
vn 0.506359 -0.7148835 -0.4822257
vn 0.506359 -0.7148836 -0.4822257
vn 0.506359 -0.7148835 -0.4822257
vn 0.506359 -0.7148836 -0.4822258
vn -0.1199032 -0.5833892 -0.8032932
vn -0.1199032 -0.5833892 -0.8032933
vn -0.1199032 -0.5833892 -0.8032932
vn -0.1199033 -0.5833892 -0.8032932
vn 0.01061693 -0.6225051 -0.7825436
vn 0.01061687 -0.6225049 -0.7825437
vn 0.0106169 -0.622505 -0.7825436
vn 0.01061684 -0.622505 -0.7825436
vn -0.7070687 -0.5984631 -0.37669
vn -0.7070687 -0.5984631 -0.37669
vn -0.7070688 -0.598463 -0.3766901
vn -0.7070688 -0.5984631 -0.3766901
vn -0.7698498 -0.6223716 -0.141367
vn -0.7698499 -0.6223716 -0.141367
vn -0.7698498 -0.6223716 -0.141367
vn -0.7698498 -0.6223716 -0.141367
vn -0.7534447 -0.6394892 0.1528863
vn -0.7534448 -0.6394893 0.1528863
vn -0.7534448 -0.6394893 0.1528863
vn -0.7534447 -0.6394892 0.1528863
vn -0.03247717 -0.7323163 0.6801895
vn -0.0324772 -0.7323163 0.6801894
vn -0.0324772 -0.7323163 0.6801894
vn -0.03247714 -0.7323163 0.6801895
vn 0.3330596 -0.7671728 0.5481943
vn 0.3330596 -0.7671728 0.5481943
vn 0.3330596 -0.7671728 0.5481943
vn 0.3330596 -0.7671728 0.5481943
vn 0.1119308 -0.6962203 0.7090477
vn 0.1119309 -0.6962202 0.7090477
vn 0.1119308 -0.6962203 0.7090477
vn 0.1119308 -0.6962202 0.7090476
vn 0.9883347 -0.1061629 0.1091962
vn 0.9883347 -0.1061629 0.1091963
vn 0.9883347 -0.1061629 0.1091963
vn 0.9883347 -0.1061629 0.1091962
vn 0.8126427 -0.02634233 -0.5821664
vn 0.8126427 -0.02634233 -0.5821664
vn 0.8126427 -0.02634233 -0.5821664
vn 0.8126427 -0.02634233 -0.5821664
vn -0.01879847 0.0921327 -0.9955692
vn -0.01879847 0.0921327 -0.9955692
vn -0.01879847 0.0921327 -0.9955692
vn -0.01879847 0.0921327 -0.9955692
vn 0.1303651 0.07696144 -0.9884744
vn 0.1303651 0.07696145 -0.9884745
vn 0.1303651 0.07696144 -0.9884744
vn 0.1303651 0.07696144 -0.9884744
vn -0.9063101 0.1248902 -0.4037378
vn -0.9063101 0.1248902 -0.4037378
vn -0.9063102 0.1248902 -0.4037378
vn -0.9063101 0.1248902 -0.4037378
vn -0.9887927 0.1058525 -0.1052822
vn -0.9887927 0.1058525 -0.1052822
vn -0.9887927 0.1058525 -0.1052822
vn -0.9887927 0.1058525 -0.1052822
vn -0.9445153 0.0627461 0.3224184
vn -0.9445153 0.0627461 0.3224184
vn -0.9445153 0.0627461 0.3224184
vn -0.9445153 0.0627461 0.3224184
vn -0.008568287 -0.08950183 0.9959497
vn -0.008568287 -0.08950183 0.9959497
vn -0.008568287 -0.08950183 0.9959497
vn -0.008568287 -0.08950183 0.9959497
vn 0.4433439 -0.1237037 0.8877745
vn 0.4433439 -0.1237037 0.8877745
vn 0.4433439 -0.1237037 0.8877745
vn 0.4433439 -0.1237037 0.8877745
vn 0.3313581 -0.1171892 0.9361989
vn 0.3313581 -0.1171892 0.9361989
vn 0.3313581 -0.1171892 0.9361989
vn 0.3313581 -0.1171892 0.9361989
vn 0.9859506 0.1069702 0.1282921
vn 0.9859505 0.1069702 0.1282921
vn 0.9859505 0.1069702 0.1282921
vn 0.9859505 0.1069702 0.1282921
vn 0.8104426 0.194377 -0.5526302
vn 0.8104426 0.194377 -0.5526302
vn 0.8104426 0.194377 -0.5526302
vn 0.8104426 0.194377 -0.5526302
vn -0.03049606 0.3491016 -0.9365884
vn -0.03049609 0.3491016 -0.9365884
vn -0.030496 0.3491016 -0.9365884
vn -0.03049606 0.3491015 -0.9365884
vn 0.1827462 0.3232985 -0.9284836
vn 0.1827462 0.3232985 -0.9284836
vn 0.1827462 0.3232985 -0.9284836
vn 0.1827461 0.3232985 -0.9284836
vn -0.8673564 0.3614399 -0.3421317
vn -0.8673564 0.3614399 -0.3421317
vn -0.8673563 0.3614399 -0.3421317
vn -0.8673564 0.3614399 -0.3421317
vn -0.9209787 0.3815844 -0.07868487
vn -0.9209787 0.3815844 -0.07868496
vn -0.9209787 0.3815845 -0.07868493
vn -0.9209787 0.3815845 -0.07868493
vn -0.8981637 0.303113 0.3184716
vn -0.8981637 0.303113 0.3184717
vn -0.8981637 0.303113 0.3184716
vn -0.8981637 0.303113 0.3184716
vn 0.04520461 0.1001516 0.9939446
vn 0.04520461 0.1001516 0.9939446
vn 0.04520458 0.1001516 0.9939446
vn 0.04520461 0.1001516 0.9939446
vn 0.463939 0.1143854 0.8784511
vn 0.4639391 0.1143854 0.8784512
vn 0.4639391 0.1143854 0.8784512
vn 0.4639391 0.1143853 0.8784512
vn 0.3127195 0.0634144 0.9477262
vn 0.3127195 0.06341441 0.9477262
vn 0.3127195 0.06341442 0.9477262
vn 0.3127195 0.06341443 0.9477262
vn 0.6211526 0.7709574 0.1406903
vn 0.6211526 0.7709574 0.1406903
vn 0.6211526 0.7709574 0.1406903
vn 0.6211526 0.7709574 0.1406903
vn 0.3881741 0.8825354 -0.2654276
vn 0.3881741 0.8825353 -0.2654276
vn 0.3881741 0.8825354 -0.2654276
vn 0.3881741 0.8825354 -0.2654276
vn 0.08804134 0.9059818 -0.4140595
vn 0.08804137 0.9059818 -0.4140595
vn 0.08804134 0.9059818 -0.4140595
vn 0.08804137 0.9059818 -0.4140595
vn 0.1721491 0.8416577 -0.5118365
vn 0.1721491 0.8416578 -0.5118365
vn 0.1721491 0.8416578 -0.5118365
vn 0.1721491 0.8416578 -0.5118365
vn -0.4418943 0.8830905 -0.1577342
vn -0.4418943 0.8830906 -0.1577342
vn -0.4418944 0.8830906 -0.1577342
vn -0.4418943 0.8830905 -0.1577342
vn -0.4823501 0.8759587 0.005862996
vn -0.4823501 0.8759586 0.005862936
vn -0.4823501 0.8759586 0.005862966
vn -0.4823501 0.8759586 0.005862936
vn -0.4772305 0.8510595 0.218971
vn -0.4772305 0.8510595 0.218971
vn -0.4772305 0.8510595 0.218971
vn -0.4772305 0.8510595 0.218971
vn 0.1638004 0.7267994 0.6670319
vn 0.1638004 0.7267994 0.667032
vn 0.1638004 0.7267994 0.667032
vn 0.1638004 0.7267994 0.667032
vn 0.451948 0.712901 0.536204
vn 0.451948 0.7129011 0.5362039
vn 0.451948 0.7129011 0.536204
vn 0.451948 0.712901 0.536204
vn 0.1334119 0.6588518 0.7403482
vn 0.1334119 0.6588519 0.7403482
vn 0.1334119 0.6588518 0.7403482
vn 0.1334119 0.6588518 0.7403482
vn 0.3856378 0.9143367 0.1235776
vn 0.3856378 0.9143367 0.1235776
vn 0.3856378 0.9143367 0.1235776
vn 0.2322526 0.9295865 -0.2862293
vn 0.2322527 0.9295865 -0.2862293
vn 0.2322526 0.9295865 -0.2862293
vn 0.1873592 0.9285837 -0.3203566
vn 0.1873592 0.9285837 -0.3203566
vn 0.1873592 0.9285837 -0.3203566
vn 0.1229437 0.9356003 -0.3309629
vn 0.1229437 0.9356003 -0.330963
vn 0.1229437 0.9356003 -0.330963
vn -0.2322761 0.9657273 -0.1158371
vn -0.2322761 0.9657273 -0.1158371
vn -0.2322761 0.9657273 -0.1158371
vn -0.2925442 0.9557229 0.03179824
vn -0.2925442 0.9557229 0.03179823
vn -0.2925442 0.9557229 0.03179823
vn -0.2639456 0.9517418 0.1565881
vn -0.2639456 0.9517418 0.1565881
vn -0.2639456 0.9517418 0.1565881
vn 0.1900382 0.8668156 0.4609943
vn 0.1900383 0.8668156 0.4609943
vn 0.1900383 0.8668155 0.4609944
vn 0.5017104 0.7455135 0.4387438
vn 0.5017104 0.7455135 0.4387438
vn 0.5017104 0.7455136 0.4387438
vn 0.01733962 0.72091 0.6928115
vn 0.01733959 0.72091 0.6928115
vn 0.01733962 0.72091 0.6928116

vt 0.5483398 0.007648468
vt 0.5 0.1500244
vt 0.6264648 0.06439209
vt 0.4516602 0.007648468
vt 0.3735352 0.06439209
vt 0.34375 0.15625
vt 0.3735352 0.2480469
vt 0.4516602 0.3049316
vt 0.5483398 0.3049316
vt 0.6264648 0.2480469
vt 0.65625 0.15625
vt 0 0
vt 0 1
vt 1 1
vt 1 0
vt 0 0
vt 0 1
vt 1 1
vt 1 0
vt 0 0
vt 0 1
vt 1 1
vt 1 0
vt 0 0
vt 0 1
vt 1 1
vt 1 0
vt 0 0
vt 0 1
vt 1 1
vt 1 0
vt 0 0
vt 0 1
vt 1 1
vt 1 0
vt 0 0
vt 0 1
vt 1 1
vt 1 0
vt 0 0
vt 0 1
vt 1 1
vt 1 0
vt 0 0
vt 0 1
vt 1 1
vt 1 0
vt 0 0
vt 0 1
vt 1 1
vt 1 0
vt 0 0
vt 0 1
vt 1 1
vt 1 0
vt 0 0
vt 0 1
vt 1 1
vt 1 0
vt 0 0
vt 0 1
vt 1 1
vt 1 0
vt 0 0
vt 0 1
vt 1 1
vt 1 0
vt 0 0
vt 0 1
vt 1 1
vt 1 0
vt 0 0
vt 0 1
vt 1 1
vt 1 0
vt 0 0
vt 0 1
vt 1 1
vt 1 0
vt 0 0
vt 0 1
vt 1 1
vt 1 0
vt 0 0
vt 0 1
vt 1 1
vt 1 0
vt 0 0
vt 0 1
vt 1 1
vt 1 0
vt 0 0
vt 0 1
vt 1 1
vt 1 0
vt 0 0
vt 0 1
vt 1 1
vt 1 0
vt 0 0
vt 0 1
vt 1 1
vt 1 0
vt 0 0
vt 0 1
vt 1 1
vt 1 0
vt 0 0
vt 0 1
vt 1 1
vt 1 0
vt 0 0
vt 0 1
vt 1 1
vt 1 0
vt 0 0
vt 0 1
vt 1 1
vt 1 0
vt 0 0
vt 0 1
vt 1 1
vt 1 0
vt 0 0
vt 0 1
vt 1 1
vt 1 0
vt 0 0
vt 0 1
vt 1 1
vt 1 0
vt 0 0
vt 0 1
vt 1 1
vt 1 0
vt 0 0
vt 0 1
vt 1 1
vt 1 0
vt 0 0
vt 0 1
vt 1 1
vt 1 0
vt 0 0
vt 0 1
vt 1 1
vt 1 0
vt 0 0
vt 0 1
vt 1 1
vt 1 0
vt 0 0
vt 0 1
vt 1 1
vt 1 0
vt 0 0
vt 0 1
vt 1 1
vt 1 0
vt 0 0
vt 0 1
vt 1 1
vt 1 0
vt 0 0
vt 0 1
vt 1 1
vt 1 0
vt 0 0
vt 0 1
vt 1 1
vt 1 0
vt 0 0
vt 0.5 1
vt 1 0
vt 0 0
vt 0.5 1
vt 1 0
vt 0 0
vt 0.5 1
vt 1 0
vt 0 0
vt 0.5 1
vt 1 0
vt 0 0
vt 0.5 1
vt 1 0
vt 0 0
vt 0.5 1
vt 1 0
vt 0 0
vt 0.5 1
vt 1 0
vt 0 0
vt 0.5 1
vt 1 0
vt 0 0
vt 0.5 1
vt 1 0
vt 0 0
vt 0.5 1
vt 1 0

g Foliage1_9_3884_82
usemtl Foliage1_9_3884_82
usemap Foliage1_9_3884_82
f 1/1/1 3/3/3 2/2/2
f 4/4/4 1/1/1 2/2/2
f 5/5/5 4/4/4 2/2/2
f 6/6/6 5/5/5 2/2/2
f 7/7/7 6/6/6 2/2/2
f 8/8/8 7/7/7 2/2/2
f 9/9/9 8/8/8 2/2/2
f 10/10/10 9/9/9 2/2/2
f 11/11/11 10/10/10 2/2/2
f 3/3/3 11/11/11 2/2/2
f 12/12/12 14/14/14 13/13/13
f 12/12/12 15/15/15 14/14/14
f 16/16/16 18/18/18 17/17/17
f 16/16/16 19/19/19 18/18/18
f 20/20/20 22/22/22 21/21/21
f 20/20/20 23/23/23 22/22/22
f 24/24/24 26/26/26 25/25/25
f 24/24/24 27/27/27 26/26/26
f 28/28/28 30/30/30 29/29/29
f 28/28/28 31/31/31 30/30/30
f 32/32/32 34/34/34 33/33/33
f 32/32/32 35/35/35 34/34/34
f 36/36/36 38/38/38 37/37/37
f 36/36/36 39/39/39 38/38/38
f 40/40/40 42/42/42 41/41/41
f 40/40/40 43/43/43 42/42/42
f 44/44/44 46/46/46 45/45/45
f 44/44/44 47/47/47 46/46/46
f 48/48/48 50/50/50 49/49/49
f 48/48/48 51/51/51 50/50/50
f 52/52/52 54/54/54 53/53/53
f 52/52/52 55/55/55 54/54/54
f 56/56/56 58/58/58 57/57/57
f 56/56/56 59/59/59 58/58/58
f 60/60/60 62/62/62 61/61/61
f 60/60/60 63/63/63 62/62/62
f 64/64/64 66/66/66 65/65/65
f 64/64/64 67/67/67 66/66/66
f 68/68/68 70/70/70 69/69/69
f 68/68/68 71/71/71 70/70/70
f 72/72/72 74/74/74 73/73/73
f 72/72/72 75/75/75 74/74/74
f 76/76/76 78/78/78 77/77/77
f 76/76/76 79/79/79 78/78/78
f 80/80/80 82/82/82 81/81/81
f 80/80/80 83/83/83 82/82/82
f 84/84/84 86/86/86 85/85/85
f 84/84/84 87/87/87 86/86/86
f 88/88/88 90/90/90 89/89/89
f 88/88/88 91/91/91 90/90/90
f 92/92/92 94/94/94 93/93/93
f 92/92/92 95/95/95 94/94/94
f 96/96/96 98/98/98 97/97/97
f 96/96/96 99/99/99 98/98/98
f 100/100/100 102/102/102 101/101/101
f 100/100/100 103/103/103 102/102/102
f 104/104/104 106/106/106 105/105/105
f 104/104/104 107/107/107 106/106/106
f 108/108/108 110/110/110 109/109/109
f 108/108/108 111/111/111 110/110/110
f 112/112/112 114/114/114 113/113/113
f 112/112/112 115/115/115 114/114/114
f 116/116/116 118/118/118 117/117/117
f 116/116/116 119/119/119 118/118/118
f 120/120/120 122/122/122 121/121/121
f 120/120/120 123/123/123 122/122/122
f 124/124/124 126/126/126 125/125/125
f 124/124/124 127/127/127 126/126/126
f 128/128/128 130/130/130 129/129/129
f 128/128/128 131/131/131 130/130/130
f 132/132/132 134/134/134 133/133/133
f 132/132/132 135/135/135 134/134/134
f 136/136/136 138/138/138 137/137/137
f 136/136/136 139/139/139 138/138/138
f 140/140/140 142/142/142 141/141/141
f 140/140/140 143/143/143 142/142/142
f 144/144/144 146/146/146 145/145/145
f 144/144/144 147/147/147 146/146/146
f 148/148/148 150/150/150 149/149/149
f 148/148/148 151/151/151 150/150/150
f 152/152/152 154/154/154 153/153/153
f 152/152/152 155/155/155 154/154/154
f 156/156/156 158/158/158 157/157/157
f 156/156/156 159/159/159 158/158/158
f 160/160/160 162/162/162 161/161/161
f 160/160/160 163/163/163 162/162/162
f 164/164/164 166/166/166 165/165/165
f 164/164/164 167/167/167 166/166/166
f 168/168/168 170/170/170 169/169/169
f 168/168/168 171/171/171 170/170/170
f 172/172/172 174/174/174 173/173/173
f 175/175/175 177/177/177 176/176/176
f 178/178/178 180/180/180 179/179/179
f 181/181/181 183/183/183 182/182/182
f 184/184/184 186/186/186 185/185/185
f 187/187/187 189/189/189 188/188/188
f 190/190/190 192/192/192 191/191/191
f 193/193/193 195/195/195 194/194/194
f 196/196/196 198/198/198 197/197/197
f 199/199/199 201/201/201 200/200/200
