#Foliage8_36_3261_132.obj

v 0.01454506 -0.02577552 -0.04036078
v 0.004623524 -0.03397599 0.001089383
v 0.03878422 -0.02577556 -0.02105691
v -0.009663666 -0.02577554 -0.03817734
v -0.0182511 -0.02577554 -0.01778289
v -0.03822247 -0.02223212 0.001089341
v -0.0213512 -0.02577554 0.01996077
v -0.005297854 -0.02577554 0.03271578
v 0.0210937 -0.02577554 0.04035583
v 0.0305983 -0.02577556 0.01996096
v 0.03218911 -0.02223211 0.001088946
v 0.03878422 -0.02577556 -0.02105691
v 0.04796665 -0.0148923 -0.02772798
v 0.01805226 -0.01489229 -0.05115486
v 0.01454506 -0.02577552 -0.04036078
v 0.01454506 -0.02577552 -0.04036078
v 0.01805226 -0.01489229 -0.05115486
v -0.01317108 -0.01489232 -0.04897158
v -0.009663666 -0.02577554 -0.03817734
v -0.009663666 -0.02577554 -0.03817734
v -0.01317108 -0.01489232 -0.04897158
v -0.0274336 -0.01489231 -0.0244537
v -0.0182511 -0.02577554 -0.01778289
v -0.0182511 -0.02577554 -0.01778289
v -0.0274336 -0.01489231 -0.0244537
v -0.04796728 -0.0128881 0.001089253
v -0.03822247 -0.02223212 0.001089341
v -0.03822247 -0.02223212 0.001089341
v -0.04796728 -0.0128881 0.001089253
v -0.03053364 -0.01489229 0.02663225
v -0.0213512 -0.02577554 0.01996077
v -0.0213512 -0.02577554 0.01996077
v -0.03053364 -0.01489229 0.02663225
v -0.008805292 -0.0148923 0.04351024
v -0.005297854 -0.02577554 0.03271578
v -0.005297854 -0.02577554 0.03271578
v -0.008805292 -0.0148923 0.04351024
v 0.02460111 -0.01489229 0.05115048
v 0.0210937 -0.02577554 0.04035583
v 0.0210937 -0.02577554 0.04035583
v 0.02460111 -0.01489229 0.05115048
v 0.03978079 -0.01489228 0.02663218
v 0.0305983 -0.02577556 0.01996096
v 0.0305983 -0.02577556 0.01996096
v 0.03978079 -0.01489228 0.02663218
v 0.04193394 -0.0128881 0.001089361
v 0.03218911 -0.02223211 0.001088946
v 0.03218911 -0.02223211 0.001088946
v 0.04193394 -0.0128881 0.001089361
v 0.04796665 -0.0148923 -0.02772798
v 0.03878422 -0.02577556 -0.02105691
v 0.04796665 -0.0148923 -0.02772798
v 0.0479666 -0.0001482138 -0.02772857
v 0.01805236 -0.0001482431 -0.05115457
v 0.01805226 -0.01489229 -0.05115486
v 0.01805226 -0.01489229 -0.05115486
v 0.01805236 -0.0001482431 -0.05115457
v -0.01317113 -0.000148236 -0.04897216
v -0.01317108 -0.01489232 -0.04897158
v -0.01317108 -0.01489232 -0.04897158
v -0.01317113 -0.000148236 -0.04897216
v -0.02743343 -0.000148229 -0.02445425
v -0.0274336 -0.01489231 -0.0244537
v -0.0274336 -0.01489231 -0.0244537
v -0.02743343 -0.000148229 -0.02445425
v -0.04796711 -0.000229311 0.001089056
v -0.04796728 -0.0128881 0.001089253
v -0.04796728 -0.0128881 0.001089253
v -0.04796711 -0.000229311 0.001089056
v -0.03053353 -0.0001482393 0.02663254
v -0.03053364 -0.01489229 0.02663225
v -0.03053364 -0.01489229 0.02663225
v -0.03053353 -0.0001482393 0.02663254
v -0.008805187 -0.000148247 0.04351054
v -0.008805292 -0.0148923 0.04351024
v -0.008805292 -0.0148923 0.04351024
v -0.008805187 -0.000148247 0.04351054
v 0.02460099 -0.00014823 0.05115074
v 0.02460111 -0.01489229 0.05115048
v 0.02460111 -0.01489229 0.05115048
v 0.02460099 -0.00014823 0.05115074
v 0.03978067 -0.000148223 0.02663244
v 0.03978079 -0.01489228 0.02663218
v 0.03978079 -0.01489228 0.02663218
v 0.03978067 -0.000148223 0.02663244
v 0.04193388 -0.000229292 0.001089134
v 0.04193394 -0.0128881 0.001089361
v 0.04193394 -0.0128881 0.001089361
v 0.04193388 -0.000229292 0.001089134
v 0.0479666 -0.0001482138 -0.02772857
v 0.04796665 -0.0148923 -0.02772798
v 0.0479666 -0.0001482138 -0.02772857
v 0.04568855 0.01428348 -0.0253989
v 0.01714479 0.01428345 -0.04799354
v 0.01805236 -0.0001482431 -0.05115457
v 0.01805236 -0.0001482431 -0.05115457
v 0.01714479 0.01428345 -0.04799354
v -0.0118295 0.01428346 -0.04560017
v -0.01317113 -0.000148236 -0.04897216
v -0.01317113 -0.000148236 -0.04897216
v -0.0118295 0.01428346 -0.04560017
v -0.02321062 0.01428345 -0.02180818
v -0.02743343 -0.000148229 -0.02445425
v -0.02743343 -0.000148229 -0.02445425
v -0.02321062 0.01428345 -0.02180818
v -0.04530448 0.01197218 0.001194329
v -0.04796711 -0.000229311 0.001089056
v -0.04796711 -0.000229311 0.001089056
v -0.04530448 0.01197218 0.001194329
v -0.02661005 0.01428345 0.02419809
v -0.03053353 -0.0001482393 0.02663254
v -0.03053353 -0.0001482393 0.02663254
v -0.02661005 0.01428345 0.02419809
v -0.007042136 0.01428349 0.03961113
v -0.008805187 -0.000148247 0.04351054
v -0.008805187 -0.000148247 0.04351054
v -0.007042136 0.01428349 0.03961113
v 0.02432569 0.01428345 0.0479889
v 0.02460099 -0.00014823 0.05115074
v 0.02460099 -0.00014823 0.05115074
v 0.02432569 0.01428345 0.0479889
v 0.03671245 0.01428345 0.02419755
v 0.03978067 -0.000148223 0.02663244
v 0.03978067 -0.000148223 0.02663244
v 0.03671245 0.01428345 0.02419755
v 0.03865164 0.0119722 0.001194291
v 0.04193388 -0.000229292 0.001089134
v 0.04193388 -0.000229292 0.001089134
v 0.03865164 0.0119722 0.001194291
v 0.04568855 0.01428348 -0.0253989
v 0.0479666 -0.0001482138 -0.02772857
v 0.04568855 0.01428348 -0.0253989
v 0.03225218 0.02437449 -0.01614988
v 0.01203616 0.02437449 -0.03257097
v 0.01714479 0.01428345 -0.04799354
v 0.01714479 0.01428345 -0.04799354
v 0.01203616 0.02437449 -0.03257097
v -0.002592652 0.02437452 -0.02139615
v -0.0118295 0.01428346 -0.04560017
v -0.0118295 0.01428346 -0.04560017
v -0.002592652 0.02437452 -0.02139615
v -0.0112534 0.02437452 -0.0127977
v -0.02321062 0.01428345 -0.02180818
v -0.02321062 0.01428345 -0.02180818
v -0.0112534 0.02437452 -0.0127977
v -0.03124507 0.02074657 0.001115385
v -0.04530448 0.01197218 0.001194329
v -0.04530448 0.01197218 0.001194329
v -0.03124507 0.02074657 0.001115385
v -0.01442757 0.02437451 0.01502817
v -0.02661005 0.01428345 0.02419809
v -0.02661005 0.01428345 0.02419809
v -0.01442757 0.02437451 0.01502817
v -0.002592474 0.02437451 0.02474385
v -0.007042136 0.01428349 0.03961113
v -0.007042136 0.01428349 0.03961113
v -0.002592474 0.02437451 0.02474385
v 0.01874105 0.02437451 0.03256631
v 0.02432569 0.01428345 0.0479889
v 0.02432569 0.01428345 0.0479889
v 0.01874105 0.02437451 0.03256631
v 0.02387103 0.02437449 0.01502791
v 0.03671245 0.01428345 0.02419755
v 0.03671245 0.01428345 0.02419755
v 0.02387103 0.02437449 0.01502791
v 0.02504378 0.02074655 0.001115497
v 0.03865164 0.0119722 0.001194291
v 0.03865164 0.0119722 0.001194291
v 0.02504378 0.02074655 0.001115497
v 0.03225218 0.02437449 -0.01614988
v 0.04568855 0.01428348 -0.0253989
v 0.03225218 0.02437449 -0.01614988
v 0.004623589 0.03397613 0.001089664
v 0.01203616 0.02437449 -0.03257097
v 0.01203616 0.02437449 -0.03257097
v 0.004623589 0.03397613 0.001089664
v -0.002592652 0.02437452 -0.02139615
v -0.002592652 0.02437452 -0.02139615
v 0.004623589 0.03397613 0.001089664
v -0.0112534 0.02437452 -0.0127977
v -0.0112534 0.02437452 -0.0127977
v 0.004623589 0.03397613 0.001089664
v -0.03124507 0.02074657 0.001115385
v -0.03124507 0.02074657 0.001115385
v 0.004623589 0.03397613 0.001089664
v -0.01442757 0.02437451 0.01502817
v -0.01442757 0.02437451 0.01502817
v 0.004623589 0.03397613 0.001089664
v -0.002592474 0.02437451 0.02474385
v -0.002592474 0.02437451 0.02474385
v 0.004623589 0.03397613 0.001089664
v 0.01874105 0.02437451 0.03256631
v 0.01874105 0.02437451 0.03256631
v 0.004623589 0.03397613 0.001089664
v 0.02387103 0.02437449 0.01502791
v 0.02387103 0.02437449 0.01502791
v 0.004623589 0.03397613 0.001089664
v 0.02504378 0.02074655 0.001115497
v 0.02504378 0.02074655 0.001115497
v 0.004623589 0.03397613 0.001089664
v 0.03225218 0.02437449 -0.01614988

vn 0.1054475 -0.9776874 -0.181681
vn 0.06386145 -0.9971929 0.03908917
vn 0.3013882 -0.9523124 -0.04760436
vn -0.07776861 -0.9840009 -0.160294
vn -0.2878772 -0.9559942 -0.05658457
vn -0.2794572 -0.9591724 0.04349565
vn -0.2085385 -0.9591959 0.1909315
vn -0.02928054 -0.9510405 0.3076761
vn 0.1652578 -0.9555053 0.2443349
vn 0.4136296 -0.9096639 0.03771126
vn 0.5389403 -0.8355519 0.1067538
vn 0.4620475 -0.6355245 -0.6185634
vn 0.4620475 -0.6355246 -0.6185634
vn 0.4620475 -0.6355246 -0.6185634
vn 0.4620475 -0.6355246 -0.6185634
vn -0.1386673 -0.6610876 -0.7373835
vn -0.1386673 -0.6610877 -0.7373835
vn -0.1386673 -0.6610876 -0.7373835
vn -0.1386673 -0.6610877 -0.7373835
vn -0.7532443 -0.6015427 -0.2660251
vn -0.7532444 -0.6015426 -0.2660251
vn -0.7532443 -0.6015427 -0.2660251
vn -0.7532444 -0.6015426 -0.2660251
vn -0.6762307 -0.6298959 -0.3820251
vn -0.6762308 -0.6298958 -0.382025
vn -0.6762308 -0.6298959 -0.3820251
vn -0.6762308 -0.6298959 -0.382025
vn -0.6011184 -0.6309097 0.4905197
vn -0.6011184 -0.6309097 0.4905197
vn -0.6011185 -0.6309096 0.4905197
vn -0.6011184 -0.6309096 0.4905197
vn -0.3825163 -0.6345088 0.6716248
vn -0.3825164 -0.6345088 0.6716248
vn -0.3825163 -0.6345088 0.6716248
vn -0.3825163 -0.6345088 0.6716248
vn -0.05775798 -0.6062217 0.7931955
vn -0.05775798 -0.6062218 0.7931955
vn -0.05775797 -0.6062218 0.7931955
vn -0.05775798 -0.6062217 0.7931955
vn 0.7889139 -0.5227157 0.3230837
vn 0.7889139 -0.5227157 0.3230838
vn 0.7889139 -0.5227157 0.3230838
vn 0.788914 -0.5227157 0.3230837
vn 0.8333661 -0.5487843 -0.06585311
vn 0.833366 -0.5487844 -0.06585311
vn 0.8333661 -0.5487843 -0.06585311
vn 0.8333661 -0.5487843 -0.06585312
vn 0.8582137 -0.4712736 0.2033975
vn 0.8582137 -0.4712735 0.2033975
vn 0.8582137 -0.4712736 0.2033975
vn 0.8582137 -0.4712735 0.2033975
vn 0.5457768 -0.001955225 -0.8379283
vn 0.5457769 -0.001955223 -0.8379283
vn 0.5457769 -0.001955223 -0.8379283
vn 0.5457768 -0.001955225 -0.8379283
vn -0.2181818 -0.03246396 -0.9753681
vn -0.2181818 -0.03246396 -0.9753681
vn -0.2181818 -0.03246396 -0.9753681
vn -0.2181818 -0.03246396 -0.9753681
vn -0.9194455 -0.04243964 -0.3909205
vn -0.9194455 -0.04243964 -0.3909205
vn -0.9194455 -0.04243964 -0.3909205
vn -0.9194455 -0.04243964 -0.3909205
vn -0.8568774 -0.04334157 -0.5136951
vn -0.8568774 -0.04334158 -0.5136951
vn -0.8568774 -0.04334157 -0.5136951
vn -0.8568774 -0.04334157 -0.5136951
vn -0.7850407 -0.01205397 0.6193269
vn -0.7850407 -0.01205397 0.6193269
vn -0.7850406 -0.01205396 0.6193269
vn -0.7850407 -0.01205397 0.6193269
vn -0.5421914 0.002141008 0.8402523
vn -0.5421914 0.002141008 0.8402523
vn -0.5421914 0.002141008 0.8402523
vn -0.5421914 0.002141008 0.8402523
vn -0.09673245 0.02182517 0.9950711
vn -0.09673245 0.02182517 0.9950711
vn -0.09673245 0.02182517 0.9950711
vn -0.09673245 0.02182517 0.9950711
vn 0.9093114 0.04266481 0.4139233
vn 0.9093114 0.04266481 0.4139233
vn 0.9093114 0.04266481 0.4139233
vn 0.9093114 0.04266481 0.4139233
vn 0.9993731 0.03527122 -0.003042574
vn 0.9993731 0.03527122 -0.003042567
vn 0.9993731 0.03527122 -0.003042574
vn 0.9993731 0.03527122 -0.003042567
vn 0.9932984 0.03790377 0.1091859
vn 0.9932984 0.03790377 0.1091859
vn 0.9932984 0.03790377 0.1091859
vn 0.9932984 0.03790377 0.1091859
vn 0.5285214 0.1763265 -0.830406
vn 0.5285214 0.1763265 -0.830406
vn 0.5285214 0.1763265 -0.830406
vn 0.5285214 0.1763265 -0.830406
vn -0.2311323 0.1503704 -0.9612318
vn -0.2311323 0.1503704 -0.9612318
vn -0.2311323 0.1503704 -0.9612318
vn -0.2311323 0.1503704 -0.9612318
vn -0.9207716 0.1582677 -0.3565544
vn -0.9207716 0.1582676 -0.3565544
vn -0.9207716 0.1582677 -0.3565545
vn -0.9207716 0.1582676 -0.3565544
vn -0.8310838 0.1550293 -0.5341027
vn -0.8310837 0.1550293 -0.5341027
vn -0.8310838 0.1550293 -0.5341027
vn -0.8310838 0.1550293 -0.5341027
vn -0.7599074 0.1897034 0.6217341
vn -0.7599074 0.1897034 0.6217341
vn -0.7599075 0.1897034 0.6217341
vn -0.7599074 0.1897034 0.6217341
vn -0.5437908 0.2393013 0.8043795
vn -0.5437908 0.2393013 0.8043795
vn -0.5437908 0.2393013 0.8043795
vn -0.5437908 0.2393013 0.8043795
vn -0.1262888 0.2254703 0.9660302
vn -0.1262888 0.2254703 0.9660302
vn -0.1262888 0.2254703 0.9660302
vn -0.1262888 0.2254703 0.9660302
vn 0.9068975 0.1912836 0.3754297
vn 0.9068975 0.1912836 0.3754297
vn 0.9068975 0.1912837 0.3754297
vn 0.9068975 0.1912837 0.3754297
vn 0.9752826 0.2199361 -0.02125895
vn 0.9752826 0.2199361 -0.02125895
vn 0.9752826 0.2199361 -0.02125896
vn 0.9752826 0.2199361 -0.02125895
vn 0.9753977 0.1759486 0.1328211
vn 0.9753977 0.1759486 0.1328211
vn 0.9753977 0.1759486 0.1328211
vn 0.9753977 0.1759486 0.1328211
vn 0.2948476 0.7845827 -0.5454308
vn 0.2948476 0.7845827 -0.5454309
vn 0.2948476 0.7845827 -0.5454308
vn 0.2948476 0.7845827 -0.5454309
vn -0.2881331 0.8102292 -0.5103999
vn -0.2881331 0.8102292 -0.5103999
vn -0.2881331 0.8102292 -0.5103999
vn -0.2881331 0.8102292 -0.5103999
vn -0.5830873 0.7647593 -0.2741396
vn -0.5830872 0.7647592 -0.2741396
vn -0.5830873 0.7647593 -0.2741396
vn -0.5830872 0.7647592 -0.2741396
vn -0.6178213 0.6807935 -0.3934682
vn -0.6178212 0.6807935 -0.3934682
vn -0.6178212 0.6807935 -0.3934682
vn -0.6178212 0.6807935 -0.3934682
vn -0.5553178 0.7433878 0.3728228
vn -0.5553176 0.7433878 0.3728228
vn -0.5553178 0.7433878 0.3728229
vn -0.5553178 0.7433878 0.3728228
vn -0.4017382 0.7668369 0.5005672
vn -0.4017383 0.7668369 0.5005673
vn -0.4017383 0.7668369 0.5005673
vn -0.4017383 0.7668369 0.5005673
vn -0.1613536 0.7790011 0.6059061
vn -0.1613536 0.7790011 0.6059061
vn -0.1613536 0.7790011 0.6059061
vn -0.1613536 0.7790011 0.6059061
vn 0.6411094 0.7474412 0.174099
vn 0.6411094 0.7474411 0.174099
vn 0.6411094 0.7474411 0.1740991
vn 0.6411094 0.7474411 0.174099
vn 0.6427258 0.7468273 -0.1707409
vn 0.6427256 0.7468274 -0.1707409
vn 0.6427258 0.7468274 -0.1707409
vn 0.6427258 0.7468273 -0.1707409
vn 0.6995933 0.6759048 0.2317798
vn 0.6995933 0.6759049 0.2317798
vn 0.6995933 0.6759048 0.2317798
vn 0.6995933 0.6759048 0.2317798
vn 0.1393445 0.9346147 -0.3272286
vn 0.1393445 0.9346147 -0.3272286
vn 0.1393445 0.9346147 -0.3272286
vn -0.397087 0.8421715 -0.3647862
vn -0.397087 0.8421715 -0.3647863
vn -0.397087 0.8421715 -0.3647862
vn -0.4528256 0.826666 -0.3340245
vn -0.4528256 0.826666 -0.3340246
vn -0.4528256 0.826666 -0.3340245
vn -0.495377 0.8243955 -0.2738134
vn -0.4953771 0.8243955 -0.2738134
vn -0.4953771 0.8243955 -0.2738134
vn -0.4453113 0.8739235 0.1948223
vn -0.4453112 0.8739235 0.1948223
vn -0.4453113 0.8739235 0.1948223
vn -0.3098417 0.8895468 0.3357152
vn -0.3098417 0.8895468 0.3357152
vn -0.3098417 0.8895468 0.3357152
vn -0.1544969 0.9144606 0.374022
vn -0.1544969 0.9144606 0.374022
vn -0.1544969 0.9144606 0.374022
vn 0.4319317 0.9002687 0.05432547
vn 0.4319318 0.9002687 0.05432547
vn 0.4319318 0.9002686 0.05432547
vn 0.5641016 0.7799832 -0.2709533
vn 0.5641016 0.7799832 -0.2709533
vn 0.5641016 0.7799832 -0.2709533
vn 0.5993835 0.7305241 0.3272218
vn 0.5993834 0.7305241 0.3272219
vn 0.5993835 0.7305241 0.3272218

vt 0.5482839 0.007647395
vt 0.5 0.15
vt 0.6264089 0.06440853
vt 0.4517161 0.00764741
vt 0.3735911 0.06440856
vt 0.34375 0.15625
vt 0.3735911 0.2480915
vt 0.4517161 0.3048526
vt 0.5482839 0.3048526
vt 0.6264089 0.2480914
vt 0.65625 0.15625
vt 0 0
vt 0 1
vt 1 1
vt 1 0
vt 0 0
vt 0 1
vt 1 1
vt 1 0
vt 0 0
vt 0 1
vt 1 1
vt 1 0
vt 0 0
vt 0 1
vt 1 1
vt 1 0
vt 0 0
vt 0 1
vt 1 1
vt 1 0
vt 0 0
vt 0 1
vt 1 1
vt 1 0
vt 0 0
vt 0 1
vt 1 1
vt 1 0
vt 0 0
vt 0 1
vt 1 1
vt 1 0
vt 0 0
vt 0 1
vt 1 1
vt 1 0
vt 0 0
vt 0 1
vt 1 1
vt 1 0
vt 0 0
vt 0 1
vt 1 1
vt 1 0
vt 0 0
vt 0 1
vt 1 1
vt 1 0
vt 0 0
vt 0 1
vt 1 1
vt 1 0
vt 0 0
vt 0 1
vt 1 1
vt 1 0
vt 0 0
vt 0 1
vt 1 1
vt 1 0
vt 0 0
vt 0 1
vt 1 1
vt 1 0
vt 0 0
vt 0 1
vt 1 1
vt 1 0
vt 0 0
vt 0 1
vt 1 1
vt 1 0
vt 0 0
vt 0 1
vt 1 1
vt 1 0
vt 0 0
vt 0 1
vt 1 1
vt 1 0
vt 0 0
vt 0 1
vt 1 1
vt 1 0
vt 0 0
vt 0 1
vt 1 1
vt 1 0
vt 0 0
vt 0 1
vt 1 1
vt 1 0
vt 0 0
vt 0 1
vt 1 1
vt 1 0
vt 0 0
vt 0 1
vt 1 1
vt 1 0
vt 0 0
vt 0 1
vt 1 1
vt 1 0
vt 0 0
vt 0 1
vt 1 1
vt 1 0
vt 0 0
vt 0 1
vt 1 1
vt 1 0
vt 0 0
vt 0 1
vt 1 1
vt 1 0
vt 0 0
vt 0 1
vt 1 1
vt 1 0
vt 0 0
vt 0 1
vt 1 1
vt 1 0
vt 0 0
vt 0 1
vt 1 1
vt 1 0
vt 0 0
vt 0 1
vt 1 1
vt 1 0
vt 0 0
vt 0 1
vt 1 1
vt 1 0
vt 0 0
vt 0 1
vt 1 1
vt 1 0
vt 0 0
vt 0 1
vt 1 1
vt 1 0
vt 0 0
vt 0 1
vt 1 1
vt 1 0
vt 0 0
vt 0 1
vt 1 1
vt 1 0
vt 0 0
vt 0 1
vt 1 1
vt 1 0
vt 0 0
vt 0 1
vt 1 1
vt 1 0
vt 0 0
vt 0.5 1
vt 1 0
vt 0 0
vt 0.5 1
vt 1 0
vt 0 0
vt 0.5 1
vt 1 0
vt 0 0
vt 0.5 1
vt 1 0
vt 0 0
vt 0.5 1
vt 1 0
vt 0 0
vt 0.5 1
vt 1 0
vt 0 0
vt 0.5 1
vt 1 0
vt 0 0
vt 0.5 1
vt 1 0
vt 0 0
vt 0.5 1
vt 1 0
vt 0 0
vt 0.5 1
vt 1 0

g Foliage8_36_3261_132
usemtl Foliage8_36_3261_132
usemap Foliage8_36_3261_132
f 1/1/1 3/3/3 2/2/2
f 4/4/4 1/1/1 2/2/2
f 5/5/5 4/4/4 2/2/2
f 6/6/6 5/5/5 2/2/2
f 7/7/7 6/6/6 2/2/2
f 8/8/8 7/7/7 2/2/2
f 9/9/9 8/8/8 2/2/2
f 10/10/10 9/9/9 2/2/2
f 11/11/11 10/10/10 2/2/2
f 3/3/3 11/11/11 2/2/2
f 12/12/12 14/14/14 13/13/13
f 12/12/12 15/15/15 14/14/14
f 16/16/16 18/18/18 17/17/17
f 16/16/16 19/19/19 18/18/18
f 20/20/20 22/22/22 21/21/21
f 20/20/20 23/23/23 22/22/22
f 24/24/24 26/26/26 25/25/25
f 24/24/24 27/27/27 26/26/26
f 28/28/28 30/30/30 29/29/29
f 28/28/28 31/31/31 30/30/30
f 32/32/32 34/34/34 33/33/33
f 32/32/32 35/35/35 34/34/34
f 36/36/36 38/38/38 37/37/37
f 36/36/36 39/39/39 38/38/38
f 40/40/40 42/42/42 41/41/41
f 40/40/40 43/43/43 42/42/42
f 44/44/44 46/46/46 45/45/45
f 44/44/44 47/47/47 46/46/46
f 48/48/48 50/50/50 49/49/49
f 48/48/48 51/51/51 50/50/50
f 52/52/52 54/54/54 53/53/53
f 52/52/52 55/55/55 54/54/54
f 56/56/56 58/58/58 57/57/57
f 56/56/56 59/59/59 58/58/58
f 60/60/60 62/62/62 61/61/61
f 60/60/60 63/63/63 62/62/62
f 64/64/64 66/66/66 65/65/65
f 64/64/64 67/67/67 66/66/66
f 68/68/68 70/70/70 69/69/69
f 68/68/68 71/71/71 70/70/70
f 72/72/72 74/74/74 73/73/73
f 72/72/72 75/75/75 74/74/74
f 76/76/76 78/78/78 77/77/77
f 76/76/76 79/79/79 78/78/78
f 80/80/80 82/82/82 81/81/81
f 80/80/80 83/83/83 82/82/82
f 84/84/84 86/86/86 85/85/85
f 84/84/84 87/87/87 86/86/86
f 88/88/88 90/90/90 89/89/89
f 88/88/88 91/91/91 90/90/90
f 92/92/92 94/94/94 93/93/93
f 92/92/92 95/95/95 94/94/94
f 96/96/96 98/98/98 97/97/97
f 96/96/96 99/99/99 98/98/98
f 100/100/100 102/102/102 101/101/101
f 100/100/100 103/103/103 102/102/102
f 104/104/104 106/106/106 105/105/105
f 104/104/104 107/107/107 106/106/106
f 108/108/108 110/110/110 109/109/109
f 108/108/108 111/111/111 110/110/110
f 112/112/112 114/114/114 113/113/113
f 112/112/112 115/115/115 114/114/114
f 116/116/116 118/118/118 117/117/117
f 116/116/116 119/119/119 118/118/118
f 120/120/120 122/122/122 121/121/121
f 120/120/120 123/123/123 122/122/122
f 124/124/124 126/126/126 125/125/125
f 124/124/124 127/127/127 126/126/126
f 128/128/128 130/130/130 129/129/129
f 128/128/128 131/131/131 130/130/130
f 132/132/132 134/134/134 133/133/133
f 132/132/132 135/135/135 134/134/134
f 136/136/136 138/138/138 137/137/137
f 136/136/136 139/139/139 138/138/138
f 140/140/140 142/142/142 141/141/141
f 140/140/140 143/143/143 142/142/142
f 144/144/144 146/146/146 145/145/145
f 144/144/144 147/147/147 146/146/146
f 148/148/148 150/150/150 149/149/149
f 148/148/148 151/151/151 150/150/150
f 152/152/152 154/154/154 153/153/153
f 152/152/152 155/155/155 154/154/154
f 156/156/156 158/158/158 157/157/157
f 156/156/156 159/159/159 158/158/158
f 160/160/160 162/162/162 161/161/161
f 160/160/160 163/163/163 162/162/162
f 164/164/164 166/166/166 165/165/165
f 164/164/164 167/167/167 166/166/166
f 168/168/168 170/170/170 169/169/169
f 168/168/168 171/171/171 170/170/170
f 172/172/172 174/174/174 173/173/173
f 175/175/175 177/177/177 176/176/176
f 178/178/178 180/180/180 179/179/179
f 181/181/181 183/183/183 182/182/182
f 184/184/184 186/186/186 185/185/185
f 187/187/187 189/189/189 188/188/188
f 190/190/190 192/192/192 191/191/191
f 193/193/193 195/195/195 194/194/194
f 196/196/196 198/198/198 197/197/197
f 199/199/199 201/201/201 200/200/200
