#Foliage2_25_3480_66.obj

v 0.01454461 -0.02577562 -0.04035477
v 0.004623412 -0.03397606 0.001094591
v 0.038784 -0.02577564 -0.02105142
v -0.009663978 -0.02577565 -0.03817214
v -0.01825117 -0.02577563 -0.01777722
v -0.03822275 -0.0222322 0.001094608
v -0.02135164 -0.02577562 0.01996663
v -0.005298202 -0.02577566 0.03272106
v 0.02109343 -0.02577565 0.04036154
v 0.03059804 -0.02577562 0.01996667
v 0.0321891 -0.0222322 0.001094432
v 0.038784 -0.02577564 -0.02105142
v 0.04796613 -0.01489236 -0.02772269
v 0.01805203 -0.01489237 -0.05114936
v 0.01454461 -0.02577562 -0.04035477
v 0.01454461 -0.02577562 -0.04035477
v 0.01805203 -0.01489237 -0.05114936
v -0.01317149 -0.01489237 -0.04896643
v -0.009663978 -0.02577565 -0.03817214
v -0.009663978 -0.02577565 -0.03817214
v -0.01317149 -0.01489237 -0.04896643
v -0.02743374 -0.01489236 -0.02444876
v -0.01825117 -0.02577563 -0.01777722
v -0.01825117 -0.02577563 -0.01777722
v -0.02743374 -0.01489236 -0.02444876
v -0.04796752 -0.01288819 0.001094444
v -0.03822275 -0.0222322 0.001094608
v -0.03822275 -0.0222322 0.001094608
v -0.04796752 -0.01288819 0.001094444
v -0.03053394 -0.01489238 0.02663811
v -0.02135164 -0.02577562 0.01996663
v -0.02135164 -0.02577562 0.01996663
v -0.03053394 -0.01489238 0.02663811
v -0.008805486 -0.01489236 0.043516
v -0.005298202 -0.02577566 0.03272106
v -0.005298202 -0.02577566 0.03272106
v -0.008805486 -0.01489236 0.043516
v 0.02460077 -0.01489236 0.05115604
v 0.02109343 -0.02577565 0.04036154
v 0.02109343 -0.02577565 0.04036154
v 0.02460077 -0.01489236 0.05115604
v 0.03978041 -0.01489237 0.02663765
v 0.03059804 -0.02577562 0.01996667
v 0.03059804 -0.02577562 0.01996667
v 0.03978041 -0.01489237 0.02663765
v 0.04193353 -0.01288821 0.001094754
v 0.0321891 -0.0222322 0.001094432
v 0.0321891 -0.0222322 0.001094432
v 0.04193353 -0.01288821 0.001094754
v 0.04796613 -0.01489236 -0.02772269
v 0.038784 -0.02577564 -0.02105142
v 0.04796613 -0.01489236 -0.02772269
v 0.04796617 -0.0001483016 -0.02772279
v 0.01805207 -0.0001483156 -0.05114945
v 0.01805203 -0.01489237 -0.05114936
v 0.01805203 -0.01489237 -0.05114936
v 0.01805207 -0.0001483156 -0.05114945
v -0.01317145 -0.0001483089 -0.04896653
v -0.01317149 -0.01489237 -0.04896643
v -0.01317149 -0.01489237 -0.04896643
v -0.01317145 -0.0001483089 -0.04896653
v -0.0274337 -0.0001483076 -0.02444886
v -0.02743374 -0.01489236 -0.02444876
v -0.02743374 -0.01489236 -0.02444876
v -0.0274337 -0.0001483076 -0.02444886
v -0.04796774 -0.000229397 0.001094842
v -0.04796752 -0.01288819 0.001094444
v -0.04796752 -0.01288819 0.001094444
v -0.04796774 -0.000229397 0.001094842
v -0.0305339 -0.000148325 0.02663801
v -0.03053394 -0.01489238 0.02663811
v -0.03053394 -0.01489238 0.02663811
v -0.0305339 -0.000148325 0.02663801
v -0.008805445 -0.0001483054 0.04351591
v -0.008805486 -0.01489236 0.043516
v -0.008805486 -0.01489236 0.043516
v -0.008805445 -0.0001483054 0.04351591
v 0.02460081 -0.0001483058 0.05115595
v 0.02460077 -0.01489236 0.05115604
v 0.02460077 -0.01489236 0.05115604
v 0.02460081 -0.0001483058 0.05115595
v 0.03978045 -0.0001483163 0.02663755
v 0.03978041 -0.01489237 0.02663765
v 0.03978041 -0.01489237 0.02663765
v 0.03978045 -0.0001483163 0.02663755
v 0.04193361 -0.0002294057 0.001094527
v 0.04193353 -0.01288821 0.001094754
v 0.04193353 -0.01288821 0.001094754
v 0.04193361 -0.0002294057 0.001094527
v 0.04796617 -0.0001483016 -0.02772279
v 0.04796613 -0.01489236 -0.02772269
v 0.04796617 -0.0001483016 -0.02772279
v 0.0456881 0.01428337 -0.02539347
v 0.01714459 0.01428338 -0.0479879
v 0.01805207 -0.0001483156 -0.05114945
v 0.01805207 -0.0001483156 -0.05114945
v 0.01714459 0.01428338 -0.0479879
v -0.01182975 0.01428339 -0.04559422
v -0.01317145 -0.0001483089 -0.04896653
v -0.01317145 -0.0001483089 -0.04896653
v -0.01182975 0.01428339 -0.04559422
v -0.02321061 0.01428339 -0.02180344
v -0.0274337 -0.0001483076 -0.02444886
v -0.0274337 -0.0001483076 -0.02444886
v -0.02321061 0.01428339 -0.02180344
v -0.04530483 0.01197209 0.001200182
v -0.04796774 -0.000229397 0.001094842
v -0.04796774 -0.000229397 0.001094842
v -0.04530483 0.01197209 0.001200182
v -0.02661005 0.0142834 0.02420337
v -0.0305339 -0.000148325 0.02663801
v -0.0305339 -0.000148325 0.02663801
v -0.02661005 0.0142834 0.02420337
v -0.007042435 0.01428336 0.03961657
v -0.008805445 -0.0001483054 0.04351591
v -0.008805445 -0.0001483054 0.04351591
v -0.007042435 0.01428336 0.03961657
v 0.02432548 0.01428339 0.04799422
v 0.02460081 -0.0001483058 0.05115595
v 0.02460081 -0.0001483058 0.05115595
v 0.02432548 0.01428339 0.04799422
v 0.03671228 0.01428337 0.02420334
v 0.03978045 -0.0001483163 0.02663755
v 0.03978045 -0.0001483163 0.02663755
v 0.03671228 0.01428337 0.02420334
v 0.03865157 0.0119721 0.001199804
v 0.04193361 -0.0002294057 0.001094527
v 0.04193361 -0.0002294057 0.001094527
v 0.03865157 0.0119721 0.001199804
v 0.0456881 0.01428337 -0.02539347
v 0.04796617 -0.0001483016 -0.02772279
v 0.0456881 0.01428337 -0.02539347
v 0.03225204 0.02437441 -0.01614446
v 0.01203586 0.02437442 -0.03256566
v 0.01714459 0.01428338 -0.0479879
v 0.01714459 0.01428338 -0.0479879
v 0.01203586 0.02437442 -0.03256566
v -0.002592807 0.0243744 -0.0213908
v -0.01182975 0.01428339 -0.04559422
v -0.01182975 0.01428339 -0.04559422
v -0.002592807 0.0243744 -0.0213908
v -0.01125361 0.02437442 -0.01279195
v -0.02321061 0.01428339 -0.02180344
v -0.02321061 0.01428339 -0.02180344
v -0.01125361 0.02437442 -0.01279195
v -0.03124511 0.0207465 0.001120547
v -0.04530483 0.01197209 0.001200182
v -0.04530483 0.01197209 0.001200182
v -0.03124511 0.0207465 0.001120547
v -0.01442764 0.0243744 0.01503338
v -0.02661005 0.0142834 0.02420337
v -0.02661005 0.0142834 0.02420337
v -0.01442764 0.0243744 0.01503338
v -0.002593008 0.02437439 0.02474964
v -0.007042435 0.01428336 0.03961657
v -0.007042435 0.01428336 0.03961657
v -0.002593008 0.02437439 0.02474964
v 0.01874098 0.02437441 0.03257154
v 0.02432548 0.01428339 0.04799422
v 0.02432548 0.01428339 0.04799422
v 0.01874098 0.02437441 0.03257154
v 0.0238707 0.0243744 0.01503353
v 0.03671228 0.01428337 0.02420334
v 0.03671228 0.01428337 0.02420334
v 0.0238707 0.0243744 0.01503353
v 0.02504371 0.02074651 0.001120419
v 0.03865157 0.0119721 0.001199804
v 0.03865157 0.0119721 0.001199804
v 0.02504371 0.02074651 0.001120419
v 0.03225204 0.02437441 -0.01614446
v 0.0456881 0.01428337 -0.02539347
v 0.03225204 0.02437441 -0.01614446
v 0.004623407 0.03397607 0.001094513
v 0.01203586 0.02437442 -0.03256566
v 0.01203586 0.02437442 -0.03256566
v 0.004623407 0.03397607 0.001094513
v -0.002592807 0.0243744 -0.0213908
v -0.002592807 0.0243744 -0.0213908
v 0.004623407 0.03397607 0.001094513
v -0.01125361 0.02437442 -0.01279195
v -0.01125361 0.02437442 -0.01279195
v 0.004623407 0.03397607 0.001094513
v -0.03124511 0.0207465 0.001120547
v -0.03124511 0.0207465 0.001120547
v 0.004623407 0.03397607 0.001094513
v -0.01442764 0.0243744 0.01503338
v -0.01442764 0.0243744 0.01503338
v 0.004623407 0.03397607 0.001094513
v -0.002593008 0.02437439 0.02474964
v -0.002593008 0.02437439 0.02474964
v 0.004623407 0.03397607 0.001094513
v 0.01874098 0.02437441 0.03257154
v 0.01874098 0.02437441 0.03257154
v 0.004623407 0.03397607 0.001094513
v 0.0238707 0.0243744 0.01503353
v 0.0238707 0.0243744 0.01503353
v 0.004623407 0.03397607 0.001094513
v 0.02504371 0.02074651 0.001120419
v 0.02504371 0.02074651 0.001120419
v 0.004623407 0.03397607 0.001094513
v 0.03225204 0.02437441 -0.01614446

vn 0.1767808 -0.9812275 -0.07707335
vn -0.01093337 -0.9984993 -0.05365288
vn 0.1236947 -0.9870663 0.1019751
vn 0.1102042 -0.9726541 -0.2044457
vn -0.02967122 -0.9431305 -0.3310945
vn -0.1081313 -0.9480119 -0.2992995
vn -0.2073447 -0.955511 -0.2097761
vn -0.2530898 -0.9661888 -0.04923049
vn -0.1494327 -0.9858494 0.07595968
vn 0.08664154 -0.9729332 0.2142272
vn 0.06623638 -0.9366534 0.3439364
vn 0.6839664 -0.7196428 0.1195984
vn 0.6839664 -0.7196428 0.1195984
vn 0.6839664 -0.7196428 0.1195985
vn 0.6839664 -0.7196428 0.1195984
vn 0.6086038 -0.6896582 -0.3923931
vn 0.6086038 -0.6896583 -0.3923931
vn 0.6086038 -0.6896582 -0.3923931
vn 0.6086039 -0.6896582 -0.3923932
vn 0.01365244 -0.619966 -0.7845095
vn 0.01365244 -0.619966 -0.7845097
vn 0.01365244 -0.619966 -0.7845095
vn 0.01365241 -0.619966 -0.7845097
vn 0.1436306 -0.6478412 -0.7481121
vn 0.1436305 -0.6478411 -0.7481122
vn 0.1436306 -0.6478411 -0.7481121
vn 0.1436305 -0.6478411 -0.7481121
vn -0.614336 -0.6659134 -0.4232612
vn -0.614336 -0.6659134 -0.4232612
vn -0.614336 -0.6659133 -0.4232613
vn -0.614336 -0.6659134 -0.4232613
vn -0.7008086 -0.6861175 -0.1952166
vn -0.7008087 -0.6861175 -0.1952167
vn -0.7008086 -0.6861175 -0.1952167
vn -0.7008086 -0.6861175 -0.1952167
vn -0.7158328 -0.6911365 0.09956498
vn -0.7158328 -0.6911366 0.09956494
vn -0.7158328 -0.6911366 0.099565
vn -0.7158328 -0.6911365 0.09956498
vn -0.0527347 -0.7072861 0.7049575
vn -0.05273473 -0.7072861 0.7049574
vn -0.05273473 -0.7072861 0.7049574
vn -0.05273467 -0.7072861 0.7049575
vn 0.3267397 -0.7178808 0.6147258
vn 0.3267397 -0.7178809 0.6147258
vn 0.3267397 -0.7178808 0.6147258
vn 0.3267397 -0.7178808 0.6147258
vn 0.08448969 -0.6588401 0.7475231
vn 0.08448972 -0.65884 0.7475231
vn 0.08448969 -0.6588401 0.7475231
vn 0.08448972 -0.6588401 0.7475231
vn 0.9753342 -0.02351629 0.219477
vn 0.9753342 -0.0235163 0.219477
vn 0.9753342 -0.0235163 0.219477
vn 0.9753342 -0.02351629 0.219477
vn 0.8717555 0.01686771 -0.4896507
vn 0.8717555 0.01686771 -0.4896507
vn 0.8717555 0.01686771 -0.4896507
vn 0.8717555 0.01686771 -0.4896507
vn 0.08465272 0.05397499 -0.9949476
vn 0.08465272 0.05397499 -0.9949476
vn 0.08465272 0.05397499 -0.9949476
vn 0.08465272 0.05397499 -0.9949476
vn 0.2328292 0.05093149 -0.9711831
vn 0.2328292 0.0509315 -0.9711831
vn 0.2328292 0.05093149 -0.9711831
vn 0.2328292 0.05093149 -0.9711831
vn -0.8628502 0.03792229 -0.5040351
vn -0.8628502 0.03792229 -0.5040351
vn -0.8628503 0.03792229 -0.504035
vn -0.8628502 0.03792229 -0.5040351
vn -0.9761979 0.02331358 -0.2156249
vn -0.9761979 0.02331358 -0.2156249
vn -0.9761979 0.02331358 -0.2156249
vn -0.9761979 0.02331358 -0.2156249
vn -0.9764243 -0.0005201735 0.2158591
vn -0.9764243 -0.0005201735 0.2158591
vn -0.9764243 -0.0005201735 0.2158591
vn -0.9764243 -0.0005201735 0.2158591
vn -0.1120132 -0.05350725 0.9922652
vn -0.1120132 -0.05350725 0.9922652
vn -0.1120132 -0.05350725 0.9922652
vn -0.1120132 -0.05350725 0.9922652
vn 0.3503785 -0.05574155 0.934948
vn 0.3503785 -0.05574155 0.934948
vn 0.3503785 -0.05574155 0.934948
vn 0.3503785 -0.05574155 0.934948
vn 0.2335503 -0.05635263 0.9707104
vn 0.2335503 -0.05635263 0.9707104
vn 0.2335503 -0.05635263 0.9707104
vn 0.2335503 -0.05635263 0.9707104
vn 0.9549327 0.1893131 0.2286135
vn 0.9549326 0.1893131 0.2286134
vn 0.9549326 0.1893131 0.2286134
vn 0.9549326 0.1893131 0.2286134
vn 0.8498142 0.2376498 -0.4704659
vn 0.8498142 0.2376498 -0.4704659
vn 0.8498142 0.2376498 -0.4704659
vn 0.8498142 0.2376498 -0.4704659
vn 0.04733217 0.3111908 -0.949168
vn 0.04733214 0.3111908 -0.9491681
vn 0.04733223 0.3111908 -0.949168
vn 0.04733217 0.3111908 -0.949168
vn 0.2596962 0.3026667 -0.9170337
vn 0.2596962 0.3026667 -0.9170337
vn 0.2596962 0.3026666 -0.9170337
vn 0.2596961 0.3026667 -0.9170337
vn -0.8487377 0.2789031 -0.4492854
vn -0.8487377 0.2789031 -0.4492854
vn -0.8487377 0.2789031 -0.4492854
vn -0.8487377 0.2789031 -0.4492854
vn -0.9325376 0.3043355 -0.1943026
vn -0.9325375 0.3043355 -0.1943027
vn -0.9325376 0.3043356 -0.1943027
vn -0.9325376 0.3043356 -0.1943027
vn -0.9480117 0.2424576 0.2061263
vn -0.9480117 0.2424576 0.2061263
vn -0.9480117 0.2424576 0.2061263
vn -0.9480117 0.2424576 0.2061263
vn -0.07267103 0.1396087 0.9875365
vn -0.07267103 0.1396087 0.9875365
vn -0.07267106 0.1396087 0.9875364
vn -0.07267103 0.1396087 0.9875365
vn 0.3540306 0.1827316 0.9172085
vn 0.3540306 0.1827316 0.9172086
vn 0.3540306 0.1827316 0.9172086
vn 0.3540306 0.1827316 0.9172086
vn 0.200308 0.1225079 0.9720435
vn 0.200308 0.1225079 0.9720435
vn 0.200308 0.1225079 0.9720435
vn 0.200308 0.1225079 0.9720435
vn 0.5424153 0.8223386 0.1718844
vn 0.5424153 0.8223386 0.1718843
vn 0.5424153 0.8223386 0.1718844
vn 0.5424153 0.8223386 0.1718843
vn 0.3481256 0.9002287 -0.2615266
vn 0.3481256 0.9002286 -0.2615266
vn 0.3481256 0.9002287 -0.2615266
vn 0.3481256 0.9002287 -0.2615266
vn 0.06537557 0.8943983 -0.4424666
vn 0.0653756 0.8943983 -0.4424666
vn 0.06537557 0.8943983 -0.4424666
vn 0.0653756 0.8943983 -0.4424666
vn 0.1643563 0.8334122 -0.527646
vn 0.1643563 0.8334122 -0.527646
vn 0.1643563 0.8334122 -0.527646
vn 0.1643563 0.8334122 -0.527646
vn -0.4864688 0.8389834 -0.2438325
vn -0.4864688 0.8389834 -0.2438325
vn -0.4864689 0.8389834 -0.2438326
vn -0.4864688 0.8389834 -0.2438325
vn -0.5441326 0.8346434 -0.08537868
vn -0.5441326 0.8346432 -0.08537871
vn -0.5441326 0.8346432 -0.08537869
vn -0.5441326 0.8346432 -0.08537871
vn -0.5607803 0.8180186 0.1279466
vn -0.5607803 0.8180186 0.1279466
vn -0.5607803 0.8180186 0.1279466
vn -0.5607803 0.8180186 0.1279466
vn 0.03421417 0.7613354 0.6474544
vn 0.03421418 0.7613354 0.6474545
vn 0.03421417 0.7613354 0.6474545
vn 0.03421418 0.7613354 0.6474545
vn 0.3352973 0.7655335 0.5491207
vn 0.3352972 0.7655336 0.5491205
vn 0.3352973 0.7655336 0.5491206
vn 0.3352973 0.7655335 0.5491207
vn 0.001061946 0.6939147 0.7200561
vn 0.001061976 0.6939148 0.7200561
vn 0.001061946 0.6939147 0.7200561
vn 0.001061946 0.6939147 0.7200561
vn 0.3001894 0.945899 0.123128
vn 0.3001894 0.945899 0.123128
vn 0.3001894 0.945899 0.123128
vn 0.1923864 0.9339955 -0.3010632
vn 0.1923864 0.9339955 -0.3010632
vn 0.1923864 0.9339955 -0.3010631
vn 0.1517463 0.9281969 -0.3397394
vn 0.1517463 0.9281969 -0.3397394
vn 0.1517463 0.9281969 -0.3397394
vn 0.088557 0.9296992 -0.357514
vn 0.088557 0.9296992 -0.357514
vn 0.088557 0.9296992 -0.357514
vn -0.2895385 0.9394319 -0.1833964
vn -0.2895385 0.9394319 -0.1833963
vn -0.2895385 0.9394319 -0.1833964
vn -0.3648564 0.9300792 -0.04279663
vn -0.3648564 0.9300793 -0.04279663
vn -0.3648564 0.9300793 -0.04279663
vn -0.3500253 0.9329301 0.08439671
vn -0.3500253 0.9329301 0.08439668
vn -0.3500253 0.9329301 0.08439669
vn 0.07255448 0.8953797 0.439352
vn 0.07255451 0.8953797 0.439352
vn 0.07255452 0.8953797 0.4393521
vn 0.3929619 0.7984067 0.4562093
vn 0.3929619 0.7984068 0.4562093
vn 0.3929619 0.7984068 0.4562093
vn -0.1133478 0.7448117 0.6575769
vn -0.1133478 0.7448117 0.6575769
vn -0.1133478 0.7448117 0.6575769

vt 0.5482839 0.007647395
vt 0.5 0.15
vt 0.6264089 0.06440853
vt 0.4517161 0.00764741
vt 0.3735911 0.06440856
vt 0.34375 0.15625
vt 0.3735911 0.2480915
vt 0.4517161 0.3048526
vt 0.5482839 0.3048526
vt 0.6264089 0.2480914
vt 0.65625 0.15625
vt 0 0
vt 0 1
vt 1 1
vt 1 0
vt 0 0
vt 0 1
vt 1 1
vt 1 0
vt 0 0
vt 0 1
vt 1 1
vt 1 0
vt 0 0
vt 0 1
vt 1 1
vt 1 0
vt 0 0
vt 0 1
vt 1 1
vt 1 0
vt 0 0
vt 0 1
vt 1 1
vt 1 0
vt 0 0
vt 0 1
vt 1 1
vt 1 0
vt 0 0
vt 0 1
vt 1 1
vt 1 0
vt 0 0
vt 0 1
vt 1 1
vt 1 0
vt 0 0
vt 0 1
vt 1 1
vt 1 0
vt 0 0
vt 0 1
vt 1 1
vt 1 0
vt 0 0
vt 0 1
vt 1 1
vt 1 0
vt 0 0
vt 0 1
vt 1 1
vt 1 0
vt 0 0
vt 0 1
vt 1 1
vt 1 0
vt 0 0
vt 0 1
vt 1 1
vt 1 0
vt 0 0
vt 0 1
vt 1 1
vt 1 0
vt 0 0
vt 0 1
vt 1 1
vt 1 0
vt 0 0
vt 0 1
vt 1 1
vt 1 0
vt 0 0
vt 0 1
vt 1 1
vt 1 0
vt 0 0
vt 0 1
vt 1 1
vt 1 0
vt 0 0
vt 0 1
vt 1 1
vt 1 0
vt 0 0
vt 0 1
vt 1 1
vt 1 0
vt 0 0
vt 0 1
vt 1 1
vt 1 0
vt 0 0
vt 0 1
vt 1 1
vt 1 0
vt 0 0
vt 0 1
vt 1 1
vt 1 0
vt 0 0
vt 0 1
vt 1 1
vt 1 0
vt 0 0
vt 0 1
vt 1 1
vt 1 0
vt 0 0
vt 0 1
vt 1 1
vt 1 0
vt 0 0
vt 0 1
vt 1 1
vt 1 0
vt 0 0
vt 0 1
vt 1 1
vt 1 0
vt 0 0
vt 0 1
vt 1 1
vt 1 0
vt 0 0
vt 0 1
vt 1 1
vt 1 0
vt 0 0
vt 0 1
vt 1 1
vt 1 0
vt 0 0
vt 0 1
vt 1 1
vt 1 0
vt 0 0
vt 0 1
vt 1 1
vt 1 0
vt 0 0
vt 0 1
vt 1 1
vt 1 0
vt 0 0
vt 0 1
vt 1 1
vt 1 0
vt 0 0
vt 0 1
vt 1 1
vt 1 0
vt 0 0
vt 0 1
vt 1 1
vt 1 0
vt 0 0
vt 0 1
vt 1 1
vt 1 0
vt 0 0
vt 0.5 1
vt 1 0
vt 0 0
vt 0.5 1
vt 1 0
vt 0 0
vt 0.5 1
vt 1 0
vt 0 0
vt 0.5 1
vt 1 0
vt 0 0
vt 0.5 1
vt 1 0
vt 0 0
vt 0.5 1
vt 1 0
vt 0 0
vt 0.5 1
vt 1 0
vt 0 0
vt 0.5 1
vt 1 0
vt 0 0
vt 0.5 1
vt 1 0
vt 0 0
vt 0.5 1
vt 1 0

g Foliage2_25_3480_66
usemtl Foliage2_25_3480_66
usemap Foliage2_25_3480_66
f 1/1/1 3/3/3 2/2/2
f 4/4/4 1/1/1 2/2/2
f 5/5/5 4/4/4 2/2/2
f 6/6/6 5/5/5 2/2/2
f 7/7/7 6/6/6 2/2/2
f 8/8/8 7/7/7 2/2/2
f 9/9/9 8/8/8 2/2/2
f 10/10/10 9/9/9 2/2/2
f 11/11/11 10/10/10 2/2/2
f 3/3/3 11/11/11 2/2/2
f 12/12/12 14/14/14 13/13/13
f 12/12/12 15/15/15 14/14/14
f 16/16/16 18/18/18 17/17/17
f 16/16/16 19/19/19 18/18/18
f 20/20/20 22/22/22 21/21/21
f 20/20/20 23/23/23 22/22/22
f 24/24/24 26/26/26 25/25/25
f 24/24/24 27/27/27 26/26/26
f 28/28/28 30/30/30 29/29/29
f 28/28/28 31/31/31 30/30/30
f 32/32/32 34/34/34 33/33/33
f 32/32/32 35/35/35 34/34/34
f 36/36/36 38/38/38 37/37/37
f 36/36/36 39/39/39 38/38/38
f 40/40/40 42/42/42 41/41/41
f 40/40/40 43/43/43 42/42/42
f 44/44/44 46/46/46 45/45/45
f 44/44/44 47/47/47 46/46/46
f 48/48/48 50/50/50 49/49/49
f 48/48/48 51/51/51 50/50/50
f 52/52/52 54/54/54 53/53/53
f 52/52/52 55/55/55 54/54/54
f 56/56/56 58/58/58 57/57/57
f 56/56/56 59/59/59 58/58/58
f 60/60/60 62/62/62 61/61/61
f 60/60/60 63/63/63 62/62/62
f 64/64/64 66/66/66 65/65/65
f 64/64/64 67/67/67 66/66/66
f 68/68/68 70/70/70 69/69/69
f 68/68/68 71/71/71 70/70/70
f 72/72/72 74/74/74 73/73/73
f 72/72/72 75/75/75 74/74/74
f 76/76/76 78/78/78 77/77/77
f 76/76/76 79/79/79 78/78/78
f 80/80/80 82/82/82 81/81/81
f 80/80/80 83/83/83 82/82/82
f 84/84/84 86/86/86 85/85/85
f 84/84/84 87/87/87 86/86/86
f 88/88/88 90/90/90 89/89/89
f 88/88/88 91/91/91 90/90/90
f 92/92/92 94/94/94 93/93/93
f 92/92/92 95/95/95 94/94/94
f 96/96/96 98/98/98 97/97/97
f 96/96/96 99/99/99 98/98/98
f 100/100/100 102/102/102 101/101/101
f 100/100/100 103/103/103 102/102/102
f 104/104/104 106/106/106 105/105/105
f 104/104/104 107/107/107 106/106/106
f 108/108/108 110/110/110 109/109/109
f 108/108/108 111/111/111 110/110/110
f 112/112/112 114/114/114 113/113/113
f 112/112/112 115/115/115 114/114/114
f 116/116/116 118/118/118 117/117/117
f 116/116/116 119/119/119 118/118/118
f 120/120/120 122/122/122 121/121/121
f 120/120/120 123/123/123 122/122/122
f 124/124/124 126/126/126 125/125/125
f 124/124/124 127/127/127 126/126/126
f 128/128/128 130/130/130 129/129/129
f 128/128/128 131/131/131 130/130/130
f 132/132/132 134/134/134 133/133/133
f 132/132/132 135/135/135 134/134/134
f 136/136/136 138/138/138 137/137/137
f 136/136/136 139/139/139 138/138/138
f 140/140/140 142/142/142 141/141/141
f 140/140/140 143/143/143 142/142/142
f 144/144/144 146/146/146 145/145/145
f 144/144/144 147/147/147 146/146/146
f 148/148/148 150/150/150 149/149/149
f 148/148/148 151/151/151 150/150/150
f 152/152/152 154/154/154 153/153/153
f 152/152/152 155/155/155 154/154/154
f 156/156/156 158/158/158 157/157/157
f 156/156/156 159/159/159 158/158/158
f 160/160/160 162/162/162 161/161/161
f 160/160/160 163/163/163 162/162/162
f 164/164/164 166/166/166 165/165/165
f 164/164/164 167/167/167 166/166/166
f 168/168/168 170/170/170 169/169/169
f 168/168/168 171/171/171 170/170/170
f 172/172/172 174/174/174 173/173/173
f 175/175/175 177/177/177 176/176/176
f 178/178/178 180/180/180 179/179/179
f 181/181/181 183/183/183 182/182/182
f 184/184/184 186/186/186 185/185/185
f 187/187/187 189/189/189 188/188/188
f 190/190/190 192/192/192 191/191/191
f 193/193/193 195/195/195 194/194/194
f 196/196/196 198/198/198 197/197/197
f 199/199/199 201/201/201 200/200/200
