#Foliage2_30_4210_306.obj

v 0.01454462 -0.02577565 -0.04035634
v 0.004623145 -0.03397609 0.00109321
v 0.03878397 -0.02577564 -0.02105276
v -0.009663971 -0.02577564 -0.03817322
v -0.01825123 -0.02577564 -0.01777809
v -0.03822269 -0.02223222 0.00109335
v -0.0213516 -0.02577566 0.0199651
v -0.005298026 -0.02577564 0.03272027
v 0.02109343 -0.02577566 0.04036
v 0.03059807 -0.02577564 0.01996532
v 0.03218882 -0.02223222 0.001093415
v 0.03878397 -0.02577564 -0.02105276
v 0.04796639 -0.01489238 -0.02772394
v 0.01805208 -0.01489239 -0.05115087
v 0.01454462 -0.02577565 -0.04035634
v 0.01454462 -0.02577565 -0.04035634
v 0.01805208 -0.01489239 -0.05115087
v -0.01317143 -0.01489239 -0.04896788
v -0.009663971 -0.02577564 -0.03817322
v -0.009663971 -0.02577564 -0.03817322
v -0.01317143 -0.01489239 -0.04896788
v -0.02743372 -0.01489239 -0.02444957
v -0.01825123 -0.02577564 -0.01777809
v -0.01825123 -0.02577564 -0.01777809
v -0.02743372 -0.01489239 -0.02444957
v -0.04796741 -0.01288819 0.001093751
v -0.03822269 -0.02223222 0.00109335
v -0.03822269 -0.02223222 0.00109335
v -0.04796741 -0.01288819 0.001093751
v -0.03053387 -0.01489239 0.02663668
v -0.0213516 -0.02577566 0.0199651
v -0.0213516 -0.02577566 0.0199651
v -0.03053387 -0.01489239 0.02663668
v -0.008805566 -0.01489239 0.04351454
v -0.005298026 -0.02577564 0.03272027
v -0.005298026 -0.02577564 0.03272027
v -0.008805566 -0.01489239 0.04351454
v 0.02460064 -0.0148924 0.05115447
v 0.02109343 -0.02577566 0.04036
v 0.02109343 -0.02577566 0.04036
v 0.02460064 -0.0148924 0.05115447
v 0.03978032 -0.01489239 0.02663661
v 0.03059807 -0.02577564 0.01996532
v 0.03059807 -0.02577564 0.01996532
v 0.03978032 -0.01489239 0.02663661
v 0.04193371 -0.0128882 0.001093509
v 0.03218882 -0.02223222 0.001093415
v 0.03218882 -0.02223222 0.001093415
v 0.04193371 -0.0128882 0.001093509
v 0.04796639 -0.01489238 -0.02772394
v 0.03878397 -0.02577564 -0.02105276
v 0.04796639 -0.01489238 -0.02772394
v 0.04796616 -0.0001483228 -0.02772435
v 0.01805207 -0.0001483093 -0.05115062
v 0.01805208 -0.01489239 -0.05115087
v 0.01805208 -0.01489239 -0.05115087
v 0.01805207 -0.0001483093 -0.05115062
v -0.01317127 -0.0001483142 -0.04896769
v -0.01317143 -0.01489239 -0.04896788
v -0.01317143 -0.01489239 -0.04896788
v -0.01317127 -0.0001483142 -0.04896769
v -0.02743394 -0.0001483358 -0.02444999
v -0.02743372 -0.01489239 -0.02444957
v -0.02743372 -0.01489239 -0.02444957
v -0.02743394 -0.0001483358 -0.02444999
v -0.04796758 -0.000229428 0.001093455
v -0.04796741 -0.01288819 0.001093751
v -0.04796741 -0.01288819 0.001093751
v -0.04796758 -0.000229428 0.001093455
v -0.03053371 -0.000148308 0.02663687
v -0.03053387 -0.01489239 0.02663668
v -0.03053387 -0.01489239 0.02663668
v -0.03053371 -0.000148308 0.02663687
v -0.008805407 -0.0001483187 0.04351473
v -0.008805566 -0.01489239 0.04351454
v -0.008805566 -0.01489239 0.04351454
v -0.008805407 -0.0001483187 0.04351473
v 0.02460079 -0.0001483235 0.05115465
v 0.02460064 -0.0148924 0.05115447
v 0.02460064 -0.0148924 0.05115447
v 0.02460079 -0.0001483235 0.05115465
v 0.03978047 -0.0001483144 0.0266368
v 0.03978032 -0.01489239 0.02663661
v 0.03978032 -0.01489239 0.02663661
v 0.03978047 -0.0001483144 0.0266368
v 0.04193354 -0.0002294264 0.001093213
v 0.04193371 -0.0128882 0.001093509
v 0.04193371 -0.0128882 0.001093509
v 0.04193354 -0.0002294264 0.001093213
v 0.04796616 -0.0001483228 -0.02772435
v 0.04796639 -0.01489238 -0.02772394
v 0.04796616 -0.0001483228 -0.02772435
v 0.04568824 0.01428336 -0.02539503
v 0.01714448 0.01428335 -0.04798931
v 0.01805207 -0.0001483093 -0.05115062
v 0.01805207 -0.0001483093 -0.05115062
v 0.01714448 0.01428335 -0.04798931
v -0.01182958 0.01428338 -0.04559538
v -0.01317127 -0.0001483142 -0.04896769
v -0.01317127 -0.0001483142 -0.04896769
v -0.01182958 0.01428338 -0.04559538
v -0.02321081 0.01428336 -0.02180438
v -0.02743394 -0.0001483358 -0.02444999
v -0.02743394 -0.0001483358 -0.02444999
v -0.02321081 0.01428336 -0.02180438
v -0.04530481 0.01197207 0.00119867
v -0.04796758 -0.000229428 0.001093455
v -0.04796758 -0.000229428 0.001093455
v -0.04530481 0.01197207 0.00119867
v -0.02661027 0.01428335 0.02420186
v -0.03053371 -0.000148308 0.02663687
v -0.03053371 -0.000148308 0.02663687
v -0.02661027 0.01428335 0.02420186
v -0.007042451 0.01428336 0.03961543
v -0.008805407 -0.0001483187 0.04351473
v -0.008805407 -0.0001483187 0.04351473
v -0.007042451 0.01428336 0.03961543
v 0.0243255 0.01428336 0.04799356
v 0.02460079 -0.0001483235 0.05115465
v 0.02460079 -0.0001483235 0.05115465
v 0.0243255 0.01428336 0.04799356
v 0.03671224 0.01428337 0.02420187
v 0.03978047 -0.0001483144 0.0266368
v 0.03978047 -0.0001483144 0.0266368
v 0.03671224 0.01428337 0.02420187
v 0.0386513 0.01197207 0.001198578
v 0.04193354 -0.0002294264 0.001093213
v 0.04193354 -0.0002294264 0.001093213
v 0.0386513 0.01197207 0.001198578
v 0.04568824 0.01428336 -0.02539503
v 0.04796616 -0.0001483228 -0.02772435
v 0.04568824 0.01428336 -0.02539503
v 0.03225198 0.02437442 -0.01614532
v 0.01203574 0.0243744 -0.03256688
v 0.01714448 0.01428335 -0.04798931
v 0.01714448 0.01428335 -0.04798931
v 0.01203574 0.0243744 -0.03256688
v -0.002592957 0.02437438 -0.02139192
v -0.01182958 0.01428338 -0.04559538
v -0.01182958 0.01428338 -0.04559538
v -0.002592957 0.02437438 -0.02139192
v -0.0112538 0.02437439 -0.01279353
v -0.02321081 0.01428336 -0.02180438
v -0.02321081 0.01428336 -0.02180438
v -0.0112538 0.02437439 -0.01279353
v -0.03124531 0.02074648 0.001119363
v -0.04530481 0.01197207 0.00119867
v -0.04530481 0.01197207 0.00119867
v -0.03124531 0.02074648 0.001119363
v -0.01442778 0.02437439 0.01503192
v -0.02661027 0.01428335 0.02420186
v -0.02661027 0.01428335 0.02420186
v -0.01442778 0.02437439 0.01503192
v -0.002592742 0.0243744 0.02474828
v -0.007042451 0.01428336 0.03961543
v -0.007042451 0.01428336 0.03961543
v -0.002592742 0.0243744 0.02474828
v 0.01874076 0.02437441 0.03257087
v 0.0243255 0.01428336 0.04799356
v 0.0243255 0.01428336 0.04799356
v 0.01874076 0.02437441 0.03257087
v 0.02387072 0.02437439 0.01503234
v 0.03671224 0.01428337 0.02420187
v 0.03671224 0.01428337 0.02420187
v 0.02387072 0.02437439 0.01503234
v 0.02504364 0.02074648 0.001119657
v 0.0386513 0.01197207 0.001198578
v 0.0386513 0.01197207 0.001198578
v 0.02504364 0.02074648 0.001119657
v 0.03225198 0.02437442 -0.01614532
v 0.04568824 0.01428336 -0.02539503
v 0.03225198 0.02437442 -0.01614532
v 0.004623166 0.03397606 0.001093291
v 0.01203574 0.0243744 -0.03256688
v 0.01203574 0.0243744 -0.03256688
v 0.004623166 0.03397606 0.001093291
v -0.002592957 0.02437438 -0.02139192
v -0.002592957 0.02437438 -0.02139192
v 0.004623166 0.03397606 0.001093291
v -0.0112538 0.02437439 -0.01279353
v -0.0112538 0.02437439 -0.01279353
v 0.004623166 0.03397606 0.001093291
v -0.03124531 0.02074648 0.001119363
v -0.03124531 0.02074648 0.001119363
v 0.004623166 0.03397606 0.001093291
v -0.01442778 0.02437439 0.01503192
v -0.01442778 0.02437439 0.01503192
v 0.004623166 0.03397606 0.001093291
v -0.002592742 0.0243744 0.02474828
v -0.002592742 0.0243744 0.02474828
v 0.004623166 0.03397606 0.001093291
v 0.01874076 0.02437441 0.03257087
v 0.01874076 0.02437441 0.03257087
v 0.004623166 0.03397606 0.001093291
v 0.02387072 0.02437439 0.01503234
v 0.02387072 0.02437439 0.01503234
v 0.004623166 0.03397606 0.001093291
v 0.02504364 0.02074648 0.001119657
v 0.02504364 0.02074648 0.001119657
v 0.004623166 0.03397606 0.001093291
v 0.03225198 0.02437442 -0.01614532

vn 0.06719415 -0.9812275 -0.180767
vn -0.04621662 -0.9984993 -0.02936313
vn 0.1592636 -0.9870663 -0.0182871
vn -0.07071511 -0.9726541 -0.2212292
vn -0.2589726 -0.9431305 -0.2084158
vn -0.2905318 -0.9480119 -0.1298606
vn -0.2949308 -0.955511 0.003699809
vn -0.2110883 -0.9661888 0.1480534
vn -0.04901649 -0.9858494 0.1603041
vn 0.2143678 -0.9729332 0.08629289
vn 0.2935945 -0.9366534 0.1910019
vn 0.5607787 -0.7196428 -0.40944
vn 0.5607786 -0.7196428 -0.40944
vn 0.5607787 -0.7196428 -0.40944
vn 0.5607786 -0.7196428 -0.40944
vn 0.1398545 -0.6896582 -0.710501
vn 0.1398545 -0.6896583 -0.710501
vn 0.1398545 -0.6896582 -0.710501
vn 0.1398545 -0.6896582 -0.7105011
vn -0.5553551 -0.619966 -0.5542764
vn -0.5553552 -0.619966 -0.5542765
vn -0.5553551 -0.619966 -0.5542764
vn -0.5553552 -0.619966 -0.5542764
vn -0.4389454 -0.6478412 -0.6225981
vn -0.4389454 -0.6478411 -0.6225982
vn -0.4389454 -0.6478411 -0.6225981
vn -0.4389454 -0.6478411 -0.6225981
vn -0.731086 -0.6659134 0.1485667
vn -0.731086 -0.6659134 0.1485667
vn -0.731086 -0.6659133 0.1485667
vn -0.731086 -0.6659134 0.1485667
vn -0.6269106 -0.6861175 0.3690873
vn -0.6269106 -0.6861175 0.3690872
vn -0.6269106 -0.6861175 0.3690873
vn -0.6269106 -0.6861175 0.3690873
vn -0.4251009 -0.6911365 0.5844817
vn -0.4251009 -0.6911366 0.5844817
vn -0.4251009 -0.6911366 0.5844818
vn -0.4251009 -0.6911365 0.5844817
vn 0.4709564 -0.7072861 0.5272059
vn 0.4709564 -0.7072861 0.5272059
vn 0.4709564 -0.7072861 0.5272059
vn 0.4709565 -0.7072861 0.5272059
vn 0.6693455 -0.7178808 0.1913721
vn 0.6693455 -0.7178809 0.1913721
vn 0.6693455 -0.7178808 0.1913721
vn 0.6693455 -0.7178808 0.1913721
vn 0.596836 -0.6588401 0.4579477
vn 0.596836 -0.65884 0.4579477
vn 0.596836 -0.6588401 0.4579477
vn 0.596836 -0.6588401 0.4579477
vn 0.8348973 -0.02351629 -0.5499032
vn 0.8348973 -0.0235163 -0.5499032
vn 0.8348973 -0.0235163 -0.5499032
vn 0.8348973 -0.02351629 -0.5499032
vn 0.2524575 0.01686771 -0.9674609
vn 0.2524575 0.01686771 -0.9674609
vn 0.2524575 0.01686771 -0.9674609
vn 0.2524575 0.01686771 -0.9674609
vn -0.6575919 0.05397499 -0.7514383
vn -0.6575919 0.05397499 -0.7514383
vn -0.6575919 0.05397499 -0.7514383
vn -0.6575919 0.05397499 -0.7514383
vn -0.5376481 0.05093149 -0.8416297
vn -0.5376481 0.0509315 -0.8416297
vn -0.5376481 0.05093149 -0.8416297
vn -0.5376481 0.05093149 -0.8416297
vn -0.9617094 0.03792229 0.2714348
vn -0.9617094 0.03792229 0.2714348
vn -0.9617094 0.03792229 0.2714349
vn -0.9617094 0.03792229 0.2714348
vn -0.8327233 0.02331358 0.5531983
vn -0.8327233 0.02331358 0.5531983
vn -0.8327233 0.02331358 0.5531983
vn -0.8327233 0.02331358 0.5531983
vn -0.5222213 -0.0005201735 0.8528098
vn -0.5222213 -0.0005201735 0.8528098
vn -0.5222213 -0.0005201735 0.8528098
vn -0.5222213 -0.0005201735 0.8528098
vn 0.6366726 -0.05350725 0.7692757
vn 0.6366726 -0.05350725 0.7692757
vn 0.6366726 -0.05350725 0.7692757
vn 0.6366726 -0.05350725 0.7692757
vn 0.9163038 -0.05574155 0.3965858
vn 0.9163038 -0.05574155 0.3965858
vn 0.9163038 -0.05574155 0.3965858
vn 0.9163038 -0.05574155 0.3965858
vn 0.8609735 -0.05635263 0.5055186
vn 0.8609735 -0.05635263 0.5055186
vn 0.8609735 -0.05635263 0.5055186
vn 0.8609735 -0.05635263 0.5055186
vn 0.8273167 0.1893131 -0.5288738
vn 0.8273167 0.1893131 -0.5288738
vn 0.8273167 0.1893131 -0.5288738
vn 0.8273167 0.1893131 -0.5288738
vn 0.2510429 0.2376498 -0.9383495
vn 0.2510429 0.2376498 -0.9383495
vn 0.2510429 0.2376498 -0.9383495
vn 0.2510429 0.2376498 -0.9383495
vn -0.6505319 0.3111908 -0.6927974
vn -0.650532 0.3111908 -0.6927974
vn -0.6505319 0.3111908 -0.6927975
vn -0.6505319 0.3111908 -0.6927974
vn -0.4800161 0.3026667 -0.8233938
vn -0.4800161 0.3026667 -0.8233938
vn -0.4800161 0.3026666 -0.8233938
vn -0.4800161 0.3026667 -0.8233938
vn -0.9124968 0.2789031 0.2992702
vn -0.9124968 0.2789031 0.2992702
vn -0.9124967 0.2789031 0.2992702
vn -0.9124968 0.2789031 0.2992702
vn -0.7870716 0.3043355 0.5365614
vn -0.7870716 0.3043355 0.5365613
vn -0.7870716 0.3043356 0.5365614
vn -0.7870716 0.3043356 0.5365614
vn -0.5095105 0.2424576 0.8255987
vn -0.5095104 0.2424576 0.8255987
vn -0.5095105 0.2424576 0.8255987
vn -0.5095105 0.2424576 0.8255987
vn 0.6605715 0.1396087 0.7376685
vn 0.6605715 0.1396087 0.7376685
vn 0.6605713 0.1396087 0.7376685
vn 0.6605715 0.1396087 0.7376685
vn 0.9060662 0.1827316 0.3816452
vn 0.9060663 0.1827316 0.3816452
vn 0.9060663 0.1827316 0.3816452
vn 0.9060663 0.1827316 0.3816452
vn 0.8388632 0.1225079 0.5303774
vn 0.8388632 0.1225079 0.5303774
vn 0.8388632 0.1225079 0.5303774
vn 0.8388632 0.1225079 0.5303774
vn 0.5001873 0.8223386 -0.27124
vn 0.5001873 0.8223386 -0.2712401
vn 0.5001873 0.8223386 -0.27124
vn 0.5001873 0.8223386 -0.2712401
vn 0.05330445 0.9002287 -0.4321414
vn 0.05330445 0.9002286 -0.4321414
vn 0.05330445 0.9002287 -0.4321414
vn 0.05330448 0.9002287 -0.4321414
vn -0.273196 0.8943983 -0.3541393
vn -0.273196 0.8943983 -0.3541394
vn -0.273196 0.8943983 -0.3541393
vn -0.273196 0.8943983 -0.3541394
vn -0.265831 0.8334122 -0.4845175
vn -0.265831 0.8334122 -0.4845175
vn -0.265831 0.8334122 -0.4845175
vn -0.265831 0.8334122 -0.4845175
vn -0.5131618 0.8389834 0.181028
vn -0.5131618 0.8389834 0.181028
vn -0.5131618 0.8389834 0.181028
vn -0.5131618 0.8389834 0.181028
vn -0.439097 0.8346434 0.3325112
vn -0.439097 0.8346432 0.3325111
vn -0.439097 0.8346432 0.3325112
vn -0.439097 0.8346432 0.3325111
vn -0.2970609 0.8180186 0.4925442
vn -0.2970608 0.8180186 0.4925442
vn -0.2970608 0.8180186 0.4925442
vn -0.2970608 0.8180186 0.4925442
vn 0.4898977 0.7613354 0.4246977
vn 0.4898977 0.7613354 0.4246977
vn 0.4898977 0.7613354 0.4246977
vn 0.4898977 0.7613354 0.4246977
vn 0.6280501 0.7655335 0.1396811
vn 0.62805 0.7655336 0.1396811
vn 0.62805 0.7655336 0.1396811
vn 0.6280501 0.7655335 0.1396811
vn 0.5191617 0.6939147 0.4989519
vn 0.5191617 0.6939148 0.4989518
vn 0.5191617 0.6939147 0.4989519
vn 0.5191617 0.6939147 0.4989519
vn 0.2969799 0.945899 -0.1306795
vn 0.2969799 0.945899 -0.1306795
vn 0.2969799 0.945899 -0.1306795
vn -0.08324344 0.9339955 -0.3474508
vn -0.08324343 0.9339955 -0.3474509
vn -0.08324341 0.9339955 -0.3474508
vn -0.1392936 0.9281969 -0.3450321
vn -0.1392936 0.9281969 -0.3450321
vn -0.1392936 0.9281969 -0.3450321
vn -0.1959441 0.9296992 -0.3118726
vn -0.1959441 0.9296992 -0.3118727
vn -0.1959441 0.9296992 -0.3118727
vn -0.3329802 0.9394319 0.08118496
vn -0.3329801 0.9394319 0.08118498
vn -0.3329802 0.9394319 0.08118496
vn -0.2840218 0.9300792 0.232988
vn -0.2840218 0.9300793 0.232988
vn -0.2840218 0.9300793 0.232988
vn -0.1821526 0.9329301 0.3105816
vn -0.1821526 0.9329301 0.3105816
vn -0.1821526 0.9329301 0.3105816
vn 0.3666764 0.8953797 0.2526711
vn 0.3666765 0.8953797 0.2526711
vn 0.3666765 0.8953797 0.2526712
vn 0.601175 0.7984067 0.03368372
vn 0.601175 0.7984068 0.0336837
vn 0.601175 0.7984068 0.0336837
vn 0.3947782 0.7448117 0.537964
vn 0.3947781 0.7448117 0.5379641
vn 0.3947782 0.7448117 0.5379641

vt 0.5482839 0.007647395
vt 0.5 0.15
vt 0.6264089 0.06440853
vt 0.4517161 0.00764741
vt 0.3735911 0.06440856
vt 0.34375 0.15625
vt 0.3735911 0.2480915
vt 0.4517161 0.3048526
vt 0.5482839 0.3048526
vt 0.6264089 0.2480914
vt 0.65625 0.15625
vt 0 0
vt 0 1
vt 1 1
vt 1 0
vt 0 0
vt 0 1
vt 1 1
vt 1 0
vt 0 0
vt 0 1
vt 1 1
vt 1 0
vt 0 0
vt 0 1
vt 1 1
vt 1 0
vt 0 0
vt 0 1
vt 1 1
vt 1 0
vt 0 0
vt 0 1
vt 1 1
vt 1 0
vt 0 0
vt 0 1
vt 1 1
vt 1 0
vt 0 0
vt 0 1
vt 1 1
vt 1 0
vt 0 0
vt 0 1
vt 1 1
vt 1 0
vt 0 0
vt 0 1
vt 1 1
vt 1 0
vt 0 0
vt 0 1
vt 1 1
vt 1 0
vt 0 0
vt 0 1
vt 1 1
vt 1 0
vt 0 0
vt 0 1
vt 1 1
vt 1 0
vt 0 0
vt 0 1
vt 1 1
vt 1 0
vt 0 0
vt 0 1
vt 1 1
vt 1 0
vt 0 0
vt 0 1
vt 1 1
vt 1 0
vt 0 0
vt 0 1
vt 1 1
vt 1 0
vt 0 0
vt 0 1
vt 1 1
vt 1 0
vt 0 0
vt 0 1
vt 1 1
vt 1 0
vt 0 0
vt 0 1
vt 1 1
vt 1 0
vt 0 0
vt 0 1
vt 1 1
vt 1 0
vt 0 0
vt 0 1
vt 1 1
vt 1 0
vt 0 0
vt 0 1
vt 1 1
vt 1 0
vt 0 0
vt 0 1
vt 1 1
vt 1 0
vt 0 0
vt 0 1
vt 1 1
vt 1 0
vt 0 0
vt 0 1
vt 1 1
vt 1 0
vt 0 0
vt 0 1
vt 1 1
vt 1 0
vt 0 0
vt 0 1
vt 1 1
vt 1 0
vt 0 0
vt 0 1
vt 1 1
vt 1 0
vt 0 0
vt 0 1
vt 1 1
vt 1 0
vt 0 0
vt 0 1
vt 1 1
vt 1 0
vt 0 0
vt 0 1
vt 1 1
vt 1 0
vt 0 0
vt 0 1
vt 1 1
vt 1 0
vt 0 0
vt 0 1
vt 1 1
vt 1 0
vt 0 0
vt 0 1
vt 1 1
vt 1 0
vt 0 0
vt 0 1
vt 1 1
vt 1 0
vt 0 0
vt 0 1
vt 1 1
vt 1 0
vt 0 0
vt 0 1
vt 1 1
vt 1 0
vt 0 0
vt 0 1
vt 1 1
vt 1 0
vt 0 0
vt 0 1
vt 1 1
vt 1 0
vt 0 0
vt 0.5 1
vt 1 0
vt 0 0
vt 0.5 1
vt 1 0
vt 0 0
vt 0.5 1
vt 1 0
vt 0 0
vt 0.5 1
vt 1 0
vt 0 0
vt 0.5 1
vt 1 0
vt 0 0
vt 0.5 1
vt 1 0
vt 0 0
vt 0.5 1
vt 1 0
vt 0 0
vt 0.5 1
vt 1 0
vt 0 0
vt 0.5 1
vt 1 0
vt 0 0
vt 0.5 1
vt 1 0

g Foliage2_30_4210_306
usemtl Foliage2_30_4210_306
usemap Foliage2_30_4210_306
f 1/1/1 3/3/3 2/2/2
f 4/4/4 1/1/1 2/2/2
f 5/5/5 4/4/4 2/2/2
f 6/6/6 5/5/5 2/2/2
f 7/7/7 6/6/6 2/2/2
f 8/8/8 7/7/7 2/2/2
f 9/9/9 8/8/8 2/2/2
f 10/10/10 9/9/9 2/2/2
f 11/11/11 10/10/10 2/2/2
f 3/3/3 11/11/11 2/2/2
f 12/12/12 14/14/14 13/13/13
f 12/12/12 15/15/15 14/14/14
f 16/16/16 18/18/18 17/17/17
f 16/16/16 19/19/19 18/18/18
f 20/20/20 22/22/22 21/21/21
f 20/20/20 23/23/23 22/22/22
f 24/24/24 26/26/26 25/25/25
f 24/24/24 27/27/27 26/26/26
f 28/28/28 30/30/30 29/29/29
f 28/28/28 31/31/31 30/30/30
f 32/32/32 34/34/34 33/33/33
f 32/32/32 35/35/35 34/34/34
f 36/36/36 38/38/38 37/37/37
f 36/36/36 39/39/39 38/38/38
f 40/40/40 42/42/42 41/41/41
f 40/40/40 43/43/43 42/42/42
f 44/44/44 46/46/46 45/45/45
f 44/44/44 47/47/47 46/46/46
f 48/48/48 50/50/50 49/49/49
f 48/48/48 51/51/51 50/50/50
f 52/52/52 54/54/54 53/53/53
f 52/52/52 55/55/55 54/54/54
f 56/56/56 58/58/58 57/57/57
f 56/56/56 59/59/59 58/58/58
f 60/60/60 62/62/62 61/61/61
f 60/60/60 63/63/63 62/62/62
f 64/64/64 66/66/66 65/65/65
f 64/64/64 67/67/67 66/66/66
f 68/68/68 70/70/70 69/69/69
f 68/68/68 71/71/71 70/70/70
f 72/72/72 74/74/74 73/73/73
f 72/72/72 75/75/75 74/74/74
f 76/76/76 78/78/78 77/77/77
f 76/76/76 79/79/79 78/78/78
f 80/80/80 82/82/82 81/81/81
f 80/80/80 83/83/83 82/82/82
f 84/84/84 86/86/86 85/85/85
f 84/84/84 87/87/87 86/86/86
f 88/88/88 90/90/90 89/89/89
f 88/88/88 91/91/91 90/90/90
f 92/92/92 94/94/94 93/93/93
f 92/92/92 95/95/95 94/94/94
f 96/96/96 98/98/98 97/97/97
f 96/96/96 99/99/99 98/98/98
f 100/100/100 102/102/102 101/101/101
f 100/100/100 103/103/103 102/102/102
f 104/104/104 106/106/106 105/105/105
f 104/104/104 107/107/107 106/106/106
f 108/108/108 110/110/110 109/109/109
f 108/108/108 111/111/111 110/110/110
f 112/112/112 114/114/114 113/113/113
f 112/112/112 115/115/115 114/114/114
f 116/116/116 118/118/118 117/117/117
f 116/116/116 119/119/119 118/118/118
f 120/120/120 122/122/122 121/121/121
f 120/120/120 123/123/123 122/122/122
f 124/124/124 126/126/126 125/125/125
f 124/124/124 127/127/127 126/126/126
f 128/128/128 130/130/130 129/129/129
f 128/128/128 131/131/131 130/130/130
f 132/132/132 134/134/134 133/133/133
f 132/132/132 135/135/135 134/134/134
f 136/136/136 138/138/138 137/137/137
f 136/136/136 139/139/139 138/138/138
f 140/140/140 142/142/142 141/141/141
f 140/140/140 143/143/143 142/142/142
f 144/144/144 146/146/146 145/145/145
f 144/144/144 147/147/147 146/146/146
f 148/148/148 150/150/150 149/149/149
f 148/148/148 151/151/151 150/150/150
f 152/152/152 154/154/154 153/153/153
f 152/152/152 155/155/155 154/154/154
f 156/156/156 158/158/158 157/157/157
f 156/156/156 159/159/159 158/158/158
f 160/160/160 162/162/162 161/161/161
f 160/160/160 163/163/163 162/162/162
f 164/164/164 166/166/166 165/165/165
f 164/164/164 167/167/167 166/166/166
f 168/168/168 170/170/170 169/169/169
f 168/168/168 171/171/171 170/170/170
f 172/172/172 174/174/174 173/173/173
f 175/175/175 177/177/177 176/176/176
f 178/178/178 180/180/180 179/179/179
f 181/181/181 183/183/183 182/182/182
f 184/184/184 186/186/186 185/185/185
f 187/187/187 189/189/189 188/188/188
f 190/190/190 192/192/192 191/191/191
f 193/193/193 195/195/195 194/194/194
f 196/196/196 198/198/198 197/197/197
f 199/199/199 201/201/201 200/200/200
