#Foliage7_34_3423_96.obj

v 0.01454967 -0.02577545 -0.04035594
v 0.004628229 -0.03397588 0.00109346
v 0.03878884 -0.02577545 -0.02105249
v -0.009659724 -0.02577544 -0.0381731
v -0.01824669 -0.02577543 -0.01777829
v -0.03821789 -0.022232 0.001093534
v -0.02134699 -0.02577543 0.01996516
v -0.005294005 -0.02577546 0.03272027
v 0.02109833 -0.02577542 0.04036054
v 0.03060265 -0.02577545 0.01996513
v 0.03219374 -0.02223198 0.00109353
v 0.03878884 -0.02577545 -0.02105249
v 0.04797053 -0.01489221 -0.02772409
v 0.0180565 -0.01489218 -0.05115066
v 0.01454967 -0.02577545 -0.04035594
v 0.01454967 -0.02577545 -0.04035594
v 0.0180565 -0.01489218 -0.05115066
v -0.01316666 -0.01489217 -0.04896795
v -0.009659724 -0.02577544 -0.0381731
v -0.009659724 -0.02577544 -0.0381731
v -0.01316666 -0.01489217 -0.04896795
v -0.02742951 -0.01489217 -0.02444951
v -0.01824669 -0.02577543 -0.01777829
v -0.01824669 -0.02577543 -0.01777829
v -0.02742951 -0.01489217 -0.02444951
v -0.04796341 -0.01288802 0.001093386
v -0.03821789 -0.022232 0.001093534
v -0.03821789 -0.022232 0.001093534
v -0.04796341 -0.01288802 0.001093386
v -0.03052952 -0.01489217 0.0266367
v -0.02134699 -0.02577543 0.01996516
v -0.02134699 -0.02577543 0.01996516
v -0.03052952 -0.01489217 0.0266367
v -0.008800767 -0.01489215 0.04351447
v -0.005294005 -0.02577546 0.03272027
v -0.005294005 -0.02577546 0.03272027
v -0.008800767 -0.01489215 0.04351447
v 0.02460534 -0.01489218 0.05115487
v 0.02109833 -0.02577542 0.04036054
v 0.02109833 -0.02577542 0.04036054
v 0.02460534 -0.01489218 0.05115487
v 0.03978461 -0.0148922 0.02663675
v 0.03060265 -0.02577545 0.01996513
v 0.03060265 -0.02577545 0.01996513
v 0.03978461 -0.0148922 0.02663675
v 0.04193803 -0.01288802 0.001093332
v 0.03219374 -0.02223198 0.00109353
v 0.03219374 -0.02223198 0.00109353
v 0.04193803 -0.01288802 0.001093332
v 0.04797053 -0.01489221 -0.02772409
v 0.03878884 -0.02577545 -0.02105249
v 0.04797053 -0.01489221 -0.02772409
v 0.04797079 -0.0001481274 -0.02772416
v 0.01805677 -0.0001480979 -0.05115074
v 0.0180565 -0.01489218 -0.05115066
v 0.0180565 -0.01489218 -0.05115066
v 0.01805677 -0.0001480979 -0.05115074
v -0.0131664 -0.0001480751 -0.04896756
v -0.01316666 -0.01489217 -0.04896795
v -0.01316666 -0.01489217 -0.04896795
v -0.0131664 -0.0001480751 -0.04896756
v -0.02742925 -0.0001480878 -0.02444959
v -0.02742951 -0.01489217 -0.02444951
v -0.02742951 -0.01489217 -0.02444951
v -0.02742925 -0.0001480878 -0.02444959
v -0.04796278 -0.0002292103 0.001093392
v -0.04796341 -0.01288802 0.001093386
v -0.04796341 -0.01288802 0.001093386
v -0.04796278 -0.0002292103 0.001093392
v -0.03052926 -0.0001480908 0.02663662
v -0.03052952 -0.01489217 0.0266367
v -0.03052952 -0.01489217 0.0266367
v -0.03052926 -0.0001480908 0.02663662
v -0.00880143 -0.0001481516 0.04351485
v -0.008800767 -0.01489215 0.04351447
v -0.008800767 -0.01489215 0.04351447
v -0.00880143 -0.0001481516 0.04351485
v 0.02460561 -0.0001480966 0.0511548
v 0.02460534 -0.01489218 0.05115487
v 0.02460534 -0.01489218 0.05115487
v 0.02460561 -0.0001480966 0.0511548
v 0.03978487 -0.0001481208 0.02663667
v 0.03978461 -0.0148922 0.02663675
v 0.03978461 -0.0148922 0.02663675
v 0.03978487 -0.0001481208 0.02663667
v 0.04193773 -0.0002292449 0.00109333
v 0.04193803 -0.01288802 0.001093332
v 0.04193803 -0.01288802 0.001093332
v 0.04193773 -0.0002292449 0.00109333
v 0.04797079 -0.0001481274 -0.02772416
v 0.04797053 -0.01489221 -0.02772409
v 0.04797079 -0.0001481274 -0.02772416
v 0.04569281 0.01428359 -0.02539484
v 0.01714897 0.01428356 -0.04798921
v 0.01805677 -0.0001480979 -0.05115074
v 0.01805677 -0.0001480979 -0.05115074
v 0.01714897 0.01428356 -0.04798921
v -0.01182526 0.01428359 -0.04559565
v -0.0131664 -0.0001480751 -0.04896756
v -0.0131664 -0.0001480751 -0.04896756
v -0.01182526 0.01428359 -0.04559565
v -0.02320669 0.01428358 -0.02180409
v -0.02742925 -0.0001480878 -0.02444959
v -0.02742925 -0.0001480878 -0.02444959
v -0.02320669 0.01428358 -0.02180409
v -0.04530057 0.01197225 0.001198771
v -0.04796278 -0.0002292103 0.001093392
v -0.04796278 -0.0002292103 0.001093392
v -0.04530057 0.01197225 0.001198771
v -0.02660528 0.01428357 0.02420202
v -0.03052926 -0.0001480908 0.02663662
v -0.03052926 -0.0001480908 0.02663662
v -0.02660528 0.01428357 0.02420202
v -0.007038209 0.01428354 0.03961546
v -0.00880143 -0.0001481516 0.04351485
v -0.00880143 -0.0001481516 0.04351485
v -0.007038209 0.01428354 0.03961546
v 0.02432946 0.01428353 0.04799352
v 0.02460561 -0.0001480966 0.0511548
v 0.02460561 -0.0001480966 0.0511548
v 0.02432946 0.01428353 0.04799352
v 0.03671644 0.01428354 0.02420214
v 0.03978487 -0.0001481208 0.02663667
v 0.03978487 -0.0001481208 0.02663667
v 0.03671644 0.01428354 0.02420214
v 0.03865578 0.01197229 0.001198873
v 0.04193773 -0.0002292449 0.00109333
v 0.04193773 -0.0002292449 0.00109333
v 0.03865578 0.01197229 0.001198873
v 0.04569281 0.01428359 -0.02539484
v 0.04797079 -0.0001481274 -0.02772416
v 0.04569281 0.01428359 -0.02539484
v 0.03225644 0.02437463 -0.01614578
v 0.01204018 0.0243746 -0.03256641
v 0.01714897 0.01428356 -0.04798921
v 0.01714897 0.01428356 -0.04798921
v 0.01204018 0.0243746 -0.03256641
v -0.002588768 0.0243746 -0.02139167
v -0.01182526 0.01428359 -0.04559565
v -0.01182526 0.01428359 -0.04559565
v -0.002588768 0.0243746 -0.02139167
v -0.01124893 0.02437461 -0.01279319
v -0.02320669 0.01428358 -0.02180409
v -0.02320669 0.01428358 -0.02180409
v -0.01124893 0.02437461 -0.01279319
v -0.03124092 0.02074669 0.001119368
v -0.04530057 0.01197225 0.001198771
v -0.04530057 0.01197225 0.001198771
v -0.03124092 0.02074669 0.001119368
v -0.01442282 0.02437459 0.01503234
v -0.02660528 0.01428357 0.02420202
v -0.02660528 0.01428357 0.02420202
v -0.01442282 0.02437459 0.01503234
v -0.002588332 0.02437463 0.02474833
v -0.007038209 0.01428354 0.03961546
v -0.007038209 0.01428354 0.03961546
v -0.002588332 0.02437463 0.02474833
v 0.01874507 0.02437461 0.03257071
v 0.02432946 0.01428353 0.04799352
v 0.02432946 0.01428353 0.04799352
v 0.01874507 0.02437461 0.03257071
v 0.02387531 0.02437461 0.01503217
v 0.03671644 0.01428354 0.02420214
v 0.03671644 0.01428354 0.02420214
v 0.02387531 0.02437461 0.01503217
v 0.02504846 0.02074667 0.001119658
v 0.03865578 0.01197229 0.001198873
v 0.03865578 0.01197229 0.001198873
v 0.02504846 0.02074667 0.001119658
v 0.03225644 0.02437463 -0.01614578
v 0.04569281 0.01428359 -0.02539484
v 0.03225644 0.02437463 -0.01614578
v 0.004628114 0.03397629 0.001093681
v 0.01204018 0.0243746 -0.03256641
v 0.01204018 0.0243746 -0.03256641
v 0.004628114 0.03397629 0.001093681
v -0.002588768 0.0243746 -0.02139167
v -0.002588768 0.0243746 -0.02139167
v 0.004628114 0.03397629 0.001093681
v -0.01124893 0.02437461 -0.01279319
v -0.01124893 0.02437461 -0.01279319
v 0.004628114 0.03397629 0.001093681
v -0.03124092 0.02074669 0.001119368
v -0.03124092 0.02074669 0.001119368
v 0.004628114 0.03397629 0.001093681
v -0.01442282 0.02437459 0.01503234
v -0.01442282 0.02437459 0.01503234
v 0.004628114 0.03397629 0.001093681
v -0.002588332 0.02437463 0.02474833
v -0.002588332 0.02437463 0.02474833
v 0.004628114 0.03397629 0.001093681
v 0.01874507 0.02437461 0.03257071
v 0.01874507 0.02437461 0.03257071
v 0.004628114 0.03397629 0.001093681
v 0.02387531 0.02437461 0.01503217
v 0.02387531 0.02437461 0.01503217
v 0.004628114 0.03397629 0.001093681
v 0.02504846 0.02074667 0.001119658
v 0.02504846 0.02074667 0.001119658
v 0.004628114 0.03397629 0.001093681
v 0.03225644 0.02437463 -0.01614578

vn 0.2020591 -0.9791365 0.02152846
vn 0.02209021 -0.9991118 -0.03587911
vn 0.07861696 -0.9837011 0.1617133
vn 0.1951835 -0.973129 -0.1221597
vn 0.1213158 -0.9473317 -0.2963859
vn 0.03681103 -0.9530834 -0.3004606
vn -0.09078625 -0.9610996 -0.2608543
vn -0.1997377 -0.9706044 -0.1342812
vn -0.1582032 -0.9871334 0.02321666
vn -0.002362702 -0.9688326 0.2477041
vn -0.07579588 -0.9313508 0.3561465
vn 0.5769017 -0.7072162 0.4086925
vn 0.5769017 -0.7072162 0.4086925
vn 0.5769017 -0.7072162 0.4086925
vn 0.5769017 -0.7072162 0.4086925
vn 0.7236996 -0.6844884 -0.08794394
vn 0.7236996 -0.6844885 -0.08794395
vn 0.7236996 -0.6844884 -0.08794395
vn 0.7236997 -0.6844885 -0.08794396
vn 0.3483569 -0.6289027 -0.6950746
vn 0.3483569 -0.6289026 -0.6950746
vn 0.3483569 -0.6289027 -0.6950746
vn 0.3483569 -0.6289026 -0.6950746
vn 0.4512085 -0.654276 -0.606905
vn 0.4512085 -0.6542759 -0.6069052
vn 0.4512085 -0.6542759 -0.6069051
vn 0.4512084 -0.6542759 -0.6069051
vn -0.372873 -0.6805519 -0.6307254
vn -0.372873 -0.6805519 -0.6307254
vn -0.372873 -0.6805518 -0.6307255
vn -0.372873 -0.6805519 -0.6307255
vn -0.5470819 -0.6994303 -0.4598896
vn -0.5470819 -0.6994303 -0.4598897
vn -0.5470818 -0.6994303 -0.4598896
vn -0.5470818 -0.6994303 -0.4598896
vn -0.6847053 -0.7012021 -0.198731
vn -0.6847053 -0.7012022 -0.198731
vn -0.6847054 -0.7012022 -0.198731
vn -0.6847053 -0.7012021 -0.198731
vn -0.3377974 -0.6996512 0.629588
vn -0.3377974 -0.6996512 0.6295879
vn -0.3377974 -0.6996512 0.6295879
vn -0.3377974 -0.6996512 0.6295881
vn 0.04449561 -0.7052789 0.707532
vn 0.04449562 -0.7052789 0.707532
vn 0.04449561 -0.7052789 0.707532
vn 0.04449562 -0.7052789 0.707532
vn -0.2316891 -0.6485303 0.7250713
vn -0.2316891 -0.6485302 0.7250714
vn -0.2316891 -0.6485303 0.7250713
vn -0.2316891 -0.6485302 0.7250713
vn 0.7926001 -0.005414 0.6097178
vn 0.7926001 -0.005414002 0.6097178
vn 0.7926001 -0.005414002 0.6097178
vn 0.7926001 -0.005414 0.6097178
vn 0.9966584 0.02493185 -0.07778545
vn 0.9966584 0.02493185 -0.07778545
vn 0.9966584 0.02493185 -0.07778545
vn 0.9966584 0.02493185 -0.07778545
vn 0.4949473 0.04354692 -0.8678312
vn 0.4949473 0.04354692 -0.8678312
vn 0.4949473 0.04354692 -0.8678312
vn 0.4949473 0.04354692 -0.8678312
vn 0.6193879 0.04314023 -0.7838988
vn 0.6193879 0.04314023 -0.7838989
vn 0.6193879 0.04314023 -0.7838988
vn 0.6193879 0.04314023 -0.7838988
vn -0.5709608 0.01824083 -0.8207747
vn -0.5709608 0.01824083 -0.8207747
vn -0.5709609 0.01824083 -0.8207747
vn -0.5709608 0.01824083 -0.8207747
vn -0.7950026 0.005243141 -0.6065834
vn -0.7950026 0.005243141 -0.6065834
vn -0.7950026 0.005243141 -0.6065834
vn -0.7950026 0.005243141 -0.6065834
vn -0.9765488 -0.0134882 -0.2148735
vn -0.9765488 -0.0134882 -0.2148735
vn -0.9765488 -0.0134882 -0.2148735
vn -0.9765488 -0.0134882 -0.2148735
vn -0.5186418 -0.04354586 0.8538821
vn -0.5186418 -0.04354586 0.8538821
vn -0.5186418 -0.04354586 0.8538821
vn -0.5186418 -0.04354586 0.8538821
vn -0.0750632 -0.0391077 0.9964116
vn -0.07506321 -0.0391077 0.9964116
vn -0.0750632 -0.0391077 0.9964116
vn -0.07506321 -0.0391077 0.9964116
vn -0.1960818 -0.04115282 0.9797236
vn -0.1960818 -0.04115282 0.9797236
vn -0.1960818 -0.04115282 0.9797236
vn -0.1960818 -0.04115282 0.9797236
vn 0.768239 0.2071574 0.6057184
vn 0.7682388 0.2071575 0.6057184
vn 0.7682388 0.2071575 0.6057184
vn 0.7682388 0.2071575 0.6057184
vn 0.9665971 0.2455488 -0.07345634
vn 0.9665971 0.2455488 -0.07345635
vn 0.9665971 0.2455488 -0.07345635
vn 0.9665971 0.2455488 -0.07345635
vn 0.4394003 0.3006603 -0.8464814
vn 0.4394003 0.3006603 -0.8464814
vn 0.4394003 0.3006603 -0.8464814
vn 0.4394003 0.3006603 -0.8464814
vn 0.6185957 0.2958933 -0.7278644
vn 0.6185957 0.2958933 -0.7278643
vn 0.6185957 0.2958933 -0.7278644
vn 0.6185957 0.2958933 -0.7278644
vn -0.5834737 0.260046 -0.7693728
vn -0.5834737 0.2600461 -0.7693728
vn -0.5834737 0.260046 -0.7693728
vn -0.5834737 0.260046 -0.7693728
vn -0.7670245 0.2871561 -0.5737723
vn -0.7670245 0.2871561 -0.5737724
vn -0.7670245 0.2871561 -0.5737724
vn -0.7670245 0.2871561 -0.5737724
vn -0.9489749 0.2297786 -0.2159826
vn -0.9489749 0.2297786 -0.2159826
vn -0.9489749 0.2297786 -0.2159826
vn -0.9489749 0.2297786 -0.2159826
vn -0.4827885 0.1501017 0.8627773
vn -0.4827885 0.1501017 0.8627773
vn -0.4827885 0.1501017 0.8627772
vn -0.4827885 0.1501017 0.8627773
vn -0.0665381 0.199167 0.977704
vn -0.06653811 0.199167 0.977704
vn -0.0665381 0.199167 0.977704
vn -0.06653811 0.199167 0.977704
vn -0.2284864 0.13716 0.9638366
vn -0.2284864 0.1371601 0.9638366
vn -0.2284864 0.1371601 0.9638366
vn -0.2284864 0.1371601 0.9638366
vn 0.4119336 0.8328312 0.3697331
vn 0.4119336 0.8328312 0.3697331
vn 0.4119336 0.8328312 0.3697331
vn 0.4119336 0.8328312 0.3697331
vn 0.4173331 0.9024937 -0.1064795
vn 0.4173331 0.9024936 -0.1064795
vn 0.4173331 0.9024937 -0.1064795
vn 0.4173331 0.9024937 -0.1064795
vn 0.2370421 0.890031 -0.3894295
vn 0.2370421 0.890031 -0.3894295
vn 0.2370421 0.890031 -0.3894295
vn 0.2370421 0.890031 -0.3894295
vn 0.3632472 0.829623 -0.4240007
vn 0.3632472 0.8296231 -0.4240007
vn 0.3632472 0.8296231 -0.4240007
vn 0.3632472 0.8296231 -0.4240007
vn -0.3466005 0.8282038 -0.4403933
vn -0.3466005 0.8282039 -0.4403932
vn -0.3466005 0.8282038 -0.4403933
vn -0.3466005 0.8282038 -0.4403933
vn -0.4655432 0.8248214 -0.3208409
vn -0.4655432 0.8248213 -0.320841
vn -0.4655432 0.8248213 -0.320841
vn -0.4655432 0.8248213 -0.320841
vn -0.5702534 0.8104573 -0.1340505
vn -0.5702534 0.8104573 -0.1340505
vn -0.5702534 0.8104573 -0.1340505
vn -0.5702534 0.8104573 -0.1340505
vn -0.2486001 0.7693846 0.5884257
vn -0.2486001 0.7693846 0.5884258
vn -0.2486001 0.7693846 0.5884258
vn -0.2486001 0.7693846 0.5884258
vn 0.06585316 0.7772052 0.6257917
vn 0.06585317 0.7772052 0.6257915
vn 0.06585317 0.7772052 0.6257916
vn 0.06585315 0.7772052 0.6257917
vn -0.3085862 0.7023087 0.6415113
vn -0.3085862 0.7023088 0.6415113
vn -0.3085862 0.7023087 0.6415113
vn -0.3085862 0.7023087 0.6415113
vn 0.2115581 0.9519408 0.2214755
vn 0.2115582 0.9519408 0.2214755
vn 0.2115581 0.9519408 0.2214755
vn 0.2923788 0.933311 -0.2084341
vn 0.2923788 0.933311 -0.2084341
vn 0.2923788 0.933311 -0.208434
vn 0.2718434 0.9264103 -0.2605088
vn 0.2718434 0.9264103 -0.2605088
vn 0.2718434 0.9264103 -0.2605088
vn 0.2219891 0.9266977 -0.3032353
vn 0.2219892 0.9266978 -0.3032353
vn 0.2219892 0.9266978 -0.3032353
vn -0.1943436 0.9324774 -0.3044932
vn -0.1943436 0.9324774 -0.3044931
vn -0.1943436 0.9324774 -0.3044932
vn -0.3217401 0.9235916 -0.2084739
vn -0.3217401 0.9235917 -0.2084739
vn -0.3217401 0.9235917 -0.2084739
vn -0.3618359 0.9281814 -0.08691118
vn -0.3618358 0.9281814 -0.08691119
vn -0.3618358 0.9281814 -0.08691118
vn -0.1275191 0.9015518 0.4134522
vn -0.1275191 0.9015518 0.4134522
vn -0.1275191 0.9015517 0.4134523
vn 0.1569472 0.80989 0.565195
vn 0.1569471 0.80989 0.565195
vn 0.1569471 0.8098901 0.565195
vn -0.386558 0.7506384 0.5358309
vn -0.386558 0.7506384 0.5358309
vn -0.386558 0.7506384 0.5358309

vt 0.5483398 0.007648468
vt 0.5 0.1500244
vt 0.6264648 0.06439209
vt 0.4516602 0.007648468
vt 0.3735352 0.06439209
vt 0.34375 0.15625
vt 0.3735352 0.2480469
vt 0.4516602 0.3049316
vt 0.5483398 0.3049316
vt 0.6264648 0.2480469
vt 0.65625 0.15625
vt 0 0
vt 0 1
vt 1 1
vt 1 0
vt 0 0
vt 0 1
vt 1 1
vt 1 0
vt 0 0
vt 0 1
vt 1 1
vt 1 0
vt 0 0
vt 0 1
vt 1 1
vt 1 0
vt 0 0
vt 0 1
vt 1 1
vt 1 0
vt 0 0
vt 0 1
vt 1 1
vt 1 0
vt 0 0
vt 0 1
vt 1 1
vt 1 0
vt 0 0
vt 0 1
vt 1 1
vt 1 0
vt 0 0
vt 0 1
vt 1 1
vt 1 0
vt 0 0
vt 0 1
vt 1 1
vt 1 0
vt 0 0
vt 0 1
vt 1 1
vt 1 0
vt 0 0
vt 0 1
vt 1 1
vt 1 0
vt 0 0
vt 0 1
vt 1 1
vt 1 0
vt 0 0
vt 0 1
vt 1 1
vt 1 0
vt 0 0
vt 0 1
vt 1 1
vt 1 0
vt 0 0
vt 0 1
vt 1 1
vt 1 0
vt 0 0
vt 0 1
vt 1 1
vt 1 0
vt 0 0
vt 0 1
vt 1 1
vt 1 0
vt 0 0
vt 0 1
vt 1 1
vt 1 0
vt 0 0
vt 0 1
vt 1 1
vt 1 0
vt 0 0
vt 0 1
vt 1 1
vt 1 0
vt 0 0
vt 0 1
vt 1 1
vt 1 0
vt 0 0
vt 0 1
vt 1 1
vt 1 0
vt 0 0
vt 0 1
vt 1 1
vt 1 0
vt 0 0
vt 0 1
vt 1 1
vt 1 0
vt 0 0
vt 0 1
vt 1 1
vt 1 0
vt 0 0
vt 0 1
vt 1 1
vt 1 0
vt 0 0
vt 0 1
vt 1 1
vt 1 0
vt 0 0
vt 0 1
vt 1 1
vt 1 0
vt 0 0
vt 0 1
vt 1 1
vt 1 0
vt 0 0
vt 0 1
vt 1 1
vt 1 0
vt 0 0
vt 0 1
vt 1 1
vt 1 0
vt 0 0
vt 0 1
vt 1 1
vt 1 0
vt 0 0
vt 0 1
vt 1 1
vt 1 0
vt 0 0
vt 0 1
vt 1 1
vt 1 0
vt 0 0
vt 0 1
vt 1 1
vt 1 0
vt 0 0
vt 0 1
vt 1 1
vt 1 0
vt 0 0
vt 0 1
vt 1 1
vt 1 0
vt 0 0
vt 0 1
vt 1 1
vt 1 0
vt 0 0
vt 0 1
vt 1 1
vt 1 0
vt 0 0
vt 0.5 1
vt 1 0
vt 0 0
vt 0.5 1
vt 1 0
vt 0 0
vt 0.5 1
vt 1 0
vt 0 0
vt 0.5 1
vt 1 0
vt 0 0
vt 0.5 1
vt 1 0
vt 0 0
vt 0.5 1
vt 1 0
vt 0 0
vt 0.5 1
vt 1 0
vt 0 0
vt 0.5 1
vt 1 0
vt 0 0
vt 0.5 1
vt 1 0
vt 0 0
vt 0.5 1
vt 1 0

g Foliage7_34_3423_96
usemtl Foliage7_34_3423_96
usemap Foliage7_34_3423_96
f 1/1/1 3/3/3 2/2/2
f 4/4/4 1/1/1 2/2/2
f 5/5/5 4/4/4 2/2/2
f 6/6/6 5/5/5 2/2/2
f 7/7/7 6/6/6 2/2/2
f 8/8/8 7/7/7 2/2/2
f 9/9/9 8/8/8 2/2/2
f 10/10/10 9/9/9 2/2/2
f 11/11/11 10/10/10 2/2/2
f 3/3/3 11/11/11 2/2/2
f 12/12/12 14/14/14 13/13/13
f 12/12/12 15/15/15 14/14/14
f 16/16/16 18/18/18 17/17/17
f 16/16/16 19/19/19 18/18/18
f 20/20/20 22/22/22 21/21/21
f 20/20/20 23/23/23 22/22/22
f 24/24/24 26/26/26 25/25/25
f 24/24/24 27/27/27 26/26/26
f 28/28/28 30/30/30 29/29/29
f 28/28/28 31/31/31 30/30/30
f 32/32/32 34/34/34 33/33/33
f 32/32/32 35/35/35 34/34/34
f 36/36/36 38/38/38 37/37/37
f 36/36/36 39/39/39 38/38/38
f 40/40/40 42/42/42 41/41/41
f 40/40/40 43/43/43 42/42/42
f 44/44/44 46/46/46 45/45/45
f 44/44/44 47/47/47 46/46/46
f 48/48/48 50/50/50 49/49/49
f 48/48/48 51/51/51 50/50/50
f 52/52/52 54/54/54 53/53/53
f 52/52/52 55/55/55 54/54/54
f 56/56/56 58/58/58 57/57/57
f 56/56/56 59/59/59 58/58/58
f 60/60/60 62/62/62 61/61/61
f 60/60/60 63/63/63 62/62/62
f 64/64/64 66/66/66 65/65/65
f 64/64/64 67/67/67 66/66/66
f 68/68/68 70/70/70 69/69/69
f 68/68/68 71/71/71 70/70/70
f 72/72/72 74/74/74 73/73/73
f 72/72/72 75/75/75 74/74/74
f 76/76/76 78/78/78 77/77/77
f 76/76/76 79/79/79 78/78/78
f 80/80/80 82/82/82 81/81/81
f 80/80/80 83/83/83 82/82/82
f 84/84/84 86/86/86 85/85/85
f 84/84/84 87/87/87 86/86/86
f 88/88/88 90/90/90 89/89/89
f 88/88/88 91/91/91 90/90/90
f 92/92/92 94/94/94 93/93/93
f 92/92/92 95/95/95 94/94/94
f 96/96/96 98/98/98 97/97/97
f 96/96/96 99/99/99 98/98/98
f 100/100/100 102/102/102 101/101/101
f 100/100/100 103/103/103 102/102/102
f 104/104/104 106/106/106 105/105/105
f 104/104/104 107/107/107 106/106/106
f 108/108/108 110/110/110 109/109/109
f 108/108/108 111/111/111 110/110/110
f 112/112/112 114/114/114 113/113/113
f 112/112/112 115/115/115 114/114/114
f 116/116/116 118/118/118 117/117/117
f 116/116/116 119/119/119 118/118/118
f 120/120/120 122/122/122 121/121/121
f 120/120/120 123/123/123 122/122/122
f 124/124/124 126/126/126 125/125/125
f 124/124/124 127/127/127 126/126/126
f 128/128/128 130/130/130 129/129/129
f 128/128/128 131/131/131 130/130/130
f 132/132/132 134/134/134 133/133/133
f 132/132/132 135/135/135 134/134/134
f 136/136/136 138/138/138 137/137/137
f 136/136/136 139/139/139 138/138/138
f 140/140/140 142/142/142 141/141/141
f 140/140/140 143/143/143 142/142/142
f 144/144/144 146/146/146 145/145/145
f 144/144/144 147/147/147 146/146/146
f 148/148/148 150/150/150 149/149/149
f 148/148/148 151/151/151 150/150/150
f 152/152/152 154/154/154 153/153/153
f 152/152/152 155/155/155 154/154/154
f 156/156/156 158/158/158 157/157/157
f 156/156/156 159/159/159 158/158/158
f 160/160/160 162/162/162 161/161/161
f 160/160/160 163/163/163 162/162/162
f 164/164/164 166/166/166 165/165/165
f 164/164/164 167/167/167 166/166/166
f 168/168/168 170/170/170 169/169/169
f 168/168/168 171/171/171 170/170/170
f 172/172/172 174/174/174 173/173/173
f 175/175/175 177/177/177 176/176/176
f 178/178/178 180/180/180 179/179/179
f 181/181/181 183/183/183 182/182/182
f 184/184/184 186/186/186 185/185/185
f 187/187/187 189/189/189 188/188/188
f 190/190/190 192/192/192 191/191/191
f 193/193/193 195/195/195 194/194/194
f 196/196/196 198/198/198 197/197/197
f 199/199/199 201/201/201 200/200/200
