#Foliage2_24_3823_162.obj

v 0.0145431 -0.02577584 -0.04035477
v 0.004621835 -0.03397618 0.001094241
v 0.03878241 -0.02577583 -0.02105182
v -0.009665437 -0.02577585 -0.03817257
v -0.01825284 -0.02577581 -0.01777747
v -0.03822418 -0.02223226 0.001094221
v -0.02135313 -0.0257759 0.01996687
v -0.005299727 -0.02577587 0.03272114
v 0.02109177 -0.02577571 0.04036193
v 0.03059637 -0.02577576 0.01996674
v 0.03218735 -0.02223224 0.001094479
v 0.03878241 -0.02577583 -0.02105182
v 0.04796478 -0.01489265 -0.02772299
v 0.0180505 -0.01489243 -0.05114935
v 0.0145431 -0.02577584 -0.04035477
v 0.0145431 -0.02577584 -0.04035477
v 0.0180505 -0.01489243 -0.05114935
v -0.0131728 -0.01489242 -0.04896704
v -0.009665437 -0.02577585 -0.03817257
v -0.009665437 -0.02577585 -0.03817257
v -0.0131728 -0.01489242 -0.04896704
v -0.02743536 -0.01489257 -0.02444853
v -0.01825284 -0.02577581 -0.01777747
v -0.01825284 -0.02577581 -0.01777747
v -0.02743536 -0.01489257 -0.02444853
v -0.04796899 -0.01288837 0.001094184
v -0.03822418 -0.02223226 0.001094221
v -0.03822418 -0.02223226 0.001094221
v -0.04796899 -0.01288837 0.001094184
v -0.03053545 -0.0148925 0.02663815
v -0.02135313 -0.0257759 0.01996687
v -0.02135313 -0.0257759 0.01996687
v -0.03053545 -0.0148925 0.02663815
v -0.008807131 -0.01489247 0.04351581
v -0.005299727 -0.02577587 0.03272114
v -0.005299727 -0.02577587 0.03272114
v -0.008807131 -0.01489247 0.04351581
v 0.02459935 -0.01489259 0.05115553
v 0.02109177 -0.02577571 0.04036193
v 0.02109177 -0.02577571 0.04036193
v 0.02459935 -0.01489259 0.05115553
v 0.03977883 -0.01489244 0.02663789
v 0.03059637 -0.02577576 0.01996674
v 0.03059637 -0.02577576 0.01996674
v 0.03977883 -0.01489244 0.02663789
v 0.04193204 -0.0128883 0.001095139
v 0.03218735 -0.02223224 0.001094479
v 0.03218735 -0.02223224 0.001094479
v 0.04193204 -0.0128883 0.001095139
v 0.04796478 -0.01489265 -0.02772299
v 0.03878241 -0.02577583 -0.02105182
v 0.04796478 -0.01489265 -0.02772299
v 0.04796467 -0.0001484441 -0.02772258
v 0.01805061 -0.0001484779 -0.05114989
v 0.0180505 -0.01489243 -0.05114935
v 0.0180505 -0.01489243 -0.05114935
v 0.01805061 -0.0001484779 -0.05114989
v -0.0131729 -0.0001484514 -0.04896662
v -0.0131728 -0.01489242 -0.04896704
v -0.0131728 -0.01489242 -0.04896704
v -0.0131729 -0.0001484514 -0.04896662
v -0.02743541 -0.000148354 -0.02444811
v -0.02743536 -0.01489257 -0.02444853
v -0.02743536 -0.01489257 -0.02444853
v -0.02743541 -0.000148354 -0.02444811
v -0.04796915 -0.0002295439 0.001095088
v -0.04796899 -0.01288837 0.001094184
v -0.04796899 -0.01288837 0.001094184
v -0.04796915 -0.0002295439 0.001095088
v -0.03053533 -0.0001485552 0.02663761
v -0.03053545 -0.0148925 0.02663815
v -0.03053545 -0.0148925 0.02663815
v -0.03053533 -0.0001485552 0.02663761
v -0.00880717 -0.000148501 0.04351624
v -0.008807131 -0.01489247 0.04351581
v -0.008807131 -0.01489247 0.04351581
v -0.00880717 -0.000148501 0.04351624
v 0.02459924 -0.0001483815 0.05115594
v 0.02459935 -0.01489259 0.05115553
v 0.02459935 -0.01489259 0.05115553
v 0.02459924 -0.0001483815 0.05115594
v 0.03977873 -0.000148473 0.0266383
v 0.03977883 -0.01489244 0.02663789
v 0.03977883 -0.01489244 0.02663789
v 0.03977873 -0.000148473 0.0266383
v 0.04193204 -0.0002294975 0.001095069
v 0.04193204 -0.0128883 0.001095139
v 0.04193204 -0.0128883 0.001095139
v 0.04193204 -0.0002294975 0.001095069
v 0.04796467 -0.0001484441 -0.02772258
v 0.04796478 -0.01489265 -0.02772299
v 0.04796467 -0.0001484441 -0.02772258
v 0.04568676 0.01428329 -0.02539364
v 0.01714301 0.01428325 -0.04798836
v 0.01805061 -0.0001484779 -0.05114989
v 0.01805061 -0.0001484779 -0.05114989
v 0.01714301 0.01428325 -0.04798836
v -0.01183117 0.01428331 -0.04559483
v -0.0131729 -0.0001484514 -0.04896662
v -0.0131729 -0.0001484514 -0.04896662
v -0.01183117 0.01428331 -0.04559483
v -0.02321235 0.01428313 -0.02180351
v -0.02743541 -0.000148354 -0.02444811
v -0.02743541 -0.000148354 -0.02444811
v -0.02321235 0.01428313 -0.02180351
v -0.04530636 0.011972 0.001200395
v -0.04796915 -0.0002295439 0.001095088
v -0.04796915 -0.0002295439 0.001095088
v -0.04530636 0.011972 0.001200395
v -0.02661186 0.01428314 0.02420361
v -0.03053533 -0.0001485552 0.02663761
v -0.03053533 -0.0001485552 0.02663761
v -0.02661186 0.01428314 0.02420361
v -0.007044059 0.01428327 0.03961696
v -0.00880717 -0.000148501 0.04351624
v -0.00880717 -0.000148501 0.04351624
v -0.007044059 0.01428327 0.03961696
v 0.02432383 0.01428333 0.04799439
v 0.02459924 -0.0001483815 0.05115594
v 0.02459924 -0.0001483815 0.05115594
v 0.02432383 0.01428333 0.04799439
v 0.03671058 0.01428311 0.02420354
v 0.03977873 -0.000148473 0.0266383
v 0.03977873 -0.000148473 0.0266383
v 0.03671058 0.01428311 0.02420354
v 0.03864984 0.01197185 0.001200159
v 0.04193204 -0.0002294975 0.001095069
v 0.04193204 -0.0002294975 0.001095069
v 0.03864984 0.01197185 0.001200159
v 0.04568676 0.01428329 -0.02539364
v 0.04796467 -0.0001484441 -0.02772258
v 0.04568676 0.01428329 -0.02539364
v 0.03225029 0.02437437 -0.01614435
v 0.01203443 0.02437433 -0.03256588
v 0.01714301 0.01428325 -0.04798836
v 0.01714301 0.01428325 -0.04798836
v 0.01203443 0.02437433 -0.03256588
v -0.00259437 0.02437414 -0.02139071
v -0.01183117 0.01428331 -0.04559483
v -0.01183117 0.01428331 -0.04559483
v -0.00259437 0.02437414 -0.02139071
v -0.01125524 0.02437419 -0.0127922
v -0.02321235 0.01428313 -0.02180351
v -0.02321235 0.01428313 -0.02180351
v -0.01125524 0.02437419 -0.0127922
v -0.03124698 0.02074628 0.001121041
v -0.04530636 0.011972 0.001200395
v -0.04530636 0.011972 0.001200395
v -0.03124698 0.02074628 0.001121041
v -0.01442917 0.02437415 0.01503306
v -0.02661186 0.01428314 0.02420361
v -0.02661186 0.01428314 0.02420361
v -0.01442917 0.02437415 0.01503306
v -0.00259442 0.02437423 0.02474951
v -0.007044059 0.01428327 0.03961696
v -0.007044059 0.01428327 0.03961696
v -0.00259442 0.02437423 0.02474951
v 0.01873921 0.02437421 0.03257174
v 0.02432383 0.01428333 0.04799439
v 0.02432383 0.01428333 0.04799439
v 0.01873921 0.02437421 0.03257174
v 0.02386913 0.0243742 0.01503386
v 0.03671058 0.01428311 0.02420354
v 0.03671058 0.01428311 0.02420354
v 0.02386913 0.0243742 0.01503386
v 0.02504201 0.02074631 0.001120942
v 0.03864984 0.01197185 0.001200159
v 0.03864984 0.01197185 0.001200159
v 0.02504201 0.02074631 0.001120942
v 0.03225029 0.02437437 -0.01614435
v 0.04568676 0.01428329 -0.02539364
v 0.03225029 0.02437437 -0.01614435
v 0.004621642 0.03397598 0.001094966
v 0.01203443 0.02437433 -0.03256588
v 0.01203443 0.02437433 -0.03256588
v 0.004621642 0.03397598 0.001094966
v -0.00259437 0.02437414 -0.02139071
v -0.00259437 0.02437414 -0.02139071
v 0.004621642 0.03397598 0.001094966
v -0.01125524 0.02437419 -0.0127922
v -0.01125524 0.02437419 -0.0127922
v 0.004621642 0.03397598 0.001094966
v -0.03124698 0.02074628 0.001121041
v -0.03124698 0.02074628 0.001121041
v 0.004621642 0.03397598 0.001094966
v -0.01442917 0.02437415 0.01503306
v -0.01442917 0.02437415 0.01503306
v 0.004621642 0.03397598 0.001094966
v -0.00259442 0.02437423 0.02474951
v -0.00259442 0.02437423 0.02474951
v 0.004621642 0.03397598 0.001094966
v 0.01873921 0.02437421 0.03257174
v 0.01873921 0.02437421 0.03257174
v 0.004621642 0.03397598 0.001094966
v 0.02386913 0.0243742 0.01503386
v 0.02386913 0.0243742 0.01503386
v 0.004621642 0.03397598 0.001094966
v 0.02504201 0.02074631 0.001120942
v 0.02504201 0.02074631 0.001120942
v 0.004621642 0.03397598 0.001094966
v 0.03225029 0.02437437 -0.01614435

vn 0.2022794 -0.9790998 -0.02111431
vn 0.01429068 -0.9991114 -0.03964099
vn 0.1108614 -0.9836713 0.1417735
vn 0.1655249 -0.9731079 -0.160193
vn 0.05687174 -0.9473407 -0.3151357
vn -0.02661742 -0.9531071 -0.3014593
vn -0.1431182 -0.9611409 -0.2360604
vn -0.2232093 -0.9706515 -0.0895118
vn -0.1496732 -0.9871577 0.05582882
vn 0.04963854 -0.968808 0.2427885
vn 0.0004834682 -0.9313278 0.3641808
vn 0.6497077 -0.7070772 0.2791443
vn 0.6497077 -0.7070772 0.2791443
vn 0.6497076 -0.7070772 0.2791443
vn 0.6497077 -0.7070772 0.2791443
vn 0.6894669 -0.6843743 -0.2372061
vn 0.6894669 -0.6843744 -0.2372061
vn 0.6894669 -0.6843743 -0.2372061
vn 0.689467 -0.6843743 -0.2372061
vn 0.1955172 -0.628913 -0.7524898
vn 0.1955173 -0.628913 -0.7524899
vn 0.1955172 -0.628913 -0.7524898
vn 0.1955172 -0.628913 -0.7524899
vn 0.314529 -0.6542601 -0.6877608
vn 0.3145289 -0.65426 -0.6877609
vn 0.3145289 -0.65426 -0.6877608
vn 0.3145289 -0.65426 -0.6877608
vn -0.496328 -0.6806782 -0.5388276
vn -0.496328 -0.6806782 -0.5388276
vn -0.4963281 -0.6806781 -0.5388277
vn -0.4963281 -0.6806782 -0.5388277
vn -0.6309832 -0.6995691 -0.3353549
vn -0.6309832 -0.6995691 -0.335355
vn -0.6309832 -0.6995691 -0.335355
vn -0.6309832 -0.6995691 -0.3353549
vn -0.7109873 -0.7013381 -0.05120119
vn -0.7109873 -0.7013381 -0.05120122
vn -0.7109874 -0.7013381 -0.05120119
vn -0.7109873 -0.7013381 -0.05120119
vn -0.1986287 -0.6996452 0.6863256
vn -0.1986288 -0.6996452 0.6863256
vn -0.1986288 -0.6996452 0.6863256
vn -0.1986287 -0.6996452 0.6863257
vn 0.1915129 -0.7052003 0.6826528
vn 0.191513 -0.7052003 0.6826528
vn 0.1915129 -0.7052003 0.6826528
vn 0.191513 -0.7052003 0.6826528
vn -0.07491796 -0.6484968 0.7575215
vn -0.07491791 -0.6484967 0.7575216
vn -0.07491796 -0.6484968 0.7575215
vn -0.07491793 -0.6484967 0.7575215
vn 0.9025243 -0.005218411 0.4306075
vn 0.9025243 -0.005218413 0.4306075
vn 0.9025243 -0.005218413 0.4306075
vn 0.9025243 -0.005218411 0.4306075
vn 0.9583885 0.02509317 -0.2843623
vn 0.9583885 0.02509317 -0.2843623
vn 0.9583885 0.02509317 -0.2843623
vn 0.9583885 0.02509317 -0.2843623
vn 0.3026402 0.04354393 -0.9521096
vn 0.3026402 0.04354393 -0.9521096
vn 0.3026402 0.04354393 -0.9521096
vn 0.3026402 0.04354393 -0.9521096
vn 0.4418741 0.04316677 -0.8960378
vn 0.4418741 0.04316677 -0.8960379
vn 0.4418741 0.04316677 -0.8960378
vn 0.4418741 0.04316677 -0.8960378
vn -0.7298908 0.0180617 -0.6833251
vn -0.7298908 0.0180617 -0.6833251
vn -0.7298909 0.0180617 -0.6833251
vn -0.7298908 0.0180617 -0.6833251
vn -0.9042187 0.005047459 -0.4270402
vn -0.9042187 0.005047459 -0.4270402
vn -0.9042187 0.005047459 -0.4270402
vn -0.9042187 0.005047459 -0.4270402
vn -0.9998883 -0.01367543 -0.006037474
vn -0.9998883 -0.01367543 -0.006037474
vn -0.9998883 -0.01367543 -0.006037474
vn -0.9998883 -0.01367543 -0.006037474
vn -0.3287267 -0.04354829 0.9434205
vn -0.3287267 -0.04354829 0.9434205
vn -0.3287267 -0.04354829 0.9434205
vn -0.3287267 -0.04354829 0.9434205
vn 0.1348431 -0.03902059 0.9900983
vn 0.1348431 -0.03902059 0.9900983
vn 0.1348431 -0.03902059 0.9900983
vn 0.1348431 -0.03902059 0.9900983
vn 0.01300971 -0.04108791 0.9990708
vn 0.01300973 -0.04108791 0.9990708
vn 0.01300971 -0.04108791 0.9990708
vn 0.01300971 -0.04108791 0.9990708
vn 0.8778255 0.2073484 0.4317744
vn 0.8778254 0.2073485 0.4317744
vn 0.8778254 0.2073485 0.4317744
vn 0.8778254 0.2073485 0.4317744
vn 0.9298546 0.2457054 -0.27386
vn 0.9298546 0.2457054 -0.27386
vn 0.9298546 0.2457054 -0.27386
vn 0.9298546 0.2457054 -0.27386
vn 0.2527337 0.30065 -0.9196385
vn 0.2527337 0.30065 -0.9196386
vn 0.2527338 0.30065 -0.9196386
vn 0.2527337 0.30065 -0.9196386
vn 0.4527629 0.2959253 -0.8410909
vn 0.4527629 0.2959253 -0.8410909
vn 0.4527629 0.2959253 -0.8410909
vn 0.4527628 0.2959253 -0.8410909
vn -0.7314301 0.2598699 -0.6304584
vn -0.7314301 0.2598699 -0.6304584
vn -0.7314301 0.2598699 -0.6304584
vn -0.7314301 0.2598698 -0.6304584
vn -0.8700539 0.2869684 -0.4008185
vn -0.8700539 0.2869684 -0.4008185
vn -0.8700539 0.2869684 -0.4008185
vn -0.8700539 0.2869684 -0.4008185
vn -0.9732006 0.2295958 -0.01289997
vn -0.9732006 0.2295958 -0.01289997
vn -0.9732006 0.2295958 -0.01289997
vn -0.9732006 0.2295958 -0.01289997
vn -0.2918423 0.1501062 0.9446143
vn -0.2918423 0.1501062 0.9446143
vn -0.2918423 0.1501062 0.9446143
vn -0.2918423 0.1501062 0.9446143
vn 0.1392257 0.1992537 0.9700073
vn 0.1392258 0.1992537 0.9700074
vn 0.1392258 0.1992537 0.9700074
vn 0.1392258 0.1992536 0.9700074
vn -0.02203292 0.1372178 0.9902958
vn -0.02203289 0.1372178 0.9902958
vn -0.02203292 0.1372178 0.9902958
vn -0.02203292 0.1372179 0.9902958
vn 0.4799524 0.832938 0.2754259
vn 0.4799525 0.832938 0.2754258
vn 0.4799524 0.832938 0.2754259
vn 0.4799525 0.832938 0.2754258
vn 0.3856954 0.9025537 -0.1914036
vn 0.3856954 0.9025536 -0.1914036
vn 0.3856954 0.9025537 -0.1914036
vn 0.3856954 0.9025537 -0.1914036
vn 0.1502539 0.8900321 -0.4304253
vn 0.1502539 0.8900321 -0.4304253
vn 0.1502539 0.8900321 -0.4304253
vn 0.1502539 0.8900321 -0.4304253
vn 0.2664583 0.8296421 -0.4906051
vn 0.2664583 0.8296421 -0.4906051
vn 0.2664583 0.8296421 -0.4906051
vn 0.2664583 0.8296421 -0.4906051
vn -0.4311399 0.8281007 -0.3582836
vn -0.4311398 0.8281007 -0.3582835
vn -0.4311399 0.8281007 -0.3582836
vn -0.4311399 0.8281007 -0.3582836
vn -0.5224699 0.8247101 -0.216513
vn -0.5224699 0.82471 -0.2165131
vn -0.52247 0.82471 -0.2165131
vn -0.5224699 0.82471 -0.2165131
vn -0.5858277 0.810347 -0.01196299
vn -0.5858277 0.810347 -0.01196298
vn -0.5858277 0.810347 -0.01196298
vn -0.5858277 0.810347 -0.01196298
vn -0.1202782 0.7694013 0.6273389
vn -0.1202782 0.7694013 0.627339
vn -0.1202782 0.7694013 0.627339
vn -0.1202782 0.7694013 0.627339
vn 0.1950388 0.7772789 0.5981612
vn 0.1950388 0.777279 0.5981611
vn 0.1950388 0.777279 0.5981612
vn 0.1950388 0.7772789 0.5981612
vn -0.1678327 0.7023205 0.6917931
vn -0.1678327 0.7023205 0.6917931
vn -0.1678327 0.7023205 0.6917931
vn -0.1678327 0.7023205 0.6917931
vn 0.252995 0.9519987 0.1723114
vn 0.252995 0.9519987 0.1723114
vn 0.252995 0.9519987 0.1723114
vn 0.242187 0.9333396 -0.2649943
vn 0.242187 0.9333396 -0.2649943
vn 0.242187 0.9333396 -0.2649943
vn 0.2112232 0.9264301 -0.311627
vn 0.2112232 0.9264301 -0.311627
vn 0.2112232 0.9264301 -0.311627
vn 0.1535403 0.9267049 -0.3429908
vn 0.1535403 0.9267049 -0.3429909
vn 0.1535403 0.9267049 -0.3429909
vn -0.2538627 0.9324137 -0.2572114
vn -0.2538627 0.9324137 -0.2572114
vn -0.2538627 0.9324137 -0.2572114
vn -0.3583772 0.9235159 -0.1366871
vn -0.3583772 0.923516 -0.1366871
vn -0.3583772 0.923516 -0.1366871
vn -0.3721828 0.9281111 -0.009429447
vn -0.3721827 0.9281111 -0.00942947
vn -0.3721827 0.9281111 -0.009429455
vn -0.03846371 0.9015715 0.4309161
vn -0.0384637 0.9015715 0.4309162
vn -0.0384637 0.9015714 0.4309162
vn 0.2714509 0.8099732 0.5198628
vn 0.2714509 0.8099732 0.5198628
vn 0.2714509 0.8099732 0.5198628
vn -0.266178 0.7506263 0.6047387
vn -0.2661781 0.7506263 0.6047387
vn -0.2661781 0.7506263 0.6047387

vt 0.5483398 0.007648468
vt 0.5 0.1500244
vt 0.6264648 0.06439209
vt 0.4516602 0.007648468
vt 0.3735352 0.06439209
vt 0.34375 0.15625
vt 0.3735352 0.2480469
vt 0.4516602 0.3049316
vt 0.5483398 0.3049316
vt 0.6264648 0.2480469
vt 0.65625 0.15625
vt 0 0
vt 0 1
vt 1 1
vt 1 0
vt 0 0
vt 0 1
vt 1 1
vt 1 0
vt 0 0
vt 0 1
vt 1 1
vt 1 0
vt 0 0
vt 0 1
vt 1 1
vt 1 0
vt 0 0
vt 0 1
vt 1 1
vt 1 0
vt 0 0
vt 0 1
vt 1 1
vt 1 0
vt 0 0
vt 0 1
vt 1 1
vt 1 0
vt 0 0
vt 0 1
vt 1 1
vt 1 0
vt 0 0
vt 0 1
vt 1 1
vt 1 0
vt 0 0
vt 0 1
vt 1 1
vt 1 0
vt 0 0
vt 0 1
vt 1 1
vt 1 0
vt 0 0
vt 0 1
vt 1 1
vt 1 0
vt 0 0
vt 0 1
vt 1 1
vt 1 0
vt 0 0
vt 0 1
vt 1 1
vt 1 0
vt 0 0
vt 0 1
vt 1 1
vt 1 0
vt 0 0
vt 0 1
vt 1 1
vt 1 0
vt 0 0
vt 0 1
vt 1 1
vt 1 0
vt 0 0
vt 0 1
vt 1 1
vt 1 0
vt 0 0
vt 0 1
vt 1 1
vt 1 0
vt 0 0
vt 0 1
vt 1 1
vt 1 0
vt 0 0
vt 0 1
vt 1 1
vt 1 0
vt 0 0
vt 0 1
vt 1 1
vt 1 0
vt 0 0
vt 0 1
vt 1 1
vt 1 0
vt 0 0
vt 0 1
vt 1 1
vt 1 0
vt 0 0
vt 0 1
vt 1 1
vt 1 0
vt 0 0
vt 0 1
vt 1 1
vt 1 0
vt 0 0
vt 0 1
vt 1 1
vt 1 0
vt 0 0
vt 0 1
vt 1 1
vt 1 0
vt 0 0
vt 0 1
vt 1 1
vt 1 0
vt 0 0
vt 0 1
vt 1 1
vt 1 0
vt 0 0
vt 0 1
vt 1 1
vt 1 0
vt 0 0
vt 0 1
vt 1 1
vt 1 0
vt 0 0
vt 0 1
vt 1 1
vt 1 0
vt 0 0
vt 0 1
vt 1 1
vt 1 0
vt 0 0
vt 0 1
vt 1 1
vt 1 0
vt 0 0
vt 0 1
vt 1 1
vt 1 0
vt 0 0
vt 0 1
vt 1 1
vt 1 0
vt 0 0
vt 0 1
vt 1 1
vt 1 0
vt 0 0
vt 0 1
vt 1 1
vt 1 0
vt 0 0
vt 0 1
vt 1 1
vt 1 0
vt 0 0
vt 0.5 1
vt 1 0
vt 0 0
vt 0.5 1
vt 1 0
vt 0 0
vt 0.5 1
vt 1 0
vt 0 0
vt 0.5 1
vt 1 0
vt 0 0
vt 0.5 1
vt 1 0
vt 0 0
vt 0.5 1
vt 1 0
vt 0 0
vt 0.5 1
vt 1 0
vt 0 0
vt 0.5 1
vt 1 0
vt 0 0
vt 0.5 1
vt 1 0
vt 0 0
vt 0.5 1
vt 1 0

g Foliage2_24_3823_162
usemtl Foliage2_24_3823_162
usemap Foliage2_24_3823_162
f 1/1/1 3/3/3 2/2/2
f 4/4/4 1/1/1 2/2/2
f 5/5/5 4/4/4 2/2/2
f 6/6/6 5/5/5 2/2/2
f 7/7/7 6/6/6 2/2/2
f 8/8/8 7/7/7 2/2/2
f 9/9/9 8/8/8 2/2/2
f 10/10/10 9/9/9 2/2/2
f 11/11/11 10/10/10 2/2/2
f 3/3/3 11/11/11 2/2/2
f 12/12/12 14/14/14 13/13/13
f 12/12/12 15/15/15 14/14/14
f 16/16/16 18/18/18 17/17/17
f 16/16/16 19/19/19 18/18/18
f 20/20/20 22/22/22 21/21/21
f 20/20/20 23/23/23 22/22/22
f 24/24/24 26/26/26 25/25/25
f 24/24/24 27/27/27 26/26/26
f 28/28/28 30/30/30 29/29/29
f 28/28/28 31/31/31 30/30/30
f 32/32/32 34/34/34 33/33/33
f 32/32/32 35/35/35 34/34/34
f 36/36/36 38/38/38 37/37/37
f 36/36/36 39/39/39 38/38/38
f 40/40/40 42/42/42 41/41/41
f 40/40/40 43/43/43 42/42/42
f 44/44/44 46/46/46 45/45/45
f 44/44/44 47/47/47 46/46/46
f 48/48/48 50/50/50 49/49/49
f 48/48/48 51/51/51 50/50/50
f 52/52/52 54/54/54 53/53/53
f 52/52/52 55/55/55 54/54/54
f 56/56/56 58/58/58 57/57/57
f 56/56/56 59/59/59 58/58/58
f 60/60/60 62/62/62 61/61/61
f 60/60/60 63/63/63 62/62/62
f 64/64/64 66/66/66 65/65/65
f 64/64/64 67/67/67 66/66/66
f 68/68/68 70/70/70 69/69/69
f 68/68/68 71/71/71 70/70/70
f 72/72/72 74/74/74 73/73/73
f 72/72/72 75/75/75 74/74/74
f 76/76/76 78/78/78 77/77/77
f 76/76/76 79/79/79 78/78/78
f 80/80/80 82/82/82 81/81/81
f 80/80/80 83/83/83 82/82/82
f 84/84/84 86/86/86 85/85/85
f 84/84/84 87/87/87 86/86/86
f 88/88/88 90/90/90 89/89/89
f 88/88/88 91/91/91 90/90/90
f 92/92/92 94/94/94 93/93/93
f 92/92/92 95/95/95 94/94/94
f 96/96/96 98/98/98 97/97/97
f 96/96/96 99/99/99 98/98/98
f 100/100/100 102/102/102 101/101/101
f 100/100/100 103/103/103 102/102/102
f 104/104/104 106/106/106 105/105/105
f 104/104/104 107/107/107 106/106/106
f 108/108/108 110/110/110 109/109/109
f 108/108/108 111/111/111 110/110/110
f 112/112/112 114/114/114 113/113/113
f 112/112/112 115/115/115 114/114/114
f 116/116/116 118/118/118 117/117/117
f 116/116/116 119/119/119 118/118/118
f 120/120/120 122/122/122 121/121/121
f 120/120/120 123/123/123 122/122/122
f 124/124/124 126/126/126 125/125/125
f 124/124/124 127/127/127 126/126/126
f 128/128/128 130/130/130 129/129/129
f 128/128/128 131/131/131 130/130/130
f 132/132/132 134/134/134 133/133/133
f 132/132/132 135/135/135 134/134/134
f 136/136/136 138/138/138 137/137/137
f 136/136/136 139/139/139 138/138/138
f 140/140/140 142/142/142 141/141/141
f 140/140/140 143/143/143 142/142/142
f 144/144/144 146/146/146 145/145/145
f 144/144/144 147/147/147 146/146/146
f 148/148/148 150/150/150 149/149/149
f 148/148/148 151/151/151 150/150/150
f 152/152/152 154/154/154 153/153/153
f 152/152/152 155/155/155 154/154/154
f 156/156/156 158/158/158 157/157/157
f 156/156/156 159/159/159 158/158/158
f 160/160/160 162/162/162 161/161/161
f 160/160/160 163/163/163 162/162/162
f 164/164/164 166/166/166 165/165/165
f 164/164/164 167/167/167 166/166/166
f 168/168/168 170/170/170 169/169/169
f 168/168/168 171/171/171 170/170/170
f 172/172/172 174/174/174 173/173/173
f 175/175/175 177/177/177 176/176/176
f 178/178/178 180/180/180 179/179/179
f 181/181/181 183/183/183 182/182/182
f 184/184/184 186/186/186 185/185/185
f 187/187/187 189/189/189 188/188/188
f 190/190/190 192/192/192 191/191/191
f 193/193/193 195/195/195 194/194/194
f 196/196/196 198/198/198 197/197/197
f 199/199/199 201/201/201 200/200/200
