#Foliage7_3667_38.obj

v 0.01454534 -0.02577567 -0.04035814
v 0.004623902 -0.0339761 0.001091569
v 0.03878451 -0.02577567 -0.02105463
v -0.009663392 -0.02577567 -0.03817524
v -0.01825074 -0.02577567 -0.01778025
v -0.0382221 -0.02223226 0.001091554
v -0.02135083 -0.02577567 0.01996335
v -0.005297564 -0.02577567 0.03271816
v 0.02109407 -0.02577567 0.04035835
v 0.0305986 -0.02577567 0.01996335
v 0.03218951 -0.02223226 0.001091572
v 0.03878451 -0.02577567 -0.02105463
v 0.04796692 -0.01489245 -0.027726
v 0.01805269 -0.01489245 -0.05115265
v 0.01454534 -0.02577567 -0.04035814
v 0.01454534 -0.02577567 -0.04035814
v 0.01805269 -0.01489245 -0.05115265
v -0.01317074 -0.01489245 -0.04896973
v -0.009663392 -0.02577567 -0.03817524
v -0.009663392 -0.02577567 -0.03817524
v -0.01317074 -0.01489245 -0.04896973
v -0.02743317 -0.01489245 -0.02445165
v -0.01825074 -0.02577567 -0.01778025
v -0.01825074 -0.02577567 -0.01778025
v -0.02743317 -0.01489245 -0.02445165
v -0.0479669 -0.01288823 0.001091553
v -0.0382221 -0.02223226 0.001091554
v -0.0382221 -0.02223226 0.001091554
v -0.0479669 -0.01288823 0.001091553
v -0.03053322 -0.01489245 0.02663476
v -0.02135083 -0.02577567 0.01996335
v -0.02135083 -0.02577567 0.01996335
v -0.03053322 -0.01489245 0.02663476
v -0.008804907 -0.01489245 0.04351266
v -0.005297564 -0.02577567 0.03271816
v -0.005297564 -0.02577567 0.03271816
v -0.008804907 -0.01489245 0.04351266
v 0.02460145 -0.01489245 0.05115286
v 0.02109407 -0.02577567 0.04035835
v 0.02109407 -0.02577567 0.04035835
v 0.02460145 -0.01489245 0.05115286
v 0.03978101 -0.01489245 0.02663477
v 0.0305986 -0.02577567 0.01996335
v 0.0305986 -0.02577567 0.01996335
v 0.03978101 -0.01489245 0.02663477
v 0.04193431 -0.01288823 0.001091567
v 0.03218951 -0.02223226 0.001091572
v 0.03218951 -0.02223226 0.001091572
v 0.04193431 -0.01288823 0.001091567
v 0.04796692 -0.01489245 -0.027726
v 0.03878451 -0.02577567 -0.02105463
v 0.04796692 -0.01489245 -0.027726
v 0.04796692 -0.0001483746 -0.027726
v 0.01805269 -0.0001483746 -0.05115265
v 0.01805269 -0.01489245 -0.05115265
v 0.01805269 -0.01489245 -0.05115265
v 0.01805269 -0.0001483746 -0.05115265
v -0.01317074 -0.0001483746 -0.04896973
v -0.01317074 -0.01489245 -0.04896973
v -0.01317074 -0.01489245 -0.04896973
v -0.01317074 -0.0001483746 -0.04896973
v -0.02743317 -0.0001483746 -0.02445165
v -0.02743317 -0.01489245 -0.02445165
v -0.02743317 -0.01489245 -0.02445165
v -0.02743317 -0.0001483746 -0.02445165
v -0.0479669 -0.0002294282 0.001091553
v -0.0479669 -0.01288823 0.001091553
v -0.0479669 -0.01288823 0.001091553
v -0.0479669 -0.0002294282 0.001091553
v -0.03053322 -0.0001483746 0.02663476
v -0.03053322 -0.01489245 0.02663476
v -0.03053322 -0.01489245 0.02663476
v -0.03053322 -0.0001483746 0.02663476
v -0.008804907 -0.0001483746 0.04351266
v -0.008804907 -0.01489245 0.04351266
v -0.008804907 -0.01489245 0.04351266
v -0.008804907 -0.0001483746 0.04351266
v 0.02460145 -0.0001483746 0.05115286
v 0.02460145 -0.01489245 0.05115286
v 0.02460145 -0.01489245 0.05115286
v 0.02460145 -0.0001483746 0.05115286
v 0.03978101 -0.0001483746 0.02663477
v 0.03978101 -0.01489245 0.02663477
v 0.03978101 -0.01489245 0.02663477
v 0.03978101 -0.0001483746 0.02663477
v 0.04193431 -0.0002294282 0.001091567
v 0.04193431 -0.01288823 0.001091567
v 0.04193431 -0.01288823 0.001091567
v 0.04193431 -0.0002294282 0.001091567
v 0.04796692 -0.0001483746 -0.027726
v 0.04796692 -0.01489245 -0.027726
v 0.04796692 -0.0001483746 -0.027726
v 0.04568892 0.01428334 -0.0253967
v 0.01714515 0.01428334 -0.04799113
v 0.01805269 -0.0001483746 -0.05115265
v 0.01805269 -0.0001483746 -0.05115265
v 0.01714515 0.01428334 -0.04799113
v -0.01182909 0.01428334 -0.04559755
v -0.01317074 -0.0001483746 -0.04896973
v -0.01317074 -0.0001483746 -0.04896973
v -0.01182909 0.01428334 -0.04559755
v -0.02321026 0.01428334 -0.02180628
v -0.02743317 -0.0001483746 -0.02445165
v -0.02743317 -0.0001483746 -0.02445165
v -0.02321026 0.01428334 -0.02180628
v -0.04530407 0.01197202 0.001196915
v -0.0479669 -0.0002294282 0.001091553
v -0.0479669 -0.0002294282 0.001091553
v -0.04530407 0.01197202 0.001196915
v -0.02660956 0.01428334 0.02420011
v -0.03053322 -0.0001483746 0.02663476
v -0.03053322 -0.0001483746 0.02663476
v -0.02660956 0.01428334 0.02420011
v -0.007041837 0.01428334 0.03961369
v -0.008804907 -0.0001483746 0.04351266
v -0.008804907 -0.0001483746 0.04351266
v -0.007041837 0.01428334 0.03961369
v 0.024326 0.01428334 0.04799137
v 0.02460145 -0.0001483746 0.05115286
v 0.02460145 -0.0001483746 0.05115286
v 0.024326 0.01428334 0.04799137
v 0.03671287 0.01428334 0.02420013
v 0.03978101 -0.0001483746 0.02663477
v 0.03978101 -0.0001483746 0.02663477
v 0.03671287 0.01428334 0.02420013
v 0.03865201 0.01197202 0.001196911
v 0.04193431 -0.0002294282 0.001091567
v 0.04193431 -0.0002294282 0.001091567
v 0.03865201 0.01197202 0.001196911
v 0.04568892 0.01428334 -0.0253967
v 0.04796692 -0.0001483746 -0.027726
v 0.04568892 0.01428334 -0.0253967
v 0.03225249 0.02437439 -0.01614755
v 0.01203648 0.02437439 -0.03256852
v 0.01714515 0.01428334 -0.04799113
v 0.01714515 0.01428334 -0.04799113
v 0.01203648 0.02437439 -0.03256852
v -0.002592218 0.02437439 -0.02139371
v -0.01182909 0.01428334 -0.04559755
v -0.01182909 0.01428334 -0.04559755
v -0.002592218 0.02437439 -0.02139371
v -0.01125309 0.02437439 -0.01279511
v -0.02321026 0.01428334 -0.02180628
v -0.02321026 0.01428334 -0.02180628
v -0.01125309 0.02437439 -0.01279511
v -0.03124469 0.02074642 0.001117589
v -0.04530407 0.01197202 0.001196915
v -0.04530407 0.01197202 0.001196915
v -0.03124469 0.02074642 0.001117589
v -0.01442711 0.02437439 0.01503031
v -0.02660956 0.01428334 0.02420011
v -0.02660956 0.01428334 0.02420011
v -0.01442711 0.02437439 0.01503031
v -0.002592207 0.02437439 0.02474634
v -0.007041837 0.01428334 0.03961369
v -0.007041837 0.01428334 0.03961369
v -0.002592207 0.02437439 0.02474634
v 0.01874136 0.02437439 0.03256871
v 0.024326 0.01428334 0.04799137
v 0.024326 0.01428334 0.04799137
v 0.01874136 0.02437439 0.03256871
v 0.02387135 0.02437439 0.01503031
v 0.03671287 0.01428334 0.02420013
v 0.03671287 0.01428334 0.02420013
v 0.02387135 0.02437439 0.01503031
v 0.02504422 0.02074642 0.001117606
v 0.03865201 0.01197202 0.001196911
v 0.03865201 0.01197202 0.001196911
v 0.02504422 0.02074642 0.001117606
v 0.03225249 0.02437439 -0.01614755
v 0.04568892 0.01428334 -0.0253967
v 0.03225249 0.02437439 -0.01614755
v 0.00462388 0.03397602 0.001091531
v 0.01203648 0.02437439 -0.03256852
v 0.01203648 0.02437439 -0.03256852
v 0.00462388 0.03397602 0.001091531
v -0.002592218 0.02437439 -0.02139371
v -0.002592218 0.02437439 -0.02139371
v 0.00462388 0.03397602 0.001091531
v -0.01125309 0.02437439 -0.01279511
v -0.01125309 0.02437439 -0.01279511
v 0.00462388 0.03397602 0.001091531
v -0.03124469 0.02074642 0.001117589
v -0.03124469 0.02074642 0.001117589
v 0.00462388 0.03397602 0.001091531
v -0.01442711 0.02437439 0.01503031
v -0.01442711 0.02437439 0.01503031
v 0.00462388 0.03397602 0.001091531
v -0.002592207 0.02437439 0.02474634
v -0.002592207 0.02437439 0.02474634
v 0.00462388 0.03397602 0.001091531
v 0.01874136 0.02437439 0.03256871
v 0.01874136 0.02437439 0.03256871
v 0.00462388 0.03397602 0.001091531
v 0.02387135 0.02437439 0.01503031
v 0.02387135 0.02437439 0.01503031
v 0.00462388 0.03397602 0.001091531
v 0.02504422 0.02074642 0.001117606
v 0.02504422 0.02074642 0.001117606
v 0.00462388 0.03397602 0.001091531
v 0.03225249 0.02437439 -0.01614755

vn -0.07327059 -0.9818567 -0.1748951
vn 0.001249446 -0.9999983 -0.0011105
vn 0.1135275 -0.9784299 -0.1725864
vn -0.1779421 -0.9810986 -0.0760368
vn -0.2629889 -0.9602383 0.09369415
vn -0.2108135 -0.9642733 0.1604188
vn -0.09738315 -0.9679797 0.2313681
vn 0.06987721 -0.9703192 0.2315108
vn 0.1629003 -0.9818348 0.09727959
vn 0.2307779 -0.9585601 -0.1670435
vn 0.3591604 -0.9154218 -0.181676
vn -0.03556392 -0.7039261 -0.7093822
vn -0.03556398 -0.7039261 -0.7093821
vn -0.03556389 -0.7039261 -0.7093822
vn -0.03556398 -0.7039261 -0.7093821
vn -0.5084738 -0.7031068 -0.4970862
vn -0.5084738 -0.7031069 -0.4970862
vn -0.5084738 -0.7031068 -0.4970862
vn -0.5084739 -0.7031069 -0.4970863
vn -0.7265875 -0.6620907 0.1835925
vn -0.7265876 -0.6620907 0.1835926
vn -0.7265875 -0.6620907 0.1835925
vn -0.7265875 -0.6620907 0.1835926
vn -0.7256445 -0.6863983 0.04792985
vn -0.7256446 -0.6863982 0.04792991
vn -0.7256445 -0.6863982 0.04792988
vn -0.7256445 -0.6863982 0.04792994
vn -0.2060519 -0.6953635 0.6884852
vn -0.2060519 -0.6953635 0.6884852
vn -0.2060519 -0.6953635 0.6884853
vn -0.2060519 -0.6953635 0.6884853
vn 0.03763944 -0.703966 0.7092354
vn 0.03763935 -0.703966 0.7092354
vn 0.03763938 -0.703966 0.7092354
vn 0.03763941 -0.703966 0.7092353
vn 0.3252273 -0.6928936 0.6435257
vn 0.3252272 -0.6928937 0.6435257
vn 0.3252273 -0.6928937 0.6435257
vn 0.3252273 -0.6928936 0.6435257
vn 0.7270265 -0.6678945 -0.1592149
vn 0.7270263 -0.6678945 -0.1592148
vn 0.7270263 -0.6678945 -0.1592148
vn 0.7270265 -0.6678945 -0.1592149
vn 0.5374437 -0.6790239 -0.5000805
vn 0.5374437 -0.679024 -0.5000805
vn 0.5374437 -0.6790239 -0.5000805
vn 0.5374437 -0.6790239 -0.5000805
vn 0.7281132 -0.6155776 -0.3015214
vn 0.7281132 -0.6155775 -0.3015214
vn 0.7281132 -0.6155776 -0.3015214
vn 0.7281132 -0.6155776 -0.3015214
vn -0.05373135 4.482852E-17 -0.9985554
vn -0.05373132 4.482852E-17 -0.9985554
vn -0.05373132 4.482852E-17 -0.9985554
vn -0.05373135 4.482852E-17 -0.9985554
vn -0.7088905 1.582799E-16 -0.7053185
vn -0.7088905 1.582799E-16 -0.7053185
vn -0.7088905 1.582799E-16 -0.7053185
vn -0.7088905 1.582799E-16 -0.7053185
vn -0.981765 1.786695E-16 0.1900989
vn -0.981765 1.786695E-16 0.1900989
vn -0.981765 1.786695E-16 0.1900989
vn -0.981765 1.786695E-16 0.1900989
vn -0.9991587 1.871312E-16 0.04100922
vn -0.9991588 1.871312E-16 0.04100928
vn -0.9991587 1.871312E-16 0.04100922
vn -0.9991587 1.871312E-16 0.04100922
vn -0.2510605 1.375261E-17 0.9679714
vn -0.2510605 1.375261E-17 0.9679714
vn -0.2510605 1.375259E-17 0.9679714
vn -0.2510605 1.375261E-17 0.9679714
vn 0.05767816 -4.55657E-17 0.9983352
vn 0.05767816 -4.55657E-17 0.9983352
vn 0.05767816 -4.55657E-17 0.9983352
vn 0.05767816 -4.55657E-17 0.9983352
vn 0.4735237 -1.199581E-16 0.880781
vn 0.4735237 -1.199581E-16 0.880781
vn 0.4735237 -1.199581E-16 0.880781
vn 0.4735237 -1.199581E-16 0.880781
vn 0.9866202 -1.80526E-16 -0.1630354
vn 0.9866202 -1.80526E-16 -0.1630354
vn 0.9866202 -1.80526E-16 -0.1630354
vn 0.9866202 -1.80526E-16 -0.1630354
vn 0.8056506 -1.31459E-16 -0.592391
vn 0.8056506 -1.314591E-16 -0.592391
vn 0.8056506 -1.31459E-16 -0.592391
vn 0.8056506 -1.314591E-16 -0.592391
vn 0.8718808 -1.475244E-16 -0.4897181
vn 0.8718808 -1.475244E-16 -0.4897181
vn 0.8718808 -1.475244E-16 -0.4897181
vn 0.8718808 -1.475244E-16 -0.4897181
vn -0.05001253 0.212757 -0.9758244
vn -0.05001253 0.212757 -0.9758243
vn -0.05001253 0.212757 -0.9758243
vn -0.05001253 0.212757 -0.9758243
vn -0.6954939 0.2212333 -0.6836256
vn -0.6954939 0.2212333 -0.6836256
vn -0.6954939 0.2212333 -0.6836256
vn -0.6954939 0.2212333 -0.6836256
vn -0.9404414 0.2588966 0.2203234
vn -0.9404415 0.2588966 0.2203234
vn -0.9404415 0.2588966 0.2203234
vn -0.9404414 0.2588965 0.2203234
vn -0.9670115 0.2546348 0.007063925
vn -0.9670115 0.2546348 0.007063895
vn -0.9670115 0.2546348 0.007063925
vn -0.9670115 0.2546348 0.007063955
vn -0.2143241 0.2437819 0.9458518
vn -0.2143241 0.243782 0.9458518
vn -0.2143241 0.2437819 0.9458518
vn -0.2143241 0.2437819 0.9458518
vn 0.05224547 0.2822602 0.9579141
vn 0.05224538 0.2822602 0.9579141
vn 0.05224544 0.2822603 0.9579142
vn 0.05224544 0.2822603 0.9579142
vn 0.444305 0.242386 0.8624628
vn 0.444305 0.242386 0.8624628
vn 0.444305 0.242386 0.8624628
vn 0.444305 0.242386 0.8624628
vn 0.9617195 0.1930069 -0.1945355
vn 0.9617195 0.1930069 -0.1945355
vn 0.9617194 0.1930069 -0.1945354
vn 0.9617195 0.1930069 -0.1945355
vn 0.7757109 0.2371581 -0.584832
vn 0.775711 0.2371581 -0.584832
vn 0.775711 0.2371581 -0.584832
vn 0.775711 0.2371581 -0.584832
vn 0.8732959 0.178262 -0.4534059
vn 0.8732959 0.178262 -0.4534059
vn 0.8732959 0.178262 -0.4534059
vn 0.8732959 0.178262 -0.4534059
vn -0.02369133 0.8368365 -0.5469396
vn -0.02369136 0.8368365 -0.5469396
vn -0.02369133 0.8368365 -0.5469396
vn -0.02369136 0.8368365 -0.5469396
vn -0.3910777 0.8884323 -0.2403036
vn -0.3910777 0.8884323 -0.2403036
vn -0.3910777 0.8884323 -0.2403036
vn -0.3910777 0.8884323 -0.2403037
vn -0.4875914 0.8693343 0.08069672
vn -0.4875914 0.8693343 0.08069669
vn -0.4875914 0.8693343 0.08069672
vn -0.4875914 0.8693343 0.08069669
vn -0.5933671 0.8049013 0.006995112
vn -0.5933671 0.8049014 0.006995112
vn -0.5933671 0.8049014 0.006995112
vn -0.5933671 0.8049014 0.006995112
vn -0.1435827 0.8185279 0.5562335
vn -0.1435827 0.8185279 0.5562335
vn -0.1435827 0.8185279 0.5562335
vn -0.1435827 0.8185279 0.5562335
vn 0.02459955 0.8222619 0.5685772
vn 0.02459952 0.8222618 0.5685772
vn 0.02459955 0.8222618 0.5685772
vn 0.02459952 0.8222618 0.5685772
vn 0.234941 0.8172353 0.5262402
vn 0.234941 0.8172353 0.5262402
vn 0.234941 0.8172353 0.5262402
vn 0.234941 0.8172353 0.5262402
vn 0.5747988 0.7962341 -0.1887252
vn 0.5747988 0.7962341 -0.1887252
vn 0.5747988 0.7962341 -0.1887252
vn 0.5747988 0.7962341 -0.1887252
vn 0.3980556 0.798513 -0.4515842
vn 0.3980556 0.7985131 -0.4515841
vn 0.3980556 0.7985131 -0.4515841
vn 0.3980556 0.798513 -0.4515842
vn 0.6569571 0.7325384 -0.17831
vn 0.6569571 0.7325385 -0.17831
vn 0.6569571 0.7325384 -0.17831
vn 0.6569571 0.7325384 -0.17831
vn -0.01069507 0.9546866 -0.2974197
vn -0.01069508 0.9546866 -0.2974197
vn -0.01069507 0.9546866 -0.2974197
vn -0.3883106 0.9181487 -0.07884993
vn -0.3883107 0.9181487 -0.07884996
vn -0.3883106 0.9181487 -0.07884994
vn -0.4141088 0.9097521 -0.02940245
vn -0.4141088 0.9097521 -0.02940248
vn -0.4141088 0.9097521 -0.02940243
vn -0.4140427 0.9095349 0.03625597
vn -0.4140427 0.9095349 0.03625599
vn -0.4140427 0.9095349 0.03625599
vn -0.1441903 0.9244465 0.3529975
vn -0.1441903 0.9244465 0.3529975
vn -0.1441903 0.9244465 0.3529975
vn 0.01189777 0.9219851 0.3870417
vn 0.01189776 0.9219852 0.3870417
vn 0.01189776 0.9219852 0.3870417
vn 0.1299285 0.9320198 0.3383151
vn 0.1299285 0.9320198 0.3383151
vn 0.1299285 0.9320198 0.3383151
vn 0.3577053 0.9190345 -0.1655957
vn 0.3577054 0.9190345 -0.1655958
vn 0.3577054 0.9190344 -0.1655958
vn 0.2914265 0.8268819 -0.4809746
vn 0.2914265 0.8268819 -0.4809746
vn 0.2914265 0.8268819 -0.4809746
vn 0.6255621 0.7785742 -0.04994029
vn 0.6255621 0.7785742 -0.0499402
vn 0.6255621 0.7785742 -0.04994026

vt 0.5482839 0.007647395
vt 0.5 0.15
vt 0.6264089 0.06440853
vt 0.4517161 0.00764741
vt 0.3735911 0.06440856
vt 0.34375 0.15625
vt 0.3735911 0.2480915
vt 0.4517161 0.3048526
vt 0.5482839 0.3048526
vt 0.6264089 0.2480914
vt 0.65625 0.15625
vt 0 0
vt 0 1
vt 1 1
vt 1 0
vt 0 0
vt 0 1
vt 1 1
vt 1 0
vt 0 0
vt 0 1
vt 1 1
vt 1 0
vt 0 0
vt 0 1
vt 1 1
vt 1 0
vt 0 0
vt 0 1
vt 1 1
vt 1 0
vt 0 0
vt 0 1
vt 1 1
vt 1 0
vt 0 0
vt 0 1
vt 1 1
vt 1 0
vt 0 0
vt 0 1
vt 1 1
vt 1 0
vt 0 0
vt 0 1
vt 1 1
vt 1 0
vt 0 0
vt 0 1
vt 1 1
vt 1 0
vt 0 0
vt 0 1
vt 1 1
vt 1 0
vt 0 0
vt 0 1
vt 1 1
vt 1 0
vt 0 0
vt 0 1
vt 1 1
vt 1 0
vt 0 0
vt 0 1
vt 1 1
vt 1 0
vt 0 0
vt 0 1
vt 1 1
vt 1 0
vt 0 0
vt 0 1
vt 1 1
vt 1 0
vt 0 0
vt 0 1
vt 1 1
vt 1 0
vt 0 0
vt 0 1
vt 1 1
vt 1 0
vt 0 0
vt 0 1
vt 1 1
vt 1 0
vt 0 0
vt 0 1
vt 1 1
vt 1 0
vt 0 0
vt 0 1
vt 1 1
vt 1 0
vt 0 0
vt 0 1
vt 1 1
vt 1 0
vt 0 0
vt 0 1
vt 1 1
vt 1 0
vt 0 0
vt 0 1
vt 1 1
vt 1 0
vt 0 0
vt 0 1
vt 1 1
vt 1 0
vt 0 0
vt 0 1
vt 1 1
vt 1 0
vt 0 0
vt 0 1
vt 1 1
vt 1 0
vt 0 0
vt 0 1
vt 1 1
vt 1 0
vt 0 0
vt 0 1
vt 1 1
vt 1 0
vt 0 0
vt 0 1
vt 1 1
vt 1 0
vt 0 0
vt 0 1
vt 1 1
vt 1 0
vt 0 0
vt 0 1
vt 1 1
vt 1 0
vt 0 0
vt 0 1
vt 1 1
vt 1 0
vt 0 0
vt 0 1
vt 1 1
vt 1 0
vt 0 0
vt 0 1
vt 1 1
vt 1 0
vt 0 0
vt 0 1
vt 1 1
vt 1 0
vt 0 0
vt 0 1
vt 1 1
vt 1 0
vt 0 0
vt 0 1
vt 1 1
vt 1 0
vt 0 0
vt 0 1
vt 1 1
vt 1 0
vt 0 0
vt 0 1
vt 1 1
vt 1 0
vt 0 0
vt 0.5 1
vt 1 0
vt 0 0
vt 0.5 1
vt 1 0
vt 0 0
vt 0.5 1
vt 1 0
vt 0 0
vt 0.5 1
vt 1 0
vt 0 0
vt 0.5 1
vt 1 0
vt 0 0
vt 0.5 1
vt 1 0
vt 0 0
vt 0.5 1
vt 1 0
vt 0 0
vt 0.5 1
vt 1 0
vt 0 0
vt 0.5 1
vt 1 0
vt 0 0
vt 0.5 1
vt 1 0

g Foliage7_3667_38
usemtl Foliage7_3667_38
usemap Foliage7_3667_38
f 1/1/1 3/3/3 2/2/2
f 4/4/4 1/1/1 2/2/2
f 5/5/5 4/4/4 2/2/2
f 6/6/6 5/5/5 2/2/2
f 7/7/7 6/6/6 2/2/2
f 8/8/8 7/7/7 2/2/2
f 9/9/9 8/8/8 2/2/2
f 10/10/10 9/9/9 2/2/2
f 11/11/11 10/10/10 2/2/2
f 3/3/3 11/11/11 2/2/2
f 12/12/12 14/14/14 13/13/13
f 12/12/12 15/15/15 14/14/14
f 16/16/16 18/18/18 17/17/17
f 16/16/16 19/19/19 18/18/18
f 20/20/20 22/22/22 21/21/21
f 20/20/20 23/23/23 22/22/22
f 24/24/24 26/26/26 25/25/25
f 24/24/24 27/27/27 26/26/26
f 28/28/28 30/30/30 29/29/29
f 28/28/28 31/31/31 30/30/30
f 32/32/32 34/34/34 33/33/33
f 32/32/32 35/35/35 34/34/34
f 36/36/36 38/38/38 37/37/37
f 36/36/36 39/39/39 38/38/38
f 40/40/40 42/42/42 41/41/41
f 40/40/40 43/43/43 42/42/42
f 44/44/44 46/46/46 45/45/45
f 44/44/44 47/47/47 46/46/46
f 48/48/48 50/50/50 49/49/49
f 48/48/48 51/51/51 50/50/50
f 52/52/52 54/54/54 53/53/53
f 52/52/52 55/55/55 54/54/54
f 56/56/56 58/58/58 57/57/57
f 56/56/56 59/59/59 58/58/58
f 60/60/60 62/62/62 61/61/61
f 60/60/60 63/63/63 62/62/62
f 64/64/64 66/66/66 65/65/65
f 64/64/64 67/67/67 66/66/66
f 68/68/68 70/70/70 69/69/69
f 68/68/68 71/71/71 70/70/70
f 72/72/72 74/74/74 73/73/73
f 72/72/72 75/75/75 74/74/74
f 76/76/76 78/78/78 77/77/77
f 76/76/76 79/79/79 78/78/78
f 80/80/80 82/82/82 81/81/81
f 80/80/80 83/83/83 82/82/82
f 84/84/84 86/86/86 85/85/85
f 84/84/84 87/87/87 86/86/86
f 88/88/88 90/90/90 89/89/89
f 88/88/88 91/91/91 90/90/90
f 92/92/92 94/94/94 93/93/93
f 92/92/92 95/95/95 94/94/94
f 96/96/96 98/98/98 97/97/97
f 96/96/96 99/99/99 98/98/98
f 100/100/100 102/102/102 101/101/101
f 100/100/100 103/103/103 102/102/102
f 104/104/104 106/106/106 105/105/105
f 104/104/104 107/107/107 106/106/106
f 108/108/108 110/110/110 109/109/109
f 108/108/108 111/111/111 110/110/110
f 112/112/112 114/114/114 113/113/113
f 112/112/112 115/115/115 114/114/114
f 116/116/116 118/118/118 117/117/117
f 116/116/116 119/119/119 118/118/118
f 120/120/120 122/122/122 121/121/121
f 120/120/120 123/123/123 122/122/122
f 124/124/124 126/126/126 125/125/125
f 124/124/124 127/127/127 126/126/126
f 128/128/128 130/130/130 129/129/129
f 128/128/128 131/131/131 130/130/130
f 132/132/132 134/134/134 133/133/133
f 132/132/132 135/135/135 134/134/134
f 136/136/136 138/138/138 137/137/137
f 136/136/136 139/139/139 138/138/138
f 140/140/140 142/142/142 141/141/141
f 140/140/140 143/143/143 142/142/142
f 144/144/144 146/146/146 145/145/145
f 144/144/144 147/147/147 146/146/146
f 148/148/148 150/150/150 149/149/149
f 148/148/148 151/151/151 150/150/150
f 152/152/152 154/154/154 153/153/153
f 152/152/152 155/155/155 154/154/154
f 156/156/156 158/158/158 157/157/157
f 156/156/156 159/159/159 158/158/158
f 160/160/160 162/162/162 161/161/161
f 160/160/160 163/163/163 162/162/162
f 164/164/164 166/166/166 165/165/165
f 164/164/164 167/167/167 166/166/166
f 168/168/168 170/170/170 169/169/169
f 168/168/168 171/171/171 170/170/170
f 172/172/172 174/174/174 173/173/173
f 175/175/175 177/177/177 176/176/176
f 178/178/178 180/180/180 179/179/179
f 181/181/181 183/183/183 182/182/182
f 184/184/184 186/186/186 185/185/185
f 187/187/187 189/189/189 188/188/188
f 190/190/190 192/192/192 191/191/191
f 193/193/193 195/195/195 194/194/194
f 196/196/196 198/198/198 197/197/197
f 199/199/199 201/201/201 200/200/200
