#Foliage6_39_3745_186.obj

v 0.01454685 -0.02577561 -0.04035992
v 0.004625492 -0.033976 0.001089675
v 0.03878598 -0.02577555 -0.02105647
v -0.009661788 -0.0257756 -0.03817711
v -0.01824948 -0.02577558 -0.01778183
v -0.03822063 -0.02223211 0.001089839
v -0.02134961 -0.02577558 0.01996174
v -0.005296222 -0.02577556 0.0327165
v 0.02109534 -0.02577562 0.0403567
v 0.03059994 -0.02577555 0.01996163
v 0.03219102 -0.02223212 0.001089716
v 0.03878598 -0.02577555 -0.02105647
v 0.04796845 -0.01489229 -0.02772786
v 0.01805436 -0.01489229 -0.05115472
v 0.01454685 -0.02577561 -0.04035992
v 0.01454685 -0.02577561 -0.04035992
v 0.01805436 -0.01489229 -0.05115472
v -0.01316914 -0.01489236 -0.04897176
v -0.009661788 -0.0257756 -0.03817711
v -0.009661788 -0.0257756 -0.03817711
v -0.01316914 -0.01489236 -0.04897176
v -0.02743152 -0.01489231 -0.02445369
v -0.01824948 -0.02577558 -0.01778183
v -0.01824948 -0.02577558 -0.01778183
v -0.02743152 -0.01489231 -0.02445369
v -0.04796541 -0.01288809 0.001089696
v -0.03822063 -0.02223211 0.001089839
v -0.03822063 -0.02223211 0.001089839
v -0.04796541 -0.01288809 0.001089696
v -0.03053164 -0.01489227 0.02663276
v -0.02134961 -0.02577558 0.01996174
v -0.02134961 -0.02577558 0.01996174
v -0.03053164 -0.01489227 0.02663276
v -0.008803455 -0.01489232 0.04351078
v -0.005296222 -0.02577556 0.0327165
v -0.005296222 -0.02577556 0.0327165
v -0.008803455 -0.01489232 0.04351078
v 0.02460304 -0.0148923 0.05115089
v 0.02109534 -0.02577562 0.0403567
v 0.02109534 -0.02577562 0.0403567
v 0.02460304 -0.0148923 0.05115089
v 0.03978234 -0.01489235 0.02663305
v 0.03059994 -0.02577555 0.01996163
v 0.03059994 -0.02577555 0.01996163
v 0.03978234 -0.01489235 0.02663305
v 0.04193557 -0.0128881 0.001089901
v 0.03219102 -0.02223212 0.001089716
v 0.03219102 -0.02223212 0.001089716
v 0.04193557 -0.0128881 0.001089901
v 0.04796845 -0.01489229 -0.02772786
v 0.03878598 -0.02577555 -0.02105647
v 0.04796845 -0.01489229 -0.02772786
v 0.04796836 -0.0001482548 -0.02772781
v 0.01805434 -0.0001482577 -0.0511546
v 0.01805436 -0.01489229 -0.05115472
v 0.01805436 -0.01489229 -0.05115472
v 0.01805434 -0.0001482577 -0.0511546
v -0.01316916 -0.0001482338 -0.04897163
v -0.01316914 -0.01489236 -0.04897176
v -0.01316914 -0.01489236 -0.04897176
v -0.01316916 -0.0001482338 -0.04897163
v -0.02743153 -0.0001482762 -0.02445356
v -0.02743152 -0.01489231 -0.02445369
v -0.02743152 -0.01489231 -0.02445369
v -0.02743153 -0.0001482762 -0.02445356
v -0.04796518 -0.0002293035 0.001089434
v -0.04796541 -0.01288809 0.001089696
v -0.04796541 -0.01288809 0.001089696
v -0.04796518 -0.0002293035 0.001089434
v -0.03053166 -0.0001482397 0.02663288
v -0.03053164 -0.01489227 0.02663276
v -0.03053164 -0.01489227 0.02663276
v -0.03053166 -0.0001482397 0.02663288
v -0.00880347 -0.0001482914 0.0435109
v -0.008803455 -0.01489232 0.04351078
v -0.008803455 -0.01489232 0.04351078
v -0.00880347 -0.0001482914 0.0435109
v 0.02460295 -0.0001482731 0.05115094
v 0.02460304 -0.0148923 0.05115089
v 0.02460304 -0.0148923 0.05115089
v 0.02460295 -0.0001482731 0.05115094
v 0.03978232 -0.000148224 0.02663317
v 0.03978234 -0.01489235 0.02663305
v 0.03978234 -0.01489235 0.02663305
v 0.03978232 -0.000148224 0.02663317
v 0.0419358 -0.0002293122 0.001089639
v 0.04193557 -0.0128881 0.001089901
v 0.04193557 -0.0128881 0.001089901
v 0.0419358 -0.0002293122 0.001089639
v 0.04796836 -0.0001482548 -0.02772781
v 0.04796845 -0.01489229 -0.02772786
v 0.04796836 -0.0001482548 -0.02772781
v 0.0456903 0.01428342 -0.02539841
v 0.0171465 0.01428342 -0.04799281
v 0.01805434 -0.0001482577 -0.0511546
v 0.01805434 -0.0001482577 -0.0511546
v 0.0171465 0.01428342 -0.04799281
v -0.01182786 0.0142834 -0.04559911
v -0.01316916 -0.0001482338 -0.04897163
v -0.01316916 -0.0001482338 -0.04897163
v -0.01182786 0.0142834 -0.04559911
v -0.02320875 0.01428344 -0.02180819
v -0.02743153 -0.0001482762 -0.02445356
v -0.02743153 -0.0001482762 -0.02445356
v -0.02320875 0.01428344 -0.02180819
v -0.04530251 0.01197215 0.001195022
v -0.04796518 -0.0002293035 0.001089434
v -0.04796518 -0.0002293035 0.001089434
v -0.04530251 0.01197215 0.001195022
v -0.0266079 0.01428343 0.02419812
v -0.03053166 -0.0001482397 0.02663288
v -0.03053166 -0.0001482397 0.02663288
v -0.0266079 0.01428343 0.02419812
v -0.007040381 0.01428345 0.03961185
v -0.00880347 -0.0001482914 0.0435109
v -0.00880347 -0.0001482914 0.0435109
v -0.007040381 0.01428345 0.03961185
v 0.02432726 0.01428343 0.04798969
v 0.02460295 -0.0001482731 0.05115094
v 0.02460295 -0.0001482731 0.05115094
v 0.02432726 0.01428343 0.04798969
v 0.03671416 0.01428345 0.02419849
v 0.03978232 -0.000148224 0.02663317
v 0.03978232 -0.000148224 0.02663317
v 0.03671416 0.01428345 0.02419849
v 0.03865359 0.01197216 0.001194903
v 0.0419358 -0.0002293122 0.001089639
v 0.0419358 -0.0002293122 0.001089639
v 0.03865359 0.01197216 0.001194903
v 0.0456903 0.01428342 -0.02539841
v 0.04796836 -0.0001482548 -0.02772781
v 0.0456903 0.01428342 -0.02539841
v 0.0322541 0.02437449 -0.01614947
v 0.0120379 0.02437446 -0.03257026
v 0.0171465 0.01428342 -0.04799281
v 0.0171465 0.01428342 -0.04799281
v 0.0120379 0.02437446 -0.03257026
v -0.002590696 0.02437443 -0.02139558
v -0.01182786 0.0142834 -0.04559911
v -0.01182786 0.0142834 -0.04559911
v -0.002590696 0.02437443 -0.02139558
v -0.01125143 0.02437445 -0.01279713
v -0.02320875 0.01428344 -0.02180819
v -0.02320875 0.01428344 -0.02180819
v -0.01125143 0.02437445 -0.01279713
v -0.03124299 0.02074659 0.001115491
v -0.04530251 0.01197215 0.001195022
v -0.04530251 0.01197215 0.001195022
v -0.03124299 0.02074659 0.001115491
v -0.01442561 0.02437448 0.01502843
v -0.0266079 0.01428343 0.02419812
v -0.0266079 0.01428343 0.02419812
v -0.01442561 0.02437448 0.01502843
v -0.00259076 0.02437442 0.02474454
v -0.007040381 0.01428345 0.03961185
v -0.007040381 0.01428345 0.03961185
v -0.00259076 0.02437442 0.02474454
v 0.01874297 0.02437445 0.03256668
v 0.02432726 0.01428343 0.04798969
v 0.02432726 0.01428343 0.04798969
v 0.01874297 0.02437445 0.03256668
v 0.02387301 0.0243745 0.0150284
v 0.03671416 0.01428345 0.02419849
v 0.03671416 0.01428345 0.02419849
v 0.02387301 0.0243745 0.0150284
v 0.02504576 0.02074656 0.001115749
v 0.03865359 0.01197216 0.001194903
v 0.03865359 0.01197216 0.001194903
v 0.02504576 0.02074656 0.001115749
v 0.0322541 0.02437449 -0.01614947
v 0.0456903 0.01428342 -0.02539841
v 0.0322541 0.02437449 -0.01614947
v 0.004625177 0.03397613 0.001089867
v 0.0120379 0.02437446 -0.03257026
v 0.0120379 0.02437446 -0.03257026
v 0.004625177 0.03397613 0.001089867
v -0.002590696 0.02437443 -0.02139558
v -0.002590696 0.02437443 -0.02139558
v 0.004625177 0.03397613 0.001089867
v -0.01125143 0.02437445 -0.01279713
v -0.01125143 0.02437445 -0.01279713
v 0.004625177 0.03397613 0.001089867
v -0.03124299 0.02074659 0.001115491
v -0.03124299 0.02074659 0.001115491
v 0.004625177 0.03397613 0.001089867
v -0.01442561 0.02437448 0.01502843
v -0.01442561 0.02437448 0.01502843
v 0.004625177 0.03397613 0.001089867
v -0.00259076 0.02437442 0.02474454
v -0.00259076 0.02437442 0.02474454
v 0.004625177 0.03397613 0.001089867
v 0.01874297 0.02437445 0.03256668
v 0.01874297 0.02437445 0.03256668
v 0.004625177 0.03397613 0.001089867
v 0.02387301 0.0243745 0.0150284
v 0.02387301 0.0243745 0.0150284
v 0.004625177 0.03397613 0.001089867
v 0.02504576 0.02074656 0.001115749
v 0.02504576 0.02074656 0.001115749
v 0.004625177 0.03397613 0.001089867
v 0.0322541 0.02437449 -0.01614947

vn -0.1366465 -0.9767882 -0.1649628
vn -0.02769675 -0.9987311 0.0420613
vn 0.1043996 -0.9807118 -0.1652421
vn -0.2619127 -0.964009 -0.04569783
vn -0.3521329 -0.923314 0.1532764
vn -0.2825775 -0.930802 0.2318569
vn -0.1338562 -0.9394566 0.3154422
vn 0.07948928 -0.9461879 0.3137037
vn 0.1883405 -0.9697226 0.1554543
vn 0.2541968 -0.9539313 -0.1593714
vn 0.4092518 -0.8952415 -0.1762256
vn -0.1118779 -0.65931 -0.7435008
vn -0.111878 -0.65931 -0.7435008
vn -0.1118779 -0.65931 -0.7435008
vn -0.111878 -0.65931 -0.7435008
vn -0.6240533 -0.6128603 -0.4847264
vn -0.6240533 -0.6128604 -0.4847264
vn -0.6240533 -0.6128603 -0.4847264
vn -0.6240534 -0.6128603 -0.4847263
vn -0.8096254 -0.5438215 0.2208277
vn -0.8096254 -0.5438215 0.2208277
vn -0.8096254 -0.5438215 0.2208277
vn -0.8096254 -0.5438215 0.2208277
vn -0.8183917 -0.5686893 0.08262761
vn -0.8183919 -0.5686892 0.08262767
vn -0.8183918 -0.5686893 0.08262765
vn -0.8183918 -0.5686893 0.08262768
vn -0.209513 -0.5982739 0.7734162
vn -0.209513 -0.5982739 0.7734162
vn -0.209513 -0.5982738 0.7734163
vn -0.209513 -0.5982739 0.7734162
vn 0.07618387 -0.6082546 0.7900775
vn 0.07618379 -0.6082544 0.7900775
vn 0.0761838 -0.6082546 0.7900775
vn 0.07618383 -0.6082546 0.7900775
vn 0.3974829 -0.5934711 0.6998567
vn 0.3974828 -0.5934712 0.6998567
vn 0.3974828 -0.5934711 0.6998567
vn 0.3974829 -0.5934711 0.6998567
vn 0.7882222 -0.5972441 -0.1483414
vn 0.7882222 -0.5972441 -0.1483414
vn 0.7882222 -0.5972441 -0.1483414
vn 0.7882223 -0.5972441 -0.1483415
vn 0.5719308 -0.6360253 -0.5180417
vn 0.5719307 -0.6360253 -0.5180416
vn 0.5719308 -0.6360253 -0.5180417
vn 0.5719308 -0.6360253 -0.5180417
vn 0.7776845 -0.554189 -0.2967853
vn 0.7776845 -0.554189 -0.2967854
vn 0.7776845 -0.554189 -0.2967853
vn 0.7776845 -0.554189 -0.2967853
vn -0.1238622 -0.0285453 -0.9918888
vn -0.1238621 -0.0285453 -0.9918888
vn -0.1238621 -0.0285453 -0.9918888
vn -0.1238622 -0.0285453 -0.9918888
vn -0.7591318 -0.006047923 -0.6509088
vn -0.7591318 -0.006047923 -0.6509088
vn -0.7591318 -0.006047923 -0.6509088
vn -0.7591318 -0.006047923 -0.6509088
vn -0.9818985 0.02421912 0.1878525
vn -0.9818985 0.02421912 0.1878525
vn -0.9818985 0.02421912 0.1878525
vn -0.9818985 0.02421912 0.1878525
vn -0.9986433 0.02018099 0.0480039
vn -0.9986433 0.020181 0.04800393
vn -0.9986433 0.02018099 0.0480039
vn -0.9986433 0.02018099 0.0480039
vn -0.2084864 0.03431435 0.9774231
vn -0.2084864 0.03431435 0.9774231
vn -0.2084863 0.03431434 0.9774231
vn -0.2084864 0.03431435 0.9774231
vn 0.1280554 0.02845035 0.9913589
vn 0.1280554 0.02845035 0.9913589
vn 0.1280554 0.02845035 0.9913589
vn 0.1280554 0.02845035 0.9913589
vn 0.5459992 0.01584631 0.8376358
vn 0.5459992 0.01584631 0.8376358
vn 0.5459992 0.01584631 0.8376358
vn 0.5459992 0.01584631 0.8376358
vn 0.9864715 -0.0235077 -0.1622387
vn 0.9864715 -0.0235077 -0.1622387
vn 0.9864715 -0.0235077 -0.1622387
vn 0.9864715 -0.0235077 -0.1622387
vn 0.8100821 -0.03337279 -0.585366
vn 0.8100821 -0.03337279 -0.585366
vn 0.8100821 -0.03337279 -0.585366
vn 0.8100821 -0.03337279 -0.585366
vn 0.8764081 -0.03135244 -0.4805474
vn 0.8764081 -0.03135244 -0.4805474
vn 0.8764081 -0.03135244 -0.4805474
vn 0.8764081 -0.03135244 -0.4805474
vn -0.1138257 0.1487967 -0.9822949
vn -0.1138258 0.1487967 -0.9822949
vn -0.1138258 0.1487967 -0.9822949
vn -0.1138258 0.1487967 -0.9822949
vn -0.7461998 0.1676001 -0.6442794
vn -0.7461999 0.1676002 -0.6442794
vn -0.7461999 0.1676002 -0.6442794
vn -0.7461999 0.1676002 -0.6442794
vn -0.9500233 0.2301705 0.2108963
vn -0.9500233 0.2301705 0.2108964
vn -0.9500233 0.2301705 0.2108962
vn -0.9500233 0.2301704 0.2108963
vn -0.9759492 0.2178583 0.007804337
vn -0.9759492 0.2178583 0.007804306
vn -0.9759493 0.2178582 0.007804337
vn -0.9759492 0.2178583 0.0078044
vn -0.1658372 0.2398048 0.956552
vn -0.1658372 0.2398049 0.956552
vn -0.1658372 0.2398048 0.956552
vn -0.1658372 0.2398048 0.956552
vn 0.1283359 0.2647643 0.9557352
vn 0.1283358 0.2647643 0.9557351
vn 0.1283359 0.2647643 0.9557351
vn 0.1283359 0.2647643 0.9557351
vn 0.5272421 0.2116168 0.8229423
vn 0.5272421 0.2116168 0.8229423
vn 0.5272421 0.2116168 0.8229423
vn 0.5272421 0.2116168 0.8229423
vn 0.9716102 0.1271079 -0.1995427
vn 0.9716102 0.1271079 -0.1995427
vn 0.9716102 0.1271079 -0.1995425
vn 0.9716102 0.1271079 -0.1995427
vn 0.7907703 0.1608439 -0.5906027
vn 0.7907703 0.1608439 -0.5906028
vn 0.7907703 0.1608439 -0.5906028
vn 0.7907703 0.1608439 -0.5906028
vn 0.8848661 0.1125159 -0.4520532
vn 0.8848661 0.1125159 -0.4520532
vn 0.8848661 0.1125159 -0.4520532
vn 0.8848661 0.1125159 -0.4520532
vn -0.04666331 0.7618849 -0.6460294
vn -0.04666335 0.7618849 -0.6460294
vn -0.04666331 0.7618849 -0.6460294
vn -0.04666335 0.7618849 -0.6460294
vn -0.4684044 0.8306471 -0.301036
vn -0.4684044 0.8306471 -0.301036
vn -0.4684044 0.8306471 -0.301036
vn -0.4684044 0.8306471 -0.301036
vn -0.5616258 0.8251285 0.0611517
vn -0.5616258 0.8251284 0.06115168
vn -0.5616258 0.8251285 0.0611517
vn -0.5616258 0.8251284 0.06115168
vn -0.6735011 0.7389905 -0.01700935
vn -0.6735011 0.7389905 -0.01700935
vn -0.6735011 0.7389905 -0.01700935
vn -0.6735011 0.7389905 -0.01700935
vn -0.1113433 0.7935378 0.5982478
vn -0.1113432 0.7935378 0.5982478
vn -0.1113433 0.7935378 0.5982478
vn -0.1113433 0.7935378 0.5982478
vn 0.09518696 0.7892223 0.6066857
vn 0.0951869 0.7892223 0.6066858
vn 0.09518698 0.7892223 0.6066858
vn 0.0951869 0.7892223 0.6066858
vn 0.3419186 0.7643307 0.5467086
vn 0.3419186 0.7643306 0.5467086
vn 0.3419186 0.7643306 0.5467086
vn 0.3419186 0.7643306 0.5467086
vn 0.677269 0.695106 -0.2411104
vn 0.677269 0.695106 -0.2411104
vn 0.677269 0.695106 -0.2411104
vn 0.677269 0.695106 -0.2411104
vn 0.4624394 0.7078687 -0.5339211
vn 0.4624394 0.7078688 -0.5339211
vn 0.4624394 0.7078687 -0.5339211
vn 0.4624394 0.7078687 -0.5339211
vn 0.7522644 0.6201567 -0.2224946
vn 0.7522644 0.6201568 -0.2224946
vn 0.7522644 0.6201567 -0.2224946
vn 0.7522644 0.6201567 -0.2224946
vn -0.009530099 0.9211611 -0.3890647
vn -0.009530119 0.9211611 -0.3890647
vn -0.009530099 0.9211611 -0.3890647
vn -0.4602502 0.8791957 -0.1232253
vn -0.4602502 0.8791957 -0.1232253
vn -0.4602502 0.8791958 -0.1232253
vn -0.4871116 0.8708525 -0.06586626
vn -0.4871116 0.8708524 -0.06586628
vn -0.4871116 0.8708524 -0.06586624
vn -0.4834167 0.8753446 0.00895224
vn -0.4834167 0.8753446 0.008952259
vn -0.4834167 0.8753446 0.008952259
vn -0.1288459 0.9174458 0.37642
vn -0.1288458 0.9174458 0.3764199
vn -0.1288459 0.9174458 0.37642
vn 0.07128355 0.9081659 0.4124964
vn 0.07128353 0.9081659 0.4124964
vn 0.07128353 0.9081659 0.4124964
vn 0.2160241 0.9104906 0.3526192
vn 0.2160241 0.9104906 0.3526192
vn 0.2160241 0.9104906 0.3526192
vn 0.4550792 0.8597916 -0.2316491
vn 0.4550792 0.8597915 -0.2316492
vn 0.4550793 0.8597915 -0.2316492
vn 0.33867 0.7455266 -0.5740144
vn 0.33867 0.7455267 -0.5740145
vn 0.33867 0.7455267 -0.5740144
vn 0.7347248 0.6723581 -0.09007797
vn 0.7347248 0.6723582 -0.09007791
vn 0.7347248 0.6723582 -0.09007794

vt 0.5483398 0.007648468
vt 0.5 0.1500244
vt 0.6264648 0.06439209
vt 0.4516602 0.007648468
vt 0.3735352 0.06439209
vt 0.34375 0.15625
vt 0.3735352 0.2480469
vt 0.4516602 0.3049316
vt 0.5483398 0.3049316
vt 0.6264648 0.2480469
vt 0.65625 0.15625
vt 0 0
vt 0 1
vt 1 1
vt 1 0
vt 0 0
vt 0 1
vt 1 1
vt 1 0
vt 0 0
vt 0 1
vt 1 1
vt 1 0
vt 0 0
vt 0 1
vt 1 1
vt 1 0
vt 0 0
vt 0 1
vt 1 1
vt 1 0
vt 0 0
vt 0 1
vt 1 1
vt 1 0
vt 0 0
vt 0 1
vt 1 1
vt 1 0
vt 0 0
vt 0 1
vt 1 1
vt 1 0
vt 0 0
vt 0 1
vt 1 1
vt 1 0
vt 0 0
vt 0 1
vt 1 1
vt 1 0
vt 0 0
vt 0 1
vt 1 1
vt 1 0
vt 0 0
vt 0 1
vt 1 1
vt 1 0
vt 0 0
vt 0 1
vt 1 1
vt 1 0
vt 0 0
vt 0 1
vt 1 1
vt 1 0
vt 0 0
vt 0 1
vt 1 1
vt 1 0
vt 0 0
vt 0 1
vt 1 1
vt 1 0
vt 0 0
vt 0 1
vt 1 1
vt 1 0
vt 0 0
vt 0 1
vt 1 1
vt 1 0
vt 0 0
vt 0 1
vt 1 1
vt 1 0
vt 0 0
vt 0 1
vt 1 1
vt 1 0
vt 0 0
vt 0 1
vt 1 1
vt 1 0
vt 0 0
vt 0 1
vt 1 1
vt 1 0
vt 0 0
vt 0 1
vt 1 1
vt 1 0
vt 0 0
vt 0 1
vt 1 1
vt 1 0
vt 0 0
vt 0 1
vt 1 1
vt 1 0
vt 0 0
vt 0 1
vt 1 1
vt 1 0
vt 0 0
vt 0 1
vt 1 1
vt 1 0
vt 0 0
vt 0 1
vt 1 1
vt 1 0
vt 0 0
vt 0 1
vt 1 1
vt 1 0
vt 0 0
vt 0 1
vt 1 1
vt 1 0
vt 0 0
vt 0 1
vt 1 1
vt 1 0
vt 0 0
vt 0 1
vt 1 1
vt 1 0
vt 0 0
vt 0 1
vt 1 1
vt 1 0
vt 0 0
vt 0 1
vt 1 1
vt 1 0
vt 0 0
vt 0 1
vt 1 1
vt 1 0
vt 0 0
vt 0 1
vt 1 1
vt 1 0
vt 0 0
vt 0 1
vt 1 1
vt 1 0
vt 0 0
vt 0 1
vt 1 1
vt 1 0
vt 0 0
vt 0 1
vt 1 1
vt 1 0
vt 0 0
vt 0 1
vt 1 1
vt 1 0
vt 0 0
vt 0.5 1
vt 1 0
vt 0 0
vt 0.5 1
vt 1 0
vt 0 0
vt 0.5 1
vt 1 0
vt 0 0
vt 0.5 1
vt 1 0
vt 0 0
vt 0.5 1
vt 1 0
vt 0 0
vt 0.5 1
vt 1 0
vt 0 0
vt 0.5 1
vt 1 0
vt 0 0
vt 0.5 1
vt 1 0
vt 0 0
vt 0.5 1
vt 1 0
vt 0 0
vt 0.5 1
vt 1 0

g Foliage6_39_3745_186
usemtl Foliage6_39_3745_186
usemap Foliage6_39_3745_186
f 1/1/1 3/3/3 2/2/2
f 4/4/4 1/1/1 2/2/2
f 5/5/5 4/4/4 2/2/2
f 6/6/6 5/5/5 2/2/2
f 7/7/7 6/6/6 2/2/2
f 8/8/8 7/7/7 2/2/2
f 9/9/9 8/8/8 2/2/2
f 10/10/10 9/9/9 2/2/2
f 11/11/11 10/10/10 2/2/2
f 3/3/3 11/11/11 2/2/2
f 12/12/12 14/14/14 13/13/13
f 12/12/12 15/15/15 14/14/14
f 16/16/16 18/18/18 17/17/17
f 16/16/16 19/19/19 18/18/18
f 20/20/20 22/22/22 21/21/21
f 20/20/20 23/23/23 22/22/22
f 24/24/24 26/26/26 25/25/25
f 24/24/24 27/27/27 26/26/26
f 28/28/28 30/30/30 29/29/29
f 28/28/28 31/31/31 30/30/30
f 32/32/32 34/34/34 33/33/33
f 32/32/32 35/35/35 34/34/34
f 36/36/36 38/38/38 37/37/37
f 36/36/36 39/39/39 38/38/38
f 40/40/40 42/42/42 41/41/41
f 40/40/40 43/43/43 42/42/42
f 44/44/44 46/46/46 45/45/45
f 44/44/44 47/47/47 46/46/46
f 48/48/48 50/50/50 49/49/49
f 48/48/48 51/51/51 50/50/50
f 52/52/52 54/54/54 53/53/53
f 52/52/52 55/55/55 54/54/54
f 56/56/56 58/58/58 57/57/57
f 56/56/56 59/59/59 58/58/58
f 60/60/60 62/62/62 61/61/61
f 60/60/60 63/63/63 62/62/62
f 64/64/64 66/66/66 65/65/65
f 64/64/64 67/67/67 66/66/66
f 68/68/68 70/70/70 69/69/69
f 68/68/68 71/71/71 70/70/70
f 72/72/72 74/74/74 73/73/73
f 72/72/72 75/75/75 74/74/74
f 76/76/76 78/78/78 77/77/77
f 76/76/76 79/79/79 78/78/78
f 80/80/80 82/82/82 81/81/81
f 80/80/80 83/83/83 82/82/82
f 84/84/84 86/86/86 85/85/85
f 84/84/84 87/87/87 86/86/86
f 88/88/88 90/90/90 89/89/89
f 88/88/88 91/91/91 90/90/90
f 92/92/92 94/94/94 93/93/93
f 92/92/92 95/95/95 94/94/94
f 96/96/96 98/98/98 97/97/97
f 96/96/96 99/99/99 98/98/98
f 100/100/100 102/102/102 101/101/101
f 100/100/100 103/103/103 102/102/102
f 104/104/104 106/106/106 105/105/105
f 104/104/104 107/107/107 106/106/106
f 108/108/108 110/110/110 109/109/109
f 108/108/108 111/111/111 110/110/110
f 112/112/112 114/114/114 113/113/113
f 112/112/112 115/115/115 114/114/114
f 116/116/116 118/118/118 117/117/117
f 116/116/116 119/119/119 118/118/118
f 120/120/120 122/122/122 121/121/121
f 120/120/120 123/123/123 122/122/122
f 124/124/124 126/126/126 125/125/125
f 124/124/124 127/127/127 126/126/126
f 128/128/128 130/130/130 129/129/129
f 128/128/128 131/131/131 130/130/130
f 132/132/132 134/134/134 133/133/133
f 132/132/132 135/135/135 134/134/134
f 136/136/136 138/138/138 137/137/137
f 136/136/136 139/139/139 138/138/138
f 140/140/140 142/142/142 141/141/141
f 140/140/140 143/143/143 142/142/142
f 144/144/144 146/146/146 145/145/145
f 144/144/144 147/147/147 146/146/146
f 148/148/148 150/150/150 149/149/149
f 148/148/148 151/151/151 150/150/150
f 152/152/152 154/154/154 153/153/153
f 152/152/152 155/155/155 154/154/154
f 156/156/156 158/158/158 157/157/157
f 156/156/156 159/159/159 158/158/158
f 160/160/160 162/162/162 161/161/161
f 160/160/160 163/163/163 162/162/162
f 164/164/164 166/166/166 165/165/165
f 164/164/164 167/167/167 166/166/166
f 168/168/168 170/170/170 169/169/169
f 168/168/168 171/171/171 170/170/170
f 172/172/172 174/174/174 173/173/173
f 175/175/175 177/177/177 176/176/176
f 178/178/178 180/180/180 179/179/179
f 181/181/181 183/183/183 182/182/182
f 184/184/184 186/186/186 185/185/185
f 187/187/187 189/189/189 188/188/188
f 190/190/190 192/192/192 191/191/191
f 193/193/193 195/195/195 194/194/194
f 196/196/196 198/198/198 197/197/197
f 199/199/199 201/201/201 200/200/200
