#Foliage2_14_3981_273.obj

v 0.0145468 -0.02577566 -0.04035897
v 0.00462517 -0.03397606 0.001090648
v 0.0387859 -0.02577566 -0.0210555
v -0.00966201 -0.02577566 -0.03817606
v -0.01824937 -0.02577566 -0.01778118
v -0.03822066 -0.02223217 0.001090849
v -0.02134933 -0.02577566 0.01996261
v -0.005296257 -0.02577566 0.03271747
v 0.02109533 -0.02577566 0.04035755
v 0.03059998 -0.02577566 0.01996246
v 0.03219109 -0.02223217 0.001090812
v 0.0387859 -0.02577566 -0.0210555
v 0.04796844 -0.01489238 -0.02772669
v 0.01805409 -0.01489238 -0.05115326
v 0.0145468 -0.02577566 -0.04035897
v 0.0145468 -0.02577566 -0.04035897
v 0.01805409 -0.01489238 -0.05115326
v -0.01316949 -0.01489238 -0.04897056
v -0.00966201 -0.02577566 -0.03817606
v -0.00966201 -0.02577566 -0.03817606
v -0.01316949 -0.01489238 -0.04897056
v -0.02743163 -0.01489238 -0.02445253
v -0.01824937 -0.02577566 -0.01778118
v -0.01824937 -0.02577566 -0.01778118
v -0.02743163 -0.01489238 -0.02445253
v -0.04796537 -0.01288823 0.00109082
v -0.03822066 -0.02223217 0.001090849
v -0.03822066 -0.02223217 0.001090849
v -0.04796537 -0.01288823 0.00109082
v -0.03053181 -0.01489238 0.02663414
v -0.02134933 -0.02577566 0.01996261
v -0.02134933 -0.02577566 0.01996261
v -0.03053181 -0.01489238 0.02663414
v -0.008803519 -0.01489238 0.04351193
v -0.005296257 -0.02577566 0.03271747
v -0.005296257 -0.02577566 0.03271747
v -0.008803519 -0.01489238 0.04351193
v 0.02460281 -0.01489238 0.05115205
v 0.02109533 -0.02577566 0.04035755
v 0.02109533 -0.02577566 0.04035755
v 0.02460281 -0.01489238 0.05115205
v 0.0397823 -0.01489238 0.02663415
v 0.03059998 -0.02577566 0.01996246
v 0.03059998 -0.02577566 0.01996246
v 0.0397823 -0.01489238 0.02663415
v 0.04193581 -0.01288823 0.001090841
v 0.03219109 -0.02223217 0.001090812
v 0.03219109 -0.02223217 0.001090812
v 0.04193581 -0.01288823 0.001090841
v 0.04796844 -0.01489238 -0.02772669
v 0.0387859 -0.02577566 -0.0210555
v 0.04796844 -0.01489238 -0.02772669
v 0.04796844 -0.0001483211 -0.02772669
v 0.01805409 -0.0001483211 -0.05115326
v 0.01805409 -0.01489238 -0.05115326
v 0.01805409 -0.01489238 -0.05115326
v 0.01805409 -0.0001483211 -0.05115326
v -0.01316949 -0.0001483211 -0.04897056
v -0.01316949 -0.01489238 -0.04897056
v -0.01316949 -0.01489238 -0.04897056
v -0.01316949 -0.0001483211 -0.04897056
v -0.02743163 -0.0001483211 -0.02445253
v -0.02743163 -0.01489238 -0.02445253
v -0.02743163 -0.01489238 -0.02445253
v -0.02743163 -0.0001483211 -0.02445253
v -0.04796537 -0.0002293876 0.00109082
v -0.04796537 -0.01288823 0.00109082
v -0.04796537 -0.01288823 0.00109082
v -0.04796537 -0.0002293876 0.00109082
v -0.03053181 -0.0001483211 0.02663414
v -0.03053181 -0.01489238 0.02663414
v -0.03053181 -0.01489238 0.02663414
v -0.03053181 -0.0001483211 0.02663414
v -0.008803519 -0.0001483211 0.04351193
v -0.008803519 -0.01489238 0.04351193
v -0.008803519 -0.01489238 0.04351193
v -0.008803519 -0.0001483211 0.04351193
v 0.02460281 -0.0001483211 0.05115205
v 0.02460281 -0.01489238 0.05115205
v 0.02460281 -0.01489238 0.05115205
v 0.02460281 -0.0001483211 0.05115205
v 0.0397823 -0.0001483211 0.02663415
v 0.0397823 -0.01489238 0.02663415
v 0.0397823 -0.01489238 0.02663415
v 0.0397823 -0.0001483211 0.02663415
v 0.04193581 -0.0002293876 0.001090841
v 0.04193581 -0.01288823 0.001090841
v 0.04193581 -0.01288823 0.001090841
v 0.04193581 -0.0002293876 0.001090841
v 0.04796844 -0.0001483211 -0.02772669
v 0.04796844 -0.01489238 -0.02772669
v 0.04796844 -0.0001483211 -0.02772669
v 0.04569028 0.01428337 -0.02539732
v 0.01714643 0.01428337 -0.04799201
v 0.01805409 -0.0001483211 -0.05115326
v 0.01805409 -0.0001483211 -0.05115326
v 0.01714643 0.01428337 -0.04799201
v -0.01182753 0.01428337 -0.04559846
v -0.01316949 -0.0001483211 -0.04897056
v -0.01316949 -0.0001483211 -0.04897056
v -0.01182753 0.01428337 -0.04559846
v -0.02320877 0.01428337 -0.02180691
v -0.02743163 -0.0001483211 -0.02445253
v -0.02743163 -0.0001483211 -0.02445253
v -0.02320877 0.01428337 -0.02180691
v -0.04530279 0.01197212 0.001196267
v -0.04796537 -0.0002293876 0.00109082
v -0.04796537 -0.0002293876 0.00109082
v -0.04530279 0.01197212 0.001196267
v -0.02660811 0.01428337 0.0241992
v -0.03053181 -0.0001483211 0.02663414
v -0.03053181 -0.0001483211 0.02663414
v -0.02660811 0.01428337 0.0241992
v -0.007040283 0.01428337 0.03961293
v -0.008803519 -0.0001483211 0.04351193
v -0.008803519 -0.0001483211 0.04351193
v -0.007040283 0.01428337 0.03961293
v 0.02432735 0.01428337 0.04799066
v 0.02460281 -0.0001483211 0.05115205
v 0.02460281 -0.0001483211 0.05115205
v 0.02432735 0.01428337 0.04799066
v 0.0367143 0.01428337 0.02419922
v 0.0397823 -0.0001483211 0.02663415
v 0.0397823 -0.0001483211 0.02663415
v 0.0367143 0.01428337 0.02419922
v 0.03865358 0.01197212 0.001195957
v 0.04193581 -0.0002293876 0.001090841
v 0.04193581 -0.0002293876 0.001090841
v 0.03865358 0.01197212 0.001195957
v 0.04569028 0.01428337 -0.02539732
v 0.04796844 -0.0001483211 -0.02772669
v 0.04569028 0.01428337 -0.02539732
v 0.03225378 0.02437436 -0.01614824
v 0.012038 0.02437436 -0.03256942
v 0.01714643 0.01428337 -0.04799201
v 0.01714643 0.01428337 -0.04799201
v 0.012038 0.02437436 -0.03256942
v -0.002590794 0.02437436 -0.02139434
v -0.01182753 0.01428337 -0.04559846
v -0.01182753 0.01428337 -0.04559846
v -0.002590794 0.02437436 -0.02139434
v -0.01125181 0.02437436 -0.01279602
v -0.02320877 0.01428337 -0.02180691
v -0.02320877 0.01428337 -0.02180691
v -0.01125181 0.02437436 -0.01279602
v -0.03124315 0.02074646 0.001116627
v -0.04530279 0.01197212 0.001196267
v -0.04530279 0.01197212 0.001196267
v -0.03124315 0.02074646 0.001116627
v -0.01442583 0.02437436 0.0150296
v -0.02660811 0.01428337 0.0241992
v -0.02660811 0.01428337 0.0241992
v -0.01442583 0.02437436 0.0150296
v -0.002590718 0.02437436 0.0247457
v -0.007040283 0.01428337 0.03961293
v -0.007040283 0.01428337 0.03961293
v -0.002590718 0.02437436 0.0247457
v 0.01874276 0.02437436 0.03256784
v 0.02432735 0.01428337 0.04799066
v 0.02432735 0.01428337 0.04799066
v 0.01874276 0.02437436 0.03256784
v 0.02387291 0.02437436 0.01502945
v 0.0367143 0.01428337 0.02419922
v 0.0367143 0.01428337 0.02419922
v 0.02387291 0.02437436 0.01502945
v 0.02504565 0.02074646 0.001116875
v 0.03865358 0.01197212 0.001195957
v 0.03865358 0.01197212 0.001195957
v 0.02504565 0.02074646 0.001116875
v 0.03225378 0.02437436 -0.01614824
v 0.04569028 0.01428337 -0.02539732
v 0.03225378 0.02437436 -0.01614824
v 0.00462517 0.03397604 0.001090648
v 0.012038 0.02437436 -0.03256942
v 0.012038 0.02437436 -0.03256942
v 0.00462517 0.03397604 0.001090648
v -0.002590794 0.02437436 -0.02139434
v -0.002590794 0.02437436 -0.02139434
v 0.00462517 0.03397604 0.001090648
v -0.01125181 0.02437436 -0.01279602
v -0.01125181 0.02437436 -0.01279602
v 0.00462517 0.03397604 0.001090648
v -0.03124315 0.02074646 0.001116627
v -0.03124315 0.02074646 0.001116627
v 0.00462517 0.03397604 0.001090648
v -0.01442583 0.02437436 0.0150296
v -0.01442583 0.02437436 0.0150296
v 0.00462517 0.03397604 0.001090648
v -0.002590718 0.02437436 0.0247457
v -0.002590718 0.02437436 0.0247457
v 0.00462517 0.03397604 0.001090648
v 0.01874276 0.02437436 0.03256784
v 0.01874276 0.02437436 0.03256784
v 0.00462517 0.03397604 0.001090648
v 0.02387291 0.02437436 0.01502945
v 0.02387291 0.02437436 0.01502945
v 0.00462517 0.03397604 0.001090648
v 0.02504565 0.02074646 0.001116875
v 0.02504565 0.02074646 0.001116875
v 0.00462517 0.03397604 0.001090648
v 0.03225378 0.02437436 -0.01614824

vn 0.10524 -0.9746063 -0.197654
vn 0.001963489 -0.999998 0.0003156652
vn 0.2423228 -0.9698725 -0.02503903
vn -0.06334563 -0.9735575 -0.2194841
vn -0.2797425 -0.9450634 -0.1691137
vn -0.3020857 -0.9505205 -0.07249248
vn -0.2828005 -0.955556 0.08328664
vn -0.1588283 -0.9587457 0.2357548
vn 0.03269941 -0.9745761 0.2216581
vn 0.3221985 -0.9428011 0.08552317
vn 0.423654 -0.8860961 0.1880186
vn 0.5700238 -0.6400555 -0.5151716
vn 0.5700238 -0.6400556 -0.5151716
vn 0.5700238 -0.6400555 -0.5151715
vn 0.5700238 -0.6400556 -0.5151716
vn 0.06856272 -0.6391842 -0.7659913
vn 0.06856272 -0.6391844 -0.7659913
vn 0.06856271 -0.6391842 -0.7659913
vn 0.06856272 -0.6391842 -0.7659913
vn -0.6446752 -0.5961946 -0.478483
vn -0.6446751 -0.5961945 -0.478483
vn -0.6446752 -0.5961946 -0.478483
vn -0.6446752 -0.5961946 -0.478483
vn -0.534428 -0.621523 -0.5727966
vn -0.5344281 -0.6215229 -0.5727966
vn -0.5344281 -0.6215229 -0.5727966
vn -0.5344281 -0.621523 -0.5727965
vn -0.7163618 -0.6309732 0.297823
vn -0.7163618 -0.6309732 0.297823
vn -0.7163618 -0.6309732 0.297823
vn -0.7163618 -0.6309732 0.2978231
vn -0.5684863 -0.640098 0.5168152
vn -0.5684863 -0.640098 0.5168151
vn -0.5684863 -0.640098 0.5168151
vn -0.5684863 -0.640098 0.5168151
vn -0.3158176 -0.6283637 0.7109277
vn -0.3158176 -0.6283637 0.7109277
vn -0.3158176 -0.6283637 0.7109278
vn -0.3158176 -0.6283637 0.7109277
vn 0.6255587 -0.602204 0.4960107
vn 0.6255587 -0.602204 0.4960107
vn 0.6255587 -0.602204 0.4960107
vn 0.6255588 -0.602204 0.4960107
vn 0.7821129 -0.6137942 0.107499
vn 0.7821129 -0.6137943 0.107499
vn 0.7821129 -0.6137942 0.107499
vn 0.7821129 -0.6137942 0.107499
vn 0.7362293 -0.5488456 0.3958975
vn 0.7362294 -0.5488456 0.3958975
vn 0.7362293 -0.5488456 0.3958975
vn 0.7362293 -0.5488456 0.3958975
vn 0.7394382 3.810396E-17 -0.6732244
vn 0.7394383 3.810396E-17 -0.6732244
vn 0.7394383 3.810396E-17 -0.6732244
vn 0.7394382 3.810396E-17 -0.6732244
vn 0.09791178 1.334886E-16 -0.9951951
vn 0.09791178 1.334886E-16 -0.9951951
vn 0.09791178 1.334886E-16 -0.9951951
vn 0.09791178 1.334886E-16 -0.9951951
vn -0.7682265 1.503179E-16 -0.640178
vn -0.7682265 1.503179E-16 -0.640178
vn -0.7682265 1.503179E-16 -0.640178
vn -0.7682265 1.503179E-16 -0.640178
vn -0.6637521 1.574957E-16 -0.7479526
vn -0.6637521 1.574957E-16 -0.7479526
vn -0.6637521 1.574957E-16 -0.7479526
vn -0.6637521 1.574957E-16 -0.7479526
vn -0.9085368 1.121596E-17 0.4178048
vn -0.9085368 1.121596E-17 0.4178048
vn -0.9085368 1.121594E-17 0.4178048
vn -0.9085368 1.121596E-17 0.4178048
vn -0.7367713 -3.872437E-17 0.676142
vn -0.7367713 -3.872437E-17 0.676142
vn -0.7367713 -3.872437E-17 0.676142
vn -0.7367713 -3.872437E-17 0.676142
vn -0.3826896 -1.012978E-16 0.9238771
vn -0.3826896 -1.012978E-16 0.9238771
vn -0.3826896 -1.012978E-16 0.9238771
vn -0.3826896 -1.012978E-16 0.9238771
vn 0.7503358 -1.518906E-16 0.6610569
vn 0.7503358 -1.518906E-16 0.6610569
vn 0.7503358 -1.518906E-16 0.6610569
vn 0.7503358 -1.518906E-16 0.6610569
vn 0.9684233 -1.104307E-16 0.2493117
vn 0.9684233 -1.104307E-16 0.2493117
vn 0.9684233 -1.104307E-16 0.2493117
vn 0.9684233 -1.104307E-16 0.2493117
vn 0.9307907 -1.239913E-16 0.3655526
vn 0.9307907 -1.239913E-16 0.3655526
vn 0.9307907 -1.239913E-16 0.3655526
vn 0.9307907 -1.239913E-16 0.3655526
vn 0.7290426 0.1800348 -0.6603668
vn 0.7290426 0.1800349 -0.6603668
vn 0.7290426 0.1800349 -0.6603668
vn 0.7290426 0.1800349 -0.6603668
vn 0.0902336 0.18731 -0.9781477
vn 0.09023359 0.18731 -0.9781477
vn 0.09023359 0.18731 -0.9781477
vn 0.09023359 0.18731 -0.9781477
vn -0.7731404 0.2197905 -0.5949337
vn -0.7731404 0.2197905 -0.5949337
vn -0.7731403 0.2197905 -0.5949337
vn -0.7731404 0.2197905 -0.5949337
vn -0.6230825 0.2161017 -0.7517102
vn -0.6230825 0.2161018 -0.7517102
vn -0.6230825 0.2161017 -0.7517102
vn -0.6230826 0.2161018 -0.7517102
vn -0.8758386 0.206724 0.4360871
vn -0.8758386 0.206724 0.4360871
vn -0.8758386 0.206724 0.436087
vn -0.8758386 0.206724 0.4360871
vn -0.717335 0.2400799 0.6540582
vn -0.717335 0.2400799 0.6540581
vn -0.717335 0.2400799 0.6540582
vn -0.717335 0.2400799 0.6540582
vn -0.3903624 0.2055194 0.8974291
vn -0.3903624 0.2055194 0.8974291
vn -0.3903624 0.2055194 0.8974291
vn -0.3903624 0.2055194 0.8974291
vn 0.7631665 0.163128 0.6252728
vn 0.7631665 0.163128 0.6252728
vn 0.7631665 0.163128 0.6252729
vn 0.7631665 0.163128 0.6252728
vn 0.9515163 0.2010115 0.2328328
vn 0.9515163 0.2010115 0.2328328
vn 0.9515164 0.2010115 0.2328328
vn 0.9515163 0.2010115 0.2328328
vn 0.9078031 0.1505436 0.3914464
vn 0.9078031 0.1505436 0.3914464
vn 0.9078031 0.1505436 0.3914464
vn 0.9078031 0.1505436 0.3914464
vn 0.4584579 0.7891594 -0.4087099
vn 0.4584579 0.7891594 -0.4087099
vn 0.4584579 0.7891594 -0.4087099
vn 0.4584579 0.7891594 -0.4087099
vn -0.06986253 0.8519384 -0.5189607
vn -0.06986253 0.8519384 -0.5189607
vn -0.06986253 0.8519384 -0.5189607
vn -0.06986249 0.8519384 -0.5189607
vn -0.4204582 0.8283318 -0.370245
vn -0.4204582 0.8283318 -0.370245
vn -0.4204582 0.8283318 -0.370245
vn -0.4204582 0.8283318 -0.370245
vn -0.4230708 0.751799 -0.5057759
vn -0.4230708 0.751799 -0.5057759
vn -0.4230708 0.751799 -0.5057759
vn -0.4230708 0.751799 -0.5057759
vn -0.5819877 0.7676094 0.2684519
vn -0.5819876 0.7676093 0.2684518
vn -0.5819876 0.7676093 0.2684519
vn -0.5819877 0.7676094 0.2684519
vn -0.4745013 0.7719752 0.422969
vn -0.4745013 0.7719752 0.422969
vn -0.4745013 0.7719752 0.422969
vn -0.4745013 0.7719752 0.422969
vn -0.2888381 0.7661014 0.5741614
vn -0.2888381 0.7661014 0.5741614
vn -0.2888381 0.7661014 0.5741614
vn -0.2888381 0.7661014 0.5741614
vn 0.5650106 0.7418408 0.3611582
vn 0.5650107 0.7418408 0.3611582
vn 0.5650107 0.7418408 0.3611582
vn 0.5650107 0.7418408 0.3611582
vn 0.6672022 0.7444519 0.02514969
vn 0.6672022 0.744452 0.02514966
vn 0.6672022 0.7444519 0.02514967
vn 0.6672022 0.7444519 0.02514971
vn 0.603173 0.6708224 0.4314853
vn 0.603173 0.6708225 0.4314853
vn 0.603173 0.6708224 0.4314853
vn 0.603173 0.6708224 0.4314853
vn 0.2612506 0.9375963 -0.2294802
vn 0.2612505 0.9375963 -0.2294803
vn 0.2612506 0.9375963 -0.2294802
vn -0.2127201 0.8896015 -0.4041775
vn -0.2127201 0.8896015 -0.4041775
vn -0.21272 0.8896015 -0.4041775
vn -0.2748556 0.8788401 -0.3899928
vn -0.2748555 0.8788401 -0.3899929
vn -0.2748556 0.8788401 -0.3899928
vn -0.3332279 0.878563 -0.3421787
vn -0.3332279 0.878563 -0.3421787
vn -0.3332279 0.878563 -0.3421787
vn -0.4212435 0.8977367 0.1289286
vn -0.4212434 0.8977368 0.1289287
vn -0.4212435 0.8977367 0.1289286
vn -0.3373448 0.8945507 0.2932192
vn -0.3373448 0.8945507 0.2932191
vn -0.3373448 0.8945507 0.2932191
vn -0.2083653 0.9075938 0.3644961
vn -0.2083653 0.9075938 0.3644961
vn -0.2083652 0.9075938 0.3644961
vn 0.4087791 0.8907424 0.1986899
vn 0.4087791 0.8907424 0.1986899
vn 0.4087791 0.8907423 0.19869
vn 0.6228507 0.7773977 -0.08780566
vn 0.6228507 0.7773978 -0.08780567
vn 0.6228506 0.7773978 -0.08780566
vn 0.479056 0.7217777 0.4995421
vn 0.479056 0.7217777 0.4995421
vn 0.479056 0.7217777 0.4995421

vt 0.5482839 0.007647395
vt 0.5 0.15
vt 0.6264089 0.06440853
vt 0.4517161 0.00764741
vt 0.3735911 0.06440856
vt 0.34375 0.15625
vt 0.3735911 0.2480915
vt 0.4517161 0.3048526
vt 0.5482839 0.3048526
vt 0.6264089 0.2480914
vt 0.65625 0.15625
vt 0 0
vt 0 1
vt 1 1
vt 1 0
vt 0 0
vt 0 1
vt 1 1
vt 1 0
vt 0 0
vt 0 1
vt 1 1
vt 1 0
vt 0 0
vt 0 1
vt 1 1
vt 1 0
vt 0 0
vt 0 1
vt 1 1
vt 1 0
vt 0 0
vt 0 1
vt 1 1
vt 1 0
vt 0 0
vt 0 1
vt 1 1
vt 1 0
vt 0 0
vt 0 1
vt 1 1
vt 1 0
vt 0 0
vt 0 1
vt 1 1
vt 1 0
vt 0 0
vt 0 1
vt 1 1
vt 1 0
vt 0 0
vt 0 1
vt 1 1
vt 1 0
vt 0 0
vt 0 1
vt 1 1
vt 1 0
vt 0 0
vt 0 1
vt 1 1
vt 1 0
vt 0 0
vt 0 1
vt 1 1
vt 1 0
vt 0 0
vt 0 1
vt 1 1
vt 1 0
vt 0 0
vt 0 1
vt 1 1
vt 1 0
vt 0 0
vt 0 1
vt 1 1
vt 1 0
vt 0 0
vt 0 1
vt 1 1
vt 1 0
vt 0 0
vt 0 1
vt 1 1
vt 1 0
vt 0 0
vt 0 1
vt 1 1
vt 1 0
vt 0 0
vt 0 1
vt 1 1
vt 1 0
vt 0 0
vt 0 1
vt 1 1
vt 1 0
vt 0 0
vt 0 1
vt 1 1
vt 1 0
vt 0 0
vt 0 1
vt 1 1
vt 1 0
vt 0 0
vt 0 1
vt 1 1
vt 1 0
vt 0 0
vt 0 1
vt 1 1
vt 1 0
vt 0 0
vt 0 1
vt 1 1
vt 1 0
vt 0 0
vt 0 1
vt 1 1
vt 1 0
vt 0 0
vt 0 1
vt 1 1
vt 1 0
vt 0 0
vt 0 1
vt 1 1
vt 1 0
vt 0 0
vt 0 1
vt 1 1
vt 1 0
vt 0 0
vt 0 1
vt 1 1
vt 1 0
vt 0 0
vt 0 1
vt 1 1
vt 1 0
vt 0 0
vt 0 1
vt 1 1
vt 1 0
vt 0 0
vt 0 1
vt 1 1
vt 1 0
vt 0 0
vt 0 1
vt 1 1
vt 1 0
vt 0 0
vt 0 1
vt 1 1
vt 1 0
vt 0 0
vt 0 1
vt 1 1
vt 1 0
vt 0 0
vt 0 1
vt 1 1
vt 1 0
vt 0 0
vt 0 1
vt 1 1
vt 1 0
vt 0 0
vt 0.5 1
vt 1 0
vt 0 0
vt 0.5 1
vt 1 0
vt 0 0
vt 0.5 1
vt 1 0
vt 0 0
vt 0.5 1
vt 1 0
vt 0 0
vt 0.5 1
vt 1 0
vt 0 0
vt 0.5 1
vt 1 0
vt 0 0
vt 0.5 1
vt 1 0
vt 0 0
vt 0.5 1
vt 1 0
vt 0 0
vt 0.5 1
vt 1 0
vt 0 0
vt 0.5 1
vt 1 0

g Foliage2_14_3981_273
usemtl Foliage2_14_3981_273
usemap Foliage2_14_3981_273
f 1/1/1 3/3/3 2/2/2
f 4/4/4 1/1/1 2/2/2
f 5/5/5 4/4/4 2/2/2
f 6/6/6 5/5/5 2/2/2
f 7/7/7 6/6/6 2/2/2
f 8/8/8 7/7/7 2/2/2
f 9/9/9 8/8/8 2/2/2
f 10/10/10 9/9/9 2/2/2
f 11/11/11 10/10/10 2/2/2
f 3/3/3 11/11/11 2/2/2
f 12/12/12 14/14/14 13/13/13
f 12/12/12 15/15/15 14/14/14
f 16/16/16 18/18/18 17/17/17
f 16/16/16 19/19/19 18/18/18
f 20/20/20 22/22/22 21/21/21
f 20/20/20 23/23/23 22/22/22
f 24/24/24 26/26/26 25/25/25
f 24/24/24 27/27/27 26/26/26
f 28/28/28 30/30/30 29/29/29
f 28/28/28 31/31/31 30/30/30
f 32/32/32 34/34/34 33/33/33
f 32/32/32 35/35/35 34/34/34
f 36/36/36 38/38/38 37/37/37
f 36/36/36 39/39/39 38/38/38
f 40/40/40 42/42/42 41/41/41
f 40/40/40 43/43/43 42/42/42
f 44/44/44 46/46/46 45/45/45
f 44/44/44 47/47/47 46/46/46
f 48/48/48 50/50/50 49/49/49
f 48/48/48 51/51/51 50/50/50
f 52/52/52 54/54/54 53/53/53
f 52/52/52 55/55/55 54/54/54
f 56/56/56 58/58/58 57/57/57
f 56/56/56 59/59/59 58/58/58
f 60/60/60 62/62/62 61/61/61
f 60/60/60 63/63/63 62/62/62
f 64/64/64 66/66/66 65/65/65
f 64/64/64 67/67/67 66/66/66
f 68/68/68 70/70/70 69/69/69
f 68/68/68 71/71/71 70/70/70
f 72/72/72 74/74/74 73/73/73
f 72/72/72 75/75/75 74/74/74
f 76/76/76 78/78/78 77/77/77
f 76/76/76 79/79/79 78/78/78
f 80/80/80 82/82/82 81/81/81
f 80/80/80 83/83/83 82/82/82
f 84/84/84 86/86/86 85/85/85
f 84/84/84 87/87/87 86/86/86
f 88/88/88 90/90/90 89/89/89
f 88/88/88 91/91/91 90/90/90
f 92/92/92 94/94/94 93/93/93
f 92/92/92 95/95/95 94/94/94
f 96/96/96 98/98/98 97/97/97
f 96/96/96 99/99/99 98/98/98
f 100/100/100 102/102/102 101/101/101
f 100/100/100 103/103/103 102/102/102
f 104/104/104 106/106/106 105/105/105
f 104/104/104 107/107/107 106/106/106
f 108/108/108 110/110/110 109/109/109
f 108/108/108 111/111/111 110/110/110
f 112/112/112 114/114/114 113/113/113
f 112/112/112 115/115/115 114/114/114
f 116/116/116 118/118/118 117/117/117
f 116/116/116 119/119/119 118/118/118
f 120/120/120 122/122/122 121/121/121
f 120/120/120 123/123/123 122/122/122
f 124/124/124 126/126/126 125/125/125
f 124/124/124 127/127/127 126/126/126
f 128/128/128 130/130/130 129/129/129
f 128/128/128 131/131/131 130/130/130
f 132/132/132 134/134/134 133/133/133
f 132/132/132 135/135/135 134/134/134
f 136/136/136 138/138/138 137/137/137
f 136/136/136 139/139/139 138/138/138
f 140/140/140 142/142/142 141/141/141
f 140/140/140 143/143/143 142/142/142
f 144/144/144 146/146/146 145/145/145
f 144/144/144 147/147/147 146/146/146
f 148/148/148 150/150/150 149/149/149
f 148/148/148 151/151/151 150/150/150
f 152/152/152 154/154/154 153/153/153
f 152/152/152 155/155/155 154/154/154
f 156/156/156 158/158/158 157/157/157
f 156/156/156 159/159/159 158/158/158
f 160/160/160 162/162/162 161/161/161
f 160/160/160 163/163/163 162/162/162
f 164/164/164 166/166/166 165/165/165
f 164/164/164 167/167/167 166/166/166
f 168/168/168 170/170/170 169/169/169
f 168/168/168 171/171/171 170/170/170
f 172/172/172 174/174/174 173/173/173
f 175/175/175 177/177/177 176/176/176
f 178/178/178 180/180/180 179/179/179
f 181/181/181 183/183/183 182/182/182
f 184/184/184 186/186/186 185/185/185
f 187/187/187 189/189/189 188/188/188
f 190/190/190 192/192/192 191/191/191
f 193/193/193 195/195/195 194/194/194
f 196/196/196 198/198/198 197/197/197
f 199/199/199 201/201/201 200/200/200
