#Foliage7_15_4233_181.obj

v 0.01454589 -0.02577582 -0.04036032
v 0.004624622 -0.03397625 0.00108918
v 0.03878502 -0.02577584 -0.02105702
v -0.009662668 -0.02577581 -0.0381774
v -0.01825005 -0.02577575 -0.01778226
v -0.03822146 -0.0222324 0.00108902
v -0.02135042 -0.02577582 0.01996102
v -0.005296925 -0.0257758 0.03271566
v 0.02109485 -0.02577579 0.04035607
v 0.03059929 -0.02577579 0.01996107
v 0.03219026 -0.02223236 0.001089192
v 0.03878502 -0.02577584 -0.02105702
v 0.04796764 -0.01489252 -0.02772831
v 0.01805336 -0.01489253 -0.05115466
v 0.01454589 -0.02577582 -0.04036032
v 0.01454589 -0.02577582 -0.04036032
v 0.01805336 -0.01489253 -0.05115466
v -0.01317002 -0.01489253 -0.04897213
v -0.009662668 -0.02577581 -0.0381774
v -0.009662668 -0.02577581 -0.0381774
v -0.01317002 -0.01489253 -0.04897213
v -0.02743256 -0.01489251 -0.02445362
v -0.01825005 -0.02577575 -0.01778226
v -0.01825005 -0.02577575 -0.01778226
v -0.02743256 -0.01489251 -0.02445362
v -0.04796611 -0.01288836 0.001089236
v -0.03822146 -0.0222324 0.00108902
v -0.03822146 -0.0222324 0.00108902
v -0.04796611 -0.01288836 0.001089236
v -0.03053252 -0.01489253 0.02663249
v -0.02135042 -0.02577582 0.01996102
v -0.02135042 -0.02577582 0.01996102
v -0.03053252 -0.01489253 0.02663249
v -0.008804176 -0.01489253 0.04351053
v -0.005296925 -0.0257758 0.03271566
v -0.005296925 -0.0257758 0.03271566
v -0.008804176 -0.01489253 0.04351053
v 0.02460204 -0.01489257 0.05115038
v 0.02109485 -0.02577579 0.04035607
v 0.02109485 -0.02577579 0.04035607
v 0.02460204 -0.01489257 0.05115038
v 0.03978169 -0.01489252 0.02663266
v 0.03059929 -0.02577579 0.01996107
v 0.03059929 -0.02577579 0.01996107
v 0.03978169 -0.01489252 0.02663266
v 0.0419348 -0.01288838 0.001089212
v 0.03219026 -0.02223236 0.001089192
v 0.03219026 -0.02223236 0.001089192
v 0.0419348 -0.01288838 0.001089212
v 0.04796764 -0.01489252 -0.02772831
v 0.03878502 -0.02577584 -0.02105702
v 0.04796764 -0.01489252 -0.02772831
v 0.04796777 -0.0001484423 -0.0277282
v 0.01805315 -0.0001484649 -0.05115485
v 0.01805336 -0.01489253 -0.05115466
v 0.01805336 -0.01489253 -0.05115466
v 0.01805315 -0.0001484649 -0.05115485
v -0.01316989 -0.000148449 -0.04897201
v -0.01317002 -0.01489253 -0.04897213
v -0.01317002 -0.01489253 -0.04897213
v -0.01316989 -0.000148449 -0.04897201
v -0.02743248 -0.0001485011 -0.02445414
v -0.02743256 -0.01489251 -0.02445362
v -0.02743256 -0.01489251 -0.02445362
v -0.02743248 -0.0001485011 -0.02445414
v -0.04796603 -0.0002295351 0.001089309
v -0.04796611 -0.01288836 0.001089236
v -0.04796611 -0.01288836 0.001089236
v -0.04796603 -0.0002295351 0.001089309
v -0.03053239 -0.000148453 0.0266326
v -0.03053252 -0.01489253 0.02663249
v -0.03053252 -0.01489253 0.02663249
v -0.03053239 -0.000148453 0.0266326
v -0.008804391 -0.0001484657 0.04351034
v -0.008804176 -0.01489253 0.04351053
v -0.008804176 -0.01489253 0.04351053
v -0.008804391 -0.0001484657 0.04351034
v 0.02460217 -0.0001484495 0.05115049
v 0.02460204 -0.01489257 0.05115038
v 0.02460204 -0.01489257 0.05115038
v 0.02460217 -0.0001484495 0.05115049
v 0.03978148 -0.0001485051 0.02663247
v 0.03978169 -0.01489252 0.02663266
v 0.03978169 -0.01489252 0.02663266
v 0.03978148 -0.0001485051 0.02663247
v 0.04193488 -0.0002295576 0.001089284
v 0.0419348 -0.01288838 0.001089212
v 0.0419348 -0.01288838 0.001089212
v 0.04193488 -0.0002295576 0.001089284
v 0.04796777 -0.0001484423 -0.0277282
v 0.04796764 -0.01489252 -0.02772831
v 0.04796777 -0.0001484423 -0.0277282
v 0.04568956 0.01428321 -0.02539875
v 0.01714599 0.01428327 -0.04799333
v 0.01805315 -0.0001484649 -0.05115485
v 0.01805315 -0.0001484649 -0.05115485
v 0.01714599 0.01428327 -0.04799333
v -0.01182869 0.01428321 -0.04559972
v -0.01316989 -0.000148449 -0.04897201
v -0.01316989 -0.000148449 -0.04897201
v -0.01182869 0.01428321 -0.04559972
v -0.02320962 0.01428323 -0.0218086
v -0.02743248 -0.0001485011 -0.02445414
v -0.02743248 -0.0001485011 -0.02445414
v -0.02320962 0.01428323 -0.0218086
v -0.04530343 0.01197191 0.001194416
v -0.04796603 -0.0002295351 0.001089309
v -0.04796603 -0.0002295351 0.001089309
v -0.04530343 0.01197191 0.001194416
v -0.02660876 0.01428322 0.024198
v -0.03053239 -0.000148453 0.0266326
v -0.03053239 -0.000148453 0.0266326
v -0.02660876 0.01428322 0.024198
v -0.007040999 0.01428325 0.03961148
v -0.008804391 -0.0001484657 0.04351034
v -0.008804391 -0.0001484657 0.04351034
v -0.007040999 0.01428325 0.03961148
v 0.02432657 0.01428319 0.04798905
v 0.02460217 -0.0001484495 0.05115049
v 0.02460217 -0.0001484495 0.05115049
v 0.02432657 0.01428319 0.04798905
v 0.03671364 0.01428322 0.02419796
v 0.03978148 -0.0001485051 0.02663247
v 0.03978148 -0.0001485051 0.02663247
v 0.03671364 0.01428322 0.02419796
v 0.03865266 0.01197197 0.001194864
v 0.04193488 -0.0002295576 0.001089284
v 0.04193488 -0.0002295576 0.001089284
v 0.03865266 0.01197197 0.001194864
v 0.04568956 0.01428321 -0.02539875
v 0.04796777 -0.0001484423 -0.0277282
v 0.04568956 0.01428321 -0.02539875
v 0.03225313 0.02437423 -0.01614994
v 0.01203703 0.02437426 -0.03257077
v 0.01714599 0.01428327 -0.04799333
v 0.01714599 0.01428327 -0.04799333
v 0.01203703 0.02437426 -0.03257077
v -0.002591388 0.02437427 -0.02139601
v -0.01182869 0.01428321 -0.04559972
v -0.01182869 0.01428321 -0.04559972
v -0.002591388 0.02437427 -0.02139601
v -0.01125239 0.02437429 -0.01279715
v -0.02320962 0.01428323 -0.0218086
v -0.02320962 0.01428323 -0.0218086
v -0.01125239 0.02437429 -0.01279715
v -0.0312442 0.02074633 0.00111536
v -0.04530343 0.01197191 0.001194416
v -0.04530343 0.01197191 0.001194416
v -0.0312442 0.02074633 0.00111536
v -0.01442651 0.02437425 0.01502824
v -0.02660876 0.01428322 0.024198
v -0.02660876 0.01428322 0.024198
v -0.01442651 0.02437425 0.01502824
v -0.002591617 0.02437422 0.02474389
v -0.007040999 0.01428325 0.03961148
v -0.007040999 0.01428325 0.03961148
v -0.002591617 0.02437422 0.02474389
v 0.01874204 0.02437426 0.03256641
v 0.02432657 0.01428319 0.04798905
v 0.02432657 0.01428319 0.04798905
v 0.01874204 0.02437426 0.03256641
v 0.02387195 0.02437424 0.01502828
v 0.03671364 0.01428322 0.02419796
v 0.03671364 0.01428322 0.02419796
v 0.02387195 0.02437424 0.01502828
v 0.02504492 0.02074633 0.001115125
v 0.03865266 0.01197197 0.001194864
v 0.03865266 0.01197197 0.001194864
v 0.02504492 0.02074633 0.001115125
v 0.03225313 0.02437423 -0.01614994
v 0.04568956 0.01428321 -0.02539875
v 0.03225313 0.02437423 -0.01614994
v 0.004624396 0.0339759 0.001089096
v 0.01203703 0.02437426 -0.03257077
v 0.01203703 0.02437426 -0.03257077
v 0.004624396 0.0339759 0.001089096
v -0.002591388 0.02437427 -0.02139601
v -0.002591388 0.02437427 -0.02139601
v 0.004624396 0.0339759 0.001089096
v -0.01125239 0.02437429 -0.01279715
v -0.01125239 0.02437429 -0.01279715
v 0.004624396 0.0339759 0.001089096
v -0.0312442 0.02074633 0.00111536
v -0.0312442 0.02074633 0.00111536
v 0.004624396 0.0339759 0.001089096
v -0.01442651 0.02437425 0.01502824
v -0.01442651 0.02437425 0.01502824
v 0.004624396 0.0339759 0.001089096
v -0.002591617 0.02437422 0.02474389
v -0.002591617 0.02437422 0.02474389
v 0.004624396 0.0339759 0.001089096
v 0.01874204 0.02437426 0.03256641
v 0.01874204 0.02437426 0.03256641
v 0.004624396 0.0339759 0.001089096
v 0.02387195 0.02437424 0.01502828
v 0.02387195 0.02437424 0.01502828
v 0.004624396 0.0339759 0.001089096
v 0.02504492 0.02074633 0.001115125
v 0.02504492 0.02074633 0.001115125
v 0.004624396 0.0339759 0.001089096
v 0.03225313 0.02437423 -0.01614994

vn 0.2154211 -0.9474839 -0.2363644
vn 0.01218783 -0.98791 -0.1545485
vn 0.2145799 -0.976521 -0.01903046
vn 0.09900694 -0.9292095 -0.3560442
vn -0.09799645 -0.8895281 -0.4462469
vn -0.1755591 -0.904395 -0.3889069
vn -0.2594225 -0.9297588 -0.2612439
vn -0.2619201 -0.9626229 -0.06895621
vn -0.1047271 -0.9937658 0.03823497
vn 0.207534 -0.9706928 0.1211823
vn 0.2221361 -0.9353716 0.2752007
vn 0.7711122 -0.6217325 -0.1372396
vn 0.7711121 -0.6217325 -0.1372396
vn 0.7711121 -0.6217325 -0.1372395
vn 0.7711121 -0.6217325 -0.1372396
vn 0.5349 -0.5588201 -0.6337208
vn 0.5348999 -0.5588202 -0.6337208
vn 0.5349 -0.5588201 -0.6337208
vn 0.5349 -0.5588202 -0.6337208
vn -0.1867553 -0.4962873 -0.8478334
vn -0.1867553 -0.4962872 -0.8478334
vn -0.1867553 -0.4962873 -0.8478334
vn -0.1867553 -0.4962872 -0.8478334
vn -0.04428311 -0.518782 -0.8537589
vn -0.04428321 -0.518782 -0.8537589
vn -0.04428318 -0.518782 -0.8537589
vn -0.04428321 -0.518782 -0.8537589
vn -0.731854 -0.6028027 -0.3178341
vn -0.731854 -0.6028027 -0.3178341
vn -0.7318541 -0.6028026 -0.3178342
vn -0.7318541 -0.6028026 -0.3178342
vn -0.7611564 -0.6457423 -0.06048045
vn -0.7611564 -0.6457423 -0.06048051
vn -0.7611563 -0.6457424 -0.06048052
vn -0.7611563 -0.6457424 -0.06048048
vn -0.6944929 -0.6740802 0.251586
vn -0.6944929 -0.6740802 0.2515859
vn -0.6944929 -0.6740801 0.251586
vn -0.6944929 -0.6740802 0.251586
vn 0.1816414 -0.6968687 0.6938159
vn 0.1816413 -0.6968688 0.6938159
vn 0.1816413 -0.6968688 0.6938159
vn 0.1816414 -0.6968686 0.6938158
vn 0.5528192 -0.6781276 0.4842871
vn 0.5528191 -0.6781276 0.484287
vn 0.5528192 -0.6781276 0.4842871
vn 0.5528192 -0.6781276 0.4842871
vn 0.3326013 -0.6393494 0.6932595
vn 0.3326014 -0.6393492 0.6932597
vn 0.3326013 -0.6393494 0.6932595
vn 0.3326014 -0.6393493 0.6932595
vn 0.9985248 0.01362972 -0.05255791
vn 0.9985248 0.01362971 -0.05255784
vn 0.9985248 0.01362971 -0.05255784
vn 0.9985248 0.01362972 -0.05255791
vn 0.7059644 0.08397184 -0.7032517
vn 0.7059644 0.08397184 -0.7032517
vn 0.7059644 0.08397184 -0.7032517
vn 0.7059644 0.08397184 -0.7032517
vn -0.1910397 0.1074008 -0.9756889
vn -0.1910397 0.1074008 -0.9756889
vn -0.1910397 0.1074008 -0.9756889
vn -0.1910397 0.1074008 -0.9756889
vn -0.04161418 0.1104951 -0.9930051
vn -0.04161421 0.1104951 -0.9930051
vn -0.04161418 0.1104951 -0.9930051
vn -0.04161418 0.1104951 -0.9930051
vn -0.9681397 0.02032545 -0.2495846
vn -0.9681397 0.02032545 -0.2495846
vn -0.9681397 0.02032544 -0.2495845
vn -0.9681397 0.02032545 -0.2495846
vn -0.9983052 -0.01406469 0.0564708
vn -0.9983052 -0.01406469 0.0564708
vn -0.9983052 -0.01406469 0.0564708
vn -0.9983052 -0.01406469 0.0564708
vn -0.8811469 -0.05920522 0.4691213
vn -0.8811469 -0.05920522 0.4691213
vn -0.8811469 -0.05920522 0.4691213
vn -0.8811469 -0.05920522 0.4691213
vn 0.1639206 -0.1081516 0.980527
vn 0.1639206 -0.1081516 0.980527
vn 0.1639206 -0.1081516 0.980527
vn 0.1639206 -0.1081516 0.980527
vn 0.5936528 -0.08469152 0.8002522
vn 0.5936528 -0.08469152 0.8002522
vn 0.5936528 -0.08469152 0.8002522
vn 0.5936528 -0.08469152 0.8002522
vn 0.4910119 -0.09284833 0.8661907
vn 0.4910119 -0.09284834 0.8661907
vn 0.4910119 -0.09284833 0.8661907
vn 0.4910119 -0.09284833 0.8661907
vn 0.9812157 0.1917627 -0.02104397
vn 0.9812157 0.1917627 -0.021044
vn 0.9812157 0.1917627 -0.021044
vn 0.9812157 0.1917627 -0.021044
vn 0.6914971 0.2705562 -0.6697992
vn 0.6914971 0.2705562 -0.6697992
vn 0.6914971 0.2705562 -0.6697992
vn 0.6914971 0.2705562 -0.6697992
vn -0.2280016 0.3249565 -0.9178336
vn -0.2280015 0.3249565 -0.9178336
vn -0.2280015 0.3249565 -0.9178336
vn -0.2280016 0.3249565 -0.9178336
vn -0.01009986 0.3260549 -0.9452969
vn -0.01009983 0.3260549 -0.9452969
vn -0.01009986 0.3260548 -0.9452969
vn -0.01009992 0.3260549 -0.9452969
vn -0.9577914 0.2217837 -0.182887
vn -0.9577914 0.2217838 -0.182887
vn -0.9577914 0.2217838 -0.1828871
vn -0.9577914 0.2217837 -0.182887
vn -0.9704221 0.2243396 0.08917695
vn -0.9704221 0.2243396 0.08917686
vn -0.9704222 0.2243396 0.08917691
vn -0.9704222 0.2243396 0.08917691
vn -0.8682873 0.1468233 0.4738356
vn -0.8682873 0.1468233 0.4738356
vn -0.8682873 0.1468233 0.4738356
vn -0.8682873 0.1468233 0.4738356
vn 0.1933658 0.05595956 0.9795296
vn 0.1933658 0.05595956 0.9795296
vn 0.1933657 0.05595958 0.9795296
vn 0.1933658 0.05595957 0.9795296
vn 0.5846665 0.1166196 0.802848
vn 0.5846665 0.1166196 0.802848
vn 0.5846665 0.1166196 0.802848
vn 0.5846665 0.1166195 0.802848
vn 0.4524792 0.05544712 0.8900495
vn 0.4524792 0.05544715 0.8900495
vn 0.4524792 0.05544714 0.8900495
vn 0.4524792 0.05544716 0.8900495
vn 0.6051166 0.7901229 0.09767099
vn 0.6051166 0.7901229 0.09767096
vn 0.6051166 0.7901229 0.09767099
vn 0.6051166 0.7901229 0.09767096
vn 0.2689445 0.9106252 -0.3137366
vn 0.2689445 0.9106252 -0.3137366
vn 0.2689445 0.9106252 -0.3137366
vn 0.2689446 0.9106252 -0.3137366
vn -0.1027451 0.8986725 -0.4264167
vn -0.1027451 0.8986725 -0.4264167
vn -0.1027451 0.8986725 -0.4264167
vn -0.1027451 0.8986725 -0.4264167
vn -0.01666954 0.8363895 -0.5478821
vn -0.01666954 0.8363895 -0.5478821
vn -0.01666954 0.8363895 -0.5478821
vn -0.01666954 0.8363895 -0.5478821
vn -0.6302636 0.7753944 -0.03913117
vn -0.6302636 0.7753944 -0.0391311
vn -0.6302636 0.7753944 -0.03913115
vn -0.6302636 0.7753944 -0.03913117
vn -0.6404616 0.7537957 0.1469721
vn -0.6404617 0.7537957 0.1469721
vn -0.6404617 0.7537957 0.1469721
vn -0.6404617 0.7537957 0.1469721
vn -0.5878116 0.7170269 0.3746332
vn -0.5878116 0.7170269 0.3746332
vn -0.5878116 0.7170269 0.3746332
vn -0.5878116 0.7170269 0.3746332
vn 0.1971061 0.6522659 0.7319142
vn 0.1971061 0.6522659 0.7319142
vn 0.1971061 0.6522659 0.7319142
vn 0.1971061 0.6522659 0.7319142
vn 0.4855416 0.6825471 0.5462405
vn 0.4855416 0.6825472 0.5462404
vn 0.4855416 0.6825472 0.5462405
vn 0.4855416 0.6825471 0.5462405
vn 0.1833341 0.5748634 0.7974463
vn 0.1833341 0.5748634 0.7974463
vn 0.1833341 0.5748634 0.7974463
vn 0.1833341 0.5748634 0.7974463
vn 0.3367106 0.9319608 0.1344436
vn 0.3367106 0.9319608 0.1344436
vn 0.3367106 0.9319608 0.1344436
vn 0.08228829 0.9473758 -0.3093666
vn 0.0822883 0.9473758 -0.3093666
vn 0.0822883 0.9473758 -0.3093666
vn 0.02437962 0.9401239 -0.3399599
vn 0.02437966 0.9401239 -0.33996
vn 0.0243796 0.9401239 -0.33996
vn -0.05236791 0.9390156 -0.3398636
vn -0.05236793 0.9390156 -0.3398637
vn -0.05236793 0.9390156 -0.3398637
vn -0.4188503 0.9077129 -0.02493461
vn -0.4188503 0.9077129 -0.02493455
vn -0.4188503 0.9077129 -0.02493461
vn -0.4543521 0.8776475 0.1526401
vn -0.4543521 0.8776475 0.1526401
vn -0.4543521 0.8776475 0.1526401
vn -0.3976941 0.8711125 0.2881013
vn -0.3976941 0.8711125 0.2881013
vn -0.3976941 0.8711125 0.2881013
vn 0.1781303 0.8235739 0.5385123
vn 0.1781304 0.8235739 0.5385124
vn 0.1781304 0.8235739 0.5385124
vn 0.5232841 0.7298419 0.4398914
vn 0.5232841 0.729842 0.4398914
vn 0.5232841 0.7298421 0.4398914
vn 0.04648093 0.625204 0.779076
vn 0.04648086 0.625204 0.779076
vn 0.0464809 0.625204 0.779076

vt 0.5483398 0.007648468
vt 0.5 0.1500244
vt 0.6264648 0.06439209
vt 0.4516602 0.007648468
vt 0.3735352 0.06439209
vt 0.34375 0.15625
vt 0.3735352 0.2480469
vt 0.4516602 0.3049316
vt 0.5483398 0.3049316
vt 0.6264648 0.2480469
vt 0.65625 0.15625
vt 0 0
vt 0 1
vt 1 1
vt 1 0
vt 0 0
vt 0 1
vt 1 1
vt 1 0
vt 0 0
vt 0 1
vt 1 1
vt 1 0
vt 0 0
vt 0 1
vt 1 1
vt 1 0
vt 0 0
vt 0 1
vt 1 1
vt 1 0
vt 0 0
vt 0 1
vt 1 1
vt 1 0
vt 0 0
vt 0 1
vt 1 1
vt 1 0
vt 0 0
vt 0 1
vt 1 1
vt 1 0
vt 0 0
vt 0 1
vt 1 1
vt 1 0
vt 0 0
vt 0 1
vt 1 1
vt 1 0
vt 0 0
vt 0 1
vt 1 1
vt 1 0
vt 0 0
vt 0 1
vt 1 1
vt 1 0
vt 0 0
vt 0 1
vt 1 1
vt 1 0
vt 0 0
vt 0 1
vt 1 1
vt 1 0
vt 0 0
vt 0 1
vt 1 1
vt 1 0
vt 0 0
vt 0 1
vt 1 1
vt 1 0
vt 0 0
vt 0 1
vt 1 1
vt 1 0
vt 0 0
vt 0 1
vt 1 1
vt 1 0
vt 0 0
vt 0 1
vt 1 1
vt 1 0
vt 0 0
vt 0 1
vt 1 1
vt 1 0
vt 0 0
vt 0 1
vt 1 1
vt 1 0
vt 0 0
vt 0 1
vt 1 1
vt 1 0
vt 0 0
vt 0 1
vt 1 1
vt 1 0
vt 0 0
vt 0 1
vt 1 1
vt 1 0
vt 0 0
vt 0 1
vt 1 1
vt 1 0
vt 0 0
vt 0 1
vt 1 1
vt 1 0
vt 0 0
vt 0 1
vt 1 1
vt 1 0
vt 0 0
vt 0 1
vt 1 1
vt 1 0
vt 0 0
vt 0 1
vt 1 1
vt 1 0
vt 0 0
vt 0 1
vt 1 1
vt 1 0
vt 0 0
vt 0 1
vt 1 1
vt 1 0
vt 0 0
vt 0 1
vt 1 1
vt 1 0
vt 0 0
vt 0 1
vt 1 1
vt 1 0
vt 0 0
vt 0 1
vt 1 1
vt 1 0
vt 0 0
vt 0 1
vt 1 1
vt 1 0
vt 0 0
vt 0 1
vt 1 1
vt 1 0
vt 0 0
vt 0 1
vt 1 1
vt 1 0
vt 0 0
vt 0 1
vt 1 1
vt 1 0
vt 0 0
vt 0 1
vt 1 1
vt 1 0
vt 0 0
vt 0 1
vt 1 1
vt 1 0
vt 0 0
vt 0.5 1
vt 1 0
vt 0 0
vt 0.5 1
vt 1 0
vt 0 0
vt 0.5 1
vt 1 0
vt 0 0
vt 0.5 1
vt 1 0
vt 0 0
vt 0.5 1
vt 1 0
vt 0 0
vt 0.5 1
vt 1 0
vt 0 0
vt 0.5 1
vt 1 0
vt 0 0
vt 0.5 1
vt 1 0
vt 0 0
vt 0.5 1
vt 1 0
vt 0 0
vt 0.5 1
vt 1 0

g Foliage7_15_4233_181
usemtl Foliage7_15_4233_181
usemap Foliage7_15_4233_181
f 1/1/1 3/3/3 2/2/2
f 4/4/4 1/1/1 2/2/2
f 5/5/5 4/4/4 2/2/2
f 6/6/6 5/5/5 2/2/2
f 7/7/7 6/6/6 2/2/2
f 8/8/8 7/7/7 2/2/2
f 9/9/9 8/8/8 2/2/2
f 10/10/10 9/9/9 2/2/2
f 11/11/11 10/10/10 2/2/2
f 3/3/3 11/11/11 2/2/2
f 12/12/12 14/14/14 13/13/13
f 12/12/12 15/15/15 14/14/14
f 16/16/16 18/18/18 17/17/17
f 16/16/16 19/19/19 18/18/18
f 20/20/20 22/22/22 21/21/21
f 20/20/20 23/23/23 22/22/22
f 24/24/24 26/26/26 25/25/25
f 24/24/24 27/27/27 26/26/26
f 28/28/28 30/30/30 29/29/29
f 28/28/28 31/31/31 30/30/30
f 32/32/32 34/34/34 33/33/33
f 32/32/32 35/35/35 34/34/34
f 36/36/36 38/38/38 37/37/37
f 36/36/36 39/39/39 38/38/38
f 40/40/40 42/42/42 41/41/41
f 40/40/40 43/43/43 42/42/42
f 44/44/44 46/46/46 45/45/45
f 44/44/44 47/47/47 46/46/46
f 48/48/48 50/50/50 49/49/49
f 48/48/48 51/51/51 50/50/50
f 52/52/52 54/54/54 53/53/53
f 52/52/52 55/55/55 54/54/54
f 56/56/56 58/58/58 57/57/57
f 56/56/56 59/59/59 58/58/58
f 60/60/60 62/62/62 61/61/61
f 60/60/60 63/63/63 62/62/62
f 64/64/64 66/66/66 65/65/65
f 64/64/64 67/67/67 66/66/66
f 68/68/68 70/70/70 69/69/69
f 68/68/68 71/71/71 70/70/70
f 72/72/72 74/74/74 73/73/73
f 72/72/72 75/75/75 74/74/74
f 76/76/76 78/78/78 77/77/77
f 76/76/76 79/79/79 78/78/78
f 80/80/80 82/82/82 81/81/81
f 80/80/80 83/83/83 82/82/82
f 84/84/84 86/86/86 85/85/85
f 84/84/84 87/87/87 86/86/86
f 88/88/88 90/90/90 89/89/89
f 88/88/88 91/91/91 90/90/90
f 92/92/92 94/94/94 93/93/93
f 92/92/92 95/95/95 94/94/94
f 96/96/96 98/98/98 97/97/97
f 96/96/96 99/99/99 98/98/98
f 100/100/100 102/102/102 101/101/101
f 100/100/100 103/103/103 102/102/102
f 104/104/104 106/106/106 105/105/105
f 104/104/104 107/107/107 106/106/106
f 108/108/108 110/110/110 109/109/109
f 108/108/108 111/111/111 110/110/110
f 112/112/112 114/114/114 113/113/113
f 112/112/112 115/115/115 114/114/114
f 116/116/116 118/118/118 117/117/117
f 116/116/116 119/119/119 118/118/118
f 120/120/120 122/122/122 121/121/121
f 120/120/120 123/123/123 122/122/122
f 124/124/124 126/126/126 125/125/125
f 124/124/124 127/127/127 126/126/126
f 128/128/128 130/130/130 129/129/129
f 128/128/128 131/131/131 130/130/130
f 132/132/132 134/134/134 133/133/133
f 132/132/132 135/135/135 134/134/134
f 136/136/136 138/138/138 137/137/137
f 136/136/136 139/139/139 138/138/138
f 140/140/140 142/142/142 141/141/141
f 140/140/140 143/143/143 142/142/142
f 144/144/144 146/146/146 145/145/145
f 144/144/144 147/147/147 146/146/146
f 148/148/148 150/150/150 149/149/149
f 148/148/148 151/151/151 150/150/150
f 152/152/152 154/154/154 153/153/153
f 152/152/152 155/155/155 154/154/154
f 156/156/156 158/158/158 157/157/157
f 156/156/156 159/159/159 158/158/158
f 160/160/160 162/162/162 161/161/161
f 160/160/160 163/163/163 162/162/162
f 164/164/164 166/166/166 165/165/165
f 164/164/164 167/167/167 166/166/166
f 168/168/168 170/170/170 169/169/169
f 168/168/168 171/171/171 170/170/170
f 172/172/172 174/174/174 173/173/173
f 175/175/175 177/177/177 176/176/176
f 178/178/178 180/180/180 179/179/179
f 181/181/181 183/183/183 182/182/182
f 184/184/184 186/186/186 185/185/185
f 187/187/187 189/189/189 188/188/188
f 190/190/190 192/192/192 191/191/191
f 193/193/193 195/195/195 194/194/194
f 196/196/196 198/198/198 197/197/197
f 199/199/199 201/201/201 200/200/200
