#Foliage1_31_4057_312.obj

v 0.01454724 -0.02577561 -0.04035655
v 0.004625967 -0.03397607 0.001093365
v 0.03878677 -0.02577561 -0.02105288
v -0.009660954 -0.02577562 -0.03817337
v -0.01824851 -0.02577559 -0.0177786
v -0.03821965 -0.02223214 0.001093353
v -0.02134896 -0.0257756 0.01996516
v -0.005295448 -0.0257756 0.03271991
v 0.02109648 -0.02577562 0.04036013
v 0.03060086 -0.02577563 0.01996506
v 0.03219201 -0.02223213 0.001093364
v 0.03878677 -0.02577561 -0.02105288
v 0.04796892 -0.01489238 -0.02772425
v 0.01805468 -0.01489232 -0.05115095
v 0.01454724 -0.02577561 -0.04035655
v 0.01454724 -0.02577561 -0.04035655
v 0.01805468 -0.01489232 -0.05115095
v -0.01316848 -0.01489234 -0.04896798
v -0.009660954 -0.02577562 -0.03817337
v -0.009660954 -0.02577562 -0.03817337
v -0.01316848 -0.01489234 -0.04896798
v -0.02743099 -0.01489236 -0.02444986
v -0.01824851 -0.02577559 -0.0177786
v -0.01824851 -0.02577559 -0.0177786
v -0.02743099 -0.01489236 -0.02444986
v -0.04796413 -0.01288816 0.001093357
v -0.03821965 -0.02223214 0.001093353
v -0.03821965 -0.02223214 0.001093353
v -0.04796413 -0.01288816 0.001093357
v -0.03053113 -0.01489237 0.02663652
v -0.02134896 -0.0257756 0.01996516
v -0.02134896 -0.0257756 0.01996516
v -0.03053113 -0.01489237 0.02663652
v -0.008802917 -0.01489238 0.04351429
v -0.005295448 -0.0257756 0.03271991
v -0.005295448 -0.0257756 0.03271991
v -0.008802917 -0.01489238 0.04351429
v 0.02460398 -0.01489233 0.05115473
v 0.02109648 -0.02577562 0.04036013
v 0.02109648 -0.02577562 0.04036013
v 0.02460398 -0.01489233 0.05115473
v 0.03978328 -0.01489235 0.02663652
v 0.03060086 -0.02577563 0.01996506
v 0.03060086 -0.02577563 0.01996506
v 0.03978328 -0.01489235 0.02663652
v 0.04193662 -0.01288817 0.001093257
v 0.03219201 -0.02223213 0.001093364
v 0.03219201 -0.02223213 0.001093364
v 0.04193662 -0.01288817 0.001093257
v 0.04796892 -0.01489238 -0.02772425
v 0.03878677 -0.02577561 -0.02105288
v 0.04796892 -0.01489238 -0.02772425
v 0.04796906 -0.00014829 -0.02772431
v 0.01805483 -0.0001482922 -0.051151
v 0.01805468 -0.01489232 -0.05115095
v 0.01805468 -0.01489232 -0.05115095
v 0.01805483 -0.0001482922 -0.051151
v -0.01316834 -0.0001482528 -0.04896804
v -0.01316848 -0.01489234 -0.04896798
v -0.01316848 -0.01489234 -0.04896798
v -0.01316834 -0.0001482528 -0.04896804
v -0.02743085 -0.0001482752 -0.02444991
v -0.02743099 -0.01489236 -0.02444986
v -0.02743099 -0.01489236 -0.02444986
v -0.02743085 -0.0001482752 -0.02444991
v -0.04796476 -0.0002293963 0.001093214
v -0.04796413 -0.01288816 0.001093357
v -0.04796413 -0.01288816 0.001093357
v -0.04796476 -0.0002293963 0.001093214
v -0.03053099 -0.0001482804 0.02663646
v -0.03053113 -0.01489237 0.02663652
v -0.03053113 -0.01489237 0.02663652
v -0.03053099 -0.0001482804 0.02663646
v -0.008802818 -0.0001482974 0.04351446
v -0.008802917 -0.01489238 0.04351429
v -0.008802917 -0.01489238 0.04351429
v -0.008802818 -0.0001482974 0.04351446
v 0.02460412 -0.0001482399 0.05115467
v 0.02460398 -0.01489233 0.05115473
v 0.02460398 -0.01489233 0.05115473
v 0.02460412 -0.0001482399 0.05115467
v 0.03978342 -0.0001482583 0.02663647
v 0.03978328 -0.01489235 0.02663652
v 0.03978328 -0.01489235 0.02663652
v 0.03978342 -0.0001482583 0.02663647
v 0.0419369 -0.0002293704 0.001093283
v 0.04193662 -0.01288817 0.001093257
v 0.04193662 -0.01288817 0.001093257
v 0.0419369 -0.0002293704 0.001093283
v 0.04796906 -0.00014829 -0.02772431
v 0.04796892 -0.01489238 -0.02772425
v 0.04796906 -0.00014829 -0.02772431
v 0.04569094 0.01428339 -0.02539495
v 0.01714757 0.01428339 -0.04798933
v 0.01805483 -0.0001482922 -0.051151
v 0.01805483 -0.0001482922 -0.051151
v 0.01714757 0.01428339 -0.04798933
v -0.01182711 0.01428338 -0.04559579
v -0.01316834 -0.0001482528 -0.04896804
v -0.01316834 -0.0001482528 -0.04896804
v -0.01182711 0.01428338 -0.04559579
v -0.02320784 0.01428341 -0.02180454
v -0.02743085 -0.0001482752 -0.02444991
v -0.02743085 -0.0001482752 -0.02444991
v -0.02320784 0.01428341 -0.02180454
v -0.04530202 0.01197211 0.001198587
v -0.04796476 -0.0002293963 0.001093214
v -0.04796476 -0.0002293963 0.001093214
v -0.04530202 0.01197211 0.001198587
v -0.02660707 0.01428342 0.02420182
v -0.03053099 -0.0001482804 0.02663646
v -0.03053099 -0.0001482804 0.02663646
v -0.02660707 0.01428342 0.02420182
v -0.007039494 0.01428341 0.03961551
v -0.008802818 -0.0001482974 0.04351446
v -0.008802818 -0.0001482974 0.04351446
v -0.007039494 0.01428341 0.03961551
v 0.0243287 0.01428342 0.04799324
v 0.02460412 -0.0001482399 0.05115467
v 0.02460412 -0.0001482399 0.05115467
v 0.0243287 0.01428342 0.04799324
v 0.03671499 0.01428342 0.02420177
v 0.03978342 -0.0001482583 0.02663647
v 0.03978342 -0.0001482583 0.02663647
v 0.03671499 0.01428342 0.02420177
v 0.03865433 0.0119721 0.001198721
v 0.0419369 -0.0002293704 0.001093283
v 0.0419369 -0.0002293704 0.001093283
v 0.03865433 0.0119721 0.001198721
v 0.04569094 0.01428339 -0.02539495
v 0.04796906 -0.00014829 -0.02772431
v 0.04569094 0.01428339 -0.02539495
v 0.03225488 0.02437442 -0.01614584
v 0.01203913 0.02437443 -0.0325666
v 0.01714757 0.01428339 -0.04798933
v 0.01714757 0.01428339 -0.04798933
v 0.01203913 0.02437443 -0.0325666
v -0.002589879 0.02437446 -0.02139184
v -0.01182711 0.01428338 -0.04559579
v -0.01182711 0.01428338 -0.04559579
v -0.002589879 0.02437446 -0.02139184
v -0.01125117 0.0243744 -0.01279331
v -0.02320784 0.01428341 -0.02180454
v -0.02320784 0.01428341 -0.02180454
v -0.01125117 0.0243744 -0.01279331
v -0.0312427 0.02074649 0.001119284
v -0.04530202 0.01197211 0.001198587
v -0.04530202 0.01197211 0.001198587
v -0.0312427 0.02074649 0.001119284
v -0.01442453 0.02437446 0.01503216
v -0.02660707 0.01428342 0.02420182
v -0.02660707 0.01428342 0.02420182
v -0.01442453 0.02437446 0.01503216
v -0.002589542 0.02437443 0.02474808
v -0.007039494 0.01428341 0.03961551
v -0.007039494 0.01428341 0.03961551
v -0.002589542 0.02437443 0.02474808
v 0.01874374 0.02437444 0.03257047
v 0.0243287 0.01428342 0.04799324
v 0.0243287 0.01428342 0.04799324
v 0.01874374 0.02437444 0.03257047
v 0.02387387 0.02437444 0.01503208
v 0.03671499 0.01428342 0.02420177
v 0.03671499 0.01428342 0.02420177
v 0.02387387 0.02437444 0.01503208
v 0.02504641 0.02074649 0.001119236
v 0.03865433 0.0119721 0.001198721
v 0.03865433 0.0119721 0.001198721
v 0.02504641 0.02074649 0.001119236
v 0.03225488 0.02437442 -0.01614584
v 0.04569094 0.01428339 -0.02539495
v 0.03225488 0.02437442 -0.01614584
v 0.004626421 0.03397611 0.001093328
v 0.01203913 0.02437443 -0.0325666
v 0.01203913 0.02437443 -0.0325666
v 0.004626421 0.03397611 0.001093328
v -0.002589879 0.02437446 -0.02139184
v -0.002589879 0.02437446 -0.02139184
v 0.004626421 0.03397611 0.001093328
v -0.01125117 0.0243744 -0.01279331
v -0.01125117 0.0243744 -0.01279331
v 0.004626421 0.03397611 0.001093328
v -0.0312427 0.02074649 0.001119284
v -0.0312427 0.02074649 0.001119284
v 0.004626421 0.03397611 0.001093328
v -0.01442453 0.02437446 0.01503216
v -0.01442453 0.02437446 0.01503216
v 0.004626421 0.03397611 0.001093328
v -0.002589542 0.02437443 0.02474808
v -0.002589542 0.02437443 0.02474808
v 0.004626421 0.03397611 0.001093328
v 0.01874374 0.02437444 0.03257047
v 0.01874374 0.02437444 0.03257047
v 0.004626421 0.03397611 0.001093328
v 0.02387387 0.02437444 0.01503208
v 0.02387387 0.02437444 0.01503208
v 0.004626421 0.03397611 0.001093328
v 0.02504641 0.02074649 0.001119236
v 0.02504641 0.02074649 0.001119236
v 0.004626421 0.03397611 0.001093328
v 0.03225488 0.02437442 -0.01614584

vn 0.1406473 -0.9900536 -0.003374537
vn -0.04748623 -0.9984722 -0.02824144
vn 0.04360645 -0.9867527 0.1562587
vn 0.1091221 -0.9835848 -0.1437098
vn 0.007675275 -0.9530779 -0.3026267
vn -0.07643015 -0.9534159 -0.2918147
vn -0.1953739 -0.9532701 -0.230444
vn -0.2808702 -0.9558221 -0.08668946
vn -0.2135365 -0.9750094 0.06130356
vn -0.01997406 -0.9667596 0.2549044
vn -0.07078646 -0.9246868 0.3740894
vn 0.5938311 -0.7427384 0.3093606
vn 0.5938311 -0.7427384 0.3093605
vn 0.5938311 -0.7427384 0.3093606
vn 0.5938311 -0.7427384 0.3093605
vn 0.6525788 -0.7293213 -0.2055012
vn 0.6525788 -0.7293214 -0.2055012
vn 0.6525788 -0.7293213 -0.2055012
vn 0.6525788 -0.7293214 -0.2055012
vn 0.181028 -0.6497158 -0.7383074
vn 0.181028 -0.6497158 -0.7383074
vn 0.181028 -0.6497158 -0.7383074
vn 0.181028 -0.6497158 -0.7383074
vn 0.2959183 -0.6816317 -0.6691862
vn 0.2959182 -0.6816316 -0.6691864
vn 0.2959182 -0.6816316 -0.6691863
vn 0.2959182 -0.6816316 -0.6691863
vn -0.5196064 -0.6551793 -0.5484058
vn -0.5196064 -0.6551793 -0.5484058
vn -0.5196064 -0.6551792 -0.5484059
vn -0.5196064 -0.6551793 -0.5484059
vn -0.6620649 -0.6629256 -0.3495702
vn -0.6620649 -0.6629256 -0.3495703
vn -0.6620649 -0.6629256 -0.3495703
vn -0.6620649 -0.6629256 -0.3495702
vn -0.7516912 -0.65596 -0.06838396
vn -0.7516912 -0.65596 -0.06838399
vn -0.7516913 -0.65596 -0.06838395
vn -0.7516912 -0.65596 -0.06838396
vn -0.2657696 -0.6767808 0.6865376
vn -0.2657696 -0.6767808 0.6865376
vn -0.2657696 -0.6767808 0.6865376
vn -0.2657696 -0.6767808 0.6865377
vn 0.1231394 -0.7068487 0.6965638
vn 0.1231394 -0.7068488 0.6965638
vn 0.1231394 -0.7068487 0.6965638
vn 0.1231394 -0.7068487 0.6965638
vn -0.1415828 -0.6325687 0.761453
vn -0.1415828 -0.6325686 0.761453
vn -0.1415828 -0.6325687 0.761453
vn -0.1415828 -0.6325687 0.761453
vn 0.8851389 -0.05620478 0.46192
vn 0.885139 -0.05620478 0.46192
vn 0.885139 -0.05620478 0.46192
vn 0.8851389 -0.05620478 0.46192
vn 0.9672228 -0.03879941 -0.250948
vn 0.9672228 -0.03879941 -0.250948
vn 0.9672228 -0.03879941 -0.250948
vn 0.9672228 -0.03879941 -0.250948
vn 0.3371675 0.01203091 -0.9413678
vn 0.3371675 0.01203091 -0.9413678
vn 0.3371675 0.01203091 -0.9413678
vn 0.3371675 0.01203091 -0.9413678
vn 0.4741006 0.003651805 -0.880463
vn 0.4741006 0.003651807 -0.8804631
vn 0.4741006 0.003651805 -0.880463
vn 0.4741006 0.003651805 -0.880463
vn -0.7034981 0.05489007 -0.7085743
vn -0.7034981 0.05489007 -0.7085743
vn -0.7034982 0.05489007 -0.7085743
vn -0.7034981 0.05489007 -0.7085743
vn -0.8869618 0.05618708 -0.4584124
vn -0.8869618 0.05618708 -0.4584124
vn -0.8869618 0.05618708 -0.4584124
vn -0.8869618 0.05618708 -0.4584124
vn -0.9979636 0.04900397 -0.04083189
vn -0.9979636 0.04900397 -0.04083189
vn -0.9979636 0.04900397 -0.04083189
vn -0.9979636 0.04900397 -0.04083189
vn -0.3628898 -0.01051217 0.9317728
vn -0.3628898 -0.01051217 0.9317728
vn -0.3628898 -0.01051217 0.9317728
vn -0.3628898 -0.01051217 0.9317728
vn 0.09817275 -0.03446711 0.9945723
vn 0.09817275 -0.03446711 0.9945723
vn 0.09817275 -0.03446711 0.9945723
vn 0.09817275 -0.03446711 0.9945723
vn -0.02378348 -0.0287695 0.999303
vn -0.02378346 -0.0287695 0.999303
vn -0.02378348 -0.0287695 0.999303
vn -0.02378348 -0.0287695 0.999303
vn 0.8738881 0.1574899 0.4599095
vn 0.873888 0.15749 0.4599094
vn 0.873888 0.15749 0.4599094
vn 0.873888 0.15749 0.4599094
vn 0.9523354 0.1832867 -0.243851
vn 0.9523354 0.1832867 -0.243851
vn 0.9523354 0.1832867 -0.243851
vn 0.9523354 0.1832867 -0.243851
vn 0.3025162 0.2721637 -0.9134609
vn 0.3025162 0.2721637 -0.9134609
vn 0.3025162 0.2721637 -0.9134609
vn 0.3025162 0.2721636 -0.9134609
vn 0.4990444 0.2559254 -0.8279232
vn 0.4990444 0.2559254 -0.8279231
vn 0.4990444 0.2559254 -0.8279232
vn 0.4990444 0.2559254 -0.8279232
vn -0.6915706 0.2969884 -0.6584284
vn -0.6915706 0.2969884 -0.6584284
vn -0.6915706 0.2969884 -0.6584284
vn -0.6915706 0.2969883 -0.6584284
vn -0.8359781 0.3357276 -0.4340824
vn -0.835978 0.3357276 -0.4340824
vn -0.8359781 0.3357277 -0.4340824
vn -0.8359781 0.3357277 -0.4340824
vn -0.9557471 0.2900113 -0.04940459
vn -0.9557471 0.2900113 -0.04940458
vn -0.9557471 0.2900113 -0.04940459
vn -0.9557471 0.2900113 -0.04940459
vn -0.3139119 0.1804459 0.9321473
vn -0.3139119 0.1804459 0.9321473
vn -0.3139119 0.1804459 0.9321473
vn -0.3139119 0.1804459 0.9321473
vn 0.1182785 0.20278 0.9720547
vn 0.1182785 0.20278 0.9720548
vn 0.1182785 0.20278 0.9720548
vn 0.1182785 0.20278 0.9720548
vn -0.04717521 0.1512536 0.9873686
vn -0.04717518 0.1512536 0.9873686
vn -0.04717521 0.1512536 0.9873686
vn -0.04717521 0.1512536 0.9873686
vn 0.5218959 0.8047128 0.2829511
vn 0.521896 0.8047128 0.2829511
vn 0.5218959 0.8047128 0.2829511
vn 0.521896 0.8047128 0.2829511
vn 0.4482426 0.8740009 -0.1876175
vn 0.4482426 0.8740008 -0.1876175
vn 0.4482426 0.8740009 -0.1876175
vn 0.4482426 0.8740009 -0.1876174
vn 0.220792 0.8731538 -0.4345716
vn 0.220792 0.8731538 -0.4345716
vn 0.220792 0.8731538 -0.4345716
vn 0.220792 0.8731538 -0.4345716
vn 0.3349406 0.8048115 -0.4899924
vn 0.3349406 0.8048116 -0.4899924
vn 0.3349406 0.8048116 -0.4899924
vn 0.3349406 0.8048116 -0.4899924
vn -0.3654785 0.8487671 -0.3821247
vn -0.3654785 0.8487672 -0.3821246
vn -0.3654785 0.8487671 -0.3821247
vn -0.3654785 0.8487671 -0.3821247
vn -0.461635 0.8529651 -0.2436043
vn -0.461635 0.852965 -0.2436044
vn -0.4616351 0.852965 -0.2436044
vn -0.461635 0.852965 -0.2436044
vn -0.5327311 0.8452783 -0.04124951
vn -0.5327311 0.8452783 -0.0412495
vn -0.5327311 0.8452783 -0.0412495
vn -0.5327311 0.8452783 -0.0412495
vn -0.09283146 0.7835603 0.6143411
vn -0.09283146 0.7835603 0.6143411
vn -0.09283149 0.7835603 0.6143411
vn -0.09283146 0.7835603 0.6143411
vn 0.2231666 0.7712584 0.5961179
vn 0.2231666 0.7712585 0.5961178
vn 0.2231666 0.7712585 0.5961179
vn 0.2231666 0.7712584 0.5961179
vn -0.1467036 0.7204427 0.67782
vn -0.1467036 0.7204427 0.67782
vn -0.1467036 0.7204427 0.67782
vn -0.1467036 0.7204427 0.67782
vn 0.3065696 0.9364206 0.1706776
vn 0.3065696 0.9364206 0.1706776
vn 0.3065696 0.9364206 0.1706776
vn 0.3095655 0.9127656 -0.2665097
vn 0.3095655 0.9127656 -0.2665097
vn 0.3095655 0.9127656 -0.2665097
vn 0.27984 0.9072039 -0.3141181
vn 0.27984 0.9072039 -0.3141181
vn 0.27984 0.9072039 -0.3141181
vn 0.223396 0.9106872 -0.34748
vn 0.223396 0.9106872 -0.3474801
vn 0.223396 0.9106872 -0.3474801
vn -0.1855279 0.9430641 -0.2760594
vn -0.1855279 0.9430641 -0.2760594
vn -0.1855279 0.9430641 -0.2760594
vn -0.2944559 0.9423158 -0.159172
vn -0.2944559 0.9423159 -0.159172
vn -0.2944559 0.9423159 -0.159172
vn -0.3122875 0.94943 -0.03253216
vn -0.3122874 0.94943 -0.03253217
vn -0.3122874 0.94943 -0.03253217
vn 0.003835522 0.9077602 0.419471
vn 0.003835537 0.9077602 0.4194711
vn 0.003835529 0.9077601 0.4194711
vn 0.3041236 0.7980689 0.5201868
vn 0.3041236 0.7980689 0.5201868
vn 0.3041236 0.7980689 0.5201868
vn -0.2387674 0.773682 0.586861
vn -0.2387674 0.773682 0.5868609
vn -0.2387674 0.773682 0.586861

vt 0.5483398 0.007648468
vt 0.5 0.1500244
vt 0.6264648 0.06439209
vt 0.4516602 0.007648468
vt 0.3735352 0.06439209
vt 0.34375 0.15625
vt 0.3735352 0.2480469
vt 0.4516602 0.3049316
vt 0.5483398 0.3049316
vt 0.6264648 0.2480469
vt 0.65625 0.15625
vt 0 0
vt 0 1
vt 1 1
vt 1 0
vt 0 0
vt 0 1
vt 1 1
vt 1 0
vt 0 0
vt 0 1
vt 1 1
vt 1 0
vt 0 0
vt 0 1
vt 1 1
vt 1 0
vt 0 0
vt 0 1
vt 1 1
vt 1 0
vt 0 0
vt 0 1
vt 1 1
vt 1 0
vt 0 0
vt 0 1
vt 1 1
vt 1 0
vt 0 0
vt 0 1
vt 1 1
vt 1 0
vt 0 0
vt 0 1
vt 1 1
vt 1 0
vt 0 0
vt 0 1
vt 1 1
vt 1 0
vt 0 0
vt 0 1
vt 1 1
vt 1 0
vt 0 0
vt 0 1
vt 1 1
vt 1 0
vt 0 0
vt 0 1
vt 1 1
vt 1 0
vt 0 0
vt 0 1
vt 1 1
vt 1 0
vt 0 0
vt 0 1
vt 1 1
vt 1 0
vt 0 0
vt 0 1
vt 1 1
vt 1 0
vt 0 0
vt 0 1
vt 1 1
vt 1 0
vt 0 0
vt 0 1
vt 1 1
vt 1 0
vt 0 0
vt 0 1
vt 1 1
vt 1 0
vt 0 0
vt 0 1
vt 1 1
vt 1 0
vt 0 0
vt 0 1
vt 1 1
vt 1 0
vt 0 0
vt 0 1
vt 1 1
vt 1 0
vt 0 0
vt 0 1
vt 1 1
vt 1 0
vt 0 0
vt 0 1
vt 1 1
vt 1 0
vt 0 0
vt 0 1
vt 1 1
vt 1 0
vt 0 0
vt 0 1
vt 1 1
vt 1 0
vt 0 0
vt 0 1
vt 1 1
vt 1 0
vt 0 0
vt 0 1
vt 1 1
vt 1 0
vt 0 0
vt 0 1
vt 1 1
vt 1 0
vt 0 0
vt 0 1
vt 1 1
vt 1 0
vt 0 0
vt 0 1
vt 1 1
vt 1 0
vt 0 0
vt 0 1
vt 1 1
vt 1 0
vt 0 0
vt 0 1
vt 1 1
vt 1 0
vt 0 0
vt 0 1
vt 1 1
vt 1 0
vt 0 0
vt 0 1
vt 1 1
vt 1 0
vt 0 0
vt 0 1
vt 1 1
vt 1 0
vt 0 0
vt 0 1
vt 1 1
vt 1 0
vt 0 0
vt 0 1
vt 1 1
vt 1 0
vt 0 0
vt 0 1
vt 1 1
vt 1 0
vt 0 0
vt 0 1
vt 1 1
vt 1 0
vt 0 0
vt 0.5 1
vt 1 0
vt 0 0
vt 0.5 1
vt 1 0
vt 0 0
vt 0.5 1
vt 1 0
vt 0 0
vt 0.5 1
vt 1 0
vt 0 0
vt 0.5 1
vt 1 0
vt 0 0
vt 0.5 1
vt 1 0
vt 0 0
vt 0.5 1
vt 1 0
vt 0 0
vt 0.5 1
vt 1 0
vt 0 0
vt 0.5 1
vt 1 0
vt 0 0
vt 0.5 1
vt 1 0

g Foliage1_31_4057_312
usemtl Foliage1_31_4057_312
usemap Foliage1_31_4057_312
f 1/1/1 3/3/3 2/2/2
f 4/4/4 1/1/1 2/2/2
f 5/5/5 4/4/4 2/2/2
f 6/6/6 5/5/5 2/2/2
f 7/7/7 6/6/6 2/2/2
f 8/8/8 7/7/7 2/2/2
f 9/9/9 8/8/8 2/2/2
f 10/10/10 9/9/9 2/2/2
f 11/11/11 10/10/10 2/2/2
f 3/3/3 11/11/11 2/2/2
f 12/12/12 14/14/14 13/13/13
f 12/12/12 15/15/15 14/14/14
f 16/16/16 18/18/18 17/17/17
f 16/16/16 19/19/19 18/18/18
f 20/20/20 22/22/22 21/21/21
f 20/20/20 23/23/23 22/22/22
f 24/24/24 26/26/26 25/25/25
f 24/24/24 27/27/27 26/26/26
f 28/28/28 30/30/30 29/29/29
f 28/28/28 31/31/31 30/30/30
f 32/32/32 34/34/34 33/33/33
f 32/32/32 35/35/35 34/34/34
f 36/36/36 38/38/38 37/37/37
f 36/36/36 39/39/39 38/38/38
f 40/40/40 42/42/42 41/41/41
f 40/40/40 43/43/43 42/42/42
f 44/44/44 46/46/46 45/45/45
f 44/44/44 47/47/47 46/46/46
f 48/48/48 50/50/50 49/49/49
f 48/48/48 51/51/51 50/50/50
f 52/52/52 54/54/54 53/53/53
f 52/52/52 55/55/55 54/54/54
f 56/56/56 58/58/58 57/57/57
f 56/56/56 59/59/59 58/58/58
f 60/60/60 62/62/62 61/61/61
f 60/60/60 63/63/63 62/62/62
f 64/64/64 66/66/66 65/65/65
f 64/64/64 67/67/67 66/66/66
f 68/68/68 70/70/70 69/69/69
f 68/68/68 71/71/71 70/70/70
f 72/72/72 74/74/74 73/73/73
f 72/72/72 75/75/75 74/74/74
f 76/76/76 78/78/78 77/77/77
f 76/76/76 79/79/79 78/78/78
f 80/80/80 82/82/82 81/81/81
f 80/80/80 83/83/83 82/82/82
f 84/84/84 86/86/86 85/85/85
f 84/84/84 87/87/87 86/86/86
f 88/88/88 90/90/90 89/89/89
f 88/88/88 91/91/91 90/90/90
f 92/92/92 94/94/94 93/93/93
f 92/92/92 95/95/95 94/94/94
f 96/96/96 98/98/98 97/97/97
f 96/96/96 99/99/99 98/98/98
f 100/100/100 102/102/102 101/101/101
f 100/100/100 103/103/103 102/102/102
f 104/104/104 106/106/106 105/105/105
f 104/104/104 107/107/107 106/106/106
f 108/108/108 110/110/110 109/109/109
f 108/108/108 111/111/111 110/110/110
f 112/112/112 114/114/114 113/113/113
f 112/112/112 115/115/115 114/114/114
f 116/116/116 118/118/118 117/117/117
f 116/116/116 119/119/119 118/118/118
f 120/120/120 122/122/122 121/121/121
f 120/120/120 123/123/123 122/122/122
f 124/124/124 126/126/126 125/125/125
f 124/124/124 127/127/127 126/126/126
f 128/128/128 130/130/130 129/129/129
f 128/128/128 131/131/131 130/130/130
f 132/132/132 134/134/134 133/133/133
f 132/132/132 135/135/135 134/134/134
f 136/136/136 138/138/138 137/137/137
f 136/136/136 139/139/139 138/138/138
f 140/140/140 142/142/142 141/141/141
f 140/140/140 143/143/143 142/142/142
f 144/144/144 146/146/146 145/145/145
f 144/144/144 147/147/147 146/146/146
f 148/148/148 150/150/150 149/149/149
f 148/148/148 151/151/151 150/150/150
f 152/152/152 154/154/154 153/153/153
f 152/152/152 155/155/155 154/154/154
f 156/156/156 158/158/158 157/157/157
f 156/156/156 159/159/159 158/158/158
f 160/160/160 162/162/162 161/161/161
f 160/160/160 163/163/163 162/162/162
f 164/164/164 166/166/166 165/165/165
f 164/164/164 167/167/167 166/166/166
f 168/168/168 170/170/170 169/169/169
f 168/168/168 171/171/171 170/170/170
f 172/172/172 174/174/174 173/173/173
f 175/175/175 177/177/177 176/176/176
f 178/178/178 180/180/180 179/179/179
f 181/181/181 183/183/183 182/182/182
f 184/184/184 186/186/186 185/185/185
f 187/187/187 189/189/189 188/188/188
f 190/190/190 192/192/192 191/191/191
f 193/193/193 195/195/195 194/194/194
f 196/196/196 198/198/198 197/197/197
f 199/199/199 201/201/201 200/200/200
