#Foliage2_8_3292_306.obj

v 0.01454506 -0.02577567 -0.04035837
v 0.004623598 -0.03397598 0.001091328
v 0.03878428 -0.02577559 -0.02105485
v -0.009663664 -0.02577561 -0.03817547
v -0.01825102 -0.02577557 -0.0177805
v -0.03822234 -0.02223215 0.001091318
v -0.02135108 -0.02577555 0.01996311
v -0.005297846 -0.02577561 0.03271792
v 0.02109383 -0.0257756 0.04035812
v 0.03059836 -0.02577564 0.01996312
v 0.03218924 -0.02223223 0.001091331
v 0.03878428 -0.02577559 -0.02105485
v 0.04796667 -0.0148923 -0.02772622
v 0.01805244 -0.01489229 -0.05115288
v 0.01454506 -0.02577567 -0.04035837
v 0.01454506 -0.02577567 -0.04035837
v 0.01805244 -0.01489229 -0.05115288
v -0.01317102 -0.0148924 -0.04896997
v -0.009663664 -0.02577561 -0.03817547
v -0.009663664 -0.02577561 -0.03817547
v -0.01317102 -0.0148924 -0.04896997
v -0.02743342 -0.0148923 -0.02445188
v -0.01825102 -0.02577557 -0.0177805
v -0.01825102 -0.02577557 -0.0177805
v -0.02743342 -0.0148923 -0.02445188
v -0.04796714 -0.01288815 0.001091318
v -0.03822234 -0.02223215 0.001091318
v -0.03822234 -0.02223215 0.001091318
v -0.04796714 -0.01288815 0.001091318
v -0.03053349 -0.01489238 0.02663452
v -0.02135108 -0.02577555 0.01996311
v -0.02135108 -0.02577555 0.01996311
v -0.03053349 -0.01489238 0.02663452
v -0.008805173 -0.01489229 0.04351241
v -0.005297846 -0.02577561 0.03271792
v -0.005297846 -0.02577561 0.03271792
v -0.008805173 -0.01489229 0.04351241
v 0.02460117 -0.01489236 0.05115261
v 0.02109383 -0.0257756 0.04035812
v 0.02109383 -0.0257756 0.04035812
v 0.02460117 -0.01489236 0.05115261
v 0.03978075 -0.01489232 0.02663452
v 0.03059836 -0.02577564 0.01996312
v 0.03059836 -0.02577564 0.01996312
v 0.03978075 -0.01489232 0.02663452
v 0.04193407 -0.0128881 0.001091339
v 0.03218924 -0.02223223 0.001091331
v 0.03218924 -0.02223223 0.001091331
v 0.04193407 -0.0128881 0.001091339
v 0.04796667 -0.0148923 -0.02772622
v 0.03878428 -0.02577559 -0.02105485
v 0.04796667 -0.0148923 -0.02772622
v 0.04796669 -0.0001482541 -0.02772623
v 0.01805245 -0.0001482423 -0.05115287
v 0.01805244 -0.01489229 -0.05115288
v 0.01805244 -0.01489229 -0.05115288
v 0.01805245 -0.0001482423 -0.05115287
v -0.01317101 -0.0001482234 -0.04896998
v -0.01317102 -0.0148924 -0.04896997
v -0.01317102 -0.0148924 -0.04896997
v -0.01317101 -0.0001482234 -0.04896998
v -0.0274334 -0.000148254 -0.02445188
v -0.02743342 -0.0148923 -0.02445188
v -0.02743342 -0.0148923 -0.02445188
v -0.0274334 -0.000148254 -0.02445188
v -0.04796718 -0.0002293652 0.001091323
v -0.04796714 -0.01288815 0.001091318
v -0.04796714 -0.01288815 0.001091318
v -0.04796718 -0.0002293652 0.001091323
v -0.03053347 -0.0001483347 0.02663451
v -0.03053349 -0.01489238 0.02663452
v -0.03053349 -0.01489238 0.02663452
v -0.03053347 -0.0001483347 0.02663451
v -0.008805159 -0.000148238 0.04351242
v -0.008805173 -0.01489229 0.04351241
v -0.008805173 -0.01489229 0.04351241
v -0.008805159 -0.000148238 0.04351242
v 0.02460118 -0.0001483149 0.0511526
v 0.02460117 -0.01489236 0.05115261
v 0.02460117 -0.01489236 0.05115261
v 0.02460118 -0.0001483149 0.0511526
v 0.03978076 -0.000148277 0.02663452
v 0.03978075 -0.01489232 0.02663452
v 0.03978075 -0.01489232 0.02663452
v 0.03978076 -0.000148277 0.02663452
v 0.04193402 -0.0002294304 0.001091342
v 0.04193407 -0.0128881 0.001091339
v 0.04193407 -0.0128881 0.001091339
v 0.04193402 -0.0002294304 0.001091342
v 0.04796669 -0.0001482541 -0.02772623
v 0.04796667 -0.0148923 -0.02772622
v 0.04796669 -0.0001482541 -0.02772623
v 0.04568865 0.01428342 -0.02539693
v 0.01714485 0.01428336 -0.04799138
v 0.01805245 -0.0001482423 -0.05115287
v 0.01805245 -0.0001482423 -0.05115287
v 0.01714485 0.01428336 -0.04799138
v -0.01182934 0.01428341 -0.04559778
v -0.01317101 -0.0001482234 -0.04896998
v -0.01317101 -0.0001482234 -0.04896998
v -0.01182934 0.01428341 -0.04559778
v -0.02321054 0.01428344 -0.02180652
v -0.0274334 -0.000148254 -0.02445188
v -0.0274334 -0.000148254 -0.02445188
v -0.02321054 0.01428344 -0.02180652
v -0.04530433 0.01197208 0.001196662
v -0.04796718 -0.0002293652 0.001091323
v -0.04796718 -0.0002293652 0.001091323
v -0.04530433 0.01197208 0.001196662
v -0.02660984 0.01428338 0.02419986
v -0.03053347 -0.0001483347 0.02663451
v -0.03053347 -0.0001483347 0.02663451
v -0.02660984 0.01428338 0.02419986
v -0.007042127 0.01428339 0.03961344
v -0.008805159 -0.000148238 0.04351242
v -0.008805159 -0.000148238 0.04351242
v -0.007042127 0.01428339 0.03961344
v 0.02432573 0.01428337 0.04799111
v 0.02460118 -0.0001483149 0.0511526
v 0.02460118 -0.0001483149 0.0511526
v 0.02432573 0.01428337 0.04799111
v 0.0367126 0.01428337 0.02419988
v 0.03978076 -0.000148277 0.02663452
v 0.03978076 -0.000148277 0.02663452
v 0.0367126 0.01428337 0.02419988
v 0.03865173 0.0119721 0.001196694
v 0.04193402 -0.0002294304 0.001091342
v 0.04193402 -0.0002294304 0.001091342
v 0.03865173 0.0119721 0.001196694
v 0.04568865 0.01428342 -0.02539693
v 0.04796669 -0.0001482541 -0.02772623
v 0.04568865 0.01428342 -0.02539693
v 0.0322522 0.02437449 -0.01614779
v 0.0120362 0.02437439 -0.03256876
v 0.01714485 0.01428336 -0.04799138
v 0.01714485 0.01428336 -0.04799138
v 0.0120362 0.02437439 -0.03256876
v -0.002592471 0.02437447 -0.02139394
v -0.01182934 0.01428341 -0.04559778
v -0.01182934 0.01428341 -0.04559778
v -0.002592471 0.02437447 -0.02139394
v -0.01125334 0.02437447 -0.01279536
v -0.02321054 0.01428344 -0.02180652
v -0.02321054 0.01428344 -0.02180652
v -0.01125334 0.02437447 -0.01279536
v -0.03124494 0.02074656 0.001117341
v -0.04530433 0.01197208 0.001196662
v -0.04530433 0.01197208 0.001196662
v -0.03124494 0.02074656 0.001117341
v -0.01442739 0.02437444 0.01503008
v -0.02660984 0.01428338 0.02419986
v -0.02660984 0.01428338 0.02419986
v -0.01442739 0.02437444 0.01503008
v -0.002592495 0.02437439 0.0247461
v -0.007042127 0.01428339 0.03961344
v -0.007042127 0.01428339 0.03961344
v -0.002592495 0.02437439 0.0247461
v 0.0187411 0.02437441 0.03256848
v 0.02432573 0.01428337 0.04799111
v 0.02432573 0.01428337 0.04799111
v 0.0187411 0.02437441 0.03256848
v 0.02387111 0.02437443 0.01503009
v 0.0367126 0.01428337 0.02419988
v 0.0367126 0.01428337 0.02419988
v 0.02387111 0.02437443 0.01503009
v 0.02504391 0.02074648 0.00111736
v 0.03865173 0.0119721 0.001196694
v 0.03865173 0.0119721 0.001196694
v 0.02504391 0.02074648 0.00111736
v 0.0322522 0.02437449 -0.01614779
v 0.04568865 0.01428342 -0.02539693
v 0.0322522 0.02437449 -0.01614779
v 0.004623599 0.03397607 0.001091304
v 0.0120362 0.02437439 -0.03256876
v 0.0120362 0.02437439 -0.03256876
v 0.004623599 0.03397607 0.001091304
v -0.002592471 0.02437447 -0.02139394
v -0.002592471 0.02437447 -0.02139394
v 0.004623599 0.03397607 0.001091304
v -0.01125334 0.02437447 -0.01279536
v -0.01125334 0.02437447 -0.01279536
v 0.004623599 0.03397607 0.001091304
v -0.03124494 0.02074656 0.001117341
v -0.03124494 0.02074656 0.001117341
v 0.004623599 0.03397607 0.001091304
v -0.01442739 0.02437444 0.01503008
v -0.01442739 0.02437444 0.01503008
v 0.004623599 0.03397607 0.001091304
v -0.002592495 0.02437439 0.0247461
v -0.002592495 0.02437439 0.0247461
v 0.004623599 0.03397607 0.001091304
v 0.0187411 0.02437441 0.03256848
v 0.0187411 0.02437441 0.03256848
v 0.004623599 0.03397607 0.001091304
v 0.02387111 0.02437443 0.01503009
v 0.02387111 0.02437443 0.01503009
v 0.004623599 0.03397607 0.001091304
v 0.02504391 0.02074648 0.00111736
v 0.02504391 0.02074648 0.00111736
v 0.004623599 0.03397607 0.001091304
v 0.0322522 0.02437449 -0.01614779

vn -0.1553146 -0.9826464 -0.1014052
vn 0.01438484 -0.9997383 -0.01777859
vn -0.01173607 -0.9752614 -0.2207419
vn -0.1708327 -0.984416 0.04172317
vn -0.1257249 -0.9658903 0.2263818
vn -0.04268147 -0.9690226 0.2432552
vn 0.08970511 -0.970539 0.2236218
vn 0.2170944 -0.9693271 0.115215
vn 0.2009536 -0.9784506 -0.04745078
vn 0.08079107 -0.952924 -0.2922469
vn 0.1683702 -0.9070247 -0.3859498
vn -0.4773065 -0.7023289 -0.5281217
vn -0.4773065 -0.7023289 -0.5281216
vn -0.4773064 -0.7023289 -0.5281217
vn -0.4773065 -0.7023289 -0.5281216
vn -0.6994148 -0.7122059 -0.05984363
vn -0.6994148 -0.712206 -0.05984364
vn -0.6994148 -0.7122059 -0.05984363
vn -0.6994149 -0.7122059 -0.05984364
vn -0.4243624 -0.6779317 0.6002707
vn -0.4243624 -0.6779317 0.6002707
vn -0.4243624 -0.6779317 0.6002707
vn -0.4243624 -0.6779317 0.6002707
vn -0.5113118 -0.7017948 0.4960284
vn -0.5113118 -0.7017947 0.4960285
vn -0.5113118 -0.7017947 0.4960284
vn -0.5113118 -0.7017947 0.4960284
vn 0.2997175 -0.701704 0.6463594
vn 0.2997175 -0.701704 0.6463594
vn 0.2997175 -0.701704 0.6463595
vn 0.2997175 -0.701704 0.6463595
vn 0.4987186 -0.7051947 0.5039642
vn 0.4987186 -0.7051947 0.5039643
vn 0.4987186 -0.7051947 0.5039642
vn 0.4987186 -0.7051947 0.5039642
vn 0.6747501 -0.687816 0.2676211
vn 0.6747501 -0.6878161 0.2676212
vn 0.6747502 -0.6878161 0.2676211
vn 0.6747501 -0.687816 0.2676211
vn 0.4593368 -0.6518133 -0.6034476
vn 0.4593368 -0.6518133 -0.6034476
vn 0.4593368 -0.6518133 -0.6034476
vn 0.4593368 -0.6518133 -0.6034477
vn 0.09411018 -0.6659129 -0.7400697
vn 0.09411018 -0.6659129 -0.7400697
vn 0.09411018 -0.6659129 -0.7400697
vn 0.09411018 -0.6659129 -0.7400697
vn 0.367102 -0.5990461 -0.7116037
vn 0.367102 -0.5990459 -0.7116038
vn 0.367102 -0.5990461 -0.7116037
vn 0.367102 -0.599046 -0.7116037
vn -0.6886942 0.001942346 -0.7250493
vn -0.6886942 0.001942347 -0.7250494
vn -0.6886942 0.001942347 -0.7250494
vn -0.6886942 0.001942346 -0.7250493
vn -0.9969488 -0.01287308 -0.07698993
vn -0.9969488 -0.01287308 -0.07698993
vn -0.9969488 -0.01287308 -0.07698993
vn -0.9969488 -0.01287308 -0.07698993
vn -0.6236702 -0.02143131 0.7813938
vn -0.6236702 -0.02143131 0.7813938
vn -0.6236702 -0.02143131 0.7813938
vn -0.6236702 -0.02143131 0.7813938
vn -0.7336264 -0.02134028 0.6792179
vn -0.7336264 -0.02134028 0.679218
vn -0.7336264 -0.02134028 0.6792179
vn -0.7336264 -0.02134028 0.6792179
vn 0.4369454 -0.008319111 0.8994495
vn 0.4369454 -0.008319111 0.8994495
vn 0.4369455 -0.00831911 0.8994496
vn 0.4369454 -0.008319111 0.8994495
vn 0.6915543 -0.001857869 0.7223221
vn 0.6915543 -0.001857869 0.7223221
vn 0.6915543 -0.001857869 0.7223221
vn 0.6915543 -0.001857869 0.7223221
vn 0.9316961 0.007334125 0.3631648
vn 0.9316961 0.007334125 0.3631648
vn 0.9316961 0.007334125 0.3631648
vn 0.9316961 0.007334125 0.3631648
vn 0.6449219 0.02145084 -0.7639475
vn 0.6449219 0.02145084 -0.7639475
vn 0.6449219 0.02145084 -0.7639475
vn 0.6449219 0.02145084 -0.7639475
vn 0.2286834 0.01893426 -0.9733167
vn 0.2286834 0.01893426 -0.9733167
vn 0.2286834 0.01893426 -0.9733167
vn 0.2286834 0.01893426 -0.9733167
vn 0.3456849 0.02002341 -0.938137
vn 0.3456849 0.02002341 -0.938137
vn 0.3456849 0.02002341 -0.938137
vn 0.3456849 0.02002341 -0.938137
vn -0.6741294 0.2146592 -0.7067327
vn -0.6741293 0.2146592 -0.7067326
vn -0.6741293 0.2146592 -0.7067326
vn -0.6741293 0.2146592 -0.7067326
vn -0.9758139 0.2085268 -0.06560308
vn -0.9758139 0.2085268 -0.06560308
vn -0.9758139 0.2085268 -0.06560308
vn -0.9758139 0.2085268 -0.06560308
vn -0.5762849 0.2381897 0.7817682
vn -0.5762849 0.2381897 0.7817683
vn -0.5762849 0.2381897 0.7817682
vn -0.5762849 0.2381897 0.7817682
vn -0.7347927 0.2340233 0.6366419
vn -0.7347927 0.2340233 0.6366419
vn -0.7347927 0.2340232 0.6366419
vn -0.7347926 0.2340233 0.6366419
vn 0.4470964 0.236255 0.8627216
vn 0.4470964 0.236255 0.8627216
vn 0.4470964 0.236255 0.8627216
vn 0.4470964 0.236255 0.8627216
vn 0.6572022 0.2803469 0.6996361
vn 0.6572022 0.2803469 0.6996362
vn 0.6572022 0.2803469 0.6996362
vn 0.6572022 0.2803469 0.6996362
vn 0.8941495 0.2491005 0.3720826
vn 0.8941495 0.2491005 0.3720826
vn 0.8941495 0.2491005 0.3720826
vn 0.8941495 0.2491005 0.3720826
vn 0.602808 0.2139819 -0.7686576
vn 0.602808 0.2139819 -0.7686576
vn 0.6028081 0.2139819 -0.7686574
vn 0.602808 0.2139819 -0.7686576
vn 0.2074502 0.2553788 -0.9443231
vn 0.2074502 0.2553788 -0.9443231
vn 0.2074502 0.2553788 -0.9443231
vn 0.2074502 0.2553788 -0.9443231
vn 0.367796 0.1981623 -0.9085471
vn 0.367796 0.1981623 -0.9085471
vn 0.367796 0.1981623 -0.9085471
vn 0.367796 0.1981624 -0.9085471
vn -0.3846975 0.8378296 -0.3873614
vn -0.3846975 0.8378296 -0.3873614
vn -0.3846975 0.8378296 -0.3873614
vn -0.3846975 0.8378296 -0.3873614
vn -0.4660318 0.8806666 0.08508979
vn -0.4660318 0.8806666 0.08508979
vn -0.4660318 0.8806666 0.08508979
vn -0.4660318 0.8806666 0.08508976
vn -0.3309475 0.8585328 0.3916565
vn -0.3309475 0.8585328 0.3916565
vn -0.3309475 0.8585328 0.3916565
vn -0.3309475 0.8585328 0.3916565
vn -0.4583309 0.7920964 0.4031324
vn -0.4583309 0.7920964 0.4031324
vn -0.4583309 0.7920964 0.4031324
vn -0.4583309 0.7920964 0.4031324
vn 0.2400218 0.8135736 0.5296104
vn 0.2400218 0.8135737 0.5296103
vn 0.2400219 0.8135736 0.5296104
vn 0.2400218 0.8135736 0.5296104
vn 0.3759419 0.8208393 0.4299885
vn 0.3759419 0.8208392 0.4299886
vn 0.375942 0.8208392 0.4299886
vn 0.3759419 0.8208392 0.4299886
vn 0.5085898 0.8204105 0.2612711
vn 0.5085898 0.8204105 0.261271
vn 0.5085898 0.8204105 0.261271
vn 0.5085898 0.8204105 0.261271
vn 0.3036422 0.8088374 -0.5035704
vn 0.3036422 0.8088374 -0.5035704
vn 0.3036423 0.8088374 -0.5035704
vn 0.3036422 0.8088374 -0.5035704
vn -0.001398221 0.8081748 -0.5889406
vn -0.001398243 0.8081749 -0.5889404
vn -0.001398243 0.8081749 -0.5889405
vn -0.001398206 0.8081748 -0.5889406
vn 0.3738126 0.7468686 -0.5499557
vn 0.3738126 0.7468686 -0.5499557
vn 0.3738126 0.7468686 -0.5499557
vn 0.3738126 0.7468686 -0.5499557
vn -0.2146015 0.9551582 -0.2040064
vn -0.2146015 0.9551582 -0.2040064
vn -0.2146015 0.9551582 -0.2040064
vn -0.3596042 0.9099364 0.20664
vn -0.3596042 0.9099364 0.20664
vn -0.3596042 0.9099364 0.20664
vn -0.3470354 0.9008415 0.2608655
vn -0.3470355 0.9008415 0.2608655
vn -0.3470354 0.9008415 0.2608655
vn -0.3043862 0.9004229 0.310785
vn -0.3043863 0.9004229 0.3107851
vn -0.3043863 0.9004229 0.3107851
vn 0.1062112 0.9200824 0.3770504
vn 0.1062112 0.9200824 0.3770503
vn 0.1062112 0.9200824 0.3770504
vn 0.2470951 0.9208305 0.3016863
vn 0.2470951 0.9208306 0.3016863
vn 0.2470951 0.9208306 0.3016863
vn 0.3051479 0.9335193 0.1882178
vn 0.3051479 0.9335193 0.1882178
vn 0.3051479 0.9335193 0.1882178
vn 0.1517291 0.9269289 -0.3431918
vn 0.1517291 0.9269289 -0.3431919
vn 0.1517291 0.9269289 -0.3431919
vn -0.1019978 0.8343641 -0.5416943
vn -0.1019978 0.8343641 -0.5416942
vn -0.1019978 0.8343641 -0.5416942
vn 0.4325531 0.7918308 -0.4311631
vn 0.4325531 0.7918308 -0.431163
vn 0.4325531 0.7918308 -0.4311631

vt 0.5483398 0.007648468
vt 0.5 0.1500244
vt 0.6264648 0.06439209
vt 0.4516602 0.007648468
vt 0.3735352 0.06439209
vt 0.34375 0.15625
vt 0.3735352 0.2480469
vt 0.4516602 0.3049316
vt 0.5483398 0.3049316
vt 0.6264648 0.2480469
vt 0.65625 0.15625
vt 0 0
vt 0 1
vt 1 1
vt 1 0
vt 0 0
vt 0 1
vt 1 1
vt 1 0
vt 0 0
vt 0 1
vt 1 1
vt 1 0
vt 0 0
vt 0 1
vt 1 1
vt 1 0
vt 0 0
vt 0 1
vt 1 1
vt 1 0
vt 0 0
vt 0 1
vt 1 1
vt 1 0
vt 0 0
vt 0 1
vt 1 1
vt 1 0
vt 0 0
vt 0 1
vt 1 1
vt 1 0
vt 0 0
vt 0 1
vt 1 1
vt 1 0
vt 0 0
vt 0 1
vt 1 1
vt 1 0
vt 0 0
vt 0 1
vt 1 1
vt 1 0
vt 0 0
vt 0 1
vt 1 1
vt 1 0
vt 0 0
vt 0 1
vt 1 1
vt 1 0
vt 0 0
vt 0 1
vt 1 1
vt 1 0
vt 0 0
vt 0 1
vt 1 1
vt 1 0
vt 0 0
vt 0 1
vt 1 1
vt 1 0
vt 0 0
vt 0 1
vt 1 1
vt 1 0
vt 0 0
vt 0 1
vt 1 1
vt 1 0
vt 0 0
vt 0 1
vt 1 1
vt 1 0
vt 0 0
vt 0 1
vt 1 1
vt 1 0
vt 0 0
vt 0 1
vt 1 1
vt 1 0
vt 0 0
vt 0 1
vt 1 1
vt 1 0
vt 0 0
vt 0 1
vt 1 1
vt 1 0
vt 0 0
vt 0 1
vt 1 1
vt 1 0
vt 0 0
vt 0 1
vt 1 1
vt 1 0
vt 0 0
vt 0 1
vt 1 1
vt 1 0
vt 0 0
vt 0 1
vt 1 1
vt 1 0
vt 0 0
vt 0 1
vt 1 1
vt 1 0
vt 0 0
vt 0 1
vt 1 1
vt 1 0
vt 0 0
vt 0 1
vt 1 1
vt 1 0
vt 0 0
vt 0 1
vt 1 1
vt 1 0
vt 0 0
vt 0 1
vt 1 1
vt 1 0
vt 0 0
vt 0 1
vt 1 1
vt 1 0
vt 0 0
vt 0 1
vt 1 1
vt 1 0
vt 0 0
vt 0 1
vt 1 1
vt 1 0
vt 0 0
vt 0 1
vt 1 1
vt 1 0
vt 0 0
vt 0 1
vt 1 1
vt 1 0
vt 0 0
vt 0 1
vt 1 1
vt 1 0
vt 0 0
vt 0 1
vt 1 1
vt 1 0
vt 0 0
vt 0 1
vt 1 1
vt 1 0
vt 0 0
vt 0.5 1
vt 1 0
vt 0 0
vt 0.5 1
vt 1 0
vt 0 0
vt 0.5 1
vt 1 0
vt 0 0
vt 0.5 1
vt 1 0
vt 0 0
vt 0.5 1
vt 1 0
vt 0 0
vt 0.5 1
vt 1 0
vt 0 0
vt 0.5 1
vt 1 0
vt 0 0
vt 0.5 1
vt 1 0
vt 0 0
vt 0.5 1
vt 1 0
vt 0 0
vt 0.5 1
vt 1 0

g Foliage2_8_3292_306
usemtl Foliage2_8_3292_306
usemap Foliage2_8_3292_306
f 1/1/1 3/3/3 2/2/2
f 4/4/4 1/1/1 2/2/2
f 5/5/5 4/4/4 2/2/2
f 6/6/6 5/5/5 2/2/2
f 7/7/7 6/6/6 2/2/2
f 8/8/8 7/7/7 2/2/2
f 9/9/9 8/8/8 2/2/2
f 10/10/10 9/9/9 2/2/2
f 11/11/11 10/10/10 2/2/2
f 3/3/3 11/11/11 2/2/2
f 12/12/12 14/14/14 13/13/13
f 12/12/12 15/15/15 14/14/14
f 16/16/16 18/18/18 17/17/17
f 16/16/16 19/19/19 18/18/18
f 20/20/20 22/22/22 21/21/21
f 20/20/20 23/23/23 22/22/22
f 24/24/24 26/26/26 25/25/25
f 24/24/24 27/27/27 26/26/26
f 28/28/28 30/30/30 29/29/29
f 28/28/28 31/31/31 30/30/30
f 32/32/32 34/34/34 33/33/33
f 32/32/32 35/35/35 34/34/34
f 36/36/36 38/38/38 37/37/37
f 36/36/36 39/39/39 38/38/38
f 40/40/40 42/42/42 41/41/41
f 40/40/40 43/43/43 42/42/42
f 44/44/44 46/46/46 45/45/45
f 44/44/44 47/47/47 46/46/46
f 48/48/48 50/50/50 49/49/49
f 48/48/48 51/51/51 50/50/50
f 52/52/52 54/54/54 53/53/53
f 52/52/52 55/55/55 54/54/54
f 56/56/56 58/58/58 57/57/57
f 56/56/56 59/59/59 58/58/58
f 60/60/60 62/62/62 61/61/61
f 60/60/60 63/63/63 62/62/62
f 64/64/64 66/66/66 65/65/65
f 64/64/64 67/67/67 66/66/66
f 68/68/68 70/70/70 69/69/69
f 68/68/68 71/71/71 70/70/70
f 72/72/72 74/74/74 73/73/73
f 72/72/72 75/75/75 74/74/74
f 76/76/76 78/78/78 77/77/77
f 76/76/76 79/79/79 78/78/78
f 80/80/80 82/82/82 81/81/81
f 80/80/80 83/83/83 82/82/82
f 84/84/84 86/86/86 85/85/85
f 84/84/84 87/87/87 86/86/86
f 88/88/88 90/90/90 89/89/89
f 88/88/88 91/91/91 90/90/90
f 92/92/92 94/94/94 93/93/93
f 92/92/92 95/95/95 94/94/94
f 96/96/96 98/98/98 97/97/97
f 96/96/96 99/99/99 98/98/98
f 100/100/100 102/102/102 101/101/101
f 100/100/100 103/103/103 102/102/102
f 104/104/104 106/106/106 105/105/105
f 104/104/104 107/107/107 106/106/106
f 108/108/108 110/110/110 109/109/109
f 108/108/108 111/111/111 110/110/110
f 112/112/112 114/114/114 113/113/113
f 112/112/112 115/115/115 114/114/114
f 116/116/116 118/118/118 117/117/117
f 116/116/116 119/119/119 118/118/118
f 120/120/120 122/122/122 121/121/121
f 120/120/120 123/123/123 122/122/122
f 124/124/124 126/126/126 125/125/125
f 124/124/124 127/127/127 126/126/126
f 128/128/128 130/130/130 129/129/129
f 128/128/128 131/131/131 130/130/130
f 132/132/132 134/134/134 133/133/133
f 132/132/132 135/135/135 134/134/134
f 136/136/136 138/138/138 137/137/137
f 136/136/136 139/139/139 138/138/138
f 140/140/140 142/142/142 141/141/141
f 140/140/140 143/143/143 142/142/142
f 144/144/144 146/146/146 145/145/145
f 144/144/144 147/147/147 146/146/146
f 148/148/148 150/150/150 149/149/149
f 148/148/148 151/151/151 150/150/150
f 152/152/152 154/154/154 153/153/153
f 152/152/152 155/155/155 154/154/154
f 156/156/156 158/158/158 157/157/157
f 156/156/156 159/159/159 158/158/158
f 160/160/160 162/162/162 161/161/161
f 160/160/160 163/163/163 162/162/162
f 164/164/164 166/166/166 165/165/165
f 164/164/164 167/167/167 166/166/166
f 168/168/168 170/170/170 169/169/169
f 168/168/168 171/171/171 170/170/170
f 172/172/172 174/174/174 173/173/173
f 175/175/175 177/177/177 176/176/176
f 178/178/178 180/180/180 179/179/179
f 181/181/181 183/183/183 182/182/182
f 184/184/184 186/186/186 185/185/185
f 187/187/187 189/189/189 188/188/188
f 190/190/190 192/192/192 191/191/191
f 193/193/193 195/195/195 194/194/194
f 196/196/196 198/198/198 197/197/197
f 199/199/199 201/201/201 200/200/200
