#Foliage2_15_3858_113.obj

v 0.01454609 -0.0257757 -0.04035945
v 0.004624667 -0.03397619 0.001090132
v 0.03878546 -0.02577576 -0.0210561
v -0.009662623 -0.02577573 -0.03817683
v -0.01824988 -0.02577571 -0.01778169
v -0.03822142 -0.02223231 0.001089948
v -0.0213501 -0.02577573 0.01996202
v -0.00529675 -0.02577576 0.03271681
v 0.02109493 -0.02577576 0.0403569
v 0.03059929 -0.02577577 0.01996185
v 0.03219033 -0.02223229 0.001090246
v 0.03878546 -0.02577576 -0.0210561
v 0.04796789 -0.01489246 -0.02772752
v 0.01805358 -0.01489248 -0.0511541
v 0.01454609 -0.0257757 -0.04035945
v 0.01454609 -0.0257757 -0.04035945
v 0.01805358 -0.01489248 -0.0511541
v -0.01316997 -0.0148925 -0.0489711
v -0.009662623 -0.02577573 -0.03817683
v -0.009662623 -0.02577573 -0.03817683
v -0.01316997 -0.0148925 -0.0489711
v -0.02743236 -0.01489245 -0.02445302
v -0.01824988 -0.02577571 -0.01778169
v -0.01824988 -0.02577571 -0.01778169
v -0.02743236 -0.01489245 -0.02445302
v -0.04796608 -0.01288832 0.001090131
v -0.03822142 -0.02223231 0.001089948
v -0.03822142 -0.02223231 0.001089948
v -0.04796608 -0.01288832 0.001090131
v -0.03053246 -0.0148925 0.02663315
v -0.0213501 -0.02577573 0.01996202
v -0.0213501 -0.02577573 0.01996202
v -0.03053246 -0.0148925 0.02663315
v -0.008804168 -0.01489253 0.04351117
v -0.00529675 -0.02577576 0.03271681
v -0.00529675 -0.02577576 0.03271681
v -0.008804168 -0.01489253 0.04351117
v 0.02460238 -0.01489249 0.05115135
v 0.02109493 -0.02577576 0.0403569
v 0.02109493 -0.02577576 0.0403569
v 0.02460238 -0.01489249 0.05115135
v 0.03978186 -0.01489247 0.02663336
v 0.03059929 -0.02577577 0.01996185
v 0.03059929 -0.02577577 0.01996185
v 0.03978186 -0.01489247 0.02663336
v 0.04193504 -0.01288833 0.001089879
v 0.03219033 -0.02223229 0.001090246
v 0.03219033 -0.02223229 0.001090246
v 0.04193504 -0.01288833 0.001089879
v 0.04796789 -0.01489246 -0.02772752
v 0.03878546 -0.02577576 -0.0210561
v 0.04796789 -0.01489246 -0.02772752
v 0.04796783 -0.000148405 -0.0277275
v 0.01805352 -0.0001484241 -0.05115408
v 0.01805358 -0.01489248 -0.0511541
v 0.01805358 -0.01489248 -0.0511541
v 0.01805352 -0.0001484241 -0.05115408
v -0.01316981 -0.0001484449 -0.04897133
v -0.01316997 -0.0148925 -0.0489711
v -0.01316997 -0.0148925 -0.0489711
v -0.01316981 -0.0001484449 -0.04897133
v -0.02743242 -0.0001483906 -0.024453
v -0.02743236 -0.01489245 -0.02445302
v -0.02743236 -0.01489245 -0.02445302
v -0.02743242 -0.0001483906 -0.024453
v -0.04796612 -0.0002295601 0.001089906
v -0.04796608 -0.01288832 0.001090131
v -0.04796608 -0.01288832 0.001090131
v -0.04796612 -0.0002295601 0.001089906
v -0.03053252 -0.0001484411 0.02663317
v -0.03053246 -0.0148925 0.02663315
v -0.03053246 -0.0148925 0.02663315
v -0.03053252 -0.0001484411 0.02663317
v -0.008804237 -0.0001483974 0.04351118
v -0.008804168 -0.01489253 0.04351117
v -0.008804168 -0.01489253 0.04351117
v -0.008804237 -0.0001483974 0.04351118
v 0.02460231 -0.0001484278 0.05115137
v 0.02460238 -0.01489249 0.05115135
v 0.02460238 -0.01489249 0.05115135
v 0.02460231 -0.0001484278 0.05115137
v 0.0397818 -0.0001484064 0.02663338
v 0.03978186 -0.01489247 0.02663336
v 0.03978186 -0.01489247 0.02663336
v 0.0397818 -0.0001484064 0.02663338
v 0.04193503 -0.0002295265 0.001090131
v 0.04193504 -0.01288833 0.001089879
v 0.04193504 -0.01288833 0.001089879
v 0.04193503 -0.0002295265 0.001090131
v 0.04796783 -0.000148405 -0.0277275
v 0.04796789 -0.01489246 -0.02772752
v 0.04796783 -0.000148405 -0.0277275
v 0.04568958 0.01428322 -0.02539816
v 0.01714578 0.01428325 -0.0479926
v 0.01805352 -0.0001484241 -0.05115408
v 0.01805352 -0.0001484241 -0.05115408
v 0.01714578 0.01428325 -0.0479926
v -0.01182836 0.01428327 -0.04559893
v -0.01316981 -0.0001484449 -0.04897133
v -0.01316981 -0.0001484449 -0.04897133
v -0.01182836 0.01428327 -0.04559893
v -0.02320943 0.01428329 -0.02180776
v -0.02743242 -0.0001483906 -0.024453
v -0.02743242 -0.0001483906 -0.024453
v -0.02320943 0.01428329 -0.02180776
v -0.04530321 0.01197199 0.001195266
v -0.04796612 -0.0002295601 0.001089906
v -0.04796612 -0.0002295601 0.001089906
v -0.04530321 0.01197199 0.001195266
v -0.0266087 0.01428326 0.02419866
v -0.03053252 -0.0001484411 0.02663317
v -0.03053252 -0.0001484411 0.02663317
v -0.0266087 0.01428326 0.02419866
v -0.007041054 0.01428323 0.03961225
v -0.008804237 -0.0001483974 0.04351118
v -0.008804237 -0.0001483974 0.04351118
v -0.007041054 0.01428323 0.03961225
v 0.02432698 0.01428331 0.04798983
v 0.02460231 -0.0001484278 0.05115137
v 0.02460231 -0.0001484278 0.05115137
v 0.02432698 0.01428331 0.04798983
v 0.03671364 0.0142833 0.02419864
v 0.0397818 -0.0001484064 0.02663338
v 0.0397818 -0.0001484064 0.02663338
v 0.03671364 0.0142833 0.02419864
v 0.03865283 0.01197196 0.001195485
v 0.04193503 -0.0002295265 0.001090131
v 0.04193503 -0.0002295265 0.001090131
v 0.03865283 0.01197196 0.001195485
v 0.04568958 0.01428322 -0.02539816
v 0.04796783 -0.000148405 -0.0277275
v 0.04568958 0.01428322 -0.02539816
v 0.03225319 0.02437432 -0.01614897
v 0.01203728 0.0243743 -0.03257019
v 0.01714578 0.01428325 -0.0479926
v 0.01714578 0.01428325 -0.0479926
v 0.01203728 0.0243743 -0.03257019
v -0.002591331 0.0243743 -0.02139532
v -0.01182836 0.01428327 -0.04559893
v -0.01182836 0.01428327 -0.04559893
v -0.002591331 0.0243743 -0.02139532
v -0.01125238 0.02437431 -0.01279656
v -0.02320943 0.01428329 -0.02180776
v -0.02320943 0.01428329 -0.02180776
v -0.01125238 0.02437431 -0.01279656
v -0.03124388 0.02074637 0.001116069
v -0.04530321 0.01197199 0.001195266
v -0.04530321 0.01197199 0.001195266
v -0.03124388 0.02074637 0.001116069
v -0.01442638 0.02437427 0.01502866
v -0.0266087 0.01428326 0.02419866
v -0.0266087 0.01428326 0.02419866
v -0.01442638 0.02437427 0.01502866
v -0.002591265 0.02437433 0.02474477
v -0.007041054 0.01428323 0.03961225
v -0.007041054 0.01428323 0.03961225
v -0.002591265 0.02437433 0.02474477
v 0.01874223 0.02437434 0.03256721
v 0.02432698 0.01428331 0.04798983
v 0.02432698 0.01428331 0.04798983
v 0.01874223 0.02437434 0.03256721
v 0.02387216 0.02437435 0.01502901
v 0.03671364 0.0142833 0.02419864
v 0.03671364 0.0142833 0.02419864
v 0.02387216 0.02437435 0.01502901
v 0.0250448 0.02074636 0.00111609
v 0.03865283 0.01197196 0.001195485
v 0.03865283 0.01197196 0.001195485
v 0.0250448 0.02074636 0.00111609
v 0.03225319 0.02437432 -0.01614897
v 0.04568958 0.01428322 -0.02539816
v 0.03225319 0.02437432 -0.01614897
v 0.004624668 0.03397594 0.001090078
v 0.01203728 0.0243743 -0.03257019
v 0.01203728 0.0243743 -0.03257019
v 0.004624668 0.03397594 0.001090078
v -0.002591331 0.0243743 -0.02139532
v -0.002591331 0.0243743 -0.02139532
v 0.004624668 0.03397594 0.001090078
v -0.01125238 0.02437431 -0.01279656
v -0.01125238 0.02437431 -0.01279656
v 0.004624668 0.03397594 0.001090078
v -0.03124388 0.02074637 0.001116069
v -0.03124388 0.02074637 0.001116069
v 0.004624668 0.03397594 0.001090078
v -0.01442638 0.02437427 0.01502866
v -0.01442638 0.02437427 0.01502866
v 0.004624668 0.03397594 0.001090078
v -0.002591265 0.02437433 0.02474477
v -0.002591265 0.02437433 0.02474477
v 0.004624668 0.03397594 0.001090078
v 0.01874223 0.02437434 0.03256721
v 0.01874223 0.02437434 0.03256721
v 0.004624668 0.03397594 0.001090078
v 0.02387216 0.02437435 0.01502901
v 0.02387216 0.02437435 0.01502901
v 0.004624668 0.03397594 0.001090078
v 0.0250448 0.02074636 0.00111609
v 0.0250448 0.02074636 0.00111609
v 0.004624668 0.03397594 0.001090078
v 0.03225319 0.02437432 -0.01614897

vn 0.2150217 -0.9473473 -0.2372737
vn 0.01219451 -0.987909 -0.1545543
vn 0.2151749 -0.9763718 -0.01994516
vn 0.09806597 -0.9291593 -0.3564352
vn -0.09936909 -0.8896145 -0.4457711
vn -0.1766676 -0.9045314 -0.3880871
vn -0.2599467 -0.9299479 -0.2600473
vn -0.2615585 -0.9628077 -0.06773838
vn -0.1038526 -0.9938374 0.0387526
vn 0.2087541 -0.9705419 0.1202914
vn 0.2240205 -0.9352064 0.2742334
vn 0.7708534 -0.6212903 -0.1406533
vn 0.7708534 -0.6212904 -0.1406533
vn 0.7708534 -0.6212904 -0.1406532
vn 0.7708534 -0.6212904 -0.1406533
vn 0.5324178 -0.5585434 -0.6360508
vn 0.5324177 -0.5585435 -0.6360507
vn 0.5324178 -0.5585434 -0.6360508
vn 0.5324178 -0.5585434 -0.6360508
vn -0.1902094 -0.4964238 -0.8469851
vn -0.1902094 -0.4964237 -0.8469851
vn -0.1902094 -0.4964238 -0.8469851
vn -0.1902094 -0.4964237 -0.8469851
vn -0.047745 -0.5188408 -0.8535366
vn -0.04774509 -0.5188407 -0.8535366
vn -0.04774505 -0.5188407 -0.8535366
vn -0.04774509 -0.5188408 -0.8535366
vn -0.7329144 -0.6032374 -0.3145494
vn -0.7329144 -0.6032374 -0.3145494
vn -0.7329144 -0.6032373 -0.3145494
vn -0.7329143 -0.6032373 -0.3145494
vn -0.7610404 -0.6461917 -0.0570409
vn -0.7610404 -0.6461917 -0.05704094
vn -0.7610404 -0.6461917 -0.05704095
vn -0.7610404 -0.6461917 -0.05704095
vn -0.6929454 -0.6744826 0.2547548
vn -0.6929454 -0.6744826 0.2547548
vn -0.6929454 -0.6744825 0.2547548
vn -0.6929454 -0.6744826 0.2547548
vn 0.1852391 -0.6967292 0.6930042
vn 0.185239 -0.6967293 0.6930042
vn 0.185239 -0.6967293 0.6930042
vn 0.1852391 -0.6967292 0.6930042
vn 0.5554202 -0.6777772 0.4817951
vn 0.5554202 -0.6777772 0.4817951
vn 0.5554202 -0.6777772 0.4817951
vn 0.5554202 -0.6777772 0.4817951
vn 0.3361433 -0.6391253 0.6917561
vn 0.3361434 -0.6391252 0.6917562
vn 0.3361433 -0.6391253 0.6917561
vn 0.3361433 -0.6391252 0.6917561
vn 0.9982721 0.01412762 -0.05703679
vn 0.9982721 0.01412761 -0.0570367
vn 0.9982721 0.01412761 -0.0570367
vn 0.9982721 0.01412762 -0.05703679
vn 0.7027515 0.08430081 -0.7064231
vn 0.7027515 0.08430081 -0.7064231
vn 0.7027515 0.08430081 -0.7064231
vn 0.7027515 0.08430081 -0.7064231
vn -0.195489 0.1072694 -0.9748217
vn -0.195489 0.1072694 -0.9748217
vn -0.195489 0.1072694 -0.9748217
vn -0.195489 0.1072694 -0.9748217
vn -0.04614589 0.1104383 -0.9928111
vn -0.04614594 0.1104383 -0.9928111
vn -0.04614589 0.1104383 -0.9928111
vn -0.04614589 0.1104383 -0.9928111
vn -0.9692596 0.01983183 -0.2452397
vn -0.9692596 0.01983183 -0.2452397
vn -0.9692596 0.01983183 -0.2452396
vn -0.9692596 0.01983183 -0.2452397
vn -0.9980347 -0.01456234 0.06094869
vn -0.9980347 -0.01456234 0.06094869
vn -0.9980347 -0.01456234 0.06094869
vn -0.9980347 -0.01456234 0.06094869
vn -0.8790011 -0.05962997 0.4730766
vn -0.8790011 -0.05962997 0.4730766
vn -0.8790011 -0.05962997 0.4730766
vn -0.8790011 -0.05962997 0.4730766
vn 0.1683926 -0.1080336 0.979782
vn 0.1683926 -0.1080336 0.979782
vn 0.1683926 -0.1080336 0.979782
vn 0.1683926 -0.1080336 0.979782
vn 0.5972893 -0.08436462 0.7975764
vn 0.5972893 -0.08436462 0.7975764
vn 0.5972893 -0.08436462 0.7975764
vn 0.5972893 -0.08436462 0.7975764
vn 0.4949526 -0.09257041 0.863975
vn 0.4949526 -0.09257039 0.863975
vn 0.4949526 -0.09257041 0.863975
vn 0.4949526 -0.09257041 0.863975
vn 0.9810138 0.1922605 -0.02545488
vn 0.9810138 0.1922606 -0.02545488
vn 0.9810138 0.1922606 -0.02545488
vn 0.9810138 0.1922606 -0.02545488
vn 0.688319 0.270888 -0.6729314
vn 0.688319 0.270888 -0.6729314
vn 0.688319 0.270888 -0.6729314
vn 0.688319 0.270888 -0.6729314
vn -0.2323417 0.3248028 -0.9167991
vn -0.2323417 0.3248028 -0.9167991
vn -0.2323416 0.3248028 -0.9167991
vn -0.2323417 0.3248028 -0.9167991
vn -0.01457071 0.326014 -0.9452527
vn -0.01457067 0.326014 -0.9452527
vn -0.01457071 0.326014 -0.9452527
vn -0.01457076 0.326014 -0.9452527
vn -0.9587161 0.2212879 -0.1785919
vn -0.9587161 0.2212879 -0.1785919
vn -0.9587161 0.2212879 -0.178592
vn -0.9587161 0.2212878 -0.1785919
vn -0.9701276 0.2238471 0.0935137
vn -0.9701276 0.2238471 0.09351362
vn -0.9701276 0.2238471 0.09351366
vn -0.9701276 0.2238471 0.09351366
vn -0.8662351 0.146402 0.4777061
vn -0.8662351 0.146402 0.4777061
vn -0.8662351 0.146402 0.4777061
vn -0.8662351 0.146402 0.4777061
vn 0.1977183 0.05609176 0.9786527
vn 0.1977183 0.05609176 0.9786527
vn 0.1977183 0.05609177 0.9786527
vn 0.1977183 0.05609177 0.9786527
vn 0.5881881 0.1169429 0.8002245
vn 0.5881881 0.1169429 0.8002245
vn 0.588188 0.1169429 0.8002244
vn 0.5881881 0.1169429 0.8002245
vn 0.4564301 0.05570594 0.8880137
vn 0.4564302 0.05570596 0.8880137
vn 0.4564301 0.05570595 0.8880137
vn 0.4564301 0.05570597 0.8880137
vn 0.6050494 0.7905087 0.0949277
vn 0.6050494 0.7905087 0.09492768
vn 0.6050494 0.7905087 0.0949277
vn 0.6050494 0.7905087 0.09492768
vn 0.2669017 0.9107908 -0.3149979
vn 0.2669017 0.9107907 -0.3149979
vn 0.2669017 0.9107908 -0.3149979
vn 0.2669017 0.9107908 -0.3149979
vn -0.1052908 0.8985832 -0.4259838
vn -0.1052908 0.8985832 -0.4259838
vn -0.1052908 0.8985832 -0.4259838
vn -0.1052908 0.8985832 -0.4259838
vn -0.01971921 0.8363531 -0.5478364
vn -0.01971921 0.8363531 -0.5478364
vn -0.01971921 0.8363531 -0.5478364
vn -0.01971921 0.8363531 -0.5478364
vn -0.6309178 0.7749983 -0.03633725
vn -0.6309177 0.7749984 -0.0363372
vn -0.6309178 0.7749983 -0.03633722
vn -0.6309178 0.7749983 -0.03633725
vn -0.6402668 0.7534061 0.1497924
vn -0.6402668 0.753406 0.1497924
vn -0.6402669 0.753406 0.1497924
vn -0.6402668 0.753406 0.1497924
vn -0.5865842 0.7166862 0.3772001
vn -0.5865842 0.7166861 0.3772001
vn -0.5865842 0.7166861 0.3772001
vn -0.5865842 0.7166861 0.3772001
vn 0.1999315 0.6524129 0.7310163
vn 0.1999316 0.6524129 0.7310163
vn 0.1999316 0.6524129 0.7310163
vn 0.1999316 0.6524129 0.7310163
vn 0.4875394 0.6828605 0.5440651
vn 0.4875394 0.6828606 0.5440651
vn 0.4875394 0.6828606 0.5440651
vn 0.4875394 0.6828605 0.5440651
vn 0.1865071 0.5750003 0.7966114
vn 0.1865071 0.5750003 0.7966113
vn 0.1865071 0.5750003 0.7966114
vn 0.1865071 0.5750003 0.7966114
vn 0.3366723 0.9321965 0.1328964
vn 0.3366723 0.9321965 0.1328964
vn 0.3366723 0.9321965 0.1328964
vn 0.08022949 0.9474168 -0.3097815
vn 0.08022951 0.9474168 -0.3097815
vn 0.08022951 0.9474168 -0.3097814
vn 0.0221884 0.9401236 -0.3401107
vn 0.02218842 0.9401236 -0.3401108
vn 0.02218837 0.9401236 -0.3401108
vn -0.05455631 0.9389629 -0.3396651
vn -0.05455633 0.9389628 -0.3396651
vn -0.05455633 0.9389628 -0.3396651
vn -0.4195677 0.9074301 -0.02309727
vn -0.4195677 0.9074302 -0.02309722
vn -0.4195677 0.9074301 -0.02309727
vn -0.454248 0.8773544 0.154622
vn -0.454248 0.8773544 0.154622
vn -0.454248 0.8773544 0.154622
vn -0.396988 0.8708642 0.2898207
vn -0.3969879 0.8708642 0.2898207
vn -0.3969879 0.8708642 0.2898207
vn 0.179967 0.8237129 0.5376886
vn 0.1799671 0.8237129 0.5376886
vn 0.1799671 0.8237128 0.5376886
vn 0.5247788 0.730181 0.4375418
vn 0.5247788 0.7301811 0.4375418
vn 0.5247788 0.7301812 0.4375418
vn 0.04953249 0.6252636 0.7788402
vn 0.04953242 0.6252636 0.7788402
vn 0.04953247 0.6252636 0.7788402

vt 0.5483398 0.007648468
vt 0.5 0.1500244
vt 0.6264648 0.06439209
vt 0.4516602 0.007648468
vt 0.3735352 0.06439209
vt 0.34375 0.15625
vt 0.3735352 0.2480469
vt 0.4516602 0.3049316
vt 0.5483398 0.3049316
vt 0.6264648 0.2480469
vt 0.65625 0.15625
vt 0 0
vt 0 1
vt 1 1
vt 1 0
vt 0 0
vt 0 1
vt 1 1
vt 1 0
vt 0 0
vt 0 1
vt 1 1
vt 1 0
vt 0 0
vt 0 1
vt 1 1
vt 1 0
vt 0 0
vt 0 1
vt 1 1
vt 1 0
vt 0 0
vt 0 1
vt 1 1
vt 1 0
vt 0 0
vt 0 1
vt 1 1
vt 1 0
vt 0 0
vt 0 1
vt 1 1
vt 1 0
vt 0 0
vt 0 1
vt 1 1
vt 1 0
vt 0 0
vt 0 1
vt 1 1
vt 1 0
vt 0 0
vt 0 1
vt 1 1
vt 1 0
vt 0 0
vt 0 1
vt 1 1
vt 1 0
vt 0 0
vt 0 1
vt 1 1
vt 1 0
vt 0 0
vt 0 1
vt 1 1
vt 1 0
vt 0 0
vt 0 1
vt 1 1
vt 1 0
vt 0 0
vt 0 1
vt 1 1
vt 1 0
vt 0 0
vt 0 1
vt 1 1
vt 1 0
vt 0 0
vt 0 1
vt 1 1
vt 1 0
vt 0 0
vt 0 1
vt 1 1
vt 1 0
vt 0 0
vt 0 1
vt 1 1
vt 1 0
vt 0 0
vt 0 1
vt 1 1
vt 1 0
vt 0 0
vt 0 1
vt 1 1
vt 1 0
vt 0 0
vt 0 1
vt 1 1
vt 1 0
vt 0 0
vt 0 1
vt 1 1
vt 1 0
vt 0 0
vt 0 1
vt 1 1
vt 1 0
vt 0 0
vt 0 1
vt 1 1
vt 1 0
vt 0 0
vt 0 1
vt 1 1
vt 1 0
vt 0 0
vt 0 1
vt 1 1
vt 1 0
vt 0 0
vt 0 1
vt 1 1
vt 1 0
vt 0 0
vt 0 1
vt 1 1
vt 1 0
vt 0 0
vt 0 1
vt 1 1
vt 1 0
vt 0 0
vt 0 1
vt 1 1
vt 1 0
vt 0 0
vt 0 1
vt 1 1
vt 1 0
vt 0 0
vt 0 1
vt 1 1
vt 1 0
vt 0 0
vt 0 1
vt 1 1
vt 1 0
vt 0 0
vt 0 1
vt 1 1
vt 1 0
vt 0 0
vt 0 1
vt 1 1
vt 1 0
vt 0 0
vt 0 1
vt 1 1
vt 1 0
vt 0 0
vt 0 1
vt 1 1
vt 1 0
vt 0 0
vt 0 1
vt 1 1
vt 1 0
vt 0 0
vt 0.5 1
vt 1 0
vt 0 0
vt 0.5 1
vt 1 0
vt 0 0
vt 0.5 1
vt 1 0
vt 0 0
vt 0.5 1
vt 1 0
vt 0 0
vt 0.5 1
vt 1 0
vt 0 0
vt 0.5 1
vt 1 0
vt 0 0
vt 0.5 1
vt 1 0
vt 0 0
vt 0.5 1
vt 1 0
vt 0 0
vt 0.5 1
vt 1 0
vt 0 0
vt 0.5 1
vt 1 0

g Foliage2_15_3858_113
usemtl Foliage2_15_3858_113
usemap Foliage2_15_3858_113
f 1/1/1 3/3/3 2/2/2
f 4/4/4 1/1/1 2/2/2
f 5/5/5 4/4/4 2/2/2
f 6/6/6 5/5/5 2/2/2
f 7/7/7 6/6/6 2/2/2
f 8/8/8 7/7/7 2/2/2
f 9/9/9 8/8/8 2/2/2
f 10/10/10 9/9/9 2/2/2
f 11/11/11 10/10/10 2/2/2
f 3/3/3 11/11/11 2/2/2
f 12/12/12 14/14/14 13/13/13
f 12/12/12 15/15/15 14/14/14
f 16/16/16 18/18/18 17/17/17
f 16/16/16 19/19/19 18/18/18
f 20/20/20 22/22/22 21/21/21
f 20/20/20 23/23/23 22/22/22
f 24/24/24 26/26/26 25/25/25
f 24/24/24 27/27/27 26/26/26
f 28/28/28 30/30/30 29/29/29
f 28/28/28 31/31/31 30/30/30
f 32/32/32 34/34/34 33/33/33
f 32/32/32 35/35/35 34/34/34
f 36/36/36 38/38/38 37/37/37
f 36/36/36 39/39/39 38/38/38
f 40/40/40 42/42/42 41/41/41
f 40/40/40 43/43/43 42/42/42
f 44/44/44 46/46/46 45/45/45
f 44/44/44 47/47/47 46/46/46
f 48/48/48 50/50/50 49/49/49
f 48/48/48 51/51/51 50/50/50
f 52/52/52 54/54/54 53/53/53
f 52/52/52 55/55/55 54/54/54
f 56/56/56 58/58/58 57/57/57
f 56/56/56 59/59/59 58/58/58
f 60/60/60 62/62/62 61/61/61
f 60/60/60 63/63/63 62/62/62
f 64/64/64 66/66/66 65/65/65
f 64/64/64 67/67/67 66/66/66
f 68/68/68 70/70/70 69/69/69
f 68/68/68 71/71/71 70/70/70
f 72/72/72 74/74/74 73/73/73
f 72/72/72 75/75/75 74/74/74
f 76/76/76 78/78/78 77/77/77
f 76/76/76 79/79/79 78/78/78
f 80/80/80 82/82/82 81/81/81
f 80/80/80 83/83/83 82/82/82
f 84/84/84 86/86/86 85/85/85
f 84/84/84 87/87/87 86/86/86
f 88/88/88 90/90/90 89/89/89
f 88/88/88 91/91/91 90/90/90
f 92/92/92 94/94/94 93/93/93
f 92/92/92 95/95/95 94/94/94
f 96/96/96 98/98/98 97/97/97
f 96/96/96 99/99/99 98/98/98
f 100/100/100 102/102/102 101/101/101
f 100/100/100 103/103/103 102/102/102
f 104/104/104 106/106/106 105/105/105
f 104/104/104 107/107/107 106/106/106
f 108/108/108 110/110/110 109/109/109
f 108/108/108 111/111/111 110/110/110
f 112/112/112 114/114/114 113/113/113
f 112/112/112 115/115/115 114/114/114
f 116/116/116 118/118/118 117/117/117
f 116/116/116 119/119/119 118/118/118
f 120/120/120 122/122/122 121/121/121
f 120/120/120 123/123/123 122/122/122
f 124/124/124 126/126/126 125/125/125
f 124/124/124 127/127/127 126/126/126
f 128/128/128 130/130/130 129/129/129
f 128/128/128 131/131/131 130/130/130
f 132/132/132 134/134/134 133/133/133
f 132/132/132 135/135/135 134/134/134
f 136/136/136 138/138/138 137/137/137
f 136/136/136 139/139/139 138/138/138
f 140/140/140 142/142/142 141/141/141
f 140/140/140 143/143/143 142/142/142
f 144/144/144 146/146/146 145/145/145
f 144/144/144 147/147/147 146/146/146
f 148/148/148 150/150/150 149/149/149
f 148/148/148 151/151/151 150/150/150
f 152/152/152 154/154/154 153/153/153
f 152/152/152 155/155/155 154/154/154
f 156/156/156 158/158/158 157/157/157
f 156/156/156 159/159/159 158/158/158
f 160/160/160 162/162/162 161/161/161
f 160/160/160 163/163/163 162/162/162
f 164/164/164 166/166/166 165/165/165
f 164/164/164 167/167/167 166/166/166
f 168/168/168 170/170/170 169/169/169
f 168/168/168 171/171/171 170/170/170
f 172/172/172 174/174/174 173/173/173
f 175/175/175 177/177/177 176/176/176
f 178/178/178 180/180/180 179/179/179
f 181/181/181 183/183/183 182/182/182
f 184/184/184 186/186/186 185/185/185
f 187/187/187 189/189/189 188/188/188
f 190/190/190 192/192/192 191/191/191
f 193/193/193 195/195/195 194/194/194
f 196/196/196 198/198/198 197/197/197
f 199/199/199 201/201/201 200/200/200
