#Foliage6_6_3999_22.obj

v 0.01454517 -0.02577561 -0.0403583
v 0.004623739 -0.03397603 0.00109139
v 0.03878434 -0.02577561 -0.02105478
v -0.009663537 -0.02577556 -0.03817541
v -0.01825091 -0.02577556 -0.01778043
v -0.03822226 -0.02223217 0.001091399
v -0.02135099 -0.02577556 0.01996318
v -0.005297729 -0.02577556 0.03271797
v 0.0210939 -0.02577557 0.04035816
v 0.03059843 -0.02577559 0.01996317
v 0.03218931 -0.02223218 0.001091395
v 0.03878434 -0.02577561 -0.02105478
v 0.04796675 -0.01489234 -0.02772616
v 0.01805251 -0.01489234 -0.05115281
v 0.01454517 -0.02577561 -0.0403583
v 0.01454517 -0.02577561 -0.0403583
v 0.01805251 -0.01489234 -0.05115281
v -0.0131709 -0.01489233 -0.0489699
v -0.009663537 -0.02577556 -0.03817541
v -0.009663537 -0.02577556 -0.03817541
v -0.0131709 -0.01489233 -0.0489699
v -0.02743331 -0.01489234 -0.0244518
v -0.01825091 -0.02577556 -0.01778043
v -0.01825091 -0.02577556 -0.01778043
v -0.02743331 -0.01489234 -0.0244518
v -0.04796705 -0.01288813 0.001091371
v -0.03822226 -0.02223217 0.001091399
v -0.03822226 -0.02223217 0.001091399
v -0.04796705 -0.01288813 0.001091371
v -0.03053341 -0.0148923 0.02663457
v -0.02135099 -0.02577556 0.01996318
v -0.02135099 -0.02577556 0.01996318
v -0.03053341 -0.0148923 0.02663457
v -0.008805091 -0.01489232 0.04351249
v -0.005297729 -0.02577556 0.03271797
v -0.005297729 -0.02577556 0.03271797
v -0.008805091 -0.01489232 0.04351249
v 0.02460123 -0.01489229 0.05115266
v 0.0210939 -0.02577557 0.04035816
v 0.0210939 -0.02577557 0.04035816
v 0.02460123 -0.01489229 0.05115266
v 0.03978084 -0.01489236 0.02663458
v 0.03059843 -0.02577559 0.01996317
v 0.03059843 -0.02577559 0.01996317
v 0.03978084 -0.01489236 0.02663458
v 0.04193416 -0.0128881 0.0010914
v 0.03218931 -0.02223218 0.001091395
v 0.03218931 -0.02223218 0.001091395
v 0.04193416 -0.0128881 0.0010914
v 0.04796675 -0.01489234 -0.02772616
v 0.03878434 -0.02577561 -0.02105478
v 0.04796675 -0.01489234 -0.02772616
v 0.04796677 -0.0001482978 -0.02772618
v 0.01805254 -0.0001482904 -0.05115283
v 0.01805251 -0.01489234 -0.05115281
v 0.01805251 -0.01489234 -0.05115281
v 0.01805254 -0.0001482904 -0.05115283
v -0.01317093 -0.0001482793 -0.04896991
v -0.0131709 -0.01489233 -0.0489699
v -0.0131709 -0.01489233 -0.0489699
v -0.01317093 -0.0001482793 -0.04896991
v -0.02743334 -0.0001482945 -0.02445181
v -0.02743331 -0.01489234 -0.0244518
v -0.02743331 -0.01489234 -0.0244518
v -0.02743334 -0.0001482945 -0.02445181
v -0.04796705 -0.000229339 0.001091368
v -0.04796705 -0.01288813 0.001091371
v -0.04796705 -0.01288813 0.001091371
v -0.04796705 -0.000229339 0.001091368
v -0.03053341 -0.0001482572 0.02663459
v -0.03053341 -0.0148923 0.02663457
v -0.03053341 -0.0148923 0.02663457
v -0.03053341 -0.0001482572 0.02663459
v -0.008805066 -0.000148276 0.04351247
v -0.008805091 -0.01489232 0.04351249
v -0.008805091 -0.01489232 0.04351249
v -0.008805066 -0.000148276 0.04351247
v 0.02460123 -0.0001482413 0.05115268
v 0.02460123 -0.01489229 0.05115266
v 0.02460123 -0.01489229 0.05115266
v 0.02460123 -0.0001482413 0.05115268
v 0.03978084 -0.0001482309 0.02663459
v 0.03978084 -0.01489236 0.02663458
v 0.03978084 -0.01489236 0.02663458
v 0.03978084 -0.0001482309 0.02663459
v 0.04193413 -0.0002293897 0.001091373
v 0.04193416 -0.0128881 0.0010914
v 0.04193416 -0.0128881 0.0010914
v 0.04193413 -0.0002293897 0.001091373
v 0.04796677 -0.0001482978 -0.02772618
v 0.04796675 -0.01489234 -0.02772616
v 0.04796677 -0.0001482978 -0.02772618
v 0.04568877 0.0142834 -0.02539684
v 0.01714497 0.01428341 -0.04799132
v 0.01805254 -0.0001482904 -0.05115283
v 0.01805254 -0.0001482904 -0.05115283
v 0.01714497 0.01428341 -0.04799132
v -0.01182927 0.01428339 -0.04559771
v -0.01317093 -0.0001482793 -0.04896991
v -0.01317093 -0.0001482793 -0.04896991
v -0.01182927 0.01428339 -0.04559771
v -0.02321044 0.01428342 -0.02180646
v -0.02743334 -0.0001482945 -0.02445181
v -0.02743334 -0.0001482945 -0.02445181
v -0.02321044 0.01428342 -0.02180646
v -0.04530426 0.01197216 0.001196743
v -0.04796705 -0.000229339 0.001091368
v -0.04796705 -0.000229339 0.001091368
v -0.04530426 0.01197216 0.001196743
v -0.02660974 0.01428346 0.02419991
v -0.03053341 -0.0001482572 0.02663459
v -0.03053341 -0.0001482572 0.02663459
v -0.02660974 0.01428346 0.02419991
v -0.007042015 0.01428342 0.03961347
v -0.008805066 -0.000148276 0.04351247
v -0.008805066 -0.000148276 0.04351247
v -0.007042015 0.01428342 0.03961347
v 0.02432581 0.01428343 0.04799119
v 0.02460123 -0.0001482413 0.05115268
v 0.02460123 -0.0001482413 0.05115268
v 0.02432581 0.01428343 0.04799119
v 0.0367127 0.01428338 0.02419994
v 0.03978084 -0.0001482309 0.02663459
v 0.03978084 -0.0001482309 0.02663459
v 0.0367127 0.01428338 0.02419994
v 0.03865185 0.01197213 0.001196774
v 0.04193413 -0.0002293897 0.001091373
v 0.04193413 -0.0002293897 0.001091373
v 0.03865185 0.01197213 0.001196774
v 0.04568877 0.0142834 -0.02539684
v 0.04796677 -0.0001482978 -0.02772618
v 0.04568877 0.0142834 -0.02539684
v 0.03225232 0.02437444 -0.01614775
v 0.01203631 0.02437449 -0.0325687
v 0.01714497 0.01428341 -0.04799132
v 0.01714497 0.01428341 -0.04799132
v 0.01203631 0.02437449 -0.0325687
v -0.002592374 0.0243745 -0.02139388
v -0.01182927 0.01428339 -0.04559771
v -0.01182927 0.01428339 -0.04559771
v -0.002592374 0.0243745 -0.02139388
v -0.01125325 0.02437448 -0.01279529
v -0.02321044 0.01428342 -0.02180646
v -0.02321044 0.01428342 -0.02180646
v -0.01125325 0.02437448 -0.01279529
v -0.03124486 0.02074651 0.001117406
v -0.04530426 0.01197216 0.001196743
v -0.04530426 0.01197216 0.001196743
v -0.03124486 0.02074651 0.001117406
v -0.01442724 0.02437449 0.01503014
v -0.02660974 0.01428346 0.02419991
v -0.02660974 0.01428346 0.02419991
v -0.01442724 0.02437449 0.01503014
v -0.002592384 0.02437445 0.02474617
v -0.007042015 0.01428342 0.03961347
v -0.007042015 0.01428342 0.03961347
v -0.002592384 0.02437445 0.02474617
v 0.0187412 0.02437443 0.03256853
v 0.02432581 0.01428343 0.04799119
v 0.02432581 0.01428343 0.04799119
v 0.0187412 0.02437443 0.03256853
v 0.02387119 0.02437446 0.01503016
v 0.0367127 0.01428338 0.02419994
v 0.0367127 0.01428338 0.02419994
v 0.02387119 0.02437446 0.01503016
v 0.02504406 0.02074653 0.001117408
v 0.03865185 0.01197213 0.001196774
v 0.03865185 0.01197213 0.001196774
v 0.02504406 0.02074653 0.001117408
v 0.03225232 0.02437444 -0.01614775
v 0.04568877 0.0142834 -0.02539684
v 0.03225232 0.02437444 -0.01614775
v 0.004623712 0.03397613 0.001091364
v 0.01203631 0.02437449 -0.0325687
v 0.01203631 0.02437449 -0.0325687
v 0.004623712 0.03397613 0.001091364
v -0.002592374 0.0243745 -0.02139388
v -0.002592374 0.0243745 -0.02139388
v 0.004623712 0.03397613 0.001091364
v -0.01125325 0.02437448 -0.01279529
v -0.01125325 0.02437448 -0.01279529
v 0.004623712 0.03397613 0.001091364
v -0.03124486 0.02074651 0.001117406
v -0.03124486 0.02074651 0.001117406
v 0.004623712 0.03397613 0.001091364
v -0.01442724 0.02437449 0.01503014
v -0.01442724 0.02437449 0.01503014
v 0.004623712 0.03397613 0.001091364
v -0.002592384 0.02437445 0.02474617
v -0.002592384 0.02437445 0.02474617
v 0.004623712 0.03397613 0.001091364
v 0.0187412 0.02437443 0.03256853
v 0.0187412 0.02437443 0.03256853
v 0.004623712 0.03397613 0.001091364
v 0.02387119 0.02437446 0.01503016
v 0.02387119 0.02437446 0.01503016
v 0.004623712 0.03397613 0.001091364
v 0.02504406 0.02074653 0.001117408
v 0.02504406 0.02074653 0.001117408
v 0.004623712 0.03397613 0.001091364
v 0.03225232 0.02437444 -0.01614775

vn -0.04376307 -0.9795339 -0.1964621
vn 0.01549641 -0.999733 -0.0171195
vn 0.1420473 -0.9737781 -0.1777019
vn -0.1566923 -0.9818143 -0.1071791
vn -0.2565672 -0.9649745 0.05474106
vn -0.2103855 -0.9695012 0.1257164
vn -0.1035652 -0.9729955 0.2062844
vn 0.06305593 -0.973215 0.2210782
vn 0.1676336 -0.9812254 0.09536722
vn 0.2580685 -0.9525214 -0.1615635
vn 0.3866156 -0.9075114 -0.164167
vn 0.03668144 -0.691941 -0.7210214
vn 0.03668138 -0.691941 -0.7210214
vn 0.03668147 -0.691941 -0.7210213
vn 0.03668138 -0.691941 -0.7210214
vn -0.4529715 -0.7007943 -0.551093
vn -0.4529715 -0.7007945 -0.551093
vn -0.4529715 -0.7007943 -0.551093
vn -0.4529715 -0.7007944 -0.551093
vn -0.7304322 -0.6743321 0.1083724
vn -0.7304323 -0.674332 0.1083724
vn -0.7304322 -0.6743321 0.1083724
vn -0.7304322 -0.674332 0.1083725
vn -0.7172649 -0.6962748 -0.02705741
vn -0.717265 -0.6962747 -0.02705735
vn -0.717265 -0.6962747 -0.02705738
vn -0.7172649 -0.6962747 -0.02705732
vn -0.2557072 -0.70973 0.6564272
vn -0.2557072 -0.70973 0.6564272
vn -0.2557072 -0.7097299 0.6564273
vn -0.2557072 -0.70973 0.6564273
vn -0.01467305 -0.715598 0.6983577
vn -0.01467314 -0.715598 0.6983578
vn -0.01467311 -0.715598 0.6983577
vn -0.01467308 -0.715598 0.6983577
vn 0.2773797 -0.699743 0.6583461
vn 0.2773796 -0.699743 0.6583461
vn 0.2773797 -0.699743 0.6583461
vn 0.2773797 -0.699743 0.6583461
vn 0.7475593 -0.655763 -0.1054972
vn 0.7475593 -0.655763 -0.1054972
vn 0.7475593 -0.655763 -0.1054972
vn 0.7475594 -0.655763 -0.1054973
vn 0.5887415 -0.6633969 -0.4618306
vn 0.5887415 -0.663397 -0.4618306
vn 0.5887415 -0.6633969 -0.4618306
vn 0.5887415 -0.6633969 -0.4618306
vn 0.7603673 -0.6009821 -0.2462963
vn 0.7603673 -0.600982 -0.2462964
vn 0.7603673 -0.6009821 -0.2462963
vn 0.7603672 -0.600982 -0.2462963
vn 0.03395316 0.01659609 -0.9992855
vn 0.03395322 0.01659609 -0.9992855
vn 0.03395322 0.01659609 -0.9992855
vn 0.03395316 0.01659609 -0.9992855
vn -0.6443089 0.003211136 -0.7647585
vn -0.6443089 0.003211136 -0.7647585
vn -0.6443089 0.003211136 -0.7647585
vn -0.6443089 0.003211136 -0.7647585
vn -0.9945446 -0.01574361 0.1031172
vn -0.9945446 -0.01574361 0.1031172
vn -0.9945446 -0.01574361 0.1031172
vn -0.9945446 -0.01574361 0.1031172
vn -0.9988096 -0.01338461 -0.04690453
vn -0.9988097 -0.01338461 -0.0469045
vn -0.9988096 -0.01338461 -0.04690453
vn -0.9988096 -0.01338461 -0.04690453
vn -0.3348636 -0.0199334 0.9420556
vn -0.3348636 -0.0199334 0.9420556
vn -0.3348636 -0.0199334 0.9420557
vn -0.3348636 -0.0199334 0.9420556
vn -0.03000262 -0.01654221 0.9994128
vn -0.03000262 -0.01654221 0.9994128
vn -0.03000262 -0.01654221 0.9994128
vn -0.03000262 -0.01654221 0.9994128
vn 0.3945001 -0.009232907 0.9188493
vn 0.3945001 -0.009232907 0.9188493
vn 0.3945001 -0.009232907 0.9188493
vn 0.3945001 -0.009232907 0.9188493
vn 0.9970101 0.01533693 -0.07573539
vn 0.9970101 0.01533693 -0.07573539
vn 0.9970101 0.01533693 -0.07573539
vn 0.9970101 0.01533693 -0.07573539
vn 0.8543655 0.02047022 -0.5192693
vn 0.8543655 0.02047022 -0.5192693
vn 0.8543655 0.02047022 -0.5192693
vn 0.8543655 0.02047022 -0.5192693
vn 0.9113404 0.01953388 -0.41119
vn 0.9113404 0.01953388 -0.41119
vn 0.9113404 0.01953388 -0.41119
vn 0.9113404 0.01953388 -0.41119
vn 0.03265461 0.228958 -0.9728884
vn 0.03265461 0.228958 -0.9728883
vn 0.03265461 0.228958 -0.9728883
vn 0.03265461 0.228958 -0.9728883
vn -0.6359969 0.2241881 -0.7384087
vn -0.6359969 0.2241881 -0.7384087
vn -0.6359969 0.2241881 -0.7384087
vn -0.6359969 0.2241881 -0.7384087
vn -0.9596964 0.2430946 0.1410244
vn -0.9596964 0.2430946 0.1410244
vn -0.9596964 0.2430946 0.1410243
vn -0.9596964 0.2430945 0.1410244
vn -0.9674199 0.2421867 -0.07378542
vn -0.9674199 0.2421867 -0.07378545
vn -0.9674199 0.2421867 -0.07378542
vn -0.9674199 0.2421867 -0.07378536
vn -0.299785 0.2246411 0.9271813
vn -0.299785 0.2246412 0.9271813
vn -0.299785 0.2246411 0.9271812
vn -0.299785 0.2246411 0.9271813
vn -0.03586838 0.2662835 0.963227
vn -0.03586847 0.2662835 0.963227
vn -0.03586844 0.2662835 0.963227
vn -0.03586844 0.2662835 0.963227
vn 0.3635705 0.2330436 0.9019462
vn 0.3635705 0.2330436 0.9019462
vn 0.3635705 0.2330436 0.9019462
vn 0.3635705 0.2330436 0.9019462
vn 0.972235 0.2085285 -0.1061846
vn 0.972235 0.2085285 -0.1061846
vn 0.9722348 0.2085285 -0.1061845
vn 0.972235 0.2085285 -0.1061846
vn 0.8205248 0.2570631 -0.5105462
vn 0.8205249 0.2570631 -0.5105463
vn 0.8205249 0.2570631 -0.5105463
vn 0.8205249 0.2570631 -0.5105463
vn 0.9070457 0.1971445 -0.3720244
vn 0.9070457 0.1971445 -0.3720244
vn 0.9070457 0.1971445 -0.3720244
vn 0.9070457 0.1971445 -0.3720244
vn 0.01246846 0.8458068 -0.533343
vn 0.0124684 0.8458068 -0.533343
vn 0.01246846 0.8458068 -0.533343
vn 0.0124684 0.8458068 -0.533343
vn -0.38106 0.8874245 -0.2593653
vn -0.38106 0.8874245 -0.2593653
vn -0.38106 0.8874245 -0.2593653
vn -0.38106 0.8874245 -0.2593653
vn -0.5050421 0.8615524 0.05156867
vn -0.5050421 0.8615524 0.05156864
vn -0.5050421 0.8615524 0.05156867
vn -0.5050421 0.8615524 0.05156864
vn -0.6030322 0.7970676 -0.03216705
vn -0.6030322 0.7970676 -0.03216705
vn -0.6030322 0.7970676 -0.03216705
vn -0.6030322 0.7970676 -0.03216705
vn -0.2033278 0.8068935 0.5545989
vn -0.2033278 0.8068936 0.5545989
vn -0.2033278 0.8068935 0.5545989
vn -0.2033278 0.8068935 0.5545989
vn -0.03694317 0.8125466 0.5817238
vn -0.0369432 0.8125465 0.5817238
vn -0.03694317 0.8125465 0.5817239
vn -0.0369432 0.8125465 0.5817238
vn 0.1763484 0.8109221 0.557948
vn 0.1763484 0.8109221 0.5579479
vn 0.1763484 0.8109221 0.5579479
vn 0.1763484 0.8109221 0.5579479
vn 0.5777931 0.8066078 -0.1246524
vn 0.5777931 0.8066078 -0.1246525
vn 0.5777931 0.8066078 -0.1246524
vn 0.5777931 0.8066078 -0.1246525
vn 0.4247411 0.8111924 -0.4019469
vn 0.424741 0.8111925 -0.4019469
vn 0.4247411 0.8111925 -0.4019469
vn 0.4247411 0.8111924 -0.4019469
vn 0.6596166 0.743789 -0.1080903
vn 0.6596166 0.743789 -0.1080904
vn 0.6596166 0.743789 -0.1080903
vn 0.6596166 0.743789 -0.1080903
vn 0.00188759 0.9594772 -0.2817783
vn 0.00188756 0.9594772 -0.2817783
vn 0.00188759 0.9594772 -0.2817783
vn -0.3928677 0.9143756 -0.09783436
vn -0.3928677 0.9143756 -0.09783439
vn -0.3928677 0.9143756 -0.09783438
vn -0.4227768 0.9047981 -0.0509855
vn -0.4227768 0.9047981 -0.05098553
vn -0.4227768 0.9047981 -0.05098547
vn -0.4284595 0.9034457 0.01441294
vn -0.4284595 0.9034457 0.01441295
vn -0.4284595 0.9034457 0.01441295
vn -0.187629 0.9162967 0.3538291
vn -0.187629 0.9162967 0.3538291
vn -0.187629 0.9162967 0.3538291
vn -0.03510404 0.9152269 0.4014059
vn -0.03510405 0.915227 0.4014059
vn -0.03510405 0.915227 0.4014059
vn 0.08658748 0.9275996 0.3634016
vn 0.08658745 0.9275996 0.3634016
vn 0.08658747 0.9275996 0.3634016
vn 0.3577917 0.9262258 -0.1187014
vn 0.3577918 0.9262258 -0.1187015
vn 0.3577918 0.9262258 -0.1187015
vn 0.3207057 0.8387106 -0.4401271
vn 0.3207056 0.8387106 -0.4401271
vn 0.3207056 0.8387107 -0.4401271
vn 0.6164487 0.7871947 0.01775154
vn 0.6164486 0.7871947 0.01775163
vn 0.6164487 0.7871947 0.01775157

vt 0.5482839 0.007647395
vt 0.5 0.15
vt 0.6264089 0.06440853
vt 0.4517161 0.00764741
vt 0.3735911 0.06440856
vt 0.34375 0.15625
vt 0.3735911 0.2480915
vt 0.4517161 0.3048526
vt 0.5482839 0.3048526
vt 0.6264089 0.2480914
vt 0.65625 0.15625
vt 0 0
vt 0 1
vt 1 1
vt 1 0
vt 0 0
vt 0 1
vt 1 1
vt 1 0
vt 0 0
vt 0 1
vt 1 1
vt 1 0
vt 0 0
vt 0 1
vt 1 1
vt 1 0
vt 0 0
vt 0 1
vt 1 1
vt 1 0
vt 0 0
vt 0 1
vt 1 1
vt 1 0
vt 0 0
vt 0 1
vt 1 1
vt 1 0
vt 0 0
vt 0 1
vt 1 1
vt 1 0
vt 0 0
vt 0 1
vt 1 1
vt 1 0
vt 0 0
vt 0 1
vt 1 1
vt 1 0
vt 0 0
vt 0 1
vt 1 1
vt 1 0
vt 0 0
vt 0 1
vt 1 1
vt 1 0
vt 0 0
vt 0 1
vt 1 1
vt 1 0
vt 0 0
vt 0 1
vt 1 1
vt 1 0
vt 0 0
vt 0 1
vt 1 1
vt 1 0
vt 0 0
vt 0 1
vt 1 1
vt 1 0
vt 0 0
vt 0 1
vt 1 1
vt 1 0
vt 0 0
vt 0 1
vt 1 1
vt 1 0
vt 0 0
vt 0 1
vt 1 1
vt 1 0
vt 0 0
vt 0 1
vt 1 1
vt 1 0
vt 0 0
vt 0 1
vt 1 1
vt 1 0
vt 0 0
vt 0 1
vt 1 1
vt 1 0
vt 0 0
vt 0 1
vt 1 1
vt 1 0
vt 0 0
vt 0 1
vt 1 1
vt 1 0
vt 0 0
vt 0 1
vt 1 1
vt 1 0
vt 0 0
vt 0 1
vt 1 1
vt 1 0
vt 0 0
vt 0 1
vt 1 1
vt 1 0
vt 0 0
vt 0 1
vt 1 1
vt 1 0
vt 0 0
vt 0 1
vt 1 1
vt 1 0
vt 0 0
vt 0 1
vt 1 1
vt 1 0
vt 0 0
vt 0 1
vt 1 1
vt 1 0
vt 0 0
vt 0 1
vt 1 1
vt 1 0
vt 0 0
vt 0 1
vt 1 1
vt 1 0
vt 0 0
vt 0 1
vt 1 1
vt 1 0
vt 0 0
vt 0 1
vt 1 1
vt 1 0
vt 0 0
vt 0 1
vt 1 1
vt 1 0
vt 0 0
vt 0 1
vt 1 1
vt 1 0
vt 0 0
vt 0 1
vt 1 1
vt 1 0
vt 0 0
vt 0 1
vt 1 1
vt 1 0
vt 0 0
vt 0 1
vt 1 1
vt 1 0
vt 0 0
vt 0.5 1
vt 1 0
vt 0 0
vt 0.5 1
vt 1 0
vt 0 0
vt 0.5 1
vt 1 0
vt 0 0
vt 0.5 1
vt 1 0
vt 0 0
vt 0.5 1
vt 1 0
vt 0 0
vt 0.5 1
vt 1 0
vt 0 0
vt 0.5 1
vt 1 0
vt 0 0
vt 0.5 1
vt 1 0
vt 0 0
vt 0.5 1
vt 1 0
vt 0 0
vt 0.5 1
vt 1 0

g Foliage6_6_3999_22
usemtl Foliage6_6_3999_22
usemap Foliage6_6_3999_22
f 1/1/1 3/3/3 2/2/2
f 4/4/4 1/1/1 2/2/2
f 5/5/5 4/4/4 2/2/2
f 6/6/6 5/5/5 2/2/2
f 7/7/7 6/6/6 2/2/2
f 8/8/8 7/7/7 2/2/2
f 9/9/9 8/8/8 2/2/2
f 10/10/10 9/9/9 2/2/2
f 11/11/11 10/10/10 2/2/2
f 3/3/3 11/11/11 2/2/2
f 12/12/12 14/14/14 13/13/13
f 12/12/12 15/15/15 14/14/14
f 16/16/16 18/18/18 17/17/17
f 16/16/16 19/19/19 18/18/18
f 20/20/20 22/22/22 21/21/21
f 20/20/20 23/23/23 22/22/22
f 24/24/24 26/26/26 25/25/25
f 24/24/24 27/27/27 26/26/26
f 28/28/28 30/30/30 29/29/29
f 28/28/28 31/31/31 30/30/30
f 32/32/32 34/34/34 33/33/33
f 32/32/32 35/35/35 34/34/34
f 36/36/36 38/38/38 37/37/37
f 36/36/36 39/39/39 38/38/38
f 40/40/40 42/42/42 41/41/41
f 40/40/40 43/43/43 42/42/42
f 44/44/44 46/46/46 45/45/45
f 44/44/44 47/47/47 46/46/46
f 48/48/48 50/50/50 49/49/49
f 48/48/48 51/51/51 50/50/50
f 52/52/52 54/54/54 53/53/53
f 52/52/52 55/55/55 54/54/54
f 56/56/56 58/58/58 57/57/57
f 56/56/56 59/59/59 58/58/58
f 60/60/60 62/62/62 61/61/61
f 60/60/60 63/63/63 62/62/62
f 64/64/64 66/66/66 65/65/65
f 64/64/64 67/67/67 66/66/66
f 68/68/68 70/70/70 69/69/69
f 68/68/68 71/71/71 70/70/70
f 72/72/72 74/74/74 73/73/73
f 72/72/72 75/75/75 74/74/74
f 76/76/76 78/78/78 77/77/77
f 76/76/76 79/79/79 78/78/78
f 80/80/80 82/82/82 81/81/81
f 80/80/80 83/83/83 82/82/82
f 84/84/84 86/86/86 85/85/85
f 84/84/84 87/87/87 86/86/86
f 88/88/88 90/90/90 89/89/89
f 88/88/88 91/91/91 90/90/90
f 92/92/92 94/94/94 93/93/93
f 92/92/92 95/95/95 94/94/94
f 96/96/96 98/98/98 97/97/97
f 96/96/96 99/99/99 98/98/98
f 100/100/100 102/102/102 101/101/101
f 100/100/100 103/103/103 102/102/102
f 104/104/104 106/106/106 105/105/105
f 104/104/104 107/107/107 106/106/106
f 108/108/108 110/110/110 109/109/109
f 108/108/108 111/111/111 110/110/110
f 112/112/112 114/114/114 113/113/113
f 112/112/112 115/115/115 114/114/114
f 116/116/116 118/118/118 117/117/117
f 116/116/116 119/119/119 118/118/118
f 120/120/120 122/122/122 121/121/121
f 120/120/120 123/123/123 122/122/122
f 124/124/124 126/126/126 125/125/125
f 124/124/124 127/127/127 126/126/126
f 128/128/128 130/130/130 129/129/129
f 128/128/128 131/131/131 130/130/130
f 132/132/132 134/134/134 133/133/133
f 132/132/132 135/135/135 134/134/134
f 136/136/136 138/138/138 137/137/137
f 136/136/136 139/139/139 138/138/138
f 140/140/140 142/142/142 141/141/141
f 140/140/140 143/143/143 142/142/142
f 144/144/144 146/146/146 145/145/145
f 144/144/144 147/147/147 146/146/146
f 148/148/148 150/150/150 149/149/149
f 148/148/148 151/151/151 150/150/150
f 152/152/152 154/154/154 153/153/153
f 152/152/152 155/155/155 154/154/154
f 156/156/156 158/158/158 157/157/157
f 156/156/156 159/159/159 158/158/158
f 160/160/160 162/162/162 161/161/161
f 160/160/160 163/163/163 162/162/162
f 164/164/164 166/166/166 165/165/165
f 164/164/164 167/167/167 166/166/166
f 168/168/168 170/170/170 169/169/169
f 168/168/168 171/171/171 170/170/170
f 172/172/172 174/174/174 173/173/173
f 175/175/175 177/177/177 176/176/176
f 178/178/178 180/180/180 179/179/179
f 181/181/181 183/183/183 182/182/182
f 184/184/184 186/186/186 185/185/185
f 187/187/187 189/189/189 188/188/188
f 190/190/190 192/192/192 191/191/191
f 193/193/193 195/195/195 194/194/194
f 196/196/196 198/198/198 197/197/197
f 199/199/199 201/201/201 200/200/200
