#Foliage8_28_4113_147.obj

v 0.0145415 -0.02577534 -0.0403594
v 0.00462013 -0.0339758 0.001090545
v 0.03878051 -0.02577533 -0.02105575
v -0.009666881 -0.02577541 -0.03817607
v -0.01825474 -0.0257753 -0.01778166
v -0.03822534 -0.02223196 0.001090549
v -0.02135479 -0.02577533 0.01996213
v -0.005301481 -0.02577536 0.03271708
v 0.02109054 -0.0257754 0.0403573
v 0.0305953 -0.02577542 0.0199625
v 0.03218564 -0.02223187 0.001090317
v 0.03878051 -0.02577533 -0.02105575
v 0.04796339 -0.01489212 -0.02772707
v 0.01804886 -0.01489205 -0.05115393
v 0.0145415 -0.02577534 -0.0403594
v 0.0145415 -0.02577534 -0.0403594
v 0.01804886 -0.01489205 -0.05115393
v -0.01317425 -0.01489208 -0.04897093
v -0.009666881 -0.02577541 -0.03817607
v -0.009666881 -0.02577541 -0.03817607
v -0.01317425 -0.01489208 -0.04897093
v -0.02743663 -0.01489214 -0.02445269
v -0.01825474 -0.0257753 -0.01778166
v -0.01825474 -0.0257753 -0.01778166
v -0.02743663 -0.01489214 -0.02445269
v -0.04797053 -0.01288789 0.001090256
v -0.03822534 -0.02223196 0.001090549
v -0.03822534 -0.02223196 0.001090549
v -0.04797053 -0.01288789 0.001090256
v -0.03053657 -0.01489212 0.02663375
v -0.02135479 -0.02577533 0.01996213
v -0.02135479 -0.02577533 0.01996213
v -0.03053657 -0.01489212 0.02663375
v -0.008808512 -0.01489208 0.04351143
v -0.005301481 -0.02577536 0.03271708
v -0.005301481 -0.02577536 0.03271708
v -0.008808512 -0.01489208 0.04351143
v 0.02459744 -0.01489204 0.05115151
v 0.02109054 -0.0257754 0.0403573
v 0.02109054 -0.0257754 0.0403573
v 0.02459744 -0.01489204 0.05115151
v 0.03977726 -0.0148921 0.02663374
v 0.0305953 -0.02577542 0.0199625
v 0.0305953 -0.02577542 0.0199625
v 0.03977726 -0.0148921 0.02663374
v 0.04193063 -0.01288795 0.001090515
v 0.03218564 -0.02223187 0.001090317
v 0.03218564 -0.02223187 0.001090317
v 0.04193063 -0.01288795 0.001090515
v 0.04796339 -0.01489212 -0.02772707
v 0.03878051 -0.02577533 -0.02105575
v 0.04796339 -0.01489212 -0.02772707
v 0.0479629 -0.0001479988 -0.02772719
v 0.01804915 -0.000148078 -0.05115357
v 0.01804886 -0.01489205 -0.05115393
v 0.01804886 -0.01489205 -0.05115393
v 0.01804915 -0.000148078 -0.05115357
v -0.01317475 -0.0001480135 -0.04897105
v -0.01317425 -0.01489208 -0.04897093
v -0.01317425 -0.01489208 -0.04897093
v -0.01317475 -0.0001480135 -0.04897105
v -0.02743712 -0.0001480173 -0.0244528
v -0.02743663 -0.01489214 -0.02445269
v -0.02743663 -0.01489214 -0.02445269
v -0.02743712 -0.0001480173 -0.0244528
v -0.04797088 -0.0002290911 0.001090234
v -0.04797053 -0.01288789 0.001090256
v -0.04797053 -0.01288789 0.001090256
v -0.04797088 -0.0002290911 0.001090234
v -0.03053707 -0.0001479971 0.02663363
v -0.03053657 -0.01489212 0.02663375
v -0.03053657 -0.01489212 0.02663375
v -0.03053707 -0.0001479971 0.02663363
v -0.008808223 -0.0001481063 0.04351179
v -0.008808512 -0.01489208 0.04351143
v -0.008808512 -0.01489208 0.04351143
v -0.008808223 -0.0001481063 0.04351179
v 0.02459773 -0.0001480671 0.05115187
v 0.02459744 -0.01489204 0.05115151
v 0.02459744 -0.01489204 0.05115151
v 0.02459773 -0.0001480671 0.05115187
v 0.03977779 -0.0001480371 0.02663371
v 0.03977726 -0.0148921 0.02663374
v 0.03977726 -0.0148921 0.02663374
v 0.03977779 -0.0001480371 0.02663371
v 0.04193028 -0.0002291488 0.001090493
v 0.04193063 -0.01288795 0.001090515
v 0.04193063 -0.01288795 0.001090515
v 0.04193028 -0.0002291488 0.001090493
v 0.0479629 -0.0001479988 -0.02772719
v 0.04796339 -0.01489212 -0.02772707
v 0.0479629 -0.0001479988 -0.02772719
v 0.04568523 0.01428366 -0.0253978
v 0.01714151 0.01428367 -0.0479922
v 0.01804915 -0.000148078 -0.05115357
v 0.01804915 -0.000148078 -0.05115357
v 0.01714151 0.01428367 -0.0479922
v -0.01183288 0.01428369 -0.04559877
v -0.01317475 -0.0001480135 -0.04897105
v -0.01317475 -0.0001480135 -0.04897105
v -0.01183288 0.01428369 -0.04559877
v -0.02321393 0.01428362 -0.02180715
v -0.02743712 -0.0001480173 -0.0244528
v -0.02743712 -0.0001480173 -0.0244528
v -0.02321393 0.01428362 -0.02180715
v -0.0453081 0.01197242 0.001195667
v -0.04797088 -0.0002290911 0.001090234
v -0.04797088 -0.0002290911 0.001090234
v -0.0453081 0.01197242 0.001195667
v -0.0266133 0.01428364 0.02419914
v -0.03053707 -0.0001479971 0.02663363
v -0.03053707 -0.0001479971 0.02663363
v -0.0266133 0.01428364 0.02419914
v -0.007045398 0.01428365 0.03961268
v -0.008808223 -0.0001481063 0.04351179
v -0.008808223 -0.0001481063 0.04351179
v -0.007045398 0.01428365 0.03961268
v 0.02432265 0.01428361 0.04799052
v 0.02459773 -0.0001480671 0.05115187
v 0.02459773 -0.0001480671 0.05115187
v 0.02432265 0.01428361 0.04799052
v 0.03670953 0.01428359 0.02419921
v 0.03977779 -0.0001480371 0.02663371
v 0.03977779 -0.0001480371 0.02663371
v 0.03670953 0.01428359 0.02419921
v 0.03864859 0.0119724 0.001195733
v 0.04193028 -0.0002291488 0.001090493
v 0.04193028 -0.0002291488 0.001090493
v 0.03864859 0.0119724 0.001195733
v 0.04568523 0.01428366 -0.0253978
v 0.0479629 -0.0001479988 -0.02772719
v 0.04568523 0.01428366 -0.0253978
v 0.03224893 0.0243747 -0.01614876
v 0.01203301 0.0243747 -0.03256969
v 0.01714151 0.01428367 -0.0479922
v 0.01714151 0.01428367 -0.0479922
v 0.01203301 0.0243747 -0.03256969
v -0.002596214 0.0243747 -0.02139501
v -0.01183288 0.01428369 -0.04559877
v -0.01183288 0.01428369 -0.04559877
v -0.002596214 0.0243747 -0.02139501
v -0.01125642 0.02437465 -0.01279602
v -0.02321393 0.01428362 -0.02180715
v -0.02321393 0.01428362 -0.02180715
v -0.01125642 0.02437465 -0.01279602
v -0.03124809 0.02074675 0.001116564
v -0.0453081 0.01197242 0.001195667
v -0.0453081 0.01197242 0.001195667
v -0.03124809 0.02074675 0.001116564
v -0.01443035 0.02437467 0.01502942
v -0.0266133 0.01428364 0.02419914
v -0.0266133 0.01428364 0.02419914
v -0.01443035 0.02437467 0.01502942
v -0.002595523 0.02437463 0.02474548
v -0.007045398 0.01428365 0.03961268
v -0.007045398 0.01428365 0.03961268
v -0.002595523 0.02437463 0.02474548
v 0.01873787 0.02437463 0.03256785
v 0.02432265 0.01428361 0.04799052
v 0.02432265 0.01428361 0.04799052
v 0.01873787 0.02437463 0.03256785
v 0.02386757 0.02437473 0.0150289
v 0.03670953 0.01428359 0.02419921
v 0.03670953 0.01428359 0.02419921
v 0.02386757 0.02437473 0.0150289
v 0.02504043 0.0207468 0.00111626
v 0.03864859 0.0119724 0.001195733
v 0.03864859 0.0119724 0.001195733
v 0.02504043 0.0207468 0.00111626
v 0.03224893 0.0243747 -0.01614876
v 0.04568523 0.01428366 -0.0253978
v 0.03224893 0.0243747 -0.01614876
v 0.004620411 0.03397631 0.001090562
v 0.01203301 0.0243747 -0.03256969
v 0.01203301 0.0243747 -0.03256969
v 0.004620411 0.03397631 0.001090562
v -0.002596214 0.0243747 -0.02139501
v -0.002596214 0.0243747 -0.02139501
v 0.004620411 0.03397631 0.001090562
v -0.01125642 0.02437465 -0.01279602
v -0.01125642 0.02437465 -0.01279602
v 0.004620411 0.03397631 0.001090562
v -0.03124809 0.02074675 0.001116564
v -0.03124809 0.02074675 0.001116564
v 0.004620411 0.03397631 0.001090562
v -0.01443035 0.02437467 0.01502942
v -0.01443035 0.02437467 0.01502942
v 0.004620411 0.03397631 0.001090562
v -0.002595523 0.02437463 0.02474548
v -0.002595523 0.02437463 0.02474548
v 0.004620411 0.03397631 0.001090562
v 0.01873787 0.02437463 0.03256785
v 0.01873787 0.02437463 0.03256785
v 0.004620411 0.03397631 0.001090562
v 0.02386757 0.02437473 0.0150289
v 0.02386757 0.02437473 0.0150289
v 0.004620411 0.03397631 0.001090562
v 0.02504043 0.0207468 0.00111626
v 0.02504043 0.0207468 0.00111626
v 0.004620411 0.03397631 0.001090562
v 0.03224893 0.0243747 -0.01614876

vn 0.05606103 -0.9935163 -0.09890207
vn 0.1009957 -0.9911928 0.08564851
vn 0.2383916 -0.9689001 -0.06634133
vn -0.06360767 -0.9977944 -0.01895982
vn -0.1782408 -0.9750785 0.1321029
vn -0.1381869 -0.9686247 0.206566
vn -0.03886059 -0.9546496 0.295183
vn 0.1252692 -0.9381005 0.3229147
vn 0.2406801 -0.9482224 0.2072351
vn 0.3503689 -0.9356046 -0.0434139
vn 0.4744107 -0.8793708 -0.04050341
vn 0.1573115 -0.7503768 -0.6420181
vn 0.1573114 -0.7503768 -0.6420181
vn 0.1573115 -0.7503768 -0.6420181
vn 0.1573114 -0.7503768 -0.6420181
vn -0.3427707 -0.7883417 -0.5109057
vn -0.3427707 -0.7883418 -0.5109057
vn -0.3427707 -0.7883417 -0.5109057
vn -0.3427707 -0.7883418 -0.5109057
vn -0.6777438 -0.7256485 0.1187307
vn -0.6777439 -0.7256484 0.1187307
vn -0.6777438 -0.7256485 0.1187307
vn -0.6777439 -0.7256484 0.1187307
vn -0.6510546 -0.7589304 -0.01232702
vn -0.6510547 -0.7589303 -0.01232696
vn -0.6510547 -0.7589303 -0.01232699
vn -0.6510546 -0.7589303 -0.01232693
vn -0.2511665 -0.6653553 0.7030057
vn -0.2511665 -0.6653553 0.7030057
vn -0.2511666 -0.6653552 0.7030058
vn -0.2511666 -0.6653553 0.7030058
vn -0.01505393 -0.6449854 0.7640461
vn -0.01505399 -0.6449854 0.7640462
vn -0.01505396 -0.6449854 0.7640461
vn -0.01505396 -0.6449854 0.7640461
vn 0.2769974 -0.606086 0.745608
vn 0.2769974 -0.6060861 0.7456081
vn 0.2769974 -0.6060861 0.7456081
vn 0.2769974 -0.606086 0.745608
vn 0.8064193 -0.5909922 0.02038783
vn 0.8064193 -0.5909922 0.02038786
vn 0.8064193 -0.5909922 0.02038786
vn 0.8064194 -0.5909922 0.0203878
vn 0.6803845 -0.6467492 -0.3446617
vn 0.6803845 -0.6467493 -0.3446617
vn 0.6803845 -0.6467492 -0.3446617
vn 0.6803845 -0.6467492 -0.3446617
vn 0.8267624 -0.5487583 -0.1238059
vn 0.8267624 -0.5487583 -0.123806
vn 0.8267624 -0.5487583 -0.1238059
vn 0.8267624 -0.5487583 -0.1238059
vn 0.1191697 -0.0744606 -0.9900777
vn 0.1191697 -0.0744606 -0.9900777
vn 0.1191697 -0.0744606 -0.9900777
vn 0.1191697 -0.0744606 -0.9900777
vn -0.5733702 -0.1282414 -0.8091974
vn -0.5733702 -0.1282414 -0.8091974
vn -0.5733702 -0.1282414 -0.8091974
vn -0.5733702 -0.1282414 -0.8091974
vn -0.9948779 -0.09767003 0.02604455
vn -0.9948779 -0.09767003 0.02604455
vn -0.9948779 -0.09767003 0.02604455
vn -0.9948779 -0.09767003 0.02604455
vn -0.9862696 -0.109844 -0.1233139
vn -0.9862697 -0.109844 -0.1233139
vn -0.9862696 -0.109844 -0.1233139
vn -0.9862696 -0.109844 -0.1233139
vn -0.4126143 0.03800084 0.9101127
vn -0.4126143 0.03800084 0.9101127
vn -0.4126142 0.03800086 0.9101127
vn -0.4126143 0.03800084 0.9101127
vn -0.1152637 0.07489051 0.9905076
vn -0.1152637 0.07489051 0.9905076
vn -0.1152637 0.07489051 0.9905076
vn -0.1152637 0.07489051 0.9905076
vn 0.3125088 0.1137237 0.9430825
vn 0.3125088 0.1137237 0.9430825
vn 0.3125088 0.1137237 0.9430825
vn 0.3125088 0.1137237 0.9430825
vn 0.9949793 0.1000714 0.001345754
vn 0.9949793 0.1000714 0.001345754
vn 0.9949793 0.1000714 0.001345754
vn 0.9949793 0.1000714 0.001345754
vn 0.8915045 0.05025589 -0.4502155
vn 0.8915045 0.05025589 -0.4502155
vn 0.8915045 0.05025589 -0.4502155
vn 0.8915045 0.05025589 -0.4502155
vn 0.938745 0.06475646 -0.3384736
vn 0.9387449 0.06475646 -0.3384737
vn 0.938745 0.06475646 -0.3384736
vn 0.938745 0.06475646 -0.3384736
vn 0.09771636 0.1384132 -0.985542
vn 0.09771633 0.1384132 -0.9855419
vn 0.09771633 0.1384132 -0.9855419
vn 0.09771633 0.1384132 -0.9855419
vn -0.5860043 0.09405465 -0.8048306
vn -0.5860044 0.09405467 -0.8048306
vn -0.5860044 0.09405467 -0.8048306
vn -0.5860044 0.09405467 -0.8048306
vn -0.9853613 0.1656932 0.04010919
vn -0.9853613 0.1656932 0.04010922
vn -0.9853613 0.1656932 0.04010913
vn -0.9853613 0.1656931 0.04010922
vn -0.9742795 0.1438644 -0.1734427
vn -0.9742794 0.1438644 -0.1734427
vn -0.9742795 0.1438643 -0.1734427
vn -0.9742795 0.1438644 -0.1734427
vn -0.3970807 0.2822787 0.8732957
vn -0.3970807 0.2822787 0.8732957
vn -0.3970807 0.2822787 0.8732957
vn -0.3970807 0.2822787 0.8732957
vn -0.14174 0.3513021 0.9254707
vn -0.14174 0.3513021 0.9254707
vn -0.14174 0.3513022 0.9254708
vn -0.14174 0.3513022 0.9254708
vn 0.2628887 0.3494418 0.8993216
vn 0.2628887 0.3494418 0.8993216
vn 0.2628887 0.3494418 0.8993216
vn 0.2628887 0.3494418 0.8993216
vn 0.9567763 0.2864259 -0.05038875
vn 0.9567763 0.2864259 -0.05038875
vn 0.9567763 0.2864259 -0.05038869
vn 0.9567763 0.2864259 -0.05038875
vn 0.8372456 0.2824832 -0.4682124
vn 0.8372456 0.2824832 -0.4682125
vn 0.8372456 0.2824832 -0.4682125
vn 0.8372456 0.2824832 -0.4682125
vn 0.9161319 0.2441073 -0.3179839
vn 0.9161319 0.2441073 -0.3179839
vn 0.9161319 0.2441074 -0.3179839
vn 0.9161319 0.2441074 -0.3179839
vn -0.01243506 0.7893847 -0.6137723
vn -0.01243509 0.7893847 -0.6137723
vn -0.01243506 0.7893847 -0.6137723
vn -0.01243509 0.7893847 -0.6137723
vn -0.4303903 0.8201123 -0.3770664
vn -0.4303903 0.8201123 -0.3770664
vn -0.4303903 0.8201123 -0.3770664
vn -0.4303903 0.8201123 -0.3770664
vn -0.5783123 0.8122885 -0.07577138
vn -0.5783123 0.8122885 -0.07577141
vn -0.5783123 0.8122885 -0.07577138
vn -0.5783123 0.8122885 -0.07577141
vn -0.6628779 0.7314441 -0.159943
vn -0.6628779 0.7314441 -0.159943
vn -0.6628779 0.7314441 -0.159943
vn -0.6628779 0.7314441 -0.159943
vn -0.3179406 0.8332875 0.4522665
vn -0.3179405 0.8332875 0.4522665
vn -0.3179406 0.8332875 0.4522665
vn -0.3179406 0.8332875 0.4522665
vn -0.1556116 0.8567966 0.4916135
vn -0.1556116 0.8567964 0.4916135
vn -0.1556116 0.8567964 0.4916136
vn -0.1556116 0.8567964 0.4916135
vn 0.05831671 0.8726294 0.4848878
vn 0.05831671 0.8726294 0.4848877
vn 0.05831671 0.8726294 0.4848877
vn 0.05831671 0.8726294 0.4848877
vn 0.5165104 0.8411539 -0.1602383
vn 0.5165104 0.8411539 -0.1602383
vn 0.5165104 0.8411539 -0.1602383
vn 0.5165104 0.8411539 -0.1602383
vn 0.3883005 0.8054792 -0.4476886
vn 0.3883004 0.8054793 -0.4476886
vn 0.3883005 0.8054793 -0.4476886
vn 0.3883005 0.8054792 -0.4476886
vn 0.6015792 0.7879916 -0.1310378
vn 0.6015792 0.7879917 -0.1310378
vn 0.6015792 0.7879916 -0.1310378
vn 0.6015792 0.7879916 -0.1310378
vn -0.05437042 0.9247625 -0.3766394
vn -0.05437045 0.9247625 -0.3766395
vn -0.05437042 0.9247625 -0.3766394
vn -0.4584201 0.8609408 -0.2205244
vn -0.4584202 0.8609408 -0.2205245
vn -0.4584201 0.8609408 -0.2205244
vn -0.4913759 0.8530962 -0.1754304
vn -0.4913759 0.8530962 -0.1754304
vn -0.4913759 0.8530962 -0.1754304
vn -0.5025878 0.857386 -0.1108783
vn -0.5025879 0.857386 -0.1108783
vn -0.5025879 0.857386 -0.1108783
vn -0.2941113 0.9242899 0.2432816
vn -0.2941112 0.9242899 0.2432815
vn -0.2941113 0.9242899 0.2432816
vn -0.1467522 0.9417807 0.3025093
vn -0.1467522 0.9417808 0.3025093
vn -0.1467522 0.9417808 0.3025093
vn -0.02369218 0.9616975 0.2730851
vn -0.02369221 0.9616975 0.2730851
vn -0.02369219 0.9616975 0.2730851
vn 0.2875421 0.9399886 -0.1836849
vn 0.2875421 0.9399886 -0.1836849
vn 0.2875422 0.9399885 -0.1836849
vn 0.2860324 0.8195646 -0.4964861
vn 0.2860324 0.8195646 -0.4964861
vn 0.2860323 0.8195647 -0.4964861
vn 0.5441372 0.8388788 -0.01401374
vn 0.5441371 0.8388788 -0.01401371
vn 0.5441372 0.8388788 -0.01401371

vt 0.5483398 0.007648468
vt 0.5 0.1500244
vt 0.6264648 0.06439209
vt 0.4516602 0.007648468
vt 0.3735352 0.06439209
vt 0.34375 0.15625
vt 0.3735352 0.2480469
vt 0.4516602 0.3049316
vt 0.5483398 0.3049316
vt 0.6264648 0.2480469
vt 0.65625 0.15625
vt 0 0
vt 0 1
vt 1 1
vt 1 0
vt 0 0
vt 0 1
vt 1 1
vt 1 0
vt 0 0
vt 0 1
vt 1 1
vt 1 0
vt 0 0
vt 0 1
vt 1 1
vt 1 0
vt 0 0
vt 0 1
vt 1 1
vt 1 0
vt 0 0
vt 0 1
vt 1 1
vt 1 0
vt 0 0
vt 0 1
vt 1 1
vt 1 0
vt 0 0
vt 0 1
vt 1 1
vt 1 0
vt 0 0
vt 0 1
vt 1 1
vt 1 0
vt 0 0
vt 0 1
vt 1 1
vt 1 0
vt 0 0
vt 0 1
vt 1 1
vt 1 0
vt 0 0
vt 0 1
vt 1 1
vt 1 0
vt 0 0
vt 0 1
vt 1 1
vt 1 0
vt 0 0
vt 0 1
vt 1 1
vt 1 0
vt 0 0
vt 0 1
vt 1 1
vt 1 0
vt 0 0
vt 0 1
vt 1 1
vt 1 0
vt 0 0
vt 0 1
vt 1 1
vt 1 0
vt 0 0
vt 0 1
vt 1 1
vt 1 0
vt 0 0
vt 0 1
vt 1 1
vt 1 0
vt 0 0
vt 0 1
vt 1 1
vt 1 0
vt 0 0
vt 0 1
vt 1 1
vt 1 0
vt 0 0
vt 0 1
vt 1 1
vt 1 0
vt 0 0
vt 0 1
vt 1 1
vt 1 0
vt 0 0
vt 0 1
vt 1 1
vt 1 0
vt 0 0
vt 0 1
vt 1 1
vt 1 0
vt 0 0
vt 0 1
vt 1 1
vt 1 0
vt 0 0
vt 0 1
vt 1 1
vt 1 0
vt 0 0
vt 0 1
vt 1 1
vt 1 0
vt 0 0
vt 0 1
vt 1 1
vt 1 0
vt 0 0
vt 0 1
vt 1 1
vt 1 0
vt 0 0
vt 0 1
vt 1 1
vt 1 0
vt 0 0
vt 0 1
vt 1 1
vt 1 0
vt 0 0
vt 0 1
vt 1 1
vt 1 0
vt 0 0
vt 0 1
vt 1 1
vt 1 0
vt 0 0
vt 0 1
vt 1 1
vt 1 0
vt 0 0
vt 0 1
vt 1 1
vt 1 0
vt 0 0
vt 0 1
vt 1 1
vt 1 0
vt 0 0
vt 0 1
vt 1 1
vt 1 0
vt 0 0
vt 0 1
vt 1 1
vt 1 0
vt 0 0
vt 0 1
vt 1 1
vt 1 0
vt 0 0
vt 0.5 1
vt 1 0
vt 0 0
vt 0.5 1
vt 1 0
vt 0 0
vt 0.5 1
vt 1 0
vt 0 0
vt 0.5 1
vt 1 0
vt 0 0
vt 0.5 1
vt 1 0
vt 0 0
vt 0.5 1
vt 1 0
vt 0 0
vt 0.5 1
vt 1 0
vt 0 0
vt 0.5 1
vt 1 0
vt 0 0
vt 0.5 1
vt 1 0
vt 0 0
vt 0.5 1
vt 1 0

g Foliage8_28_4113_147
usemtl Foliage8_28_4113_147
usemap Foliage8_28_4113_147
f 1/1/1 3/3/3 2/2/2
f 4/4/4 1/1/1 2/2/2
f 5/5/5 4/4/4 2/2/2
f 6/6/6 5/5/5 2/2/2
f 7/7/7 6/6/6 2/2/2
f 8/8/8 7/7/7 2/2/2
f 9/9/9 8/8/8 2/2/2
f 10/10/10 9/9/9 2/2/2
f 11/11/11 10/10/10 2/2/2
f 3/3/3 11/11/11 2/2/2
f 12/12/12 14/14/14 13/13/13
f 12/12/12 15/15/15 14/14/14
f 16/16/16 18/18/18 17/17/17
f 16/16/16 19/19/19 18/18/18
f 20/20/20 22/22/22 21/21/21
f 20/20/20 23/23/23 22/22/22
f 24/24/24 26/26/26 25/25/25
f 24/24/24 27/27/27 26/26/26
f 28/28/28 30/30/30 29/29/29
f 28/28/28 31/31/31 30/30/30
f 32/32/32 34/34/34 33/33/33
f 32/32/32 35/35/35 34/34/34
f 36/36/36 38/38/38 37/37/37
f 36/36/36 39/39/39 38/38/38
f 40/40/40 42/42/42 41/41/41
f 40/40/40 43/43/43 42/42/42
f 44/44/44 46/46/46 45/45/45
f 44/44/44 47/47/47 46/46/46
f 48/48/48 50/50/50 49/49/49
f 48/48/48 51/51/51 50/50/50
f 52/52/52 54/54/54 53/53/53
f 52/52/52 55/55/55 54/54/54
f 56/56/56 58/58/58 57/57/57
f 56/56/56 59/59/59 58/58/58
f 60/60/60 62/62/62 61/61/61
f 60/60/60 63/63/63 62/62/62
f 64/64/64 66/66/66 65/65/65
f 64/64/64 67/67/67 66/66/66
f 68/68/68 70/70/70 69/69/69
f 68/68/68 71/71/71 70/70/70
f 72/72/72 74/74/74 73/73/73
f 72/72/72 75/75/75 74/74/74
f 76/76/76 78/78/78 77/77/77
f 76/76/76 79/79/79 78/78/78
f 80/80/80 82/82/82 81/81/81
f 80/80/80 83/83/83 82/82/82
f 84/84/84 86/86/86 85/85/85
f 84/84/84 87/87/87 86/86/86
f 88/88/88 90/90/90 89/89/89
f 88/88/88 91/91/91 90/90/90
f 92/92/92 94/94/94 93/93/93
f 92/92/92 95/95/95 94/94/94
f 96/96/96 98/98/98 97/97/97
f 96/96/96 99/99/99 98/98/98
f 100/100/100 102/102/102 101/101/101
f 100/100/100 103/103/103 102/102/102
f 104/104/104 106/106/106 105/105/105
f 104/104/104 107/107/107 106/106/106
f 108/108/108 110/110/110 109/109/109
f 108/108/108 111/111/111 110/110/110
f 112/112/112 114/114/114 113/113/113
f 112/112/112 115/115/115 114/114/114
f 116/116/116 118/118/118 117/117/117
f 116/116/116 119/119/119 118/118/118
f 120/120/120 122/122/122 121/121/121
f 120/120/120 123/123/123 122/122/122
f 124/124/124 126/126/126 125/125/125
f 124/124/124 127/127/127 126/126/126
f 128/128/128 130/130/130 129/129/129
f 128/128/128 131/131/131 130/130/130
f 132/132/132 134/134/134 133/133/133
f 132/132/132 135/135/135 134/134/134
f 136/136/136 138/138/138 137/137/137
f 136/136/136 139/139/139 138/138/138
f 140/140/140 142/142/142 141/141/141
f 140/140/140 143/143/143 142/142/142
f 144/144/144 146/146/146 145/145/145
f 144/144/144 147/147/147 146/146/146
f 148/148/148 150/150/150 149/149/149
f 148/148/148 151/151/151 150/150/150
f 152/152/152 154/154/154 153/153/153
f 152/152/152 155/155/155 154/154/154
f 156/156/156 158/158/158 157/157/157
f 156/156/156 159/159/159 158/158/158
f 160/160/160 162/162/162 161/161/161
f 160/160/160 163/163/163 162/162/162
f 164/164/164 166/166/166 165/165/165
f 164/164/164 167/167/167 166/166/166
f 168/168/168 170/170/170 169/169/169
f 168/168/168 171/171/171 170/170/170
f 172/172/172 174/174/174 173/173/173
f 175/175/175 177/177/177 176/176/176
f 178/178/178 180/180/180 179/179/179
f 181/181/181 183/183/183 182/182/182
f 184/184/184 186/186/186 185/185/185
f 187/187/187 189/189/189 188/188/188
f 190/190/190 192/192/192 191/191/191
f 193/193/193 195/195/195 194/194/194
f 196/196/196 198/198/198 197/197/197
f 199/199/199 201/201/201 200/200/200
