#Foliage5_25_4273_19.obj

v 0.01454421 -0.02577566 -0.04036001
v 0.004622946 -0.03397609 0.001089968
v 0.03878349 -0.02577565 -0.02105633
v -0.009664419 -0.02577564 -0.03817701
v -0.01825172 -0.02577566 -0.01778191
v -0.03822313 -0.0222322 0.001089862
v -0.02135192 -0.02577566 0.01996153
v -0.00529862 -0.02577564 0.03271655
v 0.02109295 -0.02577564 0.0403568
v 0.03059762 -0.02577566 0.01996174
v 0.03218833 -0.0222322 0.001089832
v 0.03878349 -0.02577565 -0.02105633
v 0.04796595 -0.01489239 -0.0277276
v 0.01805168 -0.0148924 -0.05115437
v 0.01454421 -0.02577566 -0.04036001
v 0.01454421 -0.02577566 -0.04036001
v 0.01805168 -0.0148924 -0.05115437
v -0.01317183 -0.01489238 -0.04897147
v -0.009664419 -0.02577564 -0.03817701
v -0.009664419 -0.02577564 -0.03817701
v -0.01317183 -0.01489238 -0.04897147
v -0.02743426 -0.01489239 -0.02445332
v -0.01825172 -0.02577566 -0.01778191
v -0.01825172 -0.02577566 -0.01778191
v -0.02743426 -0.01489239 -0.02445332
v -0.04796809 -0.0128882 0.001089816
v -0.03822313 -0.0222322 0.001089862
v -0.03822313 -0.0222322 0.001089862
v -0.04796809 -0.0128882 0.001089816
v -0.03053426 -0.0148924 0.02663312
v -0.02135192 -0.02577566 0.01996153
v -0.02135192 -0.02577566 0.01996153
v -0.03053426 -0.0148924 0.02663312
v -0.008806145 -0.01489238 0.04351085
v -0.00529862 -0.02577564 0.03271655
v -0.00529862 -0.02577564 0.03271655
v -0.008806145 -0.01489238 0.04351085
v 0.02460031 -0.01489239 0.05115119
v 0.02109295 -0.02577564 0.0403568
v 0.02109295 -0.02577564 0.0403568
v 0.02460031 -0.01489239 0.05115119
v 0.03977991 -0.0148924 0.02663317
v 0.03059762 -0.02577566 0.01996174
v 0.03059762 -0.02577566 0.01996174
v 0.03977991 -0.0148924 0.02663317
v 0.0419332 -0.0128882 0.001090051
v 0.03218833 -0.0222322 0.001089832
v 0.03218833 -0.0222322 0.001089832
v 0.0419332 -0.0128882 0.001090051
v 0.04796595 -0.01489239 -0.0277276
v 0.03878349 -0.02577565 -0.02105633
v 0.04796595 -0.01489239 -0.0277276
v 0.04796576 -0.0001483373 -0.02772788
v 0.01805167 -0.0001483126 -0.05115426
v 0.01805168 -0.0148924 -0.05115437
v 0.01805168 -0.0148924 -0.05115437
v 0.01805167 -0.0001483126 -0.05115426
v -0.01317184 -0.0001483217 -0.04897136
v -0.01317183 -0.01489238 -0.04897147
v -0.01317183 -0.01489238 -0.04897147
v -0.01317184 -0.0001483217 -0.04897136
v -0.02743427 -0.0001483297 -0.02445321
v -0.02743426 -0.01489239 -0.02445332
v -0.02743426 -0.01489239 -0.02445332
v -0.02743427 -0.0001483297 -0.02445321
v -0.04796815 -0.0002294173 0.001089735
v -0.04796809 -0.0128882 0.001089816
v -0.04796809 -0.0128882 0.001089816
v -0.04796815 -0.0002294173 0.001089735
v -0.03053427 -0.0001483141 0.02663323
v -0.03053426 -0.0148924 0.02663312
v -0.03053426 -0.0148924 0.02663312
v -0.03053427 -0.0001483141 0.02663323
v -0.008805965 -0.0001483348 0.04351087
v -0.008806145 -0.01489238 0.04351085
v -0.008806145 -0.01489238 0.04351085
v -0.008805965 -0.0001483348 0.04351087
v 0.0246003 -0.0001483023 0.0511513
v 0.02460031 -0.01489239 0.05115119
v 0.02460031 -0.01489239 0.05115119
v 0.0246003 -0.0001483023 0.0511513
v 0.03977972 -0.000148318 0.02663289
v 0.03977991 -0.0148924 0.02663317
v 0.03977991 -0.0148924 0.02663317
v 0.03977972 -0.000148318 0.02663289
v 0.04193333 -0.0002294326 0.00108988
v 0.0419332 -0.0128882 0.001090051
v 0.0419332 -0.0128882 0.001090051
v 0.04193333 -0.0002294326 0.00108988
v 0.04796576 -0.0001483373 -0.02772788
v 0.04796595 -0.01489239 -0.0277276
v 0.04796576 -0.0001483373 -0.02772788
v 0.04568784 0.01428336 -0.02539837
v 0.01714404 0.01428335 -0.04799283
v 0.01805167 -0.0001483126 -0.05115426
v 0.01805167 -0.0001483126 -0.05115426
v 0.01714404 0.01428335 -0.04799283
v -0.0118303 0.01428336 -0.04559942
v -0.01317184 -0.0001483217 -0.04897136
v -0.01317184 -0.0001483217 -0.04897136
v -0.0118303 0.01428336 -0.04559942
v -0.02321128 0.01428337 -0.02180786
v -0.02743427 -0.0001483297 -0.02445321
v -0.02743427 -0.0001483297 -0.02445321
v -0.02321128 0.01428337 -0.02180786
v -0.04530518 0.01197209 0.001195051
v -0.04796815 -0.0002294173 0.001089735
v -0.04796815 -0.0002294173 0.001089735
v -0.04530518 0.01197209 0.001195051
v -0.02661062 0.01428336 0.02419846
v -0.03053427 -0.0001483141 0.02663323
v -0.03053427 -0.0001483141 0.02663323
v -0.02661062 0.01428336 0.02419846
v -0.007042814 0.01428337 0.03961211
v -0.008805965 -0.0001483348 0.04351087
v -0.008805965 -0.0001483348 0.04351087
v -0.007042814 0.01428337 0.03961211
v 0.02432483 0.01428337 0.04798964
v 0.0246003 -0.0001483023 0.0511513
v 0.0246003 -0.0001483023 0.0511513
v 0.02432483 0.01428337 0.04798964
v 0.03671159 0.01428337 0.02419831
v 0.03977972 -0.000148318 0.02663289
v 0.03977972 -0.000148318 0.02663289
v 0.03671159 0.01428337 0.02419831
v 0.03865078 0.01197209 0.001195074
v 0.04193333 -0.0002294326 0.00108988
v 0.04193333 -0.0002294326 0.00108988
v 0.03865078 0.01197209 0.001195074
v 0.04568784 0.01428336 -0.02539837
v 0.04796576 -0.0001483373 -0.02772788
v 0.04568784 0.01428336 -0.02539837
v 0.03225153 0.0243744 -0.0161492
v 0.01203549 0.0243744 -0.03257022
v 0.01714404 0.01428335 -0.04799283
v 0.01714404 0.01428335 -0.04799283
v 0.01203549 0.0243744 -0.03257022
v -0.002593348 0.0243744 -0.02139535
v -0.0118303 0.01428336 -0.04559942
v -0.0118303 0.01428336 -0.04559942
v -0.002593348 0.0243744 -0.02139535
v -0.01125426 0.02437439 -0.01279686
v -0.02321128 0.01428337 -0.02180786
v -0.02321128 0.01428337 -0.02180786
v -0.01125426 0.02437439 -0.01279686
v -0.0312457 0.02074646 0.001115938
v -0.04530518 0.01197209 0.001195051
v -0.04530518 0.01197209 0.001195051
v -0.0312457 0.02074646 0.001115938
v -0.01442828 0.0243744 0.01502851
v -0.02661062 0.01428336 0.02419846
v -0.02661062 0.01428336 0.02419846
v -0.01442828 0.0243744 0.01502851
v -0.002593228 0.02437439 0.02474467
v -0.007042814 0.01428337 0.03961211
v -0.007042814 0.01428337 0.03961211
v -0.002593228 0.02437439 0.02474467
v 0.01874023 0.0243744 0.03256693
v 0.02432483 0.01428337 0.04798964
v 0.02432483 0.01428337 0.04798964
v 0.01874023 0.0243744 0.03256693
v 0.02387022 0.02437439 0.01502872
v 0.03671159 0.01428337 0.02419831
v 0.03671159 0.01428337 0.02419831
v 0.02387022 0.02437439 0.01502872
v 0.02504293 0.02074647 0.001115736
v 0.03865078 0.01197209 0.001195074
v 0.03865078 0.01197209 0.001195074
v 0.02504293 0.02074647 0.001115736
v 0.03225153 0.0243744 -0.0161492
v 0.04568784 0.01428336 -0.02539837
v 0.03225153 0.0243744 -0.0161492
v 0.004622684 0.03397606 0.001089851
v 0.01203549 0.0243744 -0.03257022
v 0.01203549 0.0243744 -0.03257022
v 0.004622684 0.03397606 0.001089851
v -0.002593348 0.0243744 -0.02139535
v -0.002593348 0.0243744 -0.02139535
v 0.004622684 0.03397606 0.001089851
v -0.01125426 0.02437439 -0.01279686
v -0.01125426 0.02437439 -0.01279686
v 0.004622684 0.03397606 0.001089851
v -0.0312457 0.02074646 0.001115938
v -0.0312457 0.02074646 0.001115938
v 0.004622684 0.03397606 0.001089851
v -0.01442828 0.0243744 0.01502851
v -0.01442828 0.0243744 0.01502851
v 0.004622684 0.03397606 0.001089851
v -0.002593228 0.02437439 0.02474467
v -0.002593228 0.02437439 0.02474467
v 0.004622684 0.03397606 0.001089851
v 0.01874023 0.0243744 0.03256693
v 0.01874023 0.0243744 0.03256693
v 0.004622684 0.03397606 0.001089851
v 0.02387022 0.02437439 0.01502872
v 0.02387022 0.02437439 0.01502872
v 0.004622684 0.03397606 0.001089851
v 0.02504293 0.02074647 0.001115736
v 0.02504293 0.02074647 0.001115736
v 0.004622684 0.03397606 0.001089851
v 0.03225153 0.0243744 -0.0161492

vn -0.1500855 -0.9715455 -0.1832297
vn -0.01097831 -0.9983318 -0.05667877
vn 0.02120226 -0.966002 -0.2576631
vn -0.2048981 -0.9774934 -0.05022637
vn -0.2124746 -0.9670381 0.1403254
vn -0.1375479 -0.974113 0.1793981
vn -0.005037397 -0.9803551 0.1971744
vn 0.1474814 -0.9806846 0.1284763
vn 0.1770198 -0.9836693 -0.03252833
vn 0.1306052 -0.9450572 -0.2996811
vn 0.2421414 -0.8996357 -0.3633492
vn -0.3320042 -0.664167 -0.6698174
vn -0.3320043 -0.664167 -0.6698173
vn -0.3320042 -0.664167 -0.6698173
vn -0.3320043 -0.664167 -0.6698173
vn -0.6759371 -0.6807355 -0.2823259
vn -0.6759371 -0.6807356 -0.2823259
vn -0.6759371 -0.6807355 -0.2823259
vn -0.6759372 -0.6807355 -0.2823259
vn -0.594725 -0.6798981 0.4289992
vn -0.5947251 -0.679898 0.4289992
vn -0.594725 -0.6798981 0.4289992
vn -0.594725 -0.679898 0.4289992
vn -0.6498711 -0.6966843 0.3038064
vn -0.6498711 -0.6966842 0.3038065
vn -0.6498711 -0.6966842 0.3038064
vn -0.6498711 -0.6966842 0.3038064
vn 0.08682781 -0.7346559 0.6728604
vn 0.08682781 -0.7346559 0.6728604
vn 0.08682781 -0.7346559 0.6728605
vn 0.08682784 -0.7346559 0.6728605
vn 0.3174183 -0.7414531 0.591179
vn 0.3174183 -0.7414531 0.5911791
vn 0.3174183 -0.7414531 0.591179
vn 0.3174183 -0.7414531 0.591179
vn 0.552745 -0.7233164 0.4138671
vn 0.552745 -0.7233164 0.4138671
vn 0.552745 -0.7233164 0.4138671
vn 0.552745 -0.7233164 0.4138671
vn 0.5896288 -0.6493093 -0.4803491
vn 0.5896288 -0.6493093 -0.480349
vn 0.5896288 -0.6493093 -0.480349
vn 0.5896288 -0.6493092 -0.4803492
vn 0.276653 -0.6439313 -0.7133129
vn 0.276653 -0.6439314 -0.7133129
vn 0.276653 -0.6439313 -0.7133129
vn 0.276653 -0.6439313 -0.7133129
vn 0.5327784 -0.5892253 -0.6074212
vn 0.5327784 -0.5892252 -0.6074212
vn 0.5327784 -0.5892253 -0.6074212
vn 0.5327784 -0.5892252 -0.6074212
vn -0.4591339 0.05434661 -0.8867033
vn -0.4591339 0.05434661 -0.8867033
vn -0.4591339 0.05434661 -0.8867033
vn -0.4591339 0.05434661 -0.8867033
vn -0.935983 0.03030792 -0.3507383
vn -0.935983 0.03030792 -0.3507383
vn -0.935983 0.03030792 -0.3507383
vn -0.935983 0.03030792 -0.3507383
vn -0.8169713 -0.02229144 0.5762473
vn -0.8169713 -0.02229144 0.5762473
vn -0.8169713 -0.02229144 0.5762473
vn -0.8169713 -0.02229144 0.5762473
vn -0.8940661 -0.01429004 0.447707
vn -0.8940661 -0.01429004 0.447707
vn -0.8940661 -0.01429004 0.447707
vn -0.8940661 -0.01429004 0.447707
vn 0.1686999 -0.05633245 0.9840565
vn 0.1686999 -0.05633245 0.9840565
vn 0.1687 -0.05633246 0.9840565
vn 0.1686999 -0.05633245 0.9840565
vn 0.4626417 -0.05428696 0.8848818
vn 0.4626417 -0.05428696 0.8848818
vn 0.4626417 -0.05428696 0.8848818
vn 0.4626417 -0.05428696 0.8848818
vn 0.7934742 -0.0428054 0.6070967
vn 0.7934742 -0.0428054 0.6070967
vn 0.7934742 -0.0428054 0.6070967
vn 0.7934742 -0.0428054 0.6070967
vn 0.8325138 0.02085943 -0.5536115
vn 0.8325138 0.02085943 -0.5536115
vn 0.8325138 0.02085943 -0.5536115
vn 0.8325138 0.02085943 -0.5536115
vn 0.4911737 0.04232623 -0.8700327
vn 0.4911737 0.04232623 -0.8700327
vn 0.4911737 0.04232623 -0.8700327
vn 0.4911737 0.04232623 -0.8700327
vn 0.5937263 0.03746923 -0.8037941
vn 0.5937263 0.03746923 -0.8037941
vn 0.5937263 0.03746923 -0.8037941
vn 0.5937263 0.03746923 -0.8037941
vn -0.4439259 0.2655582 -0.8558089
vn -0.4439259 0.2655582 -0.8558088
vn -0.4439259 0.2655582 -0.8558088
vn -0.4439259 0.2655582 -0.8558088
vn -0.9122796 0.250156 -0.324296
vn -0.9122796 0.250156 -0.324296
vn -0.9122796 0.250156 -0.324296
vn -0.9122796 0.250156 -0.324296
vn -0.763864 0.2350264 0.6010609
vn -0.763864 0.2350264 0.6010609
vn -0.763864 0.2350264 0.6010609
vn -0.763864 0.2350264 0.6010609
vn -0.8757315 0.2421964 0.4176543
vn -0.8757315 0.2421964 0.4176543
vn -0.8757315 0.2421964 0.4176543
vn -0.8757315 0.2421964 0.4176543
vn 0.1959491 0.1887223 0.9622827
vn 0.1959491 0.1887224 0.9622827
vn 0.195949 0.1887223 0.9622827
vn 0.1959491 0.1887223 0.9622827
vn 0.4443777 0.2296851 0.8658946
vn 0.4443776 0.2296851 0.8658946
vn 0.4443777 0.2296851 0.8658946
vn 0.4443777 0.2296851 0.8658946
vn 0.7621386 0.1998521 0.6157953
vn 0.7621386 0.1998521 0.6157953
vn 0.7621386 0.1998521 0.6157953
vn 0.7621386 0.1998521 0.6157953
vn 0.7991247 0.2149943 -0.5614065
vn 0.7991247 0.2149943 -0.5614065
vn 0.7991247 0.2149943 -0.5614064
vn 0.7991247 0.2149943 -0.5614065
vn 0.4697488 0.2783304 -0.8377757
vn 0.4697488 0.2783304 -0.8377758
vn 0.4697488 0.2783304 -0.8377758
vn 0.4697488 0.2783304 -0.8377758
vn 0.6120102 0.213465 -0.7614961
vn 0.6120101 0.213465 -0.7614961
vn 0.6120102 0.213465 -0.7614961
vn 0.6120102 0.213465 -0.7614961
vn -0.2364911 0.8653421 -0.4418762
vn -0.2364911 0.8653421 -0.4418762
vn -0.2364911 0.8653421 -0.4418762
vn -0.2364911 0.8653421 -0.4418762
vn -0.4448791 0.8955445 -0.009068191
vn -0.4448791 0.8955444 -0.009068206
vn -0.4448791 0.8955445 -0.009068191
vn -0.4448791 0.8955445 -0.009068221
vn -0.4012429 0.8576362 0.3216578
vn -0.401243 0.8576362 0.3216578
vn -0.4012429 0.8576362 0.3216578
vn -0.401243 0.8576362 0.3216578
vn -0.5286999 0.7960908 0.2944745
vn -0.5286999 0.7960909 0.2944745
vn -0.5286999 0.7960909 0.2944745
vn -0.5286999 0.7960909 0.2944745
vn 0.1071122 0.7848637 0.6103407
vn 0.1071122 0.7848637 0.6103406
vn 0.1071122 0.7848637 0.6103407
vn 0.1071122 0.7848637 0.6103407
vn 0.2655538 0.7899371 0.5527028
vn 0.2655537 0.789937 0.5527028
vn 0.2655538 0.789937 0.5527028
vn 0.2655537 0.789937 0.5527028
vn 0.4398691 0.7897829 0.4275016
vn 0.4398691 0.7897829 0.4275016
vn 0.4398691 0.7897829 0.4275016
vn 0.4398691 0.7897829 0.4275016
vn 0.4557988 0.8122831 -0.3639274
vn 0.4557989 0.8122831 -0.3639275
vn 0.4557989 0.8122831 -0.3639275
vn 0.4557989 0.8122831 -0.3639275
vn 0.1867256 0.8269065 -0.5304325
vn 0.1867255 0.8269066 -0.5304324
vn 0.1867256 0.8269066 -0.5304324
vn 0.1867256 0.8269065 -0.5304325
vn 0.5342359 0.7491044 -0.3917068
vn 0.5342358 0.7491044 -0.3917068
vn 0.5342359 0.7491044 -0.3917068
vn 0.5342359 0.7491044 -0.3917068
vn -0.1207802 0.9694195 -0.2136293
vn -0.1207803 0.9694195 -0.2136293
vn -0.1207802 0.9694195 -0.2136293
vn -0.3756941 0.9163552 0.1383712
vn -0.3756942 0.9163552 0.1383712
vn -0.3756941 0.9163552 0.1383712
vn -0.3790015 0.904938 0.1935057
vn -0.3790015 0.904938 0.1935057
vn -0.3790015 0.904938 0.1935057
vn -0.3519751 0.9011059 0.2532215
vn -0.3519751 0.9011059 0.2532215
vn -0.3519751 0.9011059 0.2532215
vn 0.024316 0.9017994 0.4314697
vn 0.02431601 0.9017994 0.4314697
vn 0.024316 0.9017994 0.4314697
vn 0.1805726 0.8993466 0.3982069
vn 0.1805726 0.8993466 0.3982069
vn 0.1805726 0.8993466 0.3982069
vn 0.2682815 0.91347 0.3059361
vn 0.2682815 0.91347 0.3059361
vn 0.2682815 0.91347 0.3059361
vn 0.2688119 0.9310002 -0.2469376
vn 0.2688119 0.9310002 -0.2469377
vn 0.2688119 0.9310002 -0.2469377
vn 0.07777315 0.855565 -0.5118198
vn 0.07777315 0.855565 -0.5118198
vn 0.07777315 0.855565 -0.5118197
vn 0.5588773 0.7876192 -0.2594452
vn 0.5588773 0.7876192 -0.2594451
vn 0.5588773 0.7876192 -0.2594451

vt 0.5482839 0.007647395
vt 0.5 0.15
vt 0.6264089 0.06440853
vt 0.4517161 0.00764741
vt 0.3735911 0.06440856
vt 0.34375 0.15625
vt 0.3735911 0.2480915
vt 0.4517161 0.3048526
vt 0.5482839 0.3048526
vt 0.6264089 0.2480914
vt 0.65625 0.15625
vt 0 0
vt 0 1
vt 1 1
vt 1 0
vt 0 0
vt 0 1
vt 1 1
vt 1 0
vt 0 0
vt 0 1
vt 1 1
vt 1 0
vt 0 0
vt 0 1
vt 1 1
vt 1 0
vt 0 0
vt 0 1
vt 1 1
vt 1 0
vt 0 0
vt 0 1
vt 1 1
vt 1 0
vt 0 0
vt 0 1
vt 1 1
vt 1 0
vt 0 0
vt 0 1
vt 1 1
vt 1 0
vt 0 0
vt 0 1
vt 1 1
vt 1 0
vt 0 0
vt 0 1
vt 1 1
vt 1 0
vt 0 0
vt 0 1
vt 1 1
vt 1 0
vt 0 0
vt 0 1
vt 1 1
vt 1 0
vt 0 0
vt 0 1
vt 1 1
vt 1 0
vt 0 0
vt 0 1
vt 1 1
vt 1 0
vt 0 0
vt 0 1
vt 1 1
vt 1 0
vt 0 0
vt 0 1
vt 1 1
vt 1 0
vt 0 0
vt 0 1
vt 1 1
vt 1 0
vt 0 0
vt 0 1
vt 1 1
vt 1 0
vt 0 0
vt 0 1
vt 1 1
vt 1 0
vt 0 0
vt 0 1
vt 1 1
vt 1 0
vt 0 0
vt 0 1
vt 1 1
vt 1 0
vt 0 0
vt 0 1
vt 1 1
vt 1 0
vt 0 0
vt 0 1
vt 1 1
vt 1 0
vt 0 0
vt 0 1
vt 1 1
vt 1 0
vt 0 0
vt 0 1
vt 1 1
vt 1 0
vt 0 0
vt 0 1
vt 1 1
vt 1 0
vt 0 0
vt 0 1
vt 1 1
vt 1 0
vt 0 0
vt 0 1
vt 1 1
vt 1 0
vt 0 0
vt 0 1
vt 1 1
vt 1 0
vt 0 0
vt 0 1
vt 1 1
vt 1 0
vt 0 0
vt 0 1
vt 1 1
vt 1 0
vt 0 0
vt 0 1
vt 1 1
vt 1 0
vt 0 0
vt 0 1
vt 1 1
vt 1 0
vt 0 0
vt 0 1
vt 1 1
vt 1 0
vt 0 0
vt 0 1
vt 1 1
vt 1 0
vt 0 0
vt 0 1
vt 1 1
vt 1 0
vt 0 0
vt 0 1
vt 1 1
vt 1 0
vt 0 0
vt 0 1
vt 1 1
vt 1 0
vt 0 0
vt 0 1
vt 1 1
vt 1 0
vt 0 0
vt 0 1
vt 1 1
vt 1 0
vt 0 0
vt 0.5 1
vt 1 0
vt 0 0
vt 0.5 1
vt 1 0
vt 0 0
vt 0.5 1
vt 1 0
vt 0 0
vt 0.5 1
vt 1 0
vt 0 0
vt 0.5 1
vt 1 0
vt 0 0
vt 0.5 1
vt 1 0
vt 0 0
vt 0.5 1
vt 1 0
vt 0 0
vt 0.5 1
vt 1 0
vt 0 0
vt 0.5 1
vt 1 0
vt 0 0
vt 0.5 1
vt 1 0

g Foliage5_25_4273_19
usemtl Foliage5_25_4273_19
usemap Foliage5_25_4273_19
f 1/1/1 3/3/3 2/2/2
f 4/4/4 1/1/1 2/2/2
f 5/5/5 4/4/4 2/2/2
f 6/6/6 5/5/5 2/2/2
f 7/7/7 6/6/6 2/2/2
f 8/8/8 7/7/7 2/2/2
f 9/9/9 8/8/8 2/2/2
f 10/10/10 9/9/9 2/2/2
f 11/11/11 10/10/10 2/2/2
f 3/3/3 11/11/11 2/2/2
f 12/12/12 14/14/14 13/13/13
f 12/12/12 15/15/15 14/14/14
f 16/16/16 18/18/18 17/17/17
f 16/16/16 19/19/19 18/18/18
f 20/20/20 22/22/22 21/21/21
f 20/20/20 23/23/23 22/22/22
f 24/24/24 26/26/26 25/25/25
f 24/24/24 27/27/27 26/26/26
f 28/28/28 30/30/30 29/29/29
f 28/28/28 31/31/31 30/30/30
f 32/32/32 34/34/34 33/33/33
f 32/32/32 35/35/35 34/34/34
f 36/36/36 38/38/38 37/37/37
f 36/36/36 39/39/39 38/38/38
f 40/40/40 42/42/42 41/41/41
f 40/40/40 43/43/43 42/42/42
f 44/44/44 46/46/46 45/45/45
f 44/44/44 47/47/47 46/46/46
f 48/48/48 50/50/50 49/49/49
f 48/48/48 51/51/51 50/50/50
f 52/52/52 54/54/54 53/53/53
f 52/52/52 55/55/55 54/54/54
f 56/56/56 58/58/58 57/57/57
f 56/56/56 59/59/59 58/58/58
f 60/60/60 62/62/62 61/61/61
f 60/60/60 63/63/63 62/62/62
f 64/64/64 66/66/66 65/65/65
f 64/64/64 67/67/67 66/66/66
f 68/68/68 70/70/70 69/69/69
f 68/68/68 71/71/71 70/70/70
f 72/72/72 74/74/74 73/73/73
f 72/72/72 75/75/75 74/74/74
f 76/76/76 78/78/78 77/77/77
f 76/76/76 79/79/79 78/78/78
f 80/80/80 82/82/82 81/81/81
f 80/80/80 83/83/83 82/82/82
f 84/84/84 86/86/86 85/85/85
f 84/84/84 87/87/87 86/86/86
f 88/88/88 90/90/90 89/89/89
f 88/88/88 91/91/91 90/90/90
f 92/92/92 94/94/94 93/93/93
f 92/92/92 95/95/95 94/94/94
f 96/96/96 98/98/98 97/97/97
f 96/96/96 99/99/99 98/98/98
f 100/100/100 102/102/102 101/101/101
f 100/100/100 103/103/103 102/102/102
f 104/104/104 106/106/106 105/105/105
f 104/104/104 107/107/107 106/106/106
f 108/108/108 110/110/110 109/109/109
f 108/108/108 111/111/111 110/110/110
f 112/112/112 114/114/114 113/113/113
f 112/112/112 115/115/115 114/114/114
f 116/116/116 118/118/118 117/117/117
f 116/116/116 119/119/119 118/118/118
f 120/120/120 122/122/122 121/121/121
f 120/120/120 123/123/123 122/122/122
f 124/124/124 126/126/126 125/125/125
f 124/124/124 127/127/127 126/126/126
f 128/128/128 130/130/130 129/129/129
f 128/128/128 131/131/131 130/130/130
f 132/132/132 134/134/134 133/133/133
f 132/132/132 135/135/135 134/134/134
f 136/136/136 138/138/138 137/137/137
f 136/136/136 139/139/139 138/138/138
f 140/140/140 142/142/142 141/141/141
f 140/140/140 143/143/143 142/142/142
f 144/144/144 146/146/146 145/145/145
f 144/144/144 147/147/147 146/146/146
f 148/148/148 150/150/150 149/149/149
f 148/148/148 151/151/151 150/150/150
f 152/152/152 154/154/154 153/153/153
f 152/152/152 155/155/155 154/154/154
f 156/156/156 158/158/158 157/157/157
f 156/156/156 159/159/159 158/158/158
f 160/160/160 162/162/162 161/161/161
f 160/160/160 163/163/163 162/162/162
f 164/164/164 166/166/166 165/165/165
f 164/164/164 167/167/167 166/166/166
f 168/168/168 170/170/170 169/169/169
f 168/168/168 171/171/171 170/170/170
f 172/172/172 174/174/174 173/173/173
f 175/175/175 177/177/177 176/176/176
f 178/178/178 180/180/180 179/179/179
f 181/181/181 183/183/183 182/182/182
f 184/184/184 186/186/186 185/185/185
f 187/187/187 189/189/189 188/188/188
f 190/190/190 192/192/192 191/191/191
f 193/193/193 195/195/195 194/194/194
f 196/196/196 198/198/198 197/197/197
f 199/199/199 201/201/201 200/200/200
