#Foliage8_37_3762_130.obj

v 0.01454362 -0.0257757 -0.04035829
v 0.004622089 -0.03397612 0.001091413
v 0.03878265 -0.0257757 -0.02105474
v -0.009665396 -0.0257757 -0.03817529
v -0.01825253 -0.0257757 -0.01778046
v -0.03822396 -0.02223223 0.001091319
v -0.02135262 -0.0257757 0.01996332
v -0.005299571 -0.0257757 0.03271807
v 0.02109226 -0.0257757 0.0403582
v 0.03059656 -0.0257757 0.01996326
v 0.03218766 -0.02223223 0.001091423
v 0.03878265 -0.0257757 -0.02105474
v 0.04796489 -0.01489244 -0.02772615
v 0.01805067 -0.01489244 -0.05115281
v 0.01454362 -0.0257757 -0.04035829
v 0.01454362 -0.0257757 -0.04035829
v 0.01805067 -0.01489244 -0.05115281
v -0.0131726 -0.01489244 -0.04896989
v -0.009665396 -0.0257757 -0.03817529
v -0.009665396 -0.0257757 -0.03817529
v -0.0131726 -0.01489244 -0.04896989
v -0.02743508 -0.01489244 -0.02445184
v -0.01825253 -0.0257757 -0.01778046
v -0.01825253 -0.0257757 -0.01778046
v -0.02743508 -0.01489244 -0.02445184
v -0.04796885 -0.01288821 0.001091425
v -0.03822396 -0.02223223 0.001091319
v -0.03822396 -0.02223223 0.001091319
v -0.04796885 -0.01288821 0.001091425
v -0.03053525 -0.01489244 0.02663456
v -0.02135262 -0.0257757 0.01996332
v -0.02135262 -0.0257757 0.01996332
v -0.03053525 -0.01489244 0.02663456
v -0.008806626 -0.01489244 0.0435126
v -0.005299571 -0.0257757 0.03271807
v -0.005299571 -0.0257757 0.03271807
v -0.008806626 -0.01489244 0.0435126
v 0.02459957 -0.01489244 0.0511526
v 0.02109226 -0.0257757 0.0403582
v 0.02109226 -0.0257757 0.0403582
v 0.02459957 -0.01489244 0.0511526
v 0.0397791 -0.01489244 0.02663464
v 0.03059656 -0.0257757 0.01996326
v 0.03059656 -0.0257757 0.01996326
v 0.0397791 -0.01489244 0.02663464
v 0.04193245 -0.01288821 0.001091524
v 0.03218766 -0.02223223 0.001091423
v 0.03218766 -0.02223223 0.001091423
v 0.04193245 -0.01288821 0.001091524
v 0.04796489 -0.01489244 -0.02772615
v 0.03878265 -0.0257757 -0.02105474
v 0.04796489 -0.01489244 -0.02772615
v 0.04796489 -0.0001483118 -0.02772615
v 0.01805067 -0.0001483118 -0.05115281
v 0.01805067 -0.01489244 -0.05115281
v 0.01805067 -0.01489244 -0.05115281
v 0.01805067 -0.0001483118 -0.05115281
v -0.0131726 -0.0001483118 -0.04896989
v -0.0131726 -0.01489244 -0.04896989
v -0.0131726 -0.01489244 -0.04896989
v -0.0131726 -0.0001483118 -0.04896989
v -0.02743508 -0.0001483118 -0.02445184
v -0.02743508 -0.01489244 -0.02445184
v -0.02743508 -0.01489244 -0.02445184
v -0.02743508 -0.0001483118 -0.02445184
v -0.04796885 -0.0002294086 0.001091425
v -0.04796885 -0.01288821 0.001091425
v -0.04796885 -0.01288821 0.001091425
v -0.04796885 -0.0002294086 0.001091425
v -0.03053525 -0.0001483118 0.02663456
v -0.03053525 -0.01489244 0.02663456
v -0.03053525 -0.01489244 0.02663456
v -0.03053525 -0.0001483118 0.02663456
v -0.008806626 -0.0001483118 0.0435126
v -0.008806626 -0.01489244 0.0435126
v -0.008806626 -0.01489244 0.0435126
v -0.008806626 -0.0001483118 0.0435126
v 0.02459957 -0.0001483118 0.0511526
v 0.02459957 -0.01489244 0.0511526
v 0.02459957 -0.01489244 0.0511526
v 0.02459957 -0.0001483118 0.0511526
v 0.0397791 -0.0001483118 0.02663464
v 0.0397791 -0.01489244 0.02663464
v 0.0397791 -0.01489244 0.02663464
v 0.0397791 -0.0001483118 0.02663464
v 0.04193245 -0.0002294086 0.001091524
v 0.04193245 -0.01288821 0.001091524
v 0.04193245 -0.01288821 0.001091524
v 0.04193245 -0.0002294086 0.001091524
v 0.04796489 -0.0001483118 -0.02772615
v 0.04796489 -0.01489244 -0.02772615
v 0.04796489 -0.0001483118 -0.02772615
v 0.04568699 0.01428338 -0.02539677
v 0.01714333 0.01428338 -0.04799113
v 0.01805067 -0.0001483118 -0.05115281
v 0.01805067 -0.0001483118 -0.05115281
v 0.01714333 0.01428338 -0.04799113
v -0.01183105 0.01428338 -0.04559777
v -0.0131726 -0.0001483118 -0.04896989
v -0.0131726 -0.0001483118 -0.04896989
v -0.01183105 0.01428338 -0.04559777
v -0.0232121 0.01428338 -0.02180644
v -0.02743508 -0.0001483118 -0.02445184
v -0.02743508 -0.0001483118 -0.02445184
v -0.0232121 0.01428338 -0.02180644
v -0.04530589 0.01197212 0.001196795
v -0.04796885 -0.0002294086 0.001091425
v -0.04796885 -0.0002294086 0.001091425
v -0.04530589 0.01197212 0.001196795
v -0.02661159 0.01428338 0.02419996
v -0.03053525 -0.0001483118 0.02663456
v -0.03053525 -0.0001483118 0.02663456
v -0.02661159 0.01428338 0.02419996
v -0.00704386 0.01428338 0.03961358
v -0.008806626 -0.0001483118 0.0435126
v -0.008806626 -0.0001483118 0.0435126
v -0.00704386 0.01428338 0.03961358
v 0.02432419 0.01428338 0.04799135
v 0.02459957 -0.0001483118 0.0511526
v 0.02459957 -0.0001483118 0.0511526
v 0.02432419 0.01428338 0.04799135
v 0.03671112 0.01428338 0.02420006
v 0.0397791 -0.0001483118 0.02663464
v 0.0397791 -0.0001483118 0.02663464
v 0.03671112 0.01428338 0.02420006
v 0.03865026 0.01197212 0.001196936
v 0.04193245 -0.0002294086 0.001091524
v 0.04193245 -0.0002294086 0.001091524
v 0.03865026 0.01197212 0.001196936
v 0.04568699 0.01428338 -0.02539677
v 0.04796489 -0.0001483118 -0.02772615
v 0.04568699 0.01428338 -0.02539677
v 0.03225063 0.02437435 -0.01614771
v 0.01203467 0.02437435 -0.03256867
v 0.01714333 0.01428338 -0.04799113
v 0.01714333 0.01428338 -0.04799113
v 0.01203467 0.02437435 -0.03256867
v -0.002593878 0.02437435 -0.02139385
v -0.01183105 0.01428338 -0.04559777
v -0.01183105 0.01428338 -0.04559777
v -0.002593878 0.02437435 -0.02139385
v -0.01125479 0.02437435 -0.01279515
v -0.0232121 0.01428338 -0.02180644
v -0.0232121 0.01428338 -0.02180644
v -0.01125479 0.02437435 -0.01279515
v -0.03124646 0.02074651 0.001117547
v -0.04530589 0.01197212 0.001196795
v -0.04530589 0.01197212 0.001196795
v -0.03124646 0.02074651 0.001117547
v -0.01442879 0.02437435 0.01503028
v -0.02661159 0.01428338 0.02419996
v -0.02661159 0.01428338 0.02419996
v -0.01442879 0.02437435 0.01503028
v -0.00259422 0.02437435 0.02474628
v -0.00704386 0.01428338 0.03961358
v -0.00704386 0.01428338 0.03961358
v -0.00259422 0.02437435 0.02474628
v 0.01873944 0.02437435 0.03256855
v 0.02432419 0.01428338 0.04799135
v 0.02432419 0.01428338 0.04799135
v 0.01873944 0.02437435 0.03256855
v 0.02386954 0.02437435 0.01503033
v 0.03671112 0.01428338 0.02420006
v 0.03671112 0.01428338 0.02420006
v 0.02386954 0.02437435 0.01503033
v 0.02504222 0.02074651 0.001117446
v 0.03865026 0.01197212 0.001196936
v 0.03865026 0.01197212 0.001196936
v 0.02504222 0.02074651 0.001117446
v 0.03225063 0.02437435 -0.01614771
v 0.04568699 0.01428338 -0.02539677
v 0.03225063 0.02437435 -0.01614771
v 0.004622089 0.03397609 0.001091413
v 0.01203467 0.02437435 -0.03256867
v 0.01203467 0.02437435 -0.03256867
v 0.004622089 0.03397609 0.001091413
v -0.002593878 0.02437435 -0.02139385
v -0.002593878 0.02437435 -0.02139385
v 0.004622089 0.03397609 0.001091413
v -0.01125479 0.02437435 -0.01279515
v -0.01125479 0.02437435 -0.01279515
v 0.004622089 0.03397609 0.001091413
v -0.03124646 0.02074651 0.001117547
v -0.03124646 0.02074651 0.001117547
v 0.004622089 0.03397609 0.001091413
v -0.01442879 0.02437435 0.01503028
v -0.01442879 0.02437435 0.01503028
v 0.004622089 0.03397609 0.001091413
v -0.00259422 0.02437435 0.02474628
v -0.00259422 0.02437435 0.02474628
v 0.004622089 0.03397609 0.001091413
v 0.01873944 0.02437435 0.03256855
v 0.01873944 0.02437435 0.03256855
v 0.004622089 0.03397609 0.001091413
v 0.02386954 0.02437435 0.01503033
v 0.02386954 0.02437435 0.01503033
v 0.004622089 0.03397609 0.001091413
v 0.02504222 0.02074651 0.001117446
v 0.02504222 0.02074651 0.001117446
v 0.004622089 0.03397609 0.001091413
v 0.03225063 0.02437435 -0.01614771

vn 0.2417893 -0.9701625 -0.01796667
vn 0.0009649956 -0.9999979 0.001842362
vn 0.1753478 -0.9656619 0.1917034
vn 0.1551889 -0.9725848 -0.1731913
vn -0.02684434 -0.9437405 -0.3295956
vn -0.1266709 -0.9469512 -0.2953608
vn -0.2517459 -0.9481972 -0.1937685
vn -0.3084179 -0.951227 -0.006751507
vn -0.176461 -0.9730799 0.148246
vn 0.1277833 -0.9389728 0.3193769
vn 0.1008962 -0.8818658 0.4605786
vn 0.7737761 -0.603393 0.1928408
vn 0.7737761 -0.603393 0.1928408
vn 0.773776 -0.603393 0.1928409
vn 0.7737761 -0.603393 0.1928408
vn 0.7037389 -0.6196028 -0.3476263
vn 0.7037389 -0.6196029 -0.3476262
vn 0.7037389 -0.6196028 -0.3476263
vn 0.7037389 -0.6196028 -0.3476263
vn 0.01704036 -0.5931995 -0.8048751
vn 0.01704036 -0.5931994 -0.8048751
vn 0.01704036 -0.5931995 -0.8048751
vn 0.01704032 -0.5931994 -0.8048751
vn 0.1708683 -0.6205729 -0.7653059
vn 0.1708682 -0.6205729 -0.7653061
vn 0.1708683 -0.6205729 -0.7653061
vn 0.1708682 -0.6205729 -0.7653061
vn -0.6813636 -0.5970929 -0.4233484
vn -0.6813636 -0.5970929 -0.4233484
vn -0.6813636 -0.5970928 -0.4233484
vn -0.6813636 -0.5970929 -0.4233484
vn -0.7742502 -0.6034437 -0.1907676
vn -0.7742502 -0.6034437 -0.1907677
vn -0.7742502 -0.6034437 -0.1907677
vn -0.7742502 -0.6034437 -0.1907677
vn -0.7935559 -0.5979962 0.1125593
vn -0.7935559 -0.5979962 0.1125593
vn -0.7935559 -0.5979962 0.1125593
vn -0.7935559 -0.5979962 0.1125593
vn -0.0446929 -0.5997461 0.7989413
vn -0.04469294 -0.5997461 0.7989412
vn -0.04469294 -0.5997461 0.7989412
vn -0.04469286 -0.599746 0.7989413
vn 0.3888865 -0.5957941 0.7027066
vn 0.3888865 -0.5957941 0.7027066
vn 0.3888865 -0.5957941 0.7027066
vn 0.3888865 -0.5957941 0.7027066
vn 0.1132615 -0.5426092 0.8323143
vn 0.1132616 -0.5426091 0.8323144
vn 0.1132615 -0.5426092 0.8323143
vn 0.1132616 -0.5426092 0.8323143
vn 0.9711218 0 0.2385842
vn 0.9711218 0 0.2385842
vn 0.9711218 0 0.2385842
vn 0.9711218 0 0.2385842
vn 0.9004204 0 -0.4350208
vn 0.9004204 0 -0.4350208
vn 0.9004204 0 -0.4350208
vn 0.9004204 0 -0.4350208
vn 0.08231875 0 -0.9966061
vn 0.08231875 0 -0.9966061
vn 0.08231875 0 -0.9966061
vn 0.08231875 0 -0.9966061
vn 0.2445454 0 -0.9696378
vn 0.2445454 0 -0.9696379
vn 0.2445454 0 -0.9696378
vn 0.2445454 0 -0.9696378
vn -0.866927 0 -0.4984352
vn -0.866927 0 -0.4984352
vn -0.866927 0 -0.4984352
vn -0.866927 0 -0.4984352
vn -0.9719743 0 -0.2350875
vn -0.9719743 0 -0.2350875
vn -0.9719743 0 -0.2350875
vn -0.9719743 0 -0.2350875
vn -0.9864506 0 0.164059
vn -0.9864506 0 0.164059
vn -0.9864506 0 0.164059
vn -0.9864506 0 0.164059
vn -0.112216 0 0.9936839
vn -0.112216 0 0.9936839
vn -0.112216 0 0.9936839
vn -0.112216 0 0.9936839
vn 0.3785987 0 0.9255609
vn 0.3785987 0 0.9255609
vn 0.3785987 0 0.9255609
vn 0.3785987 0 0.9255609
vn 0.2584358 0 0.9660285
vn 0.2584359 0 0.9660285
vn 0.2584358 0 0.9660285
vn 0.2584358 0 0.9660285
vn 0.9574252 0.1639926 0.237578
vn 0.9574252 0.1639926 0.237578
vn 0.9574252 0.1639926 0.237578
vn 0.9574252 0.1639926 0.237578
vn 0.8834102 0.1781649 -0.4334094
vn 0.8834102 0.1781649 -0.4334094
vn 0.8834102 0.1781649 -0.4334094
vn 0.8834102 0.1781649 -0.4334094
vn 0.03907911 0.2183281 -0.9750926
vn 0.03907908 0.2183281 -0.9750926
vn 0.03907918 0.2183281 -0.9750926
vn 0.03907911 0.2183281 -0.9750926
vn 0.2736913 0.2156505 -0.9373302
vn 0.2736913 0.2156505 -0.9373302
vn 0.2736913 0.2156505 -0.9373302
vn 0.2736912 0.2156505 -0.9373302
vn -0.8648371 0.1893014 -0.4649966
vn -0.8648371 0.1893015 -0.4649966
vn -0.8648371 0.1893015 -0.4649966
vn -0.8648371 0.1893014 -0.4649966
vn -0.947663 0.2191791 -0.2321535
vn -0.947663 0.2191791 -0.2321535
vn -0.9476631 0.2191791 -0.2321535
vn -0.9476631 0.2191791 -0.2321535
vn -0.9709205 0.190525 0.1449607
vn -0.9709205 0.190525 0.1449607
vn -0.9709205 0.190525 0.1449607
vn -0.9709205 0.190525 0.1449607
vn -0.07229428 0.1622134 0.9841038
vn -0.07229428 0.1622134 0.9841038
vn -0.07229434 0.1622134 0.9841038
vn -0.07229428 0.1622134 0.9841038
vn 0.3825437 0.1939409 0.9033533
vn 0.3825437 0.1939409 0.9033533
vn 0.3825437 0.1939409 0.9033533
vn 0.3825437 0.1939409 0.9033533
vn 0.2224279 0.1472338 0.9637676
vn 0.2224279 0.1472338 0.9637676
vn 0.2224279 0.1472338 0.9637676
vn 0.2224279 0.1472338 0.9637676
vn 0.630382 0.7593516 0.1612569
vn 0.630382 0.7593515 0.1612569
vn 0.630382 0.7593516 0.1612569
vn 0.630382 0.7593515 0.1612569
vn 0.4144259 0.8445988 -0.3389749
vn 0.4144259 0.8445988 -0.3389749
vn 0.4144259 0.8445988 -0.3389749
vn 0.4144259 0.8445988 -0.3389749
vn 0.06291307 0.8271444 -0.558457
vn 0.0629131 0.8271444 -0.558457
vn 0.06291307 0.8271444 -0.558457
vn 0.0629131 0.8271444 -0.558457
vn 0.1819232 0.7510826 -0.6346486
vn 0.1819232 0.7510827 -0.6346486
vn 0.1819232 0.7510827 -0.6346486
vn 0.1819232 0.7510827 -0.6346486
vn -0.5852157 0.7381529 -0.3356379
vn -0.5852157 0.738153 -0.3356379
vn -0.5852157 0.7381529 -0.3356379
vn -0.5852157 0.7381529 -0.3356379
vn -0.6506919 0.7408664 -0.1664845
vn -0.6506919 0.7408664 -0.1664846
vn -0.6506919 0.7408664 -0.1664845
vn -0.6506919 0.7408664 -0.1664846
vn -0.670441 0.7391596 0.06443594
vn -0.670441 0.7391596 0.06443596
vn -0.670441 0.7391596 0.06443596
vn -0.670441 0.7391596 0.06443596
vn 0.03665049 0.7380067 0.6737974
vn 0.03665049 0.7380067 0.6737974
vn 0.03665045 0.7380066 0.6737974
vn 0.03665049 0.7380067 0.6737974
vn 0.3908411 0.7254649 0.5665191
vn 0.390841 0.725465 0.5665189
vn 0.3908411 0.725465 0.566519
vn 0.3908411 0.7254649 0.5665191
vn -0.001587737 0.6676322 0.7444896
vn -0.001587737 0.6676322 0.7444896
vn -0.001587737 0.6676322 0.7444896
vn -0.001587737 0.6676322 0.7444896
vn 0.3656107 0.9257898 0.09613527
vn 0.3656107 0.9257898 0.09613524
vn 0.3656107 0.9257898 0.09613527
vn 0.2247688 0.8883389 -0.4004159
vn 0.2247688 0.8883389 -0.400416
vn 0.2247688 0.888339 -0.4004159
vn 0.1728982 0.8782587 -0.4458338
vn 0.1728982 0.8782587 -0.4458338
vn 0.1728982 0.8782587 -0.4458338
vn 0.09330402 0.8780058 -0.469468
vn 0.093304 0.8780058 -0.4694681
vn 0.093304 0.8780058 -0.4694681
vn -0.3756979 0.882383 -0.2832866
vn -0.3756979 0.8823831 -0.2832865
vn -0.3756979 0.882383 -0.2832866
vn -0.4655867 0.8761603 -0.1247885
vn -0.4655867 0.8761603 -0.1247886
vn -0.4655867 0.8761603 -0.1247886
vn -0.4496361 0.89297 0.02078528
vn -0.449636 0.89297 0.02078525
vn -0.449636 0.89297 0.02078527
vn 0.08209945 0.887157 0.4541057
vn 0.08209949 0.887157 0.4541058
vn 0.0820995 0.887157 0.4541059
vn 0.4597321 0.7547012 0.4680517
vn 0.4597321 0.7547013 0.4680517
vn 0.4597321 0.7547013 0.4680517
vn -0.1408286 0.7208565 0.6786259
vn -0.1408286 0.7208565 0.6786259
vn -0.1408286 0.7208565 0.6786259

vt 0.5482839 0.007647395
vt 0.5 0.15
vt 0.6264089 0.06440853
vt 0.4517161 0.00764741
vt 0.3735911 0.06440856
vt 0.34375 0.15625
vt 0.3735911 0.2480915
vt 0.4517161 0.3048526
vt 0.5482839 0.3048526
vt 0.6264089 0.2480914
vt 0.65625 0.15625
vt 0 0
vt 0 1
vt 1 1
vt 1 0
vt 0 0
vt 0 1
vt 1 1
vt 1 0
vt 0 0
vt 0 1
vt 1 1
vt 1 0
vt 0 0
vt 0 1
vt 1 1
vt 1 0
vt 0 0
vt 0 1
vt 1 1
vt 1 0
vt 0 0
vt 0 1
vt 1 1
vt 1 0
vt 0 0
vt 0 1
vt 1 1
vt 1 0
vt 0 0
vt 0 1
vt 1 1
vt 1 0
vt 0 0
vt 0 1
vt 1 1
vt 1 0
vt 0 0
vt 0 1
vt 1 1
vt 1 0
vt 0 0
vt 0 1
vt 1 1
vt 1 0
vt 0 0
vt 0 1
vt 1 1
vt 1 0
vt 0 0
vt 0 1
vt 1 1
vt 1 0
vt 0 0
vt 0 1
vt 1 1
vt 1 0
vt 0 0
vt 0 1
vt 1 1
vt 1 0
vt 0 0
vt 0 1
vt 1 1
vt 1 0
vt 0 0
vt 0 1
vt 1 1
vt 1 0
vt 0 0
vt 0 1
vt 1 1
vt 1 0
vt 0 0
vt 0 1
vt 1 1
vt 1 0
vt 0 0
vt 0 1
vt 1 1
vt 1 0
vt 0 0
vt 0 1
vt 1 1
vt 1 0
vt 0 0
vt 0 1
vt 1 1
vt 1 0
vt 0 0
vt 0 1
vt 1 1
vt 1 0
vt 0 0
vt 0 1
vt 1 1
vt 1 0
vt 0 0
vt 0 1
vt 1 1
vt 1 0
vt 0 0
vt 0 1
vt 1 1
vt 1 0
vt 0 0
vt 0 1
vt 1 1
vt 1 0
vt 0 0
vt 0 1
vt 1 1
vt 1 0
vt 0 0
vt 0 1
vt 1 1
vt 1 0
vt 0 0
vt 0 1
vt 1 1
vt 1 0
vt 0 0
vt 0 1
vt 1 1
vt 1 0
vt 0 0
vt 0 1
vt 1 1
vt 1 0
vt 0 0
vt 0 1
vt 1 1
vt 1 0
vt 0 0
vt 0 1
vt 1 1
vt 1 0
vt 0 0
vt 0 1
vt 1 1
vt 1 0
vt 0 0
vt 0 1
vt 1 1
vt 1 0
vt 0 0
vt 0 1
vt 1 1
vt 1 0
vt 0 0
vt 0 1
vt 1 1
vt 1 0
vt 0 0
vt 0 1
vt 1 1
vt 1 0
vt 0 0
vt 0 1
vt 1 1
vt 1 0
vt 0 0
vt 0.5 1
vt 1 0
vt 0 0
vt 0.5 1
vt 1 0
vt 0 0
vt 0.5 1
vt 1 0
vt 0 0
vt 0.5 1
vt 1 0
vt 0 0
vt 0.5 1
vt 1 0
vt 0 0
vt 0.5 1
vt 1 0
vt 0 0
vt 0.5 1
vt 1 0
vt 0 0
vt 0.5 1
vt 1 0
vt 0 0
vt 0.5 1
vt 1 0
vt 0 0
vt 0.5 1
vt 1 0

g Foliage8_37_3762_130
usemtl Foliage8_37_3762_130
usemap Foliage8_37_3762_130
f 1/1/1 3/3/3 2/2/2
f 4/4/4 1/1/1 2/2/2
f 5/5/5 4/4/4 2/2/2
f 6/6/6 5/5/5 2/2/2
f 7/7/7 6/6/6 2/2/2
f 8/8/8 7/7/7 2/2/2
f 9/9/9 8/8/8 2/2/2
f 10/10/10 9/9/9 2/2/2
f 11/11/11 10/10/10 2/2/2
f 3/3/3 11/11/11 2/2/2
f 12/12/12 14/14/14 13/13/13
f 12/12/12 15/15/15 14/14/14
f 16/16/16 18/18/18 17/17/17
f 16/16/16 19/19/19 18/18/18
f 20/20/20 22/22/22 21/21/21
f 20/20/20 23/23/23 22/22/22
f 24/24/24 26/26/26 25/25/25
f 24/24/24 27/27/27 26/26/26
f 28/28/28 30/30/30 29/29/29
f 28/28/28 31/31/31 30/30/30
f 32/32/32 34/34/34 33/33/33
f 32/32/32 35/35/35 34/34/34
f 36/36/36 38/38/38 37/37/37
f 36/36/36 39/39/39 38/38/38
f 40/40/40 42/42/42 41/41/41
f 40/40/40 43/43/43 42/42/42
f 44/44/44 46/46/46 45/45/45
f 44/44/44 47/47/47 46/46/46
f 48/48/48 50/50/50 49/49/49
f 48/48/48 51/51/51 50/50/50
f 52/52/52 54/54/54 53/53/53
f 52/52/52 55/55/55 54/54/54
f 56/56/56 58/58/58 57/57/57
f 56/56/56 59/59/59 58/58/58
f 60/60/60 62/62/62 61/61/61
f 60/60/60 63/63/63 62/62/62
f 64/64/64 66/66/66 65/65/65
f 64/64/64 67/67/67 66/66/66
f 68/68/68 70/70/70 69/69/69
f 68/68/68 71/71/71 70/70/70
f 72/72/72 74/74/74 73/73/73
f 72/72/72 75/75/75 74/74/74
f 76/76/76 78/78/78 77/77/77
f 76/76/76 79/79/79 78/78/78
f 80/80/80 82/82/82 81/81/81
f 80/80/80 83/83/83 82/82/82
f 84/84/84 86/86/86 85/85/85
f 84/84/84 87/87/87 86/86/86
f 88/88/88 90/90/90 89/89/89
f 88/88/88 91/91/91 90/90/90
f 92/92/92 94/94/94 93/93/93
f 92/92/92 95/95/95 94/94/94
f 96/96/96 98/98/98 97/97/97
f 96/96/96 99/99/99 98/98/98
f 100/100/100 102/102/102 101/101/101
f 100/100/100 103/103/103 102/102/102
f 104/104/104 106/106/106 105/105/105
f 104/104/104 107/107/107 106/106/106
f 108/108/108 110/110/110 109/109/109
f 108/108/108 111/111/111 110/110/110
f 112/112/112 114/114/114 113/113/113
f 112/112/112 115/115/115 114/114/114
f 116/116/116 118/118/118 117/117/117
f 116/116/116 119/119/119 118/118/118
f 120/120/120 122/122/122 121/121/121
f 120/120/120 123/123/123 122/122/122
f 124/124/124 126/126/126 125/125/125
f 124/124/124 127/127/127 126/126/126
f 128/128/128 130/130/130 129/129/129
f 128/128/128 131/131/131 130/130/130
f 132/132/132 134/134/134 133/133/133
f 132/132/132 135/135/135 134/134/134
f 136/136/136 138/138/138 137/137/137
f 136/136/136 139/139/139 138/138/138
f 140/140/140 142/142/142 141/141/141
f 140/140/140 143/143/143 142/142/142
f 144/144/144 146/146/146 145/145/145
f 144/144/144 147/147/147 146/146/146
f 148/148/148 150/150/150 149/149/149
f 148/148/148 151/151/151 150/150/150
f 152/152/152 154/154/154 153/153/153
f 152/152/152 155/155/155 154/154/154
f 156/156/156 158/158/158 157/157/157
f 156/156/156 159/159/159 158/158/158
f 160/160/160 162/162/162 161/161/161
f 160/160/160 163/163/163 162/162/162
f 164/164/164 166/166/166 165/165/165
f 164/164/164 167/167/167 166/166/166
f 168/168/168 170/170/170 169/169/169
f 168/168/168 171/171/171 170/170/170
f 172/172/172 174/174/174 173/173/173
f 175/175/175 177/177/177 176/176/176
f 178/178/178 180/180/180 179/179/179
f 181/181/181 183/183/183 182/182/182
f 184/184/184 186/186/186 185/185/185
f 187/187/187 189/189/189 188/188/188
f 190/190/190 192/192/192 191/191/191
f 193/193/193 195/195/195 194/194/194
f 196/196/196 198/198/198 197/197/197
f 199/199/199 201/201/201 200/200/200
