#Foliage1_3_3512_32.obj

v 0.01454552 -0.02577552 -0.0403583
v 0.004624059 -0.03397598 0.001091347
v 0.0387847 -0.02577543 -0.02105481
v -0.009663166 -0.02577553 -0.03817545
v -0.01825056 -0.02577556 -0.01778046
v -0.03822189 -0.02223203 0.001091329
v -0.02135061 -0.02577549 0.01996313
v -0.005297406 -0.02577551 0.03271795
v 0.02109427 -0.02577551 0.04035814
v 0.03059878 -0.02577544 0.01996315
v 0.03218967 -0.02223206 0.00109139
v 0.0387847 -0.02577543 -0.02105481
v 0.04796712 -0.0148923 -0.02772619
v 0.01805293 -0.01489231 -0.05115287
v 0.01454552 -0.02577552 -0.0403583
v 0.01454552 -0.02577552 -0.0403583
v 0.01805293 -0.01489231 -0.05115287
v -0.01317053 -0.01489225 -0.04896993
v -0.009663166 -0.02577553 -0.03817545
v -0.009663166 -0.02577553 -0.03817545
v -0.01317053 -0.01489225 -0.04896993
v -0.02743299 -0.01489231 -0.02445181
v -0.01825056 -0.02577556 -0.01778046
v -0.01825056 -0.02577556 -0.01778046
v -0.02743299 -0.01489231 -0.02445181
v -0.04796669 -0.01288799 0.001091385
v -0.03822189 -0.02223203 0.001091329
v -0.03822189 -0.02223203 0.001091329
v -0.04796669 -0.01288799 0.001091385
v -0.03053301 -0.01489229 0.02663454
v -0.02135061 -0.02577549 0.01996313
v -0.02135061 -0.02577549 0.01996313
v -0.03053301 -0.01489229 0.02663454
v -0.008804697 -0.01489222 0.04351242
v -0.005297406 -0.02577551 0.03271795
v -0.005297406 -0.02577551 0.03271795
v -0.008804697 -0.01489222 0.04351242
v 0.02460159 -0.0148923 0.05115261
v 0.02109427 -0.02577551 0.04035814
v 0.02109427 -0.02577551 0.04035814
v 0.02460159 -0.0148923 0.05115261
v 0.03978122 -0.0148922 0.02663454
v 0.03059878 -0.02577544 0.01996315
v 0.03059878 -0.02577544 0.01996315
v 0.03978122 -0.0148922 0.02663454
v 0.04193451 -0.01288803 0.001091326
v 0.03218967 -0.02223206 0.00109139
v 0.03218967 -0.02223206 0.00109139
v 0.04193451 -0.01288803 0.001091326
v 0.04796712 -0.0148923 -0.02772619
v 0.0387847 -0.02577543 -0.02105481
v 0.04796712 -0.0148923 -0.02772619
v 0.0479671 -0.0001481489 -0.02772619
v 0.01805293 -0.000148164 -0.05115284
v 0.01805293 -0.01489231 -0.05115287
v 0.01805293 -0.01489231 -0.05115287
v 0.01805293 -0.000148164 -0.05115284
v -0.01317052 -0.0001481025 -0.04896991
v -0.01317053 -0.01489225 -0.04896993
v -0.01317053 -0.01489225 -0.04896993
v -0.01317052 -0.0001481025 -0.04896991
v -0.02743292 -0.000148161 -0.02445183
v -0.02743299 -0.01489231 -0.02445181
v -0.02743299 -0.01489231 -0.02445181
v -0.02743292 -0.000148161 -0.02445183
v -0.04796671 -0.0002293382 0.001091353
v -0.04796669 -0.01288799 0.001091385
v -0.04796669 -0.01288799 0.001091385
v -0.04796671 -0.0002293382 0.001091353
v -0.03053304 -0.0001481449 0.02663453
v -0.03053301 -0.01489229 0.02663454
v -0.03053301 -0.01489229 0.02663454
v -0.03053304 -0.0001481449 0.02663453
v -0.008804713 -0.0001482343 0.04351241
v -0.008804697 -0.01489222 0.04351242
v -0.008804697 -0.01489222 0.04351242
v -0.008804713 -0.0001482343 0.04351241
v 0.02460159 -0.0001481532 0.05115264
v 0.02460159 -0.0148923 0.05115261
v 0.02460159 -0.0148923 0.05115261
v 0.02460159 -0.0001481532 0.05115264
v 0.0397812 -0.0001482135 0.02663453
v 0.03978122 -0.0148922 0.02663454
v 0.03978122 -0.0148922 0.02663454
v 0.0397812 -0.0001482135 0.02663453
v 0.0419345 -0.0002292128 0.001091334
v 0.04193451 -0.01288803 0.001091326
v 0.04193451 -0.01288803 0.001091326
v 0.0419345 -0.0002292128 0.001091334
v 0.0479671 -0.0001481489 -0.02772619
v 0.04796712 -0.0148923 -0.02772619
v 0.0479671 -0.0001481489 -0.02772619
v 0.04568914 0.01428355 -0.02539691
v 0.0171453 0.01428345 -0.04799134
v 0.01805293 -0.000148164 -0.05115284
v 0.01805293 -0.000148164 -0.05115284
v 0.0171453 0.01428345 -0.04799134
v -0.01182885 0.01428348 -0.04559775
v -0.01317052 -0.0001481025 -0.04896991
v -0.01317052 -0.0001481025 -0.04896991
v -0.01182885 0.01428348 -0.04559775
v -0.02321003 0.01428347 -0.02180645
v -0.02743292 -0.000148161 -0.02445183
v -0.02743292 -0.000148161 -0.02445183
v -0.02321003 0.01428347 -0.02180645
v -0.04530384 0.01197221 0.001196685
v -0.04796671 -0.0002293382 0.001091353
v -0.04796671 -0.0002293382 0.001091353
v -0.04530384 0.01197221 0.001196685
v -0.02660937 0.01428353 0.0241999
v -0.03053304 -0.0001481449 0.02663453
v -0.03053304 -0.0001481449 0.02663453
v -0.02660937 0.01428353 0.0241999
v -0.007041668 0.01428353 0.03961346
v -0.008804713 -0.0001482343 0.04351241
v -0.008804713 -0.0001482343 0.04351241
v -0.007041668 0.01428353 0.03961346
v 0.02432614 0.01428349 0.04799115
v 0.02460159 -0.0001481532 0.05115264
v 0.02460159 -0.0001481532 0.05115264
v 0.02432614 0.01428349 0.04799115
v 0.03671301 0.01428357 0.02419989
v 0.0397812 -0.0001482135 0.02663453
v 0.0397812 -0.0001482135 0.02663453
v 0.03671301 0.01428357 0.02419989
v 0.03865222 0.01197225 0.001196708
v 0.0419345 -0.0002292128 0.001091334
v 0.0419345 -0.0002292128 0.001091334
v 0.03865222 0.01197225 0.001196708
v 0.04568914 0.01428355 -0.02539691
v 0.0479671 -0.0001481489 -0.02772619
v 0.04568914 0.01428355 -0.02539691
v 0.03225265 0.02437459 -0.01614775
v 0.01203667 0.02437457 -0.03256873
v 0.0171453 0.01428345 -0.04799134
v 0.0171453 0.01428345 -0.04799134
v 0.01203667 0.02437457 -0.03256873
v -0.002592056 0.02437449 -0.02139393
v -0.01182885 0.01428348 -0.04559775
v -0.01182885 0.01428348 -0.04559775
v -0.002592056 0.02437449 -0.02139393
v -0.01125289 0.02437457 -0.01279533
v -0.02321003 0.01428347 -0.02180645
v -0.02321003 0.01428347 -0.02180645
v -0.01125289 0.02437457 -0.01279533
v -0.03124448 0.02074657 0.001117363
v -0.04530384 0.01197221 0.001196685
v -0.04530384 0.01197221 0.001196685
v -0.03124448 0.02074657 0.001117363
v -0.01442686 0.02437447 0.0150301
v -0.02660937 0.01428353 0.0241999
v -0.02660937 0.01428353 0.0241999
v -0.01442686 0.02437447 0.0150301
v -0.002591991 0.02437461 0.02474611
v -0.007041668 0.01428353 0.03961346
v -0.007041668 0.01428353 0.03961346
v -0.002591991 0.02437461 0.02474611
v 0.01874155 0.02437453 0.03256848
v 0.02432614 0.01428349 0.04799115
v 0.02432614 0.01428349 0.04799115
v 0.01874155 0.02437453 0.03256848
v 0.02387155 0.02437456 0.01503013
v 0.03671301 0.01428357 0.02419989
v 0.03671301 0.01428357 0.02419989
v 0.02387155 0.02437456 0.01503013
v 0.02504443 0.02074664 0.001117368
v 0.03865222 0.01197225 0.001196708
v 0.03865222 0.01197225 0.001196708
v 0.02504443 0.02074664 0.001117368
v 0.03225265 0.02437459 -0.01614775
v 0.04568914 0.01428355 -0.02539691
v 0.03225265 0.02437459 -0.01614775
v 0.004624046 0.03397619 0.00109132
v 0.01203667 0.02437457 -0.03256873
v 0.01203667 0.02437457 -0.03256873
v 0.004624046 0.03397619 0.00109132
v -0.002592056 0.02437449 -0.02139393
v -0.002592056 0.02437449 -0.02139393
v 0.004624046 0.03397619 0.00109132
v -0.01125289 0.02437457 -0.01279533
v -0.01125289 0.02437457 -0.01279533
v 0.004624046 0.03397619 0.00109132
v -0.03124448 0.02074657 0.001117363
v -0.03124448 0.02074657 0.001117363
v 0.004624046 0.03397619 0.00109132
v -0.01442686 0.02437447 0.0150301
v -0.01442686 0.02437447 0.0150301
v 0.004624046 0.03397619 0.00109132
v -0.002591991 0.02437461 0.02474611
v -0.002591991 0.02437461 0.02474611
v 0.004624046 0.03397619 0.00109132
v 0.01874155 0.02437453 0.03256848
v 0.01874155 0.02437453 0.03256848
v 0.004624046 0.03397619 0.00109132
v 0.02387155 0.02437456 0.01503013
v 0.02387155 0.02437456 0.01503013
v 0.004624046 0.03397619 0.00109132
v 0.02504443 0.02074664 0.001117368
v 0.02504443 0.02074664 0.001117368
v 0.004624046 0.03397619 0.00109132
v 0.03225265 0.02437459 -0.01614775

vn -0.0965749 -0.9900536 -0.1023051
vn 0.01076357 -0.9984722 0.05419101
vn 0.08700366 -0.9867527 -0.1369258
vn -0.1798206 -0.9835848 0.01498931
vn -0.2301163 -0.9530779 0.1966934
vn -0.1658278 -0.9534159 0.2519891
vn -0.0406522 -0.9532701 0.2993707
vn 0.1234006 -0.9558221 0.2667872
vn 0.1883903 -0.9750094 0.11775
vn 0.2028635 -0.9667596 -0.155633
vn 0.3254534 -0.9246868 -0.1975693
vn -0.1671703 -0.7427384 -0.6483774
vn -0.1671703 -0.7427384 -0.6483774
vn -0.1671703 -0.7427384 -0.6483774
vn -0.1671703 -0.7427384 -0.6483774
vn -0.5892271 -0.7293213 -0.3477082
vn -0.5892271 -0.7293214 -0.3477082
vn -0.5892271 -0.7293213 -0.3477082
vn -0.5892272 -0.7293214 -0.3477082
vn -0.669956 -0.6497158 0.3592043
vn -0.6699561 -0.6497158 0.3592043
vn -0.669956 -0.6497158 0.3592043
vn -0.6699561 -0.6497158 0.3592044
vn -0.6954086 -0.6816317 0.2275621
vn -0.6954087 -0.6816316 0.2275622
vn -0.6954086 -0.6816316 0.2275622
vn -0.6954086 -0.6816316 0.2275622
vn -0.06018627 -0.6551793 0.7530718
vn -0.06018627 -0.6551793 0.7530718
vn -0.0601863 -0.6551792 0.7530719
vn -0.06018627 -0.6551793 0.7530719
vn 0.1829124 -0.6629256 0.7259973
vn 0.1829124 -0.6629256 0.7259974
vn 0.1829124 -0.6629256 0.7259973
vn 0.1829124 -0.6629256 0.7259973
vn 0.4518988 -0.65596 0.6045687
vn 0.4518988 -0.65596 0.6045687
vn 0.4518989 -0.65596 0.6045687
vn 0.4518988 -0.65596 0.6045687
vn 0.6881446 -0.6767808 -0.2615805
vn 0.6881446 -0.6767808 -0.2615804
vn 0.6881446 -0.6767808 -0.2615804
vn 0.6881447 -0.6767808 -0.2615805
vn 0.4354925 -0.7068487 -0.5574142
vn 0.4354925 -0.7068488 -0.5574142
vn 0.4354925 -0.7068487 -0.5574142
vn 0.4354925 -0.7068487 -0.5574142
vn 0.660782 -0.6325687 -0.4040092
vn 0.660782 -0.6325686 -0.4040093
vn 0.660782 -0.6325687 -0.4040092
vn 0.660782 -0.6325687 -0.4040093
vn -0.2485817 -0.05620478 -0.9669788
vn -0.2485817 -0.05620478 -0.9669788
vn -0.2485817 -0.05620478 -0.9669788
vn -0.2485817 -0.05620478 -0.9669788
vn -0.8334504 -0.03879941 -0.55123
vn -0.8334504 -0.03879941 -0.55123
vn -0.8334504 -0.03879941 -0.55123
vn -0.8334504 -0.03879941 -0.55123
vn -0.9253455 0.01203091 0.3789335
vn -0.9253455 0.01203091 0.3789335
vn -0.9253455 0.01203091 0.3789335
vn -0.9253455 0.01203091 0.3789335
vn -0.9716489 0.003651805 0.2363991
vn -0.9716491 0.003651807 0.2363992
vn -0.9716489 0.003651805 0.2363991
vn -0.9716489 0.003651805 0.2363991
vn -0.05627257 0.05489007 0.9969054
vn -0.05627257 0.05489007 0.9969054
vn -0.05627248 0.05489007 0.9969054
vn -0.05627257 0.05489007 0.9969054
vn 0.2524085 0.05618708 0.965988
vn 0.2524085 0.05618708 0.965988
vn 0.2524085 0.05618708 0.965988
vn 0.2524085 0.05618708 0.965988
vn 0.6370911 0.04900397 0.7692289
vn 0.6370911 0.04900397 0.7692289
vn 0.6370911 0.04900397 0.7692289
vn 0.6370911 0.04900397 0.7692289
vn 0.9354156 -0.01051217 -0.3533935
vn 0.9354156 -0.01051217 -0.3533935
vn 0.9354156 -0.01051217 -0.3533935
vn 0.9354156 -0.01051217 -0.3533935
vn 0.6737402 -0.03446711 -0.738164
vn 0.6737402 -0.03446711 -0.738164
vn 0.6737402 -0.03446711 -0.738164
vn 0.6737402 -0.03446711 -0.738164
vn 0.7588226 -0.0287695 -0.6506616
vn 0.7588226 -0.0287695 -0.6506616
vn 0.7588226 -0.0287695 -0.6506616
vn 0.7588226 -0.0287695 -0.6506616
vn -0.2425517 0.1574899 -0.9572698
vn -0.2425517 0.15749 -0.9572697
vn -0.2425517 0.15749 -0.9572697
vn -0.2425517 0.15749 -0.9572697
vn -0.8182175 0.1832867 -0.5449088
vn -0.8182175 0.1832867 -0.5449088
vn -0.8182175 0.1832867 -0.5449088
vn -0.8182175 0.1832867 -0.5449088
vn -0.8814235 0.2721637 0.3860301
vn -0.8814235 0.2721637 0.3860302
vn -0.8814235 0.2721637 0.3860301
vn -0.8814235 0.2721636 0.3860301
vn -0.9492717 0.2559254 0.1827159
vn -0.9492717 0.2559254 0.1827159
vn -0.9492717 0.2559254 0.182716
vn -0.9492717 0.2559254 0.182716
vn -0.02696961 0.2969884 0.9545001
vn -0.02696961 0.2969884 0.9545001
vn -0.02696964 0.2969884 0.9545001
vn -0.02696961 0.2969883 0.9545001
vn 0.2363979 0.3357276 0.9118128
vn 0.2363978 0.3357276 0.9118128
vn 0.2363979 0.3357277 0.9118129
vn 0.2363979 0.3357277 0.9118129
vn 0.6024831 0.2900113 0.7435772
vn 0.6024831 0.2900113 0.7435772
vn 0.6024831 0.2900113 0.7435772
vn 0.6024831 0.2900113 0.7435772
vn 0.9029372 0.1804459 -0.3900558
vn 0.9029372 0.1804459 -0.3900558
vn 0.9029372 0.1804459 -0.3900557
vn 0.9029372 0.1804459 -0.3900558
vn 0.643553 0.20278 -0.7380512
vn 0.643553 0.20278 -0.7380513
vn 0.643553 0.20278 -0.7380513
vn 0.643553 0.20278 -0.7380513
vn 0.7655947 0.1512536 -0.6252894
vn 0.7655947 0.1512536 -0.6252894
vn 0.7655947 0.1512536 -0.6252894
vn 0.7655947 0.1512536 -0.6252894
vn -0.1386931 0.8047128 -0.5772355
vn -0.1386932 0.8047128 -0.5772356
vn -0.1386931 0.8047128 -0.5772355
vn -0.1386932 0.8047128 -0.5772356
vn -0.4392699 0.8740009 -0.2077586
vn -0.4392699 0.8740008 -0.2077585
vn -0.4392699 0.8740009 -0.2077586
vn -0.4392699 0.8740009 -0.2077586
vn -0.4707431 0.8731538 0.1265012
vn -0.4707431 0.8731538 0.1265011
vn -0.4707431 0.8731538 0.1265012
vn -0.4707431 0.8731538 0.1265011
vn -0.5882883 0.8048115 0.07870509
vn -0.5882883 0.8048116 0.07870509
vn -0.5882883 0.8048116 0.07870509
vn -0.5882883 0.8048116 0.07870509
vn -0.03964925 0.8487671 0.5272776
vn -0.03964922 0.8487672 0.5272776
vn -0.03964925 0.8487671 0.5272776
vn -0.03964925 0.8487671 0.5272776
vn 0.1276418 0.8529651 0.50612
vn 0.1276418 0.852965 0.50612
vn 0.1276418 0.852965 0.50612
vn 0.1276418 0.852965 0.50612
vn 0.325629 0.8452783 0.4236385
vn 0.325629 0.8452783 0.4236385
vn 0.325629 0.8452783 0.4236385
vn 0.325629 0.8452783 0.4236385
vn 0.5188086 0.7835603 -0.3418628
vn 0.5188087 0.7835603 -0.3418629
vn 0.5188087 0.7835603 -0.3418629
vn 0.5188087 0.7835603 -0.3418629
vn 0.2939186 0.7712584 -0.5645987
vn 0.2939185 0.7712585 -0.5645986
vn 0.2939186 0.7712585 -0.5645987
vn 0.2939186 0.7712584 -0.5645987
vn 0.6020312 0.7204427 -0.3442678
vn 0.6020311 0.7204427 -0.3442678
vn 0.6020312 0.7204427 -0.3442678
vn 0.6020312 0.7204427 -0.3442678
vn -0.0781489 0.9364206 -0.342065
vn -0.07814895 0.9364206 -0.342065
vn -0.0781489 0.9364206 -0.342065
vn -0.4051726 0.9127656 -0.05189742
vn -0.4051726 0.9127656 -0.05189744
vn -0.4051726 0.9127656 -0.05189745
vn -0.4206856 0.9072039 0.002042457
vn -0.4206856 0.9072039 0.002042428
vn -0.4206856 0.9072039 0.002042487
vn -0.4077377 0.9106872 0.06631763
vn -0.4077378 0.9106872 0.06631765
vn -0.4077378 0.9106872 0.06631765
vn -0.08114934 0.9430641 0.3225588
vn -0.08114929 0.9430641 0.3225588
vn -0.08114934 0.9430641 0.3225588
vn 0.07860081 0.9423158 0.3253643
vn 0.07860079 0.9423159 0.3253643
vn 0.07860079 0.9423159 0.3253643
vn 0.1846751 0.94943 0.253923
vn 0.1846751 0.94943 0.253923
vn 0.1846751 0.94943 0.2539229
vn 0.3092838 0.9077602 -0.2833975
vn 0.3092839 0.9077602 -0.2833975
vn 0.3092839 0.9077601 -0.2833976
vn 0.1833241 0.7980689 -0.5740016
vn 0.1833241 0.7980689 -0.5740016
vn 0.1833241 0.7980689 -0.5740016
vn 0.5959822 0.773682 -0.2149901
vn 0.5959822 0.773682 -0.2149901
vn 0.5959822 0.773682 -0.2149901

vt 0.5482839 0.007647395
vt 0.5 0.15
vt 0.6264089 0.06440853
vt 0.4517161 0.00764741
vt 0.3735911 0.06440856
vt 0.34375 0.15625
vt 0.3735911 0.2480915
vt 0.4517161 0.3048526
vt 0.5482839 0.3048526
vt 0.6264089 0.2480914
vt 0.65625 0.15625
vt 0 0
vt 0 1
vt 1 1
vt 1 0
vt 0 0
vt 0 1
vt 1 1
vt 1 0
vt 0 0
vt 0 1
vt 1 1
vt 1 0
vt 0 0
vt 0 1
vt 1 1
vt 1 0
vt 0 0
vt 0 1
vt 1 1
vt 1 0
vt 0 0
vt 0 1
vt 1 1
vt 1 0
vt 0 0
vt 0 1
vt 1 1
vt 1 0
vt 0 0
vt 0 1
vt 1 1
vt 1 0
vt 0 0
vt 0 1
vt 1 1
vt 1 0
vt 0 0
vt 0 1
vt 1 1
vt 1 0
vt 0 0
vt 0 1
vt 1 1
vt 1 0
vt 0 0
vt 0 1
vt 1 1
vt 1 0
vt 0 0
vt 0 1
vt 1 1
vt 1 0
vt 0 0
vt 0 1
vt 1 1
vt 1 0
vt 0 0
vt 0 1
vt 1 1
vt 1 0
vt 0 0
vt 0 1
vt 1 1
vt 1 0
vt 0 0
vt 0 1
vt 1 1
vt 1 0
vt 0 0
vt 0 1
vt 1 1
vt 1 0
vt 0 0
vt 0 1
vt 1 1
vt 1 0
vt 0 0
vt 0 1
vt 1 1
vt 1 0
vt 0 0
vt 0 1
vt 1 1
vt 1 0
vt 0 0
vt 0 1
vt 1 1
vt 1 0
vt 0 0
vt 0 1
vt 1 1
vt 1 0
vt 0 0
vt 0 1
vt 1 1
vt 1 0
vt 0 0
vt 0 1
vt 1 1
vt 1 0
vt 0 0
vt 0 1
vt 1 1
vt 1 0
vt 0 0
vt 0 1
vt 1 1
vt 1 0
vt 0 0
vt 0 1
vt 1 1
vt 1 0
vt 0 0
vt 0 1
vt 1 1
vt 1 0
vt 0 0
vt 0 1
vt 1 1
vt 1 0
vt 0 0
vt 0 1
vt 1 1
vt 1 0
vt 0 0
vt 0 1
vt 1 1
vt 1 0
vt 0 0
vt 0 1
vt 1 1
vt 1 0
vt 0 0
vt 0 1
vt 1 1
vt 1 0
vt 0 0
vt 0 1
vt 1 1
vt 1 0
vt 0 0
vt 0 1
vt 1 1
vt 1 0
vt 0 0
vt 0 1
vt 1 1
vt 1 0
vt 0 0
vt 0 1
vt 1 1
vt 1 0
vt 0 0
vt 0 1
vt 1 1
vt 1 0
vt 0 0
vt 0 1
vt 1 1
vt 1 0
vt 0 0
vt 0.5 1
vt 1 0
vt 0 0
vt 0.5 1
vt 1 0
vt 0 0
vt 0.5 1
vt 1 0
vt 0 0
vt 0.5 1
vt 1 0
vt 0 0
vt 0.5 1
vt 1 0
vt 0 0
vt 0.5 1
vt 1 0
vt 0 0
vt 0.5 1
vt 1 0
vt 0 0
vt 0.5 1
vt 1 0
vt 0 0
vt 0.5 1
vt 1 0
vt 0 0
vt 0.5 1
vt 1 0

g Foliage1_3_3512_32
usemtl Foliage1_3_3512_32
usemap Foliage1_3_3512_32
f 1/1/1 3/3/3 2/2/2
f 4/4/4 1/1/1 2/2/2
f 5/5/5 4/4/4 2/2/2
f 6/6/6 5/5/5 2/2/2
f 7/7/7 6/6/6 2/2/2
f 8/8/8 7/7/7 2/2/2
f 9/9/9 8/8/8 2/2/2
f 10/10/10 9/9/9 2/2/2
f 11/11/11 10/10/10 2/2/2
f 3/3/3 11/11/11 2/2/2
f 12/12/12 14/14/14 13/13/13
f 12/12/12 15/15/15 14/14/14
f 16/16/16 18/18/18 17/17/17
f 16/16/16 19/19/19 18/18/18
f 20/20/20 22/22/22 21/21/21
f 20/20/20 23/23/23 22/22/22
f 24/24/24 26/26/26 25/25/25
f 24/24/24 27/27/27 26/26/26
f 28/28/28 30/30/30 29/29/29
f 28/28/28 31/31/31 30/30/30
f 32/32/32 34/34/34 33/33/33
f 32/32/32 35/35/35 34/34/34
f 36/36/36 38/38/38 37/37/37
f 36/36/36 39/39/39 38/38/38
f 40/40/40 42/42/42 41/41/41
f 40/40/40 43/43/43 42/42/42
f 44/44/44 46/46/46 45/45/45
f 44/44/44 47/47/47 46/46/46
f 48/48/48 50/50/50 49/49/49
f 48/48/48 51/51/51 50/50/50
f 52/52/52 54/54/54 53/53/53
f 52/52/52 55/55/55 54/54/54
f 56/56/56 58/58/58 57/57/57
f 56/56/56 59/59/59 58/58/58
f 60/60/60 62/62/62 61/61/61
f 60/60/60 63/63/63 62/62/62
f 64/64/64 66/66/66 65/65/65
f 64/64/64 67/67/67 66/66/66
f 68/68/68 70/70/70 69/69/69
f 68/68/68 71/71/71 70/70/70
f 72/72/72 74/74/74 73/73/73
f 72/72/72 75/75/75 74/74/74
f 76/76/76 78/78/78 77/77/77
f 76/76/76 79/79/79 78/78/78
f 80/80/80 82/82/82 81/81/81
f 80/80/80 83/83/83 82/82/82
f 84/84/84 86/86/86 85/85/85
f 84/84/84 87/87/87 86/86/86
f 88/88/88 90/90/90 89/89/89
f 88/88/88 91/91/91 90/90/90
f 92/92/92 94/94/94 93/93/93
f 92/92/92 95/95/95 94/94/94
f 96/96/96 98/98/98 97/97/97
f 96/96/96 99/99/99 98/98/98
f 100/100/100 102/102/102 101/101/101
f 100/100/100 103/103/103 102/102/102
f 104/104/104 106/106/106 105/105/105
f 104/104/104 107/107/107 106/106/106
f 108/108/108 110/110/110 109/109/109
f 108/108/108 111/111/111 110/110/110
f 112/112/112 114/114/114 113/113/113
f 112/112/112 115/115/115 114/114/114
f 116/116/116 118/118/118 117/117/117
f 116/116/116 119/119/119 118/118/118
f 120/120/120 122/122/122 121/121/121
f 120/120/120 123/123/123 122/122/122
f 124/124/124 126/126/126 125/125/125
f 124/124/124 127/127/127 126/126/126
f 128/128/128 130/130/130 129/129/129
f 128/128/128 131/131/131 130/130/130
f 132/132/132 134/134/134 133/133/133
f 132/132/132 135/135/135 134/134/134
f 136/136/136 138/138/138 137/137/137
f 136/136/136 139/139/139 138/138/138
f 140/140/140 142/142/142 141/141/141
f 140/140/140 143/143/143 142/142/142
f 144/144/144 146/146/146 145/145/145
f 144/144/144 147/147/147 146/146/146
f 148/148/148 150/150/150 149/149/149
f 148/148/148 151/151/151 150/150/150
f 152/152/152 154/154/154 153/153/153
f 152/152/152 155/155/155 154/154/154
f 156/156/156 158/158/158 157/157/157
f 156/156/156 159/159/159 158/158/158
f 160/160/160 162/162/162 161/161/161
f 160/160/160 163/163/163 162/162/162
f 164/164/164 166/166/166 165/165/165
f 164/164/164 167/167/167 166/166/166
f 168/168/168 170/170/170 169/169/169
f 168/168/168 171/171/171 170/170/170
f 172/172/172 174/174/174 173/173/173
f 175/175/175 177/177/177 176/176/176
f 178/178/178 180/180/180 179/179/179
f 181/181/181 183/183/183 182/182/182
f 184/184/184 186/186/186 185/185/185
f 187/187/187 189/189/189 188/188/188
f 190/190/190 192/192/192 191/191/191
f 193/193/193 195/195/195 194/194/194
f 196/196/196 198/198/198 197/197/197
f 199/199/199 201/201/201 200/200/200
