#Foliage2_13_4042_275.obj

v 0.01454648 -0.02577561 -0.0403569
v 0.004625054 -0.03397604 0.001092987
v 0.03878576 -0.02577558 -0.02105353
v -0.009662387 -0.02577562 -0.0381742
v -0.0182496 -0.02577555 -0.01777917
v -0.03822086 -0.02223212 0.001092804
v -0.02134966 -0.0257756 0.01996448
v -0.005296417 -0.02577562 0.03271925
v 0.02109547 -0.02577556 0.04035984
v 0.03059988 -0.02577556 0.01996453
v 0.03219065 -0.02223216 0.001092448
v 0.03878576 -0.02577558 -0.02105353
v 0.04796821 -0.01489229 -0.02772476
v 0.01805394 -0.01489234 -0.0511512
v 0.01454648 -0.02577561 -0.0403569
v 0.01454648 -0.02577561 -0.0403569
v 0.01805394 -0.01489234 -0.0511512
v -0.01316949 -0.01489234 -0.04896836
v -0.009662387 -0.02577562 -0.0381742
v -0.009662387 -0.02577562 -0.0381742
v -0.01316949 -0.01489234 -0.04896836
v -0.02743192 -0.01489234 -0.02445027
v -0.0182496 -0.02577555 -0.01777917
v -0.0182496 -0.02577555 -0.01777917
v -0.02743192 -0.01489234 -0.02445027
v -0.04796551 -0.01288815 0.001092986
v -0.03822086 -0.02223212 0.001092804
v -0.03822086 -0.02223212 0.001092804
v -0.04796551 -0.01288815 0.001092986
v -0.03053204 -0.01489232 0.02663586
v -0.02134966 -0.0257756 0.01996448
v -0.02134966 -0.0257756 0.01996448
v -0.03053204 -0.01489232 0.02663586
v -0.008803793 -0.01489231 0.0435137
v -0.005296417 -0.02577562 0.03271925
v -0.005296417 -0.02577562 0.03271925
v -0.008803793 -0.01489231 0.0435137
v 0.0246028 -0.01489234 0.05115407
v 0.02109547 -0.02577556 0.04035984
v 0.02109547 -0.02577556 0.04035984
v 0.0246028 -0.01489234 0.05115407
v 0.03978229 -0.01489235 0.02663578
v 0.03059988 -0.02577556 0.01996453
v 0.03059988 -0.02577556 0.01996453
v 0.03978229 -0.01489235 0.02663578
v 0.04193528 -0.01288815 0.001092571
v 0.03219065 -0.02223216 0.001092448
v 0.03219065 -0.02223216 0.001092448
v 0.04193528 -0.01288815 0.001092571
v 0.04796821 -0.01489229 -0.02772476
v 0.03878576 -0.02577558 -0.02105353
v 0.04796821 -0.01489229 -0.02772476
v 0.04796817 -0.0001482292 -0.0277249
v 0.0180539 -0.0001482778 -0.05115135
v 0.01805394 -0.01489234 -0.0511512
v 0.01805394 -0.01489234 -0.0511512
v 0.0180539 -0.0001482778 -0.05115135
v -0.01316953 -0.0001482766 -0.04896851
v -0.01316949 -0.01489234 -0.04896836
v -0.01316949 -0.01489234 -0.04896836
v -0.01316953 -0.0001482766 -0.04896851
v -0.02743196 -0.0001482724 -0.02445042
v -0.02743192 -0.01489234 -0.02445027
v -0.02743192 -0.01489234 -0.02445027
v -0.02743196 -0.0001482724 -0.02445042
v -0.04796574 -0.0002293557 0.001092845
v -0.04796551 -0.01288815 0.001092986
v -0.04796551 -0.01288815 0.001092986
v -0.04796574 -0.0002293557 0.001092845
v -0.03053208 -0.0001482578 0.02663571
v -0.03053204 -0.01489232 0.02663586
v -0.03053204 -0.01489232 0.02663586
v -0.03053208 -0.0001482578 0.02663571
v -0.008803832 -0.000148247 0.04351356
v -0.008803793 -0.01489231 0.0435137
v -0.008803793 -0.01489231 0.0435137
v -0.008803832 -0.000148247 0.04351356
v 0.02460247 -0.0001482912 0.05115408
v 0.0246028 -0.01489234 0.05115407
v 0.0246028 -0.01489234 0.05115407
v 0.02460247 -0.0001482912 0.05115408
v 0.03978195 -0.0001483017 0.02663579
v 0.03978229 -0.01489235 0.02663578
v 0.03978229 -0.01489235 0.02663578
v 0.03978195 -0.0001483017 0.02663579
v 0.04193567 -0.0002293105 0.001092874
v 0.04193528 -0.01288815 0.001092571
v 0.04193528 -0.01288815 0.001092571
v 0.04193567 -0.0002293105 0.001092874
v 0.04796817 -0.0001482292 -0.0277249
v 0.04796821 -0.01489229 -0.02772476
v 0.04796817 -0.0001482292 -0.0277249
v 0.04568996 0.01428339 -0.02539555
v 0.01714626 0.01428339 -0.04798979
v 0.0180539 -0.0001482778 -0.05115135
v 0.0180539 -0.0001482778 -0.05115135
v 0.01714626 0.01428339 -0.04798979
v -0.01182806 0.0142834 -0.04559634
v -0.01316953 -0.0001482766 -0.04896851
v -0.01316953 -0.0001482766 -0.04896851
v -0.01182806 0.0142834 -0.04559634
v -0.02320904 0.01428345 -0.02180533
v -0.02743196 -0.0001482724 -0.02445042
v -0.02743196 -0.0001482724 -0.02445042
v -0.02320904 0.01428345 -0.02180533
v -0.04530301 0.01197211 0.001197944
v -0.04796574 -0.0002293557 0.001092845
v -0.04796574 -0.0002293557 0.001092845
v -0.04530301 0.01197211 0.001197944
v -0.02660832 0.01428342 0.02420144
v -0.03053208 -0.0001482578 0.02663571
v -0.03053208 -0.0001482578 0.02663571
v -0.02660832 0.01428342 0.02420144
v -0.007040635 0.01428344 0.03961506
v -0.008803832 -0.000148247 0.04351356
v -0.008803832 -0.000148247 0.04351356
v -0.007040635 0.01428344 0.03961506
v 0.02432721 0.0142834 0.04799287
v 0.02460247 -0.0001482912 0.05115408
v 0.02460247 -0.0001482912 0.05115408
v 0.02432721 0.0142834 0.04799287
v 0.03671407 0.01428343 0.02420116
v 0.03978195 -0.0001483017 0.02663579
v 0.03978195 -0.0001483017 0.02663579
v 0.03671407 0.01428343 0.02420116
v 0.03865321 0.01197218 0.001197912
v 0.04193567 -0.0002293105 0.001092874
v 0.04193567 -0.0002293105 0.001092874
v 0.03865321 0.01197218 0.001197912
v 0.04568996 0.01428339 -0.02539555
v 0.04796817 -0.0001482292 -0.0277249
v 0.04568996 0.01428339 -0.02539555
v 0.03225363 0.02437443 -0.01614629
v 0.01203755 0.02437449 -0.03256758
v 0.01714626 0.01428339 -0.04798979
v 0.01714626 0.01428339 -0.04798979
v 0.01203755 0.02437449 -0.03256758
v -0.002590968 0.0243745 -0.0213927
v -0.01182806 0.0142834 -0.04559634
v -0.01182806 0.0142834 -0.04559634
v -0.002590968 0.0243745 -0.0213927
v -0.01125192 0.02437443 -0.01279414
v -0.02320904 0.01428345 -0.02180533
v -0.02320904 0.01428345 -0.02180533
v -0.01125192 0.02437443 -0.01279414
v -0.03124352 0.02074654 0.001118848
v -0.04530301 0.01197211 0.001197944
v -0.04530301 0.01197211 0.001197944
v -0.03124352 0.02074654 0.001118848
v -0.01442572 0.02437444 0.01503175
v -0.02660832 0.01428342 0.02420144
v -0.02660832 0.01428342 0.02420144
v -0.01442572 0.02437444 0.01503175
v -0.002590942 0.02437449 0.02474776
v -0.007040635 0.01428344 0.03961506
v -0.007040635 0.01428344 0.03961506
v -0.002590942 0.02437449 0.02474776
v 0.01874276 0.02437444 0.03256994
v 0.02432721 0.0142834 0.04799287
v 0.02432721 0.0142834 0.04799287
v 0.01874276 0.02437444 0.03256994
v 0.02387251 0.02437449 0.01503132
v 0.03671407 0.01428343 0.02420116
v 0.03671407 0.01428343 0.02420116
v 0.02387251 0.02437449 0.01503132
v 0.02504548 0.02074654 0.001118609
v 0.03865321 0.01197218 0.001197912
v 0.03865321 0.01197218 0.001197912
v 0.02504548 0.02074654 0.001118609
v 0.03225363 0.02437443 -0.01614629
v 0.04568996 0.01428339 -0.02539555
v 0.03225363 0.02437443 -0.01614629
v 0.004625276 0.03397614 0.001092795
v 0.01203755 0.02437449 -0.03256758
v 0.01203755 0.02437449 -0.03256758
v 0.004625276 0.03397614 0.001092795
v -0.002590968 0.0243745 -0.0213927
v -0.002590968 0.0243745 -0.0213927
v 0.004625276 0.03397614 0.001092795
v -0.01125192 0.02437443 -0.01279414
v -0.01125192 0.02437443 -0.01279414
v 0.004625276 0.03397614 0.001092795
v -0.03124352 0.02074654 0.001118848
v -0.03124352 0.02074654 0.001118848
v 0.004625276 0.03397614 0.001092795
v -0.01442572 0.02437444 0.01503175
v -0.01442572 0.02437444 0.01503175
v 0.004625276 0.03397614 0.001092795
v -0.002590942 0.02437449 0.02474776
v -0.002590942 0.02437449 0.02474776
v 0.004625276 0.03397614 0.001092795
v 0.01874276 0.02437444 0.03256994
v 0.01874276 0.02437444 0.03256994
v 0.004625276 0.03397614 0.001092795
v 0.02387251 0.02437449 0.01503132
v 0.02387251 0.02437449 0.01503132
v 0.004625276 0.03397614 0.001092795
v 0.02504548 0.02074654 0.001118609
v 0.02504548 0.02074654 0.001118609
v 0.004625276 0.03397614 0.001092795
v 0.03225363 0.02437443 -0.01614629

vn -0.198283 -0.9737359 -0.1119029
vn -0.0431178 -0.9978787 0.04877526
vn 0.0082667 -0.9818406 -0.1895281
vn -0.2701382 -0.9619382 0.04123374
vn -0.2868057 -0.9222051 0.2593846
vn -0.2027057 -0.928682 0.3105805
vn -0.04993621 -0.9387023 0.3410927
vn 0.1326348 -0.9531205 0.271973
vn 0.1781314 -0.9801466 0.08707242
vn 0.1399454 -0.9623204 -0.2331412
vn 0.2724759 -0.9136655 -0.301616
vn -0.3433229 -0.6568746 -0.6713011
vn -0.343323 -0.6568746 -0.671301
vn -0.3433228 -0.6568747 -0.6713011
vn -0.343323 -0.6568746 -0.671301
vn -0.7327247 -0.6249526 -0.2693489
vn -0.7327246 -0.6249526 -0.2693489
vn -0.7327247 -0.6249526 -0.2693489
vn -0.7327247 -0.6249526 -0.2693489
vn -0.6738528 -0.5532541 0.4897268
vn -0.6738529 -0.5532539 0.4897268
vn -0.6738528 -0.5532541 0.4897268
vn -0.6738529 -0.5532539 0.4897268
vn -0.7303312 -0.5815384 0.3583704
vn -0.7303312 -0.5815384 0.3583705
vn -0.7303312 -0.5815384 0.3583705
vn -0.7303312 -0.5815384 0.3583705
vn 0.03404237 -0.6001503 0.7991624
vn 0.03404237 -0.6001503 0.7991624
vn 0.03404233 -0.6001503 0.7991626
vn 0.03404235 -0.6001503 0.7991624
vn 0.286429 -0.6212283 0.7294065
vn 0.286429 -0.6212282 0.7294066
vn 0.286429 -0.6212282 0.7294065
vn 0.286429 -0.6212283 0.7294065
vn 0.5503914 -0.6265104 0.5518641
vn 0.5503914 -0.6265104 0.5518641
vn 0.5503914 -0.6265104 0.5518641
vn 0.5503914 -0.6265104 0.5518641
vn 0.6438411 -0.6436351 -0.4137661
vn 0.6438411 -0.6436352 -0.4137661
vn 0.6438411 -0.6436352 -0.4137661
vn 0.6438411 -0.6436351 -0.4137662
vn 0.3193909 -0.6549794 -0.6848295
vn 0.3193909 -0.6549793 -0.6848295
vn 0.3193909 -0.6549794 -0.6848295
vn 0.3193909 -0.6549794 -0.6848295
vn 0.5846082 -0.5928392 -0.5538726
vn 0.5846083 -0.5928392 -0.5538727
vn 0.5846082 -0.5928392 -0.5538726
vn 0.5846081 -0.5928392 -0.5538726
vn -0.4118015 -0.01976847 -0.9110591
vn -0.4118015 -0.01976847 -0.9110591
vn -0.4118015 -0.01976847 -0.9110591
vn -0.4118015 -0.01976847 -0.9110591
vn -0.9157612 0.01417892 -0.4014727
vn -0.9157612 0.01417892 -0.4014727
vn -0.9157612 0.01417892 -0.4014727
vn -0.9157612 0.01417892 -0.4014727
vn -0.845861 0.04538864 0.5314688
vn -0.845861 0.04538864 0.5314688
vn -0.845861 0.04538864 0.5314688
vn -0.845861 0.04538864 0.5314688
vn -0.9160554 0.0428273 0.3987587
vn -0.9160553 0.04282729 0.3987587
vn -0.9160554 0.0428273 0.3987587
vn -0.9160554 0.0428273 0.3987587
vn 0.1168471 0.0318827 0.992638
vn 0.1168471 0.0318827 0.992638
vn 0.1168472 0.0318827 0.992638
vn 0.1168471 0.0318827 0.992638
vn 0.4153973 0.01959803 0.909429
vn 0.4153973 0.01959803 0.909429
vn 0.4153973 0.01959803 0.909429
vn 0.4153973 0.01959803 0.909429
vn 0.7600763 -0.0004372364 0.6498337
vn 0.7600763 -0.0004372364 0.6498337
vn 0.7600763 -0.0004372364 0.6498337
vn 0.7600763 -0.0004372364 0.6498337
vn 0.8601864 -0.04499497 -0.507991
vn 0.8601864 -0.04499497 -0.507991
vn 0.8601864 -0.04499497 -0.507991
vn 0.8601864 -0.04499497 -0.507991
vn 0.5359905 -0.0468755 -0.8429216
vn 0.5359905 -0.0468755 -0.8429216
vn 0.5359905 -0.0468755 -0.8429216
vn 0.5359905 -0.0468755 -0.8429216
vn 0.6349184 -0.04738986 -0.7711244
vn 0.6349183 -0.04738986 -0.7711244
vn 0.6349184 -0.04738986 -0.7711244
vn 0.6349184 -0.04738986 -0.7711244
vn -0.3942714 0.1599726 -0.9049635
vn -0.3942714 0.1599727 -0.9049635
vn -0.3942714 0.1599727 -0.9049635
vn -0.3942714 0.1599727 -0.9049635
vn -0.8946411 0.2014354 -0.3987996
vn -0.8946411 0.2014354 -0.3987996
vn -0.8946411 0.2014354 -0.3987996
vn -0.8946411 0.2014354 -0.3987996
vn -0.797897 0.2653727 0.5412371
vn -0.7978971 0.2653726 0.5412371
vn -0.7978971 0.2653726 0.5412371
vn -0.797897 0.2653726 0.5412371
vn -0.9008254 0.2578999 0.3492866
vn -0.9008256 0.2578999 0.3492866
vn -0.9008254 0.2578998 0.3492866
vn -0.9008254 0.2578999 0.3492866
vn 0.1538163 0.2371574 0.9592168
vn 0.1538163 0.2371574 0.9592168
vn 0.1538162 0.2371574 0.9592168
vn 0.1538162 0.2371574 0.9592168
vn 0.4117475 0.2593615 0.8736107
vn 0.4117474 0.2593615 0.8736107
vn 0.4117475 0.2593615 0.8736107
vn 0.4117475 0.2593615 0.8736107
vn 0.7416275 0.2055814 0.6385335
vn 0.7416275 0.2055814 0.6385335
vn 0.7416275 0.2055814 0.6385335
vn 0.7416275 0.2055814 0.6385335
vn 0.83476 0.1176867 -0.5378898
vn 0.83476 0.1176867 -0.5378898
vn 0.8347601 0.1176867 -0.5378898
vn 0.83476 0.1176867 -0.5378898
vn 0.521945 0.1543551 -0.8388969
vn 0.521945 0.1543551 -0.8388969
vn 0.521945 0.1543551 -0.8388969
vn 0.521945 0.1543551 -0.8388969
vn 0.6571437 0.1032029 -0.7466667
vn 0.6571437 0.1032029 -0.7466667
vn 0.6571437 0.1032029 -0.7466667
vn 0.6571437 0.1032029 -0.7466667
vn -0.2113356 0.7720654 -0.5993766
vn -0.2113356 0.7720654 -0.5993766
vn -0.2113356 0.7720654 -0.5993766
vn -0.2113356 0.7720654 -0.5993766
vn -0.4792312 0.8667499 -0.138138
vn -0.4792312 0.8667499 -0.138138
vn -0.4792312 0.8667499 -0.138138
vn -0.4792312 0.8667499 -0.138138
vn -0.4489047 0.8594071 0.2447529
vn -0.4489047 0.8594071 0.2447529
vn -0.4489047 0.8594071 0.2447529
vn -0.4489047 0.8594071 0.2447529
vn -0.5831022 0.7851017 0.2088236
vn -0.5831022 0.7851017 0.2088236
vn -0.5831022 0.7851017 0.2088236
vn -0.5831022 0.7851017 0.2088236
vn 0.1101067 0.7917105 0.600892
vn 0.1101067 0.7917105 0.6008919
vn 0.1101067 0.7917104 0.600892
vn 0.1101067 0.7917105 0.600892
vn 0.2907385 0.7865591 0.5447898
vn 0.2907385 0.786559 0.5447899
vn 0.2907386 0.786559 0.5447899
vn 0.2907385 0.786559 0.5447899
vn 0.490489 0.7670152 0.4136524
vn 0.490489 0.7670152 0.4136524
vn 0.490489 0.7670152 0.4136524
vn 0.490489 0.7670152 0.4136524
vn 0.5449602 0.7024763 -0.4577613
vn 0.5449602 0.7024763 -0.4577613
vn 0.5449602 0.7024763 -0.4577613
vn 0.5449602 0.7024763 -0.4577613
vn 0.2601312 0.7071517 -0.657471
vn 0.2601312 0.7071518 -0.657471
vn 0.2601312 0.7071518 -0.6574709
vn 0.2601312 0.7071517 -0.657471
vn 0.6198463 0.6294422 -0.4686076
vn 0.6198462 0.6294422 -0.4686076
vn 0.6198463 0.6294422 -0.4686076
vn 0.6198463 0.6294422 -0.4686076
vn -0.09589799 0.9258741 -0.3654598
vn -0.09589803 0.9258741 -0.3654598
vn -0.09589799 0.9258741 -0.3654598
vn -0.4129802 0.910179 0.03196177
vn -0.4129802 0.910179 0.03196176
vn -0.4129802 0.910179 0.03196175
vn -0.4195372 0.902608 0.09637076
vn -0.4195371 0.902608 0.09637073
vn -0.4195371 0.902608 0.09637077
vn -0.3921741 0.9045649 0.1672176
vn -0.3921741 0.9045649 0.1672177
vn -0.3921741 0.9045649 0.1672177
vn 0.03230817 0.9173212 0.396835
vn 0.03230821 0.9173212 0.396835
vn 0.03230817 0.9173212 0.396835
vn 0.2146626 0.9050605 0.3671314
vn 0.2146626 0.9050605 0.3671314
vn 0.2146626 0.9050605 0.3671314
vn 0.3222559 0.9087844 0.2650699
vn 0.3222559 0.9087844 0.2650699
vn 0.3222559 0.9087844 0.2650699
vn 0.3512786 0.8606399 -0.3686492
vn 0.3512786 0.8606399 -0.3686493
vn 0.3512786 0.8606399 -0.3686493
vn 0.1417472 0.7443303 -0.6525949
vn 0.1417472 0.7443303 -0.6525949
vn 0.1417472 0.7443303 -0.6525949
vn 0.6484797 0.6842259 -0.33363
vn 0.6484798 0.6842259 -0.33363
vn 0.6484798 0.6842259 -0.33363

vt 0.5482839 0.007647395
vt 0.5 0.15
vt 0.6264089 0.06440853
vt 0.4517161 0.00764741
vt 0.3735911 0.06440856
vt 0.34375 0.15625
vt 0.3735911 0.2480915
vt 0.4517161 0.3048526
vt 0.5482839 0.3048526
vt 0.6264089 0.2480914
vt 0.65625 0.15625
vt 0 0
vt 0 1
vt 1 1
vt 1 0
vt 0 0
vt 0 1
vt 1 1
vt 1 0
vt 0 0
vt 0 1
vt 1 1
vt 1 0
vt 0 0
vt 0 1
vt 1 1
vt 1 0
vt 0 0
vt 0 1
vt 1 1
vt 1 0
vt 0 0
vt 0 1
vt 1 1
vt 1 0
vt 0 0
vt 0 1
vt 1 1
vt 1 0
vt 0 0
vt 0 1
vt 1 1
vt 1 0
vt 0 0
vt 0 1
vt 1 1
vt 1 0
vt 0 0
vt 0 1
vt 1 1
vt 1 0
vt 0 0
vt 0 1
vt 1 1
vt 1 0
vt 0 0
vt 0 1
vt 1 1
vt 1 0
vt 0 0
vt 0 1
vt 1 1
vt 1 0
vt 0 0
vt 0 1
vt 1 1
vt 1 0
vt 0 0
vt 0 1
vt 1 1
vt 1 0
vt 0 0
vt 0 1
vt 1 1
vt 1 0
vt 0 0
vt 0 1
vt 1 1
vt 1 0
vt 0 0
vt 0 1
vt 1 1
vt 1 0
vt 0 0
vt 0 1
vt 1 1
vt 1 0
vt 0 0
vt 0 1
vt 1 1
vt 1 0
vt 0 0
vt 0 1
vt 1 1
vt 1 0
vt 0 0
vt 0 1
vt 1 1
vt 1 0
vt 0 0
vt 0 1
vt 1 1
vt 1 0
vt 0 0
vt 0 1
vt 1 1
vt 1 0
vt 0 0
vt 0 1
vt 1 1
vt 1 0
vt 0 0
vt 0 1
vt 1 1
vt 1 0
vt 0 0
vt 0 1
vt 1 1
vt 1 0
vt 0 0
vt 0 1
vt 1 1
vt 1 0
vt 0 0
vt 0 1
vt 1 1
vt 1 0
vt 0 0
vt 0 1
vt 1 1
vt 1 0
vt 0 0
vt 0 1
vt 1 1
vt 1 0
vt 0 0
vt 0 1
vt 1 1
vt 1 0
vt 0 0
vt 0 1
vt 1 1
vt 1 0
vt 0 0
vt 0 1
vt 1 1
vt 1 0
vt 0 0
vt 0 1
vt 1 1
vt 1 0
vt 0 0
vt 0 1
vt 1 1
vt 1 0
vt 0 0
vt 0 1
vt 1 1
vt 1 0
vt 0 0
vt 0 1
vt 1 1
vt 1 0
vt 0 0
vt 0 1
vt 1 1
vt 1 0
vt 0 0
vt 0 1
vt 1 1
vt 1 0
vt 0 0
vt 0.5 1
vt 1 0
vt 0 0
vt 0.5 1
vt 1 0
vt 0 0
vt 0.5 1
vt 1 0
vt 0 0
vt 0.5 1
vt 1 0
vt 0 0
vt 0.5 1
vt 1 0
vt 0 0
vt 0.5 1
vt 1 0
vt 0 0
vt 0.5 1
vt 1 0
vt 0 0
vt 0.5 1
vt 1 0
vt 0 0
vt 0.5 1
vt 1 0
vt 0 0
vt 0.5 1
vt 1 0

g Foliage2_13_4042_275
usemtl Foliage2_13_4042_275
usemap Foliage2_13_4042_275
f 1/1/1 3/3/3 2/2/2
f 4/4/4 1/1/1 2/2/2
f 5/5/5 4/4/4 2/2/2
f 6/6/6 5/5/5 2/2/2
f 7/7/7 6/6/6 2/2/2
f 8/8/8 7/7/7 2/2/2
f 9/9/9 8/8/8 2/2/2
f 10/10/10 9/9/9 2/2/2
f 11/11/11 10/10/10 2/2/2
f 3/3/3 11/11/11 2/2/2
f 12/12/12 14/14/14 13/13/13
f 12/12/12 15/15/15 14/14/14
f 16/16/16 18/18/18 17/17/17
f 16/16/16 19/19/19 18/18/18
f 20/20/20 22/22/22 21/21/21
f 20/20/20 23/23/23 22/22/22
f 24/24/24 26/26/26 25/25/25
f 24/24/24 27/27/27 26/26/26
f 28/28/28 30/30/30 29/29/29
f 28/28/28 31/31/31 30/30/30
f 32/32/32 34/34/34 33/33/33
f 32/32/32 35/35/35 34/34/34
f 36/36/36 38/38/38 37/37/37
f 36/36/36 39/39/39 38/38/38
f 40/40/40 42/42/42 41/41/41
f 40/40/40 43/43/43 42/42/42
f 44/44/44 46/46/46 45/45/45
f 44/44/44 47/47/47 46/46/46
f 48/48/48 50/50/50 49/49/49
f 48/48/48 51/51/51 50/50/50
f 52/52/52 54/54/54 53/53/53
f 52/52/52 55/55/55 54/54/54
f 56/56/56 58/58/58 57/57/57
f 56/56/56 59/59/59 58/58/58
f 60/60/60 62/62/62 61/61/61
f 60/60/60 63/63/63 62/62/62
f 64/64/64 66/66/66 65/65/65
f 64/64/64 67/67/67 66/66/66
f 68/68/68 70/70/70 69/69/69
f 68/68/68 71/71/71 70/70/70
f 72/72/72 74/74/74 73/73/73
f 72/72/72 75/75/75 74/74/74
f 76/76/76 78/78/78 77/77/77
f 76/76/76 79/79/79 78/78/78
f 80/80/80 82/82/82 81/81/81
f 80/80/80 83/83/83 82/82/82
f 84/84/84 86/86/86 85/85/85
f 84/84/84 87/87/87 86/86/86
f 88/88/88 90/90/90 89/89/89
f 88/88/88 91/91/91 90/90/90
f 92/92/92 94/94/94 93/93/93
f 92/92/92 95/95/95 94/94/94
f 96/96/96 98/98/98 97/97/97
f 96/96/96 99/99/99 98/98/98
f 100/100/100 102/102/102 101/101/101
f 100/100/100 103/103/103 102/102/102
f 104/104/104 106/106/106 105/105/105
f 104/104/104 107/107/107 106/106/106
f 108/108/108 110/110/110 109/109/109
f 108/108/108 111/111/111 110/110/110
f 112/112/112 114/114/114 113/113/113
f 112/112/112 115/115/115 114/114/114
f 116/116/116 118/118/118 117/117/117
f 116/116/116 119/119/119 118/118/118
f 120/120/120 122/122/122 121/121/121
f 120/120/120 123/123/123 122/122/122
f 124/124/124 126/126/126 125/125/125
f 124/124/124 127/127/127 126/126/126
f 128/128/128 130/130/130 129/129/129
f 128/128/128 131/131/131 130/130/130
f 132/132/132 134/134/134 133/133/133
f 132/132/132 135/135/135 134/134/134
f 136/136/136 138/138/138 137/137/137
f 136/136/136 139/139/139 138/138/138
f 140/140/140 142/142/142 141/141/141
f 140/140/140 143/143/143 142/142/142
f 144/144/144 146/146/146 145/145/145
f 144/144/144 147/147/147 146/146/146
f 148/148/148 150/150/150 149/149/149
f 148/148/148 151/151/151 150/150/150
f 152/152/152 154/154/154 153/153/153
f 152/152/152 155/155/155 154/154/154
f 156/156/156 158/158/158 157/157/157
f 156/156/156 159/159/159 158/158/158
f 160/160/160 162/162/162 161/161/161
f 160/160/160 163/163/163 162/162/162
f 164/164/164 166/166/166 165/165/165
f 164/164/164 167/167/167 166/166/166
f 168/168/168 170/170/170 169/169/169
f 168/168/168 171/171/171 170/170/170
f 172/172/172 174/174/174 173/173/173
f 175/175/175 177/177/177 176/176/176
f 178/178/178 180/180/180 179/179/179
f 181/181/181 183/183/183 182/182/182
f 184/184/184 186/186/186 185/185/185
f 187/187/187 189/189/189 188/188/188
f 190/190/190 192/192/192 191/191/191
f 193/193/193 195/195/195 194/194/194
f 196/196/196 198/198/198 197/197/197
f 199/199/199 201/201/201 200/200/200
