#Foliage6_14_3575_45.obj

v 0.01454572 -0.02577562 -0.04036002
v 0.004624364 -0.03397605 0.001089693
v 0.03878491 -0.02577562 -0.02105644
v -0.009663088 -0.02577562 -0.03817684
v -0.01825039 -0.02577562 -0.01778201
v -0.03822159 -0.02223219 0.001090142
v -0.02135034 -0.02577562 0.0199617
v -0.005296892 -0.02577562 0.03271645
v 0.02109462 -0.02577562 0.04035662
v 0.03059899 -0.02577562 0.01996165
v 0.03219001 -0.02223219 0.00108984
v 0.03878491 -0.02577562 -0.02105644
v 0.04796725 -0.01489241 -0.02772783
v 0.01805334 -0.01489241 -0.05115442
v 0.01454572 -0.02577562 -0.04036002
v 0.01454572 -0.02577562 -0.04036002
v 0.01805334 -0.01489241 -0.05115442
v -0.01317026 -0.01489241 -0.04897146
v -0.009663088 -0.02577562 -0.03817684
v -0.009663088 -0.02577562 -0.03817684
v -0.01317026 -0.01489241 -0.04897146
v -0.02743257 -0.01489241 -0.02445322
v -0.01825039 -0.02577562 -0.01778201
v -0.01825039 -0.02577562 -0.01778201
v -0.02743257 -0.01489241 -0.02445322
v -0.04796611 -0.01288824 0.001089806
v -0.03822159 -0.02223219 0.001090142
v -0.03822159 -0.02223219 0.001090142
v -0.04796611 -0.01288824 0.001089806
v -0.03053268 -0.01489241 0.02663309
v -0.02135034 -0.02577562 0.0199617
v -0.02135034 -0.02577562 0.0199617
v -0.03053268 -0.01489241 0.02663309
v -0.008804512 -0.01489241 0.04351085
v -0.005296892 -0.02577562 0.03271645
v -0.005296892 -0.02577562 0.03271645
v -0.008804512 -0.01489241 0.04351085
v 0.02460178 -0.01489241 0.05115125
v 0.02109462 -0.02577562 0.04035662
v 0.02109462 -0.02577562 0.04035662
v 0.02460178 -0.01489241 0.05115125
v 0.03978155 -0.01489241 0.02663312
v 0.03059899 -0.02577562 0.01996165
v 0.03059899 -0.02577562 0.01996165
v 0.03978155 -0.01489241 0.02663312
v 0.0419348 -0.01288824 0.001089802
v 0.03219001 -0.02223219 0.00108984
v 0.03219001 -0.02223219 0.00108984
v 0.0419348 -0.01288824 0.001089802
v 0.04796725 -0.01489241 -0.02772783
v 0.03878491 -0.02577562 -0.02105644
v 0.04796725 -0.01489241 -0.02772783
v 0.04796725 -0.0001482757 -0.02772783
v 0.01805334 -0.0001482757 -0.05115442
v 0.01805334 -0.01489241 -0.05115442
v 0.01805334 -0.01489241 -0.05115442
v 0.01805334 -0.0001482757 -0.05115442
v -0.01317026 -0.0001482757 -0.04897146
v -0.01317026 -0.01489241 -0.04897146
v -0.01317026 -0.01489241 -0.04897146
v -0.01317026 -0.0001482757 -0.04897146
v -0.02743257 -0.0001482757 -0.02445322
v -0.02743257 -0.01489241 -0.02445322
v -0.02743257 -0.01489241 -0.02445322
v -0.02743257 -0.0001482757 -0.02445322
v -0.04796611 -0.0002293951 0.001089806
v -0.04796611 -0.01288824 0.001089806
v -0.04796611 -0.01288824 0.001089806
v -0.04796611 -0.0002293951 0.001089806
v -0.03053268 -0.0001482757 0.02663309
v -0.03053268 -0.01489241 0.02663309
v -0.03053268 -0.01489241 0.02663309
v -0.03053268 -0.0001482757 0.02663309
v -0.008804512 -0.0001482757 0.04351085
v -0.008804512 -0.01489241 0.04351085
v -0.008804512 -0.01489241 0.04351085
v -0.008804512 -0.0001482757 0.04351085
v 0.02460178 -0.0001482757 0.05115125
v 0.02460178 -0.01489241 0.05115125
v 0.02460178 -0.01489241 0.05115125
v 0.02460178 -0.0001482757 0.05115125
v 0.03978155 -0.0001482757 0.02663312
v 0.03978155 -0.01489241 0.02663312
v 0.03978155 -0.01489241 0.02663312
v 0.03978155 -0.0001482757 0.02663312
v 0.0419348 -0.0002293951 0.001089802
v 0.0419348 -0.01288824 0.001089802
v 0.0419348 -0.01288824 0.001089802
v 0.0419348 -0.0002293951 0.001089802
v 0.04796725 -0.0001482757 -0.02772783
v 0.04796725 -0.01489241 -0.02772783
v 0.04796725 -0.0001482757 -0.02772783
v 0.04568925 0.01428334 -0.02539842
v 0.0171457 0.01428334 -0.0479927
v 0.01805334 -0.0001482757 -0.05115442
v 0.01805334 -0.0001482757 -0.05115442
v 0.0171457 0.01428334 -0.0479927
v -0.01182858 0.01428334 -0.04559918
v -0.01317026 -0.0001482757 -0.04897146
v -0.01317026 -0.0001482757 -0.04897146
v -0.01182858 0.01428334 -0.04559918
v -0.02320975 0.01428334 -0.02180779
v -0.02743257 -0.0001482757 -0.02445322
v -0.02743257 -0.0001482757 -0.02445322
v -0.02320975 0.01428334 -0.02180779
v -0.04530364 0.0119721 0.00119508
v -0.04796611 -0.0002293951 0.001089806
v -0.04796611 -0.0002293951 0.001089806
v -0.04530364 0.0119721 0.00119508
v -0.02660925 0.01428334 0.02419836
v -0.03053268 -0.0001482757 0.02663309
v -0.03053268 -0.0001482757 0.02663309
v -0.02660925 0.01428334 0.02419836
v -0.007041343 0.01428334 0.0396122
v -0.008804512 -0.0001482757 0.04351085
v -0.008804512 -0.0001482757 0.04351085
v -0.007041343 0.01428334 0.0396122
v 0.02432653 0.01428334 0.04798959
v 0.02460178 -0.0001482757 0.05115125
v 0.02460178 -0.0001482757 0.05115125
v 0.02432653 0.01428334 0.04798959
v 0.03671342 0.01428334 0.02419829
v 0.03978155 -0.0001482757 0.02663312
v 0.03978155 -0.0001482757 0.02663312
v 0.03671342 0.01428334 0.02419829
v 0.03865235 0.0119721 0.001195295
v 0.0419348 -0.0002293951 0.001089802
v 0.0419348 -0.0002293951 0.001089802
v 0.03865235 0.0119721 0.001195295
v 0.04568925 0.01428334 -0.02539842
v 0.04796725 -0.0001482757 -0.02772783
v 0.04568925 0.01428334 -0.02539842
v 0.03225289 0.02437439 -0.01614942
v 0.01203714 0.02437439 -0.03257033
v 0.0171457 0.01428334 -0.0479927
v 0.0171457 0.01428334 -0.0479927
v 0.01203714 0.02437439 -0.03257033
v -0.002591989 0.02437439 -0.02139539
v -0.01182858 0.01428334 -0.04559918
v -0.01182858 0.01428334 -0.04559918
v -0.002591989 0.02437439 -0.02139539
v -0.01125268 0.02437439 -0.01279698
v -0.02320975 0.01428334 -0.02180779
v -0.02320975 0.01428334 -0.02180779
v -0.01125268 0.02437439 -0.01279698
v -0.03124409 0.02074649 0.001115964
v -0.04530364 0.0119721 0.00119508
v -0.04530364 0.0119721 0.00119508
v -0.03124409 0.02074649 0.001115964
v -0.01442666 0.02437439 0.01502875
v -0.02660925 0.01428334 0.02419836
v -0.02660925 0.01428334 0.02419836
v -0.01442666 0.02437439 0.01502875
v -0.002591867 0.02437439 0.02474466
v -0.007041343 0.01428334 0.0396122
v -0.007041343 0.01428334 0.0396122
v -0.002591867 0.02437439 0.02474466
v 0.01874179 0.02437439 0.03256712
v 0.02432653 0.01428334 0.04798959
v 0.02432653 0.01428334 0.04798959
v 0.01874179 0.02437439 0.03256712
v 0.02387181 0.02437439 0.01502883
v 0.03671342 0.01428334 0.02419829
v 0.03671342 0.01428334 0.02419829
v 0.02387181 0.02437439 0.01502883
v 0.02504485 0.02074649 0.001115778
v 0.03865235 0.0119721 0.001195295
v 0.03865235 0.0119721 0.001195295
v 0.02504485 0.02074649 0.001115778
v 0.03225289 0.02437439 -0.01614942
v 0.04568925 0.01428334 -0.02539842
v 0.03225289 0.02437439 -0.01614942
v 0.004624364 0.03397604 0.001089693
v 0.01203714 0.02437439 -0.03257033
v 0.01203714 0.02437439 -0.03257033
v 0.004624364 0.03397604 0.001089693
v -0.002591989 0.02437439 -0.02139539
v -0.002591989 0.02437439 -0.02139539
v 0.004624364 0.03397604 0.001089693
v -0.01125268 0.02437439 -0.01279698
v -0.01125268 0.02437439 -0.01279698
v 0.004624364 0.03397604 0.001089693
v -0.03124409 0.02074649 0.001115964
v -0.03124409 0.02074649 0.001115964
v 0.004624364 0.03397604 0.001089693
v -0.01442666 0.02437439 0.01502875
v -0.01442666 0.02437439 0.01502875
v 0.004624364 0.03397604 0.001089693
v -0.002591867 0.02437439 0.02474466
v -0.002591867 0.02437439 0.02474466
v 0.004624364 0.03397604 0.001089693
v 0.01874179 0.02437439 0.03256712
v 0.01874179 0.02437439 0.03256712
v 0.004624364 0.03397604 0.001089693
v 0.02387181 0.02437439 0.01502883
v 0.02387181 0.02437439 0.01502883
v 0.004624364 0.03397604 0.001089693
v 0.02504485 0.02074649 0.001115778
v 0.02504485 0.02074649 0.001115778
v 0.004624364 0.03397604 0.001089693
v 0.03225289 0.02437439 -0.01614942

vn 0.2147163 -0.9746063 -0.0635566
vn 0.001151695 -0.9999981 0.001621274
vn 0.1877644 -0.9698725 0.1552154
vn 0.1120719 -0.9735574 -0.1990623
vn -0.07557455 -0.9450634 -0.3180311
vn -0.1601306 -0.9505205 -0.2662125
vn -0.2576761 -0.955556 -0.1432332
vn -0.2794566 -0.9587457 0.05206461
vn -0.1351105 -0.9745761 0.1787364
vn 0.1649426 -0.9428012 0.2896896
vn 0.1630036 -0.8860962 0.4338934
vn 0.7669985 -0.6400557 0.04518967
vn 0.7669985 -0.6400557 0.04518964
vn 0.7669985 -0.6400557 0.04518971
vn 0.7669985 -0.6400557 0.04518964
vn 0.5942143 -0.6391843 -0.4882139
vn 0.5942143 -0.6391844 -0.4882139
vn 0.5942143 -0.6391843 -0.4882139
vn 0.5942143 -0.6391843 -0.4882139
vn -0.1108828 -0.5961947 -0.7951458
vn -0.1108828 -0.5961946 -0.7951459
vn -0.1108828 -0.5961947 -0.7951458
vn -0.1108829 -0.5961946 -0.7951459
vn 0.03366439 -0.6215231 -0.7826723
vn 0.03366432 -0.621523 -0.7826723
vn 0.03366435 -0.621523 -0.7826723
vn 0.03366429 -0.621523 -0.7826723
vn -0.7146418 -0.6309733 -0.3019268
vn -0.7146418 -0.6309733 -0.3019268
vn -0.7146418 -0.6309732 -0.3019268
vn -0.7146419 -0.6309733 -0.3019268
vn -0.7670922 -0.6400981 -0.04294099
vn -0.7670923 -0.6400981 -0.04294109
vn -0.7670922 -0.6400981 -0.04294106
vn -0.7670922 -0.6400981 -0.04294103
vn -0.7283251 -0.6283638 0.2733157
vn -0.7283251 -0.6283638 0.2733156
vn -0.7283251 -0.6283638 0.2733157
vn -0.7283251 -0.6283638 0.2733157
vn 0.08498179 -0.602204 0.7938063
vn 0.08498177 -0.602204 0.7938063
vn 0.08498177 -0.602204 0.7938063
vn 0.08498182 -0.602204 0.7938063
vn 0.4717571 -0.6137943 0.6330101
vn 0.4717571 -0.6137943 0.6330101
vn 0.4717571 -0.6137943 0.6330101
vn 0.4717571 -0.6137943 0.6330101
vn 0.2339609 -0.5488458 0.8025152
vn 0.2339609 -0.5488456 0.8025153
vn 0.2339609 -0.5488458 0.8025152
vn 0.2339609 -0.5488457 0.8025152
vn 0.9984778 -1.576773E-17 0.05515595
vn 0.9984778 -1.576774E-17 0.05515601
vn 0.9984778 -1.576774E-17 0.05515601
vn 0.9984778 -1.576773E-17 0.05515595
vn 0.778212 5.425339E-17 -0.6280017
vn 0.778212 5.425339E-17 -0.6280017
vn 0.778212 5.425339E-17 -0.6280017
vn 0.778212 5.425339E-17 -0.6280017
vn -0.08222868 9.968318E-17 -0.9966135
vn -0.08222868 9.968318E-17 -0.9966135
vn -0.08222868 9.968318E-17 -0.9966135
vn -0.08222868 9.968318E-17 -0.9966135
vn 0.06786832 9.824233E-17 -0.9976943
vn 0.06786829 9.824234E-17 -0.9976943
vn 0.06786832 9.824233E-17 -0.9976943
vn 0.06786832 9.824233E-17 -0.9976943
vn -0.9349362 4.482994E-17 -0.3548158
vn -0.9349362 4.482994E-17 -0.3548158
vn -0.9349363 4.482993E-17 -0.3548157
vn -0.9349362 4.482994E-17 -0.3548158
vn -0.9986879 1.537844E-17 -0.05120863
vn -0.9986879 1.537844E-17 -0.05120863
vn -0.9986879 1.537844E-17 -0.05120863
vn -0.9986879 1.537844E-17 -0.05120863
vn -0.9270439 -2.762331E-17 0.3749529
vn -0.9270439 -2.762331E-17 0.3749529
vn -0.9270439 -2.762331E-17 0.3749529
vn -0.9270439 -2.762331E-17 0.3749529
vn 0.05479775 -9.958711E-17 0.9984975
vn 0.05479775 -9.958711E-17 0.9984975
vn 0.05479775 -9.958711E-17 0.9984975
vn 0.05479775 -9.958711E-17 0.9984975
vn 0.5012841 -9.098093E-17 0.8652827
vn 0.5012841 -9.098093E-17 0.8652827
vn 0.5012841 -9.098093E-17 0.8652827
vn 0.5012841 -9.098093E-17 0.8652827
vn 0.392019 -9.527615E-17 0.9199572
vn 0.392019 -9.527615E-17 0.9199572
vn 0.392019 -9.527615E-17 0.9199572
vn 0.392019 -9.527615E-17 0.9199572
vn 0.9820213 0.1800349 0.05675954
vn 0.9820213 0.1800349 0.05675958
vn 0.9820213 0.1800349 0.05675958
vn 0.9820213 0.1800349 0.05675958
vn 0.7606736 0.18731 -0.6215228
vn 0.7606736 0.1873101 -0.6215228
vn 0.7606736 0.1873101 -0.6215228
vn 0.7606736 0.1873101 -0.6215228
vn -0.1179326 0.2197906 -0.9683925
vn -0.1179326 0.2197906 -0.9683925
vn -0.1179325 0.2197906 -0.9683925
vn -0.1179326 0.2197905 -0.9683925
vn 0.0990641 0.2161018 -0.9713323
vn 0.09906414 0.2161018 -0.9713323
vn 0.0990641 0.2161018 -0.9713323
vn 0.09906407 0.2161018 -0.9713323
vn -0.9250439 0.206724 -0.3186832
vn -0.9250439 0.206724 -0.3186832
vn -0.9250439 0.206724 -0.3186833
vn -0.9250439 0.206724 -0.3186832
vn -0.9693142 0.24008 -0.05283562
vn -0.9693142 0.24008 -0.05283571
vn -0.9693142 0.24008 -0.05283568
vn -0.9693142 0.24008 -0.05283568
vn -0.9135669 0.2055195 0.3509375
vn -0.9135669 0.2055195 0.3509375
vn -0.9135669 0.2055195 0.3509375
vn -0.9135669 0.2055195 0.3509375
vn 0.08930793 0.163128 0.9825545
vn 0.08930793 0.163128 0.9825545
vn 0.08930787 0.1631281 0.9825545
vn 0.08930793 0.1631281 0.9825545
vn 0.5011784 0.2010115 0.8416736
vn 0.5011784 0.2010115 0.8416736
vn 0.5011784 0.2010115 0.8416736
vn 0.5011784 0.2010115 0.8416736
vn 0.3574386 0.1505436 0.9217235
vn 0.3574387 0.1505436 0.9217235
vn 0.3574386 0.1505436 0.9217235
vn 0.3574386 0.1505436 0.9217235
vn 0.6128652 0.7891594 0.04029379
vn 0.6128652 0.7891594 0.04029376
vn 0.6128652 0.7891594 0.04029379
vn 0.6128652 0.7891594 0.04029376
vn 0.3210244 0.8519385 -0.4136958
vn 0.3210244 0.8519384 -0.4136958
vn 0.3210244 0.8519385 -0.4136958
vn 0.3210244 0.8519385 -0.4136958
vn -0.03083824 0.8283319 -0.5593883
vn -0.03083822 0.8283319 -0.5593883
vn -0.03083824 0.8283319 -0.5593883
vn -0.03083822 0.8283319 -0.5593883
vn 0.06396117 0.7517991 -0.6562828
vn 0.06396117 0.7517992 -0.6562828
vn 0.06396117 0.7517992 -0.6562828
vn 0.06396117 0.7517992 -0.6562828
vn -0.59948 0.7676094 -0.2267147
vn -0.59948 0.7676094 -0.2267146
vn -0.5994801 0.7676094 -0.2267147
vn -0.59948 0.7676094 -0.2267147
vn -0.634281 0.7719753 -0.0417343
vn -0.634281 0.7719753 -0.04173436
vn -0.634281 0.7719753 -0.04173433
vn -0.634281 0.7719753 -0.04173436
vn -0.6118954 0.7661014 0.1966536
vn -0.6118954 0.7661014 0.1966537
vn -0.6118954 0.7661014 0.1966537
vn -0.6118954 0.7661014 0.1966537
vn 0.1386743 0.7418409 0.6560804
vn 0.1386743 0.7418409 0.6560804
vn 0.1386743 0.7418408 0.6560805
vn 0.1386743 0.7418409 0.6560804
vn 0.4498977 0.744452 0.4933389
vn 0.4498976 0.7444521 0.4933389
vn 0.4498976 0.744452 0.4933389
vn 0.4498977 0.744452 0.4933389
vn 0.1152909 0.6708226 0.7326016
vn 0.1152909 0.6708226 0.7326016
vn 0.1152909 0.6708226 0.7326016
vn 0.1152909 0.6708226 0.7326016
vn 0.3467994 0.9375964 0.02536044
vn 0.3467994 0.9375964 0.02536043
vn 0.3467994 0.9375964 0.02536044
vn 0.1390169 0.8896015 -0.4350672
vn 0.1390169 0.8896015 -0.4350672
vn 0.1390169 0.8896015 -0.4350672
vn 0.08533532 0.8788402 -0.4694228
vn 0.08533534 0.8788402 -0.4694228
vn 0.0853353 0.8788402 -0.4694228
vn 0.01031507 0.878563 -0.477515
vn 0.01031507 0.878563 -0.477515
vn 0.01031507 0.878563 -0.477515
vn -0.3872916 0.8977368 -0.2099376
vn -0.3872916 0.8977368 -0.2099376
vn -0.3872916 0.8977368 -0.2099376
vn -0.4456001 0.8945507 -0.0349219
vn -0.4456 0.8945507 -0.0349219
vn -0.4456 0.8945507 -0.0349219
vn -0.4059815 0.9075938 0.1070164
vn -0.4059814 0.9075938 0.1070164
vn -0.4059814 0.9075938 0.1070164
vn 0.1449651 0.8907424 0.4307703
vn 0.1449651 0.8907424 0.4307704
vn 0.1449651 0.8907424 0.4307704
vn 0.4993346 0.7773978 0.3825149
vn 0.4993346 0.7773978 0.3825149
vn 0.4993346 0.7773979 0.3825149
vn -0.02026083 0.7217777 0.6918283
vn -0.02026086 0.7217778 0.6918283
vn -0.02026083 0.7217777 0.6918283

vt 0.5482839 0.007647395
vt 0.5 0.15
vt 0.6264089 0.06440853
vt 0.4517161 0.00764741
vt 0.3735911 0.06440856
vt 0.34375 0.15625
vt 0.3735911 0.2480915
vt 0.4517161 0.3048526
vt 0.5482839 0.3048526
vt 0.6264089 0.2480914
vt 0.65625 0.15625
vt 0 0
vt 0 1
vt 1 1
vt 1 0
vt 0 0
vt 0 1
vt 1 1
vt 1 0
vt 0 0
vt 0 1
vt 1 1
vt 1 0
vt 0 0
vt 0 1
vt 1 1
vt 1 0
vt 0 0
vt 0 1
vt 1 1
vt 1 0
vt 0 0
vt 0 1
vt 1 1
vt 1 0
vt 0 0
vt 0 1
vt 1 1
vt 1 0
vt 0 0
vt 0 1
vt 1 1
vt 1 0
vt 0 0
vt 0 1
vt 1 1
vt 1 0
vt 0 0
vt 0 1
vt 1 1
vt 1 0
vt 0 0
vt 0 1
vt 1 1
vt 1 0
vt 0 0
vt 0 1
vt 1 1
vt 1 0
vt 0 0
vt 0 1
vt 1 1
vt 1 0
vt 0 0
vt 0 1
vt 1 1
vt 1 0
vt 0 0
vt 0 1
vt 1 1
vt 1 0
vt 0 0
vt 0 1
vt 1 1
vt 1 0
vt 0 0
vt 0 1
vt 1 1
vt 1 0
vt 0 0
vt 0 1
vt 1 1
vt 1 0
vt 0 0
vt 0 1
vt 1 1
vt 1 0
vt 0 0
vt 0 1
vt 1 1
vt 1 0
vt 0 0
vt 0 1
vt 1 1
vt 1 0
vt 0 0
vt 0 1
vt 1 1
vt 1 0
vt 0 0
vt 0 1
vt 1 1
vt 1 0
vt 0 0
vt 0 1
vt 1 1
vt 1 0
vt 0 0
vt 0 1
vt 1 1
vt 1 0
vt 0 0
vt 0 1
vt 1 1
vt 1 0
vt 0 0
vt 0 1
vt 1 1
vt 1 0
vt 0 0
vt 0 1
vt 1 1
vt 1 0
vt 0 0
vt 0 1
vt 1 1
vt 1 0
vt 0 0
vt 0 1
vt 1 1
vt 1 0
vt 0 0
vt 0 1
vt 1 1
vt 1 0
vt 0 0
vt 0 1
vt 1 1
vt 1 0
vt 0 0
vt 0 1
vt 1 1
vt 1 0
vt 0 0
vt 0 1
vt 1 1
vt 1 0
vt 0 0
vt 0 1
vt 1 1
vt 1 0
vt 0 0
vt 0 1
vt 1 1
vt 1 0
vt 0 0
vt 0 1
vt 1 1
vt 1 0
vt 0 0
vt 0 1
vt 1 1
vt 1 0
vt 0 0
vt 0 1
vt 1 1
vt 1 0
vt 0 0
vt 0 1
vt 1 1
vt 1 0
vt 0 0
vt 0.5 1
vt 1 0
vt 0 0
vt 0.5 1
vt 1 0
vt 0 0
vt 0.5 1
vt 1 0
vt 0 0
vt 0.5 1
vt 1 0
vt 0 0
vt 0.5 1
vt 1 0
vt 0 0
vt 0.5 1
vt 1 0
vt 0 0
vt 0.5 1
vt 1 0
vt 0 0
vt 0.5 1
vt 1 0
vt 0 0
vt 0.5 1
vt 1 0
vt 0 0
vt 0.5 1
vt 1 0

g Foliage6_14_3575_45
usemtl Foliage6_14_3575_45
usemap Foliage6_14_3575_45
f 1/1/1 3/3/3 2/2/2
f 4/4/4 1/1/1 2/2/2
f 5/5/5 4/4/4 2/2/2
f 6/6/6 5/5/5 2/2/2
f 7/7/7 6/6/6 2/2/2
f 8/8/8 7/7/7 2/2/2
f 9/9/9 8/8/8 2/2/2
f 10/10/10 9/9/9 2/2/2
f 11/11/11 10/10/10 2/2/2
f 3/3/3 11/11/11 2/2/2
f 12/12/12 14/14/14 13/13/13
f 12/12/12 15/15/15 14/14/14
f 16/16/16 18/18/18 17/17/17
f 16/16/16 19/19/19 18/18/18
f 20/20/20 22/22/22 21/21/21
f 20/20/20 23/23/23 22/22/22
f 24/24/24 26/26/26 25/25/25
f 24/24/24 27/27/27 26/26/26
f 28/28/28 30/30/30 29/29/29
f 28/28/28 31/31/31 30/30/30
f 32/32/32 34/34/34 33/33/33
f 32/32/32 35/35/35 34/34/34
f 36/36/36 38/38/38 37/37/37
f 36/36/36 39/39/39 38/38/38
f 40/40/40 42/42/42 41/41/41
f 40/40/40 43/43/43 42/42/42
f 44/44/44 46/46/46 45/45/45
f 44/44/44 47/47/47 46/46/46
f 48/48/48 50/50/50 49/49/49
f 48/48/48 51/51/51 50/50/50
f 52/52/52 54/54/54 53/53/53
f 52/52/52 55/55/55 54/54/54
f 56/56/56 58/58/58 57/57/57
f 56/56/56 59/59/59 58/58/58
f 60/60/60 62/62/62 61/61/61
f 60/60/60 63/63/63 62/62/62
f 64/64/64 66/66/66 65/65/65
f 64/64/64 67/67/67 66/66/66
f 68/68/68 70/70/70 69/69/69
f 68/68/68 71/71/71 70/70/70
f 72/72/72 74/74/74 73/73/73
f 72/72/72 75/75/75 74/74/74
f 76/76/76 78/78/78 77/77/77
f 76/76/76 79/79/79 78/78/78
f 80/80/80 82/82/82 81/81/81
f 80/80/80 83/83/83 82/82/82
f 84/84/84 86/86/86 85/85/85
f 84/84/84 87/87/87 86/86/86
f 88/88/88 90/90/90 89/89/89
f 88/88/88 91/91/91 90/90/90
f 92/92/92 94/94/94 93/93/93
f 92/92/92 95/95/95 94/94/94
f 96/96/96 98/98/98 97/97/97
f 96/96/96 99/99/99 98/98/98
f 100/100/100 102/102/102 101/101/101
f 100/100/100 103/103/103 102/102/102
f 104/104/104 106/106/106 105/105/105
f 104/104/104 107/107/107 106/106/106
f 108/108/108 110/110/110 109/109/109
f 108/108/108 111/111/111 110/110/110
f 112/112/112 114/114/114 113/113/113
f 112/112/112 115/115/115 114/114/114
f 116/116/116 118/118/118 117/117/117
f 116/116/116 119/119/119 118/118/118
f 120/120/120 122/122/122 121/121/121
f 120/120/120 123/123/123 122/122/122
f 124/124/124 126/126/126 125/125/125
f 124/124/124 127/127/127 126/126/126
f 128/128/128 130/130/130 129/129/129
f 128/128/128 131/131/131 130/130/130
f 132/132/132 134/134/134 133/133/133
f 132/132/132 135/135/135 134/134/134
f 136/136/136 138/138/138 137/137/137
f 136/136/136 139/139/139 138/138/138
f 140/140/140 142/142/142 141/141/141
f 140/140/140 143/143/143 142/142/142
f 144/144/144 146/146/146 145/145/145
f 144/144/144 147/147/147 146/146/146
f 148/148/148 150/150/150 149/149/149
f 148/148/148 151/151/151 150/150/150
f 152/152/152 154/154/154 153/153/153
f 152/152/152 155/155/155 154/154/154
f 156/156/156 158/158/158 157/157/157
f 156/156/156 159/159/159 158/158/158
f 160/160/160 162/162/162 161/161/161
f 160/160/160 163/163/163 162/162/162
f 164/164/164 166/166/166 165/165/165
f 164/164/164 167/167/167 166/166/166
f 168/168/168 170/170/170 169/169/169
f 168/168/168 171/171/171 170/170/170
f 172/172/172 174/174/174 173/173/173
f 175/175/175 177/177/177 176/176/176
f 178/178/178 180/180/180 179/179/179
f 181/181/181 183/183/183 182/182/182
f 184/184/184 186/186/186 185/185/185
f 187/187/187 189/189/189 188/188/188
f 190/190/190 192/192/192 191/191/191
f 193/193/193 195/195/195 194/194/194
f 196/196/196 198/198/198 197/197/197
f 199/199/199 201/201/201 200/200/200
