#Foliage2_11_3285_48.obj

v 0.01454534 -0.02577562 -0.04035804
v 0.004623875 -0.03397597 0.001091645
v 0.03878452 -0.02577544 -0.02105453
v -0.009663369 -0.02577551 -0.03817512
v -0.01825074 -0.02577554 -0.01778015
v -0.03822211 -0.02223222 0.001091639
v -0.02135086 -0.02577544 0.01996342
v -0.005297561 -0.02577564 0.03271825
v 0.02109406 -0.02577552 0.04035844
v 0.03059859 -0.02577562 0.01996344
v 0.03218951 -0.02223204 0.001091672
v 0.03878452 -0.02577544 -0.02105453
v 0.04796695 -0.01489231 -0.02772588
v 0.01805271 -0.01489231 -0.05115254
v 0.01454534 -0.02577562 -0.04035804
v 0.01454534 -0.02577562 -0.04035804
v 0.01805271 -0.01489231 -0.05115254
v -0.01317075 -0.01489223 -0.04896965
v -0.009663369 -0.02577551 -0.03817512
v -0.009663369 -0.02577551 -0.03817512
v -0.01317075 -0.01489223 -0.04896965
v -0.02743315 -0.01489238 -0.02445154
v -0.01825074 -0.02577554 -0.01778015
v -0.01825074 -0.02577554 -0.01778015
v -0.02743315 -0.01489238 -0.02445154
v -0.04796687 -0.01288821 0.001091669
v -0.03822211 -0.02223222 0.001091639
v -0.03822211 -0.02223222 0.001091639
v -0.04796687 -0.01288821 0.001091669
v -0.03053321 -0.01489226 0.02663485
v -0.02135086 -0.02577544 0.01996342
v -0.02135086 -0.02577544 0.01996342
v -0.03053321 -0.01489226 0.02663485
v -0.008804886 -0.01489239 0.04351276
v -0.005297561 -0.02577564 0.03271825
v -0.005297561 -0.02577564 0.03271825
v -0.008804886 -0.01489239 0.04351276
v 0.02460144 -0.01489224 0.05115294
v 0.02109406 -0.02577552 0.04035844
v 0.02109406 -0.02577552 0.04035844
v 0.02460144 -0.01489224 0.05115294
v 0.03978102 -0.01489223 0.02663487
v 0.03059859 -0.02577562 0.01996344
v 0.03059859 -0.02577562 0.01996344
v 0.03978102 -0.01489223 0.02663487
v 0.04193432 -0.01288818 0.001091673
v 0.03218951 -0.02223204 0.001091672
v 0.03218951 -0.02223204 0.001091672
v 0.04193432 -0.01288818 0.001091673
v 0.04796695 -0.01489231 -0.02772588
v 0.03878452 -0.02577544 -0.02105453
v 0.04796695 -0.01489231 -0.02772588
v 0.04796695 -0.0001482374 -0.02772588
v 0.01805271 -0.0001482366 -0.05115253
v 0.01805271 -0.01489231 -0.05115254
v 0.01805271 -0.01489231 -0.05115254
v 0.01805271 -0.0001482366 -0.05115253
v -0.01317075 -0.0001481524 -0.04896965
v -0.01317075 -0.01489223 -0.04896965
v -0.01317075 -0.01489223 -0.04896965
v -0.01317075 -0.0001481524 -0.04896965
v -0.02743315 -0.0001483002 -0.02445153
v -0.02743315 -0.01489238 -0.02445154
v -0.02743315 -0.01489238 -0.02445154
v -0.02743315 -0.0001483002 -0.02445153
v -0.0479669 -0.0002292746 0.001091644
v -0.04796687 -0.01288821 0.001091669
v -0.04796687 -0.01288821 0.001091669
v -0.0479669 -0.0002292746 0.001091644
v -0.03053322 -0.0001481839 0.02663487
v -0.03053321 -0.01489226 0.02663485
v -0.03053321 -0.01489226 0.02663485
v -0.03053322 -0.0001481839 0.02663487
v -0.008804926 -0.0001483132 0.04351272
v -0.008804886 -0.01489239 0.04351276
v -0.008804886 -0.01489239 0.04351276
v -0.008804926 -0.0001483132 0.04351272
v 0.02460144 -0.0001481619 0.05115295
v 0.02460144 -0.01489224 0.05115294
v 0.02460144 -0.01489224 0.05115294
v 0.02460144 -0.0001481619 0.05115295
v 0.03978102 -0.0001481542 0.02663488
v 0.03978102 -0.01489223 0.02663487
v 0.03978102 -0.01489223 0.02663487
v 0.03978102 -0.0001481542 0.02663488
v 0.04193429 -0.0002292516 0.001091654
v 0.04193432 -0.01288818 0.001091673
v 0.04193432 -0.01288818 0.001091673
v 0.04193429 -0.0002292516 0.001091654
v 0.04796695 -0.0001482374 -0.02772588
v 0.04796695 -0.01489231 -0.02772588
v 0.04796695 -0.0001482374 -0.02772588
v 0.04568891 0.01428346 -0.02539661
v 0.01714516 0.01428342 -0.04799103
v 0.01805271 -0.0001482366 -0.05115253
v 0.01805271 -0.0001482366 -0.05115253
v 0.01714516 0.01428342 -0.04799103
v -0.01182907 0.01428354 -0.04559744
v -0.01317075 -0.0001481524 -0.04896965
v -0.01317075 -0.0001481524 -0.04896965
v -0.01182907 0.01428354 -0.04559744
v -0.02321026 0.01428335 -0.02180619
v -0.02743315 -0.0001483002 -0.02445153
v -0.02743315 -0.0001483002 -0.02445153
v -0.02321026 0.01428335 -0.02180619
v -0.04530408 0.0119721 0.001196993
v -0.0479669 -0.0002292746 0.001091644
v -0.0479669 -0.0002292746 0.001091644
v -0.04530408 0.0119721 0.001196993
v -0.02660958 0.01428333 0.02420019
v -0.03053322 -0.0001481839 0.02663487
v -0.03053322 -0.0001481839 0.02663487
v -0.02660958 0.01428333 0.02420019
v -0.00704183 0.01428356 0.03961378
v -0.008804926 -0.0001483132 0.04351272
v -0.008804926 -0.0001483132 0.04351272
v -0.00704183 0.01428356 0.03961378
v 0.02432598 0.01428357 0.04799145
v 0.02460144 -0.0001481619 0.05115295
v 0.02460144 -0.0001481619 0.05115295
v 0.02432598 0.01428357 0.04799145
v 0.03671284 0.01428344 0.02420019
v 0.03978102 -0.0001481542 0.02663488
v 0.03978102 -0.0001481542 0.02663488
v 0.03671284 0.01428344 0.02420019
v 0.038652 0.01197217 0.001197005
v 0.04193429 -0.0002292516 0.001091654
v 0.04193429 -0.0002292516 0.001091654
v 0.038652 0.01197217 0.001197005
v 0.04568891 0.01428346 -0.02539661
v 0.04796695 -0.0001482374 -0.02772588
v 0.04568891 0.01428346 -0.02539661
v 0.03225249 0.02437453 -0.01614745
v 0.01203648 0.02437442 -0.03256842
v 0.01714516 0.01428342 -0.04799103
v 0.01714516 0.01428342 -0.04799103
v 0.01203648 0.02437442 -0.03256842
v -0.002592233 0.02437453 -0.02139363
v -0.01182907 0.01428354 -0.04559744
v -0.01182907 0.01428354 -0.04559744
v -0.002592233 0.02437453 -0.02139363
v -0.01125309 0.02437454 -0.01279502
v -0.02321026 0.01428335 -0.02180619
v -0.02321026 0.01428335 -0.02180619
v -0.01125309 0.02437454 -0.01279502
v -0.0312447 0.0207466 0.00111767
v -0.04530408 0.0119721 0.001196993
v -0.04530408 0.0119721 0.001196993
v -0.0312447 0.0207466 0.00111767
v -0.01442707 0.0243745 0.01503044
v -0.02660958 0.01428333 0.02420019
v -0.02660958 0.01428333 0.02420019
v -0.01442707 0.0243745 0.01503044
v -0.00259222 0.02437438 0.02474642
v -0.00704183 0.01428356 0.03961378
v -0.00704183 0.01428356 0.03961378
v -0.00259222 0.02437438 0.02474642
v 0.01874136 0.0243744 0.0325688
v 0.02432598 0.01428357 0.04799145
v 0.02432598 0.01428357 0.04799145
v 0.01874136 0.0243744 0.0325688
v 0.02387139 0.02437444 0.01503043
v 0.03671284 0.01428344 0.02420019
v 0.03671284 0.01428344 0.02420019
v 0.02387139 0.02437444 0.01503043
v 0.02504421 0.02074648 0.001117687
v 0.038652 0.01197217 0.001197005
v 0.038652 0.01197217 0.001197005
v 0.02504421 0.02074648 0.001117687
v 0.03225249 0.02437453 -0.01614745
v 0.04568891 0.01428346 -0.02539661
v 0.03225249 0.02437453 -0.01614745
v 0.004623896 0.03397605 0.001091636
v 0.01203648 0.02437442 -0.03256842
v 0.01203648 0.02437442 -0.03256842
v 0.004623896 0.03397605 0.001091636
v -0.002592233 0.02437453 -0.02139363
v -0.002592233 0.02437453 -0.02139363
v 0.004623896 0.03397605 0.001091636
v -0.01125309 0.02437454 -0.01279502
v -0.01125309 0.02437454 -0.01279502
v 0.004623896 0.03397605 0.001091636
v -0.0312447 0.0207466 0.00111767
v -0.0312447 0.0207466 0.00111767
v 0.004623896 0.03397605 0.001091636
v -0.01442707 0.0243745 0.01503044
v -0.01442707 0.0243745 0.01503044
v 0.004623896 0.03397605 0.001091636
v -0.00259222 0.02437438 0.02474642
v -0.00259222 0.02437438 0.02474642
v 0.004623896 0.03397605 0.001091636
v 0.01874136 0.0243744 0.0325688
v 0.01874136 0.0243744 0.0325688
v 0.004623896 0.03397605 0.001091636
v 0.02387139 0.02437444 0.01503043
v 0.02387139 0.02437444 0.01503043
v 0.004623896 0.03397605 0.001091636
v 0.02504421 0.02074648 0.001117687
v 0.02504421 0.02074648 0.001117687
v 0.004623896 0.03397605 0.001091636
v 0.03225249 0.02437453 -0.01614745

vn -0.1199159 -0.9790999 -0.1642648
vn -0.04145304 -0.9991115 0.007568132
vn 0.06685042 -0.9836714 -0.1670958
vn -0.2216814 -0.973108 -0.06259106
vn -0.3010268 -0.9473407 0.1092142
vn -0.247243 -0.9531072 0.1745195
vn -0.1321526 -0.961141 0.2423696
vn 0.03479537 -0.9706516 0.237958
vn 0.1234887 -0.9871578 0.1013383
vn 0.1849504 -0.9688081 -0.1649351
vn 0.3146021 -0.9313279 -0.1834487
vn -0.08520287 -0.7070773 -0.7019843
vn -0.0852029 -0.7070773 -0.7019843
vn -0.08520281 -0.7070773 -0.7019843
vn -0.0852029 -0.7070773 -0.7019843
vn -0.5515853 -0.6843743 -0.4768489
vn -0.5515853 -0.6843745 -0.4768489
vn -0.5515853 -0.6843743 -0.4768489
vn -0.5515854 -0.6843744 -0.4768489
vn -0.7488132 -0.6289132 0.2091574
vn -0.7488133 -0.6289131 0.2091575
vn -0.7488132 -0.6289132 0.2091574
vn -0.7488132 -0.6289131 0.2091575
vn -0.7526661 -0.6542602 0.07373667
vn -0.7526662 -0.6542601 0.07373673
vn -0.7526662 -0.6542601 0.07373673
vn -0.7526661 -0.6542601 0.07373676
vn -0.2163869 -0.6806783 0.6998953
vn -0.2163869 -0.6806783 0.6998953
vn -0.2163869 -0.6806782 0.6998953
vn -0.2163869 -0.6806783 0.6998953
vn 0.02719659 -0.6995692 0.714047
vn 0.02719653 -0.6995692 0.714047
vn 0.02719653 -0.6995692 0.7140468
vn 0.02719656 -0.6995692 0.7140468
vn 0.3130645 -0.7013381 0.6404023
vn 0.3130645 -0.7013382 0.6404023
vn 0.3130645 -0.7013382 0.6404023
vn 0.3130645 -0.7013381 0.6404023
vn 0.693176 -0.6996453 -0.1732145
vn 0.6931759 -0.6996453 -0.1732145
vn 0.6931759 -0.6996453 -0.1732145
vn 0.693176 -0.6996453 -0.1732146
vn 0.4939227 -0.7052004 -0.5086576
vn 0.4939227 -0.7052004 -0.5086576
vn 0.4939227 -0.7052004 -0.5086576
vn 0.4939227 -0.7052004 -0.5086576
vn 0.6925521 -0.6484969 -0.3159479
vn 0.6925522 -0.6484967 -0.315948
vn 0.6925521 -0.6484969 -0.3159479
vn 0.6925521 -0.6484968 -0.315948
vn -0.08131957 -0.005218415 -0.9966744
vn -0.08131954 -0.005218416 -0.9966745
vn -0.08131954 -0.005218416 -0.9966745
vn -0.08131957 -0.005218415 -0.9966744
vn -0.7275084 0.02509317 -0.6856397
vn -0.7275084 0.02509317 -0.6856397
vn -0.7275084 0.02509317 -0.6856397
vn -0.7275084 0.02509317 -0.6856397
vn -0.9752285 0.04354393 0.2168719
vn -0.9752285 0.04354393 0.2168719
vn -0.9752285 0.04354393 0.2168719
vn -0.9752285 0.04354393 0.2168719
vn -0.9967291 0.04316678 0.06831932
vn -0.9967293 0.04316678 0.06831938
vn -0.9967291 0.04316678 0.06831932
vn -0.9967291 0.04316678 0.06831932
vn -0.2239248 0.0180617 0.974439
vn -0.2239248 0.0180617 0.974439
vn -0.2239247 0.0180617 0.9744391
vn -0.2239248 0.0180617 0.974439
vn 0.08525518 0.005047463 0.9963464
vn 0.08525518 0.005047463 0.9963464
vn 0.08525518 0.005047463 0.9963464
vn 0.08525518 0.005047463 0.9963464
vn 0.4973063 -0.01367543 0.8674672
vn 0.4973063 -0.01367543 0.8674672
vn 0.4973063 -0.01367543 0.8674672
vn 0.4973063 -0.01367543 0.8674672
vn 0.9808271 -0.0435483 -0.1899523
vn 0.9808271 -0.0435483 -0.1899523
vn 0.9808271 -0.0435483 -0.1899523
vn 0.9808271 -0.0435483 -0.1899523
vn 0.7881995 -0.03902059 -0.6141815
vn 0.7881995 -0.03902059 -0.6141815
vn 0.7881995 -0.03902059 -0.6141815
vn 0.7881995 -0.03902059 -0.6141815
vn 0.8571878 -0.04108792 -0.5133623
vn 0.8571878 -0.04108792 -0.5133623
vn 0.8571878 -0.04108792 -0.5133623
vn 0.8571878 -0.04108792 -0.5133623
vn -0.06789756 0.2073485 -0.9759082
vn -0.06789753 0.2073485 -0.975908
vn -0.06789753 0.2073485 -0.975908
vn -0.06789753 0.2073485 -0.975908
vn -0.7040883 0.2457054 -0.6662496
vn -0.7040883 0.2457054 -0.6662495
vn -0.7040883 0.2457054 -0.6662495
vn -0.7040883 0.2457054 -0.6662495
vn -0.9220741 0.3006501 0.2436981
vn -0.9220742 0.3006501 0.2436981
vn -0.9220742 0.3006501 0.243698
vn -0.9220741 0.30065 0.2436981
vn -0.9546984 0.2959253 0.03129032
vn -0.9546984 0.2959253 0.03129029
vn -0.9546984 0.2959253 0.03129032
vn -0.9546984 0.2959253 0.03129038
vn -0.1774463 0.2598699 0.9492
vn -0.1774463 0.2598699 0.9492
vn -0.1774464 0.2598699 0.9491999
vn -0.1774463 0.2598699 0.9492
vn 0.090754 0.2869684 0.9536313
vn 0.09075394 0.2869684 0.9536314
vn 0.09075394 0.2869684 0.9536314
vn 0.09075394 0.2869684 0.9536314
vn 0.4779607 0.2295959 0.8478439
vn 0.4779607 0.2295959 0.8478439
vn 0.4779607 0.2295959 0.8478439
vn 0.4779607 0.2295959 0.8478439
vn 0.9633217 0.1501062 -0.2224399
vn 0.9633217 0.1501062 -0.2224399
vn 0.9633217 0.1501062 -0.2224399
vn 0.9633217 0.1501062 -0.2224399
vn 0.7686276 0.1992537 -0.607873
vn 0.7686276 0.1992537 -0.607873
vn 0.7686276 0.1992537 -0.607873
vn 0.7686276 0.1992537 -0.607873
vn 0.8672133 0.1372178 -0.4786567
vn 0.8672132 0.1372179 -0.4786568
vn 0.8672133 0.1372179 -0.4786567
vn 0.8672133 0.1372179 -0.4786567
vn -0.003101707 0.8329381 -0.5533571
vn -0.003101736 0.8329381 -0.5533571
vn -0.003101707 0.8329381 -0.5533571
vn -0.003101736 0.8329381 -0.5533571
vn -0.3593177 0.9025537 -0.237249
vn -0.3593177 0.9025537 -0.237249
vn -0.3593177 0.9025537 -0.237249
vn -0.3593176 0.9025537 -0.237249
vn -0.4476303 0.8900322 0.08642513
vn -0.4476303 0.8900322 0.08642511
vn -0.4476303 0.8900322 0.08642513
vn -0.4476303 0.8900322 0.08642511
vn -0.5580598 0.8296422 0.01620823
vn -0.5580598 0.8296422 0.01620823
vn -0.5580598 0.8296422 0.01620823
vn -0.5580598 0.8296422 0.01620823
vn -0.09306362 0.8281008 0.5528
vn -0.09306359 0.8281009 0.5527999
vn -0.09306362 0.8281008 0.5528
vn -0.09306362 0.8281008 0.5528
vn 0.07540208 0.8247102 0.5605062
vn 0.07540205 0.8247101 0.5605062
vn 0.07540208 0.8247101 0.5605063
vn 0.07540205 0.8247101 0.5605062
vn 0.2840841 0.8103471 0.5124777
vn 0.2840841 0.8103471 0.5124777
vn 0.2840841 0.8103471 0.5124777
vn 0.2840841 0.8103471 0.5124777
vn 0.6028027 0.7694014 -0.2113053
vn 0.6028028 0.7694014 -0.2113053
vn 0.6028028 0.7694014 -0.2113053
vn 0.6028028 0.7694014 -0.2113053
vn 0.4191051 0.777279 -0.4692419
vn 0.419105 0.777279 -0.4692418
vn 0.4191051 0.777279 -0.4692418
vn 0.4191051 0.777279 -0.4692419
vn 0.6824253 0.7023206 -0.2025864
vn 0.6824253 0.7023206 -0.2025865
vn 0.6824253 0.7023206 -0.2025864
vn 0.6824253 0.7023206 -0.2025864
vn 0.02181758 0.9519988 -0.3053222
vn 0.02181755 0.9519988 -0.3053222
vn 0.02181758 0.9519988 -0.3053222
vn -0.3508143 0.9333397 -0.07619636
vn -0.3508143 0.9333397 -0.07619639
vn -0.3508142 0.9333397 -0.07619637
vn -0.3755677 0.9264302 -0.02599055
vn -0.3755677 0.9264302 -0.02599056
vn -0.3755677 0.9264302 -0.02599053
vn -0.3736923 0.9267049 0.03964092
vn -0.3736924 0.9267049 0.03964093
vn -0.3736924 0.9267049 0.03964093
vn -0.09478005 0.9324138 0.3487416
vn -0.09478002 0.9324138 0.3487416
vn -0.09478005 0.9324138 0.3487416
vn 0.06194383 0.923516 0.3785241
vn 0.06194383 0.9235161 0.3785241
vn 0.06194383 0.9235161 0.3785241
vn 0.1789003 0.9281112 0.326502
vn 0.1789003 0.9281112 0.326502
vn 0.1789003 0.9281112 0.326502
vn 0.3918709 0.9015716 -0.1833177
vn 0.3918709 0.9015716 -0.1833178
vn 0.391871 0.9015715 -0.1833178
vn 0.3130105 0.8099733 -0.495951
vn 0.3130104 0.8099733 -0.495951
vn 0.3130104 0.8099734 -0.495951
vn 0.6565908 0.7506264 -0.07381207
vn 0.6565908 0.7506264 -0.07381201
vn 0.6565908 0.7506264 -0.07381204

vt 0.5483398 0.007648468
vt 0.5 0.1500244
vt 0.6264648 0.06439209
vt 0.4516602 0.007648468
vt 0.3735352 0.06439209
vt 0.34375 0.15625
vt 0.3735352 0.2480469
vt 0.4516602 0.3049316
vt 0.5483398 0.3049316
vt 0.6264648 0.2480469
vt 0.65625 0.15625
vt 0 0
vt 0 1
vt 1 1
vt 1 0
vt 0 0
vt 0 1
vt 1 1
vt 1 0
vt 0 0
vt 0 1
vt 1 1
vt 1 0
vt 0 0
vt 0 1
vt 1 1
vt 1 0
vt 0 0
vt 0 1
vt 1 1
vt 1 0
vt 0 0
vt 0 1
vt 1 1
vt 1 0
vt 0 0
vt 0 1
vt 1 1
vt 1 0
vt 0 0
vt 0 1
vt 1 1
vt 1 0
vt 0 0
vt 0 1
vt 1 1
vt 1 0
vt 0 0
vt 0 1
vt 1 1
vt 1 0
vt 0 0
vt 0 1
vt 1 1
vt 1 0
vt 0 0
vt 0 1
vt 1 1
vt 1 0
vt 0 0
vt 0 1
vt 1 1
vt 1 0
vt 0 0
vt 0 1
vt 1 1
vt 1 0
vt 0 0
vt 0 1
vt 1 1
vt 1 0
vt 0 0
vt 0 1
vt 1 1
vt 1 0
vt 0 0
vt 0 1
vt 1 1
vt 1 0
vt 0 0
vt 0 1
vt 1 1
vt 1 0
vt 0 0
vt 0 1
vt 1 1
vt 1 0
vt 0 0
vt 0 1
vt 1 1
vt 1 0
vt 0 0
vt 0 1
vt 1 1
vt 1 0
vt 0 0
vt 0 1
vt 1 1
vt 1 0
vt 0 0
vt 0 1
vt 1 1
vt 1 0
vt 0 0
vt 0 1
vt 1 1
vt 1 0
vt 0 0
vt 0 1
vt 1 1
vt 1 0
vt 0 0
vt 0 1
vt 1 1
vt 1 0
vt 0 0
vt 0 1
vt 1 1
vt 1 0
vt 0 0
vt 0 1
vt 1 1
vt 1 0
vt 0 0
vt 0 1
vt 1 1
vt 1 0
vt 0 0
vt 0 1
vt 1 1
vt 1 0
vt 0 0
vt 0 1
vt 1 1
vt 1 0
vt 0 0
vt 0 1
vt 1 1
vt 1 0
vt 0 0
vt 0 1
vt 1 1
vt 1 0
vt 0 0
vt 0 1
vt 1 1
vt 1 0
vt 0 0
vt 0 1
vt 1 1
vt 1 0
vt 0 0
vt 0 1
vt 1 1
vt 1 0
vt 0 0
vt 0 1
vt 1 1
vt 1 0
vt 0 0
vt 0 1
vt 1 1
vt 1 0
vt 0 0
vt 0 1
vt 1 1
vt 1 0
vt 0 0
vt 0 1
vt 1 1
vt 1 0
vt 0 0
vt 0.5 1
vt 1 0
vt 0 0
vt 0.5 1
vt 1 0
vt 0 0
vt 0.5 1
vt 1 0
vt 0 0
vt 0.5 1
vt 1 0
vt 0 0
vt 0.5 1
vt 1 0
vt 0 0
vt 0.5 1
vt 1 0
vt 0 0
vt 0.5 1
vt 1 0
vt 0 0
vt 0.5 1
vt 1 0
vt 0 0
vt 0.5 1
vt 1 0
vt 0 0
vt 0.5 1
vt 1 0

g Foliage2_11_3285_48
usemtl Foliage2_11_3285_48
usemap Foliage2_11_3285_48
f 1/1/1 3/3/3 2/2/2
f 4/4/4 1/1/1 2/2/2
f 5/5/5 4/4/4 2/2/2
f 6/6/6 5/5/5 2/2/2
f 7/7/7 6/6/6 2/2/2
f 8/8/8 7/7/7 2/2/2
f 9/9/9 8/8/8 2/2/2
f 10/10/10 9/9/9 2/2/2
f 11/11/11 10/10/10 2/2/2
f 3/3/3 11/11/11 2/2/2
f 12/12/12 14/14/14 13/13/13
f 12/12/12 15/15/15 14/14/14
f 16/16/16 18/18/18 17/17/17
f 16/16/16 19/19/19 18/18/18
f 20/20/20 22/22/22 21/21/21
f 20/20/20 23/23/23 22/22/22
f 24/24/24 26/26/26 25/25/25
f 24/24/24 27/27/27 26/26/26
f 28/28/28 30/30/30 29/29/29
f 28/28/28 31/31/31 30/30/30
f 32/32/32 34/34/34 33/33/33
f 32/32/32 35/35/35 34/34/34
f 36/36/36 38/38/38 37/37/37
f 36/36/36 39/39/39 38/38/38
f 40/40/40 42/42/42 41/41/41
f 40/40/40 43/43/43 42/42/42
f 44/44/44 46/46/46 45/45/45
f 44/44/44 47/47/47 46/46/46
f 48/48/48 50/50/50 49/49/49
f 48/48/48 51/51/51 50/50/50
f 52/52/52 54/54/54 53/53/53
f 52/52/52 55/55/55 54/54/54
f 56/56/56 58/58/58 57/57/57
f 56/56/56 59/59/59 58/58/58
f 60/60/60 62/62/62 61/61/61
f 60/60/60 63/63/63 62/62/62
f 64/64/64 66/66/66 65/65/65
f 64/64/64 67/67/67 66/66/66
f 68/68/68 70/70/70 69/69/69
f 68/68/68 71/71/71 70/70/70
f 72/72/72 74/74/74 73/73/73
f 72/72/72 75/75/75 74/74/74
f 76/76/76 78/78/78 77/77/77
f 76/76/76 79/79/79 78/78/78
f 80/80/80 82/82/82 81/81/81
f 80/80/80 83/83/83 82/82/82
f 84/84/84 86/86/86 85/85/85
f 84/84/84 87/87/87 86/86/86
f 88/88/88 90/90/90 89/89/89
f 88/88/88 91/91/91 90/90/90
f 92/92/92 94/94/94 93/93/93
f 92/92/92 95/95/95 94/94/94
f 96/96/96 98/98/98 97/97/97
f 96/96/96 99/99/99 98/98/98
f 100/100/100 102/102/102 101/101/101
f 100/100/100 103/103/103 102/102/102
f 104/104/104 106/106/106 105/105/105
f 104/104/104 107/107/107 106/106/106
f 108/108/108 110/110/110 109/109/109
f 108/108/108 111/111/111 110/110/110
f 112/112/112 114/114/114 113/113/113
f 112/112/112 115/115/115 114/114/114
f 116/116/116 118/118/118 117/117/117
f 116/116/116 119/119/119 118/118/118
f 120/120/120 122/122/122 121/121/121
f 120/120/120 123/123/123 122/122/122
f 124/124/124 126/126/126 125/125/125
f 124/124/124 127/127/127 126/126/126
f 128/128/128 130/130/130 129/129/129
f 128/128/128 131/131/131 130/130/130
f 132/132/132 134/134/134 133/133/133
f 132/132/132 135/135/135 134/134/134
f 136/136/136 138/138/138 137/137/137
f 136/136/136 139/139/139 138/138/138
f 140/140/140 142/142/142 141/141/141
f 140/140/140 143/143/143 142/142/142
f 144/144/144 146/146/146 145/145/145
f 144/144/144 147/147/147 146/146/146
f 148/148/148 150/150/150 149/149/149
f 148/148/148 151/151/151 150/150/150
f 152/152/152 154/154/154 153/153/153
f 152/152/152 155/155/155 154/154/154
f 156/156/156 158/158/158 157/157/157
f 156/156/156 159/159/159 158/158/158
f 160/160/160 162/162/162 161/161/161
f 160/160/160 163/163/163 162/162/162
f 164/164/164 166/166/166 165/165/165
f 164/164/164 167/167/167 166/166/166
f 168/168/168 170/170/170 169/169/169
f 168/168/168 171/171/171 170/170/170
f 172/172/172 174/174/174 173/173/173
f 175/175/175 177/177/177 176/176/176
f 178/178/178 180/180/180 179/179/179
f 181/181/181 183/183/183 182/182/182
f 184/184/184 186/186/186 185/185/185
f 187/187/187 189/189/189 188/188/188
f 190/190/190 192/192/192 191/191/191
f 193/193/193 195/195/195 194/194/194
f 196/196/196 198/198/198 197/197/197
f 199/199/199 201/201/201 200/200/200
