#Foliage4_39_3737_76.obj

v 0.01454407 -0.02577562 -0.0403584
v 0.004622842 -0.03397604 0.001091292
v 0.03878353 -0.02577565 -0.02105486
v -0.009664662 -0.02577562 -0.0381755
v -0.01825199 -0.02577562 -0.01778052
v -0.03822309 -0.0222322 0.00109134
v -0.02135178 -0.02577564 0.0199631
v -0.005298757 -0.02577563 0.03271788
v 0.0210929 -0.02577561 0.04035806
v 0.03059753 -0.02577564 0.0199631
v 0.03218823 -0.02223217 0.001091298
v 0.03878353 -0.02577565 -0.02105486
v 0.04796566 -0.01489235 -0.02772624
v 0.01805142 -0.01489239 -0.05115289
v 0.01454407 -0.02577562 -0.0403584
v 0.01454407 -0.02577562 -0.0403584
v 0.01805142 -0.01489239 -0.05115289
v -0.01317169 -0.01489234 -0.04896998
v -0.009664662 -0.02577562 -0.0381755
v -0.009664662 -0.02577562 -0.0381755
v -0.01317169 -0.01489234 -0.04896998
v -0.02743433 -0.0148924 -0.02445187
v -0.01825199 -0.02577562 -0.01778052
v -0.01825199 -0.02577562 -0.01778052
v -0.02743433 -0.0148924 -0.02445187
v -0.04796799 -0.01288818 0.001091313
v -0.03822309 -0.0222322 0.00109134
v -0.03822309 -0.0222322 0.00109134
v -0.04796799 -0.01288818 0.001091313
v -0.03053433 -0.01489237 0.02663453
v -0.02135178 -0.02577564 0.0199631
v -0.02135178 -0.02577564 0.0199631
v -0.03053433 -0.01489237 0.02663453
v -0.008806135 -0.01489238 0.0435124
v -0.005298757 -0.02577563 0.03271788
v -0.005298757 -0.02577563 0.03271788
v -0.008806135 -0.01489238 0.0435124
v 0.0246003 -0.01489233 0.05115255
v 0.0210929 -0.02577561 0.04035806
v 0.0210929 -0.02577561 0.04035806
v 0.0246003 -0.01489233 0.05115255
v 0.03977985 -0.01489233 0.02663448
v 0.03059753 -0.02577564 0.0199631
v 0.03059753 -0.02577564 0.0199631
v 0.03977985 -0.01489233 0.02663448
v 0.04193332 -0.01288817 0.001091349
v 0.03218823 -0.02223217 0.001091298
v 0.03218823 -0.02223217 0.001091298
v 0.04193332 -0.01288817 0.001091349
v 0.04796566 -0.01489235 -0.02772624
v 0.03878353 -0.02577565 -0.02105486
v 0.04796566 -0.01489235 -0.02772624
v 0.04796568 -0.0001483081 -0.02772627
v 0.01805143 -0.0001482719 -0.05115291
v 0.01805142 -0.01489239 -0.05115289
v 0.01805142 -0.01489239 -0.05115289
v 0.01805143 -0.0001482719 -0.05115291
v -0.01317168 -0.000148304 -0.04896995
v -0.01317169 -0.01489234 -0.04896998
v -0.01317169 -0.01489234 -0.04896998
v -0.01317168 -0.000148304 -0.04896995
v -0.02743432 -0.0001482816 -0.02445189
v -0.02743433 -0.0148924 -0.02445187
v -0.02743433 -0.0148924 -0.02445187
v -0.02743432 -0.0001482816 -0.02445189
v -0.04796815 -0.0002294201 0.001091277
v -0.04796799 -0.01288818 0.001091313
v -0.04796799 -0.01288818 0.001091313
v -0.04796815 -0.0002294201 0.001091277
v -0.03053432 -0.0001483276 0.0266345
v -0.03053433 -0.01489237 0.02663453
v -0.03053433 -0.01489237 0.02663453
v -0.03053432 -0.0001483276 0.0266345
v -0.008806118 -0.0001482613 0.04351238
v -0.008806135 -0.01489238 0.0435124
v -0.008806135 -0.01489238 0.0435124
v -0.008806118 -0.0001482613 0.04351238
v 0.02460031 -0.0001482913 0.05115258
v 0.0246003 -0.01489233 0.05115255
v 0.0246003 -0.01489233 0.05115255
v 0.02460031 -0.0001482913 0.05115258
v 0.03977985 -0.0001482956 0.02663451
v 0.03977985 -0.01489233 0.02663448
v 0.03977985 -0.01489233 0.02663448
v 0.03977985 -0.0001482956 0.02663451
v 0.04193316 -0.0002294074 0.001091313
v 0.04193332 -0.01288817 0.001091349
v 0.04193332 -0.01288817 0.001091349
v 0.04193316 -0.0002294074 0.001091313
v 0.04796568 -0.0001483081 -0.02772627
v 0.04796566 -0.01489235 -0.02772624
v 0.04796568 -0.0001483081 -0.02772627
v 0.0456879 0.01428335 -0.02539694
v 0.01714412 0.01428339 -0.04799137
v 0.01805143 -0.0001482719 -0.05115291
v 0.01805143 -0.0001482719 -0.05115291
v 0.01714412 0.01428339 -0.04799137
v -0.01183036 0.01428337 -0.04559781
v -0.01317168 -0.000148304 -0.04896995
v -0.01317168 -0.000148304 -0.04896995
v -0.01183036 0.01428337 -0.04559781
v -0.0232114 0.01428337 -0.02180654
v -0.02743432 -0.0001482816 -0.02445189
v -0.02743432 -0.0001482816 -0.02445189
v -0.0232114 0.01428337 -0.02180654
v -0.04530533 0.01197211 0.001196678
v -0.04796815 -0.0002294201 0.001091277
v -0.04796815 -0.0002294201 0.001091277
v -0.04530533 0.01197211 0.001196678
v -0.02661065 0.01428338 0.02419983
v -0.03053432 -0.0001483276 0.0266345
v -0.03053432 -0.0001483276 0.0266345
v -0.02661065 0.01428338 0.02419983
v -0.007043065 0.01428335 0.03961341
v -0.008806118 -0.0001482613 0.04351238
v -0.008806118 -0.0001482613 0.04351238
v -0.007043065 0.01428335 0.03961341
v 0.02432471 0.01428335 0.04799107
v 0.02460031 -0.0001482913 0.05115258
v 0.02460031 -0.0001482913 0.05115258
v 0.02432471 0.01428335 0.04799107
v 0.03671183 0.01428339 0.02419988
v 0.03977985 -0.0001482956 0.02663451
v 0.03977985 -0.0001482956 0.02663451
v 0.03671183 0.01428339 0.02419988
v 0.038651 0.01197207 0.001196684
v 0.04193316 -0.0002294074 0.001091313
v 0.04193316 -0.0002294074 0.001091313
v 0.038651 0.01197207 0.001196684
v 0.0456879 0.01428335 -0.02539694
v 0.04796568 -0.0001483081 -0.02772627
v 0.0456879 0.01428335 -0.02539694
v 0.03225127 0.02437439 -0.01614782
v 0.01203529 0.02437442 -0.03256877
v 0.01714412 0.01428339 -0.04799137
v 0.01714412 0.01428339 -0.04799137
v 0.01203529 0.02437442 -0.03256877
v -0.002593353 0.02437443 -0.02139398
v -0.01183036 0.01428337 -0.04559781
v -0.01183036 0.01428337 -0.04559781
v -0.002593353 0.02437443 -0.02139398
v -0.01125416 0.0243744 -0.01279538
v -0.0232114 0.01428337 -0.02180654
v -0.0232114 0.01428337 -0.02180654
v -0.01125416 0.0243744 -0.01279538
v -0.03124564 0.0207465 0.001117376
v -0.04530533 0.01197211 0.001196678
v -0.04530533 0.01197211 0.001196678
v -0.03124564 0.0207465 0.001117376
v -0.01442815 0.02437438 0.01503005
v -0.02661065 0.01428338 0.02419983
v -0.02661065 0.01428338 0.02419983
v -0.01442815 0.02437438 0.01503005
v -0.002593329 0.02437442 0.02474608
v -0.007043065 0.01428335 0.03961341
v -0.007043065 0.01428335 0.03961341
v -0.002593329 0.02437442 0.02474608
v 0.01874035 0.02437441 0.03256847
v 0.02432471 0.01428335 0.04799107
v 0.02432471 0.01428335 0.04799107
v 0.01874035 0.02437441 0.03256847
v 0.02387023 0.02437442 0.01503007
v 0.03671183 0.01428339 0.02419988
v 0.03671183 0.01428339 0.02419988
v 0.02387023 0.02437442 0.01503007
v 0.02504297 0.02074652 0.001117328
v 0.038651 0.01197207 0.001196684
v 0.038651 0.01197207 0.001196684
v 0.02504297 0.02074652 0.001117328
v 0.03225127 0.02437439 -0.01614782
v 0.0456879 0.01428335 -0.02539694
v 0.03225127 0.02437439 -0.01614782
v 0.004622839 0.0339761 0.001091292
v 0.01203529 0.02437442 -0.03256877
v 0.01203529 0.02437442 -0.03256877
v 0.004622839 0.0339761 0.001091292
v -0.002593353 0.02437443 -0.02139398
v -0.002593353 0.02437443 -0.02139398
v 0.004622839 0.0339761 0.001091292
v -0.01125416 0.0243744 -0.01279538
v -0.01125416 0.0243744 -0.01279538
v 0.004622839 0.0339761 0.001091292
v -0.03124564 0.0207465 0.001117376
v -0.03124564 0.0207465 0.001117376
v 0.004622839 0.0339761 0.001091292
v -0.01442815 0.02437438 0.01503005
v -0.01442815 0.02437438 0.01503005
v 0.004622839 0.0339761 0.001091292
v -0.002593329 0.02437442 0.02474608
v -0.002593329 0.02437442 0.02474608
v 0.004622839 0.0339761 0.001091292
v 0.01874035 0.02437441 0.03256847
v 0.01874035 0.02437441 0.03256847
v 0.004622839 0.0339761 0.001091292
v 0.02387023 0.02437442 0.01503007
v 0.02387023 0.02437442 0.01503007
v 0.004622839 0.0339761 0.001091292
v 0.02504297 0.02074652 0.001117328
v 0.02504297 0.02074652 0.001117328
v 0.004622839 0.0339761 0.001091292
v 0.03225127 0.02437439 -0.01614782

vn 0.2115651 -0.9728379 0.09395032
vn -0.02890672 -0.9985504 0.04540494
vn 0.07769356 -0.9594359 0.27101
vn 0.1794043 -0.9808388 -0.07595661
vn 0.05612743 -0.9593613 -0.2765425
vn -0.05245388 -0.9606636 -0.2727158
vn -0.2075412 -0.9549264 -0.2122313
vn -0.322893 -0.9449885 -0.05231446
vn -0.246992 -0.9602219 0.1302638
vn -0.009867109 -0.9268062 0.3754106
vn -0.0809123 -0.8640003 0.4969474
vn 0.6700577 -0.6062984 0.4282815
vn 0.6700577 -0.6062984 0.4282814
vn 0.6700577 -0.6062984 0.4282815
vn 0.6700577 -0.6062984 0.4282814
vn 0.7695397 -0.6310654 -0.09780245
vn 0.7695395 -0.6310655 -0.09780245
vn 0.7695397 -0.6310654 -0.09780246
vn 0.7695397 -0.6310654 -0.09780246
vn 0.2690889 -0.6278611 -0.7303298
vn 0.2690889 -0.627861 -0.7303299
vn 0.2690889 -0.6278611 -0.7303298
vn 0.2690889 -0.627861 -0.7303299
vn 0.4026542 -0.6511689 -0.6433107
vn 0.4026542 -0.6511688 -0.6433108
vn 0.4026542 -0.6511689 -0.6433107
vn 0.4026541 -0.6511689 -0.6433108
vn -0.5438416 -0.6141847 -0.5718509
vn -0.5438416 -0.6141847 -0.5718509
vn -0.5438416 -0.6141847 -0.5718509
vn -0.5438416 -0.6141847 -0.5718509
vn -0.7046422 -0.6037955 -0.3727069
vn -0.7046421 -0.6037955 -0.372707
vn -0.7046421 -0.6037955 -0.3727069
vn -0.7046421 -0.6037955 -0.3727069
vn -0.8108146 -0.5779605 -0.09241925
vn -0.8108146 -0.5779605 -0.09241927
vn -0.8108146 -0.5779605 -0.09241924
vn -0.8108146 -0.5779605 -0.09241925
vn -0.3241413 -0.5674562 0.7569186
vn -0.3241414 -0.5674563 0.7569186
vn -0.3241414 -0.5674563 0.7569186
vn -0.3241413 -0.5674562 0.7569186
vn 0.1270127 -0.5812462 0.8037541
vn 0.1270127 -0.5812463 0.8037541
vn 0.1270127 -0.5812462 0.8037541
vn 0.1270127 -0.5812462 0.8037541
vn -0.1831332 -0.5153503 0.8371835
vn -0.1831332 -0.5153503 0.8371836
vn -0.1831332 -0.5153503 0.8371835
vn -0.1831332 -0.5153504 0.8371835
vn 0.8650776 -0.0005792592 0.5016376
vn 0.8650776 -0.0005792571 0.5016376
vn 0.8650776 -0.0005792571 0.5016376
vn 0.8650776 -0.0005792592 0.5016376
vn 0.9887429 -0.02310188 -0.1478302
vn 0.9887429 -0.02310188 -0.1478302
vn 0.9887429 -0.02310188 -0.1478302
vn 0.9887429 -0.02310188 -0.1478302
vn 0.4110705 -0.03603507 -0.910891
vn 0.4110705 -0.03603507 -0.910891
vn 0.4110705 -0.03603507 -0.910891
vn 0.4110705 -0.03603507 -0.910891
vn 0.5540426 -0.03624637 -0.8316989
vn 0.5540425 -0.03624636 -0.8316989
vn 0.5540426 -0.03624637 -0.8316989
vn 0.5540426 -0.03624637 -0.8316989
vn -0.68671 -0.009766574 -0.7268659
vn -0.68671 -0.009766574 -0.7268659
vn -0.6867101 -0.009766571 -0.7268658
vn -0.68671 -0.009766574 -0.7268659
vn -0.8668969 0.0007113373 -0.4984869
vn -0.8668969 0.0007113373 -0.4984869
vn -0.8668969 0.0007113373 -0.4984869
vn -0.8668969 0.0007113373 -0.4984869
vn -0.9921528 0.01470244 -0.1241645
vn -0.9921528 0.01470244 -0.1241645
vn -0.9921528 0.01470244 -0.1241645
vn -0.9921528 0.01470244 -0.1241645
vn -0.4383009 0.03614667 0.8981012
vn -0.4383009 0.03614667 0.8981012
vn -0.4383009 0.03614667 0.8981012
vn -0.4383009 0.03614667 0.8981012
vn 0.06041249 0.02991422 0.9977251
vn 0.06041248 0.02991422 0.9977251
vn 0.06041249 0.02991422 0.9977251
vn 0.06041248 0.02991422 0.9977251
vn -0.07209939 0.03236734 0.9968721
vn -0.07209937 0.03236734 0.9968721
vn -0.07209939 0.03236734 0.9968721
vn -0.07209939 0.03236734 0.9968721
vn 0.8564714 0.1642487 0.4893661
vn 0.8564714 0.1642487 0.4893661
vn 0.8564714 0.1642487 0.4893661
vn 0.8564714 0.1642487 0.4893661
vn 0.9758785 0.1502674 -0.1583695
vn 0.9758785 0.1502674 -0.1583695
vn 0.9758785 0.1502674 -0.1583695
vn 0.9758785 0.1502674 -0.1583695
vn 0.3680361 0.1834384 -0.9115371
vn 0.3680361 0.1834384 -0.9115371
vn 0.3680361 0.1834384 -0.911537
vn 0.3680361 0.1834383 -0.9115371
vn 0.5747753 0.1775488 -0.7988178
vn 0.5747753 0.1775488 -0.7988177
vn 0.5747753 0.1775488 -0.7988178
vn 0.5747752 0.1775488 -0.7988178
vn -0.6888209 0.1840155 -0.7011876
vn -0.6888209 0.1840155 -0.7011876
vn -0.6888209 0.1840155 -0.7011876
vn -0.6888209 0.1840155 -0.7011876
vn -0.8381968 0.2209384 -0.4986105
vn -0.8381968 0.2209384 -0.4986105
vn -0.8381968 0.2209384 -0.4986105
vn -0.8381968 0.2209384 -0.4986105
vn -0.968492 0.2017715 -0.1459848
vn -0.968492 0.2017715 -0.1459848
vn -0.968492 0.2017715 -0.1459848
vn -0.968492 0.2017715 -0.1459848
vn -0.3936111 0.1984289 0.8976059
vn -0.3936111 0.1984289 0.8976059
vn -0.3936111 0.1984289 0.8976058
vn -0.3936111 0.1984289 0.8976059
vn 0.07781611 0.228026 0.9705405
vn 0.0778161 0.228026 0.9705405
vn 0.07781611 0.228026 0.9705405
vn 0.0778161 0.228026 0.9705405
vn -0.1024647 0.1826742 0.9778196
vn -0.1024647 0.1826742 0.9778196
vn -0.1024647 0.1826742 0.9778196
vn -0.1024647 0.1826742 0.9778196
vn 0.5789388 0.7593476 0.2970203
vn 0.5789389 0.7593476 0.2970203
vn 0.5789388 0.7593476 0.2970203
vn 0.5789389 0.7593476 0.2970203
vn 0.5298489 0.8155094 -0.2328185
vn 0.529849 0.8155095 -0.2328185
vn 0.5298489 0.8155094 -0.2328185
vn 0.5298489 0.8155094 -0.2328184
vn 0.2683351 0.8000088 -0.5366396
vn 0.2683351 0.8000088 -0.5366396
vn 0.2683351 0.8000088 -0.5366396
vn 0.2683351 0.8000088 -0.5366396
vn 0.4035159 0.7173886 -0.5679159
vn 0.4035159 0.7173886 -0.5679159
vn 0.4035159 0.7173886 -0.5679159
vn 0.4035159 0.7173886 -0.5679159
vn -0.4364317 0.7369137 -0.5162224
vn -0.4364318 0.7369138 -0.5162224
vn -0.4364318 0.7369137 -0.5162224
vn -0.4364317 0.7369137 -0.5162224
vn -0.5545769 0.7433453 -0.3740084
vn -0.5545769 0.7433452 -0.3740084
vn -0.5545769 0.7433452 -0.3740084
vn -0.5545769 0.7433452 -0.3740084
vn -0.6467478 0.7453932 -0.1615748
vn -0.6467478 0.7453932 -0.1615747
vn -0.6467478 0.7453932 -0.1615747
vn -0.6467478 0.7453932 -0.1615747
vn -0.1685177 0.7695671 0.6159288
vn -0.1685177 0.7695671 0.6159288
vn -0.1685177 0.7695671 0.6159288
vn -0.1685177 0.7695671 0.6159288
vn 0.2149067 0.7543411 0.6203101
vn 0.2149067 0.7543412 0.6203099
vn 0.2149067 0.7543412 0.62031
vn 0.2149067 0.7543411 0.6203101
vn -0.2316024 0.7009273 0.6745822
vn -0.2316023 0.7009273 0.6745822
vn -0.2316024 0.7009273 0.6745822
vn -0.2316024 0.7009273 0.6745822
vn 0.3486115 0.9246312 0.1533858
vn 0.3486115 0.9246312 0.1533858
vn 0.3486115 0.9246312 0.1533858
vn 0.3719953 0.8614863 -0.3456312
vn 0.3719954 0.8614863 -0.3456312
vn 0.3719953 0.8614863 -0.3456312
vn 0.3373139 0.8511826 -0.4021287
vn 0.3373139 0.8511826 -0.4021287
vn 0.3373139 0.8511826 -0.4021287
vn 0.2695092 0.8527791 -0.4473619
vn 0.2695092 0.852779 -0.447362
vn 0.2695092 0.852779 -0.447362
vn -0.2443457 0.878094 -0.4113953
vn -0.2443457 0.878094 -0.4113953
vn -0.2443457 0.878094 -0.4113953
vn -0.3841274 0.8773613 -0.2875469
vn -0.3841274 0.8773613 -0.287547
vn -0.3841274 0.8773613 -0.287547
vn -0.4158152 0.8975055 -0.146907
vn -0.4158151 0.8975055 -0.146907
vn -0.4158151 0.8975055 -0.146907
vn -0.04576625 0.9094533 0.4132797
vn -0.04576623 0.9094532 0.4132798
vn -0.04576624 0.9094532 0.4132799
vn 0.3159326 0.7776464 0.5435556
vn 0.3159325 0.7776464 0.5435556
vn 0.3159325 0.7776464 0.5435555
vn -0.3421361 0.749429 0.5668325
vn -0.3421362 0.749429 0.5668324
vn -0.3421362 0.7494289 0.5668324

vt 0.5483398 0.007648468
vt 0.5 0.1500244
vt 0.6264648 0.06439209
vt 0.4516602 0.007648468
vt 0.3735352 0.06439209
vt 0.34375 0.15625
vt 0.3735352 0.2480469
vt 0.4516602 0.3049316
vt 0.5483398 0.3049316
vt 0.6264648 0.2480469
vt 0.65625 0.15625
vt 0 0
vt 0 1
vt 1 1
vt 1 0
vt 0 0
vt 0 1
vt 1 1
vt 1 0
vt 0 0
vt 0 1
vt 1 1
vt 1 0
vt 0 0
vt 0 1
vt 1 1
vt 1 0
vt 0 0
vt 0 1
vt 1 1
vt 1 0
vt 0 0
vt 0 1
vt 1 1
vt 1 0
vt 0 0
vt 0 1
vt 1 1
vt 1 0
vt 0 0
vt 0 1
vt 1 1
vt 1 0
vt 0 0
vt 0 1
vt 1 1
vt 1 0
vt 0 0
vt 0 1
vt 1 1
vt 1 0
vt 0 0
vt 0 1
vt 1 1
vt 1 0
vt 0 0
vt 0 1
vt 1 1
vt 1 0
vt 0 0
vt 0 1
vt 1 1
vt 1 0
vt 0 0
vt 0 1
vt 1 1
vt 1 0
vt 0 0
vt 0 1
vt 1 1
vt 1 0
vt 0 0
vt 0 1
vt 1 1
vt 1 0
vt 0 0
vt 0 1
vt 1 1
vt 1 0
vt 0 0
vt 0 1
vt 1 1
vt 1 0
vt 0 0
vt 0 1
vt 1 1
vt 1 0
vt 0 0
vt 0 1
vt 1 1
vt 1 0
vt 0 0
vt 0 1
vt 1 1
vt 1 0
vt 0 0
vt 0 1
vt 1 1
vt 1 0
vt 0 0
vt 0 1
vt 1 1
vt 1 0
vt 0 0
vt 0 1
vt 1 1
vt 1 0
vt 0 0
vt 0 1
vt 1 1
vt 1 0
vt 0 0
vt 0 1
vt 1 1
vt 1 0
vt 0 0
vt 0 1
vt 1 1
vt 1 0
vt 0 0
vt 0 1
vt 1 1
vt 1 0
vt 0 0
vt 0 1
vt 1 1
vt 1 0
vt 0 0
vt 0 1
vt 1 1
vt 1 0
vt 0 0
vt 0 1
vt 1 1
vt 1 0
vt 0 0
vt 0 1
vt 1 1
vt 1 0
vt 0 0
vt 0 1
vt 1 1
vt 1 0
vt 0 0
vt 0 1
vt 1 1
vt 1 0
vt 0 0
vt 0 1
vt 1 1
vt 1 0
vt 0 0
vt 0 1
vt 1 1
vt 1 0
vt 0 0
vt 0 1
vt 1 1
vt 1 0
vt 0 0
vt 0 1
vt 1 1
vt 1 0
vt 0 0
vt 0 1
vt 1 1
vt 1 0
vt 0 0
vt 0 1
vt 1 1
vt 1 0
vt 0 0
vt 0.5 1
vt 1 0
vt 0 0
vt 0.5 1
vt 1 0
vt 0 0
vt 0.5 1
vt 1 0
vt 0 0
vt 0.5 1
vt 1 0
vt 0 0
vt 0.5 1
vt 1 0
vt 0 0
vt 0.5 1
vt 1 0
vt 0 0
vt 0.5 1
vt 1 0
vt 0 0
vt 0.5 1
vt 1 0
vt 0 0
vt 0.5 1
vt 1 0
vt 0 0
vt 0.5 1
vt 1 0

g Foliage4_39_3737_76
usemtl Foliage4_39_3737_76
usemap Foliage4_39_3737_76
f 1/1/1 3/3/3 2/2/2
f 4/4/4 1/1/1 2/2/2
f 5/5/5 4/4/4 2/2/2
f 6/6/6 5/5/5 2/2/2
f 7/7/7 6/6/6 2/2/2
f 8/8/8 7/7/7 2/2/2
f 9/9/9 8/8/8 2/2/2
f 10/10/10 9/9/9 2/2/2
f 11/11/11 10/10/10 2/2/2
f 3/3/3 11/11/11 2/2/2
f 12/12/12 14/14/14 13/13/13
f 12/12/12 15/15/15 14/14/14
f 16/16/16 18/18/18 17/17/17
f 16/16/16 19/19/19 18/18/18
f 20/20/20 22/22/22 21/21/21
f 20/20/20 23/23/23 22/22/22
f 24/24/24 26/26/26 25/25/25
f 24/24/24 27/27/27 26/26/26
f 28/28/28 30/30/30 29/29/29
f 28/28/28 31/31/31 30/30/30
f 32/32/32 34/34/34 33/33/33
f 32/32/32 35/35/35 34/34/34
f 36/36/36 38/38/38 37/37/37
f 36/36/36 39/39/39 38/38/38
f 40/40/40 42/42/42 41/41/41
f 40/40/40 43/43/43 42/42/42
f 44/44/44 46/46/46 45/45/45
f 44/44/44 47/47/47 46/46/46
f 48/48/48 50/50/50 49/49/49
f 48/48/48 51/51/51 50/50/50
f 52/52/52 54/54/54 53/53/53
f 52/52/52 55/55/55 54/54/54
f 56/56/56 58/58/58 57/57/57
f 56/56/56 59/59/59 58/58/58
f 60/60/60 62/62/62 61/61/61
f 60/60/60 63/63/63 62/62/62
f 64/64/64 66/66/66 65/65/65
f 64/64/64 67/67/67 66/66/66
f 68/68/68 70/70/70 69/69/69
f 68/68/68 71/71/71 70/70/70
f 72/72/72 74/74/74 73/73/73
f 72/72/72 75/75/75 74/74/74
f 76/76/76 78/78/78 77/77/77
f 76/76/76 79/79/79 78/78/78
f 80/80/80 82/82/82 81/81/81
f 80/80/80 83/83/83 82/82/82
f 84/84/84 86/86/86 85/85/85
f 84/84/84 87/87/87 86/86/86
f 88/88/88 90/90/90 89/89/89
f 88/88/88 91/91/91 90/90/90
f 92/92/92 94/94/94 93/93/93
f 92/92/92 95/95/95 94/94/94
f 96/96/96 98/98/98 97/97/97
f 96/96/96 99/99/99 98/98/98
f 100/100/100 102/102/102 101/101/101
f 100/100/100 103/103/103 102/102/102
f 104/104/104 106/106/106 105/105/105
f 104/104/104 107/107/107 106/106/106
f 108/108/108 110/110/110 109/109/109
f 108/108/108 111/111/111 110/110/110
f 112/112/112 114/114/114 113/113/113
f 112/112/112 115/115/115 114/114/114
f 116/116/116 118/118/118 117/117/117
f 116/116/116 119/119/119 118/118/118
f 120/120/120 122/122/122 121/121/121
f 120/120/120 123/123/123 122/122/122
f 124/124/124 126/126/126 125/125/125
f 124/124/124 127/127/127 126/126/126
f 128/128/128 130/130/130 129/129/129
f 128/128/128 131/131/131 130/130/130
f 132/132/132 134/134/134 133/133/133
f 132/132/132 135/135/135 134/134/134
f 136/136/136 138/138/138 137/137/137
f 136/136/136 139/139/139 138/138/138
f 140/140/140 142/142/142 141/141/141
f 140/140/140 143/143/143 142/142/142
f 144/144/144 146/146/146 145/145/145
f 144/144/144 147/147/147 146/146/146
f 148/148/148 150/150/150 149/149/149
f 148/148/148 151/151/151 150/150/150
f 152/152/152 154/154/154 153/153/153
f 152/152/152 155/155/155 154/154/154
f 156/156/156 158/158/158 157/157/157
f 156/156/156 159/159/159 158/158/158
f 160/160/160 162/162/162 161/161/161
f 160/160/160 163/163/163 162/162/162
f 164/164/164 166/166/166 165/165/165
f 164/164/164 167/167/167 166/166/166
f 168/168/168 170/170/170 169/169/169
f 168/168/168 171/171/171 170/170/170
f 172/172/172 174/174/174 173/173/173
f 175/175/175 177/177/177 176/176/176
f 178/178/178 180/180/180 179/179/179
f 181/181/181 183/183/183 182/182/182
f 184/184/184 186/186/186 185/185/185
f 187/187/187 189/189/189 188/188/188
f 190/190/190 192/192/192 191/191/191
f 193/193/193 195/195/195 194/194/194
f 196/196/196 198/198/198 197/197/197
f 199/199/199 201/201/201 200/200/200
