#Foliage1_37_3968_276.obj

v 0.01454547 -0.0257757 -0.04036007
v 0.004623951 -0.03397612 0.00108963
v 0.03878458 -0.0257757 -0.02105678
v -0.009663197 -0.0257757 -0.03817723
v -0.01825069 -0.0257757 -0.01778205
v -0.03822193 -0.02223223 0.001089537
v -0.02135068 -0.0257757 0.01996143
v -0.005297486 -0.0257757 0.03271618
v 0.02109413 -0.0257757 0.0403564
v 0.03059856 -0.0257757 0.01996156
v 0.03218956 -0.02223223 0.00108988
v 0.03878458 -0.0257757 -0.02105678
v 0.04796701 -0.01489243 -0.02772799
v 0.01805288 -0.01489243 -0.05115465
v 0.01454547 -0.0257757 -0.04036007
v 0.01454547 -0.0257757 -0.04036007
v 0.01805288 -0.01489243 -0.05115465
v -0.0131708 -0.01489243 -0.04897156
v -0.009663197 -0.0257757 -0.03817723
v -0.009663197 -0.0257757 -0.03817723
v -0.0131708 -0.01489243 -0.04897156
v -0.02743322 -0.01489243 -0.02445344
v -0.01825069 -0.0257757 -0.01778205
v -0.01825069 -0.0257757 -0.01778205
v -0.02743322 -0.01489243 -0.02445344
v -0.04796688 -0.01288821 0.001089763
v -0.03822193 -0.02223223 0.001089537
v -0.03822193 -0.02223223 0.001089537
v -0.04796688 -0.01288821 0.001089763
v -0.03053311 -0.01489243 0.02663265
v -0.02135068 -0.0257757 0.01996143
v -0.02135068 -0.0257757 0.01996143
v -0.03053311 -0.01489243 0.02663265
v -0.008804892 -0.01489243 0.04351076
v -0.005297486 -0.0257757 0.03271618
v -0.005297486 -0.0257757 0.03271618
v -0.008804892 -0.01489243 0.04351076
v 0.02460135 -0.01489243 0.05115101
v 0.02109413 -0.0257757 0.0403564
v 0.02109413 -0.0257757 0.0403564
v 0.02460135 -0.01489243 0.05115101
v 0.0397811 -0.01489243 0.02663293
v 0.03059856 -0.0257757 0.01996156
v 0.03059856 -0.0257757 0.01996156
v 0.0397811 -0.01489243 0.02663293
v 0.0419343 -0.01288821 0.001089546
v 0.03218956 -0.02223223 0.00108988
v 0.03218956 -0.02223223 0.00108988
v 0.0419343 -0.01288821 0.001089546
v 0.04796701 -0.01489243 -0.02772799
v 0.03878458 -0.0257757 -0.02105678
v 0.04796701 -0.01489243 -0.02772799
v 0.04796701 -0.0001483099 -0.02772799
v 0.01805288 -0.0001483099 -0.05115465
v 0.01805288 -0.01489243 -0.05115465
v 0.01805288 -0.01489243 -0.05115465
v 0.01805288 -0.0001483099 -0.05115465
v -0.0131708 -0.0001483099 -0.04897156
v -0.0131708 -0.01489243 -0.04897156
v -0.0131708 -0.01489243 -0.04897156
v -0.0131708 -0.0001483099 -0.04897156
v -0.02743322 -0.0001483099 -0.02445344
v -0.02743322 -0.01489243 -0.02445344
v -0.02743322 -0.01489243 -0.02445344
v -0.02743322 -0.0001483099 -0.02445344
v -0.04796688 -0.0002294067 0.001089763
v -0.04796688 -0.01288821 0.001089763
v -0.04796688 -0.01288821 0.001089763
v -0.04796688 -0.0002294067 0.001089763
v -0.03053311 -0.0001483099 0.02663265
v -0.03053311 -0.01489243 0.02663265
v -0.03053311 -0.01489243 0.02663265
v -0.03053311 -0.0001483099 0.02663265
v -0.008804892 -0.0001483099 0.04351076
v -0.008804892 -0.01489243 0.04351076
v -0.008804892 -0.01489243 0.04351076
v -0.008804892 -0.0001483099 0.04351076
v 0.02460135 -0.0001483099 0.05115101
v 0.02460135 -0.01489243 0.05115101
v 0.02460135 -0.01489243 0.05115101
v 0.02460135 -0.0001483099 0.05115101
v 0.0397811 -0.0001483099 0.02663293
v 0.0397811 -0.01489243 0.02663293
v 0.0397811 -0.01489243 0.02663293
v 0.0397811 -0.0001483099 0.02663293
v 0.0419343 -0.0002294067 0.001089546
v 0.0419343 -0.01288821 0.001089546
v 0.0419343 -0.01288821 0.001089546
v 0.0419343 -0.0002294067 0.001089546
v 0.04796701 -0.0001483099 -0.02772799
v 0.04796701 -0.01489243 -0.02772799
v 0.04796701 -0.0001483099 -0.02772799
v 0.045689 0.01428338 -0.02539863
v 0.01714512 0.01428338 -0.0479929
v 0.01805288 -0.0001483099 -0.05115465
v 0.01805288 -0.0001483099 -0.05115465
v 0.01714512 0.01428338 -0.0479929
v -0.01182894 0.01428338 -0.04559958
v -0.0131708 -0.0001483099 -0.04897156
v -0.0131708 -0.0001483099 -0.04897156
v -0.01182894 0.01428338 -0.04559958
v -0.02321021 0.01428338 -0.02180834
v -0.02743322 -0.0001483099 -0.02445344
v -0.02743322 -0.0001483099 -0.02445344
v -0.02321021 0.01428338 -0.02180834
v -0.04530418 0.01197212 0.00119508
v -0.04796688 -0.0002294067 0.001089763
v -0.04796688 -0.0002294067 0.001089763
v -0.04530418 0.01197212 0.00119508
v -0.02660948 0.01428338 0.02419798
v -0.03053311 -0.0001483099 0.02663265
v -0.03053311 -0.0001483099 0.02663265
v -0.02660948 0.01428338 0.02419798
v -0.007041703 0.01428338 0.03961174
v -0.008804892 -0.0001483099 0.04351076
v -0.008804892 -0.0001483099 0.04351076
v -0.007041703 0.01428338 0.03961174
v 0.02432599 0.01428338 0.04798936
v 0.02460135 -0.0001483099 0.05115101
v 0.02460135 -0.0001483099 0.05115101
v 0.02432599 0.01428338 0.04798936
v 0.03671293 0.01428338 0.02419831
v 0.0397811 -0.0001483099 0.02663293
v 0.0397811 -0.0001483099 0.02663293
v 0.03671293 0.01428338 0.02419831
v 0.03865216 0.01197212 0.001194818
v 0.0419343 -0.0002294067 0.001089546
v 0.0419343 -0.0002294067 0.001089546
v 0.03865216 0.01197212 0.001194818
v 0.045689 0.01428338 -0.02539863
v 0.04796701 -0.0001483099 -0.02772799
v 0.045689 0.01428338 -0.02539863
v 0.03225249 0.02437435 -0.01614937
v 0.01203646 0.02437435 -0.03257056
v 0.01714512 0.01428338 -0.0479929
v 0.01714512 0.01428338 -0.0479929
v 0.01203646 0.02437435 -0.03257056
v -0.00259215 0.02437435 -0.02139556
v -0.01182894 0.01428338 -0.04559958
v -0.01182894 0.01428338 -0.04559958
v -0.00259215 0.02437435 -0.02139556
v -0.01125306 0.02437435 -0.01279719
v -0.02321021 0.01428338 -0.02180834
v -0.02321021 0.01428338 -0.02180834
v -0.01125306 0.02437435 -0.01279719
v -0.03124457 0.02074642 0.001115517
v -0.04530418 0.01197212 0.00119508
v -0.04530418 0.01197212 0.00119508
v -0.03124457 0.02074642 0.001115517
v -0.01442715 0.02437435 0.01502856
v -0.02660948 0.01428338 0.02419798
v -0.02660948 0.01428338 0.02419798
v -0.01442715 0.02437435 0.01502856
v -0.002592285 0.02437435 0.02474442
v -0.007041703 0.01428338 0.03961174
v -0.007041703 0.01428338 0.03961174
v -0.002592285 0.02437435 0.02474442
v 0.01874137 0.02437435 0.03256666
v 0.02432599 0.01428338 0.04798936
v 0.02432599 0.01428338 0.04798936
v 0.01874137 0.02437435 0.03256666
v 0.0238714 0.02437435 0.01502854
v 0.03671293 0.01428338 0.02419831
v 0.03671293 0.01428338 0.02419831
v 0.0238714 0.02437435 0.01502854
v 0.02504416 0.02074642 0.001115817
v 0.03865216 0.01197212 0.001194818
v 0.03865216 0.01197212 0.001194818
v 0.02504416 0.02074642 0.001115817
v 0.03225249 0.02437435 -0.01614937
v 0.045689 0.01428338 -0.02539863
v 0.03225249 0.02437435 -0.01614937
v 0.004623951 0.03397609 0.00108963
v 0.01203646 0.02437435 -0.03257056
v 0.01203646 0.02437435 -0.03257056
v 0.004623951 0.03397609 0.00108963
v -0.00259215 0.02437435 -0.02139556
v -0.00259215 0.02437435 -0.02139556
v 0.004623951 0.03397609 0.00108963
v -0.01125306 0.02437435 -0.01279719
v -0.01125306 0.02437435 -0.01279719
v 0.004623951 0.03397609 0.00108963
v -0.03124457 0.02074642 0.001115517
v -0.03124457 0.02074642 0.001115517
v 0.004623951 0.03397609 0.00108963
v -0.01442715 0.02437435 0.01502856
v -0.01442715 0.02437435 0.01502856
v 0.004623951 0.03397609 0.00108963
v -0.002592285 0.02437435 0.02474442
v -0.002592285 0.02437435 0.02474442
v 0.004623951 0.03397609 0.00108963
v 0.01874137 0.02437435 0.03256666
v 0.01874137 0.02437435 0.03256666
v 0.004623951 0.03397609 0.00108963
v 0.0238714 0.02437435 0.01502854
v 0.0238714 0.02437435 0.01502854
v 0.004623951 0.03397609 0.00108963
v 0.02504416 0.02074642 0.001115817
v 0.02504416 0.02074642 0.001115817
v 0.004623951 0.03397609 0.00108963
v 0.03225249 0.02437435 -0.01614937

vn -0.04034299 -0.9736533 -0.2244363
vn 0.001913853 -0.9999977 -0.0008657851
vn 0.1931992 -0.9680727 -0.159717
vn -0.2002353 -0.968922 -0.1452442
vn -0.3519055 -0.9358213 0.0200262
vn -0.3084424 -0.9445535 0.1126143
vn -0.1896035 -0.9542201 0.2313321
vn 0.01925501 -0.9577944 0.2868086
vn 0.1753411 -0.9706364 0.1646827
vn 0.3340055 -0.9357486 -0.1132024
vn 0.4842771 -0.8707091 -0.08568167
vn 0.151071 -0.6390145 -0.7542135
vn 0.151071 -0.6390145 -0.7542135
vn 0.1510711 -0.6390146 -0.7542135
vn 0.151071 -0.6390145 -0.7542135
vn -0.4361889 -0.6183766 -0.65372
vn -0.4361888 -0.6183766 -0.6537198
vn -0.4361889 -0.6183766 -0.65372
vn -0.4361889 -0.6183766 -0.6537199
vn -0.8270625 -0.5615292 -0.02554725
vn -0.8270625 -0.5615291 -0.02554722
vn -0.8270625 -0.5615292 -0.02554725
vn -0.8270625 -0.5615291 -0.02554722
vn -0.7954332 -0.5848528 -0.1588497
vn -0.7954333 -0.5848526 -0.1588496
vn -0.7954333 -0.5848527 -0.1588497
vn -0.7954333 -0.5848527 -0.1588496
vn -0.42071 -0.6274204 0.6552455
vn -0.42071 -0.6274204 0.6552455
vn -0.4207101 -0.6274204 0.6552455
vn -0.4207101 -0.6274204 0.6552455
vn -0.148642 -0.6390398 0.7546744
vn -0.148642 -0.6390398 0.7546746
vn -0.148642 -0.6390399 0.7546745
vn -0.148642 -0.6390399 0.7546745
vn 0.1966612 -0.6189284 0.7604288
vn 0.1966611 -0.6189286 0.7604288
vn 0.1966612 -0.6189284 0.7604287
vn 0.1966612 -0.6189284 0.7604288
vn 0.8222051 -0.5670269 0.04959086
vn 0.8222051 -0.5670269 0.0495909
vn 0.8222051 -0.5670269 0.0495909
vn 0.8222051 -0.5670269 0.04959084
vn 0.7255268 -0.5936156 -0.3481829
vn 0.7255268 -0.5936156 -0.3481829
vn 0.7255268 -0.5936156 -0.3481829
vn 0.7255268 -0.5936156 -0.3481829
vn 0.8510485 -0.5175389 -0.08871251
vn 0.8510486 -0.5175388 -0.08871253
vn 0.8510485 -0.5175389 -0.08871251
vn 0.8510485 -0.5175388 -0.08871253
vn 0.1924559 -2.152435E-17 -0.9813057
vn 0.1924559 -2.152435E-17 -0.9813057
vn 0.1924559 -2.152435E-17 -0.9813057
vn 0.1924559 -2.152435E-17 -0.9813057
vn -0.5477654 3.016943E-17 -0.836632
vn -0.5477654 3.016943E-17 -0.836632
vn -0.5477654 3.016943E-17 -0.836632
vn -0.5477654 3.016943E-17 -0.836632
vn -0.9965923 6.722241E-17 -0.08248543
vn -0.9965923 6.722241E-17 -0.08248543
vn -0.9965923 6.722241E-17 -0.08248543
vn -0.9965923 6.722241E-17 -0.08248543
vn -0.975935 6.465298E-17 -0.2180615
vn -0.975935 6.465298E-17 -0.2180615
vn -0.975935 6.465298E-17 -0.2180615
vn -0.975935 6.465298E-17 -0.2180615
vn -0.5060543 4.188189E-17 0.8625017
vn -0.5060543 4.188189E-17 0.8625017
vn -0.5060542 4.188188E-17 0.8625017
vn -0.5060543 4.188189E-17 0.8625017
vn -0.1881978 2.124118E-17 0.9821311
vn -0.1881978 2.124118E-17 0.9821311
vn -0.1881978 2.124118E-17 0.9821311
vn -0.1881978 2.124118E-17 0.9821311
vn 0.2760019 -1.057894E-17 0.961157
vn 0.2760019 -1.057894E-17 0.961157
vn 0.2760019 -1.057894E-17 0.961157
vn 0.2760019 -1.057894E-17 0.961157
vn 0.9941975 -6.684429E-17 0.1075705
vn 0.9941975 -6.684429E-17 0.1075705
vn 0.9941975 -6.684429E-17 0.1075705
vn 0.9941975 -6.684429E-17 0.1075705
vn 0.9447232 -6.720222E-17 -0.3278691
vn 0.9447232 -6.720222E-17 -0.3278691
vn 0.9447232 -6.720222E-17 -0.3278691
vn 0.9447232 -6.720222E-17 -0.3278691
vn 0.9766803 -6.841099E-17 -0.2146992
vn 0.9766802 -6.8411E-17 -0.2146993
vn 0.9766803 -6.841099E-17 -0.2146992
vn 0.9766803 -6.841099E-17 -0.2146992
vn 0.1920292 0.1795527 -0.9648241
vn 0.1920292 0.1795527 -0.9648242
vn 0.1920292 0.1795527 -0.9648242
vn 0.1920292 0.1795527 -0.9648242
vn -0.5439941 0.1776991 -0.820057
vn -0.5439941 0.1776991 -0.820057
vn -0.5439941 0.1776991 -0.820057
vn -0.5439941 0.1776991 -0.820057
vn -0.9784104 0.201511 -0.04589676
vn -0.9784104 0.2015109 -0.04589672
vn -0.9784104 0.201511 -0.04589679
vn -0.9784104 0.2015109 -0.04589676
vn -0.9497805 0.1970845 -0.2430529
vn -0.9497805 0.1970845 -0.243053
vn -0.9497805 0.1970844 -0.2430529
vn -0.9497805 0.1970845 -0.2430529
vn -0.4665476 0.2054961 0.8602934
vn -0.4665476 0.2054961 0.8602934
vn -0.4665476 0.2054961 0.8602934
vn -0.4665476 0.2054961 0.8602934
vn -0.1860946 0.239442 0.9529094
vn -0.1860946 0.239442 0.9529094
vn -0.1860946 0.239442 0.9529094
vn -0.1860946 0.239442 0.9529094
vn 0.253005 0.2005746 0.9464451
vn 0.2530051 0.2005746 0.9464451
vn 0.253005 0.2005746 0.9464451
vn 0.253005 0.2005746 0.9464451
vn 0.9860448 0.1491126 0.07403476
vn 0.9860448 0.1491126 0.07403476
vn 0.9860448 0.1491126 0.07403482
vn 0.9860448 0.1491126 0.07403476
vn 0.9238108 0.1893568 -0.3327423
vn 0.9238109 0.1893568 -0.3327423
vn 0.9238108 0.1893568 -0.3327423
vn 0.9238109 0.1893568 -0.3327423
vn 0.9732662 0.1397518 -0.1822699
vn 0.9732662 0.1397518 -0.1822699
vn 0.9732662 0.1397518 -0.1822699
vn 0.9732662 0.1397518 -0.1822699
vn 0.1253274 0.788368 -0.602303
vn 0.1253274 0.788368 -0.602303
vn 0.1253274 0.788368 -0.602303
vn 0.1253274 0.788368 -0.602303
vn -0.3977589 0.8338702 -0.3826857
vn -0.3977589 0.8338702 -0.3826857
vn -0.3977589 0.8338702 -0.3826857
vn -0.3977589 0.8338702 -0.3826857
vn -0.5926887 0.8028855 -0.06399201
vn -0.5926887 0.8028855 -0.06399205
vn -0.5926887 0.8028855 -0.06399201
vn -0.5926887 0.8028855 -0.06399205
vn -0.6736553 0.7193541 -0.1694647
vn -0.6736553 0.7193541 -0.1694647
vn -0.6736553 0.7193541 -0.1694647
vn -0.6736553 0.7193541 -0.1694647
vn -0.3250711 0.7652409 0.5556393
vn -0.3250711 0.765241 0.5556393
vn -0.3250711 0.7652409 0.5556394
vn -0.3250711 0.7652409 0.5556393
vn -0.1297328 0.7711464 0.6232998
vn -0.1297329 0.7711464 0.6232998
vn -0.1297328 0.7711464 0.6232999
vn -0.1297329 0.7711464 0.6232998
vn 0.1307952 0.759429 0.6373069
vn 0.1307952 0.759429 0.6373069
vn 0.1307952 0.759429 0.6373069
vn 0.1307952 0.759429 0.6373069
vn 0.7016068 0.7121737 -0.02359056
vn 0.7016068 0.7121737 -0.02359059
vn 0.7016068 0.7121737 -0.02359056
vn 0.7016068 0.7121737 -0.02359059
vn 0.5839689 0.7298822 -0.3553197
vn 0.5839688 0.7298824 -0.3553196
vn 0.5839688 0.7298824 -0.3553197
vn 0.5839689 0.7298822 -0.3553197
vn 0.770431 0.6374227 0.0113313
vn 0.770431 0.6374227 0.01133128
vn 0.770431 0.6374227 0.0113313
vn 0.770431 0.6374227 0.0113313
vn 0.07374588 0.9373056 -0.3406166
vn 0.07374585 0.9373056 -0.3406166
vn 0.07374588 0.9373056 -0.3406166
vn -0.444398 0.8710822 -0.2091077
vn -0.444398 0.8710822 -0.2091077
vn -0.444398 0.8710822 -0.2091077
vn -0.4867017 0.8583767 -0.1622063
vn -0.4867017 0.8583767 -0.1622063
vn -0.4867017 0.8583767 -0.1622063
vn -0.5051422 0.8582598 -0.09067323
vn -0.5051422 0.8582597 -0.09067322
vn -0.5051422 0.8582597 -0.09067322
vn -0.278743 0.8950697 0.3480697
vn -0.2787429 0.8950697 0.3480697
vn -0.278743 0.8950697 0.3480697
vn -0.0972731 0.8941036 0.437169
vn -0.09727311 0.8941036 0.437169
vn -0.09727311 0.8941036 0.437169
vn 0.061883 0.9048443 0.421221
vn 0.06188297 0.9048445 0.421221
vn 0.06188299 0.9048445 0.421221
vn 0.4786182 0.8753408 -0.06857862
vn 0.4786183 0.8753408 -0.06857866
vn 0.4786183 0.8753408 -0.06857865
vn 0.4766444 0.7689382 -0.42608
vn 0.4766444 0.7689383 -0.42608
vn 0.4766443 0.7689384 -0.4260799
vn 0.7134044 0.6879728 0.1332201
vn 0.7134044 0.6879728 0.1332202
vn 0.7134044 0.6879728 0.1332202

vt 0.5482839 0.007647395
vt 0.5 0.15
vt 0.6264089 0.06440853
vt 0.4517161 0.00764741
vt 0.3735911 0.06440856
vt 0.34375 0.15625
vt 0.3735911 0.2480915
vt 0.4517161 0.3048526
vt 0.5482839 0.3048526
vt 0.6264089 0.2480914
vt 0.65625 0.15625
vt 0 0
vt 0 1
vt 1 1
vt 1 0
vt 0 0
vt 0 1
vt 1 1
vt 1 0
vt 0 0
vt 0 1
vt 1 1
vt 1 0
vt 0 0
vt 0 1
vt 1 1
vt 1 0
vt 0 0
vt 0 1
vt 1 1
vt 1 0
vt 0 0
vt 0 1
vt 1 1
vt 1 0
vt 0 0
vt 0 1
vt 1 1
vt 1 0
vt 0 0
vt 0 1
vt 1 1
vt 1 0
vt 0 0
vt 0 1
vt 1 1
vt 1 0
vt 0 0
vt 0 1
vt 1 1
vt 1 0
vt 0 0
vt 0 1
vt 1 1
vt 1 0
vt 0 0
vt 0 1
vt 1 1
vt 1 0
vt 0 0
vt 0 1
vt 1 1
vt 1 0
vt 0 0
vt 0 1
vt 1 1
vt 1 0
vt 0 0
vt 0 1
vt 1 1
vt 1 0
vt 0 0
vt 0 1
vt 1 1
vt 1 0
vt 0 0
vt 0 1
vt 1 1
vt 1 0
vt 0 0
vt 0 1
vt 1 1
vt 1 0
vt 0 0
vt 0 1
vt 1 1
vt 1 0
vt 0 0
vt 0 1
vt 1 1
vt 1 0
vt 0 0
vt 0 1
vt 1 1
vt 1 0
vt 0 0
vt 0 1
vt 1 1
vt 1 0
vt 0 0
vt 0 1
vt 1 1
vt 1 0
vt 0 0
vt 0 1
vt 1 1
vt 1 0
vt 0 0
vt 0 1
vt 1 1
vt 1 0
vt 0 0
vt 0 1
vt 1 1
vt 1 0
vt 0 0
vt 0 1
vt 1 1
vt 1 0
vt 0 0
vt 0 1
vt 1 1
vt 1 0
vt 0 0
vt 0 1
vt 1 1
vt 1 0
vt 0 0
vt 0 1
vt 1 1
vt 1 0
vt 0 0
vt 0 1
vt 1 1
vt 1 0
vt 0 0
vt 0 1
vt 1 1
vt 1 0
vt 0 0
vt 0 1
vt 1 1
vt 1 0
vt 0 0
vt 0 1
vt 1 1
vt 1 0
vt 0 0
vt 0 1
vt 1 1
vt 1 0
vt 0 0
vt 0 1
vt 1 1
vt 1 0
vt 0 0
vt 0 1
vt 1 1
vt 1 0
vt 0 0
vt 0 1
vt 1 1
vt 1 0
vt 0 0
vt 0 1
vt 1 1
vt 1 0
vt 0 0
vt 0 1
vt 1 1
vt 1 0
vt 0 0
vt 0.5 1
vt 1 0
vt 0 0
vt 0.5 1
vt 1 0
vt 0 0
vt 0.5 1
vt 1 0
vt 0 0
vt 0.5 1
vt 1 0
vt 0 0
vt 0.5 1
vt 1 0
vt 0 0
vt 0.5 1
vt 1 0
vt 0 0
vt 0.5 1
vt 1 0
vt 0 0
vt 0.5 1
vt 1 0
vt 0 0
vt 0.5 1
vt 1 0
vt 0 0
vt 0.5 1
vt 1 0

g Foliage1_37_3968_276
usemtl Foliage1_37_3968_276
usemap Foliage1_37_3968_276
f 1/1/1 3/3/3 2/2/2
f 4/4/4 1/1/1 2/2/2
f 5/5/5 4/4/4 2/2/2
f 6/6/6 5/5/5 2/2/2
f 7/7/7 6/6/6 2/2/2
f 8/8/8 7/7/7 2/2/2
f 9/9/9 8/8/8 2/2/2
f 10/10/10 9/9/9 2/2/2
f 11/11/11 10/10/10 2/2/2
f 3/3/3 11/11/11 2/2/2
f 12/12/12 14/14/14 13/13/13
f 12/12/12 15/15/15 14/14/14
f 16/16/16 18/18/18 17/17/17
f 16/16/16 19/19/19 18/18/18
f 20/20/20 22/22/22 21/21/21
f 20/20/20 23/23/23 22/22/22
f 24/24/24 26/26/26 25/25/25
f 24/24/24 27/27/27 26/26/26
f 28/28/28 30/30/30 29/29/29
f 28/28/28 31/31/31 30/30/30
f 32/32/32 34/34/34 33/33/33
f 32/32/32 35/35/35 34/34/34
f 36/36/36 38/38/38 37/37/37
f 36/36/36 39/39/39 38/38/38
f 40/40/40 42/42/42 41/41/41
f 40/40/40 43/43/43 42/42/42
f 44/44/44 46/46/46 45/45/45
f 44/44/44 47/47/47 46/46/46
f 48/48/48 50/50/50 49/49/49
f 48/48/48 51/51/51 50/50/50
f 52/52/52 54/54/54 53/53/53
f 52/52/52 55/55/55 54/54/54
f 56/56/56 58/58/58 57/57/57
f 56/56/56 59/59/59 58/58/58
f 60/60/60 62/62/62 61/61/61
f 60/60/60 63/63/63 62/62/62
f 64/64/64 66/66/66 65/65/65
f 64/64/64 67/67/67 66/66/66
f 68/68/68 70/70/70 69/69/69
f 68/68/68 71/71/71 70/70/70
f 72/72/72 74/74/74 73/73/73
f 72/72/72 75/75/75 74/74/74
f 76/76/76 78/78/78 77/77/77
f 76/76/76 79/79/79 78/78/78
f 80/80/80 82/82/82 81/81/81
f 80/80/80 83/83/83 82/82/82
f 84/84/84 86/86/86 85/85/85
f 84/84/84 87/87/87 86/86/86
f 88/88/88 90/90/90 89/89/89
f 88/88/88 91/91/91 90/90/90
f 92/92/92 94/94/94 93/93/93
f 92/92/92 95/95/95 94/94/94
f 96/96/96 98/98/98 97/97/97
f 96/96/96 99/99/99 98/98/98
f 100/100/100 102/102/102 101/101/101
f 100/100/100 103/103/103 102/102/102
f 104/104/104 106/106/106 105/105/105
f 104/104/104 107/107/107 106/106/106
f 108/108/108 110/110/110 109/109/109
f 108/108/108 111/111/111 110/110/110
f 112/112/112 114/114/114 113/113/113
f 112/112/112 115/115/115 114/114/114
f 116/116/116 118/118/118 117/117/117
f 116/116/116 119/119/119 118/118/118
f 120/120/120 122/122/122 121/121/121
f 120/120/120 123/123/123 122/122/122
f 124/124/124 126/126/126 125/125/125
f 124/124/124 127/127/127 126/126/126
f 128/128/128 130/130/130 129/129/129
f 128/128/128 131/131/131 130/130/130
f 132/132/132 134/134/134 133/133/133
f 132/132/132 135/135/135 134/134/134
f 136/136/136 138/138/138 137/137/137
f 136/136/136 139/139/139 138/138/138
f 140/140/140 142/142/142 141/141/141
f 140/140/140 143/143/143 142/142/142
f 144/144/144 146/146/146 145/145/145
f 144/144/144 147/147/147 146/146/146
f 148/148/148 150/150/150 149/149/149
f 148/148/148 151/151/151 150/150/150
f 152/152/152 154/154/154 153/153/153
f 152/152/152 155/155/155 154/154/154
f 156/156/156 158/158/158 157/157/157
f 156/156/156 159/159/159 158/158/158
f 160/160/160 162/162/162 161/161/161
f 160/160/160 163/163/163 162/162/162
f 164/164/164 166/166/166 165/165/165
f 164/164/164 167/167/167 166/166/166
f 168/168/168 170/170/170 169/169/169
f 168/168/168 171/171/171 170/170/170
f 172/172/172 174/174/174 173/173/173
f 175/175/175 177/177/177 176/176/176
f 178/178/178 180/180/180 179/179/179
f 181/181/181 183/183/183 182/182/182
f 184/184/184 186/186/186 185/185/185
f 187/187/187 189/189/189 188/188/188
f 190/190/190 192/192/192 191/191/191
f 193/193/193 195/195/195 194/194/194
f 196/196/196 198/198/198 197/197/197
f 199/199/199 201/201/201 200/200/200
