#Foliage3_30_4321_228.obj

v 0.01454667 -0.0257756 -0.04035762
v 0.004625491 -0.03397603 0.001092174
v 0.03878573 -0.02577561 -0.02105404
v -0.009661946 -0.0257756 -0.0381747
v -0.01824931 -0.0257756 -0.01777971
v -0.03822071 -0.02223217 0.001092095
v -0.02134945 -0.0257756 0.01996392
v -0.005296125 -0.0257756 0.03271877
v 0.02109557 -0.02577561 0.04035892
v 0.03059993 -0.0257756 0.01996391
v 0.03219082 -0.02223217 0.001092177
v 0.03878573 -0.02577561 -0.02105404
v 0.0479685 -0.01489234 -0.02772537
v 0.01805416 -0.01489234 -0.05115212
v 0.01454667 -0.0257756 -0.04035762
v 0.01454667 -0.0257756 -0.04035762
v 0.01805416 -0.01489234 -0.05115212
v -0.0131695 -0.01489235 -0.04896917
v -0.009661946 -0.0257756 -0.0381747
v -0.009661946 -0.0257756 -0.0381747
v -0.0131695 -0.01489235 -0.04896917
v -0.02743179 -0.01489234 -0.02445104
v -0.01824931 -0.0257756 -0.01777971
v -0.01824931 -0.0257756 -0.01777971
v -0.02743179 -0.01489234 -0.02445104
v -0.0479653 -0.01288815 0.0010922
v -0.03822071 -0.02223217 0.001092095
v -0.03822071 -0.02223217 0.001092095
v -0.0479653 -0.01288815 0.0010922
v -0.03053194 -0.01489235 0.02663532
v -0.02134945 -0.0257756 0.01996392
v -0.02134945 -0.0257756 0.01996392
v -0.03053194 -0.01489235 0.02663532
v -0.008803333 -0.01489234 0.04351323
v -0.005296125 -0.0257756 0.03271877
v -0.005296125 -0.0257756 0.03271877
v -0.008803333 -0.01489234 0.04351323
v 0.02460298 -0.01489234 0.05115344
v 0.02109557 -0.02577561 0.04035892
v 0.02109557 -0.02577561 0.04035892
v 0.02460298 -0.01489234 0.05115344
v 0.03978226 -0.01489235 0.02663529
v 0.03059993 -0.0257756 0.01996391
v 0.03059993 -0.0257756 0.01996391
v 0.03978226 -0.01489235 0.02663529
v 0.04193565 -0.01288816 0.001092169
v 0.03219082 -0.02223217 0.001092177
v 0.03219082 -0.02223217 0.001092177
v 0.04193565 -0.01288816 0.001092169
v 0.0479685 -0.01489234 -0.02772537
v 0.03878573 -0.02577561 -0.02105404
v 0.0479685 -0.01489234 -0.02772537
v 0.04796832 -0.0001482773 -0.02772546
v 0.01805398 -0.0001482792 -0.0511521
v 0.01805416 -0.01489234 -0.05115212
v 0.01805416 -0.01489234 -0.05115212
v 0.01805398 -0.0001482792 -0.0511521
v -0.01316926 -0.0001482749 -0.04896912
v -0.0131695 -0.01489235 -0.04896917
v -0.0131695 -0.01489235 -0.04896917
v -0.01316926 -0.0001482749 -0.04896912
v -0.02743196 -0.0001482784 -0.02445112
v -0.02743179 -0.01489234 -0.02445104
v -0.02743179 -0.01489234 -0.02445104
v -0.02743196 -0.0001482784 -0.02445112
v -0.04796553 -0.0002293751 0.001092101
v -0.0479653 -0.01288815 0.0010922
v -0.0479653 -0.01288815 0.0010922
v -0.04796553 -0.0002293751 0.001092101
v -0.03053169 -0.0001482735 0.02663536
v -0.03053194 -0.01489235 0.02663532
v -0.03053194 -0.01489235 0.02663532
v -0.03053169 -0.0001482735 0.02663536
v -0.008803515 -0.0001482821 0.04351325
v -0.008803333 -0.01489234 0.04351323
v -0.008803333 -0.01489234 0.04351323
v -0.008803515 -0.0001482821 0.04351325
v 0.0246028 -0.0001482822 0.05115347
v 0.02460298 -0.01489234 0.05115344
v 0.02460298 -0.01489234 0.05115344
v 0.0246028 -0.0001482822 0.05115347
v 0.0397825 -0.0001482746 0.02663533
v 0.03978226 -0.01489235 0.02663529
v 0.03978226 -0.01489235 0.02663529
v 0.0397825 -0.0001482746 0.02663533
v 0.04193585 -0.0002293769 0.001092196
v 0.04193565 -0.01288816 0.001092169
v 0.04193565 -0.01288816 0.001092169
v 0.04193585 -0.0002293769 0.001092196
v 0.04796832 -0.0001482773 -0.02772546
v 0.0479685 -0.01489234 -0.02772537
v 0.04796832 -0.0001482773 -0.02772546
v 0.04569031 0.01428341 -0.02539615
v 0.01714636 0.0142834 -0.04799054
v 0.01805398 -0.0001482792 -0.0511521
v 0.01805398 -0.0001482792 -0.0511521
v 0.01714636 0.0142834 -0.04799054
v -0.01182783 0.0142834 -0.04559701
v -0.01316926 -0.0001482749 -0.04896912
v -0.01316926 -0.0001482749 -0.04896912
v -0.01182783 0.0142834 -0.04559701
v -0.02320901 0.0142834 -0.02180574
v -0.02743196 -0.0001482784 -0.02445112
v -0.02743196 -0.0001482784 -0.02445112
v -0.02320901 0.0142834 -0.02180574
v -0.04530282 0.01197213 0.001197484
v -0.04796553 -0.0002293751 0.001092101
v -0.04796553 -0.0002293751 0.001092101
v -0.04530282 0.01197213 0.001197484
v -0.02660802 0.01428341 0.02420069
v -0.03053169 -0.0001482735 0.02663536
v -0.03053169 -0.0001482735 0.02663536
v -0.02660802 0.01428341 0.02420069
v -0.007040563 0.01428341 0.0396142
v -0.008803515 -0.0001482821 0.04351325
v -0.008803515 -0.0001482821 0.04351325
v -0.007040563 0.01428341 0.0396142
v 0.02432749 0.0142834 0.04799199
v 0.0246028 -0.0001482822 0.05115347
v 0.0246028 -0.0001482822 0.05115347
v 0.02432749 0.0142834 0.04799199
v 0.03671438 0.01428341 0.02420064
v 0.0397825 -0.0001482746 0.02663533
v 0.0397825 -0.0001482746 0.02663533
v 0.03671438 0.01428341 0.02420064
v 0.0386534 0.01197213 0.001197463
v 0.04193585 -0.0002293769 0.001092196
v 0.04193585 -0.0002293769 0.001092196
v 0.0386534 0.01197213 0.001197463
v 0.04569031 0.01428341 -0.02539615
v 0.04796832 -0.0001482773 -0.02772546
v 0.04569031 0.01428341 -0.02539615
v 0.03225385 0.02437444 -0.01614695
v 0.0120377 0.02437444 -0.03256796
v 0.01714636 0.0142834 -0.04799054
v 0.01714636 0.0142834 -0.04799054
v 0.0120377 0.02437444 -0.03256796
v -0.00259065 0.02437445 -0.02139314
v -0.01182783 0.0142834 -0.04559701
v -0.01182783 0.0142834 -0.04559701
v -0.00259065 0.02437445 -0.02139314
v -0.0112517 0.02437444 -0.01279452
v -0.02320901 0.0142834 -0.02180574
v -0.02320901 0.0142834 -0.02180574
v -0.0112517 0.02437444 -0.01279452
v -0.0312431 0.02074653 0.001118164
v -0.04530282 0.01197213 0.001197484
v -0.04530282 0.01197213 0.001197484
v -0.0312431 0.02074653 0.001118164
v -0.01442566 0.02437444 0.01503086
v -0.02660802 0.01428341 0.02420069
v -0.02660802 0.01428341 0.02420069
v -0.01442566 0.02437444 0.01503086
v -0.00259097 0.02437443 0.02474686
v -0.007040563 0.01428341 0.0396142
v -0.007040563 0.01428341 0.0396142
v -0.00259097 0.02437443 0.02474686
v 0.01874269 0.02437443 0.03256927
v 0.02432749 0.0142834 0.04799199
v 0.02432749 0.0142834 0.04799199
v 0.01874269 0.02437443 0.03256927
v 0.02387264 0.02437444 0.01503089
v 0.03671438 0.01428341 0.02420064
v 0.03671438 0.01428341 0.02420064
v 0.02387264 0.02437444 0.01503089
v 0.02504573 0.02074652 0.001118187
v 0.0386534 0.01197213 0.001197463
v 0.0386534 0.01197213 0.001197463
v 0.02504573 0.02074652 0.001118187
v 0.03225385 0.02437444 -0.01614695
v 0.04569031 0.01428341 -0.02539615
v 0.03225385 0.02437444 -0.01614695
v 0.004625356 0.03397611 0.00109216
v 0.0120377 0.02437444 -0.03256796
v 0.0120377 0.02437444 -0.03256796
v 0.004625356 0.03397611 0.00109216
v -0.00259065 0.02437445 -0.02139314
v -0.00259065 0.02437445 -0.02139314
v 0.004625356 0.03397611 0.00109216
v -0.0112517 0.02437444 -0.01279452
v -0.0112517 0.02437444 -0.01279452
v 0.004625356 0.03397611 0.00109216
v -0.0312431 0.02074653 0.001118164
v -0.0312431 0.02074653 0.001118164
v 0.004625356 0.03397611 0.00109216
v -0.01442566 0.02437444 0.01503086
v -0.01442566 0.02437444 0.01503086
v 0.004625356 0.03397611 0.00109216
v -0.00259097 0.02437443 0.02474686
v -0.00259097 0.02437443 0.02474686
v 0.004625356 0.03397611 0.00109216
v 0.01874269 0.02437443 0.03256927
v 0.01874269 0.02437443 0.03256927
v 0.004625356 0.03397611 0.00109216
v 0.02387264 0.02437444 0.01503089
v 0.02387264 0.02437444 0.01503089
v 0.004625356 0.03397611 0.00109216
v 0.02504573 0.02074652 0.001118187
v 0.02504573 0.02074652 0.001118187
v 0.004625356 0.03397611 0.00109216
v 0.03225385 0.02437444 -0.01614695

vn 0.1352423 -0.9905619 0.02226035
vn -0.04771524 -0.9984619 -0.02821303
vn 0.01717168 -0.9858082 0.1669922
vn 0.1233605 -0.9849426 -0.1211165
vn 0.04489041 -0.9551575 -0.292674
vn -0.03990335 -0.9551131 -0.2935402
vn -0.1661594 -0.9541095 -0.2491286
vn -0.270637 -0.95536 -0.118498
vn -0.2243999 -0.9737759 0.03747282
vn -0.05928769 -0.9649045 0.2558189
vn -0.1258263 -0.9218274 0.3666073
vn 0.5422007 -0.7427646 0.392834
vn 0.5422007 -0.7427646 0.392834
vn 0.5422007 -0.7427646 0.392834
vn 0.5422007 -0.7427646 0.392834
vn 0.6713074 -0.7331027 -0.1091142
vn 0.6713074 -0.7331029 -0.1091142
vn 0.6713074 -0.7331027 -0.1091142
vn 0.6713074 -0.7331028 -0.1091142
vn 0.2779397 -0.6554351 -0.7022491
vn 0.2779398 -0.655435 -0.7022492
vn 0.2779397 -0.6554351 -0.7022491
vn 0.2779397 -0.655435 -0.7022492
vn 0.3820767 -0.6872956 -0.6177714
vn 0.3820767 -0.6872956 -0.6177715
vn 0.3820767 -0.6872956 -0.6177714
vn 0.3820767 -0.6872956 -0.6177714
vn -0.4421803 -0.6570259 -0.6105677
vn -0.4421803 -0.6570259 -0.6105677
vn -0.4421803 -0.6570258 -0.6105678
vn -0.4421803 -0.6570259 -0.6105678
vn -0.6106817 -0.662883 -0.4331897
vn -0.6106817 -0.662883 -0.4331898
vn -0.6106817 -0.662883 -0.4331897
vn -0.6106817 -0.662883 -0.4331897
vn -0.7381203 -0.6536561 -0.1670668
vn -0.7381203 -0.6536562 -0.1670668
vn -0.7381204 -0.6536562 -0.1670668
vn -0.7381203 -0.6536561 -0.1670668
vn -0.3608181 -0.6710666 0.6476722
vn -0.3608181 -0.6710666 0.6476722
vn -0.3608181 -0.6710666 0.6476722
vn -0.3608181 -0.6710666 0.6476723
vn 0.02286874 -0.7024896 0.711326
vn 0.02286874 -0.7024897 0.711326
vn 0.02286874 -0.7024896 0.711326
vn 0.02286875 -0.7024896 0.711326
vn -0.2479222 -0.6267959 0.7386886
vn -0.2479222 -0.6267958 0.7386886
vn -0.2479222 -0.6267959 0.7386886
vn -0.2479222 -0.6267958 0.7386886
vn 0.8128787 -0.05627031 0.5797083
vn 0.8128787 -0.05627031 0.5797083
vn 0.8128787 -0.05627031 0.5797083
vn 0.8128787 -0.05627031 0.5797083
vn 0.9923677 -0.04406705 -0.1151702
vn 0.9923677 -0.04406705 -0.1151702
vn 0.9923677 -0.04406705 -0.1151702
vn 0.9923677 -0.04406705 -0.1151702
vn 0.4635653 0.004323505 -0.8860521
vn 0.4635653 0.004323505 -0.8860521
vn 0.4635653 0.004323505 -0.8860521
vn 0.4635653 0.004323505 -0.8860521
vn 0.5907737 -0.00413831 -0.8068265
vn 0.5907737 -0.004138308 -0.8068266
vn 0.5907737 -0.00413831 -0.8068265
vn 0.5907737 -0.00413831 -0.8068265
vn -0.5990286 0.05259444 -0.7989984
vn -0.5990286 0.05259444 -0.7989984
vn -0.5990288 0.05259445 -0.7989983
vn -0.5990286 0.05259444 -0.7989984
vn -0.8151669 0.0562834 -0.576485
vn -0.8151669 0.0562834 -0.576485
vn -0.8151669 0.0562834 -0.576485
vn -0.8151669 0.0562834 -0.576485
vn -0.9826132 0.05237798 -0.1781221
vn -0.9826132 0.05237798 -0.1781221
vn -0.9826132 0.05237798 -0.1781221
vn -0.9826132 0.05237798 -0.1781221
vn -0.4877151 -0.002776539 0.8729984
vn -0.4877151 -0.002776539 0.8729984
vn -0.4877151 -0.002776539 0.8729984
vn -0.4877151 -0.002776539 0.8729984
vn -0.03979699 -0.02798819 0.9988156
vn -0.039797 -0.02798819 0.9988156
vn -0.03979699 -0.02798819 0.9988156
vn -0.039797 -0.02798819 0.9988156
vn -0.1612164 -0.02181143 0.9866779
vn -0.1612164 -0.02181143 0.9866779
vn -0.1612164 -0.02181143 0.9866779
vn -0.1612164 -0.02181143 0.9866779
vn 0.8029893 0.1574453 0.5748209
vn 0.8029892 0.1574453 0.5748208
vn 0.8029892 0.1574453 0.5748208
vn 0.8029892 0.1574453 0.5748208
vn 0.9776616 0.1781156 -0.1115905
vn 0.9776616 0.1781156 -0.1115905
vn 0.9776616 0.1781156 -0.1115905
vn 0.9776616 0.1781156 -0.1115905
vn 0.4265935 0.2647671 -0.8648214
vn 0.4265935 0.2647671 -0.8648214
vn 0.4265935 0.2647671 -0.8648214
vn 0.4265935 0.2647671 -0.8648214
vn 0.6094033 0.2483974 -0.7529449
vn 0.6094033 0.2483974 -0.7529449
vn 0.6094033 0.2483974 -0.7529449
vn 0.6094033 0.2483974 -0.7529449
vn -0.5930085 0.2949864 -0.7492154
vn -0.5930085 0.2949864 -0.7492154
vn -0.5930084 0.2949864 -0.7492154
vn -0.5930085 0.2949864 -0.7492154
vn -0.7667384 0.3357959 -0.5471317
vn -0.7667384 0.3357959 -0.5471317
vn -0.7667384 0.3357959 -0.5471317
vn -0.7667384 0.3357959 -0.5471317
vn -0.9385165 0.2931643 -0.1823215
vn -0.9385165 0.2931643 -0.1823215
vn -0.9385165 0.2931643 -0.1823215
vn -0.9385165 0.2931643 -0.1823215
vn -0.4383816 0.1879988 0.8789072
vn -0.4383816 0.1879988 0.8789072
vn -0.4383816 0.1879988 0.8789071
vn -0.4383816 0.1879988 0.8789072
vn -0.0156984 0.2090232 0.9777845
vn -0.0156984 0.2090232 0.9777846
vn -0.0156984 0.2090232 0.9777846
vn -0.0156984 0.2090232 0.9777846
vn -0.1819193 0.1582098 0.9705023
vn -0.1819192 0.1582099 0.9705023
vn -0.1819193 0.1582099 0.9705023
vn -0.1819193 0.1582099 0.9705023
vn 0.4816651 0.8047215 0.3470176
vn 0.4816652 0.8047215 0.3470176
vn 0.4816651 0.8047215 0.3470176
vn 0.4816652 0.8047215 0.3470176
vn 0.4737918 0.8710423 -0.1296373
vn 0.4737918 0.8710422 -0.1296373
vn 0.4737918 0.8710423 -0.1296373
vn 0.4737918 0.8710423 -0.1296373
vn 0.2824909 0.8693307 -0.4055392
vn 0.2824909 0.8693307 -0.4055392
vn 0.2824909 0.8693307 -0.4055392
vn 0.2824909 0.8693307 -0.4055392
vn 0.4028666 0.8001913 -0.4442877
vn 0.4028666 0.8001913 -0.4442877
vn 0.4028666 0.8001913 -0.4442877
vn 0.4028666 0.8001913 -0.4442877
vn -0.3055243 0.8474531 -0.4341396
vn -0.3055243 0.8474532 -0.4341395
vn -0.3055243 0.8474531 -0.4341396
vn -0.3055243 0.8474531 -0.4341396
vn -0.4198093 0.8529557 -0.3102031
vn -0.4198093 0.8529556 -0.3102032
vn -0.4198093 0.8529556 -0.3102032
vn -0.4198093 0.8529556 -0.3102032
vn -0.5181121 0.8469207 -0.1195166
vn -0.5181121 0.8469207 -0.1195166
vn -0.5181121 0.8469207 -0.1195166
vn -0.5181121 0.8469207 -0.1195166
vn -0.1729103 0.7881 0.5907618
vn -0.1729103 0.7881 0.5907619
vn -0.1729103 0.7881 0.5907619
vn -0.1729103 0.7881 0.5907619
vn 0.1425292 0.7745156 0.6162875
vn 0.1425292 0.7745156 0.6162874
vn 0.1425292 0.7745156 0.6162874
vn 0.1425292 0.7745156 0.6162875
vn -0.2352942 0.7256181 0.6466176
vn -0.2352941 0.7256182 0.6466176
vn -0.2352942 0.7256181 0.6466176
vn -0.2352942 0.7256181 0.6466176
vn 0.284444 0.9364422 0.2053448
vn 0.2844441 0.9364422 0.2053448
vn 0.284444 0.9364422 0.2053448
vn 0.3474706 0.9097715 -0.2271105
vn 0.3474706 0.9097715 -0.2271105
vn 0.3474706 0.9097715 -0.2271104
vn 0.3245548 0.9039915 -0.2783214
vn 0.3245549 0.9039915 -0.2783214
vn 0.3245548 0.9039915 -0.2783214
vn 0.2732559 0.9074522 -0.3191566
vn 0.2732559 0.9074522 -0.3191567
vn 0.2732559 0.9074522 -0.3191567
vn -0.1414536 0.9418172 -0.3049103
vn -0.1414536 0.9418172 -0.3049102
vn -0.1414536 0.9418172 -0.3049103
vn -0.2654339 0.9422716 -0.2041273
vn -0.2654339 0.9422717 -0.2041273
vn -0.2654339 0.9422717 -0.2041273
vn -0.3004917 0.9503216 -0.08119485
vn -0.3004916 0.9503216 -0.08119486
vn -0.3004916 0.9503216 -0.08119485
vn -0.04977716 0.9106023 0.4102739
vn -0.04977715 0.9106023 0.410274
vn -0.04977717 0.9106023 0.410274
vn 0.2332876 0.8005066 0.5520556
vn 0.2332876 0.8005066 0.5520555
vn 0.2332876 0.8005067 0.5520555
vn -0.3137193 0.7785678 0.5435179
vn -0.3137193 0.7785678 0.5435179
vn -0.3137193 0.7785678 0.5435179

vt 0.5483398 0.007648468
vt 0.5 0.1500244
vt 0.6264648 0.06439209
vt 0.4516602 0.007648468
vt 0.3735352 0.06439209
vt 0.34375 0.15625
vt 0.3735352 0.2480469
vt 0.4516602 0.3049316
vt 0.5483398 0.3049316
vt 0.6264648 0.2480469
vt 0.65625 0.15625
vt 0 0
vt 0 1
vt 1 1
vt 1 0
vt 0 0
vt 0 1
vt 1 1
vt 1 0
vt 0 0
vt 0 1
vt 1 1
vt 1 0
vt 0 0
vt 0 1
vt 1 1
vt 1 0
vt 0 0
vt 0 1
vt 1 1
vt 1 0
vt 0 0
vt 0 1
vt 1 1
vt 1 0
vt 0 0
vt 0 1
vt 1 1
vt 1 0
vt 0 0
vt 0 1
vt 1 1
vt 1 0
vt 0 0
vt 0 1
vt 1 1
vt 1 0
vt 0 0
vt 0 1
vt 1 1
vt 1 0
vt 0 0
vt 0 1
vt 1 1
vt 1 0
vt 0 0
vt 0 1
vt 1 1
vt 1 0
vt 0 0
vt 0 1
vt 1 1
vt 1 0
vt 0 0
vt 0 1
vt 1 1
vt 1 0
vt 0 0
vt 0 1
vt 1 1
vt 1 0
vt 0 0
vt 0 1
vt 1 1
vt 1 0
vt 0 0
vt 0 1
vt 1 1
vt 1 0
vt 0 0
vt 0 1
vt 1 1
vt 1 0
vt 0 0
vt 0 1
vt 1 1
vt 1 0
vt 0 0
vt 0 1
vt 1 1
vt 1 0
vt 0 0
vt 0 1
vt 1 1
vt 1 0
vt 0 0
vt 0 1
vt 1 1
vt 1 0
vt 0 0
vt 0 1
vt 1 1
vt 1 0
vt 0 0
vt 0 1
vt 1 1
vt 1 0
vt 0 0
vt 0 1
vt 1 1
vt 1 0
vt 0 0
vt 0 1
vt 1 1
vt 1 0
vt 0 0
vt 0 1
vt 1 1
vt 1 0
vt 0 0
vt 0 1
vt 1 1
vt 1 0
vt 0 0
vt 0 1
vt 1 1
vt 1 0
vt 0 0
vt 0 1
vt 1 1
vt 1 0
vt 0 0
vt 0 1
vt 1 1
vt 1 0
vt 0 0
vt 0 1
vt 1 1
vt 1 0
vt 0 0
vt 0 1
vt 1 1
vt 1 0
vt 0 0
vt 0 1
vt 1 1
vt 1 0
vt 0 0
vt 0 1
vt 1 1
vt 1 0
vt 0 0
vt 0 1
vt 1 1
vt 1 0
vt 0 0
vt 0 1
vt 1 1
vt 1 0
vt 0 0
vt 0 1
vt 1 1
vt 1 0
vt 0 0
vt 0 1
vt 1 1
vt 1 0
vt 0 0
vt 0 1
vt 1 1
vt 1 0
vt 0 0
vt 0.5 1
vt 1 0
vt 0 0
vt 0.5 1
vt 1 0
vt 0 0
vt 0.5 1
vt 1 0
vt 0 0
vt 0.5 1
vt 1 0
vt 0 0
vt 0.5 1
vt 1 0
vt 0 0
vt 0.5 1
vt 1 0
vt 0 0
vt 0.5 1
vt 1 0
vt 0 0
vt 0.5 1
vt 1 0
vt 0 0
vt 0.5 1
vt 1 0
vt 0 0
vt 0.5 1
vt 1 0

g Foliage3_30_4321_228
usemtl Foliage3_30_4321_228
usemap Foliage3_30_4321_228
f 1/1/1 3/3/3 2/2/2
f 4/4/4 1/1/1 2/2/2
f 5/5/5 4/4/4 2/2/2
f 6/6/6 5/5/5 2/2/2
f 7/7/7 6/6/6 2/2/2
f 8/8/8 7/7/7 2/2/2
f 9/9/9 8/8/8 2/2/2
f 10/10/10 9/9/9 2/2/2
f 11/11/11 10/10/10 2/2/2
f 3/3/3 11/11/11 2/2/2
f 12/12/12 14/14/14 13/13/13
f 12/12/12 15/15/15 14/14/14
f 16/16/16 18/18/18 17/17/17
f 16/16/16 19/19/19 18/18/18
f 20/20/20 22/22/22 21/21/21
f 20/20/20 23/23/23 22/22/22
f 24/24/24 26/26/26 25/25/25
f 24/24/24 27/27/27 26/26/26
f 28/28/28 30/30/30 29/29/29
f 28/28/28 31/31/31 30/30/30
f 32/32/32 34/34/34 33/33/33
f 32/32/32 35/35/35 34/34/34
f 36/36/36 38/38/38 37/37/37
f 36/36/36 39/39/39 38/38/38
f 40/40/40 42/42/42 41/41/41
f 40/40/40 43/43/43 42/42/42
f 44/44/44 46/46/46 45/45/45
f 44/44/44 47/47/47 46/46/46
f 48/48/48 50/50/50 49/49/49
f 48/48/48 51/51/51 50/50/50
f 52/52/52 54/54/54 53/53/53
f 52/52/52 55/55/55 54/54/54
f 56/56/56 58/58/58 57/57/57
f 56/56/56 59/59/59 58/58/58
f 60/60/60 62/62/62 61/61/61
f 60/60/60 63/63/63 62/62/62
f 64/64/64 66/66/66 65/65/65
f 64/64/64 67/67/67 66/66/66
f 68/68/68 70/70/70 69/69/69
f 68/68/68 71/71/71 70/70/70
f 72/72/72 74/74/74 73/73/73
f 72/72/72 75/75/75 74/74/74
f 76/76/76 78/78/78 77/77/77
f 76/76/76 79/79/79 78/78/78
f 80/80/80 82/82/82 81/81/81
f 80/80/80 83/83/83 82/82/82
f 84/84/84 86/86/86 85/85/85
f 84/84/84 87/87/87 86/86/86
f 88/88/88 90/90/90 89/89/89
f 88/88/88 91/91/91 90/90/90
f 92/92/92 94/94/94 93/93/93
f 92/92/92 95/95/95 94/94/94
f 96/96/96 98/98/98 97/97/97
f 96/96/96 99/99/99 98/98/98
f 100/100/100 102/102/102 101/101/101
f 100/100/100 103/103/103 102/102/102
f 104/104/104 106/106/106 105/105/105
f 104/104/104 107/107/107 106/106/106
f 108/108/108 110/110/110 109/109/109
f 108/108/108 111/111/111 110/110/110
f 112/112/112 114/114/114 113/113/113
f 112/112/112 115/115/115 114/114/114
f 116/116/116 118/118/118 117/117/117
f 116/116/116 119/119/119 118/118/118
f 120/120/120 122/122/122 121/121/121
f 120/120/120 123/123/123 122/122/122
f 124/124/124 126/126/126 125/125/125
f 124/124/124 127/127/127 126/126/126
f 128/128/128 130/130/130 129/129/129
f 128/128/128 131/131/131 130/130/130
f 132/132/132 134/134/134 133/133/133
f 132/132/132 135/135/135 134/134/134
f 136/136/136 138/138/138 137/137/137
f 136/136/136 139/139/139 138/138/138
f 140/140/140 142/142/142 141/141/141
f 140/140/140 143/143/143 142/142/142
f 144/144/144 146/146/146 145/145/145
f 144/144/144 147/147/147 146/146/146
f 148/148/148 150/150/150 149/149/149
f 148/148/148 151/151/151 150/150/150
f 152/152/152 154/154/154 153/153/153
f 152/152/152 155/155/155 154/154/154
f 156/156/156 158/158/158 157/157/157
f 156/156/156 159/159/159 158/158/158
f 160/160/160 162/162/162 161/161/161
f 160/160/160 163/163/163 162/162/162
f 164/164/164 166/166/166 165/165/165
f 164/164/164 167/167/167 166/166/166
f 168/168/168 170/170/170 169/169/169
f 168/168/168 171/171/171 170/170/170
f 172/172/172 174/174/174 173/173/173
f 175/175/175 177/177/177 176/176/176
f 178/178/178 180/180/180 179/179/179
f 181/181/181 183/183/183 182/182/182
f 184/184/184 186/186/186 185/185/185
f 187/187/187 189/189/189 188/188/188
f 190/190/190 192/192/192 191/191/191
f 193/193/193 195/195/195 194/194/194
f 196/196/196 198/198/198 197/197/197
f 199/199/199 201/201/201 200/200/200
