#Foliage2_9_4135_187.obj

v 0.01454519 -0.02577562 -0.04035847
v 0.004623757 -0.03397614 0.001091222
v 0.03878436 -0.02577566 -0.02105495
v -0.009663506 -0.02577572 -0.03817556
v -0.01825088 -0.02577565 -0.0177806
v -0.03822222 -0.02223222 0.001091199
v -0.02135097 -0.02577567 0.019963
v -0.005297718 -0.02577566 0.03271784
v 0.02109389 -0.02577569 0.04035801
v 0.03059842 -0.0257757 0.01996301
v 0.03218935 -0.02223227 0.001091237
v 0.03878436 -0.02577566 -0.02105495
v 0.04796677 -0.01489246 -0.02772634
v 0.01805255 -0.01489243 -0.05115299
v 0.01454519 -0.02577562 -0.04035847
v 0.01454519 -0.02577562 -0.04035847
v 0.01805255 -0.01489243 -0.05115299
v -0.0131709 -0.01489242 -0.04897009
v -0.009663506 -0.02577572 -0.03817556
v -0.009663506 -0.02577572 -0.03817556
v -0.0131709 -0.01489242 -0.04897009
v -0.02743329 -0.01489236 -0.024452
v -0.01825088 -0.02577565 -0.0177806
v -0.01825088 -0.02577565 -0.0177806
v -0.02743329 -0.01489236 -0.024452
v -0.04796704 -0.01288818 0.001091218
v -0.03822222 -0.02223222 0.001091199
v -0.03822222 -0.02223222 0.001091199
v -0.04796704 -0.01288818 0.001091218
v -0.03053341 -0.01489241 0.02663441
v -0.02135097 -0.02577567 0.019963
v -0.02135097 -0.02577567 0.019963
v -0.03053341 -0.01489241 0.02663441
v -0.008805105 -0.0148924 0.04351231
v -0.005297718 -0.02577566 0.03271784
v -0.005297718 -0.02577566 0.03271784
v -0.008805105 -0.0148924 0.04351231
v 0.02460124 -0.01489242 0.05115251
v 0.02109389 -0.02577569 0.04035801
v 0.02109389 -0.02577569 0.04035801
v 0.02460124 -0.01489242 0.05115251
v 0.03978085 -0.0148924 0.02663443
v 0.03059842 -0.0257757 0.01996301
v 0.03059842 -0.0257757 0.01996301
v 0.03978085 -0.0148924 0.02663443
v 0.04193414 -0.01288829 0.001091221
v 0.03218935 -0.02223227 0.001091237
v 0.03218935 -0.02223227 0.001091237
v 0.04193414 -0.01288829 0.001091221
v 0.04796677 -0.01489246 -0.02772634
v 0.03878436 -0.02577566 -0.02105495
v 0.04796677 -0.01489246 -0.02772634
v 0.04796677 -0.0001483805 -0.02772633
v 0.01805255 -0.0001483508 -0.05115299
v 0.01805255 -0.01489243 -0.05115299
v 0.01805255 -0.01489243 -0.05115299
v 0.01805255 -0.0001483508 -0.05115299
v -0.01317091 -0.0001483356 -0.04897008
v -0.0131709 -0.01489242 -0.04897009
v -0.0131709 -0.01489242 -0.04897009
v -0.01317091 -0.0001483356 -0.04897008
v -0.02743329 -0.0001484003 -0.02445198
v -0.02743329 -0.01489236 -0.024452
v -0.02743329 -0.01489236 -0.024452
v -0.02743329 -0.0001484003 -0.02445198
v -0.04796705 -0.0002294523 0.001091209
v -0.04796704 -0.01288818 0.001091218
v -0.04796704 -0.01288818 0.001091218
v -0.04796705 -0.0002294523 0.001091209
v -0.03053341 -0.0001483316 0.02663442
v -0.03053341 -0.01489241 0.02663441
v -0.03053341 -0.01489241 0.02663441
v -0.03053341 -0.0001483316 0.02663442
v -0.008805046 -0.0001483132 0.04351233
v -0.008805105 -0.0148924 0.04351231
v -0.008805105 -0.0148924 0.04351231
v -0.008805046 -0.0001483132 0.04351233
v 0.02460124 -0.0001483413 0.05115249
v 0.02460124 -0.01489242 0.05115251
v 0.02460124 -0.01489242 0.05115251
v 0.02460124 -0.0001483413 0.05115249
v 0.03978085 -0.000148324 0.02663441
v 0.03978085 -0.0148924 0.02663443
v 0.03978085 -0.0148924 0.02663443
v 0.03978085 -0.000148324 0.02663441
v 0.04193417 -0.0002294262 0.001091234
v 0.04193414 -0.01288829 0.001091221
v 0.04193414 -0.01288829 0.001091221
v 0.04193417 -0.0002294262 0.001091234
v 0.04796677 -0.0001483805 -0.02772633
v 0.04796677 -0.01489246 -0.02772634
v 0.04796677 -0.0001483805 -0.02772633
v 0.04568879 0.01428337 -0.02539704
v 0.01714499 0.0142834 -0.04799151
v 0.01805255 -0.0001483508 -0.05115299
v 0.01805255 -0.0001483508 -0.05115299
v 0.01714499 0.0142834 -0.04799151
v -0.0118292 0.01428335 -0.04559788
v -0.01317091 -0.0001483356 -0.04897008
v -0.01317091 -0.0001483356 -0.04897008
v -0.0118292 0.01428335 -0.04559788
v -0.02321042 0.01428333 -0.02180662
v -0.02743329 -0.0001484003 -0.02445198
v -0.02743329 -0.0001484003 -0.02445198
v -0.02321042 0.01428333 -0.02180662
v -0.04530419 0.01197202 0.001196558
v -0.04796705 -0.0002294523 0.001091209
v -0.04796705 -0.0002294523 0.001091209
v -0.04530419 0.01197202 0.001196558
v -0.02660972 0.01428336 0.02419977
v -0.03053341 -0.0001483316 0.02663442
v -0.03053341 -0.0001483316 0.02663442
v -0.02660972 0.01428336 0.02419977
v -0.007042032 0.01428332 0.03961333
v -0.008805046 -0.0001483132 0.04351233
v -0.008805046 -0.0001483132 0.04351233
v -0.007042032 0.01428332 0.03961333
v 0.02432579 0.01428327 0.04799102
v 0.02460124 -0.0001483413 0.05115249
v 0.02460124 -0.0001483413 0.05115249
v 0.02432579 0.01428327 0.04799102
v 0.03671267 0.01428337 0.02419977
v 0.03978085 -0.000148324 0.02663441
v 0.03978085 -0.000148324 0.02663441
v 0.03671267 0.01428337 0.02419977
v 0.03865188 0.01197206 0.00119659
v 0.04193417 -0.0002294262 0.001091234
v 0.04193417 -0.0002294262 0.001091234
v 0.03865188 0.01197206 0.00119659
v 0.04568879 0.01428337 -0.02539704
v 0.04796677 -0.0001483805 -0.02772633
v 0.04568879 0.01428337 -0.02539704
v 0.03225234 0.02437443 -0.01614789
v 0.01203637 0.02437433 -0.03256887
v 0.01714499 0.0142834 -0.04799151
v 0.01714499 0.0142834 -0.04799151
v 0.01203637 0.02437433 -0.03256887
v -0.002592339 0.02437437 -0.02139404
v -0.0118292 0.01428335 -0.04559788
v -0.0118292 0.01428335 -0.04559788
v -0.002592339 0.02437437 -0.02139404
v -0.01125324 0.02437439 -0.01279547
v -0.02321042 0.01428333 -0.02180662
v -0.02321042 0.01428333 -0.02180662
v -0.01125324 0.02437439 -0.01279547
v -0.03124485 0.02074644 0.001117255
v -0.04530419 0.01197202 0.001196558
v -0.04530419 0.01197202 0.001196558
v -0.03124485 0.02074644 0.001117255
v -0.01442723 0.02437438 0.01502999
v -0.02660972 0.01428336 0.02419977
v -0.02660972 0.01428336 0.02419977
v -0.01442723 0.02437438 0.01502999
v -0.002592354 0.02437434 0.02474601
v -0.007042032 0.01428332 0.03961333
v -0.007042032 0.01428332 0.03961333
v -0.002592354 0.02437434 0.02474601
v 0.01874122 0.02437442 0.03256836
v 0.02432579 0.01428327 0.04799102
v 0.02432579 0.01428327 0.04799102
v 0.01874122 0.02437442 0.03256836
v 0.02387122 0.02437435 0.01502997
v 0.03671267 0.01428337 0.02419977
v 0.03671267 0.01428337 0.02419977
v 0.02387122 0.02437435 0.01502997
v 0.02504405 0.02074644 0.001117259
v 0.03865188 0.01197206 0.00119659
v 0.03865188 0.01197206 0.00119659
v 0.02504405 0.02074644 0.001117259
v 0.03225234 0.02437443 -0.01614789
v 0.04568879 0.01428337 -0.02539704
v 0.03225234 0.02437443 -0.01614789
v 0.004623719 0.03397609 0.001091199
v 0.01203637 0.02437433 -0.03256887
v 0.01203637 0.02437433 -0.03256887
v 0.004623719 0.03397609 0.001091199
v -0.002592339 0.02437437 -0.02139404
v -0.002592339 0.02437437 -0.02139404
v 0.004623719 0.03397609 0.001091199
v -0.01125324 0.02437439 -0.01279547
v -0.01125324 0.02437439 -0.01279547
v 0.004623719 0.03397609 0.001091199
v -0.03124485 0.02074644 0.001117255
v -0.03124485 0.02074644 0.001117255
v 0.004623719 0.03397609 0.001091199
v -0.01442723 0.02437438 0.01502999
v -0.01442723 0.02437438 0.01502999
v 0.004623719 0.03397609 0.001091199
v -0.002592354 0.02437434 0.02474601
v -0.002592354 0.02437434 0.02474601
v 0.004623719 0.03397609 0.001091199
v 0.01874122 0.02437442 0.03256836
v 0.01874122 0.02437442 0.03256836
v 0.004623719 0.03397609 0.001091199
v 0.02387122 0.02437435 0.01502997
v 0.02387122 0.02437435 0.01502997
v 0.004623719 0.03397609 0.001091199
v 0.02504405 0.02074644 0.001117259
v 0.02504405 0.02074644 0.001117259
v 0.004623719 0.03397609 0.001091199
v 0.03225234 0.02437443 -0.01614789

vn -0.04199664 -0.9619295 -0.2700511
vn -0.09488116 -0.9914115 -0.09000251
vn 0.1014316 -0.9831313 -0.1521978
vn -0.1848066 -0.9483709 -0.2577573
vn -0.3548595 -0.9181588 -0.1762346
vn -0.3566484 -0.9296737 -0.0922409
vn -0.3136519 -0.9489632 0.03303158
vn -0.1845424 -0.9732892 0.1365714
vn -0.02963961 -0.9956338 0.08851145
vn 0.1906073 -0.9789154 -0.0734379
vn 0.3032738 -0.9529022 -0.001419552
vn 0.3486229 -0.686177 -0.6384539
vn 0.3486228 -0.686177 -0.6384539
vn 0.3486229 -0.686177 -0.6384538
vn 0.3486228 -0.686177 -0.6384539
vn -0.1501375 -0.6252164 -0.765874
vn -0.1501375 -0.6252165 -0.765874
vn -0.1501375 -0.6252164 -0.765874
vn -0.1501375 -0.6252165 -0.7658741
vn -0.7410841 -0.5625002 -0.3665893
vn -0.7410842 -0.5625002 -0.3665893
vn -0.7410841 -0.5625002 -0.3665893
vn -0.7410842 -0.5625002 -0.3665892
vn -0.657771 -0.5853964 -0.4739708
vn -0.6577711 -0.5853963 -0.4739708
vn -0.6577711 -0.5853963 -0.4739708
vn -0.6577711 -0.5853963 -0.4739707
vn -0.657593 -0.6688902 0.3466369
vn -0.657593 -0.6688902 0.3466369
vn -0.657593 -0.6688901 0.3466369
vn -0.657593 -0.6688902 0.3466369
vn -0.4828476 -0.7096813 0.5130405
vn -0.4828477 -0.7096813 0.5130405
vn -0.4828476 -0.7096813 0.5130405
vn -0.4828476 -0.7096813 0.5130405
vn -0.2181087 -0.7359015 0.6409972
vn -0.2181087 -0.7359016 0.6409972
vn -0.2181086 -0.7359016 0.6409972
vn -0.2181087 -0.7359015 0.6409972
vn 0.5977612 -0.7561558 0.266289
vn 0.5977611 -0.7561558 0.266289
vn 0.5977611 -0.7561558 0.266289
vn 0.5977612 -0.7561558 0.266289
vn 0.6633845 -0.7389215 -0.1179654
vn 0.6633845 -0.7389215 -0.1179654
vn 0.6633845 -0.7389215 -0.1179654
vn 0.6633845 -0.7389215 -0.1179654
vn 0.6927423 -0.7030515 0.1607055
vn 0.6927424 -0.7030514 0.1607055
vn 0.6927423 -0.7030515 0.1607055
vn 0.6927423 -0.7030514 0.1607055
vn 0.5835583 0.01680668 -0.8118975
vn 0.5835584 0.01680668 -0.8118975
vn 0.5835584 0.01680668 -0.8118975
vn 0.5835583 0.01680668 -0.8118975
vn -0.1069764 0.1001435 -0.9892055
vn -0.1069764 0.1001435 -0.9892055
vn -0.1069764 0.1001435 -0.9892055
vn -0.1069764 0.1001435 -0.9892055
vn -0.8786911 0.1273127 -0.4601015
vn -0.8786911 0.1273127 -0.4601015
vn -0.8786911 0.1273127 -0.4601015
vn -0.8786911 0.1273127 -0.4601015
vn -0.7988142 0.1310549 -0.5871289
vn -0.7988143 0.131055 -0.5871289
vn -0.7988142 0.1310549 -0.5871289
vn -0.7988142 0.1310549 -0.5871289
vn -0.800257 0.02359167 0.599193
vn -0.800257 0.02359167 0.599193
vn -0.800257 0.02359166 0.5991931
vn -0.800257 0.02359167 0.599193
vn -0.5803666 -0.01732381 0.8141713
vn -0.5803666 -0.01732381 0.8141713
vn -0.5803666 -0.01732381 0.8141713
vn -0.5803666 -0.01732381 0.8141713
vn -0.184995 -0.0708884 0.9801795
vn -0.184995 -0.0708884 0.9801795
vn -0.184995 -0.0708884 0.9801795
vn -0.184995 -0.0708884 0.9801795
vn 0.8655053 -0.1282154 0.4842122
vn 0.8655053 -0.1282154 0.4842122
vn 0.8655053 -0.1282154 0.4842122
vn 0.8655053 -0.1282154 0.4842122
vn 0.994266 -0.1002191 0.03729701
vn 0.994266 -0.1002191 0.03729702
vn 0.994266 -0.1002191 0.03729701
vn 0.994266 -0.1002191 0.03729702
vn 0.9812372 -0.1099339 0.1583922
vn 0.9812372 -0.1099339 0.1583921
vn 0.9812372 -0.1099339 0.1583922
vn 0.9812372 -0.1099339 0.1583922
vn 0.5927458 0.2269932 -0.7727398
vn 0.5927457 0.2269932 -0.7727398
vn 0.5927457 0.2269932 -0.7727398
vn 0.5927457 0.2269932 -0.7727398
vn -0.08883226 0.3174691 -0.9440987
vn -0.08883226 0.3174691 -0.9440987
vn -0.08883226 0.3174691 -0.9440987
vn -0.08883226 0.3174691 -0.9440987
vn -0.8406423 0.3782149 -0.3876518
vn -0.8406424 0.3782149 -0.3876518
vn -0.8406423 0.3782149 -0.3876518
vn -0.8406423 0.3782148 -0.3876518
vn -0.7281046 0.3795657 -0.5707833
vn -0.7281045 0.3795657 -0.5707834
vn -0.7281046 0.3795657 -0.5707834
vn -0.7281046 0.3795657 -0.5707833
vn -0.7344474 0.2606252 0.6266273
vn -0.7344474 0.2606253 0.6266273
vn -0.7344474 0.2606253 0.6266272
vn -0.7344474 0.2606252 0.6266273
vn -0.5320147 0.2635783 0.8046657
vn -0.5320148 0.2635783 0.8046657
vn -0.5320148 0.2635784 0.8046657
vn -0.5320148 0.2635784 0.8046657
vn -0.1727355 0.1734018 0.9695846
vn -0.1727355 0.1734018 0.9695846
vn -0.1727355 0.1734018 0.9695846
vn -0.1727355 0.1734018 0.9695846
vn 0.8845911 0.06668782 0.4615749
vn 0.8845911 0.06668782 0.4615749
vn 0.884591 0.06668783 0.4615749
vn 0.8845911 0.06668784 0.4615749
vn 0.9892628 0.1387315 0.04596272
vn 0.9892629 0.1387315 0.04596273
vn 0.9892629 0.1387315 0.04596272
vn 0.9892629 0.1387314 0.04596272
vn 0.9768092 0.06622972 0.2036105
vn 0.9768092 0.06622973 0.2036105
vn 0.9768092 0.06622973 0.2036105
vn 0.9768092 0.06622975 0.2036105
vn 0.4048647 0.8379727 -0.3659044
vn 0.4048647 0.8379727 -0.3659045
vn 0.4048647 0.8379727 -0.3659044
vn 0.4048647 0.8379727 -0.3659045
vn -0.06640089 0.9344627 -0.3498143
vn -0.06640089 0.9344627 -0.3498143
vn -0.06640089 0.9344627 -0.3498143
vn -0.06640086 0.9344627 -0.3498143
vn -0.3438851 0.9250992 -0.1610401
vn -0.3438851 0.9250992 -0.1610401
vn -0.3438851 0.9250992 -0.1610401
vn -0.3438851 0.9250992 -0.1610401
vn -0.385814 0.8758645 -0.2898421
vn -0.385814 0.8758646 -0.2898421
vn -0.385814 0.8758646 -0.2898421
vn -0.385814 0.8758646 -0.2898421
vn -0.3803039 0.8248399 0.4183392
vn -0.3803038 0.82484 0.4183392
vn -0.3803039 0.8248399 0.4183392
vn -0.3803039 0.8248399 0.4183392
vn -0.257533 0.806294 0.5325098
vn -0.257533 0.8062938 0.5325097
vn -0.257533 0.8062938 0.5325098
vn -0.257533 0.8062938 0.5325097
vn -0.06875315 0.7740505 0.6293795
vn -0.06875314 0.7740505 0.6293795
vn -0.06875314 0.7740505 0.6293795
vn -0.06875314 0.7740505 0.6293795
vn 0.6397951 0.7154913 0.2805959
vn 0.6397952 0.7154913 0.2805959
vn 0.6397952 0.7154913 0.2805959
vn 0.6397952 0.7154913 0.2805959
vn 0.6678129 0.7435669 -0.03367309
vn 0.6678128 0.743567 -0.03367308
vn 0.6678128 0.743567 -0.03367308
vn 0.6678129 0.7435669 -0.03367307
vn 0.6906989 0.6414416 0.3338975
vn 0.6906989 0.6414417 0.3338974
vn 0.6906989 0.6414416 0.3338975
vn 0.6906989 0.6414416 0.3338975
vn 0.2700894 0.9506497 -0.1526974
vn 0.2700894 0.9506497 -0.1526974
vn 0.2700894 0.9506497 -0.1526974
vn -0.1624673 0.9619809 -0.2195376
vn -0.1624673 0.9619809 -0.2195376
vn -0.1624672 0.9619809 -0.2195376
vn -0.2141964 0.9565697 -0.197722
vn -0.2141964 0.9565697 -0.197722
vn -0.2141964 0.9565697 -0.197722
vn -0.2552709 0.9557053 -0.1465047
vn -0.255271 0.9557053 -0.1465047
vn -0.255271 0.9557053 -0.1465047
vn -0.2433146 0.9318947 0.2690167
vn -0.2433145 0.9318947 0.2690167
vn -0.2433146 0.9318947 0.2690167
vn -0.1440855 0.908587 0.3920569
vn -0.1440855 0.908587 0.3920569
vn -0.1440855 0.908587 0.3920569
vn -0.0212807 0.9034803 0.4281005
vn -0.02128072 0.9034803 0.4281005
vn -0.02128071 0.9034803 0.4281005
vn 0.4691856 0.8655549 0.1751549
vn 0.4691857 0.8655549 0.1751549
vn 0.4691857 0.8655548 0.1751549
vn 0.6064425 0.7860031 -0.1201093
vn 0.6064425 0.7860031 -0.1201092
vn 0.6064425 0.7860032 -0.1201092
vn 0.5904856 0.6899537 0.4186771
vn 0.5904855 0.6899537 0.4186772
vn 0.5904856 0.6899537 0.4186772

vt 0.5483398 0.007648468
vt 0.5 0.1500244
vt 0.6264648 0.06439209
vt 0.4516602 0.007648468
vt 0.3735352 0.06439209
vt 0.34375 0.15625
vt 0.3735352 0.2480469
vt 0.4516602 0.3049316
vt 0.5483398 0.3049316
vt 0.6264648 0.2480469
vt 0.65625 0.15625
vt 0 0
vt 0 1
vt 1 1
vt 1 0
vt 0 0
vt 0 1
vt 1 1
vt 1 0
vt 0 0
vt 0 1
vt 1 1
vt 1 0
vt 0 0
vt 0 1
vt 1 1
vt 1 0
vt 0 0
vt 0 1
vt 1 1
vt 1 0
vt 0 0
vt 0 1
vt 1 1
vt 1 0
vt 0 0
vt 0 1
vt 1 1
vt 1 0
vt 0 0
vt 0 1
vt 1 1
vt 1 0
vt 0 0
vt 0 1
vt 1 1
vt 1 0
vt 0 0
vt 0 1
vt 1 1
vt 1 0
vt 0 0
vt 0 1
vt 1 1
vt 1 0
vt 0 0
vt 0 1
vt 1 1
vt 1 0
vt 0 0
vt 0 1
vt 1 1
vt 1 0
vt 0 0
vt 0 1
vt 1 1
vt 1 0
vt 0 0
vt 0 1
vt 1 1
vt 1 0
vt 0 0
vt 0 1
vt 1 1
vt 1 0
vt 0 0
vt 0 1
vt 1 1
vt 1 0
vt 0 0
vt 0 1
vt 1 1
vt 1 0
vt 0 0
vt 0 1
vt 1 1
vt 1 0
vt 0 0
vt 0 1
vt 1 1
vt 1 0
vt 0 0
vt 0 1
vt 1 1
vt 1 0
vt 0 0
vt 0 1
vt 1 1
vt 1 0
vt 0 0
vt 0 1
vt 1 1
vt 1 0
vt 0 0
vt 0 1
vt 1 1
vt 1 0
vt 0 0
vt 0 1
vt 1 1
vt 1 0
vt 0 0
vt 0 1
vt 1 1
vt 1 0
vt 0 0
vt 0 1
vt 1 1
vt 1 0
vt 0 0
vt 0 1
vt 1 1
vt 1 0
vt 0 0
vt 0 1
vt 1 1
vt 1 0
vt 0 0
vt 0 1
vt 1 1
vt 1 0
vt 0 0
vt 0 1
vt 1 1
vt 1 0
vt 0 0
vt 0 1
vt 1 1
vt 1 0
vt 0 0
vt 0 1
vt 1 1
vt 1 0
vt 0 0
vt 0 1
vt 1 1
vt 1 0
vt 0 0
vt 0 1
vt 1 1
vt 1 0
vt 0 0
vt 0 1
vt 1 1
vt 1 0
vt 0 0
vt 0 1
vt 1 1
vt 1 0
vt 0 0
vt 0 1
vt 1 1
vt 1 0
vt 0 0
vt 0 1
vt 1 1
vt 1 0
vt 0 0
vt 0 1
vt 1 1
vt 1 0
vt 0 0
vt 0.5 1
vt 1 0
vt 0 0
vt 0.5 1
vt 1 0
vt 0 0
vt 0.5 1
vt 1 0
vt 0 0
vt 0.5 1
vt 1 0
vt 0 0
vt 0.5 1
vt 1 0
vt 0 0
vt 0.5 1
vt 1 0
vt 0 0
vt 0.5 1
vt 1 0
vt 0 0
vt 0.5 1
vt 1 0
vt 0 0
vt 0.5 1
vt 1 0
vt 0 0
vt 0.5 1
vt 1 0

g Foliage2_9_4135_187
usemtl Foliage2_9_4135_187
usemap Foliage2_9_4135_187
f 1/1/1 3/3/3 2/2/2
f 4/4/4 1/1/1 2/2/2
f 5/5/5 4/4/4 2/2/2
f 6/6/6 5/5/5 2/2/2
f 7/7/7 6/6/6 2/2/2
f 8/8/8 7/7/7 2/2/2
f 9/9/9 8/8/8 2/2/2
f 10/10/10 9/9/9 2/2/2
f 11/11/11 10/10/10 2/2/2
f 3/3/3 11/11/11 2/2/2
f 12/12/12 14/14/14 13/13/13
f 12/12/12 15/15/15 14/14/14
f 16/16/16 18/18/18 17/17/17
f 16/16/16 19/19/19 18/18/18
f 20/20/20 22/22/22 21/21/21
f 20/20/20 23/23/23 22/22/22
f 24/24/24 26/26/26 25/25/25
f 24/24/24 27/27/27 26/26/26
f 28/28/28 30/30/30 29/29/29
f 28/28/28 31/31/31 30/30/30
f 32/32/32 34/34/34 33/33/33
f 32/32/32 35/35/35 34/34/34
f 36/36/36 38/38/38 37/37/37
f 36/36/36 39/39/39 38/38/38
f 40/40/40 42/42/42 41/41/41
f 40/40/40 43/43/43 42/42/42
f 44/44/44 46/46/46 45/45/45
f 44/44/44 47/47/47 46/46/46
f 48/48/48 50/50/50 49/49/49
f 48/48/48 51/51/51 50/50/50
f 52/52/52 54/54/54 53/53/53
f 52/52/52 55/55/55 54/54/54
f 56/56/56 58/58/58 57/57/57
f 56/56/56 59/59/59 58/58/58
f 60/60/60 62/62/62 61/61/61
f 60/60/60 63/63/63 62/62/62
f 64/64/64 66/66/66 65/65/65
f 64/64/64 67/67/67 66/66/66
f 68/68/68 70/70/70 69/69/69
f 68/68/68 71/71/71 70/70/70
f 72/72/72 74/74/74 73/73/73
f 72/72/72 75/75/75 74/74/74
f 76/76/76 78/78/78 77/77/77
f 76/76/76 79/79/79 78/78/78
f 80/80/80 82/82/82 81/81/81
f 80/80/80 83/83/83 82/82/82
f 84/84/84 86/86/86 85/85/85
f 84/84/84 87/87/87 86/86/86
f 88/88/88 90/90/90 89/89/89
f 88/88/88 91/91/91 90/90/90
f 92/92/92 94/94/94 93/93/93
f 92/92/92 95/95/95 94/94/94
f 96/96/96 98/98/98 97/97/97
f 96/96/96 99/99/99 98/98/98
f 100/100/100 102/102/102 101/101/101
f 100/100/100 103/103/103 102/102/102
f 104/104/104 106/106/106 105/105/105
f 104/104/104 107/107/107 106/106/106
f 108/108/108 110/110/110 109/109/109
f 108/108/108 111/111/111 110/110/110
f 112/112/112 114/114/114 113/113/113
f 112/112/112 115/115/115 114/114/114
f 116/116/116 118/118/118 117/117/117
f 116/116/116 119/119/119 118/118/118
f 120/120/120 122/122/122 121/121/121
f 120/120/120 123/123/123 122/122/122
f 124/124/124 126/126/126 125/125/125
f 124/124/124 127/127/127 126/126/126
f 128/128/128 130/130/130 129/129/129
f 128/128/128 131/131/131 130/130/130
f 132/132/132 134/134/134 133/133/133
f 132/132/132 135/135/135 134/134/134
f 136/136/136 138/138/138 137/137/137
f 136/136/136 139/139/139 138/138/138
f 140/140/140 142/142/142 141/141/141
f 140/140/140 143/143/143 142/142/142
f 144/144/144 146/146/146 145/145/145
f 144/144/144 147/147/147 146/146/146
f 148/148/148 150/150/150 149/149/149
f 148/148/148 151/151/151 150/150/150
f 152/152/152 154/154/154 153/153/153
f 152/152/152 155/155/155 154/154/154
f 156/156/156 158/158/158 157/157/157
f 156/156/156 159/159/159 158/158/158
f 160/160/160 162/162/162 161/161/161
f 160/160/160 163/163/163 162/162/162
f 164/164/164 166/166/166 165/165/165
f 164/164/164 167/167/167 166/166/166
f 168/168/168 170/170/170 169/169/169
f 168/168/168 171/171/171 170/170/170
f 172/172/172 174/174/174 173/173/173
f 175/175/175 177/177/177 176/176/176
f 178/178/178 180/180/180 179/179/179
f 181/181/181 183/183/183 182/182/182
f 184/184/184 186/186/186 185/185/185
f 187/187/187 189/189/189 188/188/188
f 190/190/190 192/192/192 191/191/191
f 193/193/193 195/195/195 194/194/194
f 196/196/196 198/198/198 197/197/197
f 199/199/199 201/201/201 200/200/200
