#Foliage4_3_4157_226.obj

v 0.01454521 -0.02577558 -0.04035832
v 0.004623749 -0.03397604 0.001091367
v 0.0387844 -0.02577562 -0.02105481
v -0.009663504 -0.02577558 -0.03817541
v -0.01825088 -0.02577561 -0.01778042
v -0.03822222 -0.02223215 0.001091368
v -0.02135095 -0.02577558 0.01996317
v -0.005297686 -0.02577561 0.03271798
v 0.02109392 -0.02577564 0.04035816
v 0.03059846 -0.02577557 0.01996316
v 0.03218934 -0.02223219 0.001091378
v 0.0387844 -0.02577562 -0.02105481
v 0.04796679 -0.01489236 -0.02772617
v 0.01805257 -0.01489236 -0.05115283
v 0.01454521 -0.02577558 -0.04035832
v 0.01454521 -0.02577558 -0.04035832
v 0.01805257 -0.01489236 -0.05115283
v -0.01317088 -0.01489233 -0.04896991
v -0.009663504 -0.02577558 -0.03817541
v -0.009663504 -0.02577558 -0.03817541
v -0.01317088 -0.01489233 -0.04896991
v -0.02743329 -0.01489238 -0.02445182
v -0.01825088 -0.02577561 -0.01778042
v -0.01825088 -0.02577561 -0.01778042
v -0.02743329 -0.01489238 -0.02445182
v -0.04796701 -0.01288817 0.001091373
v -0.03822222 -0.02223215 0.001091368
v -0.03822222 -0.02223215 0.001091368
v -0.04796701 -0.01288817 0.001091373
v -0.03053337 -0.01489238 0.02663455
v -0.02135095 -0.02577558 0.01996317
v -0.02135095 -0.02577558 0.01996317
v -0.03053337 -0.01489238 0.02663455
v -0.008805047 -0.01489237 0.04351247
v -0.005297686 -0.02577561 0.03271798
v -0.005297686 -0.02577561 0.03271798
v -0.008805047 -0.01489237 0.04351247
v 0.0246013 -0.01489235 0.05115265
v 0.02109392 -0.02577564 0.04035816
v 0.02109392 -0.02577564 0.04035816
v 0.0246013 -0.01489235 0.05115265
v 0.03978086 -0.01489234 0.02663456
v 0.03059846 -0.02577557 0.01996316
v 0.03059846 -0.02577557 0.01996316
v 0.03978086 -0.01489234 0.02663456
v 0.04193418 -0.01288814 0.001091398
v 0.03218934 -0.02223219 0.001091378
v 0.03218934 -0.02223219 0.001091378
v 0.04193418 -0.01288814 0.001091398
v 0.04796679 -0.01489236 -0.02772617
v 0.0387844 -0.02577562 -0.02105481
v 0.04796679 -0.01489236 -0.02772617
v 0.04796679 -0.0001483106 -0.02772617
v 0.01805256 -0.0001483146 -0.05115281
v 0.01805257 -0.01489236 -0.05115283
v 0.01805257 -0.01489236 -0.05115283
v 0.01805256 -0.0001483146 -0.05115281
v -0.01317088 -0.0001482821 -0.04896992
v -0.01317088 -0.01489233 -0.04896991
v -0.01317088 -0.01489233 -0.04896991
v -0.01317088 -0.0001482821 -0.04896992
v -0.02743328 -0.0001482519 -0.02445182
v -0.02743329 -0.01489238 -0.02445182
v -0.02743329 -0.01489238 -0.02445182
v -0.02743328 -0.0001482519 -0.02445182
v -0.04796703 -0.0002293954 0.001091373
v -0.04796701 -0.01288817 0.001091373
v -0.04796701 -0.01288817 0.001091373
v -0.04796703 -0.0002293954 0.001091373
v -0.03053337 -0.0001482535 0.02663455
v -0.03053337 -0.01489238 0.02663455
v -0.03053337 -0.01489238 0.02663455
v -0.03053337 -0.0001482535 0.02663455
v -0.008805047 -0.0001483169 0.04351246
v -0.008805047 -0.01489237 0.04351247
v -0.008805047 -0.01489237 0.04351247
v -0.008805047 -0.0001483169 0.04351246
v 0.0246013 -0.0001482964 0.05115265
v 0.0246013 -0.01489235 0.05115265
v 0.0246013 -0.01489235 0.05115265
v 0.0246013 -0.0001482964 0.05115265
v 0.03978084 -0.0001482907 0.02663457
v 0.03978086 -0.01489234 0.02663456
v 0.03978086 -0.01489234 0.02663456
v 0.03978084 -0.0001482907 0.02663457
v 0.04193417 -0.0002293658 0.001091382
v 0.04193418 -0.01288814 0.001091398
v 0.04193418 -0.01288814 0.001091398
v 0.04193417 -0.0002293658 0.001091382
v 0.04796679 -0.0001483106 -0.02772617
v 0.04796679 -0.01489236 -0.02772617
v 0.04796679 -0.0001483106 -0.02772617
v 0.0456888 0.01428339 -0.02539688
v 0.01714499 0.01428337 -0.04799134
v 0.01805256 -0.0001483146 -0.05115281
v 0.01805256 -0.0001483146 -0.05115281
v 0.01714499 0.01428337 -0.04799134
v -0.01182921 0.01428336 -0.04559771
v -0.01317088 -0.0001482821 -0.04896992
v -0.01317088 -0.0001482821 -0.04896992
v -0.01182921 0.01428336 -0.04559771
v -0.02321038 0.01428343 -0.02180645
v -0.02743328 -0.0001482519 -0.02445182
v -0.02743328 -0.0001482519 -0.02445182
v -0.02321038 0.01428343 -0.02180645
v -0.04530418 0.01197211 0.001196733
v -0.04796703 -0.0002293954 0.001091373
v -0.04796703 -0.0002293954 0.001091373
v -0.04530418 0.01197211 0.001196733
v -0.0266097 0.01428339 0.02419991
v -0.03053337 -0.0001482535 0.02663455
v -0.03053337 -0.0001482535 0.02663455
v -0.0266097 0.01428339 0.02419991
v -0.007041962 0.01428339 0.0396135
v -0.008805047 -0.0001483169 0.04351246
v -0.008805047 -0.0001483169 0.04351246
v -0.007041962 0.01428339 0.0396135
v 0.02432583 0.01428338 0.04799115
v 0.0246013 -0.0001482964 0.05115265
v 0.0246013 -0.0001482964 0.05115265
v 0.02432583 0.01428338 0.04799115
v 0.03671273 0.01428342 0.02419992
v 0.03978084 -0.0001482907 0.02663457
v 0.03978084 -0.0001482907 0.02663457
v 0.03671273 0.01428342 0.02419992
v 0.03865186 0.0119721 0.001196736
v 0.04193417 -0.0002293658 0.001091382
v 0.04193417 -0.0002293658 0.001091382
v 0.03865186 0.0119721 0.001196736
v 0.0456888 0.01428339 -0.02539688
v 0.04796679 -0.0001483106 -0.02772617
v 0.0456888 0.01428339 -0.02539688
v 0.03225234 0.02437442 -0.01614774
v 0.01203634 0.02437446 -0.03256872
v 0.01714499 0.01428337 -0.04799134
v 0.01714499 0.01428337 -0.04799134
v 0.01203634 0.02437446 -0.03256872
v -0.002592332 0.02437442 -0.02139389
v -0.01182921 0.01428336 -0.04559771
v -0.01182921 0.01428336 -0.04559771
v -0.002592332 0.02437442 -0.02139389
v -0.01125324 0.02437442 -0.01279531
v -0.02321038 0.01428343 -0.02180645
v -0.02321038 0.01428343 -0.02180645
v -0.01125324 0.02437442 -0.01279531
v -0.03124483 0.02074649 0.001117407
v -0.04530418 0.01197211 0.001196733
v -0.04530418 0.01197211 0.001196733
v -0.03124483 0.02074649 0.001117407
v -0.01442724 0.02437444 0.01503013
v -0.0266097 0.01428339 0.02419991
v -0.0266097 0.01428339 0.02419991
v -0.01442724 0.02437444 0.01503013
v -0.002592353 0.02437447 0.02474614
v -0.007041962 0.01428339 0.0396135
v -0.007041962 0.01428339 0.0396135
v -0.002592353 0.02437447 0.02474614
v 0.01874123 0.02437446 0.03256853
v 0.02432583 0.01428338 0.04799115
v 0.02432583 0.01428338 0.04799115
v 0.01874123 0.02437446 0.03256853
v 0.02387122 0.02437443 0.01503013
v 0.03671273 0.01428342 0.02419992
v 0.03671273 0.01428342 0.02419992
v 0.02387122 0.02437443 0.01503013
v 0.02504406 0.02074654 0.00111741
v 0.03865186 0.0119721 0.001196736
v 0.03865186 0.0119721 0.001196736
v 0.02504406 0.02074654 0.00111741
v 0.03225234 0.02437442 -0.01614774
v 0.0456888 0.01428339 -0.02539688
v 0.03225234 0.02437442 -0.01614774
v 0.004623753 0.03397607 0.001091342
v 0.01203634 0.02437446 -0.03256872
v 0.01203634 0.02437446 -0.03256872
v 0.004623753 0.03397607 0.001091342
v -0.002592332 0.02437442 -0.02139389
v -0.002592332 0.02437442 -0.02139389
v 0.004623753 0.03397607 0.001091342
v -0.01125324 0.02437442 -0.01279531
v -0.01125324 0.02437442 -0.01279531
v 0.004623753 0.03397607 0.001091342
v -0.03124483 0.02074649 0.001117407
v -0.03124483 0.02074649 0.001117407
v 0.004623753 0.03397607 0.001091342
v -0.01442724 0.02437444 0.01503013
v -0.01442724 0.02437444 0.01503013
v 0.004623753 0.03397607 0.001091342
v -0.002592353 0.02437447 0.02474614
v -0.002592353 0.02437447 0.02474614
v 0.004623753 0.03397607 0.001091342
v 0.01874123 0.02437446 0.03256853
v 0.01874123 0.02437446 0.03256853
v 0.004623753 0.03397607 0.001091342
v 0.02387122 0.02437443 0.01503013
v 0.02387122 0.02437443 0.01503013
v 0.004623753 0.03397607 0.001091342
v 0.02504406 0.02074654 0.00111741
v 0.02504406 0.02074654 0.00111741
v 0.004623753 0.03397607 0.001091342
v 0.03225234 0.02437442 -0.01614774

vn 0.194466 -0.9808307 0.0124031
vn 0.01063519 -0.9983207 0.05694282
vn 0.1600119 -0.9675493 0.1955618
vn 0.115093 -0.9875169 -0.1075339
vn -0.03766516 -0.9744499 -0.2214238
vn -0.1123307 -0.9769899 -0.1813072
vn -0.2017023 -0.9760351 -0.08167896
vn -0.2306042 -0.9695051 0.08295263
vn -0.1142783 -0.9734995 0.1980883
vn 0.1341804 -0.9416005 0.3088428
vn 0.1260794 -0.8914436 0.4352379
vn 0.7117526 -0.6911063 0.1256197
vn 0.7117525 -0.6911063 0.1256196
vn 0.7117525 -0.6911063 0.1256197
vn 0.7117525 -0.6911063 0.1256196
vn 0.5840101 -0.7194286 -0.3759715
vn 0.5840101 -0.7194287 -0.3759715
vn 0.5840101 -0.7194286 -0.3759715
vn 0.5840101 -0.7194287 -0.3759715
vn -0.04934537 -0.7030786 -0.7093978
vn -0.04934537 -0.7030786 -0.7093979
vn -0.04934537 -0.7030786 -0.7093978
vn -0.0493454 -0.7030786 -0.7093979
vn 0.08436167 -0.7246993 -0.6838815
vn 0.08436161 -0.7246993 -0.6838815
vn 0.08436164 -0.7246993 -0.6838815
vn 0.08436158 -0.7246993 -0.6838815
vn -0.6359363 -0.7183688 -0.2820125
vn -0.6359363 -0.7183688 -0.2820125
vn -0.6359364 -0.7183687 -0.2820125
vn -0.6359364 -0.7183688 -0.2820125
vn -0.6982293 -0.7144341 -0.04538164
vn -0.6982293 -0.7144341 -0.0453817
vn -0.6982293 -0.7144341 -0.04538167
vn -0.6982292 -0.7144341 -0.04538167
vn -0.6831026 -0.6868727 0.2481463
vn -0.6831026 -0.6868727 0.2481463
vn -0.6831026 -0.6868727 0.2481464
vn -0.6831026 -0.6868727 0.2481463
vn 0.03823283 -0.6252353 0.7794993
vn 0.0382328 -0.6252353 0.7794992
vn 0.0382328 -0.6252353 0.7794992
vn 0.03823286 -0.6252353 0.7794993
vn 0.4067308 -0.6398706 0.6520241
vn 0.4067308 -0.6398707 0.6520241
vn 0.4067308 -0.6398706 0.6520241
vn 0.4067308 -0.6398706 0.6520241
vn 0.1777119 -0.5702186 0.8020407
vn 0.177712 -0.5702184 0.8020406
vn 0.1777119 -0.5702186 0.8020407
vn 0.1777119 -0.5702185 0.8020406
vn 0.9928564 0.01627542 0.1182002
vn 0.9928564 0.01627543 0.1182003
vn 0.9928564 0.01627543 0.1182003
vn 0.9928564 0.01627542 0.1182002
vn 0.8167559 -0.02407805 -0.5764807
vn 0.8167559 -0.02407805 -0.5764807
vn 0.8167559 -0.02407805 -0.5764807
vn 0.8167559 -0.02407805 -0.5764807
vn -0.0183 -0.05569524 -0.99828
vn -0.0183 -0.05569524 -0.99828
vn -0.0183 -0.05569524 -0.99828
vn -0.0183 -0.05569524 -0.99828
vn 0.1315515 -0.05376212 -0.9898504
vn 0.1315515 -0.05376212 -0.9898505
vn 0.1315515 -0.05376212 -0.9898504
vn 0.1315515 -0.05376212 -0.9898504
vn -0.910278 -0.03185015 -0.4127706
vn -0.910278 -0.03185015 -0.4127706
vn -0.910278 -0.03185014 -0.4127705
vn -0.910278 -0.03185015 -0.4127706
vn -0.9933187 -0.01606194 -0.1142802
vn -0.9933187 -0.01606194 -0.1142802
vn -0.9933187 -0.01606194 -0.1142802
vn -0.9933187 -0.01606194 -0.1142802
vn -0.9490876 0.008238131 0.3149046
vn -0.9490876 0.008238131 0.3149046
vn -0.9490876 0.008238131 0.3149046
vn -0.9490876 0.008238131 0.3149046
vn -0.009193987 0.05543435 0.9984201
vn -0.009193987 0.05543435 0.9984201
vn -0.009193987 0.05543435 0.9984201
vn -0.009193987 0.05543435 0.9984201
vn 0.4448787 0.05406212 0.8939576
vn 0.4448787 0.05406212 0.8939577
vn 0.4448787 0.05406212 0.8939576
vn 0.4448787 0.05406212 0.8939577
vn 0.3323448 0.05560735 0.9415172
vn 0.3323449 0.05560734 0.9415172
vn 0.3323448 0.05560735 0.9415172
vn 0.3323448 0.05560735 0.9415172
vn 0.9677498 0.228456 0.1061514
vn 0.9677498 0.228456 0.1061514
vn 0.9677498 0.228456 0.1061514
vn 0.9677498 0.228456 0.1061514
vn 0.7909238 0.1970983 -0.5793028
vn 0.7909238 0.1970983 -0.5793028
vn 0.7909238 0.1970983 -0.5793028
vn 0.7909238 0.1970983 -0.5793028
vn -0.05770943 0.2044018 -0.9771845
vn -0.05770949 0.2044018 -0.9771845
vn -0.05770937 0.2044018 -0.9771845
vn -0.05770943 0.2044018 -0.9771844
vn 0.1569722 0.2028224 -0.9665521
vn 0.1569722 0.2028224 -0.966552
vn 0.1569722 0.2028224 -0.9665521
vn 0.1569722 0.2028224 -0.966552
vn -0.8971899 0.2139156 -0.3863813
vn -0.8971899 0.2139156 -0.3863813
vn -0.8971899 0.2139156 -0.3863813
vn -0.8971899 0.2139156 -0.3863813
vn -0.9553215 0.2662356 -0.1283721
vn -0.9553214 0.2662356 -0.1283722
vn -0.9553216 0.2662356 -0.1283722
vn -0.9553216 0.2662356 -0.1283722
vn -0.92838 0.2490403 0.2758433
vn -0.9283799 0.2490403 0.2758433
vn -0.92838 0.2490403 0.2758433
vn -0.92838 0.2490403 0.2758433
vn 0.0242368 0.2474173 0.9686059
vn 0.0242368 0.2474173 0.9686059
vn 0.02423674 0.2474173 0.9686058
vn 0.0242368 0.2474174 0.9686059
vn 0.4402714 0.289111 0.8500447
vn 0.4402714 0.2891109 0.8500447
vn 0.4402714 0.2891109 0.8500447
vn 0.4402714 0.2891109 0.8500447
vn 0.2945934 0.2329655 0.9267911
vn 0.2945934 0.2329655 0.9267911
vn 0.2945934 0.2329655 0.9267911
vn 0.2945934 0.2329655 0.9267911
vn 0.5346659 0.8447247 0.02392286
vn 0.5346659 0.8447247 0.02392283
vn 0.5346659 0.8447247 0.02392286
vn 0.5346659 0.8447247 0.02392283
vn 0.2953403 0.8708864 -0.3928496
vn 0.2953403 0.8708864 -0.3928496
vn 0.2953403 0.8708864 -0.3928496
vn 0.2953404 0.8708864 -0.3928495
vn -0.004059955 0.8405538 -0.5417128
vn -0.004059941 0.8405538 -0.5417128
vn -0.004059955 0.8405538 -0.5417128
vn -0.004059941 0.8405538 -0.5417128
vn 0.08737026 0.7720263 -0.6295567
vn 0.08737026 0.7720264 -0.6295567
vn 0.08737026 0.7720264 -0.6295567
vn 0.08737026 0.7720264 -0.6295567
vn -0.5311846 0.7989604 -0.2819664
vn -0.5311846 0.7989604 -0.2819664
vn -0.5311846 0.7989604 -0.2819664
vn -0.5311846 0.7989604 -0.2819664
vn -0.5723227 0.8113693 -0.1188552
vn -0.5723227 0.8113692 -0.1188553
vn -0.5723227 0.8113692 -0.1188552
vn -0.5723227 0.8113692 -0.1188553
vn -0.5667684 0.8183141 0.09557924
vn -0.5667684 0.8183141 0.09557927
vn -0.5667684 0.8183141 0.09557927
vn -0.5667684 0.8183141 0.09557927
vn 0.07921401 0.829059 0.5535215
vn 0.07921402 0.829059 0.5535215
vn 0.07921401 0.829059 0.5535215
vn 0.07921402 0.829059 0.5535215
vn 0.3685325 0.8269974 0.424569
vn 0.3685324 0.8269975 0.4245689
vn 0.3685325 0.8269975 0.4245689
vn 0.3685325 0.8269974 0.424569
vn 0.05543736 0.7696213 0.6360893
vn 0.05543739 0.7696214 0.6360893
vn 0.05543736 0.7696213 0.6360893
vn 0.05543736 0.7696213 0.6360893
vn 0.2854944 0.9582977 -0.01257972
vn 0.2854944 0.9582977 -0.01257974
vn 0.2854944 0.9582977 -0.01257972
vn 0.135537 0.8976101 -0.4194348
vn 0.135537 0.8976101 -0.4194348
vn 0.135537 0.8976101 -0.4194348
vn 0.09135123 0.886912 -0.4528154
vn 0.09135123 0.886912 -0.4528155
vn 0.0913512 0.886912 -0.4528155
vn 0.02666627 0.8854411 -0.4639857
vn 0.02666627 0.8854411 -0.4639857
vn 0.02666627 0.8854411 -0.4639857
vn -0.3319194 0.9085708 -0.2536306
vn -0.3319193 0.9085708 -0.2536306
vn -0.3319194 0.9085708 -0.2536306
vn -0.3922914 0.9137374 -0.1057892
vn -0.3922914 0.9137374 -0.1057892
vn -0.3922914 0.9137374 -0.1057892
vn -0.3647041 0.9309474 0.01810183
vn -0.3647041 0.9309474 0.0181018
vn -0.3647041 0.9309474 0.01810181
vn 0.09259264 0.9397106 0.3291964
vn 0.09259267 0.9397106 0.3291965
vn 0.09259268 0.9397106 0.3291965
vn 0.4155563 0.8502305 0.3231423
vn 0.4155562 0.8502305 0.3231423
vn 0.4155562 0.8502305 0.3231423
vn -0.06605729 0.8114607 0.5806615
vn -0.06605735 0.8114607 0.5806615
vn -0.06605732 0.8114607 0.5806615

vt 0.5483398 0.007648468
vt 0.5 0.1500244
vt 0.6264648 0.06439209
vt 0.4516602 0.007648468
vt 0.3735352 0.06439209
vt 0.34375 0.15625
vt 0.3735352 0.2480469
vt 0.4516602 0.3049316
vt 0.5483398 0.3049316
vt 0.6264648 0.2480469
vt 0.65625 0.15625
vt 0 0
vt 0 1
vt 1 1
vt 1 0
vt 0 0
vt 0 1
vt 1 1
vt 1 0
vt 0 0
vt 0 1
vt 1 1
vt 1 0
vt 0 0
vt 0 1
vt 1 1
vt 1 0
vt 0 0
vt 0 1
vt 1 1
vt 1 0
vt 0 0
vt 0 1
vt 1 1
vt 1 0
vt 0 0
vt 0 1
vt 1 1
vt 1 0
vt 0 0
vt 0 1
vt 1 1
vt 1 0
vt 0 0
vt 0 1
vt 1 1
vt 1 0
vt 0 0
vt 0 1
vt 1 1
vt 1 0
vt 0 0
vt 0 1
vt 1 1
vt 1 0
vt 0 0
vt 0 1
vt 1 1
vt 1 0
vt 0 0
vt 0 1
vt 1 1
vt 1 0
vt 0 0
vt 0 1
vt 1 1
vt 1 0
vt 0 0
vt 0 1
vt 1 1
vt 1 0
vt 0 0
vt 0 1
vt 1 1
vt 1 0
vt 0 0
vt 0 1
vt 1 1
vt 1 0
vt 0 0
vt 0 1
vt 1 1
vt 1 0
vt 0 0
vt 0 1
vt 1 1
vt 1 0
vt 0 0
vt 0 1
vt 1 1
vt 1 0
vt 0 0
vt 0 1
vt 1 1
vt 1 0
vt 0 0
vt 0 1
vt 1 1
vt 1 0
vt 0 0
vt 0 1
vt 1 1
vt 1 0
vt 0 0
vt 0 1
vt 1 1
vt 1 0
vt 0 0
vt 0 1
vt 1 1
vt 1 0
vt 0 0
vt 0 1
vt 1 1
vt 1 0
vt 0 0
vt 0 1
vt 1 1
vt 1 0
vt 0 0
vt 0 1
vt 1 1
vt 1 0
vt 0 0
vt 0 1
vt 1 1
vt 1 0
vt 0 0
vt 0 1
vt 1 1
vt 1 0
vt 0 0
vt 0 1
vt 1 1
vt 1 0
vt 0 0
vt 0 1
vt 1 1
vt 1 0
vt 0 0
vt 0 1
vt 1 1
vt 1 0
vt 0 0
vt 0 1
vt 1 1
vt 1 0
vt 0 0
vt 0 1
vt 1 1
vt 1 0
vt 0 0
vt 0 1
vt 1 1
vt 1 0
vt 0 0
vt 0 1
vt 1 1
vt 1 0
vt 0 0
vt 0 1
vt 1 1
vt 1 0
vt 0 0
vt 0 1
vt 1 1
vt 1 0
vt 0 0
vt 0 1
vt 1 1
vt 1 0
vt 0 0
vt 0.5 1
vt 1 0
vt 0 0
vt 0.5 1
vt 1 0
vt 0 0
vt 0.5 1
vt 1 0
vt 0 0
vt 0.5 1
vt 1 0
vt 0 0
vt 0.5 1
vt 1 0
vt 0 0
vt 0.5 1
vt 1 0
vt 0 0
vt 0.5 1
vt 1 0
vt 0 0
vt 0.5 1
vt 1 0
vt 0 0
vt 0.5 1
vt 1 0
vt 0 0
vt 0.5 1
vt 1 0

g Foliage4_3_4157_226
usemtl Foliage4_3_4157_226
usemap Foliage4_3_4157_226
f 1/1/1 3/3/3 2/2/2
f 4/4/4 1/1/1 2/2/2
f 5/5/5 4/4/4 2/2/2
f 6/6/6 5/5/5 2/2/2
f 7/7/7 6/6/6 2/2/2
f 8/8/8 7/7/7 2/2/2
f 9/9/9 8/8/8 2/2/2
f 10/10/10 9/9/9 2/2/2
f 11/11/11 10/10/10 2/2/2
f 3/3/3 11/11/11 2/2/2
f 12/12/12 14/14/14 13/13/13
f 12/12/12 15/15/15 14/14/14
f 16/16/16 18/18/18 17/17/17
f 16/16/16 19/19/19 18/18/18
f 20/20/20 22/22/22 21/21/21
f 20/20/20 23/23/23 22/22/22
f 24/24/24 26/26/26 25/25/25
f 24/24/24 27/27/27 26/26/26
f 28/28/28 30/30/30 29/29/29
f 28/28/28 31/31/31 30/30/30
f 32/32/32 34/34/34 33/33/33
f 32/32/32 35/35/35 34/34/34
f 36/36/36 38/38/38 37/37/37
f 36/36/36 39/39/39 38/38/38
f 40/40/40 42/42/42 41/41/41
f 40/40/40 43/43/43 42/42/42
f 44/44/44 46/46/46 45/45/45
f 44/44/44 47/47/47 46/46/46
f 48/48/48 50/50/50 49/49/49
f 48/48/48 51/51/51 50/50/50
f 52/52/52 54/54/54 53/53/53
f 52/52/52 55/55/55 54/54/54
f 56/56/56 58/58/58 57/57/57
f 56/56/56 59/59/59 58/58/58
f 60/60/60 62/62/62 61/61/61
f 60/60/60 63/63/63 62/62/62
f 64/64/64 66/66/66 65/65/65
f 64/64/64 67/67/67 66/66/66
f 68/68/68 70/70/70 69/69/69
f 68/68/68 71/71/71 70/70/70
f 72/72/72 74/74/74 73/73/73
f 72/72/72 75/75/75 74/74/74
f 76/76/76 78/78/78 77/77/77
f 76/76/76 79/79/79 78/78/78
f 80/80/80 82/82/82 81/81/81
f 80/80/80 83/83/83 82/82/82
f 84/84/84 86/86/86 85/85/85
f 84/84/84 87/87/87 86/86/86
f 88/88/88 90/90/90 89/89/89
f 88/88/88 91/91/91 90/90/90
f 92/92/92 94/94/94 93/93/93
f 92/92/92 95/95/95 94/94/94
f 96/96/96 98/98/98 97/97/97
f 96/96/96 99/99/99 98/98/98
f 100/100/100 102/102/102 101/101/101
f 100/100/100 103/103/103 102/102/102
f 104/104/104 106/106/106 105/105/105
f 104/104/104 107/107/107 106/106/106
f 108/108/108 110/110/110 109/109/109
f 108/108/108 111/111/111 110/110/110
f 112/112/112 114/114/114 113/113/113
f 112/112/112 115/115/115 114/114/114
f 116/116/116 118/118/118 117/117/117
f 116/116/116 119/119/119 118/118/118
f 120/120/120 122/122/122 121/121/121
f 120/120/120 123/123/123 122/122/122
f 124/124/124 126/126/126 125/125/125
f 124/124/124 127/127/127 126/126/126
f 128/128/128 130/130/130 129/129/129
f 128/128/128 131/131/131 130/130/130
f 132/132/132 134/134/134 133/133/133
f 132/132/132 135/135/135 134/134/134
f 136/136/136 138/138/138 137/137/137
f 136/136/136 139/139/139 138/138/138
f 140/140/140 142/142/142 141/141/141
f 140/140/140 143/143/143 142/142/142
f 144/144/144 146/146/146 145/145/145
f 144/144/144 147/147/147 146/146/146
f 148/148/148 150/150/150 149/149/149
f 148/148/148 151/151/151 150/150/150
f 152/152/152 154/154/154 153/153/153
f 152/152/152 155/155/155 154/154/154
f 156/156/156 158/158/158 157/157/157
f 156/156/156 159/159/159 158/158/158
f 160/160/160 162/162/162 161/161/161
f 160/160/160 163/163/163 162/162/162
f 164/164/164 166/166/166 165/165/165
f 164/164/164 167/167/167 166/166/166
f 168/168/168 170/170/170 169/169/169
f 168/168/168 171/171/171 170/170/170
f 172/172/172 174/174/174 173/173/173
f 175/175/175 177/177/177 176/176/176
f 178/178/178 180/180/180 179/179/179
f 181/181/181 183/183/183 182/182/182
f 184/184/184 186/186/186 185/185/185
f 187/187/187 189/189/189 188/188/188
f 190/190/190 192/192/192 191/191/191
f 193/193/193 195/195/195 194/194/194
f 196/196/196 198/198/198 197/197/197
f 199/199/199 201/201/201 200/200/200
