#Foliage8_1_4197_163.obj

v 0.01454536 -0.02577564 -0.04035866
v 0.004623955 -0.03397609 0.001091059
v 0.03878461 -0.02577558 -0.02105508
v -0.009663343 -0.02577566 -0.03817574
v -0.01825071 -0.02577567 -0.01778079
v -0.03822205 -0.02223214 0.001091058
v -0.0213508 -0.02577569 0.01996286
v -0.005297529 -0.02577559 0.03271766
v 0.02109412 -0.02577569 0.04035787
v 0.03059869 -0.02577557 0.01996287
v 0.03218951 -0.02223218 0.001091053
v 0.03878461 -0.02577558 -0.02105508
v 0.04796695 -0.01489242 -0.02772653
v 0.01805273 -0.01489235 -0.05115315
v 0.01454536 -0.02577564 -0.04035866
v 0.01454536 -0.02577564 -0.04035866
v 0.01805273 -0.01489235 -0.05115315
v -0.01317067 -0.0148923 -0.04897022
v -0.009663343 -0.02577566 -0.03817574
v -0.009663343 -0.02577566 -0.03817574
v -0.01317067 -0.0148923 -0.04897022
v -0.02743308 -0.01489237 -0.02445212
v -0.01825071 -0.02577567 -0.01778079
v -0.01825071 -0.02577567 -0.01778079
v -0.02743308 -0.01489237 -0.02445212
v -0.04796681 -0.01288815 0.001091085
v -0.03822205 -0.02223214 0.001091058
v -0.03822205 -0.02223214 0.001091058
v -0.04796681 -0.01288815 0.001091085
v -0.03053318 -0.01489241 0.02663426
v -0.0213508 -0.02577569 0.01996286
v -0.0213508 -0.02577569 0.01996286
v -0.03053318 -0.01489241 0.02663426
v -0.008804872 -0.01489246 0.04351214
v -0.005297529 -0.02577559 0.03271766
v -0.005297529 -0.02577559 0.03271766
v -0.008804872 -0.01489246 0.04351214
v 0.02460148 -0.01489229 0.05115234
v 0.02109412 -0.02577569 0.04035787
v 0.02109412 -0.02577569 0.04035787
v 0.02460148 -0.01489229 0.05115234
v 0.03978106 -0.01489231 0.02663429
v 0.03059869 -0.02577557 0.01996287
v 0.03059869 -0.02577557 0.01996287
v 0.03978106 -0.01489231 0.02663429
v 0.04193435 -0.01288821 0.001091055
v 0.03218951 -0.02223218 0.001091053
v 0.03218951 -0.02223218 0.001091053
v 0.04193435 -0.01288821 0.001091055
v 0.04796695 -0.01489242 -0.02772653
v 0.03878461 -0.02577558 -0.02105508
v 0.04796695 -0.01489242 -0.02772653
v 0.047967 -0.0001481909 -0.02772646
v 0.01805278 -0.0001482798 -0.05115313
v 0.01805273 -0.01489235 -0.05115315
v 0.01805273 -0.01489235 -0.05115315
v 0.01805278 -0.0001482798 -0.05115313
v -0.01317071 -0.0001483699 -0.04897029
v -0.01317067 -0.0148923 -0.04897022
v -0.01317067 -0.0148923 -0.04897022
v -0.01317071 -0.0001483699 -0.04897029
v -0.02743311 -0.0001482743 -0.02445214
v -0.02743308 -0.01489237 -0.02445212
v -0.02743308 -0.01489237 -0.02445212
v -0.02743311 -0.0001482743 -0.02445214
v -0.04796688 -0.0002294635 0.001091026
v -0.04796681 -0.01288815 0.001091085
v -0.04796681 -0.01288815 0.001091085
v -0.04796688 -0.0002294635 0.001091026
v -0.0305332 -0.000148318 0.02663424
v -0.03053318 -0.01489241 0.02663426
v -0.03053318 -0.01489241 0.02663426
v -0.0305332 -0.000148318 0.02663424
v -0.00880487 -0.000148209 0.04351216
v -0.008804872 -0.01489246 0.04351214
v -0.008804872 -0.01489246 0.04351214
v -0.00880487 -0.000148209 0.04351216
v 0.02460147 -0.0001483747 0.05115235
v 0.02460148 -0.01489229 0.05115234
v 0.02460148 -0.01489229 0.05115234
v 0.02460147 -0.0001483747 0.05115235
v 0.03978102 -0.0001483716 0.02663422
v 0.03978106 -0.01489231 0.02663429
v 0.03978106 -0.01489231 0.02663429
v 0.03978102 -0.0001483716 0.02663422
v 0.04193434 -0.0002295543 0.001091053
v 0.04193435 -0.01288821 0.001091055
v 0.04193435 -0.01288821 0.001091055
v 0.04193434 -0.0002295543 0.001091053
v 0.047967 -0.0001481909 -0.02772646
v 0.04796695 -0.01489242 -0.02772653
v 0.047967 -0.0001481909 -0.02772646
v 0.04568899 0.01428328 -0.02539722
v 0.0171452 0.01428347 -0.04799166
v 0.01805278 -0.0001482798 -0.05115313
v 0.01805278 -0.0001482798 -0.05115313
v 0.0171452 0.01428347 -0.04799166
v -0.01182907 0.01428327 -0.04559811
v -0.01317071 -0.0001483699 -0.04897029
v -0.01317071 -0.0001483699 -0.04897029
v -0.01182907 0.01428327 -0.04559811
v -0.02321022 0.01428326 -0.02180683
v -0.02743311 -0.0001482743 -0.02445214
v -0.02743311 -0.0001482743 -0.02445214
v -0.02321022 0.01428326 -0.02180683
v -0.04530407 0.011972 0.001196384
v -0.04796688 -0.0002294635 0.001091026
v -0.04796688 -0.0002294635 0.001091026
v -0.04530407 0.011972 0.001196384
v -0.02660955 0.01428334 0.02419958
v -0.0305332 -0.000148318 0.02663424
v -0.0305332 -0.000148318 0.02663424
v -0.02660955 0.01428334 0.02419958
v -0.007041829 0.01428335 0.03961318
v -0.00880487 -0.000148209 0.04351216
v -0.00880487 -0.000148209 0.04351216
v -0.007041829 0.01428335 0.03961318
v 0.02432601 0.01428329 0.04799084
v 0.02460147 -0.0001483747 0.05115235
v 0.02460147 -0.0001483747 0.05115235
v 0.02432601 0.01428329 0.04799084
v 0.0367129 0.01428352 0.0241996
v 0.03978102 -0.0001483716 0.02663422
v 0.03978102 -0.0001483716 0.02663422
v 0.0367129 0.01428352 0.0241996
v 0.03865203 0.01197205 0.001196395
v 0.04193434 -0.0002295543 0.001091053
v 0.04193434 -0.0002295543 0.001091053
v 0.03865203 0.01197205 0.001196395
v 0.04568899 0.01428328 -0.02539722
v 0.047967 -0.0001481909 -0.02772646
v 0.04568899 0.01428328 -0.02539722
v 0.03225256 0.02437456 -0.01614804
v 0.01203653 0.02437449 -0.03256904
v 0.0171452 0.01428347 -0.04799166
v 0.0171452 0.01428347 -0.04799166
v 0.01203653 0.02437449 -0.03256904
v -0.002592158 0.02437429 -0.02139423
v -0.01182907 0.01428327 -0.04559811
v -0.01182907 0.01428327 -0.04559811
v -0.002592158 0.02437429 -0.02139423
v -0.01125302 0.02437448 -0.01279559
v -0.02321022 0.01428326 -0.02180683
v -0.02321022 0.01428326 -0.02180683
v -0.01125302 0.02437448 -0.01279559
v -0.03124461 0.02074649 0.001117089
v -0.04530407 0.011972 0.001196384
v -0.04530407 0.011972 0.001196384
v -0.03124461 0.02074649 0.001117089
v -0.01442703 0.02437448 0.01502983
v -0.02660955 0.01428334 0.02419958
v -0.02660955 0.01428334 0.02419958
v -0.01442703 0.02437448 0.01502983
v -0.002592182 0.0243745 0.02474581
v -0.007041829 0.01428335 0.03961318
v -0.007041829 0.01428335 0.03961318
v -0.002592182 0.0243745 0.02474581
v 0.01874144 0.02437457 0.03256822
v 0.02432601 0.01428329 0.04799084
v 0.02432601 0.01428329 0.04799084
v 0.01874144 0.02437457 0.03256822
v 0.02387138 0.02437436 0.01502981
v 0.0367129 0.01428352 0.0241996
v 0.0367129 0.01428352 0.0241996
v 0.02387138 0.02437436 0.01502981
v 0.02504426 0.02074641 0.001117073
v 0.03865203 0.01197205 0.001196395
v 0.03865203 0.01197205 0.001196395
v 0.02504426 0.02074641 0.001117073
v 0.03225256 0.02437456 -0.01614804
v 0.04568899 0.01428328 -0.02539722
v 0.03225256 0.02437456 -0.01614804
v 0.004623885 0.033976 0.001090981
v 0.01203653 0.02437449 -0.03256904
v 0.01203653 0.02437449 -0.03256904
v 0.004623885 0.033976 0.001090981
v -0.002592158 0.02437429 -0.02139423
v -0.002592158 0.02437429 -0.02139423
v 0.004623885 0.033976 0.001090981
v -0.01125302 0.02437448 -0.01279559
v -0.01125302 0.02437448 -0.01279559
v 0.004623885 0.033976 0.001090981
v -0.03124461 0.02074649 0.001117089
v -0.03124461 0.02074649 0.001117089
v 0.004623885 0.033976 0.001090981
v -0.01442703 0.02437448 0.01502983
v -0.01442703 0.02437448 0.01502983
v 0.004623885 0.033976 0.001090981
v -0.002592182 0.0243745 0.02474581
v -0.002592182 0.0243745 0.02474581
v 0.004623885 0.033976 0.001090981
v 0.01874144 0.02437457 0.03256822
v 0.01874144 0.02437457 0.03256822
v 0.004623885 0.033976 0.001090981
v 0.02387138 0.02437436 0.01502981
v 0.02387138 0.02437436 0.01502981
v 0.004623885 0.033976 0.001090981
v 0.02504426 0.02074641 0.001117073
v 0.02504426 0.02074641 0.001117073
v 0.004623885 0.033976 0.001090981
v 0.03225256 0.02437456 -0.01614804

vn 0.1838634 -0.9649972 -0.1870137
vn 0.2729323 -0.9618401 -0.01926325
vn 0.3623515 -0.9108105 -0.1978009
vn 0.09039792 -0.9926032 -0.08103362
vn 0.01545025 -0.9953939 0.09461308
vn 0.07146328 -0.9849432 0.1574148
vn 0.1864743 -0.9574823 0.2201233
vn 0.347624 -0.91417 0.2084471
vn 0.4302653 -0.9001514 0.06781349
vn 0.4698672 -0.8597423 -0.2001689
vn 0.5802744 -0.7832894 -0.2230222
vn 0.1056624 -0.6882682 -0.7177201
vn 0.1056623 -0.6882682 -0.71772
vn 0.1056625 -0.6882682 -0.71772
vn 0.1056623 -0.6882682 -0.71772
vn -0.332939 -0.8159225 -0.472675
vn -0.332939 -0.8159226 -0.472675
vn -0.332939 -0.8159225 -0.472675
vn -0.3329391 -0.8159226 -0.472675
vn -0.5039284 -0.8346485 0.2223009
vn -0.5039284 -0.8346484 0.2223009
vn -0.5039284 -0.8346485 0.2223009
vn -0.5039284 -0.8346484 0.2223009
vn -0.5062743 -0.858024 0.0864915
vn -0.5062743 -0.8580239 0.08649158
vn -0.5062743 -0.8580239 0.08649153
vn -0.5062743 -0.8580239 0.08649155
vn 0.04131117 -0.7239561 0.6886077
vn 0.04131117 -0.7239561 0.6886077
vn 0.04131113 -0.723956 0.6886078
vn 0.04131117 -0.723956 0.6886078
vn 0.279004 -0.6658124 0.6919901
vn 0.279004 -0.6658124 0.6919903
vn 0.279004 -0.6658124 0.6919901
vn 0.279004 -0.6658124 0.6919901
vn 0.5471895 -0.5769356 0.6064063
vn 0.5471895 -0.5769357 0.6064063
vn 0.5471896 -0.5769357 0.6064063
vn 0.5471895 -0.5769356 0.6064063
vn 0.8676302 -0.4448733 -0.2220484
vn 0.8676301 -0.4448733 -0.2220484
vn 0.8676301 -0.4448733 -0.2220484
vn 0.8676302 -0.4448733 -0.2220485
vn 0.6639621 -0.5078391 -0.5488656
vn 0.6639621 -0.5078392 -0.5488656
vn 0.6639621 -0.5078391 -0.5488656
vn 0.6639621 -0.5078391 -0.5488656
vn 0.8441118 -0.3944952 -0.3631098
vn 0.8441117 -0.394495 -0.3631099
vn 0.8441118 -0.3944952 -0.3631098
vn 0.8441117 -0.3944951 -0.3631098
vn -0.1241214 -0.01643395 -0.9921309
vn -0.1241213 -0.01643394 -0.992131
vn -0.1241213 -0.01643394 -0.992131
vn -0.1241214 -0.01643395 -0.9921309
vn -0.7315054 -0.194377 -0.6535423
vn -0.7315054 -0.194377 -0.6535423
vn -0.7315054 -0.194377 -0.6535423
vn -0.7315054 -0.194377 -0.6535423
vn -0.9282902 -0.2670988 0.2587186
vn -0.9282902 -0.2670988 0.2587186
vn -0.9282902 -0.2670988 0.2587186
vn -0.9282902 -0.2670988 0.2587186
vn -0.9558151 -0.2721053 0.111248
vn -0.9558151 -0.2721053 0.111248
vn -0.9558151 -0.2721053 0.111248
vn -0.9558151 -0.2721053 0.111248
vn -0.1705801 -0.06664892 0.9830871
vn -0.1705801 -0.06664892 0.9830871
vn -0.17058 -0.06664889 0.9830872
vn -0.1705801 -0.06664892 0.9830871
vn 0.1278927 0.0175087 0.9916335
vn 0.1278927 0.0175087 0.9916335
vn 0.1278927 0.0175087 0.9916335
vn 0.1278927 0.0175087 0.9916335
vn 0.5183969 0.1305769 0.845112
vn 0.5183969 0.1305769 0.845112
vn 0.5183969 0.1305769 0.845112
vn 0.5183969 0.1305769 0.845112
vn 0.934916 0.2684701 -0.2320686
vn 0.934916 0.2684701 -0.2320686
vn 0.934916 0.2684701 -0.2320686
vn 0.934916 0.2684701 -0.2320686
vn 0.7300577 0.2183998 -0.6475471
vn 0.7300577 0.2183998 -0.6475471
vn 0.7300577 0.2183998 -0.6475471
vn 0.7300577 0.2183998 -0.6475471
vn 0.8010731 0.2366262 -0.5498088
vn 0.8010731 0.2366262 -0.5498089
vn 0.8010731 0.2366262 -0.5498088
vn 0.8010731 0.2366262 -0.5498088
vn -0.1767314 0.1893305 -0.9658779
vn -0.1767315 0.1893305 -0.9658778
vn -0.1767315 0.1893305 -0.9658778
vn -0.1767315 0.1893305 -0.9658778
vn -0.7772081 0.02217768 -0.6288527
vn -0.7772081 0.0221777 -0.6288527
vn -0.7772081 0.0221777 -0.6288527
vn -0.7772081 0.0221777 -0.6288527
vn -0.9568117 -0.006682388 0.2906314
vn -0.9568117 -0.006682388 0.2906315
vn -0.9568118 -0.006682396 0.2906314
vn -0.9568117 -0.006682448 0.2906314
vn -0.9966466 -0.01840467 0.07972986
vn -0.9966465 -0.01840467 0.0797298
vn -0.9966465 -0.0184047 0.07972986
vn -0.9966465 -0.01840466 0.07972991
vn -0.2031985 0.1778807 0.9628443
vn -0.2031985 0.1778807 0.9628443
vn -0.2031985 0.1778807 0.9628442
vn -0.2031985 0.1778807 0.9628443
vn 0.04301986 0.2875412 0.9568015
vn 0.04301977 0.2875412 0.9568017
vn 0.04301983 0.2875412 0.9568017
vn 0.04301983 0.2875412 0.9568017
vn 0.4231434 0.3558035 0.8332787
vn 0.4231435 0.3558035 0.8332787
vn 0.4231434 0.3558035 0.8332787
vn 0.4231434 0.3558035 0.8332787
vn 0.8562701 0.4473376 -0.258245
vn 0.8562701 0.4473376 -0.258245
vn 0.8562701 0.4473376 -0.2582449
vn 0.8562701 0.4473376 -0.258245
vn 0.6374138 0.4384464 -0.6336152
vn 0.6374139 0.4384464 -0.6336152
vn 0.6374139 0.4384464 -0.6336152
vn 0.6374139 0.4384464 -0.6336152
vn 0.7566155 0.4085972 -0.5104714
vn 0.7566155 0.4085972 -0.5104714
vn 0.7566155 0.4085972 -0.5104714
vn 0.7566155 0.4085972 -0.5104714
vn -0.2899422 0.7977493 -0.528705
vn -0.2899423 0.7977493 -0.5287051
vn -0.2899422 0.7977493 -0.528705
vn -0.2899423 0.7977493 -0.5287051
vn -0.6342297 0.7478666 -0.1960816
vn -0.6342297 0.7478665 -0.1960816
vn -0.6342297 0.7478666 -0.1960816
vn -0.6342297 0.7478666 -0.1960816
vn -0.6983276 0.7037775 0.1305198
vn -0.6983277 0.7037775 0.1305197
vn -0.6983276 0.7037775 0.1305198
vn -0.6983277 0.7037775 0.1305197
vn -0.7876719 0.6128345 0.06329629
vn -0.7876719 0.6128345 0.06329629
vn -0.7876719 0.6128345 0.06329629
vn -0.7876719 0.6128345 0.06329629
vn -0.319851 0.7494591 0.5796602
vn -0.319851 0.7494592 0.5796602
vn -0.319851 0.7494591 0.5796603
vn -0.319851 0.7494591 0.5796602
vn -0.1585809 0.7988884 0.5801976
vn -0.1585809 0.7988883 0.5801976
vn -0.1585809 0.7988883 0.5801976
vn -0.1585809 0.7988883 0.5801976
vn 0.04155311 0.8512744 0.5230724
vn 0.04155314 0.8512744 0.5230724
vn 0.04155314 0.8512744 0.5230724
vn 0.04155314 0.8512744 0.5230724
vn 0.3214364 0.9223608 -0.2143094
vn 0.3214365 0.9223609 -0.2143094
vn 0.3214365 0.9223609 -0.2143094
vn 0.3214365 0.9223609 -0.2143094
vn 0.1321131 0.8759342 -0.463988
vn 0.132113 0.8759342 -0.4639879
vn 0.132113 0.8759342 -0.4639879
vn 0.1321131 0.8759342 -0.4639879
vn 0.418346 0.8834735 -0.210857
vn 0.418346 0.8834736 -0.210857
vn 0.418346 0.8834735 -0.210857
vn 0.418346 0.8834735 -0.210857
vn -0.2913729 0.9151317 -0.2786309
vn -0.2913729 0.9151317 -0.2786309
vn -0.2913729 0.9151317 -0.2786309
vn -0.6279196 0.7775035 -0.03471287
vn -0.6279196 0.7775035 -0.03471288
vn -0.6279196 0.7775035 -0.0347129
vn -0.6468001 0.7624859 0.01626845
vn -0.6468001 0.7624859 0.01626843
vn -0.6468001 0.7624859 0.01626846
vn -0.6419065 0.762413 0.08174463
vn -0.6419065 0.762413 0.08174463
vn -0.6419065 0.762413 0.08174463
vn -0.3639925 0.8508407 0.3789184
vn -0.3639925 0.8508407 0.3789183
vn -0.3639925 0.8508407 0.3789184
vn -0.2110672 0.8910534 0.4018384
vn -0.2110672 0.8910534 0.4018384
vn -0.2110672 0.8910534 0.4018384
vn -0.1040729 0.9327733 0.3451118
vn -0.1040729 0.9327733 0.3451118
vn -0.1040729 0.9327733 0.3451118
vn 0.08141483 0.9814206 -0.1737375
vn 0.08141489 0.9814206 -0.1737376
vn 0.08141492 0.9814205 -0.1737376
vn 0.01994476 0.8741306 -0.4852807
vn 0.01994474 0.8741306 -0.4852807
vn 0.01994473 0.8741307 -0.4852807
vn 0.3850341 0.9194469 -0.07978472
vn 0.3850341 0.9194469 -0.07978466
vn 0.3850341 0.9194469 -0.07978469

vt 0.5483398 0.007648468
vt 0.5 0.1500244
vt 0.6264648 0.06439209
vt 0.4516602 0.007648468
vt 0.3735352 0.06439209
vt 0.34375 0.15625
vt 0.3735352 0.2480469
vt 0.4516602 0.3049316
vt 0.5483398 0.3049316
vt 0.6264648 0.2480469
vt 0.65625 0.15625
vt 0 0
vt 0 1
vt 1 1
vt 1 0
vt 0 0
vt 0 1
vt 1 1
vt 1 0
vt 0 0
vt 0 1
vt 1 1
vt 1 0
vt 0 0
vt 0 1
vt 1 1
vt 1 0
vt 0 0
vt 0 1
vt 1 1
vt 1 0
vt 0 0
vt 0 1
vt 1 1
vt 1 0
vt 0 0
vt 0 1
vt 1 1
vt 1 0
vt 0 0
vt 0 1
vt 1 1
vt 1 0
vt 0 0
vt 0 1
vt 1 1
vt 1 0
vt 0 0
vt 0 1
vt 1 1
vt 1 0
vt 0 0
vt 0 1
vt 1 1
vt 1 0
vt 0 0
vt 0 1
vt 1 1
vt 1 0
vt 0 0
vt 0 1
vt 1 1
vt 1 0
vt 0 0
vt 0 1
vt 1 1
vt 1 0
vt 0 0
vt 0 1
vt 1 1
vt 1 0
vt 0 0
vt 0 1
vt 1 1
vt 1 0
vt 0 0
vt 0 1
vt 1 1
vt 1 0
vt 0 0
vt 0 1
vt 1 1
vt 1 0
vt 0 0
vt 0 1
vt 1 1
vt 1 0
vt 0 0
vt 0 1
vt 1 1
vt 1 0
vt 0 0
vt 0 1
vt 1 1
vt 1 0
vt 0 0
vt 0 1
vt 1 1
vt 1 0
vt 0 0
vt 0 1
vt 1 1
vt 1 0
vt 0 0
vt 0 1
vt 1 1
vt 1 0
vt 0 0
vt 0 1
vt 1 1
vt 1 0
vt 0 0
vt 0 1
vt 1 1
vt 1 0
vt 0 0
vt 0 1
vt 1 1
vt 1 0
vt 0 0
vt 0 1
vt 1 1
vt 1 0
vt 0 0
vt 0 1
vt 1 1
vt 1 0
vt 0 0
vt 0 1
vt 1 1
vt 1 0
vt 0 0
vt 0 1
vt 1 1
vt 1 0
vt 0 0
vt 0 1
vt 1 1
vt 1 0
vt 0 0
vt 0 1
vt 1 1
vt 1 0
vt 0 0
vt 0 1
vt 1 1
vt 1 0
vt 0 0
vt 0 1
vt 1 1
vt 1 0
vt 0 0
vt 0 1
vt 1 1
vt 1 0
vt 0 0
vt 0 1
vt 1 1
vt 1 0
vt 0 0
vt 0 1
vt 1 1
vt 1 0
vt 0 0
vt 0 1
vt 1 1
vt 1 0
vt 0 0
vt 0 1
vt 1 1
vt 1 0
vt 0 0
vt 0.5 1
vt 1 0
vt 0 0
vt 0.5 1
vt 1 0
vt 0 0
vt 0.5 1
vt 1 0
vt 0 0
vt 0.5 1
vt 1 0
vt 0 0
vt 0.5 1
vt 1 0
vt 0 0
vt 0.5 1
vt 1 0
vt 0 0
vt 0.5 1
vt 1 0
vt 0 0
vt 0.5 1
vt 1 0
vt 0 0
vt 0.5 1
vt 1 0
vt 0 0
vt 0.5 1
vt 1 0

g Foliage8_1_4197_163
usemtl Foliage8_1_4197_163
usemap Foliage8_1_4197_163
f 1/1/1 3/3/3 2/2/2
f 4/4/4 1/1/1 2/2/2
f 5/5/5 4/4/4 2/2/2
f 6/6/6 5/5/5 2/2/2
f 7/7/7 6/6/6 2/2/2
f 8/8/8 7/7/7 2/2/2
f 9/9/9 8/8/8 2/2/2
f 10/10/10 9/9/9 2/2/2
f 11/11/11 10/10/10 2/2/2
f 3/3/3 11/11/11 2/2/2
f 12/12/12 14/14/14 13/13/13
f 12/12/12 15/15/15 14/14/14
f 16/16/16 18/18/18 17/17/17
f 16/16/16 19/19/19 18/18/18
f 20/20/20 22/22/22 21/21/21
f 20/20/20 23/23/23 22/22/22
f 24/24/24 26/26/26 25/25/25
f 24/24/24 27/27/27 26/26/26
f 28/28/28 30/30/30 29/29/29
f 28/28/28 31/31/31 30/30/30
f 32/32/32 34/34/34 33/33/33
f 32/32/32 35/35/35 34/34/34
f 36/36/36 38/38/38 37/37/37
f 36/36/36 39/39/39 38/38/38
f 40/40/40 42/42/42 41/41/41
f 40/40/40 43/43/43 42/42/42
f 44/44/44 46/46/46 45/45/45
f 44/44/44 47/47/47 46/46/46
f 48/48/48 50/50/50 49/49/49
f 48/48/48 51/51/51 50/50/50
f 52/52/52 54/54/54 53/53/53
f 52/52/52 55/55/55 54/54/54
f 56/56/56 58/58/58 57/57/57
f 56/56/56 59/59/59 58/58/58
f 60/60/60 62/62/62 61/61/61
f 60/60/60 63/63/63 62/62/62
f 64/64/64 66/66/66 65/65/65
f 64/64/64 67/67/67 66/66/66
f 68/68/68 70/70/70 69/69/69
f 68/68/68 71/71/71 70/70/70
f 72/72/72 74/74/74 73/73/73
f 72/72/72 75/75/75 74/74/74
f 76/76/76 78/78/78 77/77/77
f 76/76/76 79/79/79 78/78/78
f 80/80/80 82/82/82 81/81/81
f 80/80/80 83/83/83 82/82/82
f 84/84/84 86/86/86 85/85/85
f 84/84/84 87/87/87 86/86/86
f 88/88/88 90/90/90 89/89/89
f 88/88/88 91/91/91 90/90/90
f 92/92/92 94/94/94 93/93/93
f 92/92/92 95/95/95 94/94/94
f 96/96/96 98/98/98 97/97/97
f 96/96/96 99/99/99 98/98/98
f 100/100/100 102/102/102 101/101/101
f 100/100/100 103/103/103 102/102/102
f 104/104/104 106/106/106 105/105/105
f 104/104/104 107/107/107 106/106/106
f 108/108/108 110/110/110 109/109/109
f 108/108/108 111/111/111 110/110/110
f 112/112/112 114/114/114 113/113/113
f 112/112/112 115/115/115 114/114/114
f 116/116/116 118/118/118 117/117/117
f 116/116/116 119/119/119 118/118/118
f 120/120/120 122/122/122 121/121/121
f 120/120/120 123/123/123 122/122/122
f 124/124/124 126/126/126 125/125/125
f 124/124/124 127/127/127 126/126/126
f 128/128/128 130/130/130 129/129/129
f 128/128/128 131/131/131 130/130/130
f 132/132/132 134/134/134 133/133/133
f 132/132/132 135/135/135 134/134/134
f 136/136/136 138/138/138 137/137/137
f 136/136/136 139/139/139 138/138/138
f 140/140/140 142/142/142 141/141/141
f 140/140/140 143/143/143 142/142/142
f 144/144/144 146/146/146 145/145/145
f 144/144/144 147/147/147 146/146/146
f 148/148/148 150/150/150 149/149/149
f 148/148/148 151/151/151 150/150/150
f 152/152/152 154/154/154 153/153/153
f 152/152/152 155/155/155 154/154/154
f 156/156/156 158/158/158 157/157/157
f 156/156/156 159/159/159 158/158/158
f 160/160/160 162/162/162 161/161/161
f 160/160/160 163/163/163 162/162/162
f 164/164/164 166/166/166 165/165/165
f 164/164/164 167/167/167 166/166/166
f 168/168/168 170/170/170 169/169/169
f 168/168/168 171/171/171 170/170/170
f 172/172/172 174/174/174 173/173/173
f 175/175/175 177/177/177 176/176/176
f 178/178/178 180/180/180 179/179/179
f 181/181/181 183/183/183 182/182/182
f 184/184/184 186/186/186 185/185/185
f 187/187/187 189/189/189 188/188/188
f 190/190/190 192/192/192 191/191/191
f 193/193/193 195/195/195 194/194/194
f 196/196/196 198/198/198 197/197/197
f 199/199/199 201/201/201 200/200/200
