#Foliage6_12_3949_34.obj

v 0.01454706 -0.02577557 -0.0403578
v 0.004625011 -0.03397602 0.001091762
v 0.03878599 -0.02577558 -0.0210545
v -0.009661426 -0.02577555 -0.03817498
v -0.01824959 -0.02577561 -0.01778013
v -0.03822102 -0.02223214 0.001091742
v -0.02134906 -0.02577557 0.01996355
v -0.005296055 -0.0257756 0.03271846
v 0.02109595 -0.02577557 0.04035863
v 0.03060026 -0.02577555 0.01996363
v 0.03219127 -0.02223212 0.001091964
v 0.03878599 -0.02577558 -0.0210545
v 0.04796852 -0.01489232 -0.02772566
v 0.0180542 -0.01489234 -0.05115229
v 0.01454706 -0.02577557 -0.0403578
v 0.01454706 -0.02577557 -0.0403578
v 0.0180542 -0.01489234 -0.05115229
v -0.01316892 -0.01489229 -0.04896931
v -0.009661426 -0.02577555 -0.03817498
v -0.009661426 -0.02577555 -0.03817498
v -0.01316892 -0.01489229 -0.04896931
v -0.02743191 -0.01489235 -0.0244515
v -0.01824959 -0.02577561 -0.01778013
v -0.01824959 -0.02577561 -0.01778013
v -0.02743191 -0.01489235 -0.0244515
v -0.04796582 -0.01288817 0.001091722
v -0.03822102 -0.02223214 0.001091742
v -0.03822102 -0.02223214 0.001091742
v -0.04796582 -0.01288817 0.001091722
v -0.03053189 -0.0148923 0.02663491
v -0.02134906 -0.02577557 0.01996355
v -0.02134906 -0.02577557 0.01996355
v -0.03053189 -0.0148923 0.02663491
v -0.008803409 -0.0148923 0.04351295
v -0.005296055 -0.0257756 0.03271846
v -0.005296055 -0.0257756 0.03271846
v -0.008803409 -0.0148923 0.04351295
v 0.02460315 -0.0148923 0.05115316
v 0.02109595 -0.02577557 0.04035863
v 0.02109595 -0.02577557 0.04035863
v 0.02460315 -0.0148923 0.05115316
v 0.03978236 -0.01489232 0.02663498
v 0.03060026 -0.02577555 0.01996363
v 0.03060026 -0.02577555 0.01996363
v 0.03978236 -0.01489232 0.02663498
v 0.04193608 -0.01288812 0.001091813
v 0.03219127 -0.02223212 0.001091964
v 0.03219127 -0.02223212 0.001091964
v 0.04193608 -0.01288812 0.001091813
v 0.04796852 -0.01489232 -0.02772566
v 0.03878599 -0.02577558 -0.0210545
v 0.04796852 -0.01489232 -0.02772566
v 0.04796886 -0.0001482565 -0.02772563
v 0.01805454 -0.0001482241 -0.05115227
v 0.0180542 -0.01489234 -0.05115229
v 0.0180542 -0.01489234 -0.05115229
v 0.01805454 -0.0001482241 -0.05115227
v -0.01316945 -0.0001482575 -0.04896955
v -0.01316892 -0.01489229 -0.04896931
v -0.01316892 -0.01489229 -0.04896931
v -0.01316945 -0.0001482575 -0.04896955
v -0.02743157 -0.000148236 -0.02445147
v -0.02743191 -0.01489235 -0.0244515
v -0.02743191 -0.01489235 -0.0244515
v -0.02743157 -0.000148236 -0.02445147
v -0.04796562 -0.0002293608 0.001091598
v -0.04796582 -0.01288817 0.001091722
v -0.04796582 -0.01288817 0.001091722
v -0.04796562 -0.0002293608 0.001091598
v -0.03053154 -0.0001482379 0.02663493
v -0.03053189 -0.0148923 0.02663491
v -0.03053189 -0.0148923 0.02663491
v -0.03053154 -0.0001482379 0.02663493
v -0.008803068 -0.0001482356 0.04351297
v -0.008803409 -0.0148923 0.04351295
v -0.008803409 -0.0148923 0.04351295
v -0.008803068 -0.0001482356 0.04351297
v 0.02460263 -0.0001482743 0.05115292
v 0.02460315 -0.0148923 0.05115316
v 0.02460315 -0.0148923 0.05115316
v 0.02460263 -0.0001482743 0.05115292
v 0.0397827 -0.0001482593 0.02663501
v 0.03978236 -0.01489232 0.02663498
v 0.03978236 -0.01489232 0.02663498
v 0.0397827 -0.0001482593 0.02663501
v 0.04193622 -0.0002293274 0.001091906
v 0.04193608 -0.01288812 0.001091813
v 0.04193608 -0.01288812 0.001091813
v 0.04193622 -0.0002293274 0.001091906
v 0.04796886 -0.0001482565 -0.02772563
v 0.04796852 -0.01489232 -0.02772566
v 0.04796886 -0.0001482565 -0.02772563
v 0.04569008 0.01428342 -0.02539667
v 0.01714628 0.01428342 -0.04799125
v 0.01805454 -0.0001482241 -0.05115227
v 0.01805454 -0.0001482241 -0.05115227
v 0.01714628 0.01428342 -0.04799125
v -0.01182789 0.01428343 -0.04559732
v -0.01316945 -0.0001482575 -0.04896955
v -0.01316945 -0.0001482575 -0.04896955
v -0.01182789 0.01428343 -0.04559732
v -0.0232091 0.01428343 -0.02180624
v -0.02743157 -0.000148236 -0.02445147
v -0.02743157 -0.000148236 -0.02445147
v -0.0232091 0.01428343 -0.02180624
v -0.04530293 0.01197215 0.00119703
v -0.04796562 -0.0002293608 0.001091598
v -0.04796562 -0.0002293608 0.001091598
v -0.04530293 0.01197215 0.00119703
v -0.02660823 0.01428342 0.02420025
v -0.03053154 -0.0001482379 0.02663493
v -0.03053154 -0.0001482379 0.02663493
v -0.02660823 0.01428342 0.02420025
v -0.007040623 0.01428343 0.03961372
v -0.008803068 -0.0001482356 0.04351297
v -0.008803068 -0.0001482356 0.04351297
v -0.007040623 0.01428343 0.03961372
v 0.02432742 0.01428344 0.04799156
v 0.02460263 -0.0001482743 0.05115292
v 0.02460263 -0.0001482743 0.05115292
v 0.02432742 0.01428344 0.04799156
v 0.03671431 0.01428343 0.02420029
v 0.0397827 -0.0001482593 0.02663501
v 0.0397827 -0.0001482593 0.02663501
v 0.03671431 0.01428343 0.02420029
v 0.03865382 0.01197219 0.001197115
v 0.04193622 -0.0002293274 0.001091906
v 0.04193622 -0.0002293274 0.001091906
v 0.03865382 0.01197219 0.001197115
v 0.04569008 0.01428342 -0.02539667
v 0.04796886 -0.0001482565 -0.02772563
v 0.04569008 0.01428342 -0.02539667
v 0.032254 0.02437446 -0.01614735
v 0.01203777 0.02437448 -0.03256841
v 0.01714628 0.01428342 -0.04799125
v 0.01714628 0.01428342 -0.04799125
v 0.01203777 0.02437448 -0.03256841
v -0.002590352 0.0243745 -0.02139349
v -0.01182789 0.01428343 -0.04559732
v -0.01182789 0.01428343 -0.04559732
v -0.002590352 0.0243745 -0.02139349
v -0.0112514 0.02437448 -0.01279483
v -0.0232091 0.01428343 -0.02180624
v -0.0232091 0.01428343 -0.02180624
v -0.0112514 0.02437448 -0.01279483
v -0.0312429 0.02074657 0.001117876
v -0.04530293 0.01197215 0.00119703
v -0.04530293 0.01197215 0.00119703
v -0.0312429 0.02074657 0.001117876
v -0.01442557 0.02437446 0.01503047
v -0.02660823 0.01428342 0.02420025
v -0.02660823 0.01428342 0.02420025
v -0.01442557 0.02437446 0.01503047
v -0.002590437 0.02437447 0.02474653
v -0.007040623 0.01428343 0.03961372
v -0.007040623 0.01428343 0.03961372
v -0.002590437 0.02437447 0.02474653
v 0.0187428 0.02437447 0.0325689
v 0.02432742 0.01428344 0.04799156
v 0.02432742 0.01428344 0.04799156
v 0.0187428 0.02437447 0.0325689
v 0.02387267 0.02437444 0.01503056
v 0.03671431 0.01428343 0.02420029
v 0.03671431 0.01428343 0.02420029
v 0.02387267 0.02437444 0.01503056
v 0.02504605 0.02074657 0.001117825
v 0.03865382 0.01197219 0.001197115
v 0.03865382 0.01197219 0.001197115
v 0.02504605 0.02074657 0.001117825
v 0.032254 0.02437446 -0.01614735
v 0.04569008 0.01428342 -0.02539667
v 0.032254 0.02437446 -0.01614735
v 0.004625439 0.03397612 0.00109167
v 0.01203777 0.02437448 -0.03256841
v 0.01203777 0.02437448 -0.03256841
v 0.004625439 0.03397612 0.00109167
v -0.002590352 0.0243745 -0.02139349
v -0.002590352 0.0243745 -0.02139349
v 0.004625439 0.03397612 0.00109167
v -0.0112514 0.02437448 -0.01279483
v -0.0112514 0.02437448 -0.01279483
v 0.004625439 0.03397612 0.00109167
v -0.0312429 0.02074657 0.001117876
v -0.0312429 0.02074657 0.001117876
v 0.004625439 0.03397612 0.00109167
v -0.01442557 0.02437446 0.01503047
v -0.01442557 0.02437446 0.01503047
v 0.004625439 0.03397612 0.00109167
v -0.002590437 0.02437447 0.02474653
v -0.002590437 0.02437447 0.02474653
v 0.004625439 0.03397612 0.00109167
v 0.0187428 0.02437447 0.0325689
v 0.0187428 0.02437447 0.0325689
v 0.004625439 0.03397612 0.00109167
v 0.02387267 0.02437444 0.01503056
v 0.02387267 0.02437444 0.01503056
v 0.004625439 0.03397612 0.00109167
v 0.02504605 0.02074657 0.001117825
v 0.02504605 0.02074657 0.001117825
v 0.004625439 0.03397612 0.00109167
v 0.032254 0.02437446 -0.01614735

vn -0.03719885 -0.9838973 -0.1748207
vn -0.0421277 -0.9978629 0.04995
vn 0.1633682 -0.9831935 -0.08149598
vn -0.1974898 -0.9730685 -0.1188929
vn -0.3657112 -0.9304934 0.02091501
vn -0.34251 -0.932196 0.1170362
vn -0.2561836 -0.9344912 0.2471765
vn -0.07856818 -0.9412652 0.3284007
vn 0.08513209 -0.968833 0.2326267
vn 0.285955 -0.9580491 -0.01927825
vn 0.4258474 -0.9044605 0.02460138
vn 0.2537034 -0.6795181 -0.6883965
vn 0.2537034 -0.6795181 -0.6883965
vn 0.2537034 -0.6795181 -0.6883965
vn 0.2537034 -0.6795181 -0.6883965
vn -0.3102008 -0.6578389 -0.6863115
vn -0.3102008 -0.6578389 -0.6863115
vn -0.3102008 -0.6578389 -0.6863115
vn -0.3102008 -0.6578389 -0.6863115
vn -0.8122095 -0.5728172 -0.110436
vn -0.8122096 -0.5728171 -0.110436
vn -0.8122095 -0.5728172 -0.110436
vn -0.8122096 -0.5728171 -0.110436
vn -0.7582104 -0.6053304 -0.2422645
vn -0.7582105 -0.6053303 -0.2422644
vn -0.7582104 -0.6053303 -0.2422645
vn -0.7582104 -0.6053303 -0.2422644
vn -0.5301891 -0.5875929 0.6112562
vn -0.5301891 -0.5875929 0.6112562
vn -0.5301892 -0.5875928 0.6112562
vn -0.5301891 -0.5875928 0.6112562
vn -0.3029242 -0.599391 0.7409232
vn -0.3029243 -0.599391 0.7409232
vn -0.3029243 -0.599391 0.7409232
vn -0.3029242 -0.5993911 0.7409232
vn 0.007352963 -0.5964676 0.8026035
vn 0.00735293 -0.5964676 0.8026035
vn 0.007352979 -0.5964676 0.8026035
vn 0.007352963 -0.5964676 0.8026035
vn 0.7575665 -0.6224317 0.1966516
vn 0.7575665 -0.6224317 0.1966516
vn 0.7575665 -0.6224317 0.1966516
vn 0.7575665 -0.6224316 0.1966515
vn 0.726155 -0.6504758 -0.2226658
vn 0.726155 -0.6504759 -0.2226658
vn 0.726155 -0.6504758 -0.2226658
vn 0.726155 -0.6504758 -0.2226658
vn 0.8154048 -0.5763117 0.05458706
vn 0.8154049 -0.5763116 0.05458701
vn 0.8154048 -0.5763117 0.05458706
vn 0.8154048 -0.5763117 0.05458703
vn 0.3606227 -0.04458407 -0.9316456
vn 0.3606227 -0.04458407 -0.9316456
vn 0.3606227 -0.04458407 -0.9316456
vn 0.3606227 -0.04458407 -0.9316456
vn -0.3568586 -0.02229838 -0.9338923
vn -0.3568586 -0.02229838 -0.9338923
vn -0.3568586 -0.02229838 -0.9338923
vn -0.3568586 -0.02229838 -0.9338923
vn -0.9727461 0.02206271 -0.2308211
vn -0.9727461 0.02206271 -0.2308211
vn -0.9727461 0.02206271 -0.2308211
vn -0.9727461 0.02206271 -0.2308211
vn -0.9274138 0.01553562 -0.3737139
vn -0.9274139 0.01553562 -0.3737139
vn -0.9274138 0.01553562 -0.3737139
vn -0.9274138 0.01553562 -0.3737139
vn -0.6259877 0.0473716 0.7783928
vn -0.6259877 0.0473716 0.7783928
vn -0.6259876 0.0473716 0.7783929
vn -0.6259877 0.0473716 0.7783928
vn -0.3569337 0.04451999 0.9330682
vn -0.3569337 0.04451999 0.9330682
vn -0.3569337 0.04451999 0.9330682
vn -0.3569337 0.04451999 0.9330682
vn 0.07039852 0.03348521 0.9969568
vn 0.07039852 0.03348521 0.9969568
vn 0.07039852 0.03348521 0.9969568
vn 0.07039852 0.03348521 0.9969568
vn 0.9660631 -0.02090104 0.257459
vn 0.9660631 -0.02090104 0.257459
vn 0.9660631 -0.02090104 0.257459
vn 0.9660631 -0.02090104 0.257459
vn 0.977396 -0.03791212 -0.20799
vn 0.977396 -0.03791212 -0.20799
vn 0.977396 -0.03791212 -0.20799
vn 0.977396 -0.03791212 -0.20799
vn 0.9956031 -0.03415759 -0.08722249
vn 0.9956031 -0.03415759 -0.0872225
vn 0.9956031 -0.03415759 -0.08722249
vn 0.9956031 -0.03415759 -0.08722249
vn 0.3637991 0.1354788 -0.9215724
vn 0.3637991 0.1354789 -0.9215724
vn 0.3637991 0.1354789 -0.9215724
vn 0.3637991 0.1354789 -0.9215724
vn -0.3472655 0.1650956 -0.9231197
vn -0.3472655 0.1650956 -0.9231197
vn -0.3472655 0.1650956 -0.9231197
vn -0.3472655 0.1650956 -0.9231197
vn -0.9492323 0.2430668 -0.1996911
vn -0.9492323 0.2430668 -0.199691
vn -0.9492323 0.2430668 -0.1996911
vn -0.9492323 0.2430667 -0.1996911
vn -0.8842588 0.2297276 -0.4065854
vn -0.8842587 0.2297276 -0.4065854
vn -0.8842588 0.2297276 -0.4065854
vn -0.8842588 0.2297276 -0.4065853
vn -0.5817481 0.2537577 0.7727718
vn -0.5817481 0.2537577 0.7727718
vn -0.5817481 0.2537577 0.7727718
vn -0.5817481 0.2537577 0.7727718
vn -0.3402835 0.2842758 0.8963227
vn -0.3402836 0.2842758 0.8963227
vn -0.3402835 0.2842758 0.8963227
vn -0.3402835 0.2842758 0.8963227
vn 0.06095244 0.2392569 0.9690413
vn 0.06095248 0.2392569 0.9690413
vn 0.06095244 0.2392569 0.9690413
vn 0.06095244 0.2392569 0.9690413
vn 0.9672902 0.1405617 0.2111686
vn 0.9672902 0.1405617 0.2111686
vn 0.9672901 0.1405617 0.2111686
vn 0.9672902 0.1405617 0.2111686
vn 0.9607444 0.1627688 -0.2246697
vn 0.9607444 0.1627688 -0.2246697
vn 0.9607444 0.1627688 -0.2246697
vn 0.9607444 0.1627688 -0.2246697
vn 0.9911886 0.1174151 -0.06131048
vn 0.9911886 0.1174151 -0.06131051
vn 0.9911886 0.1174151 -0.06131048
vn 0.9911886 0.1174151 -0.06131048
vn 0.2597516 0.7534964 -0.6039638
vn 0.2597515 0.7534964 -0.6039638
vn 0.2597516 0.7534964 -0.6039638
vn 0.2597515 0.7534964 -0.6039638
vn -0.2559548 0.8419762 -0.474935
vn -0.2559548 0.8419762 -0.474935
vn -0.2559548 0.8419762 -0.474935
vn -0.2559547 0.8419762 -0.474935
vn -0.5065497 0.8417643 -0.1866554
vn -0.5065497 0.8417643 -0.1866555
vn -0.5065497 0.8417643 -0.1866554
vn -0.5065497 0.8417643 -0.1866555
vn -0.5724171 0.7619393 -0.302964
vn -0.572417 0.7619393 -0.302964
vn -0.572417 0.7619393 -0.302964
vn -0.572417 0.7619393 -0.302964
vn -0.3701476 0.8043817 0.4647158
vn -0.3701476 0.8043818 0.4647158
vn -0.3701476 0.8043817 0.4647159
vn -0.3701476 0.8043817 0.4647158
vn -0.2031611 0.8063723 0.555418
vn -0.2031612 0.8063723 0.555418
vn -0.2031612 0.8063723 0.5554181
vn -0.2031612 0.8063723 0.555418
vn 0.03211223 0.7935301 0.6076832
vn 0.03211224 0.7935301 0.6076831
vn 0.03211224 0.7935301 0.6076831
vn 0.03211224 0.7935301 0.6076831
vn 0.6949793 0.7182292 0.03392153
vn 0.6949793 0.7182292 0.03392152
vn 0.6949793 0.7182292 0.03392154
vn 0.6949793 0.7182292 0.03392152
vn 0.6347784 0.7081065 -0.3092598
vn 0.6347783 0.7081066 -0.3092597
vn 0.6347783 0.7081065 -0.3092598
vn 0.6347784 0.7081065 -0.3092597
vn 0.7573755 0.6476584 0.08319157
vn 0.7573755 0.6476585 0.08319157
vn 0.7573755 0.6476584 0.08319157
vn 0.7573755 0.6476584 0.08319157
vn 0.1712751 0.9145021 -0.3665389
vn 0.171275 0.9145021 -0.3665389
vn 0.1712751 0.9145021 -0.3665389
vn -0.3315258 0.8903826 -0.3119444
vn -0.3315258 0.8903826 -0.3119444
vn -0.3315258 0.8903826 -0.3119444
vn -0.381645 0.8835816 -0.2713498
vn -0.381645 0.8835816 -0.2713498
vn -0.381645 0.8835816 -0.2713498
vn -0.4130547 0.8878493 -0.2027547
vn -0.4130548 0.8878492 -0.2027547
vn -0.4130548 0.8878492 -0.2027547
vn -0.281547 0.923854 0.2592779
vn -0.281547 0.9238541 0.2592779
vn -0.281547 0.923854 0.2592779
vn -0.1321926 0.9196724 0.3697674
vn -0.1321926 0.9196724 0.3697673
vn -0.1321926 0.9196724 0.3697673
vn 0.01653617 0.9269132 0.3749116
vn 0.01653615 0.9269132 0.3749115
vn 0.01653616 0.9269132 0.3749115
vn 0.4905876 0.8700166 -0.04893755
vn 0.4905877 0.8700166 -0.04893757
vn 0.4905877 0.8700166 -0.04893756
vn 0.5466917 0.7402721 -0.3913123
vn 0.5466917 0.7402722 -0.3913123
vn 0.5466917 0.7402722 -0.3913123
vn 0.6804842 0.7059492 0.1964103
vn 0.6804841 0.7059491 0.1964104
vn 0.6804841 0.7059491 0.1964104

vt 0.5482839 0.007647395
vt 0.5 0.15
vt 0.6264089 0.06440853
vt 0.4517161 0.00764741
vt 0.3735911 0.06440856
vt 0.34375 0.15625
vt 0.3735911 0.2480915
vt 0.4517161 0.3048526
vt 0.5482839 0.3048526
vt 0.6264089 0.2480914
vt 0.65625 0.15625
vt 0 0
vt 0 1
vt 1 1
vt 1 0
vt 0 0
vt 0 1
vt 1 1
vt 1 0
vt 0 0
vt 0 1
vt 1 1
vt 1 0
vt 0 0
vt 0 1
vt 1 1
vt 1 0
vt 0 0
vt 0 1
vt 1 1
vt 1 0
vt 0 0
vt 0 1
vt 1 1
vt 1 0
vt 0 0
vt 0 1
vt 1 1
vt 1 0
vt 0 0
vt 0 1
vt 1 1
vt 1 0
vt 0 0
vt 0 1
vt 1 1
vt 1 0
vt 0 0
vt 0 1
vt 1 1
vt 1 0
vt 0 0
vt 0 1
vt 1 1
vt 1 0
vt 0 0
vt 0 1
vt 1 1
vt 1 0
vt 0 0
vt 0 1
vt 1 1
vt 1 0
vt 0 0
vt 0 1
vt 1 1
vt 1 0
vt 0 0
vt 0 1
vt 1 1
vt 1 0
vt 0 0
vt 0 1
vt 1 1
vt 1 0
vt 0 0
vt 0 1
vt 1 1
vt 1 0
vt 0 0
vt 0 1
vt 1 1
vt 1 0
vt 0 0
vt 0 1
vt 1 1
vt 1 0
vt 0 0
vt 0 1
vt 1 1
vt 1 0
vt 0 0
vt 0 1
vt 1 1
vt 1 0
vt 0 0
vt 0 1
vt 1 1
vt 1 0
vt 0 0
vt 0 1
vt 1 1
vt 1 0
vt 0 0
vt 0 1
vt 1 1
vt 1 0
vt 0 0
vt 0 1
vt 1 1
vt 1 0
vt 0 0
vt 0 1
vt 1 1
vt 1 0
vt 0 0
vt 0 1
vt 1 1
vt 1 0
vt 0 0
vt 0 1
vt 1 1
vt 1 0
vt 0 0
vt 0 1
vt 1 1
vt 1 0
vt 0 0
vt 0 1
vt 1 1
vt 1 0
vt 0 0
vt 0 1
vt 1 1
vt 1 0
vt 0 0
vt 0 1
vt 1 1
vt 1 0
vt 0 0
vt 0 1
vt 1 1
vt 1 0
vt 0 0
vt 0 1
vt 1 1
vt 1 0
vt 0 0
vt 0 1
vt 1 1
vt 1 0
vt 0 0
vt 0 1
vt 1 1
vt 1 0
vt 0 0
vt 0 1
vt 1 1
vt 1 0
vt 0 0
vt 0 1
vt 1 1
vt 1 0
vt 0 0
vt 0 1
vt 1 1
vt 1 0
vt 0 0
vt 0 1
vt 1 1
vt 1 0
vt 0 0
vt 0.5 1
vt 1 0
vt 0 0
vt 0.5 1
vt 1 0
vt 0 0
vt 0.5 1
vt 1 0
vt 0 0
vt 0.5 1
vt 1 0
vt 0 0
vt 0.5 1
vt 1 0
vt 0 0
vt 0.5 1
vt 1 0
vt 0 0
vt 0.5 1
vt 1 0
vt 0 0
vt 0.5 1
vt 1 0
vt 0 0
vt 0.5 1
vt 1 0
vt 0 0
vt 0.5 1
vt 1 0

g Foliage6_12_3949_34
usemtl Foliage6_12_3949_34
usemap Foliage6_12_3949_34
f 1/1/1 3/3/3 2/2/2
f 4/4/4 1/1/1 2/2/2
f 5/5/5 4/4/4 2/2/2
f 6/6/6 5/5/5 2/2/2
f 7/7/7 6/6/6 2/2/2
f 8/8/8 7/7/7 2/2/2
f 9/9/9 8/8/8 2/2/2
f 10/10/10 9/9/9 2/2/2
f 11/11/11 10/10/10 2/2/2
f 3/3/3 11/11/11 2/2/2
f 12/12/12 14/14/14 13/13/13
f 12/12/12 15/15/15 14/14/14
f 16/16/16 18/18/18 17/17/17
f 16/16/16 19/19/19 18/18/18
f 20/20/20 22/22/22 21/21/21
f 20/20/20 23/23/23 22/22/22
f 24/24/24 26/26/26 25/25/25
f 24/24/24 27/27/27 26/26/26
f 28/28/28 30/30/30 29/29/29
f 28/28/28 31/31/31 30/30/30
f 32/32/32 34/34/34 33/33/33
f 32/32/32 35/35/35 34/34/34
f 36/36/36 38/38/38 37/37/37
f 36/36/36 39/39/39 38/38/38
f 40/40/40 42/42/42 41/41/41
f 40/40/40 43/43/43 42/42/42
f 44/44/44 46/46/46 45/45/45
f 44/44/44 47/47/47 46/46/46
f 48/48/48 50/50/50 49/49/49
f 48/48/48 51/51/51 50/50/50
f 52/52/52 54/54/54 53/53/53
f 52/52/52 55/55/55 54/54/54
f 56/56/56 58/58/58 57/57/57
f 56/56/56 59/59/59 58/58/58
f 60/60/60 62/62/62 61/61/61
f 60/60/60 63/63/63 62/62/62
f 64/64/64 66/66/66 65/65/65
f 64/64/64 67/67/67 66/66/66
f 68/68/68 70/70/70 69/69/69
f 68/68/68 71/71/71 70/70/70
f 72/72/72 74/74/74 73/73/73
f 72/72/72 75/75/75 74/74/74
f 76/76/76 78/78/78 77/77/77
f 76/76/76 79/79/79 78/78/78
f 80/80/80 82/82/82 81/81/81
f 80/80/80 83/83/83 82/82/82
f 84/84/84 86/86/86 85/85/85
f 84/84/84 87/87/87 86/86/86
f 88/88/88 90/90/90 89/89/89
f 88/88/88 91/91/91 90/90/90
f 92/92/92 94/94/94 93/93/93
f 92/92/92 95/95/95 94/94/94
f 96/96/96 98/98/98 97/97/97
f 96/96/96 99/99/99 98/98/98
f 100/100/100 102/102/102 101/101/101
f 100/100/100 103/103/103 102/102/102
f 104/104/104 106/106/106 105/105/105
f 104/104/104 107/107/107 106/106/106
f 108/108/108 110/110/110 109/109/109
f 108/108/108 111/111/111 110/110/110
f 112/112/112 114/114/114 113/113/113
f 112/112/112 115/115/115 114/114/114
f 116/116/116 118/118/118 117/117/117
f 116/116/116 119/119/119 118/118/118
f 120/120/120 122/122/122 121/121/121
f 120/120/120 123/123/123 122/122/122
f 124/124/124 126/126/126 125/125/125
f 124/124/124 127/127/127 126/126/126
f 128/128/128 130/130/130 129/129/129
f 128/128/128 131/131/131 130/130/130
f 132/132/132 134/134/134 133/133/133
f 132/132/132 135/135/135 134/134/134
f 136/136/136 138/138/138 137/137/137
f 136/136/136 139/139/139 138/138/138
f 140/140/140 142/142/142 141/141/141
f 140/140/140 143/143/143 142/142/142
f 144/144/144 146/146/146 145/145/145
f 144/144/144 147/147/147 146/146/146
f 148/148/148 150/150/150 149/149/149
f 148/148/148 151/151/151 150/150/150
f 152/152/152 154/154/154 153/153/153
f 152/152/152 155/155/155 154/154/154
f 156/156/156 158/158/158 157/157/157
f 156/156/156 159/159/159 158/158/158
f 160/160/160 162/162/162 161/161/161
f 160/160/160 163/163/163 162/162/162
f 164/164/164 166/166/166 165/165/165
f 164/164/164 167/167/167 166/166/166
f 168/168/168 170/170/170 169/169/169
f 168/168/168 171/171/171 170/170/170
f 172/172/172 174/174/174 173/173/173
f 175/175/175 177/177/177 176/176/176
f 178/178/178 180/180/180 179/179/179
f 181/181/181 183/183/183 182/182/182
f 184/184/184 186/186/186 185/185/185
f 187/187/187 189/189/189 188/188/188
f 190/190/190 192/192/192 191/191/191
f 193/193/193 195/195/195 194/194/194
f 196/196/196 198/198/198 197/197/197
f 199/199/199 201/201/201 200/200/200
