#Foliage_44_3709_283.obj

v 0.01454479 -0.02577566 -0.040359
v 0.004623346 -0.03397608 0.001090689
v 0.03878402 -0.02577566 -0.02105545
v -0.009663979 -0.02577566 -0.03817608
v -0.01825131 -0.02577566 -0.01778104
v -0.03822267 -0.02223219 0.001090614
v -0.02135134 -0.02577566 0.01996247
v -0.005298121 -0.02577566 0.0327172
v 0.02109348 -0.02577566 0.04035737
v 0.03059803 -0.02577566 0.01996253
v 0.03218889 -0.02223219 0.001090665
v 0.03878402 -0.02577566 -0.02105545
v 0.04796633 -0.01489241 -0.02772681
v 0.01805205 -0.01489241 -0.05115356
v 0.01454479 -0.02577566 -0.040359
v 0.01454479 -0.02577566 -0.040359
v 0.01805205 -0.01489241 -0.05115356
v -0.01317135 -0.01489241 -0.0489707
v -0.009663979 -0.02577566 -0.03817608
v -0.009663979 -0.02577566 -0.03817608
v -0.01317135 -0.01489241 -0.0489707
v -0.02743374 -0.01489241 -0.0244525
v -0.01825131 -0.02577566 -0.01778104
v -0.01825131 -0.02577566 -0.01778104
v -0.02743374 -0.01489241 -0.0244525
v -0.04796742 -0.01288818 0.001090665
v -0.03822267 -0.02223219 0.001090614
v -0.03822267 -0.02223219 0.001090614
v -0.04796742 -0.01288818 0.001090665
v -0.03053375 -0.01489241 0.02663388
v -0.02135134 -0.02577566 0.01996247
v -0.02135134 -0.02577566 0.01996247
v -0.03053375 -0.01489241 0.02663388
v -0.008805477 -0.01489241 0.04351181
v -0.005298121 -0.02577566 0.0327172
v -0.005298121 -0.02577566 0.0327172
v -0.008805477 -0.01489241 0.04351181
v 0.02460085 -0.01489241 0.05115199
v 0.02109348 -0.02577566 0.04035737
v 0.02109348 -0.02577566 0.04035737
v 0.02460085 -0.01489241 0.05115199
v 0.03978036 -0.01489241 0.02663381
v 0.03059803 -0.02577566 0.01996253
v 0.03059803 -0.02577566 0.01996253
v 0.03978036 -0.01489241 0.02663381
v 0.04193375 -0.01288818 0.001090781
v 0.03218889 -0.02223219 0.001090665
v 0.03218889 -0.02223219 0.001090665
v 0.04193375 -0.01288818 0.001090781
v 0.04796633 -0.01489241 -0.02772681
v 0.03878402 -0.02577566 -0.02105545
v 0.04796633 -0.01489241 -0.02772681
v 0.04796643 -0.0001483224 -0.02772686
v 0.01805205 -0.0001483224 -0.05115356
v 0.01805205 -0.01489241 -0.05115356
v 0.01805205 -0.01489241 -0.05115356
v 0.01805205 -0.0001483224 -0.05115356
v -0.01317135 -0.0001483224 -0.0489707
v -0.01317135 -0.01489241 -0.0489707
v -0.01317135 -0.01489241 -0.0489707
v -0.01317135 -0.0001483224 -0.0489707
v -0.02743374 -0.0001483224 -0.0244525
v -0.02743374 -0.01489241 -0.0244525
v -0.02743374 -0.01489241 -0.0244525
v -0.02743374 -0.0001483224 -0.0244525
v -0.04796742 -0.0002294155 0.001090665
v -0.04796742 -0.01288818 0.001090665
v -0.04796742 -0.01288818 0.001090665
v -0.04796742 -0.0002294155 0.001090665
v -0.03053375 -0.0001483224 0.02663388
v -0.03053375 -0.01489241 0.02663388
v -0.03053375 -0.01489241 0.02663388
v -0.03053375 -0.0001483224 0.02663388
v -0.008805477 -0.0001483224 0.04351181
v -0.008805477 -0.01489241 0.04351181
v -0.008805477 -0.01489241 0.04351181
v -0.008805477 -0.0001483224 0.04351181
v 0.02460085 -0.0001483224 0.05115199
v 0.02460085 -0.01489241 0.05115199
v 0.02460085 -0.01489241 0.05115199
v 0.02460085 -0.0001483224 0.05115199
v 0.03978036 -0.0001483224 0.02663381
v 0.03978036 -0.01489241 0.02663381
v 0.03978036 -0.01489241 0.02663381
v 0.03978036 -0.0001483224 0.02663381
v 0.04193375 -0.0002294155 0.001090781
v 0.04193375 -0.01288818 0.001090781
v 0.04193375 -0.01288818 0.001090781
v 0.04193375 -0.0002294155 0.001090781
v 0.04796643 -0.0001483224 -0.02772686
v 0.04796633 -0.01489241 -0.02772681
v 0.04796643 -0.0001483224 -0.02772686
v 0.04568841 0.01428337 -0.02539758
v 0.01714461 0.01428337 -0.04799202
v 0.01805205 -0.0001483224 -0.05115356
v 0.01805205 -0.0001483224 -0.05115356
v 0.01714461 0.01428337 -0.04799202
v -0.01182966 0.01428337 -0.04559835
v -0.01317135 -0.0001483224 -0.0489707
v -0.01317135 -0.0001483224 -0.0489707
v -0.01182966 0.01428337 -0.04559835
v -0.02321083 0.01428337 -0.02180706
v -0.02743374 -0.0001483224 -0.0244525
v -0.02743374 -0.0001483224 -0.0244525
v -0.02321083 0.01428337 -0.02180706
v -0.04530455 0.0119721 0.001196098
v -0.04796742 -0.0002294155 0.001090665
v -0.04796742 -0.0002294155 0.001090665
v -0.04530455 0.0119721 0.001196098
v -0.02661009 0.01428337 0.02419929
v -0.03053375 -0.0001483224 0.02663388
v -0.03053375 -0.0001483224 0.02663388
v -0.02661009 0.01428337 0.02419929
v -0.007042426 0.01428337 0.0396127
v -0.008805477 -0.0001483224 0.04351181
v -0.008805477 -0.0001483224 0.04351181
v -0.007042426 0.01428337 0.0396127
v 0.02432535 0.01428337 0.04799042
v 0.02460085 -0.0001483224 0.05115199
v 0.02460085 -0.0001483224 0.05115199
v 0.02432535 0.01428337 0.04799042
v 0.03671234 0.01428337 0.02419926
v 0.03978036 -0.0001483224 0.02663381
v 0.03978036 -0.0001483224 0.02663381
v 0.03671234 0.01428337 0.02419926
v 0.03865145 0.0119721 0.001196122
v 0.04193375 -0.0002294155 0.001090781
v 0.04193375 -0.0002294155 0.001090781
v 0.03865145 0.0119721 0.001196122
v 0.04568841 0.01428337 -0.02539758
v 0.04796643 -0.0001483224 -0.02772686
v 0.04568841 0.01428337 -0.02539758
v 0.03225198 0.02437441 -0.01614838
v 0.01203589 0.02437441 -0.03256941
v 0.01714461 0.01428337 -0.04799202
v 0.01714461 0.01428337 -0.04799202
v 0.01203589 0.02437441 -0.03256941
v -0.002592806 0.02437441 -0.02139455
v -0.01182966 0.01428337 -0.04559835
v -0.01182966 0.01428337 -0.04559835
v -0.002592806 0.02437441 -0.02139455
v -0.01125365 0.02437441 -0.01279605
v -0.02321083 0.01428337 -0.02180706
v -0.02321083 0.01428337 -0.02180706
v -0.01125365 0.02437441 -0.01279605
v -0.03124527 0.02074648 0.001116607
v -0.04530455 0.0119721 0.001196098
v -0.04530455 0.0119721 0.001196098
v -0.03124527 0.02074648 0.001116607
v -0.01442762 0.02437441 0.01502942
v -0.02661009 0.01428337 0.02419929
v -0.02661009 0.01428337 0.02419929
v -0.01442762 0.02437441 0.01502942
v -0.002592811 0.02437441 0.02474545
v -0.007042426 0.01428337 0.0396127
v -0.007042426 0.01428337 0.0396127
v -0.002592811 0.02437441 0.02474545
v 0.01874079 0.02437441 0.03256779
v 0.02432535 0.01428337 0.04799042
v 0.02432535 0.01428337 0.04799042
v 0.01874079 0.02437441 0.03256779
v 0.02387074 0.02437441 0.01502936
v 0.03671234 0.01428337 0.02419926
v 0.03671234 0.01428337 0.02419926
v 0.02387074 0.02437441 0.01502936
v 0.02504361 0.02074648 0.001116616
v 0.03865145 0.0119721 0.001196122
v 0.03865145 0.0119721 0.001196122
v 0.02504361 0.02074648 0.001116616
v 0.03225198 0.02437441 -0.01614838
v 0.04568841 0.01428337 -0.02539758
v 0.03225198 0.02437441 -0.01614838
v 0.004623346 0.03397606 0.001090689
v 0.01203589 0.02437441 -0.03256941
v 0.01203589 0.02437441 -0.03256941
v 0.004623346 0.03397606 0.001090689
v -0.002592806 0.02437441 -0.02139455
v -0.002592806 0.02437441 -0.02139455
v 0.004623346 0.03397606 0.001090689
v -0.01125365 0.02437441 -0.01279605
v -0.01125365 0.02437441 -0.01279605
v 0.004623346 0.03397606 0.001090689
v -0.03124527 0.02074648 0.001116607
v -0.03124527 0.02074648 0.001116607
v 0.004623346 0.03397606 0.001090689
v -0.01442762 0.02437441 0.01502942
v -0.01442762 0.02437441 0.01502942
v 0.004623346 0.03397606 0.001090689
v -0.002592811 0.02437441 0.02474545
v -0.002592811 0.02437441 0.02474545
v 0.004623346 0.03397606 0.001090689
v 0.01874079 0.02437441 0.03256779
v 0.01874079 0.02437441 0.03256779
v 0.004623346 0.03397606 0.001090689
v 0.02387074 0.02437441 0.01502936
v 0.02387074 0.02437441 0.01502936
v 0.004623346 0.03397606 0.001090689
v 0.02504361 0.02074648 0.001116616
v 0.02504361 0.02074648 0.001116616
v 0.004623346 0.03397606 0.001090689
v 0.03225198 0.02437441 -0.01614838

vn 0.1818321 -0.9729605 -0.1424253
vn 0.001900197 -0.9999977 0.001064168
vn 0.2568452 -0.9638171 0.07132367
vn 0.01700992 -0.9732638 -0.2290594
vn -0.22263 -0.9381404 -0.2651952
vn -0.2808239 -0.9418967 -0.1843053
vn -0.3190357 -0.9471629 -0.03314824
vn -0.2505912 -0.9553521 0.1565453
vn -0.0493244 -0.9744548 0.2191004
vn 0.2961251 -0.9331319 0.203899
vn 0.3589177 -0.8710226 0.3354065
vn 0.7487945 -0.6154625 -0.245993
vn 0.7487945 -0.6154625 -0.245993
vn 0.7487946 -0.6154626 -0.2459929
vn 0.7487945 -0.6154625 -0.245993
vn 0.3559175 -0.6370563 -0.6837265
vn 0.3559175 -0.6370564 -0.6837265
vn 0.3559175 -0.6370563 -0.6837265
vn 0.3559175 -0.6370562 -0.6837265
vn -0.4660396 -0.5745078 -0.6728655
vn -0.4660397 -0.5745077 -0.6728655
vn -0.4660396 -0.5745078 -0.6728655
vn -0.4660397 -0.5745077 -0.6728655
vn -0.3269005 -0.6064695 -0.7247971
vn -0.3269006 -0.6064694 -0.7247971
vn -0.3269006 -0.6064694 -0.7247971
vn -0.3269007 -0.6064695 -0.724797
vn -0.8022073 -0.5970345 -0.003671789
vn -0.8022073 -0.5970345 -0.003671789
vn -0.8022073 -0.5970343 -0.003671826
vn -0.8022073 -0.5970344 -0.003671788
vn -0.7479881 -0.6156037 0.2480844
vn -0.7479882 -0.6156037 0.2480843
vn -0.7479881 -0.6156037 0.2480843
vn -0.747988 -0.6156037 0.2480844
vn -0.5811786 -0.6182758 0.5291185
vn -0.5811786 -0.6182759 0.5291185
vn -0.5811785 -0.6182758 0.5291185
vn -0.5811786 -0.6182758 0.5291185
vn 0.4418268 -0.5816714 0.6829696
vn 0.4418268 -0.5816714 0.6829696
vn 0.4418268 -0.5816714 0.6829696
vn 0.4418268 -0.5816714 0.6829696
vn 0.7198569 -0.5785362 0.3835387
vn 0.7198569 -0.5785362 0.3835387
vn 0.7198569 -0.5785362 0.3835387
vn 0.7198569 -0.5785362 0.3835387
vn 0.5793327 -0.5224127 0.6256666
vn 0.5793327 -0.5224125 0.6256666
vn 0.5793327 -0.5224127 0.6256666
vn 0.5793327 -0.5224127 0.6256666
vn 0.948931 0 -0.3154838
vn 0.948931 0 -0.3154838
vn 0.948931 0 -0.3154838
vn 0.948931 0 -0.3154838
vn 0.470232 0 -0.8825428
vn 0.470232 0 -0.8825428
vn 0.470232 0 -0.8825428
vn 0.470232 0 -0.8825428
vn -0.5227088 0 -0.8525113
vn -0.5227088 0 -0.8525113
vn -0.5227088 0 -0.8525113
vn -0.5227088 0 -0.8525113
vn -0.3877716 0 -0.9217555
vn -0.3877716 0 -0.9217554
vn -0.3877716 0 -0.9217555
vn -0.3877716 0 -0.9217555
vn -0.9995591 0 0.02969278
vn -0.9995591 0 0.02969278
vn -0.9995591 0 0.02969288
vn -0.9995591 0 0.02969278
vn -0.9477136 0 0.3191222
vn -0.9477136 0 0.3191222
vn -0.9477136 0 0.3191222
vn -0.9477136 0 0.3191222
vn -0.7212968 0 0.6926261
vn -0.7212968 0 0.6926261
vn -0.7212968 0 0.6926261
vn -0.7212968 0 0.6926261
vn 0.4991011 0 0.8665437
vn 0.4991011 0 0.8665437
vn 0.4991011 0 0.8665437
vn 0.4991011 0 0.8665437
vn 0.8275578 0 0.5613804
vn 0.8275578 0 0.5613804
vn 0.8275578 0 0.5613804
vn 0.8275578 0 0.5613804
vn 0.7580835 0 0.6521575
vn 0.7580835 0 0.6521575
vn 0.7580835 0 0.6521575
vn 0.7580835 0 0.6521575
vn 0.9360302 0.169109 -0.3086251
vn 0.9360303 0.169109 -0.3086251
vn 0.9360303 0.169109 -0.3086251
vn 0.9360303 0.169109 -0.3086251
vn 0.4562416 0.1862777 -0.8701403
vn 0.4562416 0.1862777 -0.8701403
vn 0.4562416 0.1862777 -0.8701403
vn 0.4562416 0.1862777 -0.8701403
vn -0.5429851 0.2086017 -0.8134202
vn -0.5429851 0.2086017 -0.8134202
vn -0.5429851 0.2086017 -0.8134203
vn -0.5429851 0.2086017 -0.8134202
vn -0.3477326 0.2092048 -0.9139559
vn -0.3477325 0.2092048 -0.9139559
vn -0.3477326 0.2092047 -0.9139559
vn -0.3477326 0.2092048 -0.9139559
vn -0.9800109 0.1904995 0.05734721
vn -0.9800108 0.1904995 0.0573472
vn -0.9800109 0.1904995 0.05734714
vn -0.9800109 0.1904995 0.05734721
vn -0.9241797 0.2259186 0.3079817
vn -0.9241797 0.2259186 0.3079816
vn -0.9241797 0.2259186 0.3079817
vn -0.9241797 0.2259186 0.3079817
vn -0.7190539 0.2004945 0.6654047
vn -0.7190539 0.2004945 0.6654047
vn -0.7190539 0.2004945 0.6654047
vn -0.7190539 0.2004945 0.6654047
vn 0.523345 0.15508 0.8378903
vn 0.523345 0.15508 0.8378903
vn 0.5233449 0.1550801 0.8378903
vn 0.523345 0.15508 0.8378903
vn 0.8193812 0.184862 0.5426237
vn 0.8193812 0.184862 0.5426237
vn 0.8193812 0.184862 0.5426236
vn 0.8193812 0.184862 0.5426237
vn 0.7302088 0.1397376 0.6687813
vn 0.7302088 0.1397376 0.6687813
vn 0.7302088 0.1397376 0.6687813
vn 0.7302088 0.1397376 0.6687813
vn 0.6084011 0.7691894 -0.1954372
vn 0.6084011 0.7691894 -0.1954373
vn 0.6084011 0.7691894 -0.1954372
vn 0.6084011 0.7691894 -0.1954373
vn 0.1222993 0.851388 -0.5100796
vn 0.1222994 0.851388 -0.5100797
vn 0.1222993 0.851388 -0.5100796
vn 0.1222994 0.851388 -0.5100796
vn -0.2890652 0.8153827 -0.50159
vn -0.2890651 0.8153827 -0.50159
vn -0.2890652 0.8153827 -0.50159
vn -0.2890651 0.8153827 -0.50159
vn -0.241912 0.7404295 -0.6270908
vn -0.241912 0.7404295 -0.6270908
vn -0.241912 0.7404295 -0.6270908
vn -0.241912 0.7404295 -0.6270908
vn -0.6729848 0.7393662 0.02071419
vn -0.6729848 0.7393662 0.02071423
vn -0.6729848 0.7393662 0.02071419
vn -0.6729848 0.7393662 0.02071419
vn -0.6285587 0.7511052 0.2018782
vn -0.6285588 0.7511052 0.2018782
vn -0.6285588 0.7511051 0.2018782
vn -0.6285588 0.7511052 0.2018782
vn -0.5052053 0.7563018 0.4156623
vn -0.5052052 0.7563018 0.4156623
vn -0.5052052 0.7563018 0.4156623
vn -0.5052052 0.7563018 0.4156623
vn 0.4328316 0.720511 0.5417754
vn 0.4328317 0.720511 0.5417755
vn 0.4328316 0.720511 0.5417755
vn 0.4328317 0.720511 0.5417755
vn 0.64698 0.7120482 0.2727714
vn 0.6469799 0.7120483 0.2727714
vn 0.6469799 0.7120482 0.2727714
vn 0.6469799 0.7120482 0.2727715
vn 0.4437959 0.6492283 0.6176955
vn 0.443796 0.6492283 0.6176955
vn 0.4437959 0.6492283 0.6176955
vn 0.4437959 0.6492283 0.6176955
vn 0.351435 0.9297108 -0.1101419
vn 0.351435 0.9297108 -0.1101419
vn 0.351435 0.9297108 -0.1101419
vn -0.06717822 0.8864176 -0.4579856
vn -0.0671782 0.8864176 -0.4579856
vn -0.06717818 0.8864177 -0.4579856
vn -0.13574 0.8733212 -0.4678512
vn -0.13574 0.8733212 -0.4678512
vn -0.1357401 0.8733212 -0.4678512
vn -0.2124131 0.8700482 -0.4448558
vn -0.2124132 0.8700482 -0.4448558
vn -0.2124132 0.8700482 -0.4448558
vn -0.4719996 0.8804795 -0.04441066
vn -0.4719995 0.8804795 -0.04441062
vn -0.4719996 0.8804795 -0.04441066
vn -0.4501489 0.8821328 0.1385916
vn -0.4501489 0.8821328 0.1385915
vn -0.4501489 0.8821328 0.1385915
vn -0.3483314 0.901783 0.255837
vn -0.3483314 0.901783 0.255837
vn -0.3483313 0.901783 0.255837
vn 0.3403971 0.8767101 0.3398667
vn 0.3403971 0.8767099 0.3398667
vn 0.3403972 0.8767099 0.3398668
vn 0.646534 0.7467157 0.1562357
vn 0.6465339 0.7467157 0.1562357
vn 0.6465339 0.7467157 0.1562357
vn 0.2994951 0.7075723 0.6400345
vn 0.2994951 0.7075723 0.6400346
vn 0.2994951 0.7075723 0.6400346

vt 0.5482839 0.007647395
vt 0.5 0.15
vt 0.6264089 0.06440853
vt 0.4517161 0.00764741
vt 0.3735911 0.06440856
vt 0.34375 0.15625
vt 0.3735911 0.2480915
vt 0.4517161 0.3048526
vt 0.5482839 0.3048526
vt 0.6264089 0.2480914
vt 0.65625 0.15625
vt 0 0
vt 0 1
vt 1 1
vt 1 0
vt 0 0
vt 0 1
vt 1 1
vt 1 0
vt 0 0
vt 0 1
vt 1 1
vt 1 0
vt 0 0
vt 0 1
vt 1 1
vt 1 0
vt 0 0
vt 0 1
vt 1 1
vt 1 0
vt 0 0
vt 0 1
vt 1 1
vt 1 0
vt 0 0
vt 0 1
vt 1 1
vt 1 0
vt 0 0
vt 0 1
vt 1 1
vt 1 0
vt 0 0
vt 0 1
vt 1 1
vt 1 0
vt 0 0
vt 0 1
vt 1 1
vt 1 0
vt 0 0
vt 0 1
vt 1 1
vt 1 0
vt 0 0
vt 0 1
vt 1 1
vt 1 0
vt 0 0
vt 0 1
vt 1 1
vt 1 0
vt 0 0
vt 0 1
vt 1 1
vt 1 0
vt 0 0
vt 0 1
vt 1 1
vt 1 0
vt 0 0
vt 0 1
vt 1 1
vt 1 0
vt 0 0
vt 0 1
vt 1 1
vt 1 0
vt 0 0
vt 0 1
vt 1 1
vt 1 0
vt 0 0
vt 0 1
vt 1 1
vt 1 0
vt 0 0
vt 0 1
vt 1 1
vt 1 0
vt 0 0
vt 0 1
vt 1 1
vt 1 0
vt 0 0
vt 0 1
vt 1 1
vt 1 0
vt 0 0
vt 0 1
vt 1 1
vt 1 0
vt 0 0
vt 0 1
vt 1 1
vt 1 0
vt 0 0
vt 0 1
vt 1 1
vt 1 0
vt 0 0
vt 0 1
vt 1 1
vt 1 0
vt 0 0
vt 0 1
vt 1 1
vt 1 0
vt 0 0
vt 0 1
vt 1 1
vt 1 0
vt 0 0
vt 0 1
vt 1 1
vt 1 0
vt 0 0
vt 0 1
vt 1 1
vt 1 0
vt 0 0
vt 0 1
vt 1 1
vt 1 0
vt 0 0
vt 0 1
vt 1 1
vt 1 0
vt 0 0
vt 0 1
vt 1 1
vt 1 0
vt 0 0
vt 0 1
vt 1 1
vt 1 0
vt 0 0
vt 0 1
vt 1 1
vt 1 0
vt 0 0
vt 0 1
vt 1 1
vt 1 0
vt 0 0
vt 0 1
vt 1 1
vt 1 0
vt 0 0
vt 0 1
vt 1 1
vt 1 0
vt 0 0
vt 0 1
vt 1 1
vt 1 0
vt 0 0
vt 0 1
vt 1 1
vt 1 0
vt 0 0
vt 0.5 1
vt 1 0
vt 0 0
vt 0.5 1
vt 1 0
vt 0 0
vt 0.5 1
vt 1 0
vt 0 0
vt 0.5 1
vt 1 0
vt 0 0
vt 0.5 1
vt 1 0
vt 0 0
vt 0.5 1
vt 1 0
vt 0 0
vt 0.5 1
vt 1 0
vt 0 0
vt 0.5 1
vt 1 0
vt 0 0
vt 0.5 1
vt 1 0
vt 0 0
vt 0.5 1
vt 1 0

g Foliage_44_3709_283
usemtl Foliage_44_3709_283
usemap Foliage_44_3709_283
f 1/1/1 3/3/3 2/2/2
f 4/4/4 1/1/1 2/2/2
f 5/5/5 4/4/4 2/2/2
f 6/6/6 5/5/5 2/2/2
f 7/7/7 6/6/6 2/2/2
f 8/8/8 7/7/7 2/2/2
f 9/9/9 8/8/8 2/2/2
f 10/10/10 9/9/9 2/2/2
f 11/11/11 10/10/10 2/2/2
f 3/3/3 11/11/11 2/2/2
f 12/12/12 14/14/14 13/13/13
f 12/12/12 15/15/15 14/14/14
f 16/16/16 18/18/18 17/17/17
f 16/16/16 19/19/19 18/18/18
f 20/20/20 22/22/22 21/21/21
f 20/20/20 23/23/23 22/22/22
f 24/24/24 26/26/26 25/25/25
f 24/24/24 27/27/27 26/26/26
f 28/28/28 30/30/30 29/29/29
f 28/28/28 31/31/31 30/30/30
f 32/32/32 34/34/34 33/33/33
f 32/32/32 35/35/35 34/34/34
f 36/36/36 38/38/38 37/37/37
f 36/36/36 39/39/39 38/38/38
f 40/40/40 42/42/42 41/41/41
f 40/40/40 43/43/43 42/42/42
f 44/44/44 46/46/46 45/45/45
f 44/44/44 47/47/47 46/46/46
f 48/48/48 50/50/50 49/49/49
f 48/48/48 51/51/51 50/50/50
f 52/52/52 54/54/54 53/53/53
f 52/52/52 55/55/55 54/54/54
f 56/56/56 58/58/58 57/57/57
f 56/56/56 59/59/59 58/58/58
f 60/60/60 62/62/62 61/61/61
f 60/60/60 63/63/63 62/62/62
f 64/64/64 66/66/66 65/65/65
f 64/64/64 67/67/67 66/66/66
f 68/68/68 70/70/70 69/69/69
f 68/68/68 71/71/71 70/70/70
f 72/72/72 74/74/74 73/73/73
f 72/72/72 75/75/75 74/74/74
f 76/76/76 78/78/78 77/77/77
f 76/76/76 79/79/79 78/78/78
f 80/80/80 82/82/82 81/81/81
f 80/80/80 83/83/83 82/82/82
f 84/84/84 86/86/86 85/85/85
f 84/84/84 87/87/87 86/86/86
f 88/88/88 90/90/90 89/89/89
f 88/88/88 91/91/91 90/90/90
f 92/92/92 94/94/94 93/93/93
f 92/92/92 95/95/95 94/94/94
f 96/96/96 98/98/98 97/97/97
f 96/96/96 99/99/99 98/98/98
f 100/100/100 102/102/102 101/101/101
f 100/100/100 103/103/103 102/102/102
f 104/104/104 106/106/106 105/105/105
f 104/104/104 107/107/107 106/106/106
f 108/108/108 110/110/110 109/109/109
f 108/108/108 111/111/111 110/110/110
f 112/112/112 114/114/114 113/113/113
f 112/112/112 115/115/115 114/114/114
f 116/116/116 118/118/118 117/117/117
f 116/116/116 119/119/119 118/118/118
f 120/120/120 122/122/122 121/121/121
f 120/120/120 123/123/123 122/122/122
f 124/124/124 126/126/126 125/125/125
f 124/124/124 127/127/127 126/126/126
f 128/128/128 130/130/130 129/129/129
f 128/128/128 131/131/131 130/130/130
f 132/132/132 134/134/134 133/133/133
f 132/132/132 135/135/135 134/134/134
f 136/136/136 138/138/138 137/137/137
f 136/136/136 139/139/139 138/138/138
f 140/140/140 142/142/142 141/141/141
f 140/140/140 143/143/143 142/142/142
f 144/144/144 146/146/146 145/145/145
f 144/144/144 147/147/147 146/146/146
f 148/148/148 150/150/150 149/149/149
f 148/148/148 151/151/151 150/150/150
f 152/152/152 154/154/154 153/153/153
f 152/152/152 155/155/155 154/154/154
f 156/156/156 158/158/158 157/157/157
f 156/156/156 159/159/159 158/158/158
f 160/160/160 162/162/162 161/161/161
f 160/160/160 163/163/163 162/162/162
f 164/164/164 166/166/166 165/165/165
f 164/164/164 167/167/167 166/166/166
f 168/168/168 170/170/170 169/169/169
f 168/168/168 171/171/171 170/170/170
f 172/172/172 174/174/174 173/173/173
f 175/175/175 177/177/177 176/176/176
f 178/178/178 180/180/180 179/179/179
f 181/181/181 183/183/183 182/182/182
f 184/184/184 186/186/186 185/185/185
f 187/187/187 189/189/189 188/188/188
f 190/190/190 192/192/192 191/191/191
f 193/193/193 195/195/195 194/194/194
f 196/196/196 198/198/198 197/197/197
f 199/199/199 201/201/201 200/200/200
