#Foliage2_39_4058_118.obj

v 0.01454703 -0.02577554 -0.04035822
v 0.004625177 -0.03397596 0.001091545
v 0.03878617 -0.02577551 -0.0210547
v -0.009661819 -0.02577556 -0.03817529
v -0.01824926 -0.02577551 -0.01778033
v -0.03822037 -0.02223211 0.001091487
v -0.0213492 -0.02577555 0.0199633
v -0.005295777 -0.02577551 0.03271807
v 0.02109582 -0.02577553 0.04035825
v 0.03059983 -0.02577558 0.0199633
v 0.03219107 -0.02223217 0.001091483
v 0.03878617 -0.02577551 -0.0210547
v 0.04796825 -0.01489232 -0.02772609
v 0.01805448 -0.01489228 -0.05115271
v 0.01454703 -0.02577554 -0.04035822
v 0.01454703 -0.02577554 -0.04035822
v 0.01805448 -0.01489228 -0.05115271
v -0.01316954 -0.01489233 -0.04896976
v -0.009661819 -0.02577556 -0.03817529
v -0.009661819 -0.02577556 -0.03817529
v -0.01316954 -0.01489233 -0.04896976
v -0.02743142 -0.01489232 -0.02445172
v -0.01824926 -0.02577551 -0.01778033
v -0.01824926 -0.02577551 -0.01778033
v -0.02743142 -0.01489232 -0.02445172
v -0.04796543 -0.01288813 0.001091527
v -0.03822037 -0.02223211 0.001091487
v -0.03822037 -0.02223211 0.001091487
v -0.04796543 -0.01288813 0.001091527
v -0.03053183 -0.01489227 0.02663471
v -0.0213492 -0.02577555 0.0199633
v -0.0213492 -0.02577555 0.0199633
v -0.03053183 -0.01489227 0.02663471
v -0.008803152 -0.01489227 0.04351255
v -0.005295777 -0.02577551 0.03271807
v -0.005295777 -0.02577551 0.03271807
v -0.008803152 -0.01489227 0.04351255
v 0.02460299 -0.01489228 0.05115274
v 0.02109582 -0.02577553 0.04035825
v 0.02109582 -0.02577553 0.04035825
v 0.02460299 -0.01489228 0.05115274
v 0.03978269 -0.01489225 0.02663465
v 0.03059983 -0.02577558 0.0199633
v 0.03059983 -0.02577558 0.0199633
v 0.03978269 -0.01489225 0.02663465
v 0.04193585 -0.01288819 0.001091527
v 0.03219107 -0.02223217 0.001091483
v 0.03219107 -0.02223217 0.001091483
v 0.04193585 -0.01288819 0.001091527
v 0.04796825 -0.01489232 -0.02772609
v 0.03878617 -0.02577551 -0.0210547
v 0.04796825 -0.01489232 -0.02772609
v 0.04796826 -0.0001482849 -0.02772607
v 0.01805449 -0.0001482505 -0.0511527
v 0.01805448 -0.01489228 -0.05115271
v 0.01805448 -0.01489228 -0.05115271
v 0.01805449 -0.0001482505 -0.0511527
v -0.01316953 -0.0001482999 -0.04896975
v -0.01316954 -0.01489233 -0.04896976
v -0.01316954 -0.01489233 -0.04896976
v -0.01316953 -0.0001482999 -0.04896975
v -0.02743141 -0.0001482904 -0.02445171
v -0.02743142 -0.01489232 -0.02445172
v -0.02743142 -0.01489232 -0.02445172
v -0.02743141 -0.0001482904 -0.02445171
v -0.04796548 -0.000229314 0.001091482
v -0.04796543 -0.01288813 0.001091527
v -0.04796543 -0.01288813 0.001091527
v -0.04796548 -0.000229314 0.001091482
v -0.03053182 -0.0001482342 0.02663472
v -0.03053183 -0.01489227 0.02663471
v -0.03053183 -0.01489227 0.02663471
v -0.03053182 -0.0001482342 0.02663472
v -0.008803142 -0.0001482314 0.04351257
v -0.008803152 -0.01489227 0.04351255
v -0.008803152 -0.01489227 0.04351255
v -0.008803142 -0.0001482314 0.04351257
v 0.02460299 -0.0001482516 0.05115275
v 0.02460299 -0.01489228 0.05115274
v 0.02460299 -0.01489228 0.05115274
v 0.02460299 -0.0001482516 0.05115275
v 0.0397827 -0.000148217 0.02663466
v 0.03978269 -0.01489225 0.02663465
v 0.03978269 -0.01489225 0.02663465
v 0.0397827 -0.000148217 0.02663466
v 0.04193579 -0.000229368 0.001091482
v 0.04193585 -0.01288819 0.001091527
v 0.04193585 -0.01288819 0.001091527
v 0.04193579 -0.000229368 0.001091482
v 0.04796826 -0.0001482849 -0.02772607
v 0.04796825 -0.01489232 -0.02772609
v 0.04796826 -0.0001482849 -0.02772607
v 0.04569047 0.01428344 -0.02539674
v 0.01714662 0.01428339 -0.04799118
v 0.01805449 -0.0001482505 -0.0511527
v 0.01805449 -0.0001482505 -0.0511527
v 0.01714662 0.01428339 -0.04799118
v -0.01182785 0.01428343 -0.04559757
v -0.01316953 -0.0001482999 -0.04896975
v -0.01316953 -0.0001482999 -0.04896975
v -0.01182785 0.01428343 -0.04559757
v -0.02320891 0.0142834 -0.02180629
v -0.02743141 -0.0001482904 -0.02445171
v -0.02743141 -0.0001482904 -0.02445171
v -0.02320891 0.0142834 -0.02180629
v -0.04530283 0.0119721 0.001196902
v -0.04796548 -0.000229314 0.001091482
v -0.04796548 -0.000229314 0.001091482
v -0.04530283 0.0119721 0.001196902
v -0.02660831 0.01428343 0.02420009
v -0.03053182 -0.0001482342 0.02663472
v -0.03053182 -0.0001482342 0.02663472
v -0.02660831 0.01428343 0.02420009
v -0.00704022 0.01428344 0.03961359
v -0.008803142 -0.0001482314 0.04351257
v -0.008803142 -0.0001482314 0.04351257
v -0.00704022 0.01428344 0.03961359
v 0.02432754 0.01428344 0.04799126
v 0.02460299 -0.0001482516 0.05115275
v 0.02460299 -0.0001482516 0.05115275
v 0.02432754 0.01428344 0.04799126
v 0.03671448 0.0142835 0.02420006
v 0.0397827 -0.000148217 0.02663466
v 0.0397827 -0.000148217 0.02663466
v 0.03671448 0.0142835 0.02420006
v 0.03865375 0.01197222 0.001196865
v 0.04193579 -0.000229368 0.001091482
v 0.04193579 -0.000229368 0.001091482
v 0.03865375 0.01197222 0.001196865
v 0.04569047 0.01428344 -0.02539674
v 0.04796826 -0.0001482849 -0.02772607
v 0.04569047 0.01428344 -0.02539674
v 0.03225413 0.02437454 -0.01614763
v 0.01203791 0.02437447 -0.0325686
v 0.01714662 0.01428339 -0.04799118
v 0.01714662 0.01428339 -0.04799118
v 0.01203791 0.02437447 -0.0325686
v -0.002590878 0.0243744 -0.02139376
v -0.01182785 0.01428343 -0.04559757
v -0.01182785 0.01428343 -0.04559757
v -0.002590878 0.0243744 -0.02139376
v -0.01125149 0.02437445 -0.01279515
v -0.02320891 0.0142834 -0.02180629
v -0.02320891 0.0142834 -0.02180629
v -0.01125149 0.02437445 -0.01279515
v -0.0312433 0.02074653 0.001117543
v -0.04530283 0.0119721 0.001196902
v -0.04530283 0.0119721 0.001196902
v -0.0312433 0.02074653 0.001117543
v -0.01442534 0.02437454 0.01503023
v -0.02660831 0.01428343 0.02420009
v -0.02660831 0.01428343 0.02420009
v -0.01442534 0.02437454 0.01503023
v -0.002590923 0.02437448 0.02474627
v -0.00704022 0.01428344 0.03961359
v -0.00704022 0.01428344 0.03961359
v -0.002590923 0.02437448 0.02474627
v 0.0187431 0.02437447 0.03256864
v 0.02432754 0.01428344 0.04799126
v 0.02432754 0.01428344 0.04799126
v 0.0187431 0.02437447 0.03256864
v 0.02387276 0.02437449 0.01503028
v 0.03671448 0.0142835 0.02420006
v 0.03671448 0.0142835 0.02420006
v 0.02387276 0.02437449 0.01503028
v 0.02504594 0.02074655 0.001117554
v 0.03865375 0.01197222 0.001196865
v 0.03865375 0.01197222 0.001196865
v 0.02504594 0.02074655 0.001117554
v 0.03225413 0.02437454 -0.01614763
v 0.04569047 0.01428344 -0.02539674
v 0.03225413 0.02437454 -0.01614763
v 0.004625199 0.03397612 0.001091496
v 0.01203791 0.02437447 -0.0325686
v 0.01203791 0.02437447 -0.0325686
v 0.004625199 0.03397612 0.001091496
v -0.002590878 0.0243744 -0.02139376
v -0.002590878 0.0243744 -0.02139376
v 0.004625199 0.03397612 0.001091496
v -0.01125149 0.02437445 -0.01279515
v -0.01125149 0.02437445 -0.01279515
v 0.004625199 0.03397612 0.001091496
v -0.0312433 0.02074653 0.001117543
v -0.0312433 0.02074653 0.001117543
v 0.004625199 0.03397612 0.001091496
v -0.01442534 0.02437454 0.01503023
v -0.01442534 0.02437454 0.01503023
v 0.004625199 0.03397612 0.001091496
v -0.002590923 0.02437448 0.02474627
v -0.002590923 0.02437448 0.02474627
v 0.004625199 0.03397612 0.001091496
v 0.0187431 0.02437447 0.03256864
v 0.0187431 0.02437447 0.03256864
v 0.004625199 0.03397612 0.001091496
v 0.02387276 0.02437449 0.01503028
v 0.02387276 0.02437449 0.01503028
v 0.004625199 0.03397612 0.001091496
v 0.02504594 0.02074655 0.001117554
v 0.02504594 0.02074655 0.001117554
v 0.004625199 0.03397612 0.001091496
v 0.03225413 0.02437454 -0.01614763

vn -0.2592143 -0.9650309 -0.03902936
vn -0.02925367 -0.9987141 0.04140512
vn -0.1003054 -0.9751149 -0.1977113
vn -0.2515113 -0.958906 0.1313061
vn -0.1571397 -0.9272425 0.3398947
vn -0.04964802 -0.9350326 0.3510685
vn 0.1135826 -0.9429635 0.31292
vn 0.2536497 -0.9520414 0.1711107
vn 0.204115 -0.9787966 -0.01715601
vn 0.004851897 -0.9560319 -0.2932225
vn 0.09866587 -0.90631 -0.4109344
vn -0.6460176 -0.6110536 -0.4574656
vn -0.6460177 -0.6110537 -0.4574656
vn -0.6460176 -0.6110537 -0.4574656
vn -0.6460177 -0.6110537 -0.4574656
vn -0.8082816 -0.5867957 0.0484942
vn -0.8082815 -0.5867957 0.0484942
vn -0.8082816 -0.5867957 0.04849421
vn -0.8082815 -0.5867957 0.0484942
vn -0.408646 -0.5596128 0.7210006
vn -0.4086461 -0.5596128 0.7210007
vn -0.408646 -0.5596128 0.7210006
vn -0.408646 -0.5596128 0.7210007
vn -0.5265695 -0.5815803 0.6200717
vn -0.5265695 -0.5815803 0.6200717
vn -0.5265695 -0.5815803 0.6200717
vn -0.5265695 -0.5815803 0.6200717
vn 0.4201035 -0.5959036 0.6844063
vn 0.4201035 -0.5959036 0.6844063
vn 0.4201035 -0.5959035 0.6844063
vn 0.4201035 -0.5959035 0.6844063
vn 0.6122825 -0.6049963 0.5090086
vn 0.6122824 -0.6049962 0.5090087
vn 0.6122824 -0.6049963 0.5090087
vn 0.6122824 -0.6049963 0.5090086
vn 0.7615194 -0.600591 0.2436773
vn 0.7615194 -0.6005911 0.2436774
vn 0.7615194 -0.6005911 0.2436773
vn 0.7615194 -0.600591 0.2436773
vn 0.4019376 -0.6324049 -0.6622011
vn 0.4019376 -0.6324049 -0.662201
vn 0.4019376 -0.6324049 -0.662201
vn 0.4019376 -0.6324049 -0.6622012
vn -0.04713926 -0.6369419 -0.7694692
vn -0.04713927 -0.636942 -0.7694692
vn -0.04713926 -0.6369419 -0.7694692
vn -0.04713927 -0.6369419 -0.7694692
vn 0.2755004 -0.5812208 -0.7656904
vn 0.2755004 -0.5812207 -0.7656905
vn 0.2755004 -0.5812208 -0.7656904
vn 0.2755004 -0.5812208 -0.7656905
vn -0.7943191 -0.004038393 -0.6074873
vn -0.7943191 -0.004038396 -0.6074873
vn -0.7943191 -0.004038396 -0.6074873
vn -0.7943191 -0.004038393 -0.6074873
vn -0.999612 0.01932951 0.02005608
vn -0.999612 0.01932951 0.02005608
vn -0.999612 0.01932951 0.02005608
vn -0.999612 0.01932951 0.02005608
vn -0.542449 0.0362661 0.8393056
vn -0.542449 0.0362661 0.8393056
vn -0.542449 0.0362661 0.8393056
vn -0.542449 0.0362661 0.8393056
vn -0.670261 0.03560741 0.7412707
vn -0.670261 0.03560741 0.7412707
vn -0.670261 0.03560741 0.7412707
vn -0.670261 0.03560741 0.7412707
vn 0.5839837 0.01432662 0.811639
vn 0.5839837 0.01432662 0.811639
vn 0.5839837 0.01432661 0.8116389
vn 0.5839837 0.01432662 0.811639
vn 0.7965575 0.003905113 0.60455
vn 0.7965575 0.003905113 0.60455
vn 0.7965575 0.003905113 0.60455
vn 0.7965575 0.003905113 0.60455
vn 0.9689211 -0.01044096 0.2471498
vn 0.9689211 -0.01044096 0.2471498
vn 0.9689211 -0.01044096 0.2471498
vn 0.9689211 -0.01044096 0.2471498
vn 0.5671806 -0.03621521 -0.8227968
vn 0.5671806 -0.03621521 -0.8227968
vn 0.5671806 -0.03621521 -0.8227968
vn 0.5671806 -0.03621521 -0.8227968
vn 0.08860549 -0.03263452 -0.9955321
vn 0.08860549 -0.03263452 -0.9955321
vn 0.08860549 -0.03263452 -0.9955321
vn 0.08860549 -0.03263452 -0.9955321
vn 0.2208287 -0.03446068 -0.9747036
vn 0.2208287 -0.03446068 -0.9747037
vn 0.2208287 -0.03446068 -0.9747036
vn 0.2208287 -0.03446068 -0.9747036
vn -0.7770813 0.1619846 -0.6081987
vn -0.7770813 0.1619847 -0.6081988
vn -0.7770813 0.1619847 -0.6081988
vn -0.7770813 0.1619847 -0.6081988
vn -0.9813121 0.1915928 0.01785765
vn -0.9813121 0.1915928 0.01785765
vn -0.9813121 0.1915928 0.01785765
vn -0.9813121 0.1915928 0.01785765
vn -0.4896186 0.2543324 0.8340195
vn -0.4896185 0.2543324 0.8340196
vn -0.4896187 0.2543324 0.8340195
vn -0.4896186 0.2543324 0.8340195
vn -0.6766137 0.2468879 0.6937148
vn -0.6766137 0.2468879 0.6937147
vn -0.6766137 0.2468878 0.6937148
vn -0.6766137 0.2468879 0.6937149
vn 0.6027167 0.2080059 0.7703675
vn 0.6027167 0.2080059 0.7703675
vn 0.6027167 0.2080059 0.7703676
vn 0.6027167 0.2080059 0.7703676
vn 0.7812266 0.2256549 0.5820352
vn 0.7812266 0.2256549 0.5820352
vn 0.7812266 0.2256549 0.5820351
vn 0.7812266 0.2256549 0.5820351
vn 0.9520143 0.1772393 0.2495093
vn 0.9520143 0.1772393 0.2495093
vn 0.9520143 0.1772393 0.2495093
vn 0.9520143 0.1772393 0.2495093
vn 0.5311744 0.1254674 -0.837921
vn 0.5311744 0.1254674 -0.837921
vn 0.5311745 0.1254674 -0.837921
vn 0.5311744 0.1254674 -0.837921
vn 0.07968017 0.1675681 -0.9826352
vn 0.07968018 0.1675681 -0.9826352
vn 0.07968017 0.1675681 -0.9826352
vn 0.07968018 0.167568 -0.9826352
vn 0.2568364 0.1154073 -0.9595395
vn 0.2568363 0.1154073 -0.9595395
vn 0.2568364 0.1154073 -0.9595395
vn 0.2568364 0.1154073 -0.9595395
vn -0.4864492 0.7604298 -0.4302485
vn -0.4864493 0.7604297 -0.4302484
vn -0.4864492 0.7604298 -0.4302485
vn -0.4864493 0.7604297 -0.4302484
vn -0.5137801 0.8527362 0.09418575
vn -0.5137801 0.8527362 0.09418576
vn -0.5137801 0.8527362 0.09418575
vn -0.5137801 0.8527362 0.09418573
vn -0.2979857 0.8513694 0.4317113
vn -0.2979857 0.8513694 0.4317113
vn -0.2979857 0.8513694 0.4317113
vn -0.2979857 0.8513694 0.4317113
vn -0.444034 0.7738305 0.451686
vn -0.4440339 0.7738304 0.451686
vn -0.4440339 0.7738304 0.451686
vn -0.4440339 0.7738304 0.451686
vn 0.4101957 0.7589184 0.5057494
vn 0.4101957 0.7589184 0.5057493
vn 0.4101957 0.7589183 0.5057494
vn 0.4101957 0.7589184 0.5057494
vn 0.5467954 0.7473817 0.377406
vn 0.5467955 0.7473817 0.3774061
vn 0.5467955 0.7473816 0.377406
vn 0.5467955 0.7473817 0.3774061
vn 0.6640555 0.7260204 0.1786748
vn 0.6640555 0.7260204 0.1786748
vn 0.6640555 0.7260204 0.1786748
vn 0.6640555 0.7260204 0.1786748
vn 0.3031549 0.7098761 -0.6357461
vn 0.3031549 0.7098761 -0.6357461
vn 0.3031549 0.7098761 -0.6357461
vn 0.3031549 0.7098761 -0.6357461
vn -0.07393117 0.7152976 -0.6948982
vn -0.07393119 0.7152977 -0.6948982
vn -0.07393119 0.7152976 -0.6948982
vn -0.07393115 0.7152976 -0.6948982
vn 0.3686141 0.6359786 -0.6779785
vn 0.3686141 0.6359787 -0.6779785
vn 0.3686141 0.6359786 -0.6779785
vn 0.3686141 0.6359786 -0.6779785
vn -0.2655121 0.9249673 -0.2719172
vn -0.2655121 0.9249672 -0.2719172
vn -0.2655121 0.9249673 -0.2719172
vn -0.3692847 0.9022229 0.2227613
vn -0.3692848 0.9022229 0.2227613
vn -0.3692848 0.9022229 0.2227613
vn -0.3436674 0.8950154 0.2843243
vn -0.3436675 0.8950154 0.2843243
vn -0.3436674 0.8950152 0.2843244
vn -0.2821344 0.8978391 0.3380606
vn -0.2821344 0.8978391 0.3380607
vn -0.2821344 0.8978391 0.3380607
vn 0.2416396 0.8990944 0.3650197
vn 0.2416396 0.8990944 0.3650196
vn 0.2416396 0.8990944 0.3650197
vn 0.3976076 0.8801863 0.2591918
vn 0.3976076 0.8801863 0.2591918
vn 0.3976076 0.8801863 0.2591918
vn 0.4486371 0.8852279 0.1228668
vn 0.4486371 0.8852279 0.1228668
vn 0.4486371 0.8852279 0.1228668
vn 0.1632506 0.8679215 -0.4691072
vn 0.1632505 0.8679214 -0.4691072
vn 0.1632506 0.8679215 -0.4691072
vn -0.184334 0.748845 -0.6365942
vn -0.184334 0.748845 -0.6365941
vn -0.184334 0.7488451 -0.6365941
vn 0.463164 0.6848196 -0.5625845
vn 0.463164 0.6848196 -0.5625844
vn 0.463164 0.6848196 -0.5625845

vt 0.5483398 0.007648468
vt 0.5 0.1500244
vt 0.6264648 0.06439209
vt 0.4516602 0.007648468
vt 0.3735352 0.06439209
vt 0.34375 0.15625
vt 0.3735352 0.2480469
vt 0.4516602 0.3049316
vt 0.5483398 0.3049316
vt 0.6264648 0.2480469
vt 0.65625 0.15625
vt 0 0
vt 0 1
vt 1 1
vt 1 0
vt 0 0
vt 0 1
vt 1 1
vt 1 0
vt 0 0
vt 0 1
vt 1 1
vt 1 0
vt 0 0
vt 0 1
vt 1 1
vt 1 0
vt 0 0
vt 0 1
vt 1 1
vt 1 0
vt 0 0
vt 0 1
vt 1 1
vt 1 0
vt 0 0
vt 0 1
vt 1 1
vt 1 0
vt 0 0
vt 0 1
vt 1 1
vt 1 0
vt 0 0
vt 0 1
vt 1 1
vt 1 0
vt 0 0
vt 0 1
vt 1 1
vt 1 0
vt 0 0
vt 0 1
vt 1 1
vt 1 0
vt 0 0
vt 0 1
vt 1 1
vt 1 0
vt 0 0
vt 0 1
vt 1 1
vt 1 0
vt 0 0
vt 0 1
vt 1 1
vt 1 0
vt 0 0
vt 0 1
vt 1 1
vt 1 0
vt 0 0
vt 0 1
vt 1 1
vt 1 0
vt 0 0
vt 0 1
vt 1 1
vt 1 0
vt 0 0
vt 0 1
vt 1 1
vt 1 0
vt 0 0
vt 0 1
vt 1 1
vt 1 0
vt 0 0
vt 0 1
vt 1 1
vt 1 0
vt 0 0
vt 0 1
vt 1 1
vt 1 0
vt 0 0
vt 0 1
vt 1 1
vt 1 0
vt 0 0
vt 0 1
vt 1 1
vt 1 0
vt 0 0
vt 0 1
vt 1 1
vt 1 0
vt 0 0
vt 0 1
vt 1 1
vt 1 0
vt 0 0
vt 0 1
vt 1 1
vt 1 0
vt 0 0
vt 0 1
vt 1 1
vt 1 0
vt 0 0
vt 0 1
vt 1 1
vt 1 0
vt 0 0
vt 0 1
vt 1 1
vt 1 0
vt 0 0
vt 0 1
vt 1 1
vt 1 0
vt 0 0
vt 0 1
vt 1 1
vt 1 0
vt 0 0
vt 0 1
vt 1 1
vt 1 0
vt 0 0
vt 0 1
vt 1 1
vt 1 0
vt 0 0
vt 0 1
vt 1 1
vt 1 0
vt 0 0
vt 0 1
vt 1 1
vt 1 0
vt 0 0
vt 0 1
vt 1 1
vt 1 0
vt 0 0
vt 0 1
vt 1 1
vt 1 0
vt 0 0
vt 0 1
vt 1 1
vt 1 0
vt 0 0
vt 0 1
vt 1 1
vt 1 0
vt 0 0
vt 0 1
vt 1 1
vt 1 0
vt 0 0
vt 0.5 1
vt 1 0
vt 0 0
vt 0.5 1
vt 1 0
vt 0 0
vt 0.5 1
vt 1 0
vt 0 0
vt 0.5 1
vt 1 0
vt 0 0
vt 0.5 1
vt 1 0
vt 0 0
vt 0.5 1
vt 1 0
vt 0 0
vt 0.5 1
vt 1 0
vt 0 0
vt 0.5 1
vt 1 0
vt 0 0
vt 0.5 1
vt 1 0
vt 0 0
vt 0.5 1
vt 1 0

g Foliage2_39_4058_118
usemtl Foliage2_39_4058_118
usemap Foliage2_39_4058_118
f 1/1/1 3/3/3 2/2/2
f 4/4/4 1/1/1 2/2/2
f 5/5/5 4/4/4 2/2/2
f 6/6/6 5/5/5 2/2/2
f 7/7/7 6/6/6 2/2/2
f 8/8/8 7/7/7 2/2/2
f 9/9/9 8/8/8 2/2/2
f 10/10/10 9/9/9 2/2/2
f 11/11/11 10/10/10 2/2/2
f 3/3/3 11/11/11 2/2/2
f 12/12/12 14/14/14 13/13/13
f 12/12/12 15/15/15 14/14/14
f 16/16/16 18/18/18 17/17/17
f 16/16/16 19/19/19 18/18/18
f 20/20/20 22/22/22 21/21/21
f 20/20/20 23/23/23 22/22/22
f 24/24/24 26/26/26 25/25/25
f 24/24/24 27/27/27 26/26/26
f 28/28/28 30/30/30 29/29/29
f 28/28/28 31/31/31 30/30/30
f 32/32/32 34/34/34 33/33/33
f 32/32/32 35/35/35 34/34/34
f 36/36/36 38/38/38 37/37/37
f 36/36/36 39/39/39 38/38/38
f 40/40/40 42/42/42 41/41/41
f 40/40/40 43/43/43 42/42/42
f 44/44/44 46/46/46 45/45/45
f 44/44/44 47/47/47 46/46/46
f 48/48/48 50/50/50 49/49/49
f 48/48/48 51/51/51 50/50/50
f 52/52/52 54/54/54 53/53/53
f 52/52/52 55/55/55 54/54/54
f 56/56/56 58/58/58 57/57/57
f 56/56/56 59/59/59 58/58/58
f 60/60/60 62/62/62 61/61/61
f 60/60/60 63/63/63 62/62/62
f 64/64/64 66/66/66 65/65/65
f 64/64/64 67/67/67 66/66/66
f 68/68/68 70/70/70 69/69/69
f 68/68/68 71/71/71 70/70/70
f 72/72/72 74/74/74 73/73/73
f 72/72/72 75/75/75 74/74/74
f 76/76/76 78/78/78 77/77/77
f 76/76/76 79/79/79 78/78/78
f 80/80/80 82/82/82 81/81/81
f 80/80/80 83/83/83 82/82/82
f 84/84/84 86/86/86 85/85/85
f 84/84/84 87/87/87 86/86/86
f 88/88/88 90/90/90 89/89/89
f 88/88/88 91/91/91 90/90/90
f 92/92/92 94/94/94 93/93/93
f 92/92/92 95/95/95 94/94/94
f 96/96/96 98/98/98 97/97/97
f 96/96/96 99/99/99 98/98/98
f 100/100/100 102/102/102 101/101/101
f 100/100/100 103/103/103 102/102/102
f 104/104/104 106/106/106 105/105/105
f 104/104/104 107/107/107 106/106/106
f 108/108/108 110/110/110 109/109/109
f 108/108/108 111/111/111 110/110/110
f 112/112/112 114/114/114 113/113/113
f 112/112/112 115/115/115 114/114/114
f 116/116/116 118/118/118 117/117/117
f 116/116/116 119/119/119 118/118/118
f 120/120/120 122/122/122 121/121/121
f 120/120/120 123/123/123 122/122/122
f 124/124/124 126/126/126 125/125/125
f 124/124/124 127/127/127 126/126/126
f 128/128/128 130/130/130 129/129/129
f 128/128/128 131/131/131 130/130/130
f 132/132/132 134/134/134 133/133/133
f 132/132/132 135/135/135 134/134/134
f 136/136/136 138/138/138 137/137/137
f 136/136/136 139/139/139 138/138/138
f 140/140/140 142/142/142 141/141/141
f 140/140/140 143/143/143 142/142/142
f 144/144/144 146/146/146 145/145/145
f 144/144/144 147/147/147 146/146/146
f 148/148/148 150/150/150 149/149/149
f 148/148/148 151/151/151 150/150/150
f 152/152/152 154/154/154 153/153/153
f 152/152/152 155/155/155 154/154/154
f 156/156/156 158/158/158 157/157/157
f 156/156/156 159/159/159 158/158/158
f 160/160/160 162/162/162 161/161/161
f 160/160/160 163/163/163 162/162/162
f 164/164/164 166/166/166 165/165/165
f 164/164/164 167/167/167 166/166/166
f 168/168/168 170/170/170 169/169/169
f 168/168/168 171/171/171 170/170/170
f 172/172/172 174/174/174 173/173/173
f 175/175/175 177/177/177 176/176/176
f 178/178/178 180/180/180 179/179/179
f 181/181/181 183/183/183 182/182/182
f 184/184/184 186/186/186 185/185/185
f 187/187/187 189/189/189 188/188/188
f 190/190/190 192/192/192 191/191/191
f 193/193/193 195/195/195 194/194/194
f 196/196/196 198/198/198 197/197/197
f 199/199/199 201/201/201 200/200/200
