#Foliage_20_4110_254.obj

v 0.01454574 -0.02577556 -0.04035921
v 0.004624396 -0.03397599 0.001090421
v 0.03878511 -0.02577557 -0.02105586
v -0.009663024 -0.02577559 -0.03817637
v -0.01825029 -0.02577555 -0.01778149
v -0.03822163 -0.02223214 0.001090595
v -0.02135032 -0.02577557 0.01996202
v -0.005297099 -0.02577558 0.03271716
v 0.02109458 -0.0257756 0.04035728
v 0.03059909 -0.02577559 0.01996224
v 0.03219014 -0.02223213 0.001090322
v 0.03878511 -0.02577557 -0.02105586
v 0.04796737 -0.01489231 -0.02772711
v 0.01805313 -0.01489233 -0.05115372
v 0.01454574 -0.02577556 -0.04035921
v 0.01454574 -0.02577556 -0.04035921
v 0.01805313 -0.01489233 -0.05115372
v -0.01317044 -0.01489229 -0.04897081
v -0.009663024 -0.02577559 -0.03817637
v -0.009663024 -0.02577559 -0.03817637
v -0.01317044 -0.01489229 -0.04897081
v -0.0274327 -0.01489234 -0.02445263
v -0.01825029 -0.02577555 -0.01778149
v -0.01825029 -0.02577555 -0.01778149
v -0.0274327 -0.01489234 -0.02445263
v -0.04796646 -0.01288811 0.001090419
v -0.03822163 -0.02223214 0.001090595
v -0.03822163 -0.02223214 0.001090595
v -0.04796646 -0.01288811 0.001090419
v -0.03053276 -0.01489231 0.02663352
v -0.02135032 -0.02577557 0.01996202
v -0.02135032 -0.02577557 0.01996202
v -0.03053276 -0.01489231 0.02663352
v -0.008804431 -0.01489231 0.04351157
v -0.005297099 -0.02577558 0.03271716
v -0.005297099 -0.02577558 0.03271716
v -0.008804431 -0.01489231 0.04351157
v 0.02460187 -0.0148923 0.0511515
v 0.02109458 -0.0257756 0.04035728
v 0.02109458 -0.0257756 0.04035728
v 0.02460187 -0.0148923 0.0511515
v 0.03978132 -0.01489232 0.02663362
v 0.03059909 -0.02577559 0.01996224
v 0.03059909 -0.02577559 0.01996224
v 0.03978132 -0.01489232 0.02663362
v 0.04193483 -0.01288813 0.001090222
v 0.03219014 -0.02223213 0.001090322
v 0.03219014 -0.02223213 0.001090322
v 0.04193483 -0.01288813 0.001090222
v 0.04796737 -0.01489231 -0.02772711
v 0.03878511 -0.02577557 -0.02105586
v 0.04796737 -0.01489231 -0.02772711
v 0.0479675 -0.000148245 -0.02772722
v 0.01805327 -0.0001482236 -0.05115383
v 0.01805313 -0.01489233 -0.05115372
v 0.01805313 -0.01489233 -0.05115372
v 0.01805327 -0.0001482236 -0.05115383
v -0.0131703 -0.0001482276 -0.04897092
v -0.01317044 -0.01489229 -0.04897081
v -0.01317044 -0.01489229 -0.04897081
v -0.0131703 -0.0001482276 -0.04897092
v -0.02743274 -0.0001482212 -0.02445286
v -0.0274327 -0.01489234 -0.02445263
v -0.0274327 -0.01489234 -0.02445263
v -0.02743274 -0.0001482212 -0.02445286
v -0.04796635 -0.0002293202 0.001090312
v -0.04796646 -0.01288811 0.001090419
v -0.04796646 -0.01288811 0.001090419
v -0.04796635 -0.0002293202 0.001090312
v -0.03053285 -0.0001482636 0.02663376
v -0.03053276 -0.01489231 0.02663352
v -0.03053276 -0.01489231 0.02663352
v -0.03053285 -0.0001482636 0.02663376
v -0.008804466 -0.0001482393 0.04351134
v -0.008804431 -0.01489231 0.04351157
v -0.008804431 -0.01489231 0.04351157
v -0.008804466 -0.0001482393 0.04351134
v 0.02460178 -0.0001482495 0.05115174
v 0.02460187 -0.0148923 0.0511515
v 0.02460187 -0.0148923 0.0511515
v 0.02460178 -0.0001482495 0.05115174
v 0.03978147 -0.0001482525 0.02663351
v 0.03978132 -0.01489232 0.02663362
v 0.03978132 -0.01489232 0.02663362
v 0.03978147 -0.0001482525 0.02663351
v 0.04193471 -0.0002293514 0.001090465
v 0.04193483 -0.01288813 0.001090222
v 0.04193483 -0.01288813 0.001090222
v 0.04193471 -0.0002293514 0.001090465
v 0.0479675 -0.000148245 -0.02772722
v 0.04796737 -0.01489231 -0.02772711
v 0.0479675 -0.000148245 -0.02772722
v 0.04568954 0.01428342 -0.02539794
v 0.01714563 0.01428343 -0.04799235
v 0.01805327 -0.0001482236 -0.05115383
v 0.01805327 -0.0001482236 -0.05115383
v 0.01714563 0.01428343 -0.04799235
v -0.01182867 0.01428343 -0.04559852
v -0.0131703 -0.0001482276 -0.04897092
v -0.0131703 -0.0001482276 -0.04897092
v -0.01182867 0.01428343 -0.04559852
v -0.02320976 0.01428342 -0.02180737
v -0.02743274 -0.0001482212 -0.02445286
v -0.02743274 -0.0001482212 -0.02445286
v -0.02320976 0.01428342 -0.02180737
v -0.0453035 0.01197217 0.001195693
v -0.04796635 -0.0002293202 0.001090312
v -0.04796635 -0.0002293202 0.001090312
v -0.0453035 0.01197217 0.001195693
v -0.02660915 0.01428345 0.02419905
v -0.03053285 -0.0001482636 0.02663376
v -0.03053285 -0.0001482636 0.02663376
v -0.02660915 0.01428345 0.02419905
v -0.007041353 0.01428345 0.03961264
v -0.008804466 -0.0001482393 0.04351134
v -0.008804466 -0.0001482393 0.04351134
v -0.007041353 0.01428345 0.03961264
v 0.02432636 0.01428345 0.04799024
v 0.02460178 -0.0001482495 0.05115174
v 0.02460178 -0.0001482495 0.05115174
v 0.02432636 0.01428345 0.04799024
v 0.03671319 0.01428345 0.02419898
v 0.03978147 -0.0001482525 0.02663351
v 0.03978147 -0.0001482525 0.02663351
v 0.03671319 0.01428345 0.02419898
v 0.03865247 0.01197216 0.001195634
v 0.04193471 -0.0002293514 0.001090465
v 0.04193471 -0.0002293514 0.001090465
v 0.03865247 0.01197216 0.001195634
v 0.04568954 0.01428342 -0.02539794
v 0.0479675 -0.000148245 -0.02772722
v 0.04568954 0.01428342 -0.02539794
v 0.03225308 0.02437449 -0.01614884
v 0.01203695 0.02437446 -0.03256964
v 0.01714563 0.01428343 -0.04799235
v 0.01714563 0.01428343 -0.04799235
v 0.01203695 0.02437446 -0.03256964
v -0.002591582 0.02437449 -0.02139493
v -0.01182867 0.01428343 -0.04559852
v -0.01182867 0.01428343 -0.04559852
v -0.002591582 0.02437449 -0.02139493
v -0.01125251 0.0243745 -0.01279637
v -0.02320976 0.01428342 -0.02180737
v -0.02320976 0.01428342 -0.02180737
v -0.01125251 0.0243745 -0.01279637
v -0.03124436 0.02074653 0.001116562
v -0.0453035 0.01197217 0.001195693
v -0.0453035 0.01197217 0.001195693
v -0.03124436 0.02074653 0.001116562
v -0.0144267 0.02437448 0.0150291
v -0.02660915 0.01428345 0.02419905
v -0.02660915 0.01428345 0.02419905
v -0.0144267 0.02437448 0.0150291
v -0.002591859 0.02437449 0.02474524
v -0.007041353 0.01428345 0.03961264
v -0.007041353 0.01428345 0.03961264
v -0.002591859 0.02437449 0.02474524
v 0.01874186 0.02437449 0.03256737
v 0.02432636 0.01428345 0.04799024
v 0.02432636 0.01428345 0.04799024
v 0.01874186 0.02437449 0.03256737
v 0.02387193 0.02437449 0.01502909
v 0.03671319 0.01428345 0.02419898
v 0.03671319 0.01428345 0.02419898
v 0.02387193 0.02437449 0.01502909
v 0.02504474 0.02074656 0.001116373
v 0.03865247 0.01197216 0.001195634
v 0.03865247 0.01197216 0.001195634
v 0.02504474 0.02074656 0.001116373
v 0.03225308 0.02437449 -0.01614884
v 0.04568954 0.01428342 -0.02539794
v 0.03225308 0.02437449 -0.01614884
v 0.004624291 0.03397615 0.001090291
v 0.01203695 0.02437446 -0.03256964
v 0.01203695 0.02437446 -0.03256964
v 0.004624291 0.03397615 0.001090291
v -0.002591582 0.02437449 -0.02139493
v -0.002591582 0.02437449 -0.02139493
v 0.004624291 0.03397615 0.001090291
v -0.01125251 0.0243745 -0.01279637
v -0.01125251 0.0243745 -0.01279637
v 0.004624291 0.03397615 0.001090291
v -0.03124436 0.02074653 0.001116562
v -0.03124436 0.02074653 0.001116562
v 0.004624291 0.03397615 0.001090291
v -0.0144267 0.02437448 0.0150291
v -0.0144267 0.02437448 0.0150291
v 0.004624291 0.03397615 0.001090291
v -0.002591859 0.02437449 0.02474524
v -0.002591859 0.02437449 0.02474524
v 0.004624291 0.03397615 0.001090291
v 0.01874186 0.02437449 0.03256737
v 0.01874186 0.02437449 0.03256737
v 0.004624291 0.03397615 0.001090291
v 0.02387193 0.02437449 0.01502909
v 0.02387193 0.02437449 0.01502909
v 0.004624291 0.03397615 0.001090291
v 0.02504474 0.02074656 0.001116373
v 0.02504474 0.02074656 0.001116373
v 0.004624291 0.03397615 0.001090291
v 0.03225308 0.02437449 -0.01614884

vn 0.1731555 -0.9848395 -0.01040833
vn -0.04289727 -0.9977161 0.05217779
vn 0.1422852 -0.9678699 0.2073226
vn 0.07259478 -0.9862941 -0.1481679
vn -0.1123227 -0.9556984 -0.2720737
vn -0.1978036 -0.9550052 -0.2209951
vn -0.2967412 -0.9497937 -0.09917968
vn -0.3207946 -0.9423652 0.09507172
vn -0.1799547 -0.9577529 0.2243338
vn 0.1182529 -0.9332965 0.3390779
vn 0.1162775 -0.8700677 0.4790215
vn 0.7416111 -0.6645354 0.09168316
vn 0.741611 -0.6645354 0.09168313
vn 0.7416109 -0.6645355 0.09168321
vn 0.741611 -0.6645354 0.09168313
vn 0.5790216 -0.6804901 -0.4490736
vn 0.5790216 -0.6804903 -0.4490736
vn 0.5790216 -0.6804901 -0.4490736
vn 0.5790217 -0.6804901 -0.4490736
vn -0.1249221 -0.6245715 -0.7709117
vn -0.1249221 -0.6245715 -0.7709118
vn -0.1249221 -0.6245715 -0.7709117
vn -0.1249221 -0.6245715 -0.7709118
vn 0.01910845 -0.6548709 -0.7554992
vn 0.01910837 -0.6548708 -0.7554992
vn 0.01910841 -0.6548708 -0.7554992
vn 0.01910834 -0.6548709 -0.7554992
vn -0.734692 -0.6172152 -0.2815549
vn -0.734692 -0.6172152 -0.2815549
vn -0.734692 -0.6172151 -0.281555
vn -0.734692 -0.6172151 -0.281555
vn -0.7892663 -0.6135802 -0.02403925
vn -0.7892663 -0.6135802 -0.02403932
vn -0.7892663 -0.6135802 -0.02403932
vn -0.7892663 -0.6135802 -0.02403929
vn -0.7535293 -0.5902848 0.2894089
vn -0.7535293 -0.5902848 0.2894088
vn -0.7535293 -0.5902848 0.2894089
vn -0.7535293 -0.5902848 0.2894089
vn 0.04519913 -0.5712793 0.8195102
vn 0.04519913 -0.5712793 0.8195102
vn 0.04519913 -0.5712793 0.8195102
vn 0.04519919 -0.5712793 0.8195102
vn 0.4330141 -0.6028087 0.6701645
vn 0.4330141 -0.6028087 0.6701645
vn 0.4330141 -0.6028087 0.6701645
vn 0.4330141 -0.6028087 0.6701645
vn 0.1955703 -0.523354 0.8293689
vn 0.1955704 -0.5233539 0.8293689
vn 0.1955703 -0.523354 0.8293689
vn 0.1955703 -0.523354 0.8293689
vn 0.9969337 -0.02846893 0.07288809
vn 0.9969337 -0.02846892 0.07288815
vn 0.9969337 -0.02846892 0.07288815
vn 0.9969337 -0.02846893 0.07288809
vn 0.788125 -0.04653371 -0.6137537
vn 0.788125 -0.04653371 -0.6137537
vn 0.788125 -0.04653371 -0.6137537
vn 0.788125 -0.04653371 -0.6137537
vn -0.06599777 -0.033633 -0.9972528
vn -0.06599777 -0.033633 -0.9972528
vn -0.06599777 -0.033633 -0.9972528
vn -0.06599777 -0.033633 -0.9972528
vn 0.08403511 -0.03825542 -0.9957282
vn 0.08403508 -0.03825542 -0.9957283
vn 0.08403511 -0.03825542 -0.9957282
vn 0.08403511 -0.03825542 -0.9957282
vn -0.928459 0.01566158 -0.3711047
vn -0.928459 0.01566158 -0.3711047
vn -0.928459 0.01566159 -0.3711046
vn -0.928459 0.01566158 -0.3711047
vn -0.9972097 0.02861854 -0.06894816
vn -0.9972097 0.02861854 -0.06894816
vn -0.9972097 0.02861854 -0.06894816
vn -0.9972097 0.02861854 -0.06894816
vn -0.9327128 0.04189426 0.3581784
vn -0.9327128 0.04189426 0.3581784
vn -0.9327128 0.04189426 0.3581784
vn -0.9327128 0.04189426 0.3581784
vn 0.03855268 0.03453889 0.9986595
vn 0.03855268 0.03453889 0.9986595
vn 0.03855268 0.03453889 0.9986595
vn 0.03855268 0.03453889 0.9986595
vn 0.4868532 0.01607881 0.8733358
vn 0.4868532 0.01607881 0.8733358
vn 0.4868532 0.01607881 0.8733358
vn 0.4868532 0.01607881 0.8733358
vn 0.3767995 0.02139601 0.9260477
vn 0.3767995 0.02139601 0.9260477
vn 0.3767995 0.02139601 0.9260477
vn 0.3767995 0.02139601 0.9260477
vn 0.986313 0.1515505 0.0649538
vn 0.986313 0.1515505 0.06495377
vn 0.986313 0.1515505 0.06495377
vn 0.986313 0.1515505 0.06495377
vn 0.7759588 0.1408276 -0.6148622
vn 0.7759588 0.1408276 -0.6148622
vn 0.7759588 0.1408276 -0.6148622
vn 0.7759588 0.1408276 -0.6148622
vn -0.09218482 0.1874235 -0.977944
vn -0.09218485 0.1874235 -0.977944
vn -0.09218478 0.1874235 -0.977944
vn -0.09218482 0.1874234 -0.977944
vn 0.1238812 0.176961 -0.9763904
vn 0.1238812 0.176961 -0.9763904
vn 0.1238812 0.176961 -0.9763904
vn 0.1238812 0.176961 -0.9763904
vn -0.9113379 0.2233903 -0.3457748
vn -0.9113379 0.2233903 -0.3457748
vn -0.9113378 0.2233903 -0.3457748
vn -0.9113379 0.2233903 -0.3457748
vn -0.9598513 0.2681284 -0.08241741
vn -0.9598513 0.2681284 -0.08241751
vn -0.9598513 0.2681284 -0.08241747
vn -0.9598513 0.2681284 -0.08241747
vn -0.9129162 0.2467226 0.3251338
vn -0.9129162 0.2467226 0.3251338
vn -0.9129162 0.2467226 0.3251338
vn -0.9129162 0.2467226 0.3251338
vn 0.08066627 0.196246 0.977231
vn 0.08066627 0.196246 0.977231
vn 0.08066624 0.196246 0.977231
vn 0.08066627 0.196246 0.977231
vn 0.4966007 0.2161962 0.840623
vn 0.4966007 0.2161962 0.8406229
vn 0.4966007 0.2161962 0.8406229
vn 0.4966007 0.2161962 0.8406229
vn 0.3493373 0.1730763 0.9208735
vn 0.3493374 0.1730763 0.9208735
vn 0.3493373 0.1730763 0.9208735
vn 0.3493373 0.1730763 0.9208735
vn 0.6426347 0.766091 0.01118666
vn 0.6426349 0.766091 0.01118662
vn 0.6426347 0.766091 0.01118666
vn 0.6426349 0.766091 0.01118662
vn 0.3617256 0.8183676 -0.4465749
vn 0.3617256 0.8183675 -0.4465749
vn 0.3617256 0.8183676 -0.4465749
vn 0.3617256 0.8183676 -0.4465749
vn 0.01465413 0.8020641 -0.5970582
vn 0.01465417 0.8020641 -0.5970582
vn 0.01465413 0.8020641 -0.5970582
vn 0.01465417 0.8020641 -0.5970582
vn 0.1068015 0.7189417 -0.686816
vn 0.1068015 0.7189419 -0.686816
vn 0.1068015 0.7189419 -0.686816
vn 0.1068015 0.7189419 -0.686816
vn -0.5630961 0.7786718 -0.2767545
vn -0.563096 0.7786718 -0.2767544
vn -0.5630961 0.7786717 -0.2767545
vn -0.5630961 0.7786718 -0.2767545
vn -0.6023304 0.7928665 -0.09252406
vn -0.6023305 0.7928665 -0.09252413
vn -0.6023306 0.7928665 -0.09252409
vn -0.6023305 0.7928665 -0.09252413
vn -0.5855123 0.7970417 0.1479865
vn -0.5855123 0.7970417 0.1479865
vn -0.5855123 0.7970417 0.1479865
vn -0.5855123 0.7970417 0.1479865
vn 0.161517 0.764613 0.6239225
vn 0.161517 0.764613 0.6239225
vn 0.161517 0.764613 0.6239226
vn 0.161517 0.764613 0.6239225
vn 0.4747524 0.7481185 0.4636042
vn 0.4747524 0.7481186 0.4636041
vn 0.4747524 0.7481186 0.4636041
vn 0.4747524 0.7481185 0.4636042
vn 0.1336882 0.6971522 0.7043481
vn 0.1336882 0.6971523 0.704348
vn 0.1336882 0.6971522 0.7043481
vn 0.1336882 0.6971522 0.7043481
vn 0.385744 0.9224699 -0.01584012
vn 0.385744 0.9224699 -0.01584015
vn 0.385744 0.9224699 -0.01584012
vn 0.183722 0.8614582 -0.4734301
vn 0.183722 0.8614582 -0.4734301
vn 0.183722 0.8614582 -0.47343
vn 0.1306131 0.8513888 -0.5080131
vn 0.1306131 0.8513888 -0.5080131
vn 0.1306131 0.8513888 -0.5080131
vn 0.05637406 0.8536956 -0.5177123
vn 0.05637405 0.8536955 -0.5177123
vn 0.05637405 0.8536955 -0.5177123
vn -0.3443785 0.9014493 -0.2622837
vn -0.3443785 0.9014493 -0.2622837
vn -0.3443785 0.9014493 -0.2622837
vn -0.4069259 0.9091717 -0.08842011
vn -0.4069259 0.9091717 -0.08842012
vn -0.4069259 0.9091717 -0.08842012
vn -0.3694944 0.9276579 0.05407998
vn -0.3694944 0.9276579 0.05407992
vn -0.3694944 0.9276579 0.05407996
vn 0.1777387 0.903815 0.3892651
vn 0.1777388 0.903815 0.3892652
vn 0.1777388 0.9038149 0.3892653
vn 0.5265198 0.7741461 0.3513896
vn 0.5265198 0.7741461 0.3513896
vn 0.5265198 0.7741462 0.3513896
vn 0.0003215409 0.7519822 0.6591835
vn 0.0003215035 0.7519822 0.6591835
vn 0.0003215035 0.7519822 0.6591835

vt 0.5482839 0.007647395
vt 0.5 0.15
vt 0.6264089 0.06440853
vt 0.4517161 0.00764741
vt 0.3735911 0.06440856
vt 0.34375 0.15625
vt 0.3735911 0.2480915
vt 0.4517161 0.3048526
vt 0.5482839 0.3048526
vt 0.6264089 0.2480914
vt 0.65625 0.15625
vt 0 0
vt 0 1
vt 1 1
vt 1 0
vt 0 0
vt 0 1
vt 1 1
vt 1 0
vt 0 0
vt 0 1
vt 1 1
vt 1 0
vt 0 0
vt 0 1
vt 1 1
vt 1 0
vt 0 0
vt 0 1
vt 1 1
vt 1 0
vt 0 0
vt 0 1
vt 1 1
vt 1 0
vt 0 0
vt 0 1
vt 1 1
vt 1 0
vt 0 0
vt 0 1
vt 1 1
vt 1 0
vt 0 0
vt 0 1
vt 1 1
vt 1 0
vt 0 0
vt 0 1
vt 1 1
vt 1 0
vt 0 0
vt 0 1
vt 1 1
vt 1 0
vt 0 0
vt 0 1
vt 1 1
vt 1 0
vt 0 0
vt 0 1
vt 1 1
vt 1 0
vt 0 0
vt 0 1
vt 1 1
vt 1 0
vt 0 0
vt 0 1
vt 1 1
vt 1 0
vt 0 0
vt 0 1
vt 1 1
vt 1 0
vt 0 0
vt 0 1
vt 1 1
vt 1 0
vt 0 0
vt 0 1
vt 1 1
vt 1 0
vt 0 0
vt 0 1
vt 1 1
vt 1 0
vt 0 0
vt 0 1
vt 1 1
vt 1 0
vt 0 0
vt 0 1
vt 1 1
vt 1 0
vt 0 0
vt 0 1
vt 1 1
vt 1 0
vt 0 0
vt 0 1
vt 1 1
vt 1 0
vt 0 0
vt 0 1
vt 1 1
vt 1 0
vt 0 0
vt 0 1
vt 1 1
vt 1 0
vt 0 0
vt 0 1
vt 1 1
vt 1 0
vt 0 0
vt 0 1
vt 1 1
vt 1 0
vt 0 0
vt 0 1
vt 1 1
vt 1 0
vt 0 0
vt 0 1
vt 1 1
vt 1 0
vt 0 0
vt 0 1
vt 1 1
vt 1 0
vt 0 0
vt 0 1
vt 1 1
vt 1 0
vt 0 0
vt 0 1
vt 1 1
vt 1 0
vt 0 0
vt 0 1
vt 1 1
vt 1 0
vt 0 0
vt 0 1
vt 1 1
vt 1 0
vt 0 0
vt 0 1
vt 1 1
vt 1 0
vt 0 0
vt 0 1
vt 1 1
vt 1 0
vt 0 0
vt 0 1
vt 1 1
vt 1 0
vt 0 0
vt 0 1
vt 1 1
vt 1 0
vt 0 0
vt 0 1
vt 1 1
vt 1 0
vt 0 0
vt 0 1
vt 1 1
vt 1 0
vt 0 0
vt 0.5 1
vt 1 0
vt 0 0
vt 0.5 1
vt 1 0
vt 0 0
vt 0.5 1
vt 1 0
vt 0 0
vt 0.5 1
vt 1 0
vt 0 0
vt 0.5 1
vt 1 0
vt 0 0
vt 0.5 1
vt 1 0
vt 0 0
vt 0.5 1
vt 1 0
vt 0 0
vt 0.5 1
vt 1 0
vt 0 0
vt 0.5 1
vt 1 0
vt 0 0
vt 0.5 1
vt 1 0

g Foliage_20_4110_254
usemtl Foliage_20_4110_254
usemap Foliage_20_4110_254
f 1/1/1 3/3/3 2/2/2
f 4/4/4 1/1/1 2/2/2
f 5/5/5 4/4/4 2/2/2
f 6/6/6 5/5/5 2/2/2
f 7/7/7 6/6/6 2/2/2
f 8/8/8 7/7/7 2/2/2
f 9/9/9 8/8/8 2/2/2
f 10/10/10 9/9/9 2/2/2
f 11/11/11 10/10/10 2/2/2
f 3/3/3 11/11/11 2/2/2
f 12/12/12 14/14/14 13/13/13
f 12/12/12 15/15/15 14/14/14
f 16/16/16 18/18/18 17/17/17
f 16/16/16 19/19/19 18/18/18
f 20/20/20 22/22/22 21/21/21
f 20/20/20 23/23/23 22/22/22
f 24/24/24 26/26/26 25/25/25
f 24/24/24 27/27/27 26/26/26
f 28/28/28 30/30/30 29/29/29
f 28/28/28 31/31/31 30/30/30
f 32/32/32 34/34/34 33/33/33
f 32/32/32 35/35/35 34/34/34
f 36/36/36 38/38/38 37/37/37
f 36/36/36 39/39/39 38/38/38
f 40/40/40 42/42/42 41/41/41
f 40/40/40 43/43/43 42/42/42
f 44/44/44 46/46/46 45/45/45
f 44/44/44 47/47/47 46/46/46
f 48/48/48 50/50/50 49/49/49
f 48/48/48 51/51/51 50/50/50
f 52/52/52 54/54/54 53/53/53
f 52/52/52 55/55/55 54/54/54
f 56/56/56 58/58/58 57/57/57
f 56/56/56 59/59/59 58/58/58
f 60/60/60 62/62/62 61/61/61
f 60/60/60 63/63/63 62/62/62
f 64/64/64 66/66/66 65/65/65
f 64/64/64 67/67/67 66/66/66
f 68/68/68 70/70/70 69/69/69
f 68/68/68 71/71/71 70/70/70
f 72/72/72 74/74/74 73/73/73
f 72/72/72 75/75/75 74/74/74
f 76/76/76 78/78/78 77/77/77
f 76/76/76 79/79/79 78/78/78
f 80/80/80 82/82/82 81/81/81
f 80/80/80 83/83/83 82/82/82
f 84/84/84 86/86/86 85/85/85
f 84/84/84 87/87/87 86/86/86
f 88/88/88 90/90/90 89/89/89
f 88/88/88 91/91/91 90/90/90
f 92/92/92 94/94/94 93/93/93
f 92/92/92 95/95/95 94/94/94
f 96/96/96 98/98/98 97/97/97
f 96/96/96 99/99/99 98/98/98
f 100/100/100 102/102/102 101/101/101
f 100/100/100 103/103/103 102/102/102
f 104/104/104 106/106/106 105/105/105
f 104/104/104 107/107/107 106/106/106
f 108/108/108 110/110/110 109/109/109
f 108/108/108 111/111/111 110/110/110
f 112/112/112 114/114/114 113/113/113
f 112/112/112 115/115/115 114/114/114
f 116/116/116 118/118/118 117/117/117
f 116/116/116 119/119/119 118/118/118
f 120/120/120 122/122/122 121/121/121
f 120/120/120 123/123/123 122/122/122
f 124/124/124 126/126/126 125/125/125
f 124/124/124 127/127/127 126/126/126
f 128/128/128 130/130/130 129/129/129
f 128/128/128 131/131/131 130/130/130
f 132/132/132 134/134/134 133/133/133
f 132/132/132 135/135/135 134/134/134
f 136/136/136 138/138/138 137/137/137
f 136/136/136 139/139/139 138/138/138
f 140/140/140 142/142/142 141/141/141
f 140/140/140 143/143/143 142/142/142
f 144/144/144 146/146/146 145/145/145
f 144/144/144 147/147/147 146/146/146
f 148/148/148 150/150/150 149/149/149
f 148/148/148 151/151/151 150/150/150
f 152/152/152 154/154/154 153/153/153
f 152/152/152 155/155/155 154/154/154
f 156/156/156 158/158/158 157/157/157
f 156/156/156 159/159/159 158/158/158
f 160/160/160 162/162/162 161/161/161
f 160/160/160 163/163/163 162/162/162
f 164/164/164 166/166/166 165/165/165
f 164/164/164 167/167/167 166/166/166
f 168/168/168 170/170/170 169/169/169
f 168/168/168 171/171/171 170/170/170
f 172/172/172 174/174/174 173/173/173
f 175/175/175 177/177/177 176/176/176
f 178/178/178 180/180/180 179/179/179
f 181/181/181 183/183/183 182/182/182
f 184/184/184 186/186/186 185/185/185
f 187/187/187 189/189/189 188/188/188
f 190/190/190 192/192/192 191/191/191
f 193/193/193 195/195/195 194/194/194
f 196/196/196 198/198/198 197/197/197
f 199/199/199 201/201/201 200/200/200
