#Foliage5_33_4211_171.obj

v 0.01454474 -0.02577554 -0.0403568
v 0.004623251 -0.03397596 0.001092926
v 0.03878391 -0.02577553 -0.02105319
v -0.009664048 -0.02577553 -0.03817409
v -0.01825134 -0.02577554 -0.01777923
v -0.0382227 -0.02223209 0.001092884
v -0.0213515 -0.02577553 0.01996474
v -0.005298206 -0.02577553 0.03271925
v 0.02109346 -0.02577553 0.04035942
v 0.03059802 -0.02577554 0.01996478
v 0.03218893 -0.0222321 0.001092739
v 0.03878391 -0.02577553 -0.02105319
v 0.04796626 -0.01489227 -0.02772483
v 0.01805213 -0.01489228 -0.05115127
v 0.01454474 -0.02577554 -0.0403568
v 0.01454474 -0.02577554 -0.0403568
v 0.01805213 -0.01489228 -0.05115127
v -0.01317136 -0.01489227 -0.04896855
v -0.009664048 -0.02577553 -0.03817409
v -0.009664048 -0.02577553 -0.03817409
v -0.01317136 -0.01489227 -0.04896855
v -0.0274338 -0.01489226 -0.02445032
v -0.01825134 -0.02577554 -0.01777923
v -0.01825134 -0.02577554 -0.01777923
v -0.0274338 -0.01489226 -0.02445032
v -0.04796749 -0.01288808 0.001092883
v -0.0382227 -0.02223209 0.001092884
v -0.0382227 -0.02223209 0.001092884
v -0.04796749 -0.01288808 0.001092883
v -0.03053388 -0.01489226 0.02663589
v -0.0213515 -0.02577553 0.01996474
v -0.0213515 -0.02577553 0.01996474
v -0.03053388 -0.01489226 0.02663589
v -0.008805529 -0.01489227 0.04351409
v -0.005298206 -0.02577553 0.03271925
v -0.005298206 -0.02577553 0.03271925
v -0.008805529 -0.01489227 0.04351409
v 0.02460083 -0.01489227 0.05115425
v 0.02109346 -0.02577553 0.04035942
v 0.02109346 -0.02577553 0.04035942
v 0.02460083 -0.01489227 0.05115425
v 0.03978034 -0.01489227 0.02663581
v 0.03059802 -0.02577554 0.01996478
v 0.03059802 -0.02577554 0.01996478
v 0.03978034 -0.01489227 0.02663581
v 0.04193372 -0.01288809 0.001092822
v 0.03218893 -0.0222321 0.001092739
v 0.03218893 -0.0222321 0.001092739
v 0.04193372 -0.01288809 0.001092822
v 0.04796626 -0.01489227 -0.02772483
v 0.03878391 -0.02577553 -0.02105319
v 0.04796626 -0.01489227 -0.02772483
v 0.04796633 -0.0001482113 -0.02772485
v 0.01805209 -0.0001482073 -0.0511513
v 0.01805213 -0.01489228 -0.05115127
v 0.01805213 -0.01489228 -0.05115127
v 0.01805209 -0.0001482073 -0.0511513
v -0.0131714 -0.0001482008 -0.04896858
v -0.01317136 -0.01489227 -0.04896855
v -0.01317136 -0.01489227 -0.04896855
v -0.0131714 -0.0001482008 -0.04896858
v -0.02743374 -0.0001482095 -0.02445034
v -0.0274338 -0.01489226 -0.02445032
v -0.0274338 -0.01489226 -0.02445032
v -0.02743374 -0.0001482095 -0.02445034
v -0.0479675 -0.0002293011 0.001092615
v -0.04796749 -0.01288808 0.001092883
v -0.04796749 -0.01288808 0.001092883
v -0.0479675 -0.0002293011 0.001092615
v -0.03053382 -0.0001482089 0.02663586
v -0.03053388 -0.01489226 0.02663589
v -0.03053388 -0.01489226 0.02663589
v -0.03053382 -0.0001482089 0.02663586
v -0.008805571 -0.0001481936 0.04351407
v -0.008805529 -0.01489227 0.04351409
v -0.008805529 -0.01489227 0.04351409
v -0.008805571 -0.0001481936 0.04351407
v 0.02460079 -0.0001482029 0.05115422
v 0.02460083 -0.01489227 0.05115425
v 0.02460083 -0.01489227 0.05115425
v 0.02460079 -0.0001482029 0.05115422
v 0.03978041 -0.000148202 0.02663621
v 0.03978034 -0.01489227 0.02663581
v 0.03978034 -0.01489227 0.02663581
v 0.03978041 -0.000148202 0.02663621
v 0.04193371 -0.0002293036 0.001092984
v 0.04193372 -0.01288809 0.001092822
v 0.04193372 -0.01288809 0.001092822
v 0.04193371 -0.0002293036 0.001092984
v 0.04796633 -0.0001482113 -0.02772485
v 0.04796626 -0.01489227 -0.02772483
v 0.04796633 -0.0001482113 -0.02772485
v 0.04568828 0.01428347 -0.02539539
v 0.0171445 0.01428348 -0.04798991
v 0.01805209 -0.0001482073 -0.0511513
v 0.01805209 -0.0001482073 -0.0511513
v 0.0171445 0.01428348 -0.04798991
v -0.01182965 0.01428347 -0.04559645
v -0.0131714 -0.0001482008 -0.04896858
v -0.0131714 -0.0001482008 -0.04896858
v -0.01182965 0.01428347 -0.04559645
v -0.02321092 0.01428349 -0.02180511
v -0.02743374 -0.0001482095 -0.02445034
v -0.02743374 -0.0001482095 -0.02445034
v -0.02321092 0.01428349 -0.02180511
v -0.04530465 0.0119722 0.001198254
v -0.0479675 -0.0002293011 0.001092615
v -0.0479675 -0.0002293011 0.001092615
v -0.04530465 0.0119722 0.001198254
v -0.02661015 0.01428348 0.02420154
v -0.03053382 -0.0001482089 0.02663586
v -0.03053382 -0.0001482089 0.02663586
v -0.02661015 0.01428348 0.02420154
v -0.007042428 0.01428348 0.03961508
v -0.008805571 -0.0001481936 0.04351407
v -0.008805571 -0.0001481936 0.04351407
v -0.007042428 0.01428348 0.03961508
v 0.02432532 0.01428348 0.04799249
v 0.02460079 -0.0001482029 0.05115422
v 0.02460079 -0.0001482029 0.05115422
v 0.02432532 0.01428348 0.04799249
v 0.03671227 0.01428347 0.02420123
v 0.03978041 -0.000148202 0.02663621
v 0.03978041 -0.000148202 0.02663621
v 0.03671227 0.01428347 0.02420123
v 0.03865143 0.0119722 0.001197963
v 0.04193371 -0.0002293036 0.001092984
v 0.04193371 -0.0002293036 0.001092984
v 0.03865143 0.0119722 0.001197963
v 0.04568828 0.01428347 -0.02539539
v 0.04796633 -0.0001482113 -0.02772485
v 0.04568828 0.01428347 -0.02539539
v 0.03225181 0.02437452 -0.01614646
v 0.01203586 0.02437452 -0.03256707
v 0.0171445 0.01428348 -0.04798991
v 0.0171445 0.01428348 -0.04798991
v 0.01203586 0.02437452 -0.03256707
v -0.00259283 0.02437451 -0.02139236
v -0.01182965 0.01428347 -0.04559645
v -0.01182965 0.01428347 -0.04559645
v -0.00259283 0.02437451 -0.02139236
v -0.01125374 0.02437452 -0.01279406
v -0.02321092 0.01428349 -0.02180511
v -0.02321092 0.01428349 -0.02180511
v -0.01125374 0.02437452 -0.01279406
v -0.03124527 0.02074659 0.001118685
v -0.04530465 0.0119722 0.001198254
v -0.04530465 0.0119722 0.001198254
v -0.03124527 0.02074659 0.001118685
v -0.01442774 0.02437451 0.01503167
v -0.02661015 0.01428348 0.02420154
v -0.02661015 0.01428348 0.02420154
v -0.01442774 0.02437451 0.01503167
v -0.002592797 0.02437451 0.02474759
v -0.007042428 0.01428348 0.03961508
v -0.007042428 0.01428348 0.03961508
v -0.002592797 0.02437451 0.02474759
v 0.01874071 0.02437451 0.03256987
v 0.02432532 0.01428348 0.04799249
v 0.02432532 0.01428348 0.04799249
v 0.01874071 0.02437451 0.03256987
v 0.02387071 0.02437452 0.01503141
v 0.03671227 0.01428347 0.02420123
v 0.03671227 0.01428347 0.02420123
v 0.02387071 0.02437452 0.01503141
v 0.02504358 0.02074658 0.001118667
v 0.03865143 0.0119722 0.001197963
v 0.03865143 0.0119722 0.001197963
v 0.02504358 0.02074658 0.001118667
v 0.03225181 0.02437452 -0.01614646
v 0.04568828 0.01428347 -0.02539539
v 0.03225181 0.02437452 -0.01614646
v 0.004623251 0.03397618 0.001092841
v 0.01203586 0.02437452 -0.03256707
v 0.01203586 0.02437452 -0.03256707
v 0.004623251 0.03397618 0.001092841
v -0.00259283 0.02437451 -0.02139236
v -0.00259283 0.02437451 -0.02139236
v 0.004623251 0.03397618 0.001092841
v -0.01125374 0.02437452 -0.01279406
v -0.01125374 0.02437452 -0.01279406
v 0.004623251 0.03397618 0.001092841
v -0.03124527 0.02074659 0.001118685
v -0.03124527 0.02074659 0.001118685
v 0.004623251 0.03397618 0.001092841
v -0.01442774 0.02437451 0.01503167
v -0.01442774 0.02437451 0.01503167
v 0.004623251 0.03397618 0.001092841
v -0.002592797 0.02437451 0.02474759
v -0.002592797 0.02437451 0.02474759
v 0.004623251 0.03397618 0.001092841
v 0.01874071 0.02437451 0.03256987
v 0.01874071 0.02437451 0.03256987
v 0.004623251 0.03397618 0.001092841
v 0.02387071 0.02437452 0.01503141
v 0.02387071 0.02437452 0.01503141
v 0.004623251 0.03397618 0.001092841
v 0.02504358 0.02074658 0.001118667
v 0.02504358 0.02074658 0.001118667
v 0.004623251 0.03397618 0.001092841
v 0.03225181 0.02437452 -0.01614646

vn 0.186666 -0.9635155 -0.1918162
vn 0.1330686 -0.991038 -0.01166823
vn 0.3253554 -0.9431229 -0.06828494
vn 0.04400655 -0.9817425 -0.1850531
vn -0.1322298 -0.9849256 -0.1115186
vn -0.1354541 -0.9904165 -0.02695978
vn -0.09533127 -0.990336 0.1007278
vn 0.03080422 -0.9772552 0.2098161
vn 0.1889217 -0.9674256 0.1685106
vn 0.4074401 -0.9131453 0.01256457
vn 0.5078597 -0.8571721 0.0856396
vn 0.5232487 -0.6340799 -0.5693448
vn 0.5232486 -0.6340799 -0.5693448
vn 0.5232487 -0.6340799 -0.5693447
vn 0.5232486 -0.6340799 -0.5693448
vn 0.03019517 -0.6968893 -0.7165426
vn 0.03019519 -0.6968894 -0.7165426
vn 0.03019516 -0.6968893 -0.7165426
vn 0.03019517 -0.6968893 -0.7165427
vn -0.5784053 -0.7405921 -0.3420094
vn -0.5784053 -0.7405921 -0.3420095
vn -0.5784053 -0.7405921 -0.3420094
vn -0.5784053 -0.7405921 -0.3420094
vn -0.4870049 -0.7517927 -0.4445601
vn -0.4870051 -0.7517927 -0.4445601
vn -0.487005 -0.7517927 -0.4445601
vn -0.487005 -0.7517927 -0.44456
vn -0.5077854 -0.7732717 0.3797425
vn -0.5077854 -0.7732717 0.3797425
vn -0.5077855 -0.7732716 0.3797425
vn -0.5077855 -0.7732717 0.3797425
vn -0.3365777 -0.7613015 0.5541977
vn -0.3365777 -0.7613016 0.5541977
vn -0.3365777 -0.7613015 0.5541977
vn -0.3365777 -0.7613015 0.5541977
vn -0.07914571 -0.717621 0.6919218
vn -0.07914574 -0.717621 0.6919218
vn -0.07914571 -0.717621 0.6919218
vn -0.07914571 -0.717621 0.6919218
vn 0.7377892 -0.5800294 0.3453012
vn 0.7377891 -0.5800294 0.3453012
vn 0.7377891 -0.5800294 0.3453012
vn 0.7377892 -0.5800294 0.3453012
vn 0.8163689 -0.5763516 -0.03688534
vn 0.8163689 -0.5763517 -0.03688535
vn 0.8163689 -0.5763516 -0.03688534
vn 0.8163689 -0.5763516 -0.03688535
vn 0.8235133 -0.514635 0.2386977
vn 0.8235133 -0.5146348 0.2386977
vn 0.8235133 -0.514635 0.2386977
vn 0.8235133 -0.5146349 0.2386977
vn 0.6035705 0.08931956 -0.7922907
vn 0.6035705 0.08931956 -0.7922907
vn 0.6035705 0.08931956 -0.7922907
vn 0.6035705 0.08931956 -0.7922907
vn -0.07878292 0.001262184 -0.996891
vn -0.07878292 0.001262184 -0.996891
vn -0.07878292 0.001262184 -0.996891
vn -0.07878292 0.001262184 -0.996891
vn -0.8617157 -0.1084175 -0.4956731
vn -0.8617157 -0.1084175 -0.4956731
vn -0.8617157 -0.1084175 -0.4956731
vn -0.8617157 -0.1084175 -0.4956731
vn -0.7786545 -0.09594517 -0.6200739
vn -0.7786546 -0.09594519 -0.6200739
vn -0.7786545 -0.09594517 -0.6200739
vn -0.7786545 -0.09594517 -0.6200739
vn -0.8133044 -0.1145191 0.5704572
vn -0.8133044 -0.1145191 0.5704572
vn -0.8133044 -0.1145191 0.5704573
vn -0.8133044 -0.1145191 0.5704572
vn -0.6004571 -0.08893507 0.794696
vn -0.6004571 -0.08893507 0.794696
vn -0.6004571 -0.08893507 0.794696
vn -0.6004571 -0.08893507 0.794696
vn -0.2115754 -0.03951645 0.9765624
vn -0.2115754 -0.03951645 0.9765624
vn -0.2115754 -0.03951645 0.9765624
vn -0.2115754 -0.03951645 0.9765624
vn 0.8479162 0.1063099 0.5193615
vn 0.8479162 0.1063099 0.5193615
vn 0.8479162 0.1063099 0.5193615
vn 0.8479162 0.1063099 0.5193615
vn 0.9885895 0.1301677 0.07580977
vn 0.9885895 0.1301677 0.07580978
vn 0.9885895 0.1301677 0.07580977
vn 0.9885895 0.1301677 0.07580978
vn 0.972231 0.1265778 0.1968373
vn 0.972231 0.1265778 0.1968373
vn 0.972231 0.1265778 0.1968373
vn 0.972231 0.1265778 0.1968373
vn 0.5637509 0.2984137 -0.7701521
vn 0.5637508 0.2984137 -0.770152
vn 0.5637508 0.2984137 -0.770152
vn 0.5637508 0.2984137 -0.770152
vn -0.1117611 0.2197484 -0.9691336
vn -0.1117611 0.2197484 -0.9691336
vn -0.1117611 0.2197484 -0.9691336
vn -0.1117611 0.2197484 -0.9691336
vn -0.8841212 0.1491708 -0.4428067
vn -0.8841212 0.1491708 -0.4428067
vn -0.8841212 0.1491708 -0.4428067
vn -0.8841212 0.1491708 -0.4428067
vn -0.7660218 0.1626311 -0.6219018
vn -0.7660217 0.1626311 -0.6219018
vn -0.7660218 0.1626311 -0.6219018
vn -0.7660218 0.1626311 -0.6219017
vn -0.8034175 0.1326056 0.580462
vn -0.8034175 0.1326056 0.580462
vn -0.8034175 0.1326056 0.580462
vn -0.8034175 0.1326056 0.580462
vn -0.6155697 0.1941735 0.7637869
vn -0.6155698 0.1941735 0.7637869
vn -0.6155698 0.1941735 0.7637869
vn -0.6155698 0.1941735 0.7637869
vn -0.2536104 0.1997878 0.9464494
vn -0.2536104 0.1997878 0.9464494
vn -0.2536104 0.1997878 0.9464494
vn -0.2536104 0.1997878 0.9464494
vn 0.8241226 0.298309 0.4814911
vn 0.8241226 0.298309 0.4814911
vn 0.8241225 0.298309 0.4814911
vn 0.8241226 0.298309 0.4814911
vn 0.9300092 0.3617803 0.06479055
vn 0.9300092 0.3617803 0.06479056
vn 0.9300092 0.3617803 0.06479055
vn 0.9300092 0.3617803 0.06479056
vn 0.9264508 0.299984 0.2273727
vn 0.9264508 0.299984 0.2273727
vn 0.9264508 0.299984 0.2273727
vn 0.9264508 0.299984 0.2273727
vn 0.2249443 0.8789741 -0.4204808
vn 0.2249443 0.8789741 -0.4204808
vn 0.2249443 0.8789741 -0.4204808
vn 0.2249443 0.8789741 -0.4204808
vn -0.2561845 0.8673152 -0.426771
vn -0.2561845 0.8673152 -0.426771
vn -0.2561845 0.8673152 -0.426771
vn -0.2561845 0.8673152 -0.426771
vn -0.5333642 0.8091855 -0.2464569
vn -0.5333642 0.8091855 -0.246457
vn -0.5333642 0.8091855 -0.2464569
vn -0.5333642 0.8091855 -0.246457
vn -0.556995 0.7425262 -0.3720363
vn -0.556995 0.7425263 -0.3720363
vn -0.556995 0.7425263 -0.3720363
vn -0.556995 0.7425263 -0.3720363
vn -0.5744035 0.7456298 0.3377818
vn -0.5744035 0.7456298 0.3377818
vn -0.5744035 0.7456298 0.3377818
vn -0.5744035 0.7456298 0.3377818
vn -0.4562412 0.7636639 0.4567945
vn -0.4562412 0.7636638 0.4567944
vn -0.4562412 0.7636638 0.4567945
vn -0.4562412 0.7636638 0.4567944
vn -0.2699221 0.7820614 0.5617132
vn -0.269922 0.7820614 0.5617132
vn -0.269922 0.7820614 0.5617132
vn -0.269922 0.7820614 0.5617132
vn 0.4498151 0.86006 0.2407544
vn 0.4498151 0.86006 0.2407544
vn 0.4498151 0.86006 0.2407544
vn 0.4498151 0.86006 0.2407544
vn 0.4859882 0.8708478 -0.07375045
vn 0.4859881 0.8708478 -0.07375046
vn 0.4859882 0.8708478 -0.07375046
vn 0.4859882 0.8708478 -0.07375044
vn 0.5133201 0.8035089 0.3014559
vn 0.5133201 0.8035089 0.3014559
vn 0.5133201 0.8035089 0.3014559
vn 0.5133201 0.8035089 0.3014559
vn 0.05831288 0.9734353 -0.221411
vn 0.05831286 0.9734353 -0.221411
vn 0.05831288 0.9734353 -0.221411
vn -0.3621366 0.8817844 -0.3021804
vn -0.3621366 0.8817844 -0.3021804
vn -0.3621365 0.8817844 -0.3021804
vn -0.4123463 0.8664157 -0.2815919
vn -0.4123463 0.8664157 -0.281592
vn -0.4123463 0.8664157 -0.2815919
vn -0.4546145 0.8600078 -0.2317581
vn -0.4546146 0.8600078 -0.2317581
vn -0.4546146 0.8600078 -0.2317581
vn -0.4577023 0.8697536 0.1844911
vn -0.4577022 0.8697536 0.1844911
vn -0.4577023 0.8697536 0.1844911
vn -0.3618265 0.8784834 0.3120065
vn -0.3618266 0.8784835 0.3120065
vn -0.3618266 0.8784835 0.3120065
vn -0.2428607 0.9039072 0.3520938
vn -0.2428607 0.9039072 0.3520938
vn -0.2428607 0.9039072 0.3520938
vn 0.2553238 0.9595981 0.1182398
vn 0.2553239 0.9595981 0.1182398
vn 0.2553239 0.9595981 0.1182399
vn 0.4209411 0.8919174 -0.1652016
vn 0.4209411 0.8919174 -0.1652016
vn 0.4209411 0.8919175 -0.1652016
vn 0.4008426 0.83413 0.3788825
vn 0.4008425 0.83413 0.3788825
vn 0.4008426 0.83413 0.3788825

vt 0.5483398 0.007648468
vt 0.5 0.1500244
vt 0.6264648 0.06439209
vt 0.4516602 0.007648468
vt 0.3735352 0.06439209
vt 0.34375 0.15625
vt 0.3735352 0.2480469
vt 0.4516602 0.3049316
vt 0.5483398 0.3049316
vt 0.6264648 0.2480469
vt 0.65625 0.15625
vt 0 0
vt 0 1
vt 1 1
vt 1 0
vt 0 0
vt 0 1
vt 1 1
vt 1 0
vt 0 0
vt 0 1
vt 1 1
vt 1 0
vt 0 0
vt 0 1
vt 1 1
vt 1 0
vt 0 0
vt 0 1
vt 1 1
vt 1 0
vt 0 0
vt 0 1
vt 1 1
vt 1 0
vt 0 0
vt 0 1
vt 1 1
vt 1 0
vt 0 0
vt 0 1
vt 1 1
vt 1 0
vt 0 0
vt 0 1
vt 1 1
vt 1 0
vt 0 0
vt 0 1
vt 1 1
vt 1 0
vt 0 0
vt 0 1
vt 1 1
vt 1 0
vt 0 0
vt 0 1
vt 1 1
vt 1 0
vt 0 0
vt 0 1
vt 1 1
vt 1 0
vt 0 0
vt 0 1
vt 1 1
vt 1 0
vt 0 0
vt 0 1
vt 1 1
vt 1 0
vt 0 0
vt 0 1
vt 1 1
vt 1 0
vt 0 0
vt 0 1
vt 1 1
vt 1 0
vt 0 0
vt 0 1
vt 1 1
vt 1 0
vt 0 0
vt 0 1
vt 1 1
vt 1 0
vt 0 0
vt 0 1
vt 1 1
vt 1 0
vt 0 0
vt 0 1
vt 1 1
vt 1 0
vt 0 0
vt 0 1
vt 1 1
vt 1 0
vt 0 0
vt 0 1
vt 1 1
vt 1 0
vt 0 0
vt 0 1
vt 1 1
vt 1 0
vt 0 0
vt 0 1
vt 1 1
vt 1 0
vt 0 0
vt 0 1
vt 1 1
vt 1 0
vt 0 0
vt 0 1
vt 1 1
vt 1 0
vt 0 0
vt 0 1
vt 1 1
vt 1 0
vt 0 0
vt 0 1
vt 1 1
vt 1 0
vt 0 0
vt 0 1
vt 1 1
vt 1 0
vt 0 0
vt 0 1
vt 1 1
vt 1 0
vt 0 0
vt 0 1
vt 1 1
vt 1 0
vt 0 0
vt 0 1
vt 1 1
vt 1 0
vt 0 0
vt 0 1
vt 1 1
vt 1 0
vt 0 0
vt 0 1
vt 1 1
vt 1 0
vt 0 0
vt 0 1
vt 1 1
vt 1 0
vt 0 0
vt 0 1
vt 1 1
vt 1 0
vt 0 0
vt 0 1
vt 1 1
vt 1 0
vt 0 0
vt 0 1
vt 1 1
vt 1 0
vt 0 0
vt 0 1
vt 1 1
vt 1 0
vt 0 0
vt 0.5 1
vt 1 0
vt 0 0
vt 0.5 1
vt 1 0
vt 0 0
vt 0.5 1
vt 1 0
vt 0 0
vt 0.5 1
vt 1 0
vt 0 0
vt 0.5 1
vt 1 0
vt 0 0
vt 0.5 1
vt 1 0
vt 0 0
vt 0.5 1
vt 1 0
vt 0 0
vt 0.5 1
vt 1 0
vt 0 0
vt 0.5 1
vt 1 0
vt 0 0
vt 0.5 1
vt 1 0

g Foliage5_33_4211_171
usemtl Foliage5_33_4211_171
usemap Foliage5_33_4211_171
f 1/1/1 3/3/3 2/2/2
f 4/4/4 1/1/1 2/2/2
f 5/5/5 4/4/4 2/2/2
f 6/6/6 5/5/5 2/2/2
f 7/7/7 6/6/6 2/2/2
f 8/8/8 7/7/7 2/2/2
f 9/9/9 8/8/8 2/2/2
f 10/10/10 9/9/9 2/2/2
f 11/11/11 10/10/10 2/2/2
f 3/3/3 11/11/11 2/2/2
f 12/12/12 14/14/14 13/13/13
f 12/12/12 15/15/15 14/14/14
f 16/16/16 18/18/18 17/17/17
f 16/16/16 19/19/19 18/18/18
f 20/20/20 22/22/22 21/21/21
f 20/20/20 23/23/23 22/22/22
f 24/24/24 26/26/26 25/25/25
f 24/24/24 27/27/27 26/26/26
f 28/28/28 30/30/30 29/29/29
f 28/28/28 31/31/31 30/30/30
f 32/32/32 34/34/34 33/33/33
f 32/32/32 35/35/35 34/34/34
f 36/36/36 38/38/38 37/37/37
f 36/36/36 39/39/39 38/38/38
f 40/40/40 42/42/42 41/41/41
f 40/40/40 43/43/43 42/42/42
f 44/44/44 46/46/46 45/45/45
f 44/44/44 47/47/47 46/46/46
f 48/48/48 50/50/50 49/49/49
f 48/48/48 51/51/51 50/50/50
f 52/52/52 54/54/54 53/53/53
f 52/52/52 55/55/55 54/54/54
f 56/56/56 58/58/58 57/57/57
f 56/56/56 59/59/59 58/58/58
f 60/60/60 62/62/62 61/61/61
f 60/60/60 63/63/63 62/62/62
f 64/64/64 66/66/66 65/65/65
f 64/64/64 67/67/67 66/66/66
f 68/68/68 70/70/70 69/69/69
f 68/68/68 71/71/71 70/70/70
f 72/72/72 74/74/74 73/73/73
f 72/72/72 75/75/75 74/74/74
f 76/76/76 78/78/78 77/77/77
f 76/76/76 79/79/79 78/78/78
f 80/80/80 82/82/82 81/81/81
f 80/80/80 83/83/83 82/82/82
f 84/84/84 86/86/86 85/85/85
f 84/84/84 87/87/87 86/86/86
f 88/88/88 90/90/90 89/89/89
f 88/88/88 91/91/91 90/90/90
f 92/92/92 94/94/94 93/93/93
f 92/92/92 95/95/95 94/94/94
f 96/96/96 98/98/98 97/97/97
f 96/96/96 99/99/99 98/98/98
f 100/100/100 102/102/102 101/101/101
f 100/100/100 103/103/103 102/102/102
f 104/104/104 106/106/106 105/105/105
f 104/104/104 107/107/107 106/106/106
f 108/108/108 110/110/110 109/109/109
f 108/108/108 111/111/111 110/110/110
f 112/112/112 114/114/114 113/113/113
f 112/112/112 115/115/115 114/114/114
f 116/116/116 118/118/118 117/117/117
f 116/116/116 119/119/119 118/118/118
f 120/120/120 122/122/122 121/121/121
f 120/120/120 123/123/123 122/122/122
f 124/124/124 126/126/126 125/125/125
f 124/124/124 127/127/127 126/126/126
f 128/128/128 130/130/130 129/129/129
f 128/128/128 131/131/131 130/130/130
f 132/132/132 134/134/134 133/133/133
f 132/132/132 135/135/135 134/134/134
f 136/136/136 138/138/138 137/137/137
f 136/136/136 139/139/139 138/138/138
f 140/140/140 142/142/142 141/141/141
f 140/140/140 143/143/143 142/142/142
f 144/144/144 146/146/146 145/145/145
f 144/144/144 147/147/147 146/146/146
f 148/148/148 150/150/150 149/149/149
f 148/148/148 151/151/151 150/150/150
f 152/152/152 154/154/154 153/153/153
f 152/152/152 155/155/155 154/154/154
f 156/156/156 158/158/158 157/157/157
f 156/156/156 159/159/159 158/158/158
f 160/160/160 162/162/162 161/161/161
f 160/160/160 163/163/163 162/162/162
f 164/164/164 166/166/166 165/165/165
f 164/164/164 167/167/167 166/166/166
f 168/168/168 170/170/170 169/169/169
f 168/168/168 171/171/171 170/170/170
f 172/172/172 174/174/174 173/173/173
f 175/175/175 177/177/177 176/176/176
f 178/178/178 180/180/180 179/179/179
f 181/181/181 183/183/183 182/182/182
f 184/184/184 186/186/186 185/185/185
f 187/187/187 189/189/189 188/188/188
f 190/190/190 192/192/192 191/191/191
f 193/193/193 195/195/195 194/194/194
f 196/196/196 198/198/198 197/197/197
f 199/199/199 201/201/201 200/200/200
