#Foliage3_10_4184_258.obj

v 0.01454518 -0.02577572 -0.04035826
v 0.004623753 -0.03397616 0.001091412
v 0.03878438 -0.02577559 -0.02105474
v -0.009663519 -0.02577558 -0.03817536
v -0.01825091 -0.02577569 -0.01778041
v -0.03822222 -0.02223228 0.001091417
v -0.02135099 -0.02577565 0.01996321
v -0.005297728 -0.02577567 0.03271801
v 0.0210939 -0.02577571 0.0403582
v 0.03059845 -0.02577564 0.01996324
v 0.03218937 -0.02223228 0.00109142
v 0.03878438 -0.02577559 -0.02105474
v 0.04796679 -0.01489235 -0.02772612
v 0.01805254 -0.01489233 -0.05115277
v 0.01454518 -0.02577572 -0.04035826
v 0.01454518 -0.02577572 -0.04035826
v 0.01805254 -0.01489233 -0.05115277
v -0.01317088 -0.01489239 -0.04896986
v -0.009663519 -0.02577558 -0.03817536
v -0.009663519 -0.02577558 -0.03817536
v -0.01317088 -0.01489239 -0.04896986
v -0.02743331 -0.01489243 -0.02445178
v -0.01825091 -0.02577569 -0.01778041
v -0.01825091 -0.02577569 -0.01778041
v -0.02743331 -0.01489243 -0.02445178
v -0.04796704 -0.01288813 0.001091404
v -0.03822222 -0.02223228 0.001091417
v -0.03822222 -0.02223228 0.001091417
v -0.04796704 -0.01288813 0.001091404
v -0.03053338 -0.01489234 0.02663461
v -0.02135099 -0.02577565 0.01996321
v -0.02135099 -0.02577565 0.01996321
v -0.03053338 -0.01489234 0.02663461
v -0.008805052 -0.01489236 0.0435125
v -0.005297728 -0.02577567 0.03271801
v -0.005297728 -0.02577567 0.03271801
v -0.008805052 -0.01489236 0.0435125
v 0.02460127 -0.01489235 0.05115268
v 0.0210939 -0.02577571 0.0403582
v 0.0210939 -0.02577571 0.0403582
v 0.02460127 -0.01489235 0.05115268
v 0.03978086 -0.01489236 0.02663462
v 0.03059845 -0.02577564 0.01996324
v 0.03059845 -0.02577564 0.01996324
v 0.03978086 -0.01489236 0.02663462
v 0.04193415 -0.01288824 0.00109145
v 0.03218937 -0.02223228 0.00109142
v 0.03218937 -0.02223228 0.00109142
v 0.04193415 -0.01288824 0.00109145
v 0.04796679 -0.01489235 -0.02772612
v 0.03878438 -0.02577559 -0.02105474
v 0.04796679 -0.01489235 -0.02772612
v 0.04796681 -0.0001483726 -0.02772613
v 0.01805256 -0.0001483537 -0.05115277
v 0.01805254 -0.01489233 -0.05115277
v 0.01805254 -0.01489233 -0.05115277
v 0.01805256 -0.0001483537 -0.05115277
v -0.01317086 -0.0001482513 -0.04896987
v -0.01317088 -0.01489239 -0.04896986
v -0.01317088 -0.01489239 -0.04896986
v -0.01317086 -0.0001482513 -0.04896987
v -0.02743329 -0.0001482903 -0.02445179
v -0.02743331 -0.01489243 -0.02445178
v -0.02743331 -0.01489243 -0.02445178
v -0.02743329 -0.0001482903 -0.02445179
v -0.04796706 -0.0002294076 0.001091411
v -0.04796704 -0.01288813 0.001091404
v -0.04796704 -0.01288813 0.001091404
v -0.04796706 -0.0002294076 0.001091411
v -0.03053336 -0.0001483627 0.02663461
v -0.03053338 -0.01489234 0.02663461
v -0.03053338 -0.01489234 0.02663461
v -0.03053336 -0.0001483627 0.02663461
v -0.008805061 -0.0001483746 0.04351252
v -0.008805052 -0.01489236 0.0435125
v -0.008805052 -0.01489236 0.0435125
v -0.008805061 -0.0001483746 0.04351252
v 0.02460127 -0.0001483709 0.05115269
v 0.02460127 -0.01489235 0.05115268
v 0.02460127 -0.01489235 0.05115268
v 0.02460127 -0.0001483709 0.05115269
v 0.03978085 -0.0001483804 0.02663464
v 0.03978086 -0.01489236 0.02663462
v 0.03978086 -0.01489236 0.02663462
v 0.03978085 -0.0001483804 0.02663464
v 0.04193416 -0.0002293563 0.00109143
v 0.04193415 -0.01288824 0.00109145
v 0.04193415 -0.01288824 0.00109145
v 0.04193416 -0.0002293563 0.00109143
v 0.04796681 -0.0001483726 -0.02772613
v 0.04796679 -0.01489235 -0.02772612
v 0.04796681 -0.0001483726 -0.02772613
v 0.04568876 0.0142834 -0.02539683
v 0.01714499 0.01428335 -0.04799129
v 0.01805256 -0.0001483537 -0.05115277
v 0.01805256 -0.0001483537 -0.05115277
v 0.01714499 0.01428335 -0.04799129
v -0.01182923 0.0142833 -0.04559766
v -0.01317086 -0.0001482513 -0.04896987
v -0.01317086 -0.0001482513 -0.04896987
v -0.01182923 0.0142833 -0.04559766
v -0.02321042 0.01428329 -0.02180642
v -0.02743329 -0.0001482903 -0.02445179
v -0.02743329 -0.0001482903 -0.02445179
v -0.02321042 0.01428329 -0.02180642
v -0.04530422 0.01197203 0.001196771
v -0.04796706 -0.0002294076 0.001091411
v -0.04796706 -0.0002294076 0.001091411
v -0.04530422 0.01197203 0.001196771
v -0.02660971 0.01428339 0.02419996
v -0.03053336 -0.0001483627 0.02663461
v -0.03053336 -0.0001483627 0.02663461
v -0.02660971 0.01428339 0.02419996
v -0.007041996 0.01428329 0.03961356
v -0.008805061 -0.0001483746 0.04351252
v -0.008805061 -0.0001483746 0.04351252
v -0.007041996 0.01428329 0.03961356
v 0.02432583 0.01428331 0.04799119
v 0.02460127 -0.0001483709 0.05115269
v 0.02460127 -0.0001483709 0.05115269
v 0.02432583 0.01428331 0.04799119
v 0.03671269 0.01428335 0.02419995
v 0.03978085 -0.0001483804 0.02663464
v 0.03978085 -0.0001483804 0.02663464
v 0.03671269 0.01428335 0.02419995
v 0.03865188 0.01197214 0.001196764
v 0.04193416 -0.0002293563 0.00109143
v 0.04193416 -0.0002293563 0.00109143
v 0.03865188 0.01197214 0.001196764
v 0.04568876 0.0142834 -0.02539683
v 0.04796681 -0.0001483726 -0.02772613
v 0.04568876 0.0142834 -0.02539683
v 0.03225232 0.02437444 -0.01614771
v 0.01203632 0.02437435 -0.03256865
v 0.01714499 0.01428335 -0.04799129
v 0.01714499 0.01428335 -0.04799129
v 0.01203632 0.02437435 -0.03256865
v -0.002592375 0.02437435 -0.02139385
v -0.01182923 0.0142833 -0.04559766
v -0.01182923 0.0142833 -0.04559766
v -0.002592375 0.02437435 -0.02139385
v -0.01125323 0.02437446 -0.01279525
v -0.02321042 0.01428329 -0.02180642
v -0.02321042 0.01428329 -0.02180642
v -0.01125323 0.02437446 -0.01279525
v -0.03124485 0.0207464 0.00111743
v -0.04530422 0.01197203 0.001196771
v -0.04530422 0.01197203 0.001196771
v -0.03124485 0.0207464 0.00111743
v -0.01442725 0.0243744 0.01503018
v -0.02660971 0.01428339 0.02419996
v -0.02660971 0.01428339 0.02419996
v -0.01442725 0.0243744 0.01503018
v -0.002592371 0.02437446 0.02474621
v -0.007041996 0.01428329 0.03961356
v -0.007041996 0.01428329 0.03961356
v -0.002592371 0.02437446 0.02474621
v 0.01874122 0.02437438 0.03256856
v 0.02432583 0.01428331 0.04799119
v 0.02432583 0.01428331 0.04799119
v 0.01874122 0.02437438 0.03256856
v 0.02387122 0.02437434 0.01503016
v 0.03671269 0.01428335 0.02419995
v 0.03671269 0.01428335 0.02419995
v 0.02387122 0.02437434 0.01503016
v 0.02504406 0.02074644 0.001117465
v 0.03865188 0.01197214 0.001196764
v 0.03865188 0.01197214 0.001196764
v 0.02504406 0.02074644 0.001117465
v 0.03225232 0.02437444 -0.01614771
v 0.04568876 0.0142834 -0.02539683
v 0.03225232 0.02437444 -0.01614771
v 0.004623721 0.03397601 0.001091394
v 0.01203632 0.02437435 -0.03256865
v 0.01203632 0.02437435 -0.03256865
v 0.004623721 0.03397601 0.001091394
v -0.002592375 0.02437435 -0.02139385
v -0.002592375 0.02437435 -0.02139385
v 0.004623721 0.03397601 0.001091394
v -0.01125323 0.02437446 -0.01279525
v -0.01125323 0.02437446 -0.01279525
v 0.004623721 0.03397601 0.001091394
v -0.03124485 0.0207464 0.00111743
v -0.03124485 0.0207464 0.00111743
v 0.004623721 0.03397601 0.001091394
v -0.01442725 0.0243744 0.01503018
v -0.01442725 0.0243744 0.01503018
v 0.004623721 0.03397601 0.001091394
v -0.002592371 0.02437446 0.02474621
v -0.002592371 0.02437446 0.02474621
v 0.004623721 0.03397601 0.001091394
v 0.01874122 0.02437438 0.03256856
v 0.01874122 0.02437438 0.03256856
v 0.004623721 0.03397601 0.001091394
v 0.02387122 0.02437434 0.01503016
v 0.02387122 0.02437434 0.01503016
v 0.004623721 0.03397601 0.001091394
v 0.02504406 0.02074644 0.001117465
v 0.02504406 0.02074644 0.001117465
v 0.004623721 0.03397601 0.001091394
v 0.03225232 0.02437444 -0.01614771

vn 0.1752884 -0.9798333 -0.09591801
vn 0.01175466 -0.9999297 -0.001386031
vn 0.1950869 -0.9766618 0.08984675
vn 0.06472491 -0.9800065 -0.1881425
vn -0.1140948 -0.960863 -0.2524366
vn -0.1741232 -0.9656777 -0.1927361
vn -0.2310939 -0.9702848 -0.071711
vn -0.2113985 -0.972832 0.0943827
vn -0.06697996 -0.983022 0.1708246
vn 0.2032634 -0.9569973 0.2069776
vn 0.2325463 -0.9138629 0.3328308
vn 0.7075298 -0.6962327 -0.1210845
vn 0.7075298 -0.6962327 -0.1210845
vn 0.7075298 -0.6962327 -0.1210845
vn 0.7075298 -0.6962327 -0.1210845
vn 0.4407139 -0.6971071 -0.5655196
vn 0.4407139 -0.6971073 -0.5655196
vn 0.4407139 -0.6971071 -0.5655196
vn 0.4407139 -0.6971072 -0.5655196
vn -0.2614019 -0.6631252 -0.70138
vn -0.261402 -0.6631251 -0.7013801
vn -0.2614019 -0.6631252 -0.70138
vn -0.261402 -0.6631251 -0.70138
vn -0.1263348 -0.6859773 -0.7165713
vn -0.1263349 -0.6859773 -0.7165713
vn -0.1263349 -0.6859773 -0.7165713
vn -0.126335 -0.6859773 -0.7165713
vn -0.7007031 -0.7024533 -0.1247964
vn -0.7007031 -0.7024533 -0.1247964
vn -0.7007031 -0.7024532 -0.1247965
vn -0.7007031 -0.7024533 -0.1247964
vn -0.6923497 -0.7115784 0.1196151
vn -0.6923497 -0.7115784 0.119615
vn -0.6923496 -0.7115784 0.119615
vn -0.6923496 -0.7115784 0.119615
vn -0.5931568 -0.7001566 0.3974234
vn -0.5931568 -0.7001567 0.3974234
vn -0.5931568 -0.7001567 0.3974234
vn -0.5931568 -0.7001566 0.3974234
vn 0.2512195 -0.6670446 0.7013844
vn 0.2512195 -0.6670446 0.7013844
vn 0.2512195 -0.6670446 0.7013844
vn 0.2512195 -0.6670446 0.7013844
vn 0.5673265 -0.6742836 0.4727389
vn 0.5673265 -0.6742836 0.4727389
vn 0.5673265 -0.6742836 0.4727389
vn 0.5673265 -0.6742836 0.4727389
vn 0.3920954 -0.6132059 0.6857402
vn 0.3920954 -0.6132057 0.6857402
vn 0.3920954 -0.6132059 0.6857402
vn 0.3920954 -0.6132058 0.6857402
vn 0.985105 0.01077643 -0.1716155
vn 0.985105 0.01077643 -0.1716154
vn 0.985105 0.01077643 -0.1716154
vn 0.985105 0.01077643 -0.1716155
vn 0.6163431 0.008439366 -0.7874324
vn 0.6163431 0.008439366 -0.7874324
vn 0.6163431 0.008439366 -0.7874324
vn 0.6163431 0.008439366 -0.7874324
vn -0.3050434 -0.0008280026 -0.9523381
vn -0.3050434 -0.0008280026 -0.9523381
vn -0.3050434 -0.0008280026 -0.9523381
vn -0.3050434 -0.0008280026 -0.9523381
vn -0.159072 0.000792536 -0.9872666
vn -0.159072 0.0007925355 -0.9872667
vn -0.159072 0.000792536 -0.9872666
vn -0.159072 0.000792536 -0.9872666
vn -0.9908416 -0.01007246 -0.1346526
vn -0.9908416 -0.01007246 -0.1346526
vn -0.9908417 -0.01007246 -0.1346525
vn -0.9908416 -0.01007246 -0.1346526
vn -0.9844189 -0.01077894 0.1755084
vn -0.9844189 -0.01077894 0.1755084
vn -0.9844189 -0.01077894 0.1755084
vn -0.9844189 -0.01077894 0.1755084
vn -0.8184405 -0.01003101 0.5745035
vn -0.8184405 -0.01003101 0.5745035
vn -0.8184405 -0.01003101 0.5745035
vn -0.8184405 -0.01003101 0.5745035
vn 0.2787471 0.00053174 0.9603645
vn 0.2787471 0.00053174 0.9603645
vn 0.2787471 0.00053174 0.9603645
vn 0.2787471 0.00053174 0.9603645
vn 0.6836195 0.005360072 0.7298189
vn 0.6836195 0.005360072 0.7298189
vn 0.6836195 0.005360072 0.7298189
vn 0.6836195 0.005360072 0.7298189
vn 0.5895204 0.004177148 0.8077427
vn 0.5895204 0.004177149 0.8077427
vn 0.5895204 0.004177148 0.8077427
vn 0.5895204 0.004177148 0.8077427
vn 0.960741 0.2232727 -0.1646998
vn 0.9607409 0.2232727 -0.1646998
vn 0.9607409 0.2232727 -0.1646998
vn 0.9607409 0.2232727 -0.1646998
vn 0.594067 0.2294106 -0.771009
vn 0.594067 0.2294106 -0.771009
vn 0.594067 0.2294106 -0.771009
vn 0.594067 0.2294106 -0.771009
vn -0.3328779 0.2576784 -0.9070799
vn -0.332878 0.2576784 -0.9070801
vn -0.3328779 0.2576784 -0.9070801
vn -0.3328779 0.2576783 -0.9070799
vn -0.1242343 0.2557369 -0.9587306
vn -0.1242343 0.2557369 -0.9587306
vn -0.1242343 0.2557369 -0.9587306
vn -0.1242344 0.2557369 -0.9587306
vn -0.9670882 0.2338872 -0.1001862
vn -0.9670882 0.2338872 -0.1001862
vn -0.9670881 0.2338872 -0.1001862
vn -0.9670882 0.2338872 -0.1001862
vn -0.947893 0.2719051 0.166031
vn -0.947893 0.2719051 0.1660309
vn -0.947893 0.2719052 0.1660309
vn -0.947893 0.2719052 0.1660309
vn -0.8062593 0.2325734 0.5439259
vn -0.8062593 0.2325734 0.5439259
vn -0.8062593 0.2325734 0.5439259
vn -0.8062593 0.2325734 0.5439259
vn 0.3050467 0.193896 0.93239
vn 0.3050467 0.193896 0.93239
vn 0.3050466 0.193896 0.9323899
vn 0.3050467 0.193896 0.93239
vn 0.6700765 0.2424602 0.7015771
vn 0.6700766 0.2424602 0.7015771
vn 0.6700766 0.2424602 0.7015771
vn 0.6700766 0.2424602 0.7015771
vn 0.5517609 0.1820376 0.8138932
vn 0.5517609 0.1820376 0.8138932
vn 0.5517609 0.1820376 0.8138932
vn 0.5517609 0.1820376 0.8138932
vn 0.531462 0.8426833 -0.08621243
vn 0.531462 0.8426833 -0.08621246
vn 0.531462 0.8426833 -0.08621243
vn 0.531462 0.8426833 -0.08621246
vn 0.1829418 0.8914403 -0.4145673
vn 0.1829418 0.8914403 -0.4145673
vn 0.1829418 0.8914403 -0.4145673
vn 0.1829419 0.8914403 -0.4145672
vn -0.1470125 0.8690196 -0.4724319
vn -0.1470125 0.8690196 -0.4724319
vn -0.1470125 0.8690196 -0.4724319
vn -0.1470125 0.8690196 -0.4724319
vn -0.08568659 0.8055113 -0.5863522
vn -0.08568659 0.8055114 -0.5863522
vn -0.08568659 0.8055114 -0.5863522
vn -0.08568659 0.8055114 -0.5863522
vn -0.5778922 0.8126913 -0.07465269
vn -0.5778922 0.8126914 -0.07465266
vn -0.5778922 0.8126913 -0.0746527
vn -0.5778922 0.8126913 -0.07465269
vn -0.5702658 0.8160853 0.09381659
vn -0.5702657 0.8160852 0.09381653
vn -0.5702658 0.8160852 0.09381659
vn -0.5702657 0.8160852 0.09381653
vn -0.5032607 0.8112536 0.2976504
vn -0.5032607 0.8112536 0.2976504
vn -0.5032607 0.8112536 0.2976504
vn -0.5032607 0.8112536 0.2976504
vn 0.2471092 0.7975029 0.5503869
vn 0.2471092 0.7975029 0.5503869
vn 0.2471092 0.7975029 0.550387
vn 0.2471092 0.7975029 0.5503869
vn 0.4871432 0.8028191 0.3437626
vn 0.4871431 0.8028191 0.3437625
vn 0.4871431 0.8028191 0.3437626
vn 0.4871432 0.8028191 0.3437626
vn 0.2471689 0.7335979 0.6330414
vn 0.2471689 0.733598 0.6330413
vn 0.2471689 0.7335979 0.6330414
vn 0.2471689 0.7335979 0.6330414
vn 0.2840143 0.9578342 -0.04346211
vn 0.2840143 0.9578342 -0.04346214
vn 0.2840143 0.9578342 -0.04346211
vn 0.02264938 0.9194199 -0.392624
vn 0.02264941 0.9194199 -0.392624
vn 0.02264941 0.9194199 -0.392624
vn -0.02941488 0.9105254 -0.4124052
vn -0.02941486 0.9105254 -0.4124053
vn -0.02941491 0.9105254 -0.4124052
vn -0.09459729 0.9096038 -0.404564
vn -0.09459731 0.9096038 -0.404564
vn -0.09459731 0.9096038 -0.404564
vn -0.3772829 0.9207844 -0.09906168
vn -0.3772829 0.9207844 -0.09906164
vn -0.3772829 0.9207844 -0.09906168
vn -0.3925705 0.9177656 0.0599532
vn -0.3925705 0.9177656 0.05995318
vn -0.3925705 0.9177656 0.05995318
vn -0.3303139 0.9281766 0.1714071
vn -0.3303139 0.9281766 0.171407
vn -0.3303139 0.9281766 0.171407
vn 0.1971385 0.9203159 0.3378677
vn 0.1971385 0.9203159 0.3378678
vn 0.1971385 0.9203159 0.3378678
vn 0.5033965 0.831633 0.2344743
vn 0.5033964 0.831633 0.2344742
vn 0.5033964 0.8316331 0.2344742
vn 0.1155077 0.7782929 0.6171855
vn 0.1155076 0.7782929 0.6171855
vn 0.1155077 0.7782929 0.6171855

vt 0.5483398 0.007648468
vt 0.5 0.1500244
vt 0.6264648 0.06439209
vt 0.4516602 0.007648468
vt 0.3735352 0.06439209
vt 0.34375 0.15625
vt 0.3735352 0.2480469
vt 0.4516602 0.3049316
vt 0.5483398 0.3049316
vt 0.6264648 0.2480469
vt 0.65625 0.15625
vt 0 0
vt 0 1
vt 1 1
vt 1 0
vt 0 0
vt 0 1
vt 1 1
vt 1 0
vt 0 0
vt 0 1
vt 1 1
vt 1 0
vt 0 0
vt 0 1
vt 1 1
vt 1 0
vt 0 0
vt 0 1
vt 1 1
vt 1 0
vt 0 0
vt 0 1
vt 1 1
vt 1 0
vt 0 0
vt 0 1
vt 1 1
vt 1 0
vt 0 0
vt 0 1
vt 1 1
vt 1 0
vt 0 0
vt 0 1
vt 1 1
vt 1 0
vt 0 0
vt 0 1
vt 1 1
vt 1 0
vt 0 0
vt 0 1
vt 1 1
vt 1 0
vt 0 0
vt 0 1
vt 1 1
vt 1 0
vt 0 0
vt 0 1
vt 1 1
vt 1 0
vt 0 0
vt 0 1
vt 1 1
vt 1 0
vt 0 0
vt 0 1
vt 1 1
vt 1 0
vt 0 0
vt 0 1
vt 1 1
vt 1 0
vt 0 0
vt 0 1
vt 1 1
vt 1 0
vt 0 0
vt 0 1
vt 1 1
vt 1 0
vt 0 0
vt 0 1
vt 1 1
vt 1 0
vt 0 0
vt 0 1
vt 1 1
vt 1 0
vt 0 0
vt 0 1
vt 1 1
vt 1 0
vt 0 0
vt 0 1
vt 1 1
vt 1 0
vt 0 0
vt 0 1
vt 1 1
vt 1 0
vt 0 0
vt 0 1
vt 1 1
vt 1 0
vt 0 0
vt 0 1
vt 1 1
vt 1 0
vt 0 0
vt 0 1
vt 1 1
vt 1 0
vt 0 0
vt 0 1
vt 1 1
vt 1 0
vt 0 0
vt 0 1
vt 1 1
vt 1 0
vt 0 0
vt 0 1
vt 1 1
vt 1 0
vt 0 0
vt 0 1
vt 1 1
vt 1 0
vt 0 0
vt 0 1
vt 1 1
vt 1 0
vt 0 0
vt 0 1
vt 1 1
vt 1 0
vt 0 0
vt 0 1
vt 1 1
vt 1 0
vt 0 0
vt 0 1
vt 1 1
vt 1 0
vt 0 0
vt 0 1
vt 1 1
vt 1 0
vt 0 0
vt 0 1
vt 1 1
vt 1 0
vt 0 0
vt 0 1
vt 1 1
vt 1 0
vt 0 0
vt 0 1
vt 1 1
vt 1 0
vt 0 0
vt 0 1
vt 1 1
vt 1 0
vt 0 0
vt 0 1
vt 1 1
vt 1 0
vt 0 0
vt 0.5 1
vt 1 0
vt 0 0
vt 0.5 1
vt 1 0
vt 0 0
vt 0.5 1
vt 1 0
vt 0 0
vt 0.5 1
vt 1 0
vt 0 0
vt 0.5 1
vt 1 0
vt 0 0
vt 0.5 1
vt 1 0
vt 0 0
vt 0.5 1
vt 1 0
vt 0 0
vt 0.5 1
vt 1 0
vt 0 0
vt 0.5 1
vt 1 0
vt 0 0
vt 0.5 1
vt 1 0

g Foliage3_10_4184_258
usemtl Foliage3_10_4184_258
usemap Foliage3_10_4184_258
f 1/1/1 3/3/3 2/2/2
f 4/4/4 1/1/1 2/2/2
f 5/5/5 4/4/4 2/2/2
f 6/6/6 5/5/5 2/2/2
f 7/7/7 6/6/6 2/2/2
f 8/8/8 7/7/7 2/2/2
f 9/9/9 8/8/8 2/2/2
f 10/10/10 9/9/9 2/2/2
f 11/11/11 10/10/10 2/2/2
f 3/3/3 11/11/11 2/2/2
f 12/12/12 14/14/14 13/13/13
f 12/12/12 15/15/15 14/14/14
f 16/16/16 18/18/18 17/17/17
f 16/16/16 19/19/19 18/18/18
f 20/20/20 22/22/22 21/21/21
f 20/20/20 23/23/23 22/22/22
f 24/24/24 26/26/26 25/25/25
f 24/24/24 27/27/27 26/26/26
f 28/28/28 30/30/30 29/29/29
f 28/28/28 31/31/31 30/30/30
f 32/32/32 34/34/34 33/33/33
f 32/32/32 35/35/35 34/34/34
f 36/36/36 38/38/38 37/37/37
f 36/36/36 39/39/39 38/38/38
f 40/40/40 42/42/42 41/41/41
f 40/40/40 43/43/43 42/42/42
f 44/44/44 46/46/46 45/45/45
f 44/44/44 47/47/47 46/46/46
f 48/48/48 50/50/50 49/49/49
f 48/48/48 51/51/51 50/50/50
f 52/52/52 54/54/54 53/53/53
f 52/52/52 55/55/55 54/54/54
f 56/56/56 58/58/58 57/57/57
f 56/56/56 59/59/59 58/58/58
f 60/60/60 62/62/62 61/61/61
f 60/60/60 63/63/63 62/62/62
f 64/64/64 66/66/66 65/65/65
f 64/64/64 67/67/67 66/66/66
f 68/68/68 70/70/70 69/69/69
f 68/68/68 71/71/71 70/70/70
f 72/72/72 74/74/74 73/73/73
f 72/72/72 75/75/75 74/74/74
f 76/76/76 78/78/78 77/77/77
f 76/76/76 79/79/79 78/78/78
f 80/80/80 82/82/82 81/81/81
f 80/80/80 83/83/83 82/82/82
f 84/84/84 86/86/86 85/85/85
f 84/84/84 87/87/87 86/86/86
f 88/88/88 90/90/90 89/89/89
f 88/88/88 91/91/91 90/90/90
f 92/92/92 94/94/94 93/93/93
f 92/92/92 95/95/95 94/94/94
f 96/96/96 98/98/98 97/97/97
f 96/96/96 99/99/99 98/98/98
f 100/100/100 102/102/102 101/101/101
f 100/100/100 103/103/103 102/102/102
f 104/104/104 106/106/106 105/105/105
f 104/104/104 107/107/107 106/106/106
f 108/108/108 110/110/110 109/109/109
f 108/108/108 111/111/111 110/110/110
f 112/112/112 114/114/114 113/113/113
f 112/112/112 115/115/115 114/114/114
f 116/116/116 118/118/118 117/117/117
f 116/116/116 119/119/119 118/118/118
f 120/120/120 122/122/122 121/121/121
f 120/120/120 123/123/123 122/122/122
f 124/124/124 126/126/126 125/125/125
f 124/124/124 127/127/127 126/126/126
f 128/128/128 130/130/130 129/129/129
f 128/128/128 131/131/131 130/130/130
f 132/132/132 134/134/134 133/133/133
f 132/132/132 135/135/135 134/134/134
f 136/136/136 138/138/138 137/137/137
f 136/136/136 139/139/139 138/138/138
f 140/140/140 142/142/142 141/141/141
f 140/140/140 143/143/143 142/142/142
f 144/144/144 146/146/146 145/145/145
f 144/144/144 147/147/147 146/146/146
f 148/148/148 150/150/150 149/149/149
f 148/148/148 151/151/151 150/150/150
f 152/152/152 154/154/154 153/153/153
f 152/152/152 155/155/155 154/154/154
f 156/156/156 158/158/158 157/157/157
f 156/156/156 159/159/159 158/158/158
f 160/160/160 162/162/162 161/161/161
f 160/160/160 163/163/163 162/162/162
f 164/164/164 166/166/166 165/165/165
f 164/164/164 167/167/167 166/166/166
f 168/168/168 170/170/170 169/169/169
f 168/168/168 171/171/171 170/170/170
f 172/172/172 174/174/174 173/173/173
f 175/175/175 177/177/177 176/176/176
f 178/178/178 180/180/180 179/179/179
f 181/181/181 183/183/183 182/182/182
f 184/184/184 186/186/186 185/185/185
f 187/187/187 189/189/189 188/188/188
f 190/190/190 192/192/192 191/191/191
f 193/193/193 195/195/195 194/194/194
f 196/196/196 198/198/198 197/197/197
f 199/199/199 201/201/201 200/200/200
