#Foliage1_10_4304_66.obj

v 0.01454484 -0.02577547 -0.0403585
v 0.004623345 -0.03397588 0.001091153
v 0.03878405 -0.02577563 -0.02105502
v -0.009663919 -0.02577548 -0.03817559
v -0.01825123 -0.02577556 -0.01778065
v -0.03822263 -0.02223198 0.001091141
v -0.02135138 -0.02577544 0.01996293
v -0.005298115 -0.02577534 0.03271776
v 0.02109353 -0.02577551 0.04035797
v 0.03059807 -0.02577544 0.01996294
v 0.03218901 -0.02223211 0.001091187
v 0.03878405 -0.02577563 -0.02105502
v 0.04796639 -0.01489215 -0.02772635
v 0.01805215 -0.01489209 -0.05115302
v 0.01454484 -0.02577547 -0.0403585
v 0.01454484 -0.02577547 -0.0403585
v 0.01805215 -0.01489209 -0.05115302
v -0.01317125 -0.01489235 -0.04897016
v -0.009663919 -0.02577548 -0.03817559
v -0.009663919 -0.02577548 -0.03817559
v -0.01317125 -0.01489235 -0.04897016
v -0.02743365 -0.01489234 -0.02445201
v -0.01825123 -0.02577556 -0.01778065
v -0.01825123 -0.02577556 -0.01778065
v -0.02743365 -0.01489234 -0.02445201
v -0.04796742 -0.01288802 0.00109116
v -0.03822263 -0.02223198 0.001091141
v -0.03822263 -0.02223198 0.001091141
v -0.04796742 -0.01288802 0.00109116
v -0.03053376 -0.0148922 0.02663434
v -0.02135138 -0.02577544 0.01996293
v -0.02135138 -0.02577544 0.01996293
v -0.03053376 -0.0148922 0.02663434
v -0.008805458 -0.01489235 0.04351223
v -0.005298115 -0.02577534 0.03271776
v -0.005298115 -0.02577534 0.03271776
v -0.008805458 -0.01489235 0.04351223
v 0.0246009 -0.01489227 0.05115245
v 0.02109353 -0.02577551 0.04035797
v 0.02109353 -0.02577551 0.04035797
v 0.0246009 -0.01489227 0.05115245
v 0.03978044 -0.01489229 0.02663437
v 0.03059807 -0.02577544 0.01996294
v 0.03059807 -0.02577544 0.01996294
v 0.03978044 -0.01489229 0.02663437
v 0.04193379 -0.01288809 0.001091212
v 0.03218901 -0.02223211 0.001091187
v 0.03218901 -0.02223211 0.001091187
v 0.04193379 -0.01288809 0.001091212
v 0.04796639 -0.01489215 -0.02772635
v 0.03878405 -0.02577563 -0.02105502
v 0.04796639 -0.01489215 -0.02772635
v 0.04796642 -0.0001480563 -0.02772635
v 0.01805218 -0.0001479924 -0.05115301
v 0.01805215 -0.01489209 -0.05115302
v 0.01805215 -0.01489209 -0.05115302
v 0.01805218 -0.0001479924 -0.05115301
v -0.01317128 -0.0001482525 -0.04897011
v -0.01317125 -0.01489235 -0.04897016
v -0.01317125 -0.01489235 -0.04897016
v -0.01317128 -0.0001482525 -0.04897011
v -0.02743366 -0.0001482457 -0.02445208
v -0.02743365 -0.01489234 -0.02445201
v -0.02743365 -0.01489234 -0.02445201
v -0.02743366 -0.0001482457 -0.02445208
v -0.04796744 -0.000229228 0.001091136
v -0.04796742 -0.01288802 0.00109116
v -0.04796742 -0.01288802 0.00109116
v -0.04796744 -0.000229228 0.001091136
v -0.03053373 -0.000148106 0.02663434
v -0.03053376 -0.0148922 0.02663434
v -0.03053376 -0.0148922 0.02663434
v -0.03053373 -0.000148106 0.02663434
v -0.008805421 -0.0001482514 0.04351223
v -0.008805458 -0.01489235 0.04351223
v -0.008805458 -0.01489235 0.04351223
v -0.008805421 -0.0001482514 0.04351223
v 0.02460094 -0.0001481753 0.05115245
v 0.0246009 -0.01489227 0.05115245
v 0.0246009 -0.01489227 0.05115245
v 0.02460094 -0.0001481753 0.05115245
v 0.03978048 -0.0001481954 0.02663437
v 0.03978044 -0.01489229 0.02663437
v 0.03978044 -0.01489229 0.02663437
v 0.03978048 -0.0001481954 0.02663437
v 0.04193376 -0.0002293 0.001091189
v 0.04193379 -0.01288809 0.001091212
v 0.04193379 -0.01288809 0.001091212
v 0.04193376 -0.0002293 0.001091189
v 0.04796642 -0.0001480563 -0.02772635
v 0.04796639 -0.01489215 -0.02772635
v 0.04796642 -0.0001480563 -0.02772635
v 0.04568842 0.01428359 -0.02539713
v 0.0171446 0.01428362 -0.04799154
v 0.01805218 -0.0001479924 -0.05115301
v 0.01805218 -0.0001479924 -0.05115301
v 0.0171446 0.01428362 -0.04799154
v -0.01182962 0.01428366 -0.04559796
v -0.01317128 -0.0001482525 -0.04897011
v -0.01317128 -0.0001482525 -0.04897011
v -0.01182962 0.01428366 -0.04559796
v -0.02321076 0.01428357 -0.02180666
v -0.02743366 -0.0001482457 -0.02445208
v -0.02743366 -0.0001482457 -0.02445208
v -0.02321076 0.01428357 -0.02180666
v -0.04530459 0.0119722 0.001196468
v -0.04796744 -0.000229228 0.001091136
v -0.04796744 -0.000229228 0.001091136
v -0.04530459 0.0119722 0.001196468
v -0.02661009 0.01428353 0.02419969
v -0.03053373 -0.000148106 0.02663434
v -0.03053373 -0.000148106 0.02663434
v -0.02661009 0.01428353 0.02419969
v -0.007042405 0.01428348 0.03961327
v -0.008805421 -0.0001482514 0.04351223
v -0.008805421 -0.0001482514 0.04351223
v -0.007042405 0.01428348 0.03961327
v 0.02432549 0.0142836 0.04799095
v 0.02460094 -0.0001481753 0.05115245
v 0.02460094 -0.0001481753 0.05115245
v 0.02432549 0.0142836 0.04799095
v 0.03671231 0.01428369 0.02419971
v 0.03978048 -0.0001481954 0.02663437
v 0.03978048 -0.0001481954 0.02663437
v 0.03671231 0.01428369 0.02419971
v 0.03865147 0.0119721 0.001196516
v 0.04193376 -0.0002293 0.001091189
v 0.04193376 -0.0002293 0.001091189
v 0.03865147 0.0119721 0.001196516
v 0.04568842 0.01428359 -0.02539713
v 0.04796642 -0.0001480563 -0.02772635
v 0.04568842 0.01428359 -0.02539713
v 0.03225195 0.02437457 -0.01614795
v 0.012036 0.02437467 -0.03256892
v 0.0171446 0.01428362 -0.04799154
v 0.0171446 0.01428362 -0.04799154
v 0.012036 0.02437467 -0.03256892
v -0.002592676 0.02437466 -0.02139408
v -0.01182962 0.01428366 -0.04559796
v -0.01182962 0.01428366 -0.04559796
v -0.002592676 0.02437466 -0.02139408
v -0.01125365 0.02437472 -0.01279551
v -0.02321076 0.01428357 -0.02180666
v -0.02321076 0.01428357 -0.02180666
v -0.01125365 0.02437472 -0.01279551
v -0.03124522 0.02074651 0.001117177
v -0.04530459 0.0119722 0.001196468
v -0.04530459 0.0119722 0.001196468
v -0.03124522 0.02074651 0.001117177
v -0.01442762 0.02437458 0.01502989
v -0.02661009 0.01428353 0.02419969
v -0.02661009 0.01428353 0.02419969
v -0.01442762 0.02437458 0.01502989
v -0.00259276 0.02437459 0.02474596
v -0.007042405 0.01428348 0.03961327
v -0.007042405 0.01428348 0.03961327
v -0.00259276 0.02437459 0.02474596
v 0.01874083 0.0243747 0.03256835
v 0.02432549 0.0142836 0.04799095
v 0.02432549 0.0142836 0.04799095
v 0.01874083 0.0243747 0.03256835
v 0.02387083 0.02437466 0.01502992
v 0.03671231 0.01428369 0.02419971
v 0.03671231 0.01428369 0.02419971
v 0.02387083 0.02437466 0.01502992
v 0.02504371 0.02074657 0.001117188
v 0.03865147 0.0119721 0.001196516
v 0.03865147 0.0119721 0.001196516
v 0.02504371 0.02074657 0.001117188
v 0.03225195 0.02437457 -0.01614795
v 0.04568842 0.01428359 -0.02539713
v 0.03225195 0.02437457 -0.01614795
v 0.004623323 0.0339762 0.00109115
v 0.012036 0.02437467 -0.03256892
v 0.012036 0.02437467 -0.03256892
v 0.004623323 0.0339762 0.00109115
v -0.002592676 0.02437466 -0.02139408
v -0.002592676 0.02437466 -0.02139408
v 0.004623323 0.0339762 0.00109115
v -0.01125365 0.02437472 -0.01279551
v -0.01125365 0.02437472 -0.01279551
v 0.004623323 0.0339762 0.00109115
v -0.03124522 0.02074651 0.001117177
v -0.03124522 0.02074651 0.001117177
v 0.004623323 0.0339762 0.00109115
v -0.01442762 0.02437458 0.01502989
v -0.01442762 0.02437458 0.01502989
v 0.004623323 0.0339762 0.00109115
v -0.00259276 0.02437459 0.02474596
v -0.00259276 0.02437459 0.02474596
v 0.004623323 0.0339762 0.00109115
v 0.01874083 0.0243747 0.03256835
v 0.01874083 0.0243747 0.03256835
v 0.004623323 0.0339762 0.00109115
v 0.02387083 0.02437466 0.01502992
v 0.02387083 0.02437466 0.01502992
v 0.004623323 0.0339762 0.00109115
v 0.02504371 0.02074657 0.001117188
v 0.02504371 0.02074657 0.001117188
v 0.004623323 0.0339762 0.00109115
v 0.03225195 0.02437457 -0.01614795

vn 0.1608281 -0.9799306 -0.11777
vn 0.01189561 -0.9999276 -0.001569032
vn 0.2060436 -0.9764808 0.0634874
vn 0.03860722 -0.9802664 -0.1938726
vn -0.1473767 -0.9612612 -0.2329301
vn -0.1986003 -0.9660026 -0.1655179
vn -0.2383419 -0.9704455 -0.03778835
vn -0.1959376 -0.9727433 0.1240082
vn -0.04235588 -0.9827856 0.1798268
vn 0.2302796 -0.956642 0.1783448
vn 0.2766124 -0.9133153 0.2988983
vn 0.6843932 -0.6962376 -0.2164691
vn 0.6843931 -0.6962376 -0.2164691
vn 0.6843932 -0.6962376 -0.216469
vn 0.6843931 -0.6962376 -0.2164691
vn 0.3588602 -0.6978313 -0.6198792
vn 0.3588602 -0.6978314 -0.6198792
vn 0.3588602 -0.6978313 -0.6198792
vn 0.3588602 -0.6978313 -0.6198792
vn -0.355296 -0.6642203 -0.6577049
vn -0.355296 -0.6642203 -0.657705
vn -0.355296 -0.6642203 -0.6577049
vn -0.355296 -0.6642203 -0.6577049
vn -0.2236023 -0.687062 -0.6913375
vn -0.2236024 -0.6870619 -0.6913376
vn -0.2236023 -0.6870619 -0.6913376
vn -0.2236024 -0.6870619 -0.6913375
vn -0.7109046 -0.7028069 -0.0260132
vn -0.7109046 -0.7028069 -0.0260132
vn -0.7109046 -0.7028068 -0.02601326
vn -0.7109047 -0.7028069 -0.02601323
vn -0.6689351 -0.7115702 0.2149262
vn -0.6689351 -0.7115702 0.2149261
vn -0.6689351 -0.7115702 0.2149261
vn -0.6689351 -0.7115702 0.2149262
vn -0.5323988 -0.6997154 0.4763921
vn -0.5323988 -0.6997154 0.4763921
vn -0.5323988 -0.6997154 0.4763921
vn -0.5323988 -0.6997154 0.4763921
vn 0.3458022 -0.6659502 0.6610074
vn 0.3458022 -0.6659502 0.6610074
vn 0.3458022 -0.6659502 0.6610074
vn 0.3458023 -0.6659502 0.6610075
vn 0.6273763 -0.6734487 0.3909803
vn 0.6273763 -0.6734487 0.3909803
vn 0.6273763 -0.6734487 0.3909803
vn 0.6273763 -0.6734487 0.3909803
vn 0.4831528 -0.6121002 0.6260164
vn 0.4831529 -0.6121001 0.6260164
vn 0.4831528 -0.6121002 0.6260164
vn 0.4831528 -0.6121001 0.6260163
vn 0.9520387 0.01076388 -0.3057879
vn 0.9520388 0.01076388 -0.3057879
vn 0.9520388 0.01076388 -0.3057879
vn 0.9520387 0.01076388 -0.3057879
vn 0.5019088 0.007430548 -0.8648885
vn 0.5019088 0.007430548 -0.8648885
vn 0.5019088 0.007430548 -0.8648885
vn 0.5019088 0.007430548 -0.8648885
vn -0.4334092 -0.002304062 -0.9011943
vn -0.4334092 -0.002304062 -0.9011943
vn -0.4334092 -0.002304062 -0.9011943
vn -0.4334092 -0.002304062 -0.9011943
vn -0.293647 -0.0006993636 -0.9559137
vn -0.293647 -0.0006993641 -0.9559137
vn -0.293647 -0.0006993636 -0.9559137
vn -0.293647 -0.0006993636 -0.9559137
vn -0.9999394 -0.0105121 0.00323388
vn -0.9999394 -0.0105121 0.00323388
vn -0.9999395 -0.0105121 0.003233999
vn -0.9999394 -0.0105121 0.00323388
vn -0.9508225 -0.01076049 0.3095492
vn -0.9508225 -0.01076049 0.3095492
vn -0.9508225 -0.01076049 0.3095492
vn -0.9508225 -0.01076049 0.3095492
vn -0.7314281 -0.009384844 0.6818538
vn -0.7314281 -0.009384844 0.6818538
vn -0.7314281 -0.009384844 0.6818538
vn -0.7314281 -0.009384844 0.6818538
vn 0.4084705 0.002013205 0.9127694
vn 0.4084705 0.002013205 0.9127694
vn 0.4084705 0.002013205 0.9127694
vn 0.4084705 0.002013205 0.9127694
vn 0.7776952 0.00660086 0.628607
vn 0.7776952 0.00660086 0.628607
vn 0.7776952 0.00660086 0.628607
vn 0.7776952 0.00660086 0.628607
vn 0.6952366 0.005509701 0.7187599
vn 0.6952366 0.005509701 0.7187599
vn 0.6952366 0.005509701 0.7187599
vn 0.6952366 0.005509701 0.7187599
vn 0.9287663 0.2232641 -0.2958824
vn 0.9287661 0.2232641 -0.2958824
vn 0.9287661 0.2232641 -0.2958824
vn 0.9287661 0.2232641 -0.2958824
vn 0.4820113 0.2284203 -0.8458659
vn 0.4820112 0.2284203 -0.8458659
vn 0.4820112 0.2284203 -0.8458659
vn 0.4820112 0.2284203 -0.8458659
vn -0.4548541 0.2562618 -0.8528995
vn -0.4548542 0.2562618 -0.8528996
vn -0.4548541 0.2562618 -0.8528996
vn -0.4548541 0.2562617 -0.8528995
vn -0.2553215 0.2542952 -0.9328156
vn -0.2553214 0.2542952 -0.9328156
vn -0.2553215 0.2542952 -0.9328156
vn -0.2553215 0.2542952 -0.9328156
vn -0.97177 0.2335038 0.03374934
vn -0.97177 0.2335038 0.03374934
vn -0.9717699 0.2335038 0.03374931
vn -0.97177 0.2335038 0.03374934
vn -0.9160774 0.2719182 0.2947246
vn -0.9160774 0.2719182 0.2947245
vn -0.9160774 0.2719182 0.2947246
vn -0.9160774 0.2719182 0.2947246
vn -0.7236861 0.2331772 0.6495434
vn -0.7236861 0.2331772 0.6495434
vn -0.7236861 0.2331772 0.6495434
vn -0.7236861 0.2331772 0.6495434
vn 0.4305769 0.1953424 0.8811612
vn 0.4305769 0.1953424 0.8811612
vn 0.4305768 0.1953424 0.8811611
vn 0.4305769 0.1953424 0.8811612
vn 0.7602832 0.2436559 0.6021639
vn 0.7602832 0.2436559 0.602164
vn 0.7602832 0.2436559 0.602164
vn 0.7602832 0.2436558 0.602164
vn 0.6586064 0.1833697 0.7298034
vn 0.6586064 0.1833698 0.7298034
vn 0.6586064 0.1833698 0.7298034
vn 0.6586064 0.1833698 0.7298034
vn 0.5141296 0.8426849 -0.1598509
vn 0.5141296 0.8426849 -0.159851
vn 0.5141296 0.8426849 -0.1598509
vn 0.5141296 0.8426849 -0.159851
vn 0.1236518 0.8908737 -0.437097
vn 0.1236518 0.8908736 -0.437097
vn 0.1236518 0.8908737 -0.437097
vn 0.1236518 0.8908737 -0.437097
vn -0.2111191 0.8682874 -0.4488934
vn -0.2111191 0.8682874 -0.4488934
vn -0.2111191 0.8682874 -0.4488934
vn -0.2111191 0.8682874 -0.4488934
vn -0.1660542 0.8046263 -0.5700893
vn -0.1660542 0.8046264 -0.5700893
vn -0.1660542 0.8046264 -0.5700893
vn -0.1660542 0.8046264 -0.5700893
vn -0.583027 0.8124396 0.004564434
vn -0.5830269 0.8124397 0.004564464
vn -0.583027 0.8124396 0.004564434
vn -0.583027 0.8124396 0.004564434
vn -0.5522516 0.8160834 0.1703691
vn -0.5522516 0.8160833 0.170369
vn -0.5522516 0.8160833 0.1703691
vn -0.5522516 0.8160833 0.170369
vn -0.457786 0.8115681 0.363027
vn -0.457786 0.8115681 0.363027
vn -0.457786 0.8115681 0.363027
vn -0.457786 0.8115681 0.363027
vn 0.3202658 0.7983723 0.5099323
vn 0.3202658 0.7983723 0.5099324
vn 0.3202658 0.7983723 0.5099324
vn 0.3202658 0.7983723 0.5099324
vn 0.529523 0.8034427 0.2721849
vn 0.5295229 0.8034428 0.2721848
vn 0.529523 0.8034428 0.2721848
vn 0.529523 0.8034427 0.2721849
vn 0.3317471 0.734589 0.5918804
vn 0.3317472 0.734589 0.5918804
vn 0.3317471 0.734589 0.5918804
vn 0.3317471 0.734589 0.5918804
vn 0.2748861 0.9578384 -0.0835624
vn 0.2748861 0.9578384 -0.08356243
vn 0.2748861 0.9578384 -0.0835624
vn -0.03209794 0.9188464 -0.393307
vn -0.03209792 0.9188464 -0.393307
vn -0.03209791 0.9188464 -0.393307
vn -0.08638801 0.90991 -0.4057097
vn -0.08638799 0.90991 -0.4057097
vn -0.08638804 0.90991 -0.4057097
vn -0.1498668 0.9089841 -0.3889566
vn -0.1498668 0.9089841 -0.3889567
vn -0.1498668 0.9089841 -0.3889567
vn -0.3877457 0.9205455 -0.04741921
vn -0.3877456 0.9205455 -0.04741918
vn -0.3877457 0.9205455 -0.04741921
vn -0.3809659 0.917757 0.1121891
vn -0.380966 0.9177571 0.1121891
vn -0.380966 0.9177571 0.1121891
vn -0.3039446 0.9283472 0.213982
vn -0.3039446 0.9283472 0.213982
vn -0.3039446 0.9283472 0.213982
vn 0.2414221 0.9208601 0.3061558
vn 0.2414222 0.9208601 0.3061558
vn 0.2414222 0.9208601 0.3061558
vn 0.5305431 0.8320997 0.1616584
vn 0.530543 0.8320997 0.1616584
vn 0.530543 0.8320998 0.1616584
vn 0.1991373 0.7792285 0.5942616
vn 0.1991372 0.7792285 0.5942616
vn 0.1991373 0.7792285 0.5942616

vt 0.5482839 0.007647395
vt 0.5 0.15
vt 0.6264089 0.06440853
vt 0.4517161 0.00764741
vt 0.3735911 0.06440856
vt 0.34375 0.15625
vt 0.3735911 0.2480915
vt 0.4517161 0.3048526
vt 0.5482839 0.3048526
vt 0.6264089 0.2480914
vt 0.65625 0.15625
vt 0 0
vt 0 1
vt 1 1
vt 1 0
vt 0 0
vt 0 1
vt 1 1
vt 1 0
vt 0 0
vt 0 1
vt 1 1
vt 1 0
vt 0 0
vt 0 1
vt 1 1
vt 1 0
vt 0 0
vt 0 1
vt 1 1
vt 1 0
vt 0 0
vt 0 1
vt 1 1
vt 1 0
vt 0 0
vt 0 1
vt 1 1
vt 1 0
vt 0 0
vt 0 1
vt 1 1
vt 1 0
vt 0 0
vt 0 1
vt 1 1
vt 1 0
vt 0 0
vt 0 1
vt 1 1
vt 1 0
vt 0 0
vt 0 1
vt 1 1
vt 1 0
vt 0 0
vt 0 1
vt 1 1
vt 1 0
vt 0 0
vt 0 1
vt 1 1
vt 1 0
vt 0 0
vt 0 1
vt 1 1
vt 1 0
vt 0 0
vt 0 1
vt 1 1
vt 1 0
vt 0 0
vt 0 1
vt 1 1
vt 1 0
vt 0 0
vt 0 1
vt 1 1
vt 1 0
vt 0 0
vt 0 1
vt 1 1
vt 1 0
vt 0 0
vt 0 1
vt 1 1
vt 1 0
vt 0 0
vt 0 1
vt 1 1
vt 1 0
vt 0 0
vt 0 1
vt 1 1
vt 1 0
vt 0 0
vt 0 1
vt 1 1
vt 1 0
vt 0 0
vt 0 1
vt 1 1
vt 1 0
vt 0 0
vt 0 1
vt 1 1
vt 1 0
vt 0 0
vt 0 1
vt 1 1
vt 1 0
vt 0 0
vt 0 1
vt 1 1
vt 1 0
vt 0 0
vt 0 1
vt 1 1
vt 1 0
vt 0 0
vt 0 1
vt 1 1
vt 1 0
vt 0 0
vt 0 1
vt 1 1
vt 1 0
vt 0 0
vt 0 1
vt 1 1
vt 1 0
vt 0 0
vt 0 1
vt 1 1
vt 1 0
vt 0 0
vt 0 1
vt 1 1
vt 1 0
vt 0 0
vt 0 1
vt 1 1
vt 1 0
vt 0 0
vt 0 1
vt 1 1
vt 1 0
vt 0 0
vt 0 1
vt 1 1
vt 1 0
vt 0 0
vt 0 1
vt 1 1
vt 1 0
vt 0 0
vt 0 1
vt 1 1
vt 1 0
vt 0 0
vt 0 1
vt 1 1
vt 1 0
vt 0 0
vt 0 1
vt 1 1
vt 1 0
vt 0 0
vt 0 1
vt 1 1
vt 1 0
vt 0 0
vt 0.5 1
vt 1 0
vt 0 0
vt 0.5 1
vt 1 0
vt 0 0
vt 0.5 1
vt 1 0
vt 0 0
vt 0.5 1
vt 1 0
vt 0 0
vt 0.5 1
vt 1 0
vt 0 0
vt 0.5 1
vt 1 0
vt 0 0
vt 0.5 1
vt 1 0
vt 0 0
vt 0.5 1
vt 1 0
vt 0 0
vt 0.5 1
vt 1 0
vt 0 0
vt 0.5 1
vt 1 0

g Foliage1_10_4304_66
usemtl Foliage1_10_4304_66
usemap Foliage1_10_4304_66
f 1/1/1 3/3/3 2/2/2
f 4/4/4 1/1/1 2/2/2
f 5/5/5 4/4/4 2/2/2
f 6/6/6 5/5/5 2/2/2
f 7/7/7 6/6/6 2/2/2
f 8/8/8 7/7/7 2/2/2
f 9/9/9 8/8/8 2/2/2
f 10/10/10 9/9/9 2/2/2
f 11/11/11 10/10/10 2/2/2
f 3/3/3 11/11/11 2/2/2
f 12/12/12 14/14/14 13/13/13
f 12/12/12 15/15/15 14/14/14
f 16/16/16 18/18/18 17/17/17
f 16/16/16 19/19/19 18/18/18
f 20/20/20 22/22/22 21/21/21
f 20/20/20 23/23/23 22/22/22
f 24/24/24 26/26/26 25/25/25
f 24/24/24 27/27/27 26/26/26
f 28/28/28 30/30/30 29/29/29
f 28/28/28 31/31/31 30/30/30
f 32/32/32 34/34/34 33/33/33
f 32/32/32 35/35/35 34/34/34
f 36/36/36 38/38/38 37/37/37
f 36/36/36 39/39/39 38/38/38
f 40/40/40 42/42/42 41/41/41
f 40/40/40 43/43/43 42/42/42
f 44/44/44 46/46/46 45/45/45
f 44/44/44 47/47/47 46/46/46
f 48/48/48 50/50/50 49/49/49
f 48/48/48 51/51/51 50/50/50
f 52/52/52 54/54/54 53/53/53
f 52/52/52 55/55/55 54/54/54
f 56/56/56 58/58/58 57/57/57
f 56/56/56 59/59/59 58/58/58
f 60/60/60 62/62/62 61/61/61
f 60/60/60 63/63/63 62/62/62
f 64/64/64 66/66/66 65/65/65
f 64/64/64 67/67/67 66/66/66
f 68/68/68 70/70/70 69/69/69
f 68/68/68 71/71/71 70/70/70
f 72/72/72 74/74/74 73/73/73
f 72/72/72 75/75/75 74/74/74
f 76/76/76 78/78/78 77/77/77
f 76/76/76 79/79/79 78/78/78
f 80/80/80 82/82/82 81/81/81
f 80/80/80 83/83/83 82/82/82
f 84/84/84 86/86/86 85/85/85
f 84/84/84 87/87/87 86/86/86
f 88/88/88 90/90/90 89/89/89
f 88/88/88 91/91/91 90/90/90
f 92/92/92 94/94/94 93/93/93
f 92/92/92 95/95/95 94/94/94
f 96/96/96 98/98/98 97/97/97
f 96/96/96 99/99/99 98/98/98
f 100/100/100 102/102/102 101/101/101
f 100/100/100 103/103/103 102/102/102
f 104/104/104 106/106/106 105/105/105
f 104/104/104 107/107/107 106/106/106
f 108/108/108 110/110/110 109/109/109
f 108/108/108 111/111/111 110/110/110
f 112/112/112 114/114/114 113/113/113
f 112/112/112 115/115/115 114/114/114
f 116/116/116 118/118/118 117/117/117
f 116/116/116 119/119/119 118/118/118
f 120/120/120 122/122/122 121/121/121
f 120/120/120 123/123/123 122/122/122
f 124/124/124 126/126/126 125/125/125
f 124/124/124 127/127/127 126/126/126
f 128/128/128 130/130/130 129/129/129
f 128/128/128 131/131/131 130/130/130
f 132/132/132 134/134/134 133/133/133
f 132/132/132 135/135/135 134/134/134
f 136/136/136 138/138/138 137/137/137
f 136/136/136 139/139/139 138/138/138
f 140/140/140 142/142/142 141/141/141
f 140/140/140 143/143/143 142/142/142
f 144/144/144 146/146/146 145/145/145
f 144/144/144 147/147/147 146/146/146
f 148/148/148 150/150/150 149/149/149
f 148/148/148 151/151/151 150/150/150
f 152/152/152 154/154/154 153/153/153
f 152/152/152 155/155/155 154/154/154
f 156/156/156 158/158/158 157/157/157
f 156/156/156 159/159/159 158/158/158
f 160/160/160 162/162/162 161/161/161
f 160/160/160 163/163/163 162/162/162
f 164/164/164 166/166/166 165/165/165
f 164/164/164 167/167/167 166/166/166
f 168/168/168 170/170/170 169/169/169
f 168/168/168 171/171/171 170/170/170
f 172/172/172 174/174/174 173/173/173
f 175/175/175 177/177/177 176/176/176
f 178/178/178 180/180/180 179/179/179
f 181/181/181 183/183/183 182/182/182
f 184/184/184 186/186/186 185/185/185
f 187/187/187 189/189/189 188/188/188
f 190/190/190 192/192/192 191/191/191
f 193/193/193 195/195/195 194/194/194
f 196/196/196 198/198/198 197/197/197
f 199/199/199 201/201/201 200/200/200
