#Foliage1_12_3843_287.obj

v 0.01454763 -0.02577556 -0.04035898
v 0.004625959 -0.033976 0.001090632
v 0.03878679 -0.02577558 -0.0210556
v -0.009660865 -0.02577556 -0.03817577
v -0.01824878 -0.02577555 -0.01778099
v -0.03822014 -0.02223215 0.001090761
v -0.02134899 -0.02577559 0.01996252
v -0.005295021 -0.02577561 0.03271734
v 0.02109641 -0.02577559 0.0403576
v 0.03060026 -0.02577562 0.01996254
v 0.03219173 -0.02223218 0.001090836
v 0.03878679 -0.02577558 -0.0210556
v 0.04796866 -0.01489234 -0.02772659
v 0.01805462 -0.01489232 -0.05115325
v 0.01454763 -0.02577556 -0.04035898
v 0.01454763 -0.02577556 -0.04035898
v 0.01805462 -0.01489232 -0.05115325
v -0.01316871 -0.01489229 -0.04897054
v -0.009660865 -0.02577556 -0.03817577
v -0.009660865 -0.02577556 -0.03817577
v -0.01316871 -0.01489229 -0.04897054
v -0.0274311 -0.01489228 -0.02445236
v -0.01824878 -0.02577555 -0.01778099
v -0.01824878 -0.02577555 -0.01778099
v -0.0274311 -0.01489228 -0.02445236
v -0.04796457 -0.01288811 0.001090919
v -0.03822014 -0.02223215 0.001090761
v -0.03822014 -0.02223215 0.001090761
v -0.04796457 -0.01288811 0.001090919
v -0.03053107 -0.01489234 0.02663378
v -0.02134899 -0.02577559 0.01996252
v -0.02134899 -0.02577559 0.01996252
v -0.03053107 -0.01489234 0.02663378
v -0.00880314 -0.01489235 0.04351186
v -0.005295021 -0.02577561 0.03271734
v -0.005295021 -0.02577561 0.03271734
v -0.00880314 -0.01489235 0.04351186
v 0.02460313 -0.01489229 0.05115217
v 0.02109641 -0.02577559 0.0403576
v 0.02109641 -0.02577559 0.0403576
v 0.02460313 -0.01489229 0.05115217
v 0.03978327 -0.01489228 0.0266342
v 0.03060026 -0.02577562 0.01996254
v 0.03060026 -0.02577562 0.01996254
v 0.03978327 -0.01489228 0.0266342
v 0.04193614 -0.01288817 0.001090739
v 0.03219173 -0.02223218 0.001090836
v 0.03219173 -0.02223218 0.001090836
v 0.04193614 -0.01288817 0.001090739
v 0.04796866 -0.01489234 -0.02772659
v 0.03878679 -0.02577558 -0.0210556
v 0.04796866 -0.01489234 -0.02772659
v 0.04796899 -0.0001482739 -0.02772666
v 0.01805496 -0.0001482606 -0.05115332
v 0.01805462 -0.01489232 -0.05115325
v 0.01805462 -0.01489232 -0.05115325
v 0.01805496 -0.0001482606 -0.05115332
v -0.01316838 -0.0001482291 -0.04897061
v -0.01316871 -0.01489229 -0.04897054
v -0.01316871 -0.01489229 -0.04897054
v -0.01316838 -0.0001482291 -0.04897061
v -0.02743076 -0.0001482115 -0.02445242
v -0.0274311 -0.01489228 -0.02445236
v -0.0274311 -0.01489228 -0.02445236
v -0.02743076 -0.0001482115 -0.02445242
v -0.04796442 -0.0002293142 0.001090973
v -0.04796457 -0.01288811 0.001090919
v -0.04796457 -0.01288811 0.001090919
v -0.04796442 -0.0002293142 0.001090973
v -0.03053075 -0.0001482026 0.02663417
v -0.03053107 -0.01489234 0.02663378
v -0.03053107 -0.01489234 0.02663378
v -0.03053075 -0.0001482026 0.02663417
v -0.008802805 -0.0001482821 0.04351179
v -0.00880314 -0.01489235 0.04351186
v -0.00880314 -0.01489235 0.04351186
v -0.008802805 -0.0001482821 0.04351179
v 0.02460347 -0.0001482304 0.05115211
v 0.02460313 -0.01489229 0.05115217
v 0.02460313 -0.01489229 0.05115217
v 0.02460347 -0.0001482304 0.05115211
v 0.0397827 -0.0001482469 0.02663411
v 0.03978327 -0.01489228 0.0266342
v 0.03978327 -0.01489228 0.0266342
v 0.0397827 -0.0001482469 0.02663411
v 0.04193629 -0.0002293689 0.001090792
v 0.04193614 -0.01288817 0.001090739
v 0.04193614 -0.01288817 0.001090739
v 0.04193629 -0.0002293689 0.001090792
v 0.04796899 -0.0001482739 -0.02772666
v 0.04796866 -0.01489234 -0.02772659
v 0.04796899 -0.0001482739 -0.02772666
v 0.04569079 0.01428341 -0.02539729
v 0.01714757 0.01428346 -0.04799176
v 0.01805496 -0.0001482606 -0.05115332
v 0.01805496 -0.0001482606 -0.05115332
v 0.01714757 0.01428346 -0.04799176
v -0.01182653 0.01428341 -0.04559838
v -0.01316838 -0.0001482291 -0.04897061
v -0.01316838 -0.0001482291 -0.04897061
v -0.01182653 0.01428341 -0.04559838
v -0.0232082 0.01428342 -0.02180703
v -0.02743076 -0.0001482115 -0.02445242
v -0.02743076 -0.0001482115 -0.02445242
v -0.0232082 0.01428342 -0.02180703
v -0.04530161 0.01197213 0.001196221
v -0.04796442 -0.0002293142 0.001090973
v -0.04796442 -0.0002293142 0.001090973
v -0.04530161 0.01197213 0.001196221
v -0.02660737 0.0142834 0.02419952
v -0.03053075 -0.0001482026 0.02663417
v -0.03053075 -0.0001482026 0.02663417
v -0.02660737 0.0142834 0.02419952
v -0.007039379 0.01428341 0.03961302
v -0.008802805 -0.0001482821 0.04351179
v -0.008802805 -0.0001482821 0.04351179
v -0.007039379 0.01428341 0.03961302
v 0.02432802 0.01428346 0.04799036
v 0.02460347 -0.0001482304 0.05115211
v 0.02460347 -0.0001482304 0.05115211
v 0.02432802 0.01428346 0.04799036
v 0.03671492 0.01428346 0.02419954
v 0.0397827 -0.0001482469 0.02663411
v 0.0397827 -0.0001482469 0.02663411
v 0.03671492 0.01428346 0.02419954
v 0.0386542 0.01197213 0.001196303
v 0.04193629 -0.0002293689 0.001090792
v 0.04193629 -0.0002293689 0.001090792
v 0.0386542 0.01197213 0.001196303
v 0.04569079 0.01428341 -0.02539729
v 0.04796899 -0.0001482739 -0.02772666
v 0.04569079 0.01428341 -0.02539729
v 0.03225466 0.0243745 -0.01614832
v 0.0120386 0.02437446 -0.03256949
v 0.01714757 0.01428346 -0.04799176
v 0.01714757 0.01428346 -0.04799176
v 0.0120386 0.02437446 -0.03256949
v -0.002590389 0.02437443 -0.02139428
v -0.01182653 0.01428341 -0.04559838
v -0.01182653 0.01428341 -0.04559838
v -0.002590389 0.02437443 -0.02139428
v -0.01125085 0.02437444 -0.01279611
v -0.0232082 0.01428342 -0.02180703
v -0.0232082 0.01428342 -0.02180703
v -0.01125085 0.02437444 -0.01279611
v -0.03124236 0.02074651 0.00111699
v -0.04530161 0.01197213 0.001196221
v -0.04530161 0.01197213 0.001196221
v -0.03124236 0.02074651 0.00111699
v -0.01442535 0.0243745 0.01502942
v -0.02660737 0.0142834 0.02419952
v -0.02660737 0.0142834 0.02419952
v -0.01442535 0.0243745 0.01502942
v -0.002589974 0.02437451 0.02474546
v -0.007039379 0.01428341 0.03961302
v -0.007039379 0.01428341 0.03961302
v -0.002589974 0.02437451 0.02474546
v 0.01874313 0.02437449 0.03256774
v 0.02432802 0.01428346 0.04799036
v 0.02432802 0.01428346 0.04799036
v 0.01874313 0.02437449 0.03256774
v 0.02387334 0.02437449 0.01502955
v 0.03671492 0.01428346 0.02419954
v 0.03671492 0.01428346 0.02419954
v 0.02387334 0.02437449 0.01502955
v 0.02504594 0.02074656 0.001116953
v 0.0386542 0.01197213 0.001196303
v 0.0386542 0.01197213 0.001196303
v 0.02504594 0.02074656 0.001116953
v 0.03225466 0.0243745 -0.01614832
v 0.04569079 0.01428341 -0.02539729
v 0.03225466 0.0243745 -0.01614832
v 0.004626335 0.03397611 0.001090883
v 0.0120386 0.02437446 -0.03256949
v 0.0120386 0.02437446 -0.03256949
v 0.004626335 0.03397611 0.001090883
v -0.002590389 0.02437443 -0.02139428
v -0.002590389 0.02437443 -0.02139428
v 0.004626335 0.03397611 0.001090883
v -0.01125085 0.02437444 -0.01279611
v -0.01125085 0.02437444 -0.01279611
v 0.004626335 0.03397611 0.001090883
v -0.03124236 0.02074651 0.00111699
v -0.03124236 0.02074651 0.00111699
v 0.004626335 0.03397611 0.001090883
v -0.01442535 0.0243745 0.01502942
v -0.01442535 0.0243745 0.01502942
v 0.004626335 0.03397611 0.001090883
v -0.002589974 0.02437451 0.02474546
v -0.002589974 0.02437451 0.02474546
v 0.004626335 0.03397611 0.001090883
v 0.01874313 0.02437449 0.03256774
v 0.01874313 0.02437449 0.03256774
v 0.004626335 0.03397611 0.001090883
v 0.02387334 0.02437449 0.01502955
v 0.02387334 0.02437449 0.01502955
v 0.004626335 0.03397611 0.001090883
v 0.02504594 0.02074656 0.001116953
v 0.02504594 0.02074656 0.001116953
v 0.004626335 0.03397611 0.001090883
v 0.03225466 0.0243745 -0.01614832

vn 0.02225704 -0.9860093 -0.1651974
vn -0.04203765 -0.9978402 0.0504751
vn 0.1907039 -0.9814037 -0.02187938
vn -0.1474331 -0.977001 -0.1540533
vn -0.3475614 -0.9354417 -0.06442001
vn -0.3505826 -0.9358941 0.03455507
vn -0.3016315 -0.9356989 0.1829918
vn -0.1516984 -0.9391199 0.3082876
vn 0.03175104 -0.9651671 0.2597005
vn 0.2918101 -0.953896 0.07020923
vn 0.4139872 -0.8980485 0.1487403
vn 0.4357207 -0.6819527 -0.5874419
vn 0.4357206 -0.6819527 -0.5874419
vn 0.4357207 -0.6819528 -0.5874419
vn 0.4357206 -0.6819527 -0.5874419
vn -0.1092068 -0.6673302 -0.7367118
vn -0.1092068 -0.6673303 -0.7367118
vn -0.1092068 -0.6673302 -0.7367118
vn -0.1092068 -0.6673301 -0.7367118
vn -0.7485502 -0.5834587 -0.3150373
vn -0.7485502 -0.5834587 -0.3150373
vn -0.7485502 -0.5834587 -0.3150373
vn -0.7485502 -0.5834587 -0.3150373
vn -0.6610414 -0.6165228 -0.4276959
vn -0.6610414 -0.6165228 -0.4276959
vn -0.6610414 -0.6165228 -0.4276959
vn -0.6610414 -0.6165228 -0.4276958
vn -0.6666989 -0.5890688 0.4566295
vn -0.6666989 -0.5890688 0.4566295
vn -0.666699 -0.5890688 0.4566295
vn -0.6666989 -0.5890688 0.4566295
vn -0.4814516 -0.5970578 0.6416591
vn -0.4814517 -0.5970578 0.6416591
vn -0.4814516 -0.5970578 0.641659
vn -0.4814516 -0.5970578 0.641659
vn -0.1987102 -0.5898721 0.7826654
vn -0.1987102 -0.5898721 0.7826654
vn -0.1987102 -0.5898721 0.7826654
vn -0.1987102 -0.5898721 0.7826654
vn 0.6838164 -0.6114511 0.3981489
vn 0.6838164 -0.6114512 0.398149
vn 0.6838164 -0.6114512 0.398149
vn 0.6838165 -0.6114511 0.3981489
vn 0.7656131 -0.6431686 -0.01306371
vn 0.7656131 -0.6431686 -0.01306371
vn 0.7656131 -0.6431686 -0.01306371
vn 0.7656131 -0.6431686 -0.01306371
vn 0.7767425 -0.5659799 0.2762931
vn 0.7767426 -0.5659798 0.2762931
vn 0.7767425 -0.5659799 0.2762931
vn 0.7767425 -0.56598 0.2762931
vn 0.5956426 -0.04726543 -0.8018577
vn 0.5956427 -0.04726543 -0.8018577
vn 0.5956427 -0.04726543 -0.8018577
vn 0.5956426 -0.04726543 -0.8018577
vn -0.09574485 -0.03262045 -0.9948713
vn -0.09574485 -0.03262045 -0.9948713
vn -0.09574485 -0.03262045 -0.9948713
vn -0.09574485 -0.03262045 -0.9948713
vn -0.8766519 0.01011291 -0.4810188
vn -0.8766519 0.01011291 -0.4810188
vn -0.8766519 0.01011291 -0.4810188
vn -0.8766519 0.01011291 -0.4810188
vn -0.7949543 0.003069562 -0.6066616
vn -0.7949544 0.003069564 -0.6066615
vn -0.7949543 0.003069562 -0.6066616
vn -0.7949543 0.003069562 -0.6066616
vn -0.8107463 0.04615883 0.5835751
vn -0.8107463 0.04615883 0.5835751
vn -0.8107462 0.04615883 0.5835752
vn -0.8107463 0.04615883 0.5835751
vn -0.5924637 0.04725053 0.8042102
vn -0.5924637 0.04725053 0.8042102
vn -0.5924637 0.04725053 0.8042102
vn -0.5924637 0.04725053 0.8042102
vn -0.1973296 0.04120533 0.9794708
vn -0.1973296 0.04120533 0.9794708
vn -0.1973296 0.04120533 0.9794708
vn -0.1973296 0.04120533 0.9794708
vn 0.8631267 -0.008836249 0.5049102
vn 0.8631267 -0.008836249 0.5049102
vn 0.8631267 -0.008836249 0.5049102
vn 0.8631267 -0.008836249 0.5049102
vn 0.9978099 -0.02897673 0.05946216
vn 0.9978099 -0.02897673 0.05946217
vn 0.9978099 -0.02897673 0.05946216
vn 0.9978099 -0.02897673 0.05946217
vn 0.9832488 -0.02418543 0.1806565
vn 0.9832488 -0.02418543 0.1806565
vn 0.9832488 -0.02418543 0.1806565
vn 0.9832488 -0.02418543 0.1806565
vn 0.5937766 0.1328643 -0.7935845
vn 0.5937766 0.1328643 -0.7935845
vn 0.5937766 0.1328643 -0.7935845
vn 0.5937766 0.1328643 -0.7935845
vn -0.09150836 0.1548286 -0.9836942
vn -0.09150837 0.1548286 -0.9836942
vn -0.09150837 0.1548286 -0.9836942
vn -0.09150837 0.1548286 -0.9836942
vn -0.8639646 0.2312977 -0.447288
vn -0.8639646 0.2312977 -0.447288
vn -0.8639646 0.2312977 -0.4472881
vn -0.8639646 0.2312977 -0.447288
vn -0.7463516 0.2172185 -0.6291068
vn -0.7463516 0.2172185 -0.6291069
vn -0.7463516 0.2172185 -0.6291068
vn -0.7463516 0.2172185 -0.6291068
vn -0.7690077 0.2529316 0.5870714
vn -0.7690077 0.2529316 0.5870713
vn -0.7690077 0.2529316 0.5870713
vn -0.7690077 0.2529315 0.5870714
vn -0.5696446 0.2869856 0.7701586
vn -0.5696446 0.2869856 0.7701586
vn -0.5696446 0.2869856 0.7701586
vn -0.5696446 0.2869856 0.7701586
vn -0.2015906 0.2468372 0.9478568
vn -0.2015906 0.2468372 0.9478568
vn -0.2015906 0.2468372 0.9478568
vn -0.2015906 0.2468372 0.9478568
vn 0.8753769 0.1524055 0.4587896
vn 0.8753769 0.1524055 0.4587896
vn 0.8753769 0.1524056 0.4587896
vn 0.8753769 0.1524056 0.4587896
vn 0.9845184 0.1714867 0.03627469
vn 0.9845184 0.1714867 0.03627469
vn 0.9845184 0.1714867 0.03627468
vn 0.9845184 0.1714867 0.03627469
vn 0.9709297 0.1275668 0.2025395
vn 0.9709297 0.1275668 0.2025395
vn 0.9709297 0.1275668 0.2025395
vn 0.9709297 0.1275668 0.2025395
vn 0.4016772 0.7515818 -0.5232401
vn 0.4016772 0.7515818 -0.5232401
vn 0.4016772 0.7515818 -0.5232401
vn 0.4016772 0.7515818 -0.5232401
vn -0.1303273 0.8340588 -0.5360605
vn -0.1303273 0.8340588 -0.5360605
vn -0.1303273 0.8340588 -0.5360605
vn -0.1303272 0.8340588 -0.5360605
vn -0.4476919 0.8330173 -0.3250448
vn -0.4476919 0.8330173 -0.3250448
vn -0.4476919 0.8330173 -0.3250448
vn -0.4476919 0.8330173 -0.3250448
vn -0.4791616 0.7516956 -0.4531642
vn -0.4791616 0.7516956 -0.4531642
vn -0.4791616 0.7516956 -0.4531642
vn -0.4791616 0.7516956 -0.4531642
vn -0.4896748 0.8033999 0.3387733
vn -0.4896747 0.8033999 0.3387733
vn -0.4896748 0.8033998 0.3387733
vn -0.4896748 0.8033999 0.3387733
vn -0.3531264 0.8084487 0.4708633
vn -0.3531264 0.8084488 0.4708634
vn -0.3531264 0.8084488 0.4708635
vn -0.3531264 0.8084488 0.4708634
vn -0.1400577 0.7992191 0.5844935
vn -0.1400577 0.7992191 0.5844935
vn -0.1400577 0.7992191 0.5844935
vn -0.1400577 0.7992191 0.5844935
vn 0.6539334 0.7274122 0.2079487
vn 0.6539335 0.7274122 0.2079487
vn 0.6539334 0.7274121 0.2079488
vn 0.6539335 0.7274122 0.2079487
vn 0.6865934 0.7135532 -0.139396
vn 0.6865932 0.7135534 -0.1393961
vn 0.6865933 0.7135533 -0.139396
vn 0.6865934 0.7135532 -0.139396
vn 0.7019856 0.6577358 0.2731298
vn 0.7019855 0.6577358 0.2731298
vn 0.7019856 0.6577358 0.2731298
vn 0.7019856 0.6577358 0.2731298
vn 0.2515296 0.9133596 -0.3201675
vn 0.2515296 0.9133596 -0.3201675
vn 0.2515296 0.9133596 -0.3201675
vn -0.2467933 0.8826914 -0.3999361
vn -0.2467933 0.8826914 -0.3999362
vn -0.2467933 0.8826914 -0.3999361
vn -0.3056622 0.8755932 -0.3740417
vn -0.3056622 0.8755932 -0.3740417
vn -0.3056622 0.8755932 -0.3740417
vn -0.3541187 0.880034 -0.3164494
vn -0.3541188 0.8800339 -0.3164494
vn -0.3541188 0.8800339 -0.3164494
vn -0.3510713 0.922117 0.1626319
vn -0.3510712 0.922117 0.1626319
vn -0.3510713 0.922117 0.1626319
vn -0.2366527 0.9211275 0.3090624
vn -0.2366527 0.9211276 0.3090624
vn -0.2366527 0.9211276 0.3090624
vn -0.09472593 0.9305702 0.3536468
vn -0.09472595 0.9305702 0.3536467
vn -0.09472593 0.9305702 0.3536467
vn 0.4764417 0.8763015 0.07140712
vn 0.4764418 0.8763015 0.07140712
vn 0.4764418 0.8763014 0.07140713
vn 0.6227459 0.7439427 -0.2423566
vn 0.6227459 0.7439428 -0.2423566
vn 0.6227459 0.7439429 -0.2423566
vn 0.5969737 0.7162724 0.3613535
vn 0.5969737 0.7162724 0.3613535
vn 0.5969737 0.7162724 0.3613535

vt 0.5482839 0.007647395
vt 0.5 0.15
vt 0.6264089 0.06440853
vt 0.4517161 0.00764741
vt 0.3735911 0.06440856
vt 0.34375 0.15625
vt 0.3735911 0.2480915
vt 0.4517161 0.3048526
vt 0.5482839 0.3048526
vt 0.6264089 0.2480914
vt 0.65625 0.15625
vt 0 0
vt 0 1
vt 1 1
vt 1 0
vt 0 0
vt 0 1
vt 1 1
vt 1 0
vt 0 0
vt 0 1
vt 1 1
vt 1 0
vt 0 0
vt 0 1
vt 1 1
vt 1 0
vt 0 0
vt 0 1
vt 1 1
vt 1 0
vt 0 0
vt 0 1
vt 1 1
vt 1 0
vt 0 0
vt 0 1
vt 1 1
vt 1 0
vt 0 0
vt 0 1
vt 1 1
vt 1 0
vt 0 0
vt 0 1
vt 1 1
vt 1 0
vt 0 0
vt 0 1
vt 1 1
vt 1 0
vt 0 0
vt 0 1
vt 1 1
vt 1 0
vt 0 0
vt 0 1
vt 1 1
vt 1 0
vt 0 0
vt 0 1
vt 1 1
vt 1 0
vt 0 0
vt 0 1
vt 1 1
vt 1 0
vt 0 0
vt 0 1
vt 1 1
vt 1 0
vt 0 0
vt 0 1
vt 1 1
vt 1 0
vt 0 0
vt 0 1
vt 1 1
vt 1 0
vt 0 0
vt 0 1
vt 1 1
vt 1 0
vt 0 0
vt 0 1
vt 1 1
vt 1 0
vt 0 0
vt 0 1
vt 1 1
vt 1 0
vt 0 0
vt 0 1
vt 1 1
vt 1 0
vt 0 0
vt 0 1
vt 1 1
vt 1 0
vt 0 0
vt 0 1
vt 1 1
vt 1 0
vt 0 0
vt 0 1
vt 1 1
vt 1 0
vt 0 0
vt 0 1
vt 1 1
vt 1 0
vt 0 0
vt 0 1
vt 1 1
vt 1 0
vt 0 0
vt 0 1
vt 1 1
vt 1 0
vt 0 0
vt 0 1
vt 1 1
vt 1 0
vt 0 0
vt 0 1
vt 1 1
vt 1 0
vt 0 0
vt 0 1
vt 1 1
vt 1 0
vt 0 0
vt 0 1
vt 1 1
vt 1 0
vt 0 0
vt 0 1
vt 1 1
vt 1 0
vt 0 0
vt 0 1
vt 1 1
vt 1 0
vt 0 0
vt 0 1
vt 1 1
vt 1 0
vt 0 0
vt 0 1
vt 1 1
vt 1 0
vt 0 0
vt 0 1
vt 1 1
vt 1 0
vt 0 0
vt 0 1
vt 1 1
vt 1 0
vt 0 0
vt 0 1
vt 1 1
vt 1 0
vt 0 0
vt 0 1
vt 1 1
vt 1 0
vt 0 0
vt 0 1
vt 1 1
vt 1 0
vt 0 0
vt 0.5 1
vt 1 0
vt 0 0
vt 0.5 1
vt 1 0
vt 0 0
vt 0.5 1
vt 1 0
vt 0 0
vt 0.5 1
vt 1 0
vt 0 0
vt 0.5 1
vt 1 0
vt 0 0
vt 0.5 1
vt 1 0
vt 0 0
vt 0.5 1
vt 1 0
vt 0 0
vt 0.5 1
vt 1 0
vt 0 0
vt 0.5 1
vt 1 0
vt 0 0
vt 0.5 1
vt 1 0

g Foliage1_12_3843_287
usemtl Foliage1_12_3843_287
usemap Foliage1_12_3843_287
f 1/1/1 3/3/3 2/2/2
f 4/4/4 1/1/1 2/2/2
f 5/5/5 4/4/4 2/2/2
f 6/6/6 5/5/5 2/2/2
f 7/7/7 6/6/6 2/2/2
f 8/8/8 7/7/7 2/2/2
f 9/9/9 8/8/8 2/2/2
f 10/10/10 9/9/9 2/2/2
f 11/11/11 10/10/10 2/2/2
f 3/3/3 11/11/11 2/2/2
f 12/12/12 14/14/14 13/13/13
f 12/12/12 15/15/15 14/14/14
f 16/16/16 18/18/18 17/17/17
f 16/16/16 19/19/19 18/18/18
f 20/20/20 22/22/22 21/21/21
f 20/20/20 23/23/23 22/22/22
f 24/24/24 26/26/26 25/25/25
f 24/24/24 27/27/27 26/26/26
f 28/28/28 30/30/30 29/29/29
f 28/28/28 31/31/31 30/30/30
f 32/32/32 34/34/34 33/33/33
f 32/32/32 35/35/35 34/34/34
f 36/36/36 38/38/38 37/37/37
f 36/36/36 39/39/39 38/38/38
f 40/40/40 42/42/42 41/41/41
f 40/40/40 43/43/43 42/42/42
f 44/44/44 46/46/46 45/45/45
f 44/44/44 47/47/47 46/46/46
f 48/48/48 50/50/50 49/49/49
f 48/48/48 51/51/51 50/50/50
f 52/52/52 54/54/54 53/53/53
f 52/52/52 55/55/55 54/54/54
f 56/56/56 58/58/58 57/57/57
f 56/56/56 59/59/59 58/58/58
f 60/60/60 62/62/62 61/61/61
f 60/60/60 63/63/63 62/62/62
f 64/64/64 66/66/66 65/65/65
f 64/64/64 67/67/67 66/66/66
f 68/68/68 70/70/70 69/69/69
f 68/68/68 71/71/71 70/70/70
f 72/72/72 74/74/74 73/73/73
f 72/72/72 75/75/75 74/74/74
f 76/76/76 78/78/78 77/77/77
f 76/76/76 79/79/79 78/78/78
f 80/80/80 82/82/82 81/81/81
f 80/80/80 83/83/83 82/82/82
f 84/84/84 86/86/86 85/85/85
f 84/84/84 87/87/87 86/86/86
f 88/88/88 90/90/90 89/89/89
f 88/88/88 91/91/91 90/90/90
f 92/92/92 94/94/94 93/93/93
f 92/92/92 95/95/95 94/94/94
f 96/96/96 98/98/98 97/97/97
f 96/96/96 99/99/99 98/98/98
f 100/100/100 102/102/102 101/101/101
f 100/100/100 103/103/103 102/102/102
f 104/104/104 106/106/106 105/105/105
f 104/104/104 107/107/107 106/106/106
f 108/108/108 110/110/110 109/109/109
f 108/108/108 111/111/111 110/110/110
f 112/112/112 114/114/114 113/113/113
f 112/112/112 115/115/115 114/114/114
f 116/116/116 118/118/118 117/117/117
f 116/116/116 119/119/119 118/118/118
f 120/120/120 122/122/122 121/121/121
f 120/120/120 123/123/123 122/122/122
f 124/124/124 126/126/126 125/125/125
f 124/124/124 127/127/127 126/126/126
f 128/128/128 130/130/130 129/129/129
f 128/128/128 131/131/131 130/130/130
f 132/132/132 134/134/134 133/133/133
f 132/132/132 135/135/135 134/134/134
f 136/136/136 138/138/138 137/137/137
f 136/136/136 139/139/139 138/138/138
f 140/140/140 142/142/142 141/141/141
f 140/140/140 143/143/143 142/142/142
f 144/144/144 146/146/146 145/145/145
f 144/144/144 147/147/147 146/146/146
f 148/148/148 150/150/150 149/149/149
f 148/148/148 151/151/151 150/150/150
f 152/152/152 154/154/154 153/153/153
f 152/152/152 155/155/155 154/154/154
f 156/156/156 158/158/158 157/157/157
f 156/156/156 159/159/159 158/158/158
f 160/160/160 162/162/162 161/161/161
f 160/160/160 163/163/163 162/162/162
f 164/164/164 166/166/166 165/165/165
f 164/164/164 167/167/167 166/166/166
f 168/168/168 170/170/170 169/169/169
f 168/168/168 171/171/171 170/170/170
f 172/172/172 174/174/174 173/173/173
f 175/175/175 177/177/177 176/176/176
f 178/178/178 180/180/180 179/179/179
f 181/181/181 183/183/183 182/182/182
f 184/184/184 186/186/186 185/185/185
f 187/187/187 189/189/189 188/188/188
f 190/190/190 192/192/192 191/191/191
f 193/193/193 195/195/195 194/194/194
f 196/196/196 198/198/198 197/197/197
f 199/199/199 201/201/201 200/200/200
