#Foliage_43_3686_279.obj

v 0.01454581 -0.02577557 -0.04035906
v 0.004624364 -0.03397604 0.001090753
v 0.03878498 -0.0257756 -0.02105554
v -0.009662955 -0.02577559 -0.0381761
v -0.0182502 -0.02577561 -0.01778116
v -0.03822173 -0.02223216 0.001090725
v -0.02135037 -0.02577561 0.01996254
v -0.00529709 -0.0257756 0.03271719
v 0.02109452 -0.02577558 0.0403575
v 0.03059909 -0.02577558 0.01996252
v 0.03219002 -0.02223215 0.001090546
v 0.03878498 -0.0257756 -0.02105554
v 0.04796745 -0.01489234 -0.02772695
v 0.0180531 -0.01489235 -0.05115337
v 0.01454581 -0.02577557 -0.04035906
v 0.01454581 -0.02577557 -0.04035906
v 0.0180531 -0.01489235 -0.05115337
v -0.01317026 -0.01489235 -0.04897055
v -0.009662955 -0.02577559 -0.0381761
v -0.009662955 -0.02577559 -0.0381761
v -0.01317026 -0.01489235 -0.04897055
v -0.02743262 -0.01489234 -0.02445261
v -0.0182502 -0.02577561 -0.01778116
v -0.0182502 -0.02577561 -0.01778116
v -0.02743262 -0.01489234 -0.02445261
v -0.04796654 -0.01288815 0.001090752
v -0.03822173 -0.02223216 0.001090725
v -0.03822173 -0.02223216 0.001090725
v -0.04796654 -0.01288815 0.001090752
v -0.03053267 -0.01489233 0.02663377
v -0.02135037 -0.02577561 0.01996254
v -0.02135037 -0.02577561 0.01996254
v -0.03053267 -0.01489233 0.02663377
v -0.00880439 -0.01489234 0.04351171
v -0.00529709 -0.0257756 0.03271719
v -0.00529709 -0.0257756 0.03271719
v -0.00880439 -0.01489234 0.04351171
v 0.02460173 -0.01489234 0.0511521
v 0.02109452 -0.02577558 0.0403575
v 0.02109452 -0.02577558 0.0403575
v 0.02460173 -0.01489234 0.0511521
v 0.03978133 -0.01489235 0.02663404
v 0.03059909 -0.02577558 0.01996252
v 0.03059909 -0.02577558 0.01996252
v 0.03978133 -0.01489235 0.02663404
v 0.04193465 -0.01288816 0.001090833
v 0.03219002 -0.02223215 0.001090546
v 0.03219002 -0.02223215 0.001090546
v 0.04193465 -0.01288816 0.001090833
v 0.04796745 -0.01489234 -0.02772695
v 0.03878498 -0.0257756 -0.02105554
v 0.04796745 -0.01489234 -0.02772695
v 0.04796727 -0.0001482459 -0.02772679
v 0.01805317 -0.000148242 -0.05115351
v 0.0180531 -0.01489235 -0.05115337
v 0.0180531 -0.01489235 -0.05115337
v 0.01805317 -0.000148242 -0.05115351
v -0.01317018 -0.0001482416 -0.0489707
v -0.01317026 -0.01489235 -0.04897055
v -0.01317026 -0.01489235 -0.04897055
v -0.01317018 -0.0001482416 -0.0489707
v -0.02743272 -0.0001482553 -0.02445238
v -0.02743262 -0.01489234 -0.02445261
v -0.02743262 -0.01489234 -0.02445261
v -0.02743272 -0.0001482553 -0.02445238
v -0.04796643 -0.0002293584 0.001090697
v -0.04796654 -0.01288815 0.001090752
v -0.04796654 -0.01288815 0.001090752
v -0.04796643 -0.0002293584 0.001090697
v -0.03053285 -0.000148281 0.02663393
v -0.03053267 -0.01489233 0.02663377
v -0.03053267 -0.01489233 0.02663377
v -0.03053285 -0.000148281 0.02663393
v -0.008804565 -0.0001482844 0.04351187
v -0.00880439 -0.01489234 0.04351171
v -0.00880439 -0.01489234 0.04351171
v -0.008804565 -0.0001482844 0.04351187
v 0.02460188 -0.0001482765 0.05115202
v 0.02460173 -0.01489234 0.0511521
v 0.02460173 -0.01489234 0.0511521
v 0.02460188 -0.0001482765 0.05115202
v 0.03978141 -0.0001482462 0.0266339
v 0.03978133 -0.01489235 0.02663404
v 0.03978133 -0.01489235 0.02663404
v 0.03978141 -0.0001482462 0.0266339
v 0.04193469 -0.0002293584 0.001090707
v 0.04193465 -0.01288816 0.001090833
v 0.04193465 -0.01288816 0.001090833
v 0.04193469 -0.0002293584 0.001090707
v 0.04796727 -0.0001482459 -0.02772679
v 0.04796745 -0.01489234 -0.02772695
v 0.04796727 -0.0001482459 -0.02772679
v 0.04568946 0.01428344 -0.02539769
v 0.01714555 0.01428344 -0.04799205
v 0.01805317 -0.000148242 -0.05115351
v 0.01805317 -0.000148242 -0.05115351
v 0.01714555 0.01428344 -0.04799205
v -0.01182861 0.01428344 -0.04559847
v -0.01317018 -0.0001482416 -0.0489707
v -0.01317018 -0.0001482416 -0.0489707
v -0.01182861 0.01428344 -0.04559847
v -0.02320981 0.01428343 -0.02180709
v -0.02743272 -0.0001482553 -0.02445238
v -0.02743272 -0.0001482553 -0.02445238
v -0.02320981 0.01428343 -0.02180709
v -0.04530366 0.01197212 0.00119619
v -0.04796643 -0.0002293584 0.001090697
v -0.04796643 -0.0002293584 0.001090697
v -0.04530366 0.01197212 0.00119619
v -0.02660913 0.01428342 0.02419919
v -0.03053285 -0.000148281 0.02663393
v -0.03053285 -0.000148281 0.02663393
v -0.02660913 0.01428342 0.02419919
v -0.007041478 0.01428341 0.03961283
v -0.008804565 -0.0001482844 0.04351187
v -0.008804565 -0.0001482844 0.04351187
v -0.007041478 0.01428341 0.03961283
v 0.02432649 0.01428342 0.04799037
v 0.02460188 -0.0001482765 0.05115202
v 0.02460188 -0.0001482765 0.05115202
v 0.02432649 0.01428342 0.04799037
v 0.03671319 0.01428342 0.02419938
v 0.03978141 -0.0001482462 0.0266339
v 0.03978141 -0.0001482462 0.0266339
v 0.03671319 0.01428342 0.02419938
v 0.03865235 0.01197216 0.001196138
v 0.04193469 -0.0002293584 0.001090707
v 0.04193469 -0.0002293584 0.001090707
v 0.03865235 0.01197216 0.001196138
v 0.04568946 0.01428344 -0.02539769
v 0.04796727 -0.0001482459 -0.02772679
v 0.04568946 0.01428344 -0.02539769
v 0.03225297 0.02437446 -0.01614856
v 0.0120369 0.02437447 -0.03256941
v 0.01714555 0.01428344 -0.04799205
v 0.01714555 0.01428344 -0.04799205
v 0.0120369 0.02437447 -0.03256941
v -0.00259189 0.02437446 -0.02139443
v -0.01182861 0.01428344 -0.04559847
v -0.01182861 0.01428344 -0.04559847
v -0.00259189 0.02437446 -0.02139443
v -0.01125256 0.02437447 -0.01279612
v -0.02320981 0.01428343 -0.02180709
v -0.02320981 0.01428343 -0.02180709
v -0.01125256 0.02437447 -0.01279612
v -0.03124428 0.02074654 0.0011168
v -0.04530366 0.01197212 0.00119619
v -0.04530366 0.01197212 0.00119619
v -0.03124428 0.02074654 0.0011168
v -0.01442659 0.02437445 0.01502932
v -0.02660913 0.01428342 0.02419919
v -0.02660913 0.01428342 0.02419919
v -0.01442659 0.02437445 0.01502932
v -0.002591743 0.02437445 0.0247454
v -0.007041478 0.01428341 0.03961283
v -0.007041478 0.01428341 0.03961283
v -0.002591743 0.02437445 0.0247454
v 0.0187419 0.02437445 0.03256781
v 0.02432649 0.01428342 0.04799037
v 0.02432649 0.01428342 0.04799037
v 0.0187419 0.02437445 0.03256781
v 0.02387188 0.02437444 0.01502943
v 0.03671319 0.01428342 0.02419938
v 0.03671319 0.01428342 0.02419938
v 0.02387188 0.02437444 0.01502943
v 0.0250446 0.02074651 0.001116711
v 0.03865235 0.01197216 0.001196138
v 0.03865235 0.01197216 0.001196138
v 0.0250446 0.02074651 0.001116711
v 0.03225297 0.02437446 -0.01614856
v 0.04568946 0.01428344 -0.02539769
v 0.03225297 0.02437446 -0.01614856
v 0.004624351 0.03397612 0.001090707
v 0.0120369 0.02437447 -0.03256941
v 0.0120369 0.02437447 -0.03256941
v 0.004624351 0.03397612 0.001090707
v -0.00259189 0.02437446 -0.02139443
v -0.00259189 0.02437446 -0.02139443
v 0.004624351 0.03397612 0.001090707
v -0.01125256 0.02437447 -0.01279612
v -0.01125256 0.02437447 -0.01279612
v 0.004624351 0.03397612 0.001090707
v -0.03124428 0.02074654 0.0011168
v -0.03124428 0.02074654 0.0011168
v 0.004624351 0.03397612 0.001090707
v -0.01442659 0.02437445 0.01502932
v -0.01442659 0.02437445 0.01502932
v 0.004624351 0.03397612 0.001090707
v -0.002591743 0.02437445 0.0247454
v -0.002591743 0.02437445 0.0247454
v 0.004624351 0.03397612 0.001090707
v 0.0187419 0.02437445 0.03256781
v 0.0187419 0.02437445 0.03256781
v 0.004624351 0.03397612 0.001090707
v 0.02387188 0.02437444 0.01502943
v 0.02387188 0.02437444 0.01502943
v 0.004624351 0.03397612 0.001090707
v 0.0250446 0.02074651 0.001116711
v 0.0250446 0.02074651 0.001116711
v 0.004624351 0.03397612 0.001090707
v 0.03225297 0.02437446 -0.01614856

vn -0.03898345 -0.9841628 -0.1729272
vn 0.06330809 -0.9972706 0.03799265
vn 0.2011367 -0.9659032 -0.1630184
vn -0.1714738 -0.9834629 -0.05828883
vn -0.2751465 -0.9513104 0.1389348
vn -0.2070634 -0.9532486 0.220095
vn -0.05975584 -0.9495289 0.3079351
vn 0.1535238 -0.9377218 0.3116219
vn 0.2694038 -0.950038 0.157637
vn 0.3453462 -0.926255 -0.1509556
vn 0.4915378 -0.8558165 -0.1611479
vn -0.0195181 -0.6608264 -0.7502849
vn -0.01951814 -0.6608265 -0.7502849
vn -0.01951806 -0.6608265 -0.7502849
vn -0.01951814 -0.6608265 -0.7502849
vn -0.5549614 -0.6525379 -0.5159575
vn -0.5549614 -0.6525379 -0.5159575
vn -0.5549615 -0.6525379 -0.5159575
vn -0.5549614 -0.6525379 -0.5159575
vn -0.7786249 -0.5972847 0.1923387
vn -0.778625 -0.5972847 0.1923387
vn -0.7786249 -0.5972847 0.1923387
vn -0.778625 -0.5972847 0.1923387
vn -0.7805516 -0.6229121 0.05215155
vn -0.7805516 -0.622912 0.05215162
vn -0.7805516 -0.622912 0.05215158
vn -0.7805516 -0.6229121 0.05215166
vn -0.186675 -0.616327 0.7650447
vn -0.186675 -0.616327 0.7650447
vn -0.1866751 -0.616327 0.7650448
vn -0.186675 -0.616327 0.7650448
vn 0.09948113 -0.6075861 0.787999
vn 0.09948105 -0.6075861 0.7879991
vn 0.09948106 -0.6075862 0.787999
vn 0.0994811 -0.6075862 0.787999
vn 0.4198111 -0.5710885 0.7054194
vn 0.4198111 -0.5710885 0.7054194
vn 0.4198111 -0.5710885 0.7054195
vn 0.4198111 -0.5710885 0.7054194
vn 0.8326697 -0.5408235 -0.1190422
vn 0.8326697 -0.5408236 -0.1190421
vn 0.8326697 -0.5408236 -0.1190421
vn 0.8326697 -0.5408235 -0.1190422
vn 0.6417068 -0.5898488 -0.4901947
vn 0.6417068 -0.5898488 -0.4901947
vn 0.6417068 -0.5898488 -0.4901947
vn 0.6417068 -0.5898488 -0.4901947
vn 0.8253378 -0.4987041 -0.2647861
vn 0.8253378 -0.4987041 -0.2647862
vn 0.8253378 -0.4987041 -0.2647861
vn 0.8253378 -0.4987041 -0.2647862
vn -0.07984573 -0.02810483 -0.996411
vn -0.07984568 -0.02810483 -0.996411
vn -0.07984568 -0.02810483 -0.996411
vn -0.07984573 -0.02810483 -0.996411
vn -0.7329703 -0.0431502 -0.6788907
vn -0.7329703 -0.0431502 -0.6788907
vn -0.7329703 -0.0431502 -0.6788907
vn -0.7329703 -0.0431502 -0.6788907
vn -0.9879385 -0.03109528 0.1516922
vn -0.9879385 -0.03109528 0.1516922
vn -0.9879385 -0.03109528 0.1516922
vn -0.9879385 -0.03109528 0.1516922
vn -0.9993138 -0.03504185 0.0120002
vn -0.9993138 -0.03504185 0.01200023
vn -0.9993138 -0.03504185 0.0120002
vn -0.9993138 -0.03504185 0.0120002
vn -0.2522317 0.01562657 0.9675407
vn -0.2522317 0.01562657 0.9675407
vn -0.2522317 0.01562657 0.9675407
vn -0.2522317 0.01562657 0.9675407
vn 0.08407767 0.02824558 0.9960588
vn 0.08407767 0.02824558 0.9960588
vn 0.08407767 0.02824558 0.9960588
vn 0.08407767 0.02824558 0.9960588
vn 0.5109645 0.03985921 0.8586773
vn 0.5109645 0.03985921 0.8586773
vn 0.5109645 0.03985921 0.8586773
vn 0.5109645 0.03985921 0.8586773
vn 0.9915092 0.03187165 -0.12607
vn 0.9915092 0.03187165 -0.12607
vn 0.9915092 0.03187165 -0.12607
vn 0.9915092 0.03187165 -0.12607
vn 0.8332903 0.01545306 -0.5526198
vn 0.8332903 0.01545306 -0.5526198
vn 0.8332903 0.01545306 -0.5526198
vn 0.8332903 0.01545306 -0.5526198
vn 0.894745 0.02032897 -0.4461145
vn 0.894745 0.02032897 -0.4461145
vn 0.894745 0.02032897 -0.4461145
vn 0.894745 0.02032897 -0.4461145
vn -0.08662778 0.1495884 -0.9849462
vn -0.08662783 0.1495884 -0.9849462
vn -0.08662783 0.1495884 -0.9849462
vn -0.08662783 0.1495884 -0.9849462
vn -0.7327264 0.1306684 -0.6678606
vn -0.7327264 0.1306684 -0.6678606
vn -0.7327264 0.1306684 -0.6678606
vn -0.7327264 0.1306684 -0.6678606
vn -0.9690503 0.1740558 0.1750598
vn -0.9690504 0.1740558 0.1750598
vn -0.9690505 0.1740558 0.1750597
vn -0.9690503 0.1740557 0.1750598
vn -0.9864095 0.162164 -0.02643763
vn -0.9864095 0.162164 -0.02643766
vn -0.9864095 0.162164 -0.02643763
vn -0.9864095 0.162164 -0.02643759
vn -0.2276219 0.222892 0.9478964
vn -0.2276219 0.222892 0.9478963
vn -0.2276219 0.222892 0.9478963
vn -0.2276219 0.222892 0.9478964
vn 0.06390318 0.2651294 0.9620929
vn 0.06390311 0.2651294 0.9620929
vn 0.06390315 0.2651294 0.9620929
vn 0.06390315 0.2651294 0.9620929
vn 0.4762983 0.2359134 0.8470447
vn 0.4762983 0.2359134 0.8470447
vn 0.4762983 0.2359134 0.8470447
vn 0.4762983 0.2359134 0.8470447
vn 0.9694747 0.1821413 -0.1641445
vn 0.9694747 0.1821413 -0.1641445
vn 0.9694747 0.1821413 -0.1641445
vn 0.9694747 0.1821413 -0.1641445
vn 0.8009623 0.2086144 -0.5611946
vn 0.8009623 0.2086144 -0.5611945
vn 0.8009623 0.2086144 -0.5611946
vn 0.8009623 0.2086144 -0.5611945
vn 0.8929488 0.1643238 -0.4190942
vn 0.8929488 0.1643238 -0.4190943
vn 0.8929488 0.1643238 -0.4190942
vn 0.8929488 0.1643238 -0.4190942
vn -0.09024829 0.7608195 -0.6426578
vn -0.09024832 0.7608194 -0.6426578
vn -0.09024829 0.7608195 -0.6426578
vn -0.09024832 0.7608194 -0.6426578
vn -0.5244468 0.7930205 -0.3099581
vn -0.5244468 0.7930205 -0.3099581
vn -0.5244468 0.7930205 -0.3099581
vn -0.5244468 0.7930205 -0.3099581
vn -0.6281308 0.7769513 0.04240763
vn -0.6281308 0.7769513 0.04240761
vn -0.6281308 0.7769513 0.04240763
vn -0.6281308 0.7769513 0.04240761
vn -0.7260735 0.6865523 -0.03825299
vn -0.7260734 0.6865523 -0.03825299
vn -0.7260734 0.6865523 -0.03825299
vn -0.7260734 0.6865523 -0.03825299
vn -0.2090405 0.7779042 0.5925936
vn -0.2090404 0.7779042 0.5925936
vn -0.2090405 0.7779042 0.5925936
vn -0.2090405 0.7779042 0.5925936
vn -0.003589943 0.7903647 0.612626
vn -0.003589984 0.7903647 0.6126261
vn -0.003589943 0.7903647 0.6126261
vn -0.003589984 0.7903647 0.6126261
vn 0.2503164 0.7855958 0.5658453
vn 0.2503165 0.7855959 0.5658453
vn 0.2503165 0.7855959 0.5658453
vn 0.2503165 0.7855959 0.5658453
vn 0.6317797 0.7440121 -0.2174866
vn 0.6317797 0.7440121 -0.2174866
vn 0.6317797 0.7440121 -0.2174866
vn 0.6317797 0.7440121 -0.2174866
vn 0.422646 0.7429329 -0.5190578
vn 0.4226459 0.7429331 -0.5190578
vn 0.4226459 0.742933 -0.5190578
vn 0.422646 0.742933 -0.5190578
vn 0.7140801 0.6720411 -0.1960879
vn 0.7140801 0.6720411 -0.1960879
vn 0.7140801 0.6720411 -0.1960879
vn 0.7140801 0.6720411 -0.1960879
vn -0.07870474 0.9195546 -0.3849998
vn -0.07870477 0.9195546 -0.3849998
vn -0.07870474 0.9195546 -0.3849998
vn -0.5275044 0.8388124 -0.1346583
vn -0.5275044 0.8388124 -0.1346583
vn -0.5275044 0.8388124 -0.1346583
vn -0.5550165 0.8280525 -0.07928221
vn -0.5550165 0.8280525 -0.07928225
vn -0.5550165 0.8280525 -0.07928219
vn -0.5547766 0.8319792 -0.005785584
vn -0.5547766 0.8319792 -0.005785563
vn -0.5547766 0.8319792 -0.005785563
vn -0.2282723 0.9000152 0.3713008
vn -0.2282722 0.9000152 0.3713008
vn -0.2282723 0.9000152 0.3713008
vn -0.03044216 0.9082544 0.4173094
vn -0.03044216 0.9082544 0.4173094
vn -0.03044216 0.9082544 0.4173094
vn 0.117235 0.9237556 0.3645978
vn 0.1172349 0.9237556 0.3645977
vn 0.1172349 0.9237556 0.3645977
vn 0.3892325 0.8957258 -0.2148795
vn 0.3892325 0.8957258 -0.2148796
vn 0.3892325 0.8957258 -0.2148796
vn 0.2951895 0.7723614 -0.5624241
vn 0.2951895 0.7723615 -0.5624241
vn 0.2951894 0.7723615 -0.5624241
vn 0.6868337 0.724121 -0.06251553
vn 0.6868337 0.724121 -0.06251544
vn 0.6868337 0.724121 -0.06251551

vt 0.5482839 0.007647395
vt 0.5 0.15
vt 0.6264089 0.06440853
vt 0.4517161 0.00764741
vt 0.3735911 0.06440856
vt 0.34375 0.15625
vt 0.3735911 0.2480915
vt 0.4517161 0.3048526
vt 0.5482839 0.3048526
vt 0.6264089 0.2480914
vt 0.65625 0.15625
vt 0 0
vt 0 1
vt 1 1
vt 1 0
vt 0 0
vt 0 1
vt 1 1
vt 1 0
vt 0 0
vt 0 1
vt 1 1
vt 1 0
vt 0 0
vt 0 1
vt 1 1
vt 1 0
vt 0 0
vt 0 1
vt 1 1
vt 1 0
vt 0 0
vt 0 1
vt 1 1
vt 1 0
vt 0 0
vt 0 1
vt 1 1
vt 1 0
vt 0 0
vt 0 1
vt 1 1
vt 1 0
vt 0 0
vt 0 1
vt 1 1
vt 1 0
vt 0 0
vt 0 1
vt 1 1
vt 1 0
vt 0 0
vt 0 1
vt 1 1
vt 1 0
vt 0 0
vt 0 1
vt 1 1
vt 1 0
vt 0 0
vt 0 1
vt 1 1
vt 1 0
vt 0 0
vt 0 1
vt 1 1
vt 1 0
vt 0 0
vt 0 1
vt 1 1
vt 1 0
vt 0 0
vt 0 1
vt 1 1
vt 1 0
vt 0 0
vt 0 1
vt 1 1
vt 1 0
vt 0 0
vt 0 1
vt 1 1
vt 1 0
vt 0 0
vt 0 1
vt 1 1
vt 1 0
vt 0 0
vt 0 1
vt 1 1
vt 1 0
vt 0 0
vt 0 1
vt 1 1
vt 1 0
vt 0 0
vt 0 1
vt 1 1
vt 1 0
vt 0 0
vt 0 1
vt 1 1
vt 1 0
vt 0 0
vt 0 1
vt 1 1
vt 1 0
vt 0 0
vt 0 1
vt 1 1
vt 1 0
vt 0 0
vt 0 1
vt 1 1
vt 1 0
vt 0 0
vt 0 1
vt 1 1
vt 1 0
vt 0 0
vt 0 1
vt 1 1
vt 1 0
vt 0 0
vt 0 1
vt 1 1
vt 1 0
vt 0 0
vt 0 1
vt 1 1
vt 1 0
vt 0 0
vt 0 1
vt 1 1
vt 1 0
vt 0 0
vt 0 1
vt 1 1
vt 1 0
vt 0 0
vt 0 1
vt 1 1
vt 1 0
vt 0 0
vt 0 1
vt 1 1
vt 1 0
vt 0 0
vt 0 1
vt 1 1
vt 1 0
vt 0 0
vt 0 1
vt 1 1
vt 1 0
vt 0 0
vt 0 1
vt 1 1
vt 1 0
vt 0 0
vt 0 1
vt 1 1
vt 1 0
vt 0 0
vt 0 1
vt 1 1
vt 1 0
vt 0 0
vt 0 1
vt 1 1
vt 1 0
vt 0 0
vt 0.5 1
vt 1 0
vt 0 0
vt 0.5 1
vt 1 0
vt 0 0
vt 0.5 1
vt 1 0
vt 0 0
vt 0.5 1
vt 1 0
vt 0 0
vt 0.5 1
vt 1 0
vt 0 0
vt 0.5 1
vt 1 0
vt 0 0
vt 0.5 1
vt 1 0
vt 0 0
vt 0.5 1
vt 1 0
vt 0 0
vt 0.5 1
vt 1 0
vt 0 0
vt 0.5 1
vt 1 0

g Foliage_43_3686_279
usemtl Foliage_43_3686_279
usemap Foliage_43_3686_279
f 1/1/1 3/3/3 2/2/2
f 4/4/4 1/1/1 2/2/2
f 5/5/5 4/4/4 2/2/2
f 6/6/6 5/5/5 2/2/2
f 7/7/7 6/6/6 2/2/2
f 8/8/8 7/7/7 2/2/2
f 9/9/9 8/8/8 2/2/2
f 10/10/10 9/9/9 2/2/2
f 11/11/11 10/10/10 2/2/2
f 3/3/3 11/11/11 2/2/2
f 12/12/12 14/14/14 13/13/13
f 12/12/12 15/15/15 14/14/14
f 16/16/16 18/18/18 17/17/17
f 16/16/16 19/19/19 18/18/18
f 20/20/20 22/22/22 21/21/21
f 20/20/20 23/23/23 22/22/22
f 24/24/24 26/26/26 25/25/25
f 24/24/24 27/27/27 26/26/26
f 28/28/28 30/30/30 29/29/29
f 28/28/28 31/31/31 30/30/30
f 32/32/32 34/34/34 33/33/33
f 32/32/32 35/35/35 34/34/34
f 36/36/36 38/38/38 37/37/37
f 36/36/36 39/39/39 38/38/38
f 40/40/40 42/42/42 41/41/41
f 40/40/40 43/43/43 42/42/42
f 44/44/44 46/46/46 45/45/45
f 44/44/44 47/47/47 46/46/46
f 48/48/48 50/50/50 49/49/49
f 48/48/48 51/51/51 50/50/50
f 52/52/52 54/54/54 53/53/53
f 52/52/52 55/55/55 54/54/54
f 56/56/56 58/58/58 57/57/57
f 56/56/56 59/59/59 58/58/58
f 60/60/60 62/62/62 61/61/61
f 60/60/60 63/63/63 62/62/62
f 64/64/64 66/66/66 65/65/65
f 64/64/64 67/67/67 66/66/66
f 68/68/68 70/70/70 69/69/69
f 68/68/68 71/71/71 70/70/70
f 72/72/72 74/74/74 73/73/73
f 72/72/72 75/75/75 74/74/74
f 76/76/76 78/78/78 77/77/77
f 76/76/76 79/79/79 78/78/78
f 80/80/80 82/82/82 81/81/81
f 80/80/80 83/83/83 82/82/82
f 84/84/84 86/86/86 85/85/85
f 84/84/84 87/87/87 86/86/86
f 88/88/88 90/90/90 89/89/89
f 88/88/88 91/91/91 90/90/90
f 92/92/92 94/94/94 93/93/93
f 92/92/92 95/95/95 94/94/94
f 96/96/96 98/98/98 97/97/97
f 96/96/96 99/99/99 98/98/98
f 100/100/100 102/102/102 101/101/101
f 100/100/100 103/103/103 102/102/102
f 104/104/104 106/106/106 105/105/105
f 104/104/104 107/107/107 106/106/106
f 108/108/108 110/110/110 109/109/109
f 108/108/108 111/111/111 110/110/110
f 112/112/112 114/114/114 113/113/113
f 112/112/112 115/115/115 114/114/114
f 116/116/116 118/118/118 117/117/117
f 116/116/116 119/119/119 118/118/118
f 120/120/120 122/122/122 121/121/121
f 120/120/120 123/123/123 122/122/122
f 124/124/124 126/126/126 125/125/125
f 124/124/124 127/127/127 126/126/126
f 128/128/128 130/130/130 129/129/129
f 128/128/128 131/131/131 130/130/130
f 132/132/132 134/134/134 133/133/133
f 132/132/132 135/135/135 134/134/134
f 136/136/136 138/138/138 137/137/137
f 136/136/136 139/139/139 138/138/138
f 140/140/140 142/142/142 141/141/141
f 140/140/140 143/143/143 142/142/142
f 144/144/144 146/146/146 145/145/145
f 144/144/144 147/147/147 146/146/146
f 148/148/148 150/150/150 149/149/149
f 148/148/148 151/151/151 150/150/150
f 152/152/152 154/154/154 153/153/153
f 152/152/152 155/155/155 154/154/154
f 156/156/156 158/158/158 157/157/157
f 156/156/156 159/159/159 158/158/158
f 160/160/160 162/162/162 161/161/161
f 160/160/160 163/163/163 162/162/162
f 164/164/164 166/166/166 165/165/165
f 164/164/164 167/167/167 166/166/166
f 168/168/168 170/170/170 169/169/169
f 168/168/168 171/171/171 170/170/170
f 172/172/172 174/174/174 173/173/173
f 175/175/175 177/177/177 176/176/176
f 178/178/178 180/180/180 179/179/179
f 181/181/181 183/183/183 182/182/182
f 184/184/184 186/186/186 185/185/185
f 187/187/187 189/189/189 188/188/188
f 190/190/190 192/192/192 191/191/191
f 193/193/193 195/195/195 194/194/194
f 196/196/196 198/198/198 197/197/197
f 199/199/199 201/201/201 200/200/200
