#Foliage7_37_3821_80.obj

v 0.01454742 -0.02577567 -0.04035822
v 0.004625784 -0.0339761 0.001091476
v 0.03878652 -0.02577567 -0.02105475
v -0.009661598 -0.02577567 -0.03817543
v -0.01824873 -0.02577567 -0.01778052
v -0.03822021 -0.0222322 0.001091333
v -0.0213491 -0.02577567 0.01996313
v -0.005295624 -0.02577567 0.03271792
v 0.02109583 -0.02577567 0.04035823
v 0.03060041 -0.02577567 0.01996319
v 0.03219141 -0.0222322 0.001091411
v 0.03878652 -0.02577567 -0.02105475
v 0.04796899 -0.01489241 -0.02772616
v 0.01805462 -0.01489241 -0.05115271
v 0.01454742 -0.02577567 -0.04035822
v 0.01454742 -0.02577567 -0.04035822
v 0.01805462 -0.01489241 -0.05115271
v -0.01316877 -0.01489241 -0.04896987
v -0.009661598 -0.02577567 -0.03817543
v -0.009661598 -0.02577567 -0.03817543
v -0.01316877 -0.01489241 -0.04896987
v -0.02743144 -0.01489241 -0.02445186
v -0.01824873 -0.02577567 -0.01778052
v -0.01824873 -0.02577567 -0.01778052
v -0.02743144 -0.01489241 -0.02445186
v -0.04796483 -0.01288819 0.001091485
v -0.03822021 -0.0222322 0.001091333
v -0.03822021 -0.0222322 0.001091333
v -0.04796483 -0.01288819 0.001091485
v -0.03053114 -0.01489241 0.0266345
v -0.0213491 -0.02577567 0.01996313
v -0.0213491 -0.02577567 0.01996313
v -0.03053114 -0.01489241 0.0266345
v -0.00880283 -0.01489241 0.04351241
v -0.005295624 -0.02577567 0.03271792
v -0.005295624 -0.02577567 0.03271792
v -0.00880283 -0.01489241 0.04351241
v 0.02460342 -0.01489241 0.05115264
v 0.02109583 -0.02577567 0.04035823
v 0.02109583 -0.02577567 0.04035823
v 0.02460342 -0.01489241 0.05115264
v 0.0397827 -0.01489241 0.02663456
v 0.03060041 -0.02577567 0.01996319
v 0.03060041 -0.02577567 0.01996319
v 0.0397827 -0.01489241 0.02663456
v 0.04193604 -0.01288819 0.00109149
v 0.03219141 -0.0222322 0.001091411
v 0.03219141 -0.0222322 0.001091411
v 0.04193604 -0.01288819 0.00109149
v 0.04796899 -0.01489241 -0.02772616
v 0.03878652 -0.02577567 -0.02105475
v 0.04796899 -0.01489241 -0.02772616
v 0.04796899 -0.0001482857 -0.02772616
v 0.01805462 -0.0001482857 -0.05115271
v 0.01805462 -0.01489241 -0.05115271
v 0.01805462 -0.01489241 -0.05115271
v 0.01805462 -0.0001482857 -0.05115271
v -0.01316877 -0.0001482857 -0.04896987
v -0.01316877 -0.01489241 -0.04896987
v -0.01316877 -0.01489241 -0.04896987
v -0.01316877 -0.0001482857 -0.04896987
v -0.02743144 -0.0001482857 -0.02445186
v -0.02743144 -0.01489241 -0.02445186
v -0.02743144 -0.01489241 -0.02445186
v -0.02743144 -0.0001482857 -0.02445186
v -0.04796483 -0.0002293825 0.001091485
v -0.04796483 -0.01288819 0.001091485
v -0.04796483 -0.01288819 0.001091485
v -0.04796483 -0.0002293825 0.001091485
v -0.03053114 -0.0001482857 0.0266345
v -0.03053114 -0.01489241 0.0266345
v -0.03053114 -0.01489241 0.0266345
v -0.03053114 -0.0001482857 0.0266345
v -0.00880283 -0.0001482857 0.04351241
v -0.00880283 -0.01489241 0.04351241
v -0.00880283 -0.01489241 0.04351241
v -0.00880283 -0.0001482857 0.04351241
v 0.02460342 -0.0001482857 0.05115264
v 0.02460342 -0.01489241 0.05115264
v 0.02460342 -0.01489241 0.05115264
v 0.02460342 -0.0001482857 0.05115264
v 0.0397827 -0.0001482857 0.02663456
v 0.0397827 -0.01489241 0.02663456
v 0.0397827 -0.01489241 0.02663456
v 0.0397827 -0.0001482857 0.02663456
v 0.04193604 -0.0002293825 0.00109149
v 0.04193604 -0.01288819 0.00109149
v 0.04193604 -0.01288819 0.00109149
v 0.04193604 -0.0002293825 0.00109149
v 0.04796899 -0.0001482857 -0.02772616
v 0.04796899 -0.01489241 -0.02772616
v 0.04796899 -0.0001482857 -0.02772616
v 0.04569069 0.0142834 -0.02539692
v 0.01714684 0.0142834 -0.0479913
v 0.01805462 -0.0001482857 -0.05115271
v 0.01805462 -0.0001482857 -0.05115271
v 0.01714684 0.0142834 -0.0479913
v -0.01182731 0.0142834 -0.0455976
v -0.01316877 -0.0001482857 -0.04896987
v -0.01316877 -0.0001482857 -0.04896987
v -0.01182731 0.0142834 -0.0455976
v -0.02320855 0.0142834 -0.02180634
v -0.02743144 -0.0001482857 -0.02445186
v -0.02743144 -0.0001482857 -0.02445186
v -0.02320855 0.0142834 -0.02180634
v -0.04530207 0.01197214 0.001196638
v -0.04796483 -0.0002293825 0.001091485
v -0.04796483 -0.0002293825 0.001091485
v -0.04530207 0.01197214 0.001196638
v -0.02660768 0.0142834 0.02419998
v -0.03053114 -0.0001482857 0.0266345
v -0.03053114 -0.0001482857 0.0266345
v -0.02660768 0.0142834 0.02419998
v -0.007040104 0.0142834 0.03961354
v -0.00880283 -0.0001482857 0.04351241
v -0.00880283 -0.0001482857 0.04351241
v -0.007040104 0.0142834 0.03961354
v 0.02432804 0.0142834 0.04799107
v 0.02460342 -0.0001482857 0.05115264
v 0.02460342 -0.0001482857 0.05115264
v 0.02432804 0.0142834 0.04799107
v 0.03671474 0.0142834 0.02419998
v 0.0397827 -0.0001482857 0.02663456
v 0.0397827 -0.0001482857 0.02663456
v 0.03671474 0.0142834 0.02419998
v 0.03865408 0.01197214 0.001196868
v 0.04193604 -0.0002293825 0.00109149
v 0.04193604 -0.0002293825 0.00109149
v 0.03865408 0.01197214 0.001196868
v 0.04569069 0.0142834 -0.02539692
v 0.04796899 -0.0001482857 -0.02772616
v 0.04569069 0.0142834 -0.02539692
v 0.03225424 0.02437438 -0.01614767
v 0.01203826 0.02437438 -0.03256877
v 0.01714684 0.0142834 -0.0479913
v 0.01714684 0.0142834 -0.0479913
v 0.01203826 0.02437438 -0.03256877
v -0.002590294 0.02437438 -0.02139387
v -0.01182731 0.0142834 -0.0455976
v -0.01182731 0.0142834 -0.0455976
v -0.002590294 0.02437438 -0.02139387
v -0.01125109 0.02437438 -0.01279533
v -0.02320855 0.0142834 -0.02180634
v -0.02320855 0.0142834 -0.02180634
v -0.01125109 0.02437438 -0.01279533
v -0.03124301 0.02074645 0.001117395
v -0.04530207 0.01197214 0.001196638
v -0.04530207 0.01197214 0.001196638
v -0.03124301 0.02074645 0.001117395
v -0.01442507 0.02437438 0.01503022
v -0.02660768 0.0142834 0.02419998
v -0.02660768 0.0142834 0.02419998
v -0.01442507 0.02437438 0.01503022
v -0.002590433 0.02437438 0.02474613
v -0.007040104 0.0142834 0.03961354
v -0.007040104 0.0142834 0.03961354
v -0.002590433 0.02437438 0.02474613
v 0.01874308 0.02437438 0.03256865
v 0.02432804 0.0142834 0.04799107
v 0.02432804 0.0142834 0.04799107
v 0.01874308 0.02437438 0.03256865
v 0.0238732 0.02437438 0.0150301
v 0.03671474 0.0142834 0.02419998
v 0.03671474 0.0142834 0.02419998
v 0.0238732 0.02437438 0.0150301
v 0.0250459 0.02074645 0.0011175
v 0.03865408 0.01197214 0.001196868
v 0.03865408 0.01197214 0.001196868
v 0.0250459 0.02074645 0.0011175
v 0.03225424 0.02437438 -0.01614767
v 0.04569069 0.0142834 -0.02539692
v 0.03225424 0.02437438 -0.01614767
v 0.004625784 0.03397612 0.001091476
v 0.01203826 0.02437438 -0.03256877
v 0.01203826 0.02437438 -0.03256877
v 0.004625784 0.03397612 0.001091476
v -0.002590294 0.02437438 -0.02139387
v -0.002590294 0.02437438 -0.02139387
v 0.004625784 0.03397612 0.001091476
v -0.01125109 0.02437438 -0.01279533
v -0.01125109 0.02437438 -0.01279533
v 0.004625784 0.03397612 0.001091476
v -0.03124301 0.02074645 0.001117395
v -0.03124301 0.02074645 0.001117395
v 0.004625784 0.03397612 0.001091476
v -0.01442507 0.02437438 0.01503022
v -0.01442507 0.02437438 0.01503022
v 0.004625784 0.03397612 0.001091476
v -0.002590433 0.02437438 0.02474613
v -0.002590433 0.02437438 0.02474613
v 0.004625784 0.03397612 0.001091476
v 0.01874308 0.02437438 0.03256865
v 0.01874308 0.02437438 0.03256865
v 0.004625784 0.03397612 0.001091476
v 0.0238732 0.02437438 0.0150301
v 0.0238732 0.02437438 0.0150301
v 0.004625784 0.03397612 0.001091476
v 0.0250459 0.02074645 0.0011175
v 0.0250459 0.02074645 0.0011175
v 0.004625784 0.03397612 0.001091476
v 0.03225424 0.02437438 -0.01614767

vn -0.2291667 -0.9694993 -0.08691116
vn 3.678992E-05 -0.999998 -0.002004163
vn -0.06465676 -0.9683717 -0.2409888
vn -0.2270513 -0.9702594 0.08393098
vn -0.1395983 -0.9446187 0.2969982
vn -0.031554 -0.9500715 0.3104327
vn 0.1336106 -0.9519467 0.2755825
vn 0.2776698 -0.9509185 0.1365776
vn 0.2340191 -0.970765 -0.05338914
vn 0.04253478 -0.9423653 -0.331871
vn 0.1377124 -0.8856704 -0.4434221
vn -0.6154023 -0.6093683 -0.4999503
vn -0.6154023 -0.6093683 -0.4999503
vn -0.6154023 -0.6093683 -0.4999503
vn -0.6154023 -0.6093683 -0.4999503
vn -0.7958322 -0.6055121 0.002487996
vn -0.7958322 -0.6055122 0.002487996
vn -0.7958322 -0.6055121 0.002488001
vn -0.7958322 -0.6055121 0.002487996
vn -0.4157951 -0.593097 0.6894565
vn -0.4157951 -0.593097 0.6894565
vn -0.4157951 -0.593097 0.6894565
vn -0.4157951 -0.593097 0.6894565
vn -0.5308415 -0.6141451 0.5839804
vn -0.5308415 -0.614145 0.5839806
vn -0.5308415 -0.614145 0.5839805
vn -0.5308414 -0.614145 0.5839805
vn 0.4201336 -0.6111295 0.6708267
vn 0.4201336 -0.6111295 0.6708267
vn 0.4201336 -0.6111295 0.6708268
vn 0.4201336 -0.6111295 0.6708267
vn 0.6167948 -0.6093352 0.4982718
vn 0.6167948 -0.6093352 0.4982719
vn 0.6167948 -0.6093352 0.4982719
vn 0.6167948 -0.6093352 0.4982719
vn 0.7708477 -0.591511 0.2364499
vn 0.7708477 -0.591511 0.23645
vn 0.7708477 -0.591511 0.2364499
vn 0.7708477 -0.591511 0.2364499
vn 0.4372058 -0.5984942 -0.6713089
vn 0.4372058 -0.5984942 -0.6713089
vn 0.4372058 -0.5984942 -0.6713089
vn 0.4372058 -0.5984942 -0.671309
vn -0.005066977 -0.6103382 -0.7921248
vn -0.005066981 -0.6103382 -0.7921248
vn -0.005066977 -0.6103382 -0.7921248
vn -0.005066981 -0.6103382 -0.7921248
vn 0.3136287 -0.5476416 -0.7757098
vn 0.3136287 -0.5476415 -0.7757099
vn 0.3136287 -0.5476416 -0.7757098
vn 0.3136287 -0.5476416 -0.7757099
vn -0.7783192 3.475468E-17 -0.6278688
vn -0.7783192 3.475468E-17 -0.6278688
vn -0.7783192 3.475468E-17 -0.6278688
vn -0.7783192 3.475468E-17 -0.6278688
vn -0.9999875 1.217403E-16 -0.005006581
vn -0.9999875 1.217403E-16 -0.005006581
vn -0.9999875 1.217403E-16 -0.005006581
vn -0.9999875 1.217403E-16 -0.005006581
vn -0.5675836 1.485396E-16 0.8233157
vn -0.5675836 1.485396E-16 0.8233157
vn -0.5675836 1.485396E-16 0.8233157
vn -0.5675836 1.485396E-16 0.8233157
vn -0.6919535 1.539927E-16 0.721942
vn -0.6919535 1.539927E-16 0.721942
vn -0.6919535 1.539927E-16 0.721942
vn -0.6919535 1.539927E-16 0.721942
vn 0.561518 1.093605E-17 0.8274646
vn 0.561518 1.093605E-17 0.8274646
vn 0.561518 1.093604E-17 0.8274645
vn 0.561518 1.093605E-17 0.8274646
vn 0.7806432 -3.531678E-17 0.624977
vn 0.7806432 -3.531678E-17 0.624977
vn 0.7806432 -3.531678E-17 0.624977
vn 0.7806432 -3.531678E-17 0.624977
vn 0.9625439 -9.157459E-17 0.2711259
vn 0.9625439 -9.157459E-17 0.2711259
vn 0.9625439 -9.157459E-17 0.2711259
vn 0.9625439 -9.157459E-17 0.2711259
vn 0.5917295 -1.498389E-16 -0.8061365
vn 0.5917295 -1.498389E-16 -0.8061365
vn 0.5917295 -1.498389E-16 -0.8061365
vn 0.5917295 -1.498389E-16 -0.8061365
vn 0.1190004 -1.100185E-16 -0.9928942
vn 0.1190004 -1.100185E-16 -0.9928942
vn 0.1190004 -1.100185E-16 -0.9928942
vn 0.1190004 -1.100185E-16 -0.9928942
vn 0.2506719 -1.23725E-16 -0.9680721
vn 0.2506719 -1.23725E-16 -0.9680721
vn 0.2506719 -1.23725E-16 -0.9680721
vn 0.2506719 -1.23725E-16 -0.9680721
vn -0.7659723 0.166484 -0.6209424
vn -0.7659723 0.1664841 -0.6209424
vn -0.7659723 0.1664841 -0.6209424
vn -0.7659723 0.1664841 -0.6209424
vn -0.9851077 0.1719376 0.0006034664
vn -0.9851077 0.1719376 0.0006034742
vn -0.9851077 0.1719376 0.0006034742
vn -0.9851077 0.1719376 0.0006034742
vn -0.5196791 0.217934 0.8260983
vn -0.5196791 0.217934 0.8260983
vn -0.5196792 0.217934 0.8260983
vn -0.5196791 0.217934 0.8260983
vn -0.7010045 0.211228 0.6811574
vn -0.7010046 0.211228 0.6811573
vn -0.7010046 0.211228 0.6811574
vn -0.7010044 0.211228 0.6811574
vn 0.5751566 0.1954716 0.7943462
vn 0.5751566 0.1954716 0.7943462
vn 0.5751566 0.1954716 0.7943462
vn 0.5751566 0.1954716 0.7943462
vn 0.7592487 0.2223832 0.6116267
vn 0.7592487 0.2223832 0.6116267
vn 0.7592487 0.2223832 0.6116267
vn 0.7592487 0.2223832 0.6116267
vn 0.9411169 0.1873472 0.2814251
vn 0.9411169 0.1873472 0.2814251
vn 0.9411169 0.1873472 0.2814251
vn 0.9411169 0.1873472 0.2814251
vn 0.5528101 0.1614639 -0.8175147
vn 0.5528101 0.1614639 -0.8175147
vn 0.5528102 0.1614639 -0.8175147
vn 0.5528101 0.1614639 -0.8175147
vn 0.1038308 0.2001012 -0.9742579
vn 0.1038308 0.2001012 -0.9742579
vn 0.1038308 0.2001012 -0.9742579
vn 0.1038308 0.2001012 -0.974258
vn 0.2822376 0.1502203 -0.9475104
vn 0.2822375 0.1502203 -0.9475104
vn 0.2822376 0.1502203 -0.9475104
vn 0.2822376 0.1502203 -0.9475104
vn -0.497724 0.7644941 -0.4096579
vn -0.497724 0.7644941 -0.4096579
vn -0.497724 0.7644941 -0.4096579
vn -0.497724 0.7644941 -0.4096579
vn -0.5394563 0.8339504 0.1162479
vn -0.5394564 0.8339503 0.1162479
vn -0.5394563 0.8339504 0.1162479
vn -0.5394563 0.8339504 0.1162479
vn -0.3342576 0.825031 0.4556268
vn -0.3342576 0.825031 0.4556267
vn -0.3342576 0.825031 0.4556268
vn -0.3342576 0.825031 0.4556267
vn -0.4769733 0.7440425 0.4678646
vn -0.4769732 0.7440425 0.4678646
vn -0.4769732 0.7440425 0.4678646
vn -0.4769732 0.7440425 0.4678646
vn 0.3722141 0.7497175 0.5471566
vn 0.3722141 0.7497175 0.5471566
vn 0.3722141 0.7497175 0.5471566
vn 0.3722141 0.7497175 0.5471566
vn 0.5139734 0.7462173 0.4230735
vn 0.5139734 0.7462172 0.4230735
vn 0.5139734 0.7462172 0.4230735
vn 0.5139734 0.7462172 0.4230735
vn 0.6392564 0.7346895 0.2271183
vn 0.6392564 0.7346895 0.2271182
vn 0.6392564 0.7346895 0.2271182
vn 0.6392564 0.7346895 0.2271182
vn 0.3025905 0.740106 -0.6005681
vn 0.3025905 0.740106 -0.6005681
vn 0.3025905 0.740106 -0.6005681
vn 0.3025905 0.740106 -0.6005681
vn -0.07590608 0.7394961 -0.6688676
vn -0.0759061 0.7394962 -0.6688675
vn -0.07590608 0.7394961 -0.6688675
vn -0.07590606 0.7394961 -0.6688676
vn 0.3720314 0.6681428 -0.644343
vn 0.3720314 0.6681428 -0.644343
vn 0.3720314 0.6681428 -0.644343
vn 0.3720314 0.6681428 -0.644343
vn -0.2861016 0.9279621 -0.2388141
vn -0.2861016 0.9279621 -0.238814
vn -0.2861016 0.9279621 -0.2388141
vn -0.4009272 0.8815057 0.2494093
vn -0.4009272 0.8815057 0.2494093
vn -0.4009272 0.8815057 0.2494093
vn -0.3769049 0.8726068 0.3106446
vn -0.3769049 0.8726068 0.3106445
vn -0.3769049 0.8726068 0.3106446
vn -0.3174496 0.8749655 0.3655969
vn -0.3174497 0.8749655 0.365597
vn -0.3174497 0.8749655 0.365597
vn 0.2032869 0.8900338 0.4080616
vn 0.2032869 0.8900338 0.4080616
vn 0.2032869 0.8900338 0.4080616
vn 0.3637234 0.8795865 0.3066477
vn 0.3637234 0.8795865 0.3066477
vn 0.3637234 0.8795865 0.3066477
vn 0.4193878 0.8912984 0.1723395
vn 0.4193878 0.8912985 0.1723395
vn 0.4193878 0.8912985 0.1723395
vn 0.1515661 0.890281 -0.4294502
vn 0.1515661 0.890281 -0.4294503
vn 0.1515661 0.890281 -0.4294503
vn -0.1896388 0.7684932 -0.61111
vn -0.1896388 0.7684932 -0.6111099
vn -0.1896388 0.7684933 -0.6111099
vn 0.4623882 0.7154182 -0.5238072
vn 0.4623882 0.7154182 -0.5238072
vn 0.4623882 0.7154182 -0.5238072

vt 0.5482839 0.007647395
vt 0.5 0.15
vt 0.6264089 0.06440853
vt 0.4517161 0.00764741
vt 0.3735911 0.06440856
vt 0.34375 0.15625
vt 0.3735911 0.2480915
vt 0.4517161 0.3048526
vt 0.5482839 0.3048526
vt 0.6264089 0.2480914
vt 0.65625 0.15625
vt 0 0
vt 0 1
vt 1 1
vt 1 0
vt 0 0
vt 0 1
vt 1 1
vt 1 0
vt 0 0
vt 0 1
vt 1 1
vt 1 0
vt 0 0
vt 0 1
vt 1 1
vt 1 0
vt 0 0
vt 0 1
vt 1 1
vt 1 0
vt 0 0
vt 0 1
vt 1 1
vt 1 0
vt 0 0
vt 0 1
vt 1 1
vt 1 0
vt 0 0
vt 0 1
vt 1 1
vt 1 0
vt 0 0
vt 0 1
vt 1 1
vt 1 0
vt 0 0
vt 0 1
vt 1 1
vt 1 0
vt 0 0
vt 0 1
vt 1 1
vt 1 0
vt 0 0
vt 0 1
vt 1 1
vt 1 0
vt 0 0
vt 0 1
vt 1 1
vt 1 0
vt 0 0
vt 0 1
vt 1 1
vt 1 0
vt 0 0
vt 0 1
vt 1 1
vt 1 0
vt 0 0
vt 0 1
vt 1 1
vt 1 0
vt 0 0
vt 0 1
vt 1 1
vt 1 0
vt 0 0
vt 0 1
vt 1 1
vt 1 0
vt 0 0
vt 0 1
vt 1 1
vt 1 0
vt 0 0
vt 0 1
vt 1 1
vt 1 0
vt 0 0
vt 0 1
vt 1 1
vt 1 0
vt 0 0
vt 0 1
vt 1 1
vt 1 0
vt 0 0
vt 0 1
vt 1 1
vt 1 0
vt 0 0
vt 0 1
vt 1 1
vt 1 0
vt 0 0
vt 0 1
vt 1 1
vt 1 0
vt 0 0
vt 0 1
vt 1 1
vt 1 0
vt 0 0
vt 0 1
vt 1 1
vt 1 0
vt 0 0
vt 0 1
vt 1 1
vt 1 0
vt 0 0
vt 0 1
vt 1 1
vt 1 0
vt 0 0
vt 0 1
vt 1 1
vt 1 0
vt 0 0
vt 0 1
vt 1 1
vt 1 0
vt 0 0
vt 0 1
vt 1 1
vt 1 0
vt 0 0
vt 0 1
vt 1 1
vt 1 0
vt 0 0
vt 0 1
vt 1 1
vt 1 0
vt 0 0
vt 0 1
vt 1 1
vt 1 0
vt 0 0
vt 0 1
vt 1 1
vt 1 0
vt 0 0
vt 0 1
vt 1 1
vt 1 0
vt 0 0
vt 0 1
vt 1 1
vt 1 0
vt 0 0
vt 0 1
vt 1 1
vt 1 0
vt 0 0
vt 0 1
vt 1 1
vt 1 0
vt 0 0
vt 0.5 1
vt 1 0
vt 0 0
vt 0.5 1
vt 1 0
vt 0 0
vt 0.5 1
vt 1 0
vt 0 0
vt 0.5 1
vt 1 0
vt 0 0
vt 0.5 1
vt 1 0
vt 0 0
vt 0.5 1
vt 1 0
vt 0 0
vt 0.5 1
vt 1 0
vt 0 0
vt 0.5 1
vt 1 0
vt 0 0
vt 0.5 1
vt 1 0
vt 0 0
vt 0.5 1
vt 1 0

g Foliage7_37_3821_80
usemtl Foliage7_37_3821_80
usemap Foliage7_37_3821_80
f 1/1/1 3/3/3 2/2/2
f 4/4/4 1/1/1 2/2/2
f 5/5/5 4/4/4 2/2/2
f 6/6/6 5/5/5 2/2/2
f 7/7/7 6/6/6 2/2/2
f 8/8/8 7/7/7 2/2/2
f 9/9/9 8/8/8 2/2/2
f 10/10/10 9/9/9 2/2/2
f 11/11/11 10/10/10 2/2/2
f 3/3/3 11/11/11 2/2/2
f 12/12/12 14/14/14 13/13/13
f 12/12/12 15/15/15 14/14/14
f 16/16/16 18/18/18 17/17/17
f 16/16/16 19/19/19 18/18/18
f 20/20/20 22/22/22 21/21/21
f 20/20/20 23/23/23 22/22/22
f 24/24/24 26/26/26 25/25/25
f 24/24/24 27/27/27 26/26/26
f 28/28/28 30/30/30 29/29/29
f 28/28/28 31/31/31 30/30/30
f 32/32/32 34/34/34 33/33/33
f 32/32/32 35/35/35 34/34/34
f 36/36/36 38/38/38 37/37/37
f 36/36/36 39/39/39 38/38/38
f 40/40/40 42/42/42 41/41/41
f 40/40/40 43/43/43 42/42/42
f 44/44/44 46/46/46 45/45/45
f 44/44/44 47/47/47 46/46/46
f 48/48/48 50/50/50 49/49/49
f 48/48/48 51/51/51 50/50/50
f 52/52/52 54/54/54 53/53/53
f 52/52/52 55/55/55 54/54/54
f 56/56/56 58/58/58 57/57/57
f 56/56/56 59/59/59 58/58/58
f 60/60/60 62/62/62 61/61/61
f 60/60/60 63/63/63 62/62/62
f 64/64/64 66/66/66 65/65/65
f 64/64/64 67/67/67 66/66/66
f 68/68/68 70/70/70 69/69/69
f 68/68/68 71/71/71 70/70/70
f 72/72/72 74/74/74 73/73/73
f 72/72/72 75/75/75 74/74/74
f 76/76/76 78/78/78 77/77/77
f 76/76/76 79/79/79 78/78/78
f 80/80/80 82/82/82 81/81/81
f 80/80/80 83/83/83 82/82/82
f 84/84/84 86/86/86 85/85/85
f 84/84/84 87/87/87 86/86/86
f 88/88/88 90/90/90 89/89/89
f 88/88/88 91/91/91 90/90/90
f 92/92/92 94/94/94 93/93/93
f 92/92/92 95/95/95 94/94/94
f 96/96/96 98/98/98 97/97/97
f 96/96/96 99/99/99 98/98/98
f 100/100/100 102/102/102 101/101/101
f 100/100/100 103/103/103 102/102/102
f 104/104/104 106/106/106 105/105/105
f 104/104/104 107/107/107 106/106/106
f 108/108/108 110/110/110 109/109/109
f 108/108/108 111/111/111 110/110/110
f 112/112/112 114/114/114 113/113/113
f 112/112/112 115/115/115 114/114/114
f 116/116/116 118/118/118 117/117/117
f 116/116/116 119/119/119 118/118/118
f 120/120/120 122/122/122 121/121/121
f 120/120/120 123/123/123 122/122/122
f 124/124/124 126/126/126 125/125/125
f 124/124/124 127/127/127 126/126/126
f 128/128/128 130/130/130 129/129/129
f 128/128/128 131/131/131 130/130/130
f 132/132/132 134/134/134 133/133/133
f 132/132/132 135/135/135 134/134/134
f 136/136/136 138/138/138 137/137/137
f 136/136/136 139/139/139 138/138/138
f 140/140/140 142/142/142 141/141/141
f 140/140/140 143/143/143 142/142/142
f 144/144/144 146/146/146 145/145/145
f 144/144/144 147/147/147 146/146/146
f 148/148/148 150/150/150 149/149/149
f 148/148/148 151/151/151 150/150/150
f 152/152/152 154/154/154 153/153/153
f 152/152/152 155/155/155 154/154/154
f 156/156/156 158/158/158 157/157/157
f 156/156/156 159/159/159 158/158/158
f 160/160/160 162/162/162 161/161/161
f 160/160/160 163/163/163 162/162/162
f 164/164/164 166/166/166 165/165/165
f 164/164/164 167/167/167 166/166/166
f 168/168/168 170/170/170 169/169/169
f 168/168/168 171/171/171 170/170/170
f 172/172/172 174/174/174 173/173/173
f 175/175/175 177/177/177 176/176/176
f 178/178/178 180/180/180 179/179/179
f 181/181/181 183/183/183 182/182/182
f 184/184/184 186/186/186 185/185/185
f 187/187/187 189/189/189 188/188/188
f 190/190/190 192/192/192 191/191/191
f 193/193/193 195/195/195 194/194/194
f 196/196/196 198/198/198 197/197/197
f 199/199/199 201/201/201 200/200/200
