#Foliage7_30_4125_134.obj

v 0.01454465 -0.02577569 -0.04035534
v 0.004623171 -0.03397613 0.001094241
v 0.03878392 -0.02577568 -0.02105156
v -0.009664021 -0.02577569 -0.03817235
v -0.01825148 -0.0257757 -0.01777737
v -0.03822276 -0.02223226 0.001094282
v -0.02135132 -0.02577567 0.01996691
v -0.005298081 -0.02577568 0.03272162
v 0.02109341 -0.0257757 0.04036104
v 0.03059797 -0.02577569 0.01996637
v 0.03218874 -0.02223226 0.00109441
v 0.03878392 -0.02577568 -0.02105156
v 0.04796626 -0.01489243 -0.02772296
v 0.01805221 -0.01489242 -0.05114938
v 0.01454465 -0.02577569 -0.04035534
v 0.01454465 -0.02577569 -0.04035534
v 0.01805221 -0.01489242 -0.05114938
v -0.01317145 -0.01489243 -0.04896678
v -0.009664021 -0.02577569 -0.03817235
v -0.009664021 -0.02577569 -0.03817235
v -0.01317145 -0.01489243 -0.04896678
v -0.02743357 -0.01489242 -0.02444843
v -0.01825148 -0.0257757 -0.01777737
v -0.01825148 -0.0257757 -0.01777737
v -0.02743357 -0.01489242 -0.02444843
v -0.04796757 -0.01288824 0.001094505
v -0.03822276 -0.02223226 0.001094282
v -0.03822276 -0.02223226 0.001094282
v -0.04796757 -0.01288824 0.001094505
v -0.03053365 -0.01489241 0.02663828
v -0.02135132 -0.02577567 0.01996691
v -0.02135132 -0.02577567 0.01996691
v -0.03053365 -0.01489241 0.02663828
v -0.008805635 -0.01489243 0.04351562
v -0.005298081 -0.02577568 0.03272162
v -0.005298081 -0.02577568 0.03272162
v -0.008805635 -0.01489243 0.04351562
v 0.02460092 -0.01489242 0.05115639
v 0.02109341 -0.0257757 0.04036104
v 0.02109341 -0.0257757 0.04036104
v 0.02460092 -0.01489242 0.05115639
v 0.03978058 -0.01489241 0.0266382
v 0.03059797 -0.02577569 0.01996637
v 0.03059797 -0.02577569 0.01996637
v 0.03978058 -0.01489241 0.0266382
v 0.04193371 -0.01288824 0.001094251
v 0.03218874 -0.02223226 0.00109441
v 0.03218874 -0.02223226 0.00109441
v 0.04193371 -0.01288824 0.001094251
v 0.04796626 -0.01489243 -0.02772296
v 0.03878392 -0.02577568 -0.02105156
v 0.04796626 -0.01489243 -0.02772296
v 0.04796638 -0.0001483561 -0.02772286
v 0.01805232 -0.0001483436 -0.05114928
v 0.01805221 -0.01489242 -0.05114938
v 0.01805221 -0.01489242 -0.05114938
v 0.01805232 -0.0001483436 -0.05114928
v -0.01317134 -0.0001483607 -0.04896669
v -0.01317145 -0.01489243 -0.04896678
v -0.01317145 -0.01489243 -0.04896678
v -0.01317134 -0.0001483607 -0.04896669
v -0.02743367 -0.0001483525 -0.02444826
v -0.02743357 -0.01489242 -0.02444843
v -0.02743357 -0.01489242 -0.02444843
v -0.02743367 -0.0001483525 -0.02444826
v -0.04796746 -0.0002294556 0.00109476
v -0.04796757 -0.01288824 0.001094505
v -0.04796757 -0.01288824 0.001094505
v -0.04796746 -0.0002294556 0.00109476
v -0.03053383 -0.0001483662 0.02663749
v -0.03053365 -0.01489241 0.02663828
v -0.03053365 -0.01489241 0.02663828
v -0.03053383 -0.0001483662 0.02663749
v -0.008805518 -0.000148362 0.04351572
v -0.008805635 -0.01489243 0.04351562
v -0.008805635 -0.01489243 0.04351562
v -0.008805518 -0.000148362 0.04351572
v 0.02460074 -0.0001483691 0.05115561
v 0.02460092 -0.01489242 0.05115639
v 0.02460092 -0.01489242 0.05115639
v 0.02460074 -0.0001483691 0.05115561
v 0.0397804 -0.0001483651 0.02663742
v 0.03978058 -0.01489241 0.0266382
v 0.03978058 -0.01489241 0.0266382
v 0.0397804 -0.0001483651 0.02663742
v 0.0419336 -0.0002294635 0.001094581
v 0.04193371 -0.01288824 0.001094251
v 0.04193371 -0.01288824 0.001094251
v 0.0419336 -0.0002294635 0.001094581
v 0.04796638 -0.0001483561 -0.02772286
v 0.04796626 -0.01489243 -0.02772296
v 0.04796638 -0.0001483561 -0.02772286
v 0.04568844 0.01428334 -0.02539315
v 0.01714463 0.01428333 -0.04798814
v 0.01805232 -0.0001483436 -0.05114928
v 0.01805232 -0.0001483436 -0.05114928
v 0.01714463 0.01428333 -0.04798814
v -0.01182962 0.01428333 -0.04559435
v -0.01317134 -0.0001483607 -0.04896669
v -0.01317134 -0.0001483607 -0.04896669
v -0.01182962 0.01428333 -0.04559435
v -0.02321061 0.01428334 -0.02180278
v -0.02743367 -0.0001483525 -0.02444826
v -0.02743367 -0.0001483525 -0.02444826
v -0.02321061 0.01428334 -0.02180278
v -0.04530445 0.01197206 0.00120035
v -0.04796746 -0.0002294556 0.00109476
v -0.04796746 -0.0002294556 0.00109476
v -0.04530445 0.01197206 0.00120035
v -0.02660999 0.01428333 0.02420332
v -0.03053383 -0.0001483662 0.02663749
v -0.03053383 -0.0001483662 0.02663749
v -0.02660999 0.01428333 0.02420332
v -0.0070425 0.01428331 0.03961636
v -0.008805518 -0.000148362 0.04351572
v -0.008805518 -0.000148362 0.04351572
v -0.0070425 0.01428331 0.03961636
v 0.02432563 0.01428334 0.04799486
v 0.02460074 -0.0001483691 0.05115561
v 0.02460074 -0.0001483691 0.05115561
v 0.02432563 0.01428334 0.04799486
v 0.03671209 0.01428331 0.02420292
v 0.0397804 -0.0001483651 0.02663742
v 0.0397804 -0.0001483651 0.02663742
v 0.03671209 0.01428331 0.02420292
v 0.03865136 0.01197204 0.001200051
v 0.0419336 -0.0002294635 0.001094581
v 0.0419336 -0.0002294635 0.001094581
v 0.03865136 0.01197204 0.001200051
v 0.04568844 0.01428334 -0.02539315
v 0.04796638 -0.0001483561 -0.02772286
v 0.04568844 0.01428334 -0.02539315
v 0.03225167 0.02437434 -0.01614485
v 0.0120358 0.02437435 -0.03256566
v 0.01714463 0.01428333 -0.04798814
v 0.01714463 0.01428333 -0.04798814
v 0.0120358 0.02437435 -0.03256566
v -0.002592723 0.02437437 -0.02139032
v -0.01182962 0.01428333 -0.04559435
v -0.01182962 0.01428333 -0.04559435
v -0.002592723 0.02437437 -0.02139032
v -0.01125348 0.02437437 -0.01279176
v -0.02321061 0.01428334 -0.02180278
v -0.02321061 0.01428334 -0.02180278
v -0.01125348 0.02437437 -0.01279176
v -0.03124508 0.02074645 0.001120915
v -0.04530445 0.01197206 0.00120035
v -0.04530445 0.01197206 0.00120035
v -0.03124508 0.02074645 0.001120915
v -0.01442773 0.02437435 0.01503339
v -0.02660999 0.01428333 0.02420332
v -0.02660999 0.01428333 0.02420332
v -0.01442773 0.02437435 0.01503339
v -0.002592661 0.02437437 0.02474988
v -0.0070425 0.01428331 0.03961636
v -0.0070425 0.01428331 0.03961636
v -0.002592661 0.02437437 0.02474988
v 0.01874094 0.02437437 0.03257222
v 0.02432563 0.01428334 0.04799486
v 0.02432563 0.01428334 0.04799486
v 0.01874094 0.02437437 0.03257222
v 0.02387071 0.02437435 0.01503329
v 0.03671209 0.01428331 0.02420292
v 0.03671209 0.01428331 0.02420292
v 0.02387071 0.02437435 0.01503329
v 0.02504351 0.02074643 0.001120539
v 0.03865136 0.01197204 0.001200051
v 0.03865136 0.01197204 0.001200051
v 0.02504351 0.02074643 0.001120539
v 0.03225167 0.02437434 -0.01614485
v 0.04568844 0.01428334 -0.02539315
v 0.03225167 0.02437434 -0.01614485
v 0.004623427 0.03397603 0.001094619
v 0.0120358 0.02437435 -0.03256566
v 0.0120358 0.02437435 -0.03256566
v 0.004623427 0.03397603 0.001094619
v -0.002592723 0.02437437 -0.02139032
v -0.002592723 0.02437437 -0.02139032
v 0.004623427 0.03397603 0.001094619
v -0.01125348 0.02437437 -0.01279176
v -0.01125348 0.02437437 -0.01279176
v 0.004623427 0.03397603 0.001094619
v -0.03124508 0.02074645 0.001120915
v -0.03124508 0.02074645 0.001120915
v 0.004623427 0.03397603 0.001094619
v -0.01442773 0.02437435 0.01503339
v -0.01442773 0.02437435 0.01503339
v 0.004623427 0.03397603 0.001094619
v -0.002592661 0.02437437 0.02474988
v -0.002592661 0.02437437 0.02474988
v 0.004623427 0.03397603 0.001094619
v 0.01874094 0.02437437 0.03257222
v 0.01874094 0.02437437 0.03257222
v 0.004623427 0.03397603 0.001094619
v 0.02387071 0.02437435 0.01503329
v 0.02387071 0.02437435 0.01503329
v 0.004623427 0.03397603 0.001094619
v 0.02504351 0.02074643 0.001120539
v 0.02504351 0.02074643 0.001120539
v 0.004623427 0.03397603 0.001094619
v 0.03225167 0.02437434 -0.01614485

vn 0.06787694 -0.9812757 -0.1802496
vn -0.046219 -0.9984995 -0.02935595
vn 0.1592106 -0.9870917 -0.01735421
vn -0.06984697 -0.9726925 -0.2213363
vn -0.2581564 -0.9431408 -0.2093799
vn -0.2900709 -0.9480009 -0.1309671
vn -0.2950741 -0.9554705 0.002573721
vn -0.2118861 -0.9661283 0.1473069
vn -0.04987397 -0.9858081 0.1602939
vn 0.2138437 -0.9729434 0.0874706
vn 0.2926016 -0.9366516 0.1925286
vn 0.5625249 -0.7198071 -0.4067469
vn 0.5625249 -0.7198071 -0.4067469
vn 0.5625249 -0.7198071 -0.4067468
vn 0.5625249 -0.7198071 -0.4067469
vn 0.1429692 -0.6898308 -0.7097129
vn 0.1429692 -0.689831 -0.7097129
vn 0.1429692 -0.6898308 -0.7097129
vn 0.1429693 -0.6898309 -0.709713
vn -0.5529295 -0.6200114 -0.5566457
vn -0.5529295 -0.6200113 -0.5566458
vn -0.5529295 -0.6200114 -0.5566457
vn -0.5529295 -0.6200113 -0.5566458
vn -0.4362161 -0.6479169 -0.6244348
vn -0.4362162 -0.6479169 -0.6244348
vn -0.4362161 -0.6479169 -0.6244348
vn -0.4362161 -0.6479169 -0.6244347
vn -0.73184 -0.6657827 0.1454061
vn -0.73184 -0.6657827 0.1454061
vn -0.73184 -0.6657827 0.1454061
vn -0.73184 -0.6657827 0.1454062
vn -0.6286646 -0.6859531 0.3663994
vn -0.6286647 -0.6859531 0.3663994
vn -0.6286646 -0.6859531 0.3663993
vn -0.6286646 -0.6859531 0.3663994
vn -0.4278308 -0.6909527 0.5827044
vn -0.4278308 -0.6909528 0.5827044
vn -0.4278308 -0.6909528 0.5827045
vn -0.4278308 -0.6909527 0.5827044
vn 0.4684738 -0.7072353 0.5294808
vn 0.4684737 -0.7072353 0.5294808
vn 0.4684737 -0.7072353 0.5294808
vn 0.4684739 -0.7072353 0.5294809
vn 0.6683766 -0.7179295 0.1945491
vn 0.6683766 -0.7179296 0.1945491
vn 0.6683766 -0.7179295 0.1945491
vn 0.6683766 -0.7179295 0.1945491
vn 0.5946715 -0.6588213 0.4607816
vn 0.5946716 -0.6588212 0.4607816
vn 0.5946715 -0.6588213 0.4607816
vn 0.5946715 -0.6588213 0.4607816
vn 0.8373697 -0.02374788 -0.5461205
vn 0.8373698 -0.02374788 -0.5461205
vn 0.8373698 -0.02374788 -0.5461205
vn 0.8373697 -0.02374788 -0.5461205
vn 0.2568278 0.01662414 -0.966314
vn 0.2568278 0.01662414 -0.966314
vn 0.2568278 0.01662414 -0.966314
vn 0.2568278 0.01662414 -0.966314
vn -0.6541831 0.05390081 -0.754413
vn -0.6541831 0.05390081 -0.754413
vn -0.6541831 0.05390081 -0.754413
vn -0.6541831 0.05390081 -0.754413
vn -0.5338335 0.05082162 -0.8440608
vn -0.5338335 0.05082162 -0.8440609
vn -0.5338335 0.05082162 -0.8440608
vn -0.5338335 0.05082162 -0.8440608
vn -0.9629205 0.03811064 0.267079
vn -0.9629205 0.03811064 0.267079
vn -0.9629206 0.03811064 0.2670791
vn -0.9629205 0.03811064 0.267079
vn -0.8352107 0.02354559 0.5494255
vn -0.8352107 0.02354559 0.5494255
vn -0.8352107 0.02354559 0.5494255
vn -0.8352107 0.02354559 0.5494255
vn -0.5260687 -0.0002650945 0.8504418
vn -0.5260687 -0.0002650945 0.8504418
vn -0.5260687 -0.0002650945 0.8504418
vn -0.5260687 -0.0002650945 0.8504418
vn 0.6331835 -0.05342638 0.7721555
vn 0.6331835 -0.05342638 0.7721555
vn 0.6331835 -0.05342638 0.7721555
vn 0.6331835 -0.05342638 0.7721555
vn 0.9144952 -0.05577908 0.4007334
vn 0.9144952 -0.05577908 0.4007334
vn 0.9144952 -0.05577908 0.4007334
vn 0.9144952 -0.05577908 0.4007334
vn 0.8586732 -0.05635911 0.5094151
vn 0.8586732 -0.05635911 0.5094151
vn 0.8586732 -0.05635911 0.5094151
vn 0.8586732 -0.05635911 0.5094151
vn 0.8297232 0.1890871 -0.5251716
vn 0.8297231 0.1890871 -0.5251715
vn 0.8297231 0.1890871 -0.5251715
vn 0.8297231 0.1890871 -0.5251715
vn 0.2553117 0.2374128 -0.937257
vn 0.2553117 0.2374128 -0.937257
vn 0.2553117 0.2374128 -0.937257
vn 0.2553117 0.2374128 -0.937257
vn -0.6473532 0.3111283 -0.6957964
vn -0.6473533 0.3111283 -0.6957964
vn -0.6473532 0.3111283 -0.6957965
vn -0.6473532 0.3111283 -0.6957964
vn -0.4762503 0.302553 -0.8256192
vn -0.4762502 0.302553 -0.8256192
vn -0.4762503 0.302553 -0.8256192
vn -0.4762503 0.302553 -0.8256192
vn -0.9138016 0.2790909 0.2950844
vn -0.9138016 0.2790909 0.2950844
vn -0.9138016 0.2790909 0.2950844
vn -0.9138016 0.2790909 0.2950844
vn -0.7894461 0.3045578 0.5329342
vn -0.7894462 0.3045578 0.5329342
vn -0.7894462 0.3045578 0.5329342
vn -0.7894462 0.3045578 0.5329342
vn -0.5132021 0.2427051 0.8232359
vn -0.5132021 0.2427051 0.8232359
vn -0.5132021 0.2427051 0.8232359
vn -0.5132021 0.2427051 0.8232359
vn 0.6572511 0.1396795 0.740615
vn 0.6572511 0.1396795 0.740615
vn 0.657251 0.1396796 0.740615
vn 0.6572511 0.1396796 0.740615
vn 0.9043576 0.1826922 0.3856952
vn 0.9043577 0.1826922 0.3856952
vn 0.9043577 0.1826922 0.3856952
vn 0.9043577 0.1826922 0.3856952
vn 0.8364752 0.1225098 0.5341352
vn 0.8364752 0.1225098 0.5341352
vn 0.8364752 0.1225098 0.5341352
vn 0.8364752 0.1225098 0.5341352
vn 0.5015191 0.8222125 -0.2691551
vn 0.5015192 0.8222125 -0.2691551
vn 0.5015191 0.8222125 -0.2691551
vn 0.5015192 0.8222125 -0.2691551
vn 0.05537834 0.9001279 -0.4320906
vn 0.05537833 0.9001279 -0.4320906
vn 0.05537834 0.9001279 -0.4320906
vn 0.05537836 0.9001279 -0.4320906
vn -0.2714719 0.8943585 -0.355563
vn -0.2714719 0.8943585 -0.3555631
vn -0.2714719 0.8943585 -0.355563
vn -0.2714719 0.8943585 -0.3555631
vn -0.2635263 0.8333431 -0.4858935
vn -0.2635263 0.8333431 -0.4858935
vn -0.2635263 0.8333431 -0.4858935
vn -0.2635263 0.8333431 -0.4858935
vn -0.5138605 0.8390917 0.1785266
vn -0.5138604 0.8390918 0.1785266
vn -0.5138605 0.8390917 0.1785266
vn -0.5138605 0.8390917 0.1785266
vn -0.4404813 0.8347746 0.3303437
vn -0.4404814 0.8347744 0.3303437
vn -0.4404814 0.8347744 0.3303437
vn -0.4404814 0.8347744 0.3303437
vn -0.2991719 0.8181653 0.4910204
vn -0.2991719 0.8181653 0.4910204
vn -0.2991719 0.8181653 0.4910204
vn -0.2991719 0.8181653 0.4910204
vn 0.4880773 0.7613614 0.426742
vn 0.4880773 0.7613614 0.4267421
vn 0.4880773 0.7613614 0.4267421
vn 0.4880773 0.7613614 0.4267421
vn 0.6275165 0.7654792 0.1423517
vn 0.6275164 0.7654793 0.1423516
vn 0.6275165 0.7654793 0.1423516
vn 0.6275165 0.7654792 0.1423517
vn 0.5169965 0.6939529 0.5011423
vn 0.5169965 0.693953 0.5011422
vn 0.5169965 0.6939529 0.5011423
vn 0.5169965 0.6939529 0.5011423
vn 0.2976956 0.9458307 -0.1295407
vn 0.2976956 0.9458307 -0.1295408
vn 0.2976956 0.9458307 -0.1295407
vn -0.08154617 0.9339315 -0.348025
vn -0.08154616 0.9339315 -0.348025
vn -0.08154614 0.9339315 -0.348025
vn -0.1376075 0.9281409 -0.3458582
vn -0.1376075 0.9281409 -0.3458582
vn -0.1376075 0.9281409 -0.3458583
vn -0.194407 0.9296581 -0.3129554
vn -0.194407 0.9296581 -0.3129554
vn -0.194407 0.9296581 -0.3129554
vn -0.333216 0.9394944 0.07947689
vn -0.333216 0.9394944 0.07947691
vn -0.333216 0.9394944 0.07947689
vn -0.2849452 0.930168 0.2315015
vn -0.2849452 0.930168 0.2315015
vn -0.2849452 0.930168 0.2315015
vn -0.1834272 0.9330219 0.309554
vn -0.1834272 0.9330219 0.309554
vn -0.1834272 0.9330219 0.309554
vn 0.3656527 0.8953851 0.2541317
vn 0.3656528 0.8953851 0.2541317
vn 0.3656528 0.895385 0.2541317
vn 0.6011251 0.7983331 0.03622687
vn 0.6011249 0.7983331 0.03622688
vn 0.601125 0.7983332 0.03622688
vn 0.3924448 0.744875 0.5395811
vn 0.3924448 0.744875 0.5395811
vn 0.3924448 0.744875 0.5395812

vt 0.5482839 0.007647395
vt 0.5 0.15
vt 0.6264089 0.06440853
vt 0.4517161 0.00764741
vt 0.3735911 0.06440856
vt 0.34375 0.15625
vt 0.3735911 0.2480915
vt 0.4517161 0.3048526
vt 0.5482839 0.3048526
vt 0.6264089 0.2480914
vt 0.65625 0.15625
vt 0 0
vt 0 1
vt 1 1
vt 1 0
vt 0 0
vt 0 1
vt 1 1
vt 1 0
vt 0 0
vt 0 1
vt 1 1
vt 1 0
vt 0 0
vt 0 1
vt 1 1
vt 1 0
vt 0 0
vt 0 1
vt 1 1
vt 1 0
vt 0 0
vt 0 1
vt 1 1
vt 1 0
vt 0 0
vt 0 1
vt 1 1
vt 1 0
vt 0 0
vt 0 1
vt 1 1
vt 1 0
vt 0 0
vt 0 1
vt 1 1
vt 1 0
vt 0 0
vt 0 1
vt 1 1
vt 1 0
vt 0 0
vt 0 1
vt 1 1
vt 1 0
vt 0 0
vt 0 1
vt 1 1
vt 1 0
vt 0 0
vt 0 1
vt 1 1
vt 1 0
vt 0 0
vt 0 1
vt 1 1
vt 1 0
vt 0 0
vt 0 1
vt 1 1
vt 1 0
vt 0 0
vt 0 1
vt 1 1
vt 1 0
vt 0 0
vt 0 1
vt 1 1
vt 1 0
vt 0 0
vt 0 1
vt 1 1
vt 1 0
vt 0 0
vt 0 1
vt 1 1
vt 1 0
vt 0 0
vt 0 1
vt 1 1
vt 1 0
vt 0 0
vt 0 1
vt 1 1
vt 1 0
vt 0 0
vt 0 1
vt 1 1
vt 1 0
vt 0 0
vt 0 1
vt 1 1
vt 1 0
vt 0 0
vt 0 1
vt 1 1
vt 1 0
vt 0 0
vt 0 1
vt 1 1
vt 1 0
vt 0 0
vt 0 1
vt 1 1
vt 1 0
vt 0 0
vt 0 1
vt 1 1
vt 1 0
vt 0 0
vt 0 1
vt 1 1
vt 1 0
vt 0 0
vt 0 1
vt 1 1
vt 1 0
vt 0 0
vt 0 1
vt 1 1
vt 1 0
vt 0 0
vt 0 1
vt 1 1
vt 1 0
vt 0 0
vt 0 1
vt 1 1
vt 1 0
vt 0 0
vt 0 1
vt 1 1
vt 1 0
vt 0 0
vt 0 1
vt 1 1
vt 1 0
vt 0 0
vt 0 1
vt 1 1
vt 1 0
vt 0 0
vt 0 1
vt 1 1
vt 1 0
vt 0 0
vt 0 1
vt 1 1
vt 1 0
vt 0 0
vt 0 1
vt 1 1
vt 1 0
vt 0 0
vt 0 1
vt 1 1
vt 1 0
vt 0 0
vt 0 1
vt 1 1
vt 1 0
vt 0 0
vt 0.5 1
vt 1 0
vt 0 0
vt 0.5 1
vt 1 0
vt 0 0
vt 0.5 1
vt 1 0
vt 0 0
vt 0.5 1
vt 1 0
vt 0 0
vt 0.5 1
vt 1 0
vt 0 0
vt 0.5 1
vt 1 0
vt 0 0
vt 0.5 1
vt 1 0
vt 0 0
vt 0.5 1
vt 1 0
vt 0 0
vt 0.5 1
vt 1 0
vt 0 0
vt 0.5 1
vt 1 0

g Foliage7_30_4125_134
usemtl Foliage7_30_4125_134
usemap Foliage7_30_4125_134
f 1/1/1 3/3/3 2/2/2
f 4/4/4 1/1/1 2/2/2
f 5/5/5 4/4/4 2/2/2
f 6/6/6 5/5/5 2/2/2
f 7/7/7 6/6/6 2/2/2
f 8/8/8 7/7/7 2/2/2
f 9/9/9 8/8/8 2/2/2
f 10/10/10 9/9/9 2/2/2
f 11/11/11 10/10/10 2/2/2
f 3/3/3 11/11/11 2/2/2
f 12/12/12 14/14/14 13/13/13
f 12/12/12 15/15/15 14/14/14
f 16/16/16 18/18/18 17/17/17
f 16/16/16 19/19/19 18/18/18
f 20/20/20 22/22/22 21/21/21
f 20/20/20 23/23/23 22/22/22
f 24/24/24 26/26/26 25/25/25
f 24/24/24 27/27/27 26/26/26
f 28/28/28 30/30/30 29/29/29
f 28/28/28 31/31/31 30/30/30
f 32/32/32 34/34/34 33/33/33
f 32/32/32 35/35/35 34/34/34
f 36/36/36 38/38/38 37/37/37
f 36/36/36 39/39/39 38/38/38
f 40/40/40 42/42/42 41/41/41
f 40/40/40 43/43/43 42/42/42
f 44/44/44 46/46/46 45/45/45
f 44/44/44 47/47/47 46/46/46
f 48/48/48 50/50/50 49/49/49
f 48/48/48 51/51/51 50/50/50
f 52/52/52 54/54/54 53/53/53
f 52/52/52 55/55/55 54/54/54
f 56/56/56 58/58/58 57/57/57
f 56/56/56 59/59/59 58/58/58
f 60/60/60 62/62/62 61/61/61
f 60/60/60 63/63/63 62/62/62
f 64/64/64 66/66/66 65/65/65
f 64/64/64 67/67/67 66/66/66
f 68/68/68 70/70/70 69/69/69
f 68/68/68 71/71/71 70/70/70
f 72/72/72 74/74/74 73/73/73
f 72/72/72 75/75/75 74/74/74
f 76/76/76 78/78/78 77/77/77
f 76/76/76 79/79/79 78/78/78
f 80/80/80 82/82/82 81/81/81
f 80/80/80 83/83/83 82/82/82
f 84/84/84 86/86/86 85/85/85
f 84/84/84 87/87/87 86/86/86
f 88/88/88 90/90/90 89/89/89
f 88/88/88 91/91/91 90/90/90
f 92/92/92 94/94/94 93/93/93
f 92/92/92 95/95/95 94/94/94
f 96/96/96 98/98/98 97/97/97
f 96/96/96 99/99/99 98/98/98
f 100/100/100 102/102/102 101/101/101
f 100/100/100 103/103/103 102/102/102
f 104/104/104 106/106/106 105/105/105
f 104/104/104 107/107/107 106/106/106
f 108/108/108 110/110/110 109/109/109
f 108/108/108 111/111/111 110/110/110
f 112/112/112 114/114/114 113/113/113
f 112/112/112 115/115/115 114/114/114
f 116/116/116 118/118/118 117/117/117
f 116/116/116 119/119/119 118/118/118
f 120/120/120 122/122/122 121/121/121
f 120/120/120 123/123/123 122/122/122
f 124/124/124 126/126/126 125/125/125
f 124/124/124 127/127/127 126/126/126
f 128/128/128 130/130/130 129/129/129
f 128/128/128 131/131/131 130/130/130
f 132/132/132 134/134/134 133/133/133
f 132/132/132 135/135/135 134/134/134
f 136/136/136 138/138/138 137/137/137
f 136/136/136 139/139/139 138/138/138
f 140/140/140 142/142/142 141/141/141
f 140/140/140 143/143/143 142/142/142
f 144/144/144 146/146/146 145/145/145
f 144/144/144 147/147/147 146/146/146
f 148/148/148 150/150/150 149/149/149
f 148/148/148 151/151/151 150/150/150
f 152/152/152 154/154/154 153/153/153
f 152/152/152 155/155/155 154/154/154
f 156/156/156 158/158/158 157/157/157
f 156/156/156 159/159/159 158/158/158
f 160/160/160 162/162/162 161/161/161
f 160/160/160 163/163/163 162/162/162
f 164/164/164 166/166/166 165/165/165
f 164/164/164 167/167/167 166/166/166
f 168/168/168 170/170/170 169/169/169
f 168/168/168 171/171/171 170/170/170
f 172/172/172 174/174/174 173/173/173
f 175/175/175 177/177/177 176/176/176
f 178/178/178 180/180/180 179/179/179
f 181/181/181 183/183/183 182/182/182
f 184/184/184 186/186/186 185/185/185
f 187/187/187 189/189/189 188/188/188
f 190/190/190 192/192/192 191/191/191
f 193/193/193 195/195/195 194/194/194
f 196/196/196 198/198/198 197/197/197
f 199/199/199 201/201/201 200/200/200
