#Foliage2_37_4119_71.obj

v 0.01454659 -0.02577561 -0.04035874
v 0.004625171 -0.03397603 0.001091001
v 0.0387858 -0.02577561 -0.0210552
v -0.009662084 -0.02577561 -0.03817582
v -0.01824953 -0.02577561 -0.01778082
v -0.03822091 -0.02223218 0.001090935
v -0.02134976 -0.02577561 0.01996278
v -0.005296288 -0.02577561 0.03271755
v 0.02109542 -0.02577561 0.04035788
v 0.03059995 -0.02577561 0.01996271
v 0.03219058 -0.02223218 0.001090968
v 0.0387858 -0.02577561 -0.0210552
v 0.0479681 -0.01489234 -0.02772659
v 0.01805403 -0.01489234 -0.05115313
v 0.01454659 -0.02577561 -0.04035874
v 0.01454659 -0.02577561 -0.04035874
v 0.01805403 -0.01489234 -0.05115313
v -0.01316961 -0.01489234 -0.04897021
v -0.009662084 -0.02577561 -0.03817582
v -0.009662084 -0.02577561 -0.03817582
v -0.01316961 -0.01489234 -0.04897021
v -0.02743183 -0.01489234 -0.02445214
v -0.01824953 -0.02577561 -0.01778082
v -0.01824953 -0.02577561 -0.01778082
v -0.02743183 -0.01489234 -0.02445214
v -0.04796558 -0.01288816 0.001090926
v -0.03822091 -0.02223218 0.001090935
v -0.03822091 -0.02223218 0.001090935
v -0.04796558 -0.01288816 0.001090926
v -0.03053206 -0.01489234 0.02663417
v -0.02134976 -0.02577561 0.01996278
v -0.02134976 -0.02577561 0.01996278
v -0.03053206 -0.01489234 0.02663417
v -0.00880373 -0.01489234 0.04351211
v -0.005296288 -0.02577561 0.03271755
v -0.005296288 -0.02577561 0.03271755
v -0.00880373 -0.01489234 0.04351211
v 0.02460263 -0.01489234 0.05115229
v 0.02109542 -0.02577561 0.04035788
v 0.02109542 -0.02577561 0.04035788
v 0.02460263 -0.01489234 0.05115229
v 0.03978224 -0.01489234 0.02663421
v 0.03059995 -0.02577561 0.01996271
v 0.03059995 -0.02577561 0.01996271
v 0.03978224 -0.01489234 0.02663421
v 0.04193556 -0.01288816 0.001090955
v 0.03219058 -0.02223218 0.001090968
v 0.03219058 -0.02223218 0.001090968
v 0.04193556 -0.01288816 0.001090955
v 0.0479681 -0.01489234 -0.02772659
v 0.0387858 -0.02577561 -0.0210552
v 0.0479681 -0.01489234 -0.02772659
v 0.0479681 -0.0001483222 -0.02772659
v 0.01805403 -0.0001483222 -0.05115313
v 0.01805403 -0.01489234 -0.05115313
v 0.01805403 -0.01489234 -0.05115313
v 0.01805403 -0.0001483222 -0.05115313
v -0.01316961 -0.0001483222 -0.04897021
v -0.01316961 -0.01489234 -0.04897021
v -0.01316961 -0.01489234 -0.04897021
v -0.01316961 -0.0001483222 -0.04897021
v -0.02743183 -0.0001483222 -0.02445214
v -0.02743183 -0.01489234 -0.02445214
v -0.02743183 -0.01489234 -0.02445214
v -0.02743183 -0.0001483222 -0.02445214
v -0.04796558 -0.0002294152 0.001090926
v -0.04796558 -0.01288816 0.001090926
v -0.04796558 -0.01288816 0.001090926
v -0.04796558 -0.0002294152 0.001090926
v -0.03053206 -0.0001483222 0.02663417
v -0.03053206 -0.01489234 0.02663417
v -0.03053206 -0.01489234 0.02663417
v -0.03053206 -0.0001483222 0.02663417
v -0.00880373 -0.0001483222 0.04351211
v -0.00880373 -0.01489234 0.04351211
v -0.00880373 -0.01489234 0.04351211
v -0.00880373 -0.0001483222 0.04351211
v 0.02460263 -0.0001483222 0.05115229
v 0.02460263 -0.01489234 0.05115229
v 0.02460263 -0.01489234 0.05115229
v 0.02460263 -0.0001483222 0.05115229
v 0.03978224 -0.0001483222 0.02663421
v 0.03978224 -0.01489234 0.02663421
v 0.03978224 -0.01489234 0.02663421
v 0.03978224 -0.0001483222 0.02663421
v 0.04193556 -0.0002294152 0.001090955
v 0.04193556 -0.01288816 0.001090955
v 0.04193556 -0.01288816 0.001090955
v 0.04193556 -0.0002294152 0.001090955
v 0.0479681 -0.0001483222 -0.02772659
v 0.0479681 -0.01489234 -0.02772659
v 0.0479681 -0.0001483222 -0.02772659
v 0.04569028 0.01428339 -0.0253973
v 0.01714622 0.01428339 -0.04799165
v 0.01805403 -0.0001483222 -0.05115313
v 0.01805403 -0.0001483222 -0.05115313
v 0.01714622 0.01428339 -0.04799165
v -0.01182798 0.01428339 -0.04559809
v -0.01316961 -0.0001483222 -0.04897021
v -0.01316961 -0.0001483222 -0.04897021
v -0.01182798 0.01428339 -0.04559809
v -0.02320915 0.01428339 -0.02180687
v -0.02743183 -0.0001483222 -0.02445214
v -0.02743183 -0.0001483222 -0.02445214
v -0.02320915 0.01428339 -0.02180687
v -0.04530301 0.01197211 0.001196372
v -0.04796558 -0.0002294152 0.001090926
v -0.04796558 -0.0002294152 0.001090926
v -0.04530301 0.01197211 0.001196372
v -0.02660842 0.01428339 0.02419951
v -0.03053206 -0.0001483222 0.02663417
v -0.03053206 -0.0001483222 0.02663417
v -0.02660842 0.01428339 0.02419951
v -0.007040763 0.01428339 0.03961312
v -0.00880373 -0.0001483222 0.04351211
v -0.00880373 -0.0001483222 0.04351211
v -0.007040763 0.01428339 0.03961312
v 0.02432714 0.01428339 0.04799076
v 0.02460263 -0.0001483222 0.05115229
v 0.02460263 -0.0001483222 0.05115229
v 0.02432714 0.01428339 0.04799076
v 0.03671402 0.01428339 0.02419963
v 0.03978224 -0.0001483222 0.02663421
v 0.03978224 -0.0001483222 0.02663421
v 0.03671402 0.01428339 0.02419963
v 0.03865314 0.01197211 0.001196408
v 0.04193556 -0.0002294152 0.001090955
v 0.04193556 -0.0002294152 0.001090955
v 0.03865314 0.01197211 0.001196408
v 0.04569028 0.01428339 -0.0253973
v 0.0479681 -0.0001483222 -0.02772659
v 0.04569028 0.01428339 -0.0253973
v 0.03225368 0.02437446 -0.01614807
v 0.01203759 0.02437446 -0.03256901
v 0.01714622 0.01428339 -0.04799165
v 0.01714622 0.01428339 -0.04799165
v 0.01203759 0.02437446 -0.03256901
v -0.002590908 0.02437446 -0.02139419
v -0.01182798 0.01428339 -0.04559809
v -0.01182798 0.01428339 -0.04559809
v -0.002590908 0.02437446 -0.02139419
v -0.01125184 0.02437446 -0.01279566
v -0.02320915 0.01428339 -0.02180687
v -0.02320915 0.01428339 -0.02180687
v -0.01125184 0.02437446 -0.01279566
v -0.03124338 0.0207465 0.001116955
v -0.04530301 0.01197211 0.001196372
v -0.04530301 0.01197211 0.001196372
v -0.03124338 0.0207465 0.001116955
v -0.01442596 0.02437446 0.01502981
v -0.02660842 0.01428339 0.02419951
v -0.02660842 0.01428339 0.02419951
v -0.01442596 0.02437446 0.01502981
v -0.002591021 0.02437446 0.02474572
v -0.007040763 0.01428339 0.03961312
v -0.007040763 0.01428339 0.03961312
v -0.002591021 0.02437446 0.02474572
v 0.01874269 0.02437446 0.03256809
v 0.02432714 0.01428339 0.04799076
v 0.02432714 0.01428339 0.04799076
v 0.01874269 0.02437446 0.03256809
v 0.02387242 0.02437446 0.01502973
v 0.03671402 0.01428339 0.02419963
v 0.03671402 0.01428339 0.02419963
v 0.02387242 0.02437446 0.01502973
v 0.02504542 0.0207465 0.001117024
v 0.03865314 0.01197211 0.001196408
v 0.03865314 0.01197211 0.001196408
v 0.02504542 0.0207465 0.001117024
v 0.03225368 0.02437446 -0.01614807
v 0.04569028 0.01428339 -0.0253973
v 0.03225368 0.02437446 -0.01614807
v 0.004625171 0.03397606 0.001091001
v 0.01203759 0.02437446 -0.03256901
v 0.01203759 0.02437446 -0.03256901
v 0.004625171 0.03397606 0.001091001
v -0.002590908 0.02437446 -0.02139419
v -0.002590908 0.02437446 -0.02139419
v 0.004625171 0.03397606 0.001091001
v -0.01125184 0.02437446 -0.01279566
v -0.01125184 0.02437446 -0.01279566
v 0.004625171 0.03397606 0.001091001
v -0.03124338 0.0207465 0.001116955
v -0.03124338 0.0207465 0.001116955
v 0.004625171 0.03397606 0.001091001
v -0.01442596 0.02437446 0.01502981
v -0.01442596 0.02437446 0.01502981
v 0.004625171 0.03397606 0.001091001
v -0.002591021 0.02437446 0.02474572
v -0.002591021 0.02437446 0.02474572
v 0.004625171 0.03397606 0.001091001
v 0.01874269 0.02437446 0.03256809
v 0.01874269 0.02437446 0.03256809
v 0.004625171 0.03397606 0.001091001
v 0.02387242 0.02437446 0.01502973
v 0.02387242 0.02437446 0.01502973
v 0.004625171 0.03397606 0.001091001
v 0.02504542 0.0207465 0.001117024
v 0.02504542 0.0207465 0.001117024
v 0.004625171 0.03397606 0.001091001
v 0.03225368 0.02437446 -0.01614807

vn -0.2295382 -0.9694954 -0.08597089
vn 2.694721E-05 -0.999998 -0.002004748
vn -0.06582244 -0.968349 -0.2407646
vn -0.2265912 -0.9702826 0.08490084
vn -0.13811 -0.9446322 0.2976503
vn -0.03002288 -0.9500576 0.310627
vn 0.1349259 -0.9519088 0.2750719
vn 0.2782705 -0.9509051 0.1354436
vn 0.2337067 -0.9707851 -0.05438068
vn 0.04089573 -0.9423518 -0.3321156
vn 0.1355046 -0.8856737 -0.4440953
vn -0.6175911 -0.6092508 -0.4973878
vn -0.6175911 -0.6092508 -0.4973877
vn -0.6175911 -0.6092508 -0.4973878
vn -0.6175911 -0.6092508 -0.4973877
vn -0.7957478 -0.6056002 0.005818398
vn -0.7957477 -0.6056002 0.005818397
vn -0.7957478 -0.6056002 0.005818404
vn -0.7957478 -0.6056002 0.005818397
vn -0.4123709 -0.593179 0.6914397
vn -0.4123709 -0.593179 0.6914399
vn -0.4123709 -0.593179 0.6914397
vn -0.4123709 -0.593179 0.6914399
vn -0.5279617 -0.6142742 0.58645
vn -0.5279617 -0.6142741 0.5864501
vn -0.5279617 -0.6142741 0.58645
vn -0.5279617 -0.6142742 0.5864501
vn 0.4232136 -0.6109673 0.669036
vn 0.4232136 -0.6109673 0.669036
vn 0.4232136 -0.6109672 0.6690361
vn 0.4232136 -0.6109673 0.6690361
vn 0.6189755 -0.6092183 0.4957039
vn 0.6189755 -0.6092183 0.495704
vn 0.6189754 -0.6092183 0.4957039
vn 0.6189755 -0.6092184 0.4957039
vn 0.7718189 -0.5915055 0.2332742
vn 0.7718188 -0.5915055 0.2332742
vn 0.7718189 -0.5915055 0.2332742
vn 0.7718189 -0.5915055 0.2332742
vn 0.433875 -0.5985857 -0.6733853
vn 0.433875 -0.5985857 -0.6733852
vn 0.433875 -0.5985857 -0.6733852
vn 0.433875 -0.5985856 -0.6733853
vn -0.008951276 -0.6102493 -0.7921588
vn -0.008951278 -0.6102493 -0.7921588
vn -0.008951276 -0.6102493 -0.7921588
vn -0.008951278 -0.6102493 -0.7921588
vn 0.3097674 -0.5476751 -0.7772363
vn 0.3097674 -0.547675 -0.7772364
vn 0.3097674 -0.5476751 -0.7772363
vn 0.3097673 -0.547675 -0.7772363
vn -0.7809785 3.513401E-17 -0.624558
vn -0.7809784 3.5134E-17 -0.624558
vn -0.7809784 3.5134E-17 -0.624558
vn -0.7809785 3.513401E-17 -0.624558
vn -0.9999996 1.221746E-16 -0.0008248198
vn -0.9999996 1.221746E-16 -0.0008248198
vn -0.9999996 1.221746E-16 -0.0008248198
vn -0.9999996 1.221746E-16 -0.0008248198
vn -0.5635543 1.487117E-16 0.826079
vn -0.5635543 1.487117E-16 0.826079
vn -0.5635543 1.487117E-16 0.826079
vn -0.5635543 1.487117E-16 0.826079
vn -0.6884894 1.542433E-16 0.7252464
vn -0.6884894 1.542433E-16 0.7252464
vn -0.6884894 1.542433E-16 0.7252464
vn -0.6884894 1.542433E-16 0.7252464
vn 0.5652086 1.060624E-17 0.824948
vn 0.5652086 1.060624E-17 0.824948
vn 0.5652087 1.060622E-17 0.8249479
vn 0.5652086 1.060624E-17 0.824948
vn 0.7832887 -3.569662E-17 0.621658
vn 0.7832887 -3.569662E-17 0.621658
vn 0.7832887 -3.569662E-17 0.621658
vn 0.7832887 -3.569662E-17 0.621658
vn 0.9636523 -9.19981E-17 0.2671594
vn 0.9636523 -9.19981E-17 0.2671594
vn 0.9636523 -9.19981E-17 0.2671594
vn 0.9636523 -9.19981E-17 0.2671594
vn 0.5877966 -1.500261E-16 -0.8090088
vn 0.5877966 -1.500261E-16 -0.8090088
vn 0.5877966 -1.500261E-16 -0.8090088
vn 0.5877966 -1.500261E-16 -0.8090088
vn 0.1140849 -1.099353E-16 -0.993471
vn 0.1140849 -1.099353E-16 -0.993471
vn 0.1140849 -1.099353E-16 -0.993471
vn 0.1140849 -1.099353E-16 -0.993471
vn 0.2458568 -1.237102E-16 -0.9693062
vn 0.2458567 -1.237102E-16 -0.9693062
vn 0.2458568 -1.237102E-16 -0.9693062
vn 0.2458568 -1.237102E-16 -0.9693062
vn -0.7686097 0.1664345 -0.6176882
vn -0.7686096 0.1664346 -0.6176882
vn -0.7686096 0.1664346 -0.6176882
vn -0.7686096 0.1664346 -0.6176882
vn -0.9850898 0.1719756 0.004725411
vn -0.9850898 0.1719756 0.004725416
vn -0.9850898 0.1719756 0.004725416
vn -0.9850898 0.1719756 0.004725416
vn -0.5156144 0.2179811 0.828629
vn -0.5156143 0.2179811 0.828629
vn -0.5156144 0.2179811 0.828629
vn -0.5156144 0.2179811 0.828629
vn -0.6977416 0.2113021 0.6844765
vn -0.6977416 0.2113021 0.6844765
vn -0.6977416 0.2113021 0.6844765
vn -0.6977415 0.2113021 0.6844766
vn 0.5786883 0.1953938 0.7917961
vn 0.5786883 0.1953938 0.7917961
vn 0.5786882 0.1953938 0.7917961
vn 0.5786883 0.1953938 0.7917961
vn 0.7618503 0.2223189 0.6084064
vn 0.7618503 0.2223189 0.6084065
vn 0.7618503 0.2223189 0.6084064
vn 0.7618503 0.2223189 0.6084064
vn 0.9422683 0.1873458 0.2775468
vn 0.9422683 0.1873458 0.2775468
vn 0.9422683 0.1873458 0.2775468
vn 0.9422683 0.1873458 0.2775468
vn 0.548802 0.1615033 -0.8202031
vn 0.548802 0.1615033 -0.8202031
vn 0.548802 0.1615033 -0.8202031
vn 0.548802 0.1615033 -0.8202031
vn 0.09901192 0.2000732 -0.9747653
vn 0.09901193 0.2000732 -0.9747653
vn 0.09901192 0.2000732 -0.9747653
vn 0.09901193 0.2000732 -0.9747653
vn 0.2775237 0.1502213 -0.9489016
vn 0.2775236 0.1502213 -0.9489016
vn 0.2775237 0.1502213 -0.9489016
vn 0.2775237 0.1502213 -0.9489016
vn -0.4995522 0.7643955 -0.4076115
vn -0.4995522 0.7643954 -0.4076115
vn -0.4995522 0.7643955 -0.4076115
vn -0.4995522 0.7643954 -0.4076115
vn -0.5388169 0.8340408 0.1185424
vn -0.5388169 0.8340407 0.1185424
vn -0.5388169 0.8340408 0.1185424
vn -0.5388169 0.8340408 0.1185423
vn -0.3319723 0.8251037 0.4571634
vn -0.3319723 0.8251037 0.4571634
vn -0.3319723 0.8251037 0.4571634
vn -0.3319723 0.8251037 0.4571634
vn -0.4746424 0.7441638 0.4700372
vn -0.4746423 0.7441638 0.4700371
vn -0.4746423 0.7441638 0.4700371
vn -0.4746423 0.7441638 0.4700371
vn 0.3747422 0.7495798 0.5456173
vn 0.3747422 0.7495799 0.5456173
vn 0.3747423 0.7495798 0.5456173
vn 0.3747422 0.7495798 0.5456173
vn 0.515857 0.7461146 0.4209566
vn 0.515857 0.7461146 0.4209567
vn 0.515857 0.7461145 0.4209567
vn 0.515857 0.7461146 0.4209567
vn 0.6402048 0.7346721 0.2244878
vn 0.6402048 0.7346721 0.2244878
vn 0.6402048 0.7346721 0.2244878
vn 0.6402048 0.7346721 0.2244878
vn 0.2995931 0.7401578 -0.6020052
vn 0.2995932 0.7401578 -0.6020053
vn 0.2995932 0.7401578 -0.6020053
vn 0.2995932 0.7401578 -0.6020053
vn -0.0791593 0.7393947 -0.6686024
vn -0.07915933 0.7393948 -0.6686023
vn -0.07915932 0.7393948 -0.6686025
vn -0.07915929 0.7393947 -0.6686024
vn 0.3688225 0.6682163 -0.646109
vn 0.3688225 0.6682164 -0.646109
vn 0.3688225 0.6682163 -0.646109
vn 0.3688225 0.6682163 -0.646109
vn -0.2871934 0.9279216 -0.2376583
vn -0.2871934 0.9279216 -0.2376583
vn -0.2871934 0.9279216 -0.2376583
vn -0.3996466 0.8815891 0.2511639
vn -0.3996466 0.8815891 0.2511639
vn -0.3996466 0.8815891 0.2511639
vn -0.3753273 0.8726895 0.3123177
vn -0.3753273 0.8726895 0.3123176
vn -0.3753273 0.8726895 0.3123177
vn -0.3156048 0.8750322 0.3670315
vn -0.3156049 0.8750322 0.3670316
vn -0.3156049 0.8750322 0.3670316
vn 0.2052231 0.8899552 0.4072632
vn 0.2052231 0.8899552 0.4072631
vn 0.2052231 0.8899552 0.4072632
vn 0.365116 0.8795233 0.3051704
vn 0.3651159 0.8795233 0.3051703
vn 0.3651159 0.8795233 0.3051703
vn 0.4201266 0.8912815 0.1706191
vn 0.4201265 0.8912815 0.1706191
vn 0.4201266 0.8912815 0.1706191
vn 0.1494246 0.8902901 -0.4301811
vn 0.1494246 0.8902901 -0.4301811
vn 0.1494246 0.8902901 -0.4301812
vn -0.1925618 0.76837 -0.6103504
vn -0.1925617 0.76837 -0.6103503
vn -0.1925617 0.76837 -0.6103503
vn 0.4597829 0.7155334 -0.5259389
vn 0.4597829 0.7155334 -0.5259388
vn 0.4597829 0.7155334 -0.5259389

vt 0.5482839 0.007647395
vt 0.5 0.15
vt 0.6264089 0.06440853
vt 0.4517161 0.00764741
vt 0.3735911 0.06440856
vt 0.34375 0.15625
vt 0.3735911 0.2480915
vt 0.4517161 0.3048526
vt 0.5482839 0.3048526
vt 0.6264089 0.2480914
vt 0.65625 0.15625
vt 0 0
vt 0 1
vt 1 1
vt 1 0
vt 0 0
vt 0 1
vt 1 1
vt 1 0
vt 0 0
vt 0 1
vt 1 1
vt 1 0
vt 0 0
vt 0 1
vt 1 1
vt 1 0
vt 0 0
vt 0 1
vt 1 1
vt 1 0
vt 0 0
vt 0 1
vt 1 1
vt 1 0
vt 0 0
vt 0 1
vt 1 1
vt 1 0
vt 0 0
vt 0 1
vt 1 1
vt 1 0
vt 0 0
vt 0 1
vt 1 1
vt 1 0
vt 0 0
vt 0 1
vt 1 1
vt 1 0
vt 0 0
vt 0 1
vt 1 1
vt 1 0
vt 0 0
vt 0 1
vt 1 1
vt 1 0
vt 0 0
vt 0 1
vt 1 1
vt 1 0
vt 0 0
vt 0 1
vt 1 1
vt 1 0
vt 0 0
vt 0 1
vt 1 1
vt 1 0
vt 0 0
vt 0 1
vt 1 1
vt 1 0
vt 0 0
vt 0 1
vt 1 1
vt 1 0
vt 0 0
vt 0 1
vt 1 1
vt 1 0
vt 0 0
vt 0 1
vt 1 1
vt 1 0
vt 0 0
vt 0 1
vt 1 1
vt 1 0
vt 0 0
vt 0 1
vt 1 1
vt 1 0
vt 0 0
vt 0 1
vt 1 1
vt 1 0
vt 0 0
vt 0 1
vt 1 1
vt 1 0
vt 0 0
vt 0 1
vt 1 1
vt 1 0
vt 0 0
vt 0 1
vt 1 1
vt 1 0
vt 0 0
vt 0 1
vt 1 1
vt 1 0
vt 0 0
vt 0 1
vt 1 1
vt 1 0
vt 0 0
vt 0 1
vt 1 1
vt 1 0
vt 0 0
vt 0 1
vt 1 1
vt 1 0
vt 0 0
vt 0 1
vt 1 1
vt 1 0
vt 0 0
vt 0 1
vt 1 1
vt 1 0
vt 0 0
vt 0 1
vt 1 1
vt 1 0
vt 0 0
vt 0 1
vt 1 1
vt 1 0
vt 0 0
vt 0 1
vt 1 1
vt 1 0
vt 0 0
vt 0 1
vt 1 1
vt 1 0
vt 0 0
vt 0 1
vt 1 1
vt 1 0
vt 0 0
vt 0 1
vt 1 1
vt 1 0
vt 0 0
vt 0 1
vt 1 1
vt 1 0
vt 0 0
vt 0 1
vt 1 1
vt 1 0
vt 0 0
vt 0 1
vt 1 1
vt 1 0
vt 0 0
vt 0.5 1
vt 1 0
vt 0 0
vt 0.5 1
vt 1 0
vt 0 0
vt 0.5 1
vt 1 0
vt 0 0
vt 0.5 1
vt 1 0
vt 0 0
vt 0.5 1
vt 1 0
vt 0 0
vt 0.5 1
vt 1 0
vt 0 0
vt 0.5 1
vt 1 0
vt 0 0
vt 0.5 1
vt 1 0
vt 0 0
vt 0.5 1
vt 1 0
vt 0 0
vt 0.5 1
vt 1 0

g Foliage2_37_4119_71
usemtl Foliage2_37_4119_71
usemap Foliage2_37_4119_71
f 1/1/1 3/3/3 2/2/2
f 4/4/4 1/1/1 2/2/2
f 5/5/5 4/4/4 2/2/2
f 6/6/6 5/5/5 2/2/2
f 7/7/7 6/6/6 2/2/2
f 8/8/8 7/7/7 2/2/2
f 9/9/9 8/8/8 2/2/2
f 10/10/10 9/9/9 2/2/2
f 11/11/11 10/10/10 2/2/2
f 3/3/3 11/11/11 2/2/2
f 12/12/12 14/14/14 13/13/13
f 12/12/12 15/15/15 14/14/14
f 16/16/16 18/18/18 17/17/17
f 16/16/16 19/19/19 18/18/18
f 20/20/20 22/22/22 21/21/21
f 20/20/20 23/23/23 22/22/22
f 24/24/24 26/26/26 25/25/25
f 24/24/24 27/27/27 26/26/26
f 28/28/28 30/30/30 29/29/29
f 28/28/28 31/31/31 30/30/30
f 32/32/32 34/34/34 33/33/33
f 32/32/32 35/35/35 34/34/34
f 36/36/36 38/38/38 37/37/37
f 36/36/36 39/39/39 38/38/38
f 40/40/40 42/42/42 41/41/41
f 40/40/40 43/43/43 42/42/42
f 44/44/44 46/46/46 45/45/45
f 44/44/44 47/47/47 46/46/46
f 48/48/48 50/50/50 49/49/49
f 48/48/48 51/51/51 50/50/50
f 52/52/52 54/54/54 53/53/53
f 52/52/52 55/55/55 54/54/54
f 56/56/56 58/58/58 57/57/57
f 56/56/56 59/59/59 58/58/58
f 60/60/60 62/62/62 61/61/61
f 60/60/60 63/63/63 62/62/62
f 64/64/64 66/66/66 65/65/65
f 64/64/64 67/67/67 66/66/66
f 68/68/68 70/70/70 69/69/69
f 68/68/68 71/71/71 70/70/70
f 72/72/72 74/74/74 73/73/73
f 72/72/72 75/75/75 74/74/74
f 76/76/76 78/78/78 77/77/77
f 76/76/76 79/79/79 78/78/78
f 80/80/80 82/82/82 81/81/81
f 80/80/80 83/83/83 82/82/82
f 84/84/84 86/86/86 85/85/85
f 84/84/84 87/87/87 86/86/86
f 88/88/88 90/90/90 89/89/89
f 88/88/88 91/91/91 90/90/90
f 92/92/92 94/94/94 93/93/93
f 92/92/92 95/95/95 94/94/94
f 96/96/96 98/98/98 97/97/97
f 96/96/96 99/99/99 98/98/98
f 100/100/100 102/102/102 101/101/101
f 100/100/100 103/103/103 102/102/102
f 104/104/104 106/106/106 105/105/105
f 104/104/104 107/107/107 106/106/106
f 108/108/108 110/110/110 109/109/109
f 108/108/108 111/111/111 110/110/110
f 112/112/112 114/114/114 113/113/113
f 112/112/112 115/115/115 114/114/114
f 116/116/116 118/118/118 117/117/117
f 116/116/116 119/119/119 118/118/118
f 120/120/120 122/122/122 121/121/121
f 120/120/120 123/123/123 122/122/122
f 124/124/124 126/126/126 125/125/125
f 124/124/124 127/127/127 126/126/126
f 128/128/128 130/130/130 129/129/129
f 128/128/128 131/131/131 130/130/130
f 132/132/132 134/134/134 133/133/133
f 132/132/132 135/135/135 134/134/134
f 136/136/136 138/138/138 137/137/137
f 136/136/136 139/139/139 138/138/138
f 140/140/140 142/142/142 141/141/141
f 140/140/140 143/143/143 142/142/142
f 144/144/144 146/146/146 145/145/145
f 144/144/144 147/147/147 146/146/146
f 148/148/148 150/150/150 149/149/149
f 148/148/148 151/151/151 150/150/150
f 152/152/152 154/154/154 153/153/153
f 152/152/152 155/155/155 154/154/154
f 156/156/156 158/158/158 157/157/157
f 156/156/156 159/159/159 158/158/158
f 160/160/160 162/162/162 161/161/161
f 160/160/160 163/163/163 162/162/162
f 164/164/164 166/166/166 165/165/165
f 164/164/164 167/167/167 166/166/166
f 168/168/168 170/170/170 169/169/169
f 168/168/168 171/171/171 170/170/170
f 172/172/172 174/174/174 173/173/173
f 175/175/175 177/177/177 176/176/176
f 178/178/178 180/180/180 179/179/179
f 181/181/181 183/183/183 182/182/182
f 184/184/184 186/186/186 185/185/185
f 187/187/187 189/189/189 188/188/188
f 190/190/190 192/192/192 191/191/191
f 193/193/193 195/195/195 194/194/194
f 196/196/196 198/198/198 197/197/197
f 199/199/199 201/201/201 200/200/200
