#Foliage_18_3529_68.obj

v 0.01454543 -0.02577573 -0.04035833
v 0.004623983 -0.03397605 0.001091369
v 0.03878462 -0.02577561 -0.02105483
v -0.009663294 -0.0257756 -0.03817543
v -0.01825067 -0.02577565 -0.01778045
v -0.038222 -0.02223215 0.001091336
v -0.02135074 -0.02577563 0.01996315
v -0.005297474 -0.02577571 0.03271796
v 0.02109416 -0.02577573 0.04035814
v 0.0305987 -0.02577561 0.01996314
v 0.03218959 -0.02223215 0.001091372
v 0.03878462 -0.02577561 -0.02105483
v 0.04796702 -0.01489243 -0.02772621
v 0.01805279 -0.01489239 -0.05115286
v 0.01454543 -0.02577573 -0.04035833
v 0.01454543 -0.02577573 -0.04035833
v 0.01805279 -0.01489239 -0.05115286
v -0.01317065 -0.01489241 -0.04896992
v -0.009663294 -0.0257756 -0.03817543
v -0.009663294 -0.0257756 -0.03817543
v -0.01317065 -0.01489241 -0.04896992
v -0.02743306 -0.0148924 -0.02445186
v -0.01825067 -0.02577565 -0.01778045
v -0.01825067 -0.02577565 -0.01778045
v -0.02743306 -0.0148924 -0.02445186
v -0.0479668 -0.01288816 0.001091359
v -0.038222 -0.02223215 0.001091336
v -0.038222 -0.02223215 0.001091336
v -0.0479668 -0.01288816 0.001091359
v -0.03053313 -0.01489239 0.02663454
v -0.02135074 -0.02577563 0.01996315
v -0.02135074 -0.02577563 0.01996315
v -0.03053313 -0.01489239 0.02663454
v -0.008804824 -0.01489247 0.04351244
v -0.005297474 -0.02577571 0.03271796
v -0.005297474 -0.02577571 0.03271796
v -0.008804824 -0.01489247 0.04351244
v 0.02460152 -0.01489234 0.05115261
v 0.02109416 -0.02577573 0.04035814
v 0.02109416 -0.02577573 0.04035814
v 0.02460152 -0.01489234 0.05115261
v 0.03978109 -0.01489244 0.02663456
v 0.0305987 -0.02577561 0.01996314
v 0.0305987 -0.02577561 0.01996314
v 0.03978109 -0.01489244 0.02663456
v 0.04193439 -0.01288819 0.001091369
v 0.03218959 -0.02223215 0.001091372
v 0.03218959 -0.02223215 0.001091372
v 0.04193439 -0.01288819 0.001091369
v 0.04796702 -0.01489243 -0.02772621
v 0.03878462 -0.02577561 -0.02105483
v 0.04796702 -0.01489243 -0.02772621
v 0.04796701 -0.000148318 -0.0277262
v 0.01805279 -0.0001482793 -0.05115285
v 0.01805279 -0.01489239 -0.05115286
v 0.01805279 -0.01489239 -0.05115286
v 0.01805279 -0.0001482793 -0.05115285
v -0.01317064 -0.0001482981 -0.04896995
v -0.01317065 -0.01489241 -0.04896992
v -0.01317065 -0.01489241 -0.04896992
v -0.01317064 -0.0001482981 -0.04896995
v -0.02743306 -0.0001482884 -0.02445185
v -0.02743306 -0.0148924 -0.02445186
v -0.02743306 -0.0148924 -0.02445186
v -0.02743306 -0.0001482884 -0.02445185
v -0.0479668 -0.0002294559 0.001091343
v -0.0479668 -0.01288816 0.001091359
v -0.0479668 -0.01288816 0.001091359
v -0.0479668 -0.0002294559 0.001091343
v -0.03053314 -0.0001482825 0.02663455
v -0.03053313 -0.01489239 0.02663454
v -0.03053313 -0.01489239 0.02663454
v -0.03053314 -0.0001482825 0.02663455
v -0.008804826 -0.0001483596 0.04351245
v -0.008804824 -0.01489247 0.04351244
v -0.008804824 -0.01489247 0.04351244
v -0.008804826 -0.0001483596 0.04351245
v 0.02460151 -0.0001483812 0.05115262
v 0.02460152 -0.01489234 0.05115261
v 0.02460152 -0.01489234 0.05115261
v 0.02460151 -0.0001483812 0.05115262
v 0.0397811 -0.0001483276 0.02663453
v 0.03978109 -0.01489244 0.02663456
v 0.03978109 -0.01489244 0.02663456
v 0.0397811 -0.0001483276 0.02663453
v 0.0419344 -0.000229485 0.001091352
v 0.04193439 -0.01288819 0.001091369
v 0.04193439 -0.01288819 0.001091369
v 0.0419344 -0.000229485 0.001091352
v 0.04796701 -0.000148318 -0.0277262
v 0.04796702 -0.01489243 -0.02772621
v 0.04796701 -0.000148318 -0.0277262
v 0.04568901 0.01428339 -0.0253969
v 0.01714522 0.01428338 -0.04799134
v 0.01805279 -0.0001482793 -0.05115285
v 0.01805279 -0.0001482793 -0.05115285
v 0.01714522 0.01428338 -0.04799134
v -0.01182899 0.01428339 -0.04559775
v -0.01317064 -0.0001482981 -0.04896995
v -0.01317064 -0.0001482981 -0.04896995
v -0.01182899 0.01428339 -0.04559775
v -0.02321016 0.01428329 -0.02180647
v -0.02743306 -0.0001482884 -0.02445185
v -0.02743306 -0.0001482884 -0.02445185
v -0.02321016 0.01428329 -0.02180647
v -0.04530397 0.01197213 0.001196701
v -0.0479668 -0.0002294559 0.001091343
v -0.0479668 -0.0002294559 0.001091343
v -0.04530397 0.01197213 0.001196701
v -0.02660947 0.01428341 0.02419987
v -0.03053314 -0.0001482825 0.02663455
v -0.03053314 -0.0001482825 0.02663455
v -0.02660947 0.01428341 0.02419987
v -0.007041749 0.01428338 0.03961345
v -0.008804826 -0.0001483596 0.04351245
v -0.008804826 -0.0001483596 0.04351245
v -0.007041749 0.01428338 0.03961345
v 0.02432607 0.01428338 0.04799113
v 0.02460151 -0.0001483812 0.05115262
v 0.02460151 -0.0001483812 0.05115262
v 0.02432607 0.01428338 0.04799113
v 0.03671294 0.01428342 0.0241999
v 0.0397811 -0.0001483276 0.02663453
v 0.0397811 -0.0001483276 0.02663453
v 0.03671294 0.01428342 0.0241999
v 0.03865211 0.01197203 0.001196713
v 0.0419344 -0.000229485 0.001091352
v 0.0419344 -0.000229485 0.001091352
v 0.03865211 0.01197203 0.001196713
v 0.04568901 0.01428339 -0.0253969
v 0.04796701 -0.000148318 -0.0277262
v 0.04568901 0.01428339 -0.0253969
v 0.03225257 0.02437435 -0.01614776
v 0.01203657 0.02437444 -0.03256873
v 0.01714522 0.01428338 -0.04799134
v 0.01714522 0.01428338 -0.04799134
v 0.01203657 0.02437444 -0.03256873
v -0.002592119 0.02437433 -0.02139392
v -0.01182899 0.01428339 -0.04559775
v -0.01182899 0.01428339 -0.04559775
v -0.002592119 0.02437433 -0.02139392
v -0.011253 0.02437434 -0.01279534
v -0.02321016 0.01428329 -0.02180647
v -0.02321016 0.01428329 -0.02180647
v -0.011253 0.02437434 -0.01279534
v -0.0312446 0.0207464 0.00111736
v -0.04530397 0.01197213 0.001196701
v -0.04530397 0.01197213 0.001196701
v -0.0312446 0.0207464 0.00111736
v -0.01442701 0.02437444 0.01503012
v -0.02660947 0.01428341 0.02419987
v -0.02660947 0.01428341 0.02419987
v -0.01442701 0.02437444 0.01503012
v -0.002592119 0.02437435 0.02474612
v -0.007041749 0.01428338 0.03961345
v -0.007041749 0.01428338 0.03961345
v -0.002592119 0.02437435 0.02474612
v 0.01874145 0.02437439 0.03256849
v 0.02432607 0.01428338 0.04799113
v 0.02432607 0.01428338 0.04799113
v 0.01874145 0.02437439 0.03256849
v 0.02387146 0.02437434 0.0150301
v 0.03671294 0.01428342 0.0241999
v 0.03671294 0.01428342 0.0241999
v 0.02387146 0.02437434 0.0150301
v 0.02504429 0.02074654 0.0011174
v 0.03865211 0.01197203 0.001196713
v 0.03865211 0.01197203 0.001196713
v 0.02504429 0.02074654 0.0011174
v 0.03225257 0.02437435 -0.01614776
v 0.04568901 0.01428339 -0.0253969
v 0.03225257 0.02437435 -0.01614776
v 0.004623974 0.03397612 0.001091336
v 0.01203657 0.02437444 -0.03256873
v 0.01203657 0.02437444 -0.03256873
v 0.004623974 0.03397612 0.001091336
v -0.002592119 0.02437433 -0.02139392
v -0.002592119 0.02437433 -0.02139392
v 0.004623974 0.03397612 0.001091336
v -0.011253 0.02437434 -0.01279534
v -0.011253 0.02437434 -0.01279534
v 0.004623974 0.03397612 0.001091336
v -0.0312446 0.0207464 0.00111736
v -0.0312446 0.0207464 0.00111736
v 0.004623974 0.03397612 0.001091336
v -0.01442701 0.02437444 0.01503012
v -0.01442701 0.02437444 0.01503012
v 0.004623974 0.03397612 0.001091336
v -0.002592119 0.02437435 0.02474612
v -0.002592119 0.02437435 0.02474612
v 0.004623974 0.03397612 0.001091336
v 0.01874145 0.02437439 0.03256849
v 0.01874145 0.02437439 0.03256849
v 0.004623974 0.03397612 0.001091336
v 0.02387146 0.02437434 0.0150301
v 0.02387146 0.02437434 0.0150301
v 0.004623974 0.03397612 0.001091336
v 0.02504429 0.02074654 0.0011174
v 0.02504429 0.02074654 0.0011174
v 0.004623974 0.03397612 0.001091336
v 0.03225257 0.02437435 -0.01614776

vn 0.1470678 -0.988877 0.02220474
vn -0.0422437 -0.9990538 0.01032866
vn 0.06089972 -0.9803227 0.1877719
vn 0.1061828 -0.9875758 -0.1158402
vn -0.005877346 -0.9632415 -0.2685722
vn -0.08906688 -0.9635838 -0.2521368
vn -0.2036379 -0.9617972 -0.1829684
vn -0.2793084 -0.9596061 -0.0338017
vn -0.2020944 -0.9731771 0.1099263
vn 0.003919948 -0.9571117 0.2896922
vn -0.03910227 -0.9110419 0.4104553
vn 0.6184017 -0.7284354 0.2948917
vn 0.6184016 -0.7284354 0.2948916
vn 0.6184016 -0.7284354 0.2948917
vn 0.6184016 -0.7284354 0.2948916
vn 0.6424879 -0.7331597 -0.2229032
vn 0.6424879 -0.7331598 -0.2229032
vn 0.6424879 -0.7331597 -0.2229032
vn 0.642488 -0.7331597 -0.2229033
vn 0.1358106 -0.6748456 -0.7253542
vn 0.1358106 -0.6748456 -0.7253543
vn 0.1358106 -0.6748456 -0.7253542
vn 0.1358105 -0.6748456 -0.7253543
vn 0.255288 -0.7037356 -0.6630114
vn 0.2552879 -0.7037355 -0.6630116
vn 0.255288 -0.7037355 -0.6630115
vn 0.2552879 -0.7037355 -0.6630115
vn -0.5504986 -0.6767744 -0.4888019
vn -0.5504986 -0.6767744 -0.4888019
vn -0.5504986 -0.6767744 -0.488802
vn -0.5504986 -0.6767744 -0.488802
vn -0.679282 -0.6780699 -0.2807077
vn -0.679282 -0.6780699 -0.2807078
vn -0.6792819 -0.6780699 -0.2807078
vn -0.6792819 -0.6780699 -0.2807078
vn -0.7499486 -0.6614735 0.005435422
vn -0.7499486 -0.6614735 0.005435392
vn -0.7499487 -0.6614735 0.005435437
vn -0.7499486 -0.6614735 0.005435422
vn -0.2144914 -0.6530337 0.7263197
vn -0.2144914 -0.6530337 0.7263197
vn -0.2144914 -0.6530337 0.7263197
vn -0.2144913 -0.6530337 0.7263198
vn 0.1744194 -0.6809155 0.7112888
vn 0.1744193 -0.6809155 0.7112888
vn 0.1744194 -0.6809155 0.7112888
vn 0.1744194 -0.6809155 0.7112888
vn -0.08588634 -0.6055949 0.7911246
vn -0.08588631 -0.6055948 0.7911247
vn -0.08588634 -0.6055949 0.7911246
vn -0.08588633 -0.6055949 0.7911246
vn 0.9144238 -0.03553956 0.4031947
vn 0.9144238 -0.03553956 0.4031947
vn 0.9144238 -0.03553956 0.4031947
vn 0.9144238 -0.03553956 0.4031947
vn 0.9485225 -0.04324808 -0.3137428
vn 0.9485225 -0.04324808 -0.3137428
vn 0.9485225 -0.04324808 -0.3137428
vn 0.9485225 -0.04324808 -0.3137428
vn 0.2733607 -0.02006207 -0.9617024
vn 0.2733607 -0.02006207 -0.9617024
vn 0.2733607 -0.02006207 -0.9617024
vn 0.2733607 -0.02006207 -0.9617024
vn 0.4141161 -0.02562176 -0.9098634
vn 0.4141161 -0.02562176 -0.9098635
vn 0.4141161 -0.02562176 -0.9098634
vn 0.4141161 -0.02562176 -0.9098634
vn -0.7496811 0.02625264 -0.6612782
vn -0.7496811 0.02625264 -0.6612782
vn -0.7496812 0.02625264 -0.6612782
vn -0.7496811 0.02625264 -0.6612782
vn -0.9160077 0.03563878 -0.3995743
vn -0.9160077 0.03563878 -0.3995743
vn -0.9160077 0.03563878 -0.3995743
vn -0.9160077 0.03563878 -0.3995743
vn -0.9987799 0.04287227 0.02450471
vn -0.9987799 0.04287227 0.02450471
vn -0.9987799 0.04287227 0.02450471
vn -0.9987799 0.04287227 0.02450471
vn -0.2996772 0.02111721 0.953807
vn -0.2996772 0.02111721 0.953807
vn -0.2996772 0.02111721 0.953807
vn -0.2996772 0.02111721 0.953807
vn 0.1647101 0.001566626 0.9863408
vn 0.1647101 0.001566627 0.9863408
vn 0.1647101 0.001566626 0.9863408
vn 0.1647101 0.001566627 0.9863408
vn 0.04330632 0.006862598 0.9990383
vn 0.04330634 0.006862597 0.9990383
vn 0.04330632 0.006862598 0.9990383
vn 0.04330632 0.006862598 0.9990383
vn 0.9015606 0.1778921 0.3943891
vn 0.9015605 0.1778921 0.3943891
vn 0.9015605 0.1778921 0.3943891
vn 0.9015605 0.1778921 0.3943891
vn 0.9325812 0.1788782 -0.3135198
vn 0.9325812 0.1788782 -0.3135198
vn 0.9325812 0.1788782 -0.3135198
vn 0.9325812 0.1788782 -0.3135198
vn 0.2388243 0.2407382 -0.9407488
vn 0.2388243 0.2407382 -0.9407488
vn 0.2388244 0.2407382 -0.9407488
vn 0.2388243 0.2407381 -0.9407488
vn 0.4407427 0.2284821 -0.868068
vn 0.4407427 0.2284821 -0.8680679
vn 0.4407427 0.2284821 -0.868068
vn 0.4407426 0.2284822 -0.8680679
vn -0.73613 0.2700418 -0.6206368
vn -0.73613 0.2700418 -0.6206368
vn -0.7361299 0.2700417 -0.6206368
vn -0.73613 0.2700417 -0.6206368
vn -0.8654788 0.3161045 -0.3886184
vn -0.8654787 0.3161045 -0.3886185
vn -0.8654788 0.3161046 -0.3886185
vn -0.8654788 0.3161046 -0.3886185
vn -0.9589278 0.2836128 0.004603162
vn -0.9589278 0.2836128 0.004603177
vn -0.9589278 0.2836128 0.004603162
vn -0.9589278 0.2836128 0.004603162
vn -0.2521284 0.2121923 0.9441429
vn -0.2521284 0.2121923 0.9441429
vn -0.2521284 0.2121923 0.9441428
vn -0.2521284 0.2121923 0.9441429
vn 0.1815955 0.2379481 0.9541508
vn 0.1815955 0.2379481 0.9541509
vn 0.1815955 0.2379481 0.9541509
vn 0.1815955 0.2379481 0.9541509
vn 0.01790299 0.1862333 0.9823425
vn 0.01790302 0.1862333 0.9823425
vn 0.01790299 0.1862333 0.9823425
vn 0.01790299 0.1862334 0.9823425
vn 0.5339774 0.8167318 0.218671
vn 0.5339775 0.8167318 0.218671
vn 0.5339774 0.8167318 0.218671
vn 0.5339775 0.8167318 0.218671
vn 0.4285317 0.8688101 -0.2480511
vn 0.4285317 0.86881 -0.2480511
vn 0.4285317 0.8688101 -0.2480511
vn 0.4285317 0.8688101 -0.2480511
vn 0.1850857 0.8580776 -0.479005
vn 0.1850857 0.8580776 -0.479005
vn 0.1850857 0.8580776 -0.479005
vn 0.1850857 0.8580776 -0.479005
vn 0.2957501 0.7883292 -0.5395077
vn 0.2957501 0.7883293 -0.5395077
vn 0.2957501 0.7883293 -0.5395077
vn 0.2957501 0.7883293 -0.5395077
vn -0.3961784 0.8328556 -0.3865149
vn -0.3961784 0.8328557 -0.3865148
vn -0.3961784 0.8328556 -0.3865149
vn -0.3961784 0.8328556 -0.3865149
vn -0.4828824 0.841556 -0.2420909
vn -0.4828824 0.8415558 -0.2420909
vn -0.4828825 0.8415558 -0.2420909
vn -0.4828824 0.8415558 -0.2420909
vn -0.54023 0.8407774 -0.03527725
vn -0.54023 0.8407774 -0.03527723
vn -0.54023 0.8407774 -0.03527723
vn -0.54023 0.8407774 -0.03527723
vn -0.05704607 0.8045815 0.5910956
vn -0.05704607 0.8045815 0.5910957
vn -0.0570461 0.8045815 0.5910957
vn -0.05704607 0.8045815 0.5910957
vn 0.2571044 0.7931055 0.5521601
vn 0.2571043 0.7931055 0.55216
vn 0.2571044 0.7931055 0.55216
vn 0.2571044 0.7931055 0.5521601
vn -0.1061067 0.7435237 0.6602376
vn -0.1061067 0.7435238 0.6602376
vn -0.1061067 0.7435237 0.6602376
vn -0.1061067 0.7435237 0.6602376
vn 0.3107032 0.943339 0.1165099
vn 0.3107032 0.943339 0.1165099
vn 0.3107032 0.943339 0.1165099
vn 0.2846195 0.9040845 -0.3187832
vn 0.2846196 0.9040845 -0.3187832
vn 0.2846195 0.9040845 -0.3187831
vn 0.2518164 0.8966861 -0.3640636
vn 0.2518164 0.8966861 -0.3640636
vn 0.2518164 0.8966861 -0.3640636
vn 0.1932444 0.8987122 -0.3936659
vn 0.1932444 0.8987122 -0.3936659
vn 0.1932444 0.8987122 -0.3936659
vn -0.2102048 0.9317198 -0.2961617
vn -0.2102048 0.9317198 -0.2961617
vn -0.2102048 0.9317198 -0.2961617
vn -0.3110636 0.9346443 -0.1722766
vn -0.3110636 0.9346443 -0.1722766
vn -0.3110636 0.9346443 -0.1722766
vn -0.320435 0.946198 -0.04505668
vn -0.320435 0.946198 -0.0450567
vn -0.320435 0.946198 -0.04505669
vn 0.02549544 0.9221838 0.3859101
vn 0.02549545 0.9221838 0.3859102
vn 0.02549545 0.9221838 0.3859102
vn 0.3326113 0.8175604 0.4700685
vn 0.3326113 0.8175604 0.4700684
vn 0.3326113 0.8175605 0.4700684
vn -0.20442 0.7930488 0.5738345
vn -0.20442 0.7930488 0.5738344
vn -0.20442 0.7930488 0.5738345

vt 0.5483398 0.007648468
vt 0.5 0.1500244
vt 0.6264648 0.06439209
vt 0.4516602 0.007648468
vt 0.3735352 0.06439209
vt 0.34375 0.15625
vt 0.3735352 0.2480469
vt 0.4516602 0.3049316
vt 0.5483398 0.3049316
vt 0.6264648 0.2480469
vt 0.65625 0.15625
vt 0 0
vt 0 1
vt 1 1
vt 1 0
vt 0 0
vt 0 1
vt 1 1
vt 1 0
vt 0 0
vt 0 1
vt 1 1
vt 1 0
vt 0 0
vt 0 1
vt 1 1
vt 1 0
vt 0 0
vt 0 1
vt 1 1
vt 1 0
vt 0 0
vt 0 1
vt 1 1
vt 1 0
vt 0 0
vt 0 1
vt 1 1
vt 1 0
vt 0 0
vt 0 1
vt 1 1
vt 1 0
vt 0 0
vt 0 1
vt 1 1
vt 1 0
vt 0 0
vt 0 1
vt 1 1
vt 1 0
vt 0 0
vt 0 1
vt 1 1
vt 1 0
vt 0 0
vt 0 1
vt 1 1
vt 1 0
vt 0 0
vt 0 1
vt 1 1
vt 1 0
vt 0 0
vt 0 1
vt 1 1
vt 1 0
vt 0 0
vt 0 1
vt 1 1
vt 1 0
vt 0 0
vt 0 1
vt 1 1
vt 1 0
vt 0 0
vt 0 1
vt 1 1
vt 1 0
vt 0 0
vt 0 1
vt 1 1
vt 1 0
vt 0 0
vt 0 1
vt 1 1
vt 1 0
vt 0 0
vt 0 1
vt 1 1
vt 1 0
vt 0 0
vt 0 1
vt 1 1
vt 1 0
vt 0 0
vt 0 1
vt 1 1
vt 1 0
vt 0 0
vt 0 1
vt 1 1
vt 1 0
vt 0 0
vt 0 1
vt 1 1
vt 1 0
vt 0 0
vt 0 1
vt 1 1
vt 1 0
vt 0 0
vt 0 1
vt 1 1
vt 1 0
vt 0 0
vt 0 1
vt 1 1
vt 1 0
vt 0 0
vt 0 1
vt 1 1
vt 1 0
vt 0 0
vt 0 1
vt 1 1
vt 1 0
vt 0 0
vt 0 1
vt 1 1
vt 1 0
vt 0 0
vt 0 1
vt 1 1
vt 1 0
vt 0 0
vt 0 1
vt 1 1
vt 1 0
vt 0 0
vt 0 1
vt 1 1
vt 1 0
vt 0 0
vt 0 1
vt 1 1
vt 1 0
vt 0 0
vt 0 1
vt 1 1
vt 1 0
vt 0 0
vt 0 1
vt 1 1
vt 1 0
vt 0 0
vt 0 1
vt 1 1
vt 1 0
vt 0 0
vt 0 1
vt 1 1
vt 1 0
vt 0 0
vt 0 1
vt 1 1
vt 1 0
vt 0 0
vt 0 1
vt 1 1
vt 1 0
vt 0 0
vt 0.5 1
vt 1 0
vt 0 0
vt 0.5 1
vt 1 0
vt 0 0
vt 0.5 1
vt 1 0
vt 0 0
vt 0.5 1
vt 1 0
vt 0 0
vt 0.5 1
vt 1 0
vt 0 0
vt 0.5 1
vt 1 0
vt 0 0
vt 0.5 1
vt 1 0
vt 0 0
vt 0.5 1
vt 1 0
vt 0 0
vt 0.5 1
vt 1 0
vt 0 0
vt 0.5 1
vt 1 0

g Foliage_18_3529_68
usemtl Foliage_18_3529_68
usemap Foliage_18_3529_68
f 1/1/1 3/3/3 2/2/2
f 4/4/4 1/1/1 2/2/2
f 5/5/5 4/4/4 2/2/2
f 6/6/6 5/5/5 2/2/2
f 7/7/7 6/6/6 2/2/2
f 8/8/8 7/7/7 2/2/2
f 9/9/9 8/8/8 2/2/2
f 10/10/10 9/9/9 2/2/2
f 11/11/11 10/10/10 2/2/2
f 3/3/3 11/11/11 2/2/2
f 12/12/12 14/14/14 13/13/13
f 12/12/12 15/15/15 14/14/14
f 16/16/16 18/18/18 17/17/17
f 16/16/16 19/19/19 18/18/18
f 20/20/20 22/22/22 21/21/21
f 20/20/20 23/23/23 22/22/22
f 24/24/24 26/26/26 25/25/25
f 24/24/24 27/27/27 26/26/26
f 28/28/28 30/30/30 29/29/29
f 28/28/28 31/31/31 30/30/30
f 32/32/32 34/34/34 33/33/33
f 32/32/32 35/35/35 34/34/34
f 36/36/36 38/38/38 37/37/37
f 36/36/36 39/39/39 38/38/38
f 40/40/40 42/42/42 41/41/41
f 40/40/40 43/43/43 42/42/42
f 44/44/44 46/46/46 45/45/45
f 44/44/44 47/47/47 46/46/46
f 48/48/48 50/50/50 49/49/49
f 48/48/48 51/51/51 50/50/50
f 52/52/52 54/54/54 53/53/53
f 52/52/52 55/55/55 54/54/54
f 56/56/56 58/58/58 57/57/57
f 56/56/56 59/59/59 58/58/58
f 60/60/60 62/62/62 61/61/61
f 60/60/60 63/63/63 62/62/62
f 64/64/64 66/66/66 65/65/65
f 64/64/64 67/67/67 66/66/66
f 68/68/68 70/70/70 69/69/69
f 68/68/68 71/71/71 70/70/70
f 72/72/72 74/74/74 73/73/73
f 72/72/72 75/75/75 74/74/74
f 76/76/76 78/78/78 77/77/77
f 76/76/76 79/79/79 78/78/78
f 80/80/80 82/82/82 81/81/81
f 80/80/80 83/83/83 82/82/82
f 84/84/84 86/86/86 85/85/85
f 84/84/84 87/87/87 86/86/86
f 88/88/88 90/90/90 89/89/89
f 88/88/88 91/91/91 90/90/90
f 92/92/92 94/94/94 93/93/93
f 92/92/92 95/95/95 94/94/94
f 96/96/96 98/98/98 97/97/97
f 96/96/96 99/99/99 98/98/98
f 100/100/100 102/102/102 101/101/101
f 100/100/100 103/103/103 102/102/102
f 104/104/104 106/106/106 105/105/105
f 104/104/104 107/107/107 106/106/106
f 108/108/108 110/110/110 109/109/109
f 108/108/108 111/111/111 110/110/110
f 112/112/112 114/114/114 113/113/113
f 112/112/112 115/115/115 114/114/114
f 116/116/116 118/118/118 117/117/117
f 116/116/116 119/119/119 118/118/118
f 120/120/120 122/122/122 121/121/121
f 120/120/120 123/123/123 122/122/122
f 124/124/124 126/126/126 125/125/125
f 124/124/124 127/127/127 126/126/126
f 128/128/128 130/130/130 129/129/129
f 128/128/128 131/131/131 130/130/130
f 132/132/132 134/134/134 133/133/133
f 132/132/132 135/135/135 134/134/134
f 136/136/136 138/138/138 137/137/137
f 136/136/136 139/139/139 138/138/138
f 140/140/140 142/142/142 141/141/141
f 140/140/140 143/143/143 142/142/142
f 144/144/144 146/146/146 145/145/145
f 144/144/144 147/147/147 146/146/146
f 148/148/148 150/150/150 149/149/149
f 148/148/148 151/151/151 150/150/150
f 152/152/152 154/154/154 153/153/153
f 152/152/152 155/155/155 154/154/154
f 156/156/156 158/158/158 157/157/157
f 156/156/156 159/159/159 158/158/158
f 160/160/160 162/162/162 161/161/161
f 160/160/160 163/163/163 162/162/162
f 164/164/164 166/166/166 165/165/165
f 164/164/164 167/167/167 166/166/166
f 168/168/168 170/170/170 169/169/169
f 168/168/168 171/171/171 170/170/170
f 172/172/172 174/174/174 173/173/173
f 175/175/175 177/177/177 176/176/176
f 178/178/178 180/180/180 179/179/179
f 181/181/181 183/183/183 182/182/182
f 184/184/184 186/186/186 185/185/185
f 187/187/187 189/189/189 188/188/188
f 190/190/190 192/192/192 191/191/191
f 193/193/193 195/195/195 194/194/194
f 196/196/196 198/198/198 197/197/197
f 199/199/199 201/201/201 200/200/200
