#Foliage7_6_3887_225.obj

v 0.01454532 -0.02577554 -0.04035844
v 0.004623868 -0.033976 0.001091276
v 0.0387845 -0.02577561 -0.0210549
v -0.009663426 -0.02577556 -0.03817553
v -0.0182508 -0.02577555 -0.01778052
v -0.03822215 -0.02223212 0.00109127
v -0.02135087 -0.02577557 0.01996306
v -0.005297611 -0.0257756 0.03271788
v 0.021094 -0.02577561 0.04035807
v 0.03059856 -0.02577558 0.01996306
v 0.03218946 -0.02223213 0.001091284
v 0.0387845 -0.02577561 -0.0210549
v 0.04796688 -0.01489229 -0.02772628
v 0.01805267 -0.01489233 -0.05115293
v 0.01454532 -0.02577554 -0.04035844
v 0.01454532 -0.02577554 -0.04035844
v 0.01805267 -0.01489233 -0.05115293
v -0.01317077 -0.01489228 -0.04897003
v -0.009663426 -0.02577556 -0.03817553
v -0.009663426 -0.02577556 -0.03817553
v -0.01317077 -0.01489228 -0.04897003
v -0.02743321 -0.01489232 -0.02445192
v -0.0182508 -0.02577555 -0.01778052
v -0.0182508 -0.02577555 -0.01778052
v -0.02743321 -0.01489232 -0.02445192
v -0.04796695 -0.01288812 0.001091258
v -0.03822215 -0.02223212 0.00109127
v -0.03822215 -0.02223212 0.00109127
v -0.04796695 -0.01288812 0.001091258
v -0.03053329 -0.01489236 0.02663447
v -0.02135087 -0.02577557 0.01996306
v -0.02135087 -0.02577557 0.01996306
v -0.03053329 -0.01489236 0.02663447
v -0.008804982 -0.01489229 0.04351238
v -0.005297611 -0.0257756 0.03271788
v -0.005297611 -0.0257756 0.03271788
v -0.008804982 -0.01489229 0.04351238
v 0.02460136 -0.01489236 0.05115256
v 0.021094 -0.02577561 0.04035807
v 0.021094 -0.02577561 0.04035807
v 0.02460136 -0.01489236 0.05115256
v 0.03978095 -0.01489228 0.0266345
v 0.03059856 -0.02577558 0.01996306
v 0.03059856 -0.02577558 0.01996306
v 0.03978095 -0.01489228 0.0266345
v 0.04193427 -0.0128881 0.001091287
v 0.03218946 -0.02223213 0.001091284
v 0.03218946 -0.02223213 0.001091284
v 0.04193427 -0.0128881 0.001091287
v 0.04796688 -0.01489229 -0.02772628
v 0.0387845 -0.02577561 -0.0210549
v 0.04796688 -0.01489229 -0.02772628
v 0.04796689 -0.0001482463 -0.02772627
v 0.01805266 -0.0001482824 -0.05115292
v 0.01805267 -0.01489233 -0.05115293
v 0.01805267 -0.01489233 -0.05115293
v 0.01805266 -0.0001482824 -0.05115292
v -0.01317078 -0.0001482388 -0.04897002
v -0.01317077 -0.01489228 -0.04897003
v -0.01317077 -0.01489228 -0.04897003
v -0.01317078 -0.0001482388 -0.04897002
v -0.02743318 -0.0001482784 -0.02445192
v -0.02743321 -0.01489232 -0.02445192
v -0.02743321 -0.01489232 -0.02445192
v -0.02743318 -0.0001482784 -0.02445192
v -0.04796695 -0.0002293267 0.00109126
v -0.04796695 -0.01288812 0.001091258
v -0.04796695 -0.01288812 0.001091258
v -0.04796695 -0.0002293267 0.00109126
v -0.03053326 -0.00014823 0.02663448
v -0.03053329 -0.01489236 0.02663447
v -0.03053329 -0.01489236 0.02663447
v -0.03053326 -0.00014823 0.02663448
v -0.008804953 -0.0001482435 0.04351239
v -0.008804982 -0.01489229 0.04351238
v -0.008804982 -0.01489229 0.04351238
v -0.008804953 -0.0001482435 0.04351239
v 0.02460139 -0.00014823 0.05115257
v 0.02460136 -0.01489236 0.05115256
v 0.02460136 -0.01489236 0.05115256
v 0.02460139 -0.00014823 0.05115257
v 0.03978093 -0.0001482373 0.02663447
v 0.03978095 -0.01489228 0.0266345
v 0.03978095 -0.01489228 0.0266345
v 0.03978093 -0.0001482373 0.02663447
v 0.04193424 -0.0002293848 0.001091294
v 0.04193427 -0.0128881 0.001091287
v 0.04193427 -0.0128881 0.001091287
v 0.04193424 -0.0002293848 0.001091294
v 0.04796689 -0.0001482463 -0.02772627
v 0.04796688 -0.01489229 -0.02772628
v 0.04796689 -0.0001482463 -0.02772627
v 0.04568886 0.01428341 -0.025397
v 0.0171451 0.01428346 -0.04799145
v 0.01805266 -0.0001482824 -0.05115292
v 0.01805266 -0.0001482824 -0.05115292
v 0.0171451 0.01428346 -0.04799145
v -0.01182914 0.01428341 -0.04559785
v -0.01317078 -0.0001482388 -0.04897002
v -0.01317078 -0.0001482388 -0.04897002
v -0.01182914 0.01428341 -0.04559785
v -0.02321032 0.01428344 -0.02180657
v -0.02743318 -0.0001482784 -0.02445192
v -0.02743318 -0.0001482784 -0.02445192
v -0.02321032 0.01428344 -0.02180657
v -0.0453041 0.01197216 0.001196641
v -0.04796695 -0.0002293267 0.00109126
v -0.04796695 -0.0002293267 0.00109126
v -0.0453041 0.01197216 0.001196641
v -0.02660961 0.01428345 0.0241998
v -0.03053326 -0.00014823 0.02663448
v -0.03053326 -0.00014823 0.02663448
v -0.02660961 0.01428345 0.0241998
v -0.007041888 0.0142834 0.03961341
v -0.008804953 -0.0001482435 0.04351239
v -0.008804953 -0.0001482435 0.04351239
v -0.007041888 0.0142834 0.03961341
v 0.02432591 0.01428343 0.04799106
v 0.02460139 -0.00014823 0.05115257
v 0.02460139 -0.00014823 0.05115257
v 0.02432591 0.01428343 0.04799106
v 0.03671279 0.01428342 0.02419985
v 0.03978093 -0.0001482373 0.02663447
v 0.03978093 -0.0001482373 0.02663447
v 0.03671279 0.01428342 0.02419985
v 0.03865196 0.01197212 0.001196639
v 0.04193424 -0.0002293848 0.001091294
v 0.04193424 -0.0002293848 0.001091294
v 0.03865196 0.01197212 0.001196639
v 0.04568886 0.01428341 -0.025397
v 0.04796689 -0.0001482463 -0.02772627
v 0.04568886 0.01428341 -0.025397
v 0.03225245 0.02437443 -0.01614783
v 0.01203645 0.02437446 -0.0325688
v 0.0171451 0.01428346 -0.04799145
v 0.0171451 0.01428346 -0.04799145
v 0.01203645 0.02437446 -0.0325688
v -0.002592267 0.02437448 -0.021394
v -0.01182914 0.01428341 -0.04559785
v -0.01182914 0.01428341 -0.04559785
v -0.002592267 0.02437448 -0.021394
v -0.01125312 0.02437448 -0.01279539
v -0.02321032 0.01428344 -0.02180657
v -0.02321032 0.01428344 -0.02180657
v -0.01125312 0.02437448 -0.01279539
v -0.03124475 0.02074651 0.00111729
v -0.0453041 0.01197216 0.001196641
v -0.0453041 0.01197216 0.001196641
v -0.03124475 0.02074651 0.00111729
v -0.01442716 0.02437446 0.01503003
v -0.02660961 0.01428345 0.0241998
v -0.02660961 0.01428345 0.0241998
v -0.01442716 0.02437446 0.01503003
v -0.002592272 0.02437444 0.02474604
v -0.007041888 0.0142834 0.03961341
v -0.007041888 0.0142834 0.03961341
v -0.002592272 0.02437444 0.02474604
v 0.01874131 0.0243745 0.03256841
v 0.02432591 0.01428343 0.04799106
v 0.02432591 0.01428343 0.04799106
v 0.01874131 0.0243745 0.03256841
v 0.02387131 0.02437449 0.01503002
v 0.03671279 0.01428342 0.02419985
v 0.03671279 0.01428342 0.02419985
v 0.02387131 0.02437449 0.01503002
v 0.02504416 0.02074655 0.001117288
v 0.03865196 0.01197212 0.001196639
v 0.03865196 0.01197212 0.001196639
v 0.02504416 0.02074655 0.001117288
v 0.03225245 0.02437443 -0.01614783
v 0.04568886 0.01428341 -0.025397
v 0.03225245 0.02437443 -0.01614783
v 0.004623826 0.03397616 0.001091244
v 0.01203645 0.02437446 -0.0325688
v 0.01203645 0.02437446 -0.0325688
v 0.004623826 0.03397616 0.001091244
v -0.002592267 0.02437448 -0.021394
v -0.002592267 0.02437448 -0.021394
v 0.004623826 0.03397616 0.001091244
v -0.01125312 0.02437448 -0.01279539
v -0.01125312 0.02437448 -0.01279539
v 0.004623826 0.03397616 0.001091244
v -0.03124475 0.02074651 0.00111729
v -0.03124475 0.02074651 0.00111729
v 0.004623826 0.03397616 0.001091244
v -0.01442716 0.02437446 0.01503003
v -0.01442716 0.02437446 0.01503003
v 0.004623826 0.03397616 0.001091244
v -0.002592272 0.02437444 0.02474604
v -0.002592272 0.02437444 0.02474604
v 0.004623826 0.03397616 0.001091244
v 0.01874131 0.0243745 0.03256841
v 0.01874131 0.0243745 0.03256841
v 0.004623826 0.03397616 0.001091244
v 0.02387131 0.02437449 0.01503002
v 0.02387131 0.02437449 0.01503002
v 0.004623826 0.03397616 0.001091244
v 0.02504416 0.02074655 0.001117288
v 0.02504416 0.02074655 0.001117288
v 0.004623826 0.03397616 0.001091244
v 0.03225245 0.02437443 -0.01614783

vn -0.1549259 -0.9826285 -0.1021699
vn 0.01439233 -0.9997381 -0.01777754
vn -0.01080839 -0.9752464 -0.2208554
vn -0.1710913 -0.9844061 0.04088669
vn -0.126818 -0.9658955 0.2257486
vn -0.043852 -0.9690349 0.2429974
vn 0.08862193 -0.9705598 0.223963
vn 0.2165004 -0.9693503 0.1161336
vn 0.201095 -0.9784622 -0.04660403
vn 0.0820429 -0.9529111 -0.2919396
vn 0.1700483 -0.9070123 -0.3852424
vn -0.4749637 -0.7022603 -0.5303206
vn -0.4749637 -0.7022603 -0.5303206
vn -0.4749636 -0.7022603 -0.5303206
vn -0.4749637 -0.7022603 -0.5303206
vn -0.6991888 -0.7121509 -0.06305282
vn -0.6991888 -0.712151 -0.06305282
vn -0.6991888 -0.7121509 -0.06305282
vn -0.6991889 -0.7121509 -0.06305282
vn -0.4271228 -0.6779391 0.5983012
vn -0.4271229 -0.677939 0.5983013
vn -0.4271228 -0.6779391 0.5983012
vn -0.4271229 -0.677939 0.5983013
vn -0.5136015 -0.7017891 0.4936651
vn -0.5136016 -0.701789 0.4936652
vn -0.5136015 -0.701789 0.4936652
vn -0.5136015 -0.701789 0.4936652
vn 0.2967394 -0.7017672 0.6476636
vn 0.2967394 -0.7017672 0.6476636
vn 0.2967394 -0.7017671 0.6476637
vn 0.2967395 -0.7017672 0.6476637
vn 0.4963824 -0.7052633 0.5061699
vn 0.4963824 -0.7052633 0.50617
vn 0.4963824 -0.7052633 0.5061699
vn 0.4963824 -0.7052633 0.5061699
vn 0.6734825 -0.6878824 0.2706267
vn 0.6734825 -0.6878825 0.2706267
vn 0.6734826 -0.6878825 0.2706267
vn 0.6734825 -0.6878824 0.2706267
vn 0.4620144 -0.6518083 -0.6014053
vn 0.4620144 -0.6518083 -0.6014053
vn 0.4620144 -0.6518083 -0.6014053
vn 0.4620145 -0.6518083 -0.6014054
vn 0.09740858 -0.6658724 -0.7396792
vn 0.09740858 -0.6658725 -0.7396792
vn 0.09740858 -0.6658724 -0.7396792
vn 0.09740858 -0.6658724 -0.7396792
vn 0.3702737 -0.5990274 -0.7099741
vn 0.3702737 -0.5990273 -0.7099742
vn 0.3702737 -0.5990274 -0.7099741
vn 0.3702737 -0.5990273 -0.7099741
vn -0.6854071 0.002039006 -0.7281573
vn -0.685407 0.002039008 -0.7281574
vn -0.685407 0.002039008 -0.7281574
vn -0.6854071 0.002039006 -0.7281573
vn -0.9965913 -0.01279528 -0.08150004
vn -0.9965913 -0.01279528 -0.08150004
vn -0.9965913 -0.01279528 -0.08150004
vn -0.9965913 -0.01279528 -0.08150004
vn -0.6272002 -0.02143564 0.778563
vn -0.6272002 -0.02143564 0.778563
vn -0.6272002 -0.02143564 0.778563
vn -0.6272002 -0.02143564 0.778563
vn -0.736693 -0.02133004 0.6758907
vn -0.736693 -0.02133004 0.6758908
vn -0.736693 -0.02133004 0.6758907
vn -0.736693 -0.02133004 0.6758907
vn 0.4328715 -0.008408509 0.9014165
vn 0.4328715 -0.008408509 0.9014165
vn 0.4328716 -0.008408507 0.9014165
vn 0.4328715 -0.008408509 0.9014165
vn 0.6882796 -0.001954566 0.7254431
vn 0.6882796 -0.001954566 0.7254431
vn 0.6882796 -0.001954566 0.7254431
vn 0.6882796 -0.001954566 0.7254431
vn 0.9300442 0.007242818 0.3673764
vn 0.9300442 0.007242818 0.3673764
vn 0.9300442 0.007242818 0.3673764
vn 0.9300442 0.007242818 0.3673764
vn 0.6483727 0.0214525 -0.7610208
vn 0.6483727 0.0214525 -0.7610208
vn 0.6483727 0.0214525 -0.7610208
vn 0.6483727 0.0214525 -0.7610208
vn 0.2330854 0.01897972 -0.972271
vn 0.2330854 0.01897972 -0.972271
vn 0.2330854 0.01897972 -0.972271
vn 0.2330854 0.01897972 -0.972271
vn 0.3499267 0.02005807 -0.9365623
vn 0.3499267 0.02005807 -0.9365623
vn 0.3499267 0.02005807 -0.9365623
vn 0.3499267 0.02005807 -0.9365623
vn -0.6709098 0.2147536 -0.7097614
vn -0.6709098 0.2147536 -0.7097613
vn -0.6709098 0.2147536 -0.7097613
vn -0.6709098 0.2147536 -0.7097613
vn -0.975492 0.2086023 -0.07000348
vn -0.975492 0.2086023 -0.07000347
vn -0.975492 0.2086023 -0.07000347
vn -0.975492 0.2086023 -0.07000347
vn -0.5797981 0.2381819 0.7791684
vn -0.5797981 0.2381819 0.7791685
vn -0.5797982 0.2381819 0.7791684
vn -0.5797981 0.2381818 0.7791684
vn -0.7376481 0.2340363 0.6333263
vn -0.7376481 0.2340363 0.6333262
vn -0.7376481 0.2340363 0.6333263
vn -0.7376481 0.2340363 0.6333263
vn 0.4432064 0.2361672 0.8647504
vn 0.4432064 0.2361672 0.8647504
vn 0.4432064 0.2361672 0.8647504
vn 0.4432064 0.2361671 0.8647504
vn 0.6540511 0.2802541 0.70262
vn 0.6540509 0.2802541 0.7026201
vn 0.654051 0.2802541 0.7026201
vn 0.654051 0.2802541 0.7026201
vn 0.8924754 0.2490114 0.3761398
vn 0.8924754 0.2490114 0.3761398
vn 0.8924754 0.2490114 0.3761398
vn 0.8924754 0.2490114 0.3761398
vn 0.6062946 0.2139869 -0.7659088
vn 0.6062946 0.2139869 -0.7659088
vn 0.6062946 0.2139869 -0.7659088
vn 0.6062946 0.2139869 -0.7659088
vn 0.2117385 0.2554239 -0.9433585
vn 0.2117385 0.2554239 -0.9433586
vn 0.2117385 0.2554239 -0.9433586
vn 0.2117385 0.2554239 -0.9433586
vn 0.3719167 0.1981935 -0.9068612
vn 0.3719167 0.1981935 -0.9068612
vn 0.3719167 0.1981935 -0.9068612
vn 0.3719167 0.1981935 -0.9068612
vn -0.3828802 0.8378825 -0.389044
vn -0.3828803 0.8378825 -0.389044
vn -0.3828802 0.8378825 -0.389044
vn -0.3828803 0.8378825 -0.389044
vn -0.4663479 0.8806952 0.0830372
vn -0.4663479 0.8806951 0.0830372
vn -0.4663479 0.8806952 0.0830372
vn -0.4663479 0.8806952 0.08303717
vn -0.3326533 0.8585319 0.3902105
vn -0.3326533 0.8585319 0.3902105
vn -0.3326533 0.8585319 0.3902105
vn -0.3326533 0.8585319 0.3902105
vn -0.4600922 0.7921041 0.4011057
vn -0.4600922 0.7921041 0.4011057
vn -0.4600922 0.7921041 0.4011057
vn -0.4600922 0.7921041 0.4011057
vn 0.2376828 0.8135222 0.5307431
vn 0.2376828 0.8135223 0.530743
vn 0.2376828 0.8135222 0.5307431
vn 0.2376828 0.8135222 0.5307431
vn 0.3740527 0.8207843 0.4317375
vn 0.3740527 0.8207842 0.4317375
vn 0.3740528 0.8207842 0.4317376
vn 0.3740527 0.8207842 0.4317375
vn 0.5074624 0.8203566 0.2636219
vn 0.5074624 0.8203566 0.2636219
vn 0.5074624 0.8203566 0.2636219
vn 0.5074624 0.8203566 0.2636219
vn 0.305976 0.8088473 -0.5021396
vn 0.305976 0.8088473 -0.5021397
vn 0.305976 0.8088473 -0.5021397
vn 0.305976 0.8088473 -0.5021397
vn 0.001324818 0.8082125 -0.588889
vn 0.001324795 0.8082126 -0.5888889
vn 0.001324795 0.8082126 -0.5888889
vn 0.001324832 0.8082125 -0.588889
vn 0.3763509 0.7468764 -0.548211
vn 0.3763509 0.7468764 -0.548211
vn 0.3763509 0.7468764 -0.548211
vn 0.3763509 0.7468764 -0.548211
vn -0.2136068 0.9551868 -0.2049138
vn -0.2136069 0.9551868 -0.2049138
vn -0.2136068 0.9551868 -0.2049138
vn -0.360469 0.9099495 0.2050695
vn -0.3604691 0.9099495 0.2050695
vn -0.360469 0.9099495 0.2050695
vn -0.3481464 0.9008501 0.2593507
vn -0.3481464 0.9008501 0.2593507
vn -0.3481464 0.9008501 0.2593508
vn -0.3057235 0.9004252 0.3094626
vn -0.3057235 0.9004252 0.3094627
vn -0.3057235 0.9004252 0.3094627
vn 0.1045715 0.9200506 0.3775861
vn 0.1045715 0.9200506 0.377586
vn 0.1045715 0.9200506 0.3775861
vn 0.2457948 0.9207932 0.3028602
vn 0.2457948 0.9207932 0.3028602
vn 0.2457948 0.9207932 0.3028602
vn 0.3043613 0.9334849 0.1896563
vn 0.3043613 0.9334849 0.1896563
vn 0.3043613 0.9334849 0.1896563
vn 0.1533475 0.9269397 -0.3424424
vn 0.1533475 0.9269397 -0.3424424
vn 0.1533475 0.9269397 -0.3424425
vn -0.09948557 0.8344061 -0.5420966
vn -0.09948556 0.8344061 -0.5420965
vn -0.09948556 0.8344061 -0.5420965
vn 0.4345567 0.7918267 -0.429151
vn 0.4345567 0.7918267 -0.4291509
vn 0.4345567 0.7918267 -0.429151

vt 0.5483398 0.007648468
vt 0.5 0.1500244
vt 0.6264648 0.06439209
vt 0.4516602 0.007648468
vt 0.3735352 0.06439209
vt 0.34375 0.15625
vt 0.3735352 0.2480469
vt 0.4516602 0.3049316
vt 0.5483398 0.3049316
vt 0.6264648 0.2480469
vt 0.65625 0.15625
vt 0 0
vt 0 1
vt 1 1
vt 1 0
vt 0 0
vt 0 1
vt 1 1
vt 1 0
vt 0 0
vt 0 1
vt 1 1
vt 1 0
vt 0 0
vt 0 1
vt 1 1
vt 1 0
vt 0 0
vt 0 1
vt 1 1
vt 1 0
vt 0 0
vt 0 1
vt 1 1
vt 1 0
vt 0 0
vt 0 1
vt 1 1
vt 1 0
vt 0 0
vt 0 1
vt 1 1
vt 1 0
vt 0 0
vt 0 1
vt 1 1
vt 1 0
vt 0 0
vt 0 1
vt 1 1
vt 1 0
vt 0 0
vt 0 1
vt 1 1
vt 1 0
vt 0 0
vt 0 1
vt 1 1
vt 1 0
vt 0 0
vt 0 1
vt 1 1
vt 1 0
vt 0 0
vt 0 1
vt 1 1
vt 1 0
vt 0 0
vt 0 1
vt 1 1
vt 1 0
vt 0 0
vt 0 1
vt 1 1
vt 1 0
vt 0 0
vt 0 1
vt 1 1
vt 1 0
vt 0 0
vt 0 1
vt 1 1
vt 1 0
vt 0 0
vt 0 1
vt 1 1
vt 1 0
vt 0 0
vt 0 1
vt 1 1
vt 1 0
vt 0 0
vt 0 1
vt 1 1
vt 1 0
vt 0 0
vt 0 1
vt 1 1
vt 1 0
vt 0 0
vt 0 1
vt 1 1
vt 1 0
vt 0 0
vt 0 1
vt 1 1
vt 1 0
vt 0 0
vt 0 1
vt 1 1
vt 1 0
vt 0 0
vt 0 1
vt 1 1
vt 1 0
vt 0 0
vt 0 1
vt 1 1
vt 1 0
vt 0 0
vt 0 1
vt 1 1
vt 1 0
vt 0 0
vt 0 1
vt 1 1
vt 1 0
vt 0 0
vt 0 1
vt 1 1
vt 1 0
vt 0 0
vt 0 1
vt 1 1
vt 1 0
vt 0 0
vt 0 1
vt 1 1
vt 1 0
vt 0 0
vt 0 1
vt 1 1
vt 1 0
vt 0 0
vt 0 1
vt 1 1
vt 1 0
vt 0 0
vt 0 1
vt 1 1
vt 1 0
vt 0 0
vt 0 1
vt 1 1
vt 1 0
vt 0 0
vt 0 1
vt 1 1
vt 1 0
vt 0 0
vt 0 1
vt 1 1
vt 1 0
vt 0 0
vt 0 1
vt 1 1
vt 1 0
vt 0 0
vt 0 1
vt 1 1
vt 1 0
vt 0 0
vt 0.5 1
vt 1 0
vt 0 0
vt 0.5 1
vt 1 0
vt 0 0
vt 0.5 1
vt 1 0
vt 0 0
vt 0.5 1
vt 1 0
vt 0 0
vt 0.5 1
vt 1 0
vt 0 0
vt 0.5 1
vt 1 0
vt 0 0
vt 0.5 1
vt 1 0
vt 0 0
vt 0.5 1
vt 1 0
vt 0 0
vt 0.5 1
vt 1 0
vt 0 0
vt 0.5 1
vt 1 0

g Foliage7_6_3887_225
usemtl Foliage7_6_3887_225
usemap Foliage7_6_3887_225
f 1/1/1 3/3/3 2/2/2
f 4/4/4 1/1/1 2/2/2
f 5/5/5 4/4/4 2/2/2
f 6/6/6 5/5/5 2/2/2
f 7/7/7 6/6/6 2/2/2
f 8/8/8 7/7/7 2/2/2
f 9/9/9 8/8/8 2/2/2
f 10/10/10 9/9/9 2/2/2
f 11/11/11 10/10/10 2/2/2
f 3/3/3 11/11/11 2/2/2
f 12/12/12 14/14/14 13/13/13
f 12/12/12 15/15/15 14/14/14
f 16/16/16 18/18/18 17/17/17
f 16/16/16 19/19/19 18/18/18
f 20/20/20 22/22/22 21/21/21
f 20/20/20 23/23/23 22/22/22
f 24/24/24 26/26/26 25/25/25
f 24/24/24 27/27/27 26/26/26
f 28/28/28 30/30/30 29/29/29
f 28/28/28 31/31/31 30/30/30
f 32/32/32 34/34/34 33/33/33
f 32/32/32 35/35/35 34/34/34
f 36/36/36 38/38/38 37/37/37
f 36/36/36 39/39/39 38/38/38
f 40/40/40 42/42/42 41/41/41
f 40/40/40 43/43/43 42/42/42
f 44/44/44 46/46/46 45/45/45
f 44/44/44 47/47/47 46/46/46
f 48/48/48 50/50/50 49/49/49
f 48/48/48 51/51/51 50/50/50
f 52/52/52 54/54/54 53/53/53
f 52/52/52 55/55/55 54/54/54
f 56/56/56 58/58/58 57/57/57
f 56/56/56 59/59/59 58/58/58
f 60/60/60 62/62/62 61/61/61
f 60/60/60 63/63/63 62/62/62
f 64/64/64 66/66/66 65/65/65
f 64/64/64 67/67/67 66/66/66
f 68/68/68 70/70/70 69/69/69
f 68/68/68 71/71/71 70/70/70
f 72/72/72 74/74/74 73/73/73
f 72/72/72 75/75/75 74/74/74
f 76/76/76 78/78/78 77/77/77
f 76/76/76 79/79/79 78/78/78
f 80/80/80 82/82/82 81/81/81
f 80/80/80 83/83/83 82/82/82
f 84/84/84 86/86/86 85/85/85
f 84/84/84 87/87/87 86/86/86
f 88/88/88 90/90/90 89/89/89
f 88/88/88 91/91/91 90/90/90
f 92/92/92 94/94/94 93/93/93
f 92/92/92 95/95/95 94/94/94
f 96/96/96 98/98/98 97/97/97
f 96/96/96 99/99/99 98/98/98
f 100/100/100 102/102/102 101/101/101
f 100/100/100 103/103/103 102/102/102
f 104/104/104 106/106/106 105/105/105
f 104/104/104 107/107/107 106/106/106
f 108/108/108 110/110/110 109/109/109
f 108/108/108 111/111/111 110/110/110
f 112/112/112 114/114/114 113/113/113
f 112/112/112 115/115/115 114/114/114
f 116/116/116 118/118/118 117/117/117
f 116/116/116 119/119/119 118/118/118
f 120/120/120 122/122/122 121/121/121
f 120/120/120 123/123/123 122/122/122
f 124/124/124 126/126/126 125/125/125
f 124/124/124 127/127/127 126/126/126
f 128/128/128 130/130/130 129/129/129
f 128/128/128 131/131/131 130/130/130
f 132/132/132 134/134/134 133/133/133
f 132/132/132 135/135/135 134/134/134
f 136/136/136 138/138/138 137/137/137
f 136/136/136 139/139/139 138/138/138
f 140/140/140 142/142/142 141/141/141
f 140/140/140 143/143/143 142/142/142
f 144/144/144 146/146/146 145/145/145
f 144/144/144 147/147/147 146/146/146
f 148/148/148 150/150/150 149/149/149
f 148/148/148 151/151/151 150/150/150
f 152/152/152 154/154/154 153/153/153
f 152/152/152 155/155/155 154/154/154
f 156/156/156 158/158/158 157/157/157
f 156/156/156 159/159/159 158/158/158
f 160/160/160 162/162/162 161/161/161
f 160/160/160 163/163/163 162/162/162
f 164/164/164 166/166/166 165/165/165
f 164/164/164 167/167/167 166/166/166
f 168/168/168 170/170/170 169/169/169
f 168/168/168 171/171/171 170/170/170
f 172/172/172 174/174/174 173/173/173
f 175/175/175 177/177/177 176/176/176
f 178/178/178 180/180/180 179/179/179
f 181/181/181 183/183/183 182/182/182
f 184/184/184 186/186/186 185/185/185
f 187/187/187 189/189/189 188/188/188
f 190/190/190 192/192/192 191/191/191
f 193/193/193 195/195/195 194/194/194
f 196/196/196 198/198/198 197/197/197
f 199/199/199 201/201/201 200/200/200
