#Foliage7_16_3922_182.obj

v 0.01454698 -0.02577561 -0.04035871
v 0.00462606 -0.03397598 0.001090891
v 0.03878609 -0.02577563 -0.02105534
v -0.009661657 -0.02577561 -0.03817581
v -0.01824867 -0.02577561 -0.01778093
v -0.03822028 -0.02223212 0.001090853
v -0.02134853 -0.02577561 0.01996263
v -0.005296031 -0.02577557 0.03271741
v 0.02109581 -0.02577559 0.04035757
v 0.03060041 -0.02577556 0.01996271
v 0.03219106 -0.02223222 0.001091017
v 0.03878609 -0.02577563 -0.02105534
v 0.04796928 -0.01489237 -0.02772683
v 0.01805447 -0.01489238 -0.0511534
v 0.01454698 -0.02577561 -0.04035871
v 0.01454698 -0.02577561 -0.04035871
v 0.01805447 -0.01489238 -0.0511534
v -0.01316874 -0.01489233 -0.04897038
v -0.009661657 -0.02577561 -0.03817581
v -0.009661657 -0.02577561 -0.03817581
v -0.01316874 -0.01489233 -0.04897038
v -0.0274311 -0.01489231 -0.02445228
v -0.01824867 -0.02577561 -0.01778093
v -0.01824867 -0.02577561 -0.01778093
v -0.0274311 -0.01489231 -0.02445228
v -0.04796462 -0.01288817 0.001090706
v -0.03822028 -0.02223212 0.001090853
v -0.03822028 -0.02223212 0.001090853
v -0.04796462 -0.01288817 0.001090706
v -0.03053138 -0.01489236 0.02663403
v -0.02134853 -0.02577561 0.01996263
v -0.02134853 -0.02577561 0.01996263
v -0.03053138 -0.01489236 0.02663403
v -0.008803175 -0.01489239 0.04351201
v -0.005296031 -0.02577557 0.03271741
v -0.005296031 -0.02577557 0.03271741
v -0.008803175 -0.01489239 0.04351201
v 0.02460324 -0.01489236 0.05115205
v 0.02109581 -0.02577559 0.04035757
v 0.02109581 -0.02577559 0.04035757
v 0.02460324 -0.01489236 0.05115205
v 0.03978319 -0.01489234 0.02663397
v 0.03060041 -0.02577556 0.01996271
v 0.03060041 -0.02577556 0.01996271
v 0.03978319 -0.01489234 0.02663397
v 0.04193632 -0.01288811 0.001090879
v 0.03219106 -0.02223222 0.001091017
v 0.03219106 -0.02223222 0.001091017
v 0.04193632 -0.01288811 0.001090879
v 0.04796928 -0.01489237 -0.02772683
v 0.03878609 -0.02577563 -0.02105534
v 0.04796928 -0.01489237 -0.02772683
v 0.04796898 -0.0001482251 -0.02772674
v 0.01805417 -0.0001483306 -0.05115331
v 0.01805447 -0.01489238 -0.0511534
v 0.01805447 -0.01489238 -0.0511534
v 0.01805417 -0.0001483306 -0.05115331
v -0.01316905 -0.000148275 -0.04897029
v -0.01316874 -0.01489233 -0.04897038
v -0.01316874 -0.01489233 -0.04897038
v -0.01316905 -0.000148275 -0.04897029
v -0.02743144 -0.0001482638 -0.02445242
v -0.0274311 -0.01489231 -0.02445228
v -0.0274311 -0.01489231 -0.02445228
v -0.02743144 -0.0001482638 -0.02445242
v -0.04796495 -0.0002293817 0.001090732
v -0.04796462 -0.01288817 0.001090706
v -0.04796462 -0.01288817 0.001090706
v -0.04796495 -0.0002293817 0.001090732
v -0.03053168 -0.0001483076 0.02663412
v -0.03053138 -0.01489236 0.02663403
v -0.03053138 -0.01489236 0.02663403
v -0.03053168 -0.0001483076 0.02663412
v -0.008802577 -0.0001483038 0.04351197
v -0.008803175 -0.01489239 0.04351201
v -0.008803175 -0.01489239 0.04351201
v -0.008802577 -0.0001483038 0.04351197
v 0.02460294 -0.0001483067 0.05115214
v 0.02460324 -0.01489236 0.05115205
v 0.02460324 -0.01489236 0.05115205
v 0.02460294 -0.0001483067 0.05115214
v 0.03978289 -0.0001482887 0.02663407
v 0.03978319 -0.01489234 0.02663397
v 0.03978319 -0.01489234 0.02663397
v 0.03978289 -0.0001482887 0.02663407
v 0.041936 -0.0002294134 0.001090907
v 0.04193632 -0.01288811 0.001090879
v 0.04193632 -0.01288811 0.001090879
v 0.041936 -0.0002294134 0.001090907
v 0.04796898 -0.0001482251 -0.02772674
v 0.04796928 -0.01489237 -0.02772683
v 0.04796898 -0.0001482251 -0.02772674
v 0.04569058 0.01428342 -0.02539741
v 0.01714698 0.01428343 -0.04799174
v 0.01805417 -0.0001483306 -0.05115331
v 0.01805417 -0.0001483306 -0.05115331
v 0.01714698 0.01428343 -0.04799174
v -0.01182694 0.01428346 -0.04559819
v -0.01316905 -0.000148275 -0.04897029
v -0.01316905 -0.000148275 -0.04897029
v -0.01182694 0.01428346 -0.04559819
v -0.02320857 0.01428338 -0.02180697
v -0.02743144 -0.0001482638 -0.02445242
v -0.02743144 -0.0001482638 -0.02445242
v -0.02320857 0.01428338 -0.02180697
v -0.04530171 0.01197219 0.001196236
v -0.04796495 -0.0002293817 0.001090732
v -0.04796495 -0.0002293817 0.001090732
v -0.04530171 0.01197219 0.001196236
v -0.02660778 0.0142834 0.02419939
v -0.03053168 -0.0001483076 0.02663412
v -0.03053168 -0.0001483076 0.02663412
v -0.02660778 0.0142834 0.02419939
v -0.007039962 0.01428343 0.03961293
v -0.008802577 -0.0001483038 0.04351197
v -0.008802577 -0.0001483038 0.04351197
v -0.007039962 0.01428343 0.03961293
v 0.02432756 0.01428339 0.04799056
v 0.02460294 -0.0001483067 0.05115214
v 0.02460294 -0.0001483067 0.05115214
v 0.02432756 0.01428339 0.04799056
v 0.03671521 0.01428346 0.02419923
v 0.03978289 -0.0001482887 0.02663407
v 0.03978289 -0.0001482887 0.02663407
v 0.03671521 0.01428346 0.02419923
v 0.0386542 0.01197217 0.001196099
v 0.041936 -0.0002294134 0.001090907
v 0.041936 -0.0002294134 0.001090907
v 0.0386542 0.01197217 0.001196099
v 0.04569058 0.01428342 -0.02539741
v 0.04796898 -0.0001482251 -0.02772674
v 0.04569058 0.01428342 -0.02539741
v 0.03225482 0.02437444 -0.0161483
v 0.01203834 0.0243744 -0.03256925
v 0.01714698 0.01428343 -0.04799174
v 0.01714698 0.01428343 -0.04799174
v 0.01203834 0.0243744 -0.03256925
v -0.002590348 0.02437443 -0.02139438
v -0.01182694 0.01428346 -0.04559819
v -0.01182694 0.01428346 -0.04559819
v -0.002590348 0.02437443 -0.02139438
v -0.01125119 0.02437446 -0.01279584
v -0.02320857 0.01428338 -0.02180697
v -0.02320857 0.01428338 -0.02180697
v -0.01125119 0.02437446 -0.01279584
v -0.03124299 0.02074649 0.001116844
v -0.04530171 0.01197219 0.001196236
v -0.04530171 0.01197219 0.001196236
v -0.03124299 0.02074649 0.001116844
v -0.01442508 0.02437441 0.01502951
v -0.02660778 0.0142834 0.02419939
v -0.02660778 0.0142834 0.02419939
v -0.01442508 0.02437441 0.01502951
v -0.002590158 0.02437444 0.02474554
v -0.007039962 0.01428343 0.03961293
v -0.007039962 0.01428343 0.03961293
v -0.002590158 0.02437444 0.02474554
v 0.01874285 0.02437442 0.0325681
v 0.02432756 0.01428339 0.04799056
v 0.02432756 0.01428339 0.04799056
v 0.01874285 0.02437442 0.0325681
v 0.02387333 0.02437445 0.01502967
v 0.03671521 0.01428346 0.02419923
v 0.03671521 0.01428346 0.02419923
v 0.02387333 0.02437445 0.01502967
v 0.0250461 0.02074655 0.001116939
v 0.0386542 0.01197217 0.001196099
v 0.0386542 0.01197217 0.001196099
v 0.0250461 0.02074655 0.001116939
v 0.03225482 0.02437444 -0.0161483
v 0.04569058 0.01428342 -0.02539741
v 0.03225482 0.02437444 -0.0161483
v 0.004625372 0.03397609 0.001090945
v 0.01203834 0.0243744 -0.03256925
v 0.01203834 0.0243744 -0.03256925
v 0.004625372 0.03397609 0.001090945
v -0.002590348 0.02437443 -0.02139438
v -0.002590348 0.02437443 -0.02139438
v 0.004625372 0.03397609 0.001090945
v -0.01125119 0.02437446 -0.01279584
v -0.01125119 0.02437446 -0.01279584
v 0.004625372 0.03397609 0.001090945
v -0.03124299 0.02074649 0.001116844
v -0.03124299 0.02074649 0.001116844
v 0.004625372 0.03397609 0.001090945
v -0.01442508 0.02437441 0.01502951
v -0.01442508 0.02437441 0.01502951
v 0.004625372 0.03397609 0.001090945
v -0.002590158 0.02437444 0.02474554
v -0.002590158 0.02437444 0.02474554
v 0.004625372 0.03397609 0.001090945
v 0.01874285 0.02437442 0.0325681
v 0.01874285 0.02437442 0.0325681
v 0.004625372 0.03397609 0.001090945
v 0.02387333 0.02437445 0.01502967
v 0.02387333 0.02437445 0.01502967
v 0.004625372 0.03397609 0.001090945
v 0.0250461 0.02074655 0.001116939
v 0.0250461 0.02074655 0.001116939
v 0.004625372 0.03397609 0.001090945
v 0.03225482 0.02437444 -0.0161483

vn 0.06256153 -0.970847 -0.231392
vn -0.03800689 -0.9987438 -0.03265378
vn 0.2033412 -0.9771621 -0.06169846
vn -0.105848 -0.9625881 -0.2494401
vn -0.3188023 -0.927777 -0.1938943
vn -0.3397143 -0.9354488 -0.09762006
vn -0.3184517 -0.9462259 0.05696553
vn -0.1928266 -0.9591351 0.2070698
vn -0.002308479 -0.9819337 0.1892115
vn 0.286947 -0.9567177 0.04850353
vn 0.3935581 -0.9067196 0.1515637
vn 0.5351608 -0.6435602 -0.5472049
vn 0.5351608 -0.6435602 -0.5472049
vn 0.5351608 -0.6435602 -0.5472049
vn 0.5351608 -0.6435602 -0.5472049
vn 0.02902597 -0.6195175 -0.7844461
vn 0.02902597 -0.6195175 -0.784446
vn 0.02902596 -0.6195175 -0.7844461
vn 0.02902596 -0.6195174 -0.7844461
vn -0.6718366 -0.5622675 -0.482173
vn -0.6718366 -0.5622674 -0.4821731
vn -0.6718366 -0.5622675 -0.482173
vn -0.6718366 -0.5622674 -0.482173
vn -0.5650827 -0.5881396 -0.5785959
vn -0.5650828 -0.5881395 -0.5785959
vn -0.5650828 -0.5881395 -0.5785959
vn -0.5650828 -0.5881396 -0.5785959
vn -0.7331572 -0.6153923 0.2894354
vn -0.7331572 -0.6153923 0.2894354
vn -0.7331572 -0.6153922 0.2894354
vn -0.7331572 -0.6153922 0.2894354
vn -0.5837221 -0.6352798 0.5056562
vn -0.5837222 -0.6352797 0.5056561
vn -0.5837221 -0.6352798 0.5056561
vn -0.5837221 -0.6352798 0.5056561
vn -0.3285595 -0.6371599 0.6971914
vn -0.3285595 -0.63716 0.6971913
vn -0.3285595 -0.63716 0.6971914
vn -0.3285595 -0.6371599 0.6971914
vn 0.6144794 -0.635514 0.4674795
vn 0.6144793 -0.6355141 0.4674795
vn 0.6144793 -0.6355141 0.4674795
vn 0.6144794 -0.635514 0.4674795
vn 0.76366 -0.6414955 0.07284863
vn 0.76366 -0.6414955 0.07284863
vn 0.76366 -0.6414955 0.07284863
vn 0.76366 -0.6414955 0.07284863
vn 0.7258868 -0.5822437 0.3661701
vn 0.7258869 -0.5822437 0.3661701
vn 0.7258868 -0.5822437 0.3661701
vn 0.7258868 -0.5822438 0.3661701
vn 0.7267762 -0.004550812 -0.6868593
vn 0.7267763 -0.004550814 -0.6868592
vn 0.7267763 -0.004550814 -0.6868592
vn 0.7267762 -0.004550812 -0.6868593
vn 0.07992072 0.02095864 -0.9965808
vn 0.07992072 0.02095864 -0.9965808
vn 0.07992072 0.02095864 -0.9965808
vn 0.07992072 0.02095864 -0.9965808
vn -0.7794166 0.036614 -0.6254352
vn -0.7794166 0.036614 -0.6254352
vn -0.7794166 0.036614 -0.6254352
vn -0.7794166 0.036614 -0.6254352
vn -0.6769274 0.03627188 -0.7351555
vn -0.6769275 0.03627187 -0.7351555
vn -0.6769274 0.03627188 -0.7351555
vn -0.6769274 0.03627188 -0.7351555
vn -0.9003937 0.01533327 0.4348058
vn -0.9003937 0.01533327 0.4348058
vn -0.9003936 0.01533326 0.4348059
vn -0.9003937 0.01533327 0.4348058
vn -0.7240584 0.004407192 0.6897246
vn -0.7240584 0.004407192 0.6897246
vn -0.7240584 0.004407192 0.6897246
vn -0.7240584 0.004407192 0.6897246
vn -0.3657784 -0.01133795 0.9306329
vn -0.3657784 -0.01133795 0.9306329
vn -0.3657784 -0.01133795 0.9306329
vn -0.3657784 -0.01133795 0.9306329
vn 0.76191 -0.03661311 0.6466472
vn 0.76191 -0.03661311 0.6466472
vn 0.76191 -0.03661311 0.6466472
vn 0.76191 -0.03661311 0.6466472
vn 0.9724281 -0.03287977 0.2308733
vn 0.9724281 -0.03287977 0.2308734
vn 0.9724281 -0.03287977 0.2308733
vn 0.9724281 -0.03287977 0.2308734
vn 0.9369314 -0.03460003 0.3477965
vn 0.9369314 -0.03460003 0.3477965
vn 0.9369314 -0.03460003 0.3477965
vn 0.9369314 -0.03460003 0.3477965
vn 0.7235631 0.1752352 -0.6676444
vn 0.7235631 0.1752352 -0.6676444
vn 0.7235631 0.1752352 -0.6676444
vn 0.7235631 0.1752352 -0.6676444
vn 0.08017381 0.2082491 -0.9747844
vn 0.0801738 0.2082491 -0.9747844
vn 0.0801738 0.2082491 -0.9747844
vn 0.0801738 0.2082491 -0.9747844
vn -0.777229 0.2561434 -0.5747222
vn -0.777229 0.2561434 -0.5747222
vn -0.777229 0.2561434 -0.5747222
vn -0.777229 0.2561434 -0.5747222
vn -0.6296716 0.2519742 -0.7348623
vn -0.6296715 0.2519742 -0.7348624
vn -0.6296716 0.2519742 -0.7348623
vn -0.6296716 0.2519742 -0.7348623
vn -0.8601325 0.220786 0.4598104
vn -0.8601325 0.2207861 0.4598104
vn -0.8601325 0.220786 0.4598104
vn -0.8601325 0.220786 0.4598104
vn -0.6957221 0.2443464 0.6754743
vn -0.6957222 0.2443464 0.6754742
vn -0.6957222 0.2443464 0.6754743
vn -0.6957222 0.2443464 0.6754743
vn -0.3653694 0.1946566 0.9102824
vn -0.3653694 0.1946566 0.9102824
vn -0.3653694 0.1946566 0.9102824
vn -0.3653694 0.1946566 0.9102824
vn 0.7786994 0.1265887 0.6144938
vn 0.7786994 0.1265887 0.6144938
vn 0.7786993 0.1265887 0.6144938
vn 0.7786994 0.1265887 0.6144938
vn 0.9606836 0.1683949 0.2207492
vn 0.9606835 0.1683948 0.2207492
vn 0.9606835 0.1683948 0.2207492
vn 0.9606835 0.1683948 0.2207492
vn 0.9184522 0.1156108 0.3782587
vn 0.9184522 0.1156108 0.3782587
vn 0.9184522 0.1156108 0.3782587
vn 0.9184522 0.1156109 0.3782587
vn 0.4817249 0.784414 -0.3906863
vn 0.4817249 0.7844139 -0.3906864
vn 0.4817249 0.784414 -0.3906863
vn 0.4817249 0.7844139 -0.3906864
vn -0.04531062 0.8696142 -0.4916484
vn -0.04531062 0.8696142 -0.4916484
vn -0.04531062 0.8696142 -0.4916484
vn -0.04531058 0.8696142 -0.4916484
vn -0.396429 0.8539352 -0.3371034
vn -0.3964289 0.8539352 -0.3371034
vn -0.396429 0.8539352 -0.3371034
vn -0.3964289 0.8539352 -0.3371034
vn -0.4047848 0.7806257 -0.4762065
vn -0.4047848 0.7806257 -0.4762065
vn -0.4047848 0.7806257 -0.4762065
vn -0.4047848 0.7806257 -0.4762065
vn -0.5476288 0.7789533 0.3055069
vn -0.5476287 0.7789534 0.3055069
vn -0.5476288 0.7789533 0.3055069
vn -0.5476288 0.7789533 0.3055069
vn -0.4360032 0.7749765 0.457507
vn -0.4360033 0.7749764 0.457507
vn -0.4360033 0.7749764 0.4575071
vn -0.4360033 0.7749764 0.457507
vn -0.2471528 0.7582223 0.6033361
vn -0.2471528 0.7582222 0.6033362
vn -0.2471528 0.7582222 0.6033362
vn -0.2471528 0.7582222 0.6033362
vn 0.5962693 0.7114545 0.3718809
vn 0.5962694 0.7114545 0.3718809
vn 0.5962693 0.7114545 0.3718809
vn 0.5962694 0.7114545 0.3718809
vn 0.6927539 0.7202348 0.03679631
vn 0.6927537 0.7202349 0.03679628
vn 0.6927538 0.7202349 0.03679629
vn 0.6927539 0.7202348 0.03679632
vn 0.6325718 0.6383356 0.4386122
vn 0.6325718 0.6383356 0.4386122
vn 0.6325718 0.6383356 0.4386122
vn 0.6325718 0.6383356 0.4386122
vn 0.2941118 0.9339208 -0.2032
vn 0.2941118 0.9339208 -0.2032
vn 0.2941118 0.9339208 -0.2032
vn -0.1852889 0.9092824 -0.3726573
vn -0.1852889 0.9092824 -0.3726574
vn -0.1852889 0.9092824 -0.3726573
vn -0.2480117 0.9002848 -0.3577396
vn -0.2480117 0.9002848 -0.3577397
vn -0.2480117 0.9002848 -0.3577396
vn -0.3058905 0.9006582 -0.308619
vn -0.3058906 0.9006582 -0.308619
vn -0.3058906 0.9006582 -0.308619
vn -0.3838379 0.9081919 0.1669012
vn -0.3838379 0.9081919 0.1669012
vn -0.3838379 0.9081919 0.1669012
vn -0.2962173 0.8966291 0.3291073
vn -0.2962173 0.8966291 0.3291072
vn -0.2962173 0.8966291 0.3291072
vn -0.1651223 0.9025877 0.3975803
vn -0.1651223 0.9025877 0.3975803
vn -0.1651223 0.9025877 0.3975803
vn 0.4449263 0.8684222 0.2188227
vn 0.4449264 0.8684222 0.2188227
vn 0.4449264 0.8684222 0.2188227
vn 0.6486003 0.757565 -0.07357276
vn 0.6486002 0.757565 -0.07357275
vn 0.6486002 0.757565 -0.07357275
vn 0.512675 0.6906338 0.5100875
vn 0.5126749 0.6906339 0.5100875
vn 0.512675 0.6906338 0.5100875

vt 0.5483398 0.007648468
vt 0.5 0.1500244
vt 0.6264648 0.06439209
vt 0.4516602 0.007648468
vt 0.3735352 0.06439209
vt 0.34375 0.15625
vt 0.3735352 0.2480469
vt 0.4516602 0.3049316
vt 0.5483398 0.3049316
vt 0.6264648 0.2480469
vt 0.65625 0.15625
vt 0 0
vt 0 1
vt 1 1
vt 1 0
vt 0 0
vt 0 1
vt 1 1
vt 1 0
vt 0 0
vt 0 1
vt 1 1
vt 1 0
vt 0 0
vt 0 1
vt 1 1
vt 1 0
vt 0 0
vt 0 1
vt 1 1
vt 1 0
vt 0 0
vt 0 1
vt 1 1
vt 1 0
vt 0 0
vt 0 1
vt 1 1
vt 1 0
vt 0 0
vt 0 1
vt 1 1
vt 1 0
vt 0 0
vt 0 1
vt 1 1
vt 1 0
vt 0 0
vt 0 1
vt 1 1
vt 1 0
vt 0 0
vt 0 1
vt 1 1
vt 1 0
vt 0 0
vt 0 1
vt 1 1
vt 1 0
vt 0 0
vt 0 1
vt 1 1
vt 1 0
vt 0 0
vt 0 1
vt 1 1
vt 1 0
vt 0 0
vt 0 1
vt 1 1
vt 1 0
vt 0 0
vt 0 1
vt 1 1
vt 1 0
vt 0 0
vt 0 1
vt 1 1
vt 1 0
vt 0 0
vt 0 1
vt 1 1
vt 1 0
vt 0 0
vt 0 1
vt 1 1
vt 1 0
vt 0 0
vt 0 1
vt 1 1
vt 1 0
vt 0 0
vt 0 1
vt 1 1
vt 1 0
vt 0 0
vt 0 1
vt 1 1
vt 1 0
vt 0 0
vt 0 1
vt 1 1
vt 1 0
vt 0 0
vt 0 1
vt 1 1
vt 1 0
vt 0 0
vt 0 1
vt 1 1
vt 1 0
vt 0 0
vt 0 1
vt 1 1
vt 1 0
vt 0 0
vt 0 1
vt 1 1
vt 1 0
vt 0 0
vt 0 1
vt 1 1
vt 1 0
vt 0 0
vt 0 1
vt 1 1
vt 1 0
vt 0 0
vt 0 1
vt 1 1
vt 1 0
vt 0 0
vt 0 1
vt 1 1
vt 1 0
vt 0 0
vt 0 1
vt 1 1
vt 1 0
vt 0 0
vt 0 1
vt 1 1
vt 1 0
vt 0 0
vt 0 1
vt 1 1
vt 1 0
vt 0 0
vt 0 1
vt 1 1
vt 1 0
vt 0 0
vt 0 1
vt 1 1
vt 1 0
vt 0 0
vt 0 1
vt 1 1
vt 1 0
vt 0 0
vt 0 1
vt 1 1
vt 1 0
vt 0 0
vt 0 1
vt 1 1
vt 1 0
vt 0 0
vt 0 1
vt 1 1
vt 1 0
vt 0 0
vt 0.5 1
vt 1 0
vt 0 0
vt 0.5 1
vt 1 0
vt 0 0
vt 0.5 1
vt 1 0
vt 0 0
vt 0.5 1
vt 1 0
vt 0 0
vt 0.5 1
vt 1 0
vt 0 0
vt 0.5 1
vt 1 0
vt 0 0
vt 0.5 1
vt 1 0
vt 0 0
vt 0.5 1
vt 1 0
vt 0 0
vt 0.5 1
vt 1 0
vt 0 0
vt 0.5 1
vt 1 0

g Foliage7_16_3922_182
usemtl Foliage7_16_3922_182
usemap Foliage7_16_3922_182
f 1/1/1 3/3/3 2/2/2
f 4/4/4 1/1/1 2/2/2
f 5/5/5 4/4/4 2/2/2
f 6/6/6 5/5/5 2/2/2
f 7/7/7 6/6/6 2/2/2
f 8/8/8 7/7/7 2/2/2
f 9/9/9 8/8/8 2/2/2
f 10/10/10 9/9/9 2/2/2
f 11/11/11 10/10/10 2/2/2
f 3/3/3 11/11/11 2/2/2
f 12/12/12 14/14/14 13/13/13
f 12/12/12 15/15/15 14/14/14
f 16/16/16 18/18/18 17/17/17
f 16/16/16 19/19/19 18/18/18
f 20/20/20 22/22/22 21/21/21
f 20/20/20 23/23/23 22/22/22
f 24/24/24 26/26/26 25/25/25
f 24/24/24 27/27/27 26/26/26
f 28/28/28 30/30/30 29/29/29
f 28/28/28 31/31/31 30/30/30
f 32/32/32 34/34/34 33/33/33
f 32/32/32 35/35/35 34/34/34
f 36/36/36 38/38/38 37/37/37
f 36/36/36 39/39/39 38/38/38
f 40/40/40 42/42/42 41/41/41
f 40/40/40 43/43/43 42/42/42
f 44/44/44 46/46/46 45/45/45
f 44/44/44 47/47/47 46/46/46
f 48/48/48 50/50/50 49/49/49
f 48/48/48 51/51/51 50/50/50
f 52/52/52 54/54/54 53/53/53
f 52/52/52 55/55/55 54/54/54
f 56/56/56 58/58/58 57/57/57
f 56/56/56 59/59/59 58/58/58
f 60/60/60 62/62/62 61/61/61
f 60/60/60 63/63/63 62/62/62
f 64/64/64 66/66/66 65/65/65
f 64/64/64 67/67/67 66/66/66
f 68/68/68 70/70/70 69/69/69
f 68/68/68 71/71/71 70/70/70
f 72/72/72 74/74/74 73/73/73
f 72/72/72 75/75/75 74/74/74
f 76/76/76 78/78/78 77/77/77
f 76/76/76 79/79/79 78/78/78
f 80/80/80 82/82/82 81/81/81
f 80/80/80 83/83/83 82/82/82
f 84/84/84 86/86/86 85/85/85
f 84/84/84 87/87/87 86/86/86
f 88/88/88 90/90/90 89/89/89
f 88/88/88 91/91/91 90/90/90
f 92/92/92 94/94/94 93/93/93
f 92/92/92 95/95/95 94/94/94
f 96/96/96 98/98/98 97/97/97
f 96/96/96 99/99/99 98/98/98
f 100/100/100 102/102/102 101/101/101
f 100/100/100 103/103/103 102/102/102
f 104/104/104 106/106/106 105/105/105
f 104/104/104 107/107/107 106/106/106
f 108/108/108 110/110/110 109/109/109
f 108/108/108 111/111/111 110/110/110
f 112/112/112 114/114/114 113/113/113
f 112/112/112 115/115/115 114/114/114
f 116/116/116 118/118/118 117/117/117
f 116/116/116 119/119/119 118/118/118
f 120/120/120 122/122/122 121/121/121
f 120/120/120 123/123/123 122/122/122
f 124/124/124 126/126/126 125/125/125
f 124/124/124 127/127/127 126/126/126
f 128/128/128 130/130/130 129/129/129
f 128/128/128 131/131/131 130/130/130
f 132/132/132 134/134/134 133/133/133
f 132/132/132 135/135/135 134/134/134
f 136/136/136 138/138/138 137/137/137
f 136/136/136 139/139/139 138/138/138
f 140/140/140 142/142/142 141/141/141
f 140/140/140 143/143/143 142/142/142
f 144/144/144 146/146/146 145/145/145
f 144/144/144 147/147/147 146/146/146
f 148/148/148 150/150/150 149/149/149
f 148/148/148 151/151/151 150/150/150
f 152/152/152 154/154/154 153/153/153
f 152/152/152 155/155/155 154/154/154
f 156/156/156 158/158/158 157/157/157
f 156/156/156 159/159/159 158/158/158
f 160/160/160 162/162/162 161/161/161
f 160/160/160 163/163/163 162/162/162
f 164/164/164 166/166/166 165/165/165
f 164/164/164 167/167/167 166/166/166
f 168/168/168 170/170/170 169/169/169
f 168/168/168 171/171/171 170/170/170
f 172/172/172 174/174/174 173/173/173
f 175/175/175 177/177/177 176/176/176
f 178/178/178 180/180/180 179/179/179
f 181/181/181 183/183/183 182/182/182
f 184/184/184 186/186/186 185/185/185
f 187/187/187 189/189/189 188/188/188
f 190/190/190 192/192/192 191/191/191
f 193/193/193 195/195/195 194/194/194
f 196/196/196 198/198/198 197/197/197
f 199/199/199 201/201/201 200/200/200
