#Foliage7_14_4254_39.obj

v 0.01454726 -0.02577556 -0.04035863
v 0.004625949 -0.033976 0.001091045
v 0.03878648 -0.02577556 -0.02105529
v -0.009661662 -0.02577556 -0.03817599
v -0.01824896 -0.02577556 -0.01778077
v -0.03822028 -0.02223214 0.001090926
v -0.02134908 -0.02577556 0.01996246
v -0.00529565 -0.02577556 0.03271766
v 0.0210958 -0.02577556 0.04035746
v 0.03060041 -0.02577556 0.01996286
v 0.03219152 -0.02223214 0.0010908
v 0.03878648 -0.02577556 -0.02105529
v 0.0479687 -0.01489235 -0.0277267
v 0.01805447 -0.01489235 -0.0511533
v 0.01454726 -0.02577556 -0.04035863
v 0.01454726 -0.02577556 -0.04035863
v 0.01805447 -0.01489235 -0.0511533
v -0.01316908 -0.01489235 -0.0489705
v -0.009661662 -0.02577556 -0.03817599
v -0.009661662 -0.02577556 -0.03817599
v -0.01316908 -0.01489235 -0.0489705
v -0.02743123 -0.01489235 -0.02445251
v -0.01824896 -0.02577556 -0.01778077
v -0.01824896 -0.02577556 -0.01778077
v -0.02743123 -0.01489235 -0.02445251
v -0.04796484 -0.01288819 0.001090944
v -0.03822028 -0.02223214 0.001090926
v -0.03822028 -0.02223214 0.001090926
v -0.04796484 -0.01288819 0.001090944
v -0.03053131 -0.01489235 0.02663386
v -0.02134908 -0.02577556 0.01996246
v -0.02134908 -0.02577556 0.01996246
v -0.03053131 -0.01489235 0.02663386
v -0.008802941 -0.01489235 0.04351188
v -0.00529565 -0.02577556 0.03271766
v -0.00529565 -0.02577556 0.03271766
v -0.008802941 -0.01489235 0.04351188
v 0.02460326 -0.01489235 0.0511522
v 0.0210958 -0.02577556 0.04035746
v 0.0210958 -0.02577556 0.04035746
v 0.02460326 -0.01489235 0.0511522
v 0.03978306 -0.01489235 0.02663407
v 0.03060041 -0.02577556 0.01996286
v 0.03060041 -0.02577556 0.01996286
v 0.03978306 -0.01489235 0.02663407
v 0.04193607 -0.01288819 0.001090781
v 0.03219152 -0.02223214 0.0010908
v 0.03219152 -0.02223214 0.0010908
v 0.04193607 -0.01288819 0.001090781
v 0.0479687 -0.01489235 -0.0277267
v 0.03878648 -0.02577556 -0.02105529
v 0.0479687 -0.01489235 -0.0277267
v 0.0479687 -0.0001482206 -0.0277267
v 0.01805447 -0.0001482206 -0.0511533
v 0.01805447 -0.01489235 -0.0511533
v 0.01805447 -0.01489235 -0.0511533
v 0.01805447 -0.0001482206 -0.0511533
v -0.01316908 -0.0001482206 -0.0489705
v -0.01316908 -0.01489235 -0.0489705
v -0.01316908 -0.01489235 -0.0489705
v -0.01316908 -0.0001482206 -0.0489705
v -0.02743123 -0.0001482206 -0.02445251
v -0.02743123 -0.01489235 -0.02445251
v -0.02743123 -0.01489235 -0.02445251
v -0.02743123 -0.0001482206 -0.02445251
v -0.04796484 -0.00022934 0.001090944
v -0.04796484 -0.01288819 0.001090944
v -0.04796484 -0.01288819 0.001090944
v -0.04796484 -0.00022934 0.001090944
v -0.03053131 -0.0001482206 0.02663386
v -0.03053131 -0.01489235 0.02663386
v -0.03053131 -0.01489235 0.02663386
v -0.03053131 -0.0001482206 0.02663386
v -0.008802941 -0.0001482206 0.04351188
v -0.008802941 -0.01489235 0.04351188
v -0.008802941 -0.01489235 0.04351188
v -0.008802941 -0.0001482206 0.04351188
v 0.02460326 -0.0001482206 0.0511522
v 0.02460326 -0.01489235 0.0511522
v 0.02460326 -0.01489235 0.0511522
v 0.02460326 -0.0001482206 0.0511522
v 0.03978306 -0.0001482206 0.02663407
v 0.03978306 -0.01489235 0.02663407
v 0.03978306 -0.01489235 0.02663407
v 0.03978306 -0.0001482206 0.02663407
v 0.04193607 -0.00022934 0.001090781
v 0.04193607 -0.01288819 0.001090781
v 0.04193607 -0.01288819 0.001090781
v 0.04193607 -0.00022934 0.001090781
v 0.0479687 -0.0001482206 -0.0277267
v 0.0479687 -0.01489235 -0.0277267
v 0.0479687 -0.0001482206 -0.0277267
v 0.04569063 0.01428339 -0.02539721
v 0.01714712 0.01428339 -0.04799187
v 0.01805447 -0.0001482206 -0.0511533
v 0.01805447 -0.0001482206 -0.0511533
v 0.01714712 0.01428339 -0.04799187
v -0.01182733 0.01428339 -0.04559815
v -0.01316908 -0.0001482206 -0.0489705
v -0.01316908 -0.0001482206 -0.0489705
v -0.01182733 0.01428339 -0.04559815
v -0.02320841 0.01428339 -0.02180684
v -0.02743123 -0.0001482206 -0.02445251
v -0.02743123 -0.0001482206 -0.02445251
v -0.02320841 0.01428339 -0.02180684
v -0.04530211 0.01197216 0.001196113
v -0.04796484 -0.00022934 0.001090944
v -0.04796484 -0.00022934 0.001090944
v -0.04530211 0.01197216 0.001196113
v -0.0266076 0.01428339 0.02419942
v -0.03053131 -0.0001482206 0.02663386
v -0.03053131 -0.0001482206 0.02663386
v -0.0266076 0.01428339 0.02419942
v -0.007039828 0.01428339 0.03961277
v -0.008802941 -0.0001482206 0.04351188
v -0.008802941 -0.0001482206 0.04351188
v -0.007039828 0.01428339 0.03961277
v 0.02432774 0.01428339 0.04799088
v 0.02460326 -0.0001482206 0.0511522
v 0.02460326 -0.0001482206 0.0511522
v 0.02432774 0.01428339 0.04799088
v 0.03671474 0.01428339 0.02419954
v 0.03978306 -0.0001482206 0.02663407
v 0.03978306 -0.0001482206 0.02663407
v 0.03671474 0.01428339 0.02419954
v 0.03865385 0.01197216 0.001196059
v 0.04193607 -0.00022934 0.001090781
v 0.04193607 -0.00022934 0.001090781
v 0.03865385 0.01197216 0.001196059
v 0.04569063 0.01428339 -0.02539721
v 0.0479687 -0.0001482206 -0.0277267
v 0.04569063 0.01428339 -0.02539721
v 0.03225426 0.02437444 -0.01614834
v 0.01203834 0.02437444 -0.03256935
v 0.01714712 0.01428339 -0.04799187
v 0.01714712 0.01428339 -0.04799187
v 0.01203834 0.02437444 -0.03256935
v -0.002590269 0.02437444 -0.02139446
v -0.01182733 0.01428339 -0.04559815
v -0.01182733 0.01428339 -0.04559815
v -0.002590269 0.02437444 -0.02139446
v -0.0112512 0.02437444 -0.01279596
v -0.02320841 0.01428339 -0.02180684
v -0.02320841 0.01428339 -0.02180684
v -0.0112512 0.02437444 -0.01279596
v -0.03124266 0.02074655 0.001117088
v -0.04530211 0.01197216 0.001196113
v -0.04530211 0.01197216 0.001196113
v -0.03124266 0.02074655 0.001117088
v -0.01442533 0.02437444 0.01502984
v -0.0266076 0.01428339 0.02419942
v -0.0266076 0.01428339 0.02419942
v -0.01442533 0.02437444 0.01502984
v -0.002590249 0.02437444 0.02474584
v -0.007039828 0.01428339 0.03961277
v -0.007039828 0.01428339 0.03961277
v -0.002590249 0.02437444 0.02474584
v 0.0187433 0.02437444 0.03256814
v 0.02432774 0.01428339 0.04799088
v 0.02432774 0.01428339 0.04799088
v 0.0187433 0.02437444 0.03256814
v 0.0238732 0.02437444 0.01502983
v 0.03671474 0.01428339 0.02419954
v 0.03671474 0.01428339 0.02419954
v 0.0238732 0.02437444 0.01502983
v 0.02504603 0.02074655 0.001116969
v 0.03865385 0.01197216 0.001196059
v 0.03865385 0.01197216 0.001196059
v 0.02504603 0.02074655 0.001116969
v 0.03225426 0.02437444 -0.01614834
v 0.04569063 0.01428339 -0.02539721
v 0.03225426 0.02437444 -0.01614834
v 0.004625871 0.0339761 0.001090597
v 0.01203834 0.02437444 -0.03256935
v 0.01203834 0.02437444 -0.03256935
v 0.004625871 0.0339761 0.001090597
v -0.002590269 0.02437444 -0.02139446
v -0.002590269 0.02437444 -0.02139446
v 0.004625871 0.0339761 0.001090597
v -0.0112512 0.02437444 -0.01279596
v -0.0112512 0.02437444 -0.01279596
v 0.004625871 0.0339761 0.001090597
v -0.03124266 0.02074655 0.001117088
v -0.03124266 0.02074655 0.001117088
v 0.004625871 0.0339761 0.001090597
v -0.01442533 0.02437444 0.01502984
v -0.01442533 0.02437444 0.01502984
v 0.004625871 0.0339761 0.001090597
v -0.002590249 0.02437444 0.02474584
v -0.002590249 0.02437444 0.02474584
v 0.004625871 0.0339761 0.001090597
v 0.0187433 0.02437444 0.03256814
v 0.0187433 0.02437444 0.03256814
v 0.004625871 0.0339761 0.001090597
v 0.0238732 0.02437444 0.01502983
v 0.0238732 0.02437444 0.01502983
v 0.004625871 0.0339761 0.001090597
v 0.02504603 0.02074655 0.001116969
v 0.02504603 0.02074655 0.001116969
v 0.004625871 0.0339761 0.001090597
v 0.03225426 0.02437444 -0.01614834

vn 0.1061333 -0.9746063 -0.1971757
vn 0.00196204 -0.999998 0.0003245465
vn 0.2424336 -0.9698725 -0.02394228
vn -0.06235185 -0.9735574 -0.2197685
vn -0.2789744 -0.9450633 -0.1703778
vn -0.3017546 -0.9505204 -0.07385864
vn -0.2831744 -0.955556 0.08200613
vn -0.1598934 -0.9587457 0.2350337
vn 0.0316961 -0.9745761 0.2218037
vn 0.3218083 -0.942801 0.08698021
vn 0.4227989 -0.8860961 0.1899336
vn 0.5723491 -0.6400555 -0.512587
vn 0.572349 -0.6400555 -0.512587
vn 0.5723491 -0.6400556 -0.512587
vn 0.572349 -0.6400555 -0.512587
vn 0.07202803 -0.6391843 -0.7656732
vn 0.07202803 -0.6391843 -0.7656732
vn 0.072028 -0.6391842 -0.7656732
vn 0.07202802 -0.6391842 -0.7656732
vn -0.6425034 -0.5961946 -0.4813951
vn -0.6425036 -0.5961946 -0.4813952
vn -0.6425034 -0.5961946 -0.4813951
vn -0.6425036 -0.5961946 -0.4813951
vn -0.5318308 -0.621523 -0.575209
vn -0.5318308 -0.6215228 -0.5752089
vn -0.5318308 -0.6215229 -0.575209
vn -0.5318308 -0.6215229 -0.5752089
vn -0.717702 -0.6309732 0.2945785
vn -0.717702 -0.6309732 0.2945785
vn -0.7177022 -0.6309732 0.2945785
vn -0.7177021 -0.6309732 0.2945785
vn -0.570819 -0.640098 0.5142375
vn -0.5708191 -0.640098 0.5142374
vn -0.5708191 -0.640098 0.5142374
vn -0.570819 -0.6400981 0.5142374
vn -0.3190312 -0.6283638 0.7094914
vn -0.3190312 -0.6283638 0.7094914
vn -0.3190312 -0.6283638 0.7094914
vn -0.3190312 -0.6283638 0.7094914
vn 0.6233081 -0.6022039 0.4988362
vn 0.623308 -0.602204 0.4988362
vn 0.623308 -0.602204 0.4988362
vn 0.6233081 -0.6022039 0.4988362
vn 0.7816186 -0.6137942 0.1110368
vn 0.7816185 -0.6137942 0.1110368
vn 0.7816186 -0.6137942 0.1110368
vn 0.7816186 -0.6137942 0.1110368
vn 0.7344304 -0.5488456 0.3992248
vn 0.7344305 -0.5488455 0.3992248
vn 0.7344304 -0.5488456 0.3992248
vn 0.7344304 -0.5488456 0.3992248
vn 0.742477 3.768108E-17 -0.6698715
vn 0.7424771 3.768107E-17 -0.6698715
vn 0.7424771 3.768107E-17 -0.6698715
vn 0.742477 3.768108E-17 -0.6698715
vn 0.1024139 1.330438E-16 -0.9947419
vn 0.1024139 1.330438E-16 -0.9947419
vn 0.1024139 1.330438E-16 -0.9947419
vn 0.1024139 1.330438E-16 -0.9947419
vn -0.7653221 1.501825E-16 -0.6436476
vn -0.7653221 1.501825E-16 -0.6436476
vn -0.7653221 1.501825E-16 -0.6436476
vn -0.7653221 1.501825E-16 -0.6436476
vn -0.660361 1.572951E-16 -0.7509483
vn -0.660361 1.572951E-16 -0.7509483
vn -0.660361 1.572951E-16 -0.7509483
vn -0.660361 1.572951E-16 -0.7509483
vn -0.910418 1.155989E-17 0.4136894
vn -0.910418 1.155989E-17 0.4136894
vn -0.910418 1.155988E-17 0.4136895
vn -0.910418 1.155989E-17 0.4136894
vn -0.7398233 -3.830072E-17 0.6728013
vn -0.7398233 -3.830072E-17 0.6728013
vn -0.7398233 -3.830072E-17 0.6728013
vn -0.7398233 -3.830072E-17 0.6728013
vn -0.386866 -1.008321E-16 0.9221359
vn -0.386866 -1.008321E-16 0.9221359
vn -0.386866 -1.008321E-16 0.9221359
vn -0.386866 -1.008321E-16 0.9221359
vn 0.7473369 -1.51743E-16 0.6644452
vn 0.7473369 -1.51743E-16 0.6644452
vn 0.7473369 -1.51743E-16 0.6644452
vn 0.7473369 -1.51743E-16 0.6644452
vn 0.9672853 -1.104993E-16 0.2536911
vn 0.9672853 -1.104993E-16 0.2536911
vn 0.9672853 -1.104993E-16 0.2536911
vn 0.9672853 -1.104993E-16 0.2536911
vn 0.9291271 -1.240031E-16 0.3697605
vn 0.9291271 -1.240031E-16 0.3697605
vn 0.9291271 -1.240031E-16 0.3697605
vn 0.9291271 -1.240031E-16 0.3697605
vn 0.7320233 0.1800348 -0.6570611
vn 0.7320234 0.1800349 -0.6570611
vn 0.7320234 0.1800349 -0.6570611
vn 0.7320234 0.1800349 -0.6570611
vn 0.09465867 0.18731 -0.9777294
vn 0.09465866 0.18731 -0.9777294
vn 0.09465866 0.18731 -0.9777294
vn 0.09465866 0.18731 -0.9777294
vn -0.7704405 0.2197905 -0.5984259
vn -0.7704404 0.2197905 -0.5984259
vn -0.7704405 0.2197906 -0.598426
vn -0.7704405 0.2197905 -0.5984259
vn -0.6196748 0.2161017 -0.7545218
vn -0.6196747 0.2161018 -0.7545219
vn -0.6196748 0.2161017 -0.7545218
vn -0.6196748 0.2161017 -0.7545218
vn -0.8778028 0.206724 0.4321195
vn -0.8778028 0.206724 0.4321195
vn -0.8778029 0.206724 0.4321194
vn -0.8778028 0.206724 0.4321195
vn -0.7202872 0.2400799 0.6508056
vn -0.7202873 0.2400799 0.6508055
vn -0.7202873 0.24008 0.6508055
vn -0.7202873 0.24008 0.6508055
vn -0.3944192 0.2055194 0.8956535
vn -0.3944191 0.2055194 0.8956535
vn -0.3944192 0.2055194 0.8956535
vn -0.3944192 0.2055194 0.8956535
vn 0.7603295 0.163128 0.6287196
vn 0.7603295 0.163128 0.6287196
vn 0.7603295 0.163128 0.6287196
vn 0.7603295 0.163128 0.6287196
vn 0.950453 0.2010115 0.2371359
vn 0.950453 0.2010115 0.2371359
vn 0.950453 0.2010115 0.2371359
vn 0.950453 0.2010114 0.2371359
vn 0.9060224 0.1505436 0.39555
vn 0.9060225 0.1505436 0.39555
vn 0.9060224 0.1505436 0.39555
vn 0.9060224 0.1505436 0.39555
vn 0.4603026 0.7891594 -0.4066312
vn 0.4603026 0.7891594 -0.4066313
vn 0.4603026 0.7891594 -0.4066312
vn 0.4603026 0.7891594 -0.4066313
vn -0.06751359 0.8519384 -0.5192714
vn -0.0675136 0.8519384 -0.5192715
vn -0.06751359 0.8519384 -0.5192714
vn -0.06751356 0.8519384 -0.5192714
vn -0.4187785 0.8283318 -0.3721437
vn -0.4187785 0.8283318 -0.3721437
vn -0.4187785 0.8283318 -0.3721437
vn -0.4187785 0.8283318 -0.3721437
vn -0.420778 0.7517991 -0.5076851
vn -0.4207779 0.751799 -0.507685
vn -0.4207779 0.751799 -0.507685
vn -0.4207779 0.751799 -0.507685
vn -0.5831963 0.7676092 0.2658156
vn -0.5831963 0.7676093 0.2658156
vn -0.5831963 0.7676092 0.2658156
vn -0.5831963 0.7676092 0.2658156
vn -0.4764103 0.7719752 0.4208175
vn -0.4764104 0.7719752 0.4208176
vn -0.4764104 0.7719752 0.4208176
vn -0.4764104 0.7719752 0.4208176
vn -0.2914332 0.7661014 0.5728485
vn -0.2914332 0.7661014 0.5728485
vn -0.2914332 0.7661014 0.5728485
vn -0.2914332 0.7661014 0.5728485
vn 0.5633706 0.7418408 0.363711
vn 0.5633707 0.7418408 0.3637111
vn 0.5633707 0.7418408 0.3637111
vn 0.5633707 0.7418408 0.3637111
vn 0.6670817 0.7444519 0.02816845
vn 0.6670815 0.744452 0.02816843
vn 0.6670816 0.744452 0.02816844
vn 0.6670817 0.7444519 0.02816847
vn 0.6012144 0.6708225 0.4342102
vn 0.6012145 0.6708225 0.4342101
vn 0.6012144 0.6708225 0.4342102
vn 0.6012144 0.6708225 0.4342102
vn 0.2622862 0.9375964 -0.2282957
vn 0.2622862 0.9375964 -0.2282957
vn 0.2622862 0.9375964 -0.2282957
vn -0.210889 0.8896014 -0.4051358
vn -0.210889 0.8896014 -0.4051358
vn -0.210889 0.8896015 -0.4051358
vn -0.2730881 0.8788402 -0.3912325
vn -0.273088 0.8788401 -0.3912325
vn -0.2730881 0.8788402 -0.3912325
vn -0.3316762 0.878563 -0.343683
vn -0.3316762 0.8785629 -0.343683
vn -0.3316762 0.8785629 -0.343683
vn -0.4218226 0.8977368 0.1270212
vn -0.4218225 0.8977368 0.1270213
vn -0.4218226 0.8977368 0.1270212
vn -0.3386681 0.8945507 0.2916897
vn -0.3386681 0.8945507 0.2916897
vn -0.3386681 0.8945507 0.2916897
vn -0.2100124 0.9075937 0.3635495
vn -0.2100124 0.9075937 0.3635495
vn -0.2100124 0.9075937 0.3635495
vn 0.4078758 0.8907424 0.2005376
vn 0.4078759 0.8907424 0.2005376
vn 0.4078759 0.8907424 0.2005376
vn 0.6232416 0.7773978 -0.08498642
vn 0.6232415 0.7773978 -0.08498641
vn 0.6232415 0.7773978 -0.08498641
vn 0.4767908 0.7217777 0.5017046
vn 0.4767908 0.7217777 0.5017046
vn 0.4767908 0.7217777 0.5017046

vt 0.5482839 0.007647395
vt 0.5 0.15
vt 0.6264089 0.06440853
vt 0.4517161 0.00764741
vt 0.3735911 0.06440856
vt 0.34375 0.15625
vt 0.3735911 0.2480915
vt 0.4517161 0.3048526
vt 0.5482839 0.3048526
vt 0.6264089 0.2480914
vt 0.65625 0.15625
vt 0 0
vt 0 1
vt 1 1
vt 1 0
vt 0 0
vt 0 1
vt 1 1
vt 1 0
vt 0 0
vt 0 1
vt 1 1
vt 1 0
vt 0 0
vt 0 1
vt 1 1
vt 1 0
vt 0 0
vt 0 1
vt 1 1
vt 1 0
vt 0 0
vt 0 1
vt 1 1
vt 1 0
vt 0 0
vt 0 1
vt 1 1
vt 1 0
vt 0 0
vt 0 1
vt 1 1
vt 1 0
vt 0 0
vt 0 1
vt 1 1
vt 1 0
vt 0 0
vt 0 1
vt 1 1
vt 1 0
vt 0 0
vt 0 1
vt 1 1
vt 1 0
vt 0 0
vt 0 1
vt 1 1
vt 1 0
vt 0 0
vt 0 1
vt 1 1
vt 1 0
vt 0 0
vt 0 1
vt 1 1
vt 1 0
vt 0 0
vt 0 1
vt 1 1
vt 1 0
vt 0 0
vt 0 1
vt 1 1
vt 1 0
vt 0 0
vt 0 1
vt 1 1
vt 1 0
vt 0 0
vt 0 1
vt 1 1
vt 1 0
vt 0 0
vt 0 1
vt 1 1
vt 1 0
vt 0 0
vt 0 1
vt 1 1
vt 1 0
vt 0 0
vt 0 1
vt 1 1
vt 1 0
vt 0 0
vt 0 1
vt 1 1
vt 1 0
vt 0 0
vt 0 1
vt 1 1
vt 1 0
vt 0 0
vt 0 1
vt 1 1
vt 1 0
vt 0 0
vt 0 1
vt 1 1
vt 1 0
vt 0 0
vt 0 1
vt 1 1
vt 1 0
vt 0 0
vt 0 1
vt 1 1
vt 1 0
vt 0 0
vt 0 1
vt 1 1
vt 1 0
vt 0 0
vt 0 1
vt 1 1
vt 1 0
vt 0 0
vt 0 1
vt 1 1
vt 1 0
vt 0 0
vt 0 1
vt 1 1
vt 1 0
vt 0 0
vt 0 1
vt 1 1
vt 1 0
vt 0 0
vt 0 1
vt 1 1
vt 1 0
vt 0 0
vt 0 1
vt 1 1
vt 1 0
vt 0 0
vt 0 1
vt 1 1
vt 1 0
vt 0 0
vt 0 1
vt 1 1
vt 1 0
vt 0 0
vt 0 1
vt 1 1
vt 1 0
vt 0 0
vt 0 1
vt 1 1
vt 1 0
vt 0 0
vt 0 1
vt 1 1
vt 1 0
vt 0 0
vt 0 1
vt 1 1
vt 1 0
vt 0 0
vt 0.5 1
vt 1 0
vt 0 0
vt 0.5 1
vt 1 0
vt 0 0
vt 0.5 1
vt 1 0
vt 0 0
vt 0.5 1
vt 1 0
vt 0 0
vt 0.5 1
vt 1 0
vt 0 0
vt 0.5 1
vt 1 0
vt 0 0
vt 0.5 1
vt 1 0
vt 0 0
vt 0.5 1
vt 1 0
vt 0 0
vt 0.5 1
vt 1 0
vt 0 0
vt 0.5 1
vt 1 0

g Foliage7_14_4254_39
usemtl Foliage7_14_4254_39
usemap Foliage7_14_4254_39
f 1/1/1 3/3/3 2/2/2
f 4/4/4 1/1/1 2/2/2
f 5/5/5 4/4/4 2/2/2
f 6/6/6 5/5/5 2/2/2
f 7/7/7 6/6/6 2/2/2
f 8/8/8 7/7/7 2/2/2
f 9/9/9 8/8/8 2/2/2
f 10/10/10 9/9/9 2/2/2
f 11/11/11 10/10/10 2/2/2
f 3/3/3 11/11/11 2/2/2
f 12/12/12 14/14/14 13/13/13
f 12/12/12 15/15/15 14/14/14
f 16/16/16 18/18/18 17/17/17
f 16/16/16 19/19/19 18/18/18
f 20/20/20 22/22/22 21/21/21
f 20/20/20 23/23/23 22/22/22
f 24/24/24 26/26/26 25/25/25
f 24/24/24 27/27/27 26/26/26
f 28/28/28 30/30/30 29/29/29
f 28/28/28 31/31/31 30/30/30
f 32/32/32 34/34/34 33/33/33
f 32/32/32 35/35/35 34/34/34
f 36/36/36 38/38/38 37/37/37
f 36/36/36 39/39/39 38/38/38
f 40/40/40 42/42/42 41/41/41
f 40/40/40 43/43/43 42/42/42
f 44/44/44 46/46/46 45/45/45
f 44/44/44 47/47/47 46/46/46
f 48/48/48 50/50/50 49/49/49
f 48/48/48 51/51/51 50/50/50
f 52/52/52 54/54/54 53/53/53
f 52/52/52 55/55/55 54/54/54
f 56/56/56 58/58/58 57/57/57
f 56/56/56 59/59/59 58/58/58
f 60/60/60 62/62/62 61/61/61
f 60/60/60 63/63/63 62/62/62
f 64/64/64 66/66/66 65/65/65
f 64/64/64 67/67/67 66/66/66
f 68/68/68 70/70/70 69/69/69
f 68/68/68 71/71/71 70/70/70
f 72/72/72 74/74/74 73/73/73
f 72/72/72 75/75/75 74/74/74
f 76/76/76 78/78/78 77/77/77
f 76/76/76 79/79/79 78/78/78
f 80/80/80 82/82/82 81/81/81
f 80/80/80 83/83/83 82/82/82
f 84/84/84 86/86/86 85/85/85
f 84/84/84 87/87/87 86/86/86
f 88/88/88 90/90/90 89/89/89
f 88/88/88 91/91/91 90/90/90
f 92/92/92 94/94/94 93/93/93
f 92/92/92 95/95/95 94/94/94
f 96/96/96 98/98/98 97/97/97
f 96/96/96 99/99/99 98/98/98
f 100/100/100 102/102/102 101/101/101
f 100/100/100 103/103/103 102/102/102
f 104/104/104 106/106/106 105/105/105
f 104/104/104 107/107/107 106/106/106
f 108/108/108 110/110/110 109/109/109
f 108/108/108 111/111/111 110/110/110
f 112/112/112 114/114/114 113/113/113
f 112/112/112 115/115/115 114/114/114
f 116/116/116 118/118/118 117/117/117
f 116/116/116 119/119/119 118/118/118
f 120/120/120 122/122/122 121/121/121
f 120/120/120 123/123/123 122/122/122
f 124/124/124 126/126/126 125/125/125
f 124/124/124 127/127/127 126/126/126
f 128/128/128 130/130/130 129/129/129
f 128/128/128 131/131/131 130/130/130
f 132/132/132 134/134/134 133/133/133
f 132/132/132 135/135/135 134/134/134
f 136/136/136 138/138/138 137/137/137
f 136/136/136 139/139/139 138/138/138
f 140/140/140 142/142/142 141/141/141
f 140/140/140 143/143/143 142/142/142
f 144/144/144 146/146/146 145/145/145
f 144/144/144 147/147/147 146/146/146
f 148/148/148 150/150/150 149/149/149
f 148/148/148 151/151/151 150/150/150
f 152/152/152 154/154/154 153/153/153
f 152/152/152 155/155/155 154/154/154
f 156/156/156 158/158/158 157/157/157
f 156/156/156 159/159/159 158/158/158
f 160/160/160 162/162/162 161/161/161
f 160/160/160 163/163/163 162/162/162
f 164/164/164 166/166/166 165/165/165
f 164/164/164 167/167/167 166/166/166
f 168/168/168 170/170/170 169/169/169
f 168/168/168 171/171/171 170/170/170
f 172/172/172 174/174/174 173/173/173
f 175/175/175 177/177/177 176/176/176
f 178/178/178 180/180/180 179/179/179
f 181/181/181 183/183/183 182/182/182
f 184/184/184 186/186/186 185/185/185
f 187/187/187 189/189/189 188/188/188
f 190/190/190 192/192/192 191/191/191
f 193/193/193 195/195/195 194/194/194
f 196/196/196 198/198/198 197/197/197
f 199/199/199 201/201/201 200/200/200
