#Foliage8_3_4313_300.obj

v 0.01454517 -0.02577563 -0.04035842
v 0.004623731 -0.03397601 0.001091301
v 0.03878437 -0.02577555 -0.02105486
v -0.009663528 -0.02577561 -0.03817545
v -0.01825088 -0.02577559 -0.01778051
v -0.03822225 -0.02223215 0.001091312
v -0.02135098 -0.02577555 0.0199631
v -0.005297696 -0.02577561 0.03271793
v 0.02109394 -0.02577564 0.04035812
v 0.03059846 -0.02577561 0.01996311
v 0.03218935 -0.02223218 0.001091283
v 0.03878437 -0.02577555 -0.02105486
v 0.04796676 -0.01489234 -0.02772628
v 0.01805257 -0.01489234 -0.0511529
v 0.01454517 -0.02577563 -0.04035842
v 0.01454517 -0.02577563 -0.04035842
v 0.01805257 -0.01489234 -0.0511529
v -0.01317091 -0.01489241 -0.04897002
v -0.009663528 -0.02577561 -0.03817545
v -0.009663528 -0.02577561 -0.03817545
v -0.01317091 -0.01489241 -0.04897002
v -0.0274333 -0.01489242 -0.02445186
v -0.01825088 -0.02577559 -0.01778051
v -0.01825088 -0.02577559 -0.01778051
v -0.0274333 -0.01489242 -0.02445186
v -0.04796704 -0.01288822 0.001091279
v -0.03822225 -0.02223215 0.001091312
v -0.03822225 -0.02223215 0.001091312
v -0.04796704 -0.01288822 0.001091279
v -0.03053335 -0.01489226 0.02663452
v -0.02135098 -0.02577555 0.0199631
v -0.02135098 -0.02577555 0.0199631
v -0.03053335 -0.01489226 0.02663452
v -0.00880506 -0.01489241 0.04351239
v -0.005297696 -0.02577561 0.03271793
v -0.005297696 -0.02577561 0.03271793
v -0.00880506 -0.01489241 0.04351239
v 0.02460126 -0.01489234 0.05115254
v 0.02109394 -0.02577564 0.04035812
v 0.02109394 -0.02577564 0.04035812
v 0.02460126 -0.01489234 0.05115254
v 0.03978086 -0.01489229 0.0266345
v 0.03059846 -0.02577561 0.01996311
v 0.03059846 -0.02577561 0.01996311
v 0.03978086 -0.01489229 0.0266345
v 0.04193417 -0.01288822 0.001091331
v 0.03218935 -0.02223218 0.001091283
v 0.03218935 -0.02223218 0.001091283
v 0.04193417 -0.01288822 0.001091331
v 0.04796676 -0.01489234 -0.02772628
v 0.03878437 -0.02577555 -0.02105486
v 0.04796676 -0.01489234 -0.02772628
v 0.04796677 -0.0001483605 -0.02772629
v 0.01805256 -0.0001483613 -0.05115288
v 0.01805257 -0.01489234 -0.0511529
v 0.01805257 -0.01489234 -0.0511529
v 0.01805256 -0.0001483613 -0.05115288
v -0.01317089 -0.0001482657 -0.04897002
v -0.01317091 -0.01489241 -0.04897002
v -0.01317091 -0.01489241 -0.04897002
v -0.01317089 -0.0001482657 -0.04897002
v -0.02743327 -0.0001482719 -0.02445186
v -0.0274333 -0.01489242 -0.02445186
v -0.0274333 -0.01489242 -0.02445186
v -0.02743327 -0.0001482719 -0.02445186
v -0.04796703 -0.0002294016 0.001091283
v -0.04796704 -0.01288822 0.001091279
v -0.04796704 -0.01288822 0.001091279
v -0.04796703 -0.0002294016 0.001091283
v -0.03053333 -0.0001482833 0.02663451
v -0.03053335 -0.01489226 0.02663452
v -0.03053335 -0.01489226 0.02663452
v -0.03053333 -0.0001482833 0.02663451
v -0.008805064 -0.0001482604 0.04351242
v -0.00880506 -0.01489241 0.04351239
v -0.00880506 -0.01489241 0.04351239
v -0.008805064 -0.0001482604 0.04351242
v 0.02460125 -0.0001483606 0.05115256
v 0.02460126 -0.01489234 0.05115254
v 0.02460126 -0.01489234 0.05115254
v 0.02460125 -0.0001483606 0.05115256
v 0.03978084 -0.0001483041 0.02663451
v 0.03978086 -0.01489229 0.0266345
v 0.03978086 -0.01489229 0.0266345
v 0.03978084 -0.0001483041 0.02663451
v 0.04193418 -0.0002294009 0.001091336
v 0.04193417 -0.01288822 0.001091331
v 0.04193417 -0.01288822 0.001091331
v 0.04193418 -0.0002294009 0.001091336
v 0.04796677 -0.0001483605 -0.02772629
v 0.04796676 -0.01489234 -0.02772628
v 0.04796677 -0.0001483605 -0.02772629
v 0.0456888 0.01428343 -0.02539693
v 0.01714498 0.01428335 -0.04799137
v 0.01805256 -0.0001483613 -0.05115288
v 0.01805256 -0.0001483613 -0.05115288
v 0.01714498 0.01428335 -0.04799137
v -0.01182925 0.01428343 -0.04559783
v -0.01317089 -0.0001482657 -0.04897002
v -0.01317089 -0.0001482657 -0.04897002
v -0.01182925 0.01428343 -0.04559783
v -0.02321043 0.01428342 -0.02180653
v -0.02743327 -0.0001482719 -0.02445186
v -0.02743327 -0.0001482719 -0.02445186
v -0.02321043 0.01428342 -0.02180653
v -0.04530421 0.0119722 0.001196636
v -0.04796703 -0.0002294016 0.001091283
v -0.04796703 -0.0002294016 0.001091283
v -0.04530421 0.0119722 0.001196636
v -0.0266097 0.01428338 0.02419983
v -0.03053333 -0.0001482833 0.02663451
v -0.03053333 -0.0001482833 0.02663451
v -0.0266097 0.01428338 0.02419983
v -0.007041987 0.0142834 0.03961344
v -0.008805064 -0.0001482604 0.04351242
v -0.008805064 -0.0001482604 0.04351242
v -0.007041987 0.0142834 0.03961344
v 0.02432586 0.01428333 0.04799111
v 0.02460125 -0.0001483606 0.05115256
v 0.02460125 -0.0001483606 0.05115256
v 0.02432586 0.01428333 0.04799111
v 0.03671268 0.01428345 0.02419984
v 0.03978084 -0.0001483041 0.02663451
v 0.03978084 -0.0001483041 0.02663451
v 0.03671268 0.01428345 0.02419984
v 0.03865186 0.01197213 0.001196664
v 0.04193418 -0.0002294009 0.001091336
v 0.04193418 -0.0002294009 0.001091336
v 0.03865186 0.01197213 0.001196664
v 0.0456888 0.01428343 -0.02539693
v 0.04796677 -0.0001483605 -0.02772629
v 0.0456888 0.01428343 -0.02539693
v 0.03225235 0.02437451 -0.01614778
v 0.01203635 0.02437437 -0.03256876
v 0.01714498 0.01428335 -0.04799137
v 0.01714498 0.01428335 -0.04799137
v 0.01203635 0.02437437 -0.03256876
v -0.002592351 0.02437445 -0.02139396
v -0.01182925 0.01428343 -0.04559783
v -0.01182925 0.01428343 -0.04559783
v -0.002592351 0.02437445 -0.02139396
v -0.01125326 0.02437438 -0.01279541
v -0.02321043 0.01428342 -0.02180653
v -0.02321043 0.01428342 -0.02180653
v -0.01125326 0.02437438 -0.01279541
v -0.03124481 0.02074659 0.001117334
v -0.04530421 0.0119722 0.001196636
v -0.04530421 0.0119722 0.001196636
v -0.03124481 0.02074659 0.001117334
v -0.01442722 0.02437441 0.01503008
v -0.0266097 0.01428338 0.02419983
v -0.0266097 0.01428338 0.02419983
v -0.01442722 0.02437441 0.01503008
v -0.002592359 0.02437447 0.0247461
v -0.007041987 0.0142834 0.03961344
v -0.007041987 0.0142834 0.03961344
v -0.002592359 0.02437447 0.0247461
v 0.01874118 0.02437439 0.03256844
v 0.02432586 0.01428333 0.04799111
v 0.02432586 0.01428333 0.04799111
v 0.01874118 0.02437439 0.03256844
v 0.02387124 0.02437445 0.01503009
v 0.03671268 0.01428345 0.02419984
v 0.03671268 0.01428345 0.02419984
v 0.02387124 0.02437445 0.01503009
v 0.02504405 0.02074654 0.001117329
v 0.03865186 0.01197213 0.001196664
v 0.03865186 0.01197213 0.001196664
v 0.02504405 0.02074654 0.001117329
v 0.03225235 0.02437451 -0.01614778
v 0.0456888 0.01428343 -0.02539693
v 0.03225235 0.02437451 -0.01614778
v 0.004623737 0.03397617 0.001091288
v 0.01203635 0.02437437 -0.03256876
v 0.01203635 0.02437437 -0.03256876
v 0.004623737 0.03397617 0.001091288
v -0.002592351 0.02437445 -0.02139396
v -0.002592351 0.02437445 -0.02139396
v 0.004623737 0.03397617 0.001091288
v -0.01125326 0.02437438 -0.01279541
v -0.01125326 0.02437438 -0.01279541
v 0.004623737 0.03397617 0.001091288
v -0.03124481 0.02074659 0.001117334
v -0.03124481 0.02074659 0.001117334
v 0.004623737 0.03397617 0.001091288
v -0.01442722 0.02437441 0.01503008
v -0.01442722 0.02437441 0.01503008
v 0.004623737 0.03397617 0.001091288
v -0.002592359 0.02437447 0.0247461
v -0.002592359 0.02437447 0.0247461
v 0.004623737 0.03397617 0.001091288
v 0.01874118 0.02437439 0.03256844
v 0.01874118 0.02437439 0.03256844
v 0.004623737 0.03397617 0.001091288
v 0.02387124 0.02437445 0.01503009
v 0.02387124 0.02437445 0.01503009
v 0.004623737 0.03397617 0.001091288
v 0.02504405 0.02074654 0.001117329
v 0.02504405 0.02074654 0.001117329
v 0.004623737 0.03397617 0.001091288
v 0.03225235 0.02437451 -0.01614778

vn 0.1704005 -0.9843064 -0.04586969
vn 0.01105331 -0.9983369 0.05657573
vn 0.1981397 -0.9703568 0.1383761
vn 0.05598814 -0.9895172 -0.1331183
vn -0.1254093 -0.9735999 -0.1907231
vn -0.1828285 -0.9747326 -0.1283333
vn -0.2345659 -0.9720874 -0.004922524
vn -0.2077758 -0.9649947 0.1600426
vn -0.06022203 -0.971157 0.2307096
vn 0.2113382 -0.943913 0.2537006
vn 0.2460121 -0.8935964 0.3754504
vn 0.7012544 -0.7043282 -0.1102898
vn 0.7012544 -0.7043282 -0.1102898
vn 0.7012544 -0.7043282 -0.1102897
vn 0.7012544 -0.7043282 -0.1102898
vn 0.4156463 -0.7303129 -0.5421078
vn 0.4156463 -0.730313 -0.5421077
vn 0.4156463 -0.7303129 -0.5421078
vn 0.4156463 -0.7303129 -0.5421078
vn -0.2916228 -0.7021207 -0.6496017
vn -0.2916229 -0.7021206 -0.6496017
vn -0.2916228 -0.7021207 -0.6496017
vn -0.2916229 -0.7021206 -0.6496017
vn -0.1573449 -0.726244 -0.6691875
vn -0.157345 -0.7262439 -0.6691876
vn -0.157345 -0.7262439 -0.6691875
vn -0.157345 -0.7262439 -0.6691875
vn -0.7058487 -0.7063418 -0.053464
vn -0.7058487 -0.7063418 -0.053464
vn -0.7058488 -0.7063417 -0.05346403
vn -0.7058488 -0.7063418 -0.053464
vn -0.6870398 -0.7012078 0.1904825
vn -0.6870399 -0.7012078 0.1904825
vn -0.6870397 -0.7012078 0.1904825
vn -0.6870397 -0.7012078 0.1904825
vn -0.5760313 -0.6738968 0.4626559
vn -0.5760313 -0.6738969 0.4626559
vn -0.5760313 -0.6738969 0.462656
vn -0.5760313 -0.6738968 0.4626559
vn 0.2806104 -0.6257413 0.7278087
vn 0.2806103 -0.6257413 0.7278087
vn 0.2806103 -0.6257413 0.7278087
vn 0.2806104 -0.6257413 0.7278087
vn 0.586629 -0.6473076 0.4866815
vn 0.586629 -0.6473077 0.4866815
vn 0.586629 -0.6473076 0.4866815
vn 0.586629 -0.6473076 0.4866815
vn 0.4207208 -0.5733495 0.7030392
vn 0.4207208 -0.5733494 0.7030393
vn 0.4207208 -0.5733495 0.7030392
vn 0.4207208 -0.5733494 0.7030392
vn 0.9768567 -0.00234868 -0.2138818
vn 0.9768567 -0.002348678 -0.2138818
vn 0.9768567 -0.002348678 -0.2138818
vn 0.9768567 -0.00234868 -0.2138818
vn 0.5820544 -0.03947984 -0.8121909
vn 0.5820544 -0.03947984 -0.8121909
vn 0.5820544 -0.03947984 -0.8121909
vn 0.5820544 -0.03947984 -0.8121909
vn -0.3455555 -0.05547173 -0.9367573
vn -0.3455555 -0.05547173 -0.9367573
vn -0.3455555 -0.05547173 -0.9367573
vn -0.3455555 -0.05547173 -0.9367573
vn -0.2012132 -0.05635066 -0.9779252
vn -0.2012133 -0.05635066 -0.9779253
vn -0.2012132 -0.05635066 -0.9779252
vn -0.2012132 -0.05635066 -0.9779252
vn -0.995706 -0.01481166 -0.09137833
vn -0.995706 -0.01481166 -0.09137833
vn -0.9957061 -0.01481165 -0.09137821
vn -0.995706 -0.01481166 -0.09137833
vn -0.9760044 0.002571313 0.2177354
vn -0.9760044 0.002571313 0.2177354
vn -0.9760044 0.002571313 0.2177354
vn -0.9760044 0.002571313 0.2177354
vn -0.7930877 0.02609266 0.6085483
vn -0.7930877 0.02609266 0.6085483
vn -0.7930877 0.02609266 0.6085483
vn -0.7930877 0.02609266 0.6085483
vn 0.319627 0.05572699 0.9459033
vn 0.319627 0.05572699 0.9459033
vn 0.319627 0.05572699 0.9459033
vn 0.319627 0.05572699 0.9459033
vn 0.7142558 0.04581816 0.6983833
vn 0.7142558 0.04581816 0.6983833
vn 0.7142558 0.04581816 0.6983833
vn 0.7142558 0.04581816 0.6983833
vn 0.62358 0.04948163 0.7801919
vn 0.62358 0.04948163 0.7801919
vn 0.62358 0.04948163 0.7801919
vn 0.62358 0.04948163 0.7801919
vn 0.9529454 0.2102641 -0.2183669
vn 0.9529454 0.2102641 -0.2183669
vn 0.9529454 0.2102641 -0.2183669
vn 0.9529454 0.2102641 -0.2183669
vn 0.5606418 0.182142 -0.8077779
vn 0.5606418 0.182142 -0.8077779
vn 0.5606418 0.182142 -0.8077779
vn 0.5606418 0.182142 -0.8077779
vn -0.3712628 0.2053219 -0.9055421
vn -0.3712628 0.2053219 -0.9055423
vn -0.3712628 0.2053219 -0.9055422
vn -0.3712628 0.2053219 -0.9055421
vn -0.1650243 0.1997145 -0.9658577
vn -0.1650243 0.1997145 -0.9658577
vn -0.1650243 0.1997144 -0.9658577
vn -0.1650244 0.1997145 -0.9658577
vn -0.9703441 0.2306685 -0.07228014
vn -0.9703441 0.2306685 -0.07228014
vn -0.970344 0.2306685 -0.0722802
vn -0.9703441 0.2306685 -0.07228014
vn -0.9397396 0.284104 0.1901954
vn -0.9397396 0.284104 0.1901953
vn -0.9397396 0.284104 0.1901953
vn -0.9397396 0.284104 0.1901953
vn -0.7820743 0.2664586 0.5633467
vn -0.7820743 0.2664586 0.5633467
vn -0.7820743 0.2664586 0.5633467
vn -0.7820743 0.2664586 0.5633467
vn 0.3448263 0.2470447 0.9055737
vn 0.3448263 0.2470447 0.9055737
vn 0.3448262 0.2470447 0.9055737
vn 0.3448263 0.2470447 0.9055737
vn 0.6996653 0.2809063 0.6569324
vn 0.6996653 0.2809063 0.6569324
vn 0.6996653 0.2809063 0.6569324
vn 0.6996653 0.2809063 0.6569324
vn 0.5862309 0.2275152 0.777541
vn 0.5862309 0.2275152 0.7775409
vn 0.5862309 0.2275152 0.777541
vn 0.5862309 0.2275152 0.777541
vn 0.5278133 0.8345428 -0.1579589
vn 0.5278133 0.8345428 -0.1579589
vn 0.5278133 0.8345428 -0.1579589
vn 0.5278133 0.8345428 -0.1579589
vn 0.1655793 0.865138 -0.4734124
vn 0.1655793 0.8651379 -0.4734124
vn 0.1655793 0.865138 -0.4734124
vn 0.1655794 0.865138 -0.4734124
vn -0.1665648 0.8404112 -0.5157176
vn -0.1665647 0.8404112 -0.5157176
vn -0.1665648 0.8404112 -0.5157176
vn -0.1665647 0.8404112 -0.5157176
vn -0.1102148 0.7701682 -0.6282459
vn -0.1102148 0.7701683 -0.6282459
vn -0.1102148 0.7701683 -0.6282459
vn -0.1102148 0.7701683 -0.6282459
vn -0.5800463 0.8087536 -0.09728085
vn -0.5800463 0.8087536 -0.09728082
vn -0.5800464 0.8087536 -0.09728085
vn -0.5800463 0.8087536 -0.09728085
vn -0.5652086 0.8219536 0.07022193
vn -0.5652087 0.8219535 0.07022187
vn -0.5652087 0.8219535 0.07022193
vn -0.5652087 0.8219535 0.07022187
vn -0.4895374 0.8288208 0.2709404
vn -0.4895373 0.8288208 0.2709405
vn -0.4895373 0.8288208 0.2709405
vn -0.4895373 0.8288208 0.2709405
vn 0.2709606 0.8274978 0.4917592
vn 0.2709606 0.8274978 0.4917593
vn 0.2709606 0.8274978 0.4917593
vn 0.2709606 0.8274978 0.4917593
vn 0.5019272 0.8199892 0.2751115
vn 0.5019271 0.8199893 0.2751115
vn 0.5019271 0.8199893 0.2751115
vn 0.5019271 0.8199892 0.2751116
vn 0.2745202 0.7685277 0.5779303
vn 0.2745203 0.7685277 0.5779303
vn 0.2745202 0.7685277 0.5779303
vn 0.2745202 0.7685277 0.5779303
vn 0.2824966 0.9527681 -0.1114812
vn 0.2824966 0.9527681 -0.1114813
vn 0.2824966 0.9527681 -0.1114812
vn 0.00639163 0.8948532 -0.4463143
vn 0.006391644 0.8948532 -0.4463144
vn 0.006391659 0.8948532 -0.4463143
vn -0.04647774 0.884982 -0.4632992
vn -0.04647772 0.884982 -0.4632993
vn -0.04647776 0.884982 -0.4632993
vn -0.111265 0.8847241 -0.4526399
vn -0.1112651 0.8847241 -0.4526399
vn -0.1112651 0.8847241 -0.4526399
vn -0.3805985 0.9146079 -0.136516
vn -0.3805985 0.9146079 -0.136516
vn -0.3805985 0.9146079 -0.136516
vn -0.3890628 0.920926 0.02291104
vn -0.3890628 0.920926 0.02291103
vn -0.3890628 0.920926 0.02291103
vn -0.3220829 0.9376312 0.1308038
vn -0.3220829 0.9376312 0.1308038
vn -0.3220829 0.9376312 0.1308038
vn 0.2120104 0.9378496 0.2747526
vn 0.2120104 0.9378496 0.2747527
vn 0.2120104 0.9378496 0.2747527
vn 0.5135026 0.8423223 0.1637311
vn 0.5135025 0.8423223 0.163731
vn 0.5135025 0.8423223 0.163731
vn 0.1423289 0.8126331 0.565128
vn 0.1423289 0.812633 0.565128
vn 0.1423289 0.8126331 0.565128

vt 0.5482839 0.007647395
vt 0.5 0.15
vt 0.6264089 0.06440853
vt 0.4517161 0.00764741
vt 0.3735911 0.06440856
vt 0.34375 0.15625
vt 0.3735911 0.2480915
vt 0.4517161 0.3048526
vt 0.5482839 0.3048526
vt 0.6264089 0.2480914
vt 0.65625 0.15625
vt 0 0
vt 0 1
vt 1 1
vt 1 0
vt 0 0
vt 0 1
vt 1 1
vt 1 0
vt 0 0
vt 0 1
vt 1 1
vt 1 0
vt 0 0
vt 0 1
vt 1 1
vt 1 0
vt 0 0
vt 0 1
vt 1 1
vt 1 0
vt 0 0
vt 0 1
vt 1 1
vt 1 0
vt 0 0
vt 0 1
vt 1 1
vt 1 0
vt 0 0
vt 0 1
vt 1 1
vt 1 0
vt 0 0
vt 0 1
vt 1 1
vt 1 0
vt 0 0
vt 0 1
vt 1 1
vt 1 0
vt 0 0
vt 0 1
vt 1 1
vt 1 0
vt 0 0
vt 0 1
vt 1 1
vt 1 0
vt 0 0
vt 0 1
vt 1 1
vt 1 0
vt 0 0
vt 0 1
vt 1 1
vt 1 0
vt 0 0
vt 0 1
vt 1 1
vt 1 0
vt 0 0
vt 0 1
vt 1 1
vt 1 0
vt 0 0
vt 0 1
vt 1 1
vt 1 0
vt 0 0
vt 0 1
vt 1 1
vt 1 0
vt 0 0
vt 0 1
vt 1 1
vt 1 0
vt 0 0
vt 0 1
vt 1 1
vt 1 0
vt 0 0
vt 0 1
vt 1 1
vt 1 0
vt 0 0
vt 0 1
vt 1 1
vt 1 0
vt 0 0
vt 0 1
vt 1 1
vt 1 0
vt 0 0
vt 0 1
vt 1 1
vt 1 0
vt 0 0
vt 0 1
vt 1 1
vt 1 0
vt 0 0
vt 0 1
vt 1 1
vt 1 0
vt 0 0
vt 0 1
vt 1 1
vt 1 0
vt 0 0
vt 0 1
vt 1 1
vt 1 0
vt 0 0
vt 0 1
vt 1 1
vt 1 0
vt 0 0
vt 0 1
vt 1 1
vt 1 0
vt 0 0
vt 0 1
vt 1 1
vt 1 0
vt 0 0
vt 0 1
vt 1 1
vt 1 0
vt 0 0
vt 0 1
vt 1 1
vt 1 0
vt 0 0
vt 0 1
vt 1 1
vt 1 0
vt 0 0
vt 0 1
vt 1 1
vt 1 0
vt 0 0
vt 0 1
vt 1 1
vt 1 0
vt 0 0
vt 0 1
vt 1 1
vt 1 0
vt 0 0
vt 0 1
vt 1 1
vt 1 0
vt 0 0
vt 0 1
vt 1 1
vt 1 0
vt 0 0
vt 0 1
vt 1 1
vt 1 0
vt 0 0
vt 0.5 1
vt 1 0
vt 0 0
vt 0.5 1
vt 1 0
vt 0 0
vt 0.5 1
vt 1 0
vt 0 0
vt 0.5 1
vt 1 0
vt 0 0
vt 0.5 1
vt 1 0
vt 0 0
vt 0.5 1
vt 1 0
vt 0 0
vt 0.5 1
vt 1 0
vt 0 0
vt 0.5 1
vt 1 0
vt 0 0
vt 0.5 1
vt 1 0
vt 0 0
vt 0.5 1
vt 1 0

g Foliage8_3_4313_300
usemtl Foliage8_3_4313_300
usemap Foliage8_3_4313_300
f 1/1/1 3/3/3 2/2/2
f 4/4/4 1/1/1 2/2/2
f 5/5/5 4/4/4 2/2/2
f 6/6/6 5/5/5 2/2/2
f 7/7/7 6/6/6 2/2/2
f 8/8/8 7/7/7 2/2/2
f 9/9/9 8/8/8 2/2/2
f 10/10/10 9/9/9 2/2/2
f 11/11/11 10/10/10 2/2/2
f 3/3/3 11/11/11 2/2/2
f 12/12/12 14/14/14 13/13/13
f 12/12/12 15/15/15 14/14/14
f 16/16/16 18/18/18 17/17/17
f 16/16/16 19/19/19 18/18/18
f 20/20/20 22/22/22 21/21/21
f 20/20/20 23/23/23 22/22/22
f 24/24/24 26/26/26 25/25/25
f 24/24/24 27/27/27 26/26/26
f 28/28/28 30/30/30 29/29/29
f 28/28/28 31/31/31 30/30/30
f 32/32/32 34/34/34 33/33/33
f 32/32/32 35/35/35 34/34/34
f 36/36/36 38/38/38 37/37/37
f 36/36/36 39/39/39 38/38/38
f 40/40/40 42/42/42 41/41/41
f 40/40/40 43/43/43 42/42/42
f 44/44/44 46/46/46 45/45/45
f 44/44/44 47/47/47 46/46/46
f 48/48/48 50/50/50 49/49/49
f 48/48/48 51/51/51 50/50/50
f 52/52/52 54/54/54 53/53/53
f 52/52/52 55/55/55 54/54/54
f 56/56/56 58/58/58 57/57/57
f 56/56/56 59/59/59 58/58/58
f 60/60/60 62/62/62 61/61/61
f 60/60/60 63/63/63 62/62/62
f 64/64/64 66/66/66 65/65/65
f 64/64/64 67/67/67 66/66/66
f 68/68/68 70/70/70 69/69/69
f 68/68/68 71/71/71 70/70/70
f 72/72/72 74/74/74 73/73/73
f 72/72/72 75/75/75 74/74/74
f 76/76/76 78/78/78 77/77/77
f 76/76/76 79/79/79 78/78/78
f 80/80/80 82/82/82 81/81/81
f 80/80/80 83/83/83 82/82/82
f 84/84/84 86/86/86 85/85/85
f 84/84/84 87/87/87 86/86/86
f 88/88/88 90/90/90 89/89/89
f 88/88/88 91/91/91 90/90/90
f 92/92/92 94/94/94 93/93/93
f 92/92/92 95/95/95 94/94/94
f 96/96/96 98/98/98 97/97/97
f 96/96/96 99/99/99 98/98/98
f 100/100/100 102/102/102 101/101/101
f 100/100/100 103/103/103 102/102/102
f 104/104/104 106/106/106 105/105/105
f 104/104/104 107/107/107 106/106/106
f 108/108/108 110/110/110 109/109/109
f 108/108/108 111/111/111 110/110/110
f 112/112/112 114/114/114 113/113/113
f 112/112/112 115/115/115 114/114/114
f 116/116/116 118/118/118 117/117/117
f 116/116/116 119/119/119 118/118/118
f 120/120/120 122/122/122 121/121/121
f 120/120/120 123/123/123 122/122/122
f 124/124/124 126/126/126 125/125/125
f 124/124/124 127/127/127 126/126/126
f 128/128/128 130/130/130 129/129/129
f 128/128/128 131/131/131 130/130/130
f 132/132/132 134/134/134 133/133/133
f 132/132/132 135/135/135 134/134/134
f 136/136/136 138/138/138 137/137/137
f 136/136/136 139/139/139 138/138/138
f 140/140/140 142/142/142 141/141/141
f 140/140/140 143/143/143 142/142/142
f 144/144/144 146/146/146 145/145/145
f 144/144/144 147/147/147 146/146/146
f 148/148/148 150/150/150 149/149/149
f 148/148/148 151/151/151 150/150/150
f 152/152/152 154/154/154 153/153/153
f 152/152/152 155/155/155 154/154/154
f 156/156/156 158/158/158 157/157/157
f 156/156/156 159/159/159 158/158/158
f 160/160/160 162/162/162 161/161/161
f 160/160/160 163/163/163 162/162/162
f 164/164/164 166/166/166 165/165/165
f 164/164/164 167/167/167 166/166/166
f 168/168/168 170/170/170 169/169/169
f 168/168/168 171/171/171 170/170/170
f 172/172/172 174/174/174 173/173/173
f 175/175/175 177/177/177 176/176/176
f 178/178/178 180/180/180 179/179/179
f 181/181/181 183/183/183 182/182/182
f 184/184/184 186/186/186 185/185/185
f 187/187/187 189/189/189 188/188/188
f 190/190/190 192/192/192 191/191/191
f 193/193/193 195/195/195 194/194/194
f 196/196/196 198/198/198 197/197/197
f 199/199/199 201/201/201 200/200/200
