#Foliage1_39_3581_115.obj

v 0.01454646 -0.02577549 -0.04036047
v 0.004625114 -0.03397601 0.001088967
v 0.03878555 -0.0257755 -0.02105684
v -0.009662597 -0.02577556 -0.03817717
v -0.01824966 -0.02577554 -0.01778262
v -0.0382211 -0.02223208 0.001089271
v -0.02134989 -0.02577559 0.01996109
v -0.005296599 -0.02577561 0.03271599
v 0.02109502 -0.02577564 0.04035643
v 0.03059969 -0.02577564 0.01996117
v 0.03219037 -0.02223222 0.001089591
v 0.03878555 -0.0257755 -0.02105684
v 0.04796818 -0.01489237 -0.02772855
v 0.01805375 -0.0148923 -0.05115481
v 0.01454646 -0.02577549 -0.04036047
v 0.01454646 -0.02577549 -0.04036047
v 0.01805375 -0.0148923 -0.05115481
v -0.01316962 -0.01489222 -0.04897233
v -0.009662597 -0.02577556 -0.03817717
v -0.009662597 -0.02577556 -0.03817717
v -0.01316962 -0.01489222 -0.04897233
v -0.02743196 -0.01489222 -0.02445397
v -0.01824966 -0.02577554 -0.01778262
v -0.01824966 -0.02577554 -0.01778262
v -0.02743196 -0.01489222 -0.02445397
v -0.04796598 -0.01288816 0.001089492
v -0.0382211 -0.02223208 0.001089271
v -0.0382211 -0.02223208 0.001089271
v -0.04796598 -0.01288816 0.001089492
v -0.03053218 -0.01489224 0.02663234
v -0.02134989 -0.02577559 0.01996109
v -0.02134989 -0.02577559 0.01996109
v -0.03053218 -0.01489224 0.02663234
v -0.008803944 -0.01489235 0.04351063
v -0.005296599 -0.02577561 0.03271599
v -0.005296599 -0.02577561 0.03271599
v -0.008803944 -0.01489235 0.04351063
v 0.02460263 -0.01489229 0.05115031
v 0.02109502 -0.02577564 0.04035643
v 0.02109502 -0.02577564 0.04035643
v 0.02460263 -0.01489229 0.05115031
v 0.03978193 -0.01489234 0.02663282
v 0.03059969 -0.02577564 0.01996117
v 0.03059969 -0.02577564 0.01996117
v 0.03978193 -0.01489234 0.02663282
v 0.04193525 -0.01288809 0.001089581
v 0.03219037 -0.02223222 0.001089591
v 0.03219037 -0.02223222 0.001089591
v 0.04193525 -0.01288809 0.001089581
v 0.04796818 -0.01489237 -0.02772855
v 0.03878555 -0.0257755 -0.02105684
v 0.04796818 -0.01489237 -0.02772855
v 0.04796809 -0.0001481657 -0.02772848
v 0.01805377 -0.0001482631 -0.05115469
v 0.01805375 -0.0148923 -0.05115481
v 0.01805375 -0.0148923 -0.05115481
v 0.01805377 -0.0001482631 -0.05115469
v -0.0131696 -0.0001481902 -0.04897221
v -0.01316962 -0.01489222 -0.04897233
v -0.01316962 -0.01489222 -0.04897233
v -0.0131696 -0.0001481902 -0.04897221
v -0.02743214 -0.0001481935 -0.02445396
v -0.02743196 -0.01489222 -0.02445397
v -0.02743196 -0.01489222 -0.02445397
v -0.02743214 -0.0001481935 -0.02445396
v -0.04796574 -0.0002292823 0.001089238
v -0.04796598 -0.01288816 0.001089492
v -0.04796598 -0.01288816 0.001089492
v -0.04796574 -0.0002292823 0.001089238
v -0.03053217 -0.000148202 0.02663246
v -0.03053218 -0.01489224 0.02663234
v -0.03053218 -0.01489224 0.02663234
v -0.03053217 -0.000148202 0.02663246
v -0.008804026 -0.0001483226 0.0435107
v -0.008803944 -0.01489235 0.04351063
v -0.008803944 -0.01489235 0.04351063
v -0.008804026 -0.0001483226 0.0435107
v 0.02460255 -0.000148263 0.05115038
v 0.02460263 -0.01489229 0.05115031
v 0.02460263 -0.01489229 0.05115031
v 0.02460255 -0.000148263 0.05115038
v 0.03978185 -0.0001483073 0.02663288
v 0.03978193 -0.01489234 0.02663282
v 0.03978193 -0.01489234 0.02663282
v 0.03978185 -0.0001483073 0.02663288
v 0.0419354 -0.0002293937 0.001089266
v 0.04193525 -0.01288809 0.001089581
v 0.04193525 -0.01288809 0.001089581
v 0.0419354 -0.0002293937 0.001089266
v 0.04796809 -0.0001481657 -0.02772848
v 0.04796818 -0.01489237 -0.02772855
v 0.04796809 -0.0001481657 -0.02772848
v 0.04568991 0.01428346 -0.02539884
v 0.01714631 0.01428344 -0.04799374
v 0.01805377 -0.0001482631 -0.05115469
v 0.01805377 -0.0001482631 -0.05115469
v 0.01714631 0.01428344 -0.04799374
v -0.01182801 0.01428345 -0.04559994
v -0.0131696 -0.0001481902 -0.04897221
v -0.0131696 -0.0001481902 -0.04897221
v -0.01182801 0.01428345 -0.04559994
v -0.02320933 0.01428345 -0.02180818
v -0.02743214 -0.0001481935 -0.02445396
v -0.02743214 -0.0001481935 -0.02445396
v -0.02320933 0.01428345 -0.02180818
v -0.04530326 0.0119721 0.001194966
v -0.04796574 -0.0002292823 0.001089238
v -0.04796574 -0.0002292823 0.001089238
v -0.04530326 0.0119721 0.001194966
v -0.02660855 0.01428335 0.02419806
v -0.03053217 -0.000148202 0.02663246
v -0.03053217 -0.000148202 0.02663246
v -0.02660855 0.01428335 0.02419806
v -0.00704095 0.01428343 0.03961166
v -0.008804026 -0.0001483226 0.0435107
v -0.008804026 -0.0001483226 0.0435107
v -0.00704095 0.01428343 0.03961166
v 0.02432718 0.01428342 0.04798888
v 0.02460255 -0.000148263 0.05115038
v 0.02460255 -0.000148263 0.05115038
v 0.02432718 0.01428342 0.04798888
v 0.03671398 0.01428337 0.02419776
v 0.03978185 -0.0001483073 0.02663288
v 0.03978185 -0.0001483073 0.02663288
v 0.03671398 0.01428337 0.02419776
v 0.03865315 0.01197221 0.001194593
v 0.0419354 -0.0002293937 0.001089266
v 0.0419354 -0.0002293937 0.001089266
v 0.03865315 0.01197221 0.001194593
v 0.04568991 0.01428346 -0.02539884
v 0.04796809 -0.0001481657 -0.02772848
v 0.04568991 0.01428346 -0.02539884
v 0.03225354 0.0243744 -0.01614986
v 0.01203754 0.02437456 -0.03257087
v 0.01714631 0.01428344 -0.04799374
v 0.01714631 0.01428344 -0.04799374
v 0.01203754 0.02437456 -0.03257087
v -0.00259105 0.02437451 -0.02139612
v -0.01182801 0.01428345 -0.04559994
v -0.01182801 0.01428345 -0.04559994
v -0.00259105 0.02437451 -0.02139612
v -0.01125209 0.02437443 -0.01279723
v -0.02320933 0.01428345 -0.02180818
v -0.02320933 0.01428345 -0.02180818
v -0.01125209 0.02437443 -0.01279723
v -0.03124377 0.02074647 0.001115546
v -0.04530326 0.0119721 0.001194966
v -0.04530326 0.0119721 0.001194966
v -0.03124377 0.02074647 0.001115546
v -0.01442582 0.0243745 0.01502783
v -0.02660855 0.01428335 0.02419806
v -0.02660855 0.01428335 0.02419806
v -0.01442582 0.0243745 0.01502783
v -0.002591143 0.02437455 0.02474407
v -0.00704095 0.01428343 0.03961166
v -0.00704095 0.01428343 0.03961166
v -0.002591143 0.02437455 0.02474407
v 0.01874226 0.0243744 0.03256674
v 0.02432718 0.01428342 0.04798888
v 0.02432718 0.01428342 0.04798888
v 0.01874226 0.0243744 0.03256674
v 0.0238726 0.02437446 0.01502771
v 0.03671398 0.01428337 0.02419776
v 0.03671398 0.01428337 0.02419776
v 0.0238726 0.02437446 0.01502771
v 0.02504521 0.02074659 0.001115372
v 0.03865315 0.01197221 0.001194593
v 0.03865315 0.01197221 0.001194593
v 0.02504521 0.02074659 0.001115372
v 0.03225354 0.0243744 -0.01614986
v 0.04568991 0.01428346 -0.02539884
v 0.03225354 0.0243744 -0.01614986
v 0.004624959 0.0339762 0.001089295
v 0.01203754 0.02437456 -0.03257087
v 0.01203754 0.02437456 -0.03257087
v 0.004624959 0.0339762 0.001089295
v -0.00259105 0.02437451 -0.02139612
v -0.00259105 0.02437451 -0.02139612
v 0.004624959 0.0339762 0.001089295
v -0.01125209 0.02437443 -0.01279723
v -0.01125209 0.02437443 -0.01279723
v 0.004624959 0.0339762 0.001089295
v -0.03124377 0.02074647 0.001115546
v -0.03124377 0.02074647 0.001115546
v 0.004624959 0.0339762 0.001089295
v -0.01442582 0.0243745 0.01502783
v -0.01442582 0.0243745 0.01502783
v 0.004624959 0.0339762 0.001089295
v -0.002591143 0.02437455 0.02474407
v -0.002591143 0.02437455 0.02474407
v 0.004624959 0.0339762 0.001089295
v 0.01874226 0.0243744 0.03256674
v 0.01874226 0.0243744 0.03256674
v 0.004624959 0.0339762 0.001089295
v 0.0238726 0.02437446 0.01502771
v 0.0238726 0.02437446 0.01502771
v 0.004624959 0.0339762 0.001089295
v 0.02504521 0.02074659 0.001115372
v 0.02504521 0.02074659 0.001115372
v 0.004624959 0.0339762 0.001089295
v 0.03225354 0.0243744 -0.01614986

vn -0.07457636 -0.9805266 -0.1816752
vn -0.02734196 -0.9987221 0.04250481
vn 0.1610926 -0.9793468 -0.1221846
vn -0.2317161 -0.9677393 -0.09893572
vn -0.3766756 -0.923865 0.06774214
vn -0.3311725 -0.9300146 0.1593662
vn -0.210293 -0.938033 0.2754466
vn -0.00149327 -0.9450626 0.326886
vn 0.1507554 -0.9674843 0.2030936
vn 0.3045927 -0.9491238 -0.07992082
vn 0.4583864 -0.8868378 -0.05831405
vn 0.1137208 -0.6688648 -0.7346342
vn 0.1137207 -0.6688648 -0.7346342
vn 0.1137209 -0.6688648 -0.7346342
vn 0.1137207 -0.6688648 -0.7346342
vn -0.4703789 -0.6297143 -0.6182262
vn -0.4703788 -0.6297143 -0.6182262
vn -0.4703789 -0.6297143 -0.6182262
vn -0.4703788 -0.6297143 -0.6182262
vn -0.8392367 -0.5435305 0.01601494
vn -0.8392367 -0.5435304 0.01601494
vn -0.8392367 -0.5435305 0.01601494
vn -0.8392367 -0.5435304 0.01601497
vn -0.8121871 -0.5716544 -0.1164614
vn -0.8121872 -0.5716543 -0.1164614
vn -0.8121871 -0.5716543 -0.1164614
vn -0.8121872 -0.5716544 -0.1164613
vn -0.4187324 -0.594403 0.6865481
vn -0.4187324 -0.594403 0.6865481
vn -0.4187325 -0.594403 0.6865481
vn -0.4187324 -0.5944029 0.6865481
vn -0.146861 -0.6081122 0.7801484
vn -0.1468611 -0.608112 0.7801483
vn -0.1468611 -0.6081122 0.7801484
vn -0.1468611 -0.6081122 0.7801484
vn 0.1964407 -0.5954823 0.7789813
vn 0.1964406 -0.5954823 0.7789813
vn 0.1964407 -0.5954823 0.7789813
vn 0.1964407 -0.5954823 0.7789813
vn 0.8097636 -0.5839438 0.05738163
vn 0.8097635 -0.5839438 0.05738166
vn 0.8097635 -0.5839438 0.05738166
vn 0.8097636 -0.5839437 0.05738159
vn 0.7041299 -0.6230894 -0.3405299
vn 0.7041299 -0.6230894 -0.3405299
vn 0.7041299 -0.6230894 -0.3405299
vn 0.7041299 -0.6230894 -0.3405299
vn 0.8376076 -0.5396897 -0.08454926
vn 0.8376076 -0.5396896 -0.0845493
vn 0.8376076 -0.5396897 -0.08454926
vn 0.8376076 -0.5396897 -0.08454927
vn 0.167169 -0.03378781 -0.9853492
vn 0.167169 -0.03378781 -0.9853491
vn 0.167169 -0.03378781 -0.9853491
vn 0.167169 -0.03378781 -0.9853492
vn -0.5668952 -0.01502021 -0.823653
vn -0.5668952 -0.01502021 -0.823653
vn -0.5668952 -0.01502021 -0.823653
vn -0.5668952 -0.01502021 -0.823653
vn -0.9979493 0.01675209 -0.06177801
vn -0.9979493 0.01675209 -0.06177801
vn -0.9979493 0.01675209 -0.06177801
vn -0.9979493 0.01675209 -0.06177801
vn -0.9801617 0.01218609 -0.1978245
vn -0.9801617 0.01218609 -0.1978244
vn -0.9801617 0.01218609 -0.1978245
vn -0.9801617 0.01218609 -0.1978245
vn -0.4839073 0.0362616 0.8743677
vn -0.4839073 0.0362616 0.8743677
vn -0.4839073 0.0362616 0.8743677
vn -0.4839073 0.0362616 0.8743677
vn -0.1628947 0.03373015 0.9860668
vn -0.1628947 0.03373015 0.9860668
vn -0.1628947 0.03373015 0.9860668
vn -0.1628947 0.03373015 0.9860668
vn 0.2993917 0.02407634 0.9538264
vn 0.2993917 0.02407634 0.9538264
vn 0.2993917 0.02407634 0.9538264
vn 0.2993917 0.02407634 0.9538264
vn 0.9960867 -0.01593452 0.08693313
vn 0.9960867 -0.01593452 0.08693313
vn 0.9960867 -0.01593452 0.08693313
vn 0.9960867 -0.01593452 0.08693313
vn 0.9369057 -0.02837359 -0.3484288
vn 0.9369057 -0.02837359 -0.3484288
vn 0.9369057 -0.02837359 -0.3484288
vn 0.9369057 -0.02837359 -0.3484288
vn 0.9715184 -0.02551016 -0.2355873
vn 0.9715184 -0.02551016 -0.2355873
vn 0.9715184 -0.02551016 -0.2355873
vn 0.9715184 -0.02551016 -0.2355873
vn 0.1719888 0.1457166 -0.974262
vn 0.1719888 0.1457166 -0.974262
vn 0.1719888 0.1457166 -0.974262
vn 0.1719888 0.1457166 -0.974262
vn -0.5571665 0.162464 -0.8143532
vn -0.5571665 0.162464 -0.8143532
vn -0.5571665 0.162464 -0.8143532
vn -0.5571665 0.162464 -0.8143532
vn -0.975008 0.2194973 -0.03435793
vn -0.975008 0.2194973 -0.03435789
vn -0.975008 0.2194973 -0.03435796
vn -0.975008 0.2194973 -0.03435793
vn -0.9501275 0.2081465 -0.2322345
vn -0.9501275 0.2081465 -0.2322345
vn -0.9501275 0.2081465 -0.2322345
vn -0.9501275 0.2081465 -0.2322345
vn -0.439767 0.2417151 0.8649733
vn -0.439767 0.2417151 0.8649733
vn -0.439767 0.2417151 0.8649732
vn -0.439767 0.2417151 0.8649733
vn -0.1550403 0.2728444 0.9494832
vn -0.1550404 0.2728444 0.9494832
vn -0.1550404 0.2728445 0.9494832
vn -0.1550404 0.2728445 0.9494832
vn 0.2824766 0.2244927 0.9326361
vn 0.2824766 0.2244927 0.9326361
vn 0.2824766 0.2244927 0.9326361
vn 0.2824766 0.2244927 0.9326361
vn 0.9901202 0.1321141 0.04698761
vn 0.9901202 0.1321141 0.04698761
vn 0.9901202 0.1321141 0.04698767
vn 0.9901202 0.1321141 0.04698761
vn 0.9188946 0.1610464 -0.3601342
vn 0.9188946 0.1610464 -0.3601342
vn 0.9188946 0.1610464 -0.3601342
vn 0.9188946 0.1610464 -0.3601342
vn 0.971168 0.1152314 -0.2086969
vn 0.971168 0.1152314 -0.2086969
vn 0.971168 0.1152314 -0.2086969
vn 0.971168 0.1152314 -0.2086969
vn 0.1319316 0.7613423 -0.6347849
vn 0.1319316 0.7613423 -0.6347849
vn 0.1319316 0.7613423 -0.6347849
vn 0.1319316 0.7613423 -0.6347849
vn -0.3819996 0.8281221 -0.4102317
vn -0.3819997 0.8281221 -0.4102318
vn -0.3819996 0.8281221 -0.4102317
vn -0.3819996 0.828122 -0.4102318
vn -0.5724372 0.8153298 -0.08690798
vn -0.5724372 0.8153298 -0.086908
vn -0.5724372 0.8153298 -0.08690798
vn -0.5724372 0.8153298 -0.086908
vn -0.6581876 0.7291632 -0.1873764
vn -0.6581876 0.7291632 -0.1873764
vn -0.6581876 0.7291632 -0.1873764
vn -0.6581876 0.7291632 -0.1873764
vn -0.2903898 0.7942882 0.533648
vn -0.2903898 0.7942882 0.533648
vn -0.2903898 0.7942882 0.533648
vn -0.2903898 0.7942882 0.533648
vn -0.09173443 0.7972866 0.5965893
vn -0.0917345 0.7972866 0.5965893
vn -0.09173446 0.7972866 0.5965894
vn -0.0917345 0.7972866 0.5965893
vn 0.169619 0.778689 0.6040472
vn 0.169619 0.778689 0.6040472
vn 0.169619 0.778689 0.6040472
vn 0.169619 0.778689 0.6040472
vn 0.7169902 0.6936792 -0.06880525
vn 0.7169903 0.6936792 -0.06880527
vn 0.7169903 0.6936792 -0.06880523
vn 0.7169903 0.6936792 -0.06880527
vn 0.5912699 0.7022319 -0.396573
vn 0.5912698 0.7022321 -0.396573
vn 0.5912698 0.702232 -0.396573
vn 0.5912699 0.7022319 -0.396573
vn 0.7844127 0.6193994 -0.03226572
vn 0.7844127 0.6193995 -0.03226575
vn 0.7844127 0.6193994 -0.03226572
vn 0.7844127 0.6193994 -0.03226572
vn 0.09191877 0.9199784 -0.381039
vn 0.09191874 0.9199784 -0.381039
vn 0.09191877 0.9199784 -0.381039
vn -0.424123 0.8737513 -0.238072
vn -0.424123 0.8737513 -0.238072
vn -0.424123 0.8737513 -0.238072
vn -0.4660562 0.8641483 -0.1898405
vn -0.4660563 0.8641483 -0.1898405
vn -0.4660563 0.8641483 -0.1898405
vn -0.4832192 0.8675311 -0.1178512
vn -0.4832193 0.8675311 -0.1178512
vn -0.4832193 0.8675311 -0.1178512
vn -0.2448447 0.9162252 0.3171474
vn -0.2448446 0.9162252 0.3171474
vn -0.2448447 0.9162252 0.3171474
vn -0.06017756 0.9133931 0.4026061
vn -0.06017758 0.9133931 0.4026061
vn -0.06017758 0.9133931 0.4026061
vn 0.09927358 0.9188069 0.3820192
vn 0.09927355 0.9188069 0.3820191
vn 0.09927355 0.9188069 0.3820191
vn 0.4990977 0.8587474 -0.1159934
vn 0.4990978 0.8587473 -0.1159934
vn 0.4990979 0.8587473 -0.1159934
vn 0.4839976 0.7405831 -0.4661362
vn 0.4839976 0.7405831 -0.4661361
vn 0.4839976 0.7405831 -0.4661361
vn 0.7326841 0.6748384 0.08813162
vn 0.7326841 0.6748384 0.08813169
vn 0.7326841 0.6748384 0.08813165

vt 0.5483398 0.007648468
vt 0.5 0.1500244
vt 0.6264648 0.06439209
vt 0.4516602 0.007648468
vt 0.3735352 0.06439209
vt 0.34375 0.15625
vt 0.3735352 0.2480469
vt 0.4516602 0.3049316
vt 0.5483398 0.3049316
vt 0.6264648 0.2480469
vt 0.65625 0.15625
vt 0 0
vt 0 1
vt 1 1
vt 1 0
vt 0 0
vt 0 1
vt 1 1
vt 1 0
vt 0 0
vt 0 1
vt 1 1
vt 1 0
vt 0 0
vt 0 1
vt 1 1
vt 1 0
vt 0 0
vt 0 1
vt 1 1
vt 1 0
vt 0 0
vt 0 1
vt 1 1
vt 1 0
vt 0 0
vt 0 1
vt 1 1
vt 1 0
vt 0 0
vt 0 1
vt 1 1
vt 1 0
vt 0 0
vt 0 1
vt 1 1
vt 1 0
vt 0 0
vt 0 1
vt 1 1
vt 1 0
vt 0 0
vt 0 1
vt 1 1
vt 1 0
vt 0 0
vt 0 1
vt 1 1
vt 1 0
vt 0 0
vt 0 1
vt 1 1
vt 1 0
vt 0 0
vt 0 1
vt 1 1
vt 1 0
vt 0 0
vt 0 1
vt 1 1
vt 1 0
vt 0 0
vt 0 1
vt 1 1
vt 1 0
vt 0 0
vt 0 1
vt 1 1
vt 1 0
vt 0 0
vt 0 1
vt 1 1
vt 1 0
vt 0 0
vt 0 1
vt 1 1
vt 1 0
vt 0 0
vt 0 1
vt 1 1
vt 1 0
vt 0 0
vt 0 1
vt 1 1
vt 1 0
vt 0 0
vt 0 1
vt 1 1
vt 1 0
vt 0 0
vt 0 1
vt 1 1
vt 1 0
vt 0 0
vt 0 1
vt 1 1
vt 1 0
vt 0 0
vt 0 1
vt 1 1
vt 1 0
vt 0 0
vt 0 1
vt 1 1
vt 1 0
vt 0 0
vt 0 1
vt 1 1
vt 1 0
vt 0 0
vt 0 1
vt 1 1
vt 1 0
vt 0 0
vt 0 1
vt 1 1
vt 1 0
vt 0 0
vt 0 1
vt 1 1
vt 1 0
vt 0 0
vt 0 1
vt 1 1
vt 1 0
vt 0 0
vt 0 1
vt 1 1
vt 1 0
vt 0 0
vt 0 1
vt 1 1
vt 1 0
vt 0 0
vt 0 1
vt 1 1
vt 1 0
vt 0 0
vt 0 1
vt 1 1
vt 1 0
vt 0 0
vt 0 1
vt 1 1
vt 1 0
vt 0 0
vt 0 1
vt 1 1
vt 1 0
vt 0 0
vt 0 1
vt 1 1
vt 1 0
vt 0 0
vt 0 1
vt 1 1
vt 1 0
vt 0 0
vt 0 1
vt 1 1
vt 1 0
vt 0 0
vt 0.5 1
vt 1 0
vt 0 0
vt 0.5 1
vt 1 0
vt 0 0
vt 0.5 1
vt 1 0
vt 0 0
vt 0.5 1
vt 1 0
vt 0 0
vt 0.5 1
vt 1 0
vt 0 0
vt 0.5 1
vt 1 0
vt 0 0
vt 0.5 1
vt 1 0
vt 0 0
vt 0.5 1
vt 1 0
vt 0 0
vt 0.5 1
vt 1 0
vt 0 0
vt 0.5 1
vt 1 0

g Foliage1_39_3581_115
usemtl Foliage1_39_3581_115
usemap Foliage1_39_3581_115
f 1/1/1 3/3/3 2/2/2
f 4/4/4 1/1/1 2/2/2
f 5/5/5 4/4/4 2/2/2
f 6/6/6 5/5/5 2/2/2
f 7/7/7 6/6/6 2/2/2
f 8/8/8 7/7/7 2/2/2
f 9/9/9 8/8/8 2/2/2
f 10/10/10 9/9/9 2/2/2
f 11/11/11 10/10/10 2/2/2
f 3/3/3 11/11/11 2/2/2
f 12/12/12 14/14/14 13/13/13
f 12/12/12 15/15/15 14/14/14
f 16/16/16 18/18/18 17/17/17
f 16/16/16 19/19/19 18/18/18
f 20/20/20 22/22/22 21/21/21
f 20/20/20 23/23/23 22/22/22
f 24/24/24 26/26/26 25/25/25
f 24/24/24 27/27/27 26/26/26
f 28/28/28 30/30/30 29/29/29
f 28/28/28 31/31/31 30/30/30
f 32/32/32 34/34/34 33/33/33
f 32/32/32 35/35/35 34/34/34
f 36/36/36 38/38/38 37/37/37
f 36/36/36 39/39/39 38/38/38
f 40/40/40 42/42/42 41/41/41
f 40/40/40 43/43/43 42/42/42
f 44/44/44 46/46/46 45/45/45
f 44/44/44 47/47/47 46/46/46
f 48/48/48 50/50/50 49/49/49
f 48/48/48 51/51/51 50/50/50
f 52/52/52 54/54/54 53/53/53
f 52/52/52 55/55/55 54/54/54
f 56/56/56 58/58/58 57/57/57
f 56/56/56 59/59/59 58/58/58
f 60/60/60 62/62/62 61/61/61
f 60/60/60 63/63/63 62/62/62
f 64/64/64 66/66/66 65/65/65
f 64/64/64 67/67/67 66/66/66
f 68/68/68 70/70/70 69/69/69
f 68/68/68 71/71/71 70/70/70
f 72/72/72 74/74/74 73/73/73
f 72/72/72 75/75/75 74/74/74
f 76/76/76 78/78/78 77/77/77
f 76/76/76 79/79/79 78/78/78
f 80/80/80 82/82/82 81/81/81
f 80/80/80 83/83/83 82/82/82
f 84/84/84 86/86/86 85/85/85
f 84/84/84 87/87/87 86/86/86
f 88/88/88 90/90/90 89/89/89
f 88/88/88 91/91/91 90/90/90
f 92/92/92 94/94/94 93/93/93
f 92/92/92 95/95/95 94/94/94
f 96/96/96 98/98/98 97/97/97
f 96/96/96 99/99/99 98/98/98
f 100/100/100 102/102/102 101/101/101
f 100/100/100 103/103/103 102/102/102
f 104/104/104 106/106/106 105/105/105
f 104/104/104 107/107/107 106/106/106
f 108/108/108 110/110/110 109/109/109
f 108/108/108 111/111/111 110/110/110
f 112/112/112 114/114/114 113/113/113
f 112/112/112 115/115/115 114/114/114
f 116/116/116 118/118/118 117/117/117
f 116/116/116 119/119/119 118/118/118
f 120/120/120 122/122/122 121/121/121
f 120/120/120 123/123/123 122/122/122
f 124/124/124 126/126/126 125/125/125
f 124/124/124 127/127/127 126/126/126
f 128/128/128 130/130/130 129/129/129
f 128/128/128 131/131/131 130/130/130
f 132/132/132 134/134/134 133/133/133
f 132/132/132 135/135/135 134/134/134
f 136/136/136 138/138/138 137/137/137
f 136/136/136 139/139/139 138/138/138
f 140/140/140 142/142/142 141/141/141
f 140/140/140 143/143/143 142/142/142
f 144/144/144 146/146/146 145/145/145
f 144/144/144 147/147/147 146/146/146
f 148/148/148 150/150/150 149/149/149
f 148/148/148 151/151/151 150/150/150
f 152/152/152 154/154/154 153/153/153
f 152/152/152 155/155/155 154/154/154
f 156/156/156 158/158/158 157/157/157
f 156/156/156 159/159/159 158/158/158
f 160/160/160 162/162/162 161/161/161
f 160/160/160 163/163/163 162/162/162
f 164/164/164 166/166/166 165/165/165
f 164/164/164 167/167/167 166/166/166
f 168/168/168 170/170/170 169/169/169
f 168/168/168 171/171/171 170/170/170
f 172/172/172 174/174/174 173/173/173
f 175/175/175 177/177/177 176/176/176
f 178/178/178 180/180/180 179/179/179
f 181/181/181 183/183/183 182/182/182
f 184/184/184 186/186/186 185/185/185
f 187/187/187 189/189/189 188/188/188
f 190/190/190 192/192/192 191/191/191
f 193/193/193 195/195/195 194/194/194
f 196/196/196 198/198/198 197/197/197
f 199/199/199 201/201/201 200/200/200
