#Foliage4_28_3900_80.obj

v 0.01454325 -0.02577545 -0.04035831
v 0.004621895 -0.0339759 0.001091392
v 0.03878241 -0.02577546 -0.02105479
v -0.009665283 -0.02577547 -0.03817524
v -0.01825279 -0.02577548 -0.0177803
v -0.03822416 -0.02223201 0.001091392
v -0.02135274 -0.02577547 0.01996337
v -0.005299459 -0.02577548 0.03271801
v 0.02109227 -0.02577548 0.04035828
v 0.03059674 -0.02577547 0.01996327
v 0.03218737 -0.02223201 0.001091394
v 0.03878241 -0.02577546 -0.02105479
v 0.04796486 -0.01489218 -0.02772618
v 0.01805087 -0.01489221 -0.0511528
v 0.01454325 -0.02577545 -0.04035831
v 0.01454325 -0.02577545 -0.04035831
v 0.01805087 -0.01489221 -0.0511528
v -0.0131725 -0.01489223 -0.04896983
v -0.009665283 -0.02577547 -0.03817524
v -0.009665283 -0.02577547 -0.03817524
v -0.0131725 -0.01489223 -0.04896983
v -0.0274352 -0.01489222 -0.02445165
v -0.01825279 -0.02577548 -0.0177803
v -0.01825279 -0.02577548 -0.0177803
v -0.0274352 -0.01489222 -0.02445165
v -0.04796892 -0.01288801 0.00109154
v -0.03822416 -0.02223201 0.001091392
v -0.03822416 -0.02223201 0.001091392
v -0.04796892 -0.01288801 0.00109154
v -0.0305352 -0.01489221 0.02663459
v -0.02135274 -0.02577547 0.01996337
v -0.02135274 -0.02577547 0.01996337
v -0.0305352 -0.01489221 0.02663459
v -0.008806731 -0.01489224 0.04351264
v -0.005299459 -0.02577548 0.03271801
v -0.005299459 -0.02577548 0.03271801
v -0.008806731 -0.01489224 0.04351264
v 0.02459946 -0.0148922 0.05115271
v 0.02109227 -0.02577548 0.04035828
v 0.02109227 -0.02577548 0.04035828
v 0.02459946 -0.0148922 0.05115271
v 0.03977909 -0.01489221 0.02663468
v 0.03059674 -0.02577547 0.01996327
v 0.03059674 -0.02577547 0.01996327
v 0.03977909 -0.01489221 0.02663468
v 0.04193256 -0.01288805 0.001091438
v 0.03218737 -0.02223201 0.001091394
v 0.03218737 -0.02223201 0.001091394
v 0.04193256 -0.01288805 0.001091438
v 0.04796486 -0.01489218 -0.02772618
v 0.03878241 -0.02577546 -0.02105479
v 0.04796486 -0.01489218 -0.02772618
v 0.04796479 -0.0001481254 -0.02772612
v 0.01805081 -0.000148134 -0.05115274
v 0.01805087 -0.01489221 -0.0511528
v 0.01805087 -0.01489221 -0.0511528
v 0.01805081 -0.000148134 -0.05115274
v -0.01317256 -0.0001481476 -0.04896977
v -0.0131725 -0.01489223 -0.04896983
v -0.0131725 -0.01489223 -0.04896983
v -0.01317256 -0.0001481476 -0.04896977
v -0.02743522 -0.0001481175 -0.0244518
v -0.0274352 -0.01489222 -0.02445165
v -0.0274352 -0.01489222 -0.02445165
v -0.02743522 -0.0001481175 -0.0244518
v -0.04796892 -0.0002292501 0.001091576
v -0.04796892 -0.01288801 0.00109154
v -0.04796892 -0.01288801 0.00109154
v -0.04796892 -0.0002292501 0.001091576
v -0.03053527 -0.0001481283 0.02663465
v -0.0305352 -0.01489221 0.02663459
v -0.0305352 -0.01489221 0.02663459
v -0.03053527 -0.0001481283 0.02663465
v -0.008806796 -0.0001481585 0.0435127
v -0.008806731 -0.01489224 0.04351264
v -0.008806731 -0.01489224 0.04351264
v -0.008806796 -0.0001481585 0.0435127
v 0.02459939 -0.0001481501 0.05115277
v 0.02459946 -0.0148922 0.05115271
v 0.02459946 -0.0148922 0.05115271
v 0.02459939 -0.0001481501 0.05115277
v 0.03977902 -0.0001481535 0.02663473
v 0.03977909 -0.01489221 0.02663468
v 0.03977909 -0.01489221 0.02663468
v 0.03977902 -0.0001481535 0.02663473
v 0.04193258 -0.0002292631 0.001091476
v 0.04193256 -0.01288805 0.001091438
v 0.04193256 -0.01288805 0.001091438
v 0.04193258 -0.0002292631 0.001091476
v 0.04796479 -0.0001481254 -0.02772612
v 0.04796486 -0.01489218 -0.02772618
v 0.04796479 -0.0001481254 -0.02772612
v 0.04568688 0.01428356 -0.02539673
v 0.01714328 0.01428353 -0.04799112
v 0.01805081 -0.000148134 -0.05115274
v 0.01805081 -0.000148134 -0.05115274
v 0.01714328 0.01428353 -0.04799112
v -0.01183096 0.01428353 -0.0455976
v -0.01317256 -0.0001481476 -0.04896977
v -0.01317256 -0.0001481476 -0.04896977
v -0.01183096 0.01428353 -0.0455976
v -0.02321232 0.01428355 -0.02180637
v -0.02743522 -0.0001481175 -0.0244518
v -0.02743522 -0.0001481175 -0.0244518
v -0.02321232 0.01428355 -0.02180637
v -0.04530619 0.01197228 0.001196765
v -0.04796892 -0.0002292501 0.001091576
v -0.04796892 -0.0002292501 0.001091576
v -0.04530619 0.01197228 0.001196765
v -0.02661134 0.01428354 0.02420001
v -0.03053527 -0.0001481283 0.02663465
v -0.03053527 -0.0001481283 0.02663465
v -0.02661134 0.01428354 0.02420001
v -0.007043981 0.01428357 0.03961349
v -0.008806796 -0.0001481585 0.0435127
v -0.008806796 -0.0001481585 0.0435127
v -0.007043981 0.01428357 0.03961349
v 0.02432394 0.01428355 0.04799125
v 0.02459939 -0.0001481501 0.05115277
v 0.02459939 -0.0001481501 0.05115277
v 0.02432394 0.01428355 0.04799125
v 0.03671109 0.01428353 0.0242
v 0.03977902 -0.0001481535 0.02663473
v 0.03977902 -0.0001481535 0.02663473
v 0.03671109 0.01428353 0.0242
v 0.03865026 0.01197225 0.001196816
v 0.04193258 -0.0002292631 0.001091476
v 0.04193258 -0.0002292631 0.001091476
v 0.03865026 0.01197225 0.001196816
v 0.04568688 0.01428356 -0.02539673
v 0.04796479 -0.0001481254 -0.02772612
v 0.04568688 0.01428356 -0.02539673
v 0.03225046 0.02437458 -0.01614771
v 0.01203452 0.02437459 -0.03256858
v 0.01714328 0.01428353 -0.04799112
v 0.01714328 0.01428353 -0.04799112
v 0.01203452 0.02437459 -0.03256858
v -0.002594303 0.02437458 -0.02139379
v -0.01183096 0.01428353 -0.0455976
v -0.01183096 0.01428353 -0.0455976
v -0.002594303 0.02437458 -0.02139379
v -0.01125509 0.02437459 -0.01279518
v -0.02321232 0.01428355 -0.02180637
v -0.02321232 0.01428355 -0.02180637
v -0.01125509 0.02437459 -0.01279518
v -0.03124653 0.02074664 0.001117623
v -0.04530619 0.01197228 0.001196765
v -0.04530619 0.01197228 0.001196765
v -0.03124653 0.02074664 0.001117623
v -0.01442912 0.02437458 0.01503022
v -0.02661134 0.01428354 0.02420001
v -0.02661134 0.01428354 0.02420001
v -0.01442912 0.02437458 0.01503022
v -0.002594352 0.02437458 0.02474632
v -0.007043981 0.01428357 0.03961349
v -0.007043981 0.01428357 0.03961349
v -0.002594352 0.02437458 0.02474632
v 0.01873941 0.02437456 0.03256864
v 0.02432394 0.01428355 0.04799125
v 0.02432394 0.01428355 0.04799125
v 0.01873941 0.02437456 0.03256864
v 0.02386935 0.02437459 0.01503019
v 0.03671109 0.01428353 0.0242
v 0.03671109 0.01428353 0.0242
v 0.02386935 0.02437459 0.01503019
v 0.02504206 0.02074666 0.001117496
v 0.03865026 0.01197225 0.001196816
v 0.03865026 0.01197225 0.001196816
v 0.02504206 0.02074666 0.001117496
v 0.03225046 0.02437458 -0.01614771
v 0.04568688 0.01428356 -0.02539673
v 0.03225046 0.02437458 -0.01614771
v 0.004621795 0.03397624 0.001091455
v 0.01203452 0.02437459 -0.03256858
v 0.01203452 0.02437459 -0.03256858
v 0.004621795 0.03397624 0.001091455
v -0.002594303 0.02437458 -0.02139379
v -0.002594303 0.02437458 -0.02139379
v 0.004621795 0.03397624 0.001091455
v -0.01125509 0.02437459 -0.01279518
v -0.01125509 0.02437459 -0.01279518
v 0.004621795 0.03397624 0.001091455
v -0.03124653 0.02074664 0.001117623
v -0.03124653 0.02074664 0.001117623
v 0.004621795 0.03397624 0.001091455
v -0.01442912 0.02437458 0.01503022
v -0.01442912 0.02437458 0.01503022
v 0.004621795 0.03397624 0.001091455
v -0.002594352 0.02437458 0.02474632
v -0.002594352 0.02437458 0.02474632
v 0.004621795 0.03397624 0.001091455
v 0.01873941 0.02437456 0.03256864
v 0.01873941 0.02437456 0.03256864
v 0.004621795 0.03397624 0.001091455
v 0.02386935 0.02437459 0.01503019
v 0.02386935 0.02437459 0.01503019
v 0.004621795 0.03397624 0.001091455
v 0.02504206 0.02074666 0.001117496
v 0.02504206 0.02074666 0.001117496
v 0.004621795 0.03397624 0.001091455
v 0.03225046 0.02437458 -0.01614771

vn 0.1187922 -0.9875677 -0.1029464
vn 0.101204 -0.9911274 0.08616055
vn 0.2796983 -0.960012 -0.01205914
vn -0.02014349 -0.9975809 -0.06652839
vn -0.1783484 -0.9831743 0.03949222
vn -0.1649117 -0.9785966 0.1230939
vn -0.100311 -0.9656754 0.2396004
vn 0.04523618 -0.9464157 0.3197665
vn 0.1922501 -0.9495477 0.2477874
vn 0.3769497 -0.9250385 0.04703589
vn 0.4913313 -0.8661224 0.0917887
vn 0.382755 -0.7219992 -0.5763815
vn 0.3827549 -0.7219992 -0.5763815
vn 0.382755 -0.7219992 -0.5763814
vn 0.3827549 -0.7219992 -0.5763815
vn -0.1312014 -0.7763101 -0.6165454
vn -0.1312014 -0.7763103 -0.6165454
vn -0.1312014 -0.7763101 -0.6165454
vn -0.1312014 -0.7763102 -0.6165455
vn -0.6545394 -0.744943 -0.1289873
vn -0.6545395 -0.7449429 -0.1289873
vn -0.6545394 -0.744943 -0.1289873
vn -0.6545395 -0.7449429 -0.1289873
vn -0.5855947 -0.7726721 -0.2450641
vn -0.5855948 -0.772672 -0.2450641
vn -0.5855948 -0.772672 -0.2450641
vn -0.5855948 -0.772672 -0.245064
vn -0.4433058 -0.6968042 0.5638649
vn -0.4433058 -0.6968042 0.5638649
vn -0.4433059 -0.6968042 0.5638649
vn -0.4433058 -0.6968042 0.5638649
vn -0.2406816 -0.6733235 0.6990763
vn -0.2406817 -0.6733235 0.6990763
vn -0.2406816 -0.6733235 0.6990762
vn -0.2406816 -0.6733235 0.6990762
vn 0.04001296 -0.6270713 0.7779334
vn 0.04001293 -0.6270714 0.7779334
vn 0.04001297 -0.6270714 0.7779335
vn 0.04001296 -0.6270713 0.7779334
vn 0.7755546 -0.572686 0.2656046
vn 0.7755545 -0.572686 0.2656046
vn 0.7755545 -0.572686 0.2656046
vn 0.7755547 -0.572686 0.2656046
vn 0.7769659 -0.6176087 -0.1219968
vn 0.776966 -0.6176088 -0.1219968
vn 0.7769659 -0.6176087 -0.1219968
vn 0.7769659 -0.6176087 -0.1219968
vn 0.8402117 -0.5246258 0.137156
vn 0.8402118 -0.5246257 0.137156
vn 0.8402117 -0.5246258 0.137156
vn 0.8402117 -0.5246258 0.137156
vn 0.4369199 -0.03457467 -0.8988358
vn 0.4369199 -0.03457467 -0.8988358
vn 0.4369199 -0.03457467 -0.8988358
vn 0.4369199 -0.03457467 -0.8988358
vn -0.2745683 -0.1109651 -0.9551436
vn -0.2745683 -0.1109651 -0.9551436
vn -0.2745683 -0.1109651 -0.9551436
vn -0.2745683 -0.1109651 -0.9551436
vn -0.9454229 -0.1213743 -0.3023967
vn -0.9454229 -0.1213743 -0.3023967
vn -0.9454229 -0.1213743 -0.3023967
vn -0.9454229 -0.1213743 -0.3023967
vn -0.8883342 -0.1277453 -0.441071
vn -0.8883342 -0.1277453 -0.441071
vn -0.8883342 -0.1277453 -0.441071
vn -0.8883342 -0.1277453 -0.441071
vn -0.6870335 -0.00558684 0.7266042
vn -0.6870335 -0.00558684 0.7266042
vn -0.6870335 -0.005586829 0.7266043
vn -0.6870335 -0.00558684 0.7266042
vn -0.4333827 0.03507767 0.9005272
vn -0.4333827 0.03507767 0.9005272
vn -0.4333827 0.03507767 0.9005272
vn -0.4333827 0.03507767 0.9005272
vn -0.01499397 0.08546284 0.9962286
vn -0.01499397 0.08546284 0.9962286
vn -0.01499397 0.08546284 0.9962286
vn -0.01499397 0.08546284 0.9962286
vn 0.9365358 0.1227498 0.32838
vn 0.9365358 0.1227498 0.32838
vn 0.9365358 0.1227498 0.32838
vn 0.9365358 0.1227498 0.32838
vn 0.9871831 0.08752042 -0.1334534
vn 0.9871831 0.08752042 -0.1334534
vn 0.9871831 0.08752042 -0.1334534
vn 0.9871831 0.08752042 -0.1334534
vn 0.9950238 0.09890579 -0.01205705
vn 0.9950238 0.09890578 -0.01205707
vn 0.9950238 0.09890579 -0.01205705
vn 0.9950238 0.09890579 -0.01205705
vn 0.4079567 0.1774317 -0.8955945
vn 0.4079567 0.1774317 -0.8955945
vn 0.4079567 0.1774317 -0.8955945
vn 0.4079567 0.1774317 -0.8955945
vn -0.2954608 0.1106631 -0.948924
vn -0.2954608 0.1106631 -0.948924
vn -0.2954608 0.1106631 -0.948924
vn -0.2954608 0.1106631 -0.948924
vn -0.9499238 0.1414264 -0.2786455
vn -0.9499239 0.1414264 -0.2786455
vn -0.9499238 0.1414264 -0.2786455
vn -0.9499238 0.1414264 -0.2786455
vn -0.8693078 0.1278708 -0.4774445
vn -0.8693077 0.1278708 -0.4774445
vn -0.8693078 0.1278708 -0.4774445
vn -0.8693078 0.1278709 -0.4774444
vn -0.6686649 0.2401906 0.7037016
vn -0.6686649 0.2401906 0.7037016
vn -0.6686649 0.2401905 0.7037015
vn -0.6686649 0.2401906 0.7037016
vn -0.4466354 0.313051 0.8381622
vn -0.4466355 0.313051 0.8381622
vn -0.4466355 0.313051 0.8381622
vn -0.4466355 0.313051 0.8381622
vn -0.05565587 0.3214542 0.9452881
vn -0.05565587 0.3214542 0.9452881
vn -0.05565587 0.3214542 0.9452881
vn -0.05565587 0.3214542 0.9452881
vn 0.9109284 0.3099857 0.2722468
vn 0.9109284 0.3099857 0.2722468
vn 0.9109283 0.3099857 0.2722469
vn 0.9109284 0.3099857 0.2722468
vn 0.9338821 0.318953 -0.1616571
vn 0.9338822 0.318953 -0.1616571
vn 0.9338822 0.318953 -0.1616571
vn 0.9338822 0.318953 -0.1616571
vn 0.9609155 0.2767975 0.004945785
vn 0.9609155 0.2767975 0.00494577
vn 0.9609155 0.2767975 0.004945785
vn 0.9609155 0.2767975 0.004945785
vn 0.1609704 0.8113248 -0.5619966
vn 0.1609704 0.8113248 -0.5619967
vn 0.1609704 0.8113248 -0.5619966
vn 0.1609704 0.8113248 -0.5619967
vn -0.3120119 0.8235697 -0.473689
vn -0.3120119 0.8235697 -0.473689
vn -0.3120119 0.8235697 -0.473689
vn -0.3120119 0.8235697 -0.473689
vn -0.549468 0.801076 -0.2374063
vn -0.549468 0.801076 -0.2374064
vn -0.549468 0.801076 -0.2374063
vn -0.549468 0.801076 -0.2374064
vn -0.599297 0.7215219 -0.3467693
vn -0.599297 0.7215219 -0.3467693
vn -0.599297 0.7215219 -0.3467693
vn -0.599297 0.7215219 -0.3467693
vn -0.4757085 0.8082517 0.3470307
vn -0.4757085 0.8082517 0.3470306
vn -0.4757086 0.8082517 0.3470307
vn -0.4757085 0.8082517 0.3470307
vn -0.335874 0.8339884 0.4377804
vn -0.3358741 0.8339883 0.4377804
vn -0.3358741 0.8339883 0.4377805
vn -0.3358741 0.8339883 0.4377804
vn -0.1320392 0.8549654 0.5015968
vn -0.1320391 0.8549654 0.5015968
vn -0.1320391 0.8549654 0.5015968
vn -0.1320391 0.8549654 0.5015968
vn 0.511732 0.8581927 0.04043712
vn 0.511732 0.8581927 0.04043713
vn 0.511732 0.8581927 0.04043716
vn 0.511732 0.8581927 0.04043713
vn 0.485188 0.8303768 -0.2739828
vn 0.4851878 0.8303769 -0.2739828
vn 0.4851879 0.8303769 -0.2739828
vn 0.485188 0.8303768 -0.2739828
vn 0.5844428 0.8059396 0.09427354
vn 0.5844428 0.8059397 0.09427351
vn 0.5844428 0.8059396 0.09427354
vn 0.5844428 0.8059396 0.09427354
vn 0.03968307 0.936729 -0.3477983
vn 0.03968305 0.936729 -0.3477983
vn 0.03968307 0.936729 -0.3477983
vn -0.3907617 0.8578529 -0.3337563
vn -0.3907617 0.8578529 -0.3337563
vn -0.3907617 0.8578529 -0.3337563
vn -0.4362979 0.847571 -0.3021046
vn -0.436298 0.847571 -0.3021046
vn -0.436298 0.847571 -0.3021046
vn -0.4680187 0.8491818 -0.2446391
vn -0.4680188 0.8491818 -0.2446391
vn -0.4680188 0.8491818 -0.2446391
vn -0.3883522 0.9075398 0.159855
vn -0.3883522 0.9075398 0.159855
vn -0.3883522 0.9075398 0.159855
vn -0.2689231 0.9261761 0.2643439
vn -0.2689232 0.9261761 0.2643439
vn -0.2689232 0.9261761 0.2643439
vn -0.1437302 0.9499987 0.2772065
vn -0.1437302 0.9499987 0.2772065
vn -0.1437302 0.9499987 0.2772065
vn 0.2996029 0.9525574 -0.05358978
vn 0.299603 0.9525574 -0.05358978
vn 0.299603 0.9525574 -0.05358978
vn 0.4039149 0.8439301 -0.3530358
vn 0.4039149 0.8439301 -0.3530358
vn 0.4039149 0.8439301 -0.3530358
vn 0.4903975 0.8510771 0.187557
vn 0.4903974 0.8510771 0.187557
vn 0.4903975 0.8510771 0.187557

vt 0.5483398 0.007648468
vt 0.5 0.1500244
vt 0.6264648 0.06439209
vt 0.4516602 0.007648468
vt 0.3735352 0.06439209
vt 0.34375 0.15625
vt 0.3735352 0.2480469
vt 0.4516602 0.3049316
vt 0.5483398 0.3049316
vt 0.6264648 0.2480469
vt 0.65625 0.15625
vt 0 0
vt 0 1
vt 1 1
vt 1 0
vt 0 0
vt 0 1
vt 1 1
vt 1 0
vt 0 0
vt 0 1
vt 1 1
vt 1 0
vt 0 0
vt 0 1
vt 1 1
vt 1 0
vt 0 0
vt 0 1
vt 1 1
vt 1 0
vt 0 0
vt 0 1
vt 1 1
vt 1 0
vt 0 0
vt 0 1
vt 1 1
vt 1 0
vt 0 0
vt 0 1
vt 1 1
vt 1 0
vt 0 0
vt 0 1
vt 1 1
vt 1 0
vt 0 0
vt 0 1
vt 1 1
vt 1 0
vt 0 0
vt 0 1
vt 1 1
vt 1 0
vt 0 0
vt 0 1
vt 1 1
vt 1 0
vt 0 0
vt 0 1
vt 1 1
vt 1 0
vt 0 0
vt 0 1
vt 1 1
vt 1 0
vt 0 0
vt 0 1
vt 1 1
vt 1 0
vt 0 0
vt 0 1
vt 1 1
vt 1 0
vt 0 0
vt 0 1
vt 1 1
vt 1 0
vt 0 0
vt 0 1
vt 1 1
vt 1 0
vt 0 0
vt 0 1
vt 1 1
vt 1 0
vt 0 0
vt 0 1
vt 1 1
vt 1 0
vt 0 0
vt 0 1
vt 1 1
vt 1 0
vt 0 0
vt 0 1
vt 1 1
vt 1 0
vt 0 0
vt 0 1
vt 1 1
vt 1 0
vt 0 0
vt 0 1
vt 1 1
vt 1 0
vt 0 0
vt 0 1
vt 1 1
vt 1 0
vt 0 0
vt 0 1
vt 1 1
vt 1 0
vt 0 0
vt 0 1
vt 1 1
vt 1 0
vt 0 0
vt 0 1
vt 1 1
vt 1 0
vt 0 0
vt 0 1
vt 1 1
vt 1 0
vt 0 0
vt 0 1
vt 1 1
vt 1 0
vt 0 0
vt 0 1
vt 1 1
vt 1 0
vt 0 0
vt 0 1
vt 1 1
vt 1 0
vt 0 0
vt 0 1
vt 1 1
vt 1 0
vt 0 0
vt 0 1
vt 1 1
vt 1 0
vt 0 0
vt 0 1
vt 1 1
vt 1 0
vt 0 0
vt 0 1
vt 1 1
vt 1 0
vt 0 0
vt 0 1
vt 1 1
vt 1 0
vt 0 0
vt 0 1
vt 1 1
vt 1 0
vt 0 0
vt 0 1
vt 1 1
vt 1 0
vt 0 0
vt 0 1
vt 1 1
vt 1 0
vt 0 0
vt 0.5 1
vt 1 0
vt 0 0
vt 0.5 1
vt 1 0
vt 0 0
vt 0.5 1
vt 1 0
vt 0 0
vt 0.5 1
vt 1 0
vt 0 0
vt 0.5 1
vt 1 0
vt 0 0
vt 0.5 1
vt 1 0
vt 0 0
vt 0.5 1
vt 1 0
vt 0 0
vt 0.5 1
vt 1 0
vt 0 0
vt 0.5 1
vt 1 0
vt 0 0
vt 0.5 1
vt 1 0

g Foliage4_28_3900_80
usemtl Foliage4_28_3900_80
usemap Foliage4_28_3900_80
f 1/1/1 3/3/3 2/2/2
f 4/4/4 1/1/1 2/2/2
f 5/5/5 4/4/4 2/2/2
f 6/6/6 5/5/5 2/2/2
f 7/7/7 6/6/6 2/2/2
f 8/8/8 7/7/7 2/2/2
f 9/9/9 8/8/8 2/2/2
f 10/10/10 9/9/9 2/2/2
f 11/11/11 10/10/10 2/2/2
f 3/3/3 11/11/11 2/2/2
f 12/12/12 14/14/14 13/13/13
f 12/12/12 15/15/15 14/14/14
f 16/16/16 18/18/18 17/17/17
f 16/16/16 19/19/19 18/18/18
f 20/20/20 22/22/22 21/21/21
f 20/20/20 23/23/23 22/22/22
f 24/24/24 26/26/26 25/25/25
f 24/24/24 27/27/27 26/26/26
f 28/28/28 30/30/30 29/29/29
f 28/28/28 31/31/31 30/30/30
f 32/32/32 34/34/34 33/33/33
f 32/32/32 35/35/35 34/34/34
f 36/36/36 38/38/38 37/37/37
f 36/36/36 39/39/39 38/38/38
f 40/40/40 42/42/42 41/41/41
f 40/40/40 43/43/43 42/42/42
f 44/44/44 46/46/46 45/45/45
f 44/44/44 47/47/47 46/46/46
f 48/48/48 50/50/50 49/49/49
f 48/48/48 51/51/51 50/50/50
f 52/52/52 54/54/54 53/53/53
f 52/52/52 55/55/55 54/54/54
f 56/56/56 58/58/58 57/57/57
f 56/56/56 59/59/59 58/58/58
f 60/60/60 62/62/62 61/61/61
f 60/60/60 63/63/63 62/62/62
f 64/64/64 66/66/66 65/65/65
f 64/64/64 67/67/67 66/66/66
f 68/68/68 70/70/70 69/69/69
f 68/68/68 71/71/71 70/70/70
f 72/72/72 74/74/74 73/73/73
f 72/72/72 75/75/75 74/74/74
f 76/76/76 78/78/78 77/77/77
f 76/76/76 79/79/79 78/78/78
f 80/80/80 82/82/82 81/81/81
f 80/80/80 83/83/83 82/82/82
f 84/84/84 86/86/86 85/85/85
f 84/84/84 87/87/87 86/86/86
f 88/88/88 90/90/90 89/89/89
f 88/88/88 91/91/91 90/90/90
f 92/92/92 94/94/94 93/93/93
f 92/92/92 95/95/95 94/94/94
f 96/96/96 98/98/98 97/97/97
f 96/96/96 99/99/99 98/98/98
f 100/100/100 102/102/102 101/101/101
f 100/100/100 103/103/103 102/102/102
f 104/104/104 106/106/106 105/105/105
f 104/104/104 107/107/107 106/106/106
f 108/108/108 110/110/110 109/109/109
f 108/108/108 111/111/111 110/110/110
f 112/112/112 114/114/114 113/113/113
f 112/112/112 115/115/115 114/114/114
f 116/116/116 118/118/118 117/117/117
f 116/116/116 119/119/119 118/118/118
f 120/120/120 122/122/122 121/121/121
f 120/120/120 123/123/123 122/122/122
f 124/124/124 126/126/126 125/125/125
f 124/124/124 127/127/127 126/126/126
f 128/128/128 130/130/130 129/129/129
f 128/128/128 131/131/131 130/130/130
f 132/132/132 134/134/134 133/133/133
f 132/132/132 135/135/135 134/134/134
f 136/136/136 138/138/138 137/137/137
f 136/136/136 139/139/139 138/138/138
f 140/140/140 142/142/142 141/141/141
f 140/140/140 143/143/143 142/142/142
f 144/144/144 146/146/146 145/145/145
f 144/144/144 147/147/147 146/146/146
f 148/148/148 150/150/150 149/149/149
f 148/148/148 151/151/151 150/150/150
f 152/152/152 154/154/154 153/153/153
f 152/152/152 155/155/155 154/154/154
f 156/156/156 158/158/158 157/157/157
f 156/156/156 159/159/159 158/158/158
f 160/160/160 162/162/162 161/161/161
f 160/160/160 163/163/163 162/162/162
f 164/164/164 166/166/166 165/165/165
f 164/164/164 167/167/167 166/166/166
f 168/168/168 170/170/170 169/169/169
f 168/168/168 171/171/171 170/170/170
f 172/172/172 174/174/174 173/173/173
f 175/175/175 177/177/177 176/176/176
f 178/178/178 180/180/180 179/179/179
f 181/181/181 183/183/183 182/182/182
f 184/184/184 186/186/186 185/185/185
f 187/187/187 189/189/189 188/188/188
f 190/190/190 192/192/192 191/191/191
f 193/193/193 195/195/195 194/194/194
f 196/196/196 198/198/198 197/197/197
f 199/199/199 201/201/201 200/200/200
