#Foliage1_8_4281_283.obj

v 0.01454504 -0.02577574 -0.04035817
v 0.004623572 -0.03397619 0.00109157
v 0.03878422 -0.02577571 -0.02105461
v -0.009663676 -0.02577574 -0.03817527
v -0.01825106 -0.02577577 -0.01778027
v -0.03822241 -0.02223227 0.001091531
v -0.02135116 -0.02577575 0.0199633
v -0.005297904 -0.02577571 0.03271816
v 0.02109374 -0.02577577 0.04035835
v 0.03059829 -0.02577575 0.01996328
v 0.03218917 -0.02223231 0.001091525
v 0.03878422 -0.02577571 -0.02105461
v 0.04796658 -0.01489241 -0.02772599
v 0.01805236 -0.01489248 -0.05115267
v 0.01454504 -0.02577574 -0.04035817
v 0.01454504 -0.02577574 -0.04035817
v 0.01805236 -0.01489248 -0.05115267
v -0.01317107 -0.01489236 -0.04896976
v -0.009663676 -0.02577574 -0.03817527
v -0.009663676 -0.02577574 -0.03817527
v -0.01317107 -0.01489236 -0.04896976
v -0.02743346 -0.01489243 -0.02445167
v -0.01825106 -0.02577577 -0.01778027
v -0.01825106 -0.02577577 -0.01778027
v -0.02743346 -0.01489243 -0.02445167
v -0.04796721 -0.01288826 0.001091548
v -0.03822241 -0.02223227 0.001091531
v -0.03822241 -0.02223227 0.001091531
v -0.04796721 -0.01288826 0.001091548
v -0.03053355 -0.01489244 0.02663474
v -0.02135116 -0.02577575 0.0199633
v -0.02135116 -0.02577575 0.0199633
v -0.03053355 -0.01489244 0.02663474
v -0.008805258 -0.01489236 0.04351261
v -0.005297904 -0.02577571 0.03271816
v -0.005297904 -0.02577571 0.03271816
v -0.008805258 -0.01489236 0.04351261
v 0.0246011 -0.01489238 0.0511528
v 0.02109374 -0.02577577 0.04035835
v 0.02109374 -0.02577577 0.04035835
v 0.0246011 -0.01489238 0.0511528
v 0.03978066 -0.01489248 0.02663474
v 0.03059829 -0.02577575 0.01996328
v 0.03059829 -0.02577575 0.01996328
v 0.03978066 -0.01489248 0.02663474
v 0.04193399 -0.01288829 0.001091549
v 0.03218917 -0.02223231 0.001091525
v 0.03218917 -0.02223231 0.001091525
v 0.04193399 -0.01288829 0.001091549
v 0.04796658 -0.01489241 -0.02772599
v 0.03878422 -0.02577571 -0.02105461
v 0.04796658 -0.01489241 -0.02772599
v 0.04796662 -0.0001482862 -0.02772605
v 0.01805237 -0.0001483547 -0.05115265
v 0.01805236 -0.01489248 -0.05115267
v 0.01805236 -0.01489248 -0.05115267
v 0.01805237 -0.0001483547 -0.05115265
v -0.01317106 -0.0001484003 -0.04896974
v -0.01317107 -0.01489236 -0.04896976
v -0.01317107 -0.01489236 -0.04896976
v -0.01317106 -0.0001484003 -0.04896974
v -0.02743345 -0.0001483005 -0.02445166
v -0.02743346 -0.01489243 -0.02445167
v -0.02743346 -0.01489243 -0.02445167
v -0.02743345 -0.0001483005 -0.02445166
v -0.04796721 -0.0002294708 0.001091544
v -0.04796721 -0.01288826 0.001091548
v -0.04796721 -0.01288826 0.001091548
v -0.04796721 -0.0002294708 0.001091544
v -0.03053355 -0.0001483151 0.02663475
v -0.03053355 -0.01489244 0.02663474
v -0.03053355 -0.01489244 0.02663474
v -0.03053355 -0.0001483151 0.02663475
v -0.008805254 -0.0001483975 0.04351263
v -0.008805258 -0.01489236 0.04351261
v -0.008805258 -0.01489236 0.04351261
v -0.008805254 -0.0001483975 0.04351263
v 0.0246011 -0.0001484156 0.05115282
v 0.0246011 -0.01489238 0.0511528
v 0.0246011 -0.01489238 0.0511528
v 0.0246011 -0.0001484156 0.05115282
v 0.03978067 -0.0001483552 0.02663476
v 0.03978066 -0.01489248 0.02663474
v 0.03978066 -0.01489248 0.02663474
v 0.03978067 -0.0001483552 0.02663476
v 0.04193399 -0.0002294926 0.001091545
v 0.04193399 -0.01288829 0.001091549
v 0.04193399 -0.01288829 0.001091549
v 0.04193399 -0.0002294926 0.001091545
v 0.04796662 -0.0001482862 -0.02772605
v 0.04796658 -0.01489241 -0.02772599
v 0.04796662 -0.0001482862 -0.02772605
v 0.04568861 0.01428326 -0.02539671
v 0.01714483 0.01428332 -0.04799118
v 0.01805237 -0.0001483547 -0.05115265
v 0.01805237 -0.0001483547 -0.05115265
v 0.01714483 0.01428332 -0.04799118
v -0.01182938 0.01428337 -0.0455976
v -0.01317106 -0.0001484003 -0.04896974
v -0.01317106 -0.0001484003 -0.04896974
v -0.01182938 0.01428337 -0.0455976
v -0.02321058 0.01428335 -0.02180632
v -0.02743345 -0.0001483005 -0.02445166
v -0.02743345 -0.0001483005 -0.02445166
v -0.02321058 0.01428335 -0.02180632
v -0.04530442 0.011972 0.001196901
v -0.04796721 -0.0002294708 0.001091544
v -0.04796721 -0.0002294708 0.001091544
v -0.04530442 0.011972 0.001196901
v -0.02660989 0.01428336 0.02420004
v -0.03053355 -0.0001483151 0.02663475
v -0.03053355 -0.0001483151 0.02663475
v -0.02660989 0.01428336 0.02420004
v -0.007042162 0.01428339 0.03961366
v -0.008805254 -0.0001483975 0.04351263
v -0.008805254 -0.0001483975 0.04351263
v -0.007042162 0.01428339 0.03961366
v 0.02432564 0.01428333 0.04799135
v 0.0246011 -0.0001484156 0.05115282
v 0.0246011 -0.0001484156 0.05115282
v 0.02432564 0.01428333 0.04799135
v 0.03671255 0.01428334 0.02420005
v 0.03978067 -0.0001483552 0.02663476
v 0.03978067 -0.0001483552 0.02663476
v 0.03671255 0.01428334 0.02420005
v 0.03865167 0.01197204 0.001196921
v 0.04193399 -0.0002294926 0.001091545
v 0.04193399 -0.0002294926 0.001091545
v 0.03865167 0.01197204 0.001196921
v 0.04568861 0.01428326 -0.02539671
v 0.04796662 -0.0001482862 -0.02772605
v 0.04568861 0.01428326 -0.02539671
v 0.03225216 0.02437442 -0.01614762
v 0.01203615 0.02437434 -0.03256852
v 0.01714483 0.01428332 -0.04799118
v 0.01714483 0.01428332 -0.04799118
v 0.01203615 0.02437434 -0.03256852
v -0.002592528 0.02437439 -0.02139378
v -0.01182938 0.01428337 -0.0455976
v -0.01182938 0.01428337 -0.0455976
v -0.002592528 0.02437439 -0.02139378
v -0.01125343 0.02437435 -0.01279515
v -0.02321058 0.01428335 -0.02180632
v -0.02321058 0.01428335 -0.02180632
v -0.01125343 0.02437435 -0.01279515
v -0.031245 0.02074639 0.001117563
v -0.04530442 0.011972 0.001196901
v -0.04530442 0.011972 0.001196901
v -0.031245 0.02074639 0.001117563
v -0.01442742 0.02437427 0.01503025
v -0.02660989 0.01428336 0.02420004
v -0.02660989 0.01428336 0.02420004
v -0.01442742 0.02437427 0.01503025
v -0.002592536 0.02437431 0.02474629
v -0.007042162 0.01428339 0.03961366
v -0.007042162 0.01428339 0.03961366
v -0.002592536 0.02437431 0.02474629
v 0.01874104 0.02437438 0.0325687
v 0.02432564 0.01428333 0.04799135
v 0.02432564 0.01428333 0.04799135
v 0.01874104 0.02437438 0.0325687
v 0.02387104 0.02437436 0.01503025
v 0.03671255 0.01428334 0.02420005
v 0.03671255 0.01428334 0.02420005
v 0.02387104 0.02437436 0.01503025
v 0.02504388 0.02074635 0.001117518
v 0.03865167 0.01197204 0.001196921
v 0.03865167 0.01197204 0.001196921
v 0.02504388 0.02074635 0.001117518
v 0.03225216 0.02437442 -0.01614762
v 0.04568861 0.01428326 -0.02539671
v 0.03225216 0.02437442 -0.01614762
v 0.00462357 0.03397605 0.001091473
v 0.01203615 0.02437434 -0.03256852
v 0.01203615 0.02437434 -0.03256852
v 0.00462357 0.03397605 0.001091473
v -0.002592528 0.02437439 -0.02139378
v -0.002592528 0.02437439 -0.02139378
v 0.00462357 0.03397605 0.001091473
v -0.01125343 0.02437435 -0.01279515
v -0.01125343 0.02437435 -0.01279515
v 0.00462357 0.03397605 0.001091473
v -0.031245 0.02074639 0.001117563
v -0.031245 0.02074639 0.001117563
v 0.00462357 0.03397605 0.001091473
v -0.01442742 0.02437427 0.01503025
v -0.01442742 0.02437427 0.01503025
v 0.00462357 0.03397605 0.001091473
v -0.002592536 0.02437431 0.02474629
v -0.002592536 0.02437431 0.02474629
v 0.00462357 0.03397605 0.001091473
v 0.01874104 0.02437438 0.0325687
v 0.01874104 0.02437438 0.0325687
v 0.00462357 0.03397605 0.001091473
v 0.02387104 0.02437436 0.01503025
v 0.02387104 0.02437436 0.01503025
v 0.00462357 0.03397605 0.001091473
v 0.02504388 0.02074635 0.001117518
v 0.02504388 0.02074635 0.001117518
v 0.00462357 0.03397605 0.001091473
v 0.03225216 0.02437442 -0.01614762

vn 0.006350309 -0.9786823 -0.2052805
vn 0.01571315 -0.9997364 -0.01672673
vn 0.1805039 -0.9738777 -0.1377674
vn -0.1262615 -0.9807051 -0.1492476
vn -0.2655307 -0.9639021 -0.01963878
vn -0.239901 -0.9688762 0.06104029
vn -0.158363 -0.9731394 0.1670938
vn -0.001675591 -0.9742054 0.2256553
vn 0.1325325 -0.9823171 0.1322408
vn 0.2881368 -0.9532295 -0.09126988
vn 0.4129178 -0.9088285 -0.05940586
vn 0.2244636 -0.6898099 -0.6883155
vn 0.2244636 -0.6898099 -0.6883155
vn 0.2244637 -0.6898099 -0.6883155
vn 0.2244636 -0.6898099 -0.6883155
vn -0.2927757 -0.6968549 -0.6547328
vn -0.2927757 -0.6968551 -0.6547328
vn -0.2927757 -0.6968549 -0.6547328
vn -0.2927757 -0.696855 -0.6547329
vn -0.735496 -0.6711618 -0.09266695
vn -0.7354961 -0.6711617 -0.09266695
vn -0.735496 -0.6711618 -0.09266695
vn -0.7354961 -0.6711617 -0.09266692
vn -0.6868753 -0.692736 -0.2198153
vn -0.6868755 -0.692736 -0.2198152
vn -0.6868754 -0.692736 -0.2198153
vn -0.6868754 -0.692736 -0.2198152
vn -0.4237237 -0.7105815 0.5617222
vn -0.4237237 -0.7105815 0.5617222
vn -0.4237238 -0.7105814 0.5617222
vn -0.4237238 -0.7105815 0.5617222
vn -0.2025397 -0.7177394 0.6662037
vn -0.2025397 -0.7177395 0.6662038
vn -0.2025397 -0.7177394 0.6662037
vn -0.2025397 -0.7177394 0.6662037
vn 0.08969633 -0.7031584 0.7053527
vn 0.08969632 -0.7031584 0.7053527
vn 0.08969635 -0.7031584 0.7053528
vn 0.08969633 -0.7031584 0.7053527
vn 0.7462165 -0.6590027 0.09421328
vn 0.7462164 -0.6590027 0.09421329
vn 0.7462164 -0.6590027 0.09421329
vn 0.7462165 -0.6590027 0.09421326
vn 0.6878361 -0.6647401 -0.2915505
vn 0.6878361 -0.6647402 -0.2915505
vn 0.6878361 -0.6647401 -0.2915505
vn 0.6878361 -0.6647401 -0.2915505
vn 0.7962083 -0.603836 -0.03787316
vn 0.7962082 -0.6038359 -0.03787319
vn 0.7962083 -0.603836 -0.03787316
vn 0.7962083 -0.6038359 -0.03787316
vn 0.2985003 0.01961455 -0.9542079
vn 0.2985003 0.01961455 -0.9542079
vn 0.2985003 0.01961455 -0.9542079
vn 0.2985003 0.01961455 -0.9542079
vn -0.4177509 0.008737137 -0.9085196
vn -0.4177509 0.008737137 -0.9085196
vn -0.4177509 0.008737137 -0.9085196
vn -0.4177509 0.008737137 -0.9085196
vn -0.9862131 -0.01130024 -0.1650939
vn -0.9862131 -0.01130024 -0.1650939
vn -0.9862131 -0.01130024 -0.1650939
vn -0.9862131 -0.01130024 -0.1650939
vn -0.9504254 -0.008443162 -0.310838
vn -0.9504254 -0.008443163 -0.3108379
vn -0.9504254 -0.008443162 -0.310838
vn -0.9504254 -0.008443162 -0.310838
vn -0.5733715 -0.02132595 0.8190178
vn -0.5733715 -0.02132595 0.8190178
vn -0.5733715 -0.02132595 0.8190179
vn -0.5733715 -0.02132595 0.8190178
vn -0.2947256 -0.01958003 0.9553812
vn -0.2947256 -0.01958003 0.9553812
vn -0.2947256 -0.01958003 0.9553812
vn -0.2947256 -0.01958003 0.9553812
vn 0.1359417 -0.01405094 0.9906172
vn 0.1359417 -0.01405094 0.9906172
vn 0.1359417 -0.01405094 0.9906172
vn 0.1359417 -0.01405094 0.9906172
vn 0.9813075 0.01079456 0.1921435
vn 0.9813075 0.01079456 0.1921435
vn 0.9813075 0.01079456 0.1921435
vn 0.9813075 0.01079456 0.1921435
vn 0.9617527 0.01802428 -0.2733257
vn 0.9617527 0.01802428 -0.2733257
vn 0.9617527 0.01802428 -0.2733257
vn 0.9617527 0.01802428 -0.2733257
vn 0.9879346 0.0164705 -0.1539932
vn 0.9879346 0.0164705 -0.1539932
vn 0.9879346 0.0164705 -0.1539932
vn 0.9879346 0.0164705 -0.1539932
vn 0.2910319 0.2318951 -0.9281837
vn 0.2910319 0.2318951 -0.9281837
vn 0.2910319 0.2318951 -0.9281837
vn 0.2910319 0.2318951 -0.9281837
vn -0.4159096 0.2295867 -0.8799483
vn -0.4159096 0.2295867 -0.8799483
vn -0.4159096 0.2295867 -0.8799483
vn -0.4159096 0.2295867 -0.8799483
vn -0.9617211 0.2472458 -0.1181614
vn -0.9617211 0.2472458 -0.1181614
vn -0.9617211 0.2472458 -0.1181614
vn -0.9617211 0.2472458 -0.1181614
vn -0.9120526 0.247059 -0.3272946
vn -0.9120526 0.247059 -0.3272946
vn -0.9120526 0.2470589 -0.3272946
vn -0.9120526 0.247059 -0.3272946
vn -0.5346768 0.2231236 0.8150684
vn -0.5346768 0.2231237 0.8150684
vn -0.5346768 0.2231236 0.8150683
vn -0.5346768 0.2231236 0.8150684
vn -0.2896898 0.2633844 0.9201676
vn -0.2896899 0.2633844 0.9201675
vn -0.2896899 0.2633844 0.9201676
vn -0.2896899 0.2633844 0.9201676
vn 0.1115356 0.2284237 0.9671516
vn 0.1115356 0.2284237 0.9671516
vn 0.1115356 0.2284237 0.9671516
vn 0.1115356 0.2284237 0.9671516
vn 0.9662507 0.2041988 0.1570428
vn 0.9662507 0.2041988 0.1570428
vn 0.9662507 0.2041988 0.1570428
vn 0.9662507 0.2041988 0.1570428
vn 0.927705 0.2547479 -0.2728862
vn 0.927705 0.2547479 -0.2728862
vn 0.927705 0.2547479 -0.2728862
vn 0.927705 0.2547479 -0.2728862
vn 0.9740517 0.1939741 -0.1166077
vn 0.9740517 0.1939741 -0.1166077
vn 0.9740517 0.1939741 -0.1166077
vn 0.9740517 0.1939741 -0.1166077
vn 0.1570295 0.8474312 -0.5071505
vn 0.1570295 0.8474312 -0.5071506
vn 0.1570295 0.8474312 -0.5071505
vn 0.1570295 0.8474312 -0.5071506
vn -0.2950222 0.8900638 -0.3474878
vn -0.2950222 0.8900638 -0.3474878
vn -0.2950222 0.8900638 -0.3474878
vn -0.2950222 0.8900638 -0.3474878
vn -0.4973142 0.863797 -0.08082543
vn -0.4973142 0.863797 -0.08082546
vn -0.4973142 0.863797 -0.08082543
vn -0.4973142 0.863797 -0.08082546
vn -0.5697548 0.80005 -0.1878802
vn -0.5697548 0.8000501 -0.1878802
vn -0.5697548 0.8000501 -0.1878802
vn -0.5697548 0.8000501 -0.1878802
vn -0.3404242 0.80609 0.4840763
vn -0.3404242 0.8060901 0.4840763
vn -0.3404242 0.80609 0.4840763
vn -0.3404242 0.80609 0.4840763
vn -0.1872215 0.8108583 0.5544876
vn -0.1872215 0.8108582 0.5544876
vn -0.1872215 0.8108582 0.5544876
vn -0.1872215 0.8108582 0.5544876
vn 0.0247061 0.8082862 0.5882708
vn 0.02470611 0.8082862 0.5882708
vn 0.02470611 0.8082862 0.5882708
vn 0.02470611 0.8082862 0.5882708
vn 0.5931814 0.8042195 0.0369641
vn 0.5931815 0.8042195 0.0369641
vn 0.5931815 0.8042195 0.03696412
vn 0.5931815 0.8042195 0.0369641
vn 0.5193893 0.810421 -0.2710204
vn 0.5193892 0.810421 -0.2710204
vn 0.5193893 0.810421 -0.2710204
vn 0.5193893 0.810421 -0.2710204
vn 0.6674176 0.7409562 0.07441221
vn 0.6674176 0.7409563 0.07441218
vn 0.6674176 0.7409562 0.07441221
vn 0.6674176 0.7409562 0.07441221
vn 0.08036882 0.9603496 -0.2669625
vn 0.08036881 0.9603496 -0.2669625
vn 0.08036882 0.9603496 -0.2669625
vn -0.3492535 0.9165569 -0.1947949
vn -0.3492535 0.9165569 -0.194795
vn -0.3492535 0.9165569 -0.1947949
vn -0.3905788 0.9069739 -0.1576267
vn -0.3905788 0.9069739 -0.1576267
vn -0.3905788 0.9069739 -0.1576266
vn -0.4134512 0.9054405 -0.09609957
vn -0.4134513 0.9054405 -0.09609959
vn -0.4134513 0.9054405 -0.09609959
vn -0.2714933 0.9160552 0.2951844
vn -0.2714932 0.9160552 0.2951843
vn -0.2714933 0.9160552 0.2951844
vn -0.1371146 0.9141023 0.3815969
vn -0.1371146 0.9141023 0.3815969
vn -0.1371146 0.9141023 0.3815969
vn -0.009652756 0.9260119 0.3773701
vn -0.009652786 0.9260119 0.3773701
vn -0.009652771 0.9260119 0.3773701
vn 0.379971 0.924872 -0.01527349
vn 0.3799711 0.924872 -0.0152735
vn 0.3799711 0.9248719 -0.01527351
vn 0.4293557 0.8385594 -0.3353674
vn 0.4293557 0.8385594 -0.3353674
vn 0.4293557 0.8385594 -0.3353674
vn 0.5925071 0.7841677 0.1844344
vn 0.592507 0.7841677 0.1844345
vn 0.5925071 0.7841677 0.1844345

vt 0.5483398 0.007648468
vt 0.5 0.1500244
vt 0.6264648 0.06439209
vt 0.4516602 0.007648468
vt 0.3735352 0.06439209
vt 0.34375 0.15625
vt 0.3735352 0.2480469
vt 0.4516602 0.3049316
vt 0.5483398 0.3049316
vt 0.6264648 0.2480469
vt 0.65625 0.15625
vt 0 0
vt 0 1
vt 1 1
vt 1 0
vt 0 0
vt 0 1
vt 1 1
vt 1 0
vt 0 0
vt 0 1
vt 1 1
vt 1 0
vt 0 0
vt 0 1
vt 1 1
vt 1 0
vt 0 0
vt 0 1
vt 1 1
vt 1 0
vt 0 0
vt 0 1
vt 1 1
vt 1 0
vt 0 0
vt 0 1
vt 1 1
vt 1 0
vt 0 0
vt 0 1
vt 1 1
vt 1 0
vt 0 0
vt 0 1
vt 1 1
vt 1 0
vt 0 0
vt 0 1
vt 1 1
vt 1 0
vt 0 0
vt 0 1
vt 1 1
vt 1 0
vt 0 0
vt 0 1
vt 1 1
vt 1 0
vt 0 0
vt 0 1
vt 1 1
vt 1 0
vt 0 0
vt 0 1
vt 1 1
vt 1 0
vt 0 0
vt 0 1
vt 1 1
vt 1 0
vt 0 0
vt 0 1
vt 1 1
vt 1 0
vt 0 0
vt 0 1
vt 1 1
vt 1 0
vt 0 0
vt 0 1
vt 1 1
vt 1 0
vt 0 0
vt 0 1
vt 1 1
vt 1 0
vt 0 0
vt 0 1
vt 1 1
vt 1 0
vt 0 0
vt 0 1
vt 1 1
vt 1 0
vt 0 0
vt 0 1
vt 1 1
vt 1 0
vt 0 0
vt 0 1
vt 1 1
vt 1 0
vt 0 0
vt 0 1
vt 1 1
vt 1 0
vt 0 0
vt 0 1
vt 1 1
vt 1 0
vt 0 0
vt 0 1
vt 1 1
vt 1 0
vt 0 0
vt 0 1
vt 1 1
vt 1 0
vt 0 0
vt 0 1
vt 1 1
vt 1 0
vt 0 0
vt 0 1
vt 1 1
vt 1 0
vt 0 0
vt 0 1
vt 1 1
vt 1 0
vt 0 0
vt 0 1
vt 1 1
vt 1 0
vt 0 0
vt 0 1
vt 1 1
vt 1 0
vt 0 0
vt 0 1
vt 1 1
vt 1 0
vt 0 0
vt 0 1
vt 1 1
vt 1 0
vt 0 0
vt 0 1
vt 1 1
vt 1 0
vt 0 0
vt 0 1
vt 1 1
vt 1 0
vt 0 0
vt 0 1
vt 1 1
vt 1 0
vt 0 0
vt 0 1
vt 1 1
vt 1 0
vt 0 0
vt 0 1
vt 1 1
vt 1 0
vt 0 0
vt 0 1
vt 1 1
vt 1 0
vt 0 0
vt 0.5 1
vt 1 0
vt 0 0
vt 0.5 1
vt 1 0
vt 0 0
vt 0.5 1
vt 1 0
vt 0 0
vt 0.5 1
vt 1 0
vt 0 0
vt 0.5 1
vt 1 0
vt 0 0
vt 0.5 1
vt 1 0
vt 0 0
vt 0.5 1
vt 1 0
vt 0 0
vt 0.5 1
vt 1 0
vt 0 0
vt 0.5 1
vt 1 0
vt 0 0
vt 0.5 1
vt 1 0

g Foliage1_8_4281_283
usemtl Foliage1_8_4281_283
usemap Foliage1_8_4281_283
f 1/1/1 3/3/3 2/2/2
f 4/4/4 1/1/1 2/2/2
f 5/5/5 4/4/4 2/2/2
f 6/6/6 5/5/5 2/2/2
f 7/7/7 6/6/6 2/2/2
f 8/8/8 7/7/7 2/2/2
f 9/9/9 8/8/8 2/2/2
f 10/10/10 9/9/9 2/2/2
f 11/11/11 10/10/10 2/2/2
f 3/3/3 11/11/11 2/2/2
f 12/12/12 14/14/14 13/13/13
f 12/12/12 15/15/15 14/14/14
f 16/16/16 18/18/18 17/17/17
f 16/16/16 19/19/19 18/18/18
f 20/20/20 22/22/22 21/21/21
f 20/20/20 23/23/23 22/22/22
f 24/24/24 26/26/26 25/25/25
f 24/24/24 27/27/27 26/26/26
f 28/28/28 30/30/30 29/29/29
f 28/28/28 31/31/31 30/30/30
f 32/32/32 34/34/34 33/33/33
f 32/32/32 35/35/35 34/34/34
f 36/36/36 38/38/38 37/37/37
f 36/36/36 39/39/39 38/38/38
f 40/40/40 42/42/42 41/41/41
f 40/40/40 43/43/43 42/42/42
f 44/44/44 46/46/46 45/45/45
f 44/44/44 47/47/47 46/46/46
f 48/48/48 50/50/50 49/49/49
f 48/48/48 51/51/51 50/50/50
f 52/52/52 54/54/54 53/53/53
f 52/52/52 55/55/55 54/54/54
f 56/56/56 58/58/58 57/57/57
f 56/56/56 59/59/59 58/58/58
f 60/60/60 62/62/62 61/61/61
f 60/60/60 63/63/63 62/62/62
f 64/64/64 66/66/66 65/65/65
f 64/64/64 67/67/67 66/66/66
f 68/68/68 70/70/70 69/69/69
f 68/68/68 71/71/71 70/70/70
f 72/72/72 74/74/74 73/73/73
f 72/72/72 75/75/75 74/74/74
f 76/76/76 78/78/78 77/77/77
f 76/76/76 79/79/79 78/78/78
f 80/80/80 82/82/82 81/81/81
f 80/80/80 83/83/83 82/82/82
f 84/84/84 86/86/86 85/85/85
f 84/84/84 87/87/87 86/86/86
f 88/88/88 90/90/90 89/89/89
f 88/88/88 91/91/91 90/90/90
f 92/92/92 94/94/94 93/93/93
f 92/92/92 95/95/95 94/94/94
f 96/96/96 98/98/98 97/97/97
f 96/96/96 99/99/99 98/98/98
f 100/100/100 102/102/102 101/101/101
f 100/100/100 103/103/103 102/102/102
f 104/104/104 106/106/106 105/105/105
f 104/104/104 107/107/107 106/106/106
f 108/108/108 110/110/110 109/109/109
f 108/108/108 111/111/111 110/110/110
f 112/112/112 114/114/114 113/113/113
f 112/112/112 115/115/115 114/114/114
f 116/116/116 118/118/118 117/117/117
f 116/116/116 119/119/119 118/118/118
f 120/120/120 122/122/122 121/121/121
f 120/120/120 123/123/123 122/122/122
f 124/124/124 126/126/126 125/125/125
f 124/124/124 127/127/127 126/126/126
f 128/128/128 130/130/130 129/129/129
f 128/128/128 131/131/131 130/130/130
f 132/132/132 134/134/134 133/133/133
f 132/132/132 135/135/135 134/134/134
f 136/136/136 138/138/138 137/137/137
f 136/136/136 139/139/139 138/138/138
f 140/140/140 142/142/142 141/141/141
f 140/140/140 143/143/143 142/142/142
f 144/144/144 146/146/146 145/145/145
f 144/144/144 147/147/147 146/146/146
f 148/148/148 150/150/150 149/149/149
f 148/148/148 151/151/151 150/150/150
f 152/152/152 154/154/154 153/153/153
f 152/152/152 155/155/155 154/154/154
f 156/156/156 158/158/158 157/157/157
f 156/156/156 159/159/159 158/158/158
f 160/160/160 162/162/162 161/161/161
f 160/160/160 163/163/163 162/162/162
f 164/164/164 166/166/166 165/165/165
f 164/164/164 167/167/167 166/166/166
f 168/168/168 170/170/170 169/169/169
f 168/168/168 171/171/171 170/170/170
f 172/172/172 174/174/174 173/173/173
f 175/175/175 177/177/177 176/176/176
f 178/178/178 180/180/180 179/179/179
f 181/181/181 183/183/183 182/182/182
f 184/184/184 186/186/186 185/185/185
f 187/187/187 189/189/189 188/188/188
f 190/190/190 192/192/192 191/191/191
f 193/193/193 195/195/195 194/194/194
f 196/196/196 198/198/198 197/197/197
f 199/199/199 201/201/201 200/200/200
