#Foliage4_27_4299_81.obj

v 0.01454427 -0.02577566 -0.04035946
v 0.0046229 -0.03397608 0.001090306
v 0.03878357 -0.02577566 -0.02105583
v -0.009664494 -0.02577566 -0.03817664
v -0.01825185 -0.02577566 -0.01778148
v -0.03822306 -0.02223223 0.001090319
v -0.0213521 -0.02577566 0.01996191
v -0.005298706 -0.02577566 0.03271673
v 0.02109296 -0.02577566 0.04035695
v 0.03059747 -0.02577566 0.01996191
v 0.0321883 -0.02223223 0.001090081
v 0.03878357 -0.02577566 -0.02105583
v 0.04796574 -0.01489238 -0.02772743
v 0.0180517 -0.01489238 -0.05115383
v 0.01454427 -0.02577566 -0.04035946
v 0.01454427 -0.02577566 -0.04035946
v 0.0180517 -0.01489238 -0.05115383
v -0.01317181 -0.01489238 -0.04897105
v -0.009664494 -0.02577566 -0.03817664
v -0.009664494 -0.02577566 -0.03817664
v -0.01317181 -0.01489238 -0.04897105
v -0.02743432 -0.01489238 -0.02445307
v -0.01825185 -0.02577566 -0.01778148
v -0.01825185 -0.02577566 -0.01778148
v -0.02743432 -0.01489238 -0.02445307
v -0.04796818 -0.01288818 0.001090096
v -0.03822306 -0.02223223 0.001090319
v -0.03822306 -0.02223223 0.001090319
v -0.04796818 -0.01288818 0.001090096
v -0.03053427 -0.01489238 0.02663351
v -0.0213521 -0.02577566 0.01996191
v -0.0213521 -0.02577566 0.01996191
v -0.03053427 -0.01489238 0.02663351
v -0.008805861 -0.01489238 0.04351144
v -0.005298706 -0.02577566 0.03271673
v -0.005298706 -0.02577566 0.03271673
v -0.008805861 -0.01489238 0.04351144
v 0.02460028 -0.01489238 0.05115136
v 0.02109296 -0.02577566 0.04035695
v 0.02109296 -0.02577566 0.04035695
v 0.02460028 -0.01489238 0.05115136
v 0.03977994 -0.01489238 0.02663349
v 0.03059747 -0.02577566 0.01996191
v 0.03059747 -0.02577566 0.01996191
v 0.03977994 -0.01489238 0.02663349
v 0.04193315 -0.01288818 0.001089969
v 0.0321883 -0.02223223 0.001090081
v 0.0321883 -0.02223223 0.001090081
v 0.04193315 -0.01288818 0.001089969
v 0.04796574 -0.01489238 -0.02772743
v 0.03878357 -0.02577566 -0.02105583
v 0.04796574 -0.01489238 -0.02772743
v 0.04796574 -0.000148335 -0.02772743
v 0.0180517 -0.000148335 -0.05115383
v 0.0180517 -0.01489238 -0.05115383
v 0.0180517 -0.01489238 -0.05115383
v 0.0180517 -0.000148335 -0.05115383
v -0.01317181 -0.000148335 -0.04897105
v -0.01317181 -0.01489238 -0.04897105
v -0.01317181 -0.01489238 -0.04897105
v -0.01317181 -0.000148335 -0.04897105
v -0.02743432 -0.000148335 -0.02445307
v -0.02743432 -0.01489238 -0.02445307
v -0.02743432 -0.01489238 -0.02445307
v -0.02743432 -0.000148335 -0.02445307
v -0.04796818 -0.0002294038 0.001090096
v -0.04796818 -0.01288818 0.001090096
v -0.04796818 -0.01288818 0.001090096
v -0.04796818 -0.0002294038 0.001090096
v -0.03053427 -0.000148335 0.02663351
v -0.03053427 -0.01489238 0.02663351
v -0.03053427 -0.01489238 0.02663351
v -0.03053427 -0.000148335 0.02663351
v -0.008805861 -0.000148335 0.04351144
v -0.008805861 -0.01489238 0.04351144
v -0.008805861 -0.01489238 0.04351144
v -0.008805861 -0.000148335 0.04351144
v 0.02460028 -0.000148335 0.05115136
v 0.02460028 -0.01489238 0.05115136
v 0.02460028 -0.01489238 0.05115136
v 0.02460028 -0.000148335 0.05115136
v 0.03977994 -0.000148335 0.02663349
v 0.03977994 -0.01489238 0.02663349
v 0.03977994 -0.01489238 0.02663349
v 0.03977994 -0.000148335 0.02663349
v 0.04193315 -0.0002294038 0.001089969
v 0.04193315 -0.01288818 0.001089969
v 0.04193315 -0.01288818 0.001089969
v 0.04193315 -0.0002294038 0.001089969
v 0.04796574 -0.000148335 -0.02772743
v 0.04796574 -0.01489238 -0.02772743
v 0.04796574 -0.000148335 -0.02772743
v 0.04568779 0.01428337 -0.02539798
v 0.01714403 0.01428337 -0.04799238
v 0.0180517 -0.000148335 -0.05115383
v 0.0180517 -0.000148335 -0.05115383
v 0.01714403 0.01428337 -0.04799238
v -0.01182999 0.01428337 -0.04559884
v -0.01317181 -0.000148335 -0.04897105
v -0.01317181 -0.000148335 -0.04897105
v -0.01182999 0.01428337 -0.04559884
v -0.02321135 0.01428337 -0.02180771
v -0.02743432 -0.000148335 -0.02445307
v -0.02743432 -0.000148335 -0.02445307
v -0.02321135 0.01428337 -0.02180771
v -0.04530518 0.0119721 0.001195636
v -0.04796818 -0.0002294038 0.001090096
v -0.04796818 -0.0002294038 0.001090096
v -0.04530518 0.0119721 0.001195636
v -0.02661068 0.01428337 0.02419874
v -0.03053427 -0.000148335 0.02663351
v -0.03053427 -0.000148335 0.02663351
v -0.02661068 0.01428337 0.02419874
v -0.007042934 0.01428337 0.03961232
v -0.008805861 -0.000148335 0.04351144
v -0.008805861 -0.000148335 0.04351144
v -0.007042934 0.01428337 0.03961232
v 0.02432479 0.01428337 0.04798987
v 0.02460028 -0.000148335 0.05115136
v 0.02460028 -0.000148335 0.05115136
v 0.02432479 0.01428337 0.04798987
v 0.03671186 0.01428337 0.02419892
v 0.03977994 -0.000148335 0.02663349
v 0.03977994 -0.000148335 0.02663349
v 0.03671186 0.01428337 0.02419892
v 0.03865107 0.0119721 0.001195622
v 0.04193315 -0.0002294038 0.001089969
v 0.04193315 -0.0002294038 0.001089969
v 0.03865107 0.0119721 0.001195622
v 0.04568779 0.01428337 -0.02539798
v 0.04796574 -0.000148335 -0.02772743
v 0.04568779 0.01428337 -0.02539798
v 0.03225159 0.0243744 -0.01614884
v 0.01203537 0.0243744 -0.03257004
v 0.01714403 0.01428337 -0.04799238
v 0.01714403 0.01428337 -0.04799238
v 0.01203537 0.0243744 -0.03257004
v -0.002593188 0.0243744 -0.02139507
v -0.01182999 0.01428337 -0.04559884
v -0.01182999 0.01428337 -0.04559884
v -0.002593188 0.0243744 -0.02139507
v -0.0112542 0.0243744 -0.01279641
v -0.02321135 0.01428337 -0.02180771
v -0.02321135 0.01428337 -0.02180771
v -0.0112542 0.0243744 -0.01279641
v -0.03124586 0.02074646 0.001116073
v -0.04530518 0.0119721 0.001195636
v -0.04530518 0.0119721 0.001195636
v -0.03124586 0.02074646 0.001116073
v -0.01442829 0.0243744 0.01502886
v -0.02661068 0.01428337 0.02419874
v -0.02661068 0.01428337 0.02419874
v -0.01442829 0.0243744 0.01502886
v -0.002593457 0.0243744 0.02474493
v -0.007042934 0.01428337 0.03961232
v -0.007042934 0.01428337 0.03961232
v -0.002593457 0.0243744 0.02474493
v 0.01874027 0.0243744 0.03256717
v 0.02432479 0.01428337 0.04798987
v 0.02432479 0.01428337 0.04798987
v 0.01874027 0.0243744 0.03256717
v 0.02387022 0.0243744 0.01502894
v 0.03671186 0.01428337 0.02419892
v 0.03671186 0.01428337 0.02419892
v 0.02387022 0.0243744 0.01502894
v 0.02504326 0.02074646 0.001116307
v 0.03865107 0.0119721 0.001195622
v 0.03865107 0.0119721 0.001195622
v 0.02504326 0.02074646 0.001116307
v 0.03225159 0.0243744 -0.01614884
v 0.04568779 0.01428337 -0.02539798
v 0.03225159 0.0243744 -0.01614884
v 0.0046229 0.03397606 0.001090306
v 0.01203537 0.0243744 -0.03257004
v 0.01203537 0.0243744 -0.03257004
v 0.0046229 0.03397606 0.001090306
v -0.002593188 0.0243744 -0.02139507
v -0.002593188 0.0243744 -0.02139507
v 0.0046229 0.03397606 0.001090306
v -0.0112542 0.0243744 -0.01279641
v -0.0112542 0.0243744 -0.01279641
v 0.0046229 0.03397606 0.001090306
v -0.03124586 0.02074646 0.001116073
v -0.03124586 0.02074646 0.001116073
v 0.0046229 0.03397606 0.001090306
v -0.01442829 0.0243744 0.01502886
v -0.01442829 0.0243744 0.01502886
v 0.0046229 0.03397606 0.001090306
v -0.002593457 0.0243744 0.02474493
v -0.002593457 0.0243744 0.02474493
v 0.0046229 0.03397606 0.001090306
v 0.01874027 0.0243744 0.03256717
v 0.01874027 0.0243744 0.03256717
v 0.0046229 0.03397606 0.001090306
v 0.02387022 0.0243744 0.01502894
v 0.02387022 0.0243744 0.01502894
v 0.0046229 0.03397606 0.001090306
v 0.02504326 0.02074646 0.001116307
v 0.02504326 0.02074646 0.001116307
v 0.0046229 0.03397606 0.001090306
v 0.03225159 0.0243744 -0.01614884

vn -0.1028214 -0.9818567 -0.1593256
vn 0.001035212 -0.9999983 -0.001312503
vn 0.08148386 -0.9784299 -0.1898286
vn -0.1885231 -0.9810986 -0.04363509
vn -0.2424692 -0.9602383 0.1383852
vn -0.1793955 -0.9642733 0.1949198
vn -0.05527604 -0.9679797 0.2448657
vn 0.1094145 -0.9703192 0.2156583
vn 0.177442 -0.9818348 0.0671876
vn 0.1978879 -0.9585601 -0.2049448
vn 0.3217111 -0.9154218 -0.2418765
vn -0.1594819 -0.7039261 -0.6921368
vn -0.1594819 -0.7039261 -0.6921368
vn -0.1594818 -0.7039261 -0.6921368
vn -0.1594819 -0.7039261 -0.6921368
vn -0.5878052 -0.7031068 -0.4001566
vn -0.5878052 -0.7031069 -0.4001566
vn -0.5878052 -0.7031068 -0.4001566
vn -0.5878053 -0.7031069 -0.4001567
vn -0.6831018 -0.6620907 0.3082329
vn -0.6831019 -0.6620907 0.3082329
vn -0.6831018 -0.6620907 0.3082329
vn -0.6831019 -0.6620907 0.308233
vn -0.7059771 -0.6863983 0.1745094
vn -0.7059772 -0.6863982 0.1745095
vn -0.7059771 -0.6863982 0.1745094
vn -0.7059771 -0.6863982 0.1745094
vn -0.0820522 -0.6953635 0.7139584
vn -0.0820522 -0.6953635 0.7139584
vn -0.08205223 -0.6953635 0.7139585
vn -0.08205223 -0.6953635 0.7139585
vn 0.1614994 -0.703966 0.6916281
vn 0.1614994 -0.703966 0.6916282
vn 0.1614994 -0.703966 0.6916281
vn 0.1614994 -0.703966 0.6916281
vn 0.4330961 -0.6928936 0.5764771
vn 0.4330961 -0.6928937 0.5764771
vn 0.4330961 -0.6928937 0.5764771
vn 0.4330961 -0.6928936 0.5764771
vn 0.6878113 -0.6678945 -0.2843104
vn 0.6878113 -0.6678945 -0.2843103
vn 0.6878113 -0.6678945 -0.2843103
vn 0.6878113 -0.6678945 -0.2843105
vn 0.4413607 -0.6790239 -0.5866234
vn 0.4413607 -0.679024 -0.5866234
vn 0.4413607 -0.6790239 -0.5866234
vn 0.4413607 -0.6790239 -0.5866234
vn 0.6639118 -0.6155776 -0.4245999
vn 0.6639118 -0.6155775 -0.4245999
vn 0.6639118 -0.6155776 -0.4245999
vn 0.6639118 -0.6155776 -0.4245999
vn -0.2281064 3.392212E-17 -0.9736362
vn -0.2281063 3.392211E-17 -0.9736363
vn -0.2281063 3.392211E-17 -0.9736363
vn -0.2281064 3.392212E-17 -0.9736362
vn -0.8216496 1.089967E-16 -0.5699929
vn -0.8216496 1.089967E-16 -0.5699929
vn -0.8216496 1.089967E-16 -0.5699929
vn -0.8216496 1.089967E-16 -0.5699929
vn -0.9331789 1.192697E-16 0.3594123
vn -0.9331789 1.192697E-16 0.3594123
vn -0.9331789 1.192697E-16 0.3594123
vn -0.9331789 1.192697E-16 0.3594123
vn -0.9764624 1.255222E-16 0.2156875
vn -0.9764625 1.255222E-16 0.2156875
vn -0.9764624 1.255222E-16 0.2156875
vn -0.9764624 1.255222E-16 0.2156875
vn -0.07732338 5.538312E-18 0.9970061
vn -0.07732338 5.538312E-18 0.9970061
vn -0.07732326 5.538298E-18 0.9970061
vn -0.07732338 5.538312E-18 0.9970061
vn 0.2319534 -3.441637E-17 0.9727269
vn 0.2319534 -3.441637E-17 0.9727269
vn 0.2319534 -3.441637E-17 0.9727269
vn 0.2319534 -3.441637E-17 0.9727269
vn 0.6207212 -8.392984E-17 0.7840313
vn 0.6207212 -8.392984E-17 0.7840313
vn 0.6207212 -8.392984E-17 0.7840313
vn 0.6207212 -8.392984E-17 0.7840313
vn 0.9427075 -1.206199E-16 -0.3336205
vn 0.9427075 -1.206199E-16 -0.3336205
vn 0.9427075 -1.206199E-16 -0.3336205
vn 0.9427075 -1.206199E-16 -0.3336205
vn 0.6892097 -8.602583E-17 -0.7245619
vn 0.6892097 -8.602583E-17 -0.7245619
vn 0.6892097 -8.602583E-17 -0.7245619
vn 0.6892097 -8.602583E-17 -0.7245619
vn 0.7724276 -9.72077E-17 -0.6351027
vn 0.7724276 -9.72077E-17 -0.6351028
vn 0.7724276 -9.72077E-17 -0.6351027
vn 0.7724276 -9.72077E-17 -0.6351027
vn -0.2204568 0.212757 -0.9519104
vn -0.2204568 0.212757 -0.9519103
vn -0.2204568 0.212757 -0.9519103
vn -0.2204568 0.212757 -0.9519103
vn -0.8046545 0.2212333 -0.5509871
vn -0.8046545 0.2212333 -0.5509871
vn -0.8046545 0.2212333 -0.5509871
vn -0.8046545 0.2212333 -0.5509871
vn -0.8871932 0.2588966 0.3819171
vn -0.8871932 0.2588966 0.3819172
vn -0.8871932 0.2588966 0.3819171
vn -0.8871932 0.2588965 0.3819171
vn -0.95077 0.2546348 0.1766282
vn -0.95077 0.2546348 0.1766282
vn -0.95077 0.2546348 0.1766282
vn -0.95077 0.2546348 0.1766283
vn -0.04503796 0.2437819 0.9687838
vn -0.04503796 0.243782 0.9687838
vn -0.04503801 0.2437819 0.9687837
vn -0.04503796 0.2437819 0.9687838
vn 0.2195126 0.2822602 0.9338861
vn 0.2195125 0.2822602 0.9338861
vn 0.2195125 0.2822603 0.9338862
vn 0.2195125 0.2822603 0.9338862
vn 0.5887417 0.242386 0.771124
vn 0.5887417 0.242386 0.7711239
vn 0.5887417 0.242386 0.771124
vn 0.5887417 0.242386 0.771124
vn 0.9126658 0.1930069 -0.3602628
vn 0.9126658 0.1930069 -0.3602628
vn 0.9126659 0.1930069 -0.3602628
vn 0.9126658 0.1930069 -0.3602628
vn 0.6610608 0.2371581 -0.7118669
vn 0.6610609 0.2371581 -0.7118669
vn 0.6610609 0.2371581 -0.7118669
vn 0.6610609 0.2371581 -0.7118669
vn 0.7801922 0.178262 -0.5996021
vn 0.7801921 0.178262 -0.5996021
vn 0.7801922 0.178262 -0.5996021
vn 0.7801922 0.178262 -0.5996021
vn -0.1192909 0.8368365 -0.5342975
vn -0.119291 0.8368365 -0.5342976
vn -0.1192909 0.8368365 -0.5342975
vn -0.119291 0.8368365 -0.5342976
vn -0.4271747 0.8884323 -0.1679563
vn -0.4271747 0.8884323 -0.1679563
vn -0.4271747 0.8884323 -0.1679563
vn -0.4271747 0.8884323 -0.1679564
vn -0.4658678 0.8693343 0.1649986
vn -0.4658678 0.8693343 0.1649986
vn -0.4658678 0.8693343 0.1649986
vn -0.4658678 0.8693343 0.1649986
vn -0.5829343 0.8049013 0.111
vn -0.5829343 0.8049014 0.111
vn -0.5829343 0.8049014 0.111
vn -0.5829343 0.8049014 0.111
vn -0.04375729 0.8185279 0.5727975
vn -0.04375726 0.8185279 0.5727975
vn -0.04375729 0.8185279 0.5727975
vn -0.04375729 0.8185279 0.5727975
vn 0.1239817 0.8222619 0.5554401
vn 0.1239816 0.8222618 0.5554401
vn 0.1239817 0.8222618 0.5554401
vn 0.1239816 0.8222618 0.5554401
vn 0.3236314 0.8172353 0.476853
vn 0.3236314 0.8172353 0.476853
vn 0.3236314 0.8172353 0.476853
vn 0.3236314 0.8172353 0.476853
vn 0.5327673 0.7962341 -0.2866527
vn 0.5327674 0.7962341 -0.2866527
vn 0.5327674 0.7962341 -0.2866527
vn 0.5327674 0.7962341 -0.2866527
vn 0.3126444 0.798513 -0.5144221
vn 0.3126443 0.7985131 -0.5144219
vn 0.3126444 0.7985131 -0.514422
vn 0.3126444 0.798513 -0.5144221
vn 0.6154786 0.7325384 -0.2908148
vn 0.6154786 0.7325385 -0.2908148
vn 0.6154786 0.7325384 -0.2908148
vn 0.6154786 0.7325384 -0.2908148
vn -0.06271503 0.9546866 -0.290929
vn -0.06271505 0.9546866 -0.290929
vn -0.06271503 0.9546866 -0.290929
vn -0.3961216 0.9181487 -0.009492859
vn -0.3961217 0.9181487 -0.009492889
vn -0.3961216 0.9181487 -0.009492874
vn -0.4128434 0.9097521 0.04371408
vn -0.4128434 0.9097521 0.04371406
vn -0.4128434 0.9097521 0.04371411
vn -0.4012577 0.9095349 0.1083423
vn -0.4012578 0.9095349 0.1083423
vn -0.4012578 0.9095349 0.1083423
vn -0.08001569 0.9244465 0.3728212
vn -0.08001566 0.9244465 0.3728211
vn -0.08001569 0.9244465 0.3728212
vn 0.07962434 0.9219851 0.3789496
vn 0.07962433 0.9219852 0.3789496
vn 0.07962433 0.9219852 0.3789496
vn 0.1872743 0.9320198 0.310269
vn 0.1872743 0.9320198 0.310269
vn 0.1872743 0.9320198 0.310269
vn 0.3231002 0.9190345 -0.2257904
vn 0.3231002 0.9190345 -0.2257905
vn 0.3231002 0.9190344 -0.2257905
vn 0.2025126 0.8268819 -0.5246471
vn 0.2025125 0.8268819 -0.5246471
vn 0.2025125 0.8268819 -0.5246471
vn 0.6070946 0.7785742 -0.1589279
vn 0.6070946 0.7785742 -0.1589279
vn 0.6070946 0.7785742 -0.1589279

vt 0.5482839 0.007647395
vt 0.5 0.15
vt 0.6264089 0.06440853
vt 0.4517161 0.00764741
vt 0.3735911 0.06440856
vt 0.34375 0.15625
vt 0.3735911 0.2480915
vt 0.4517161 0.3048526
vt 0.5482839 0.3048526
vt 0.6264089 0.2480914
vt 0.65625 0.15625
vt 0 0
vt 0 1
vt 1 1
vt 1 0
vt 0 0
vt 0 1
vt 1 1
vt 1 0
vt 0 0
vt 0 1
vt 1 1
vt 1 0
vt 0 0
vt 0 1
vt 1 1
vt 1 0
vt 0 0
vt 0 1
vt 1 1
vt 1 0
vt 0 0
vt 0 1
vt 1 1
vt 1 0
vt 0 0
vt 0 1
vt 1 1
vt 1 0
vt 0 0
vt 0 1
vt 1 1
vt 1 0
vt 0 0
vt 0 1
vt 1 1
vt 1 0
vt 0 0
vt 0 1
vt 1 1
vt 1 0
vt 0 0
vt 0 1
vt 1 1
vt 1 0
vt 0 0
vt 0 1
vt 1 1
vt 1 0
vt 0 0
vt 0 1
vt 1 1
vt 1 0
vt 0 0
vt 0 1
vt 1 1
vt 1 0
vt 0 0
vt 0 1
vt 1 1
vt 1 0
vt 0 0
vt 0 1
vt 1 1
vt 1 0
vt 0 0
vt 0 1
vt 1 1
vt 1 0
vt 0 0
vt 0 1
vt 1 1
vt 1 0
vt 0 0
vt 0 1
vt 1 1
vt 1 0
vt 0 0
vt 0 1
vt 1 1
vt 1 0
vt 0 0
vt 0 1
vt 1 1
vt 1 0
vt 0 0
vt 0 1
vt 1 1
vt 1 0
vt 0 0
vt 0 1
vt 1 1
vt 1 0
vt 0 0
vt 0 1
vt 1 1
vt 1 0
vt 0 0
vt 0 1
vt 1 1
vt 1 0
vt 0 0
vt 0 1
vt 1 1
vt 1 0
vt 0 0
vt 0 1
vt 1 1
vt 1 0
vt 0 0
vt 0 1
vt 1 1
vt 1 0
vt 0 0
vt 0 1
vt 1 1
vt 1 0
vt 0 0
vt 0 1
vt 1 1
vt 1 0
vt 0 0
vt 0 1
vt 1 1
vt 1 0
vt 0 0
vt 0 1
vt 1 1
vt 1 0
vt 0 0
vt 0 1
vt 1 1
vt 1 0
vt 0 0
vt 0 1
vt 1 1
vt 1 0
vt 0 0
vt 0 1
vt 1 1
vt 1 0
vt 0 0
vt 0 1
vt 1 1
vt 1 0
vt 0 0
vt 0 1
vt 1 1
vt 1 0
vt 0 0
vt 0 1
vt 1 1
vt 1 0
vt 0 0
vt 0 1
vt 1 1
vt 1 0
vt 0 0
vt 0 1
vt 1 1
vt 1 0
vt 0 0
vt 0.5 1
vt 1 0
vt 0 0
vt 0.5 1
vt 1 0
vt 0 0
vt 0.5 1
vt 1 0
vt 0 0
vt 0.5 1
vt 1 0
vt 0 0
vt 0.5 1
vt 1 0
vt 0 0
vt 0.5 1
vt 1 0
vt 0 0
vt 0.5 1
vt 1 0
vt 0 0
vt 0.5 1
vt 1 0
vt 0 0
vt 0.5 1
vt 1 0
vt 0 0
vt 0.5 1
vt 1 0

g Foliage4_27_4299_81
usemtl Foliage4_27_4299_81
usemap Foliage4_27_4299_81
f 1/1/1 3/3/3 2/2/2
f 4/4/4 1/1/1 2/2/2
f 5/5/5 4/4/4 2/2/2
f 6/6/6 5/5/5 2/2/2
f 7/7/7 6/6/6 2/2/2
f 8/8/8 7/7/7 2/2/2
f 9/9/9 8/8/8 2/2/2
f 10/10/10 9/9/9 2/2/2
f 11/11/11 10/10/10 2/2/2
f 3/3/3 11/11/11 2/2/2
f 12/12/12 14/14/14 13/13/13
f 12/12/12 15/15/15 14/14/14
f 16/16/16 18/18/18 17/17/17
f 16/16/16 19/19/19 18/18/18
f 20/20/20 22/22/22 21/21/21
f 20/20/20 23/23/23 22/22/22
f 24/24/24 26/26/26 25/25/25
f 24/24/24 27/27/27 26/26/26
f 28/28/28 30/30/30 29/29/29
f 28/28/28 31/31/31 30/30/30
f 32/32/32 34/34/34 33/33/33
f 32/32/32 35/35/35 34/34/34
f 36/36/36 38/38/38 37/37/37
f 36/36/36 39/39/39 38/38/38
f 40/40/40 42/42/42 41/41/41
f 40/40/40 43/43/43 42/42/42
f 44/44/44 46/46/46 45/45/45
f 44/44/44 47/47/47 46/46/46
f 48/48/48 50/50/50 49/49/49
f 48/48/48 51/51/51 50/50/50
f 52/52/52 54/54/54 53/53/53
f 52/52/52 55/55/55 54/54/54
f 56/56/56 58/58/58 57/57/57
f 56/56/56 59/59/59 58/58/58
f 60/60/60 62/62/62 61/61/61
f 60/60/60 63/63/63 62/62/62
f 64/64/64 66/66/66 65/65/65
f 64/64/64 67/67/67 66/66/66
f 68/68/68 70/70/70 69/69/69
f 68/68/68 71/71/71 70/70/70
f 72/72/72 74/74/74 73/73/73
f 72/72/72 75/75/75 74/74/74
f 76/76/76 78/78/78 77/77/77
f 76/76/76 79/79/79 78/78/78
f 80/80/80 82/82/82 81/81/81
f 80/80/80 83/83/83 82/82/82
f 84/84/84 86/86/86 85/85/85
f 84/84/84 87/87/87 86/86/86
f 88/88/88 90/90/90 89/89/89
f 88/88/88 91/91/91 90/90/90
f 92/92/92 94/94/94 93/93/93
f 92/92/92 95/95/95 94/94/94
f 96/96/96 98/98/98 97/97/97
f 96/96/96 99/99/99 98/98/98
f 100/100/100 102/102/102 101/101/101
f 100/100/100 103/103/103 102/102/102
f 104/104/104 106/106/106 105/105/105
f 104/104/104 107/107/107 106/106/106
f 108/108/108 110/110/110 109/109/109
f 108/108/108 111/111/111 110/110/110
f 112/112/112 114/114/114 113/113/113
f 112/112/112 115/115/115 114/114/114
f 116/116/116 118/118/118 117/117/117
f 116/116/116 119/119/119 118/118/118
f 120/120/120 122/122/122 121/121/121
f 120/120/120 123/123/123 122/122/122
f 124/124/124 126/126/126 125/125/125
f 124/124/124 127/127/127 126/126/126
f 128/128/128 130/130/130 129/129/129
f 128/128/128 131/131/131 130/130/130
f 132/132/132 134/134/134 133/133/133
f 132/132/132 135/135/135 134/134/134
f 136/136/136 138/138/138 137/137/137
f 136/136/136 139/139/139 138/138/138
f 140/140/140 142/142/142 141/141/141
f 140/140/140 143/143/143 142/142/142
f 144/144/144 146/146/146 145/145/145
f 144/144/144 147/147/147 146/146/146
f 148/148/148 150/150/150 149/149/149
f 148/148/148 151/151/151 150/150/150
f 152/152/152 154/154/154 153/153/153
f 152/152/152 155/155/155 154/154/154
f 156/156/156 158/158/158 157/157/157
f 156/156/156 159/159/159 158/158/158
f 160/160/160 162/162/162 161/161/161
f 160/160/160 163/163/163 162/162/162
f 164/164/164 166/166/166 165/165/165
f 164/164/164 167/167/167 166/166/166
f 168/168/168 170/170/170 169/169/169
f 168/168/168 171/171/171 170/170/170
f 172/172/172 174/174/174 173/173/173
f 175/175/175 177/177/177 176/176/176
f 178/178/178 180/180/180 179/179/179
f 181/181/181 183/183/183 182/182/182
f 184/184/184 186/186/186 185/185/185
f 187/187/187 189/189/189 188/188/188
f 190/190/190 192/192/192 191/191/191
f 193/193/193 195/195/195 194/194/194
f 196/196/196 198/198/198 197/197/197
f 199/199/199 201/201/201 200/200/200
