#Foliage5_34_3816_170.obj

v 0.01454356 -0.02577554 -0.04035768
v 0.00462227 -0.03397598 0.001091869
v 0.03878284 -0.02577555 -0.02105423
v -0.009665048 -0.02577555 -0.03817491
v -0.01825244 -0.02577556 -0.01777984
v -0.03822383 -0.02223211 0.001091971
v -0.0213526 -0.02577554 0.01996366
v -0.005299366 -0.02577555 0.03271855
v 0.02109222 -0.02577556 0.04035885
v 0.0305967 -0.02577556 0.01996387
v 0.03218785 -0.02223212 0.001091817
v 0.03878284 -0.02577555 -0.02105423
v 0.047965 -0.01489229 -0.02772548
v 0.01805104 -0.0148923 -0.05115222
v 0.01454356 -0.02577554 -0.04035768
v 0.01454356 -0.02577554 -0.04035768
v 0.01805104 -0.0148923 -0.05115222
v -0.01317241 -0.0148923 -0.04896929
v -0.009665048 -0.02577555 -0.03817491
v -0.009665048 -0.02577555 -0.03817491
v -0.01317241 -0.0148923 -0.04896929
v -0.02743502 -0.01489227 -0.02445118
v -0.01825244 -0.02577556 -0.01777984
v -0.01825244 -0.02577556 -0.01777984
v -0.02743502 -0.01489227 -0.02445118
v -0.04796869 -0.0128881 0.001092107
v -0.03822383 -0.02223211 0.001091971
v -0.03822383 -0.02223211 0.001091971
v -0.04796869 -0.0128881 0.001092107
v -0.03053492 -0.01489229 0.02663511
v -0.0213526 -0.02577554 0.01996366
v -0.0213526 -0.02577554 0.01996366
v -0.03053492 -0.01489229 0.02663511
v -0.008806721 -0.01489229 0.04351297
v -0.005299366 -0.02577555 0.03271855
v -0.005299366 -0.02577555 0.03271855
v -0.008806721 -0.01489229 0.04351297
v 0.02459971 -0.01489228 0.0511531
v 0.02109222 -0.02577556 0.04035885
v 0.02109222 -0.02577556 0.04035885
v 0.02459971 -0.01489228 0.0511531
v 0.03977941 -0.01489229 0.02663509
v 0.0305967 -0.02577556 0.01996387
v 0.0305967 -0.02577556 0.01996387
v 0.03977941 -0.01489229 0.02663509
v 0.04193265 -0.01288811 0.001091834
v 0.03218785 -0.02223212 0.001091817
v 0.03218785 -0.02223212 0.001091817
v 0.04193265 -0.01288811 0.001091834
v 0.047965 -0.01489229 -0.02772548
v 0.03878284 -0.02577555 -0.02105423
v 0.047965 -0.01489229 -0.02772548
v 0.04796519 -0.0001482159 -0.02772549
v 0.01805106 -0.0001482234 -0.05115237
v 0.01805104 -0.0148923 -0.05115222
v 0.01805104 -0.0148923 -0.05115222
v 0.01805106 -0.0001482234 -0.05115237
v -0.01317239 -0.0001482234 -0.04896944
v -0.01317241 -0.0148923 -0.04896929
v -0.01317241 -0.0148923 -0.04896929
v -0.01317239 -0.0001482234 -0.04896944
v -0.02743484 -0.0001482229 -0.02445119
v -0.02743502 -0.01489227 -0.02445118
v -0.02743502 -0.01489227 -0.02445118
v -0.02743484 -0.0001482229 -0.02445119
v -0.04796867 -0.0002293268 0.00109199
v -0.04796869 -0.0128881 0.001092107
v -0.04796869 -0.0128881 0.001092107
v -0.04796867 -0.0002293268 0.00109199
v -0.03053518 -0.0001482165 0.02663529
v -0.03053492 -0.01489229 0.02663511
v -0.03053492 -0.01489229 0.02663511
v -0.03053518 -0.0001482165 0.02663529
v -0.008806537 -0.0001482374 0.04351296
v -0.008806721 -0.01489229 0.04351297
v -0.008806721 -0.01489229 0.04351297
v -0.008806537 -0.0001482374 0.04351296
v 0.02459962 -0.0001482158 0.05115343
v 0.02459971 -0.01489228 0.0511531
v 0.02459971 -0.01489228 0.0511531
v 0.02459962 -0.0001482158 0.05115343
v 0.03977916 -0.000148216 0.02663526
v 0.03977941 -0.01489229 0.02663509
v 0.03977941 -0.01489229 0.02663509
v 0.03977916 -0.000148216 0.02663526
v 0.04193238 -0.0002293171 0.001092042
v 0.04193265 -0.01288811 0.001091834
v 0.04193265 -0.01288811 0.001091834
v 0.04193238 -0.0002293171 0.001092042
v 0.04796519 -0.0001482159 -0.02772549
v 0.047965 -0.01489229 -0.02772548
v 0.04796519 -0.0001482159 -0.02772549
v 0.0456872 0.01428347 -0.0253965
v 0.0171432 0.01428345 -0.04799064
v 0.01805106 -0.0001482234 -0.05115237
v 0.01805106 -0.0001482234 -0.05115237
v 0.0171432 0.01428345 -0.04799064
v -0.01183093 0.01428344 -0.04559708
v -0.01317239 -0.0001482234 -0.04896944
v -0.01317239 -0.0001482234 -0.04896944
v -0.01183093 0.01428344 -0.04559708
v -0.02321203 0.01428346 -0.02180592
v -0.02743484 -0.0001482229 -0.02445119
v -0.02743484 -0.0001482229 -0.02445119
v -0.02321203 0.01428346 -0.02180592
v -0.04530566 0.01197217 0.001197279
v -0.04796867 -0.0002293268 0.00109199
v -0.04796867 -0.0002293268 0.00109199
v -0.04530566 0.01197217 0.001197279
v -0.02661151 0.01428345 0.02420065
v -0.03053518 -0.0001482165 0.02663529
v -0.03053518 -0.0001482165 0.02663529
v -0.02661151 0.01428345 0.02420065
v -0.007043549 0.01428347 0.03961396
v -0.008806537 -0.0001482374 0.04351296
v -0.008806537 -0.0001482374 0.04351296
v -0.007043549 0.01428347 0.03961396
v 0.0243243 0.01428344 0.04799162
v 0.02459962 -0.0001482158 0.05115343
v 0.02459962 -0.0001482158 0.05115343
v 0.0243243 0.01428344 0.04799162
v 0.03671113 0.01428345 0.0242003
v 0.03977916 -0.000148216 0.02663526
v 0.03977916 -0.000148216 0.02663526
v 0.03671113 0.01428345 0.0242003
v 0.03865021 0.01197219 0.001197367
v 0.04193238 -0.0002293171 0.001092042
v 0.04193238 -0.0002293171 0.001092042
v 0.03865021 0.01197219 0.001197367
v 0.0456872 0.01428347 -0.0253965
v 0.04796519 -0.0001482159 -0.02772549
v 0.0456872 0.01428347 -0.0253965
v 0.03225063 0.02437449 -0.01614697
v 0.01203468 0.02437451 -0.03256799
v 0.0171432 0.01428345 -0.04799064
v 0.0171432 0.01428345 -0.04799064
v 0.01203468 0.02437451 -0.03256799
v -0.002593861 0.02437448 -0.02139329
v -0.01183093 0.01428344 -0.04559708
v -0.01183093 0.01428344 -0.04559708
v -0.002593861 0.02437448 -0.02139329
v -0.0112548 0.02437447 -0.0127949
v -0.02321203 0.01428346 -0.02180592
v -0.02321203 0.01428346 -0.02180592
v -0.0112548 0.02437447 -0.0127949
v -0.03124627 0.02074656 0.001117941
v -0.04530566 0.01197217 0.001197279
v -0.04530566 0.01197217 0.001197279
v -0.03124627 0.02074656 0.001117941
v -0.01442899 0.02437448 0.01503086
v -0.02661151 0.01428345 0.02420065
v -0.02661151 0.01428345 0.02420065
v -0.01442899 0.02437448 0.01503086
v -0.002593925 0.02437447 0.02474654
v -0.007043549 0.01428347 0.03961396
v -0.007043549 0.01428347 0.03961396
v -0.002593925 0.02437447 0.02474654
v 0.01873951 0.0243745 0.03256908
v 0.0243243 0.01428344 0.04799162
v 0.0243243 0.01428344 0.04799162
v 0.01873951 0.0243745 0.03256908
v 0.02386947 0.02437451 0.01503087
v 0.03671113 0.01428345 0.0242003
v 0.03671113 0.01428345 0.0242003
v 0.02386947 0.02437451 0.01503087
v 0.02504262 0.02074654 0.00111792
v 0.03865021 0.01197219 0.001197367
v 0.03865021 0.01197219 0.001197367
v 0.02504262 0.02074654 0.00111792
v 0.03225063 0.02437449 -0.01614697
v 0.0456872 0.01428347 -0.0253965
v 0.03225063 0.02437449 -0.01614697
v 0.004622126 0.03397617 0.00109183
v 0.01203468 0.02437451 -0.03256799
v 0.01203468 0.02437451 -0.03256799
v 0.004622126 0.03397617 0.00109183
v -0.002593861 0.02437448 -0.02139329
v -0.002593861 0.02437448 -0.02139329
v 0.004622126 0.03397617 0.00109183
v -0.0112548 0.02437447 -0.0127949
v -0.0112548 0.02437447 -0.0127949
v 0.004622126 0.03397617 0.00109183
v -0.03124627 0.02074656 0.001117941
v -0.03124627 0.02074656 0.001117941
v 0.004622126 0.03397617 0.00109183
v -0.01442899 0.02437448 0.01503086
v -0.01442899 0.02437448 0.01503086
v 0.004622126 0.03397617 0.00109183
v -0.002593925 0.02437447 0.02474654
v -0.002593925 0.02437447 0.02474654
v 0.004622126 0.03397617 0.00109183
v 0.01873951 0.0243745 0.03256908
v 0.01873951 0.0243745 0.03256908
v 0.004622126 0.03397617 0.00109183
v 0.02386947 0.02437451 0.01503087
v 0.02386947 0.02437451 0.01503087
v 0.004622126 0.03397617 0.00109183
v 0.02504262 0.02074654 0.00111792
v 0.02504262 0.02074654 0.00111792
v 0.004622126 0.03397617 0.00109183
v 0.03225063 0.02437449 -0.01614697

vn -0.05065884 -0.9759366 -0.2120876
vn 0.02331615 -0.9989805 -0.03865133
vn 0.1360032 -0.9685193 -0.2085021
vn -0.1558469 -0.9811903 -0.1139166
vn -0.2422365 -0.9686023 0.05595127
vn -0.190341 -0.9740075 0.1227972
vn -0.07723624 -0.9779056 0.1942541
vn 0.09003188 -0.9765944 0.1953383
vn 0.1840003 -0.9810098 0.06134449
vn 0.2527555 -0.9463159 -0.2014955
vn 0.3802312 -0.8998628 -0.2137073
vn -0.01624522 -0.6773089 -0.7355194
vn -0.01624525 -0.6773089 -0.7355193
vn -0.01624516 -0.6773089 -0.7355193
vn -0.01624525 -0.6773089 -0.7355193
vn -0.4901826 -0.6948195 -0.5262571
vn -0.4901826 -0.6948196 -0.5262571
vn -0.4901826 -0.6948195 -0.5262571
vn -0.4901826 -0.6948195 -0.5262572
vn -0.7127722 -0.6842518 0.1541264
vn -0.7127723 -0.6842517 0.1541264
vn -0.7127722 -0.6842518 0.1541264
vn -0.7127723 -0.6842517 0.1541265
vn -0.7105702 -0.7034046 0.01765504
vn -0.7105703 -0.7034045 0.01765513
vn -0.7105703 -0.7034045 0.01765507
vn -0.7105702 -0.7034045 0.01765513
vn -0.1943271 -0.725144 0.6606079
vn -0.1943271 -0.725144 0.6606079
vn -0.1943271 -0.725144 0.660608
vn -0.1943271 -0.725144 0.660608
vn 0.04938063 -0.7291966 0.68252
vn 0.04938057 -0.7291966 0.68252
vn 0.0493806 -0.7291966 0.6825199
vn 0.0493806 -0.7291966 0.6825199
vn 0.3370003 -0.7093768 0.6190437
vn 0.3370003 -0.7093768 0.6190437
vn 0.3370003 -0.7093768 0.6190438
vn 0.3370003 -0.7093768 0.6190437
vn 0.7424221 -0.6453804 -0.1797039
vn 0.742422 -0.6453804 -0.1797038
vn 0.742422 -0.6453804 -0.1797038
vn 0.7424221 -0.6453804 -0.1797039
vn 0.5549501 -0.6477985 -0.5219074
vn 0.5549501 -0.6477985 -0.5219074
vn 0.5549501 -0.6477985 -0.5219074
vn 0.5549501 -0.6477985 -0.5219074
vn 0.7431127 -0.587728 -0.3199362
vn 0.7431127 -0.5877278 -0.3199362
vn 0.7431127 -0.587728 -0.3199362
vn 0.7431127 -0.5877279 -0.3199361
vn -0.04839644 0.03644728 -0.998163
vn -0.04839638 0.03644728 -0.998163
vn -0.04839638 0.03644728 -0.998163
vn -0.04839644 0.03644728 -0.998163
vn -0.7049494 0.01108745 -0.7091709
vn -0.7049494 0.01108745 -0.7091709
vn -0.7049494 0.01108745 -0.7091709
vn -0.7049494 0.01108745 -0.7091709
vn -0.9825251 -0.02860878 0.1839186
vn -0.9825251 -0.02860878 0.1839186
vn -0.9825251 -0.02860878 0.1839186
vn -0.9825251 -0.02860878 0.1839186
vn -0.9991199 -0.02337172 0.0348298
vn -0.99912 -0.02337172 0.03482985
vn -0.9991199 -0.02337172 0.0348298
vn -0.9991199 -0.02337172 0.0348298
vn -0.256154 -0.04195321 0.9657252
vn -0.256154 -0.04195321 0.9657252
vn -0.2561539 -0.04195321 0.9657252
vn -0.256154 -0.04195321 0.9657252
vn 0.05234337 -0.03635276 0.9979674
vn 0.05234337 -0.03635276 0.9979674
vn 0.05234337 -0.03635276 0.9979674
vn 0.05234337 -0.03635276 0.9979674
vn 0.4687082 -0.02283968 0.8830577
vn 0.4687082 -0.02283968 0.8830577
vn 0.4687082 -0.02283968 0.8830577
vn 0.4687082 -0.02283968 0.8830577
vn 0.987235 0.02769521 -0.1568448
vn 0.987235 0.02769521 -0.1568448
vn 0.987235 0.02769521 -0.1568448
vn 0.987235 0.02769521 -0.1568448
vn 0.8085998 0.03991809 -0.5870034
vn 0.8085998 0.03991809 -0.5870034
vn 0.8085998 0.03991809 -0.5870034
vn 0.8085998 0.03991809 -0.5870034
vn 0.8742658 0.03749665 -0.4839972
vn 0.8742658 0.03749665 -0.4839972
vn 0.8742658 0.03749665 -0.4839972
vn 0.8742658 0.03749665 -0.4839972
vn -0.04949334 0.2482273 -0.9674367
vn -0.04949334 0.2482273 -0.9674367
vn -0.04949334 0.2482273 -0.9674367
vn -0.04949334 0.2482273 -0.9674367
vn -0.6965526 0.2315862 -0.679104
vn -0.6965526 0.2315862 -0.679104
vn -0.6965526 0.2315862 -0.679104
vn -0.6965526 0.2315862 -0.679104
vn -0.9470848 0.2298062 0.2240969
vn -0.9470848 0.2298062 0.224097
vn -0.9470848 0.2298062 0.2240969
vn -0.9470848 0.2298061 0.2240969
vn -0.9724176 0.2330027 0.01066837
vn -0.9724176 0.2330027 0.01066834
vn -0.9724176 0.2330026 0.01066837
vn -0.9724176 0.2330027 0.0106684
vn -0.2246872 0.2032333 0.9530016
vn -0.2246872 0.2032333 0.9530016
vn -0.2246873 0.2032333 0.9530016
vn -0.2246872 0.2032333 0.9530016
vn 0.0409005 0.2470439 0.9681407
vn 0.04090041 0.2470439 0.9681407
vn 0.04090047 0.2470439 0.9681408
vn 0.04090047 0.2470439 0.9681408
vn 0.4342473 0.2193682 0.8736743
vn 0.4342474 0.2193682 0.8736743
vn 0.4342473 0.2193682 0.8736743
vn 0.4342473 0.2193682 0.8736743
vn 0.9582504 0.2211618 -0.181228
vn 0.9582504 0.2211618 -0.181228
vn 0.9582504 0.2211618 -0.181228
vn 0.9582504 0.2211618 -0.181228
vn 0.7733956 0.2759124 -0.570729
vn 0.7733957 0.2759124 -0.570729
vn 0.7733957 0.2759124 -0.570729
vn 0.7733957 0.2759123 -0.570729
vn 0.8715544 0.2142524 -0.4410089
vn 0.8715544 0.2142524 -0.4410089
vn 0.8715544 0.2142524 -0.4410089
vn 0.8715544 0.2142524 -0.4410089
vn -0.03923227 0.8561313 -0.5152667
vn -0.0392323 0.8561313 -0.5152667
vn -0.03923227 0.8561313 -0.5152667
vn -0.0392323 0.8561313 -0.5152667
vn -0.4092963 0.8880998 -0.2091766
vn -0.4092963 0.8880998 -0.2091766
vn -0.4092963 0.8880998 -0.2091766
vn -0.4092962 0.8880998 -0.2091766
vn -0.5070744 0.8548178 0.1102802
vn -0.5070744 0.8548178 0.1102802
vn -0.5070744 0.8548178 0.1102802
vn -0.5070744 0.8548178 0.1102802
vn -0.6110085 0.790912 0.0335615
vn -0.6110085 0.790912 0.0335615
vn -0.6110085 0.790912 0.0335615
vn -0.6110085 0.790912 0.0335615
vn -0.1645674 0.7936584 0.5856822
vn -0.1645674 0.7936584 0.5856822
vn -0.1645675 0.7936584 0.5856822
vn -0.1645674 0.7936584 0.5856822
vn 0.003423363 0.8005977 0.5991923
vn 0.003423303 0.8005976 0.5991923
vn 0.003423333 0.8005976 0.5991923
vn 0.003423303 0.8005976 0.5991923
vn 0.2140471 0.8017659 0.5579919
vn 0.2140471 0.8017659 0.5579919
vn 0.2140471 0.8017659 0.5579919
vn 0.2140471 0.8017659 0.5579919
vn 0.5580906 0.8151454 -0.1551526
vn 0.5580906 0.8151454 -0.1551526
vn 0.5580906 0.8151454 -0.1551526
vn 0.5580906 0.8151454 -0.1551526
vn 0.3827434 0.8234646 -0.4188235
vn 0.3827433 0.8234646 -0.4188234
vn 0.3827433 0.8234646 -0.4188235
vn 0.3827434 0.8234646 -0.4188235
vn 0.6415775 0.7529126 -0.146631
vn 0.6415775 0.7529127 -0.146631
vn 0.6415775 0.7529126 -0.146631
vn 0.6415775 0.7529126 -0.146631
vn -0.03016891 0.9647527 -0.2614223
vn -0.03016894 0.9647527 -0.2614223
vn -0.03016891 0.9647527 -0.2614223
vn -0.4080458 0.9117657 -0.0467069
vn -0.4080459 0.9117657 -0.04670693
vn -0.4080458 0.9117657 -0.04670691
vn -0.4339156 0.9009506 0.002230659
vn -0.4339156 0.9009506 0.002230644
vn -0.4339156 0.9009506 0.002230689
vn -0.4341946 0.8982612 0.06783381
vn -0.4341946 0.8982612 0.06783381
vn -0.4341946 0.8982612 0.06783381
vn -0.1664286 0.9071203 0.3865669
vn -0.1664285 0.9071203 0.3865668
vn -0.1664286 0.9071203 0.3865669
vn -0.01050781 0.9067884 0.4214546
vn -0.01050782 0.9067885 0.4214546
vn -0.01050782 0.9067885 0.4214546
vn 0.1075308 0.9212276 0.3738666
vn 0.1075308 0.9212276 0.3738666
vn 0.1075308 0.9212276 0.3738666
vn 0.3382207 0.9322156 -0.128765
vn 0.3382207 0.9322156 -0.128765
vn 0.3382207 0.9322155 -0.128765
vn 0.2756725 0.8505845 -0.4477837
vn 0.2756724 0.8505845 -0.4477836
vn 0.2756724 0.8505846 -0.4477836
vn 0.6084908 0.7933825 -0.01681885
vn 0.6084908 0.7933825 -0.01681882
vn 0.6084908 0.7933825 -0.01681885

vt 0.5483398 0.007648468
vt 0.5 0.1500244
vt 0.6264648 0.06439209
vt 0.4516602 0.007648468
vt 0.3735352 0.06439209
vt 0.34375 0.15625
vt 0.3735352 0.2480469
vt 0.4516602 0.3049316
vt 0.5483398 0.3049316
vt 0.6264648 0.2480469
vt 0.65625 0.15625
vt 0 0
vt 0 1
vt 1 1
vt 1 0
vt 0 0
vt 0 1
vt 1 1
vt 1 0
vt 0 0
vt 0 1
vt 1 1
vt 1 0
vt 0 0
vt 0 1
vt 1 1
vt 1 0
vt 0 0
vt 0 1
vt 1 1
vt 1 0
vt 0 0
vt 0 1
vt 1 1
vt 1 0
vt 0 0
vt 0 1
vt 1 1
vt 1 0
vt 0 0
vt 0 1
vt 1 1
vt 1 0
vt 0 0
vt 0 1
vt 1 1
vt 1 0
vt 0 0
vt 0 1
vt 1 1
vt 1 0
vt 0 0
vt 0 1
vt 1 1
vt 1 0
vt 0 0
vt 0 1
vt 1 1
vt 1 0
vt 0 0
vt 0 1
vt 1 1
vt 1 0
vt 0 0
vt 0 1
vt 1 1
vt 1 0
vt 0 0
vt 0 1
vt 1 1
vt 1 0
vt 0 0
vt 0 1
vt 1 1
vt 1 0
vt 0 0
vt 0 1
vt 1 1
vt 1 0
vt 0 0
vt 0 1
vt 1 1
vt 1 0
vt 0 0
vt 0 1
vt 1 1
vt 1 0
vt 0 0
vt 0 1
vt 1 1
vt 1 0
vt 0 0
vt 0 1
vt 1 1
vt 1 0
vt 0 0
vt 0 1
vt 1 1
vt 1 0
vt 0 0
vt 0 1
vt 1 1
vt 1 0
vt 0 0
vt 0 1
vt 1 1
vt 1 0
vt 0 0
vt 0 1
vt 1 1
vt 1 0
vt 0 0
vt 0 1
vt 1 1
vt 1 0
vt 0 0
vt 0 1
vt 1 1
vt 1 0
vt 0 0
vt 0 1
vt 1 1
vt 1 0
vt 0 0
vt 0 1
vt 1 1
vt 1 0
vt 0 0
vt 0 1
vt 1 1
vt 1 0
vt 0 0
vt 0 1
vt 1 1
vt 1 0
vt 0 0
vt 0 1
vt 1 1
vt 1 0
vt 0 0
vt 0 1
vt 1 1
vt 1 0
vt 0 0
vt 0 1
vt 1 1
vt 1 0
vt 0 0
vt 0 1
vt 1 1
vt 1 0
vt 0 0
vt 0 1
vt 1 1
vt 1 0
vt 0 0
vt 0 1
vt 1 1
vt 1 0
vt 0 0
vt 0 1
vt 1 1
vt 1 0
vt 0 0
vt 0 1
vt 1 1
vt 1 0
vt 0 0
vt 0 1
vt 1 1
vt 1 0
vt 0 0
vt 0.5 1
vt 1 0
vt 0 0
vt 0.5 1
vt 1 0
vt 0 0
vt 0.5 1
vt 1 0
vt 0 0
vt 0.5 1
vt 1 0
vt 0 0
vt 0.5 1
vt 1 0
vt 0 0
vt 0.5 1
vt 1 0
vt 0 0
vt 0.5 1
vt 1 0
vt 0 0
vt 0.5 1
vt 1 0
vt 0 0
vt 0.5 1
vt 1 0
vt 0 0
vt 0.5 1
vt 1 0

g Foliage5_34_3816_170
usemtl Foliage5_34_3816_170
usemap Foliage5_34_3816_170
f 1/1/1 3/3/3 2/2/2
f 4/4/4 1/1/1 2/2/2
f 5/5/5 4/4/4 2/2/2
f 6/6/6 5/5/5 2/2/2
f 7/7/7 6/6/6 2/2/2
f 8/8/8 7/7/7 2/2/2
f 9/9/9 8/8/8 2/2/2
f 10/10/10 9/9/9 2/2/2
f 11/11/11 10/10/10 2/2/2
f 3/3/3 11/11/11 2/2/2
f 12/12/12 14/14/14 13/13/13
f 12/12/12 15/15/15 14/14/14
f 16/16/16 18/18/18 17/17/17
f 16/16/16 19/19/19 18/18/18
f 20/20/20 22/22/22 21/21/21
f 20/20/20 23/23/23 22/22/22
f 24/24/24 26/26/26 25/25/25
f 24/24/24 27/27/27 26/26/26
f 28/28/28 30/30/30 29/29/29
f 28/28/28 31/31/31 30/30/30
f 32/32/32 34/34/34 33/33/33
f 32/32/32 35/35/35 34/34/34
f 36/36/36 38/38/38 37/37/37
f 36/36/36 39/39/39 38/38/38
f 40/40/40 42/42/42 41/41/41
f 40/40/40 43/43/43 42/42/42
f 44/44/44 46/46/46 45/45/45
f 44/44/44 47/47/47 46/46/46
f 48/48/48 50/50/50 49/49/49
f 48/48/48 51/51/51 50/50/50
f 52/52/52 54/54/54 53/53/53
f 52/52/52 55/55/55 54/54/54
f 56/56/56 58/58/58 57/57/57
f 56/56/56 59/59/59 58/58/58
f 60/60/60 62/62/62 61/61/61
f 60/60/60 63/63/63 62/62/62
f 64/64/64 66/66/66 65/65/65
f 64/64/64 67/67/67 66/66/66
f 68/68/68 70/70/70 69/69/69
f 68/68/68 71/71/71 70/70/70
f 72/72/72 74/74/74 73/73/73
f 72/72/72 75/75/75 74/74/74
f 76/76/76 78/78/78 77/77/77
f 76/76/76 79/79/79 78/78/78
f 80/80/80 82/82/82 81/81/81
f 80/80/80 83/83/83 82/82/82
f 84/84/84 86/86/86 85/85/85
f 84/84/84 87/87/87 86/86/86
f 88/88/88 90/90/90 89/89/89
f 88/88/88 91/91/91 90/90/90
f 92/92/92 94/94/94 93/93/93
f 92/92/92 95/95/95 94/94/94
f 96/96/96 98/98/98 97/97/97
f 96/96/96 99/99/99 98/98/98
f 100/100/100 102/102/102 101/101/101
f 100/100/100 103/103/103 102/102/102
f 104/104/104 106/106/106 105/105/105
f 104/104/104 107/107/107 106/106/106
f 108/108/108 110/110/110 109/109/109
f 108/108/108 111/111/111 110/110/110
f 112/112/112 114/114/114 113/113/113
f 112/112/112 115/115/115 114/114/114
f 116/116/116 118/118/118 117/117/117
f 116/116/116 119/119/119 118/118/118
f 120/120/120 122/122/122 121/121/121
f 120/120/120 123/123/123 122/122/122
f 124/124/124 126/126/126 125/125/125
f 124/124/124 127/127/127 126/126/126
f 128/128/128 130/130/130 129/129/129
f 128/128/128 131/131/131 130/130/130
f 132/132/132 134/134/134 133/133/133
f 132/132/132 135/135/135 134/134/134
f 136/136/136 138/138/138 137/137/137
f 136/136/136 139/139/139 138/138/138
f 140/140/140 142/142/142 141/141/141
f 140/140/140 143/143/143 142/142/142
f 144/144/144 146/146/146 145/145/145
f 144/144/144 147/147/147 146/146/146
f 148/148/148 150/150/150 149/149/149
f 148/148/148 151/151/151 150/150/150
f 152/152/152 154/154/154 153/153/153
f 152/152/152 155/155/155 154/154/154
f 156/156/156 158/158/158 157/157/157
f 156/156/156 159/159/159 158/158/158
f 160/160/160 162/162/162 161/161/161
f 160/160/160 163/163/163 162/162/162
f 164/164/164 166/166/166 165/165/165
f 164/164/164 167/167/167 166/166/166
f 168/168/168 170/170/170 169/169/169
f 168/168/168 171/171/171 170/170/170
f 172/172/172 174/174/174 173/173/173
f 175/175/175 177/177/177 176/176/176
f 178/178/178 180/180/180 179/179/179
f 181/181/181 183/183/183 182/182/182
f 184/184/184 186/186/186 185/185/185
f 187/187/187 189/189/189 188/188/188
f 190/190/190 192/192/192 191/191/191
f 193/193/193 195/195/195 194/194/194
f 196/196/196 198/198/198 197/197/197
f 199/199/199 201/201/201 200/200/200
