#Foliage1_38_3591_114.obj

v 0.01454489 -0.02577568 -0.0403595
v 0.004623378 -0.0339761 0.001090052
v 0.03878408 -0.02577571 -0.02105604
v -0.00966388 -0.02577573 -0.03817669
v -0.01825134 -0.02577566 -0.01778203
v -0.03822269 -0.02223223 0.001089621
v -0.02135144 -0.02577571 0.01996152
v -0.00529821 -0.02577574 0.03271651
v 0.02109343 -0.02577567 0.04035662
v 0.03059821 -0.02577564 0.01996188
v 0.03218904 -0.02223223 0.001089939
v 0.03878408 -0.02577571 -0.02105604
v 0.04796636 -0.01489244 -0.02772771
v 0.01805214 -0.01489246 -0.05115449
v 0.01454489 -0.02577568 -0.0403595
v 0.01454489 -0.02577568 -0.0403595
v 0.01805214 -0.01489246 -0.05115449
v -0.01317127 -0.01489239 -0.04897147
v -0.00966388 -0.02577573 -0.03817669
v -0.00966388 -0.02577573 -0.03817669
v -0.01317127 -0.01489239 -0.04897147
v -0.02743357 -0.01489242 -0.0244529
v -0.01825134 -0.02577566 -0.01778203
v -0.01825134 -0.02577566 -0.01778203
v -0.02743357 -0.01489242 -0.0244529
v -0.04796728 -0.01288824 0.001090261
v -0.03822269 -0.02223223 0.001089621
v -0.03822269 -0.02223223 0.001089621
v -0.04796728 -0.01288824 0.001090261
v -0.0305339 -0.01489239 0.02663271
v -0.02135144 -0.02577571 0.01996152
v -0.02135144 -0.02577571 0.01996152
v -0.0305339 -0.01489239 0.02663271
v -0.008805401 -0.01489243 0.04351097
v -0.00529821 -0.02577574 0.03271651
v -0.00529821 -0.02577574 0.03271651
v -0.008805401 -0.01489243 0.04351097
v 0.02460087 -0.01489238 0.05115087
v 0.02109343 -0.02577567 0.04035662
v 0.02109343 -0.02577567 0.04035662
v 0.02460087 -0.01489238 0.05115087
v 0.03978049 -0.01489246 0.02663309
v 0.03059821 -0.02577564 0.01996188
v 0.03059821 -0.02577564 0.01996188
v 0.03978049 -0.01489246 0.02663309
v 0.04193367 -0.01288821 0.001089662
v 0.03218904 -0.02223223 0.001089939
v 0.03218904 -0.02223223 0.001089939
v 0.04193367 -0.01288821 0.001089662
v 0.04796636 -0.01489244 -0.02772771
v 0.03878408 -0.02577571 -0.02105604
v 0.04796636 -0.01489244 -0.02772771
v 0.04796631 -0.0001483589 -0.02772764
v 0.01805208 -0.0001483772 -0.05115442
v 0.01805214 -0.01489246 -0.05115449
v 0.01805214 -0.01489246 -0.05115449
v 0.01805208 -0.0001483772 -0.05115442
v -0.01317132 -0.0001483999 -0.0489714
v -0.01317127 -0.01489239 -0.04897147
v -0.01317127 -0.01489239 -0.04897147
v -0.01317132 -0.0001483999 -0.0489714
v -0.02743384 -0.0001483361 -0.02445366
v -0.02743357 -0.01489242 -0.0244529
v -0.02743357 -0.01489242 -0.0244529
v -0.02743384 -0.0001483361 -0.02445366
v -0.04796738 -0.0002294696 0.001090299
v -0.04796728 -0.01288824 0.001090261
v -0.04796728 -0.01288824 0.001090261
v -0.04796738 -0.0002294696 0.001090299
v -0.03053395 -0.0001483999 0.02663277
v -0.0305339 -0.01489239 0.02663271
v -0.0305339 -0.01489239 0.02663271
v -0.03053395 -0.0001483999 0.02663277
v -0.008805461 -0.0001483495 0.04351104
v -0.008805401 -0.01489243 0.04351097
v -0.008805401 -0.01489243 0.04351097
v -0.008805461 -0.0001483495 0.04351104
v 0.02460082 -0.0001483876 0.05115094
v 0.02460087 -0.01489238 0.05115087
v 0.02460087 -0.01489238 0.05115087
v 0.02460082 -0.0001483876 0.05115094
v 0.03978043 -0.000148381 0.02663316
v 0.03978049 -0.01489246 0.02663309
v 0.03978049 -0.01489246 0.02663309
v 0.03978043 -0.000148381 0.02663316
v 0.0419338 -0.0002294145 0.001089657
v 0.04193367 -0.01288821 0.001089662
v 0.04193367 -0.01288821 0.001089662
v 0.0419338 -0.0002294145 0.001089657
v 0.04796631 -0.0001483589 -0.02772764
v 0.04796636 -0.01489244 -0.02772771
v 0.04796631 -0.0001483589 -0.02772764
v 0.04568849 0.01428329 -0.02539812
v 0.01714441 0.01428333 -0.04799308
v 0.01805208 -0.0001483772 -0.05115442
v 0.01805208 -0.0001483772 -0.05115442
v 0.01714441 0.01428333 -0.04799308
v -0.01182957 0.01428336 -0.04559891
v -0.01317132 -0.0001483999 -0.0489714
v -0.01317132 -0.0001483999 -0.0489714
v -0.01182957 0.01428336 -0.04559891
v -0.0232108 0.0142833 -0.02180767
v -0.02743384 -0.0001483361 -0.02445366
v -0.02743384 -0.0001483361 -0.02445366
v -0.0232108 0.0142833 -0.02180767
v -0.04530464 0.01197204 0.001195554
v -0.04796738 -0.0002294696 0.001090299
v -0.04796738 -0.0002294696 0.001090299
v -0.04530464 0.01197204 0.001195554
v -0.02661017 0.01428328 0.02419863
v -0.03053395 -0.0001483999 0.02663277
v -0.03053395 -0.0001483999 0.02663277
v -0.02661017 0.01428328 0.02419863
v -0.007042377 0.0142833 0.0396121
v -0.008805461 -0.0001483495 0.04351104
v -0.008805461 -0.0001483495 0.04351104
v -0.007042377 0.0142833 0.0396121
v 0.02432546 0.01428336 0.04798958
v 0.02460082 -0.0001483876 0.05115094
v 0.02460082 -0.0001483876 0.05115094
v 0.02432546 0.01428336 0.04798958
v 0.03671229 0.01428332 0.02419823
v 0.03978043 -0.000148381 0.02663316
v 0.03978043 -0.000148381 0.02663316
v 0.03671229 0.01428332 0.02419823
v 0.03865147 0.01197208 0.001195445
v 0.0419338 -0.0002294145 0.001089657
v 0.0419338 -0.0002294145 0.001089657
v 0.03865147 0.01197208 0.001195445
v 0.04568849 0.01428329 -0.02539812
v 0.04796631 -0.0001483589 -0.02772764
v 0.04568849 0.01428329 -0.02539812
v 0.03225201 0.02437435 -0.01614923
v 0.01203597 0.02437441 -0.03257017
v 0.01714441 0.01428333 -0.04799308
v 0.01714441 0.01428333 -0.04799308
v 0.01203597 0.02437441 -0.03257017
v -0.002592719 0.02437433 -0.02139526
v -0.01182957 0.01428336 -0.04559891
v -0.01182957 0.01428336 -0.04559891
v -0.002592719 0.02437433 -0.02139526
v -0.01125362 0.02437439 -0.01279654
v -0.0232108 0.0142833 -0.02180767
v -0.0232108 0.0142833 -0.02180767
v -0.01125362 0.02437439 -0.01279654
v -0.03124519 0.02074641 0.001115888
v -0.04530464 0.01197204 0.001195554
v -0.04530464 0.01197204 0.001195554
v -0.03124519 0.02074641 0.001115888
v -0.01442777 0.02437431 0.01502846
v -0.02661017 0.01428328 0.02419863
v -0.02661017 0.01428328 0.02419863
v -0.01442777 0.02437431 0.01502846
v -0.00259273 0.02437437 0.02474434
v -0.007042377 0.0142833 0.0396121
v -0.007042377 0.0142833 0.0396121
v -0.00259273 0.02437437 0.02474434
v 0.01874068 0.02437432 0.03256676
v 0.02432546 0.01428336 0.04798958
v 0.02432546 0.01428336 0.04798958
v 0.01874068 0.02437432 0.03256676
v 0.02387086 0.02437437 0.01502855
v 0.03671229 0.01428332 0.02419823
v 0.03671229 0.01428332 0.02419823
v 0.02387086 0.02437437 0.01502855
v 0.02504358 0.02074643 0.00111598
v 0.03865147 0.01197208 0.001195445
v 0.03865147 0.01197208 0.001195445
v 0.02504358 0.02074643 0.00111598
v 0.03225201 0.02437435 -0.01614923
v 0.04568849 0.01428329 -0.02539812
v 0.03225201 0.02437435 -0.01614923
v 0.004623299 0.03397598 0.001090113
v 0.01203597 0.02437441 -0.03257017
v 0.01203597 0.02437441 -0.03257017
v 0.004623299 0.03397598 0.001090113
v -0.002592719 0.02437433 -0.02139526
v -0.002592719 0.02437433 -0.02139526
v 0.004623299 0.03397598 0.001090113
v -0.01125362 0.02437439 -0.01279654
v -0.01125362 0.02437439 -0.01279654
v 0.004623299 0.03397598 0.001090113
v -0.03124519 0.02074641 0.001115888
v -0.03124519 0.02074641 0.001115888
v 0.004623299 0.03397598 0.001090113
v -0.01442777 0.02437431 0.01502846
v -0.01442777 0.02437431 0.01502846
v 0.004623299 0.03397598 0.001090113
v -0.00259273 0.02437437 0.02474434
v -0.00259273 0.02437437 0.02474434
v 0.004623299 0.03397598 0.001090113
v 0.01874068 0.02437432 0.03256676
v 0.01874068 0.02437432 0.03256676
v 0.004623299 0.03397598 0.001090113
v 0.02387086 0.02437437 0.01502855
v 0.02387086 0.02437437 0.01502855
v 0.004623299 0.03397598 0.001090113
v 0.02504358 0.02074643 0.00111598
v 0.02504358 0.02074643 0.00111598
v 0.004623299 0.03397598 0.001090113
v 0.03225201 0.02437435 -0.01614923

vn -0.04748172 -0.9812095 -0.187012
vn -0.168082 -0.9857613 0.004816575
vn 0.09801854 -0.9951815 -0.002507988
vn -0.2266619 -0.9490417 -0.2189621
vn -0.4448654 -0.8770837 -0.18116
vn -0.4710296 -0.8776516 -0.08865032
vn -0.4577648 -0.8867353 0.06443581
vn -0.3367531 -0.9141736 0.2255746
vn -0.1368552 -0.9637142 0.2291845
vn 0.1868346 -0.9755666 0.1155967
vn 0.3034129 -0.9256197 0.2262049
vn 0.5247327 -0.7065467 -0.474813
vn 0.5247326 -0.7065467 -0.474813
vn 0.5247327 -0.7065467 -0.474813
vn 0.5247326 -0.7065467 -0.474813
vn -0.01442921 -0.6481457 -0.7613797
vn -0.01442922 -0.6481457 -0.7613796
vn -0.01442921 -0.6481457 -0.7613797
vn -0.01442921 -0.6481457 -0.7613797
vn -0.7266136 -0.4843701 -0.4872559
vn -0.7266135 -0.4843701 -0.487256
vn -0.7266136 -0.4843701 -0.4872559
vn -0.7266136 -0.4843701 -0.4872559
vn -0.6263977 -0.5267243 -0.5746192
vn -0.6263978 -0.5267243 -0.5746193
vn -0.6263978 -0.5267243 -0.5746194
vn -0.6263978 -0.5267243 -0.5746192
vn -0.8312119 -0.5056897 0.2310081
vn -0.8312119 -0.5056897 0.2310081
vn -0.8312119 -0.5056896 0.231008
vn -0.8312119 -0.5056897 0.2310081
vn -0.7060275 -0.5400994 0.4580587
vn -0.7060275 -0.5400994 0.4580587
vn -0.7060275 -0.5400994 0.4580587
vn -0.7060275 -0.5400994 0.4580587
vn -0.4602008 -0.5689716 0.6815325
vn -0.4602008 -0.5689716 0.6815324
vn -0.4602007 -0.5689716 0.6815325
vn -0.4602008 -0.5689716 0.6815325
vn 0.5471681 -0.6431842 0.5356502
vn 0.5471681 -0.6431842 0.5356502
vn 0.5471681 -0.6431842 0.5356502
vn 0.5471682 -0.6431842 0.5356502
vn 0.71952 -0.6743646 0.165902
vn 0.7195199 -0.6743646 0.165902
vn 0.71952 -0.6743646 0.165902
vn 0.71952 -0.6743646 0.165902
vn 0.6687686 -0.5985889 0.4409534
vn 0.6687687 -0.5985888 0.4409534
vn 0.6687686 -0.5985889 0.4409534
vn 0.6687686 -0.5985888 0.4409534
vn 0.7938193 -0.08641588 -0.6019828
vn 0.7938193 -0.08641588 -0.6019827
vn 0.7938193 -0.08641588 -0.6019827
vn 0.7938193 -0.08641588 -0.6019828
vn 0.1324126 -0.02205602 -0.9909492
vn 0.1324126 -0.02205602 -0.9909492
vn 0.1324126 -0.02205602 -0.9909492
vn 0.1324126 -0.02205602 -0.9909492
vn -0.7553465 0.07172317 -0.6513889
vn -0.7553465 0.07172317 -0.6513889
vn -0.7553465 0.07172317 -0.6513889
vn -0.7553465 0.07172317 -0.6513889
vn -0.6551712 0.06059755 -0.7530463
vn -0.6551712 0.06059755 -0.7530463
vn -0.6551712 0.06059755 -0.7530463
vn -0.6551712 0.06059755 -0.7530463
vn -0.9383969 0.09888963 0.3311073
vn -0.9383969 0.09888963 0.3311073
vn -0.9383969 0.09888963 0.3311074
vn -0.9383969 0.09888963 0.3311073
vn -0.7913678 0.08619285 0.6052337
vn -0.7913678 0.08619285 0.6052337
vn -0.7913678 0.08619285 0.6052337
vn -0.7913678 0.08619285 0.6052337
vn -0.4378854 0.05252041 0.8974954
vn -0.4378854 0.05252041 0.8974954
vn -0.4378854 0.05252041 0.8974954
vn -0.4378854 0.05252041 0.8974954
vn 0.7382726 -0.06980834 0.6708803
vn 0.7382726 -0.06980834 0.6708803
vn 0.7382726 -0.06980834 0.6708803
vn 0.7382726 -0.06980834 0.6708803
vn 0.950453 -0.09474189 0.2960795
vn 0.950453 -0.09474189 0.2960795
vn 0.950453 -0.09474189 0.2960795
vn 0.950453 -0.09474189 0.2960795
vn 0.9117784 -0.08988544 0.4007254
vn 0.9117784 -0.08988544 0.4007254
vn 0.9117784 -0.08988544 0.4007254
vn 0.9117784 -0.08988544 0.4007254
vn 0.8056151 0.08692352 -0.5860277
vn 0.8056151 0.08692355 -0.5860277
vn 0.8056151 0.08692355 -0.5860277
vn 0.8056151 0.08692355 -0.5860277
vn 0.155432 0.1637509 -0.97418
vn 0.155432 0.1637509 -0.9741799
vn 0.155432 0.1637509 -0.9741799
vn 0.155432 0.1637509 -0.9741799
vn -0.7354978 0.2778555 -0.6179314
vn -0.7354979 0.2778556 -0.6179314
vn -0.7354978 0.2778555 -0.6179314
vn -0.7354978 0.2778555 -0.6179314
vn -0.5877647 0.2608479 -0.765827
vn -0.5877647 0.2608479 -0.765827
vn -0.5877647 0.2608479 -0.765827
vn -0.5877647 0.2608479 -0.7658269
vn -0.8871465 0.293691 0.3559726
vn -0.8871465 0.2936911 0.3559726
vn -0.8871466 0.2936911 0.3559726
vn -0.8871465 0.293691 0.3559726
vn -0.7403453 0.3186181 0.5919216
vn -0.7403454 0.3186182 0.5919216
vn -0.7403454 0.3186182 0.5919216
vn -0.7403454 0.3186182 0.5919216
vn -0.4125018 0.2572241 0.8738868
vn -0.4125017 0.2572241 0.8738868
vn -0.4125018 0.2572241 0.8738868
vn -0.4125018 0.2572241 0.8738868
vn 0.7710487 0.07784515 0.632
vn 0.7710487 0.07784515 0.632
vn 0.7710487 0.07784516 0.6320001
vn 0.7710487 0.07784516 0.632
vn 0.9570094 0.08755966 0.2765255
vn 0.9570094 0.08755963 0.2765255
vn 0.9570094 0.08755963 0.2765255
vn 0.9570094 0.08755962 0.2765255
vn 0.9063439 0.04856932 0.41974
vn 0.9063439 0.04856932 0.4197399
vn 0.9063439 0.04856932 0.41974
vn 0.9063439 0.04856933 0.41974
vn 0.616923 0.6974516 -0.3646469
vn 0.6169229 0.6974515 -0.364647
vn 0.616923 0.6974516 -0.3646469
vn 0.6169229 0.6974515 -0.364647
vn 0.08381287 0.8437609 -0.5301349
vn 0.08381287 0.8437608 -0.5301349
vn 0.08381287 0.8437609 -0.5301349
vn 0.08381291 0.8437609 -0.5301349
vn -0.3033578 0.8612775 -0.4076458
vn -0.3033578 0.8612775 -0.4076458
vn -0.3033578 0.8612775 -0.4076458
vn -0.3033578 0.8612775 -0.4076458
vn -0.3139865 0.7802877 -0.5408915
vn -0.3139865 0.7802877 -0.5408915
vn -0.3139865 0.7802877 -0.5408915
vn -0.3139865 0.7802877 -0.5408915
vn -0.5087377 0.8314064 0.2234933
vn -0.5087377 0.8314065 0.2234933
vn -0.5087377 0.8314064 0.2234934
vn -0.5087377 0.8314064 0.2234933
vn -0.3975134 0.8304871 0.3902231
vn -0.3975136 0.8304871 0.3902232
vn -0.3975135 0.8304871 0.3902232
vn -0.3975136 0.8304871 0.3902232
vn -0.1993262 0.8054357 0.5581598
vn -0.1993262 0.8054357 0.5581599
vn -0.1993262 0.8054357 0.5581599
vn -0.1993262 0.8054357 0.5581599
vn 0.679346 0.6303537 0.3756904
vn 0.679346 0.6303536 0.3756904
vn 0.679346 0.6303536 0.3756904
vn 0.679346 0.6303536 0.3756904
vn 0.7859907 0.6145468 0.06745946
vn 0.7859906 0.614547 0.06745942
vn 0.7859907 0.6145469 0.06745943
vn 0.7859907 0.6145468 0.06745946
vn 0.7013327 0.5589019 0.4424489
vn 0.7013327 0.5589019 0.4424489
vn 0.7013327 0.5589019 0.4424489
vn 0.7013327 0.5589019 0.4424489
vn 0.4379821 0.8742082 -0.2095988
vn 0.4379821 0.8742082 -0.2095988
vn 0.4379821 0.8742082 -0.2095988
vn -0.06750627 0.9014676 -0.4275502
vn -0.06750625 0.9014676 -0.4275502
vn -0.06750622 0.9014676 -0.4275502
vn -0.1371806 0.898011 -0.4180403
vn -0.1371806 0.898011 -0.4180403
vn -0.1371806 0.898011 -0.4180403
vn -0.201929 0.9050111 -0.3744056
vn -0.201929 0.9050111 -0.3744056
vn -0.201929 0.9050111 -0.3744056
vn -0.3092194 0.9462703 0.09463589
vn -0.3092193 0.9462703 0.09463591
vn -0.3092194 0.9462703 0.09463589
vn -0.2228215 0.9371558 0.2684948
vn -0.2228215 0.9371558 0.2684948
vn -0.2228215 0.9371558 0.2684948
vn -0.08090575 0.9333647 0.3496921
vn -0.08090577 0.9333647 0.349692
vn -0.08090574 0.9333647 0.3496921
vn 0.5612883 0.7988768 0.2162203
vn 0.5612884 0.7988768 0.2162203
vn 0.5612884 0.7988768 0.2162204
vn 0.7558122 0.6534828 -0.04133128
vn 0.755812 0.6534829 -0.04133127
vn 0.755812 0.6534829 -0.04133127
vn 0.5919532 0.6285193 0.5045344
vn 0.5919532 0.6285193 0.5045344
vn 0.5919532 0.6285192 0.5045344

vt 0.5483398 0.007648468
vt 0.5 0.1500244
vt 0.6264648 0.06439209
vt 0.4516602 0.007648468
vt 0.3735352 0.06439209
vt 0.34375 0.15625
vt 0.3735352 0.2480469
vt 0.4516602 0.3049316
vt 0.5483398 0.3049316
vt 0.6264648 0.2480469
vt 0.65625 0.15625
vt 0 0
vt 0 1
vt 1 1
vt 1 0
vt 0 0
vt 0 1
vt 1 1
vt 1 0
vt 0 0
vt 0 1
vt 1 1
vt 1 0
vt 0 0
vt 0 1
vt 1 1
vt 1 0
vt 0 0
vt 0 1
vt 1 1
vt 1 0
vt 0 0
vt 0 1
vt 1 1
vt 1 0
vt 0 0
vt 0 1
vt 1 1
vt 1 0
vt 0 0
vt 0 1
vt 1 1
vt 1 0
vt 0 0
vt 0 1
vt 1 1
vt 1 0
vt 0 0
vt 0 1
vt 1 1
vt 1 0
vt 0 0
vt 0 1
vt 1 1
vt 1 0
vt 0 0
vt 0 1
vt 1 1
vt 1 0
vt 0 0
vt 0 1
vt 1 1
vt 1 0
vt 0 0
vt 0 1
vt 1 1
vt 1 0
vt 0 0
vt 0 1
vt 1 1
vt 1 0
vt 0 0
vt 0 1
vt 1 1
vt 1 0
vt 0 0
vt 0 1
vt 1 1
vt 1 0
vt 0 0
vt 0 1
vt 1 1
vt 1 0
vt 0 0
vt 0 1
vt 1 1
vt 1 0
vt 0 0
vt 0 1
vt 1 1
vt 1 0
vt 0 0
vt 0 1
vt 1 1
vt 1 0
vt 0 0
vt 0 1
vt 1 1
vt 1 0
vt 0 0
vt 0 1
vt 1 1
vt 1 0
vt 0 0
vt 0 1
vt 1 1
vt 1 0
vt 0 0
vt 0 1
vt 1 1
vt 1 0
vt 0 0
vt 0 1
vt 1 1
vt 1 0
vt 0 0
vt 0 1
vt 1 1
vt 1 0
vt 0 0
vt 0 1
vt 1 1
vt 1 0
vt 0 0
vt 0 1
vt 1 1
vt 1 0
vt 0 0
vt 0 1
vt 1 1
vt 1 0
vt 0 0
vt 0 1
vt 1 1
vt 1 0
vt 0 0
vt 0 1
vt 1 1
vt 1 0
vt 0 0
vt 0 1
vt 1 1
vt 1 0
vt 0 0
vt 0 1
vt 1 1
vt 1 0
vt 0 0
vt 0 1
vt 1 1
vt 1 0
vt 0 0
vt 0 1
vt 1 1
vt 1 0
vt 0 0
vt 0 1
vt 1 1
vt 1 0
vt 0 0
vt 0 1
vt 1 1
vt 1 0
vt 0 0
vt 0 1
vt 1 1
vt 1 0
vt 0 0
vt 0 1
vt 1 1
vt 1 0
vt 0 0
vt 0.5 1
vt 1 0
vt 0 0
vt 0.5 1
vt 1 0
vt 0 0
vt 0.5 1
vt 1 0
vt 0 0
vt 0.5 1
vt 1 0
vt 0 0
vt 0.5 1
vt 1 0
vt 0 0
vt 0.5 1
vt 1 0
vt 0 0
vt 0.5 1
vt 1 0
vt 0 0
vt 0.5 1
vt 1 0
vt 0 0
vt 0.5 1
vt 1 0
vt 0 0
vt 0.5 1
vt 1 0

g Foliage1_38_3591_114
usemtl Foliage1_38_3591_114
usemap Foliage1_38_3591_114
f 1/1/1 3/3/3 2/2/2
f 4/4/4 1/1/1 2/2/2
f 5/5/5 4/4/4 2/2/2
f 6/6/6 5/5/5 2/2/2
f 7/7/7 6/6/6 2/2/2
f 8/8/8 7/7/7 2/2/2
f 9/9/9 8/8/8 2/2/2
f 10/10/10 9/9/9 2/2/2
f 11/11/11 10/10/10 2/2/2
f 3/3/3 11/11/11 2/2/2
f 12/12/12 14/14/14 13/13/13
f 12/12/12 15/15/15 14/14/14
f 16/16/16 18/18/18 17/17/17
f 16/16/16 19/19/19 18/18/18
f 20/20/20 22/22/22 21/21/21
f 20/20/20 23/23/23 22/22/22
f 24/24/24 26/26/26 25/25/25
f 24/24/24 27/27/27 26/26/26
f 28/28/28 30/30/30 29/29/29
f 28/28/28 31/31/31 30/30/30
f 32/32/32 34/34/34 33/33/33
f 32/32/32 35/35/35 34/34/34
f 36/36/36 38/38/38 37/37/37
f 36/36/36 39/39/39 38/38/38
f 40/40/40 42/42/42 41/41/41
f 40/40/40 43/43/43 42/42/42
f 44/44/44 46/46/46 45/45/45
f 44/44/44 47/47/47 46/46/46
f 48/48/48 50/50/50 49/49/49
f 48/48/48 51/51/51 50/50/50
f 52/52/52 54/54/54 53/53/53
f 52/52/52 55/55/55 54/54/54
f 56/56/56 58/58/58 57/57/57
f 56/56/56 59/59/59 58/58/58
f 60/60/60 62/62/62 61/61/61
f 60/60/60 63/63/63 62/62/62
f 64/64/64 66/66/66 65/65/65
f 64/64/64 67/67/67 66/66/66
f 68/68/68 70/70/70 69/69/69
f 68/68/68 71/71/71 70/70/70
f 72/72/72 74/74/74 73/73/73
f 72/72/72 75/75/75 74/74/74
f 76/76/76 78/78/78 77/77/77
f 76/76/76 79/79/79 78/78/78
f 80/80/80 82/82/82 81/81/81
f 80/80/80 83/83/83 82/82/82
f 84/84/84 86/86/86 85/85/85
f 84/84/84 87/87/87 86/86/86
f 88/88/88 90/90/90 89/89/89
f 88/88/88 91/91/91 90/90/90
f 92/92/92 94/94/94 93/93/93
f 92/92/92 95/95/95 94/94/94
f 96/96/96 98/98/98 97/97/97
f 96/96/96 99/99/99 98/98/98
f 100/100/100 102/102/102 101/101/101
f 100/100/100 103/103/103 102/102/102
f 104/104/104 106/106/106 105/105/105
f 104/104/104 107/107/107 106/106/106
f 108/108/108 110/110/110 109/109/109
f 108/108/108 111/111/111 110/110/110
f 112/112/112 114/114/114 113/113/113
f 112/112/112 115/115/115 114/114/114
f 116/116/116 118/118/118 117/117/117
f 116/116/116 119/119/119 118/118/118
f 120/120/120 122/122/122 121/121/121
f 120/120/120 123/123/123 122/122/122
f 124/124/124 126/126/126 125/125/125
f 124/124/124 127/127/127 126/126/126
f 128/128/128 130/130/130 129/129/129
f 128/128/128 131/131/131 130/130/130
f 132/132/132 134/134/134 133/133/133
f 132/132/132 135/135/135 134/134/134
f 136/136/136 138/138/138 137/137/137
f 136/136/136 139/139/139 138/138/138
f 140/140/140 142/142/142 141/141/141
f 140/140/140 143/143/143 142/142/142
f 144/144/144 146/146/146 145/145/145
f 144/144/144 147/147/147 146/146/146
f 148/148/148 150/150/150 149/149/149
f 148/148/148 151/151/151 150/150/150
f 152/152/152 154/154/154 153/153/153
f 152/152/152 155/155/155 154/154/154
f 156/156/156 158/158/158 157/157/157
f 156/156/156 159/159/159 158/158/158
f 160/160/160 162/162/162 161/161/161
f 160/160/160 163/163/163 162/162/162
f 164/164/164 166/166/166 165/165/165
f 164/164/164 167/167/167 166/166/166
f 168/168/168 170/170/170 169/169/169
f 168/168/168 171/171/171 170/170/170
f 172/172/172 174/174/174 173/173/173
f 175/175/175 177/177/177 176/176/176
f 178/178/178 180/180/180 179/179/179
f 181/181/181 183/183/183 182/182/182
f 184/184/184 186/186/186 185/185/185
f 187/187/187 189/189/189 188/188/188
f 190/190/190 192/192/192 191/191/191
f 193/193/193 195/195/195 194/194/194
f 196/196/196 198/198/198 197/197/197
f 199/199/199 201/201/201 200/200/200
