#Foliage1_22_3305_294.obj

v 0.01454249 -0.02577598 -0.04035479
v 0.004621108 -0.03397644 0.001094736
v 0.03878171 -0.02577603 -0.02105135
v -0.00966664 -0.02577606 -0.03817089
v -0.01825382 -0.02577605 -0.01777639
v -0.03822502 -0.02223258 0.001095092
v -0.02135401 -0.02577604 0.01996749
v -0.005300617 -0.02577596 0.03272201
v 0.02109098 -0.02577594 0.04036226
v 0.0305954 -0.02577601 0.01996757
v 0.03218652 -0.02223258 0.00109519
v 0.03878171 -0.02577603 -0.02105135
v 0.04796404 -0.01489272 -0.02772256
v 0.0180496 -0.0148928 -0.0511487
v 0.01454249 -0.02577598 -0.04035479
v 0.01454249 -0.02577598 -0.04035479
v 0.0180496 -0.0148928 -0.0511487
v -0.01317357 -0.0148927 -0.04896642
v -0.00966664 -0.02577606 -0.03817089
v -0.00966664 -0.02577606 -0.03817089
v -0.01317357 -0.0148927 -0.04896642
v -0.02743622 -0.01489278 -0.02444775
v -0.01825382 -0.02577605 -0.01777639
v -0.01825382 -0.02577605 -0.01777639
v -0.02743622 -0.01489278 -0.02444775
v -0.0479701 -0.01288853 0.001095759
v -0.03822502 -0.02223258 0.001095092
v -0.03822502 -0.02223258 0.001095092
v -0.0479701 -0.01288853 0.001095759
v -0.03053628 -0.01489269 0.02663857
v -0.02135401 -0.02577604 0.01996749
v -0.02135401 -0.02577604 0.01996749
v -0.03053628 -0.01489269 0.02663857
v -0.008807687 -0.01489266 0.04351578
v -0.005300617 -0.02577596 0.03272201
v -0.005300617 -0.02577596 0.03272201
v -0.008807687 -0.01489266 0.04351578
v 0.02459848 -0.01489274 0.05115643
v 0.02109098 -0.02577594 0.04036226
v 0.02109098 -0.02577594 0.04036226
v 0.02459848 -0.01489274 0.05115643
v 0.03977788 -0.01489278 0.02663879
v 0.0305954 -0.02577601 0.01996757
v 0.0305954 -0.02577601 0.01996757
v 0.03977788 -0.01489278 0.02663879
v 0.04193133 -0.01288853 0.001095227
v 0.03218652 -0.02223258 0.00109519
v 0.03218652 -0.02223258 0.00109519
v 0.04193133 -0.01288853 0.001095227
v 0.04796404 -0.01489272 -0.02772256
v 0.03878171 -0.02577603 -0.02105135
v 0.04796404 -0.01489272 -0.02772256
v 0.04796373 -0.0001486188 -0.02772184
v 0.01804981 -0.0001486199 -0.0511492
v 0.0180496 -0.0148928 -0.0511487
v 0.0180496 -0.0148928 -0.0511487
v 0.01804981 -0.0001486199 -0.0511492
v -0.01317387 -0.0001485918 -0.0489657
v -0.01317357 -0.0148927 -0.04896642
v -0.01317357 -0.0148927 -0.04896642
v -0.01317387 -0.0001485918 -0.0489657
v -0.02743603 -0.0001486074 -0.02444825
v -0.02743622 -0.01489278 -0.02444775
v -0.02743622 -0.01489278 -0.02444775
v -0.02743603 -0.0001486074 -0.02444825
v -0.04797013 -0.0002297389 0.001095838
v -0.0479701 -0.01288853 0.001095759
v -0.0479701 -0.01288853 0.001095759
v -0.04797013 -0.0002297389 0.001095838
v -0.03053606 -0.0001486804 0.02663807
v -0.03053628 -0.01489269 0.02663857
v -0.03053628 -0.01489269 0.02663857
v -0.03053606 -0.0001486804 0.02663807
v -0.008807972 -0.0001487207 0.04351649
v -0.008807687 -0.01489266 0.04351578
v -0.008807687 -0.01489266 0.04351578
v -0.008807972 -0.0001487207 0.04351649
v 0.02459817 -0.0001486371 0.05115715
v 0.02459848 -0.01489274 0.05115643
v 0.02459848 -0.01489274 0.05115643
v 0.02459817 -0.0001486371 0.05115715
v 0.03977807 -0.0001486041 0.02663829
v 0.03977788 -0.01489278 0.02663879
v 0.03977788 -0.01489278 0.02663879
v 0.03977807 -0.0001486041 0.02663829
v 0.04193129 -0.0002297372 0.001095302
v 0.04193133 -0.01288853 0.001095227
v 0.04193133 -0.01288853 0.001095227
v 0.04193129 -0.0002297372 0.001095302
v 0.04796373 -0.0001486188 -0.02772184
v 0.04796404 -0.01489272 -0.02772256
v 0.04796373 -0.0001486188 -0.02772184
v 0.04568598 0.01428304 -0.02539311
v 0.01714221 0.01428313 -0.04798765
v 0.01804981 -0.0001486199 -0.0511492
v 0.01804981 -0.0001486199 -0.0511492
v 0.01714221 0.01428313 -0.04798765
v -0.01183232 0.01428296 -0.04559324
v -0.01317387 -0.0001485918 -0.0489657
v -0.01317387 -0.0001485918 -0.0489657
v -0.01183232 0.01428296 -0.04559324
v -0.02321337 0.01428305 -0.0218023
v -0.02743603 -0.0001486074 -0.02444825
v -0.02743603 -0.0001486074 -0.02444825
v -0.02321337 0.01428305 -0.0218023
v -0.04530688 0.01197171 0.001200171
v -0.04797013 -0.0002297389 0.001095838
v -0.04797013 -0.0002297389 0.001095838
v -0.04530688 0.01197171 0.001200171
v -0.02661238 0.01428313 0.02420337
v -0.03053606 -0.0001486804 0.02663807
v -0.03053606 -0.0001486804 0.02663807
v -0.02661238 0.01428313 0.02420337
v -0.007045039 0.01428308 0.03961786
v -0.008807972 -0.0001487207 0.04351649
v -0.008807972 -0.0001487207 0.04351649
v -0.007045039 0.01428308 0.03961786
v 0.02432319 0.01428308 0.04799453
v 0.02459817 -0.0001486371 0.05115715
v 0.02459817 -0.0001486371 0.05115715
v 0.02432319 0.01428308 0.04799453
v 0.03670983 0.01428299 0.02420387
v 0.03977807 -0.0001486041 0.02663829
v 0.03977807 -0.0001486041 0.02663829
v 0.03670983 0.01428299 0.02420387
v 0.03864883 0.01197167 0.001201112
v 0.04193129 -0.0002297372 0.001095302
v 0.04193129 -0.0002297372 0.001095302
v 0.03864883 0.01197167 0.001201112
v 0.04568598 0.01428304 -0.02539311
v 0.04796373 -0.0001486188 -0.02772184
v 0.04568598 0.01428304 -0.02539311
v 0.03224936 0.02437405 -0.01614357
v 0.01203322 0.02437403 -0.03256419
v 0.01714221 0.01428313 -0.04798765
v 0.01714221 0.01428313 -0.04798765
v 0.01203322 0.02437403 -0.03256419
v -0.002595034 0.02437407 -0.02139043
v -0.01183232 0.01428296 -0.04559324
v -0.01183232 0.01428296 -0.04559324
v -0.002595034 0.02437407 -0.02139043
v -0.01125586 0.02437412 -0.01279197
v -0.02321337 0.01428305 -0.0218023
v -0.02321337 0.01428305 -0.0218023
v -0.01125586 0.02437412 -0.01279197
v -0.03124762 0.02074616 0.001121104
v -0.04530688 0.01197171 0.001200171
v -0.04530688 0.01197171 0.001200171
v -0.03124762 0.02074616 0.001121104
v -0.01443001 0.02437404 0.01503382
v -0.02661238 0.01428313 0.02420337
v -0.02661238 0.01428313 0.02420337
v -0.01443001 0.02437404 0.01503382
v -0.002595076 0.02437404 0.02474973
v -0.007045039 0.01428308 0.03961786
v -0.007045039 0.01428308 0.03961786
v -0.002595076 0.02437404 0.02474973
v 0.01873849 0.02437408 0.03257212
v 0.02432319 0.01428308 0.04799453
v 0.02432319 0.01428308 0.04799453
v 0.01873849 0.02437408 0.03257212
v 0.02386852 0.02437414 0.01503365
v 0.03670983 0.01428299 0.02420387
v 0.03670983 0.01428299 0.02420387
v 0.02386852 0.02437414 0.01503365
v 0.02504144 0.0207461 0.00112073
v 0.03864883 0.01197167 0.001201112
v 0.03864883 0.01197167 0.001201112
v 0.02504144 0.0207461 0.00112073
v 0.03224936 0.02437405 -0.01614357
v 0.04568598 0.01428304 -0.02539311
v 0.03224936 0.02437405 -0.01614357
v 0.004620639 0.03397565 0.00109583
v 0.01203322 0.02437403 -0.03256419
v 0.01203322 0.02437403 -0.03256419
v 0.004620639 0.03397565 0.00109583
v -0.002595034 0.02437407 -0.02139043
v -0.002595034 0.02437407 -0.02139043
v 0.004620639 0.03397565 0.00109583
v -0.01125586 0.02437412 -0.01279197
v -0.01125586 0.02437412 -0.01279197
v 0.004620639 0.03397565 0.00109583
v -0.03124762 0.02074616 0.001121104
v -0.03124762 0.02074616 0.001121104
v 0.004620639 0.03397565 0.00109583
v -0.01443001 0.02437404 0.01503382
v -0.01443001 0.02437404 0.01503382
v 0.004620639 0.03397565 0.00109583
v -0.002595076 0.02437404 0.02474973
v -0.002595076 0.02437404 0.02474973
v 0.004620639 0.03397565 0.00109583
v 0.01873849 0.02437408 0.03257212
v 0.01873849 0.02437408 0.03257212
v 0.004620639 0.03397565 0.00109583
v 0.02386852 0.02437414 0.01503365
v 0.02386852 0.02437414 0.01503365
v 0.004620639 0.03397565 0.00109583
v 0.02504144 0.0207461 0.00112073
v 0.02504144 0.0207461 0.00112073
v 0.004620639 0.03397565 0.00109583
v 0.03224936 0.02437405 -0.01614357

vn 0.1369826 -0.9900537 -0.03207518
vn -0.05225931 -0.9984722 -0.01793
vn 0.0746499 -0.9867528 0.1440336
vn 0.07741591 -0.9835848 -0.1629936
vn -0.05439497 -0.9530779 -0.2977969
vn -0.13451 -0.9534159 -0.2700082
vn -0.2383838 -0.9532701 -0.1856033
vn -0.2926643 -0.9558222 -0.02739897
vn -0.1964799 -0.9750094 0.10369
vn 0.03259379 -0.9667596 0.2535999
vn 0.007237457 -0.9246868 0.3806589
vn 0.6445583 -0.7427384 0.1813391
vn 0.6445583 -0.7427384 0.1813391
vn 0.6445583 -0.7427384 0.1813391
vn 0.6445583 -0.7427384 0.1813391
vn 0.5967391 -0.7293214 -0.3346524
vn 0.5967391 -0.7293215 -0.3346524
vn 0.5967391 -0.7293214 -0.3346524
vn 0.5967391 -0.7293214 -0.3346525
vn 0.02616516 -0.6497159 -0.7597265
vn 0.02616516 -0.6497158 -0.7597265
vn 0.02616516 -0.6497159 -0.7597265
vn 0.02616513 -0.6497158 -0.7597265
vn 0.1527657 -0.6816317 -0.71557
vn 0.1527657 -0.6816317 -0.7155701
vn 0.1527657 -0.6816317 -0.7155701
vn 0.1527656 -0.6816317 -0.71557
vn -0.6208044 -0.6551793 -0.4305131
vn -0.6208044 -0.6551793 -0.4305131
vn -0.6208044 -0.6551793 -0.4305131
vn -0.6208045 -0.6551793 -0.4305131
vn -0.7195747 -0.6629256 -0.2067399
vn -0.7195748 -0.6629256 -0.20674
vn -0.7195747 -0.6629256 -0.20674
vn -0.7195747 -0.6629256 -0.20674
vn -0.7497839 -0.65596 0.08683458
vn -0.7497839 -0.6559601 0.08683454
vn -0.7497839 -0.6559601 0.08683459
vn -0.7497839 -0.65596 0.08683458
vn -0.1197051 -0.6767808 0.726387
vn -0.1197051 -0.6767808 0.726387
vn -0.1197051 -0.6767808 0.726387
vn -0.1197051 -0.6767808 0.7263871
vn 0.2630304 -0.7068488 0.6566426
vn 0.2630304 -0.7068489 0.6566426
vn 0.2630304 -0.7068488 0.6566426
vn 0.2630304 -0.7068488 0.6566426
vn 0.0171807 -0.6325688 0.7743134
vn 0.01718079 -0.6325687 0.7743134
vn 0.0171807 -0.6325688 0.7743134
vn 0.01718073 -0.6325687 0.7743134
vn 0.9609146 -0.05620479 0.2710798
vn 0.9609146 -0.05620479 0.2710798
vn 0.9609146 -0.05620479 0.2710798
vn 0.9609146 -0.05620479 0.2710798
vn 0.8954319 -0.03879941 -0.4435043
vn 0.8954319 -0.03879941 -0.4435043
vn 0.8954319 -0.03879941 -0.4435043
vn 0.8954319 -0.03879941 -0.4435043
vn 0.1374629 0.01203091 -0.9904338
vn 0.1374629 0.01203091 -0.9904338
vn 0.1374629 0.01203091 -0.9904338
vn 0.1374629 0.01203091 -0.9904338
vn 0.2839593 0.003651803 -0.9588293
vn 0.2839593 0.003651805 -0.9588293
vn 0.2839593 0.003651803 -0.9588293
vn 0.2839593 0.003651803 -0.9588293
vn -0.8335727 0.05489007 -0.5496759
vn -0.8335727 0.05489007 -0.5496759
vn -0.8335728 0.05489007 -0.5496759
vn -0.8335727 0.05489007 -0.5496759
vn -0.9619812 0.05618709 -0.2672736
vn -0.9619812 0.05618709 -0.2672736
vn -0.9619812 0.05618709 -0.2672736
vn -0.9619812 0.05618709 -0.2672736
vn -0.9852118 0.04900397 0.1641835
vn -0.9852118 0.04900397 0.1641835
vn -0.9852118 0.04900397 0.1641835
vn -0.9852118 0.04900397 0.1641835
vn -0.164604 -0.01051217 0.9863037
vn -0.164604 -0.01051217 0.9863037
vn -0.164604 -0.01051217 0.9863037
vn -0.164604 -0.01051217 0.9863037
vn 0.2995549 -0.03446711 0.9534563
vn 0.2995549 -0.0344671 0.9534563
vn 0.2995549 -0.03446711 0.9534563
vn 0.2995549 -0.0344671 0.9534563
vn 0.1811455 -0.0287695 0.9830354
vn 0.1811456 -0.0287695 0.9830353
vn 0.1811455 -0.0287695 0.9830354
vn 0.1811455 -0.0287695 0.9830354
vn 0.9494903 0.15749 0.2714135
vn 0.9494902 0.15749 0.2714134
vn 0.9494902 0.15749 0.2714134
vn 0.9494902 0.15749 0.2714134
vn 0.8823113 0.1832867 -0.4335119
vn 0.8823113 0.1832867 -0.4335119
vn 0.8823113 0.1832867 -0.4335119
vn 0.8823113 0.1832867 -0.4335119
vn 0.1092532 0.2721637 -0.9560285
vn 0.1092532 0.2721637 -0.9560285
vn 0.1092533 0.2721637 -0.9560285
vn 0.1092532 0.2721636 -0.9560285
vn 0.3191236 0.2559254 -0.9125032
vn 0.3191237 0.2559254 -0.9125032
vn 0.3191236 0.2559254 -0.9125032
vn 0.3191236 0.2559254 -0.9125032
vn -0.8116392 0.2969884 -0.5030305
vn -0.8116392 0.2969884 -0.5030305
vn -0.8116392 0.2969884 -0.5030305
vn -0.8116392 0.2969884 -0.5030305
vn -0.9070986 0.3357277 -0.2538877
vn -0.9070986 0.3357277 -0.2538877
vn -0.9070986 0.3357277 -0.2538877
vn -0.9070986 0.3357277 -0.2538877
vn -0.9456418 0.2900113 0.147156
vn -0.9456418 0.2900113 0.147156
vn -0.9456418 0.2900113 0.147156
vn -0.9456418 0.2900113 0.147156
vn -0.1165852 0.1804459 0.976651
vn -0.1165852 0.1804459 0.976651
vn -0.1165852 0.1804459 0.9766509
vn -0.1165852 0.1804459 0.976651
vn 0.3146291 0.20278 0.9273018
vn 0.3146291 0.20278 0.9273019
vn 0.3146291 0.20278 0.9273019
vn 0.3146291 0.20278 0.9273019
vn 0.1558071 0.1512536 0.9761385
vn 0.1558071 0.1512536 0.9761385
vn 0.1558071 0.1512536 0.9761385
vn 0.1558071 0.1512536 0.9761385
vn 0.5687419 0.8047128 0.1702038
vn 0.568742 0.8047128 0.1702038
vn 0.5687419 0.8047128 0.1702038
vn 0.568742 0.8047128 0.1702038
vn 0.4003826 0.8740009 -0.2753461
vn 0.4003826 0.8740008 -0.2753461
vn 0.4003826 0.8740009 -0.2753461
vn 0.4003826 0.8740009 -0.2753461
vn 0.127223 0.8731539 -0.4705485
vn 0.1272231 0.8731539 -0.4705485
vn 0.127223 0.8731539 -0.4705485
vn 0.1272231 0.8731539 -0.4705485
vn 0.2276203 0.8048116 -0.5481485
vn 0.2276203 0.8048117 -0.5481485
vn 0.2276203 0.8048117 -0.5481485
vn 0.2276203 0.8048117 -0.5481485
vn -0.4359202 0.8487672 -0.2992782
vn -0.4359201 0.8487672 -0.2992781
vn -0.4359202 0.8487672 -0.2992782
vn -0.4359202 0.8487672 -0.2992782
vn -0.5017062 0.8529652 -0.1440167
vn -0.5017062 0.8529651 -0.1440167
vn -0.5017063 0.8529651 -0.1440167
vn -0.5017062 0.8529651 -0.1440167
vn -0.5299034 0.8452783 0.06860285
vn -0.5299034 0.8452783 0.06860286
vn -0.5299034 0.8452783 0.06860286
vn -0.5299034 0.8452783 0.06860286
vn 0.03480664 0.7835603 0.6203395
vn 0.03480665 0.7835603 0.6203396
vn 0.03480662 0.7835603 0.6203396
vn 0.03480665 0.7835603 0.6203396
vn 0.3403941 0.7712585 0.5378584
vn 0.3403941 0.7712585 0.5378583
vn 0.3403941 0.7712585 0.5378584
vn 0.3403941 0.7712585 0.5378584
vn -0.00494042 0.7204427 0.6934966
vn -0.004940391 0.7204428 0.6934965
vn -0.00494042 0.7204427 0.6934966
vn -0.00494042 0.7204427 0.6934966
vn 0.3350016 0.9364206 0.1043537
vn 0.3350016 0.9364206 0.1043536
vn 0.3350016 0.9364206 0.1043537
vn 0.2484993 0.9127657 -0.324201
vn 0.2484994 0.9127657 -0.324201
vn 0.2484994 0.9127657 -0.324201
vn 0.2096633 0.9072039 -0.3647217
vn 0.2096633 0.9072039 -0.3647217
vn 0.2096633 0.9072039 -0.3647217
vn 0.1475881 0.9106873 -0.3858314
vn 0.1475881 0.9106873 -0.3858314
vn 0.1475881 0.9106873 -0.3858314
vn -0.2380775 0.9430642 -0.2322683
vn -0.2380774 0.9430642 -0.2322682
vn -0.2380775 0.9430642 -0.2322683
vn -0.3207904 0.9423159 -0.09556948
vn -0.3207904 0.9423159 -0.09556948
vn -0.3207904 0.9423159 -0.09556948
vn -0.3123383 0.94943 0.03204001
vn -0.3123383 0.94943 0.03203999
vn -0.3123383 0.94943 0.03204
vn 0.08956503 0.9077603 0.4098155
vn 0.08956505 0.9077603 0.4098155
vn 0.08956505 0.9077602 0.4098156
vn 0.404106 0.7980689 0.4469719
vn 0.404106 0.7980689 0.4469718
vn 0.404106 0.798069 0.4469718
vn -0.1136646 0.7736821 0.6232944
vn -0.1136647 0.7736821 0.6232944
vn -0.1136647 0.7736821 0.6232945

vt 0.5483398 0.007648468
vt 0.5 0.1500244
vt 0.6264648 0.06439209
vt 0.4516602 0.007648468
vt 0.3735352 0.06439209
vt 0.34375 0.15625
vt 0.3735352 0.2480469
vt 0.4516602 0.3049316
vt 0.5483398 0.3049316
vt 0.6264648 0.2480469
vt 0.65625 0.15625
vt 0 0
vt 0 1
vt 1 1
vt 1 0
vt 0 0
vt 0 1
vt 1 1
vt 1 0
vt 0 0
vt 0 1
vt 1 1
vt 1 0
vt 0 0
vt 0 1
vt 1 1
vt 1 0
vt 0 0
vt 0 1
vt 1 1
vt 1 0
vt 0 0
vt 0 1
vt 1 1
vt 1 0
vt 0 0
vt 0 1
vt 1 1
vt 1 0
vt 0 0
vt 0 1
vt 1 1
vt 1 0
vt 0 0
vt 0 1
vt 1 1
vt 1 0
vt 0 0
vt 0 1
vt 1 1
vt 1 0
vt 0 0
vt 0 1
vt 1 1
vt 1 0
vt 0 0
vt 0 1
vt 1 1
vt 1 0
vt 0 0
vt 0 1
vt 1 1
vt 1 0
vt 0 0
vt 0 1
vt 1 1
vt 1 0
vt 0 0
vt 0 1
vt 1 1
vt 1 0
vt 0 0
vt 0 1
vt 1 1
vt 1 0
vt 0 0
vt 0 1
vt 1 1
vt 1 0
vt 0 0
vt 0 1
vt 1 1
vt 1 0
vt 0 0
vt 0 1
vt 1 1
vt 1 0
vt 0 0
vt 0 1
vt 1 1
vt 1 0
vt 0 0
vt 0 1
vt 1 1
vt 1 0
vt 0 0
vt 0 1
vt 1 1
vt 1 0
vt 0 0
vt 0 1
vt 1 1
vt 1 0
vt 0 0
vt 0 1
vt 1 1
vt 1 0
vt 0 0
vt 0 1
vt 1 1
vt 1 0
vt 0 0
vt 0 1
vt 1 1
vt 1 0
vt 0 0
vt 0 1
vt 1 1
vt 1 0
vt 0 0
vt 0 1
vt 1 1
vt 1 0
vt 0 0
vt 0 1
vt 1 1
vt 1 0
vt 0 0
vt 0 1
vt 1 1
vt 1 0
vt 0 0
vt 0 1
vt 1 1
vt 1 0
vt 0 0
vt 0 1
vt 1 1
vt 1 0
vt 0 0
vt 0 1
vt 1 1
vt 1 0
vt 0 0
vt 0 1
vt 1 1
vt 1 0
vt 0 0
vt 0 1
vt 1 1
vt 1 0
vt 0 0
vt 0 1
vt 1 1
vt 1 0
vt 0 0
vt 0 1
vt 1 1
vt 1 0
vt 0 0
vt 0 1
vt 1 1
vt 1 0
vt 0 0
vt 0 1
vt 1 1
vt 1 0
vt 0 0
vt 0 1
vt 1 1
vt 1 0
vt 0 0
vt 0.5 1
vt 1 0
vt 0 0
vt 0.5 1
vt 1 0
vt 0 0
vt 0.5 1
vt 1 0
vt 0 0
vt 0.5 1
vt 1 0
vt 0 0
vt 0.5 1
vt 1 0
vt 0 0
vt 0.5 1
vt 1 0
vt 0 0
vt 0.5 1
vt 1 0
vt 0 0
vt 0.5 1
vt 1 0
vt 0 0
vt 0.5 1
vt 1 0
vt 0 0
vt 0.5 1
vt 1 0

g Foliage1_22_3305_294
usemtl Foliage1_22_3305_294
usemap Foliage1_22_3305_294
f 1/1/1 3/3/3 2/2/2
f 4/4/4 1/1/1 2/2/2
f 5/5/5 4/4/4 2/2/2
f 6/6/6 5/5/5 2/2/2
f 7/7/7 6/6/6 2/2/2
f 8/8/8 7/7/7 2/2/2
f 9/9/9 8/8/8 2/2/2
f 10/10/10 9/9/9 2/2/2
f 11/11/11 10/10/10 2/2/2
f 3/3/3 11/11/11 2/2/2
f 12/12/12 14/14/14 13/13/13
f 12/12/12 15/15/15 14/14/14
f 16/16/16 18/18/18 17/17/17
f 16/16/16 19/19/19 18/18/18
f 20/20/20 22/22/22 21/21/21
f 20/20/20 23/23/23 22/22/22
f 24/24/24 26/26/26 25/25/25
f 24/24/24 27/27/27 26/26/26
f 28/28/28 30/30/30 29/29/29
f 28/28/28 31/31/31 30/30/30
f 32/32/32 34/34/34 33/33/33
f 32/32/32 35/35/35 34/34/34
f 36/36/36 38/38/38 37/37/37
f 36/36/36 39/39/39 38/38/38
f 40/40/40 42/42/42 41/41/41
f 40/40/40 43/43/43 42/42/42
f 44/44/44 46/46/46 45/45/45
f 44/44/44 47/47/47 46/46/46
f 48/48/48 50/50/50 49/49/49
f 48/48/48 51/51/51 50/50/50
f 52/52/52 54/54/54 53/53/53
f 52/52/52 55/55/55 54/54/54
f 56/56/56 58/58/58 57/57/57
f 56/56/56 59/59/59 58/58/58
f 60/60/60 62/62/62 61/61/61
f 60/60/60 63/63/63 62/62/62
f 64/64/64 66/66/66 65/65/65
f 64/64/64 67/67/67 66/66/66
f 68/68/68 70/70/70 69/69/69
f 68/68/68 71/71/71 70/70/70
f 72/72/72 74/74/74 73/73/73
f 72/72/72 75/75/75 74/74/74
f 76/76/76 78/78/78 77/77/77
f 76/76/76 79/79/79 78/78/78
f 80/80/80 82/82/82 81/81/81
f 80/80/80 83/83/83 82/82/82
f 84/84/84 86/86/86 85/85/85
f 84/84/84 87/87/87 86/86/86
f 88/88/88 90/90/90 89/89/89
f 88/88/88 91/91/91 90/90/90
f 92/92/92 94/94/94 93/93/93
f 92/92/92 95/95/95 94/94/94
f 96/96/96 98/98/98 97/97/97
f 96/96/96 99/99/99 98/98/98
f 100/100/100 102/102/102 101/101/101
f 100/100/100 103/103/103 102/102/102
f 104/104/104 106/106/106 105/105/105
f 104/104/104 107/107/107 106/106/106
f 108/108/108 110/110/110 109/109/109
f 108/108/108 111/111/111 110/110/110
f 112/112/112 114/114/114 113/113/113
f 112/112/112 115/115/115 114/114/114
f 116/116/116 118/118/118 117/117/117
f 116/116/116 119/119/119 118/118/118
f 120/120/120 122/122/122 121/121/121
f 120/120/120 123/123/123 122/122/122
f 124/124/124 126/126/126 125/125/125
f 124/124/124 127/127/127 126/126/126
f 128/128/128 130/130/130 129/129/129
f 128/128/128 131/131/131 130/130/130
f 132/132/132 134/134/134 133/133/133
f 132/132/132 135/135/135 134/134/134
f 136/136/136 138/138/138 137/137/137
f 136/136/136 139/139/139 138/138/138
f 140/140/140 142/142/142 141/141/141
f 140/140/140 143/143/143 142/142/142
f 144/144/144 146/146/146 145/145/145
f 144/144/144 147/147/147 146/146/146
f 148/148/148 150/150/150 149/149/149
f 148/148/148 151/151/151 150/150/150
f 152/152/152 154/154/154 153/153/153
f 152/152/152 155/155/155 154/154/154
f 156/156/156 158/158/158 157/157/157
f 156/156/156 159/159/159 158/158/158
f 160/160/160 162/162/162 161/161/161
f 160/160/160 163/163/163 162/162/162
f 164/164/164 166/166/166 165/165/165
f 164/164/164 167/167/167 166/166/166
f 168/168/168 170/170/170 169/169/169
f 168/168/168 171/171/171 170/170/170
f 172/172/172 174/174/174 173/173/173
f 175/175/175 177/177/177 176/176/176
f 178/178/178 180/180/180 179/179/179
f 181/181/181 183/183/183 182/182/182
f 184/184/184 186/186/186 185/185/185
f 187/187/187 189/189/189 188/188/188
f 190/190/190 192/192/192 191/191/191
f 193/193/193 195/195/195 194/194/194
f 196/196/196 198/198/198 197/197/197
f 199/199/199 201/201/201 200/200/200
