#Foliage_45_3861_125.obj

v 0.0145443 -0.02577564 -0.04035848
v 0.004622913 -0.03397605 0.001091179
v 0.03878359 -0.02577562 -0.02105501
v -0.009664353 -0.02577563 -0.03817562
v -0.01825173 -0.02577563 -0.01778061
v -0.03822325 -0.02223218 0.00109111
v -0.02135177 -0.02577562 0.01996298
v -0.005298552 -0.02577564 0.03271775
v 0.02109304 -0.02577566 0.04035802
v 0.03059767 -0.02577561 0.01996301
v 0.03218845 -0.02223219 0.001091175
v 0.03878359 -0.02577562 -0.02105501
v 0.04796584 -0.01489235 -0.0277264
v 0.01805159 -0.01489236 -0.05115306
v 0.0145443 -0.02577564 -0.04035848
v 0.0145443 -0.02577564 -0.04035848
v 0.01805159 -0.01489236 -0.05115306
v -0.01317186 -0.01489237 -0.04897019
v -0.009664353 -0.02577563 -0.03817562
v -0.009664353 -0.02577563 -0.03817562
v -0.01317186 -0.01489237 -0.04897019
v -0.02743405 -0.01489238 -0.02445195
v -0.01825173 -0.02577563 -0.01778061
v -0.01825173 -0.02577563 -0.01778061
v -0.02743405 -0.01489238 -0.02445195
v -0.04796781 -0.01288817 0.001091196
v -0.03822325 -0.02223218 0.00109111
v -0.03822325 -0.02223218 0.00109111
v -0.04796781 -0.01288817 0.001091196
v -0.03053425 -0.01489234 0.02663434
v -0.02135177 -0.02577562 0.01996298
v -0.02135177 -0.02577562 0.01996298
v -0.03053425 -0.01489234 0.02663434
v -0.008805889 -0.01489237 0.04351236
v -0.005298552 -0.02577564 0.03271775
v -0.005298552 -0.02577564 0.03271775
v -0.008805889 -0.01489237 0.04351236
v 0.02460036 -0.01489236 0.05115245
v 0.02109304 -0.02577566 0.04035802
v 0.02109304 -0.02577566 0.04035802
v 0.02460036 -0.01489236 0.05115245
v 0.03977995 -0.01489236 0.02663437
v 0.03059767 -0.02577561 0.01996301
v 0.03059767 -0.02577561 0.01996301
v 0.03977995 -0.01489236 0.02663437
v 0.04193326 -0.01288817 0.001091156
v 0.03218845 -0.02223219 0.001091175
v 0.03218845 -0.02223219 0.001091175
v 0.04193326 -0.01288817 0.001091156
v 0.04796584 -0.01489235 -0.0277264
v 0.03878359 -0.02577562 -0.02105501
v 0.04796584 -0.01489235 -0.0277264
v 0.04796581 -0.0001483085 -0.02772635
v 0.01805175 -0.0001483222 -0.05115294
v 0.01805159 -0.01489236 -0.05115306
v 0.01805159 -0.01489236 -0.05115306
v 0.01805175 -0.0001483222 -0.05115294
v -0.01317189 -0.0001482845 -0.04897013
v -0.01317186 -0.01489237 -0.04897019
v -0.01317186 -0.01489237 -0.04897019
v -0.01317189 -0.0001482845 -0.04897013
v -0.02743404 -0.000148283 -0.02445199
v -0.02743405 -0.01489238 -0.02445195
v -0.02743405 -0.01489238 -0.02445195
v -0.02743404 -0.000148283 -0.02445199
v -0.04796782 -0.0002293986 0.001091181
v -0.04796781 -0.01288817 0.001091196
v -0.04796781 -0.01288817 0.001091196
v -0.04796782 -0.0002293986 0.001091181
v -0.03053428 -0.0001482991 0.02663439
v -0.03053425 -0.01489234 0.02663434
v -0.03053425 -0.01489234 0.02663434
v -0.03053428 -0.0001482991 0.02663439
v -0.008805878 -0.0001483155 0.04351231
v -0.008805889 -0.01489237 0.04351236
v -0.008805889 -0.01489237 0.04351236
v -0.008805878 -0.0001483155 0.04351231
v 0.02460037 -0.0001483032 0.0511524
v 0.02460036 -0.01489236 0.05115245
v 0.02460036 -0.01489236 0.05115245
v 0.02460037 -0.0001483032 0.0511524
v 0.03977992 -0.0001483169 0.02663442
v 0.03977995 -0.01489236 0.02663437
v 0.03977995 -0.01489236 0.02663437
v 0.03977992 -0.0001483169 0.02663442
v 0.04193325 -0.0002293981 0.00109114
v 0.04193326 -0.01288817 0.001091156
v 0.04193326 -0.01288817 0.001091156
v 0.04193325 -0.0002293981 0.00109114
v 0.04796581 -0.0001483085 -0.02772635
v 0.04796584 -0.01489235 -0.0277264
v 0.04796581 -0.0001483085 -0.02772635
v 0.04568794 0.01428337 -0.02539707
v 0.01714419 0.0142834 -0.04799147
v 0.01805175 -0.0001483222 -0.05115294
v 0.01805175 -0.0001483222 -0.05115294
v 0.01714419 0.0142834 -0.04799147
v -0.0118302 0.01428339 -0.04559794
v -0.01317189 -0.0001482845 -0.04897013
v -0.01317189 -0.0001482845 -0.04897013
v -0.0118302 0.01428339 -0.04559794
v -0.02321121 0.01428337 -0.02180667
v -0.02743404 -0.000148283 -0.02445199
v -0.02743404 -0.000148283 -0.02445199
v -0.02321121 0.01428337 -0.02180667
v -0.04530503 0.01197208 0.001196577
v -0.04796782 -0.0002293986 0.001091181
v -0.04796782 -0.0002293986 0.001091181
v -0.04530503 0.01197208 0.001196577
v -0.02661053 0.01428339 0.02419977
v -0.03053428 -0.0001482991 0.02663439
v -0.03053428 -0.0001482991 0.02663439
v -0.02661053 0.01428339 0.02419977
v -0.007042858 0.01428337 0.03961328
v -0.008805878 -0.0001483155 0.04351231
v -0.008805878 -0.0001483155 0.04351231
v -0.007042858 0.01428337 0.03961328
v 0.02432487 0.01428337 0.04799094
v 0.02460037 -0.0001483032 0.0511524
v 0.02460037 -0.0001483032 0.0511524
v 0.02432487 0.01428337 0.04799094
v 0.03671177 0.0142834 0.02419967
v 0.03977992 -0.0001483169 0.02663442
v 0.03977992 -0.0001483169 0.02663442
v 0.03671177 0.0142834 0.02419967
v 0.03865102 0.01197212 0.001196543
v 0.04193325 -0.0002293981 0.00109114
v 0.04193325 -0.0002293981 0.00109114
v 0.03865102 0.01197212 0.001196543
v 0.04568794 0.01428337 -0.02539707
v 0.04796581 -0.0001483085 -0.02772635
v 0.04568794 0.01428337 -0.02539707
v 0.03225153 0.02437441 -0.01614795
v 0.01203551 0.02437442 -0.03256888
v 0.01714419 0.0142834 -0.04799147
v 0.01714419 0.0142834 -0.04799147
v 0.01203551 0.02437442 -0.03256888
v -0.002593273 0.02437443 -0.02139404
v -0.0118302 0.01428339 -0.04559794
v -0.0118302 0.01428339 -0.04559794
v -0.002593273 0.02437443 -0.02139404
v -0.01125415 0.02437442 -0.01279549
v -0.02321121 0.01428337 -0.02180667
v -0.02321121 0.01428337 -0.02180667
v -0.01125415 0.02437442 -0.01279549
v -0.03124575 0.02074648 0.001117204
v -0.04530503 0.01197208 0.001196577
v -0.04530503 0.01197208 0.001196577
v -0.03124575 0.02074648 0.001117204
v -0.0144281 0.02437443 0.01502991
v -0.02661053 0.01428339 0.02419977
v -0.02661053 0.01428339 0.02419977
v -0.0144281 0.02437443 0.01502991
v -0.002593269 0.02437443 0.02474594
v -0.007042858 0.01428337 0.03961328
v -0.007042858 0.01428337 0.03961328
v -0.002593269 0.02437443 0.02474594
v 0.01874037 0.02437439 0.03256838
v 0.02432487 0.01428337 0.04799094
v 0.02432487 0.01428337 0.04799094
v 0.01874037 0.02437439 0.03256838
v 0.02387039 0.02437441 0.01503001
v 0.03671177 0.0142834 0.02419967
v 0.03671177 0.0142834 0.02419967
v 0.02387039 0.02437441 0.01503001
v 0.0250431 0.02074648 0.001117213
v 0.03865102 0.01197212 0.001196543
v 0.03865102 0.01197212 0.001196543
v 0.0250431 0.02074648 0.001117213
v 0.03225153 0.02437441 -0.01614795
v 0.04568794 0.01428337 -0.02539707
v 0.03225153 0.02437441 -0.01614795
v 0.004622915 0.03397607 0.001091146
v 0.01203551 0.02437442 -0.03256888
v 0.01203551 0.02437442 -0.03256888
v 0.004622915 0.03397607 0.001091146
v -0.002593273 0.02437443 -0.02139404
v -0.002593273 0.02437443 -0.02139404
v 0.004622915 0.03397607 0.001091146
v -0.01125415 0.02437442 -0.01279549
v -0.01125415 0.02437442 -0.01279549
v 0.004622915 0.03397607 0.001091146
v -0.03124575 0.02074648 0.001117204
v -0.03124575 0.02074648 0.001117204
v 0.004622915 0.03397607 0.001091146
v -0.0144281 0.02437443 0.01502991
v -0.0144281 0.02437443 0.01502991
v 0.004622915 0.03397607 0.001091146
v -0.002593269 0.02437443 0.02474594
v -0.002593269 0.02437443 0.02474594
v 0.004622915 0.03397607 0.001091146
v 0.01874037 0.02437439 0.03256838
v 0.01874037 0.02437439 0.03256838
v 0.004622915 0.03397607 0.001091146
v 0.02387039 0.02437441 0.01503001
v 0.02387039 0.02437441 0.01503001
v 0.004622915 0.03397607 0.001091146
v 0.0250431 0.02074648 0.001117213
v 0.0250431 0.02074648 0.001117213
v 0.004622915 0.03397607 0.001091146
v 0.03225153 0.02437441 -0.01614795

vn 0.07613248 -0.9970903 0.003848627
vn -0.169375 -0.9855319 0.006239186
vn -0.007224181 -0.9779807 0.2085704
vn 0.00182563 -0.987543 -0.1573381
vn -0.1599501 -0.9327303 -0.3231566
vn -0.2601256 -0.9195225 -0.2946404
vn -0.3880314 -0.8991893 -0.2022132
vn -0.4566737 -0.889307 -0.02412761
vn -0.347688 -0.927645 0.1363373
vn -0.06056916 -0.94147 0.3316104
vn -0.08913354 -0.8784102 0.469522
vn 0.6703591 -0.6956413 0.2582669
vn 0.6703591 -0.6956413 0.2582669
vn 0.6703591 -0.6956413 0.258267
vn 0.6703591 -0.6956413 0.2582669
vn 0.6375998 -0.7096843 -0.299691
vn 0.6375998 -0.7096844 -0.299691
vn 0.6375998 -0.7096843 -0.2996911
vn 0.6375999 -0.7096843 -0.299691
vn -0.01808851 -0.6042502 -0.7965894
vn -0.01808851 -0.6042501 -0.7965893
vn -0.01808851 -0.6042502 -0.7965894
vn -0.01808855 -0.6042502 -0.7965894
vn 0.127397 -0.649443 -0.7496625
vn 0.1273969 -0.6494429 -0.7496626
vn 0.1273969 -0.6494429 -0.7496626
vn 0.1273969 -0.6494429 -0.7496626
vn -0.7247837 -0.5171326 -0.4552609
vn -0.7247837 -0.5171326 -0.4552609
vn -0.7247838 -0.5171325 -0.455261
vn -0.7247837 -0.5171325 -0.4552609
vn -0.829239 -0.5070733 -0.2350308
vn -0.829239 -0.5070732 -0.2350309
vn -0.8292389 -0.5070732 -0.2350309
vn -0.8292389 -0.5070732 -0.2350308
vn -0.8681455 -0.4932181 0.05531184
vn -0.8681455 -0.4932181 0.05531181
vn -0.8681455 -0.4932181 0.05531186
vn -0.8681455 -0.4932181 0.05531184
vn -0.2124256 -0.5746357 0.7903601
vn -0.2124256 -0.5746357 0.7903601
vn -0.2124256 -0.5746357 0.7903601
vn -0.2124255 -0.5746357 0.7903602
vn 0.2299883 -0.6295354 0.7421526
vn 0.2299882 -0.6295354 0.7421526
vn 0.2299883 -0.6295354 0.7421526
vn 0.2299883 -0.6295354 0.7421526
vn -0.04960693 -0.5379841 0.8414941
vn -0.04960687 -0.537984 0.8414941
vn -0.04960693 -0.5379841 0.8414941
vn -0.0496069 -0.5379841 0.8414941
vn 0.9467704 -0.0942644 0.3077987
vn 0.9467704 -0.09426439 0.3077987
vn 0.9467704 -0.09426439 0.3077987
vn 0.9467704 -0.0942644 0.3077987
vn 0.9255716 -0.09787377 -0.365702
vn 0.9255716 -0.09787377 -0.365702
vn 0.9255716 -0.09787377 -0.365702
vn 0.9255716 -0.09787377 -0.365702
vn 0.1644838 -0.02529664 -0.9860554
vn 0.1644838 -0.02529664 -0.9860554
vn 0.1644838 -0.02529664 -0.9860554
vn 0.1644838 -0.02529664 -0.9860554
vn 0.3229048 -0.04116394 -0.9455358
vn 0.3229047 -0.04116394 -0.9455359
vn 0.3229048 -0.04116394 -0.9455358
vn 0.3229048 -0.04116394 -0.9455358
vn -0.8240653 0.07953341 -0.5608839
vn -0.8240653 0.07953341 -0.5608839
vn -0.8240654 0.07953341 -0.5608839
vn -0.8240653 0.07953341 -0.5608839
vn -0.9478663 0.09440605 -0.3043632
vn -0.9478663 0.09440605 -0.3043632
vn -0.9478663 0.09440605 -0.3043632
vn -0.9478663 0.09440605 -0.3043632
vn -0.9905261 0.1021714 0.09175602
vn -0.9905261 0.1021714 0.09175602
vn -0.9905261 0.1021714 0.09175602
vn -0.9905261 0.1021714 0.09175602
vn -0.1938993 0.02826074 0.9806142
vn -0.1938993 0.02826074 0.9806142
vn -0.1938993 0.02826074 0.9806142
vn -0.1938993 0.02826074 0.9806142
vn 0.3012564 -0.02265492 0.953274
vn 0.3012564 -0.02265492 0.953274
vn 0.3012564 -0.02265492 0.953274
vn 0.3012564 -0.02265492 0.953274
vn 0.1776175 -0.009735926 0.9840514
vn 0.1776175 -0.009735928 0.9840514
vn 0.1776175 -0.009735926 0.9840514
vn 0.1776175 -0.009735926 0.9840514
vn 0.9508579 0.06940924 0.3017476
vn 0.9508579 0.06940925 0.3017476
vn 0.9508579 0.06940925 0.3017476
vn 0.9508579 0.06940925 0.3017476
vn 0.9287872 0.07888388 -0.362121
vn 0.9287872 0.07888388 -0.362121
vn 0.9287872 0.07888388 -0.362121
vn 0.9287872 0.07888388 -0.362121
vn 0.1570272 0.1962007 -0.967909
vn 0.1570272 0.1962007 -0.967909
vn 0.1570272 0.1962007 -0.967909
vn 0.1570272 0.1962007 -0.967909
vn 0.3841024 0.1693852 -0.9076199
vn 0.3841024 0.1693852 -0.9076199
vn 0.3841024 0.1693852 -0.9076199
vn 0.3841024 0.1693852 -0.90762
vn -0.8007439 0.2716322 -0.5338775
vn -0.8007439 0.2716323 -0.5338775
vn -0.8007438 0.2716323 -0.5338776
vn -0.8007439 0.2716322 -0.5338775
vn -0.8989823 0.314376 -0.3049566
vn -0.8989822 0.314376 -0.3049566
vn -0.8989822 0.3143761 -0.3049566
vn -0.8989822 0.3143761 -0.3049566
vn -0.9533638 0.2925947 0.07406685
vn -0.9533638 0.2925947 0.07406686
vn -0.9533638 0.2925947 0.07406685
vn -0.9533638 0.2925947 0.07406685
vn -0.1257702 0.1854191 0.9745777
vn -0.1257702 0.1854191 0.9745777
vn -0.1257703 0.1854191 0.9745777
vn -0.1257702 0.1854191 0.9745777
vn 0.3386783 0.1693012 0.9255453
vn 0.3386783 0.1693012 0.9255453
vn 0.3386783 0.1693012 0.9255453
vn 0.3386783 0.1693012 0.9255453
vn 0.166775 0.1403701 0.9759521
vn 0.166775 0.1403701 0.9759521
vn 0.166775 0.1403701 0.9759521
vn 0.166775 0.1403701 0.9759521
vn 0.717341 0.6687474 0.195445
vn 0.7173411 0.6687474 0.195445
vn 0.717341 0.6687474 0.195445
vn 0.7173411 0.6687474 0.195445
vn 0.5668355 0.7666882 -0.3014742
vn 0.5668355 0.7666882 -0.3014742
vn 0.5668355 0.7666882 -0.3014742
vn 0.5668355 0.7666882 -0.3014742
vn 0.2482564 0.7978382 -0.5493843
vn 0.2482564 0.7978382 -0.5493843
vn 0.2482564 0.7978382 -0.5493843
vn 0.2482564 0.7978382 -0.5493843
vn 0.3566985 0.7057574 -0.6121051
vn 0.3566985 0.7057574 -0.6121051
vn 0.3566985 0.7057574 -0.6121051
vn 0.3566985 0.7057574 -0.6121051
vn -0.4395415 0.8090296 -0.3902235
vn -0.4395414 0.8090296 -0.3902234
vn -0.4395415 0.8090296 -0.3902235
vn -0.4395415 0.8090296 -0.3902235
vn -0.521706 0.8235919 -0.2225291
vn -0.521706 0.8235919 -0.2225291
vn -0.521706 0.8235918 -0.2225291
vn -0.521706 0.8235919 -0.2225291
vn -0.5615599 0.8273355 0.01290136
vn -0.5615599 0.8273355 0.01290138
vn -0.5615599 0.8273355 0.01290138
vn -0.5615599 0.8273355 0.01290138
vn 0.1066991 0.7374784 0.666889
vn 0.1066991 0.7374784 0.666889
vn 0.1066991 0.7374783 0.666889
vn 0.1066991 0.7374784 0.666889
vn 0.4568079 0.676995 0.5770651
vn 0.4568079 0.6769952 0.5770651
vn 0.4568079 0.6769952 0.5770651
vn 0.4568079 0.6769951 0.5770652
vn 0.0511347 0.6746584 0.7363567
vn 0.05113474 0.6746585 0.7363567
vn 0.0511347 0.6746584 0.7363567
vn 0.0511347 0.6746584 0.7363567
vn 0.4994803 0.8587161 0.1145695
vn 0.4994803 0.8587161 0.1145695
vn 0.4994803 0.8587161 0.1145695
vn 0.4003677 0.8347735 -0.3779668
vn 0.4003678 0.8347735 -0.3779669
vn 0.4003677 0.8347735 -0.3779668
vn 0.3531246 0.8322818 -0.4273289
vn 0.3531246 0.8322818 -0.4273289
vn 0.3531246 0.8322818 -0.427329
vn 0.2787107 0.8438963 -0.4584313
vn 0.2787107 0.8438963 -0.4584314
vn 0.2787107 0.8438963 -0.4584314
vn -0.2022834 0.9260803 -0.3185227
vn -0.2022834 0.9260803 -0.3185227
vn -0.2022834 0.9260803 -0.3185227
vn -0.3092781 0.9364861 -0.1653511
vn -0.3092781 0.9364861 -0.1653511
vn -0.3092781 0.9364861 -0.1653511
vn -0.3020368 0.9531619 -0.01600439
vn -0.3020368 0.953162 -0.01600442
vn -0.3020368 0.953162 -0.0160044
vn 0.1942239 0.8719425 0.4494368
vn 0.1942239 0.8719425 0.4494369
vn 0.194224 0.8719423 0.449437
vn 0.5341967 0.6935361 0.4833648
vn 0.5341967 0.6935362 0.4833648
vn 0.5341967 0.6935362 0.4833648
vn -0.07283782 0.7441292 0.6640529
vn -0.07283786 0.7441294 0.6640528
vn -0.07283782 0.7441294 0.6640529

vt 0.5483398 0.007648468
vt 0.5 0.1500244
vt 0.6264648 0.06439209
vt 0.4516602 0.007648468
vt 0.3735352 0.06439209
vt 0.34375 0.15625
vt 0.3735352 0.2480469
vt 0.4516602 0.3049316
vt 0.5483398 0.3049316
vt 0.6264648 0.2480469
vt 0.65625 0.15625
vt 0 0
vt 0 1
vt 1 1
vt 1 0
vt 0 0
vt 0 1
vt 1 1
vt 1 0
vt 0 0
vt 0 1
vt 1 1
vt 1 0
vt 0 0
vt 0 1
vt 1 1
vt 1 0
vt 0 0
vt 0 1
vt 1 1
vt 1 0
vt 0 0
vt 0 1
vt 1 1
vt 1 0
vt 0 0
vt 0 1
vt 1 1
vt 1 0
vt 0 0
vt 0 1
vt 1 1
vt 1 0
vt 0 0
vt 0 1
vt 1 1
vt 1 0
vt 0 0
vt 0 1
vt 1 1
vt 1 0
vt 0 0
vt 0 1
vt 1 1
vt 1 0
vt 0 0
vt 0 1
vt 1 1
vt 1 0
vt 0 0
vt 0 1
vt 1 1
vt 1 0
vt 0 0
vt 0 1
vt 1 1
vt 1 0
vt 0 0
vt 0 1
vt 1 1
vt 1 0
vt 0 0
vt 0 1
vt 1 1
vt 1 0
vt 0 0
vt 0 1
vt 1 1
vt 1 0
vt 0 0
vt 0 1
vt 1 1
vt 1 0
vt 0 0
vt 0 1
vt 1 1
vt 1 0
vt 0 0
vt 0 1
vt 1 1
vt 1 0
vt 0 0
vt 0 1
vt 1 1
vt 1 0
vt 0 0
vt 0 1
vt 1 1
vt 1 0
vt 0 0
vt 0 1
vt 1 1
vt 1 0
vt 0 0
vt 0 1
vt 1 1
vt 1 0
vt 0 0
vt 0 1
vt 1 1
vt 1 0
vt 0 0
vt 0 1
vt 1 1
vt 1 0
vt 0 0
vt 0 1
vt 1 1
vt 1 0
vt 0 0
vt 0 1
vt 1 1
vt 1 0
vt 0 0
vt 0 1
vt 1 1
vt 1 0
vt 0 0
vt 0 1
vt 1 1
vt 1 0
vt 0 0
vt 0 1
vt 1 1
vt 1 0
vt 0 0
vt 0 1
vt 1 1
vt 1 0
vt 0 0
vt 0 1
vt 1 1
vt 1 0
vt 0 0
vt 0 1
vt 1 1
vt 1 0
vt 0 0
vt 0 1
vt 1 1
vt 1 0
vt 0 0
vt 0 1
vt 1 1
vt 1 0
vt 0 0
vt 0 1
vt 1 1
vt 1 0
vt 0 0
vt 0 1
vt 1 1
vt 1 0
vt 0 0
vt 0 1
vt 1 1
vt 1 0
vt 0 0
vt 0 1
vt 1 1
vt 1 0
vt 0 0
vt 0.5 1
vt 1 0
vt 0 0
vt 0.5 1
vt 1 0
vt 0 0
vt 0.5 1
vt 1 0
vt 0 0
vt 0.5 1
vt 1 0
vt 0 0
vt 0.5 1
vt 1 0
vt 0 0
vt 0.5 1
vt 1 0
vt 0 0
vt 0.5 1
vt 1 0
vt 0 0
vt 0.5 1
vt 1 0
vt 0 0
vt 0.5 1
vt 1 0
vt 0 0
vt 0.5 1
vt 1 0

g Foliage_45_3861_125
usemtl Foliage_45_3861_125
usemap Foliage_45_3861_125
f 1/1/1 3/3/3 2/2/2
f 4/4/4 1/1/1 2/2/2
f 5/5/5 4/4/4 2/2/2
f 6/6/6 5/5/5 2/2/2
f 7/7/7 6/6/6 2/2/2
f 8/8/8 7/7/7 2/2/2
f 9/9/9 8/8/8 2/2/2
f 10/10/10 9/9/9 2/2/2
f 11/11/11 10/10/10 2/2/2
f 3/3/3 11/11/11 2/2/2
f 12/12/12 14/14/14 13/13/13
f 12/12/12 15/15/15 14/14/14
f 16/16/16 18/18/18 17/17/17
f 16/16/16 19/19/19 18/18/18
f 20/20/20 22/22/22 21/21/21
f 20/20/20 23/23/23 22/22/22
f 24/24/24 26/26/26 25/25/25
f 24/24/24 27/27/27 26/26/26
f 28/28/28 30/30/30 29/29/29
f 28/28/28 31/31/31 30/30/30
f 32/32/32 34/34/34 33/33/33
f 32/32/32 35/35/35 34/34/34
f 36/36/36 38/38/38 37/37/37
f 36/36/36 39/39/39 38/38/38
f 40/40/40 42/42/42 41/41/41
f 40/40/40 43/43/43 42/42/42
f 44/44/44 46/46/46 45/45/45
f 44/44/44 47/47/47 46/46/46
f 48/48/48 50/50/50 49/49/49
f 48/48/48 51/51/51 50/50/50
f 52/52/52 54/54/54 53/53/53
f 52/52/52 55/55/55 54/54/54
f 56/56/56 58/58/58 57/57/57
f 56/56/56 59/59/59 58/58/58
f 60/60/60 62/62/62 61/61/61
f 60/60/60 63/63/63 62/62/62
f 64/64/64 66/66/66 65/65/65
f 64/64/64 67/67/67 66/66/66
f 68/68/68 70/70/70 69/69/69
f 68/68/68 71/71/71 70/70/70
f 72/72/72 74/74/74 73/73/73
f 72/72/72 75/75/75 74/74/74
f 76/76/76 78/78/78 77/77/77
f 76/76/76 79/79/79 78/78/78
f 80/80/80 82/82/82 81/81/81
f 80/80/80 83/83/83 82/82/82
f 84/84/84 86/86/86 85/85/85
f 84/84/84 87/87/87 86/86/86
f 88/88/88 90/90/90 89/89/89
f 88/88/88 91/91/91 90/90/90
f 92/92/92 94/94/94 93/93/93
f 92/92/92 95/95/95 94/94/94
f 96/96/96 98/98/98 97/97/97
f 96/96/96 99/99/99 98/98/98
f 100/100/100 102/102/102 101/101/101
f 100/100/100 103/103/103 102/102/102
f 104/104/104 106/106/106 105/105/105
f 104/104/104 107/107/107 106/106/106
f 108/108/108 110/110/110 109/109/109
f 108/108/108 111/111/111 110/110/110
f 112/112/112 114/114/114 113/113/113
f 112/112/112 115/115/115 114/114/114
f 116/116/116 118/118/118 117/117/117
f 116/116/116 119/119/119 118/118/118
f 120/120/120 122/122/122 121/121/121
f 120/120/120 123/123/123 122/122/122
f 124/124/124 126/126/126 125/125/125
f 124/124/124 127/127/127 126/126/126
f 128/128/128 130/130/130 129/129/129
f 128/128/128 131/131/131 130/130/130
f 132/132/132 134/134/134 133/133/133
f 132/132/132 135/135/135 134/134/134
f 136/136/136 138/138/138 137/137/137
f 136/136/136 139/139/139 138/138/138
f 140/140/140 142/142/142 141/141/141
f 140/140/140 143/143/143 142/142/142
f 144/144/144 146/146/146 145/145/145
f 144/144/144 147/147/147 146/146/146
f 148/148/148 150/150/150 149/149/149
f 148/148/148 151/151/151 150/150/150
f 152/152/152 154/154/154 153/153/153
f 152/152/152 155/155/155 154/154/154
f 156/156/156 158/158/158 157/157/157
f 156/156/156 159/159/159 158/158/158
f 160/160/160 162/162/162 161/161/161
f 160/160/160 163/163/163 162/162/162
f 164/164/164 166/166/166 165/165/165
f 164/164/164 167/167/167 166/166/166
f 168/168/168 170/170/170 169/169/169
f 168/168/168 171/171/171 170/170/170
f 172/172/172 174/174/174 173/173/173
f 175/175/175 177/177/177 176/176/176
f 178/178/178 180/180/180 179/179/179
f 181/181/181 183/183/183 182/182/182
f 184/184/184 186/186/186 185/185/185
f 187/187/187 189/189/189 188/188/188
f 190/190/190 192/192/192 191/191/191
f 193/193/193 195/195/195 194/194/194
f 196/196/196 198/198/198 197/197/197
f 199/199/199 201/201/201 200/200/200
