#Grave_1887_30.obj

v -0.5217854 2.800212 -0.5158954
v 0.1540206 2.800212 -0.6912892
v 0.545605 2.800212 0.3314859
v -0.09716459 2.800212 0.6296095
v -0.6706074 -1.538205E-07 -0.917394
v 0.04963282 -1.538205E-07 1.025575
v 0.6788234 -1.538205E-07 0.6908915
v 0.02223328 -1.538205E-07 -1.046758
v -0.6706074 -1.538205E-07 -0.917394
v -0.7487082 0.9668208 -1.12806
v 0.1266406 0.9668208 1.233332
v 0.04963282 -1.538205E-07 1.025575
v 0.1219056 2.032439 1.220561
v -0.7439116 2.032439 -1.115121
v 0.0205308 2.567675 0.9470957
v -0.6411983 2.567675 -0.838024
v -0.09716459 2.800212 0.6296095
v -0.5217854 2.800212 -0.5158954
v 0.04963282 -1.538205E-07 1.025575
v 0.1266406 0.9668208 1.233332
v 0.7487102 0.9668208 0.8794137
v 0.6788234 -1.538205E-07 0.6908915
v 0.6788234 -1.538205E-07 0.6908915
v 0.7487102 0.9668208 0.8794137
v -0.04692091 0.9668208 -1.233336
v 0.02223328 -1.538205E-07 -1.046758
v -0.04267412 2.032439 -1.22188
v 0.7444128 2.032439 0.8678233
v 0.04828067 2.567675 -0.9765217
v 0.6524114 2.567675 0.6196302
v 0.1540206 2.800212 -0.6912892
v 0.545605 2.800212 0.3314859
v 0.02223328 -1.538205E-07 -1.046758
v -0.04692091 0.9668208 -1.233336
v -0.7487082 0.9668208 -1.12806
v -0.6706074 -1.538205E-07 -0.917394
v 0.1266406 0.9668208 1.233332
v 0.1219056 2.032439 1.220561
v 0.7444128 2.032439 0.8678233
v 0.7487102 0.9668208 0.8794137
v -0.04692091 0.9668208 -1.233336
v -0.04267412 2.032439 -1.22188
v -0.7439116 2.032439 -1.115121
v -0.7487082 0.9668208 -1.12806
v 0.1219056 2.032439 1.220561
v 0.0205308 2.567675 0.9470957
v 0.6524114 2.567675 0.6196302
v 0.7444128 2.032439 0.8678233
v 0.545605 2.800212 0.3314859
v -0.09716459 2.800212 0.6296095
v -0.04267412 2.032439 -1.22188
v 0.04828067 2.567675 -0.9765217
v -0.6411983 2.567675 -0.838024
v -0.7439116 2.032439 -1.115121
v -0.5217854 2.800212 -0.5158954
v 0.1540206 2.800212 -0.6912892

vn 0 1 0
vn 0 1 0
vn 0 1 0
vn 0 1 0
vn 0 -1 0
vn 0 -1 0
vn 0 -1 0
vn 0 -1 0
vn -0.9991828 -7.494855E-06 0.0404211
vn -0.9991828 -7.494855E-06 0.04042107
vn -0.9991828 -7.494854E-06 0.0404211
vn -0.9991828 -7.494855E-06 0.04042107
vn -0.9991828 0 0.0404214
vn -0.9991828 0 0.0404214
vn -0.9991828 -6.17922E-06 0.04042095
vn -0.9991828 -6.181488E-06 0.04042095
vn -0.9991829 -4.198924E-06 0.04041797
vn -0.9991829 -4.198924E-06 0.04041797
vn 0.1831898 -0.2112929 0.9601026
vn 0.1831898 -0.2112929 0.9601025
vn 0.1831898 -0.2112929 0.9601026
vn 0.1831899 -0.211293 0.9601025
vn 0.9989372 0 -0.04609084
vn 0.9989372 0 -0.04609081
vn 0.9989372 0 -0.04609081
vn 0.9989372 0 -0.04609081
vn 0.9989591 0 -0.04561588
vn 0.9989591 0 -0.04561582
vn 0.9989156 -2.600861E-05 -0.04655966
vn 0.9989157 -2.596102E-05 -0.04655781
vn 0.9988113 -8.009606E-05 -0.04874513
vn 0.9988113 -8.009607E-05 -0.04874516
vn 0.1440314 -0.2104079 -0.9669455
vn 0.1440314 -0.2104079 -0.9669455
vn 0.1440314 -0.2104079 -0.9669455
vn 0.1440314 -0.2104079 -0.9669455
vn 0.2004575 0.01203201 0.9796286
vn 0.2004574 0.01203201 0.9796286
vn 0.2004575 0.01203201 0.9796285
vn 0.2004575 0.01203201 0.9796285
vn 0.1638117 0.0119515 -0.9864192
vn 0.1638117 0.0119515 -0.9864192
vn 0.1638117 0.0119515 -0.9864192
vn 0.1638117 0.0119515 -0.9864192
vn 0.1612291 0.4574979 0.8744717
vn 0.1355674 0.6039984 0.7853708
vn 0.1318847 0.621939 0.7718797
vn 0.1612292 0.4574979 0.8744718
vn 0.08279978 0.8100927 0.5804257
vn 0.08279978 0.8100927 0.5804257
vn 0.1242023 0.4557834 -0.8813826
vn 0.09609221 0.6231174 -0.776203
vn 0.1004466 0.6001775 -0.7935348
vn 0.1242023 0.4557834 -0.8813826
vn 0.05187449 0.8099946 -0.5841386
vn 0.05187447 0.8099946 -0.5841385

vt 0 0
vt 0.05767822 0.3352051
vt 0.9541016 0.3408203
vt 1 0
vt 0 0
vt 1 0
vt 0.9541016 0.3408203
vt 0.05767822 0.3352051
vt 0 0
vt 0 0
vt 1 0
vt 1 0
vt 1 0
vt 0 0
vt 1 0
vt 0 0
vt 1 0
vt 0 0
vt 1 0
vt 1 0
vt 0.9541016 0.3408203
vt 0.9541016 0.3408203
vt 0.9541016 0.3408203
vt 0.9541016 0.3408203
vt 0.05767822 0.3352051
vt 0.05767822 0.3352051
vt 0.05767822 0.3352051
vt 0.9541016 0.3408203
vt 0.05767822 0.3352051
vt 0.9541016 0.3408203
vt 0.05767822 0.3352051
vt 0.9541016 0.3408203
vt 0.05767822 0.3352051
vt 0.05767822 0.3352051
vt 0 0
vt 0 0
vt 1 0
vt 1 0
vt 0.9541016 0.3408203
vt 0.9541016 0.3408203
vt 0.05767822 0.3352051
vt 0.05767822 0.3352051
vt 0 0
vt 0 0
vt 1 0
vt 1 0
vt 0.9541016 0.3408203
vt 0.9541016 0.3408203
vt 0.9541016 0.3408203
vt 1 0
vt 0.05767822 0.3352051
vt 0.05767822 0.3352051
vt 0 0
vt 0 0
vt 0 0
vt 0.05767822 0.3352051

g Grave_1887_30
usemtl Grave_1887_30
usemap Grave_1887_30
f 1/1/1 3/3/3 2/2/2
f 1/1/1 4/4/4 3/3/3
f 5/5/5 7/7/7 6/6/6
f 5/5/5 8/8/8 7/7/7
f 9/9/9 11/11/11 10/10/10
f 9/9/9 12/12/12 11/11/11
f 10/10/10 11/11/11 13/13/13
f 10/10/10 13/13/13 14/14/14
f 14/14/14 13/13/13 15/15/15
f 14/14/14 15/15/15 16/16/16
f 16/16/16 15/15/15 17/17/17
f 16/16/16 17/17/17 18/18/18
f 19/19/19 21/21/21 20/20/20
f 19/19/19 22/22/22 21/21/21
f 23/23/23 25/25/25 24/24/24
f 23/23/23 26/26/26 25/25/25
f 24/24/24 25/25/25 27/27/27
f 24/24/24 27/27/27 28/28/28
f 28/28/28 27/27/27 29/29/29
f 28/28/28 29/29/29 30/30/30
f 30/30/30 29/29/29 31/31/31
f 30/30/30 31/31/31 32/32/32
f 33/33/33 35/35/35 34/34/34
f 33/33/33 36/36/36 35/35/35
f 37/37/37 39/39/39 38/38/38
f 37/37/37 40/40/40 39/39/39
f 41/41/41 43/43/43 42/42/42
f 41/41/41 44/44/44 43/43/43
f 45/45/45 47/47/47 46/46/46
f 45/45/45 48/48/48 47/47/47
f 46/46/46 47/47/47 49/49/49
f 46/46/46 49/49/49 50/50/50
f 51/51/51 53/53/53 52/52/52
f 51/51/51 54/54/54 53/53/53
f 52/52/52 53/53/53 55/55/55
f 52/52/52 55/55/55 56/56/56
