#Ground_1064_1.obj

v 8.240906 -6.608556 -43.03187
v 6.714773 -6.532829 -40.39135
v 3.970913 -6.950701 -38.89155
v 4.577819 -8.657992 -42.53294
v 9.837148 -6.125391 -47.47757
v 8.240906 -6.608556 -43.03187
v 5.124883 -8.258403 -47.49773
v 4.577819 -8.657992 -42.53294
v -0.4112388 -8.253826 -47.52258
v -0.4711498 -8.644244 -42.12686
v -0.3509991 -7.795106 -52.91441
v 4.619687 -7.81836 -52.45398
v 9.17922 -5.328533 -51.8121
v 9.837148 -6.125391 -47.47757
v -5.946617 -8.175475 -47.54185
v -5.883986 -8.326133 -42.80282
v -10.53928 -5.990807 -47.48737
v -9.398281 -6.205115 -43.26888
v -5.448899 -7.815593 -52.36297
v -5.282515 -5.321579 -55.93081
v -0.2124353 -5.159734 -57.65179
v -0.2124353 -5.159734 -57.65179
v 3.962671 -5.221652 -56.4091
v 7.426611 -4.848197 -54.87232
v 9.17922 -5.328533 -51.8121
v 3.962671 -5.221652 -56.4091
v 3.970913 -6.950701 -38.89155
v -0.2707083 -7.120464 -37.88953
v -0.4711498 -8.644244 -42.12686
v 4.577819 -8.657992 -42.53294
v -0.2707083 -7.120464 -37.88953
v -5.069168 -6.890233 -39.29767
v -5.883986 -8.326133 -42.80282
v -0.4711498 -8.644244 -42.12686
v -5.069168 -6.890233 -39.29767
v -8.100969 -6.339529 -41.08345
v -9.398281 -6.205115 -43.26888
v -5.883986 -8.326133 -42.80282
v 2.500908 -5.308375 9.415869
v -2.562124 -5.605014 8.935924
v -2.912938 -5.605014 4.599411
v 3.437015 -5.532769 5.079356
v 3.437015 -5.532769 5.079356
v -2.912938 -5.605014 4.599411
v -2.332439 -5.699383 1.623299
v 2.895906 -5.933119 1.343949
v 2.895906 -5.933119 1.343949
v -2.332439 -5.699383 1.623299
v -2.848797 -5.699384 -3.861785
v 3.115791 -5.699384 -3.623597
v -2.13721 -5.699385 -8.410121
v 4.349411 -5.699385 -8.502753
v -2.13721 -5.699386 -12.74663
v 3.583238 -5.699386 -12.74663
v -2.33244 -5.699386 -17.08314
v 3.626314 -5.699386 -17.08314
v -2.848798 -5.699387 -21.41965
v 2.638429 -5.699387 -21.41965
v -2.33244 -5.699388 -25.75617
v 2.004075 -5.699388 -25.75617
v -2.848798 -5.699389 -30.09267
v 1.487717 -5.699389 -30.09267
v -2.33244 -5.699389 -34.42919
v 2.004075 -5.699389 -34.42919
v -0.1641827 -6.310644 -35.63758
v 3.693914 -6.171475 -37.22959
v -5.946617 -8.175475 -47.54185
v -10.53928 -5.990807 -47.48737
v -8.790401 -5.790334 -51.944
v -5.448899 -7.815593 -52.36297
v -5.448899 -7.815593 -52.36297
v -8.790401 -5.790334 -51.944
v -7.730853 -4.93146 -54.91163
v -5.282515 -5.321579 -55.93081
v 3.693914 -6.171475 -37.22959
v -0.1641827 -6.310644 -35.63758
v -0.2707083 -7.120464 -37.88953
v 3.970913 -6.950701 -38.89155

vn -0.4331719 0.8176752 -0.3791692
vn -0.4331719 0.8176752 -0.3791692
vn -0.4331719 0.8176752 -0.3791692
vn -0.07062025 0.997147 0.0266582
vn -0.4475202 0.8940915 -0.01805517
vn -0.4475202 0.8940915 -0.01805517
vn -0.04404489 0.9990296 0
vn 0 1 0
vn 0 1 0
vn 0 1 0
vn 0 1 0
vn 0 1 0
vn -0.4493439 0.87646 0.1729391
vn -0.4493438 0.87646 0.172939
vn 0 1 0
vn 0 1 0
vn 0.4699627 0.8822671 -0.0272019
vn 0.4699627 0.8822671 -0.0272019
vn 0.04404489 0.9990296 0
vn 0.1022795 0.844667 0.5254298
vn 0.1022795 0.844667 0.5254298
vn -0.08844981 0.8510733 0.5175431
vn -0.08844981 0.8510733 0.517543
vn -0.4075904 0.7764776 0.4805754
vn -0.4075904 0.7764776 0.4805754
vn -0.4075903 0.7764776 0.4805753
vn -0.07331584 0.9213953 -0.3816483
vn -0.07331584 0.9213953 -0.3816483
vn 0 0.9985735 0.05339284
vn 0 0.9985735 0.05339284
vn 0.1246802 0.9212279 -0.3685025
vn 0.1246802 0.9212278 -0.3685025
vn 0.07062025 0.997147 0.0266582
vn 0.07062025 0.997147 0.0266582
vn 0.4554475 0.8161168 -0.3556981
vn 0.4554475 0.8161167 -0.355698
vn 0.4554475 0.8161168 -0.3556981
vn 0.0569394 0.9967526 -0.0569396
vn -0.02995021 0.9991627 -0.02787217
vn -0.02995021 0.9991627 -0.02787217
vn -0.02995021 0.9991627 -0.02787217
vn -0.02995021 0.9991627 -0.02787217
vn 0.01518028 0.9971859 -0.07341529
vn 0.01518028 0.9971859 -0.07341529
vn 0.01518028 0.9971859 -0.07341529
vn 0.01518028 0.9971859 -0.07341529
vn 0.02095288 0.9995437 0.02175672
vn 0.02095288 0.9995437 0.02175672
vn 0.02095288 0.9995437 0.02175672
vn 0.02095288 0.9995437 0.02175672
vn 0 1 0
vn 0 1 0
vn 0 1 0
vn 0 1 0
vn 0 1 0
vn 0 1 0
vn 0 1 0
vn 0 1 0
vn 0 1 0
vn 0 1 0
vn 0 1 0
vn 0 1 0
vn 0 1 0
vn 0 1 0
vn 0 1 0
vn 0 1 0
vn 0.056946 0.996868 0.05487696
vn 0.4699162 0.866933 0.1661506
vn 0.4699162 0.866933 0.1661506
vn 0.056946 0.996868 0.05487696
vn 0.05694595 0.9968679 -0.05487724
vn 0.436709 0.7645134 0.4741355
vn 0.436709 0.7645134 0.4741355
vn 0.436709 0.7645134 0.4741355
vn 0 0.9985735 0.05339284
vn 0 0.9985735 0.05339284
vn -0.1556861 0.9128677 -0.3774047
vn -0.1556861 0.9128677 -0.3774047

vt 0 0
vt 0 0
vt 0 0
vt 0 0
vt 0 0
vt 0 0
vt 0 0
vt 0 0
vt 0 0
vt 0 0
vt 0 0
vt 0 0
vt 0 0
vt 0 0
vt 0 0
vt 0 0
vt 0 0
vt 0 0
vt 0 0
vt 0 0
vt 0 0
vt 0 0
vt 0 0
vt 0 0
vt 0 0
vt 0 0
vt 0 0
vt 0 0
vt 0 0
vt 0 0
vt 0 0
vt 0 0
vt 0 0
vt 0 0
vt 0 0
vt 0 0
vt 0 0
vt 0 0
vt 0 0
vt 0 0
vt 0 0
vt 0 0
vt 0 0
vt 0 0
vt 0 0
vt 0 0
vt 0 0
vt 0 0
vt 0 0
vt 0 0
vt 0 0
vt 0 0
vt 0 0
vt 0 0
vt 0 0
vt 0 0
vt 0 0
vt 0 0
vt 0 0
vt 0 0
vt 0 0
vt 0 0
vt 0 0
vt 0 0
vt 0 0
vt 0 0
vt 0 0
vt 0 0
vt 0 0
vt 0 0
vt 0 0
vt 0 0
vt 0 0
vt 0 0
vt 0 0
vt 0 0
vt 0 0
vt 0 0

g Ground_1064_1
usemtl Ground_1064_1
usemap Ground_1064_1
f 1/1/1 3/3/3 2/2/2
f 1/1/1 4/4/4 3/3/3
f 5/5/5 4/4/4 6/6/6
f 5/5/5 7/7/7 4/4/4
f 8/8/8 7/7/7 9/9/9
f 8/8/8 9/9/9 10/10/10
f 7/7/7 11/11/11 9/9/9
f 7/7/7 12/12/12 11/11/11
f 13/13/13 12/12/12 7/7/7
f 13/13/13 7/7/7 14/14/14
f 10/10/10 9/9/9 15/15/15
f 10/10/10 15/15/15 16/16/16
f 16/16/16 15/15/15 17/17/17
f 16/16/16 17/17/17 18/18/18
f 9/9/9 19/19/19 15/15/15
f 9/9/9 11/11/11 19/19/19
f 11/11/11 20/20/20 19/19/19
f 11/11/11 21/21/21 20/20/20
f 12/12/12 22/22/22 11/11/11
f 12/12/12 23/23/23 22/22/22
f 24/24/24 12/12/12 25/25/25
f 24/24/24 26/26/26 12/12/12
f 27/27/27 29/29/29 28/28/28
f 27/27/27 30/30/30 29/29/29
f 31/31/31 33/33/33 32/32/32
f 31/31/31 34/34/34 33/33/33
f 35/35/35 37/37/37 36/36/36
f 35/35/35 38/38/38 37/37/37
f 39/39/39 41/41/41 40/40/40
f 39/39/39 42/42/42 41/41/41
f 43/43/43 45/45/45 44/44/44
f 43/43/43 46/46/46 45/45/45
f 47/47/47 49/49/49 48/48/48
f 47/47/47 50/50/50 49/49/49
f 50/50/50 51/51/51 49/49/49
f 50/50/50 52/52/52 51/51/51
f 52/52/52 53/53/53 51/51/51
f 52/52/52 54/54/54 53/53/53
f 54/54/54 55/55/55 53/53/53
f 54/54/54 56/56/56 55/55/55
f 56/56/56 57/57/57 55/55/55
f 56/56/56 58/58/58 57/57/57
f 58/58/58 59/59/59 57/57/57
f 58/58/58 60/60/60 59/59/59
f 60/60/60 61/61/61 59/59/59
f 60/60/60 62/62/62 61/61/61
f 62/62/62 63/63/63 61/61/61
f 62/62/62 64/64/64 63/63/63
f 64/64/64 65/65/65 63/63/63
f 64/64/64 66/66/66 65/65/65
f 67/67/67 69/69/69 68/68/68
f 67/67/67 70/70/70 69/69/69
f 71/71/71 73/73/73 72/72/72
f 71/71/71 74/74/74 73/73/73
f 75/75/75 77/77/77 76/76/76
f 75/75/75 78/78/78 77/77/77
