#Ground02_1727_213.obj

v -8.365227 0.0313241 -3.304724
v -7.141004 0.0313241 -3.632038
v -5.671296 0.0313241 -3.435525
v -3.580594 0.0313241 -3.10973
v -10.10073 0.0313241 -1.226704
v -2.50776 0.0313241 -2.450566
v -1.539004 0.0313241 -1.913434
v 8.814611 0.0313241 -1.279484
v 10.03564 0.0313241 0.1870009
v -11.30946 0.0313241 1.747172
v 10.20369 0.0313241 1.960614
v 2.679741 0.0313241 5.878576
v 9.389054 0.0313241 3.319022
v 7.701201 0.0313241 4.051995
v -0.06687237 0.0313241 -2.41891
v 8.149577 0.0313241 -2.560542
v 1.212029 0.0313241 -3.539049
v 7.696771 0.0313241 -4.352763
v 1.837482 0.0313241 -4.712956
v 7.034783 0.0313241 -5.115368
v 3.242291 0.0313241 -5.742828
v 5.454836 0.0313241 -5.864962
v 7.695699 -0.03132439 -5.644711
v 5.954581 -0.03132439 -6.470782
v 3.516326 -0.03132439 -6.336188
v 1.968203 -0.03132439 -5.201214
v 8.425226 -0.03132439 -4.804277
v 1.278944 -0.03132439 -3.907588
v 8.924215 -0.03132439 -2.829236
v -0.1304251 -0.03132439 -2.673164
v 9.657099 -0.03132439 -1.417491
v -1.752733 -0.03132439 -2.116119
v -11.1879 -0.03132439 -1.359327
v -2.820314 -0.03132439 -2.708059
v -4.002594 -0.03132439 -3.434445
v -9.275338 -0.03132439 -3.649341
v -6.306576 -0.03132439 -3.79348
v -7.926208 -0.03132439 -4.010064
v 11.00268 -0.03132439 0.1985788
v -11.82209 -0.03132439 2.231756
v 11.18789 -0.03132439 2.15313
v 10.29015 -0.03132439 3.650116
v 2.896384 -0.03132439 6.470783
v 8.430109 -0.03132439 4.457875
v 8.430109 -0.03132439 4.457875
v 7.701201 0.0313241 4.051995
v 9.389054 0.0313241 3.319022
v 10.29015 -0.03132439 3.650116
v 2.896384 -0.03132439 6.470783
v 2.679741 0.0313241 5.878576
v 10.29015 -0.03132439 3.650116
v 9.389054 0.0313241 3.319022
v 10.20369 0.0313241 1.960614
v 11.18789 -0.03132439 2.15313
v 10.03564 0.0313241 0.1870009
v 11.00268 -0.03132439 0.1985788
v 11.00268 -0.03132439 0.1985788
v 10.03564 0.0313241 0.1870009
v 8.814611 0.0313241 -1.279484
v 9.657099 -0.03132439 -1.417491
v 8.149577 0.0313241 -2.560542
v 8.924215 -0.03132439 -2.829236
v 7.696771 0.0313241 -4.352763
v 8.425226 -0.03132439 -4.804277
v 7.034783 0.0313241 -5.115368
v 7.695699 -0.03132439 -5.644711
v 5.454836 0.0313241 -5.864962
v 5.954581 -0.03132439 -6.470782
v 5.954581 -0.03132439 -6.470782
v 5.454836 0.0313241 -5.864962
v 3.242291 0.0313241 -5.742828
v 3.516326 -0.03132439 -6.336188
v 3.516326 -0.03132439 -6.336188
v 3.242291 0.0313241 -5.742828
v 1.837482 0.0313241 -4.712956
v 1.968203 -0.03132439 -5.201214
v 1.968203 -0.03132439 -5.201214
v 1.837482 0.0313241 -4.712956
v 1.212029 0.0313241 -3.539049
v 1.278944 -0.03132439 -3.907588
v 1.278944 -0.03132439 -3.907588
v 1.212029 0.0313241 -3.539049
v -0.06687237 0.0313241 -2.41891
v -0.1304251 -0.03132439 -2.673164
v -0.1304251 -0.03132439 -2.673164
v -0.06687237 0.0313241 -2.41891
v -1.539004 0.0313241 -1.913434
v -1.752733 -0.03132439 -2.116119
v -1.752733 -0.03132439 -2.116119
v -1.539004 0.0313241 -1.913434
v -2.50776 0.0313241 -2.450566
v -2.820314 -0.03132439 -2.708059
v -2.820314 -0.03132439 -2.708059
v -2.50776 0.0313241 -2.450566
v -3.580594 0.0313241 -3.10973
v -4.002594 -0.03132439 -3.434445
v -4.002594 -0.03132439 -3.434445
v -3.580594 0.0313241 -3.10973
v -5.671296 0.0313241 -3.435525
v -6.306576 -0.03132439 -3.79348
v -7.141004 0.0313241 -3.632038
v -7.926208 -0.03132439 -4.010064
v -7.926208 -0.03132439 -4.010064
v -7.141004 0.0313241 -3.632038
v -8.365227 0.0313241 -3.304724
v -9.275338 -0.03132439 -3.649341
v -9.275338 -0.03132439 -3.649341
v -8.365227 0.0313241 -3.304724
v -10.10073 0.0313241 -1.226704
v -11.1879 -0.03132439 -1.359327
v -11.30946 0.0313241 1.747172
v -11.82209 -0.03132439 2.231756
v -11.82209 -0.03132439 2.231756
v -11.30946 0.0313241 1.747172
v 2.679741 0.0313241 5.878576
v 2.896384 -0.03132439 6.470783

vn 0 1 0
vn 0 1 0
vn 0 1 0
vn 0 1 0
vn 0 1 0
vn 0 1 0
vn 0 1 0
vn 0 1 0
vn 0 1 0
vn 0 1 0
vn 0 1 0
vn 0 1 0
vn 0 1 0
vn 0 1 0
vn 0 1 0
vn 0 1 0
vn 0 1 0
vn 0 1 0
vn 0 1 0
vn 0 1 0
vn 0 1 0
vn 0 1 0
vn 0 -1 0
vn 0 -1 0
vn 0 -1 0
vn 0 -1 0
vn 0 -1 0
vn 0 -1 0
vn 0 -1 0
vn 0 -1 0
vn 0 -1 0
vn 0 -1 0
vn 0 -1 0
vn 0 -1 0
vn 0 -1 0
vn 0 -1 0
vn 0 -1 0
vn 0 -1 0
vn 0 -1 0
vn 0 -1 0
vn 0 -1 0
vn 0 -1 0
vn 0 -1 0
vn 0 -1 0
vn 0.05847664 0.9940509 0.0918873
vn 0.05847664 0.9940509 0.0918873
vn 0.05847665 0.9940509 0.0918873
vn 0.05847664 0.9940509 0.0918873
vn 0.05499288 0.9934738 0.09992854
vn 0.05499287 0.9934738 0.09992852
vn 0.07400248 0.9968219 0.02949092
vn 0.07400249 0.9968219 0.02949092
vn 0.07400249 0.9968219 0.02949092
vn 0.07400247 0.9968219 0.02949092
vn 0.07742075 0.9968459 -0.01744597
vn 0.07742074 0.9968459 -0.01744596
vn 0.0706547 0.9948879 -0.07215321
vn 0.0706547 0.9948879 -0.07215321
vn 0.0706547 0.9948879 -0.07215321
vn 0.0706547 0.9948879 -0.0721532
vn 0.0773109 0.9956853 -0.05132003
vn 0.0773109 0.9956853 -0.05132003
vn 0.08687925 0.9956635 -0.03326134
vn 0.08687928 0.9956635 -0.03326134
vn 0.06015101 0.996137 -0.0639752
vn 0.06015101 0.996137 -0.0639752
vn 0.03129097 0.9954711 -0.08976673
vn 0.03129098 0.9954711 -0.08976673
vn -0.02354115 0.9923474 -0.1212119
vn -0.02354115 0.9923474 -0.1212119
vn -0.02354115 0.9923474 -0.1212119
vn -0.02354115 0.9923474 -0.1212119
vn -0.1617972 0.9740591 -0.1582102
vn -0.1617972 0.9740591 -0.1582102
vn -0.1617972 0.9740591 -0.1582102
vn -0.1617972 0.9740591 -0.1582102
vn -0.5219215 0.8340131 -0.1789418
vn -0.5219215 0.834013 -0.1789418
vn -0.5219215 0.834013 -0.1789418
vn -0.5219215 0.8340131 -0.1789418
vn -0.2338259 0.9532156 -0.1915869
vn -0.2338259 0.9532156 -0.1915869
vn -0.2338259 0.9532156 -0.1915869
vn -0.2338259 0.9532156 -0.1915869
vn -0.124254 0.9636963 -0.2363268
vn -0.124254 0.9636963 -0.2363268
vn -0.124254 0.9636963 -0.2363268
vn -0.124254 0.9636963 -0.2363269
vn 0.2747797 0.7102441 -0.6481123
vn 0.2747797 0.7102441 -0.6481122
vn 0.2747797 0.7102441 -0.6481122
vn 0.2747798 0.7102441 -0.6481122
vn 0.3438204 0.6061774 -0.7171726
vn 0.3438205 0.6061774 -0.7171725
vn 0.3438205 0.6061774 -0.7171725
vn 0.3438205 0.6061774 -0.7171725
vn 0.008569577 0.9626719 -0.2705353
vn 0.008569577 0.9626719 -0.2705353
vn 0.008569585 0.9626719 -0.2705353
vn 0.008569585 0.9626719 -0.2705353
vn 0.002216923 0.9664578 -0.2568158
vn 0.00221692 0.9664578 -0.2568158
vn -0.05032335 0.9920282 -0.1155314
vn -0.05032334 0.9920282 -0.1155314
vn -0.05032334 0.9920282 -0.1155314
vn -0.05032335 0.9920282 -0.1155314
vn -0.06979084 0.996718 -0.04101637
vn -0.06979084 0.996718 -0.04101637
vn -0.06979084 0.996718 -0.04101638
vn -0.06979084 0.996718 -0.04101638
vn -0.1041494 0.9944764 -0.01301896
vn -0.1041494 0.9944764 -0.01301896
vn -0.02150667 0.9917392 0.126455
vn -0.02150668 0.9917392 0.126455
vn -0.02150668 0.9917392 0.126455
vn -0.02150668 0.9917392 0.126455

vt 0.1351318 0.734375
vt 0.2050781 0.7236328
vt 0.276123 0.6811523
vt 0.3759766 0.6176758
vt 0 0.6665039
vt 0.4162598 0.5600586
vt 0.4538574 0.5112305
vt 0.9702148 0.248291
vt 1 0.1459961
vt 0.1539307 0.2312012
vt 0.9692383 0.05145264
vt 0.496582 0.0181427
vt 0.8969727 0
vt 0.7944336 0
vt 0.5405273 0.5043945
vt 0.9643555 0.3288574
vt 0.6308594 0.5332031
vt 0.980957 0.4306641
vt 0.6889648 0.5795898
vt 0.9643555 0.484375
vt 0.7836914 0.6010742
vt 0.8999023 0.5581055
vt 0.9643555 0.484375
vt 0.8999023 0.5581055
vt 0.7836914 0.6010742
vt 0.6889648 0.5795898
vt 0.980957 0.4306641
vt 0.6308594 0.5332031
vt 0.9643555 0.3288574
vt 0.5405273 0.5043945
vt 0.9702148 0.248291
vt 0.4538574 0.5112305
vt 0 0.6665039
vt 0.4162598 0.5600586
vt 0.3759766 0.6176758
vt 0.1351318 0.734375
vt 0.276123 0.6811523
vt 0.2050781 0.7236328
vt 1 0.1459961
vt 0.1539307 0.2312012
vt 0.9692383 0.05145264
vt 0.8969727 0
vt 0.496582 0.0181427
vt 0.7944336 0
vt 0.7944336 0
vt 0.7944336 0
vt 0.8969727 0
vt 0.8969727 0
vt 0.496582 0.0181427
vt 0.496582 0.0181427
vt 0.8969727 0
vt 0.8969727 0
vt 0.9692383 0.05145264
vt 0.9692383 0.05145264
vt 1 0.1459961
vt 1 0.1459961
vt 1 0.1459961
vt 1 0.1459961
vt 0.9702148 0.248291
vt 0.9702148 0.248291
vt 0.9643555 0.3288574
vt 0.9643555 0.3288574
vt 0.980957 0.4306641
vt 0.980957 0.4306641
vt 0.9643555 0.484375
vt 0.9643555 0.484375
vt 0.8999023 0.5581055
vt 0.8999023 0.5581055
vt 0.8999023 0.5581055
vt 0.8999023 0.5581055
vt 0.7836914 0.6010742
vt 0.7836914 0.6010742
vt 0.7836914 0.6010742
vt 0.7836914 0.6010742
vt 0.6889648 0.5795898
vt 0.6889648 0.5795898
vt 0.6889648 0.5795898
vt 0.6889648 0.5795898
vt 0.6308594 0.5332031
vt 0.6308594 0.5332031
vt 0.6308594 0.5332031
vt 0.6308594 0.5332031
vt 0.5405273 0.5043945
vt 0.5405273 0.5043945
vt 0.5405273 0.5043945
vt 0.5405273 0.5043945
vt 0.4538574 0.5112305
vt 0.4538574 0.5112305
vt 0.4538574 0.5112305
vt 0.4538574 0.5112305
vt 0.4162598 0.5600586
vt 0.4162598 0.5600586
vt 0.4162598 0.5600586
vt 0.4162598 0.5600586
vt 0.3759766 0.6176758
vt 0.3759766 0.6176758
vt 0.3759766 0.6176758
vt 0.3759766 0.6176758
vt 0.276123 0.6811523
vt 0.276123 0.6811523
vt 0.2050781 0.7236328
vt 0.2050781 0.7236328
vt 0.2050781 0.7236328
vt 0.2050781 0.7236328
vt 0.1351318 0.734375
vt 0.1351318 0.734375
vt 0.1351318 0.734375
vt 0.1351318 0.734375
vt 0 0.6665039
vt 0 0.6665039
vt 0.1539307 0.2312012
vt 0.1539307 0.2312012
vt 0.1539307 0.2312012
vt 0.1539307 0.2312012
vt 0.496582 0.0181427
vt 0.496582 0.0181427

g Ground02_1727_213
usemtl Ground02_1727_213
usemap Ground02_1727_213
f 1/1/1 3/3/3 2/2/2
f 3/3/3 1/1/1 4/4/4
f 4/4/4 1/1/1 5/5/5
f 4/4/4 5/5/5 6/6/6
f 6/6/6 5/5/5 7/7/7
f 7/7/7 5/5/5 8/8/8
f 8/8/8 5/5/5 9/9/9
f 9/9/9 5/5/5 10/10/10
f 9/9/9 10/10/10 11/11/11
f 11/11/11 10/10/10 12/12/12
f 11/11/11 12/12/12 13/13/13
f 13/13/13 12/12/12 14/14/14
f 8/8/8 15/15/15 7/7/7
f 16/16/16 15/15/15 8/8/8
f 16/16/16 17/17/17 15/15/15
f 18/18/18 17/17/17 16/16/16
f 18/18/18 19/19/19 17/17/17
f 20/20/20 19/19/19 18/18/18
f 20/20/20 21/21/21 19/19/19
f 21/21/21 20/20/20 22/22/22
f 23/23/23 25/25/25 24/24/24
f 25/25/25 23/23/23 26/26/26
f 26/26/26 23/23/23 27/27/27
f 26/26/26 27/27/27 28/28/28
f 28/28/28 27/27/27 29/29/29
f 28/28/28 29/29/29 30/30/30
f 30/30/30 29/29/29 31/31/31
f 30/30/30 31/31/31 32/32/32
f 33/33/33 32/32/32 31/31/31
f 33/33/33 34/34/34 32/32/32
f 33/33/33 35/35/35 34/34/34
f 36/36/36 35/35/35 33/33/33
f 36/36/36 37/37/37 35/35/35
f 37/37/37 36/36/36 38/38/38
f 33/33/33 31/31/31 39/39/39
f 33/33/33 39/39/39 40/40/40
f 40/40/40 39/39/39 41/41/41
f 40/40/40 41/41/41 42/42/42
f 40/40/40 42/42/42 43/43/43
f 43/43/43 42/42/42 44/44/44
f 45/45/45 47/47/47 46/46/46
f 45/45/45 48/48/48 47/47/47
f 49/49/49 45/45/45 46/46/46
f 49/49/49 46/46/46 50/50/50
f 51/51/51 53/53/53 52/52/52
f 51/51/51 54/54/54 53/53/53
f 54/54/54 55/55/55 53/53/53
f 54/54/54 56/56/56 55/55/55
f 57/57/57 59/59/59 58/58/58
f 57/57/57 60/60/60 59/59/59
f 60/60/60 61/61/61 59/59/59
f 60/60/60 62/62/62 61/61/61
f 62/62/62 63/63/63 61/61/61
f 62/62/62 64/64/64 63/63/63
f 64/64/64 65/65/65 63/63/63
f 64/64/64 66/66/66 65/65/65
f 66/66/66 67/67/67 65/65/65
f 66/66/66 68/68/68 67/67/67
f 69/69/69 71/71/71 70/70/70
f 69/69/69 72/72/72 71/71/71
f 73/73/73 75/75/75 74/74/74
f 73/73/73 76/76/76 75/75/75
f 77/77/77 79/79/79 78/78/78
f 77/77/77 80/80/80 79/79/79
f 81/81/81 83/83/83 82/82/82
f 81/81/81 84/84/84 83/83/83
f 85/85/85 87/87/87 86/86/86
f 85/85/85 88/88/88 87/87/87
f 89/89/89 91/91/91 90/90/90
f 89/89/89 92/92/92 91/91/91
f 93/93/93 95/95/95 94/94/94
f 93/93/93 96/96/96 95/95/95
f 97/97/97 99/99/99 98/98/98
f 97/97/97 100/100/100 99/99/99
f 100/100/100 101/101/101 99/99/99
f 100/100/100 102/102/102 101/101/101
f 103/103/103 105/105/105 104/104/104
f 103/103/103 106/106/106 105/105/105
f 107/107/107 109/109/109 108/108/108
f 107/107/107 110/110/110 109/109/109
f 110/110/110 111/111/111 109/109/109
f 110/110/110 112/112/112 111/111/111
f 113/113/113 115/115/115 114/114/114
f 113/113/113 116/116/116 115/115/115
