#house2:polySurface5_2038_92.obj

v -5.879938 5.481979 -10.83493
v -6.240982 5.481979 -11.07101
v -5.768383 5.481979 -1.984252
v -5.456375 5.481979 -1.976299
v -5.82027 5.481979 3.287817
v -5.502878 5.481979 3.163413
v -6.965426 5.481979 7.565678
v -6.529216 5.481979 7.333879
v 1.315572 5.481979 7.736094
v 0.8925619 5.481979 7.500015
v -0.1188256 5.481979 1.298463
v -0.3930052 5.481979 1.224003
v 1.442801 5.481979 -10.77569
v 1.006591 5.481979 -10.54702
v -6.240982 5.481979 -11.07101
v -6.240982 5.744026 -11.07101
v -5.768383 5.744026 -1.984252
v -5.768383 5.481979 -1.984252
v -5.768383 5.481979 -1.984252
v -5.768383 5.744026 -1.984252
v -5.82027 5.744026 3.287817
v -5.82027 5.481979 3.287817
v -5.82027 5.481979 3.287817
v -5.82027 5.744026 3.287817
v -6.965426 5.744026 7.565678
v -6.965426 5.481979 7.565678
v -6.965426 5.481979 7.565678
v -6.965426 5.744026 7.565678
v 1.315572 5.744026 7.736094
v 1.315572 5.481979 7.736094
v 1.315572 5.481979 7.736094
v 1.315572 5.744026 7.736094
v -0.1188256 5.744026 1.298463
v -0.1188256 5.481979 1.298463
v -0.1188256 5.481979 1.298463
v -0.1188256 5.744026 1.298463
v 1.442801 5.744026 -10.77569
v 1.442801 5.481979 -10.77569
v 1.442801 5.481979 -10.77569
v 1.442801 5.744026 -10.77569
v -6.240982 5.744026 -11.07101
v -6.240982 5.481979 -11.07101
v -6.240982 5.744026 -11.07101
v -5.741949 9.479709 -9.722418
v -5.337127 9.479709 -1.938819
v -5.768383 5.744026 -1.984252
v -5.768383 5.744026 -1.984252
v -5.337127 9.479709 -1.938819
v -5.381575 9.479709 2.577165
v -5.82027 5.744026 3.287817
v -5.82027 5.744026 3.287817
v -5.381575 9.479709 2.577165
v -6.3625 9.479709 6.241525
v -6.965426 5.744026 7.565678
v -6.965426 5.744026 7.565678
v -6.3625 9.479709 6.241525
v 0.7308918 9.47971 6.387498
v 1.315572 5.744026 7.736094
v 1.315572 5.744026 7.736094
v 0.7308918 9.47971 6.387498
v -0.4977932 9.47971 0.873109
v -0.1188256 5.744026 1.298463
v -0.1188256 5.744026 1.298463
v -0.4977932 9.47971 0.873109
v 0.8398755 9.479709 -9.469442
v 1.442801 5.744026 -10.77569
v 1.442801 5.744026 -10.77569
v 0.8398755 9.479709 -9.469442
v -5.741949 9.479709 -9.722418
v -6.240982 5.744026 -11.07101
v -5.741949 9.479709 -9.722418
v -5.299175 9.185163 -9.383714
v -4.954488 9.185163 -1.927409
v -5.337127 9.479709 -1.938819
v -4.992333 9.185163 2.398683
v -5.381575 9.479709 2.577165
v -5.381575 9.479709 2.577165
v -4.992333 9.185163 2.398683
v -5.827541 9.185163 5.908958
v -6.3625 9.479709 6.241525
v -6.3625 9.479709 6.241525
v -5.827541 9.185163 5.908958
v 0.2121228 9.185163 6.048795
v 0.7308918 9.47971 6.387498
v 0.7308918 9.47971 6.387498
v 0.2121228 9.185163 6.048795
v -0.8340401 9.185163 0.7662802
v -0.4977932 9.47971 0.873109
v -0.4977932 9.47971 0.873109
v -0.8340401 9.185163 0.7662802
v 0.3049171 9.185163 -9.141377
v 0.8398755 9.479709 -9.469442
v 0.8398755 9.479709 -9.469442
v 0.3049171 9.185163 -9.141377
v -5.299175 9.185163 -9.383714
v -5.741949 9.479709 -9.722418

vn 0 -1 0
vn 0 -1 0
vn 0 -1 0
vn 0 -1 0
vn 0 -1 0
vn 0 -1 0
vn 0 -1 0
vn 0 -1 0
vn 0 -1 0
vn 0 -1 0
vn 0 -1 0
vn 0 -1 0
vn 0 -1 0
vn 0 -1 0
vn -0.9949207 0 0.1006612
vn -0.9949207 0 0.1006612
vn -0.9949207 0 0.1006612
vn -0.9949207 0 0.1006612
vn -0.9992385 0 0.03901737
vn -0.9992385 0 0.03901737
vn -0.9992385 0 0.03901737
vn -0.9992385 0 0.03901737
vn -0.9774661 0 -0.2110922
vn -0.9774661 0 -0.2110922
vn -0.9774661 0 -0.2110922
vn -0.9774661 0 -0.2110922
vn 0.02828905 0 0.9995997
vn 0.02828905 0 0.9995997
vn 0.02828905 0 0.9995997
vn 0.02828905 0 0.9995997
vn 0.9642753 0 -0.2649021
vn 0.9642753 0 -0.2649021
vn 0.9642753 0 -0.2649021
vn 0.9642753 0 -0.2649021
vn 0.9968213 0 0.07966889
vn 0.9968213 0 0.0796689
vn 0.9968213 0 0.07966889
vn 0.9968213 0 0.07966889
vn -0.01045247 0 -0.9999454
vn -0.01045247 0 -0.9999454
vn -0.01045247 0 -0.9999454
vn -0.01045247 0 -0.9999454
vn -0.9884451 0.1139083 0.100006
vn -0.9884451 0.1139083 0.100006
vn -0.9884451 0.1139083 0.100006
vn -0.9884451 0.1139083 0.100006
vn -0.9926331 0.1147921 0.03875938
vn -0.9926331 0.1147921 0.03875938
vn -0.9926331 0.1147921 0.03875938
vn -0.9926331 0.1147921 0.03875938
vn -0.9754551 0.06411538 -0.2106574
vn -0.9754551 0.06411538 -0.2106574
vn -0.9754551 0.06411538 -0.2106574
vn -0.9754551 0.06411538 -0.2106574
vn 0.02663624 0.3368071 0.9411968
vn 0.02663624 0.3368071 0.9411968
vn 0.02663624 0.3368072 0.9411967
vn 0.02663624 0.3368072 0.9411967
vn 0.9616278 0.0740505 -0.2641746
vn 0.9616278 0.07405049 -0.2641746
vn 0.9616278 0.0740505 -0.2641746
vn 0.9616278 0.0740505 -0.2641746
vn 0.9902707 0.1144551 0.07914527
vn 0.9902707 0.1144551 0.07914527
vn 0.9902707 0.1144551 0.07914528
vn 0.9902707 0.1144551 0.07914527
vn -0.009848244 0.3350524 -0.942148
vn -0.009848244 0.3350524 -0.942148
vn -0.009848248 0.3350525 -0.942148
vn -0.009848241 0.3350525 -0.942148
vn 0.586667 0.8077712 -0.05768408
vn 0.5866671 0.8077712 -0.05768409
vn 0.5866669 0.8077713 -0.05768408
vn 0.586667 0.8077712 -0.05768408
vn 0.6070047 0.7943349 -0.02402726
vn 0.6070047 0.7943348 -0.02402726
vn 0.595367 0.7944267 0.1201018
vn 0.595367 0.7944267 0.1201018
vn 0.5953669 0.7944267 0.1201018
vn 0.5953669 0.7944267 0.1201018
vn -0.01787667 0.7517092 -0.6592523
vn -0.01787667 0.7517092 -0.6592523
vn -0.01787667 0.7517092 -0.6592523
vn -0.01787667 0.7517092 -0.6592523
vn -0.6000582 0.7843187 0.1573985
vn -0.6000582 0.7843187 0.1573985
vn -0.6000582 0.7843187 0.1573984
vn -0.6000581 0.7843187 0.1573985
vn -0.5736145 0.8180556 -0.04184917
vn -0.5736146 0.8180556 -0.04184917
vn -0.5736146 0.8180556 -0.04184917
vn -0.5736145 0.8180556 -0.04184918
vn 0.005444368 0.7509773 0.6603055
vn 0.005444365 0.7509775 0.6603055
vn 0.00544437 0.7509775 0.6603055
vn 0.00544437 0.7509775 0.6603055

vt 0.1359863 0
vt 0.1359863 0
vt 0.1078491 0.2521973
vt 0.1078491 0.2521973
vt 0.04742432 0.5942383
vt 0.04742432 0.5942383
vt 0 0.9912109
vt 0 0.9912109
vt 0.3395996 1
vt 0.3395996 1
vt 0.3378906 0.5219727
vt 0.3378906 0.5219727
vt 0.4140625 0
vt 0.4140625 0
vt 0.1359863 0
vt 0.1359863 0
vt 0.1078491 0.2521973
vt 0.1078491 0.2521973
vt 0.1078491 0.2521973
vt 0.1078491 0.2521973
vt 0.04742432 0.5942383
vt 0.04742432 0.5942383
vt 0.04742432 0.5942383
vt 0.04742432 0.5942383
vt 0 0.9912109
vt 0 0.9912109
vt 0 0.9912109
vt 0 0.9912109
vt 0.3395996 1
vt 0.3395996 1
vt 0.3395996 1
vt 0.3395996 1
vt 0.3378906 0.5219727
vt 0.3378906 0.5219727
vt 0.3378906 0.5219727
vt 0.3378906 0.5219727
vt 0.4140625 0
vt 0.4140625 0
vt 0.4140625 0
vt 0.4140625 0
vt 0.1359863 0
vt 0.1359863 0
vt 0.1359863 0
vt 0.1359863 0
vt 0.1078491 0.2521973
vt 0.1078491 0.2521973
vt 0.1078491 0.2521973
vt 0.1078491 0.2521973
vt 0.04742432 0.5942383
vt 0.04742432 0.5942383
vt 0.04742432 0.5942383
vt 0.04742432 0.5942383
vt 0 0.9912109
vt 0 0.9912109
vt 0 0.9912109
vt 0 0.9912109
vt 0.3395996 1
vt 0.3395996 1
vt 0.3395996 1
vt 0.3395996 1
vt 0.3378906 0.5219727
vt 0.3378906 0.5219727
vt 0.3378906 0.5219727
vt 0.3378906 0.5219727
vt 0.4140625 0
vt 0.4140625 0
vt 0.4140625 0
vt 0.4140625 0
vt 0.1359863 0
vt 0.1359863 0
vt 0.1359863 0
vt 0.1359863 0
vt 0.1078491 0.2521973
vt 0.1078491 0.2521973
vt 0.04742432 0.5942383
vt 0.04742432 0.5942383
vt 0.04742432 0.5942383
vt 0.04742432 0.5942383
vt 0 0.9912109
vt 0 0.9912109
vt 0 0.9912109
vt 0 0.9912109
vt 0.3395996 1
vt 0.3395996 1
vt 0.3395996 1
vt 0.3395996 1
vt 0.3378906 0.5219727
vt 0.3378906 0.5219727
vt 0.3378906 0.5219727
vt 0.3378906 0.5219727
vt 0.4140625 0
vt 0.4140625 0
vt 0.4140625 0
vt 0.4140625 0
vt 0.1359863 0
vt 0.1359863 0

g house2:polySurface5_2038_92
usemtl house2:polySurface5_2038_92
usemap house2:polySurface5_2038_92
f 1/1/1 3/3/3 2/2/2
f 1/1/1 4/4/4 3/3/3
f 4/4/4 5/5/5 3/3/3
f 4/4/4 6/6/6 5/5/5
f 6/6/6 7/7/7 5/5/5
f 6/6/6 8/8/8 7/7/7
f 8/8/8 9/9/9 7/7/7
f 8/8/8 10/10/10 9/9/9
f 10/10/10 11/11/11 9/9/9
f 10/10/10 12/12/12 11/11/11
f 12/12/12 13/13/13 11/11/11
f 12/12/12 14/14/14 13/13/13
f 14/14/14 2/2/2 13/13/13
f 14/14/14 1/1/1 2/2/2
f 15/15/15 17/17/17 16/16/16
f 15/15/15 18/18/18 17/17/17
f 19/19/19 21/21/21 20/20/20
f 19/19/19 22/22/22 21/21/21
f 23/23/23 25/25/25 24/24/24
f 23/23/23 26/26/26 25/25/25
f 27/27/27 29/29/29 28/28/28
f 27/27/27 30/30/30 29/29/29
f 31/31/31 33/33/33 32/32/32
f 31/31/31 34/34/34 33/33/33
f 35/35/35 37/37/37 36/36/36
f 35/35/35 38/38/38 37/37/37
f 39/39/39 41/41/41 40/40/40
f 39/39/39 42/42/42 41/41/41
f 43/43/43 45/45/45 44/44/44
f 43/43/43 46/46/46 45/45/45
f 47/47/47 49/49/49 48/48/48
f 47/47/47 50/50/50 49/49/49
f 51/51/51 53/53/53 52/52/52
f 51/51/51 54/54/54 53/53/53
f 55/55/55 57/57/57 56/56/56
f 55/55/55 58/58/58 57/57/57
f 59/59/59 61/61/61 60/60/60
f 59/59/59 62/62/62 61/61/61
f 63/63/63 65/65/65 64/64/64
f 63/63/63 66/66/66 65/65/65
f 67/67/67 69/69/69 68/68/68
f 67/67/67 70/70/70 69/69/69
f 71/71/71 73/73/73 72/72/72
f 71/71/71 74/74/74 73/73/73
f 74/74/74 75/75/75 73/73/73
f 74/74/74 76/76/76 75/75/75
f 77/77/77 79/79/79 78/78/78
f 77/77/77 80/80/80 79/79/79
f 81/81/81 83/83/83 82/82/82
f 81/81/81 84/84/84 83/83/83
f 85/85/85 87/87/87 86/86/86
f 85/85/85 88/88/88 87/87/87
f 89/89/89 91/91/91 90/90/90
f 89/89/89 92/92/92 91/91/91
f 93/93/93 95/95/95 94/94/94
f 93/93/93 96/96/96 95/95/95
