#Path_1888_230.obj

v -5.599999 0.0224214 4.599998
v -12 0.0224214 3.399997
v -0.4000006 0.0224214 3.799997
v 4.799998 0.0224214 3.799997
v -16 0.0224214 0.9999979
v 8.399999 0.0224214 4.199998
v 15.74179 0.0224214 0.406814
v 14.48297 0.0224214 -3.831118
v -8.4 0.0224214 -4.600002
v -11.6 0.0224214 -5
v 12 0.0224214 5.399998
v 14.93745 0.0224214 6.651206
v 9.599998 0.0224214 -5.400001
v -3.6 0.0224214 -5.8
v 3.599999 0.0224214 -6.6
v 9.599998 -2.209895E-07 -5.400001
v 3.599999 -2.209895E-07 -6.6
v -3.6 -2.209895E-07 -5.8
v -8.4 -2.209895E-07 -4.600002
v 14.48297 -2.209895E-07 -3.831118
v -16 -2.209895E-07 0.9999979
v -11.6 -2.209895E-07 -5
v 15.74179 -2.209895E-07 0.406814
v 8.399999 -2.209895E-07 4.199998
v 12 -2.209895E-07 5.399998
v 14.93745 -2.209895E-07 6.651206
v 4.799998 -2.209895E-07 3.799997
v -12 -2.209895E-07 3.399997
v -0.4000006 -2.209895E-07 3.799997
v -5.599999 -2.209895E-07 4.599998
v -16 -2.209895E-07 0.9999979
v -16 0.0224214 0.9999979
v -12 0.0224214 3.399997
v -12 -2.209895E-07 3.399997
v -12 -2.209895E-07 3.399997
v -12 0.0224214 3.399997
v -5.599999 0.0224214 4.599998
v -5.599999 -2.209895E-07 4.599998
v -5.599999 -2.209895E-07 4.599998
v -5.599999 0.0224214 4.599998
v -0.4000006 0.0224214 3.799997
v -0.4000006 -2.209895E-07 3.799997
v -0.4000006 -2.209895E-07 3.799997
v -0.4000006 0.0224214 3.799997
v 4.799998 0.0224214 3.799997
v 4.799998 -2.209895E-07 3.799997
v 4.799998 -2.209895E-07 3.799997
v 4.799998 0.0224214 3.799997
v 8.399999 0.0224214 4.199998
v 8.399999 -2.209895E-07 4.199998
v 8.399999 -2.209895E-07 4.199998
v 8.399999 0.0224214 4.199998
v 12 0.0224214 5.399998
v 12 -2.209895E-07 5.399998
v 12 -2.209895E-07 5.399998
v 12 0.0224214 5.399998
v 14.93745 0.0224214 6.651206
v 14.93745 -2.209895E-07 6.651206
v 14.93745 -2.209895E-07 6.651206
v 14.93745 0.0224214 6.651206
v 15.74179 0.0224214 0.406814
v 15.74179 -2.209895E-07 0.406814
v 15.74179 -2.209895E-07 0.406814
v 15.74179 0.0224214 0.406814
v 14.48297 0.0224214 -3.831118
v 14.48297 -2.209895E-07 -3.831118
v 14.48297 -2.209895E-07 -3.831118
v 14.48297 0.0224214 -3.831118
v 9.599998 0.0224214 -5.400001
v 9.599998 -2.209895E-07 -5.400001
v 9.599998 -2.209895E-07 -5.400001
v 9.599998 0.0224214 -5.400001
v 3.599999 0.0224214 -6.6
v 3.599999 -2.209895E-07 -6.6
v 3.599999 -2.209895E-07 -6.6
v 3.599999 0.0224214 -6.6
v -3.6 0.0224214 -5.8
v -3.6 -2.209895E-07 -5.8
v -3.6 -2.209895E-07 -5.8
v -3.6 0.0224214 -5.8
v -8.4 0.0224214 -4.600002
v -8.4 -2.209895E-07 -4.600002
v -8.4 -2.209895E-07 -4.600002
v -8.4 0.0224214 -4.600002
v -11.6 0.0224214 -5
v -11.6 -2.209895E-07 -5
v -11.6 -2.209895E-07 -5
v -11.6 0.0224214 -5
v -16 0.0224214 0.9999979
v -16 -2.209895E-07 0.9999979

vn 0 1 0
vn 0 1 0
vn 0 1 0
vn 0 1 0
vn 0 1 0
vn 0 1 0
vn 0 1 0
vn 0 1 0
vn 0 1 0
vn 0 1 0
vn 0 1 0
vn 0 1 0
vn 0 1 0
vn 0 1 0
vn 0 1 0
vn 0 -1 0
vn 0 -1 0
vn 0 -1 0
vn 0 -1 0
vn 0 -1 0
vn 0 -1 0
vn 0 -1 0
vn 0 -1 0
vn 0 -1 0
vn 0 -1 0
vn 0 -1 0
vn 0 -1 0
vn 0 -1 0
vn 0 -1 0
vn 0 -1 0
vn -0.4719934 0 0.881602
vn -0.4719934 0 0.881602
vn -0.4719934 0 0.881602
vn -0.4719934 0 0.881602
vn -0.1360555 0 0.9907012
vn -0.1360555 0 0.9907012
vn -0.1360555 0 0.9907012
vn -0.1360555 0 0.9907012
vn 0.2001572 0 0.9797637
vn 0.2001572 0 0.9797637
vn 0.2001572 0 0.9797637
vn 0.2001572 0 0.9797637
vn 0.04884962 0 0.9988062
vn 0.04884962 0 0.9988062
vn 0.04884962 0 0.9988062
vn 0.04884962 0 0.9988062
vn -0.0617488 0 0.9980917
vn -0.0617488 0 0.9980917
vn -0.0617488 0 0.9980917
vn -0.0617488 0 0.9980917
vn -0.2695075 0 0.9629983
vn -0.2695075 0 0.9629983
vn -0.2695075 0 0.9629983
vn -0.2695075 0 0.9629983
vn -0.3464711 0 0.9380606
vn -0.3464711 0 0.9380606
vn -0.3464711 0 0.9380606
vn -0.3464711 0 0.9380606
vn 0.9968625 0 0.07915254
vn 0.9968625 0 0.07915254
vn 0.9968625 0 0.07915254
vn 0.9968625 0 0.07915254
vn 0.9435514 0 -0.3312261
vn 0.9435514 0 -0.3312261
vn 0.9435514 0 -0.3312261
vn 0.9435514 0 -0.3312261
vn 0.2590221 0 -0.9658713
vn 0.2590221 0 -0.9658713
vn 0.2590221 0 -0.9658713
vn 0.2590221 0 -0.9658713
vn 0.147981 0 -0.9889901
vn 0.147981 0 -0.9889901
vn 0.147981 0 -0.9889901
vn 0.147981 0 -0.9889901
vn -0.1588505 0 -0.9873027
vn -0.1588505 0 -0.9873027
vn -0.1588505 0 -0.9873027
vn -0.1588505 0 -0.9873027
vn -0.2896371 0 -0.9571365
vn -0.2896371 0 -0.9571365
vn -0.2896371 0 -0.9571365
vn -0.2896371 0 -0.9571365
vn 0.07541428 0 -0.9971523
vn 0.07541428 0 -0.9971523
vn 0.07541428 0 -0.9971523
vn 0.07541428 0 -0.9971523
vn -0.8343301 0 -0.5512651
vn -0.8343301 0 -0.5512651
vn -0.8343301 0 -0.5512651
vn -0.8343301 0 -0.5512651

vt 0.3676758 0.07727051
vt 0.1593018 0
vt 0.5058594 0.1920166
vt 0.6582031 0.2834473
vt 0 0
vt 0.7705078 0.3349609
vt 0.9296875 0.5737305
vt 0.8056641 0.6743164
vt 0.1241455 0.2973633
vt 0.02342224 0.2529297
vt 0.8969727 0.3630371
vt 1 0.3769531
vt 0.637207 0.637207
vt 0.2435303 0.416748
vt 0.4401855 0.5668945
vt 0.637207 0.637207
vt 0.4401855 0.5668945
vt 0.2435303 0.416748
vt 0.1241455 0.2973633
vt 0.8056641 0.6743164
vt 0 0
vt 0.02342224 0.2529297
vt 0.9296875 0.5737305
vt 0.7705078 0.3349609
vt 0.8969727 0.3630371
vt 1 0.3769531
vt 0.6582031 0.2834473
vt 0.1593018 0
vt 0.5058594 0.1920166
vt 0.3676758 0.07727051
vt 0 0
vt 0 0
vt 0.1593018 0
vt 0.1593018 0
vt 0.1593018 0
vt 0.1593018 0
vt 0.3676758 0.07727051
vt 0.3676758 0.07727051
vt 0.3676758 0.07727051
vt 0.3676758 0.07727051
vt 0.5058594 0.1920166
vt 0.5058594 0.1920166
vt 0.5058594 0.1920166
vt 0.5058594 0.1920166
vt 0.6582031 0.2834473
vt 0.6582031 0.2834473
vt 0.6582031 0.2834473
vt 0.6582031 0.2834473
vt 0.7705078 0.3349609
vt 0.7705078 0.3349609
vt 0.7705078 0.3349609
vt 0.7705078 0.3349609
vt 0.8969727 0.3630371
vt 0.8969727 0.3630371
vt 0.8969727 0.3630371
vt 0.8969727 0.3630371
vt 1 0.3769531
vt 1 0.3769531
vt 1 0.3769531
vt 1 0.3769531
vt 0.9296875 0.5737305
vt 0.9296875 0.5737305
vt 0.9296875 0.5737305
vt 0.9296875 0.5737305
vt 0.8056641 0.6743164
vt 0.8056641 0.6743164
vt 0.8056641 0.6743164
vt 0.8056641 0.6743164
vt 0.637207 0.637207
vt 0.637207 0.637207
vt 0.637207 0.637207
vt 0.637207 0.637207
vt 0.4401855 0.5668945
vt 0.4401855 0.5668945
vt 0.4401855 0.5668945
vt 0.4401855 0.5668945
vt 0.2435303 0.416748
vt 0.2435303 0.416748
vt 0.2435303 0.416748
vt 0.2435303 0.416748
vt 0.1241455 0.2973633
vt 0.1241455 0.2973633
vt 0.1241455 0.2973633
vt 0.1241455 0.2973633
vt 0.02342224 0.2529297
vt 0.02342224 0.2529297
vt 0.02342224 0.2529297
vt 0.02342224 0.2529297
vt 0 0
vt 0 0

g Path_1888_230
usemtl Path_1888_230
usemap Path_1888_230
f 1/1/1 3/3/3 2/2/2
f 4/4/4 2/2/2 3/3/3
f 4/4/4 5/5/5 2/2/2
f 6/6/6 5/5/5 4/4/4
f 7/7/7 5/5/5 6/6/6
f 8/8/8 5/5/5 7/7/7
f 9/9/9 5/5/5 8/8/8
f 5/5/5 9/9/9 10/10/10
f 7/7/7 6/6/6 11/11/11
f 7/7/7 11/11/11 12/12/12
f 13/13/13 9/9/9 8/8/8
f 13/13/13 14/14/14 9/9/9
f 14/14/14 13/13/13 15/15/15
f 16/16/16 18/18/18 17/17/17
f 18/18/18 16/16/16 19/19/19
f 19/19/19 16/16/16 20/20/20
f 21/21/21 19/19/19 20/20/20
f 19/19/19 21/21/21 22/22/22
f 21/21/21 20/20/20 23/23/23
f 21/21/21 23/23/23 24/24/24
f 24/24/24 23/23/23 25/25/25
f 25/25/25 23/23/23 26/26/26
f 21/21/21 24/24/24 27/27/27
f 21/21/21 27/27/27 28/28/28
f 29/29/29 28/28/28 27/27/27
f 28/28/28 29/29/29 30/30/30
f 31/31/31 33/33/33 32/32/32
f 31/31/31 34/34/34 33/33/33
f 35/35/35 37/37/37 36/36/36
f 35/35/35 38/38/38 37/37/37
f 39/39/39 41/41/41 40/40/40
f 39/39/39 42/42/42 41/41/41
f 43/43/43 45/45/45 44/44/44
f 43/43/43 46/46/46 45/45/45
f 47/47/47 49/49/49 48/48/48
f 47/47/47 50/50/50 49/49/49
f 51/51/51 53/53/53 52/52/52
f 51/51/51 54/54/54 53/53/53
f 55/55/55 57/57/57 56/56/56
f 55/55/55 58/58/58 57/57/57
f 59/59/59 61/61/61 60/60/60
f 59/59/59 62/62/62 61/61/61
f 63/63/63 65/65/65 64/64/64
f 63/63/63 66/66/66 65/65/65
f 67/67/67 69/69/69 68/68/68
f 67/67/67 70/70/70 69/69/69
f 71/71/71 73/73/73 72/72/72
f 71/71/71 74/74/74 73/73/73
f 75/75/75 77/77/77 76/76/76
f 75/75/75 78/78/78 77/77/77
f 79/79/79 81/81/81 80/80/80
f 79/79/79 82/82/82 81/81/81
f 83/83/83 85/85/85 84/84/84
f 83/83/83 86/86/86 85/85/85
f 87/87/87 89/89/89 88/88/88
f 87/87/87 90/90/90 89/89/89
