#pCube3_2011_201.obj

v -0.00287042 -0.2000001 0.1999996
v -0.00287042 0.199994 0.1999996
v 0.3971294 0.199994 0.1999999
v 0.3971294 -0.2000001 0.1999999
v -0.00287042 0.199994 0.1999996
v -0.002870565 0.199994 -0.2
v 0.3971295 0.199994 -0.2000003
v 0.3971294 0.199994 0.1999999
v -0.002870565 0.199994 -0.2
v -0.002870565 -0.2000001 -0.2
v 0.3971295 -0.2000001 -0.2000003
v 0.3971295 0.199994 -0.2000003
v -0.002870565 -0.2000001 -0.2
v -0.00287042 -0.2000001 0.1999996
v 0.3971294 -0.2000001 0.1999999
v 0.3971295 -0.2000001 -0.2000003
v 0.3971294 -0.2000001 0.1999999
v 0.3971294 0.199994 0.1999999
v 0.3971295 0.199994 -0.2000003
v 0.3971295 -0.2000001 -0.2000003
v -0.002870565 -0.2000001 -0.2
v -0.002870565 0.199994 -0.2
v -0.00287042 0.199994 0.1999996
v -0.00287042 -0.2000001 0.1999996

vn 0.9225667 0 0.3858377
vn 0.9225667 0 0.3858377
vn 0.9225667 0 0.3858377
vn 0.9225667 0 0.3858377
vn 0 1 0
vn 0 1 0
vn 0 1 0
vn 0 1 0
vn -0.9225667 0 -0.3858377
vn -0.9225667 0 -0.3858377
vn -0.9225667 0 -0.3858377
vn -0.9225667 0 -0.3858377
vn 0 -1 0
vn 0 -1 0
vn 0 -1 0
vn 0 -1 0
vn 0.6476368 0 -0.7619493
vn 0.6476368 0 -0.7619493
vn 0.6476368 0 -0.7619493
vn 0.6476368 0 -0.7619493
vn -0.6476368 0 0.7619493
vn -0.6476368 0 0.7619493
vn -0.6476368 0 0.7619493
vn -0.6476368 0 0.7619493

vt 0.375 0
vt 0.375 0.25
vt 0.625 0.25
vt 0.625 0
vt 0.375 0.25
vt 0.375 0.5
vt 0.625 0.5
vt 0.625 0.25
vt 0.375 0.5
vt 0.375 0.75
vt 0.625 0.75
vt 0.625 0.5
vt 0.375 0.75
vt 0.375 1
vt 0.625 1
vt 0.625 0.75
vt 0.625 0
vt 0.625 0.25
vt 0.875 0.25
vt 0.875 0
vt 0.125 0
vt 0.125 0.25
vt 0.375 0.25
vt 0.375 0

g pCube3_2011_201
usemtl pCube3_2011_201
usemap pCube3_2011_201
f 1/1/1 3/3/3 2/2/2
f 1/1/1 4/4/4 3/3/3
f 5/5/5 7/7/7 6/6/6
f 5/5/5 8/8/8 7/7/7
f 9/9/9 11/11/11 10/10/10
f 9/9/9 12/12/12 11/11/11
f 13/13/13 15/15/15 14/14/14
f 13/13/13 16/16/16 15/15/15
f 17/17/17 19/19/19 18/18/18
f 17/17/17 20/20/20 19/19/19
f 21/21/21 23/23/23 22/22/22
f 21/21/21 24/24/24 23/23/23
