#pCube34_1682_229.obj

v -0.04317611 -0.1999985 0.07254684
v -0.04317611 0.2000022 0.07254684
v 0.1092333 0.2000022 1.66934
v 0.1092333 -0.1999985 1.66934
v -0.04317611 0.2000022 0.07254684
v 0.04098833 0.2000022 -0.09546669
v 0.1933978 0.2000022 1.501327
v 0.1092333 0.2000022 1.66934
v 0.04098833 0.2000022 -0.09546669
v 0.04098833 -0.1999985 -0.09546669
v 0.1933978 -0.1999985 1.501327
v 0.1933978 0.2000022 1.501327
v 0.04098833 -0.1999985 -0.09546669
v -0.04317611 -0.1999985 0.07254684
v 0.1092333 -0.1999985 1.66934
v 0.1933978 -0.1999985 1.501327
v 0.1092333 -0.1999985 1.66934
v 0.1092333 0.2000022 1.66934
v 0.1933978 0.2000022 1.501327
v 0.1933978 -0.1999985 1.501327
v 0.04098833 -0.1999985 -0.09546669
v 0.04098833 0.2000022 -0.09546669
v -0.04317611 0.2000022 0.07254684
v -0.04317611 -0.1999985 0.07254684

vn 0.01886788 0 0.999822
vn 0.01886788 0 0.999822
vn 0.01886788 0 0.999822
vn 0.01886788 0 0.999822
vn 0 1 0
vn 0 1 0
vn 0 1 0
vn 0 1 0
vn -0.01886768 0 -0.999822
vn -0.01886768 0 -0.999822
vn -0.01886768 0 -0.999822
vn -0.01886768 0 -0.999822
vn 0 -1 0
vn 0 -1 0
vn 0 -1 0
vn 0 -1 0
vn 0.9988798 0 -0.04732021
vn 0.9988798 0 -0.04732021
vn 0.9988798 0 -0.04732021
vn 0.9988798 0 -0.04732021
vn -0.9988797 0 0.04732189
vn -0.9988797 0 0.04732189
vn -0.9988797 0 0.04732189
vn -0.9988797 0 0.04732189

vt 0.375 0
vt 0.375 0.25
vt 0.625 0.25
vt 0.625 0
vt 0.375 0.25
vt 0.375 0.5
vt 0.625 0.5
vt 0.625 0.25
vt 0.375 0.5
vt 0.375 0.75
vt 0.625 0.75
vt 0.625 0.5
vt 0.375 0.75
vt 0.375 1
vt 0.625 1
vt 0.625 0.75
vt 0.625 0
vt 0.625 0.25
vt 0.875 0.25
vt 0.875 0
vt 0.125 0
vt 0.125 0.25
vt 0.375 0.25
vt 0.375 0

g pCube34_1682_229
usemtl pCube34_1682_229
usemap pCube34_1682_229
f 1/1/1 3/3/3 2/2/2
f 1/1/1 4/4/4 3/3/3
f 5/5/5 7/7/7 6/6/6
f 5/5/5 8/8/8 7/7/7
f 9/9/9 11/11/11 10/10/10
f 9/9/9 12/12/12 11/11/11
f 13/13/13 15/15/15 14/14/14
f 13/13/13 16/16/16 15/15/15
f 17/17/17 19/19/19 18/18/18
f 17/17/17 20/20/20 19/19/19
f 21/21/21 23/23/23 22/22/22
f 21/21/21 24/24/24 23/23/23
