#pCube18_1859_219.obj

v -0.002870582 -0.1999955 0.1999996
v -0.002870582 0.1999986 0.1999996
v 0.3971293 0.1999986 0.1999996
v 0.3971293 -0.1999955 0.1999996
v -0.002870582 0.1999986 0.1999996
v -0.002870585 0.1999986 -0.2000003
v 0.3971297 0.1999986 -0.1999994
v 0.3971293 0.1999986 0.1999996
v -0.002870585 0.1999986 -0.2000003
v -0.002870585 -0.1999955 -0.2000003
v 0.3971297 -0.1999955 -0.1999994
v 0.3971297 0.1999986 -0.1999994
v -0.002870585 -0.1999955 -0.2000003
v -0.002870582 -0.1999955 0.1999996
v 0.3971293 -0.1999955 0.1999996
v 0.3971297 -0.1999955 -0.1999994
v 0.3971293 -0.1999955 0.1999996
v 0.3971293 0.1999986 0.1999996
v 0.3971297 0.1999986 -0.1999994
v 0.3971297 -0.1999955 -0.1999994
v -0.002870585 -0.1999955 -0.2000003
v -0.002870585 0.1999986 -0.2000003
v -0.002870582 0.1999986 0.1999996
v -0.002870582 -0.1999955 0.1999996

vn 0.6396675 0 0.7686517
vn 0.6396675 0 0.7686517
vn 0.6396675 0 0.7686517
vn 0.6396675 0 0.7686517
vn 0 1 0
vn 0 1 0
vn 0 1 0
vn 0 1 0
vn -0.6396675 0 -0.7686517
vn -0.6396675 0 -0.7686517
vn -0.6396675 0 -0.7686517
vn -0.6396675 0 -0.7686517
vn 0 -1 0
vn 0 -1 0
vn 0 -1 0
vn 0 -1 0
vn 0.9599648 0 0.2801208
vn 0.9599648 0 0.2801208
vn 0.9599648 0 0.2801208
vn 0.9599648 0 0.2801208
vn -0.9599648 0 -0.2801208
vn -0.9599648 0 -0.2801208
vn -0.9599648 0 -0.2801208
vn -0.9599648 0 -0.2801208

vt 0.375 0
vt 0.375 0.25
vt 0.625 0.25
vt 0.625 0
vt 0.375 0.25
vt 0.375 0.5
vt 0.625 0.5
vt 0.625 0.25
vt 0.375 0.5
vt 0.375 0.75
vt 0.625 0.75
vt 0.625 0.5
vt 0.375 0.75
vt 0.375 1
vt 0.625 1
vt 0.625 0.75
vt 0.625 0
vt 0.625 0.25
vt 0.875 0.25
vt 0.875 0
vt 0.125 0
vt 0.125 0.25
vt 0.375 0.25
vt 0.375 0

g pCube18_1859_219
usemtl pCube18_1859_219
usemap pCube18_1859_219
f 1/1/1 3/3/3 2/2/2
f 1/1/1 4/4/4 3/3/3
f 5/5/5 7/7/7 6/6/6
f 5/5/5 8/8/8 7/7/7
f 9/9/9 11/11/11 10/10/10
f 9/9/9 12/12/12 11/11/11
f 13/13/13 15/15/15 14/14/14
f 13/13/13 16/16/16 15/15/15
f 17/17/17 19/19/19 18/18/18
f 17/17/17 20/20/20 19/19/19
f 21/21/21 23/23/23 22/22/22
f 21/21/21 24/24/24 23/23/23
