#pCylinder9_7_3384_249.obj

v 0.01454505 -0.02577564 -0.04035769
v 0.004623581 -0.03397588 0.001092076
v 0.03878422 -0.02577564 -0.02105412
v -0.009663697 -0.02577564 -0.03817476
v -0.01825106 -0.02577564 -0.0177798
v -0.03822242 -0.02223209 0.001092023
v -0.02135115 -0.02577564 0.01996383
v -0.005297877 -0.02577564 0.03271864
v 0.02109375 -0.02577564 0.04035879
v 0.03059831 -0.02577564 0.01996381
v 0.0321892 -0.02223209 0.001092066
v 0.03878422 -0.02577564 -0.02105412
v 0.04796663 -0.01489215 -0.02772553
v 0.0180524 -0.01489215 -0.05115217
v 0.01454505 -0.02577564 -0.04035769
v 0.01454505 -0.02577564 -0.04035769
v 0.0180524 -0.01489215 -0.05115217
v -0.01317104 -0.01489215 -0.04896924
v -0.009663697 -0.02577564 -0.03817476
v -0.009663697 -0.02577564 -0.03817476
v -0.01317104 -0.01489215 -0.04896924
v -0.02743346 -0.01489215 -0.02445119
v -0.01825106 -0.02577564 -0.0177798
v -0.01825106 -0.02577564 -0.0177798
v -0.02743346 -0.01489215 -0.02445119
v -0.04796721 -0.01288797 0.001091964
v -0.03822242 -0.02223209 0.001092023
v -0.03822242 -0.02223209 0.001092023
v -0.04796721 -0.01288797 0.001091964
v -0.03053355 -0.01489215 0.02663525
v -0.02135115 -0.02577564 0.01996383
v -0.02135115 -0.02577564 0.01996383
v -0.03053355 -0.01489215 0.02663525
v -0.00880524 -0.01489215 0.04351312
v -0.005297877 -0.02577564 0.03271864
v -0.005297877 -0.02577564 0.03271864
v -0.00880524 -0.01489215 0.04351312
v 0.02460113 -0.01489215 0.05115327
v 0.02109375 -0.02577564 0.04035879
v 0.02109375 -0.02577564 0.04035879
v 0.02460113 -0.01489215 0.05115327
v 0.03978069 -0.01489215 0.02663521
v 0.03059831 -0.02577564 0.01996381
v 0.03059831 -0.02577564 0.01996381
v 0.03978069 -0.01489215 0.02663521
v 0.04193401 -0.01288797 0.001092011
v 0.0321892 -0.02223209 0.001092066
v 0.0321892 -0.02223209 0.001092066
v 0.04193401 -0.01288797 0.001092011
v 0.04796663 -0.01489215 -0.02772553
v 0.03878422 -0.02577564 -0.02105412
v 0.04796663 -0.01489215 -0.02772553
v 0.04796663 -0.0001480486 -0.02772553
v 0.0180524 -0.0001480486 -0.05115217
v 0.0180524 -0.01489215 -0.05115217
v 0.0180524 -0.01489215 -0.05115217
v 0.0180524 -0.0001480486 -0.05115217
v -0.01317104 -0.0001480486 -0.04896924
v -0.01317104 -0.01489215 -0.04896924
v -0.01317104 -0.01489215 -0.04896924
v -0.01317104 -0.0001480486 -0.04896924
v -0.02743346 -0.0001480486 -0.02445119
v -0.02743346 -0.01489215 -0.02445119
v -0.02743346 -0.01489215 -0.02445119
v -0.02743346 -0.0001480486 -0.02445119
v -0.04796721 -0.0002292619 0.001091964
v -0.04796721 -0.01288797 0.001091964
v -0.04796721 -0.01288797 0.001091964
v -0.04796721 -0.0002292619 0.001091964
v -0.03053355 -0.0001480486 0.02663525
v -0.03053355 -0.01489215 0.02663525
v -0.03053355 -0.01489215 0.02663525
v -0.03053355 -0.0001480486 0.02663525
v -0.00880524 -0.0001480486 0.04351312
v -0.00880524 -0.01489215 0.04351312
v -0.00880524 -0.01489215 0.04351312
v -0.00880524 -0.0001480486 0.04351312
v 0.02460113 -0.0001480486 0.05115327
v 0.02460113 -0.01489215 0.05115327
v 0.02460113 -0.01489215 0.05115327
v 0.02460113 -0.0001480486 0.05115327
v 0.03978069 -0.0001480486 0.02663521
v 0.03978069 -0.01489215 0.02663521
v 0.03978069 -0.01489215 0.02663521
v 0.03978069 -0.0001480486 0.02663521
v 0.04193401 -0.0002292619 0.001092011
v 0.04193401 -0.01288797 0.001092011
v 0.04193401 -0.01288797 0.001092011
v 0.04193401 -0.0002292619 0.001092011
v 0.04796663 -0.0001480486 -0.02772553
v 0.04796663 -0.01489215 -0.02772553
v 0.04796663 -0.0001480486 -0.02772553
v 0.04568862 0.01428359 -0.02539622
v 0.01714483 0.01428359 -0.04799066
v 0.0180524 -0.0001480486 -0.05115217
v 0.0180524 -0.0001480486 -0.05115217
v 0.01714483 0.01428359 -0.04799066
v -0.0118294 0.01428359 -0.04559703
v -0.01317104 -0.0001480486 -0.04896924
v -0.01317104 -0.0001480486 -0.04896924
v -0.0118294 0.01428359 -0.04559703
v -0.02321056 0.01428359 -0.02180581
v -0.02743346 -0.0001480486 -0.02445119
v -0.02743346 -0.0001480486 -0.02445119
v -0.02321056 0.01428359 -0.02180581
v -0.04530439 0.01197245 0.001197357
v -0.04796721 -0.0002292619 0.001091964
v -0.04796721 -0.0002292619 0.001091964
v -0.04530439 0.01197245 0.001197357
v -0.02660988 0.01428359 0.02420062
v -0.03053355 -0.0001480486 0.02663525
v -0.03053355 -0.0001480486 0.02663525
v -0.02660988 0.01428359 0.02420062
v -0.007042159 0.01428359 0.03961413
v -0.00880524 -0.0001480486 0.04351312
v -0.00880524 -0.0001480486 0.04351312
v -0.007042159 0.01428359 0.03961413
v 0.02432565 0.01428359 0.04799181
v 0.02460113 -0.0001480486 0.05115327
v 0.02460113 -0.0001480486 0.05115327
v 0.02432565 0.01428359 0.04799181
v 0.03671253 0.01428359 0.02420059
v 0.03978069 -0.0001480486 0.02663521
v 0.03978069 -0.0001480486 0.02663521
v 0.03671253 0.01428359 0.02420059
v 0.03865171 0.01197245 0.001197388
v 0.04193401 -0.0002292619 0.001092011
v 0.04193401 -0.0002292619 0.001092011
v 0.03865171 0.01197245 0.001197388
v 0.04568862 0.01428359 -0.02539622
v 0.04796663 -0.0001480486 -0.02772553
v 0.04568862 0.01428359 -0.02539622
v 0.03225219 0.02437468 -0.01614715
v 0.01203618 0.02437468 -0.03256805
v 0.01714483 0.01428359 -0.04799066
v 0.01714483 0.01428359 -0.04799066
v 0.01203618 0.02437468 -0.03256805
v -0.002592528 0.02437468 -0.02139321
v -0.0118294 0.01428359 -0.04559703
v -0.0118294 0.01428359 -0.04559703
v -0.002592528 0.02437468 -0.02139321
v -0.01125341 0.02437468 -0.01279468
v -0.02321056 0.01428359 -0.02180581
v -0.02321056 0.01428359 -0.02180581
v -0.01125341 0.02437468 -0.01279468
v -0.03124501 0.02074669 0.001118016
v -0.04530439 0.01197245 0.001197357
v -0.04530439 0.01197245 0.001197357
v -0.03124501 0.02074669 0.001118016
v -0.01442743 0.02437468 0.01503083
v -0.02660988 0.01428359 0.02420062
v -0.02660988 0.01428359 0.02420062
v -0.01442743 0.02437468 0.01503083
v -0.002592529 0.02437468 0.0247468
v -0.007042159 0.01428359 0.03961413
v -0.007042159 0.01428359 0.03961413
v -0.002592529 0.02437468 0.0247468
v 0.01874105 0.02437468 0.03256914
v 0.02432565 0.01428359 0.04799181
v 0.02432565 0.01428359 0.04799181
v 0.01874105 0.02437468 0.03256914
v 0.02387107 0.02437468 0.01503075
v 0.03671253 0.01428359 0.02420059
v 0.03671253 0.01428359 0.02420059
v 0.02387107 0.02437468 0.01503075
v 0.0250439 0.02074669 0.001118031
v 0.03865171 0.01197245 0.001197388
v 0.03865171 0.01197245 0.001197388
v 0.0250439 0.02074669 0.001118031
v 0.03225219 0.02437468 -0.01614715
v 0.04568862 0.01428359 -0.02539622
v 0.03225219 0.02437468 -0.01614715
v 0.004623584 0.03397619 0.001091961
v 0.01203618 0.02437468 -0.03256805
v 0.01203618 0.02437468 -0.03256805
v 0.004623584 0.03397619 0.001091961
v -0.002592528 0.02437468 -0.02139321
v -0.002592528 0.02437468 -0.02139321
v 0.004623584 0.03397619 0.001091961
v -0.01125341 0.02437468 -0.01279468
v -0.01125341 0.02437468 -0.01279468
v 0.004623584 0.03397619 0.001091961
v -0.03124501 0.02074669 0.001118016
v -0.03124501 0.02074669 0.001118016
v 0.004623584 0.03397619 0.001091961
v -0.01442743 0.02437468 0.01503083
v -0.01442743 0.02437468 0.01503083
v 0.004623584 0.03397619 0.001091961
v -0.002592529 0.02437468 0.0247468
v -0.002592529 0.02437468 0.0247468
v 0.004623584 0.03397619 0.001091961
v 0.01874105 0.02437468 0.03256914
v 0.01874105 0.02437468 0.03256914
v 0.004623584 0.03397619 0.001091961
v 0.02387107 0.02437468 0.01503075
v 0.02387107 0.02437468 0.01503075
v 0.004623584 0.03397619 0.001091961
v 0.0250439 0.02074669 0.001118031
v 0.0250439 0.02074669 0.001118031
v 0.004623584 0.03397619 0.001091961
v 0.03225219 0.02437468 -0.01614715

vn 0.03215245 -0.9818566 -0.1868773
vn 0.001650411 -0.9999983 -0.0002654612
vn 0.1884683 -0.9784298 -0.08458263
vn -0.1092398 -0.9810985 -0.1597237
vn -0.272152 -0.9602383 -0.06224974
vn -0.2639886 -0.9642732 0.02205811
vn -0.2064286 -0.9679797 0.1428352
vn -0.06542835 -0.9703191 0.2328072
vn 0.08514114 -0.9818348 0.1695606
vn 0.2843865 -0.95856 -0.01692095
vn 0.400532 -0.9154218 0.03970378
vn 0.351081 -0.7039261 -0.6174383
vn 0.3510809 -0.7039261 -0.6174383
vn 0.351081 -0.7039261 -0.6174382
vn 0.3510809 -0.7039261 -0.6174383
vn -0.1618429 -0.7031068 -0.6924213
vn -0.1618429 -0.7031069 -0.6924213
vn -0.1618429 -0.7031068 -0.6924213
vn -0.1618429 -0.7031069 -0.6924214
vn -0.7114707 -0.6620907 -0.2354678
vn -0.7114708 -0.6620906 -0.2354679
vn -0.7114707 -0.6620907 -0.2354678
vn -0.7114708 -0.6620906 -0.2354678
vn -0.6377978 -0.6863982 -0.3493869
vn -0.6377979 -0.6863981 -0.3493869
vn -0.6377978 -0.6863981 -0.3493869
vn -0.6377978 -0.6863981 -0.3493869
vn -0.5436478 -0.6953635 0.4700174
vn -0.5436478 -0.6953635 0.4700174
vn -0.5436478 -0.6953634 0.4700174
vn -0.5436478 -0.6953635 0.4700174
vn -0.3492515 -0.703966 0.6184294
vn -0.3492516 -0.703966 0.6184295
vn -0.3492516 -0.703966 0.6184294
vn -0.3492516 -0.703966 0.6184294
vn -0.07138451 -0.6928936 0.7174973
vn -0.07138454 -0.6928936 0.7174973
vn -0.0713845 -0.6928936 0.7174973
vn -0.07138451 -0.6928936 0.7174973
vn 0.6987453 -0.6678944 0.2562652
vn 0.6987453 -0.6678944 0.2562652
vn 0.6987453 -0.6678944 0.2562652
vn 0.6987454 -0.6678944 0.2562651
vn 0.7219522 -0.6790239 -0.1330836
vn 0.7219522 -0.6790239 -0.1330836
vn 0.7219522 -0.6790239 -0.1330836
vn 0.7219522 -0.6790239 -0.1330836
vn 0.7761085 -0.6155776 0.1368195
vn 0.7761085 -0.6155775 0.1368195
vn 0.7761085 -0.6155776 0.1368195
vn 0.7761085 -0.6155775 0.1368195
vn 0.4911004 -4.17952E-17 -0.871103
vn 0.4911005 -4.179523E-17 -0.871103
vn 0.4911005 -4.179523E-17 -0.871103
vn 0.4911004 -4.17952E-17 -0.871103
vn -0.2190241 1.773895E-16 -0.9757195
vn -0.2190241 1.773895E-16 -0.9757195
vn -0.2190241 1.773895E-16 -0.9757195
vn -0.2190241 1.773895E-16 -0.9757195
vn -0.9301971 3.138785E-16 -0.3670605
vn -0.9301971 3.138785E-16 -0.3670605
vn -0.9301971 3.138785E-16 -0.3670605
vn -0.9301971 3.138785E-16 -0.3670605
vn -0.8647776 3.105283E-16 -0.5021551
vn -0.8647777 3.105283E-16 -0.5021551
vn -0.8647776 3.105283E-16 -0.5021551
vn -0.8647776 3.105283E-16 -0.5021551
vn -0.7317497 1.340026E-16 0.6815735
vn -0.7317497 1.340026E-16 0.6815735
vn -0.7317497 1.340025E-16 0.6815736
vn -0.7317497 1.340026E-16 0.6815735
vn -0.4876532 4.056518E-17 0.8730375
vn -0.4876532 4.056518E-17 0.8730375
vn -0.4876532 4.056518E-17 0.8730375
vn -0.4876532 4.056518E-17 0.8730375
vn -0.07375553 -9.454879E-17 0.9972764
vn -0.07375553 -9.454879E-17 0.9972764
vn -0.07375553 -9.454879E-17 0.9972764
vn -0.07375553 -9.454879E-17 0.9972764
vn 0.919754 -3.13794E-16 0.3924956
vn 0.919754 -3.13794E-16 0.3924956
vn 0.919754 -3.13794E-16 0.3924956
vn 0.919754 -3.13794E-16 0.3924956
vn 0.9977621 -2.830804E-16 -0.06686373
vn 0.9977621 -2.830804E-16 -0.06686372
vn 0.9977621 -2.830804E-16 -0.06686373
vn 0.9977621 -2.830804E-16 -0.06686372
vn 0.998469 -2.97504E-16 0.05531508
vn 0.998469 -2.97504E-16 0.05531506
vn 0.998469 -2.97504E-16 0.05531508
vn 0.998469 -2.97504E-16 0.05531508
vn 0.4820261 0.212757 -0.8499327
vn 0.482026 0.212757 -0.8499326
vn 0.482026 0.212757 -0.8499326
vn 0.482026 0.212757 -0.8499326
vn -0.2193781 0.2212333 -0.9502258
vn -0.2193781 0.2212333 -0.9502258
vn -0.2193781 0.2212333 -0.9502258
vn -0.2193781 0.2212333 -0.9502258
vn -0.911579 0.2588966 -0.3193685
vn -0.911579 0.2588966 -0.3193685
vn -0.911579 0.2588966 -0.3193686
vn -0.911579 0.2588965 -0.3193685
vn -0.8194275 0.2546348 -0.5135171
vn -0.8194274 0.2546348 -0.5135171
vn -0.8194275 0.2546348 -0.5135171
vn -0.8194275 0.2546348 -0.5135171
vn -0.6888815 0.2437819 0.6826513
vn -0.6888815 0.2437819 0.6826513
vn -0.6888815 0.2437819 0.6826513
vn -0.6888815 0.2437819 0.6826513
vn -0.4705213 0.2822602 0.8360256
vn -0.4705214 0.2822602 0.8360256
vn -0.4705214 0.2822603 0.8360256
vn -0.4705214 0.2822603 0.8360256
vn -0.08855975 0.242386 0.9661295
vn -0.08855973 0.242386 0.9661295
vn -0.08855975 0.242386 0.9661295
vn -0.08855975 0.242386 0.9661295
vn 0.9156729 0.1930069 0.35255
vn 0.9156729 0.1930069 0.35255
vn 0.9156729 0.1930069 0.35255
vn 0.9156729 0.1930069 0.35255
vn 0.9684487 0.2371581 -0.07657152
vn 0.9684488 0.2371581 -0.07657152
vn 0.9684488 0.2371581 -0.07657153
vn 0.9684488 0.2371581 -0.07657152
vn 0.9801557 0.178262 0.08670314
vn 0.9801557 0.178262 0.08670311
vn 0.9801557 0.178262 0.08670314
vn 0.9801557 0.178262 0.08670314
vn 0.2738314 0.8368365 -0.474047
vn 0.2738314 0.8368365 -0.474047
vn 0.2738314 0.8368365 -0.474047
vn 0.2738314 0.8368365 -0.474047
vn -0.200767 0.8884323 -0.4127714
vn -0.200767 0.8884322 -0.4127714
vn -0.200767 0.8884323 -0.4127714
vn -0.200767 0.8884323 -0.4127714
vn -0.4546124 0.8693343 -0.1938682
vn -0.4546125 0.8693343 -0.1938682
vn -0.4546124 0.8693343 -0.1938682
vn -0.4546125 0.8693343 -0.1938682
vn -0.5042375 0.8049012 -0.3128546
vn -0.5042375 0.8049013 -0.3128546
vn -0.5042375 0.8049013 -0.3128546
vn -0.5042375 0.8049013 -0.3128546
vn -0.4199126 0.8185278 0.392027
vn -0.4199125 0.8185279 0.392027
vn -0.4199126 0.8185278 0.392027
vn -0.4199126 0.8185278 0.392027
vn -0.284689 0.8222618 0.4927853
vn -0.284689 0.8222617 0.4927852
vn -0.284689 0.8222617 0.4927853
vn -0.284689 0.8222617 0.4927852
vn -0.08453173 0.8172352 0.5700706
vn -0.08453172 0.8172352 0.5700706
vn -0.08453172 0.8172352 0.5700706
vn -0.08453172 0.8172352 0.5700706
vn 0.5862006 0.796234 0.1495983
vn 0.5862007 0.796234 0.1495983
vn 0.5862007 0.796234 0.1495984
vn 0.5862007 0.796234 0.1495983
vn 0.5783323 0.7985129 -0.1670578
vn 0.5783322 0.798513 -0.1670578
vn 0.5783322 0.798513 -0.1670578
vn 0.5783323 0.7985129 -0.1670578
vn 0.6499027 0.7325384 0.2025183
vn 0.6499026 0.7325385 0.2025182
vn 0.6499027 0.7325384 0.2025183
vn 0.6499027 0.7325384 0.2025183
vn 0.150752 0.9546866 -0.2566061
vn 0.150752 0.9546866 -0.2566062
vn 0.150752 0.9546866 -0.2566061
vn -0.2851655 0.9181486 -0.2751057
vn -0.2851655 0.9181486 -0.2751057
vn -0.2851655 0.9181486 -0.2751057
vn -0.3334881 0.9097521 -0.2472575
vn -0.3334881 0.9097521 -0.2472575
vn -0.3334881 0.9097521 -0.2472575
vn -0.3687038 0.9095349 -0.1918419
vn -0.3687039 0.9095349 -0.1918419
vn -0.3687039 0.9095349 -0.1918419
vn -0.3112474 0.9244465 0.2202798
vn -0.3112473 0.9244465 0.2202798
vn -0.3112474 0.9244465 0.2202798
vn -0.1978822 0.9219851 0.3328445
vn -0.1978822 0.9219851 0.3328445
vn -0.1978822 0.9219851 0.3328445
vn -0.07215254 0.9320197 0.3551514
vn -0.07215256 0.9320197 0.3551514
vn -0.07215255 0.9320197 0.3551514
vn 0.3906665 0.9190344 0.05248516
vn 0.3906666 0.9190344 0.05248515
vn 0.3906666 0.9190344 0.05248516
vn 0.5041837 0.8268818 -0.2491282
vn 0.5041836 0.8268818 -0.2491281
vn 0.5041836 0.8268819 -0.2491281
vn 0.5544626 0.7785741 0.2939273
vn 0.5544625 0.7785741 0.2939273
vn 0.5544626 0.7785741 0.2939273

vt 0.5482839 0.007647395
vt 0.5 0.15
vt 0.6264089 0.06440853
vt 0.4517161 0.00764741
vt 0.3735911 0.06440856
vt 0.34375 0.15625
vt 0.3735911 0.2480915
vt 0.4517161 0.3048526
vt 0.5482839 0.3048526
vt 0.6264089 0.2480914
vt 0.65625 0.15625
vt 0 0
vt 0 1
vt 1 1
vt 1 0
vt 0 0
vt 0 1
vt 1 1
vt 1 0
vt 0 0
vt 0 1
vt 1 1
vt 1 0
vt 0 0
vt 0 1
vt 1 1
vt 1 0
vt 0 0
vt 0 1
vt 1 1
vt 1 0
vt 0 0
vt 0 1
vt 1 1
vt 1 0
vt 0 0
vt 0 1
vt 1 1
vt 1 0
vt 0 0
vt 0 1
vt 1 1
vt 1 0
vt 0 0
vt 0 1
vt 1 1
vt 1 0
vt 0 0
vt 0 1
vt 1 1
vt 1 0
vt 0 0
vt 0 1
vt 1 1
vt 1 0
vt 0 0
vt 0 1
vt 1 1
vt 1 0
vt 0 0
vt 0 1
vt 1 1
vt 1 0
vt 0 0
vt 0 1
vt 1 1
vt 1 0
vt 0 0
vt 0 1
vt 1 1
vt 1 0
vt 0 0
vt 0 1
vt 1 1
vt 1 0
vt 0 0
vt 0 1
vt 1 1
vt 1 0
vt 0 0
vt 0 1
vt 1 1
vt 1 0
vt 0 0
vt 0 1
vt 1 1
vt 1 0
vt 0 0
vt 0 1
vt 1 1
vt 1 0
vt 0 0
vt 0 1
vt 1 1
vt 1 0
vt 0 0
vt 0 1
vt 1 1
vt 1 0
vt 0 0
vt 0 1
vt 1 1
vt 1 0
vt 0 0
vt 0 1
vt 1 1
vt 1 0
vt 0 0
vt 0 1
vt 1 1
vt 1 0
vt 0 0
vt 0 1
vt 1 1
vt 1 0
vt 0 0
vt 0 1
vt 1 1
vt 1 0
vt 0 0
vt 0 1
vt 1 1
vt 1 0
vt 0 0
vt 0 1
vt 1 1
vt 1 0
vt 0 0
vt 0 1
vt 1 1
vt 1 0
vt 0 0
vt 0 1
vt 1 1
vt 1 0
vt 0 0
vt 0 1
vt 1 1
vt 1 0
vt 0 0
vt 0 1
vt 1 1
vt 1 0
vt 0 0
vt 0 1
vt 1 1
vt 1 0
vt 0 0
vt 0 1
vt 1 1
vt 1 0
vt 0 0
vt 0 1
vt 1 1
vt 1 0
vt 0 0
vt 0 1
vt 1 1
vt 1 0
vt 0 0
vt 0 1
vt 1 1
vt 1 0
vt 0 0
vt 0 1
vt 1 1
vt 1 0
vt 0 0
vt 0 1
vt 1 1
vt 1 0
vt 0 0
vt 0.5 1
vt 1 0
vt 0 0
vt 0.5 1
vt 1 0
vt 0 0
vt 0.5 1
vt 1 0
vt 0 0
vt 0.5 1
vt 1 0
vt 0 0
vt 0.5 1
vt 1 0
vt 0 0
vt 0.5 1
vt 1 0
vt 0 0
vt 0.5 1
vt 1 0
vt 0 0
vt 0.5 1
vt 1 0
vt 0 0
vt 0.5 1
vt 1 0
vt 0 0
vt 0.5 1
vt 1 0

g pCylinder9_7_3384_249
usemtl pCylinder9_7_3384_249
usemap pCylinder9_7_3384_249
f 1/1/1 3/3/3 2/2/2
f 4/4/4 1/1/1 2/2/2
f 5/5/5 4/4/4 2/2/2
f 6/6/6 5/5/5 2/2/2
f 7/7/7 6/6/6 2/2/2
f 8/8/8 7/7/7 2/2/2
f 9/9/9 8/8/8 2/2/2
f 10/10/10 9/9/9 2/2/2
f 11/11/11 10/10/10 2/2/2
f 3/3/3 11/11/11 2/2/2
f 12/12/12 14/14/14 13/13/13
f 12/12/12 15/15/15 14/14/14
f 16/16/16 18/18/18 17/17/17
f 16/16/16 19/19/19 18/18/18
f 20/20/20 22/22/22 21/21/21
f 20/20/20 23/23/23 22/22/22
f 24/24/24 26/26/26 25/25/25
f 24/24/24 27/27/27 26/26/26
f 28/28/28 30/30/30 29/29/29
f 28/28/28 31/31/31 30/30/30
f 32/32/32 34/34/34 33/33/33
f 32/32/32 35/35/35 34/34/34
f 36/36/36 38/38/38 37/37/37
f 36/36/36 39/39/39 38/38/38
f 40/40/40 42/42/42 41/41/41
f 40/40/40 43/43/43 42/42/42
f 44/44/44 46/46/46 45/45/45
f 44/44/44 47/47/47 46/46/46
f 48/48/48 50/50/50 49/49/49
f 48/48/48 51/51/51 50/50/50
f 52/52/52 54/54/54 53/53/53
f 52/52/52 55/55/55 54/54/54
f 56/56/56 58/58/58 57/57/57
f 56/56/56 59/59/59 58/58/58
f 60/60/60 62/62/62 61/61/61
f 60/60/60 63/63/63 62/62/62
f 64/64/64 66/66/66 65/65/65
f 64/64/64 67/67/67 66/66/66
f 68/68/68 70/70/70 69/69/69
f 68/68/68 71/71/71 70/70/70
f 72/72/72 74/74/74 73/73/73
f 72/72/72 75/75/75 74/74/74
f 76/76/76 78/78/78 77/77/77
f 76/76/76 79/79/79 78/78/78
f 80/80/80 82/82/82 81/81/81
f 80/80/80 83/83/83 82/82/82
f 84/84/84 86/86/86 85/85/85
f 84/84/84 87/87/87 86/86/86
f 88/88/88 90/90/90 89/89/89
f 88/88/88 91/91/91 90/90/90
f 92/92/92 94/94/94 93/93/93
f 92/92/92 95/95/95 94/94/94
f 96/96/96 98/98/98 97/97/97
f 96/96/96 99/99/99 98/98/98
f 100/100/100 102/102/102 101/101/101
f 100/100/100 103/103/103 102/102/102
f 104/104/104 106/106/106 105/105/105
f 104/104/104 107/107/107 106/106/106
f 108/108/108 110/110/110 109/109/109
f 108/108/108 111/111/111 110/110/110
f 112/112/112 114/114/114 113/113/113
f 112/112/112 115/115/115 114/114/114
f 116/116/116 118/118/118 117/117/117
f 116/116/116 119/119/119 118/118/118
f 120/120/120 122/122/122 121/121/121
f 120/120/120 123/123/123 122/122/122
f 124/124/124 126/126/126 125/125/125
f 124/124/124 127/127/127 126/126/126
f 128/128/128 130/130/130 129/129/129
f 128/128/128 131/131/131 130/130/130
f 132/132/132 134/134/134 133/133/133
f 132/132/132 135/135/135 134/134/134
f 136/136/136 138/138/138 137/137/137
f 136/136/136 139/139/139 138/138/138
f 140/140/140 142/142/142 141/141/141
f 140/140/140 143/143/143 142/142/142
f 144/144/144 146/146/146 145/145/145
f 144/144/144 147/147/147 146/146/146
f 148/148/148 150/150/150 149/149/149
f 148/148/148 151/151/151 150/150/150
f 152/152/152 154/154/154 153/153/153
f 152/152/152 155/155/155 154/154/154
f 156/156/156 158/158/158 157/157/157
f 156/156/156 159/159/159 158/158/158
f 160/160/160 162/162/162 161/161/161
f 160/160/160 163/163/163 162/162/162
f 164/164/164 166/166/166 165/165/165
f 164/164/164 167/167/167 166/166/166
f 168/168/168 170/170/170 169/169/169
f 168/168/168 171/171/171 170/170/170
f 172/172/172 174/174/174 173/173/173
f 175/175/175 177/177/177 176/176/176
f 178/178/178 180/180/180 179/179/179
f 181/181/181 183/183/183 182/182/182
f 184/184/184 186/186/186 185/185/185
f 187/187/187 189/189/189 188/188/188
f 190/190/190 192/192/192 191/191/191
f 193/193/193 195/195/195 194/194/194
f 196/196/196 198/198/198 197/197/197
f 199/199/199 201/201/201 200/200/200
