#pCylinder8_25_3317_263.obj

v 0.01454469 -0.02577562 -0.04035553
v 0.004623543 -0.03397607 0.001094473
v 0.03878414 -0.02577562 -0.02105168
v -0.009663867 -0.02577562 -0.03817273
v -0.0182515 -0.02577562 -0.01777775
v -0.03822227 -0.02223224 0.001094184
v -0.02135116 -0.02577562 0.01996643
v -0.005297783 -0.02577562 0.03272089
v 0.0210938 -0.02577562 0.04036118
v 0.03059813 -0.02577562 0.01996617
v 0.03218906 -0.02223224 0.001094394
v 0.03878414 -0.02577562 -0.02105168
v 0.04796635 -0.0148924 -0.02772361
v 0.01805233 -0.0148924 -0.05115027
v 0.01454469 -0.02577562 -0.04035553
v 0.01454469 -0.02577562 -0.04035553
v 0.01805233 -0.0148924 -0.05115027
v -0.01317138 -0.0148924 -0.04896732
v -0.009663867 -0.02577562 -0.03817273
v -0.009663867 -0.02577562 -0.03817273
v -0.01317138 -0.0148924 -0.04896732
v -0.02743378 -0.0148924 -0.02444911
v -0.0182515 -0.02577562 -0.01777775
v -0.0182515 -0.02577562 -0.01777775
v -0.02743378 -0.0148924 -0.02444911
v -0.04796699 -0.01288825 0.00109457
v -0.03822227 -0.02223224 0.001094184
v -0.03822227 -0.02223224 0.001094184
v -0.04796699 -0.01288825 0.00109457
v -0.03053365 -0.0148924 0.02663752
v -0.02135116 -0.02577562 0.01996643
v -0.02135116 -0.02577562 0.01996643
v -0.03053365 -0.0148924 0.02663752
v -0.008805061 -0.0148924 0.04351539
v -0.005297783 -0.02577562 0.03272089
v -0.005297783 -0.02577562 0.03272089
v -0.008805061 -0.0148924 0.04351539
v 0.02460131 -0.0148924 0.05115576
v 0.0210938 -0.02577562 0.04036118
v 0.0210938 -0.02577562 0.04036118
v 0.02460131 -0.0148924 0.05115576
v 0.03978078 -0.0148924 0.0266373
v 0.03059813 -0.02577562 0.01996617
v 0.03059813 -0.02577562 0.01996617
v 0.03978078 -0.0148924 0.0266373
v 0.04193378 -0.01288825 0.001094009
v 0.03218906 -0.02223224 0.001094394
v 0.03218906 -0.02223224 0.001094394
v 0.04193378 -0.01288825 0.001094009
v 0.04796635 -0.0148924 -0.02772361
v 0.03878414 -0.02577562 -0.02105168
v 0.04796635 -0.0148924 -0.02772361
v 0.04796635 -0.0001483148 -0.02772361
v 0.01805233 -0.0001483148 -0.05115027
v 0.01805233 -0.0148924 -0.05115027
v 0.01805233 -0.0148924 -0.05115027
v 0.01805233 -0.0001483148 -0.05115027
v -0.01317138 -0.0001483148 -0.04896732
v -0.01317138 -0.0148924 -0.04896732
v -0.01317138 -0.0148924 -0.04896732
v -0.01317138 -0.0001483148 -0.04896732
v -0.02743378 -0.0001483148 -0.02444911
v -0.02743378 -0.0148924 -0.02444911
v -0.02743378 -0.0148924 -0.02444911
v -0.02743378 -0.0001483148 -0.02444911
v -0.04796699 -0.0002294115 0.00109457
v -0.04796699 -0.01288825 0.00109457
v -0.04796699 -0.01288825 0.00109457
v -0.04796699 -0.0002294115 0.00109457
v -0.03053365 -0.0001483148 0.02663752
v -0.03053365 -0.0148924 0.02663752
v -0.03053365 -0.0148924 0.02663752
v -0.03053365 -0.0001483148 0.02663752
v -0.008805061 -0.0001483148 0.04351539
v -0.008805061 -0.0148924 0.04351539
v -0.008805061 -0.0148924 0.04351539
v -0.008805061 -0.0001483148 0.04351539
v 0.02460131 -0.0001483148 0.05115576
v 0.02460131 -0.0148924 0.05115576
v 0.02460131 -0.0148924 0.05115576
v 0.02460131 -0.0001483148 0.05115576
v 0.03978078 -0.0001483148 0.0266373
v 0.03978078 -0.0148924 0.0266373
v 0.03978078 -0.0148924 0.0266373
v 0.03978078 -0.0001483148 0.0266373
v 0.04193378 -0.0002294115 0.001094009
v 0.04193378 -0.01288825 0.001094009
v 0.04193378 -0.01288825 0.001094009
v 0.04193378 -0.0002294115 0.001094009
v 0.04796635 -0.0001483148 -0.02772361
v 0.04796635 -0.0148924 -0.02772361
v 0.04796635 -0.0001483148 -0.02772361
v 0.04568839 0.01428334 -0.02539429
v 0.01714486 0.01428334 -0.04798826
v 0.01805233 -0.0001483148 -0.05115027
v 0.01805233 -0.0001483148 -0.05115027
v 0.01714486 0.01428334 -0.04798826
v -0.01182957 0.01428334 -0.04559468
v -0.01317138 -0.0001483148 -0.04896732
v -0.01317138 -0.0001483148 -0.04896732
v -0.01182957 0.01428334 -0.04559468
v -0.0232105 0.01428334 -0.02180371
v -0.02743378 -0.0001483148 -0.02444911
v -0.02743378 -0.0001483148 -0.02444911
v -0.0232105 0.01428334 -0.02180371
v -0.04530459 0.01197203 0.001199632
v -0.04796699 -0.0002294115 0.00109457
v -0.04796699 -0.0002294115 0.00109457
v -0.04530459 0.01197203 0.001199632
v -0.02660985 0.01428334 0.02420308
v -0.03053365 -0.0001483148 0.02663752
v -0.03053365 -0.0001483148 0.02663752
v -0.02660985 0.01428334 0.02420308
v -0.007042343 0.01428334 0.03961652
v -0.008805061 -0.0001483148 0.04351539
v -0.008805061 -0.0001483148 0.04351539
v -0.007042343 0.01428334 0.03961652
v 0.02432593 0.01428334 0.04799416
v 0.02460131 -0.0001483148 0.05115576
v 0.02460131 -0.0001483148 0.05115576
v 0.02432593 0.01428334 0.04799416
v 0.03671224 0.01428334 0.02420272
v 0.03978078 -0.0001483148 0.0266373
v 0.03978078 -0.0001483148 0.0266373
v 0.03671224 0.01428334 0.02420272
v 0.038652 0.01197203 0.001199769
v 0.04193378 -0.0002294115 0.001094009
v 0.04193378 -0.0002294115 0.001094009
v 0.038652 0.01197203 0.001199769
v 0.04568839 0.01428334 -0.02539429
v 0.04796635 -0.0001483148 -0.02772361
v 0.04568839 0.01428334 -0.02539429
v 0.03225203 0.02437443 -0.01614525
v 0.01203625 0.02437443 -0.03256569
v 0.01714486 0.01428334 -0.04798826
v 0.01714486 0.01428334 -0.04798826
v 0.01203625 0.02437443 -0.03256569
v -0.002592561 0.02437443 -0.02139078
v -0.01182957 0.01428334 -0.04559468
v -0.01182957 0.01428334 -0.04559468
v -0.002592561 0.02437443 -0.02139078
v -0.01125326 0.02437443 -0.01279234
v -0.0232105 0.01428334 -0.02180371
v -0.0232105 0.01428334 -0.02180371
v -0.01125326 0.02437443 -0.01279234
v -0.03124503 0.02074652 0.001120317
v -0.04530459 0.01197203 0.001199632
v -0.04530459 0.01197203 0.001199632
v -0.03124503 0.02074652 0.001120317
v -0.01442751 0.02437443 0.01503266
v -0.02660985 0.01428334 0.02420308
v -0.02660985 0.01428334 0.02420308
v -0.01442751 0.02437443 0.01503266
v -0.002592727 0.02437443 0.02474913
v -0.007042343 0.01428334 0.03961652
v -0.007042343 0.01428334 0.03961652
v -0.002592727 0.02437443 0.02474913
v 0.01874087 0.02437443 0.03257114
v 0.02432593 0.01428334 0.04799416
v 0.02432593 0.01428334 0.04799416
v 0.01874087 0.02437443 0.03257114
v 0.02387123 0.02437443 0.01503331
v 0.03671224 0.01428334 0.02420272
v 0.03671224 0.01428334 0.02420272
v 0.02387123 0.02437443 0.01503331
v 0.02504375 0.02074652 0.001120474
v 0.038652 0.01197203 0.001199769
v 0.038652 0.01197203 0.001199769
v 0.02504375 0.02074652 0.001120474
v 0.03225203 0.02437443 -0.01614525
v 0.04568839 0.01428334 -0.02539429
v 0.03225203 0.02437443 -0.01614525
v 0.004623543 0.03397604 0.001094473
v 0.01203625 0.02437443 -0.03256569
v 0.01203625 0.02437443 -0.03256569
v 0.004623543 0.03397604 0.001094473
v -0.002592561 0.02437443 -0.02139078
v -0.002592561 0.02437443 -0.02139078
v 0.004623543 0.03397604 0.001094473
v -0.01125326 0.02437443 -0.01279234
v -0.01125326 0.02437443 -0.01279234
v 0.004623543 0.03397604 0.001094473
v -0.03124503 0.02074652 0.001120317
v -0.03124503 0.02074652 0.001120317
v 0.004623543 0.03397604 0.001094473
v -0.01442751 0.02437443 0.01503266
v -0.01442751 0.02437443 0.01503266
v 0.004623543 0.03397604 0.001094473
v -0.002592727 0.02437443 0.02474913
v -0.002592727 0.02437443 0.02474913
v 0.004623543 0.03397604 0.001094473
v 0.01874087 0.02437443 0.03257114
v 0.01874087 0.02437443 0.03257114
v 0.004623543 0.03397604 0.001094473
v 0.02387123 0.02437443 0.01503331
v 0.02387123 0.02437443 0.01503331
v 0.004623543 0.03397604 0.001094473
v 0.02504375 0.02074652 0.001120474
v 0.02504375 0.02074652 0.001120474
v 0.004623543 0.03397604 0.001094473
v 0.03225203 0.02437443 -0.01614525

vn 0.1473674 -0.9818567 -0.1193303
vn 0.001416045 -0.9999983 0.0008883369
vn 0.1974788 -0.9784299 0.06063549
vn 0.02314557 -0.9810986 -0.1921178
vn -0.1636139 -0.9602383 -0.2262129
vn -0.2130511 -0.9642733 -0.1574349
vn -0.2493845 -0.9679797 -0.02867105
vn -0.2026669 -0.9703192 0.1319325
vn -0.04775152 -0.9818348 0.183629
vn 0.2250032 -0.9585601 0.1747442
vn 0.2750136 -0.9154218 0.2938875
vn 0.6710175 -0.7039261 -0.2328591
vn 0.6710175 -0.7039261 -0.2328591
vn 0.6710175 -0.7039261 -0.232859
vn 0.6710175 -0.7039261 -0.2328591
vn 0.3347453 -0.7031068 -0.6273643
vn 0.3347453 -0.7031069 -0.6273643
vn 0.3347453 -0.7031068 -0.6273643
vn 0.3347453 -0.7031069 -0.6273643
vn -0.3797807 -0.6620907 -0.6460668
vn -0.3797807 -0.6620907 -0.6460668
vn -0.3797807 -0.6620907 -0.6460668
vn -0.3797807 -0.6620907 -0.6460668
vn -0.2492855 -0.6863983 -0.6831647
vn -0.2492856 -0.6863982 -0.6831647
vn -0.2492855 -0.6863982 -0.6831647
vn -0.2492855 -0.6863982 -0.6831647
vn -0.718641 -0.6953635 -0.004936844
vn -0.718641 -0.6953635 -0.004936844
vn -0.718641 -0.6953635 -0.004936874
vn -0.718641 -0.6953635 -0.004936844
vn -0.6702952 -0.703966 0.2348104
vn -0.6702952 -0.703966 0.2348103
vn -0.6702952 -0.703966 0.2348103
vn -0.6702952 -0.703966 0.2348103
vn -0.5266545 -0.6928936 0.4924766
vn -0.5266545 -0.6928937 0.4924766
vn -0.5266545 -0.6928937 0.4924766
vn -0.5266545 -0.6928936 0.4924766
vn 0.356502 -0.6678945 0.653317
vn 0.3565019 -0.6678945 0.653317
vn 0.3565019 -0.6678945 0.653317
vn 0.3565021 -0.6678945 0.6533171
vn 0.6306123 -0.6790239 0.3758382
vn 0.6306124 -0.679024 0.3758382
vn 0.6306123 -0.6790239 0.3758382
vn 0.6306124 -0.6790239 0.3758382
vn 0.4934153 -0.6155776 0.614496
vn 0.4934153 -0.6155775 0.614496
vn 0.4934153 -0.6155776 0.614496
vn 0.4934153 -0.6155776 0.614496
vn 0.9435236 -3.678757E-17 -0.3313052
vn 0.9435237 -3.678758E-17 -0.3313051
vn 0.9435237 -3.678758E-17 -0.3313051
vn 0.9435236 -3.678757E-17 -0.3313052
vn 0.4784977 8.786037E-17 -0.8780888
vn 0.4784977 8.786037E-17 -0.8780888
vn 0.4784977 8.786037E-17 -0.8780888
vn 0.4784977 8.786037E-17 -0.8780888
vn -0.4575093 1.753251E-16 -0.8892049
vn -0.4575093 1.753251E-16 -0.8892049
vn -0.4575093 1.753251E-16 -0.8892049
vn -0.4575093 1.753251E-16 -0.8892049
vn -0.3192614 1.714227E-16 -0.9476666
vn -0.3192615 1.714227E-16 -0.9476667
vn -0.3192614 1.714227E-16 -0.9476666
vn -0.3192614 1.714227E-16 -0.9476666
vn -0.9995454 8.709874E-17 0.03014898
vn -0.9995454 8.709874E-17 0.03014898
vn -0.9995455 8.709873E-17 0.03014907
vn -0.9995454 8.709874E-17 0.03014898
vn -0.9422066 3.610776E-17 0.3350323
vn -0.9422066 3.610776E-17 0.3350323
vn -0.9422066 3.610776E-17 0.3350323
vn -0.9422066 3.610776E-17 0.3350323
vn -0.7128683 -3.985709E-17 0.7012978
vn -0.7128683 -3.985709E-17 0.7012978
vn -0.7128683 -3.985709E-17 0.7012978
vn -0.7128683 -3.985709E-17 0.7012978
vn 0.4328895 -1.749048E-16 0.9014471
vn 0.4328895 -1.749048E-16 0.9014471
vn 0.4328895 -1.749048E-16 0.9014471
vn 0.4328895 -1.749048E-16 0.9014471
vn 0.7943597 -1.639358E-16 0.6074477
vn 0.7943597 -1.639358E-16 0.6074477
vn 0.7943597 -1.639358E-16 0.6074477
vn 0.7943597 -1.639358E-16 0.6074477
vn 0.7143506 -1.704538E-16 0.6997879
vn 0.7143506 -1.704538E-16 0.6997879
vn 0.7143506 -1.704538E-16 0.6997879
vn 0.7143506 -1.704538E-16 0.6997879
vn 0.9227445 0.212757 -0.3213676
vn 0.9227444 0.212757 -0.3213676
vn 0.9227444 0.212757 -0.3213676
vn 0.9227444 0.212757 -0.3213676
vn 0.461426 0.2212333 -0.8591517
vn 0.461426 0.2212333 -0.8591517
vn 0.461426 0.2212333 -0.8591517
vn 0.461426 0.2212333 -0.8591517
vn -0.4749478 0.2588966 -0.841069
vn -0.4749478 0.2588966 -0.8410691
vn -0.4749478 0.2588966 -0.8410691
vn -0.4749478 0.2588965 -0.841069
vn -0.2776698 0.2546348 -0.9263157
vn -0.2776698 0.2546348 -0.9263156
vn -0.2776698 0.2546348 -0.9263157
vn -0.2776698 0.2546348 -0.9263155
vn -0.9680205 0.2437819 0.05921826
vn -0.9680205 0.243782 0.05921826
vn -0.9680204 0.2437819 0.0592182
vn -0.9680205 0.2437819 0.05921826
vn -0.9049258 0.2822602 0.3184939
vn -0.9049258 0.2822602 0.3184938
vn -0.9049258 0.2822603 0.3184939
vn -0.9049258 0.2822603 0.3184939
vn -0.7034685 0.242386 0.6681175
vn -0.7034685 0.242386 0.6681175
vn -0.7034685 0.242386 0.6681175
vn -0.7034685 0.242386 0.6681175
vn 0.4561529 0.1930069 0.8687191
vn 0.4561529 0.1930069 0.8687191
vn 0.4561528 0.1930069 0.8687191
vn 0.4561529 0.1930069 0.8687191
vn 0.7787163 0.2371581 0.5808243
vn 0.7787164 0.2371581 0.5808243
vn 0.7787164 0.2371581 0.5808243
vn 0.7787164 0.2371581 0.5808243
vn 0.6798886 0.178262 0.7113185
vn 0.6798886 0.178262 0.7113185
vn 0.6798886 0.178262 0.7113185
vn 0.6798886 0.178262 0.7113185
vn 0.5184046 0.8368365 -0.1759568
vn 0.5184047 0.8368365 -0.1759569
vn 0.5184046 0.8368365 -0.1759568
vn 0.5184047 0.8368365 -0.1759569
vn 0.1211299 0.8884323 -0.442736
vn 0.1211299 0.8884323 -0.442736
vn 0.1211299 0.8884323 -0.442736
vn 0.1211299 0.8884323 -0.442736
vn -0.2140546 0.8693343 -0.4454637
vn -0.2140546 0.8693343 -0.4454638
vn -0.2140546 0.8693343 -0.4454637
vn -0.2140546 0.8693343 -0.4454638
vn -0.1729348 0.8049013 -0.5676504
vn -0.1729348 0.8049014 -0.5676504
vn -0.1729348 0.8049014 -0.5676504
vn -0.1729348 0.8049014 -0.5676504
vn -0.5741849 0.8185279 0.01798362
vn -0.5741848 0.8185279 0.01798365
vn -0.574185 0.8185279 0.01798359
vn -0.5741849 0.8185279 0.01798362
vn -0.5389215 0.8222619 0.18289
vn -0.5389215 0.8222618 0.18289
vn -0.5389215 0.8222618 0.18289
vn -0.5389215 0.8222618 0.18289
vn -0.4393567 0.8172353 0.37295
vn -0.4393567 0.8172353 0.37295
vn -0.4393567 0.8172353 0.37295
vn -0.4393567 0.8172353 0.37295
vn 0.3421873 0.7962341 0.4989175
vn 0.3421873 0.7962341 0.4989176
vn 0.3421873 0.7962341 0.4989176
vn 0.3421873 0.7962341 0.4989176
vn 0.5450109 0.798513 0.2556162
vn 0.5450108 0.7985131 0.2556161
vn 0.5450109 0.7985131 0.2556162
vn 0.5450109 0.798513 0.2556162
vn 0.355204 0.7325384 0.5807041
vn 0.355204 0.7325385 0.580704
vn 0.355204 0.7325384 0.5807041
vn 0.355204 0.7325384 0.5807041
vn 0.2825156 0.9546866 -0.09358297
vn 0.2825157 0.9546866 -0.093583
vn 0.2825156 0.9546866 -0.09358297
vn -0.03308444 0.9181487 -0.3948517
vn -0.03308441 0.9181487 -0.3948517
vn -0.03308441 0.9181487 -0.3948517
vn -0.08777896 0.9097521 -0.4057652
vn -0.08777894 0.9097521 -0.4057653
vn -0.08777897 0.9097521 -0.4057653
vn -0.15079 0.9095349 -0.3873089
vn -0.1507901 0.9095349 -0.387309
vn -0.1507901 0.9095349 -0.387309
vn -0.3792563 0.9244465 -0.03953212
vn -0.3792562 0.9244465 -0.0395321
vn -0.3792563 0.9244465 -0.03953212
vn -0.3682124 0.9219851 0.1198433
vn -0.3682125 0.9219852 0.1198433
vn -0.3682125 0.9219852 0.1198433
vn -0.2883728 0.9320198 0.2194986
vn -0.2883728 0.9320198 0.2194985
vn -0.2883728 0.9320198 0.2194985
vn 0.2591695 0.9190345 0.2969953
vn 0.2591696 0.9190345 0.2969953
vn 0.2591696 0.9190344 0.2969953
vn 0.5433546 0.8268819 0.1450231
vn 0.5433546 0.8268819 0.1450231
vn 0.5433546 0.8268819 0.1450231
vn 0.2231793 0.7785742 0.5865262
vn 0.2231793 0.7785742 0.5865262
vn 0.2231793 0.7785742 0.5865262

vt 0.5482839 0.007647395
vt 0.5 0.15
vt 0.6264089 0.06440853
vt 0.4517161 0.00764741
vt 0.3735911 0.06440856
vt 0.34375 0.15625
vt 0.3735911 0.2480915
vt 0.4517161 0.3048526
vt 0.5482839 0.3048526
vt 0.6264089 0.2480914
vt 0.65625 0.15625
vt 0 0
vt 0 1
vt 1 1
vt 1 0
vt 0 0
vt 0 1
vt 1 1
vt 1 0
vt 0 0
vt 0 1
vt 1 1
vt 1 0
vt 0 0
vt 0 1
vt 1 1
vt 1 0
vt 0 0
vt 0 1
vt 1 1
vt 1 0
vt 0 0
vt 0 1
vt 1 1
vt 1 0
vt 0 0
vt 0 1
vt 1 1
vt 1 0
vt 0 0
vt 0 1
vt 1 1
vt 1 0
vt 0 0
vt 0 1
vt 1 1
vt 1 0
vt 0 0
vt 0 1
vt 1 1
vt 1 0
vt 0 0
vt 0 1
vt 1 1
vt 1 0
vt 0 0
vt 0 1
vt 1 1
vt 1 0
vt 0 0
vt 0 1
vt 1 1
vt 1 0
vt 0 0
vt 0 1
vt 1 1
vt 1 0
vt 0 0
vt 0 1
vt 1 1
vt 1 0
vt 0 0
vt 0 1
vt 1 1
vt 1 0
vt 0 0
vt 0 1
vt 1 1
vt 1 0
vt 0 0
vt 0 1
vt 1 1
vt 1 0
vt 0 0
vt 0 1
vt 1 1
vt 1 0
vt 0 0
vt 0 1
vt 1 1
vt 1 0
vt 0 0
vt 0 1
vt 1 1
vt 1 0
vt 0 0
vt 0 1
vt 1 1
vt 1 0
vt 0 0
vt 0 1
vt 1 1
vt 1 0
vt 0 0
vt 0 1
vt 1 1
vt 1 0
vt 0 0
vt 0 1
vt 1 1
vt 1 0
vt 0 0
vt 0 1
vt 1 1
vt 1 0
vt 0 0
vt 0 1
vt 1 1
vt 1 0
vt 0 0
vt 0 1
vt 1 1
vt 1 0
vt 0 0
vt 0 1
vt 1 1
vt 1 0
vt 0 0
vt 0 1
vt 1 1
vt 1 0
vt 0 0
vt 0 1
vt 1 1
vt 1 0
vt 0 0
vt 0 1
vt 1 1
vt 1 0
vt 0 0
vt 0 1
vt 1 1
vt 1 0
vt 0 0
vt 0 1
vt 1 1
vt 1 0
vt 0 0
vt 0 1
vt 1 1
vt 1 0
vt 0 0
vt 0 1
vt 1 1
vt 1 0
vt 0 0
vt 0 1
vt 1 1
vt 1 0
vt 0 0
vt 0 1
vt 1 1
vt 1 0
vt 0 0
vt 0 1
vt 1 1
vt 1 0
vt 0 0
vt 0 1
vt 1 1
vt 1 0
vt 0 0
vt 0.5 1
vt 1 0
vt 0 0
vt 0.5 1
vt 1 0
vt 0 0
vt 0.5 1
vt 1 0
vt 0 0
vt 0.5 1
vt 1 0
vt 0 0
vt 0.5 1
vt 1 0
vt 0 0
vt 0.5 1
vt 1 0
vt 0 0
vt 0.5 1
vt 1 0
vt 0 0
vt 0.5 1
vt 1 0
vt 0 0
vt 0.5 1
vt 1 0
vt 0 0
vt 0.5 1
vt 1 0

g pCylinder8_25_3317_263
usemtl pCylinder8_25_3317_263
usemap pCylinder8_25_3317_263
f 1/1/1 3/3/3 2/2/2
f 4/4/4 1/1/1 2/2/2
f 5/5/5 4/4/4 2/2/2
f 6/6/6 5/5/5 2/2/2
f 7/7/7 6/6/6 2/2/2
f 8/8/8 7/7/7 2/2/2
f 9/9/9 8/8/8 2/2/2
f 10/10/10 9/9/9 2/2/2
f 11/11/11 10/10/10 2/2/2
f 3/3/3 11/11/11 2/2/2
f 12/12/12 14/14/14 13/13/13
f 12/12/12 15/15/15 14/14/14
f 16/16/16 18/18/18 17/17/17
f 16/16/16 19/19/19 18/18/18
f 20/20/20 22/22/22 21/21/21
f 20/20/20 23/23/23 22/22/22
f 24/24/24 26/26/26 25/25/25
f 24/24/24 27/27/27 26/26/26
f 28/28/28 30/30/30 29/29/29
f 28/28/28 31/31/31 30/30/30
f 32/32/32 34/34/34 33/33/33
f 32/32/32 35/35/35 34/34/34
f 36/36/36 38/38/38 37/37/37
f 36/36/36 39/39/39 38/38/38
f 40/40/40 42/42/42 41/41/41
f 40/40/40 43/43/43 42/42/42
f 44/44/44 46/46/46 45/45/45
f 44/44/44 47/47/47 46/46/46
f 48/48/48 50/50/50 49/49/49
f 48/48/48 51/51/51 50/50/50
f 52/52/52 54/54/54 53/53/53
f 52/52/52 55/55/55 54/54/54
f 56/56/56 58/58/58 57/57/57
f 56/56/56 59/59/59 58/58/58
f 60/60/60 62/62/62 61/61/61
f 60/60/60 63/63/63 62/62/62
f 64/64/64 66/66/66 65/65/65
f 64/64/64 67/67/67 66/66/66
f 68/68/68 70/70/70 69/69/69
f 68/68/68 71/71/71 70/70/70
f 72/72/72 74/74/74 73/73/73
f 72/72/72 75/75/75 74/74/74
f 76/76/76 78/78/78 77/77/77
f 76/76/76 79/79/79 78/78/78
f 80/80/80 82/82/82 81/81/81
f 80/80/80 83/83/83 82/82/82
f 84/84/84 86/86/86 85/85/85
f 84/84/84 87/87/87 86/86/86
f 88/88/88 90/90/90 89/89/89
f 88/88/88 91/91/91 90/90/90
f 92/92/92 94/94/94 93/93/93
f 92/92/92 95/95/95 94/94/94
f 96/96/96 98/98/98 97/97/97
f 96/96/96 99/99/99 98/98/98
f 100/100/100 102/102/102 101/101/101
f 100/100/100 103/103/103 102/102/102
f 104/104/104 106/106/106 105/105/105
f 104/104/104 107/107/107 106/106/106
f 108/108/108 110/110/110 109/109/109
f 108/108/108 111/111/111 110/110/110
f 112/112/112 114/114/114 113/113/113
f 112/112/112 115/115/115 114/114/114
f 116/116/116 118/118/118 117/117/117
f 116/116/116 119/119/119 118/118/118
f 120/120/120 122/122/122 121/121/121
f 120/120/120 123/123/123 122/122/122
f 124/124/124 126/126/126 125/125/125
f 124/124/124 127/127/127 126/126/126
f 128/128/128 130/130/130 129/129/129
f 128/128/128 131/131/131 130/130/130
f 132/132/132 134/134/134 133/133/133
f 132/132/132 135/135/135 134/134/134
f 136/136/136 138/138/138 137/137/137
f 136/136/136 139/139/139 138/138/138
f 140/140/140 142/142/142 141/141/141
f 140/140/140 143/143/143 142/142/142
f 144/144/144 146/146/146 145/145/145
f 144/144/144 147/147/147 146/146/146
f 148/148/148 150/150/150 149/149/149
f 148/148/148 151/151/151 150/150/150
f 152/152/152 154/154/154 153/153/153
f 152/152/152 155/155/155 154/154/154
f 156/156/156 158/158/158 157/157/157
f 156/156/156 159/159/159 158/158/158
f 160/160/160 162/162/162 161/161/161
f 160/160/160 163/163/163 162/162/162
f 164/164/164 166/166/166 165/165/165
f 164/164/164 167/167/167 166/166/166
f 168/168/168 170/170/170 169/169/169
f 168/168/168 171/171/171 170/170/170
f 172/172/172 174/174/174 173/173/173
f 175/175/175 177/177/177 176/176/176
f 178/178/178 180/180/180 179/179/179
f 181/181/181 183/183/183 182/182/182
f 184/184/184 186/186/186 185/185/185
f 187/187/187 189/189/189 188/188/188
f 190/190/190 192/192/192 191/191/191
f 193/193/193 195/195/195 194/194/194
f 196/196/196 198/198/198 197/197/197
f 199/199/199 201/201/201 200/200/200
