#pCylinder3_21_3854_202.obj

v 0.01454427 -0.02577563 -0.04036093
v 0.004622766 -0.03397604 0.001088579
v 0.03878324 -0.02577563 -0.02105755
v -0.009664561 -0.02577563 -0.03817801
v -0.01825181 -0.02577563 -0.01778282
v -0.0382232 -0.02223217 0.001088593
v -0.02135197 -0.02577563 0.01996054
v -0.005298667 -0.02577563 0.03271525
v 0.02109298 -0.02577563 0.04035587
v 0.03059743 -0.02577563 0.01996062
v 0.03218849 -0.02223217 0.001088673
v 0.03878324 -0.02577563 -0.02105755
v 0.04796577 -0.01489242 -0.02772893
v 0.01805158 -0.01489242 -0.05115544
v 0.01454427 -0.02577563 -0.04036093
v 0.01454427 -0.02577563 -0.04036093
v 0.01805158 -0.01489242 -0.05115544
v -0.01317175 -0.01489242 -0.04897265
v -0.009664561 -0.02577563 -0.03817801
v -0.009664561 -0.02577563 -0.03817801
v -0.01317175 -0.01489242 -0.04897265
v -0.02743419 -0.01489242 -0.02445454
v -0.01825181 -0.02577563 -0.01778282
v -0.01825181 -0.02577563 -0.01778282
v -0.02743419 -0.01489242 -0.02445454
v -0.04796787 -0.0128882 0.00108886
v -0.0382232 -0.02223217 0.001088593
v -0.0382232 -0.02223217 0.001088593
v -0.04796787 -0.0128882 0.00108886
v -0.0305345 -0.01489242 0.02663192
v -0.02135197 -0.02577563 0.01996054
v -0.02135197 -0.02577563 0.01996054
v -0.0305345 -0.01489242 0.02663192
v -0.00880597 -0.01489242 0.04350976
v -0.005298667 -0.02577563 0.03271525
v -0.005298667 -0.02577563 0.03271525
v -0.00880597 -0.01489242 0.04350976
v 0.02460029 -0.01489242 0.05114985
v 0.02109298 -0.02577563 0.04035587
v 0.02109298 -0.02577563 0.04035587
v 0.02460029 -0.01489242 0.05114985
v 0.03978009 -0.01489242 0.02663225
v 0.03059743 -0.02577563 0.01996062
v 0.03059743 -0.02577563 0.01996062
v 0.03978009 -0.01489242 0.02663225
v 0.04193334 -0.0128882 0.001088977
v 0.03218849 -0.02223217 0.001088673
v 0.03218849 -0.02223217 0.001088673
v 0.04193334 -0.0128882 0.001088977
v 0.04796577 -0.01489242 -0.02772893
v 0.03878324 -0.02577563 -0.02105755
v 0.04796577 -0.01489242 -0.02772893
v 0.04796577 -0.0001482863 -0.02772893
v 0.01805158 -0.0001482863 -0.05115544
v 0.01805158 -0.01489242 -0.05115544
v 0.01805158 -0.01489242 -0.05115544
v 0.01805158 -0.0001482863 -0.05115544
v -0.01317175 -0.0001482863 -0.04897265
v -0.01317175 -0.01489242 -0.04897265
v -0.01317175 -0.01489242 -0.04897265
v -0.01317175 -0.0001482863 -0.04897265
v -0.02743419 -0.0001482863 -0.02445454
v -0.02743419 -0.01489242 -0.02445454
v -0.02743419 -0.01489242 -0.02445454
v -0.02743419 -0.0001482863 -0.02445454
v -0.04796787 -0.0002293704 0.00108886
v -0.04796787 -0.0128882 0.00108886
v -0.04796787 -0.0128882 0.00108886
v -0.04796787 -0.0002293704 0.00108886
v -0.0305345 -0.0001482863 0.02663192
v -0.0305345 -0.01489242 0.02663192
v -0.0305345 -0.01489242 0.02663192
v -0.0305345 -0.0001482863 0.02663192
v -0.00880597 -0.0001482863 0.04350976
v -0.00880597 -0.01489242 0.04350976
v -0.00880597 -0.01489242 0.04350976
v -0.00880597 -0.0001482863 0.04350976
v 0.02460029 -0.0001482863 0.05114985
v 0.02460029 -0.01489242 0.05114985
v 0.02460029 -0.01489242 0.05114985
v 0.02460029 -0.0001482863 0.05114985
v 0.03978009 -0.0001482863 0.02663225
v 0.03978009 -0.01489242 0.02663225
v 0.03978009 -0.01489242 0.02663225
v 0.03978009 -0.0001482863 0.02663225
v 0.04193334 -0.0002293704 0.001088977
v 0.04193334 -0.0128882 0.001088977
v 0.04193334 -0.0128882 0.001088977
v 0.04193334 -0.0002293704 0.001088977
v 0.04796577 -0.0001482863 -0.02772893
v 0.04796577 -0.01489242 -0.02772893
v 0.04796577 -0.0001482863 -0.02772893
v 0.04568769 0.01428333 -0.02539967
v 0.01714423 0.01428333 -0.04799369
v 0.01805158 -0.0001482863 -0.05115544
v 0.01805158 -0.0001482863 -0.05115544
v 0.01714423 0.01428333 -0.04799369
v -0.01183026 0.01428333 -0.04560009
v -0.01317175 -0.0001482863 -0.04897265
v -0.01317175 -0.0001482863 -0.04897265
v -0.01183026 0.01428333 -0.04560009
v -0.02321155 0.01428333 -0.02180914
v -0.02743419 -0.0001482863 -0.02445454
v -0.02743419 -0.0001482863 -0.02445454
v -0.02321155 0.01428333 -0.02180914
v -0.04530528 0.01197213 0.001194216
v -0.04796787 -0.0002293704 0.00108886
v -0.04796787 -0.0002293704 0.00108886
v -0.04530528 0.01197213 0.001194216
v -0.02661075 0.01428333 0.02419724
v -0.0305345 -0.0001482863 0.02663192
v -0.0305345 -0.0001482863 0.02663192
v -0.02661075 0.01428333 0.02419724
v -0.007043007 0.01428333 0.0396111
v -0.00880597 -0.0001482863 0.04350976
v -0.00880597 -0.0001482863 0.04350976
v -0.007043007 0.01428333 0.0396111
v 0.02432472 0.01428333 0.04798843
v 0.02460029 -0.0001482863 0.05114985
v 0.02460029 -0.0001482863 0.05114985
v 0.02432472 0.01428333 0.04798843
v 0.03671187 0.01428333 0.02419729
v 0.03978009 -0.0001482863 0.02663225
v 0.03978009 -0.0001482863 0.02663225
v 0.03671187 0.01428333 0.02419729
v 0.03865098 0.01197213 0.001194188
v 0.04193334 -0.0002293704 0.001088977
v 0.04193334 -0.0002293704 0.001088977
v 0.03865098 0.01197213 0.001194188
v 0.04568769 0.01428333 -0.02539967
v 0.04796577 -0.0001482863 -0.02772893
v 0.04568769 0.01428333 -0.02539967
v 0.03225127 0.0243744 -0.01615033
v 0.01203542 0.0243744 -0.03257105
v 0.01714423 0.01428333 -0.04799369
v 0.01714423 0.01428333 -0.04799369
v 0.01203542 0.0243744 -0.03257105
v -0.002593378 0.0243744 -0.02139625
v -0.01183026 0.01428333 -0.04560009
v -0.01183026 0.01428333 -0.04560009
v -0.002593378 0.0243744 -0.02139625
v -0.01125403 0.0243744 -0.01279773
v -0.02321155 0.01428333 -0.02180914
v -0.02321155 0.01428333 -0.02180914
v -0.01125403 0.0243744 -0.01279773
v -0.03124572 0.02074641 0.001114707
v -0.04530528 0.01197213 0.001194216
v -0.04530528 0.01197213 0.001194216
v -0.03124572 0.02074641 0.001114707
v -0.01442811 0.0243744 0.01502742
v -0.02661075 0.01428333 0.02419724
v -0.02661075 0.01428333 0.02419724
v -0.01442811 0.0243744 0.01502742
v -0.002593319 0.0243744 0.02474361
v -0.007043007 0.01428333 0.0396111
v -0.007043007 0.01428333 0.0396111
v -0.002593319 0.0243744 0.02474361
v 0.01874025 0.0243744 0.03256591
v 0.02432472 0.01428333 0.04798843
v 0.02432472 0.01428333 0.04798843
v 0.01874025 0.0243744 0.03256591
v 0.02387016 0.0243744 0.01502768
v 0.03671187 0.01428333 0.02419729
v 0.03671187 0.01428333 0.02419729
v 0.02387016 0.0243744 0.01502768
v 0.02504308 0.02074641 0.001115026
v 0.03865098 0.01197213 0.001194188
v 0.03865098 0.01197213 0.001194188
v 0.02504308 0.02074641 0.001115026
v 0.03225127 0.0243744 -0.01615033
v 0.04568769 0.01428333 -0.02539967
v 0.03225127 0.0243744 -0.01615033
v 0.004622766 0.03397598 0.001088579
v 0.01203542 0.0243744 -0.03257105
v 0.01203542 0.0243744 -0.03257105
v 0.004622766 0.03397598 0.001088579
v -0.002593378 0.0243744 -0.02139625
v -0.002593378 0.0243744 -0.02139625
v 0.004622766 0.03397598 0.001088579
v -0.01125403 0.0243744 -0.01279773
v -0.01125403 0.0243744 -0.01279773
v 0.004622766 0.03397598 0.001088579
v -0.03124572 0.02074641 0.001114707
v -0.03124572 0.02074641 0.001114707
v 0.004622766 0.03397598 0.001088579
v -0.01442811 0.0243744 0.01502742
v -0.01442811 0.0243744 0.01502742
v 0.004622766 0.03397598 0.001088579
v -0.002593319 0.0243744 0.02474361
v -0.002593319 0.0243744 0.02474361
v 0.004622766 0.03397598 0.001088579
v 0.01874025 0.0243744 0.03256591
v 0.01874025 0.0243744 0.03256591
v 0.004622766 0.03397598 0.001088579
v 0.02387016 0.0243744 0.01502768
v 0.02387016 0.0243744 0.01502768
v 0.004622766 0.03397598 0.001088579
v 0.02504308 0.02074641 0.001115026
v 0.02504308 0.02074641 0.001115026
v 0.004622766 0.03397598 0.001088579
v 0.03225127 0.0243744 -0.01615033

vn -0.1538625 -0.9818565 -0.1108297
vn 0.0004849985 -0.9999982 -0.00159972
vn 0.006609734 -0.9784297 -0.2064724
vn -0.191448 -0.9810984 0.02815379
vn -0.175267 -0.9602382 0.2173091
vn -0.09591482 -0.9642731 0.2469349
vn 0.0378714 -0.9679796 0.248154
vn 0.1805537 -0.970319 0.1608739
vn 0.1897236 -0.9818347 -0.002181899
vn 0.1094749 -0.9585599 -0.2630156
vn 0.2112888 -0.9154217 -0.3425775
vn -0.4010091 -0.703926 -0.5862418
vn -0.4010091 -0.703926 -0.5862418
vn -0.401009 -0.703926 -0.5862418
vn -0.4010091 -0.703926 -0.5862418
vn -0.6932814 -0.7031067 -0.1581178
vn -0.6932814 -0.7031068 -0.1581178
vn -0.6932814 -0.7031067 -0.1581178
vn -0.6932814 -0.7031068 -0.1581178
vn -0.5235591 -0.6620906 0.5362103
vn -0.5235591 -0.6620905 0.5362104
vn -0.5235591 -0.6620906 0.5362103
vn -0.5235591 -0.6620905 0.5362104
vn -0.5936455 -0.6863981 0.4200503
vn -0.5936455 -0.6863981 0.4200504
vn -0.5936455 -0.6863981 0.4200503
vn -0.5936455 -0.6863981 0.4200503
vn 0.1840855 -0.6953633 0.694681
vn 0.1840855 -0.6953633 0.694681
vn 0.1840855 -0.6953633 0.694681
vn 0.1840855 -0.6953633 0.694681
vn 0.402702 -0.7039658 0.5850322
vn 0.402702 -0.7039658 0.5850322
vn 0.4027019 -0.7039658 0.5850322
vn 0.4027019 -0.7039658 0.5850322
vn 0.6135655 -0.6928934 0.3787287
vn 0.6135654 -0.6928935 0.3787287
vn 0.6135656 -0.6928935 0.3787287
vn 0.6135655 -0.6928934 0.3787287
vn 0.5366719 -0.6678944 -0.515655
vn 0.5366718 -0.6678944 -0.5156549
vn 0.5366718 -0.6678944 -0.5156549
vn 0.5366719 -0.6678944 -0.515655
vn 0.1969129 -0.6790238 -0.7072139
vn 0.1969128 -0.6790239 -0.7072139
vn 0.1969129 -0.6790238 -0.7072139
vn 0.1969128 -0.6790238 -0.7072139
vn 0.4632363 -0.6155775 -0.6375547
vn 0.4632363 -0.6155774 -0.6375548
vn 0.4632363 -0.6155775 -0.6375547
vn 0.4632363 -0.6155775 -0.6375548
vn -0.567606 7.722567E-17 -0.8233003
vn -0.567606 7.722567E-17 -0.8233004
vn -0.567606 7.722567E-17 -0.8233004
vn -0.567606 7.722567E-17 -0.8233003
vn -0.9729701 1.270759E-16 -0.230931
vn -0.9729701 1.270759E-16 -0.230931
vn -0.9729701 1.270759E-16 -0.230931
vn -0.9729701 1.270759E-16 -0.230931
vn -0.7377259 9.253276E-17 0.6751004
vn -0.7377259 9.253276E-17 0.6751004
vn -0.7377259 9.253276E-17 0.6751004
vn -0.7377259 9.253276E-17 0.6751004
vn -0.8304626 1.05076E-16 0.5570742
vn -0.8304626 1.05076E-16 0.5570743
vn -0.8304626 1.05076E-16 0.5570742
vn -0.8304626 1.05076E-16 0.5570742
vn 0.291756 -4.209028E-17 0.9564928
vn 0.291756 -4.209028E-17 0.9564928
vn 0.2917561 -4.20903E-17 0.9564928
vn 0.291756 -4.209028E-17 0.9564928
vn 0.570856 -7.763657E-17 0.8210502
vn 0.570856 -7.763657E-17 0.8210502
vn 0.570856 -7.763657E-17 0.8210502
vn 0.570856 -7.763657E-17 0.8210502
vn 0.863982 -1.141819E-16 0.5035226
vn 0.863982 -1.141819E-16 0.5035226
vn 0.863982 -1.141819E-16 0.5035226
vn 0.863982 -1.141819E-16 0.5035226
vn 0.7560076 -9.499323E-17 -0.654563
vn 0.7560076 -9.499323E-17 -0.654563
vn 0.7560076 -9.499323E-17 -0.654563
vn 0.7560076 -9.499323E-17 -0.654563
vn 0.3773518 -4.472263E-17 -0.92607
vn 0.3773518 -4.472263E-17 -0.92607
vn 0.3773518 -4.472263E-17 -0.92607
vn 0.3773518 -4.472263E-17 -0.92607
vn 0.4874718 -5.922534E-17 -0.8731387
vn 0.4874718 -5.922534E-17 -0.8731387
vn 0.4874718 -5.922534E-17 -0.8731387
vn 0.4874718 -5.922534E-17 -0.8731387
vn -0.5525572 0.212757 -0.8058629
vn -0.5525572 0.212757 -0.8058628
vn -0.5525572 0.212757 -0.8058628
vn -0.5525572 0.212757 -0.8058628
vn -0.9502124 0.2212333 -0.2194358
vn -0.9502124 0.2212333 -0.2194357
vn -0.9502124 0.2212333 -0.2194357
vn -0.9502124 0.2212333 -0.2194357
vn -0.6866993 0.2588965 0.6792765
vn -0.6866993 0.2588965 0.6792766
vn -0.6866993 0.2588965 0.6792765
vn -0.6866993 0.2588965 0.6792765
vn -0.8207917 0.2546348 0.5113337
vn -0.8207917 0.2546348 0.5113336
vn -0.8207917 0.2546347 0.5113337
vn -0.8207916 0.2546348 0.5113337
vn 0.3115193 0.2437819 0.9184368
vn 0.3115193 0.2437819 0.9184368
vn 0.3115192 0.2437819 0.9184368
vn 0.3115193 0.2437819 0.9184368
vn 0.545102 0.2822602 0.7894256
vn 0.5451019 0.2822602 0.7894256
vn 0.545102 0.2822602 0.7894256
vn 0.545102 0.2822602 0.7894256
vn 0.8294976 0.2423859 0.5031725
vn 0.8294976 0.2423859 0.5031725
vn 0.8294976 0.2423859 0.5031725
vn 0.8294976 0.2423859 0.5031725
vn 0.7183166 0.1930068 -0.6684083
vn 0.7183166 0.1930068 -0.6684083
vn 0.7183166 0.1930069 -0.6684083
vn 0.7183166 0.1930069 -0.6684083
vn 0.3557749 0.2371581 -0.9039802
vn 0.3557749 0.2371581 -0.9039803
vn 0.3557749 0.2371581 -0.9039803
vn 0.3557749 0.237158 -0.9039803
vn 0.5076534 0.178262 -0.8429179
vn 0.5076534 0.178262 -0.8429179
vn 0.5076534 0.178262 -0.8429179
vn 0.5076534 0.178262 -0.8429179
vn -0.3060022 0.8368363 -0.4539458
vn -0.3060022 0.8368363 -0.4539458
vn -0.3060022 0.8368363 -0.4539458
vn -0.3060022 0.8368363 -0.4539458
vn -0.4590069 0.8884321 -0.0005278438
vn -0.4590069 0.8884321 -0.0005278438
vn -0.4590069 0.8884321 -0.0005278438
vn -0.4590068 0.8884321 -0.0005278587
vn -0.3735569 0.8693342 0.3235932
vn -0.373557 0.8693342 0.3235932
vn -0.3735569 0.8693342 0.3235932
vn -0.373557 0.8693342 0.3235932
vn -0.502255 0.8049012 0.3160275
vn -0.502255 0.8049012 0.3160275
vn -0.502255 0.8049012 0.3160275
vn -0.502255 0.8049012 0.3160275
vn 0.1682393 0.8185277 0.5492788
vn 0.1682394 0.8185278 0.5492787
vn 0.1682394 0.8185277 0.5492789
vn 0.1682393 0.8185277 0.5492788
vn 0.3180833 0.8222617 0.4719196
vn 0.3180832 0.8222616 0.4719197
vn 0.3180833 0.8222616 0.4719197
vn 0.3180832 0.8222616 0.4719197
vn 0.4752992 0.8172351 0.325909
vn 0.4752992 0.8172351 0.325909
vn 0.4752992 0.8172351 0.325909
vn 0.4752992 0.8172351 0.325909
vn 0.3914606 0.796234 -0.4612694
vn 0.3914606 0.796234 -0.4612694
vn 0.3914607 0.796234 -0.4612694
vn 0.3914606 0.796234 -0.4612694
vn 0.103411 0.7985129 -0.5930284
vn 0.103411 0.7985129 -0.5930283
vn 0.103411 0.7985129 -0.5930284
vn 0.103411 0.7985129 -0.5930284
vn 0.466952 0.7325383 -0.495321
vn 0.466952 0.7325383 -0.495321
vn 0.466952 0.7325383 -0.495321
vn 0.466952 0.7325383 -0.495321
vn -0.1645351 0.9546865 -0.2479941
vn -0.1645351 0.9546865 -0.2479941
vn -0.1645351 0.9546865 -0.2479941
vn -0.3722802 0.9181486 0.1356832
vn -0.3722802 0.9181486 0.1356832
vn -0.3722802 0.9181486 0.1356831
vn -0.3684372 0.909752 0.1913233
vn -0.3684372 0.909752 0.1913233
vn -0.3684372 0.909752 0.1913234
vn -0.334071 0.9095348 0.2472698
vn -0.3340711 0.9095348 0.2472698
vn -0.3340711 0.9095348 0.2472698
vn 0.06152053 0.9244464 0.3763155
vn 0.06152055 0.9244464 0.3763154
vn 0.06152053 0.9244464 0.3763155
vn 0.2123924 0.921985 0.3237781
vn 0.2123924 0.9219851 0.3237782
vn 0.2123924 0.9219851 0.3237782
vn 0.2875645 0.9320197 0.2205565
vn 0.2875644 0.9320197 0.2205565
vn 0.2875645 0.9320197 0.2205565
vn 0.218451 0.9190344 -0.328107
vn 0.218451 0.9190344 -0.3281071
vn 0.218451 0.9190343 -0.3281071
vn -0.002859876 0.8268817 -0.562368
vn -0.00285989 0.8268817 -0.5623679
vn -0.00285989 0.8268818 -0.5623679
vn 0.5072637 0.778574 -0.3694664
vn 0.5072638 0.778574 -0.3694663
vn 0.5072638 0.778574 -0.3694664

vt 0.5482839 0.007647395
vt 0.5 0.15
vt 0.6264089 0.06440853
vt 0.4517161 0.00764741
vt 0.3735911 0.06440856
vt 0.34375 0.15625
vt 0.3735911 0.2480915
vt 0.4517161 0.3048526
vt 0.5482839 0.3048526
vt 0.6264089 0.2480914
vt 0.65625 0.15625
vt 0 0
vt 0 1
vt 1 1
vt 1 0
vt 0 0
vt 0 1
vt 1 1
vt 1 0
vt 0 0
vt 0 1
vt 1 1
vt 1 0
vt 0 0
vt 0 1
vt 1 1
vt 1 0
vt 0 0
vt 0 1
vt 1 1
vt 1 0
vt 0 0
vt 0 1
vt 1 1
vt 1 0
vt 0 0
vt 0 1
vt 1 1
vt 1 0
vt 0 0
vt 0 1
vt 1 1
vt 1 0
vt 0 0
vt 0 1
vt 1 1
vt 1 0
vt 0 0
vt 0 1
vt 1 1
vt 1 0
vt 0 0
vt 0 1
vt 1 1
vt 1 0
vt 0 0
vt 0 1
vt 1 1
vt 1 0
vt 0 0
vt 0 1
vt 1 1
vt 1 0
vt 0 0
vt 0 1
vt 1 1
vt 1 0
vt 0 0
vt 0 1
vt 1 1
vt 1 0
vt 0 0
vt 0 1
vt 1 1
vt 1 0
vt 0 0
vt 0 1
vt 1 1
vt 1 0
vt 0 0
vt 0 1
vt 1 1
vt 1 0
vt 0 0
vt 0 1
vt 1 1
vt 1 0
vt 0 0
vt 0 1
vt 1 1
vt 1 0
vt 0 0
vt 0 1
vt 1 1
vt 1 0
vt 0 0
vt 0 1
vt 1 1
vt 1 0
vt 0 0
vt 0 1
vt 1 1
vt 1 0
vt 0 0
vt 0 1
vt 1 1
vt 1 0
vt 0 0
vt 0 1
vt 1 1
vt 1 0
vt 0 0
vt 0 1
vt 1 1
vt 1 0
vt 0 0
vt 0 1
vt 1 1
vt 1 0
vt 0 0
vt 0 1
vt 1 1
vt 1 0
vt 0 0
vt 0 1
vt 1 1
vt 1 0
vt 0 0
vt 0 1
vt 1 1
vt 1 0
vt 0 0
vt 0 1
vt 1 1
vt 1 0
vt 0 0
vt 0 1
vt 1 1
vt 1 0
vt 0 0
vt 0 1
vt 1 1
vt 1 0
vt 0 0
vt 0 1
vt 1 1
vt 1 0
vt 0 0
vt 0 1
vt 1 1
vt 1 0
vt 0 0
vt 0 1
vt 1 1
vt 1 0
vt 0 0
vt 0 1
vt 1 1
vt 1 0
vt 0 0
vt 0 1
vt 1 1
vt 1 0
vt 0 0
vt 0 1
vt 1 1
vt 1 0
vt 0 0
vt 0 1
vt 1 1
vt 1 0
vt 0 0
vt 0.5 1
vt 1 0
vt 0 0
vt 0.5 1
vt 1 0
vt 0 0
vt 0.5 1
vt 1 0
vt 0 0
vt 0.5 1
vt 1 0
vt 0 0
vt 0.5 1
vt 1 0
vt 0 0
vt 0.5 1
vt 1 0
vt 0 0
vt 0.5 1
vt 1 0
vt 0 0
vt 0.5 1
vt 1 0
vt 0 0
vt 0.5 1
vt 1 0
vt 0 0
vt 0.5 1
vt 1 0

g pCylinder3_21_3854_202
usemtl pCylinder3_21_3854_202
usemap pCylinder3_21_3854_202
f 1/1/1 3/3/3 2/2/2
f 4/4/4 1/1/1 2/2/2
f 5/5/5 4/4/4 2/2/2
f 6/6/6 5/5/5 2/2/2
f 7/7/7 6/6/6 2/2/2
f 8/8/8 7/7/7 2/2/2
f 9/9/9 8/8/8 2/2/2
f 10/10/10 9/9/9 2/2/2
f 11/11/11 10/10/10 2/2/2
f 3/3/3 11/11/11 2/2/2
f 12/12/12 14/14/14 13/13/13
f 12/12/12 15/15/15 14/14/14
f 16/16/16 18/18/18 17/17/17
f 16/16/16 19/19/19 18/18/18
f 20/20/20 22/22/22 21/21/21
f 20/20/20 23/23/23 22/22/22
f 24/24/24 26/26/26 25/25/25
f 24/24/24 27/27/27 26/26/26
f 28/28/28 30/30/30 29/29/29
f 28/28/28 31/31/31 30/30/30
f 32/32/32 34/34/34 33/33/33
f 32/32/32 35/35/35 34/34/34
f 36/36/36 38/38/38 37/37/37
f 36/36/36 39/39/39 38/38/38
f 40/40/40 42/42/42 41/41/41
f 40/40/40 43/43/43 42/42/42
f 44/44/44 46/46/46 45/45/45
f 44/44/44 47/47/47 46/46/46
f 48/48/48 50/50/50 49/49/49
f 48/48/48 51/51/51 50/50/50
f 52/52/52 54/54/54 53/53/53
f 52/52/52 55/55/55 54/54/54
f 56/56/56 58/58/58 57/57/57
f 56/56/56 59/59/59 58/58/58
f 60/60/60 62/62/62 61/61/61
f 60/60/60 63/63/63 62/62/62
f 64/64/64 66/66/66 65/65/65
f 64/64/64 67/67/67 66/66/66
f 68/68/68 70/70/70 69/69/69
f 68/68/68 71/71/71 70/70/70
f 72/72/72 74/74/74 73/73/73
f 72/72/72 75/75/75 74/74/74
f 76/76/76 78/78/78 77/77/77
f 76/76/76 79/79/79 78/78/78
f 80/80/80 82/82/82 81/81/81
f 80/80/80 83/83/83 82/82/82
f 84/84/84 86/86/86 85/85/85
f 84/84/84 87/87/87 86/86/86
f 88/88/88 90/90/90 89/89/89
f 88/88/88 91/91/91 90/90/90
f 92/92/92 94/94/94 93/93/93
f 92/92/92 95/95/95 94/94/94
f 96/96/96 98/98/98 97/97/97
f 96/96/96 99/99/99 98/98/98
f 100/100/100 102/102/102 101/101/101
f 100/100/100 103/103/103 102/102/102
f 104/104/104 106/106/106 105/105/105
f 104/104/104 107/107/107 106/106/106
f 108/108/108 110/110/110 109/109/109
f 108/108/108 111/111/111 110/110/110
f 112/112/112 114/114/114 113/113/113
f 112/112/112 115/115/115 114/114/114
f 116/116/116 118/118/118 117/117/117
f 116/116/116 119/119/119 118/118/118
f 120/120/120 122/122/122 121/121/121
f 120/120/120 123/123/123 122/122/122
f 124/124/124 126/126/126 125/125/125
f 124/124/124 127/127/127 126/126/126
f 128/128/128 130/130/130 129/129/129
f 128/128/128 131/131/131 130/130/130
f 132/132/132 134/134/134 133/133/133
f 132/132/132 135/135/135 134/134/134
f 136/136/136 138/138/138 137/137/137
f 136/136/136 139/139/139 138/138/138
f 140/140/140 142/142/142 141/141/141
f 140/140/140 143/143/143 142/142/142
f 144/144/144 146/146/146 145/145/145
f 144/144/144 147/147/147 146/146/146
f 148/148/148 150/150/150 149/149/149
f 148/148/148 151/151/151 150/150/150
f 152/152/152 154/154/154 153/153/153
f 152/152/152 155/155/155 154/154/154
f 156/156/156 158/158/158 157/157/157
f 156/156/156 159/159/159 158/158/158
f 160/160/160 162/162/162 161/161/161
f 160/160/160 163/163/163 162/162/162
f 164/164/164 166/166/166 165/165/165
f 164/164/164 167/167/167 166/166/166
f 168/168/168 170/170/170 169/169/169
f 168/168/168 171/171/171 170/170/170
f 172/172/172 174/174/174 173/173/173
f 175/175/175 177/177/177 176/176/176
f 178/178/178 180/180/180 179/179/179
f 181/181/181 183/183/183 182/182/182
f 184/184/184 186/186/186 185/185/185
f 187/187/187 189/189/189 188/188/188
f 190/190/190 192/192/192 191/191/191
f 193/193/193 195/195/195 194/194/194
f 196/196/196 198/198/198 197/197/197
f 199/199/199 201/201/201 200/200/200
