#pCylinder8_5_4080_33.obj

v 0.01454535 -0.02577564 -0.04035817
v 0.004623905 -0.03397601 0.001091536
v 0.03878454 -0.02577564 -0.02105464
v -0.009663376 -0.02577564 -0.03817527
v -0.01825076 -0.02577564 -0.0177803
v -0.0382221 -0.02223219 0.001091524
v -0.02135084 -0.02577564 0.01996331
v -0.005297564 -0.02577564 0.03271814
v 0.02109407 -0.02577564 0.04035832
v 0.03059861 -0.02577564 0.01996333
v 0.03218951 -0.02223219 0.001091536
v 0.03878454 -0.02577564 -0.02105464
v 0.04796695 -0.01489225 -0.02772602
v 0.01805271 -0.01489225 -0.05115268
v 0.01454535 -0.02577564 -0.04035817
v 0.01454535 -0.02577564 -0.04035817
v 0.01805271 -0.01489225 -0.05115268
v -0.01317073 -0.01489225 -0.04896978
v -0.009663376 -0.02577564 -0.03817527
v -0.009663376 -0.02577564 -0.03817527
v -0.01317073 -0.01489225 -0.04896978
v -0.02743315 -0.01489225 -0.02445168
v -0.01825076 -0.02577564 -0.0177803
v -0.01825076 -0.02577564 -0.0177803
v -0.02743315 -0.01489225 -0.02445168
v -0.0479669 -0.01288828 0.001091515
v -0.0382221 -0.02223219 0.001091524
v -0.0382221 -0.02223219 0.001091524
v -0.0479669 -0.01288828 0.001091515
v -0.03053324 -0.01489225 0.02663472
v -0.02135084 -0.02577564 0.01996331
v -0.02135084 -0.02577564 0.01996331
v -0.03053324 -0.01489225 0.02663472
v -0.008804924 -0.01489225 0.04351263
v -0.005297564 -0.02577564 0.03271814
v -0.005297564 -0.02577564 0.03271814
v -0.008804924 -0.01489225 0.04351263
v 0.02460142 -0.01489225 0.05115281
v 0.02109407 -0.02577564 0.04035832
v 0.02109407 -0.02577564 0.04035832
v 0.02460142 -0.01489225 0.05115281
v 0.03978101 -0.01489225 0.02663474
v 0.03059861 -0.02577564 0.01996333
v 0.03059861 -0.02577564 0.01996333
v 0.03978101 -0.01489225 0.02663474
v 0.04193433 -0.01288828 0.001091541
v 0.03218951 -0.02223219 0.001091536
v 0.03218951 -0.02223219 0.001091536
v 0.04193433 -0.01288828 0.001091541
v 0.04796695 -0.01489225 -0.02772602
v 0.03878454 -0.02577564 -0.02105464
v 0.04796695 -0.01489225 -0.02772602
v 0.04796695 -0.0001482055 -0.02772602
v 0.01805271 -0.0001482055 -0.05115268
v 0.01805271 -0.01489225 -0.05115268
v 0.01805271 -0.01489225 -0.05115268
v 0.01805271 -0.0001482055 -0.05115268
v -0.01317073 -0.0001482055 -0.04896978
v -0.01317073 -0.01489225 -0.04896978
v -0.01317073 -0.01489225 -0.04896978
v -0.01317073 -0.0001482055 -0.04896978
v -0.02743315 -0.0001482055 -0.02445168
v -0.02743315 -0.01489225 -0.02445168
v -0.02743315 -0.01489225 -0.02445168
v -0.02743315 -0.0001482055 -0.02445168
v -0.0479669 -0.0002294433 0.001091515
v -0.0479669 -0.01288828 0.001091515
v -0.0479669 -0.01288828 0.001091515
v -0.0479669 -0.0002294433 0.001091515
v -0.03053324 -0.0001482055 0.02663472
v -0.03053324 -0.01489225 0.02663472
v -0.03053324 -0.01489225 0.02663472
v -0.03053324 -0.0001482055 0.02663472
v -0.008804924 -0.0001482055 0.04351263
v -0.008804924 -0.01489225 0.04351263
v -0.008804924 -0.01489225 0.04351263
v -0.008804924 -0.0001482055 0.04351263
v 0.02460142 -0.0001482055 0.05115281
v 0.02460142 -0.01489225 0.05115281
v 0.02460142 -0.01489225 0.05115281
v 0.02460142 -0.0001482055 0.05115281
v 0.03978101 -0.0001482055 0.02663474
v 0.03978101 -0.01489225 0.02663474
v 0.03978101 -0.01489225 0.02663474
v 0.03978101 -0.0001482055 0.02663474
v 0.04193433 -0.0002294433 0.001091541
v 0.04193433 -0.01288828 0.001091541
v 0.04193433 -0.01288828 0.001091541
v 0.04193433 -0.0002294433 0.001091541
v 0.04796695 -0.0001482055 -0.02772602
v 0.04796695 -0.01489225 -0.02772602
v 0.04796695 -0.0001482055 -0.02772602
v 0.04568894 0.01428329 -0.02539673
v 0.01714516 0.01428329 -0.04799119
v 0.01805271 -0.0001482055 -0.05115268
v 0.01805271 -0.0001482055 -0.05115268
v 0.01714516 0.01428329 -0.04799119
v -0.01182907 0.01428329 -0.04559758
v -0.01317073 -0.0001482055 -0.04896978
v -0.01317073 -0.0001482055 -0.04896978
v -0.01182907 0.01428329 -0.04559758
v -0.02321024 0.01428329 -0.02180631
v -0.02743315 -0.0001482055 -0.02445168
v -0.02743315 -0.0001482055 -0.02445168
v -0.02321024 0.01428329 -0.02180631
v -0.04530406 0.01197205 0.001196872
v -0.0479669 -0.0002294433 0.001091515
v -0.0479669 -0.0002294433 0.001091515
v -0.04530406 0.01197205 0.001196872
v -0.02660957 0.01428329 0.02420007
v -0.03053324 -0.0001482055 0.02663472
v -0.03053324 -0.0001482055 0.02663472
v -0.02660957 0.01428329 0.02420007
v -0.007041849 0.01428329 0.03961365
v -0.008804924 -0.0001482055 0.04351263
v -0.008804924 -0.0001482055 0.04351263
v -0.007041849 0.01428329 0.03961365
v 0.02432598 0.01428329 0.04799134
v 0.02460142 -0.0001482055 0.05115281
v 0.02460142 -0.0001482055 0.05115281
v 0.02432598 0.01428329 0.04799134
v 0.03671286 0.01428329 0.02420009
v 0.03978101 -0.0001482055 0.02663474
v 0.03978101 -0.0001482055 0.02663474
v 0.03671286 0.01428329 0.02420009
v 0.03865204 0.01197205 0.0011969
v 0.04193433 -0.0002294433 0.001091541
v 0.04193433 -0.0002294433 0.001091541
v 0.03865204 0.01197205 0.0011969
v 0.04568894 0.01428329 -0.02539673
v 0.04796695 -0.0001482055 -0.02772602
v 0.04568894 0.01428329 -0.02539673
v 0.0322525 0.02437446 -0.01614759
v 0.01203649 0.02437446 -0.03256855
v 0.01714516 0.01428329 -0.04799119
v 0.01714516 0.01428329 -0.04799119
v 0.01203649 0.02437446 -0.03256855
v -0.002592209 0.02437446 -0.02139374
v -0.01182907 0.01428329 -0.04559758
v -0.01182907 0.01428329 -0.04559758
v -0.002592209 0.02437446 -0.02139374
v -0.01125309 0.02437446 -0.01279516
v -0.02321024 0.01428329 -0.02180631
v -0.02321024 0.01428329 -0.02180631
v -0.01125309 0.02437446 -0.01279516
v -0.03124469 0.02074635 0.001117549
v -0.04530406 0.01197205 0.001196872
v -0.04530406 0.01197205 0.001196872
v -0.03124469 0.02074635 0.001117549
v -0.0144271 0.02437446 0.01503029
v -0.02660957 0.01428329 0.02420007
v -0.02660957 0.01428329 0.02420007
v -0.0144271 0.02437446 0.01503029
v -0.002592196 0.02437446 0.02474631
v -0.007041849 0.01428329 0.03961365
v -0.007041849 0.01428329 0.03961365
v -0.002592196 0.02437446 0.02474631
v 0.01874137 0.02437446 0.0325687
v 0.02432598 0.01428329 0.04799134
v 0.02432598 0.01428329 0.04799134
v 0.01874137 0.02437446 0.0325687
v 0.02387138 0.02437446 0.01503029
v 0.03671286 0.01428329 0.02420009
v 0.03671286 0.01428329 0.02420009
v 0.02387138 0.02437446 0.01503029
v 0.02504423 0.02074635 0.001117569
v 0.03865204 0.01197205 0.0011969
v 0.03865204 0.01197205 0.0011969
v 0.02504423 0.02074635 0.001117569
v 0.0322525 0.02437446 -0.01614759
v 0.04568894 0.01428329 -0.02539673
v 0.0322525 0.02437446 -0.01614759
v 0.004623896 0.03397603 0.001091498
v 0.01203649 0.02437446 -0.03256855
v 0.01203649 0.02437446 -0.03256855
v 0.004623896 0.03397603 0.001091498
v -0.002592209 0.02437446 -0.02139374
v -0.002592209 0.02437446 -0.02139374
v 0.004623896 0.03397603 0.001091498
v -0.01125309 0.02437446 -0.01279516
v -0.01125309 0.02437446 -0.01279516
v 0.004623896 0.03397603 0.001091498
v -0.03124469 0.02074635 0.001117549
v -0.03124469 0.02074635 0.001117549
v 0.004623896 0.03397603 0.001091498
v -0.0144271 0.02437446 0.01503029
v -0.0144271 0.02437446 0.01503029
v 0.004623896 0.03397603 0.001091498
v -0.002592196 0.02437446 0.02474631
v -0.002592196 0.02437446 0.02474631
v 0.004623896 0.03397603 0.001091498
v 0.01874137 0.02437446 0.0325687
v 0.01874137 0.02437446 0.0325687
v 0.004623896 0.03397603 0.001091498
v 0.02387138 0.02437446 0.01503029
v 0.02387138 0.02437446 0.01503029
v 0.004623896 0.03397603 0.001091498
v 0.02504423 0.02074635 0.001117569
v 0.02504423 0.02074635 0.001117569
v 0.004623896 0.03397603 0.001091498
v 0.0322525 0.02437446 -0.01614759

vn 0.102261 -0.9818564 -0.1596858
vn 0.001623821 -0.999998 0.0003969049
vn 0.2065252 -0.9784296 -0.004676748
vn -0.03856781 -0.9810983 -0.1896246
vn -0.2265571 -0.960238 -0.1631369
vn -0.2518048 -0.964273 -0.08228516
vn -0.2457153 -0.9679794 0.05136796
vn -0.1507728 -0.9703189 0.1890704
vn 0.01254051 -0.9818345 0.1893213
vn 0.2686021 -0.9585598 0.09494678
vn 0.3536058 -0.9154216 0.1922633
vn 0.5634655 -0.7039259 -0.4324285
vn 0.5634655 -0.7039259 -0.4324285
vn 0.5634655 -0.7039259 -0.4324285
vn 0.5634655 -0.7039259 -0.4324285
vn 0.1200178 -0.7031066 -0.7008823
vn 0.1200178 -0.7031068 -0.7008823
vn 0.1200178 -0.7031066 -0.7008823
vn 0.1200178 -0.7031067 -0.7008824
vn -0.5640044 -0.6620905 -0.4934922
vn -0.5640045 -0.6620904 -0.4934922
vn -0.5640044 -0.6620905 -0.4934922
vn -0.5640045 -0.6620904 -0.4934922
vn -0.4518456 -0.686398 -0.5698181
vn -0.4518457 -0.686398 -0.5698181
vn -0.4518456 -0.686398 -0.5698181
vn -0.4518456 -0.686398 -0.5698181
vn -0.6835902 -0.6953633 0.2217512
vn -0.6835902 -0.6953633 0.2217512
vn -0.6835903 -0.6953632 0.2217512
vn -0.6835903 -0.6953633 0.2217512
vn -0.5621651 -0.7039658 0.4340528
vn -0.5621653 -0.7039658 0.4340528
vn -0.5621651 -0.7039658 0.4340527
vn -0.5621651 -0.7039658 0.4340527
vn -0.3446532 -0.6928934 0.6333342
vn -0.3446532 -0.6928934 0.6333342
vn -0.3446532 -0.6928934 0.6333342
vn -0.3446532 -0.6928934 0.6333342
vn 0.544196 -0.6678942 0.507708
vn 0.544196 -0.6678942 0.507708
vn 0.544196 -0.6678942 0.507708
vn 0.5441961 -0.6678942 0.507708
vn 0.7169129 -0.6790237 0.157994
vn 0.7169129 -0.6790237 0.157994
vn 0.7169129 -0.6790237 0.157994
vn 0.7169129 -0.6790237 0.157994
vn 0.6619031 -0.6155775 0.4277244
vn 0.6619031 -0.6155773 0.4277244
vn 0.6619031 -0.6155775 0.4277244
vn 0.6619031 -0.6155774 0.4277244
vn 0.7910713 -5.93232E-17 -0.6117239
vn 0.7910713 -5.932321E-17 -0.6117239
vn 0.7910713 -5.932321E-17 -0.6117239
vn 0.7910713 -5.93232E-17 -0.6117239
vn 0.177447 1.340332E-16 -0.9841303
vn 0.177447 1.340332E-16 -0.9841303
vn 0.177447 1.340332E-16 -0.9841303
vn 0.177447 1.340332E-16 -0.9841303
vn -0.7143841 2.714174E-16 -0.6997537
vn -0.7143841 2.714174E-16 -0.6997537
vn -0.7143841 2.714174E-16 -0.6997537
vn -0.7143841 2.714174E-16 -0.6997537
vn -0.601599 2.650175E-16 -0.7987981
vn -0.601599 2.650175E-16 -0.7987981
vn -0.601599 2.650175E-16 -0.7987981
vn -0.601599 2.650175E-16 -0.7987981
vn -0.9391307 1.369982E-16 0.3435599
vn -0.9391307 1.369982E-16 0.3435599
vn -0.9391307 1.369982E-16 0.34356
vn -0.9391307 1.369982E-16 0.3435599
vn -0.788647 5.827208E-17 0.6148462
vn -0.788647 5.827208E-17 0.6148462
vn -0.788647 5.827208E-17 0.6148462
vn -0.788647 5.827208E-17 0.6148462
vn -0.4555842 -5.941473E-17 0.8901926
vn -0.4555842 -5.941473E-17 0.8901926
vn -0.4555842 -5.941473E-17 0.8901926
vn -0.4555842 -5.941473E-17 0.8901926
vn 0.6948758 -2.707009E-16 0.7191298
vn 0.6948758 -2.707009E-16 0.7191298
vn 0.6948758 -2.707009E-16 0.7191298
vn 0.6948758 -2.707009E-16 0.7191298
vn 0.9452971 -2.548122E-16 0.3262106
vn 0.945297 -2.548122E-16 0.3262107
vn 0.9452971 -2.548122E-16 0.3262106
vn 0.945297 -2.548122E-16 0.3262107
vn 0.898459 -2.646309E-16 0.4390573
vn 0.898459 -2.646309E-16 0.4390573
vn 0.898459 -2.646309E-16 0.4390573
vn 0.898459 -2.646309E-16 0.4390573
vn 0.7744818 0.2127569 -0.5957452
vn 0.7744818 0.2127569 -0.5957451
vn 0.7744818 0.2127569 -0.5957451
vn 0.7744818 0.2127569 -0.5957451
vn 0.1672118 0.2212332 -0.9607788
vn 0.1672118 0.2212333 -0.9607788
vn 0.1672118 0.2212333 -0.9607788
vn 0.1672118 0.2212333 -0.9607788
vn -0.7157671 0.2588965 -0.6485752
vn -0.7157672 0.2588965 -0.6485752
vn -0.7157671 0.2588965 -0.6485752
vn -0.7157671 0.2588964 -0.6485752
vn -0.5553985 0.2546347 -0.7916397
vn -0.5553985 0.2546347 -0.7916397
vn -0.5553985 0.2546347 -0.7916397
vn -0.5553985 0.2546347 -0.7916397
vn -0.9000521 0.2437818 0.3612153
vn -0.9000521 0.2437819 0.3612153
vn -0.9000521 0.2437818 0.3612152
vn -0.9000521 0.2437818 0.3612153
vn -0.7584762 0.2822601 0.5874034
vn -0.7584763 0.2822601 0.5874033
vn -0.7584763 0.2822602 0.5874034
vn -0.7584763 0.2822602 0.5874034
vn -0.457118 0.2423859 0.8557406
vn -0.457118 0.2423859 0.8557406
vn -0.457118 0.2423859 0.8557406
vn -0.457118 0.2423859 0.8557406
vn 0.7066419 0.1930068 0.6807389
vn 0.7066419 0.1930068 0.6807389
vn 0.7066419 0.1930068 0.6807389
vn 0.7066419 0.1930068 0.6807389
vn 0.9220617 0.2371581 0.3058724
vn 0.9220618 0.237158 0.3058724
vn 0.9220618 0.237158 0.3058724
vn 0.9220618 0.237158 0.3058724
vn 0.8693856 0.178262 0.4608591
vn 0.8693856 0.178262 0.4608591
vn 0.8693856 0.178262 0.4608591
vn 0.8693856 0.178262 0.4608591
vn 0.4365558 0.8368363 -0.330338
vn 0.4365558 0.8368363 -0.3303381
vn 0.4365558 0.8368363 -0.330338
vn 0.4365558 0.8368363 -0.3303381
vn -0.02454189 0.888432 -0.4583506
vn -0.02454189 0.888432 -0.4583506
vn -0.02454189 0.888432 -0.4583506
vn -0.02454186 0.888432 -0.4583506
vn -0.3435122 0.869334 -0.3553261
vn -0.3435122 0.869334 -0.3553262
vn -0.3435122 0.869334 -0.3553261
vn -0.3435122 0.869334 -0.3553262
vn -0.3429868 0.8049011 -0.4842452
vn -0.3429868 0.8049011 -0.4842452
vn -0.3429868 0.8049011 -0.4842452
vn -0.3429868 0.8049011 -0.4842452
vn -0.5392705 0.8185276 0.1979874
vn -0.5392704 0.8185277 0.1979874
vn -0.5392705 0.8185276 0.1979875
vn -0.5392705 0.8185276 0.1979874
vn -0.4538429 0.8222616 0.3433827
vn -0.453843 0.8222615 0.3433826
vn -0.453843 0.8222615 0.3433827
vn -0.453843 0.8222615 0.3433826
vn -0.2994638 0.8172351 0.4923895
vn -0.2994638 0.8172351 0.4923895
vn -0.2994638 0.8172351 0.4923895
vn -0.2994638 0.8172351 0.4923895
vn 0.4819607 0.7962338 0.3656838
vn 0.4819608 0.7962338 0.3656838
vn 0.4819608 0.7962338 0.3656839
vn 0.4819608 0.7962338 0.3656838
vn 0.5977911 0.7985128 0.07086808
vn 0.597791 0.7985128 0.07086805
vn 0.5977911 0.7985128 0.07086806
vn 0.5977911 0.7985128 0.0708681
vn 0.5200846 0.7325382 0.4392028
vn 0.5200846 0.7325383 0.4392027
vn 0.5200846 0.7325382 0.4392028
vn 0.5200846 0.7325382 0.4392028
vn 0.2386377 0.9546863 -0.1778339
vn 0.2386377 0.9546863 -0.1778339
vn 0.2386377 0.9546863 -0.1778339
vn -0.155813 0.9181485 -0.3643141
vn -0.155813 0.9181485 -0.3643141
vn -0.1558129 0.9181485 -0.3643141
vn -0.2111602 0.9097519 -0.357438
vn -0.2111602 0.9097519 -0.357438
vn -0.2111602 0.9097519 -0.357438
vn -0.2651462 0.9095346 -0.3200676
vn -0.2651463 0.9095346 -0.3200677
vn -0.2651463 0.9095346 -0.3200677
vn -0.3723938 0.9244463 0.08198141
vn -0.3723938 0.9244463 0.08198143
vn -0.3723938 0.9244463 0.08198141
vn -0.3116949 0.9219849 0.2297587
vn -0.3116949 0.921985 0.2297587
vn -0.3116949 0.921985 0.2297587
vn -0.2045218 0.9320195 0.2991811
vn -0.2045218 0.9320195 0.299181
vn -0.2045218 0.9320195 0.299181
vn 0.3395481 0.9190342 0.2002051
vn 0.3395482 0.9190342 0.2002052
vn 0.3395482 0.9190342 0.2002052
vn 0.5613724 0.8268816 -0.03356969
vn 0.5613723 0.8268816 -0.03356969
vn 0.5613723 0.8268817 -0.03356969
vn 0.3966194 0.7785739 0.486328
vn 0.3966194 0.7785739 0.486328
vn 0.3966194 0.7785739 0.486328

vt 0.5482839 0.007647395
vt 0.5 0.15
vt 0.6264089 0.06440853
vt 0.4517161 0.00764741
vt 0.3735911 0.06440856
vt 0.34375 0.15625
vt 0.3735911 0.2480915
vt 0.4517161 0.3048526
vt 0.5482839 0.3048526
vt 0.6264089 0.2480914
vt 0.65625 0.15625
vt 0 0
vt 0 1
vt 1 1
vt 1 0
vt 0 0
vt 0 1
vt 1 1
vt 1 0
vt 0 0
vt 0 1
vt 1 1
vt 1 0
vt 0 0
vt 0 1
vt 1 1
vt 1 0
vt 0 0
vt 0 1
vt 1 1
vt 1 0
vt 0 0
vt 0 1
vt 1 1
vt 1 0
vt 0 0
vt 0 1
vt 1 1
vt 1 0
vt 0 0
vt 0 1
vt 1 1
vt 1 0
vt 0 0
vt 0 1
vt 1 1
vt 1 0
vt 0 0
vt 0 1
vt 1 1
vt 1 0
vt 0 0
vt 0 1
vt 1 1
vt 1 0
vt 0 0
vt 0 1
vt 1 1
vt 1 0
vt 0 0
vt 0 1
vt 1 1
vt 1 0
vt 0 0
vt 0 1
vt 1 1
vt 1 0
vt 0 0
vt 0 1
vt 1 1
vt 1 0
vt 0 0
vt 0 1
vt 1 1
vt 1 0
vt 0 0
vt 0 1
vt 1 1
vt 1 0
vt 0 0
vt 0 1
vt 1 1
vt 1 0
vt 0 0
vt 0 1
vt 1 1
vt 1 0
vt 0 0
vt 0 1
vt 1 1
vt 1 0
vt 0 0
vt 0 1
vt 1 1
vt 1 0
vt 0 0
vt 0 1
vt 1 1
vt 1 0
vt 0 0
vt 0 1
vt 1 1
vt 1 0
vt 0 0
vt 0 1
vt 1 1
vt 1 0
vt 0 0
vt 0 1
vt 1 1
vt 1 0
vt 0 0
vt 0 1
vt 1 1
vt 1 0
vt 0 0
vt 0 1
vt 1 1
vt 1 0
vt 0 0
vt 0 1
vt 1 1
vt 1 0
vt 0 0
vt 0 1
vt 1 1
vt 1 0
vt 0 0
vt 0 1
vt 1 1
vt 1 0
vt 0 0
vt 0 1
vt 1 1
vt 1 0
vt 0 0
vt 0 1
vt 1 1
vt 1 0
vt 0 0
vt 0 1
vt 1 1
vt 1 0
vt 0 0
vt 0 1
vt 1 1
vt 1 0
vt 0 0
vt 0 1
vt 1 1
vt 1 0
vt 0 0
vt 0 1
vt 1 1
vt 1 0
vt 0 0
vt 0 1
vt 1 1
vt 1 0
vt 0 0
vt 0 1
vt 1 1
vt 1 0
vt 0 0
vt 0 1
vt 1 1
vt 1 0
vt 0 0
vt 0 1
vt 1 1
vt 1 0
vt 0 0
vt 0.5 1
vt 1 0
vt 0 0
vt 0.5 1
vt 1 0
vt 0 0
vt 0.5 1
vt 1 0
vt 0 0
vt 0.5 1
vt 1 0
vt 0 0
vt 0.5 1
vt 1 0
vt 0 0
vt 0.5 1
vt 1 0
vt 0 0
vt 0.5 1
vt 1 0
vt 0 0
vt 0.5 1
vt 1 0
vt 0 0
vt 0.5 1
vt 1 0
vt 0 0
vt 0.5 1
vt 1 0

g pCylinder8_5_4080_33
usemtl pCylinder8_5_4080_33
usemap pCylinder8_5_4080_33
f 1/1/1 3/3/3 2/2/2
f 4/4/4 1/1/1 2/2/2
f 5/5/5 4/4/4 2/2/2
f 6/6/6 5/5/5 2/2/2
f 7/7/7 6/6/6 2/2/2
f 8/8/8 7/7/7 2/2/2
f 9/9/9 8/8/8 2/2/2
f 10/10/10 9/9/9 2/2/2
f 11/11/11 10/10/10 2/2/2
f 3/3/3 11/11/11 2/2/2
f 12/12/12 14/14/14 13/13/13
f 12/12/12 15/15/15 14/14/14
f 16/16/16 18/18/18 17/17/17
f 16/16/16 19/19/19 18/18/18
f 20/20/20 22/22/22 21/21/21
f 20/20/20 23/23/23 22/22/22
f 24/24/24 26/26/26 25/25/25
f 24/24/24 27/27/27 26/26/26
f 28/28/28 30/30/30 29/29/29
f 28/28/28 31/31/31 30/30/30
f 32/32/32 34/34/34 33/33/33
f 32/32/32 35/35/35 34/34/34
f 36/36/36 38/38/38 37/37/37
f 36/36/36 39/39/39 38/38/38
f 40/40/40 42/42/42 41/41/41
f 40/40/40 43/43/43 42/42/42
f 44/44/44 46/46/46 45/45/45
f 44/44/44 47/47/47 46/46/46
f 48/48/48 50/50/50 49/49/49
f 48/48/48 51/51/51 50/50/50
f 52/52/52 54/54/54 53/53/53
f 52/52/52 55/55/55 54/54/54
f 56/56/56 58/58/58 57/57/57
f 56/56/56 59/59/59 58/58/58
f 60/60/60 62/62/62 61/61/61
f 60/60/60 63/63/63 62/62/62
f 64/64/64 66/66/66 65/65/65
f 64/64/64 67/67/67 66/66/66
f 68/68/68 70/70/70 69/69/69
f 68/68/68 71/71/71 70/70/70
f 72/72/72 74/74/74 73/73/73
f 72/72/72 75/75/75 74/74/74
f 76/76/76 78/78/78 77/77/77
f 76/76/76 79/79/79 78/78/78
f 80/80/80 82/82/82 81/81/81
f 80/80/80 83/83/83 82/82/82
f 84/84/84 86/86/86 85/85/85
f 84/84/84 87/87/87 86/86/86
f 88/88/88 90/90/90 89/89/89
f 88/88/88 91/91/91 90/90/90
f 92/92/92 94/94/94 93/93/93
f 92/92/92 95/95/95 94/94/94
f 96/96/96 98/98/98 97/97/97
f 96/96/96 99/99/99 98/98/98
f 100/100/100 102/102/102 101/101/101
f 100/100/100 103/103/103 102/102/102
f 104/104/104 106/106/106 105/105/105
f 104/104/104 107/107/107 106/106/106
f 108/108/108 110/110/110 109/109/109
f 108/108/108 111/111/111 110/110/110
f 112/112/112 114/114/114 113/113/113
f 112/112/112 115/115/115 114/114/114
f 116/116/116 118/118/118 117/117/117
f 116/116/116 119/119/119 118/118/118
f 120/120/120 122/122/122 121/121/121
f 120/120/120 123/123/123 122/122/122
f 124/124/124 126/126/126 125/125/125
f 124/124/124 127/127/127 126/126/126
f 128/128/128 130/130/130 129/129/129
f 128/128/128 131/131/131 130/130/130
f 132/132/132 134/134/134 133/133/133
f 132/132/132 135/135/135 134/134/134
f 136/136/136 138/138/138 137/137/137
f 136/136/136 139/139/139 138/138/138
f 140/140/140 142/142/142 141/141/141
f 140/140/140 143/143/143 142/142/142
f 144/144/144 146/146/146 145/145/145
f 144/144/144 147/147/147 146/146/146
f 148/148/148 150/150/150 149/149/149
f 148/148/148 151/151/151 150/150/150
f 152/152/152 154/154/154 153/153/153
f 152/152/152 155/155/155 154/154/154
f 156/156/156 158/158/158 157/157/157
f 156/156/156 159/159/159 158/158/158
f 160/160/160 162/162/162 161/161/161
f 160/160/160 163/163/163 162/162/162
f 164/164/164 166/166/166 165/165/165
f 164/164/164 167/167/167 166/166/166
f 168/168/168 170/170/170 169/169/169
f 168/168/168 171/171/171 170/170/170
f 172/172/172 174/174/174 173/173/173
f 175/175/175 177/177/177 176/176/176
f 178/178/178 180/180/180 179/179/179
f 181/181/181 183/183/183 182/182/182
f 184/184/184 186/186/186 185/185/185
f 187/187/187 189/189/189 188/188/188
f 190/190/190 192/192/192 191/191/191
f 193/193/193 195/195/195 194/194/194
f 196/196/196 198/198/198 197/197/197
f 199/199/199 201/201/201 200/200/200
