#pCylinder1_16_3916_48.obj

v 0.01454559 -0.02577564 -0.04035952
v 0.004624141 -0.03397604 0.001090355
v 0.03878478 -0.02577564 -0.02105587
v -0.00966312 -0.02577564 -0.0381765
v -0.0182505 -0.02577564 -0.01778159
v -0.03822184 -0.02223225 0.001090372
v -0.02135057 -0.02577564 0.01996196
v -0.005297298 -0.02577564 0.03271678
v 0.02109432 -0.02577564 0.04035702
v 0.03059887 -0.02577564 0.01996221
v 0.03218975 -0.02223225 0.001090365
v 0.03878478 -0.02577564 -0.02105587
v 0.04796717 -0.0148924 -0.02772731
v 0.01805295 -0.0148924 -0.05115381
v 0.01454559 -0.02577564 -0.04035952
v 0.01454559 -0.02577564 -0.04035952
v 0.01805295 -0.0148924 -0.05115381
v -0.0131705 -0.0148924 -0.04897097
v -0.00966312 -0.02577564 -0.0381765
v -0.00966312 -0.02577564 -0.0381765
v -0.0131705 -0.0148924 -0.04897097
v -0.02743291 -0.0148924 -0.02445284
v -0.0182505 -0.02577564 -0.01778159
v -0.0182505 -0.02577564 -0.01778159
v -0.02743291 -0.0148924 -0.02445284
v -0.04796666 -0.01288824 0.001090405
v -0.03822184 -0.02223225 0.001090372
v -0.03822184 -0.02223225 0.001090372
v -0.04796666 -0.01288824 0.001090405
v -0.03053298 -0.0148924 0.02663339
v -0.02135057 -0.02577564 0.01996196
v -0.02135057 -0.02577564 0.01996196
v -0.03053298 -0.0148924 0.02663339
v -0.008804669 -0.0148924 0.0435114
v -0.005297298 -0.02577564 0.03271678
v -0.005297298 -0.02577564 0.03271678
v -0.008804669 -0.0148924 0.0435114
v 0.02460166 -0.0148924 0.05115149
v 0.02109432 -0.02577564 0.04035702
v 0.02109432 -0.02577564 0.04035702
v 0.02460166 -0.0148924 0.05115149
v 0.03978126 -0.0148924 0.02663346
v 0.03059887 -0.02577564 0.01996221
v 0.03059887 -0.02577564 0.01996221
v 0.03978126 -0.0148924 0.02663346
v 0.04193456 -0.01288824 0.001090332
v 0.03218975 -0.02223225 0.001090365
v 0.03218975 -0.02223225 0.001090365
v 0.04193456 -0.01288824 0.001090332
v 0.04796717 -0.0148924 -0.02772731
v 0.03878478 -0.02577564 -0.02105587
v 0.04796717 -0.0148924 -0.02772731
v 0.04796717 -0.0001483345 -0.02772731
v 0.01805295 -0.0001483345 -0.05115381
v 0.01805295 -0.0148924 -0.05115381
v 0.01805295 -0.0148924 -0.05115381
v 0.01805295 -0.0001483345 -0.05115381
v -0.0131705 -0.0001483345 -0.04897097
v -0.0131705 -0.0148924 -0.04897097
v -0.0131705 -0.0148924 -0.04897097
v -0.0131705 -0.0001483345 -0.04897097
v -0.02743291 -0.0001483345 -0.02445284
v -0.02743291 -0.0148924 -0.02445284
v -0.02743291 -0.0148924 -0.02445284
v -0.02743291 -0.0001483345 -0.02445284
v -0.04796666 -0.0002294205 0.001090405
v -0.04796666 -0.01288824 0.001090405
v -0.04796666 -0.01288824 0.001090405
v -0.04796666 -0.0002294205 0.001090405
v -0.03053298 -0.0001483345 0.02663339
v -0.03053298 -0.0148924 0.02663339
v -0.03053298 -0.0148924 0.02663339
v -0.03053298 -0.0001483345 0.02663339
v -0.008804669 -0.0001483345 0.0435114
v -0.008804669 -0.0148924 0.0435114
v -0.008804669 -0.0148924 0.0435114
v -0.008804669 -0.0001483345 0.0435114
v 0.02460166 -0.0001483345 0.05115149
v 0.02460166 -0.0148924 0.05115149
v 0.02460166 -0.0148924 0.05115149
v 0.02460166 -0.0001483345 0.05115149
v 0.03978126 -0.0001483345 0.02663346
v 0.03978126 -0.0148924 0.02663346
v 0.03978126 -0.0148924 0.02663346
v 0.03978126 -0.0001483345 0.02663346
v 0.04193456 -0.0002294205 0.001090332
v 0.04193456 -0.01288824 0.001090332
v 0.04193456 -0.01288824 0.001090332
v 0.04193456 -0.0002294205 0.001090332
v 0.04796717 -0.0001483345 -0.02772731
v 0.04796717 -0.0148924 -0.02772731
v 0.04796717 -0.0001483345 -0.02772731
v 0.04568917 0.01428333 -0.02539801
v 0.01714539 0.01428333 -0.04799227
v 0.01805295 -0.0001483345 -0.05115381
v 0.01805295 -0.0001483345 -0.05115381
v 0.01714539 0.01428333 -0.04799227
v -0.01182885 0.01428333 -0.04559873
v -0.0131705 -0.0001483345 -0.04897097
v -0.0131705 -0.0001483345 -0.04897097
v -0.01182885 0.01428333 -0.04559873
v -0.02321001 0.01428333 -0.02180762
v -0.02743291 -0.0001483345 -0.02445284
v -0.02743291 -0.0001483345 -0.02445284
v -0.02321001 0.01428333 -0.02180762
v -0.04530385 0.01197205 0.001195665
v -0.04796666 -0.0002294205 0.001090405
v -0.04796666 -0.0002294205 0.001090405
v -0.04530385 0.01197205 0.001195665
v -0.02660932 0.01428333 0.02419898
v -0.03053298 -0.0001483345 0.02663339
v -0.03053298 -0.0001483345 0.02663339
v -0.02660932 0.01428333 0.02419898
v -0.007041583 0.01428333 0.03961243
v -0.008804669 -0.0001483345 0.0435114
v -0.008804669 -0.0001483345 0.0435114
v -0.007041583 0.01428333 0.03961243
v 0.02432622 0.01428333 0.04799006
v 0.02460166 -0.0001483345 0.05115149
v 0.02460166 -0.0001483345 0.05115149
v 0.02432622 0.01428333 0.04799006
v 0.0367131 0.01428333 0.02419899
v 0.03978126 -0.0001483345 0.02663346
v 0.03978126 -0.0001483345 0.02663346
v 0.0367131 0.01428333 0.02419899
v 0.03865227 0.01197205 0.001195651
v 0.04193456 -0.0002294205 0.001090332
v 0.04193456 -0.0002294205 0.001090332
v 0.03865227 0.01197205 0.001195651
v 0.04568917 0.01428333 -0.02539801
v 0.04796717 -0.0001483345 -0.02772731
v 0.04568917 0.01428333 -0.02539801
v 0.03225273 0.02437442 -0.01614899
v 0.01203673 0.02437442 -0.03256992
v 0.01714539 0.01428333 -0.04799227
v 0.01714539 0.01428333 -0.04799227
v 0.01203673 0.02437442 -0.03256992
v -0.002591968 0.02437442 -0.02139506
v -0.01182885 0.01428333 -0.04559873
v -0.01182885 0.01428333 -0.04559873
v -0.002591968 0.02437442 -0.02139506
v -0.01125283 0.02437442 -0.01279631
v -0.02321001 0.01428333 -0.02180762
v -0.02321001 0.01428333 -0.02180762
v -0.01125283 0.02437442 -0.01279631
v -0.03124444 0.02074648 0.001116379
v -0.04530385 0.01197205 0.001195665
v -0.04530385 0.01197205 0.001195665
v -0.03124444 0.02074648 0.001116379
v -0.01442686 0.02437442 0.01502897
v -0.02660932 0.01428333 0.02419898
v -0.02660932 0.01428333 0.02419898
v -0.01442686 0.02437442 0.01502897
v -0.002591977 0.02437442 0.02474522
v -0.007041583 0.01428333 0.03961243
v -0.007041583 0.01428333 0.03961243
v -0.002591977 0.02437442 0.02474522
v 0.01874162 0.02437442 0.03256752
v 0.02432622 0.01428333 0.04799006
v 0.02432622 0.01428333 0.04799006
v 0.01874162 0.02437442 0.03256752
v 0.02387162 0.02437442 0.01502899
v 0.0367131 0.01428333 0.02419899
v 0.0367131 0.01428333 0.02419899
v 0.02387162 0.02437442 0.01502899
v 0.02504446 0.02074648 0.00111626
v 0.03865227 0.01197205 0.001195651
v 0.03865227 0.01197205 0.001195651
v 0.02504446 0.02074648 0.00111626
v 0.03225273 0.02437442 -0.01614899
v 0.04568917 0.01428333 -0.02539801
v 0.03225273 0.02437442 -0.01614899
v 0.004624141 0.03397603 0.001090355
v 0.01203673 0.02437442 -0.03256992
v 0.01203673 0.02437442 -0.03256992
v 0.004624141 0.03397603 0.001090355
v -0.002591968 0.02437442 -0.02139506
v -0.002591968 0.02437442 -0.02139506
v 0.004624141 0.03397603 0.001090355
v -0.01125283 0.02437442 -0.01279631
v -0.01125283 0.02437442 -0.01279631
v 0.004624141 0.03397603 0.001090355
v -0.03124444 0.02074648 0.001116379
v -0.03124444 0.02074648 0.001116379
v 0.004624141 0.03397603 0.001090355
v -0.01442686 0.02437442 0.01502897
v -0.01442686 0.02437442 0.01502897
v 0.004624141 0.03397603 0.001090355
v -0.002591977 0.02437442 0.02474522
v -0.002591977 0.02437442 0.02474522
v 0.004624141 0.03397603 0.001090355
v 0.01874162 0.02437442 0.03256752
v 0.01874162 0.02437442 0.03256752
v 0.004624141 0.03397603 0.001090355
v 0.02387162 0.02437442 0.01502899
v 0.02387162 0.02437442 0.01502899
v 0.004624141 0.03397603 0.001090355
v 0.02504446 0.02074648 0.00111626
v 0.02504446 0.02074648 0.00111626
v 0.004624141 0.03397603 0.001090355
v 0.03225273 0.02437442 -0.01614899

vn -0.1775079 -0.9818566 -0.06669213
vn 4.93619E-05 -0.9999982 -0.001670895
vn -0.04766496 -0.9784297 -0.2010039
vn -0.177404 -0.9810985 0.07728384
vn -0.1122756 -0.9602382 0.255609
vn -0.02793547 -0.9642732 0.2634314
vn 0.1015055 -0.9679796 0.2295894
vn 0.2163676 -0.970319 0.1080052
vn 0.1825379 -0.9818347 -0.05176608
vn 0.03681369 -0.95856 -0.2825008
vn 0.1142525 -0.9154218 -0.3859387
vn -0.5404773 -0.703926 -0.4608386
vn -0.5404773 -0.703926 -0.4608385
vn -0.5404772 -0.703926 -0.4608386
vn -0.5404773 -0.703926 -0.4608385
vn -0.7104979 -0.7031068 0.02886162
vn -0.7104979 -0.7031069 0.02886162
vn -0.7104979 -0.7031068 0.02886163
vn -0.710498 -0.7031068 0.02886163
vn -0.3649522 -0.6620906 0.6545575
vn -0.3649522 -0.6620905 0.6545575
vn -0.3649522 -0.6620906 0.6545575
vn -0.3649522 -0.6620905 0.6545575
vn -0.463 -0.6863981 0.5607924
vn -0.463 -0.6863981 0.5607926
vn -0.463 -0.6863981 0.5607925
vn -0.4629999 -0.6863981 0.5607925
vn 0.3595006 -0.6953634 0.6222768
vn 0.3595006 -0.6953634 0.6222768
vn 0.3595006 -0.6953633 0.6222769
vn 0.3595006 -0.6953634 0.6222769
vn 0.5417945 -0.7039659 0.4592279
vn 0.5417945 -0.7039659 0.459228
vn 0.5417944 -0.7039659 0.4592279
vn 0.5417944 -0.7039659 0.4592279
vn 0.6913063 -0.6928935 0.2049235
vn 0.6913063 -0.6928936 0.2049235
vn 0.6913064 -0.6928936 0.2049235
vn 0.6913063 -0.6928935 0.2049235
vn 0.3829881 -0.6678944 -0.6381511
vn 0.3829881 -0.6678944 -0.638151
vn 0.3829881 -0.6678944 -0.638151
vn 0.3829881 -0.6678944 -0.6381512
vn 0.004934002 -0.6790238 -0.7340993
vn 0.004933998 -0.6790239 -0.7340993
vn 0.004934002 -0.6790238 -0.7340993
vn 0.004933998 -0.6790238 -0.7340993
vn 0.2802056 -0.6155776 -0.7365791
vn 0.2802055 -0.6155775 -0.7365792
vn 0.2802056 -0.6155776 -0.7365791
vn 0.2802055 -0.6155775 -0.7365791
vn -0.763316 8.296817E-17 -0.6460252
vn -0.763316 8.296816E-17 -0.6460253
vn -0.763316 8.296816E-17 -0.6460253
vn -0.763316 8.296817E-17 -0.6460252
vn -0.9994943 1.937332E-16 0.0317957
vn -0.9994943 1.937332E-16 0.0317957
vn -0.9994943 1.937332E-16 0.0317957
vn -0.9994943 1.937332E-16 0.0317957
vn -0.5352976 1.839965E-16 0.8446634
vn -0.5352976 1.839965E-16 0.8446634
vn -0.5352976 1.839965E-16 0.8446634
vn -0.5352976 1.839965E-16 0.8446634
vn -0.6556945 1.982716E-16 0.7550262
vn -0.6556945 1.982716E-16 0.7550263
vn -0.6556945 1.982716E-16 0.7550262
vn -0.6556945 1.982716E-16 0.7550262
vn 0.5319465 -1.937215E-17 0.8467779
vn 0.5319465 -1.937215E-17 0.8467779
vn 0.5319467 -1.937217E-17 0.8467779
vn 0.5319465 -1.937215E-17 0.8467779
vn 0.7658637 -8.374716E-17 0.6430029
vn 0.7658637 -8.374716E-17 0.6430029
vn 0.7658637 -8.374716E-17 0.6430029
vn 0.7658637 -8.374716E-17 0.6430029
vn 0.965657 -1.590067E-16 0.2598199
vn 0.965657 -1.590067E-16 0.2598199
vn 0.965657 -1.590067E-16 0.2598199
vn 0.965657 -1.590067E-16 0.2598199
vn 0.5583176 -1.869298E-16 -0.8296273
vn 0.5583176 -1.869298E-16 -0.8296273
vn 0.5583176 -1.869298E-16 -0.8296273
vn 0.5583176 -1.869298E-16 -0.8296273
vn 0.1217963 -1.194605E-16 -0.9925551
vn 0.1217963 -1.194605E-16 -0.9925551
vn 0.1217963 -1.194605E-16 -0.9925551
vn 0.1217963 -1.194605E-16 -0.9925551
vn 0.241932 -1.402177E-16 -0.9702932
vn 0.2419319 -1.402177E-16 -0.9702932
vn 0.241932 -1.402177E-16 -0.9702932
vn 0.241932 -1.402177E-16 -0.9702932
vn -0.7442276 0.212757 -0.6331348
vn -0.7442276 0.212757 -0.6331347
vn -0.7442276 0.212757 -0.6331347
vn -0.7442276 0.212757 -0.6331347
vn -0.9745212 0.2212333 0.03693334
vn -0.9745212 0.2212333 0.03693335
vn -0.9745212 0.2212333 0.03693335
vn -0.9745212 0.2212333 0.03693335
vn -0.4849569 0.2588965 0.8353378
vn -0.4849569 0.2588965 0.8353378
vn -0.484957 0.2588965 0.8353378
vn -0.4849569 0.2588965 0.8353378
vn -0.6583334 0.2546348 0.7083489
vn -0.6583334 0.2546348 0.7083489
vn -0.6583334 0.2546347 0.7083489
vn -0.6583334 0.2546348 0.7083489
vn 0.5410596 0.2437819 0.8048757
vn 0.5410596 0.2437819 0.8048757
vn 0.5410596 0.2437819 0.8048757
vn 0.5410596 0.2437819 0.8048757
vn 0.7327299 0.2822602 0.619222
vn 0.7327299 0.2822602 0.619222
vn 0.7327299 0.2822602 0.619222
vn 0.7327299 0.2822602 0.619222
vn 0.9322833 0.2423859 0.2685083
vn 0.9322833 0.2423859 0.2685083
vn 0.9322833 0.2423859 0.2685083
vn 0.9322833 0.2423859 0.2685083
vn 0.5183166 0.1930069 -0.8331243
vn 0.5183166 0.1930069 -0.8331243
vn 0.5183167 0.1930069 -0.8331243
vn 0.5183166 0.1930069 -0.8331243
vn 0.1067537 0.2371581 -0.9655877
vn 0.1067538 0.2371581 -0.9655877
vn 0.1067537 0.2371581 -0.9655877
vn 0.1067538 0.2371581 -0.9655877
vn 0.2693201 0.178262 -0.9464086
vn 0.2693201 0.178262 -0.9464086
vn 0.2693201 0.178262 -0.9464086
vn 0.2693201 0.178262 -0.9464086
vn -0.4141541 0.8368364 -0.358023
vn -0.4141542 0.8368364 -0.358023
vn -0.4141541 0.8368364 -0.358023
vn -0.4141542 0.8368364 -0.358023
vn -0.443142 0.8884322 0.1196359
vn -0.443142 0.8884321 0.1196359
vn -0.443142 0.8884322 0.1196359
vn -0.443142 0.8884322 0.1196358
vn -0.2758324 0.8693342 0.41009
vn -0.2758324 0.8693342 0.41009
vn -0.2758324 0.8693342 0.41009
vn -0.2758324 0.8693342 0.41009
vn -0.4020238 0.8049012 0.4364749
vn -0.4020238 0.8049012 0.4364749
vn -0.4020238 0.8049012 0.4364749
vn -0.4020238 0.8049012 0.4364749
vn 0.3061478 0.8185278 0.4860918
vn 0.3061478 0.8185278 0.4860917
vn 0.3061478 0.8185278 0.4860918
vn 0.3061478 0.8185278 0.4860918
vn 0.4305187 0.8222618 0.372208
vn 0.4305186 0.8222616 0.372208
vn 0.4305187 0.8222616 0.372208
vn 0.4305186 0.8222616 0.372208
vn 0.544035 0.8172352 0.1901366
vn 0.544035 0.8172352 0.1901366
vn 0.544035 0.8172352 0.1901366
vn 0.544035 0.8172352 0.1901366
vn 0.257075 0.796234 -0.5476525
vn 0.2570751 0.796234 -0.5476525
vn 0.2570751 0.796234 -0.5476525
vn 0.2570751 0.796234 -0.5476525
vn -0.0554198 0.7985129 -0.5994207
vn -0.05541982 0.7985129 -0.5994205
vn -0.05541981 0.7985129 -0.5994206
vn -0.05541979 0.7985129 -0.5994207
vn 0.3210215 0.7325383 -0.6002769
vn 0.3210214 0.7325384 -0.6002769
vn 0.3210215 0.7325383 -0.6002769
vn 0.3210215 0.7325383 -0.6002769
vn -0.2237113 0.9546865 -0.1962808
vn -0.2237113 0.9546865 -0.1962808
vn -0.2237113 0.9546865 -0.1962808
vn -0.3237857 0.9181486 0.2283972
vn -0.3237857 0.9181486 0.2283972
vn -0.3237857 0.9181486 0.2283972
vn -0.3055128 0.9097521 0.2810916
vn -0.3055129 0.9097521 0.2810916
vn -0.3055128 0.9097521 0.2810916
vn -0.2577009 0.9095348 0.3260921
vn -0.2577009 0.9095348 0.3260922
vn -0.2577009 0.9095348 0.3260922
vn 0.1578764 0.9244465 0.3470924
vn 0.1578764 0.9244465 0.3470924
vn 0.1578764 0.9244465 0.3470924
vn 0.2897365 0.9219851 0.256896
vn 0.2897365 0.9219851 0.256896
vn 0.2897365 0.9219851 0.256896
vn 0.3352695 0.9320197 0.1375968
vn 0.3352695 0.9320197 0.1375968
vn 0.3352695 0.9320197 0.1375968
vn 0.1249526 0.9190344 -0.3738474
vn 0.1249526 0.9190344 -0.3738475
vn 0.1249526 0.9190344 -0.3738475
vn -0.1499603 0.8268818 -0.5420128
vn -0.1499603 0.8268818 -0.5420127
vn -0.1499603 0.8268818 -0.5420127
vn 0.3928703 0.7785741 -0.4893617
vn 0.3928703 0.7785741 -0.4893616
vn 0.3928703 0.7785741 -0.4893617

vt 0.5482839 0.007647395
vt 0.5 0.15
vt 0.6264089 0.06440853
vt 0.4517161 0.00764741
vt 0.3735911 0.06440856
vt 0.34375 0.15625
vt 0.3735911 0.2480915
vt 0.4517161 0.3048526
vt 0.5482839 0.3048526
vt 0.6264089 0.2480914
vt 0.65625 0.15625
vt 0 0
vt 0 1
vt 1 1
vt 1 0
vt 0 0
vt 0 1
vt 1 1
vt 1 0
vt 0 0
vt 0 1
vt 1 1
vt 1 0
vt 0 0
vt 0 1
vt 1 1
vt 1 0
vt 0 0
vt 0 1
vt 1 1
vt 1 0
vt 0 0
vt 0 1
vt 1 1
vt 1 0
vt 0 0
vt 0 1
vt 1 1
vt 1 0
vt 0 0
vt 0 1
vt 1 1
vt 1 0
vt 0 0
vt 0 1
vt 1 1
vt 1 0
vt 0 0
vt 0 1
vt 1 1
vt 1 0
vt 0 0
vt 0 1
vt 1 1
vt 1 0
vt 0 0
vt 0 1
vt 1 1
vt 1 0
vt 0 0
vt 0 1
vt 1 1
vt 1 0
vt 0 0
vt 0 1
vt 1 1
vt 1 0
vt 0 0
vt 0 1
vt 1 1
vt 1 0
vt 0 0
vt 0 1
vt 1 1
vt 1 0
vt 0 0
vt 0 1
vt 1 1
vt 1 0
vt 0 0
vt 0 1
vt 1 1
vt 1 0
vt 0 0
vt 0 1
vt 1 1
vt 1 0
vt 0 0
vt 0 1
vt 1 1
vt 1 0
vt 0 0
vt 0 1
vt 1 1
vt 1 0
vt 0 0
vt 0 1
vt 1 1
vt 1 0
vt 0 0
vt 0 1
vt 1 1
vt 1 0
vt 0 0
vt 0 1
vt 1 1
vt 1 0
vt 0 0
vt 0 1
vt 1 1
vt 1 0
vt 0 0
vt 0 1
vt 1 1
vt 1 0
vt 0 0
vt 0 1
vt 1 1
vt 1 0
vt 0 0
vt 0 1
vt 1 1
vt 1 0
vt 0 0
vt 0 1
vt 1 1
vt 1 0
vt 0 0
vt 0 1
vt 1 1
vt 1 0
vt 0 0
vt 0 1
vt 1 1
vt 1 0
vt 0 0
vt 0 1
vt 1 1
vt 1 0
vt 0 0
vt 0 1
vt 1 1
vt 1 0
vt 0 0
vt 0 1
vt 1 1
vt 1 0
vt 0 0
vt 0 1
vt 1 1
vt 1 0
vt 0 0
vt 0 1
vt 1 1
vt 1 0
vt 0 0
vt 0 1
vt 1 1
vt 1 0
vt 0 0
vt 0 1
vt 1 1
vt 1 0
vt 0 0
vt 0 1
vt 1 1
vt 1 0
vt 0 0
vt 0 1
vt 1 1
vt 1 0
vt 0 0
vt 0.5 1
vt 1 0
vt 0 0
vt 0.5 1
vt 1 0
vt 0 0
vt 0.5 1
vt 1 0
vt 0 0
vt 0.5 1
vt 1 0
vt 0 0
vt 0.5 1
vt 1 0
vt 0 0
vt 0.5 1
vt 1 0
vt 0 0
vt 0.5 1
vt 1 0
vt 0 0
vt 0.5 1
vt 1 0
vt 0 0
vt 0.5 1
vt 1 0
vt 0 0
vt 0.5 1
vt 1 0

g pCylinder1_16_3916_48
usemtl pCylinder1_16_3916_48
usemap pCylinder1_16_3916_48
f 1/1/1 3/3/3 2/2/2
f 4/4/4 1/1/1 2/2/2
f 5/5/5 4/4/4 2/2/2
f 6/6/6 5/5/5 2/2/2
f 7/7/7 6/6/6 2/2/2
f 8/8/8 7/7/7 2/2/2
f 9/9/9 8/8/8 2/2/2
f 10/10/10 9/9/9 2/2/2
f 11/11/11 10/10/10 2/2/2
f 3/3/3 11/11/11 2/2/2
f 12/12/12 14/14/14 13/13/13
f 12/12/12 15/15/15 14/14/14
f 16/16/16 18/18/18 17/17/17
f 16/16/16 19/19/19 18/18/18
f 20/20/20 22/22/22 21/21/21
f 20/20/20 23/23/23 22/22/22
f 24/24/24 26/26/26 25/25/25
f 24/24/24 27/27/27 26/26/26
f 28/28/28 30/30/30 29/29/29
f 28/28/28 31/31/31 30/30/30
f 32/32/32 34/34/34 33/33/33
f 32/32/32 35/35/35 34/34/34
f 36/36/36 38/38/38 37/37/37
f 36/36/36 39/39/39 38/38/38
f 40/40/40 42/42/42 41/41/41
f 40/40/40 43/43/43 42/42/42
f 44/44/44 46/46/46 45/45/45
f 44/44/44 47/47/47 46/46/46
f 48/48/48 50/50/50 49/49/49
f 48/48/48 51/51/51 50/50/50
f 52/52/52 54/54/54 53/53/53
f 52/52/52 55/55/55 54/54/54
f 56/56/56 58/58/58 57/57/57
f 56/56/56 59/59/59 58/58/58
f 60/60/60 62/62/62 61/61/61
f 60/60/60 63/63/63 62/62/62
f 64/64/64 66/66/66 65/65/65
f 64/64/64 67/67/67 66/66/66
f 68/68/68 70/70/70 69/69/69
f 68/68/68 71/71/71 70/70/70
f 72/72/72 74/74/74 73/73/73
f 72/72/72 75/75/75 74/74/74
f 76/76/76 78/78/78 77/77/77
f 76/76/76 79/79/79 78/78/78
f 80/80/80 82/82/82 81/81/81
f 80/80/80 83/83/83 82/82/82
f 84/84/84 86/86/86 85/85/85
f 84/84/84 87/87/87 86/86/86
f 88/88/88 90/90/90 89/89/89
f 88/88/88 91/91/91 90/90/90
f 92/92/92 94/94/94 93/93/93
f 92/92/92 95/95/95 94/94/94
f 96/96/96 98/98/98 97/97/97
f 96/96/96 99/99/99 98/98/98
f 100/100/100 102/102/102 101/101/101
f 100/100/100 103/103/103 102/102/102
f 104/104/104 106/106/106 105/105/105
f 104/104/104 107/107/107 106/106/106
f 108/108/108 110/110/110 109/109/109
f 108/108/108 111/111/111 110/110/110
f 112/112/112 114/114/114 113/113/113
f 112/112/112 115/115/115 114/114/114
f 116/116/116 118/118/118 117/117/117
f 116/116/116 119/119/119 118/118/118
f 120/120/120 122/122/122 121/121/121
f 120/120/120 123/123/123 122/122/122
f 124/124/124 126/126/126 125/125/125
f 124/124/124 127/127/127 126/126/126
f 128/128/128 130/130/130 129/129/129
f 128/128/128 131/131/131 130/130/130
f 132/132/132 134/134/134 133/133/133
f 132/132/132 135/135/135 134/134/134
f 136/136/136 138/138/138 137/137/137
f 136/136/136 139/139/139 138/138/138
f 140/140/140 142/142/142 141/141/141
f 140/140/140 143/143/143 142/142/142
f 144/144/144 146/146/146 145/145/145
f 144/144/144 147/147/147 146/146/146
f 148/148/148 150/150/150 149/149/149
f 148/148/148 151/151/151 150/150/150
f 152/152/152 154/154/154 153/153/153
f 152/152/152 155/155/155 154/154/154
f 156/156/156 158/158/158 157/157/157
f 156/156/156 159/159/159 158/158/158
f 160/160/160 162/162/162 161/161/161
f 160/160/160 163/163/163 162/162/162
f 164/164/164 166/166/166 165/165/165
f 164/164/164 167/167/167 166/166/166
f 168/168/168 170/170/170 169/169/169
f 168/168/168 171/171/171 170/170/170
f 172/172/172 174/174/174 173/173/173
f 175/175/175 177/177/177 176/176/176
f 178/178/178 180/180/180 179/179/179
f 181/181/181 183/183/183 182/182/182
f 184/184/184 186/186/186 185/185/185
f 187/187/187 189/189/189 188/188/188
f 190/190/190 192/192/192 191/191/191
f 193/193/193 195/195/195 194/194/194
f 196/196/196 198/198/198 197/197/197
f 199/199/199 201/201/201 200/200/200
