#pCylinder3_31_3294_205.obj

v 0.01454657 -0.02577565 -0.04035895
v 0.00462513 -0.03397605 0.001090764
v 0.03878574 -0.02577565 -0.02105535
v -0.009662226 -0.02577565 -0.03817595
v -0.01824949 -0.02577565 -0.01778105
v -0.03822093 -0.02223214 0.001090811
v -0.02134974 -0.02577565 0.01996263
v -0.005296367 -0.02577565 0.03271739
v 0.02109523 -0.02577565 0.04035761
v 0.03059976 -0.02577565 0.01996258
v 0.0321907 -0.02223214 0.001090834
v 0.03878574 -0.02577565 -0.02105535
v 0.04796811 -0.01489238 -0.02772677
v 0.01805392 -0.01489238 -0.05115344
v 0.01454657 -0.02577565 -0.04035895
v 0.01454657 -0.02577565 -0.04035895
v 0.01805392 -0.01489238 -0.05115344
v -0.01316947 -0.01489238 -0.04897051
v -0.009662226 -0.02577565 -0.03817595
v -0.009662226 -0.02577565 -0.03817595
v -0.01316947 -0.01489238 -0.04897051
v -0.02743212 -0.01489238 -0.02445231
v -0.01824949 -0.02577565 -0.01778105
v -0.01824949 -0.02577565 -0.01778105
v -0.02743212 -0.01489238 -0.02445231
v -0.04796582 -0.01288822 0.001090923
v -0.03822093 -0.02223214 0.001090811
v -0.03822093 -0.02223214 0.001090811
v -0.04796582 -0.01288822 0.001090923
v -0.03053212 -0.01489238 0.02663406
v -0.02134974 -0.02577565 0.01996263
v -0.02134974 -0.02577565 0.01996263
v -0.03053212 -0.01489238 0.02663406
v -0.00880371 -0.01489238 0.04351188
v -0.005296367 -0.02577565 0.03271739
v -0.005296367 -0.02577565 0.03271739
v -0.00880371 -0.01489238 0.04351188
v 0.02460248 -0.01489238 0.05115217
v 0.02109523 -0.02577565 0.04035761
v 0.02109523 -0.02577565 0.04035761
v 0.02460248 -0.01489238 0.05115217
v 0.03978216 -0.01489238 0.026634
v 0.03059976 -0.02577565 0.01996258
v 0.03059976 -0.02577565 0.01996258
v 0.03978216 -0.01489238 0.026634
v 0.04193537 -0.01288822 0.001090878
v 0.0321907 -0.02223214 0.001090834
v 0.0321907 -0.02223214 0.001090834
v 0.04193537 -0.01288822 0.001090878
v 0.04796811 -0.01489238 -0.02772677
v 0.03878574 -0.02577565 -0.02105535
v 0.04796811 -0.01489238 -0.02772677
v 0.04796811 -0.000148333 -0.02772677
v 0.01805392 -0.000148333 -0.05115344
v 0.01805392 -0.01489238 -0.05115344
v 0.01805392 -0.01489238 -0.05115344
v 0.01805392 -0.000148333 -0.05115344
v -0.01316947 -0.000148333 -0.04897051
v -0.01316947 -0.01489238 -0.04897051
v -0.01316947 -0.01489238 -0.04897051
v -0.01316947 -0.000148333 -0.04897051
v -0.02743212 -0.000148333 -0.02445231
v -0.02743212 -0.01489238 -0.02445231
v -0.02743212 -0.01489238 -0.02445231
v -0.02743212 -0.000148333 -0.02445231
v -0.04796582 -0.0002294177 0.001090923
v -0.04796582 -0.01288822 0.001090923
v -0.04796582 -0.01288822 0.001090923
v -0.04796582 -0.0002294177 0.001090923
v -0.03053212 -0.000148333 0.02663406
v -0.03053212 -0.01489238 0.02663406
v -0.03053212 -0.01489238 0.02663406
v -0.03053212 -0.000148333 0.02663406
v -0.00880371 -0.000148333 0.04351188
v -0.00880371 -0.01489238 0.04351188
v -0.00880371 -0.01489238 0.04351188
v -0.00880371 -0.000148333 0.04351188
v 0.02460248 -0.000148333 0.05115217
v 0.02460248 -0.01489238 0.05115217
v 0.02460248 -0.01489238 0.05115217
v 0.02460248 -0.000148333 0.05115217
v 0.03978216 -0.000148333 0.026634
v 0.03978216 -0.01489238 0.026634
v 0.03978216 -0.01489238 0.026634
v 0.03978216 -0.000148333 0.026634
v 0.04193537 -0.0002294177 0.001090878
v 0.04193537 -0.01288822 0.001090878
v 0.04193537 -0.01288822 0.001090878
v 0.04193537 -0.0002294177 0.001090878
v 0.04796811 -0.000148333 -0.02772677
v 0.04796811 -0.01489238 -0.02772677
v 0.04796811 -0.000148333 -0.02772677
v 0.04569014 0.01428337 -0.02539752
v 0.01714627 0.01428337 -0.04799189
v 0.01805392 -0.000148333 -0.05115344
v 0.01805392 -0.000148333 -0.05115344
v 0.01714627 0.01428337 -0.04799189
v -0.01182804 0.01428337 -0.04559819
v -0.01316947 -0.000148333 -0.04897051
v -0.01316947 -0.000148333 -0.04897051
v -0.01182804 0.01428337 -0.04559819
v -0.02320913 0.01428337 -0.02180699
v -0.02743212 -0.000148333 -0.02445231
v -0.02743212 -0.000148333 -0.02445231
v -0.02320913 0.01428337 -0.02180699
v -0.04530282 0.01197211 0.001196148
v -0.04796582 -0.0002294177 0.001090923
v -0.04796582 -0.0002294177 0.001090923
v -0.04530282 0.01197211 0.001196148
v -0.02660836 0.01428337 0.02419934
v -0.03053212 -0.000148333 0.02663406
v -0.03053212 -0.000148333 0.02663406
v -0.02660836 0.01428337 0.02419934
v -0.007040596 0.01428337 0.03961289
v -0.00880371 -0.000148333 0.04351188
v -0.00880371 -0.000148333 0.04351188
v -0.007040596 0.01428337 0.03961289
v 0.02432726 0.01428337 0.04799058
v 0.02460248 -0.000148333 0.05115217
v 0.02460248 -0.000148333 0.05115217
v 0.02432726 0.01428337 0.04799058
v 0.03671398 0.01428337 0.02419939
v 0.03978216 -0.000148333 0.026634
v 0.03978216 -0.000148333 0.026634
v 0.03671398 0.01428337 0.02419939
v 0.03865327 0.01197211 0.001196133
v 0.04193537 -0.0002294177 0.001090878
v 0.04193537 -0.0002294177 0.001090878
v 0.03865327 0.01197211 0.001196133
v 0.04569014 0.01428337 -0.02539752
v 0.04796811 -0.000148333 -0.02772677
v 0.04569014 0.01428337 -0.02539752
v 0.03225355 0.02437441 -0.01614827
v 0.01203761 0.02437441 -0.03256923
v 0.01714627 0.01428337 -0.04799189
v 0.01714627 0.01428337 -0.04799189
v 0.01203761 0.02437441 -0.03256923
v -0.002591107 0.02437441 -0.02139441
v -0.01182804 0.01428337 -0.04559819
v -0.01182804 0.01428337 -0.04559819
v -0.002591107 0.02437441 -0.02139441
v -0.01125206 0.02437441 -0.01279581
v -0.02320913 0.01428337 -0.02180699
v -0.02320913 0.01428337 -0.02180699
v -0.01125206 0.02437441 -0.01279581
v -0.03124348 0.0207465 0.001116824
v -0.04530282 0.01197211 0.001196148
v -0.04530282 0.01197211 0.001196148
v -0.03124348 0.0207465 0.001116824
v -0.014426 0.02437441 0.01502959
v -0.02660836 0.01428337 0.02419934
v -0.02660836 0.01428337 0.02419934
v -0.014426 0.02437441 0.01502959
v -0.002591156 0.02437441 0.0247457
v -0.007040596 0.01428337 0.03961289
v -0.007040596 0.01428337 0.03961289
v -0.002591156 0.02437441 0.0247457
v 0.01874243 0.02437441 0.03256803
v 0.02432726 0.01428337 0.04799058
v 0.02432726 0.01428337 0.04799058
v 0.01874243 0.02437441 0.03256803
v 0.02387243 0.02437441 0.01502966
v 0.03671398 0.01428337 0.02419939
v 0.03671398 0.01428337 0.02419939
v 0.02387243 0.02437441 0.01502966
v 0.02504532 0.0207465 0.001116882
v 0.03865327 0.01197211 0.001196133
v 0.03865327 0.01197211 0.001196133
v 0.02504532 0.0207465 0.001116882
v 0.03225355 0.02437441 -0.01614827
v 0.04569014 0.01428337 -0.02539752
v 0.03225355 0.02437441 -0.01614827
v 0.00462513 0.03397609 0.001090764
v 0.01203761 0.02437441 -0.03256923
v 0.01203761 0.02437441 -0.03256923
v 0.00462513 0.03397609 0.001090764
v -0.002591107 0.02437441 -0.02139441
v -0.002591107 0.02437441 -0.02139441
v 0.00462513 0.03397609 0.001090764
v -0.01125206 0.02437441 -0.01279581
v -0.01125206 0.02437441 -0.01279581
v 0.00462513 0.03397609 0.001090764
v -0.03124348 0.0207465 0.001116824
v -0.03124348 0.0207465 0.001116824
v 0.00462513 0.03397609 0.001090764
v -0.014426 0.02437441 0.01502959
v -0.014426 0.02437441 0.01502959
v 0.00462513 0.03397609 0.001090764
v -0.002591156 0.02437441 0.0247457
v -0.002591156 0.02437441 0.0247457
v 0.00462513 0.03397609 0.001090764
v 0.01874243 0.02437441 0.03256803
v 0.01874243 0.02437441 0.03256803
v 0.00462513 0.03397609 0.001090764
v 0.02387243 0.02437441 0.01502966
v 0.02387243 0.02437441 0.01502966
v 0.00462513 0.03397609 0.001090764
v 0.02504532 0.0207465 0.001116882
v 0.02504532 0.0207465 0.001116882
v 0.00462513 0.03397609 0.001090764
v 0.03225355 0.02437441 -0.01614827

vn -0.1564927 -0.9711502 -0.1799371
vn 0.00112772 -0.999998 -0.001663679
vn 0.07429919 -0.9697416 -0.2325528
vn -0.2471949 -0.9683227 -0.03529651
vn -0.2851989 -0.9407758 0.1833096
vn -0.1974584 -0.9490992 0.2453994
vn -0.03190786 -0.955166 0.2943463
vn 0.1727791 -0.9540833 0.2446883
vn 0.236868 -0.9694224 0.06413805
vn 0.2188176 -0.9410005 -0.2581411
vn 0.3625005 -0.8803549 -0.3058901
vn -0.2817931 -0.6269542 -0.7263065
vn -0.2817932 -0.6269542 -0.7263065
vn -0.2817931 -0.6269542 -0.7263065
vn -0.2817932 -0.6269542 -0.7263065
vn -0.7070648 -0.6040336 -0.3676992
vn -0.7070647 -0.6040336 -0.3676992
vn -0.7070648 -0.6040336 -0.3676992
vn -0.7070649 -0.6040336 -0.3676992
vn -0.7260385 -0.5769868 0.3741048
vn -0.7260384 -0.5769867 0.3741048
vn -0.7260385 -0.5769868 0.3741048
vn -0.7260384 -0.5769867 0.3741048
vn -0.7676646 -0.5960655 0.2353658
vn -0.7676647 -0.5960654 0.2353659
vn -0.7676646 -0.5960654 0.2353658
vn -0.7676646 -0.5960655 0.2353659
vn 0.007133446 -0.6274918 0.7785906
vn 0.007133446 -0.6274918 0.7785906
vn 0.007133417 -0.6274917 0.7785906
vn 0.007133445 -0.6274917 0.7785906
vn 0.2839993 -0.6268957 0.7254972
vn 0.2839992 -0.6268956 0.7254973
vn 0.2839992 -0.6268957 0.7254972
vn 0.2839992 -0.6268957 0.7254972
vn 0.5646573 -0.6006807 0.5659902
vn 0.5646572 -0.6006807 0.5659902
vn 0.5646573 -0.6006807 0.5659902
vn 0.5646573 -0.6006807 0.5659902
vn 0.7344279 -0.5818569 -0.3493682
vn 0.7344279 -0.581857 -0.3493682
vn 0.7344279 -0.581857 -0.3493682
vn 0.7344279 -0.5818569 -0.3493682
vn 0.4282013 -0.6102118 -0.6665471
vn 0.4282013 -0.6102119 -0.6665471
vn 0.4282013 -0.6102118 -0.6665471
vn 0.4282013 -0.6102118 -0.6665471
vn 0.6863134 -0.5349331 -0.4927683
vn 0.6863134 -0.534933 -0.4927684
vn 0.6863134 -0.5349331 -0.4927683
vn 0.6863134 -0.534933 -0.4927683
vn -0.3652265 1.748819E-17 -0.9309187
vn -0.3652265 1.748819E-17 -0.9309187
vn -0.3652265 1.748819E-17 -0.9309187
vn -0.3652265 1.748819E-17 -0.9309187
vn -0.8834485 4.313227E-17 -0.4685284
vn -0.8834485 4.313227E-17 -0.4685284
vn -0.8834485 4.313227E-17 -0.4685284
vn -0.8834485 4.313227E-17 -0.4685284
vn -0.9131196 4.499604E-17 0.407692
vn -0.9131196 4.499604E-17 0.407692
vn -0.9131196 4.499604E-17 0.407692
vn -0.9131196 4.499604E-17 0.407692
vn -0.962842 4.737183E-17 0.2700651
vn -0.962842 4.737183E-17 0.2700652
vn -0.962842 4.737183E-17 0.2700651
vn -0.962842 4.737183E-17 0.2700651
vn 0.04917632 -1.948187E-18 0.9987901
vn 0.04917632 -1.948187E-18 0.9987901
vn 0.04917642 -1.948192E-18 0.9987901
vn 0.04917632 -1.948187E-18 0.9987901
vn 0.3690093 -1.76745E-17 0.9294257
vn 0.3690093 -1.76745E-17 0.9294257
vn 0.3690093 -1.76745E-17 0.9294257
vn 0.3690093 -1.76745E-17 0.9294257
vn 0.7231595 -3.516358E-17 0.6906812
vn 0.7231595 -3.516358E-17 0.6906812
vn 0.7231595 -3.516358E-17 0.6906812
vn 0.7231595 -3.516358E-17 0.6906812
vn 0.9238323 -4.551011E-17 -0.3827974
vn 0.9238323 -4.551011E-17 -0.3827974
vn 0.9238323 -4.551011E-17 -0.3827974
vn 0.9238323 -4.551011E-17 -0.3827974
vn 0.6405009 -3.178646E-17 -0.7679574
vn 0.6405009 -3.178646E-17 -0.7679574
vn 0.6405009 -3.178646E-17 -0.7679574
vn 0.6405009 -3.178646E-17 -0.7679574
vn 0.73422 -3.634376E-17 -0.6789117
vn 0.73422 -3.634376E-17 -0.6789117
vn 0.73422 -3.634376E-17 -0.6789117
vn 0.73422 -3.634376E-17 -0.6789117
vn -0.3572412 0.1740927 -0.917644
vn -0.3572412 0.1740928 -0.917644
vn -0.3572412 0.1740928 -0.917644
vn -0.3572412 0.1740928 -0.917644
vn -0.8729476 0.171335 -0.4567348
vn -0.8729476 0.171335 -0.4567348
vn -0.8729476 0.171335 -0.4567348
vn -0.8729476 0.171335 -0.4567348
vn -0.8768814 0.2092408 0.4327785
vn -0.8768814 0.2092408 0.4327786
vn -0.8768814 0.2092408 0.4327785
vn -0.8768814 0.2092407 0.4327785
vn -0.9510857 0.2018433 0.2338704
vn -0.9510857 0.2018433 0.2338703
vn -0.9510857 0.2018433 0.2338704
vn -0.9510857 0.2018433 0.2338704
vn 0.08069839 0.2041601 0.9756057
vn 0.08069839 0.2041601 0.9756057
vn 0.08069833 0.2041601 0.9756057
vn 0.08069839 0.20416 0.9756057
vn 0.3559163 0.2322872 0.9051885
vn 0.3559163 0.2322872 0.9051886
vn 0.3559162 0.2322872 0.9051885
vn 0.3559162 0.2322872 0.9051885
vn 0.6983107 0.1915972 0.6896758
vn 0.6983107 0.1915971 0.6896757
vn 0.6983107 0.1915972 0.6896758
vn 0.6983107 0.1915972 0.6896758
vn 0.898781 0.1547007 -0.4101955
vn 0.898781 0.1547007 -0.4101955
vn 0.8987811 0.1547007 -0.4101955
vn 0.898781 0.1547007 -0.4101955
vn 0.6181213 0.1980243 -0.7607316
vn 0.6181212 0.1980243 -0.7607316
vn 0.6181212 0.1980243 -0.7607316
vn 0.6181212 0.1980242 -0.7607316
vn 0.7489571 0.1463848 -0.6462467
vn 0.748957 0.1463848 -0.6462468
vn 0.7489571 0.1463848 -0.6462467
vn 0.7489571 0.1463848 -0.6462467
vn -0.2227374 0.7789109 -0.5862472
vn -0.2227374 0.7789109 -0.5862472
vn -0.2227374 0.7789109 -0.5862472
vn -0.2227374 0.7789109 -0.5862472
vn -0.5392827 0.8281628 -0.1527102
vn -0.5392828 0.8281629 -0.1527102
vn -0.5392827 0.8281628 -0.1527102
vn -0.5392827 0.8281628 -0.1527102
vn -0.5380242 0.8128725 0.2230882
vn -0.5380242 0.8128725 0.2230882
vn -0.5380242 0.8128725 0.2230882
vn -0.5380242 0.8128725 0.2230882
vn -0.6650004 0.728035 0.1665518
vn -0.6650003 0.728035 0.1665518
vn -0.6650003 0.728035 0.1665518
vn -0.6650003 0.728035 0.1665518
vn 0.03253056 0.7640493 0.6443372
vn 0.03253059 0.7640494 0.6443371
vn 0.03253056 0.7640493 0.6443372
vn 0.03253056 0.7640493 0.6443372
vn 0.2302777 0.7612532 0.6061894
vn 0.2302777 0.7612532 0.6061895
vn 0.2302778 0.7612532 0.6061895
vn 0.2302777 0.7612532 0.6061895
vn 0.4497232 0.7438899 0.4943449
vn 0.4497232 0.7438899 0.4943449
vn 0.4497232 0.7438899 0.4943449
vn 0.4497232 0.7438899 0.4943449
vn 0.5866824 0.7271768 -0.3563952
vn 0.5866825 0.7271768 -0.3563952
vn 0.5866825 0.7271768 -0.3563951
vn 0.5866825 0.7271768 -0.3563952
vn 0.2992905 0.7427607 -0.5989422
vn 0.2992904 0.7427608 -0.5989422
vn 0.2992904 0.7427607 -0.5989422
vn 0.2992905 0.7427607 -0.5989422
vn 0.6671511 0.652869 -0.3587078
vn 0.6671511 0.6528691 -0.3587079
vn 0.6671511 0.652869 -0.3587078
vn 0.6671511 0.652869 -0.3587078
vn -0.1246107 0.9337207 -0.3356156
vn -0.1246107 0.9337207 -0.3356156
vn -0.1246107 0.9337207 -0.3356156
vn -0.4877455 0.8727037 0.02220078
vn -0.4877455 0.8727036 0.02220076
vn -0.4877455 0.8727037 0.02220075
vn -0.4989508 0.8625507 0.08399029
vn -0.4989509 0.8625507 0.08399028
vn -0.4989508 0.8625507 0.08399032
vn -0.4764847 0.8650597 0.156952
vn -0.4764848 0.8650597 0.1569521
vn -0.4764848 0.8650597 0.1569521
vn -0.04256995 0.8968587 0.4402639
vn -0.04256991 0.8968587 0.4402638
vn -0.04256995 0.8968587 0.4402639
vn 0.1573679 0.8885533 0.4309391
vn 0.1573679 0.8885533 0.4309391
vn 0.1573679 0.8885533 0.4309391
vn 0.2803913 0.8968888 0.3420105
vn 0.2803913 0.8968888 0.3420105
vn 0.2803913 0.8968888 0.3420105
vn 0.3670136 0.8846009 -0.2877191
vn 0.3670137 0.8846009 -0.2877191
vn 0.3670137 0.8846009 -0.2877192
vn 0.1670878 0.7767206 -0.607278
vn 0.1670878 0.7767208 -0.607278
vn 0.1670878 0.7767207 -0.607278
vn 0.6810408 0.6988145 -0.2187273
vn 0.6810408 0.6988145 -0.2187272
vn 0.6810408 0.6988145 -0.2187273

vt 0.5482839 0.007647395
vt 0.5 0.15
vt 0.6264089 0.06440853
vt 0.4517161 0.00764741
vt 0.3735911 0.06440856
vt 0.34375 0.15625
vt 0.3735911 0.2480915
vt 0.4517161 0.3048526
vt 0.5482839 0.3048526
vt 0.6264089 0.2480914
vt 0.65625 0.15625
vt 0 0
vt 0 1
vt 1 1
vt 1 0
vt 0 0
vt 0 1
vt 1 1
vt 1 0
vt 0 0
vt 0 1
vt 1 1
vt 1 0
vt 0 0
vt 0 1
vt 1 1
vt 1 0
vt 0 0
vt 0 1
vt 1 1
vt 1 0
vt 0 0
vt 0 1
vt 1 1
vt 1 0
vt 0 0
vt 0 1
vt 1 1
vt 1 0
vt 0 0
vt 0 1
vt 1 1
vt 1 0
vt 0 0
vt 0 1
vt 1 1
vt 1 0
vt 0 0
vt 0 1
vt 1 1
vt 1 0
vt 0 0
vt 0 1
vt 1 1
vt 1 0
vt 0 0
vt 0 1
vt 1 1
vt 1 0
vt 0 0
vt 0 1
vt 1 1
vt 1 0
vt 0 0
vt 0 1
vt 1 1
vt 1 0
vt 0 0
vt 0 1
vt 1 1
vt 1 0
vt 0 0
vt 0 1
vt 1 1
vt 1 0
vt 0 0
vt 0 1
vt 1 1
vt 1 0
vt 0 0
vt 0 1
vt 1 1
vt 1 0
vt 0 0
vt 0 1
vt 1 1
vt 1 0
vt 0 0
vt 0 1
vt 1 1
vt 1 0
vt 0 0
vt 0 1
vt 1 1
vt 1 0
vt 0 0
vt 0 1
vt 1 1
vt 1 0
vt 0 0
vt 0 1
vt 1 1
vt 1 0
vt 0 0
vt 0 1
vt 1 1
vt 1 0
vt 0 0
vt 0 1
vt 1 1
vt 1 0
vt 0 0
vt 0 1
vt 1 1
vt 1 0
vt 0 0
vt 0 1
vt 1 1
vt 1 0
vt 0 0
vt 0 1
vt 1 1
vt 1 0
vt 0 0
vt 0 1
vt 1 1
vt 1 0
vt 0 0
vt 0 1
vt 1 1
vt 1 0
vt 0 0
vt 0 1
vt 1 1
vt 1 0
vt 0 0
vt 0 1
vt 1 1
vt 1 0
vt 0 0
vt 0 1
vt 1 1
vt 1 0
vt 0 0
vt 0 1
vt 1 1
vt 1 0
vt 0 0
vt 0 1
vt 1 1
vt 1 0
vt 0 0
vt 0 1
vt 1 1
vt 1 0
vt 0 0
vt 0 1
vt 1 1
vt 1 0
vt 0 0
vt 0 1
vt 1 1
vt 1 0
vt 0 0
vt 0 1
vt 1 1
vt 1 0
vt 0 0
vt 0 1
vt 1 1
vt 1 0
vt 0 0
vt 0.5 1
vt 1 0
vt 0 0
vt 0.5 1
vt 1 0
vt 0 0
vt 0.5 1
vt 1 0
vt 0 0
vt 0.5 1
vt 1 0
vt 0 0
vt 0.5 1
vt 1 0
vt 0 0
vt 0.5 1
vt 1 0
vt 0 0
vt 0.5 1
vt 1 0
vt 0 0
vt 0.5 1
vt 1 0
vt 0 0
vt 0.5 1
vt 1 0
vt 0 0
vt 0.5 1
vt 1 0

g pCylinder3_31_3294_205
usemtl pCylinder3_31_3294_205
usemap pCylinder3_31_3294_205
f 1/1/1 3/3/3 2/2/2
f 4/4/4 1/1/1 2/2/2
f 5/5/5 4/4/4 2/2/2
f 6/6/6 5/5/5 2/2/2
f 7/7/7 6/6/6 2/2/2
f 8/8/8 7/7/7 2/2/2
f 9/9/9 8/8/8 2/2/2
f 10/10/10 9/9/9 2/2/2
f 11/11/11 10/10/10 2/2/2
f 3/3/3 11/11/11 2/2/2
f 12/12/12 14/14/14 13/13/13
f 12/12/12 15/15/15 14/14/14
f 16/16/16 18/18/18 17/17/17
f 16/16/16 19/19/19 18/18/18
f 20/20/20 22/22/22 21/21/21
f 20/20/20 23/23/23 22/22/22
f 24/24/24 26/26/26 25/25/25
f 24/24/24 27/27/27 26/26/26
f 28/28/28 30/30/30 29/29/29
f 28/28/28 31/31/31 30/30/30
f 32/32/32 34/34/34 33/33/33
f 32/32/32 35/35/35 34/34/34
f 36/36/36 38/38/38 37/37/37
f 36/36/36 39/39/39 38/38/38
f 40/40/40 42/42/42 41/41/41
f 40/40/40 43/43/43 42/42/42
f 44/44/44 46/46/46 45/45/45
f 44/44/44 47/47/47 46/46/46
f 48/48/48 50/50/50 49/49/49
f 48/48/48 51/51/51 50/50/50
f 52/52/52 54/54/54 53/53/53
f 52/52/52 55/55/55 54/54/54
f 56/56/56 58/58/58 57/57/57
f 56/56/56 59/59/59 58/58/58
f 60/60/60 62/62/62 61/61/61
f 60/60/60 63/63/63 62/62/62
f 64/64/64 66/66/66 65/65/65
f 64/64/64 67/67/67 66/66/66
f 68/68/68 70/70/70 69/69/69
f 68/68/68 71/71/71 70/70/70
f 72/72/72 74/74/74 73/73/73
f 72/72/72 75/75/75 74/74/74
f 76/76/76 78/78/78 77/77/77
f 76/76/76 79/79/79 78/78/78
f 80/80/80 82/82/82 81/81/81
f 80/80/80 83/83/83 82/82/82
f 84/84/84 86/86/86 85/85/85
f 84/84/84 87/87/87 86/86/86
f 88/88/88 90/90/90 89/89/89
f 88/88/88 91/91/91 90/90/90
f 92/92/92 94/94/94 93/93/93
f 92/92/92 95/95/95 94/94/94
f 96/96/96 98/98/98 97/97/97
f 96/96/96 99/99/99 98/98/98
f 100/100/100 102/102/102 101/101/101
f 100/100/100 103/103/103 102/102/102
f 104/104/104 106/106/106 105/105/105
f 104/104/104 107/107/107 106/106/106
f 108/108/108 110/110/110 109/109/109
f 108/108/108 111/111/111 110/110/110
f 112/112/112 114/114/114 113/113/113
f 112/112/112 115/115/115 114/114/114
f 116/116/116 118/118/118 117/117/117
f 116/116/116 119/119/119 118/118/118
f 120/120/120 122/122/122 121/121/121
f 120/120/120 123/123/123 122/122/122
f 124/124/124 126/126/126 125/125/125
f 124/124/124 127/127/127 126/126/126
f 128/128/128 130/130/130 129/129/129
f 128/128/128 131/131/131 130/130/130
f 132/132/132 134/134/134 133/133/133
f 132/132/132 135/135/135 134/134/134
f 136/136/136 138/138/138 137/137/137
f 136/136/136 139/139/139 138/138/138
f 140/140/140 142/142/142 141/141/141
f 140/140/140 143/143/143 142/142/142
f 144/144/144 146/146/146 145/145/145
f 144/144/144 147/147/147 146/146/146
f 148/148/148 150/150/150 149/149/149
f 148/148/148 151/151/151 150/150/150
f 152/152/152 154/154/154 153/153/153
f 152/152/152 155/155/155 154/154/154
f 156/156/156 158/158/158 157/157/157
f 156/156/156 159/159/159 158/158/158
f 160/160/160 162/162/162 161/161/161
f 160/160/160 163/163/163 162/162/162
f 164/164/164 166/166/166 165/165/165
f 164/164/164 167/167/167 166/166/166
f 168/168/168 170/170/170 169/169/169
f 168/168/168 171/171/171 170/170/170
f 172/172/172 174/174/174 173/173/173
f 175/175/175 177/177/177 176/176/176
f 178/178/178 180/180/180 179/179/179
f 181/181/181 183/183/183 182/182/182
f 184/184/184 186/186/186 185/185/185
f 187/187/187 189/189/189 188/188/188
f 190/190/190 192/192/192 191/191/191
f 193/193/193 195/195/195 194/194/194
f 196/196/196 198/198/198 197/197/197
f 199/199/199 201/201/201 200/200/200
