#pCylinder1_6_3605_254.obj

v 0.01454535 -0.02577576 -0.04035806
v 0.004623902 -0.03397622 0.001091617
v 0.03878455 -0.02577576 -0.02105455
v -0.009663356 -0.02577576 -0.03817515
v -0.01825074 -0.02577576 -0.0177802
v -0.03822207 -0.02223234 0.001091618
v -0.02135081 -0.02577576 0.01996341
v -0.00529755 -0.02577576 0.03271822
v 0.02109408 -0.02577576 0.0403584
v 0.03059862 -0.02577576 0.01996342
v 0.03218951 -0.02223234 0.00109162
v 0.03878455 -0.02577576 -0.02105455
v 0.04796696 -0.01489243 -0.02772591
v 0.01805273 -0.01489243 -0.05115258
v 0.01454535 -0.02577576 -0.04035806
v 0.01454535 -0.02577576 -0.04035806
v 0.01805273 -0.01489243 -0.05115258
v -0.01317072 -0.01489243 -0.04896968
v -0.009663356 -0.02577576 -0.03817515
v -0.009663356 -0.02577576 -0.03817515
v -0.01317072 -0.01489243 -0.04896968
v -0.02743313 -0.01489243 -0.02445158
v -0.01825074 -0.02577576 -0.0177802
v -0.01825074 -0.02577576 -0.0177802
v -0.02743313 -0.01489243 -0.02445158
v -0.04796687 -0.01288824 0.001091624
v -0.03822207 -0.02223234 0.001091618
v -0.03822207 -0.02223234 0.001091618
v -0.04796687 -0.01288824 0.001091624
v -0.03053321 -0.01489243 0.02663481
v -0.02135081 -0.02577576 0.01996341
v -0.02135081 -0.02577576 0.01996341
v -0.03053321 -0.01489243 0.02663481
v -0.008804895 -0.01489243 0.04351271
v -0.00529755 -0.02577576 0.03271822
v -0.00529755 -0.02577576 0.03271822
v -0.008804895 -0.01489243 0.04351271
v 0.02460145 -0.01489243 0.05115292
v 0.02109408 -0.02577576 0.0403584
v 0.02109408 -0.02577576 0.0403584
v 0.02460145 -0.01489243 0.05115292
v 0.03978102 -0.01489243 0.02663483
v 0.03059862 -0.02577576 0.01996342
v 0.03059862 -0.02577576 0.01996342
v 0.03978102 -0.01489243 0.02663483
v 0.04193433 -0.01288824 0.001091646
v 0.03218951 -0.02223234 0.00109162
v 0.03218951 -0.02223234 0.00109162
v 0.04193433 -0.01288824 0.001091646
v 0.04796696 -0.01489243 -0.02772591
v 0.03878455 -0.02577576 -0.02105455
v 0.04796696 -0.01489243 -0.02772591
v 0.04796694 -0.0001483783 -0.02772594
v 0.01805273 -0.0001483783 -0.05115258
v 0.01805273 -0.01489243 -0.05115258
v 0.01805273 -0.01489243 -0.05115258
v 0.01805273 -0.0001483783 -0.05115258
v -0.01317072 -0.0001483783 -0.04896968
v -0.01317072 -0.01489243 -0.04896968
v -0.01317072 -0.01489243 -0.04896968
v -0.01317072 -0.0001483783 -0.04896968
v -0.02743313 -0.0001483783 -0.02445158
v -0.02743313 -0.01489243 -0.02445158
v -0.02743313 -0.01489243 -0.02445158
v -0.02743313 -0.0001483783 -0.02445158
v -0.04796687 -0.0002294806 0.001091624
v -0.04796687 -0.01288824 0.001091624
v -0.04796687 -0.01288824 0.001091624
v -0.04796687 -0.0002294806 0.001091624
v -0.03053321 -0.0001483783 0.02663481
v -0.03053321 -0.01489243 0.02663481
v -0.03053321 -0.01489243 0.02663481
v -0.03053321 -0.0001483783 0.02663481
v -0.008804895 -0.0001483783 0.04351271
v -0.008804895 -0.01489243 0.04351271
v -0.008804895 -0.01489243 0.04351271
v -0.008804895 -0.0001483783 0.04351271
v 0.02460145 -0.0001483783 0.05115292
v 0.02460145 -0.01489243 0.05115292
v 0.02460145 -0.01489243 0.05115292
v 0.02460145 -0.0001483783 0.05115292
v 0.03978102 -0.0001483783 0.02663483
v 0.03978102 -0.01489243 0.02663483
v 0.03978102 -0.01489243 0.02663483
v 0.03978102 -0.0001483783 0.02663483
v 0.04193433 -0.0002294806 0.001091646
v 0.04193433 -0.01288824 0.001091646
v 0.04193433 -0.01288824 0.001091646
v 0.04193433 -0.0002294806 0.001091646
v 0.04796694 -0.0001483783 -0.02772594
v 0.04796696 -0.01489243 -0.02772591
v 0.04796694 -0.0001483783 -0.02772594
v 0.04568895 0.01428333 -0.02539661
v 0.01714517 0.01428333 -0.04799107
v 0.01805273 -0.0001483783 -0.05115258
v 0.01805273 -0.0001483783 -0.05115258
v 0.01714517 0.01428333 -0.04799107
v -0.01182905 0.01428333 -0.04559747
v -0.01317072 -0.0001483783 -0.04896968
v -0.01317072 -0.0001483783 -0.04896968
v -0.01182905 0.01428333 -0.04559747
v -0.02321022 0.01428333 -0.02180619
v -0.02743313 -0.0001483783 -0.02445158
v -0.02743313 -0.0001483783 -0.02445158
v -0.02321022 0.01428333 -0.02180619
v -0.04530404 0.01197192 0.001196968
v -0.04796687 -0.0002294806 0.001091624
v -0.04796687 -0.0002294806 0.001091624
v -0.04530404 0.01197192 0.001196968
v -0.02660953 0.01428333 0.02420017
v -0.03053321 -0.0001483783 0.02663481
v -0.03053321 -0.0001483783 0.02663481
v -0.02660953 0.01428333 0.02420017
v -0.007041824 0.01428333 0.03961375
v -0.008804895 -0.0001483783 0.04351271
v -0.008804895 -0.0001483783 0.04351271
v -0.007041824 0.01428333 0.03961375
v 0.02432599 0.01428333 0.04799139
v 0.02460145 -0.0001483783 0.05115292
v 0.02460145 -0.0001483783 0.05115292
v 0.02432599 0.01428333 0.04799139
v 0.03671286 0.01428333 0.02420016
v 0.03978102 -0.0001483783 0.02663483
v 0.03978102 -0.0001483783 0.02663483
v 0.03671286 0.01428333 0.02420016
v 0.03865205 0.01197192 0.001196999
v 0.04193433 -0.0002294806 0.001091646
v 0.04193433 -0.0002294806 0.001091646
v 0.03865205 0.01197192 0.001196999
v 0.04568895 0.01428333 -0.02539661
v 0.04796694 -0.0001483783 -0.02772594
v 0.04568895 0.01428333 -0.02539661
v 0.0322525 0.02437438 -0.01614749
v 0.01203652 0.02437438 -0.03256844
v 0.01714517 0.01428333 -0.04799107
v 0.01714517 0.01428333 -0.04799107
v 0.01203652 0.02437438 -0.03256844
v -0.002592193 0.02437438 -0.02139363
v -0.01182905 0.01428333 -0.04559747
v -0.01182905 0.01428333 -0.04559747
v -0.002592193 0.02437438 -0.02139363
v -0.01125308 0.02437438 -0.01279505
v -0.02321022 0.01428333 -0.02180619
v -0.02321022 0.01428333 -0.02180619
v -0.01125308 0.02437438 -0.01279505
v -0.03124468 0.02074644 0.001117645
v -0.04530404 0.01197192 0.001196968
v -0.04530404 0.01197192 0.001196968
v -0.03124468 0.02074644 0.001117645
v -0.01442707 0.02437438 0.0150304
v -0.02660953 0.01428333 0.02420017
v -0.02660953 0.01428333 0.02420017
v -0.01442707 0.02437438 0.0150304
v -0.002592186 0.02437438 0.02474641
v -0.007041824 0.01428333 0.03961375
v -0.007041824 0.01428333 0.03961375
v -0.002592186 0.02437438 0.02474641
v 0.01874139 0.02437438 0.0325688
v 0.02432599 0.01428333 0.04799139
v 0.02432599 0.01428333 0.04799139
v 0.01874139 0.02437438 0.0325688
v 0.02387139 0.02437438 0.0150304
v 0.03671286 0.01428333 0.02420016
v 0.03671286 0.01428333 0.02420016
v 0.02387139 0.02437438 0.0150304
v 0.02504423 0.02074644 0.001117669
v 0.03865205 0.01197192 0.001196999
v 0.03865205 0.01197192 0.001196999
v 0.02504423 0.02074644 0.001117669
v 0.0322525 0.02437438 -0.01614749
v 0.04568895 0.01428333 -0.02539661
v 0.0322525 0.02437438 -0.01614749
v 0.004623919 0.03397601 0.001091607
v 0.01203652 0.02437438 -0.03256844
v 0.01203652 0.02437438 -0.03256844
v 0.004623919 0.03397601 0.001091607
v -0.002592193 0.02437438 -0.02139363
v -0.002592193 0.02437438 -0.02139363
v 0.004623919 0.03397601 0.001091607
v -0.01125308 0.02437438 -0.01279505
v -0.01125308 0.02437438 -0.01279505
v 0.004623919 0.03397601 0.001091607
v -0.03124468 0.02074644 0.001117645
v -0.03124468 0.02074644 0.001117645
v 0.004623919 0.03397601 0.001091607
v -0.01442707 0.02437438 0.0150304
v -0.01442707 0.02437438 0.0150304
v 0.004623919 0.03397601 0.001091607
v -0.002592186 0.02437438 0.02474641
v -0.002592186 0.02437438 0.02474641
v 0.004623919 0.03397601 0.001091607
v 0.01874139 0.02437438 0.0325688
v 0.01874139 0.02437438 0.0325688
v 0.004623919 0.03397601 0.001091607
v 0.02387139 0.02437438 0.0150304
v 0.02387139 0.02437438 0.0150304
v 0.004623919 0.03397601 0.001091607
v 0.02504423 0.02074644 0.001117669
v 0.02504423 0.02074644 0.001117669
v 0.004623919 0.03397601 0.001091607
v 0.0322525 0.02437438 -0.01614749

vn 0.1456988 -0.9818568 -0.121362
vn 0.001428225 -0.9999985 0.0008686191
vn 0.1983005 -0.97843 0.05789177
vn 0.02047978 -0.9810987 -0.1924203
vn -0.1667344 -0.9602385 -0.2239228
vn -0.2152133 -0.9642734 -0.1544659
vn -0.2497581 -0.9679798 -0.02521077
vn -0.2008183 -0.9703193 0.1347297
vn -0.04520106 -0.9818349 0.1842734
vn 0.2274043 -0.9585602 0.1716079
vn 0.2790616 -0.915422 0.2900464
vn 0.6677246 -0.7039262 -0.2421398
vn 0.6677246 -0.7039262 -0.2421399
vn 0.6677245 -0.7039262 -0.2421398
vn 0.6677246 -0.7039262 -0.2421399
vn 0.3260152 -0.7031069 -0.631945
vn 0.3260152 -0.7031071 -0.631945
vn 0.3260152 -0.7031069 -0.631945
vn 0.3260153 -0.703107 -0.631945
vn -0.3887014 -0.6620908 -0.6407393
vn -0.3887014 -0.6620907 -0.6407393
vn -0.3887014 -0.6620908 -0.6407393
vn -0.3887014 -0.6620907 -0.6407393
vn -0.2587331 -0.6863983 -0.6796429
vn -0.2587332 -0.6863983 -0.6796429
vn -0.2587331 -0.6863983 -0.6796429
vn -0.2587331 -0.6863983 -0.6796428
vn -0.7186403 -0.6953636 0.005027026
vn -0.7186403 -0.6953636 0.005027026
vn -0.7186404 -0.6953635 0.005026996
vn -0.7186404 -0.6953636 0.005027026
vn -0.6669753 -0.7039661 0.2440809
vn -0.6669754 -0.7039661 0.2440809
vn -0.6669753 -0.7039661 0.2440809
vn -0.6669753 -0.7039661 0.2440809
vn -0.519776 -0.6928937 0.4997309
vn -0.519776 -0.6928937 0.4997309
vn -0.5197761 -0.6928937 0.4997309
vn -0.519776 -0.6928937 0.4997309
vn 0.3655255 -0.6678945 0.6483116
vn 0.3655254 -0.6678945 0.6483116
vn 0.3655254 -0.6678945 0.6483116
vn 0.3655255 -0.6678945 0.6483116
vn 0.6357624 -0.679024 0.3670591
vn 0.6357624 -0.679024 0.3670591
vn 0.6357624 -0.679024 0.3670591
vn 0.6357624 -0.679024 0.3670591
vn 0.5018874 -0.6155777 0.6075961
vn 0.5018874 -0.6155776 0.6075961
vn 0.5018874 -0.6155777 0.6075961
vn 0.5018874 -0.6155776 0.6075961
vn 0.9388397 -2.489936E-17 -0.3443546
vn 0.9388397 -2.489936E-17 -0.3443545
vn 0.9388397 -2.489936E-17 -0.3443545
vn 0.9388397 -2.489936E-17 -0.3443546
vn 0.4662777 2.08942E-17 -0.8846384
vn 0.4662777 2.08942E-17 -0.8846384
vn 0.4662777 2.08942E-17 -0.8846384
vn 0.4662777 2.08942E-17 -0.8846384
vn -0.4697934 6.16359E-17 -0.8827763
vn -0.4697934 6.16359E-17 -0.8827763
vn -0.4697934 6.16359E-17 -0.8827763
vn -0.4697934 6.16359E-17 -0.8827763
vn -0.3323694 5.84558E-17 -0.9431493
vn -0.3323694 5.84558E-17 -0.9431493
vn -0.3323694 5.84558E-17 -0.9431493
vn -0.3323694 5.84558E-17 -0.9431493
vn -0.9990313 4.152366E-17 0.04400399
vn -0.9990313 4.152366E-17 0.04400399
vn -0.9990314 4.152365E-17 0.04400408
vn -0.9990313 4.152366E-17 0.04400399
vn -0.9374712 2.466682E-17 0.348063
vn -0.9374712 2.466682E-17 0.348063
vn -0.9374712 2.466682E-17 0.348063
vn -0.9374712 2.466682E-17 0.348063
vn -0.7030768 -2.478016E-18 0.7111138
vn -0.7030768 -2.478016E-18 0.7111138
vn -0.7030768 -2.478016E-18 0.7111138
vn -0.7030768 -2.478016E-18 0.7111138
vn 0.4453458 -6.115602E-17 0.8953587
vn 0.4453458 -6.115602E-17 0.8953587
vn 0.4453458 -6.115602E-17 0.8953587
vn 0.4453458 -6.115602E-17 0.8953587
vn 0.8027051 -6.280775E-17 0.5963761
vn 0.8027051 -6.280775E-17 0.5963761
vn 0.8027051 -6.280775E-17 0.5963761
vn 0.8027051 -6.280775E-17 0.5963761
vn 0.723984 -6.372932E-17 0.6898168
vn 0.723984 -6.372932E-17 0.6898167
vn 0.723984 -6.372932E-17 0.6898168
vn 0.723984 -6.372932E-17 0.6898168
vn 0.9182003 0.212757 -0.3341298
vn 0.9182003 0.212757 -0.3341298
vn 0.9182003 0.212757 -0.3341298
vn 0.9182003 0.212757 -0.3341298
vn 0.4494703 0.2212333 -0.8654665
vn 0.4494703 0.2212334 -0.8654665
vn 0.4494703 0.2212334 -0.8654665
vn 0.4494703 0.2212334 -0.8654665
vn -0.4865629 0.2588966 -0.8344034
vn -0.4865629 0.2588966 -0.8344035
vn -0.4865628 0.2588966 -0.8344035
vn -0.4865629 0.2588965 -0.8344034
vn -0.2904857 0.2546348 -0.9223769
vn -0.2904857 0.2546348 -0.9223769
vn -0.2904857 0.2546348 -0.9223769
vn -0.2904858 0.2546348 -0.9223769
vn -0.9671065 0.243782 0.07263342
vn -0.9671065 0.243782 0.07263342
vn -0.9671064 0.243782 0.07263339
vn -0.9671065 0.2437819 0.07263342
vn -0.9004232 0.2822603 0.3310094
vn -0.9004232 0.2822603 0.3310093
vn -0.9004232 0.2822603 0.3310094
vn -0.9004232 0.2822603 0.3310094
vn -0.694138 0.242386 0.6778063
vn -0.6941379 0.242386 0.6778063
vn -0.694138 0.242386 0.6778063
vn -0.694138 0.242386 0.6778063
vn 0.4681532 0.1930069 0.8623114
vn 0.4681532 0.1930069 0.8623114
vn 0.4681531 0.1930069 0.8623114
vn 0.4681532 0.1930069 0.8623114
vn 0.7866942 0.2371581 0.5699722
vn 0.7866942 0.2371581 0.5699722
vn 0.7866942 0.2371581 0.5699722
vn 0.7866942 0.2371581 0.5699722
vn 0.6896852 0.178262 0.701824
vn 0.6896852 0.1782621 0.701824
vn 0.6896852 0.1782621 0.701824
vn 0.6896852 0.1782621 0.701824
vn 0.5159153 0.8368366 -0.1831272
vn 0.5159153 0.8368366 -0.1831272
vn 0.5159153 0.8368366 -0.1831272
vn 0.5159153 0.8368366 -0.1831272
vn 0.1149801 0.8884324 -0.4443728
vn 0.1149801 0.8884323 -0.4443728
vn 0.1149801 0.8884324 -0.4443728
vn 0.1149801 0.8884324 -0.4443728
vn -0.2202101 0.8693344 -0.4424532
vn -0.2202101 0.8693344 -0.4424533
vn -0.2202101 0.8693344 -0.4424532
vn -0.2202101 0.8693344 -0.4424533
vn -0.1807883 0.8049014 -0.5651982
vn -0.1807883 0.8049015 -0.5651982
vn -0.1807883 0.8049015 -0.5651982
vn -0.1807883 0.8049015 -0.5651982
vn -0.5738804 0.818528 0.02594249
vn -0.5738803 0.8185281 0.02594253
vn -0.5738804 0.818528 0.0259425
vn -0.5738804 0.818528 0.02594249
vn -0.536334 0.822262 0.1903442
vn -0.536334 0.8222619 0.1903441
vn -0.5363341 0.8222619 0.1903442
vn -0.536334 0.8222619 0.1903441
vn -0.4341438 0.8172354 0.3790055
vn -0.4341438 0.8172354 0.3790056
vn -0.4341438 0.8172354 0.3790056
vn -0.4341438 0.8172354 0.3790056
vn 0.3490715 0.7962342 0.4941254
vn 0.3490715 0.7962342 0.4941255
vn 0.3490715 0.7962342 0.4941255
vn 0.3490715 0.7962342 0.4941255
vn 0.5485025 0.7985131 0.2480355
vn 0.5485024 0.7985132 0.2480354
vn 0.5485024 0.7985132 0.2480354
vn 0.5485025 0.7985131 0.2480355
vn 0.3632209 0.7325385 0.5757236
vn 0.3632209 0.7325386 0.5757236
vn 0.3632209 0.7325385 0.5757236
vn 0.3632209 0.7325385 0.5757236
vn 0.2811911 0.9546868 -0.09749084
vn 0.2811911 0.9546868 -0.09749088
vn 0.2811911 0.9546868 -0.09749084
vn -0.03855556 0.9181488 -0.3943551
vn -0.03855555 0.9181488 -0.3943551
vn -0.03855555 0.9181488 -0.3943551
vn -0.09339614 0.9097522 -0.4045092
vn -0.09339613 0.9097522 -0.4045093
vn -0.09339616 0.9097522 -0.4045092
vn -0.1561453 0.909535 -0.3851811
vn -0.1561453 0.909535 -0.3851811
vn -0.1561453 0.909535 -0.3851811
vn -0.3797679 0.9244466 -0.03427023
vn -0.3797679 0.9244466 -0.0342702
vn -0.3797679 0.9244466 -0.03427023
vn -0.3665155 0.9219853 0.1249367
vn -0.3665155 0.9219853 0.1249367
vn -0.3665155 0.9219853 0.1249367
vn -0.2853019 0.9320199 0.2234755
vn -0.2853019 0.9320199 0.2234755
vn -0.2853019 0.9320199 0.2234755
vn 0.2632622 0.9190346 0.2933736
vn 0.2632623 0.9190346 0.2933736
vn 0.2632623 0.9190345 0.2933736
vn 0.5453131 0.826882 0.137476
vn 0.545313 0.826882 0.137476
vn 0.545313 0.8268821 0.137476
vn 0.2312896 0.7785743 0.5833756
vn 0.2312895 0.7785743 0.5833756
vn 0.2312896 0.7785743 0.5833756

vt 0.5483398 0.007648468
vt 0.5 0.1500244
vt 0.6264648 0.06439209
vt 0.4516602 0.007648468
vt 0.3735352 0.06439209
vt 0.34375 0.15625
vt 0.3735352 0.2480469
vt 0.4516602 0.3049316
vt 0.5483398 0.3049316
vt 0.6264648 0.2480469
vt 0.65625 0.15625
vt 0 0
vt 0 1
vt 1 1
vt 1 0
vt 0 0
vt 0 1
vt 1 1
vt 1 0
vt 0 0
vt 0 1
vt 1 1
vt 1 0
vt 0 0
vt 0 1
vt 1 1
vt 1 0
vt 0 0
vt 0 1
vt 1 1
vt 1 0
vt 0 0
vt 0 1
vt 1 1
vt 1 0
vt 0 0
vt 0 1
vt 1 1
vt 1 0
vt 0 0
vt 0 1
vt 1 1
vt 1 0
vt 0 0
vt 0 1
vt 1 1
vt 1 0
vt 0 0
vt 0 1
vt 1 1
vt 1 0
vt 0 0
vt 0 1
vt 1 1
vt 1 0
vt 0 0
vt 0 1
vt 1 1
vt 1 0
vt 0 0
vt 0 1
vt 1 1
vt 1 0
vt 0 0
vt 0 1
vt 1 1
vt 1 0
vt 0 0
vt 0 1
vt 1 1
vt 1 0
vt 0 0
vt 0 1
vt 1 1
vt 1 0
vt 0 0
vt 0 1
vt 1 1
vt 1 0
vt 0 0
vt 0 1
vt 1 1
vt 1 0
vt 0 0
vt 0 1
vt 1 1
vt 1 0
vt 0 0
vt 0 1
vt 1 1
vt 1 0
vt 0 0
vt 0 1
vt 1 1
vt 1 0
vt 0 0
vt 0 1
vt 1 1
vt 1 0
vt 0 0
vt 0 1
vt 1 1
vt 1 0
vt 0 0
vt 0 1
vt 1 1
vt 1 0
vt 0 0
vt 0 1
vt 1 1
vt 1 0
vt 0 0
vt 0 1
vt 1 1
vt 1 0
vt 0 0
vt 0 1
vt 1 1
vt 1 0
vt 0 0
vt 0 1
vt 1 1
vt 1 0
vt 0 0
vt 0 1
vt 1 1
vt 1 0
vt 0 0
vt 0 1
vt 1 1
vt 1 0
vt 0 0
vt 0 1
vt 1 1
vt 1 0
vt 0 0
vt 0 1
vt 1 1
vt 1 0
vt 0 0
vt 0 1
vt 1 1
vt 1 0
vt 0 0
vt 0 1
vt 1 1
vt 1 0
vt 0 0
vt 0 1
vt 1 1
vt 1 0
vt 0 0
vt 0 1
vt 1 1
vt 1 0
vt 0 0
vt 0 1
vt 1 1
vt 1 0
vt 0 0
vt 0 1
vt 1 1
vt 1 0
vt 0 0
vt 0 1
vt 1 1
vt 1 0
vt 0 0
vt 0 1
vt 1 1
vt 1 0
vt 0 0
vt 0.5 1
vt 1 0
vt 0 0
vt 0.5 1
vt 1 0
vt 0 0
vt 0.5 1
vt 1 0
vt 0 0
vt 0.5 1
vt 1 0
vt 0 0
vt 0.5 1
vt 1 0
vt 0 0
vt 0.5 1
vt 1 0
vt 0 0
vt 0.5 1
vt 1 0
vt 0 0
vt 0.5 1
vt 1 0
vt 0 0
vt 0.5 1
vt 1 0
vt 0 0
vt 0.5 1
vt 1 0

g pCylinder1_6_3605_254
usemtl pCylinder1_6_3605_254
usemap pCylinder1_6_3605_254
f 1/1/1 3/3/3 2/2/2
f 4/4/4 1/1/1 2/2/2
f 5/5/5 4/4/4 2/2/2
f 6/6/6 5/5/5 2/2/2
f 7/7/7 6/6/6 2/2/2
f 8/8/8 7/7/7 2/2/2
f 9/9/9 8/8/8 2/2/2
f 10/10/10 9/9/9 2/2/2
f 11/11/11 10/10/10 2/2/2
f 3/3/3 11/11/11 2/2/2
f 12/12/12 14/14/14 13/13/13
f 12/12/12 15/15/15 14/14/14
f 16/16/16 18/18/18 17/17/17
f 16/16/16 19/19/19 18/18/18
f 20/20/20 22/22/22 21/21/21
f 20/20/20 23/23/23 22/22/22
f 24/24/24 26/26/26 25/25/25
f 24/24/24 27/27/27 26/26/26
f 28/28/28 30/30/30 29/29/29
f 28/28/28 31/31/31 30/30/30
f 32/32/32 34/34/34 33/33/33
f 32/32/32 35/35/35 34/34/34
f 36/36/36 38/38/38 37/37/37
f 36/36/36 39/39/39 38/38/38
f 40/40/40 42/42/42 41/41/41
f 40/40/40 43/43/43 42/42/42
f 44/44/44 46/46/46 45/45/45
f 44/44/44 47/47/47 46/46/46
f 48/48/48 50/50/50 49/49/49
f 48/48/48 51/51/51 50/50/50
f 52/52/52 54/54/54 53/53/53
f 52/52/52 55/55/55 54/54/54
f 56/56/56 58/58/58 57/57/57
f 56/56/56 59/59/59 58/58/58
f 60/60/60 62/62/62 61/61/61
f 60/60/60 63/63/63 62/62/62
f 64/64/64 66/66/66 65/65/65
f 64/64/64 67/67/67 66/66/66
f 68/68/68 70/70/70 69/69/69
f 68/68/68 71/71/71 70/70/70
f 72/72/72 74/74/74 73/73/73
f 72/72/72 75/75/75 74/74/74
f 76/76/76 78/78/78 77/77/77
f 76/76/76 79/79/79 78/78/78
f 80/80/80 82/82/82 81/81/81
f 80/80/80 83/83/83 82/82/82
f 84/84/84 86/86/86 85/85/85
f 84/84/84 87/87/87 86/86/86
f 88/88/88 90/90/90 89/89/89
f 88/88/88 91/91/91 90/90/90
f 92/92/92 94/94/94 93/93/93
f 92/92/92 95/95/95 94/94/94
f 96/96/96 98/98/98 97/97/97
f 96/96/96 99/99/99 98/98/98
f 100/100/100 102/102/102 101/101/101
f 100/100/100 103/103/103 102/102/102
f 104/104/104 106/106/106 105/105/105
f 104/104/104 107/107/107 106/106/106
f 108/108/108 110/110/110 109/109/109
f 108/108/108 111/111/111 110/110/110
f 112/112/112 114/114/114 113/113/113
f 112/112/112 115/115/115 114/114/114
f 116/116/116 118/118/118 117/117/117
f 116/116/116 119/119/119 118/118/118
f 120/120/120 122/122/122 121/121/121
f 120/120/120 123/123/123 122/122/122
f 124/124/124 126/126/126 125/125/125
f 124/124/124 127/127/127 126/126/126
f 128/128/128 130/130/130 129/129/129
f 128/128/128 131/131/131 130/130/130
f 132/132/132 134/134/134 133/133/133
f 132/132/132 135/135/135 134/134/134
f 136/136/136 138/138/138 137/137/137
f 136/136/136 139/139/139 138/138/138
f 140/140/140 142/142/142 141/141/141
f 140/140/140 143/143/143 142/142/142
f 144/144/144 146/146/146 145/145/145
f 144/144/144 147/147/147 146/146/146
f 148/148/148 150/150/150 149/149/149
f 148/148/148 151/151/151 150/150/150
f 152/152/152 154/154/154 153/153/153
f 152/152/152 155/155/155 154/154/154
f 156/156/156 158/158/158 157/157/157
f 156/156/156 159/159/159 158/158/158
f 160/160/160 162/162/162 161/161/161
f 160/160/160 163/163/163 162/162/162
f 164/164/164 166/166/166 165/165/165
f 164/164/164 167/167/167 166/166/166
f 168/168/168 170/170/170 169/169/169
f 168/168/168 171/171/171 170/170/170
f 172/172/172 174/174/174 173/173/173
f 175/175/175 177/177/177 176/176/176
f 178/178/178 180/180/180 179/179/179
f 181/181/181 183/183/183 182/182/182
f 184/184/184 186/186/186 185/185/185
f 187/187/187 189/189/189 188/188/188
f 190/190/190 192/192/192 191/191/191
f 193/193/193 195/195/195 194/194/194
f 196/196/196 198/198/198 197/197/197
f 199/199/199 201/201/201 200/200/200
