#pCylinder9_26_3914_47.obj

v 0.01454188 -0.02577563 -0.04035734
v 0.004620076 -0.03397614 0.00109297
v 0.03878061 -0.02577563 -0.02105334
v -0.009666725 -0.02577563 -0.03817469
v -0.01825415 -0.02577563 -0.01777953
v -0.0382255 -0.02223222 0.001092267
v -0.02135436 -0.02577563 0.01996433
v -0.005301579 -0.02577563 0.03271948
v 0.0210908 -0.02577563 0.04035895
v 0.03059515 -0.02577563 0.01996377
v 0.03218593 -0.02223222 0.001092296
v 0.03878061 -0.02577563 -0.02105334
v 0.04796304 -0.01489247 -0.02772469
v 0.01804879 -0.01489247 -0.05115151
v 0.01454188 -0.02577563 -0.04035734
v 0.01454188 -0.02577563 -0.04035734
v 0.01804879 -0.01489247 -0.05115151
v -0.01317485 -0.01489247 -0.0489684
v -0.009666725 -0.02577563 -0.03817469
v -0.009666725 -0.02577563 -0.03817469
v -0.01317485 -0.01489247 -0.0489684
v -0.02743674 -0.01489247 -0.02445113
v -0.01825415 -0.02577563 -0.01777953
v -0.01825415 -0.02577563 -0.01777953
v -0.02743674 -0.01489247 -0.02445113
v -0.04797061 -0.01288824 0.001092452
v -0.0382255 -0.02223222 0.001092267
v -0.0382255 -0.02223222 0.001092267
v -0.04797061 -0.01288824 0.001092452
v -0.03053678 -0.01489247 0.02663567
v -0.02135436 -0.02577563 0.01996433
v -0.02135436 -0.02577563 0.01996433
v -0.03053678 -0.01489247 0.02663567
v -0.008808489 -0.01489247 0.04351365
v -0.005301579 -0.02577563 0.03271948
v -0.005301579 -0.02577563 0.03271948
v -0.008808489 -0.01489247 0.04351365
v 0.02459797 -0.01489247 0.05115355
v 0.0210908 -0.02577563 0.04035895
v 0.0210908 -0.02577563 0.04035895
v 0.02459797 -0.01489247 0.05115355
v 0.03977747 -0.01489247 0.0266352
v 0.03059515 -0.02577563 0.01996377
v 0.03059515 -0.02577563 0.01996377
v 0.03977747 -0.01489247 0.0266352
v 0.04193104 -0.01288824 0.001092111
v 0.03218593 -0.02223222 0.001092296
v 0.03218593 -0.02223222 0.001092296
v 0.04193104 -0.01288824 0.001092111
v 0.04796304 -0.01489247 -0.02772469
v 0.03878061 -0.02577563 -0.02105334
v 0.04796304 -0.01489247 -0.02772469
v 0.04796304 -0.0001484205 -0.02772469
v 0.01804879 -0.0001484205 -0.05115151
v 0.01804879 -0.01489247 -0.05115151
v 0.01804879 -0.01489247 -0.05115151
v 0.01804879 -0.0001484205 -0.05115151
v -0.01317485 -0.0001484205 -0.0489684
v -0.01317485 -0.01489247 -0.0489684
v -0.01317485 -0.01489247 -0.0489684
v -0.01317485 -0.0001484205 -0.0489684
v -0.02743674 -0.0001484205 -0.02445113
v -0.02743674 -0.01489247 -0.02445113
v -0.02743674 -0.01489247 -0.02445113
v -0.02743674 -0.0001484205 -0.02445113
v -0.04797061 -0.00022938 0.001092452
v -0.04797061 -0.01288824 0.001092452
v -0.04797061 -0.01288824 0.001092452
v -0.04797061 -0.00022938 0.001092452
v -0.03053678 -0.0001484205 0.02663567
v -0.03053678 -0.01489247 0.02663567
v -0.03053678 -0.01489247 0.02663567
v -0.03053678 -0.0001484205 0.02663567
v -0.008808489 -0.0001484205 0.04351365
v -0.008808489 -0.01489247 0.04351365
v -0.008808489 -0.01489247 0.04351365
v -0.008808489 -0.0001484205 0.04351365
v 0.02459797 -0.0001484205 0.05115355
v 0.02459797 -0.01489247 0.05115355
v 0.02459797 -0.01489247 0.05115355
v 0.02459797 -0.0001484205 0.05115355
v 0.03977747 -0.0001484205 0.0266352
v 0.03977747 -0.01489247 0.0266352
v 0.03977747 -0.01489247 0.0266352
v 0.03977747 -0.0001484205 0.0266352
v 0.04193104 -0.00022938 0.001092111
v 0.04193104 -0.01288824 0.001092111
v 0.04193104 -0.01288824 0.001092111
v 0.04193104 -0.00022938 0.001092111
v 0.04796304 -0.0001484205 -0.02772469
v 0.04796304 -0.01489247 -0.02772469
v 0.04796304 -0.0001484205 -0.02772469
v 0.04568498 0.01428326 -0.0253953
v 0.01714172 0.01428326 -0.04799039
v 0.01804879 -0.0001484205 -0.05115151
v 0.01804879 -0.0001484205 -0.05115151
v 0.01714172 0.01428326 -0.04799039
v -0.01183269 0.01428326 -0.04559686
v -0.01317485 -0.0001484205 -0.0489684
v -0.01317485 -0.0001484205 -0.0489684
v -0.01183269 0.01428326 -0.04559686
v -0.02321351 0.01428326 -0.02180584
v -0.02743674 -0.0001484205 -0.02445113
v -0.02743674 -0.0001484205 -0.02445113
v -0.02321351 0.01428326 -0.02180584
v -0.04530775 0.01197209 0.00119805
v -0.04797061 -0.00022938 0.001092452
v -0.04797061 -0.00022938 0.001092452
v -0.04530775 0.01197209 0.00119805
v -0.02661352 0.01428326 0.02420121
v -0.03053678 -0.0001484205 0.02663567
v -0.03053678 -0.0001484205 0.02663567
v -0.02661352 0.01428326 0.02420121
v -0.007045673 0.01428326 0.03961501
v -0.008808489 -0.0001484205 0.04351365
v -0.008808489 -0.0001484205 0.04351365
v -0.007045673 0.01428326 0.03961501
v 0.02432227 0.01428326 0.04799233
v 0.02459797 -0.0001484205 0.05115355
v 0.02459797 -0.0001484205 0.05115355
v 0.02432227 0.01428326 0.04799233
v 0.03670921 0.01428326 0.0242012
v 0.03977747 -0.0001484205 0.0266352
v 0.03977747 -0.0001484205 0.0266352
v 0.03670921 0.01428326 0.0242012
v 0.03864838 0.01197209 0.001198011
v 0.04193104 -0.00022938 0.001092111
v 0.04193104 -0.00022938 0.001092111
v 0.03864838 0.01197209 0.001198011
v 0.04568498 0.01428326 -0.0253953
v 0.04796304 -0.0001484205 -0.02772469
v 0.04568498 0.01428326 -0.0253953
v 0.03224864 0.02437436 -0.01614631
v 0.01203262 0.02437436 -0.03256721
v 0.01714172 0.01428326 -0.04799039
v 0.01714172 0.01428326 -0.04799039
v 0.01203262 0.02437436 -0.03256721
v -0.002595989 0.02437436 -0.02139275
v -0.01183269 0.01428326 -0.04559686
v -0.01183269 0.01428326 -0.04559686
v -0.002595989 0.02437436 -0.02139275
v -0.01125661 0.02437436 -0.01279435
v -0.02321351 0.01428326 -0.02180584
v -0.02321351 0.01428326 -0.02180584
v -0.01125661 0.02437436 -0.01279435
v -0.03124843 0.02074648 0.001118897
v -0.04530775 0.01197209 0.00119805
v -0.04530775 0.01197209 0.00119805
v -0.03124843 0.02074648 0.001118897
v -0.01443058 0.02437436 0.01503096
v -0.02661352 0.01428326 0.02420121
v -0.02661352 0.01428326 0.02420121
v -0.01443058 0.02437436 0.01503096
v -0.00259557 0.02437436 0.02474677
v -0.007045673 0.01428326 0.03961501
v -0.007045673 0.01428326 0.03961501
v -0.00259557 0.02437436 0.02474677
v 0.01873743 0.02437436 0.03257
v 0.02432227 0.01428326 0.04799233
v 0.02432227 0.01428326 0.04799233
v 0.01873743 0.02437436 0.03257
v 0.0238677 0.02437436 0.01503152
v 0.03670921 0.01428326 0.0242012
v 0.03670921 0.01428326 0.0242012
v 0.0238677 0.02437436 0.01503152
v 0.02504077 0.02074648 0.001118028
v 0.03864838 0.01197209 0.001198011
v 0.03864838 0.01197209 0.001198011
v 0.02504077 0.02074648 0.001118028
v 0.03224864 0.02437436 -0.01614631
v 0.04568498 0.01428326 -0.0253953
v 0.03224864 0.02437436 -0.01614631
v 0.004620076 0.03397604 0.00109297
v 0.01203262 0.02437436 -0.03256721
v 0.01203262 0.02437436 -0.03256721
v 0.004620076 0.03397604 0.00109297
v -0.002595989 0.02437436 -0.02139275
v -0.002595989 0.02437436 -0.02139275
v 0.004620076 0.03397604 0.00109297
v -0.01125661 0.02437436 -0.01279435
v -0.01125661 0.02437436 -0.01279435
v 0.004620076 0.03397604 0.00109297
v -0.03124843 0.02074648 0.001118897
v -0.03124843 0.02074648 0.001118897
v 0.004620076 0.03397604 0.00109297
v -0.01443058 0.02437436 0.01503096
v -0.01443058 0.02437436 0.01503096
v 0.004620076 0.03397604 0.00109297
v -0.00259557 0.02437436 0.02474677
v -0.00259557 0.02437436 0.02474677
v 0.004620076 0.03397604 0.00109297
v 0.01873743 0.02437436 0.03257
v 0.01873743 0.02437436 0.03257
v 0.004620076 0.03397604 0.00109297
v 0.0238677 0.02437436 0.01503152
v 0.0238677 0.02437436 0.01503152
v 0.004620076 0.03397604 0.00109297
v 0.02504077 0.02074648 0.001118028
v 0.02504077 0.02074648 0.001118028
v 0.004620076 0.03397604 0.00109297
v 0.03224864 0.02437436 -0.01614631

vn -0.04723383 -0.9818565 -0.183646
vn 0.001396777 -0.9999982 -0.0009183352
vn 0.1372708 -0.9784297 -0.1543737
vn -0.1650898 -0.9810984 -0.1009473
vn -0.2737662 -0.9602382 0.05471575
vn -0.2317782 -0.9642731 0.1282784
vn -0.1297884 -0.9679796 0.2148712
vn 0.03569649 -0.970319 0.2391774
vn 0.1471367 -0.9818347 0.1197941
vn 0.2524903 -0.9585599 -0.1319492
vn 0.3816399 -0.9154217 -0.1278801
vn 0.0672974 -0.703926 -0.7070777
vn 0.06729734 -0.703926 -0.7070777
vn 0.06729743 -0.703926 -0.7070777
vn 0.06729734 -0.703926 -0.7070777
vn -0.4313224 -0.7031067 -0.5653329
vn -0.4313224 -0.7031068 -0.5653329
vn -0.4313224 -0.7031067 -0.5653329
vn -0.4313225 -0.7031068 -0.5653329
vn -0.745489 -0.6620906 0.07669243
vn -0.7454891 -0.6620905 0.07669243
vn -0.745489 -0.6620906 0.07669243
vn -0.7454891 -0.6620905 0.07669246
vn -0.724956 -0.6863981 -0.05741072
vn -0.7249561 -0.6863981 -0.05741066
vn -0.724956 -0.6863981 -0.05741069
vn -0.724956 -0.6863981 -0.05741063
vn -0.3033592 -0.6953633 0.6514925
vn -0.3033592 -0.6953633 0.6514925
vn -0.3033592 -0.6953633 0.6514925
vn -0.3033592 -0.6953633 0.6514925
vn -0.06522244 -0.7039658 0.7072324
vn -0.06522253 -0.7039658 0.7072324
vn -0.0652225 -0.7039658 0.7072324
vn -0.06522247 -0.7039658 0.7072323
vn 0.2288415 -0.6928934 0.6837614
vn 0.2288415 -0.6928935 0.6837614
vn 0.2288416 -0.6928935 0.6837614
vn 0.2288415 -0.6928934 0.6837614
vn 0.7424014 -0.6678944 -0.0525071
vn 0.7424013 -0.6678944 -0.05250707
vn 0.7424013 -0.6678944 -0.05250707
vn 0.7424014 -0.6678944 -0.05250713
vn 0.6040543 -0.6790238 -0.4171865
vn 0.6040543 -0.6790239 -0.4171865
vn 0.6040543 -0.6790238 -0.4171865
vn 0.6040543 -0.6790238 -0.4171865
vn 0.7640365 -0.6155775 -0.1931636
vn 0.7640365 -0.6155774 -0.1931636
vn 0.7640365 -0.6155775 -0.1931636
vn 0.7640365 -0.6155775 -0.1931636
vn 0.09109896 7.493665E-17 -0.9958419
vn 0.09109902 7.493663E-17 -0.9958419
vn 0.09109902 7.493663E-17 -0.9958419
vn 0.09109896 7.493665E-17 -0.9958419
vn -0.599552 2.952785E-16 -0.8003358
vn -0.599552 2.952785E-16 -0.8003358
vn -0.599552 2.952785E-16 -0.8003358
vn -0.599552 2.952785E-16 -0.8003358
vn -0.9989293 3.440497E-16 0.04626366
vn -0.9989293 3.440497E-16 0.04626366
vn -0.9989293 3.440497E-16 0.04626366
vn -0.9989293 3.440497E-16 0.04626366
vn -0.9946008 3.586232E-16 -0.1037748
vn -0.9946009 3.586232E-16 -0.1037748
vn -0.9946008 3.586232E-16 -0.1037748
vn -0.9946008 3.586232E-16 -0.1037748
vn -0.3882745 3.685722E-17 0.9215437
vn -0.3882745 3.685722E-17 0.9215437
vn -0.3882744 3.68572E-17 0.9215438
vn -0.3882745 3.685722E-17 0.9215437
vn -0.08716172 -7.635001E-17 0.9961942
vn -0.08716172 -7.635001E-17 0.9961942
vn -0.08716172 -7.635001E-17 0.9961942
vn -0.08716172 -7.635001E-17 0.9961942
vn 0.3413046 -2.200195E-16 0.9399527
vn 0.3413046 -2.200195E-16 0.9399527
vn 0.3413046 -2.200195E-16 0.9399527
vn 0.3413046 -2.200195E-16 0.9399527
vn 0.9998237 -3.473084E-16 -0.01878265
vn 0.9998237 -3.473084E-16 -0.01878265
vn 0.9998237 -3.473084E-16 -0.01878265
vn 0.9998237 -3.473084E-16 -0.01878265
vn 0.8827839 -2.580649E-16 -0.4697793
vn 0.8827839 -2.580649E-16 -0.4697793
vn 0.8827839 -2.580649E-16 -0.4697793
vn 0.8827839 -2.580649E-16 -0.4697793
vn 0.9334856 -2.876973E-16 -0.358615
vn 0.9334856 -2.876973E-16 -0.358615
vn 0.9334856 -2.876973E-16 -0.358615
vn 0.9334856 -2.876973E-16 -0.358615
vn 0.09149474 0.212757 -0.9728121
vn 0.09149471 0.212757 -0.9728119
vn 0.09149471 0.212757 -0.9728119
vn 0.09149471 0.212757 -0.9728119
vn -0.5894301 0.2212333 -0.7769349
vn -0.5894301 0.2212333 -0.7769349
vn -0.5894301 0.2212333 -0.7769349
vn -0.5894301 0.2212333 -0.7769349
vn -0.962406 0.2588965 0.08214128
vn -0.962406 0.2588965 0.08214134
vn -0.962406 0.2588965 0.08214122
vn -0.962406 0.2588965 0.08214128
vn -0.9578866 0.2546348 -0.1327195
vn -0.9578866 0.2546348 -0.1327195
vn -0.9578866 0.2546347 -0.1327195
vn -0.9578865 0.2546348 -0.1327194
vn -0.3487277 0.2437819 0.9049638
vn -0.3487277 0.2437819 0.9049638
vn -0.3487277 0.2437819 0.9049637
vn -0.3487277 0.2437819 0.9049638
vn -0.08669761 0.2822602 0.9554123
vn -0.08669767 0.2822602 0.9554122
vn -0.08669764 0.2822602 0.9554123
vn -0.08669764 0.2822602 0.9554123
vn 0.315039 0.2423859 0.9176052
vn 0.315039 0.2423859 0.9176052
vn 0.315039 0.2423859 0.9176052
vn 0.315039 0.2423859 0.9176052
vn 0.979735 0.1930068 -0.0535498
vn 0.979735 0.1930068 -0.0535498
vn 0.979735 0.1930069 -0.05354974
vn 0.979735 0.1930069 -0.0535498
vn 0.8520663 0.2371581 -0.4666251
vn 0.8520663 0.2371581 -0.4666252
vn 0.8520663 0.2371581 -0.4666252
vn 0.8520663 0.237158 -0.4666252
vn 0.9296396 0.178262 -0.3224792
vn 0.9296396 0.178262 -0.3224792
vn 0.9296396 0.178262 -0.3224792
vn 0.9296396 0.178262 -0.3224792
vn 0.05557649 0.8368363 -0.5446241
vn 0.05557646 0.8368363 -0.5446241
vn 0.05557649 0.8368363 -0.5446241
vn 0.05557646 0.8368363 -0.5446241
vn -0.3522567 0.8884321 -0.2942835
vn -0.3522567 0.8884321 -0.2942835
vn -0.3522567 0.8884321 -0.2942835
vn -0.3522567 0.8884321 -0.2942836
vn -0.4941345 0.8693342 0.009405151
vn -0.4941345 0.8693342 0.009405121
vn -0.4941345 0.8693342 0.009405151
vn -0.4941345 0.8693342 0.009405121
vn -0.5881523 0.8049012 -0.07880515
vn -0.5881523 0.8049012 -0.07880515
vn -0.5881523 0.8049012 -0.07880515
vn -0.5881523 0.8049012 -0.07880515
vn -0.2224383 0.8185277 0.5296535
vn -0.2224382 0.8185278 0.5296535
vn -0.2224383 0.8185277 0.5296536
vn -0.2224383 0.8185277 0.5296535
vn -0.05780387 0.8222617 0.5661659
vn -0.05780391 0.8222616 0.5661659
vn -0.05780388 0.8222616 0.5661659
vn -0.05780391 0.8222616 0.5661659
vn 0.1564474 0.8172351 0.5546623
vn 0.1564474 0.8172351 0.5546623
vn 0.1564474 0.8172351 0.5546623
vn 0.1564474 0.8172351 0.5546623
vn 0.5960343 0.796234 -0.1037009
vn 0.5960344 0.796234 -0.1037009
vn 0.5960344 0.796234 -0.1037009
vn 0.5960344 0.796234 -0.1037009
vn 0.4591222 0.7985129 -0.3893371
vn 0.459122 0.7985129 -0.3893371
vn 0.4591221 0.7985129 -0.3893371
vn 0.4591222 0.7985129 -0.3893371
vn 0.675826 0.7325383 -0.08152515
vn 0.675826 0.7325383 -0.08152518
vn 0.675826 0.7325383 -0.08152515
vn 0.675826 0.7325383 -0.08152515
vn 0.03238694 0.9546865 -0.2958445
vn 0.03238691 0.9546865 -0.2958445
vn 0.03238694 0.9546865 -0.2958445
vn -0.3728448 0.9181486 -0.134124
vn -0.3728448 0.9181486 -0.134124
vn -0.3728448 0.9181486 -0.134124
vn -0.4055162 0.909752 -0.08892247
vn -0.4055162 0.909752 -0.08892249
vn -0.4055162 0.909752 -0.08892246
vn -0.4149368 0.9095348 -0.02394335
vn -0.4149368 0.9095348 -0.02394335
vn -0.4149368 0.9095348 -0.02394335
vn -0.1936769 0.9244464 0.3284621
vn -0.1936769 0.9244464 0.3284621
vn -0.1936769 0.9244464 0.3284621
vn -0.04414502 0.921985 0.3846999
vn -0.04414502 0.9219851 0.3846999
vn -0.04414502 0.9219851 0.3846999
vn 0.07968719 0.9320197 0.3535371
vn 0.07968716 0.9320197 0.3535371
vn 0.07968717 0.9320197 0.3535371
vn 0.3778769 0.9190344 -0.1121788
vn 0.3778769 0.9190344 -0.1121788
vn 0.377877 0.9190343 -0.1121788
vn 0.3578579 0.8268817 -0.4338245
vn 0.3578579 0.8268817 -0.4338244
vn 0.3578579 0.8268818 -0.4338244
vn 0.626214 0.778574 0.04096195
vn 0.626214 0.778574 0.04096201
vn 0.6262141 0.778574 0.04096198

vt 0.5482839 0.007647395
vt 0.5 0.15
vt 0.6264089 0.06440853
vt 0.4517161 0.00764741
vt 0.3735911 0.06440856
vt 0.34375 0.15625
vt 0.3735911 0.2480915
vt 0.4517161 0.3048526
vt 0.5482839 0.3048526
vt 0.6264089 0.2480914
vt 0.65625 0.15625
vt 0 0
vt 0 1
vt 1 1
vt 1 0
vt 0 0
vt 0 1
vt 1 1
vt 1 0
vt 0 0
vt 0 1
vt 1 1
vt 1 0
vt 0 0
vt 0 1
vt 1 1
vt 1 0
vt 0 0
vt 0 1
vt 1 1
vt 1 0
vt 0 0
vt 0 1
vt 1 1
vt 1 0
vt 0 0
vt 0 1
vt 1 1
vt 1 0
vt 0 0
vt 0 1
vt 1 1
vt 1 0
vt 0 0
vt 0 1
vt 1 1
vt 1 0
vt 0 0
vt 0 1
vt 1 1
vt 1 0
vt 0 0
vt 0 1
vt 1 1
vt 1 0
vt 0 0
vt 0 1
vt 1 1
vt 1 0
vt 0 0
vt 0 1
vt 1 1
vt 1 0
vt 0 0
vt 0 1
vt 1 1
vt 1 0
vt 0 0
vt 0 1
vt 1 1
vt 1 0
vt 0 0
vt 0 1
vt 1 1
vt 1 0
vt 0 0
vt 0 1
vt 1 1
vt 1 0
vt 0 0
vt 0 1
vt 1 1
vt 1 0
vt 0 0
vt 0 1
vt 1 1
vt 1 0
vt 0 0
vt 0 1
vt 1 1
vt 1 0
vt 0 0
vt 0 1
vt 1 1
vt 1 0
vt 0 0
vt 0 1
vt 1 1
vt 1 0
vt 0 0
vt 0 1
vt 1 1
vt 1 0
vt 0 0
vt 0 1
vt 1 1
vt 1 0
vt 0 0
vt 0 1
vt 1 1
vt 1 0
vt 0 0
vt 0 1
vt 1 1
vt 1 0
vt 0 0
vt 0 1
vt 1 1
vt 1 0
vt 0 0
vt 0 1
vt 1 1
vt 1 0
vt 0 0
vt 0 1
vt 1 1
vt 1 0
vt 0 0
vt 0 1
vt 1 1
vt 1 0
vt 0 0
vt 0 1
vt 1 1
vt 1 0
vt 0 0
vt 0 1
vt 1 1
vt 1 0
vt 0 0
vt 0 1
vt 1 1
vt 1 0
vt 0 0
vt 0 1
vt 1 1
vt 1 0
vt 0 0
vt 0 1
vt 1 1
vt 1 0
vt 0 0
vt 0 1
vt 1 1
vt 1 0
vt 0 0
vt 0 1
vt 1 1
vt 1 0
vt 0 0
vt 0 1
vt 1 1
vt 1 0
vt 0 0
vt 0 1
vt 1 1
vt 1 0
vt 0 0
vt 0 1
vt 1 1
vt 1 0
vt 0 0
vt 0.5 1
vt 1 0
vt 0 0
vt 0.5 1
vt 1 0
vt 0 0
vt 0.5 1
vt 1 0
vt 0 0
vt 0.5 1
vt 1 0
vt 0 0
vt 0.5 1
vt 1 0
vt 0 0
vt 0.5 1
vt 1 0
vt 0 0
vt 0.5 1
vt 1 0
vt 0 0
vt 0.5 1
vt 1 0
vt 0 0
vt 0.5 1
vt 1 0
vt 0 0
vt 0.5 1
vt 1 0

g pCylinder9_26_3914_47
usemtl pCylinder9_26_3914_47
usemap pCylinder9_26_3914_47
f 1/1/1 3/3/3 2/2/2
f 4/4/4 1/1/1 2/2/2
f 5/5/5 4/4/4 2/2/2
f 6/6/6 5/5/5 2/2/2
f 7/7/7 6/6/6 2/2/2
f 8/8/8 7/7/7 2/2/2
f 9/9/9 8/8/8 2/2/2
f 10/10/10 9/9/9 2/2/2
f 11/11/11 10/10/10 2/2/2
f 3/3/3 11/11/11 2/2/2
f 12/12/12 14/14/14 13/13/13
f 12/12/12 15/15/15 14/14/14
f 16/16/16 18/18/18 17/17/17
f 16/16/16 19/19/19 18/18/18
f 20/20/20 22/22/22 21/21/21
f 20/20/20 23/23/23 22/22/22
f 24/24/24 26/26/26 25/25/25
f 24/24/24 27/27/27 26/26/26
f 28/28/28 30/30/30 29/29/29
f 28/28/28 31/31/31 30/30/30
f 32/32/32 34/34/34 33/33/33
f 32/32/32 35/35/35 34/34/34
f 36/36/36 38/38/38 37/37/37
f 36/36/36 39/39/39 38/38/38
f 40/40/40 42/42/42 41/41/41
f 40/40/40 43/43/43 42/42/42
f 44/44/44 46/46/46 45/45/45
f 44/44/44 47/47/47 46/46/46
f 48/48/48 50/50/50 49/49/49
f 48/48/48 51/51/51 50/50/50
f 52/52/52 54/54/54 53/53/53
f 52/52/52 55/55/55 54/54/54
f 56/56/56 58/58/58 57/57/57
f 56/56/56 59/59/59 58/58/58
f 60/60/60 62/62/62 61/61/61
f 60/60/60 63/63/63 62/62/62
f 64/64/64 66/66/66 65/65/65
f 64/64/64 67/67/67 66/66/66
f 68/68/68 70/70/70 69/69/69
f 68/68/68 71/71/71 70/70/70
f 72/72/72 74/74/74 73/73/73
f 72/72/72 75/75/75 74/74/74
f 76/76/76 78/78/78 77/77/77
f 76/76/76 79/79/79 78/78/78
f 80/80/80 82/82/82 81/81/81
f 80/80/80 83/83/83 82/82/82
f 84/84/84 86/86/86 85/85/85
f 84/84/84 87/87/87 86/86/86
f 88/88/88 90/90/90 89/89/89
f 88/88/88 91/91/91 90/90/90
f 92/92/92 94/94/94 93/93/93
f 92/92/92 95/95/95 94/94/94
f 96/96/96 98/98/98 97/97/97
f 96/96/96 99/99/99 98/98/98
f 100/100/100 102/102/102 101/101/101
f 100/100/100 103/103/103 102/102/102
f 104/104/104 106/106/106 105/105/105
f 104/104/104 107/107/107 106/106/106
f 108/108/108 110/110/110 109/109/109
f 108/108/108 111/111/111 110/110/110
f 112/112/112 114/114/114 113/113/113
f 112/112/112 115/115/115 114/114/114
f 116/116/116 118/118/118 117/117/117
f 116/116/116 119/119/119 118/118/118
f 120/120/120 122/122/122 121/121/121
f 120/120/120 123/123/123 122/122/122
f 124/124/124 126/126/126 125/125/125
f 124/124/124 127/127/127 126/126/126
f 128/128/128 130/130/130 129/129/129
f 128/128/128 131/131/131 130/130/130
f 132/132/132 134/134/134 133/133/133
f 132/132/132 135/135/135 134/134/134
f 136/136/136 138/138/138 137/137/137
f 136/136/136 139/139/139 138/138/138
f 140/140/140 142/142/142 141/141/141
f 140/140/140 143/143/143 142/142/142
f 144/144/144 146/146/146 145/145/145
f 144/144/144 147/147/147 146/146/146
f 148/148/148 150/150/150 149/149/149
f 148/148/148 151/151/151 150/150/150
f 152/152/152 154/154/154 153/153/153
f 152/152/152 155/155/155 154/154/154
f 156/156/156 158/158/158 157/157/157
f 156/156/156 159/159/159 158/158/158
f 160/160/160 162/162/162 161/161/161
f 160/160/160 163/163/163 162/162/162
f 164/164/164 166/166/166 165/165/165
f 164/164/164 167/167/167 166/166/166
f 168/168/168 170/170/170 169/169/169
f 168/168/168 171/171/171 170/170/170
f 172/172/172 174/174/174 173/173/173
f 175/175/175 177/177/177 176/176/176
f 178/178/178 180/180/180 179/179/179
f 181/181/181 183/183/183 182/182/182
f 184/184/184 186/186/186 185/185/185
f 187/187/187 189/189/189 188/188/188
f 190/190/190 192/192/192 191/191/191
f 193/193/193 195/195/195 194/194/194
f 196/196/196 198/198/198 197/197/197
f 199/199/199 201/201/201 200/200/200
