#pCylinder17_9_3896_75.obj

v 0.01454747 -0.02577556 -0.04035477
v 0.004626141 -0.03397581 0.001095476
v 0.03878707 -0.02577556 -0.02105065
v -0.009661398 -0.02577556 -0.03817181
v -0.01824871 -0.02577556 -0.01777679
v -0.0382199 -0.02223189 0.001094819
v -0.02134858 -0.02577556 0.0199672
v -0.005294979 -0.02577556 0.03272193
v 0.02109607 -0.02577556 0.04036174
v 0.03060093 -0.02577556 0.01996719
v 0.03219203 -0.02223189 0.00109543
v 0.03878707 -0.02577556 -0.02105065
v 0.04796915 -0.01489228 -0.0277229
v 0.01805485 -0.01489228 -0.05114892
v 0.01454747 -0.02577556 -0.04035477
v 0.01454747 -0.02577556 -0.04035477
v 0.01805485 -0.01489228 -0.05114892
v -0.01316839 -0.01489228 -0.0489659
v -0.009661398 -0.02577556 -0.03817181
v -0.009661398 -0.02577556 -0.03817181
v -0.01316839 -0.01489228 -0.0489659
v -0.02743099 -0.01489228 -0.02444844
v -0.01824871 -0.02577556 -0.01777679
v -0.01824871 -0.02577556 -0.01777679
v -0.02743099 -0.01489228 -0.02444844
v -0.04796478 -0.01288807 0.001094876
v -0.0382199 -0.02223189 0.001094819
v -0.0382199 -0.02223189 0.001094819
v -0.04796478 -0.01288807 0.001094876
v -0.03053072 -0.01489228 0.02663838
v -0.02134858 -0.02577556 0.0199672
v -0.02134858 -0.02577556 0.0199672
v -0.03053072 -0.01489228 0.02663838
v -0.008802774 -0.01489228 0.04351632
v -0.005294979 -0.02577556 0.03272193
v -0.005294979 -0.02577556 0.03272193
v -0.008802774 -0.01489228 0.04351632
v 0.02460353 -0.01489228 0.05115665
v 0.02109607 -0.02577556 0.04036174
v 0.02109607 -0.02577556 0.04036174
v 0.02460353 -0.01489228 0.05115665
v 0.03978362 -0.01489228 0.0266386
v 0.03060093 -0.02577556 0.01996719
v 0.03060093 -0.02577556 0.01996719
v 0.03978362 -0.01489228 0.0266386
v 0.0419369 -0.01288807 0.001095374
v 0.03219203 -0.02223189 0.00109543
v 0.03219203 -0.02223189 0.00109543
v 0.0419369 -0.01288807 0.001095374
v 0.04796915 -0.01489228 -0.0277229
v 0.03878707 -0.02577556 -0.02105065
v 0.04796915 -0.01489228 -0.0277229
v 0.04796915 -0.0001482121 -0.0277229
v 0.01805485 -0.0001482121 -0.05114892
v 0.01805485 -0.01489228 -0.05114892
v 0.01805485 -0.01489228 -0.05114892
v 0.01805485 -0.0001482121 -0.05114892
v -0.01316839 -0.0001482121 -0.0489659
v -0.01316839 -0.01489228 -0.0489659
v -0.01316839 -0.01489228 -0.0489659
v -0.01316839 -0.0001482121 -0.0489659
v -0.02743099 -0.0001482121 -0.02444844
v -0.02743099 -0.01489228 -0.02444844
v -0.02743099 -0.01489228 -0.02444844
v -0.02743099 -0.0001482121 -0.02444844
v -0.04796478 -0.000229383 0.001094876
v -0.04796478 -0.01288807 0.001094876
v -0.04796478 -0.01288807 0.001094876
v -0.04796478 -0.000229383 0.001094876
v -0.03053072 -0.0001482121 0.02663838
v -0.03053072 -0.01489228 0.02663838
v -0.03053072 -0.01489228 0.02663838
v -0.03053072 -0.0001482121 0.02663838
v -0.008802774 -0.0001482121 0.04351632
v -0.008802774 -0.01489228 0.04351632
v -0.008802774 -0.01489228 0.04351632
v -0.008802774 -0.0001482121 0.04351632
v 0.02460353 -0.0001482121 0.05115665
v 0.02460353 -0.01489228 0.05115665
v 0.02460353 -0.01489228 0.05115665
v 0.02460353 -0.0001482121 0.05115665
v 0.03978362 -0.0001482121 0.0266386
v 0.03978362 -0.01489228 0.0266386
v 0.03978362 -0.01489228 0.0266386
v 0.03978362 -0.0001482121 0.0266386
v 0.0419369 -0.000229383 0.001095374
v 0.0419369 -0.01288807 0.001095374
v 0.0419369 -0.01288807 0.001095374
v 0.0419369 -0.000229383 0.001095374
v 0.04796915 -0.0001482121 -0.0277229
v 0.04796915 -0.01489228 -0.0277229
v 0.04796915 -0.0001482121 -0.0277229
v 0.04569091 0.01428351 -0.02539315
v 0.0171476 0.01428351 -0.04798727
v 0.01805485 -0.0001482121 -0.05114892
v 0.01805485 -0.0001482121 -0.05114892
v 0.0171476 0.01428351 -0.04798727
v -0.01182689 0.01428351 -0.04559427
v -0.01316839 -0.0001482121 -0.0489659
v -0.01316839 -0.0001482121 -0.0489659
v -0.01182689 0.01428351 -0.04559427
v -0.0232083 0.01428351 -0.02180291
v -0.02743099 -0.0001482121 -0.02444844
v -0.02743099 -0.0001482121 -0.02444844
v -0.0232083 0.01428351 -0.02180291
v -0.04530162 0.01197212 0.001200592
v -0.04796478 -0.000229383 0.001094876
v -0.04796478 -0.000229383 0.001094876
v -0.04530162 0.01197212 0.001200592
v -0.0266071 0.01428351 0.0242039
v -0.03053072 -0.0001482121 0.02663838
v -0.03053072 -0.0001482121 0.02663838
v -0.0266071 0.01428351 0.0242039
v -0.007039673 0.01428351 0.03961743
v -0.008802774 -0.0001482121 0.04351632
v -0.008802774 -0.0001482121 0.04351632
v -0.007039673 0.01428351 0.03961743
v 0.02432814 0.01428351 0.04799486
v 0.02460353 -0.0001482121 0.05115665
v 0.02460353 -0.0001482121 0.05115665
v 0.02432814 0.01428351 0.04799486
v 0.03671487 0.01428351 0.02420347
v 0.03978362 -0.0001482121 0.0266386
v 0.03978362 -0.0001482121 0.0266386
v 0.03671487 0.01428351 0.02420347
v 0.03865419 0.01197212 0.001200648
v 0.0419369 -0.000229383 0.001095374
v 0.0419369 -0.000229383 0.001095374
v 0.03865419 0.01197212 0.001200648
v 0.04569091 0.01428351 -0.02539315
v 0.04796915 -0.0001482121 -0.0277229
v 0.04569091 0.01428351 -0.02539315
v 0.03225455 0.02437457 -0.01614423
v 0.01203881 0.02437457 -0.0325652
v 0.0171476 0.01428351 -0.04798727
v 0.0171476 0.01428351 -0.04798727
v 0.01203881 0.02437457 -0.0325652
v -0.002589942 0.02437457 -0.0213898
v -0.01182689 0.01428351 -0.04559427
v -0.01182689 0.01428351 -0.04559427
v -0.002589942 0.02437457 -0.0213898
v -0.01125117 0.02437457 -0.01279181
v -0.0232083 0.01428351 -0.02180291
v -0.0232083 0.01428351 -0.02180291
v -0.01125117 0.02437457 -0.01279181
v -0.03124207 0.02074655 0.001121389
v -0.04530162 0.01197212 0.001200592
v -0.04530162 0.01197212 0.001200592
v -0.03124207 0.02074655 0.001121389
v -0.01442494 0.02437457 0.01503345
v -0.0266071 0.01428351 0.0242039
v -0.0266071 0.01428351 0.0242039
v -0.01442494 0.02437457 0.01503345
v -0.00259007 0.02437457 0.02474982
v -0.007039673 0.01428351 0.03961743
v -0.007039673 0.01428351 0.03961743
v -0.00259007 0.02437457 0.02474982
v 0.01874397 0.02437457 0.03257254
v 0.02432814 0.01428351 0.04799486
v 0.02432814 0.01428351 0.04799486
v 0.01874397 0.02437457 0.03257254
v 0.02387336 0.02437457 0.01503377
v 0.03671487 0.01428351 0.02420347
v 0.03671487 0.01428351 0.02420347
v 0.02387336 0.02437457 0.01503377
v 0.02504645 0.02074655 0.001121123
v 0.03865419 0.01197212 0.001200648
v 0.03865419 0.01197212 0.001200648
v 0.02504645 0.02074655 0.001121123
v 0.03225455 0.02437457 -0.01614423
v 0.04569091 0.01428351 -0.02539315
v 0.03225455 0.02437457 -0.01614423
v 0.004626141 0.03397622 0.001095476
v 0.01203881 0.02437457 -0.0325652
v 0.01203881 0.02437457 -0.0325652
v 0.004626141 0.03397622 0.001095476
v -0.002589942 0.02437457 -0.0213898
v -0.002589942 0.02437457 -0.0213898
v 0.004626141 0.03397622 0.001095476
v -0.01125117 0.02437457 -0.01279181
v -0.01125117 0.02437457 -0.01279181
v 0.004626141 0.03397622 0.001095476
v -0.03124207 0.02074655 0.001121389
v -0.03124207 0.02074655 0.001121389
v 0.004626141 0.03397622 0.001095476
v -0.01442494 0.02437457 0.01503345
v -0.01442494 0.02437457 0.01503345
v 0.004626141 0.03397622 0.001095476
v -0.00259007 0.02437457 0.02474982
v -0.00259007 0.02437457 0.02474982
v 0.004626141 0.03397622 0.001095476
v 0.01874397 0.02437457 0.03257254
v 0.01874397 0.02437457 0.03257254
v 0.004626141 0.03397622 0.001095476
v 0.02387336 0.02437457 0.01503377
v 0.02387336 0.02437457 0.01503377
v 0.004626141 0.03397622 0.001095476
v 0.02504645 0.02074655 0.001121123
v 0.02504645 0.02074655 0.001121123
v 0.004626141 0.03397622 0.001095476
v 0.03225455 0.02437457 -0.01614423

vn -0.1484289 -0.9746063 -0.1676645
vn 0.0009817794 -0.999998 -0.001729462
vn 0.06120212 -0.9698725 -0.2357998
vn -0.2277841 -0.9735574 -0.01733016
vn -0.2561932 -0.9450633 0.2030279
vn -0.1734673 -0.9505205 0.2577208
vn -0.02076743 -0.955556 0.2940773
vn 0.1654059 -0.9587457 0.2311874
vn 0.2191138 -0.9745761 0.04680462
vn 0.1927039 -0.9428011 -0.2720134
vn 0.3241867 -0.8860961 -0.3312652
vn -0.2835496 -0.6400557 -0.7140927
vn -0.2835497 -0.6400557 -0.7140927
vn -0.2835496 -0.6400557 -0.7140927
vn -0.2835497 -0.6400557 -0.7140927
vn -0.6937642 -0.6391843 -0.3318654
vn -0.6937642 -0.6391844 -0.3318654
vn -0.6937642 -0.6391843 -0.3318654
vn -0.6937642 -0.6391843 -0.3318654
vn -0.673567 -0.5961947 0.4368746
vn -0.673567 -0.5961946 0.4368746
vn -0.673567 -0.5961947 0.4368746
vn -0.6735669 -0.5961946 0.4368746
vn -0.7234186 -0.621523 0.3006237
vn -0.7234186 -0.6215229 0.3006238
vn -0.7234187 -0.621523 0.3006238
vn -0.7234187 -0.621523 0.3006238
vn 0.02877045 -0.6309733 0.7752709
vn 0.02877045 -0.6309733 0.7752709
vn 0.02877042 -0.6309733 0.7752709
vn 0.02877045 -0.6309733 0.7752709
vn 0.2856268 -0.6400981 0.7132263
vn 0.2856268 -0.6400981 0.7132264
vn 0.2856267 -0.6400981 0.7132263
vn 0.2856267 -0.6400981 0.7132263
vn 0.5557843 -0.6283638 0.5443002
vn 0.5557843 -0.6283638 0.5443001
vn 0.5557843 -0.6283638 0.5443001
vn 0.5557843 -0.6283638 0.5443002
vn 0.6833112 -0.602204 -0.412839
vn 0.6833112 -0.6022041 -0.412839
vn 0.6833112 -0.6022041 -0.412839
vn 0.6833112 -0.602204 -0.4128391
vn 0.3739805 -0.6137943 -0.6952662
vn 0.3739805 -0.6137943 -0.6952662
vn 0.3739805 -0.6137943 -0.6952662
vn 0.3739805 -0.6137943 -0.6952662
vn 0.6281735 -0.5488458 -0.551513
vn 0.6281735 -0.5488456 -0.551513
vn 0.6281735 -0.5488458 -0.551513
vn 0.6281734 -0.5488457 -0.551513
vn -0.3724517 4.494543E-17 -0.9280517
vn -0.3724516 4.494542E-17 -0.9280517
vn -0.3724516 4.494542E-17 -0.9280517
vn -0.3724517 4.494543E-17 -0.9280517
vn -0.8982697 1.404748E-16 -0.4394446
vn -0.8982697 1.404748E-16 -0.4394446
vn -0.8982697 1.404748E-16 -0.4394446
vn -0.8982697 1.404748E-16 -0.4394446
vn -0.8682387 1.522001E-16 0.4961466
vn -0.8682387 1.522001E-16 0.4961466
vn -0.8682387 1.522001E-16 0.4961466
vn -0.8682387 1.522001E-16 0.4961466
vn -0.9327199 1.604293E-16 0.3606016
vn -0.9327199 1.604293E-16 0.3606016
vn -0.9327199 1.604293E-16 0.3606016
vn -0.9327199 1.604293E-16 0.3606016
vn 0.07404849 5.5572E-18 0.9972546
vn 0.07404849 5.5572E-18 0.9972546
vn 0.07404858 5.557187E-18 0.9972546
vn 0.07404849 5.5572E-18 0.9972546
vn 0.3761172 -4.557703E-17 0.926572
vn 0.3761172 -4.557703E-17 0.926572
vn 0.3761172 -4.557703E-17 0.926572
vn 0.3761172 -4.557703E-17 0.926572
vn 0.7319498 -1.087003E-16 0.6813585
vn 0.7319498 -1.087003E-16 0.6813585
vn 0.7319498 -1.087003E-16 0.6813585
vn 0.7319498 -1.087003E-16 0.6813585
vn 0.8815511 -1.53969E-16 -0.4720886
vn 0.8815511 -1.53969E-16 -0.4720886
vn 0.8815511 -1.53969E-16 -0.4720886
vn 0.8815511 -1.53969E-16 -0.4720886
vn 0.5719498 -1.090607E-16 -0.8202887
vn 0.5719498 -1.090607E-16 -0.8202887
vn 0.5719498 -1.090607E-16 -0.8202887
vn 0.5719498 -1.090607E-16 -0.8202887
vn 0.6677171 -1.235196E-16 -0.7444151
vn 0.667717 -1.235196E-16 -0.7444152
vn 0.6677171 -1.235196E-16 -0.7444151
vn 0.6677171 -1.235196E-16 -0.7444151
vn -0.3640364 0.1800349 -0.9138189
vn -0.3640363 0.1800349 -0.9138189
vn -0.3640363 0.1800349 -0.9138189
vn -0.3640363 0.1800349 -0.9138189
vn -0.8849792 0.1873101 -0.4262942
vn -0.8849792 0.1873101 -0.4262942
vn -0.8849792 0.1873101 -0.4262942
vn -0.8849792 0.1873101 -0.4262942
vn -0.8275625 0.2197906 0.5165582
vn -0.8275625 0.2197906 0.5165582
vn -0.8275625 0.2197906 0.5165582
vn -0.8275625 0.2197905 0.5165582
vn -0.9220315 0.2161018 0.3211821
vn -0.9220315 0.2161018 0.3211821
vn -0.9220315 0.2161018 0.3211821
vn -0.9220315 0.2161018 0.3211822
vn 0.1026028 0.206724 0.9730046
vn 0.1026028 0.2067241 0.9730045
vn 0.1026028 0.206724 0.9730046
vn 0.1026028 0.206724 0.9730046
vn 0.3622158 0.24008 0.900645
vn 0.3622157 0.24008 0.900645
vn 0.3622158 0.24008 0.900645
vn 0.3622158 0.24008 0.900645
vn 0.7044879 0.2055195 0.6793075
vn 0.7044879 0.2055195 0.6793075
vn 0.7044879 0.2055195 0.6793075
vn 0.7044879 0.2055195 0.6793075
vn 0.852505 0.1631281 -0.4966131
vn 0.852505 0.1631281 -0.4966131
vn 0.852505 0.1631281 -0.4966131
vn 0.852505 0.1631281 -0.4966131
vn 0.5506024 0.2010116 -0.8102045
vn 0.5506024 0.2010115 -0.8102045
vn 0.5506024 0.2010115 -0.8102045
vn 0.5506024 0.2010115 -0.8102045
vn 0.6839476 0.1505436 -0.7138293
vn 0.6839476 0.1505436 -0.7138293
vn 0.6839476 0.1505436 -0.7138293
vn 0.6839476 0.1505436 -0.7138293
vn -0.2227762 0.7891595 -0.5723618
vn -0.2227762 0.7891595 -0.5723618
vn -0.2227762 0.7891595 -0.5723618
vn -0.2227762 0.7891595 -0.5723618
vn -0.5106645 0.8519384 -0.1158556
vn -0.5106646 0.8519385 -0.1158556
vn -0.5106645 0.8519384 -0.1158556
vn -0.5106645 0.8519384 -0.1158556
vn -0.4938127 0.8283319 0.2646041
vn -0.4938127 0.8283319 0.2646041
vn -0.4938127 0.8283319 0.2646041
vn -0.4938127 0.8283319 0.2646041
vn -0.6217154 0.7517992 0.2197001
vn -0.6217153 0.7517992 0.2197001
vn -0.6217153 0.7517992 0.2197001
vn -0.6217153 0.7517992 0.2197001
vn 0.04819812 0.7676094 0.6391031
vn 0.04819816 0.7676094 0.6391031
vn 0.04819813 0.7676094 0.6391032
vn 0.04819812 0.7676094 0.6391031
vn 0.2305314 0.7719753 0.5923761
vn 0.2305314 0.7719753 0.5923761
vn 0.2305314 0.7719752 0.5923761
vn 0.2305314 0.7719753 0.5923761
vn 0.4370631 0.7661014 0.4712372
vn 0.4370631 0.7661014 0.4712372
vn 0.4370631 0.7661014 0.4712372
vn 0.4370631 0.7661014 0.4712372
vn 0.5358026 0.7418409 -0.4032217
vn 0.5358026 0.7418409 -0.4032217
vn 0.5358026 0.7418408 -0.4032217
vn 0.5358026 0.7418409 -0.4032217
vn 0.2566732 0.744452 -0.6163685
vn 0.2566731 0.7444521 -0.6163684
vn 0.2566732 0.7444521 -0.6163684
vn 0.2566732 0.744452 -0.6163685
vn 0.615031 0.6708225 -0.4144081
vn 0.6150309 0.6708226 -0.4144081
vn 0.615031 0.6708225 -0.4144081
vn 0.615031 0.6708225 -0.4144081
vn -0.1237422 0.9375964 -0.3249629
vn -0.1237422 0.9375964 -0.3249628
vn -0.1237422 0.9375964 -0.3249629
vn -0.4530268 0.8896015 0.05810223
vn -0.4530269 0.8896015 0.05810221
vn -0.4530268 0.8896015 0.05810219
vn -0.4614451 0.8788401 0.1212778
vn -0.4614451 0.8788401 0.1212778
vn -0.4614451 0.8788401 0.1212778
vn -0.4370385 0.878563 0.1926769
vn -0.4370385 0.878563 0.1926769
vn -0.4370385 0.878563 0.1926769
vn -0.02637124 0.8977368 0.4397421
vn -0.02637121 0.8977368 0.4397421
vn -0.02637124 0.8977368 0.4397421
vn 0.1568784 0.8945508 0.4185309
vn 0.1568784 0.8945508 0.4185309
vn 0.1568784 0.8945508 0.4185309
vn 0.2687266 0.9075938 0.3225825
vn 0.2687266 0.9075938 0.3225825
vn 0.2687266 0.9075938 0.3225824
vn 0.3289886 0.8907425 -0.3135992
vn 0.3289886 0.8907424 -0.3135993
vn 0.3289886 0.8907424 -0.3135993
vn 0.1353406 0.7773978 -0.6142765
vn 0.1353406 0.7773979 -0.6142764
vn 0.1353406 0.7773979 -0.6142764
vn 0.6354345 0.7217778 -0.2743351
vn 0.6354346 0.7217778 -0.2743351
vn 0.6354346 0.7217778 -0.2743351

vt 0.5482839 0.007647395
vt 0.5 0.15
vt 0.6264089 0.06440853
vt 0.4517161 0.00764741
vt 0.3735911 0.06440856
vt 0.34375 0.15625
vt 0.3735911 0.2480915
vt 0.4517161 0.3048526
vt 0.5482839 0.3048526
vt 0.6264089 0.2480914
vt 0.65625 0.15625
vt 0 0
vt 0 1
vt 1 1
vt 1 0
vt 0 0
vt 0 1
vt 1 1
vt 1 0
vt 0 0
vt 0 1
vt 1 1
vt 1 0
vt 0 0
vt 0 1
vt 1 1
vt 1 0
vt 0 0
vt 0 1
vt 1 1
vt 1 0
vt 0 0
vt 0 1
vt 1 1
vt 1 0
vt 0 0
vt 0 1
vt 1 1
vt 1 0
vt 0 0
vt 0 1
vt 1 1
vt 1 0
vt 0 0
vt 0 1
vt 1 1
vt 1 0
vt 0 0
vt 0 1
vt 1 1
vt 1 0
vt 0 0
vt 0 1
vt 1 1
vt 1 0
vt 0 0
vt 0 1
vt 1 1
vt 1 0
vt 0 0
vt 0 1
vt 1 1
vt 1 0
vt 0 0
vt 0 1
vt 1 1
vt 1 0
vt 0 0
vt 0 1
vt 1 1
vt 1 0
vt 0 0
vt 0 1
vt 1 1
vt 1 0
vt 0 0
vt 0 1
vt 1 1
vt 1 0
vt 0 0
vt 0 1
vt 1 1
vt 1 0
vt 0 0
vt 0 1
vt 1 1
vt 1 0
vt 0 0
vt 0 1
vt 1 1
vt 1 0
vt 0 0
vt 0 1
vt 1 1
vt 1 0
vt 0 0
vt 0 1
vt 1 1
vt 1 0
vt 0 0
vt 0 1
vt 1 1
vt 1 0
vt 0 0
vt 0 1
vt 1 1
vt 1 0
vt 0 0
vt 0 1
vt 1 1
vt 1 0
vt 0 0
vt 0 1
vt 1 1
vt 1 0
vt 0 0
vt 0 1
vt 1 1
vt 1 0
vt 0 0
vt 0 1
vt 1 1
vt 1 0
vt 0 0
vt 0 1
vt 1 1
vt 1 0
vt 0 0
vt 0 1
vt 1 1
vt 1 0
vt 0 0
vt 0 1
vt 1 1
vt 1 0
vt 0 0
vt 0 1
vt 1 1
vt 1 0
vt 0 0
vt 0 1
vt 1 1
vt 1 0
vt 0 0
vt 0 1
vt 1 1
vt 1 0
vt 0 0
vt 0 1
vt 1 1
vt 1 0
vt 0 0
vt 0 1
vt 1 1
vt 1 0
vt 0 0
vt 0 1
vt 1 1
vt 1 0
vt 0 0
vt 0 1
vt 1 1
vt 1 0
vt 0 0
vt 0 1
vt 1 1
vt 1 0
vt 0 0
vt 0 1
vt 1 1
vt 1 0
vt 0 0
vt 0.5 1
vt 1 0
vt 0 0
vt 0.5 1
vt 1 0
vt 0 0
vt 0.5 1
vt 1 0
vt 0 0
vt 0.5 1
vt 1 0
vt 0 0
vt 0.5 1
vt 1 0
vt 0 0
vt 0.5 1
vt 1 0
vt 0 0
vt 0.5 1
vt 1 0
vt 0 0
vt 0.5 1
vt 1 0
vt 0 0
vt 0.5 1
vt 1 0
vt 0 0
vt 0.5 1
vt 1 0

g pCylinder17_9_3896_75
usemtl pCylinder17_9_3896_75
usemap pCylinder17_9_3896_75
f 1/1/1 3/3/3 2/2/2
f 4/4/4 1/1/1 2/2/2
f 5/5/5 4/4/4 2/2/2
f 6/6/6 5/5/5 2/2/2
f 7/7/7 6/6/6 2/2/2
f 8/8/8 7/7/7 2/2/2
f 9/9/9 8/8/8 2/2/2
f 10/10/10 9/9/9 2/2/2
f 11/11/11 10/10/10 2/2/2
f 3/3/3 11/11/11 2/2/2
f 12/12/12 14/14/14 13/13/13
f 12/12/12 15/15/15 14/14/14
f 16/16/16 18/18/18 17/17/17
f 16/16/16 19/19/19 18/18/18
f 20/20/20 22/22/22 21/21/21
f 20/20/20 23/23/23 22/22/22
f 24/24/24 26/26/26 25/25/25
f 24/24/24 27/27/27 26/26/26
f 28/28/28 30/30/30 29/29/29
f 28/28/28 31/31/31 30/30/30
f 32/32/32 34/34/34 33/33/33
f 32/32/32 35/35/35 34/34/34
f 36/36/36 38/38/38 37/37/37
f 36/36/36 39/39/39 38/38/38
f 40/40/40 42/42/42 41/41/41
f 40/40/40 43/43/43 42/42/42
f 44/44/44 46/46/46 45/45/45
f 44/44/44 47/47/47 46/46/46
f 48/48/48 50/50/50 49/49/49
f 48/48/48 51/51/51 50/50/50
f 52/52/52 54/54/54 53/53/53
f 52/52/52 55/55/55 54/54/54
f 56/56/56 58/58/58 57/57/57
f 56/56/56 59/59/59 58/58/58
f 60/60/60 62/62/62 61/61/61
f 60/60/60 63/63/63 62/62/62
f 64/64/64 66/66/66 65/65/65
f 64/64/64 67/67/67 66/66/66
f 68/68/68 70/70/70 69/69/69
f 68/68/68 71/71/71 70/70/70
f 72/72/72 74/74/74 73/73/73
f 72/72/72 75/75/75 74/74/74
f 76/76/76 78/78/78 77/77/77
f 76/76/76 79/79/79 78/78/78
f 80/80/80 82/82/82 81/81/81
f 80/80/80 83/83/83 82/82/82
f 84/84/84 86/86/86 85/85/85
f 84/84/84 87/87/87 86/86/86
f 88/88/88 90/90/90 89/89/89
f 88/88/88 91/91/91 90/90/90
f 92/92/92 94/94/94 93/93/93
f 92/92/92 95/95/95 94/94/94
f 96/96/96 98/98/98 97/97/97
f 96/96/96 99/99/99 98/98/98
f 100/100/100 102/102/102 101/101/101
f 100/100/100 103/103/103 102/102/102
f 104/104/104 106/106/106 105/105/105
f 104/104/104 107/107/107 106/106/106
f 108/108/108 110/110/110 109/109/109
f 108/108/108 111/111/111 110/110/110
f 112/112/112 114/114/114 113/113/113
f 112/112/112 115/115/115 114/114/114
f 116/116/116 118/118/118 117/117/117
f 116/116/116 119/119/119 118/118/118
f 120/120/120 122/122/122 121/121/121
f 120/120/120 123/123/123 122/122/122
f 124/124/124 126/126/126 125/125/125
f 124/124/124 127/127/127 126/126/126
f 128/128/128 130/130/130 129/129/129
f 128/128/128 131/131/131 130/130/130
f 132/132/132 134/134/134 133/133/133
f 132/132/132 135/135/135 134/134/134
f 136/136/136 138/138/138 137/137/137
f 136/136/136 139/139/139 138/138/138
f 140/140/140 142/142/142 141/141/141
f 140/140/140 143/143/143 142/142/142
f 144/144/144 146/146/146 145/145/145
f 144/144/144 147/147/147 146/146/146
f 148/148/148 150/150/150 149/149/149
f 148/148/148 151/151/151 150/150/150
f 152/152/152 154/154/154 153/153/153
f 152/152/152 155/155/155 154/154/154
f 156/156/156 158/158/158 157/157/157
f 156/156/156 159/159/159 158/158/158
f 160/160/160 162/162/162 161/161/161
f 160/160/160 163/163/163 162/162/162
f 164/164/164 166/166/166 165/165/165
f 164/164/164 167/167/167 166/166/166
f 168/168/168 170/170/170 169/169/169
f 168/168/168 171/171/171 170/170/170
f 172/172/172 174/174/174 173/173/173
f 175/175/175 177/177/177 176/176/176
f 178/178/178 180/180/180 179/179/179
f 181/181/181 183/183/183 182/182/182
f 184/184/184 186/186/186 185/185/185
f 187/187/187 189/189/189 188/188/188
f 190/190/190 192/192/192 191/191/191
f 193/193/193 195/195/195 194/194/194
f 196/196/196 198/198/198 197/197/197
f 199/199/199 201/201/201 200/200/200
