#pCylinder9_22_4156_182.obj

v 0.01453948 -0.02577575 -0.04035682
v 0.004618484 -0.03397594 0.001092628
v 0.03877931 -0.02577575 -0.02105357
v -0.009668665 -0.02577575 -0.03817454
v -0.01825631 -0.02577575 -0.01777942
v -0.03822736 -0.02223234 0.001092549
v -0.02135595 -0.02577575 0.01996441
v -0.00530272 -0.02577575 0.03271925
v 0.02108866 -0.02577575 0.04035927
v 0.03059308 -0.02577575 0.01996432
v 0.03218364 -0.02223234 0.001092986
v 0.03877931 -0.02577575 -0.02105357
v 0.04796093 -0.01489243 -0.02772508
v 0.01804747 -0.01489243 -0.05115138
v 0.01453948 -0.02577575 -0.04035682
v 0.01453948 -0.02577575 -0.04035682
v 0.01804747 -0.01489243 -0.05115138
v -0.01317625 -0.01489243 -0.04896865
v -0.009668665 -0.02577575 -0.03817454
v -0.009668665 -0.02577575 -0.03817454
v -0.01317625 -0.01489243 -0.04896865
v -0.02743833 -0.01489243 -0.02445097
v -0.01825631 -0.02577575 -0.01777942
v -0.01825631 -0.02577575 -0.01777942
v -0.02743833 -0.01489243 -0.02445097
v -0.04797226 -0.0128882 0.001092793
v -0.03822736 -0.02223234 0.001092549
v -0.03822736 -0.02223234 0.001092549
v -0.04797226 -0.0128882 0.001092793
v -0.03053895 -0.01489243 0.02663559
v -0.02135595 -0.02577575 0.01996441
v -0.02135595 -0.02577575 0.01996441
v -0.03053895 -0.01489243 0.02663559
v -0.008810714 -0.01489243 0.04351382
v -0.00530272 -0.02577575 0.03271925
v -0.00530272 -0.02577575 0.03271925
v -0.008810714 -0.01489243 0.04351382
v 0.02459639 -0.01489243 0.051154
v 0.02108866 -0.02577575 0.04035927
v 0.02108866 -0.02577575 0.04035927
v 0.02459639 -0.01489243 0.051154
v 0.0397751 -0.01489243 0.02663587
v 0.03059308 -0.02577575 0.01996432
v 0.03059308 -0.02577575 0.01996432
v 0.0397751 -0.01489243 0.02663587
v 0.04192854 -0.0128882 0.001092741
v 0.03218364 -0.02223234 0.001092986
v 0.03218364 -0.02223234 0.001092986
v 0.04192854 -0.0128882 0.001092741
v 0.04796093 -0.01489243 -0.02772508
v 0.03877931 -0.02577575 -0.02105357
v 0.04796093 -0.01489243 -0.02772508
v 0.04796093 -0.0001482213 -0.02772508
v 0.01804747 -0.0001482213 -0.05115138
v 0.01804747 -0.01489243 -0.05115138
v 0.01804747 -0.01489243 -0.05115138
v 0.01804747 -0.0001482213 -0.05115138
v -0.01317625 -0.0001482213 -0.04896865
v -0.01317625 -0.01489243 -0.04896865
v -0.01317625 -0.01489243 -0.04896865
v -0.01317625 -0.0001482213 -0.04896865
v -0.02743833 -0.0001482213 -0.02445097
v -0.02743833 -0.01489243 -0.02445097
v -0.02743833 -0.01489243 -0.02445097
v -0.02743833 -0.0001482213 -0.02445097
v -0.04797226 -0.0002294996 0.001092793
v -0.04797226 -0.0128882 0.001092793
v -0.04797226 -0.0128882 0.001092793
v -0.04797226 -0.0002294996 0.001092793
v -0.03053895 -0.0001482213 0.02663559
v -0.03053895 -0.01489243 0.02663559
v -0.03053895 -0.01489243 0.02663559
v -0.03053895 -0.0001482213 0.02663559
v -0.008810714 -0.0001482213 0.04351382
v -0.008810714 -0.01489243 0.04351382
v -0.008810714 -0.01489243 0.04351382
v -0.008810714 -0.0001482213 0.04351382
v 0.02459639 -0.0001482213 0.051154
v 0.02459639 -0.01489243 0.051154
v 0.02459639 -0.01489243 0.051154
v 0.02459639 -0.0001482213 0.051154
v 0.0397751 -0.0001482213 0.02663587
v 0.0397751 -0.01489243 0.02663587
v 0.0397751 -0.01489243 0.02663587
v 0.0397751 -0.0001482213 0.02663587
v 0.04192854 -0.0002294996 0.001092741
v 0.04192854 -0.0128882 0.001092741
v 0.04192854 -0.0128882 0.001092741
v 0.04192854 -0.0002294996 0.001092741
v 0.04796093 -0.0001482213 -0.02772508
v 0.04796093 -0.01489243 -0.02772508
v 0.04796093 -0.0001482213 -0.02772508
v 0.04568309 0.0142833 -0.02539538
v 0.0171396 0.0142833 -0.04799023
v 0.01804747 -0.0001482213 -0.05115138
v 0.01804747 -0.0001482213 -0.05115138
v 0.0171396 0.0142833 -0.04799023
v -0.0118344 0.0142833 -0.04559647
v -0.01317625 -0.0001482213 -0.04896865
v -0.01317625 -0.0001482213 -0.04896865
v -0.0118344 0.0142833 -0.04559647
v -0.02321556 0.0142833 -0.02180501
v -0.02743833 -0.0001482213 -0.02445097
v -0.02743833 -0.0001482213 -0.02445097
v -0.02321556 0.0142833 -0.02180501
v -0.04531001 0.01197213 0.001197798
v -0.04797226 -0.0002294996 0.001092793
v -0.04797226 -0.0002294996 0.001092793
v -0.04531001 0.01197213 0.001197798
v -0.02661469 0.0142833 0.02420087
v -0.03053895 -0.0001482213 0.02663559
v -0.03053895 -0.0001482213 0.02663559
v -0.02661469 0.0142833 0.02420087
v -0.007046751 0.0142833 0.0396147
v -0.008810714 -0.0001482213 0.04351382
v -0.008810714 -0.0001482213 0.04351382
v -0.007046751 0.0142833 0.0396147
v 0.02432029 0.0142833 0.04799256
v 0.02459639 -0.0001482213 0.051154
v 0.02459639 -0.0001482213 0.051154
v 0.02432029 0.0142833 0.04799256
v 0.0367073 0.0142833 0.02420132
v 0.0397751 -0.0001482213 0.02663587
v 0.0397751 -0.0001482213 0.02663587
v 0.0367073 0.0142833 0.02420132
v 0.03864646 0.01197213 0.001198103
v 0.04192854 -0.0002294996 0.001092741
v 0.04192854 -0.0002294996 0.001092741
v 0.03864646 0.01197213 0.001198103
v 0.04568309 0.0142833 -0.02539538
v 0.04796093 -0.0001482213 -0.02772508
v 0.04568309 0.0142833 -0.02539538
v 0.03224658 0.02437424 -0.01614669
v 0.01203098 0.02437424 -0.03256747
v 0.0171396 0.0142833 -0.04799023
v 0.0171396 0.0142833 -0.04799023
v 0.01203098 0.02437424 -0.03256747
v -0.002598128 0.02437424 -0.02139255
v -0.0118344 0.0142833 -0.04559647
v -0.0118344 0.0142833 -0.04559647
v -0.002598128 0.02437424 -0.02139255
v -0.01125909 0.02437424 -0.01279372
v -0.02321556 0.0142833 -0.02180501
v -0.02321556 0.0142833 -0.02180501
v -0.01125909 0.02437424 -0.01279372
v -0.03125005 0.02074636 0.001118768
v -0.04531001 0.01197213 0.001197798
v -0.04531001 0.01197213 0.001197798
v -0.03125005 0.02074636 0.001118768
v -0.01443256 0.02437424 0.01503129
v -0.02661469 0.0142833 0.02420087
v -0.02661469 0.0142833 0.02420087
v -0.01443256 0.02437424 0.01503129
v -0.002597392 0.02437424 0.02474748
v -0.007046751 0.0142833 0.0396147
v -0.007046751 0.0142833 0.0396147
v -0.002597392 0.02437424 0.02474748
v 0.01873585 0.02437424 0.03257004
v 0.02432029 0.0142833 0.04799256
v 0.02432029 0.0142833 0.04799256
v 0.01873585 0.02437424 0.03257004
v 0.02386618 0.02437424 0.01503105
v 0.0367073 0.0142833 0.02420132
v 0.0367073 0.0142833 0.02420132
v 0.02386618 0.02437424 0.01503105
v 0.02503905 0.02074636 0.001118485
v 0.03864646 0.01197213 0.001198103
v 0.03864646 0.01197213 0.001198103
v 0.02503905 0.02074636 0.001118485
v 0.03224658 0.02437424 -0.01614669
v 0.04568309 0.0142833 -0.02539538
v 0.03224658 0.02437424 -0.01614669
v 0.004618484 0.03397592 0.001092628
v 0.01203098 0.02437424 -0.03256747
v 0.01203098 0.02437424 -0.03256747
v 0.004618484 0.03397592 0.001092628
v -0.002598128 0.02437424 -0.02139255
v -0.002598128 0.02437424 -0.02139255
v 0.004618484 0.03397592 0.001092628
v -0.01125909 0.02437424 -0.01279372
v -0.01125909 0.02437424 -0.01279372
v 0.004618484 0.03397592 0.001092628
v -0.03125005 0.02074636 0.001118768
v -0.03125005 0.02074636 0.001118768
v 0.004618484 0.03397592 0.001092628
v -0.01443256 0.02437424 0.01503129
v -0.01443256 0.02437424 0.01503129
v 0.004618484 0.03397592 0.001092628
v -0.002597392 0.02437424 0.02474748
v -0.002597392 0.02437424 0.02474748
v 0.004618484 0.03397592 0.001092628
v 0.01873585 0.02437424 0.03257004
v 0.01873585 0.02437424 0.03257004
v 0.004618484 0.03397592 0.001092628
v 0.02386618 0.02437424 0.01503105
v 0.02386618 0.02437424 0.01503105
v 0.004618484 0.03397592 0.001092628
v 0.02503905 0.02074636 0.001118485
v 0.02503905 0.02074636 0.001118485
v 0.004618484 0.03397592 0.001092628
v 0.03224658 0.02437424 -0.01614669

vn 0.09944099 -0.9818565 -0.161457
vn 0.00163054 -0.9999982 0.0003683278
vn 0.2064112 -0.9784297 -0.008302819
vn -0.04189187 -0.9810984 -0.1889181
vn -0.229387 -0.9602382 -0.1591332
vn -0.2532109 -0.9642731 -0.07785052
vn -0.2447753 -0.9679796 0.05567504
vn -0.1474293 -0.970319 0.191689
vn 0.01586325 -0.9818347 0.1890719
vn 0.270228 -0.9585599 0.09021521
vn 0.3569277 -0.9154217 0.186024
vn 0.5557847 -0.703926 -0.4422569
vn 0.5557847 -0.703926 -0.4422569
vn 0.5557847 -0.703926 -0.4422568
vn 0.5557847 -0.703926 -0.4422569
vn 0.1076911 -0.7031067 -0.7028819
vn 0.1076911 -0.7031068 -0.7028819
vn 0.1076911 -0.7031067 -0.7028819
vn 0.1076911 -0.7031068 -0.7028819
vn -0.5725837 -0.6620906 -0.4835116
vn -0.5725838 -0.6620905 -0.4835116
vn -0.5725837 -0.6620906 -0.4835116
vn -0.5725838 -0.6620905 -0.4835116
vn -0.4617825 -0.6863981 -0.5617954
vn -0.4617826 -0.6863981 -0.5617954
vn -0.4617826 -0.6863981 -0.5617954
vn -0.4617826 -0.6863981 -0.5617954
vn -0.6795906 -0.6953633 0.2337215
vn -0.6795906 -0.6953633 0.2337215
vn -0.6795907 -0.6953633 0.2337215
vn -0.6795907 -0.6953633 0.2337215
vn -0.5544561 -0.7039658 0.4438581
vn -0.5544561 -0.7039658 0.443858
vn -0.5544561 -0.7039658 0.443858
vn -0.554456 -0.7039658 0.443858
vn -0.3334781 -0.6928934 0.639289
vn -0.3334781 -0.6928935 0.639289
vn -0.3334781 -0.6928935 0.6392891
vn -0.3334781 -0.6928934 0.639289
vn 0.553028 -0.6678944 0.498073
vn 0.5530279 -0.6678944 0.498073
vn 0.5530279 -0.6678944 0.498073
vn 0.553028 -0.6678944 0.4980731
vn 0.7195768 -0.6790238 0.1453799
vn 0.7195768 -0.6790239 0.1453799
vn 0.7195768 -0.6790238 0.1453799
vn 0.7195768 -0.6790238 0.1453799
vn 0.6693123 -0.6155775 0.4160348
vn 0.6693124 -0.6155774 0.4160348
vn 0.6693123 -0.6155775 0.4160348
vn 0.6693123 -0.6155775 0.4160348
vn 0.7802068 6.544714E-17 -0.6255215
vn 0.7802069 6.544713E-17 -0.6255215
vn 0.7802069 6.544713E-17 -0.6255215
vn 0.7802068 6.544714E-17 -0.6255215
vn 0.1601373 2.243628E-16 -0.9870947
vn 0.1601373 2.243628E-16 -0.9870947
vn 0.1601373 2.243628E-16 -0.9870947
vn 0.1601373 2.243628E-16 -0.9870947
vn -0.7265623 2.509163E-16 -0.6871005
vn -0.7265623 2.509163E-16 -0.6871005
vn -0.7265623 2.509163E-16 -0.6871005
vn -0.7265623 2.509163E-16 -0.6871005
vn -0.6155339 2.63176E-16 -0.7881103
vn -0.615534 2.63176E-16 -0.7881103
vn -0.6155339 2.63176E-16 -0.7881103
vn -0.6155339 2.63176E-16 -0.7881103
vn -0.9329526 1.704312E-17 0.3599991
vn -0.9329526 1.704312E-17 0.3599991
vn -0.9329526 1.70431E-17 0.3599992
vn -0.9329526 1.704312E-17 0.3599991
vn -0.7777281 -6.648374E-17 0.6286008
vn -0.7777281 -6.648374E-17 0.6286008
vn -0.7777281 -6.648374E-17 0.6286008
vn -0.7777281 -6.648374E-17 0.6286008
vn -0.4398812 -1.70866E-16 0.8980559
vn -0.4398812 -1.70866E-16 0.8980559
vn -0.4398812 -1.70866E-16 0.8980559
vn -0.4398812 -1.70866E-16 0.8980559
vn 0.7073973 -2.535926E-16 0.7068162
vn 0.7073973 -2.535926E-16 0.7068162
vn 0.7073973 -2.535926E-16 0.7068162
vn 0.7073973 -2.535926E-16 0.7068162
vn 0.9508799 -1.835381E-16 0.30956
vn 0.9508799 -1.835381E-16 0.30956
vn 0.9508799 -1.835381E-16 0.30956
vn 0.9508799 -1.835381E-16 0.30956
vn 0.9060308 -2.063848E-16 0.4232117
vn 0.9060308 -2.063848E-16 0.4232117
vn 0.9060308 -2.063848E-16 0.4232117
vn 0.9060308 -2.063848E-16 0.4232117
vn 0.7639005 0.212757 -0.609254
vn 0.7639005 0.212757 -0.609254
vn 0.7639005 0.212757 -0.609254
vn 0.7639005 0.212757 -0.609254
vn 0.1503137 0.2212333 -0.963567
vn 0.1503137 0.2212333 -0.963567
vn 0.1503137 0.2212333 -0.963567
vn 0.1503137 0.2212333 -0.963567
vn -0.7270464 0.2588965 -0.6359056
vn -0.7270464 0.2588965 -0.6359056
vn -0.7270464 0.2588965 -0.6359056
vn -0.7270464 0.2588965 -0.6359056
vn -0.5692149 0.2546348 -0.7817643
vn -0.5692148 0.2546348 -0.7817643
vn -0.5692149 0.2546347 -0.7817643
vn -0.5692149 0.2546348 -0.7817643
vn -0.8935701 0.2437819 0.3769654
vn -0.8935701 0.2437819 0.3769654
vn -0.8935701 0.2437819 0.3769654
vn -0.8935701 0.2437819 0.3769654
vn -0.7480438 0.2822602 0.6006325
vn -0.7480439 0.2822602 0.6006324
vn -0.7480439 0.2822602 0.6006324
vn -0.7480439 0.2822602 0.6006324
vn -0.4420198 0.2423859 0.8636361
vn -0.4420198 0.2423859 0.8636361
vn -0.4420198 0.2423859 0.8636361
vn -0.4420198 0.2423859 0.8636361
vn 0.7184874 0.1930068 0.6682246
vn 0.7184874 0.1930068 0.6682246
vn 0.7184874 0.1930069 0.6682246
vn 0.7184874 0.1930069 0.6682246
vn 0.927291 0.2371581 0.2896329
vn 0.9272911 0.2371581 0.2896329
vn 0.9272911 0.2371581 0.2896329
vn 0.9272911 0.237158 0.2896329
vn 0.8773447 0.178262 0.4455208
vn 0.8773447 0.178262 0.4455208
vn 0.8773447 0.178262 0.4455208
vn 0.8773447 0.178262 0.4455208
vn 0.4306874 0.8368363 -0.3379534
vn 0.4306874 0.8368363 -0.3379534
vn 0.4306874 0.8368363 -0.3379534
vn 0.4306874 0.8368363 -0.3379534
vn -0.03258721 0.8884321 -0.4578489
vn -0.03258721 0.8884321 -0.4578489
vn -0.03258721 0.8884321 -0.4578489
vn -0.03258718 0.8884321 -0.4578489
vn -0.3496991 0.8693342 -0.3492389
vn -0.3496991 0.8693342 -0.3492389
vn -0.3496991 0.8693342 -0.3492389
vn -0.3496991 0.8693342 -0.3492389
vn -0.3514377 0.8049012 -0.4781474
vn -0.3514377 0.8049012 -0.4781474
vn -0.3514377 0.8049012 -0.4781474
vn -0.3514377 0.8049012 -0.4781474
vn -0.5357105 0.8185277 0.207427
vn -0.5357104 0.8185278 0.207427
vn -0.5357105 0.8185277 0.2074271
vn -0.5357105 0.8185277 0.207427
vn -0.4477428 0.8222617 0.3512996
vn -0.4477428 0.8222616 0.3512996
vn -0.4477428 0.8222616 0.3512997
vn -0.4477428 0.8222616 0.3512996
vn -0.2907708 0.8172351 0.4975725
vn -0.2907708 0.8172351 0.4975725
vn -0.2907708 0.8172351 0.4975725
vn -0.2907708 0.8172351 0.4975725
vn 0.4883082 0.796234 0.3571637
vn 0.4883082 0.796234 0.3571637
vn 0.4883082 0.796234 0.3571637
vn 0.4883082 0.796234 0.3571637
vn 0.5989434 0.7985129 0.06035934
vn 0.5989433 0.7985129 0.06035931
vn 0.5989434 0.7985129 0.06035932
vn 0.5989434 0.7985129 0.06035936
vn 0.5277173 0.7325383 0.4300019
vn 0.5277173 0.7325383 0.4300018
vn 0.5277173 0.7325383 0.4300019
vn 0.5277173 0.7325383 0.4300019
vn 0.235478 0.9546865 -0.1819972
vn 0.235478 0.9546865 -0.1819972
vn 0.235478 0.9546865 -0.1819972
vn -0.1621867 0.9181486 -0.3615217
vn -0.1621867 0.9181486 -0.3615217
vn -0.1621866 0.9181486 -0.3615217
vn -0.2174046 0.909752 -0.3536747
vn -0.2174046 0.909752 -0.3536747
vn -0.2174046 0.909752 -0.3536747
vn -0.270726 0.9095348 -0.315362
vn -0.2707261 0.9095348 -0.3153621
vn -0.2707261 0.9095348 -0.3153621
vn -0.3708967 0.9244464 0.08850839
vn -0.3708966 0.9244464 0.0885084
vn -0.3708967 0.9244464 0.08850839
vn -0.3076121 0.921985 0.235197
vn -0.3076121 0.9219851 0.2351969
vn -0.3076121 0.9219851 0.2351969
vn -0.1992363 0.9320197 0.3027266
vn -0.1992364 0.9320197 0.3027265
vn -0.1992363 0.9320197 0.3027265
vn 0.3430116 0.9190344 0.1942115
vn 0.3430116 0.9190344 0.1942115
vn 0.3430116 0.9190343 0.1942115
vn 0.5606964 0.8268817 -0.04342279
vn 0.5606963 0.8268817 -0.04342279
vn 0.5606963 0.8268818 -0.04342279
vn 0.4050987 0.778574 0.4792879
vn 0.4050986 0.778574 0.479288
vn 0.4050987 0.778574 0.479288

vt 0.5482839 0.007647395
vt 0.5 0.15
vt 0.6264089 0.06440853
vt 0.4517161 0.00764741
vt 0.3735911 0.06440856
vt 0.34375 0.15625
vt 0.3735911 0.2480915
vt 0.4517161 0.3048526
vt 0.5482839 0.3048526
vt 0.6264089 0.2480914
vt 0.65625 0.15625
vt 0 0
vt 0 1
vt 1 1
vt 1 0
vt 0 0
vt 0 1
vt 1 1
vt 1 0
vt 0 0
vt 0 1
vt 1 1
vt 1 0
vt 0 0
vt 0 1
vt 1 1
vt 1 0
vt 0 0
vt 0 1
vt 1 1
vt 1 0
vt 0 0
vt 0 1
vt 1 1
vt 1 0
vt 0 0
vt 0 1
vt 1 1
vt 1 0
vt 0 0
vt 0 1
vt 1 1
vt 1 0
vt 0 0
vt 0 1
vt 1 1
vt 1 0
vt 0 0
vt 0 1
vt 1 1
vt 1 0
vt 0 0
vt 0 1
vt 1 1
vt 1 0
vt 0 0
vt 0 1
vt 1 1
vt 1 0
vt 0 0
vt 0 1
vt 1 1
vt 1 0
vt 0 0
vt 0 1
vt 1 1
vt 1 0
vt 0 0
vt 0 1
vt 1 1
vt 1 0
vt 0 0
vt 0 1
vt 1 1
vt 1 0
vt 0 0
vt 0 1
vt 1 1
vt 1 0
vt 0 0
vt 0 1
vt 1 1
vt 1 0
vt 0 0
vt 0 1
vt 1 1
vt 1 0
vt 0 0
vt 0 1
vt 1 1
vt 1 0
vt 0 0
vt 0 1
vt 1 1
vt 1 0
vt 0 0
vt 0 1
vt 1 1
vt 1 0
vt 0 0
vt 0 1
vt 1 1
vt 1 0
vt 0 0
vt 0 1
vt 1 1
vt 1 0
vt 0 0
vt 0 1
vt 1 1
vt 1 0
vt 0 0
vt 0 1
vt 1 1
vt 1 0
vt 0 0
vt 0 1
vt 1 1
vt 1 0
vt 0 0
vt 0 1
vt 1 1
vt 1 0
vt 0 0
vt 0 1
vt 1 1
vt 1 0
vt 0 0
vt 0 1
vt 1 1
vt 1 0
vt 0 0
vt 0 1
vt 1 1
vt 1 0
vt 0 0
vt 0 1
vt 1 1
vt 1 0
vt 0 0
vt 0 1
vt 1 1
vt 1 0
vt 0 0
vt 0 1
vt 1 1
vt 1 0
vt 0 0
vt 0 1
vt 1 1
vt 1 0
vt 0 0
vt 0 1
vt 1 1
vt 1 0
vt 0 0
vt 0 1
vt 1 1
vt 1 0
vt 0 0
vt 0 1
vt 1 1
vt 1 0
vt 0 0
vt 0 1
vt 1 1
vt 1 0
vt 0 0
vt 0 1
vt 1 1
vt 1 0
vt 0 0
vt 0.5 1
vt 1 0
vt 0 0
vt 0.5 1
vt 1 0
vt 0 0
vt 0.5 1
vt 1 0
vt 0 0
vt 0.5 1
vt 1 0
vt 0 0
vt 0.5 1
vt 1 0
vt 0 0
vt 0.5 1
vt 1 0
vt 0 0
vt 0.5 1
vt 1 0
vt 0 0
vt 0.5 1
vt 1 0
vt 0 0
vt 0.5 1
vt 1 0
vt 0 0
vt 0.5 1
vt 1 0

g pCylinder9_22_4156_182
usemtl pCylinder9_22_4156_182
usemap pCylinder9_22_4156_182
f 1/1/1 3/3/3 2/2/2
f 4/4/4 1/1/1 2/2/2
f 5/5/5 4/4/4 2/2/2
f 6/6/6 5/5/5 2/2/2
f 7/7/7 6/6/6 2/2/2
f 8/8/8 7/7/7 2/2/2
f 9/9/9 8/8/8 2/2/2
f 10/10/10 9/9/9 2/2/2
f 11/11/11 10/10/10 2/2/2
f 3/3/3 11/11/11 2/2/2
f 12/12/12 14/14/14 13/13/13
f 12/12/12 15/15/15 14/14/14
f 16/16/16 18/18/18 17/17/17
f 16/16/16 19/19/19 18/18/18
f 20/20/20 22/22/22 21/21/21
f 20/20/20 23/23/23 22/22/22
f 24/24/24 26/26/26 25/25/25
f 24/24/24 27/27/27 26/26/26
f 28/28/28 30/30/30 29/29/29
f 28/28/28 31/31/31 30/30/30
f 32/32/32 34/34/34 33/33/33
f 32/32/32 35/35/35 34/34/34
f 36/36/36 38/38/38 37/37/37
f 36/36/36 39/39/39 38/38/38
f 40/40/40 42/42/42 41/41/41
f 40/40/40 43/43/43 42/42/42
f 44/44/44 46/46/46 45/45/45
f 44/44/44 47/47/47 46/46/46
f 48/48/48 50/50/50 49/49/49
f 48/48/48 51/51/51 50/50/50
f 52/52/52 54/54/54 53/53/53
f 52/52/52 55/55/55 54/54/54
f 56/56/56 58/58/58 57/57/57
f 56/56/56 59/59/59 58/58/58
f 60/60/60 62/62/62 61/61/61
f 60/60/60 63/63/63 62/62/62
f 64/64/64 66/66/66 65/65/65
f 64/64/64 67/67/67 66/66/66
f 68/68/68 70/70/70 69/69/69
f 68/68/68 71/71/71 70/70/70
f 72/72/72 74/74/74 73/73/73
f 72/72/72 75/75/75 74/74/74
f 76/76/76 78/78/78 77/77/77
f 76/76/76 79/79/79 78/78/78
f 80/80/80 82/82/82 81/81/81
f 80/80/80 83/83/83 82/82/82
f 84/84/84 86/86/86 85/85/85
f 84/84/84 87/87/87 86/86/86
f 88/88/88 90/90/90 89/89/89
f 88/88/88 91/91/91 90/90/90
f 92/92/92 94/94/94 93/93/93
f 92/92/92 95/95/95 94/94/94
f 96/96/96 98/98/98 97/97/97
f 96/96/96 99/99/99 98/98/98
f 100/100/100 102/102/102 101/101/101
f 100/100/100 103/103/103 102/102/102
f 104/104/104 106/106/106 105/105/105
f 104/104/104 107/107/107 106/106/106
f 108/108/108 110/110/110 109/109/109
f 108/108/108 111/111/111 110/110/110
f 112/112/112 114/114/114 113/113/113
f 112/112/112 115/115/115 114/114/114
f 116/116/116 118/118/118 117/117/117
f 116/116/116 119/119/119 118/118/118
f 120/120/120 122/122/122 121/121/121
f 120/120/120 123/123/123 122/122/122
f 124/124/124 126/126/126 125/125/125
f 124/124/124 127/127/127 126/126/126
f 128/128/128 130/130/130 129/129/129
f 128/128/128 131/131/131 130/130/130
f 132/132/132 134/134/134 133/133/133
f 132/132/132 135/135/135 134/134/134
f 136/136/136 138/138/138 137/137/137
f 136/136/136 139/139/139 138/138/138
f 140/140/140 142/142/142 141/141/141
f 140/140/140 143/143/143 142/142/142
f 144/144/144 146/146/146 145/145/145
f 144/144/144 147/147/147 146/146/146
f 148/148/148 150/150/150 149/149/149
f 148/148/148 151/151/151 150/150/150
f 152/152/152 154/154/154 153/153/153
f 152/152/152 155/155/155 154/154/154
f 156/156/156 158/158/158 157/157/157
f 156/156/156 159/159/159 158/158/158
f 160/160/160 162/162/162 161/161/161
f 160/160/160 163/163/163 162/162/162
f 164/164/164 166/166/166 165/165/165
f 164/164/164 167/167/167 166/166/166
f 168/168/168 170/170/170 169/169/169
f 168/168/168 171/171/171 170/170/170
f 172/172/172 174/174/174 173/173/173
f 175/175/175 177/177/177 176/176/176
f 178/178/178 180/180/180 179/179/179
f 181/181/181 183/183/183 182/182/182
f 184/184/184 186/186/186 185/185/185
f 187/187/187 189/189/189 188/188/188
f 190/190/190 192/192/192 191/191/191
f 193/193/193 195/195/195 194/194/194
f 196/196/196 198/198/198 197/197/197
f 199/199/199 201/201/201 200/200/200
