#pCylinder18_4182_151.obj

v 0.01454561 -0.02577548 -0.04035783
v 0.004624133 -0.03397588 0.001091863
v 0.03878483 -0.02577548 -0.0210543
v -0.009663199 -0.02577548 -0.03817495
v -0.01825053 -0.02577548 -0.01777997
v -0.03822187 -0.02223248 0.00109183
v -0.02135064 -0.02577548 0.01996361
v -0.005297272 -0.02577548 0.03271847
v 0.02109429 -0.02577548 0.04035863
v 0.03059886 -0.02577548 0.01996366
v 0.03218979 -0.02223248 0.001091862
v 0.03878483 -0.02577548 -0.0210543
v 0.04796719 -0.01489242 -0.02772571
v 0.01805289 -0.01489242 -0.0511524
v 0.01454561 -0.02577548 -0.04035783
v 0.01454561 -0.02577548 -0.04035783
v 0.01805289 -0.01489242 -0.0511524
v -0.01317044 -0.01489242 -0.04896944
v -0.009663199 -0.02577548 -0.03817495
v -0.009663199 -0.02577548 -0.03817495
v -0.01317044 -0.01489242 -0.04896944
v -0.02743291 -0.01489242 -0.02445133
v -0.01825053 -0.02577548 -0.01777997
v -0.01825053 -0.02577548 -0.01777997
v -0.02743291 -0.01489242 -0.02445133
v -0.0479666 -0.01288844 0.001091864
v -0.03822187 -0.02223248 0.00109183
v -0.03822187 -0.02223248 0.00109183
v -0.0479666 -0.01288844 0.001091864
v -0.030533 -0.01489242 0.02663502
v -0.02135064 -0.02577548 0.01996361
v -0.02135064 -0.02577548 0.01996361
v -0.030533 -0.01489242 0.02663502
v -0.008804687 -0.01489242 0.04351293
v -0.005297272 -0.02577548 0.03271847
v -0.005297272 -0.02577548 0.03271847
v -0.008804687 -0.01489242 0.04351293
v 0.0246017 -0.01489242 0.05115314
v 0.02109429 -0.02577548 0.04035863
v 0.02109429 -0.02577548 0.04035863
v 0.0246017 -0.01489242 0.05115314
v 0.03978122 -0.01489242 0.02663505
v 0.03059886 -0.02577548 0.01996366
v 0.03059886 -0.02577548 0.01996366
v 0.03978122 -0.01489242 0.02663505
v 0.04193452 -0.01288844 0.001091828
v 0.03218979 -0.02223248 0.001091862
v 0.03218979 -0.02223248 0.001091862
v 0.04193452 -0.01288844 0.001091828
v 0.04796719 -0.01489242 -0.02772571
v 0.03878483 -0.02577548 -0.0210543
v 0.04796719 -0.01489242 -0.02772571
v 0.04796719 -0.000148264 -0.02772571
v 0.01805289 -0.000148264 -0.0511524
v 0.01805289 -0.01489242 -0.0511524
v 0.01805289 -0.01489242 -0.0511524
v 0.01805289 -0.000148264 -0.0511524
v -0.01317044 -0.000148264 -0.04896944
v -0.01317044 -0.01489242 -0.04896944
v -0.01317044 -0.01489242 -0.04896944
v -0.01317044 -0.000148264 -0.04896944
v -0.02743291 -0.000148264 -0.02445133
v -0.02743291 -0.01489242 -0.02445133
v -0.02743291 -0.01489242 -0.02445133
v -0.02743291 -0.000148264 -0.02445133
v -0.0479666 -0.0002297042 0.001091864
v -0.0479666 -0.01288844 0.001091864
v -0.0479666 -0.01288844 0.001091864
v -0.0479666 -0.0002297042 0.001091864
v -0.030533 -0.000148264 0.02663502
v -0.030533 -0.01489242 0.02663502
v -0.030533 -0.01489242 0.02663502
v -0.030533 -0.000148264 0.02663502
v -0.008804687 -0.000148264 0.04351293
v -0.008804687 -0.01489242 0.04351293
v -0.008804687 -0.01489242 0.04351293
v -0.008804687 -0.000148264 0.04351293
v 0.0246017 -0.000148264 0.05115314
v 0.0246017 -0.01489242 0.05115314
v 0.0246017 -0.01489242 0.05115314
v 0.0246017 -0.000148264 0.05115314
v 0.03978122 -0.000148264 0.02663505
v 0.03978122 -0.01489242 0.02663505
v 0.03978122 -0.01489242 0.02663505
v 0.03978122 -0.000148264 0.02663505
v 0.04193452 -0.0002297042 0.001091828
v 0.04193452 -0.01288844 0.001091828
v 0.04193452 -0.01288844 0.001091828
v 0.04193452 -0.0002297042 0.001091828
v 0.04796719 -0.000148264 -0.02772571
v 0.04796719 -0.01489242 -0.02772571
v 0.04796719 -0.000148264 -0.02772571
v 0.04568926 0.01428336 -0.02539638
v 0.01714547 0.01428336 -0.04799086
v 0.01805289 -0.000148264 -0.0511524
v 0.01805289 -0.000148264 -0.0511524
v 0.01714547 0.01428336 -0.04799086
v -0.01182879 0.01428336 -0.04559724
v -0.01317044 -0.000148264 -0.04896944
v -0.01317044 -0.000148264 -0.04896944
v -0.01182879 0.01428336 -0.04559724
v -0.02321007 0.01428336 -0.02180601
v -0.02743291 -0.000148264 -0.02445133
v -0.02743291 -0.000148264 -0.02445133
v -0.02321007 0.01428336 -0.02180601
v -0.04530377 0.01197241 0.001197221
v -0.0479666 -0.0002297042 0.001091864
v -0.0479666 -0.0002297042 0.001091864
v -0.04530377 0.01197241 0.001197221
v -0.02660929 0.01428336 0.02420042
v -0.030533 -0.000148264 0.02663502
v -0.030533 -0.000148264 0.02663502
v -0.02660929 0.01428336 0.02420042
v -0.007041648 0.01428336 0.03961396
v -0.008804687 -0.000148264 0.04351293
v -0.008804687 -0.000148264 0.04351293
v -0.007041648 0.01428336 0.03961396
v 0.02432626 0.01428336 0.04799166
v 0.0246017 -0.000148264 0.05115314
v 0.0246017 -0.000148264 0.05115314
v 0.02432626 0.01428336 0.04799166
v 0.03671314 0.01428336 0.02420041
v 0.03978122 -0.000148264 0.02663505
v 0.03978122 -0.000148264 0.02663505
v 0.03671314 0.01428336 0.02420041
v 0.03865236 0.01197241 0.001197241
v 0.04193452 -0.0002297042 0.001091828
v 0.04193452 -0.0002297042 0.001091828
v 0.03865236 0.01197241 0.001197241
v 0.04568926 0.01428336 -0.02539638
v 0.04796719 -0.000148264 -0.02772571
v 0.04568926 0.01428336 -0.02539638
v 0.03225267 0.02437429 -0.0161473
v 0.01203675 0.02437429 -0.03256823
v 0.01714547 0.01428336 -0.04799086
v 0.01714547 0.01428336 -0.04799086
v 0.01203675 0.02437429 -0.03256823
v -0.002592001 0.02437429 -0.02139341
v -0.01182879 0.01428336 -0.04559724
v -0.01182879 0.01428336 -0.04559724
v -0.002592001 0.02437429 -0.02139341
v -0.01125284 0.02437429 -0.01279481
v -0.02321007 0.01428336 -0.02180601
v -0.02321007 0.01428336 -0.02180601
v -0.01125284 0.02437429 -0.01279481
v -0.03124436 0.02074637 0.001117906
v -0.04530377 0.01197241 0.001197221
v -0.04530377 0.01197241 0.001197221
v -0.03124436 0.02074637 0.001117906
v -0.01442685 0.02437429 0.01503062
v -0.02660929 0.01428336 0.02420042
v -0.02660929 0.01428336 0.02420042
v -0.01442685 0.02437429 0.01503062
v -0.002591952 0.02437429 0.02474663
v -0.007041648 0.01428336 0.03961396
v -0.007041648 0.01428336 0.03961396
v -0.002591952 0.02437429 0.02474663
v 0.01874164 0.02437429 0.03256904
v 0.02432626 0.01428336 0.04799166
v 0.02432626 0.01428336 0.04799166
v 0.01874164 0.02437429 0.03256904
v 0.02387166 0.02437429 0.01503064
v 0.03671314 0.01428336 0.02420041
v 0.03671314 0.01428336 0.02420041
v 0.02387166 0.02437429 0.01503064
v 0.02504443 0.02074637 0.001117883
v 0.03865236 0.01197241 0.001197241
v 0.03865236 0.01197241 0.001197241
v 0.02504443 0.02074637 0.001117883
v 0.03225267 0.02437429 -0.0161473
v 0.04568926 0.01428336 -0.02539638
v 0.03225267 0.02437429 -0.0161473
v 0.004624152 0.03397588 0.001091824
v 0.01203675 0.02437429 -0.03256823
v 0.01203675 0.02437429 -0.03256823
v 0.004624152 0.03397588 0.001091824
v -0.002592001 0.02437429 -0.02139341
v -0.002592001 0.02437429 -0.02139341
v 0.004624152 0.03397588 0.001091824
v -0.01125284 0.02437429 -0.01279481
v -0.01125284 0.02437429 -0.01279481
v 0.004624152 0.03397588 0.001091824
v -0.03124436 0.02074637 0.001117906
v -0.03124436 0.02074637 0.001117906
v 0.004624152 0.03397588 0.001091824
v -0.01442685 0.02437429 0.01503062
v -0.01442685 0.02437429 0.01503062
v 0.004624152 0.03397588 0.001091824
v -0.002591952 0.02437429 0.02474663
v -0.002591952 0.02437429 0.02474663
v 0.004624152 0.03397588 0.001091824
v 0.01874164 0.02437429 0.03256904
v 0.01874164 0.02437429 0.03256904
v 0.004624152 0.03397588 0.001091824
v 0.02387166 0.02437429 0.01503064
v 0.02387166 0.02437429 0.01503064
v 0.004624152 0.03397588 0.001091824
v 0.02504443 0.02074637 0.001117883
v 0.02504443 0.02074637 0.001117883
v 0.004624152 0.03397588 0.001091824
v 0.03225267 0.02437429 -0.0161473

vn -0.02523745 -0.9818566 -0.187936
vn 0.001495367 -0.9999982 -0.0007471302
vn 0.1545251 -0.9784297 -0.1371004
vn -0.152027 -0.9810985 -0.1197195
vn -0.2783096 -0.9602382 0.02203474
vn -0.2452937 -0.9642732 0.1000374
vn -0.1542324 -0.9679796 0.1980581
vn 0.007229112 -0.970319 0.2417184
vn 0.1319758 -0.9818347 0.1363166
vn 0.2662943 -0.95856 -0.101239
vn 0.3940617 -0.9154218 -0.08196124
vn 0.1502482 -0.703926 -0.6941997
vn 0.1502482 -0.703926 -0.6941997
vn 0.1502482 -0.703926 -0.6941997
vn 0.1502482 -0.703926 -0.6941997
vn -0.3616122 -0.7031068 -0.6122719
vn -0.3616122 -0.7031069 -0.6122719
vn -0.3616122 -0.7031068 -0.6122719
vn -0.3616123 -0.7031068 -0.6122719
vn -0.7493306 -0.6620906 -0.01179579
vn -0.7493308 -0.6620905 -0.01179579
vn -0.7493306 -0.6620906 -0.01179579
vn -0.7493308 -0.6620905 -0.01179576
vn -0.7131196 -0.6863981 -0.1425399
vn -0.7131197 -0.6863981 -0.1425398
vn -0.7131196 -0.6863981 -0.1425398
vn -0.7131196 -0.6863981 -0.1425398
vn -0.3781034 -0.6953634 0.6111522
vn -0.3781034 -0.6953634 0.6111522
vn -0.3781035 -0.6953633 0.6111522
vn -0.3781035 -0.6953634 0.6111523
vn -0.148206 -0.7039659 0.6945981
vn -0.1482061 -0.7039659 0.6945981
vn -0.1482061 -0.7039659 0.6945981
vn -0.1482061 -0.7039659 0.6945981
vn 0.1465733 -0.6928935 0.7059847
vn 0.1465733 -0.6928936 0.7059847
vn 0.1465733 -0.6928936 0.7059847
vn 0.1465733 -0.6928935 0.7059847
vn 0.7434112 -0.6678944 0.03544793
vn 0.7434111 -0.6678944 0.03544796
vn 0.7434111 -0.6678944 0.03544796
vn 0.7434112 -0.6678944 0.0354479
vn 0.6490552 -0.6790238 -0.3430067
vn 0.6490552 -0.6790239 -0.3430067
vn 0.6490552 -0.6790238 -0.3430067
vn 0.6490552 -0.6790238 -0.3430067
vn 0.7814898 -0.6155776 -0.1016737
vn 0.7814898 -0.6155775 -0.1016738
vn 0.7814898 -0.6155776 -0.1016737
vn 0.7814898 -0.6155775 -0.1016737
vn 0.2079518 1.770473E-17 -0.978139
vn 0.2079519 1.770472E-17 -0.978139
vn 0.2079519 1.770472E-17 -0.978139
vn 0.2079518 1.770473E-17 -0.978139
vn -0.5009414 1.265866E-16 -0.8654812
vn -0.5009414 1.265866E-16 -0.8654812
vn -0.5009414 1.265866E-16 -0.8654812
vn -0.5009414 1.265866E-16 -0.8654812
vn -0.9974109 1.653004E-16 -0.07191283
vn -0.9974109 1.653004E-16 -0.07191283
vn -0.9974109 1.653004E-16 -0.07191283
vn -0.9974109 1.653004E-16 -0.07191283
vn -0.9754112 1.695373E-16 -0.2203928
vn -0.9754112 1.695373E-16 -0.2203927
vn -0.9754112 1.695373E-16 -0.2203928
vn -0.9754112 1.695373E-16 -0.2203928
vn -0.4942862 3.438217E-17 0.8692992
vn -0.4942862 3.438217E-17 0.8692992
vn -0.4942862 3.438215E-17 0.8692993
vn -0.4942862 3.438217E-17 0.8692992
vn -0.2040837 -1.837392E-17 0.9789535
vn -0.2040837 -1.837392E-17 0.9789535
vn -0.2040837 -1.837392E-17 0.9789535
vn -0.2040837 -1.837392E-17 0.9789535
vn 0.2280256 -8.807232E-17 0.9736551
vn 0.2280256 -8.807232E-17 0.9736551
vn 0.2280256 -8.807232E-17 0.9736551
vn 0.2280256 -8.807232E-17 0.9736551
vn 0.9950569 -1.663582E-16 0.09930745
vn 0.9950569 -1.663582E-16 0.09930745
vn 0.9950569 -1.663582E-16 0.09930745
vn 0.9950569 -1.663582E-16 0.09930745
vn 0.932043 -1.319032E-16 -0.3623478
vn 0.932043 -1.319032E-16 -0.3623478
vn 0.932043 -1.319032E-16 -0.3623478
vn 0.932043 -1.319032E-16 -0.3623478
vn 0.9692754 -1.440455E-16 -0.245978
vn 0.9692754 -1.440455E-16 -0.245978
vn 0.9692754 -1.440455E-16 -0.245978
vn 0.9692754 -1.440455E-16 -0.245978
vn 0.2056278 0.212757 -0.9552234
vn 0.2056278 0.212757 -0.9552233
vn 0.2056278 0.212757 -0.9552233
vn 0.2056278 0.212757 -0.9552233
vn -0.493651 0.2212333 -0.8410496
vn -0.493651 0.2212333 -0.8410496
vn -0.493651 0.2212333 -0.8410496
vn -0.493651 0.2212333 -0.8410496
vn -0.9653755 0.2588965 -0.03197676
vn -0.9653756 0.2588965 -0.03197673
vn -0.9653755 0.2588965 -0.03197682
vn -0.9653755 0.2588965 -0.03197676
vn -0.9355385 0.2546348 -0.2448037
vn -0.9355384 0.2546348 -0.2448038
vn -0.9355385 0.2546347 -0.2448037
vn -0.9355384 0.2546348 -0.2448037
vn -0.4530596 0.2437819 0.8575007
vn -0.4530596 0.2437819 0.8575007
vn -0.4530596 0.2437819 0.8575007
vn -0.4530596 0.2437819 0.8575007
vn -0.1988114 0.2822602 0.9385111
vn -0.1988114 0.2822602 0.9385111
vn -0.1988114 0.2822602 0.9385111
vn -0.1988114 0.2822602 0.9385111
vn 0.2045799 0.2423859 0.9483649
vn 0.2045799 0.2423859 0.9483649
vn 0.2045799 0.2423859 0.9483649
vn 0.2045799 0.2423859 0.9483649
vn 0.9792104 0.1930069 0.06241307
vn 0.9792104 0.1930069 0.06241307
vn 0.9792103 0.1930069 0.06241313
vn 0.9792104 0.1930069 0.06241307
vn 0.9011678 0.2371581 -0.3628397
vn 0.9011678 0.2371581 -0.3628397
vn 0.9011678 0.2371581 -0.3628397
vn 0.9011678 0.2371581 -0.3628397
vn 0.961193 0.178262 -0.2105484
vn 0.961193 0.178262 -0.2105484
vn 0.961193 0.178262 -0.2105484
vn 0.961193 0.178262 -0.2105484
vn 0.1194429 0.8368364 -0.5342636
vn 0.1194429 0.8368364 -0.5342636
vn 0.1194429 0.8368364 -0.5342636
vn 0.1194429 0.8368364 -0.5342636
vn -0.3150771 0.8884322 -0.3337874
vn -0.3150771 0.8884321 -0.3337874
vn -0.3150771 0.8884322 -0.3337874
vn -0.3150771 0.8884322 -0.3337874
vn -0.491793 0.8693342 -0.04895838
vn -0.4917931 0.8693342 -0.04895841
vn -0.491793 0.8693342 -0.04895838
vn -0.4917931 0.8693342 -0.04895841
vn -0.5747473 0.8049012 -0.1476448
vn -0.5747473 0.8049012 -0.1476448
vn -0.5747473 0.8049012 -0.1476448
vn -0.5747473 0.8049012 -0.1476448
vn -0.2833732 0.8185278 0.4997113
vn -0.2833731 0.8185278 0.4997112
vn -0.2833732 0.8185278 0.4997113
vn -0.2833732 0.8185278 0.4997113
vn -0.1241963 0.8222618 0.5553921
vn -0.1241963 0.8222616 0.5553921
vn -0.1241963 0.8222616 0.5553921
vn -0.1241963 0.8222616 0.5553921
vn 0.08991587 0.8172352 0.5692462
vn 0.08991589 0.8172352 0.5692462
vn 0.08991589 0.8172352 0.5692462
vn 0.08991589 0.8172352 0.5692462
vn 0.6041062 0.796234 -0.0326567
vn 0.6041063 0.796234 -0.03265671
vn 0.6041063 0.796234 -0.03265668
vn 0.6041063 0.796234 -0.03265671
vn 0.5018495 0.7985129 -0.3324509
vn 0.5018494 0.7985129 -0.3324508
vn 0.5018495 0.7985129 -0.3324509
vn 0.5018495 0.7985129 -0.3324509
vn 0.6807244 0.7325383 -0.001222014
vn 0.6807244 0.7325384 -0.001222044
vn 0.6807244 0.7325383 -0.001222014
vn 0.6807244 0.7325383 -0.001222014
vn 0.0670644 0.9546865 -0.2899573
vn 0.06706437 0.9546865 -0.2899573
vn 0.0670644 0.9546865 -0.2899573
vn -0.3544169 0.9181486 -0.1771754
vn -0.3544169 0.9181486 -0.1771754
vn -0.3544169 0.9181486 -0.1771754
vn -0.392193 0.9097521 -0.1361441
vn -0.392193 0.9097521 -0.1361441
vn -0.392193 0.9097521 -0.1361441
vn -0.409214 0.9095348 -0.07273026
vn -0.4092141 0.9095348 -0.07273026
vn -0.4092141 0.9095348 -0.07273026
vn -0.2310762 0.9244465 0.3033182
vn -0.2310762 0.9244465 0.3033181
vn -0.2310762 0.9244465 0.3033182
vn -0.0892235 0.9219851 0.3768049
vn -0.08922352 0.9219851 0.3768049
vn -0.08922352 0.9219851 0.3768049
vn 0.03742046 0.9320197 0.3604695
vn 0.03742043 0.9320197 0.3604694
vn 0.03742044 0.9320197 0.3604694
vn 0.3884726 0.9190344 -0.06681351
vn 0.3884727 0.9190344 -0.06681354
vn 0.3884727 0.9190344 -0.06681354
vn 0.4065411 0.8268818 -0.3885747
vn 0.4065411 0.8268818 -0.3885746
vn 0.4065411 0.8268818 -0.3885746
vn 0.6170079 0.7785741 0.1145564
vn 0.6170079 0.7785741 0.1145565
vn 0.6170079 0.7785741 0.1145564

vt 0.5482839 0.007647395
vt 0.5 0.15
vt 0.6264089 0.06440853
vt 0.4517161 0.00764741
vt 0.3735911 0.06440856
vt 0.34375 0.15625
vt 0.3735911 0.2480915
vt 0.4517161 0.3048526
vt 0.5482839 0.3048526
vt 0.6264089 0.2480914
vt 0.65625 0.15625
vt 0 0
vt 0 1
vt 1 1
vt 1 0
vt 0 0
vt 0 1
vt 1 1
vt 1 0
vt 0 0
vt 0 1
vt 1 1
vt 1 0
vt 0 0
vt 0 1
vt 1 1
vt 1 0
vt 0 0
vt 0 1
vt 1 1
vt 1 0
vt 0 0
vt 0 1
vt 1 1
vt 1 0
vt 0 0
vt 0 1
vt 1 1
vt 1 0
vt 0 0
vt 0 1
vt 1 1
vt 1 0
vt 0 0
vt 0 1
vt 1 1
vt 1 0
vt 0 0
vt 0 1
vt 1 1
vt 1 0
vt 0 0
vt 0 1
vt 1 1
vt 1 0
vt 0 0
vt 0 1
vt 1 1
vt 1 0
vt 0 0
vt 0 1
vt 1 1
vt 1 0
vt 0 0
vt 0 1
vt 1 1
vt 1 0
vt 0 0
vt 0 1
vt 1 1
vt 1 0
vt 0 0
vt 0 1
vt 1 1
vt 1 0
vt 0 0
vt 0 1
vt 1 1
vt 1 0
vt 0 0
vt 0 1
vt 1 1
vt 1 0
vt 0 0
vt 0 1
vt 1 1
vt 1 0
vt 0 0
vt 0 1
vt 1 1
vt 1 0
vt 0 0
vt 0 1
vt 1 1
vt 1 0
vt 0 0
vt 0 1
vt 1 1
vt 1 0
vt 0 0
vt 0 1
vt 1 1
vt 1 0
vt 0 0
vt 0 1
vt 1 1
vt 1 0
vt 0 0
vt 0 1
vt 1 1
vt 1 0
vt 0 0
vt 0 1
vt 1 1
vt 1 0
vt 0 0
vt 0 1
vt 1 1
vt 1 0
vt 0 0
vt 0 1
vt 1 1
vt 1 0
vt 0 0
vt 0 1
vt 1 1
vt 1 0
vt 0 0
vt 0 1
vt 1 1
vt 1 0
vt 0 0
vt 0 1
vt 1 1
vt 1 0
vt 0 0
vt 0 1
vt 1 1
vt 1 0
vt 0 0
vt 0 1
vt 1 1
vt 1 0
vt 0 0
vt 0 1
vt 1 1
vt 1 0
vt 0 0
vt 0 1
vt 1 1
vt 1 0
vt 0 0
vt 0 1
vt 1 1
vt 1 0
vt 0 0
vt 0 1
vt 1 1
vt 1 0
vt 0 0
vt 0 1
vt 1 1
vt 1 0
vt 0 0
vt 0 1
vt 1 1
vt 1 0
vt 0 0
vt 0 1
vt 1 1
vt 1 0
vt 0 0
vt 0.5 1
vt 1 0
vt 0 0
vt 0.5 1
vt 1 0
vt 0 0
vt 0.5 1
vt 1 0
vt 0 0
vt 0.5 1
vt 1 0
vt 0 0
vt 0.5 1
vt 1 0
vt 0 0
vt 0.5 1
vt 1 0
vt 0 0
vt 0.5 1
vt 1 0
vt 0 0
vt 0.5 1
vt 1 0
vt 0 0
vt 0.5 1
vt 1 0
vt 0 0
vt 0.5 1
vt 1 0

g pCylinder18_4182_151
usemtl pCylinder18_4182_151
usemap pCylinder18_4182_151
f 1/1/1 3/3/3 2/2/2
f 4/4/4 1/1/1 2/2/2
f 5/5/5 4/4/4 2/2/2
f 6/6/6 5/5/5 2/2/2
f 7/7/7 6/6/6 2/2/2
f 8/8/8 7/7/7 2/2/2
f 9/9/9 8/8/8 2/2/2
f 10/10/10 9/9/9 2/2/2
f 11/11/11 10/10/10 2/2/2
f 3/3/3 11/11/11 2/2/2
f 12/12/12 14/14/14 13/13/13
f 12/12/12 15/15/15 14/14/14
f 16/16/16 18/18/18 17/17/17
f 16/16/16 19/19/19 18/18/18
f 20/20/20 22/22/22 21/21/21
f 20/20/20 23/23/23 22/22/22
f 24/24/24 26/26/26 25/25/25
f 24/24/24 27/27/27 26/26/26
f 28/28/28 30/30/30 29/29/29
f 28/28/28 31/31/31 30/30/30
f 32/32/32 34/34/34 33/33/33
f 32/32/32 35/35/35 34/34/34
f 36/36/36 38/38/38 37/37/37
f 36/36/36 39/39/39 38/38/38
f 40/40/40 42/42/42 41/41/41
f 40/40/40 43/43/43 42/42/42
f 44/44/44 46/46/46 45/45/45
f 44/44/44 47/47/47 46/46/46
f 48/48/48 50/50/50 49/49/49
f 48/48/48 51/51/51 50/50/50
f 52/52/52 54/54/54 53/53/53
f 52/52/52 55/55/55 54/54/54
f 56/56/56 58/58/58 57/57/57
f 56/56/56 59/59/59 58/58/58
f 60/60/60 62/62/62 61/61/61
f 60/60/60 63/63/63 62/62/62
f 64/64/64 66/66/66 65/65/65
f 64/64/64 67/67/67 66/66/66
f 68/68/68 70/70/70 69/69/69
f 68/68/68 71/71/71 70/70/70
f 72/72/72 74/74/74 73/73/73
f 72/72/72 75/75/75 74/74/74
f 76/76/76 78/78/78 77/77/77
f 76/76/76 79/79/79 78/78/78
f 80/80/80 82/82/82 81/81/81
f 80/80/80 83/83/83 82/82/82
f 84/84/84 86/86/86 85/85/85
f 84/84/84 87/87/87 86/86/86
f 88/88/88 90/90/90 89/89/89
f 88/88/88 91/91/91 90/90/90
f 92/92/92 94/94/94 93/93/93
f 92/92/92 95/95/95 94/94/94
f 96/96/96 98/98/98 97/97/97
f 96/96/96 99/99/99 98/98/98
f 100/100/100 102/102/102 101/101/101
f 100/100/100 103/103/103 102/102/102
f 104/104/104 106/106/106 105/105/105
f 104/104/104 107/107/107 106/106/106
f 108/108/108 110/110/110 109/109/109
f 108/108/108 111/111/111 110/110/110
f 112/112/112 114/114/114 113/113/113
f 112/112/112 115/115/115 114/114/114
f 116/116/116 118/118/118 117/117/117
f 116/116/116 119/119/119 118/118/118
f 120/120/120 122/122/122 121/121/121
f 120/120/120 123/123/123 122/122/122
f 124/124/124 126/126/126 125/125/125
f 124/124/124 127/127/127 126/126/126
f 128/128/128 130/130/130 129/129/129
f 128/128/128 131/131/131 130/130/130
f 132/132/132 134/134/134 133/133/133
f 132/132/132 135/135/135 134/134/134
f 136/136/136 138/138/138 137/137/137
f 136/136/136 139/139/139 138/138/138
f 140/140/140 142/142/142 141/141/141
f 140/140/140 143/143/143 142/142/142
f 144/144/144 146/146/146 145/145/145
f 144/144/144 147/147/147 146/146/146
f 148/148/148 150/150/150 149/149/149
f 148/148/148 151/151/151 150/150/150
f 152/152/152 154/154/154 153/153/153
f 152/152/152 155/155/155 154/154/154
f 156/156/156 158/158/158 157/157/157
f 156/156/156 159/159/159 158/158/158
f 160/160/160 162/162/162 161/161/161
f 160/160/160 163/163/163 162/162/162
f 164/164/164 166/166/166 165/165/165
f 164/164/164 167/167/167 166/166/166
f 168/168/168 170/170/170 169/169/169
f 168/168/168 171/171/171 170/170/170
f 172/172/172 174/174/174 173/173/173
f 175/175/175 177/177/177 176/176/176
f 178/178/178 180/180/180 179/179/179
f 181/181/181 183/183/183 182/182/182
f 184/184/184 186/186/186 185/185/185
f 187/187/187 189/189/189 188/188/188
f 190/190/190 192/192/192 191/191/191
f 193/193/193 195/195/195 194/194/194
f 196/196/196 198/198/198 197/197/197
f 199/199/199 201/201/201 200/200/200
