#pCylinder3_29_3924_209.obj

v 0.01454388 -0.02577572 -0.04035883
v 0.0046226 -0.03397612 0.00109096
v 0.03878289 -0.02577572 -0.02105544
v -0.00966483 -0.02577572 -0.03817593
v -0.01825219 -0.02577572 -0.01778094
v -0.03822362 -0.02223221 0.001090857
v -0.02135231 -0.02577572 0.01996262
v -0.005299028 -0.02577572 0.03271743
v 0.02109239 -0.02577572 0.04035757
v 0.03059689 -0.02577572 0.01996253
v 0.03218793 -0.02223221 0.001090822
v 0.03878289 -0.02577572 -0.02105544
v 0.04796553 -0.01489245 -0.0277267
v 0.01805099 -0.01489245 -0.05115343
v 0.01454388 -0.02577572 -0.04035883
v 0.01454388 -0.02577572 -0.04035883
v 0.01805099 -0.01489245 -0.05115343
v -0.01317224 -0.01489245 -0.04897048
v -0.00966483 -0.02577572 -0.03817593
v -0.00966483 -0.02577572 -0.03817593
v -0.01317224 -0.01489245 -0.04897048
v -0.02743486 -0.01489245 -0.02445247
v -0.01825219 -0.02577572 -0.01778094
v -0.01825219 -0.02577572 -0.01778094
v -0.02743486 -0.01489245 -0.02445247
v -0.04796835 -0.01288829 0.001090837
v -0.03822362 -0.02223221 0.001090857
v -0.03822362 -0.02223221 0.001090857
v -0.04796835 -0.01288829 0.001090837
v -0.03053448 -0.01489245 0.02663417
v -0.02135231 -0.02577572 0.01996262
v -0.02135231 -0.02577572 0.01996262
v -0.03053448 -0.01489245 0.02663417
v -0.008806176 -0.01489245 0.04351209
v -0.005299028 -0.02577572 0.03271743
v -0.005299028 -0.02577572 0.03271743
v -0.008806176 -0.01489245 0.04351209
v 0.0245998 -0.01489245 0.05115211
v 0.02109239 -0.02577572 0.04035757
v 0.02109239 -0.02577572 0.04035757
v 0.0245998 -0.01489245 0.05115211
v 0.03977956 -0.01489245 0.02663407
v 0.03059689 -0.02577572 0.01996253
v 0.03059689 -0.02577572 0.01996253
v 0.03977956 -0.01489245 0.02663407
v 0.04193269 -0.01288829 0.001090776
v 0.03218793 -0.02223221 0.001090822
v 0.03218793 -0.02223221 0.001090822
v 0.04193269 -0.01288829 0.001090776
v 0.04796553 -0.01489245 -0.0277267
v 0.03878289 -0.02577572 -0.02105544
v 0.04796553 -0.01489245 -0.0277267
v 0.04796553 -0.0001484014 -0.0277267
v 0.01805099 -0.0001484014 -0.05115343
v 0.01805099 -0.01489245 -0.05115343
v 0.01805099 -0.01489245 -0.05115343
v 0.01805099 -0.0001484014 -0.05115343
v -0.01317224 -0.0001484014 -0.04897048
v -0.01317224 -0.01489245 -0.04897048
v -0.01317224 -0.01489245 -0.04897048
v -0.01317224 -0.0001484014 -0.04897048
v -0.02743486 -0.0001484014 -0.02445247
v -0.02743486 -0.01489245 -0.02445247
v -0.02743486 -0.01489245 -0.02445247
v -0.02743486 -0.0001484014 -0.02445247
v -0.04796835 -0.000229486 0.001090837
v -0.04796835 -0.01288829 0.001090837
v -0.04796835 -0.01288829 0.001090837
v -0.04796835 -0.000229486 0.001090837
v -0.03053448 -0.0001484014 0.02663417
v -0.03053448 -0.01489245 0.02663417
v -0.03053448 -0.01489245 0.02663417
v -0.03053448 -0.0001484014 0.02663417
v -0.008806176 -0.0001484014 0.04351209
v -0.008806176 -0.01489245 0.04351209
v -0.008806176 -0.01489245 0.04351209
v -0.008806176 -0.0001484014 0.04351209
v 0.0245998 -0.0001484014 0.05115211
v 0.0245998 -0.01489245 0.05115211
v 0.0245998 -0.01489245 0.05115211
v 0.0245998 -0.0001484014 0.05115211
v 0.03977956 -0.0001484014 0.02663407
v 0.03977956 -0.01489245 0.02663407
v 0.03977956 -0.01489245 0.02663407
v 0.03977956 -0.0001484014 0.02663407
v 0.04193269 -0.000229486 0.001090776
v 0.04193269 -0.01288829 0.001090776
v 0.04193269 -0.01288829 0.001090776
v 0.04193269 -0.000229486 0.001090776
v 0.04796553 -0.0001484014 -0.0277267
v 0.04796553 -0.01489245 -0.0277267
v 0.04796553 -0.0001484014 -0.0277267
v 0.04568722 0.0142833 -0.02539747
v 0.01714366 0.0142833 -0.04799186
v 0.01805099 -0.0001484014 -0.05115343
v 0.01805099 -0.0001484014 -0.05115343
v 0.01714366 0.0142833 -0.04799186
v -0.01183076 0.0142833 -0.04559831
v -0.01317224 -0.0001484014 -0.04897048
v -0.01317224 -0.0001484014 -0.04897048
v -0.01183076 0.0142833 -0.04559831
v -0.02321163 0.0142833 -0.02180695
v -0.02743486 -0.0001484014 -0.02445247
v -0.02743486 -0.0001484014 -0.02445247
v -0.02321163 0.0142833 -0.02180695
v -0.0453055 0.01197204 0.001196196
v -0.04796835 -0.000229486 0.001090837
v -0.04796835 -0.000229486 0.001090837
v -0.0453055 0.01197204 0.001196196
v -0.02661107 0.0142833 0.02419944
v -0.03053448 -0.0001484014 0.02663417
v -0.03053448 -0.0001484014 0.02663417
v -0.02661107 0.0142833 0.02419944
v -0.007043185 0.0142833 0.0396131
v -0.008806176 -0.0001484014 0.04351209
v -0.008806176 -0.0001484014 0.04351209
v -0.007043185 0.0142833 0.0396131
v 0.02432461 0.0142833 0.0479907
v 0.0245998 -0.0001484014 0.05115211
v 0.0245998 -0.0001484014 0.05115211
v 0.02432461 0.0142833 0.0479907
v 0.03671139 0.0142833 0.02419945
v 0.03977956 -0.0001484014 0.02663407
v 0.03977956 -0.0001484014 0.02663407
v 0.03671139 0.0142833 0.02419945
v 0.03865039 0.01197204 0.001196152
v 0.04193269 -0.000229486 0.001090776
v 0.04193269 -0.000229486 0.001090776
v 0.03865039 0.01197204 0.001196152
v 0.04568722 0.0142833 -0.02539747
v 0.04796553 -0.0001484014 -0.0277267
v 0.04568722 0.0142833 -0.02539747
v 0.03225123 0.02437434 -0.01614818
v 0.01203515 0.02437434 -0.03256919
v 0.01714366 0.0142833 -0.04799186
v 0.01714366 0.0142833 -0.04799186
v 0.01203515 0.02437434 -0.03256919
v -0.002593834 0.02437434 -0.02139448
v -0.01183076 0.0142833 -0.04559831
v -0.01183076 0.0142833 -0.04559831
v -0.002593834 0.02437434 -0.02139448
v -0.01125437 0.02437434 -0.01279576
v -0.02321163 0.0142833 -0.02180695
v -0.02321163 0.0142833 -0.02180695
v -0.01125437 0.02437434 -0.01279576
v -0.03124605 0.02074643 0.001116966
v -0.0453055 0.01197204 0.001196196
v -0.0453055 0.01197204 0.001196196
v -0.03124605 0.02074643 0.001116966
v -0.01442851 0.02437434 0.01502962
v -0.02661107 0.0142833 0.02419944
v -0.02661107 0.0142833 0.02419944
v -0.01442851 0.02437434 0.01502962
v -0.002593679 0.02437434 0.02474556
v -0.007043185 0.0142833 0.0396131
v -0.007043185 0.0142833 0.0396131
v -0.002593679 0.02437434 0.02474556
v 0.01874015 0.02437434 0.03256809
v 0.02432461 0.0142833 0.0479907
v 0.02432461 0.0142833 0.0479907
v 0.01874015 0.02437434 0.03256809
v 0.02387003 0.02437434 0.01502968
v 0.03671139 0.0142833 0.02419945
v 0.03671139 0.0142833 0.02419945
v 0.02387003 0.02437434 0.01502968
v 0.02504272 0.02074643 0.001116861
v 0.03865039 0.01197204 0.001196152
v 0.03865039 0.01197204 0.001196152
v 0.02504272 0.02074643 0.001116861
v 0.03225123 0.02437434 -0.01614818
v 0.04568722 0.0142833 -0.02539747
v 0.03225123 0.02437434 -0.01614818
v 0.004622635 0.03397602 0.001090895
v 0.01203515 0.02437434 -0.03256919
v 0.01203515 0.02437434 -0.03256919
v 0.004622635 0.03397602 0.001090895
v -0.002593834 0.02437434 -0.02139448
v -0.002593834 0.02437434 -0.02139448
v 0.004622635 0.03397602 0.001090895
v -0.01125437 0.02437434 -0.01279576
v -0.01125437 0.02437434 -0.01279576
v 0.004622635 0.03397602 0.001090895
v -0.03124605 0.02074643 0.001116966
v -0.03124605 0.02074643 0.001116966
v 0.004622635 0.03397602 0.001090895
v -0.01442851 0.02437434 0.01502962
v -0.01442851 0.02437434 0.01502962
v 0.004622635 0.03397602 0.001090895
v -0.002593679 0.02437434 0.02474556
v -0.002593679 0.02437434 0.02474556
v 0.004622635 0.03397602 0.001090895
v 0.01874015 0.02437434 0.03256809
v 0.01874015 0.02437434 0.03256809
v 0.004622635 0.03397602 0.001090895
v 0.02387003 0.02437434 0.01502968
v 0.02387003 0.02437434 0.01502968
v 0.004622635 0.03397602 0.001090895
v 0.02504272 0.02074643 0.001116861
v 0.02504272 0.02074643 0.001116861
v 0.004622635 0.03397602 0.001090895
v 0.03225123 0.02437434 -0.01614818

vn 0.240414 -0.9703035 -0.02668839
vn 0.001040122 -0.9999978 0.001809834
vn 0.1829231 -0.9654523 0.1855831
vn 0.1474854 -0.9727308 -0.1790049
vn -0.04066643 -0.9434787 -0.3289288
vn -0.1387385 -0.9465961 -0.2910452
vn -0.2591787 -0.9479658 -0.184898
vn -0.3079268 -0.9514002 0.004334358
vn -0.1697605 -0.9732521 0.1547958
vn 0.1408533 -0.9385732 0.3150248
vn 0.119972 -0.8812482 0.4571743
vn 0.7800146 -0.6035399 0.1652784
vn 0.7800145 -0.6035399 0.1652784
vn 0.7800145 -0.6035399 0.1652785
vn 0.7800145 -0.6035399 0.1652784
vn 0.6887234 -0.6209999 -0.3741913
vn 0.6887234 -0.621 -0.3741913
vn 0.6887234 -0.6209999 -0.3741913
vn 0.6887234 -0.621 -0.3741914
vn -0.01694237 -0.5924535 -0.8054265
vn -0.01694237 -0.5924534 -0.8054265
vn -0.01694237 -0.5924535 -0.8054265
vn -0.0169424 -0.5924534 -0.8054265
vn 0.1380688 -0.6203485 -0.7720781
vn 0.1380687 -0.6203485 -0.7720782
vn 0.1380688 -0.6203485 -0.7720781
vn 0.1380687 -0.6203485 -0.7720781
vn -0.6965714 -0.5963948 -0.3988755
vn -0.6965714 -0.5963948 -0.3988755
vn -0.6965714 -0.5963947 -0.3988755
vn -0.6965714 -0.5963947 -0.3988754
vn -0.7804096 -0.6035981 -0.1631872
vn -0.7804097 -0.6035981 -0.1631873
vn -0.7804096 -0.6035981 -0.1631873
vn -0.7804096 -0.6035981 -0.1631872
vn -0.7880899 -0.5990784 0.1414904
vn -0.7880898 -0.5990784 0.1414904
vn -0.7880898 -0.5990784 0.1414904
vn -0.7880899 -0.5990784 0.1414904
vn -0.01085261 -0.5990855 0.8006115
vn -0.01085264 -0.5990855 0.8006115
vn -0.01085264 -0.5990855 0.8006115
vn -0.01085259 -0.5990854 0.8006115
vn 0.416498 -0.5943857 0.6879209
vn 0.4164979 -0.5943857 0.6879208
vn 0.416498 -0.5943857 0.6879209
vn 0.416498 -0.5943857 0.6879209
vn 0.1477791 -0.5415367 0.8275865
vn 0.1477792 -0.5415366 0.8275865
vn 0.1477791 -0.5415367 0.8275865
vn 0.1477791 -0.5415366 0.8275865
vn 0.9789666 0 0.2040207
vn 0.9789665 0 0.2040207
vn 0.9789665 0 0.2040207
vn 0.9789666 0 0.2040207
vn 0.8828602 0 -0.4696358
vn 0.8828602 0 -0.4696358
vn 0.8828602 0 -0.4696358
vn 0.8828602 0 -0.4696358
vn 0.03998753 0 -0.9992002
vn 0.03998753 0 -0.9992002
vn 0.03998753 0 -0.9992002
vn 0.03998753 0 -0.9992002
vn 0.2028973 0 -0.9792
vn 0.2028972 0 -0.9792
vn 0.2028973 0 -0.9792
vn 0.2028973 0 -0.9792
vn -0.8842056 0 -0.4670979
vn -0.8842056 0 -0.4670979
vn -0.8842056 0 -0.4670979
vn -0.8842056 0 -0.4670979
vn -0.9796951 0 -0.2004931
vn -0.9796951 0 -0.2004931
vn -0.9796951 0 -0.2004931
vn -0.9796951 0 -0.2004931
vn -0.9797307 0 0.2003189
vn -0.9797307 0 0.2003189
vn -0.9797307 0 0.2003189
vn -0.9797307 0 0.2003189
vn -0.06989527 0 0.9975543
vn -0.06989527 0 0.9975543
vn -0.06989527 0 0.9975543
vn -0.06989527 0 0.9975543
vn 0.4151317 0 0.9097613
vn 0.4151317 0 0.9097613
vn 0.4151317 0 0.9097613
vn 0.4151317 0 0.9097613
vn 0.2975118 0 0.9547182
vn 0.2975118 0 0.9547182
vn 0.2975118 0 0.9547182
vn 0.2975118 0 0.9547182
vn 0.9652325 0.1640549 0.2035002
vn 0.9652324 0.1640549 0.2035001
vn 0.9652324 0.1640549 0.2035001
vn 0.9652324 0.1640549 0.2035001
vn 0.8658036 0.1787973 -0.4673495
vn 0.8658036 0.1787973 -0.4673495
vn 0.8658036 0.1787973 -0.4673495
vn 0.8658036 0.1787973 -0.4673495
vn -0.002162197 0.2179497 -0.9759576
vn -0.002162249 0.2179497 -0.9759576
vn -0.002162144 0.2179497 -0.9759576
vn -0.002162197 0.2179497 -0.9759576
vn 0.2333802 0.2156262 -0.9481767
vn 0.2333802 0.2156262 -0.9481767
vn 0.2333802 0.2156262 -0.9481767
vn 0.2333801 0.2156262 -0.9481767
vn -0.8809279 0.1890451 -0.4338525
vn -0.8809279 0.1890451 -0.4338525
vn -0.8809279 0.1890451 -0.4338526
vn -0.8809279 0.1890451 -0.4338525
vn -0.9552758 0.2192651 -0.1984209
vn -0.9552758 0.2192651 -0.198421
vn -0.9552758 0.2192651 -0.1984209
vn -0.9552758 0.2192651 -0.1984209
vn -0.9648327 0.1910492 0.1805494
vn -0.9648327 0.1910492 0.1805494
vn -0.9648327 0.1910492 0.1805494
vn -0.9648327 0.1910492 0.1805494
vn -0.03053165 0.1619599 0.9863249
vn -0.03053165 0.1619599 0.9863249
vn -0.03053165 0.1619599 0.9863249
vn -0.03053165 0.1619599 0.9863249
vn 0.418168 0.1932677 0.8875715
vn 0.418168 0.1932677 0.8875715
vn 0.418168 0.1932677 0.8875715
vn 0.418168 0.1932677 0.8875715
vn 0.261673 0.1467757 0.9539309
vn 0.2616731 0.1467758 0.9539309
vn 0.261673 0.1467758 0.9539309
vn 0.261673 0.1467758 0.9539309
vn 0.6355757 0.75946 0.1387943
vn 0.6355758 0.75946 0.1387943
vn 0.6355757 0.75946 0.1387943
vn 0.6355758 0.75946 0.1387943
vn 0.3993921 0.8454154 -0.3546245
vn 0.3993922 0.8454155 -0.3546246
vn 0.3993921 0.8454154 -0.3546245
vn 0.3993921 0.8454154 -0.3546245
vn 0.0391651 0.8267925 -0.5611419
vn 0.03916513 0.8267925 -0.5611419
vn 0.0391651 0.8267925 -0.5611419
vn 0.03916513 0.8267925 -0.5611419
vn 0.1546459 0.7510321 -0.6418999
vn 0.1546459 0.7510321 -0.6418998
vn 0.1546459 0.7510321 -0.6418998
vn 0.1546459 0.7510321 -0.6418998
vn -0.5973653 0.737619 -0.3147585
vn -0.5973653 0.737619 -0.3147584
vn -0.5973653 0.737619 -0.3147585
vn -0.5973653 0.737619 -0.3147585
vn -0.6560603 0.7409791 -0.1432995
vn -0.6560605 0.7409791 -0.1432996
vn -0.6560604 0.7409791 -0.1432995
vn -0.6560605 0.7409791 -0.1432996
vn -0.6666967 0.7400287 0.08873056
vn -0.6666967 0.7400287 0.08873057
vn -0.6666967 0.7400287 0.08873057
vn -0.6666967 0.7400287 0.08873057
vn 0.0649088 0.7372044 0.6725447
vn 0.06490883 0.7372044 0.6725448
vn 0.0649088 0.7372044 0.6725448
vn 0.06490883 0.7372044 0.6725448
vn 0.4129885 0.7242375 0.5521961
vn 0.4129885 0.7242376 0.552196
vn 0.4129885 0.7242376 0.552196
vn 0.4129885 0.7242375 0.5521961
vn 0.02979288 0.6668707 0.7445776
vn 0.02979291 0.6668707 0.7445776
vn 0.02979288 0.6668707 0.7445776
vn 0.02979288 0.6668707 0.7445776
vn 0.3686956 0.925828 0.08310234
vn 0.3686957 0.925828 0.08310231
vn 0.3686956 0.925828 0.08310234
vn 0.2073344 0.8886205 -0.4091039
vn 0.2073344 0.8886205 -0.4091039
vn 0.2073344 0.8886206 -0.4091039
vn 0.1536397 0.8783612 -0.452633
vn 0.1536397 0.8783612 -0.452633
vn 0.1536397 0.8783612 -0.452633
vn 0.07323249 0.8778534 -0.4732974
vn 0.07323249 0.8778534 -0.4732974
vn 0.07323249 0.8778534 -0.4732974
vn -0.3864343 0.8819218 -0.2699677
vn -0.3864343 0.8819218 -0.2699676
vn -0.3864343 0.8819218 -0.2699677
vn -0.4696233 0.876212 -0.1081966
vn -0.4696233 0.8762119 -0.1081966
vn -0.4696233 0.8762119 -0.1081966
vn -0.4477565 0.8933897 0.0369996
vn -0.4477564 0.8933897 0.03699957
vn -0.4477564 0.8933897 0.03699958
vn 0.1009723 0.8865897 0.4514014
vn 0.1009724 0.8865897 0.4514015
vn 0.1009724 0.8865897 0.4514015
vn 0.4776059 0.7537016 0.4514714
vn 0.4776058 0.7537016 0.4514714
vn 0.4776058 0.7537017 0.4514714
vn -0.1117797 0.7206154 0.6842653
vn -0.1117797 0.7206154 0.6842652
vn -0.1117797 0.7206154 0.6842653

vt 0.5482839 0.007647395
vt 0.5 0.15
vt 0.6264089 0.06440853
vt 0.4517161 0.00764741
vt 0.3735911 0.06440856
vt 0.34375 0.15625
vt 0.3735911 0.2480915
vt 0.4517161 0.3048526
vt 0.5482839 0.3048526
vt 0.6264089 0.2480914
vt 0.65625 0.15625
vt 0 0
vt 0 1
vt 1 1
vt 1 0
vt 0 0
vt 0 1
vt 1 1
vt 1 0
vt 0 0
vt 0 1
vt 1 1
vt 1 0
vt 0 0
vt 0 1
vt 1 1
vt 1 0
vt 0 0
vt 0 1
vt 1 1
vt 1 0
vt 0 0
vt 0 1
vt 1 1
vt 1 0
vt 0 0
vt 0 1
vt 1 1
vt 1 0
vt 0 0
vt 0 1
vt 1 1
vt 1 0
vt 0 0
vt 0 1
vt 1 1
vt 1 0
vt 0 0
vt 0 1
vt 1 1
vt 1 0
vt 0 0
vt 0 1
vt 1 1
vt 1 0
vt 0 0
vt 0 1
vt 1 1
vt 1 0
vt 0 0
vt 0 1
vt 1 1
vt 1 0
vt 0 0
vt 0 1
vt 1 1
vt 1 0
vt 0 0
vt 0 1
vt 1 1
vt 1 0
vt 0 0
vt 0 1
vt 1 1
vt 1 0
vt 0 0
vt 0 1
vt 1 1
vt 1 0
vt 0 0
vt 0 1
vt 1 1
vt 1 0
vt 0 0
vt 0 1
vt 1 1
vt 1 0
vt 0 0
vt 0 1
vt 1 1
vt 1 0
vt 0 0
vt 0 1
vt 1 1
vt 1 0
vt 0 0
vt 0 1
vt 1 1
vt 1 0
vt 0 0
vt 0 1
vt 1 1
vt 1 0
vt 0 0
vt 0 1
vt 1 1
vt 1 0
vt 0 0
vt 0 1
vt 1 1
vt 1 0
vt 0 0
vt 0 1
vt 1 1
vt 1 0
vt 0 0
vt 0 1
vt 1 1
vt 1 0
vt 0 0
vt 0 1
vt 1 1
vt 1 0
vt 0 0
vt 0 1
vt 1 1
vt 1 0
vt 0 0
vt 0 1
vt 1 1
vt 1 0
vt 0 0
vt 0 1
vt 1 1
vt 1 0
vt 0 0
vt 0 1
vt 1 1
vt 1 0
vt 0 0
vt 0 1
vt 1 1
vt 1 0
vt 0 0
vt 0 1
vt 1 1
vt 1 0
vt 0 0
vt 0 1
vt 1 1
vt 1 0
vt 0 0
vt 0 1
vt 1 1
vt 1 0
vt 0 0
vt 0 1
vt 1 1
vt 1 0
vt 0 0
vt 0 1
vt 1 1
vt 1 0
vt 0 0
vt 0 1
vt 1 1
vt 1 0
vt 0 0
vt 0 1
vt 1 1
vt 1 0
vt 0 0
vt 0.5 1
vt 1 0
vt 0 0
vt 0.5 1
vt 1 0
vt 0 0
vt 0.5 1
vt 1 0
vt 0 0
vt 0.5 1
vt 1 0
vt 0 0
vt 0.5 1
vt 1 0
vt 0 0
vt 0.5 1
vt 1 0
vt 0 0
vt 0.5 1
vt 1 0
vt 0 0
vt 0.5 1
vt 1 0
vt 0 0
vt 0.5 1
vt 1 0
vt 0 0
vt 0.5 1
vt 1 0

g pCylinder3_29_3924_209
usemtl pCylinder3_29_3924_209
usemap pCylinder3_29_3924_209
f 1/1/1 3/3/3 2/2/2
f 4/4/4 1/1/1 2/2/2
f 5/5/5 4/4/4 2/2/2
f 6/6/6 5/5/5 2/2/2
f 7/7/7 6/6/6 2/2/2
f 8/8/8 7/7/7 2/2/2
f 9/9/9 8/8/8 2/2/2
f 10/10/10 9/9/9 2/2/2
f 11/11/11 10/10/10 2/2/2
f 3/3/3 11/11/11 2/2/2
f 12/12/12 14/14/14 13/13/13
f 12/12/12 15/15/15 14/14/14
f 16/16/16 18/18/18 17/17/17
f 16/16/16 19/19/19 18/18/18
f 20/20/20 22/22/22 21/21/21
f 20/20/20 23/23/23 22/22/22
f 24/24/24 26/26/26 25/25/25
f 24/24/24 27/27/27 26/26/26
f 28/28/28 30/30/30 29/29/29
f 28/28/28 31/31/31 30/30/30
f 32/32/32 34/34/34 33/33/33
f 32/32/32 35/35/35 34/34/34
f 36/36/36 38/38/38 37/37/37
f 36/36/36 39/39/39 38/38/38
f 40/40/40 42/42/42 41/41/41
f 40/40/40 43/43/43 42/42/42
f 44/44/44 46/46/46 45/45/45
f 44/44/44 47/47/47 46/46/46
f 48/48/48 50/50/50 49/49/49
f 48/48/48 51/51/51 50/50/50
f 52/52/52 54/54/54 53/53/53
f 52/52/52 55/55/55 54/54/54
f 56/56/56 58/58/58 57/57/57
f 56/56/56 59/59/59 58/58/58
f 60/60/60 62/62/62 61/61/61
f 60/60/60 63/63/63 62/62/62
f 64/64/64 66/66/66 65/65/65
f 64/64/64 67/67/67 66/66/66
f 68/68/68 70/70/70 69/69/69
f 68/68/68 71/71/71 70/70/70
f 72/72/72 74/74/74 73/73/73
f 72/72/72 75/75/75 74/74/74
f 76/76/76 78/78/78 77/77/77
f 76/76/76 79/79/79 78/78/78
f 80/80/80 82/82/82 81/81/81
f 80/80/80 83/83/83 82/82/82
f 84/84/84 86/86/86 85/85/85
f 84/84/84 87/87/87 86/86/86
f 88/88/88 90/90/90 89/89/89
f 88/88/88 91/91/91 90/90/90
f 92/92/92 94/94/94 93/93/93
f 92/92/92 95/95/95 94/94/94
f 96/96/96 98/98/98 97/97/97
f 96/96/96 99/99/99 98/98/98
f 100/100/100 102/102/102 101/101/101
f 100/100/100 103/103/103 102/102/102
f 104/104/104 106/106/106 105/105/105
f 104/104/104 107/107/107 106/106/106
f 108/108/108 110/110/110 109/109/109
f 108/108/108 111/111/111 110/110/110
f 112/112/112 114/114/114 113/113/113
f 112/112/112 115/115/115 114/114/114
f 116/116/116 118/118/118 117/117/117
f 116/116/116 119/119/119 118/118/118
f 120/120/120 122/122/122 121/121/121
f 120/120/120 123/123/123 122/122/122
f 124/124/124 126/126/126 125/125/125
f 124/124/124 127/127/127 126/126/126
f 128/128/128 130/130/130 129/129/129
f 128/128/128 131/131/131 130/130/130
f 132/132/132 134/134/134 133/133/133
f 132/132/132 135/135/135 134/134/134
f 136/136/136 138/138/138 137/137/137
f 136/136/136 139/139/139 138/138/138
f 140/140/140 142/142/142 141/141/141
f 140/140/140 143/143/143 142/142/142
f 144/144/144 146/146/146 145/145/145
f 144/144/144 147/147/147 146/146/146
f 148/148/148 150/150/150 149/149/149
f 148/148/148 151/151/151 150/150/150
f 152/152/152 154/154/154 153/153/153
f 152/152/152 155/155/155 154/154/154
f 156/156/156 158/158/158 157/157/157
f 156/156/156 159/159/159 158/158/158
f 160/160/160 162/162/162 161/161/161
f 160/160/160 163/163/163 162/162/162
f 164/164/164 166/166/166 165/165/165
f 164/164/164 167/167/167 166/166/166
f 168/168/168 170/170/170 169/169/169
f 168/168/168 171/171/171 170/170/170
f 172/172/172 174/174/174 173/173/173
f 175/175/175 177/177/177 176/176/176
f 178/178/178 180/180/180 179/179/179
f 181/181/181 183/183/183 182/182/182
f 184/184/184 186/186/186 185/185/185
f 187/187/187 189/189/189 188/188/188
f 190/190/190 192/192/192 191/191/191
f 193/193/193 195/195/195 194/194/194
f 196/196/196 198/198/198 197/197/197
f 199/199/199 201/201/201 200/200/200
