#pCylinder3_4_3511_138.obj

v 0.01454531 -0.0257757 -0.04035824
v 0.004623857 -0.03397631 0.001091461
v 0.03878449 -0.02577575 -0.02105471
v -0.009663419 -0.02577577 -0.03817534
v -0.0182508 -0.02577587 -0.01778036
v -0.03822213 -0.02223244 0.001091458
v -0.02135087 -0.02577569 0.01996325
v -0.005297602 -0.02577569 0.03271806
v 0.02109403 -0.02577588 0.04035826
v 0.03059857 -0.02577574 0.01996326
v 0.03218946 -0.02223246 0.001091469
v 0.03878449 -0.02577575 -0.02105471
v 0.04796689 -0.01489259 -0.02772609
v 0.01805266 -0.01489247 -0.05115275
v 0.01454531 -0.0257757 -0.04035824
v 0.01454531 -0.0257757 -0.04035824
v 0.01805266 -0.01489247 -0.05115275
v -0.01317077 -0.01489245 -0.04896984
v -0.009663419 -0.02577577 -0.03817534
v -0.009663419 -0.02577577 -0.03817534
v -0.01317077 -0.01489245 -0.04896984
v -0.02743319 -0.01489257 -0.02445174
v -0.0182508 -0.02577587 -0.01778036
v -0.0182508 -0.02577587 -0.01778036
v -0.02743319 -0.01489257 -0.02445174
v -0.04796693 -0.01288824 0.001091452
v -0.03822213 -0.02223244 0.001091458
v -0.03822213 -0.02223244 0.001091458
v -0.04796693 -0.01288824 0.001091452
v -0.03053326 -0.01489256 0.02663464
v -0.02135087 -0.02577569 0.01996325
v -0.02135087 -0.02577569 0.01996325
v -0.03053326 -0.01489256 0.02663464
v -0.008804956 -0.01489243 0.04351255
v -0.005297602 -0.02577569 0.03271806
v -0.005297602 -0.02577569 0.03271806
v -0.008804956 -0.01489243 0.04351255
v 0.02460139 -0.01489249 0.05115274
v 0.02109403 -0.02577588 0.04035826
v 0.02109403 -0.02577588 0.04035826
v 0.02460139 -0.01489249 0.05115274
v 0.03978096 -0.01489254 0.02663467
v 0.03059857 -0.02577574 0.01996326
v 0.03059857 -0.02577574 0.01996326
v 0.03978096 -0.01489254 0.02663467
v 0.04193426 -0.01288824 0.00109147
v 0.03218946 -0.02223246 0.001091469
v 0.03218946 -0.02223246 0.001091469
v 0.04193426 -0.01288824 0.00109147
v 0.04796689 -0.01489259 -0.02772609
v 0.03878449 -0.02577575 -0.02105471
v 0.04796689 -0.01489259 -0.02772609
v 0.04796689 -0.0001484368 -0.02772609
v 0.01805266 -0.0001485226 -0.05115274
v 0.01805266 -0.01489247 -0.05115275
v 0.01805266 -0.01489247 -0.05115275
v 0.01805266 -0.0001485226 -0.05115274
v -0.01317077 -0.0001485074 -0.04896984
v -0.01317077 -0.01489245 -0.04896984
v -0.01317077 -0.01489245 -0.04896984
v -0.01317077 -0.0001485074 -0.04896984
v -0.02743319 -0.0001484074 -0.02445174
v -0.02743319 -0.01489257 -0.02445174
v -0.02743319 -0.01489257 -0.02445174
v -0.02743319 -0.0001484074 -0.02445174
v -0.04796693 -0.0002295957 0.001091447
v -0.04796693 -0.01288824 0.001091452
v -0.04796693 -0.01288824 0.001091452
v -0.04796693 -0.0002295957 0.001091447
v -0.03053326 -0.0001483999 0.02663465
v -0.03053326 -0.01489256 0.02663464
v -0.03053326 -0.01489256 0.02663464
v -0.03053326 -0.0001483999 0.02663465
v -0.008804948 -0.0001484821 0.04351255
v -0.008804956 -0.01489243 0.04351255
v -0.008804956 -0.01489243 0.04351255
v -0.008804948 -0.0001484821 0.04351255
v 0.02460138 -0.0001485488 0.05115274
v 0.02460139 -0.01489249 0.05115274
v 0.02460139 -0.01489249 0.05115274
v 0.02460138 -0.0001485488 0.05115274
v 0.03978097 -0.0001483847 0.02663466
v 0.03978096 -0.01489254 0.02663467
v 0.03978096 -0.01489254 0.02663467
v 0.03978097 -0.0001483847 0.02663466
v 0.04193427 -0.0002295963 0.00109147
v 0.04193426 -0.01288824 0.00109147
v 0.04193426 -0.01288824 0.00109147
v 0.04193427 -0.0002295963 0.00109147
v 0.04796689 -0.0001484368 -0.02772609
v 0.04796689 -0.01489259 -0.02772609
v 0.04796689 -0.0001484368 -0.02772609
v 0.04568889 0.01428313 -0.0253968
v 0.0171451 0.01428323 -0.04799126
v 0.01805266 -0.0001485226 -0.05115274
v 0.01805266 -0.0001485226 -0.05115274
v 0.0171451 0.01428323 -0.04799126
v -0.01182911 0.01428331 -0.04559765
v -0.01317077 -0.0001485074 -0.04896984
v -0.01317077 -0.0001485074 -0.04896984
v -0.01182911 0.01428331 -0.04559765
v -0.02321029 0.0142832 -0.02180639
v -0.02743319 -0.0001484074 -0.02445174
v -0.02743319 -0.0001484074 -0.02445174
v -0.02321029 0.0142832 -0.02180639
v -0.0453041 0.01197197 0.001196802
v -0.04796693 -0.0002295957 0.001091447
v -0.04796693 -0.0002295957 0.001091447
v -0.0453041 0.01197197 0.001196802
v -0.02660961 0.01428313 0.0242
v -0.03053326 -0.0001483999 0.02663465
v -0.03053326 -0.0001483999 0.02663465
v -0.02660961 0.01428313 0.0242
v -0.007041881 0.01428332 0.03961357
v -0.008804948 -0.0001484821 0.04351255
v -0.008804948 -0.0001484821 0.04351255
v -0.007041881 0.01428332 0.03961357
v 0.02432594 0.01428324 0.04799125
v 0.02460138 -0.0001485488 0.05115274
v 0.02460138 -0.0001485488 0.05115274
v 0.02432594 0.01428324 0.04799125
v 0.03671281 0.01428318 0.02420001
v 0.03978097 -0.0001483847 0.02663466
v 0.03978097 -0.0001483847 0.02663466
v 0.03671281 0.01428318 0.02420001
v 0.03865198 0.01197194 0.001196823
v 0.04193427 -0.0002295963 0.00109147
v 0.04193427 -0.0002295963 0.00109147
v 0.03865198 0.01197194 0.001196823
v 0.04568889 0.01428313 -0.0253968
v 0.04796689 -0.0001484368 -0.02772609
v 0.04568889 0.01428313 -0.0253968
v 0.03225245 0.02437418 -0.01614766
v 0.01203645 0.02437432 -0.03256862
v 0.0171451 0.01428323 -0.04799126
v 0.0171451 0.01428323 -0.04799126
v 0.01203645 0.02437432 -0.03256862
v -0.002592248 0.02437423 -0.02139381
v -0.01182911 0.01428331 -0.04559765
v -0.01182911 0.01428331 -0.04559765
v -0.002592248 0.02437423 -0.02139381
v -0.01125313 0.02437432 -0.01279522
v -0.02321029 0.0142832 -0.02180639
v -0.02321029 0.0142832 -0.02180639
v -0.01125313 0.02437432 -0.01279522
v -0.03124472 0.02074639 0.001117476
v -0.0453041 0.01197197 0.001196802
v -0.0453041 0.01197197 0.001196802
v -0.03124472 0.02074639 0.001117476
v -0.01442713 0.02437417 0.01503021
v -0.02660961 0.01428313 0.0242
v -0.02660961 0.01428313 0.0242
v -0.01442713 0.02437417 0.01503021
v -0.002592249 0.02437429 0.02474624
v -0.007041881 0.01428332 0.03961357
v -0.007041881 0.01428332 0.03961357
v -0.002592249 0.02437429 0.02474624
v 0.01874133 0.02437419 0.03256861
v 0.02432594 0.01428324 0.04799125
v 0.02432594 0.01428324 0.04799125
v 0.01874133 0.02437419 0.03256861
v 0.02387133 0.0243742 0.01503022
v 0.03671281 0.01428318 0.02420001
v 0.03671281 0.01428318 0.02420001
v 0.02387133 0.0243742 0.01503022
v 0.02504417 0.02074635 0.001117489
v 0.03865198 0.01197194 0.001196823
v 0.03865198 0.01197194 0.001196823
v 0.02504417 0.02074635 0.001117489
v 0.03225245 0.02437418 -0.01614766
v 0.04568889 0.01428313 -0.0253968
v 0.03225245 0.02437418 -0.01614766
v 0.004623851 0.03397594 0.00109143
v 0.01203645 0.02437432 -0.03256862
v 0.01203645 0.02437432 -0.03256862
v 0.004623851 0.03397594 0.00109143
v -0.002592248 0.02437423 -0.02139381
v -0.002592248 0.02437423 -0.02139381
v 0.004623851 0.03397594 0.00109143
v -0.01125313 0.02437432 -0.01279522
v -0.01125313 0.02437432 -0.01279522
v 0.004623851 0.03397594 0.00109143
v -0.03124472 0.02074639 0.001117476
v -0.03124472 0.02074639 0.001117476
v 0.004623851 0.03397594 0.00109143
v -0.01442713 0.02437417 0.01503021
v -0.01442713 0.02437417 0.01503021
v 0.004623851 0.03397594 0.00109143
v -0.002592249 0.02437429 0.02474624
v -0.002592249 0.02437429 0.02474624
v 0.004623851 0.03397594 0.00109143
v 0.01874133 0.02437419 0.03256861
v 0.01874133 0.02437419 0.03256861
v 0.004623851 0.03397594 0.00109143
v 0.02387133 0.0243742 0.01503022
v 0.02387133 0.0243742 0.01503022
v 0.004623851 0.03397594 0.00109143
v 0.02504417 0.02074635 0.001117489
v 0.02504417 0.02074635 0.001117489
v 0.004623851 0.03397594 0.00109143
v 0.03225245 0.02437418 -0.01614766

vn -0.08213866 -0.9821199 -0.1693911
vn 0.004607994 -0.9999883 -0.001345913
vn 0.1043381 -0.9780498 -0.1803658
vn -0.1795202 -0.9817127 -0.0633424
vn -0.2523582 -0.9611291 0.1120077
vn -0.1955581 -0.9649781 0.1748541
vn -0.0773594 -0.9682872 0.2375605
vn 0.08949508 -0.9700508 0.2258131
vn 0.1727803 -0.981259 0.0853074
vn 0.2216169 -0.957776 -0.1831685
vn 0.3484853 -0.9141974 -0.2068833
vn -0.08347684 -0.7041122 -0.7051649
vn -0.0834769 -0.7041122 -0.7051648
vn -0.08347681 -0.7041122 -0.7051648
vn -0.0834769 -0.7041122 -0.7051648
vn -0.5400999 -0.7049007 -0.4597901
vn -0.5400999 -0.7049008 -0.4597901
vn -0.5400999 -0.7049007 -0.4597901
vn -0.5400999 -0.7049007 -0.4597901
vn -0.7094169 -0.6645706 0.2346772
vn -0.709417 -0.6645706 0.2346772
vn -0.7094169 -0.6645706 0.2346772
vn -0.709417 -0.6645706 0.2346772
vn -0.7180359 -0.6888877 0.09928697
vn -0.7180361 -0.6888877 0.09928706
vn -0.7180361 -0.6888877 0.09928703
vn -0.718036 -0.6888877 0.09928706
vn -0.1541973 -0.696003 0.7012864
vn -0.1541973 -0.696003 0.7012864
vn -0.1541973 -0.6960029 0.7012865
vn -0.1541973 -0.696003 0.7012866
vn 0.09038073 -0.7037645 0.7046607
vn 0.09038067 -0.7037645 0.7046607
vn 0.09038067 -0.7037645 0.7046605
vn 0.0903807 -0.7037645 0.7046605
vn 0.3725305 -0.6917085 0.6186762
vn 0.3725304 -0.6917086 0.6186762
vn 0.3725305 -0.6917086 0.6186762
vn 0.3725305 -0.6917085 0.6186762
vn 0.7161636 -0.6654029 -0.210591
vn 0.7161635 -0.6654029 -0.210591
vn 0.7161635 -0.6654029 -0.210591
vn 0.7161636 -0.6654029 -0.2105911
vn 0.50287 -0.6772175 -0.53712
vn 0.50287 -0.6772175 -0.53712
vn 0.50287 -0.6772175 -0.53712
vn 0.50287 -0.6772175 -0.53712
vn 0.706952 -0.6130962 -0.352607
vn 0.706952 -0.6130961 -0.3526071
vn 0.706952 -0.6130962 -0.352607
vn 0.706952 -0.6130962 -0.352607
vn -0.1245756 -0.0002803791 -0.9922101
vn -0.1245755 -0.0002803789 -0.9922101
vn -0.1245755 -0.0002803789 -0.9922101
vn -0.1245756 -0.0002803791 -0.9922101
vn -0.7572294 -0.002507797 -0.6531443
vn -0.7572294 -0.002507797 -0.6531443
vn -0.7572294 -0.002507797 -0.6531443
vn -0.7572294 -0.002507797 -0.6531443
vn -0.9657629 -0.003361636 0.2594047
vn -0.9657629 -0.003361636 0.2594047
vn -0.9657629 -0.003361636 0.2594047
vn -0.9657629 -0.003361636 0.2594047
vn -0.9937104 -0.00343576 0.1119286
vn -0.9937104 -0.00343576 0.1119286
vn -0.9937104 -0.00343576 0.1119286
vn -0.9937104 -0.00343576 0.1119286
vn -0.1816176 -0.0007718119 0.9833689
vn -0.1816176 -0.0007718119 0.9833689
vn -0.1816175 -0.0007718116 0.983369
vn -0.1816176 -0.0007718119 0.9833689
vn 0.1284967 0.0002939452 0.9917099
vn 0.1284967 0.0002939452 0.9917099
vn 0.1284967 0.0002939452 0.9917099
vn 0.1284967 0.0002939452 0.9917099
vn 0.5349318 0.001714293 0.8448935
vn 0.5349318 0.001714293 0.8448935
vn 0.5349318 0.001714293 0.8448935
vn 0.5349318 0.001714293 0.8448935
vn 0.9725296 0.003380937 -0.2327548
vn 0.9725296 0.003380937 -0.2327548
vn 0.9725296 0.003380937 -0.2327548
vn 0.9725296 0.003380937 -0.2327548
vn 0.7614989 0.002716913 -0.6481605
vn 0.7614989 0.002716913 -0.6481605
vn 0.7614989 0.002716913 -0.6481605
vn 0.7614989 0.002716913 -0.6481605
vn 0.8348595 0.002954725 -0.5504552
vn 0.8348595 0.002954725 -0.5504552
vn 0.8348595 0.002954725 -0.5504552
vn 0.8348595 0.002954725 -0.5504552
vn -0.1199823 0.2124904 -0.9697691
vn -0.1199824 0.2124904 -0.969769
vn -0.1199824 0.2124904 -0.969769
vn -0.1199824 0.2124904 -0.969769
vn -0.743086 0.2187724 -0.6324254
vn -0.743086 0.2187724 -0.6324254
vn -0.743086 0.2187724 -0.6324254
vn -0.743086 0.2187724 -0.6324254
vn -0.9232865 0.2556786 0.2866541
vn -0.9232866 0.2556786 0.2866541
vn -0.9232866 0.2556786 0.286654
vn -0.9232865 0.2556785 0.2866541
vn -0.9649337 0.251305 0.07582209
vn -0.9649336 0.251305 0.07582203
vn -0.9649337 0.251305 0.07582209
vn -0.9649336 0.251305 0.07582211
vn -0.1473853 0.2431331 0.9587304
vn -0.1473853 0.2431331 0.9587304
vn -0.1473854 0.2431331 0.9587303
vn -0.1473853 0.243133 0.9587304
vn 0.1192333 0.28253 0.9518194
vn 0.1192332 0.28253 0.9518194
vn 0.1192333 0.28253 0.9518194
vn 0.1192333 0.28253 0.9518194
vn 0.5036511 0.2439965 0.8287348
vn 0.5036511 0.2439965 0.8287348
vn 0.5036511 0.2439965 0.8287348
vn 0.5036511 0.2439965 0.8287348
vn 0.9447888 0.1962979 -0.2623763
vn 0.9447888 0.1962979 -0.2623763
vn 0.9447888 0.196298 -0.2623762
vn 0.9447888 0.196298 -0.2623763
vn 0.7313565 0.2397713 -0.638457
vn 0.7313566 0.2397713 -0.638457
vn 0.7313566 0.2397713 -0.638457
vn 0.7313566 0.2397713 -0.638457
vn 0.8382388 0.181224 -0.5143086
vn 0.8382388 0.1812241 -0.5143087
vn 0.8382388 0.1812241 -0.5143086
vn 0.8382388 0.1812241 -0.5143086
vn -0.06538868 0.8366978 -0.5437469
vn -0.06538874 0.8366978 -0.5437469
vn -0.06538868 0.8366978 -0.5437469
vn -0.06538874 0.8366978 -0.5437469
vn -0.4102245 0.8870578 -0.2117641
vn -0.4102245 0.8870577 -0.2117641
vn -0.4102245 0.8870578 -0.2117641
vn -0.4102244 0.8870578 -0.2117641
vn -0.48361 0.8676583 0.1152819
vn -0.4836101 0.8676583 0.1152819
vn -0.48361 0.8676583 0.1152819
vn -0.4836101 0.8676583 0.1152819
vn -0.5941347 0.8028545 0.04927593
vn -0.5941347 0.8028546 0.04927593
vn -0.5941347 0.8028546 0.04927593
vn -0.5941347 0.8028546 0.04927593
vn -0.1064961 0.8180819 0.565155
vn -0.1064961 0.818082 0.565155
vn -0.1064962 0.8180819 0.565155
vn -0.1064961 0.8180819 0.565155
vn 0.06212428 0.8223961 0.5655131
vn 0.06212422 0.822396 0.5655131
vn 0.06212428 0.822396 0.5655131
vn 0.06212422 0.822396 0.5655131
vn 0.2689403 0.8180896 0.5083308
vn 0.2689403 0.8180896 0.5083308
vn 0.2689403 0.8180896 0.5083308
vn 0.2689403 0.8180896 0.5083308
vn 0.5571867 0.7981902 -0.2289872
vn 0.5571867 0.7981902 -0.2289872
vn 0.5571867 0.7981902 -0.2289872
vn 0.5571867 0.7981902 -0.2289872
vn 0.362199 0.7998356 -0.4786175
vn 0.3621989 0.7998356 -0.4786174
vn 0.3621989 0.7998356 -0.4786174
vn 0.362199 0.7998356 -0.4786175
vn 0.6400962 0.7347788 -0.2244479
vn 0.6400962 0.7347788 -0.2244479
vn 0.6400962 0.7347788 -0.2244479
vn 0.6400962 0.7347788 -0.2244479
vn -0.03509422 0.9546158 -0.2957645
vn -0.03509425 0.9546158 -0.2957645
vn -0.03509422 0.9546158 -0.2957645
vn -0.39609 0.916799 -0.05091102
vn -0.39609 0.916799 -0.05091105
vn -0.39609 0.916799 -0.05091105
vn -0.418279 0.9083184 0.0002439022
vn -0.418279 0.9083184 0.0002438873
vn -0.418279 0.9083184 0.0002439171
vn -0.4135451 0.9081077 0.06573151
vn -0.4135451 0.9081077 0.06573153
vn -0.4135451 0.9081077 0.06573153
vn -0.1219133 0.9239785 0.3624922
vn -0.1219132 0.9239785 0.3624921
vn -0.1219133 0.9239785 0.3624922
vn 0.03620748 0.9220577 0.3853546
vn 0.03620748 0.9220578 0.3853546
vn 0.03620748 0.9220578 0.3853546
vn 0.1504408 0.9324939 0.3283628
vn 0.1504408 0.9324939 0.3283628
vn 0.1504408 0.9324939 0.3283628
vn 0.3418652 0.9202448 -0.1904663
vn 0.3418653 0.9202448 -0.1904663
vn 0.3418653 0.9202447 -0.1904663
vn 0.2536534 0.8278344 -0.5003498
vn 0.2536534 0.8278344 -0.5003498
vn 0.2536534 0.8278344 -0.5003498
vn 0.6177473 0.7807184 -0.0941644
vn 0.6177472 0.7807184 -0.09416431
vn 0.6177473 0.7807184 -0.09416437

vt 0.5482839 0.007647395
vt 0.5 0.15
vt 0.6264089 0.06440853
vt 0.4517161 0.00764741
vt 0.3735911 0.06440856
vt 0.34375 0.15625
vt 0.3735911 0.2480915
vt 0.4517161 0.3048526
vt 0.5482839 0.3048526
vt 0.6264089 0.2480914
vt 0.65625 0.15625
vt 0 0
vt 0 1
vt 1 1
vt 1 0
vt 0 0
vt 0 1
vt 1 1
vt 1 0
vt 0 0
vt 0 1
vt 1 1
vt 1 0
vt 0 0
vt 0 1
vt 1 1
vt 1 0
vt 0 0
vt 0 1
vt 1 1
vt 1 0
vt 0 0
vt 0 1
vt 1 1
vt 1 0
vt 0 0
vt 0 1
vt 1 1
vt 1 0
vt 0 0
vt 0 1
vt 1 1
vt 1 0
vt 0 0
vt 0 1
vt 1 1
vt 1 0
vt 0 0
vt 0 1
vt 1 1
vt 1 0
vt 0 0
vt 0 1
vt 1 1
vt 1 0
vt 0 0
vt 0 1
vt 1 1
vt 1 0
vt 0 0
vt 0 1
vt 1 1
vt 1 0
vt 0 0
vt 0 1
vt 1 1
vt 1 0
vt 0 0
vt 0 1
vt 1 1
vt 1 0
vt 0 0
vt 0 1
vt 1 1
vt 1 0
vt 0 0
vt 0 1
vt 1 1
vt 1 0
vt 0 0
vt 0 1
vt 1 1
vt 1 0
vt 0 0
vt 0 1
vt 1 1
vt 1 0
vt 0 0
vt 0 1
vt 1 1
vt 1 0
vt 0 0
vt 0 1
vt 1 1
vt 1 0
vt 0 0
vt 0 1
vt 1 1
vt 1 0
vt 0 0
vt 0 1
vt 1 1
vt 1 0
vt 0 0
vt 0 1
vt 1 1
vt 1 0
vt 0 0
vt 0 1
vt 1 1
vt 1 0
vt 0 0
vt 0 1
vt 1 1
vt 1 0
vt 0 0
vt 0 1
vt 1 1
vt 1 0
vt 0 0
vt 0 1
vt 1 1
vt 1 0
vt 0 0
vt 0 1
vt 1 1
vt 1 0
vt 0 0
vt 0 1
vt 1 1
vt 1 0
vt 0 0
vt 0 1
vt 1 1
vt 1 0
vt 0 0
vt 0 1
vt 1 1
vt 1 0
vt 0 0
vt 0 1
vt 1 1
vt 1 0
vt 0 0
vt 0 1
vt 1 1
vt 1 0
vt 0 0
vt 0 1
vt 1 1
vt 1 0
vt 0 0
vt 0 1
vt 1 1
vt 1 0
vt 0 0
vt 0 1
vt 1 1
vt 1 0
vt 0 0
vt 0 1
vt 1 1
vt 1 0
vt 0 0
vt 0 1
vt 1 1
vt 1 0
vt 0 0
vt 0 1
vt 1 1
vt 1 0
vt 0 0
vt 0.5 1
vt 1 0
vt 0 0
vt 0.5 1
vt 1 0
vt 0 0
vt 0.5 1
vt 1 0
vt 0 0
vt 0.5 1
vt 1 0
vt 0 0
vt 0.5 1
vt 1 0
vt 0 0
vt 0.5 1
vt 1 0
vt 0 0
vt 0.5 1
vt 1 0
vt 0 0
vt 0.5 1
vt 1 0
vt 0 0
vt 0.5 1
vt 1 0
vt 0 0
vt 0.5 1
vt 1 0

g pCylinder3_4_3511_138
usemtl pCylinder3_4_3511_138
usemap pCylinder3_4_3511_138
f 1/1/1 3/3/3 2/2/2
f 4/4/4 1/1/1 2/2/2
f 5/5/5 4/4/4 2/2/2
f 6/6/6 5/5/5 2/2/2
f 7/7/7 6/6/6 2/2/2
f 8/8/8 7/7/7 2/2/2
f 9/9/9 8/8/8 2/2/2
f 10/10/10 9/9/9 2/2/2
f 11/11/11 10/10/10 2/2/2
f 3/3/3 11/11/11 2/2/2
f 12/12/12 14/14/14 13/13/13
f 12/12/12 15/15/15 14/14/14
f 16/16/16 18/18/18 17/17/17
f 16/16/16 19/19/19 18/18/18
f 20/20/20 22/22/22 21/21/21
f 20/20/20 23/23/23 22/22/22
f 24/24/24 26/26/26 25/25/25
f 24/24/24 27/27/27 26/26/26
f 28/28/28 30/30/30 29/29/29
f 28/28/28 31/31/31 30/30/30
f 32/32/32 34/34/34 33/33/33
f 32/32/32 35/35/35 34/34/34
f 36/36/36 38/38/38 37/37/37
f 36/36/36 39/39/39 38/38/38
f 40/40/40 42/42/42 41/41/41
f 40/40/40 43/43/43 42/42/42
f 44/44/44 46/46/46 45/45/45
f 44/44/44 47/47/47 46/46/46
f 48/48/48 50/50/50 49/49/49
f 48/48/48 51/51/51 50/50/50
f 52/52/52 54/54/54 53/53/53
f 52/52/52 55/55/55 54/54/54
f 56/56/56 58/58/58 57/57/57
f 56/56/56 59/59/59 58/58/58
f 60/60/60 62/62/62 61/61/61
f 60/60/60 63/63/63 62/62/62
f 64/64/64 66/66/66 65/65/65
f 64/64/64 67/67/67 66/66/66
f 68/68/68 70/70/70 69/69/69
f 68/68/68 71/71/71 70/70/70
f 72/72/72 74/74/74 73/73/73
f 72/72/72 75/75/75 74/74/74
f 76/76/76 78/78/78 77/77/77
f 76/76/76 79/79/79 78/78/78
f 80/80/80 82/82/82 81/81/81
f 80/80/80 83/83/83 82/82/82
f 84/84/84 86/86/86 85/85/85
f 84/84/84 87/87/87 86/86/86
f 88/88/88 90/90/90 89/89/89
f 88/88/88 91/91/91 90/90/90
f 92/92/92 94/94/94 93/93/93
f 92/92/92 95/95/95 94/94/94
f 96/96/96 98/98/98 97/97/97
f 96/96/96 99/99/99 98/98/98
f 100/100/100 102/102/102 101/101/101
f 100/100/100 103/103/103 102/102/102
f 104/104/104 106/106/106 105/105/105
f 104/104/104 107/107/107 106/106/106
f 108/108/108 110/110/110 109/109/109
f 108/108/108 111/111/111 110/110/110
f 112/112/112 114/114/114 113/113/113
f 112/112/112 115/115/115 114/114/114
f 116/116/116 118/118/118 117/117/117
f 116/116/116 119/119/119 118/118/118
f 120/120/120 122/122/122 121/121/121
f 120/120/120 123/123/123 122/122/122
f 124/124/124 126/126/126 125/125/125
f 124/124/124 127/127/127 126/126/126
f 128/128/128 130/130/130 129/129/129
f 128/128/128 131/131/131 130/130/130
f 132/132/132 134/134/134 133/133/133
f 132/132/132 135/135/135 134/134/134
f 136/136/136 138/138/138 137/137/137
f 136/136/136 139/139/139 138/138/138
f 140/140/140 142/142/142 141/141/141
f 140/140/140 143/143/143 142/142/142
f 144/144/144 146/146/146 145/145/145
f 144/144/144 147/147/147 146/146/146
f 148/148/148 150/150/150 149/149/149
f 148/148/148 151/151/151 150/150/150
f 152/152/152 154/154/154 153/153/153
f 152/152/152 155/155/155 154/154/154
f 156/156/156 158/158/158 157/157/157
f 156/156/156 159/159/159 158/158/158
f 160/160/160 162/162/162 161/161/161
f 160/160/160 163/163/163 162/162/162
f 164/164/164 166/166/166 165/165/165
f 164/164/164 167/167/167 166/166/166
f 168/168/168 170/170/170 169/169/169
f 168/168/168 171/171/171 170/170/170
f 172/172/172 174/174/174 173/173/173
f 175/175/175 177/177/177 176/176/176
f 178/178/178 180/180/180 179/179/179
f 181/181/181 183/183/183 182/182/182
f 184/184/184 186/186/186 185/185/185
f 187/187/187 189/189/189 188/188/188
f 190/190/190 192/192/192 191/191/191
f 193/193/193 195/195/195 194/194/194
f 196/196/196 198/198/198 197/197/197
f 199/199/199 201/201/201 200/200/200
