#pCylinder1_11_4183_129.obj

v 0.01454574 -0.02577564 -0.04035725
v 0.004624289 -0.03397612 0.001092534
v 0.03878494 -0.02577564 -0.0210537
v -0.009663033 -0.02577564 -0.03817438
v -0.01825037 -0.02577564 -0.0177794
v -0.03822165 -0.02223225 0.001092437
v -0.02135047 -0.02577564 0.01996423
v -0.005297177 -0.02577564 0.03271893
v 0.0210945 -0.02577564 0.04035925
v 0.03059897 -0.02577564 0.01996416
v 0.03218988 -0.02223225 0.001092447
v 0.03878494 -0.02577564 -0.0210537
v 0.04796736 -0.01489237 -0.02772517
v 0.0180531 -0.01489237 -0.05115186
v 0.01454574 -0.02577564 -0.04035725
v 0.01454574 -0.02577564 -0.04035725
v 0.0180531 -0.01489237 -0.05115186
v -0.0131703 -0.01489237 -0.04896888
v -0.009663033 -0.02577564 -0.03817438
v -0.009663033 -0.02577564 -0.03817438
v -0.0131703 -0.01489237 -0.04896888
v -0.02743274 -0.01489237 -0.02445068
v -0.01825037 -0.02577564 -0.0177794
v -0.01825037 -0.02577564 -0.0177794
v -0.02743274 -0.01489237 -0.02445068
v -0.04796657 -0.01288818 0.001092371
v -0.03822165 -0.02223225 0.001092437
v -0.03822165 -0.02223225 0.001092437
v -0.04796657 -0.01288818 0.001092371
v -0.03053278 -0.01489237 0.02663565
v -0.02135047 -0.02577564 0.01996423
v -0.02135047 -0.02577564 0.01996423
v -0.03053278 -0.01489237 0.02663565
v -0.008804538 -0.01489237 0.04351354
v -0.005297177 -0.02577564 0.03271893
v -0.005297177 -0.02577564 0.03271893
v -0.008804538 -0.01489237 0.04351354
v 0.02460186 -0.01489237 0.05115371
v 0.0210945 -0.02577564 0.04035925
v 0.0210945 -0.02577564 0.04035925
v 0.02460186 -0.01489237 0.05115371
v 0.03978142 -0.01489237 0.02663563
v 0.03059897 -0.02577564 0.01996416
v 0.03059897 -0.02577564 0.01996416
v 0.03978142 -0.01489237 0.02663563
v 0.04193461 -0.01288818 0.001092362
v 0.03218988 -0.02223225 0.001092447
v 0.03218988 -0.02223225 0.001092447
v 0.04193461 -0.01288818 0.001092362
v 0.04796736 -0.01489237 -0.02772517
v 0.03878494 -0.02577564 -0.0210537
v 0.04796736 -0.01489237 -0.02772517
v 0.04796736 -0.0001482976 -0.02772517
v 0.0180531 -0.0001482976 -0.05115186
v 0.0180531 -0.01489237 -0.05115186
v 0.0180531 -0.01489237 -0.05115186
v 0.0180531 -0.0001482976 -0.05115186
v -0.0131703 -0.0001482976 -0.04896888
v -0.0131703 -0.01489237 -0.04896888
v -0.0131703 -0.01489237 -0.04896888
v -0.0131703 -0.0001482976 -0.04896888
v -0.02743274 -0.0001482976 -0.02445068
v -0.02743274 -0.01489237 -0.02445068
v -0.02743274 -0.01489237 -0.02445068
v -0.02743274 -0.0001482976 -0.02445068
v -0.04796657 -0.000229444 0.001092371
v -0.04796657 -0.01288818 0.001092371
v -0.04796657 -0.01288818 0.001092371
v -0.04796657 -0.000229444 0.001092371
v -0.03053278 -0.0001482976 0.02663565
v -0.03053278 -0.01489237 0.02663565
v -0.03053278 -0.01489237 0.02663565
v -0.03053278 -0.0001482976 0.02663565
v -0.008804538 -0.0001482976 0.04351354
v -0.008804538 -0.01489237 0.04351354
v -0.008804538 -0.01489237 0.04351354
v -0.008804538 -0.0001482976 0.04351354
v 0.02460186 -0.0001482976 0.05115371
v 0.02460186 -0.01489237 0.05115371
v 0.02460186 -0.01489237 0.05115371
v 0.02460186 -0.0001482976 0.05115371
v 0.03978142 -0.0001482976 0.02663563
v 0.03978142 -0.01489237 0.02663563
v 0.03978142 -0.01489237 0.02663563
v 0.03978142 -0.0001482976 0.02663563
v 0.04193461 -0.000229444 0.001092362
v 0.04193461 -0.01288818 0.001092362
v 0.04193461 -0.01288818 0.001092362
v 0.04193461 -0.000229444 0.001092362
v 0.04796736 -0.0001482976 -0.02772517
v 0.04796736 -0.01489237 -0.02772517
v 0.04796736 -0.0001482976 -0.02772517
v 0.04568927 0.01428334 -0.02539586
v 0.01714556 0.01428334 -0.04799033
v 0.0180531 -0.0001482976 -0.05115186
v 0.0180531 -0.0001482976 -0.05115186
v 0.01714556 0.01428334 -0.04799033
v -0.01182872 0.01428334 -0.04559668
v -0.0131703 -0.0001482976 -0.04896888
v -0.0131703 -0.0001482976 -0.04896888
v -0.01182872 0.01428334 -0.04559668
v -0.02320985 0.01428334 -0.02180538
v -0.02743274 -0.0001482976 -0.02445068
v -0.02743274 -0.0001482976 -0.02445068
v -0.02320985 0.01428334 -0.02180538
v -0.04530368 0.01197204 0.001197846
v -0.04796657 -0.000229444 0.001092371
v -0.04796657 -0.000229444 0.001092371
v -0.04530368 0.01197204 0.001197846
v -0.02660917 0.01428334 0.02420107
v -0.03053278 -0.0001482976 0.02663565
v -0.03053278 -0.0001482976 0.02663565
v -0.02660917 0.01428334 0.02420107
v -0.007041506 0.01428334 0.03961447
v -0.008804538 -0.0001482976 0.04351354
v -0.008804538 -0.0001482976 0.04351354
v -0.007041506 0.01428334 0.03961447
v 0.0243264 0.01428334 0.04799224
v 0.02460186 -0.0001482976 0.05115371
v 0.02460186 -0.0001482976 0.05115371
v 0.0243264 0.01428334 0.04799224
v 0.03671328 0.01428334 0.02420099
v 0.03978142 -0.0001482976 0.02663563
v 0.03978142 -0.0001482976 0.02663563
v 0.03671328 0.01428334 0.02420099
v 0.03865239 0.01197204 0.001197807
v 0.04193461 -0.000229444 0.001092362
v 0.04193461 -0.000229444 0.001092362
v 0.03865239 0.01197204 0.001197807
v 0.04568927 0.01428334 -0.02539586
v 0.04796736 -0.0001482976 -0.02772517
v 0.04568927 0.01428334 -0.02539586
v 0.03225293 0.02437439 -0.01614667
v 0.01203689 0.02437439 -0.03256758
v 0.01714556 0.01428334 -0.04799033
v 0.01714556 0.01428334 -0.04799033
v 0.01203689 0.02437439 -0.03256758
v -0.002591863 0.02437439 -0.02139289
v -0.01182872 0.01428334 -0.04559668
v -0.01182872 0.01428334 -0.04559668
v -0.002591863 0.02437439 -0.02139289
v -0.01125271 0.02437439 -0.01279417
v -0.02320985 0.01428334 -0.02180538
v -0.02320985 0.01428334 -0.02180538
v -0.01125271 0.02437439 -0.01279417
v -0.03124429 0.02074649 0.001118432
v -0.04530368 0.01197204 0.001197846
v -0.04530368 0.01197204 0.001197846
v -0.03124429 0.02074649 0.001118432
v -0.01442669 0.02437439 0.0150311
v -0.02660917 0.01428334 0.02420107
v -0.02660917 0.01428334 0.02420107
v -0.01442669 0.02437439 0.0150311
v -0.002591787 0.02437439 0.02474726
v -0.007041506 0.01428334 0.03961447
v -0.007041506 0.01428334 0.03961447
v -0.002591787 0.02437439 0.02474726
v 0.01874176 0.02437439 0.03256948
v 0.0243264 0.01428334 0.04799224
v 0.0243264 0.01428334 0.04799224
v 0.01874176 0.02437439 0.03256948
v 0.0238717 0.02437439 0.01503116
v 0.03671328 0.01428334 0.02420099
v 0.03671328 0.01428334 0.02420099
v 0.0238717 0.02437439 0.01503116
v 0.02504463 0.02074649 0.001118473
v 0.03865239 0.01197204 0.001197807
v 0.03865239 0.01197204 0.001197807
v 0.02504463 0.02074649 0.001118473
v 0.03225293 0.02437439 -0.01614667
v 0.04568927 0.01428334 -0.02539586
v 0.03225293 0.02437439 -0.01614667
v 0.004624203 0.03397609 0.001092341
v 0.01203689 0.02437439 -0.03256758
v 0.01203689 0.02437439 -0.03256758
v 0.004624203 0.03397609 0.001092341
v -0.002591863 0.02437439 -0.02139289
v -0.002591863 0.02437439 -0.02139289
v 0.004624203 0.03397609 0.001092341
v -0.01125271 0.02437439 -0.01279417
v -0.01125271 0.02437439 -0.01279417
v 0.004624203 0.03397609 0.001092341
v -0.03124429 0.02074649 0.001118432
v -0.03124429 0.02074649 0.001118432
v 0.004624203 0.03397609 0.001092341
v -0.01442669 0.02437439 0.0150311
v -0.01442669 0.02437439 0.0150311
v 0.004624203 0.03397609 0.001092341
v -0.002591787 0.02437439 0.02474726
v -0.002591787 0.02437439 0.02474726
v 0.004624203 0.03397609 0.001092341
v 0.01874176 0.02437439 0.03256948
v 0.01874176 0.02437439 0.03256948
v 0.004624203 0.03397609 0.001092341
v 0.0238717 0.02437439 0.01503116
v 0.0238717 0.02437439 0.01503116
v 0.004624203 0.03397609 0.001092341
v 0.02504463 0.02074649 0.001118473
v 0.02504463 0.02074649 0.001118473
v 0.004624203 0.03397609 0.001092341
v 0.03225293 0.02437439 -0.01614667

vn -0.1659374 -0.9746063 -0.1503573
vn 0.0007859917 -0.999998 -0.001826786
vn 0.03494699 -0.9698725 -0.2410933
vn -0.2283099 -0.9735574 0.007779882
vn -0.2323572 -0.9450633 0.2299248
vn -0.1441272 -0.9505204 0.2752058
vn 0.01164082 -0.955556 0.2945798
vn 0.1897851 -0.9587457 0.2116325
vn 0.2229276 -0.9745761 0.02246822
vn 0.1616786 -0.9428011 -0.2915238
vn 0.2858624 -0.8860961 -0.3648512
vn -0.3602265 -0.6400556 -0.67865
vn -0.3602265 -0.6400556 -0.67865
vn -0.3602264 -0.6400556 -0.67865
vn -0.3602265 -0.6400556 -0.67865
vn -0.7260023 -0.6391844 -0.2537008
vn -0.7260023 -0.6391844 -0.2537008
vn -0.7260023 -0.6391844 -0.2537008
vn -0.7260023 -0.6391842 -0.2537008
vn -0.6215376 -0.5961947 0.5081761
vn -0.6215376 -0.5961946 0.5081761
vn -0.6215376 -0.5961947 0.5081761
vn -0.6215376 -0.5961946 0.5081761
vn -0.6860451 -0.621523 0.3782212
vn -0.6860451 -0.621523 0.3782213
vn -0.6860451 -0.621523 0.3782212
vn -0.6860451 -0.621523 0.3782213
vn 0.113703 -0.6309733 0.7674271
vn 0.113703 -0.6309733 0.7674271
vn 0.113703 -0.6309732 0.7674271
vn 0.113703 -0.6309733 0.7674271
vn 0.3621959 -0.640098 0.6775607
vn 0.3621959 -0.640098 0.6775608
vn 0.3621959 -0.6400981 0.6775607
vn 0.3621959 -0.6400981 0.6775607
vn 0.6121767 -0.6283637 0.4799986
vn 0.6121767 -0.6283638 0.4799986
vn 0.6121767 -0.6283638 0.4799986
vn 0.6121767 -0.6283637 0.4799986
vn 0.6338615 -0.602204 -0.4853555
vn 0.6338615 -0.602204 -0.4853554
vn 0.6338615 -0.602204 -0.4853554
vn 0.6338614 -0.602204 -0.4853555
vn 0.2953965 -0.6137943 -0.7321185
vn 0.2953965 -0.6137943 -0.7321184
vn 0.2953965 -0.6137943 -0.7321185
vn 0.2953965 -0.6137943 -0.7321185
vn 0.5638338 -0.5488456 -0.6171384
vn 0.5638338 -0.5488456 -0.6171384
vn 0.5638338 -0.5488456 -0.6171384
vn 0.5638338 -0.5488456 -0.6171384
vn -0.4720788 1.612669E-16 -0.8815564
vn -0.4720787 1.612669E-16 -0.8815564
vn -0.4720787 1.612669E-16 -0.8815564
vn -0.4720788 1.612669E-16 -0.8815564
vn -0.9410815 2.054603E-16 -0.33818
vn -0.9410815 2.054603E-16 -0.33818
vn -0.9410815 2.054603E-16 -0.33818
vn -0.9410815 2.054603E-16 -0.33818
vn -0.8085262 1.046591E-16 0.5884601
vn -0.8085262 1.046591E-16 0.5884601
vn -0.8085262 1.046591E-16 0.5884601
vn -0.8085262 1.046591E-16 0.5884601
vn -0.8874973 1.300159E-16 0.4608129
vn -0.8874973 1.300159E-16 0.460813
vn -0.8874973 1.300159E-16 0.4608129
vn -0.8874973 1.300159E-16 0.4608129
vn 0.1830759 -1.149625E-16 0.9830987
vn 0.1830759 -1.149625E-16 0.9830987
vn 0.183076 -1.149625E-16 0.9830987
vn 0.1830759 -1.149625E-16 0.9830987
vn 0.4755598 -1.617715E-16 0.8796834
vn 0.4755598 -1.617715E-16 0.8796834
vn 0.4755598 -1.617715E-16 0.8796834
vn 0.4755598 -1.617715E-16 0.8796834
vn 0.8023232 -2.003929E-16 0.5968899
vn 0.8023232 -2.003929E-16 0.5968899
vn 0.8023232 -2.003929E-16 0.5968899
vn 0.8023232 -2.003929E-16 0.5968899
vn 0.8243991 -1.094937E-16 -0.5660089
vn 0.8243991 -1.094937E-16 -0.5660089
vn 0.8243991 -1.094937E-16 -0.5660089
vn 0.8243991 -1.094937E-16 -0.5660089
vn 0.4784447 -1.86114E-17 -0.8781176
vn 0.4784447 -1.86114E-17 -0.8781176
vn 0.4784447 -1.86114E-17 -0.8781176
vn 0.4784447 -1.86114E-17 -0.8781176
vn 0.5819624 -4.347652E-17 -0.8132158
vn 0.5819624 -4.347652E-17 -0.8132158
vn 0.5819624 -4.347652E-17 -0.8132158
vn 0.5819624 -4.347652E-17 -0.8132158
vn -0.462152 0.1800349 -0.8683335
vn -0.4621519 0.1800349 -0.8683335
vn -0.4621519 0.1800349 -0.8683335
vn -0.4621519 0.1800349 -0.8683335
vn -0.9264277 0.1873101 -0.326568
vn -0.9264277 0.1873101 -0.326568
vn -0.9264277 0.1873101 -0.326568
vn -0.9264277 0.1873101 -0.326568
vn -0.765855 0.2197906 0.6042832
vn -0.7658551 0.2197906 0.6042831
vn -0.7658551 0.2197906 0.604283
vn -0.765855 0.2197905 0.6042832
vn -0.8812008 0.2161018 0.4204583
vn -0.8812008 0.2161018 0.4204583
vn -0.8812008 0.2161018 0.4204583
vn -0.8812007 0.2161018 0.4204584
vn 0.2087956 0.206724 0.9558607
vn 0.2087956 0.2067241 0.9558607
vn 0.2087956 0.206724 0.9558607
vn 0.2087956 0.206724 0.9558607
vn 0.4588962 0.2400799 0.8554389
vn 0.4588961 0.24008 0.855439
vn 0.4588961 0.24008 0.855439
vn 0.4588961 0.24008 0.855439
vn 0.7748021 0.2055195 0.5978658
vn 0.7748021 0.2055195 0.5978658
vn 0.7748021 0.2055195 0.5978658
vn 0.7748021 0.2055195 0.5978658
vn 0.7928362 0.163128 -0.5871966
vn 0.7928362 0.163128 -0.5871966
vn 0.7928362 0.1631281 -0.5871966
vn 0.7928362 0.1631281 -0.5871966
vn 0.4583334 0.2010115 -0.865751
vn 0.4583334 0.2010115 -0.865751
vn 0.4583334 0.2010115 -0.865751
vn 0.4583334 0.2010115 -0.865751
vn 0.6014524 0.1505436 -0.7845965
vn 0.6014524 0.1505436 -0.7845965
vn 0.6014524 0.1505436 -0.7845965
vn 0.6014524 0.1505436 -0.7845965
vn -0.2842616 0.7891595 -0.5444471
vn -0.2842617 0.7891595 -0.5444471
vn -0.2842616 0.7891595 -0.5444471
vn -0.2842617 0.7891595 -0.5444471
vn -0.5202965 0.8519384 -0.05909653
vn -0.5202965 0.8519384 -0.05909653
vn -0.5202965 0.8519384 -0.05909653
vn -0.5202965 0.8519384 -0.05909656
vn -0.461781 0.8283318 0.3172139
vn -0.461781 0.8283318 0.3172139
vn -0.461781 0.8283318 0.3172139
vn -0.461781 0.8283318 0.3172139
vn -0.5938399 0.7517991 0.286622
vn -0.5938399 0.7517991 0.286622
vn -0.5938399 0.7517991 0.286622
vn -0.5938399 0.7517991 0.286622
vn 0.1180652 0.7676094 0.6299496
vn 0.1180653 0.7676094 0.6299495
vn 0.1180653 0.7676093 0.6299496
vn 0.1180652 0.7676094 0.6299496
vn 0.2941671 0.7719753 0.563489
vn 0.294167 0.7719753 0.5634891
vn 0.2941671 0.7719753 0.5634891
vn 0.294167 0.7719753 0.5634891
vn 0.4861523 0.7661014 0.42041
vn 0.4861524 0.7661014 0.42041
vn 0.4861524 0.7661014 0.42041
vn 0.4861524 0.7661014 0.42041
vn 0.4883001 0.7418408 -0.4596032
vn 0.4883002 0.7418408 -0.4596033
vn 0.4883002 0.7418408 -0.4596033
vn 0.4883002 0.7418408 -0.4596033
vn 0.1874592 0.7444519 -0.64082
vn 0.1874592 0.7444521 -0.64082
vn 0.1874592 0.744452 -0.64082
vn 0.1874592 0.7444519 -0.64082
vn 0.5658217 0.6708225 -0.4794194
vn 0.5658216 0.6708226 -0.4794194
vn 0.5658217 0.6708225 -0.4794194
vn 0.5658217 0.6708225 -0.4794194
vn -0.1586676 0.9375964 -0.3094149
vn -0.1586676 0.9375964 -0.3094149
vn -0.1586676 0.9375964 -0.3094149
vn -0.4439106 0.8896015 0.1074827
vn -0.4439106 0.8896015 0.1074827
vn -0.4439106 0.8896015 0.1074827
vn -0.4453429 0.8788402 0.1712006
vn -0.4453429 0.8788402 0.1712006
vn -0.4453429 0.8788402 0.1712006
vn -0.4132458 0.878563 0.239489
vn -0.4132458 0.878563 0.239489
vn -0.4132458 0.878563 0.239489
vn 0.02206142 0.8977368 0.4399794
vn 0.02206145 0.8977368 0.4399794
vn 0.02206142 0.8977368 0.4399794
vn 0.2018751 0.8945508 0.3987799
vn 0.2018751 0.8945507 0.3987799
vn 0.2018751 0.8945507 0.3987799
vn 0.3025145 0.9075938 0.291133
vn 0.3025144 0.9075938 0.291133
vn 0.3025144 0.9075938 0.291133
vn 0.2925745 0.8907425 -0.3478191
vn 0.2925745 0.8907424 -0.3478191
vn 0.2925745 0.8907424 -0.3478192
vn 0.06708958 0.7773978 -0.6254212
vn 0.06708958 0.7773978 -0.6254212
vn 0.06708958 0.7773978 -0.6254212
vn 0.6014787 0.7217777 -0.3424328
vn 0.6014788 0.7217778 -0.3424328
vn 0.6014787 0.7217777 -0.3424328

vt 0.5482839 0.007647395
vt 0.5 0.15
vt 0.6264089 0.06440853
vt 0.4517161 0.00764741
vt 0.3735911 0.06440856
vt 0.34375 0.15625
vt 0.3735911 0.2480915
vt 0.4517161 0.3048526
vt 0.5482839 0.3048526
vt 0.6264089 0.2480914
vt 0.65625 0.15625
vt 0 0
vt 0 1
vt 1 1
vt 1 0
vt 0 0
vt 0 1
vt 1 1
vt 1 0
vt 0 0
vt 0 1
vt 1 1
vt 1 0
vt 0 0
vt 0 1
vt 1 1
vt 1 0
vt 0 0
vt 0 1
vt 1 1
vt 1 0
vt 0 0
vt 0 1
vt 1 1
vt 1 0
vt 0 0
vt 0 1
vt 1 1
vt 1 0
vt 0 0
vt 0 1
vt 1 1
vt 1 0
vt 0 0
vt 0 1
vt 1 1
vt 1 0
vt 0 0
vt 0 1
vt 1 1
vt 1 0
vt 0 0
vt 0 1
vt 1 1
vt 1 0
vt 0 0
vt 0 1
vt 1 1
vt 1 0
vt 0 0
vt 0 1
vt 1 1
vt 1 0
vt 0 0
vt 0 1
vt 1 1
vt 1 0
vt 0 0
vt 0 1
vt 1 1
vt 1 0
vt 0 0
vt 0 1
vt 1 1
vt 1 0
vt 0 0
vt 0 1
vt 1 1
vt 1 0
vt 0 0
vt 0 1
vt 1 1
vt 1 0
vt 0 0
vt 0 1
vt 1 1
vt 1 0
vt 0 0
vt 0 1
vt 1 1
vt 1 0
vt 0 0
vt 0 1
vt 1 1
vt 1 0
vt 0 0
vt 0 1
vt 1 1
vt 1 0
vt 0 0
vt 0 1
vt 1 1
vt 1 0
vt 0 0
vt 0 1
vt 1 1
vt 1 0
vt 0 0
vt 0 1
vt 1 1
vt 1 0
vt 0 0
vt 0 1
vt 1 1
vt 1 0
vt 0 0
vt 0 1
vt 1 1
vt 1 0
vt 0 0
vt 0 1
vt 1 1
vt 1 0
vt 0 0
vt 0 1
vt 1 1
vt 1 0
vt 0 0
vt 0 1
vt 1 1
vt 1 0
vt 0 0
vt 0 1
vt 1 1
vt 1 0
vt 0 0
vt 0 1
vt 1 1
vt 1 0
vt 0 0
vt 0 1
vt 1 1
vt 1 0
vt 0 0
vt 0 1
vt 1 1
vt 1 0
vt 0 0
vt 0 1
vt 1 1
vt 1 0
vt 0 0
vt 0 1
vt 1 1
vt 1 0
vt 0 0
vt 0 1
vt 1 1
vt 1 0
vt 0 0
vt 0 1
vt 1 1
vt 1 0
vt 0 0
vt 0 1
vt 1 1
vt 1 0
vt 0 0
vt 0 1
vt 1 1
vt 1 0
vt 0 0
vt 0.5 1
vt 1 0
vt 0 0
vt 0.5 1
vt 1 0
vt 0 0
vt 0.5 1
vt 1 0
vt 0 0
vt 0.5 1
vt 1 0
vt 0 0
vt 0.5 1
vt 1 0
vt 0 0
vt 0.5 1
vt 1 0
vt 0 0
vt 0.5 1
vt 1 0
vt 0 0
vt 0.5 1
vt 1 0
vt 0 0
vt 0.5 1
vt 1 0
vt 0 0
vt 0.5 1
vt 1 0

g pCylinder1_11_4183_129
usemtl pCylinder1_11_4183_129
usemap pCylinder1_11_4183_129
f 1/1/1 3/3/3 2/2/2
f 4/4/4 1/1/1 2/2/2
f 5/5/5 4/4/4 2/2/2
f 6/6/6 5/5/5 2/2/2
f 7/7/7 6/6/6 2/2/2
f 8/8/8 7/7/7 2/2/2
f 9/9/9 8/8/8 2/2/2
f 10/10/10 9/9/9 2/2/2
f 11/11/11 10/10/10 2/2/2
f 3/3/3 11/11/11 2/2/2
f 12/12/12 14/14/14 13/13/13
f 12/12/12 15/15/15 14/14/14
f 16/16/16 18/18/18 17/17/17
f 16/16/16 19/19/19 18/18/18
f 20/20/20 22/22/22 21/21/21
f 20/20/20 23/23/23 22/22/22
f 24/24/24 26/26/26 25/25/25
f 24/24/24 27/27/27 26/26/26
f 28/28/28 30/30/30 29/29/29
f 28/28/28 31/31/31 30/30/30
f 32/32/32 34/34/34 33/33/33
f 32/32/32 35/35/35 34/34/34
f 36/36/36 38/38/38 37/37/37
f 36/36/36 39/39/39 38/38/38
f 40/40/40 42/42/42 41/41/41
f 40/40/40 43/43/43 42/42/42
f 44/44/44 46/46/46 45/45/45
f 44/44/44 47/47/47 46/46/46
f 48/48/48 50/50/50 49/49/49
f 48/48/48 51/51/51 50/50/50
f 52/52/52 54/54/54 53/53/53
f 52/52/52 55/55/55 54/54/54
f 56/56/56 58/58/58 57/57/57
f 56/56/56 59/59/59 58/58/58
f 60/60/60 62/62/62 61/61/61
f 60/60/60 63/63/63 62/62/62
f 64/64/64 66/66/66 65/65/65
f 64/64/64 67/67/67 66/66/66
f 68/68/68 70/70/70 69/69/69
f 68/68/68 71/71/71 70/70/70
f 72/72/72 74/74/74 73/73/73
f 72/72/72 75/75/75 74/74/74
f 76/76/76 78/78/78 77/77/77
f 76/76/76 79/79/79 78/78/78
f 80/80/80 82/82/82 81/81/81
f 80/80/80 83/83/83 82/82/82
f 84/84/84 86/86/86 85/85/85
f 84/84/84 87/87/87 86/86/86
f 88/88/88 90/90/90 89/89/89
f 88/88/88 91/91/91 90/90/90
f 92/92/92 94/94/94 93/93/93
f 92/92/92 95/95/95 94/94/94
f 96/96/96 98/98/98 97/97/97
f 96/96/96 99/99/99 98/98/98
f 100/100/100 102/102/102 101/101/101
f 100/100/100 103/103/103 102/102/102
f 104/104/104 106/106/106 105/105/105
f 104/104/104 107/107/107 106/106/106
f 108/108/108 110/110/110 109/109/109
f 108/108/108 111/111/111 110/110/110
f 112/112/112 114/114/114 113/113/113
f 112/112/112 115/115/115 114/114/114
f 116/116/116 118/118/118 117/117/117
f 116/116/116 119/119/119 118/118/118
f 120/120/120 122/122/122 121/121/121
f 120/120/120 123/123/123 122/122/122
f 124/124/124 126/126/126 125/125/125
f 124/124/124 127/127/127 126/126/126
f 128/128/128 130/130/130 129/129/129
f 128/128/128 131/131/131 130/130/130
f 132/132/132 134/134/134 133/133/133
f 132/132/132 135/135/135 134/134/134
f 136/136/136 138/138/138 137/137/137
f 136/136/136 139/139/139 138/138/138
f 140/140/140 142/142/142 141/141/141
f 140/140/140 143/143/143 142/142/142
f 144/144/144 146/146/146 145/145/145
f 144/144/144 147/147/147 146/146/146
f 148/148/148 150/150/150 149/149/149
f 148/148/148 151/151/151 150/150/150
f 152/152/152 154/154/154 153/153/153
f 152/152/152 155/155/155 154/154/154
f 156/156/156 158/158/158 157/157/157
f 156/156/156 159/159/159 158/158/158
f 160/160/160 162/162/162 161/161/161
f 160/160/160 163/163/163 162/162/162
f 164/164/164 166/166/166 165/165/165
f 164/164/164 167/167/167 166/166/166
f 168/168/168 170/170/170 169/169/169
f 168/168/168 171/171/171 170/170/170
f 172/172/172 174/174/174 173/173/173
f 175/175/175 177/177/177 176/176/176
f 178/178/178 180/180/180 179/179/179
f 181/181/181 183/183/183 182/182/182
f 184/184/184 186/186/186 185/185/185
f 187/187/187 189/189/189 188/188/188
f 190/190/190 192/192/192 191/191/191
f 193/193/193 195/195/195 194/194/194
f 196/196/196 198/198/198 197/197/197
f 199/199/199 201/201/201 200/200/200
