#pCylinder8_3_3373_19.obj

v 0.01454524 -0.02577549 -0.04035817
v 0.004623771 -0.03397612 0.001091524
v 0.03878442 -0.02577572 -0.02105465
v -0.009663498 -0.02577562 -0.03817526
v -0.01825088 -0.02577572 -0.01778029
v -0.03822222 -0.02223221 0.001091523
v -0.02135096 -0.0257756 0.01996331
v -0.005297676 -0.02577554 0.03271813
v 0.02109396 -0.02577546 0.04035832
v 0.03059848 -0.02577556 0.01996331
v 0.03218938 -0.02223227 0.001091531
v 0.03878442 -0.02577572 -0.02105465
v 0.04796682 -0.01489236 -0.02772602
v 0.01805259 -0.0148924 -0.05115268
v 0.01454524 -0.02577549 -0.04035817
v 0.01454524 -0.02577549 -0.04035817
v 0.01805259 -0.0148924 -0.05115268
v -0.01317085 -0.01489227 -0.04896978
v -0.009663498 -0.02577562 -0.03817526
v -0.009663498 -0.02577562 -0.03817526
v -0.01317085 -0.01489227 -0.04896978
v -0.02743327 -0.01489226 -0.02445167
v -0.01825088 -0.02577572 -0.01778029
v -0.01825088 -0.02577572 -0.01778029
v -0.02743327 -0.01489226 -0.02445167
v -0.04796701 -0.01288807 0.001091527
v -0.03822222 -0.02223221 0.001091523
v -0.03822222 -0.02223221 0.001091523
v -0.04796701 -0.01288807 0.001091527
v -0.03053334 -0.01489236 0.02663472
v -0.02135096 -0.0257756 0.01996331
v -0.02135096 -0.0257756 0.01996331
v -0.03053334 -0.01489236 0.02663472
v -0.008805037 -0.01489234 0.04351262
v -0.005297676 -0.02577554 0.03271813
v -0.005297676 -0.02577554 0.03271813
v -0.008805037 -0.01489234 0.04351262
v 0.02460131 -0.01489221 0.0511528
v 0.02109396 -0.02577546 0.04035832
v 0.02109396 -0.02577546 0.04035832
v 0.02460131 -0.01489221 0.0511528
v 0.0397809 -0.01489242 0.02663473
v 0.03059848 -0.02577556 0.01996331
v 0.03059848 -0.02577556 0.01996331
v 0.0397809 -0.01489242 0.02663473
v 0.04193419 -0.01288818 0.001091539
v 0.03218938 -0.02223227 0.001091531
v 0.03218938 -0.02223227 0.001091531
v 0.04193419 -0.01288818 0.001091539
v 0.04796682 -0.01489236 -0.02772602
v 0.03878442 -0.02577572 -0.02105465
v 0.04796682 -0.01489236 -0.02772602
v 0.04796681 -0.0001482248 -0.02772603
v 0.01805259 -0.0001482612 -0.05115267
v 0.01805259 -0.0148924 -0.05115268
v 0.01805259 -0.0148924 -0.05115268
v 0.01805259 -0.0001482612 -0.05115267
v -0.01317085 -0.0001481319 -0.04896977
v -0.01317085 -0.01489227 -0.04896978
v -0.01317085 -0.01489227 -0.04896978
v -0.01317085 -0.0001481319 -0.04896977
v -0.02743326 -0.0001481253 -0.02445167
v -0.02743327 -0.01489226 -0.02445167
v -0.02743327 -0.01489226 -0.02445167
v -0.02743326 -0.0001481253 -0.02445167
v -0.047967 -0.0002294656 0.001091522
v -0.04796701 -0.01288807 0.001091527
v -0.04796701 -0.01288807 0.001091527
v -0.047967 -0.0002294656 0.001091522
v -0.03053334 -0.0001482281 0.02663471
v -0.03053334 -0.01489236 0.02663472
v -0.03053334 -0.01489236 0.02663472
v -0.03053334 -0.0001482281 0.02663471
v -0.008805021 -0.0001482028 0.04351262
v -0.008805037 -0.01489234 0.04351262
v -0.008805037 -0.01489234 0.04351262
v -0.008805021 -0.0001482028 0.04351262
v 0.02460131 -0.0001483843 0.05115281
v 0.02460131 -0.01489221 0.0511528
v 0.02460131 -0.01489221 0.0511528
v 0.02460131 -0.0001483843 0.05115281
v 0.03978089 -0.000148284 0.02663472
v 0.0397809 -0.01489242 0.02663473
v 0.0397809 -0.01489242 0.02663473
v 0.03978089 -0.000148284 0.02663472
v 0.0419342 -0.0002292695 0.001091524
v 0.04193419 -0.01288818 0.001091539
v 0.04193419 -0.01288818 0.001091539
v 0.0419342 -0.0002292695 0.001091524
v 0.04796681 -0.0001482248 -0.02772603
v 0.04796682 -0.01489236 -0.02772602
v 0.04796681 -0.0001482248 -0.02772603
v 0.04568882 0.01428343 -0.02539673
v 0.01714502 0.01428356 -0.04799119
v 0.01805259 -0.0001482612 -0.05115267
v 0.01805259 -0.0001482612 -0.05115267
v 0.01714502 0.01428356 -0.04799119
v -0.01182919 0.0142834 -0.04559757
v -0.01317085 -0.0001481319 -0.04896977
v -0.01317085 -0.0001481319 -0.04896977
v -0.01182919 0.0142834 -0.04559757
v -0.02321036 0.01428344 -0.02180631
v -0.02743326 -0.0001481253 -0.02445167
v -0.02743326 -0.0001481253 -0.02445167
v -0.02321036 0.01428344 -0.02180631
v -0.04530418 0.0119722 0.001196875
v -0.047967 -0.0002294656 0.001091522
v -0.047967 -0.0002294656 0.001091522
v -0.04530418 0.0119722 0.001196875
v -0.02660968 0.01428338 0.02420007
v -0.03053334 -0.0001482281 0.02663471
v -0.03053334 -0.0001482281 0.02663471
v -0.02660968 0.01428338 0.02420007
v -0.007041959 0.01428327 0.03961365
v -0.008805021 -0.0001482028 0.04351262
v -0.008805021 -0.0001482028 0.04351262
v -0.007041959 0.01428327 0.03961365
v 0.02432586 0.01428342 0.04799131
v 0.02460131 -0.0001483843 0.05115281
v 0.02460131 -0.0001483843 0.05115281
v 0.02432586 0.01428342 0.04799131
v 0.03671273 0.01428351 0.02420008
v 0.03978089 -0.000148284 0.02663472
v 0.03978089 -0.000148284 0.02663472
v 0.03671273 0.01428351 0.02420008
v 0.03865191 0.01197227 0.001196888
v 0.0419342 -0.0002292695 0.001091524
v 0.0419342 -0.0002292695 0.001091524
v 0.03865191 0.01197227 0.001196888
v 0.04568882 0.01428343 -0.02539673
v 0.04796681 -0.0001482248 -0.02772603
v 0.04568882 0.01428343 -0.02539673
v 0.03225239 0.02437442 -0.0161476
v 0.01203637 0.02437461 -0.03256855
v 0.01714502 0.01428356 -0.04799119
v 0.01714502 0.01428356 -0.04799119
v 0.01203637 0.02437461 -0.03256855
v -0.002592317 0.02437448 -0.02139374
v -0.01182919 0.0142834 -0.04559757
v -0.01182919 0.0142834 -0.04559757
v -0.002592317 0.02437448 -0.02139374
v -0.01125321 0.02437437 -0.01279515
v -0.02321036 0.01428344 -0.02180631
v -0.02321036 0.01428344 -0.02180631
v -0.01125321 0.02437437 -0.01279515
v -0.03124481 0.02074648 0.001117553
v -0.04530418 0.0119722 0.001196875
v -0.04530418 0.0119722 0.001196875
v -0.03124481 0.02074648 0.001117553
v -0.01442721 0.02437438 0.01503027
v -0.02660968 0.01428338 0.02420007
v -0.02660968 0.01428338 0.02420007
v -0.01442721 0.02437438 0.01503027
v -0.002592316 0.02437433 0.0247463
v -0.007041959 0.01428327 0.03961365
v -0.007041959 0.01428327 0.03961365
v -0.002592316 0.02437433 0.0247463
v 0.01874126 0.02437438 0.03256868
v 0.02432586 0.01428342 0.04799131
v 0.02432586 0.01428342 0.04799131
v 0.01874126 0.02437438 0.03256868
v 0.02387126 0.02437433 0.01503029
v 0.03671273 0.01428351 0.02420008
v 0.03671273 0.01428351 0.02420008
v 0.02387126 0.02437433 0.01503029
v 0.0250441 0.02074662 0.001117558
v 0.03865191 0.01197227 0.001196888
v 0.03865191 0.01197227 0.001196888
v 0.0250441 0.02074662 0.001117558
v 0.03225239 0.02437442 -0.0161476
v 0.04568882 0.01428343 -0.02539673
v 0.03225239 0.02437442 -0.0161476
v 0.00462378 0.03397602 0.001091503
v 0.01203637 0.02437461 -0.03256855
v 0.01203637 0.02437461 -0.03256855
v 0.00462378 0.03397602 0.001091503
v -0.002592317 0.02437448 -0.02139374
v -0.002592317 0.02437448 -0.02139374
v 0.00462378 0.03397602 0.001091503
v -0.01125321 0.02437437 -0.01279515
v -0.01125321 0.02437437 -0.01279515
v 0.00462378 0.03397602 0.001091503
v -0.03124481 0.02074648 0.001117553
v -0.03124481 0.02074648 0.001117553
v 0.00462378 0.03397602 0.001091503
v -0.01442721 0.02437438 0.01503027
v -0.01442721 0.02437438 0.01503027
v 0.00462378 0.03397602 0.001091503
v -0.002592316 0.02437433 0.0247463
v -0.002592316 0.02437433 0.0247463
v 0.00462378 0.03397602 0.001091503
v 0.01874126 0.02437438 0.03256868
v 0.01874126 0.02437438 0.03256868
v 0.00462378 0.03397602 0.001091503
v 0.02387126 0.02437433 0.01503029
v 0.02387126 0.02437433 0.01503029
v 0.00462378 0.03397602 0.001091503
v 0.0250441 0.02074662 0.001117558
v 0.0250441 0.02074662 0.001117558
v 0.00462378 0.03397602 0.001091503
v 0.03225239 0.02437442 -0.0161476

vn 0.1108724 -0.9814577 -0.1563572
vn 0.005050425 -0.9999869 0.0003010723
vn 0.209932 -0.9777136 0.002021309
vn -0.02888913 -0.9811752 -0.1909448
vn -0.2177233 -0.9609676 -0.1706961
vn -0.2456215 -0.9651105 -0.09072573
vn -0.2439501 -0.9688312 0.04305519
vn -0.1536139 -0.9708809 0.1838269
vn 0.009640098 -0.9818358 0.1894861
vn 0.2686059 -0.957657 0.1036496
vn 0.3501903 -0.9142528 0.2037351
vn 0.5798999 -0.7018732 -0.4136301
vn 0.5798998 -0.7018732 -0.4136301
vn 0.5798999 -0.7018732 -0.41363
vn 0.5798998 -0.7018732 -0.4136301
vn 0.1455884 -0.7025059 -0.6966267
vn 0.1455884 -0.7025061 -0.6966267
vn 0.1455884 -0.7025059 -0.6966267
vn 0.1455884 -0.702506 -0.6966268
vn -0.5450657 -0.6638935 -0.5120043
vn -0.5450658 -0.6638935 -0.5120044
vn -0.5450657 -0.6638935 -0.5120043
vn -0.5450658 -0.6638935 -0.5120043
vn -0.430357 -0.6877957 -0.5845764
vn -0.4303572 -0.6877956 -0.5845764
vn -0.4303571 -0.6877956 -0.5845764
vn -0.4303571 -0.6877956 -0.5845764
vn -0.6881644 -0.6977651 0.1988799
vn -0.6881644 -0.6977651 0.1988799
vn -0.6881645 -0.697765 0.1988799
vn -0.6881645 -0.6977651 0.1988799
vn -0.57381 -0.7060065 0.4150862
vn -0.5738101 -0.7060065 0.4150862
vn -0.57381 -0.7060065 0.4150862
vn -0.57381 -0.7060065 0.4150862
vn -0.3630584 -0.6942397 0.6214654
vn -0.3630584 -0.6942397 0.6214654
vn -0.3630584 -0.6942397 0.6214656
vn -0.3630584 -0.6942397 0.6214654
vn 0.5293734 -0.6661555 0.5253574
vn 0.5293733 -0.6661555 0.5253574
vn 0.5293733 -0.6661555 0.5253574
vn 0.5293735 -0.6661555 0.5253574
vn 0.7136176 -0.6765997 0.1815554
vn 0.7136176 -0.6765998 0.1815554
vn 0.7136176 -0.6765997 0.1815554
vn 0.7136176 -0.6765997 0.1815554
vn 0.6494847 -0.6134138 0.4493249
vn 0.6494848 -0.6134136 0.4493249
vn 0.6494847 -0.6134138 0.4493249
vn 0.6494848 -0.6134137 0.4493248
vn 0.8108969 0.002877466 -0.5851818
vn 0.810897 0.002877467 -0.5851818
vn 0.810897 0.002877467 -0.5851818
vn 0.8108969 0.002877466 -0.5851818
vn 0.2099497 0.0008684482 -0.9777117
vn 0.2099497 0.0008684482 -0.9777117
vn 0.2099497 0.0008684482 -0.9777117
vn 0.2099497 0.0008684482 -0.9777117
vn -0.6908072 -0.002268816 -0.7230354
vn -0.6908072 -0.002268816 -0.7230354
vn -0.6908072 -0.002268816 -0.7230354
vn -0.6908072 -0.002268816 -0.7230354
vn -0.5748037 -0.001855454 -0.8182892
vn -0.5748037 -0.001855454 -0.8182892
vn -0.5748037 -0.001855454 -0.8182892
vn -0.5748037 -0.001855454 -0.8182892
vn -0.9499908 -0.003315266 0.3122602
vn -0.9499908 -0.003315266 0.3122602
vn -0.9499908 -0.003315267 0.3122603
vn -0.9499908 -0.003315266 0.3122602
vn -0.8085774 -0.002869964 0.5883827
vn -0.8085774 -0.002869964 0.5883827
vn -0.8085774 -0.002869964 0.5883827
vn -0.8085774 -0.002869964 0.5883827
vn -0.4848208 -0.001798787 0.8746115
vn -0.4848208 -0.001798787 0.8746115
vn -0.4848208 -0.001798787 0.8746115
vn -0.4848208 -0.001798787 0.8746115
vn 0.6706678 0.002196727 0.7417546
vn 0.6706678 0.002196727 0.7417546
vn 0.6706678 0.002196727 0.7417546
vn 0.6706678 0.002196727 0.7417546
vn 0.9339663 0.003160086 0.357347
vn 0.9339663 0.003160086 0.357347
vn 0.9339663 0.003160086 0.357347
vn 0.9339663 0.003160086 0.357347
vn 0.8834161 0.002969539 0.46858
vn 0.8834161 0.002969539 0.46858
vn 0.8834161 0.002969539 0.46858
vn 0.8834161 0.002969539 0.46858
vn 0.7930554 0.215572 -0.5697297
vn 0.7930553 0.2155721 -0.5697297
vn 0.7930553 0.2155721 -0.5697297
vn 0.7930553 0.2155721 -0.5697297
vn 0.1981854 0.2220591 -0.954679
vn 0.1981854 0.2220592 -0.954679
vn 0.1981854 0.2220592 -0.954679
vn 0.1981854 0.2220592 -0.954679
vn -0.6947756 0.256608 -0.6718921
vn -0.6947756 0.256608 -0.6718921
vn -0.6947756 0.256608 -0.6718922
vn -0.6947756 0.2566079 -0.6718921
vn -0.529742 0.2529346 -0.8095661
vn -0.529742 0.2529346 -0.8095661
vn -0.529742 0.2529346 -0.8095661
vn -0.5297421 0.2529346 -0.8095661
vn -0.9123576 0.2405947 0.3312369
vn -0.9123576 0.2405948 0.3312369
vn -0.9123576 0.2405947 0.3312368
vn -0.9123576 0.2405947 0.3312369
vn -0.7784854 0.2794994 0.5619967
vn -0.7784855 0.2794994 0.5619966
vn -0.7784855 0.2794995 0.5619967
vn -0.7784855 0.2794995 0.5619967
vn -0.4860464 0.2405895 0.8401639
vn -0.4860464 0.2405895 0.8401639
vn -0.4860464 0.2405895 0.8401639
vn -0.4860464 0.2405895 0.8401639
vn 0.6830351 0.195253 0.7038033
vn 0.6830351 0.195253 0.7038033
vn 0.6830351 0.195253 0.7038034
vn 0.6830351 0.195253 0.7038033
vn 0.9106017 0.2402424 0.3362856
vn 0.9106017 0.2402423 0.3362857
vn 0.9106018 0.2402423 0.3362857
vn 0.9106017 0.2402423 0.3362857
vn 0.8530232 0.1811249 0.4894334
vn 0.8530232 0.1811249 0.4894334
vn 0.8530232 0.1811249 0.4894334
vn 0.8530232 0.181125 0.4894334
vn 0.4443774 0.8384175 -0.3155696
vn 0.4443774 0.8384175 -0.3155696
vn 0.4443774 0.8384175 -0.3155696
vn 0.4443774 0.8384175 -0.3155696
vn -0.01240136 0.8884634 -0.4587793
vn -0.01240136 0.8884634 -0.4587793
vn -0.01240136 0.8884634 -0.4587793
vn -0.01240133 0.8884634 -0.4587793
vn -0.3345419 0.8682432 -0.3663809
vn -0.3345419 0.8682432 -0.3663809
vn -0.3345419 0.8682432 -0.3663809
vn -0.3345419 0.8682432 -0.3663809
vn -0.3295243 0.8038462 -0.4952215
vn -0.3295243 0.8038463 -0.4952215
vn -0.3295243 0.8038463 -0.4952215
vn -0.3295243 0.8038463 -0.4952215
vn -0.5483463 0.8166191 0.1801363
vn -0.5483463 0.8166192 0.1801363
vn -0.5483463 0.8166191 0.1801363
vn -0.5483463 0.8166191 0.1801363
vn -0.4677955 0.8206081 0.3282823
vn -0.4677955 0.820608 0.3282823
vn -0.4677956 0.820608 0.3282824
vn -0.4677955 0.820608 0.3282823
vn -0.3184209 0.8160724 0.4823208
vn -0.3184209 0.8160724 0.4823208
vn -0.3184209 0.8160724 0.4823208
vn -0.3184209 0.8160724 0.4823208
vn 0.4668398 0.797788 0.3815682
vn 0.4668399 0.797788 0.3815682
vn 0.4668399 0.797788 0.3815683
vn 0.4668399 0.797788 0.3815682
vn 0.5923645 0.8005423 0.09075184
vn 0.5923644 0.8005424 0.09075179
vn 0.5923644 0.8005424 0.09075182
vn 0.5923645 0.8005423 0.09075186
vn 0.5027263 0.7342043 0.4563003
vn 0.5027263 0.7342044 0.4563003
vn 0.5027263 0.7342043 0.4563003
vn 0.5027263 0.7342043 0.4563003
vn 0.2411117 0.9555472 -0.1696881
vn 0.2411117 0.9555472 -0.1696882
vn 0.2411117 0.9555472 -0.1696881
vn -0.146817 0.9177042 -0.3691386
vn -0.146817 0.9177042 -0.3691387
vn -0.146817 0.9177042 -0.3691386
vn -0.2023324 0.9091157 -0.3641011
vn -0.2023324 0.9091157 -0.3641011
vn -0.2023324 0.9091157 -0.3641011
vn -0.2575257 0.9087033 -0.3285397
vn -0.2575257 0.9087033 -0.3285397
vn -0.2575257 0.9087033 -0.3285397
vn -0.3780837 0.9231408 0.06973804
vn -0.3780837 0.9231408 0.06973805
vn -0.3780837 0.9231408 0.06973804
vn -0.3223054 0.9208488 0.2194447
vn -0.3223054 0.9208489 0.2194447
vn -0.3223054 0.9208489 0.2194447
vn -0.217526 0.9312332 0.2923808
vn -0.2175261 0.9312332 0.2923808
vn -0.217526 0.9312332 0.2923808
vn 0.3295655 0.9201423 0.211481
vn 0.3295656 0.9201423 0.211481
vn 0.3295656 0.9201422 0.211481
vn 0.5593281 0.8288134 -0.01483083
vn 0.5593281 0.8288134 -0.01483083
vn 0.5593281 0.8288135 -0.01483083
vn 0.3776101 0.7798034 0.4993164
vn 0.3776101 0.7798034 0.4993164
vn 0.3776101 0.7798034 0.4993164

vt 0.5482839 0.007647395
vt 0.5 0.15
vt 0.6264089 0.06440853
vt 0.4517161 0.00764741
vt 0.3735911 0.06440856
vt 0.34375 0.15625
vt 0.3735911 0.2480915
vt 0.4517161 0.3048526
vt 0.5482839 0.3048526
vt 0.6264089 0.2480914
vt 0.65625 0.15625
vt 0 0
vt 0 1
vt 1 1
vt 1 0
vt 0 0
vt 0 1
vt 1 1
vt 1 0
vt 0 0
vt 0 1
vt 1 1
vt 1 0
vt 0 0
vt 0 1
vt 1 1
vt 1 0
vt 0 0
vt 0 1
vt 1 1
vt 1 0
vt 0 0
vt 0 1
vt 1 1
vt 1 0
vt 0 0
vt 0 1
vt 1 1
vt 1 0
vt 0 0
vt 0 1
vt 1 1
vt 1 0
vt 0 0
vt 0 1
vt 1 1
vt 1 0
vt 0 0
vt 0 1
vt 1 1
vt 1 0
vt 0 0
vt 0 1
vt 1 1
vt 1 0
vt 0 0
vt 0 1
vt 1 1
vt 1 0
vt 0 0
vt 0 1
vt 1 1
vt 1 0
vt 0 0
vt 0 1
vt 1 1
vt 1 0
vt 0 0
vt 0 1
vt 1 1
vt 1 0
vt 0 0
vt 0 1
vt 1 1
vt 1 0
vt 0 0
vt 0 1
vt 1 1
vt 1 0
vt 0 0
vt 0 1
vt 1 1
vt 1 0
vt 0 0
vt 0 1
vt 1 1
vt 1 0
vt 0 0
vt 0 1
vt 1 1
vt 1 0
vt 0 0
vt 0 1
vt 1 1
vt 1 0
vt 0 0
vt 0 1
vt 1 1
vt 1 0
vt 0 0
vt 0 1
vt 1 1
vt 1 0
vt 0 0
vt 0 1
vt 1 1
vt 1 0
vt 0 0
vt 0 1
vt 1 1
vt 1 0
vt 0 0
vt 0 1
vt 1 1
vt 1 0
vt 0 0
vt 0 1
vt 1 1
vt 1 0
vt 0 0
vt 0 1
vt 1 1
vt 1 0
vt 0 0
vt 0 1
vt 1 1
vt 1 0
vt 0 0
vt 0 1
vt 1 1
vt 1 0
vt 0 0
vt 0 1
vt 1 1
vt 1 0
vt 0 0
vt 0 1
vt 1 1
vt 1 0
vt 0 0
vt 0 1
vt 1 1
vt 1 0
vt 0 0
vt 0 1
vt 1 1
vt 1 0
vt 0 0
vt 0 1
vt 1 1
vt 1 0
vt 0 0
vt 0 1
vt 1 1
vt 1 0
vt 0 0
vt 0 1
vt 1 1
vt 1 0
vt 0 0
vt 0 1
vt 1 1
vt 1 0
vt 0 0
vt 0 1
vt 1 1
vt 1 0
vt 0 0
vt 0 1
vt 1 1
vt 1 0
vt 0 0
vt 0.5 1
vt 1 0
vt 0 0
vt 0.5 1
vt 1 0
vt 0 0
vt 0.5 1
vt 1 0
vt 0 0
vt 0.5 1
vt 1 0
vt 0 0
vt 0.5 1
vt 1 0
vt 0 0
vt 0.5 1
vt 1 0
vt 0 0
vt 0.5 1
vt 1 0
vt 0 0
vt 0.5 1
vt 1 0
vt 0 0
vt 0.5 1
vt 1 0
vt 0 0
vt 0.5 1
vt 1 0

g pCylinder8_3_3373_19
usemtl pCylinder8_3_3373_19
usemap pCylinder8_3_3373_19
f 1/1/1 3/3/3 2/2/2
f 4/4/4 1/1/1 2/2/2
f 5/5/5 4/4/4 2/2/2
f 6/6/6 5/5/5 2/2/2
f 7/7/7 6/6/6 2/2/2
f 8/8/8 7/7/7 2/2/2
f 9/9/9 8/8/8 2/2/2
f 10/10/10 9/9/9 2/2/2
f 11/11/11 10/10/10 2/2/2
f 3/3/3 11/11/11 2/2/2
f 12/12/12 14/14/14 13/13/13
f 12/12/12 15/15/15 14/14/14
f 16/16/16 18/18/18 17/17/17
f 16/16/16 19/19/19 18/18/18
f 20/20/20 22/22/22 21/21/21
f 20/20/20 23/23/23 22/22/22
f 24/24/24 26/26/26 25/25/25
f 24/24/24 27/27/27 26/26/26
f 28/28/28 30/30/30 29/29/29
f 28/28/28 31/31/31 30/30/30
f 32/32/32 34/34/34 33/33/33
f 32/32/32 35/35/35 34/34/34
f 36/36/36 38/38/38 37/37/37
f 36/36/36 39/39/39 38/38/38
f 40/40/40 42/42/42 41/41/41
f 40/40/40 43/43/43 42/42/42
f 44/44/44 46/46/46 45/45/45
f 44/44/44 47/47/47 46/46/46
f 48/48/48 50/50/50 49/49/49
f 48/48/48 51/51/51 50/50/50
f 52/52/52 54/54/54 53/53/53
f 52/52/52 55/55/55 54/54/54
f 56/56/56 58/58/58 57/57/57
f 56/56/56 59/59/59 58/58/58
f 60/60/60 62/62/62 61/61/61
f 60/60/60 63/63/63 62/62/62
f 64/64/64 66/66/66 65/65/65
f 64/64/64 67/67/67 66/66/66
f 68/68/68 70/70/70 69/69/69
f 68/68/68 71/71/71 70/70/70
f 72/72/72 74/74/74 73/73/73
f 72/72/72 75/75/75 74/74/74
f 76/76/76 78/78/78 77/77/77
f 76/76/76 79/79/79 78/78/78
f 80/80/80 82/82/82 81/81/81
f 80/80/80 83/83/83 82/82/82
f 84/84/84 86/86/86 85/85/85
f 84/84/84 87/87/87 86/86/86
f 88/88/88 90/90/90 89/89/89
f 88/88/88 91/91/91 90/90/90
f 92/92/92 94/94/94 93/93/93
f 92/92/92 95/95/95 94/94/94
f 96/96/96 98/98/98 97/97/97
f 96/96/96 99/99/99 98/98/98
f 100/100/100 102/102/102 101/101/101
f 100/100/100 103/103/103 102/102/102
f 104/104/104 106/106/106 105/105/105
f 104/104/104 107/107/107 106/106/106
f 108/108/108 110/110/110 109/109/109
f 108/108/108 111/111/111 110/110/110
f 112/112/112 114/114/114 113/113/113
f 112/112/112 115/115/115 114/114/114
f 116/116/116 118/118/118 117/117/117
f 116/116/116 119/119/119 118/118/118
f 120/120/120 122/122/122 121/121/121
f 120/120/120 123/123/123 122/122/122
f 124/124/124 126/126/126 125/125/125
f 124/124/124 127/127/127 126/126/126
f 128/128/128 130/130/130 129/129/129
f 128/128/128 131/131/131 130/130/130
f 132/132/132 134/134/134 133/133/133
f 132/132/132 135/135/135 134/134/134
f 136/136/136 138/138/138 137/137/137
f 136/136/136 139/139/139 138/138/138
f 140/140/140 142/142/142 141/141/141
f 140/140/140 143/143/143 142/142/142
f 144/144/144 146/146/146 145/145/145
f 144/144/144 147/147/147 146/146/146
f 148/148/148 150/150/150 149/149/149
f 148/148/148 151/151/151 150/150/150
f 152/152/152 154/154/154 153/153/153
f 152/152/152 155/155/155 154/154/154
f 156/156/156 158/158/158 157/157/157
f 156/156/156 159/159/159 158/158/158
f 160/160/160 162/162/162 161/161/161
f 160/160/160 163/163/163 162/162/162
f 164/164/164 166/166/166 165/165/165
f 164/164/164 167/167/167 166/166/166
f 168/168/168 170/170/170 169/169/169
f 168/168/168 171/171/171 170/170/170
f 172/172/172 174/174/174 173/173/173
f 175/175/175 177/177/177 176/176/176
f 178/178/178 180/180/180 179/179/179
f 181/181/181 183/183/183 182/182/182
f 184/184/184 186/186/186 185/185/185
f 187/187/187 189/189/189 188/188/188
f 190/190/190 192/192/192 191/191/191
f 193/193/193 195/195/195 194/194/194
f 196/196/196 198/198/198 197/197/197
f 199/199/199 201/201/201 200/200/200
