#pCylinder17_23_3481_71.obj

v 0.01453586 -0.02577572 -0.04035597
v 0.004614845 -0.033976 0.001093902
v 0.03877532 -0.02577572 -0.02105248
v -0.009671799 -0.02577572 -0.03817263
v -0.01825892 -0.02577572 -0.01777824
v -0.03823044 -0.02223227 0.001094013
v -0.0213601 -0.02577572 0.01996602
v -0.005306434 -0.02577572 0.03272017
v 0.02108569 -0.02577572 0.04036077
v 0.03058891 -0.02577572 0.01996539
v 0.03218114 -0.02223227 0.001094063
v 0.03877532 -0.02577572 -0.02105248
v 0.04795906 -0.01489235 -0.02772353
v 0.01804461 -0.01489235 -0.05115097
v 0.01453586 -0.02577572 -0.04035597
v 0.01453586 -0.02577572 -0.04035597
v 0.01804461 -0.01489235 -0.05115097
v -0.01317947 -0.01489235 -0.04896739
v -0.009671799 -0.02577572 -0.03817263
v -0.009671799 -0.02577572 -0.03817263
v -0.01317947 -0.01489235 -0.04896739
v -0.02744274 -0.01489235 -0.02444894
v -0.01825892 -0.02577572 -0.01777824
v -0.01825892 -0.02577572 -0.01777824
v -0.02744274 -0.01489235 -0.02444894
v -0.04797607 -0.01288823 0.00109409
v -0.03823044 -0.02223227 0.001094013
v -0.03823044 -0.02223227 0.001094013
v -0.04797607 -0.01288823 0.00109409
v -0.03054196 -0.01489235 0.02663666
v -0.0213601 -0.02577572 0.01996602
v -0.0213601 -0.02577572 0.01996602
v -0.03054196 -0.01489235 0.02663666
v -0.008813298 -0.01489235 0.04351476
v -0.005306434 -0.02577572 0.03272017
v -0.005306434 -0.02577572 0.03272017
v -0.008813298 -0.01489235 0.04351476
v 0.02459316 -0.01489235 0.05115459
v 0.02108569 -0.02577572 0.04036077
v 0.02108569 -0.02577572 0.04036077
v 0.02459316 -0.01489235 0.05115459
v 0.03977294 -0.01489235 0.02663703
v 0.03058891 -0.02577572 0.01996539
v 0.03058891 -0.02577572 0.01996539
v 0.03977294 -0.01489235 0.02663703
v 0.04192489 -0.01288823 0.001094397
v 0.03218114 -0.02223227 0.001094063
v 0.03218114 -0.02223227 0.001094063
v 0.04192489 -0.01288823 0.001094397
v 0.04795906 -0.01489235 -0.02772353
v 0.03877532 -0.02577572 -0.02105248
v 0.04795906 -0.01489235 -0.02772353
v 0.04795906 -0.0001483453 -0.02772353
v 0.01804461 -0.0001483453 -0.05115097
v 0.01804461 -0.01489235 -0.05115097
v 0.01804461 -0.01489235 -0.05115097
v 0.01804461 -0.0001483453 -0.05115097
v -0.01317947 -0.0001483453 -0.04896739
v -0.01317947 -0.01489235 -0.04896739
v -0.01317947 -0.01489235 -0.04896739
v -0.01317947 -0.0001483453 -0.04896739
v -0.02744274 -0.0001483453 -0.02444894
v -0.02744274 -0.01489235 -0.02444894
v -0.02744274 -0.01489235 -0.02444894
v -0.02744274 -0.0001483453 -0.02444894
v -0.04797607 -0.0002293881 0.00109409
v -0.04797607 -0.01288823 0.00109409
v -0.04797607 -0.01288823 0.00109409
v -0.04797607 -0.0002293881 0.00109409
v -0.03054196 -0.0001483453 0.02663666
v -0.03054196 -0.01489235 0.02663666
v -0.03054196 -0.01489235 0.02663666
v -0.03054196 -0.0001483453 0.02663666
v -0.008813298 -0.0001483453 0.04351476
v -0.008813298 -0.01489235 0.04351476
v -0.008813298 -0.01489235 0.04351476
v -0.008813298 -0.0001483453 0.04351476
v 0.02459316 -0.0001483453 0.05115459
v 0.02459316 -0.01489235 0.05115459
v 0.02459316 -0.01489235 0.05115459
v 0.02459316 -0.0001483453 0.05115459
v 0.03977294 -0.0001483453 0.02663703
v 0.03977294 -0.01489235 0.02663703
v 0.03977294 -0.01489235 0.02663703
v 0.03977294 -0.0001483453 0.02663703
v 0.04192489 -0.0002293881 0.001094397
v 0.04192489 -0.01288823 0.001094397
v 0.04192489 -0.01288823 0.001094397
v 0.04192489 -0.0002293881 0.001094397
v 0.04795906 -0.0001483453 -0.02772353
v 0.04795906 -0.01489235 -0.02772353
v 0.04795906 -0.0001483453 -0.02772353
v 0.04567971 0.01428331 -0.02539461
v 0.01713551 0.01428331 -0.04798884
v 0.01804461 -0.0001483453 -0.05115097
v 0.01804461 -0.0001483453 -0.05115097
v 0.01713551 0.01428331 -0.04798884
v -0.01183703 0.01428331 -0.04559544
v -0.01317947 -0.0001483453 -0.04896739
v -0.01317947 -0.0001483453 -0.04896739
v -0.01183703 0.01428331 -0.04559544
v -0.02321938 0.01428331 -0.02180401
v -0.02744274 -0.0001483453 -0.02444894
v -0.02744274 -0.0001483453 -0.02444894
v -0.02321938 0.01428331 -0.02180401
v -0.04531282 0.01197214 0.001199453
v -0.04797607 -0.0002293881 0.00109409
v -0.04797607 -0.0002293881 0.00109409
v -0.04531282 0.01197214 0.001199453
v -0.02661877 0.01428331 0.02420259
v -0.03054196 -0.0001483453 0.02663666
v -0.03054196 -0.0001483453 0.02663666
v -0.02661877 0.01428331 0.02420259
v -0.007051519 0.01428331 0.03961601
v -0.008813298 -0.0001483453 0.04351476
v -0.008813298 -0.0001483453 0.04351476
v -0.007051519 0.01428331 0.03961601
v 0.02431764 0.01428331 0.04799368
v 0.02459316 -0.0001483453 0.05115459
v 0.02459316 -0.0001483453 0.05115459
v 0.02431764 0.01428331 0.04799368
v 0.03670335 0.01428331 0.02420298
v 0.03977294 -0.0001483453 0.02663703
v 0.03977294 -0.0001483453 0.02663703
v 0.03670335 0.01428331 0.02420298
v 0.03864395 0.01197214 0.001199559
v 0.04192489 -0.0002293881 0.001094397
v 0.04192489 -0.0002293881 0.001094397
v 0.03864395 0.01197214 0.001199559
v 0.04567971 0.01428331 -0.02539461
v 0.04795906 -0.0001483453 -0.02772353
v 0.04567971 0.01428331 -0.02539461
v 0.03224294 0.02437434 -0.01614461
v 0.01202762 0.02437434 -0.03256625
v 0.01713551 0.01428331 -0.04798884
v 0.01713551 0.01428331 -0.04798884
v 0.01202762 0.02437434 -0.03256625
v -0.002601361 0.02437434 -0.02139091
v -0.01183703 0.01428331 -0.04559544
v -0.01183703 0.01428331 -0.04559544
v -0.002601361 0.02437434 -0.02139091
v -0.01126278 0.02437434 -0.01279263
v -0.02321938 0.01428331 -0.02180401
v -0.02321938 0.01428331 -0.02180401
v -0.01126278 0.02437434 -0.01279263
v -0.03125369 0.02074647 0.001120187
v -0.04531282 0.01197214 0.001199453
v -0.04531282 0.01197214 0.001199453
v -0.03125369 0.02074647 0.001120187
v -0.01443623 0.02437434 0.01503313
v -0.02661877 0.01428331 0.02420259
v -0.02661877 0.01428331 0.02420259
v -0.01443623 0.02437434 0.01503313
v -0.002600895 0.02437434 0.02474828
v -0.007051519 0.01428331 0.03961601
v -0.007051519 0.01428331 0.03961601
v -0.002600895 0.02437434 0.02474828
v 0.01873199 0.02437434 0.03257119
v 0.02431764 0.01428331 0.04799368
v 0.02431764 0.01428331 0.04799368
v 0.01873199 0.02437434 0.03257119
v 0.02386295 0.02437434 0.01503252
v 0.03670335 0.01428331 0.02420298
v 0.03670335 0.01428331 0.02420298
v 0.02386295 0.02437434 0.01503252
v 0.0250359 0.02074647 0.001119387
v 0.03864395 0.01197214 0.001199559
v 0.03864395 0.01197214 0.001199559
v 0.0250359 0.02074647 0.001119387
v 0.03224294 0.02437434 -0.01614461
v 0.04567971 0.01428331 -0.02539461
v 0.03224294 0.02437434 -0.01614461
v 0.004614845 0.03397599 0.001093902
v 0.01202762 0.02437434 -0.03256625
v 0.01202762 0.02437434 -0.03256625
v 0.004614845 0.03397599 0.001093902
v -0.002601361 0.02437434 -0.02139091
v -0.002601361 0.02437434 -0.02139091
v 0.004614845 0.03397599 0.001093902
v -0.01126278 0.02437434 -0.01279263
v -0.01126278 0.02437434 -0.01279263
v 0.004614845 0.03397599 0.001093902
v -0.03125369 0.02074647 0.001120187
v -0.03125369 0.02074647 0.001120187
v 0.004614845 0.03397599 0.001093902
v -0.01443623 0.02437434 0.01503313
v -0.01443623 0.02437434 0.01503313
v 0.004614845 0.03397599 0.001093902
v -0.002600895 0.02437434 0.02474828
v -0.002600895 0.02437434 0.02474828
v 0.004614845 0.03397599 0.001093902
v 0.01873199 0.02437434 0.03257119
v 0.01873199 0.02437434 0.03257119
v 0.004614845 0.03397599 0.001093902
v 0.02386295 0.02437434 0.01503252
v 0.02386295 0.02437434 0.01503252
v 0.004614845 0.03397599 0.001093902
v 0.0250359 0.02074647 0.001119387
v 0.0250359 0.02074647 0.001119387
v 0.004614845 0.03397599 0.001093902
v 0.03224294 0.02437434 -0.01614461

vn 0.09680652 -0.9818566 -0.1630502
vn 0.001636305 -0.9999982 0.0003418063
vn 0.2062492 -0.9784297 -0.01165296
vn -0.04495358 -0.9810985 -0.1882131
vn -0.2319404 -0.9602382 -0.155388
vn -0.2544416 -0.9642732 -0.0737292
vn -0.2438391 -0.9679796 0.05964182
vn -0.1442976 -0.970319 0.1940573
vn 0.01893088 -0.9818347 0.1887894
vn 0.2716571 -0.95856 0.08581598
vn 0.3599009 -0.9154218 0.1802045
vn 0.5485312 -0.703926 -0.4512222
vn 0.5485311 -0.703926 -0.4512222
vn 0.5485311 -0.703926 -0.4512221
vn 0.5485311 -0.703926 -0.4512222
vn 0.09626512 -0.7031068 -0.7045377
vn 0.09626512 -0.7031069 -0.7045377
vn 0.09626511 -0.7031068 -0.7045377
vn 0.09626513 -0.7031068 -0.7045377
vn -0.5803584 -0.6620906 -0.4741516
vn -0.5803585 -0.6620905 -0.4741516
vn -0.5803584 -0.6620906 -0.4741516
vn -0.5803585 -0.6620905 -0.4741516
vn -0.4708428 -0.6863981 -0.554224
vn -0.470843 -0.6863981 -0.554224
vn -0.4708429 -0.6863981 -0.554224
vn -0.4708429 -0.6863981 -0.554224
vn -0.6757065 -0.6953634 0.2447244
vn -0.6757065 -0.6953634 0.2447244
vn -0.6757065 -0.6953633 0.2447244
vn -0.6757066 -0.6953634 0.2447244
vn -0.5471767 -0.7039659 0.4528016
vn -0.5471767 -0.7039659 0.4528016
vn -0.5471767 -0.7039659 0.4528015
vn -0.5471767 -0.7039659 0.4528015
vn -0.3230548 -0.6928935 0.644619
vn -0.3230549 -0.6928936 0.644619
vn -0.3230549 -0.6928936 0.6446191
vn -0.3230548 -0.6928935 0.644619
vn 0.5610417 -0.6678944 0.4890286
vn 0.5610417 -0.6678944 0.4890286
vn 0.5610417 -0.6678944 0.4890286
vn 0.5610418 -0.6678944 0.4890287
vn 0.7218424 -0.6790238 0.1336779
vn 0.7218424 -0.6790239 0.1336779
vn 0.7218424 -0.6790238 0.1336779
vn 0.7218424 -0.6790238 0.1336779
vn 0.6759788 -0.6155776 0.4051132
vn 0.6759788 -0.6155775 0.4051132
vn 0.6759788 -0.6155776 0.4051132
vn 0.6759788 -0.6155775 0.4051132
vn 0.7699482 -3.737031E-17 -0.6381063
vn 0.7699483 -3.737033E-17 -0.6381063
vn 0.7699483 -3.737033E-17 -0.6381063
vn 0.7699482 -3.737031E-17 -0.6381063
vn 0.14409 1.148022E-16 -0.9895646
vn 0.14409 1.148022E-16 -0.9895646
vn 0.14409 1.148022E-16 -0.9895646
vn 0.14409 1.148022E-16 -0.9895646
vn -0.7376221 2.158787E-16 -0.6752137
vn -0.7376221 2.158787E-16 -0.6752137
vn -0.7376221 2.158787E-16 -0.6752137
vn -0.7376221 2.158787E-16 -0.6752137
vn -0.6282484 2.122713E-16 -0.7780128
vn -0.6282485 2.122713E-16 -0.7780129
vn -0.6282484 2.122713E-16 -0.7780128
vn -0.6282484 2.122713E-16 -0.7780128
vn -0.9269848 1.000226E-16 0.3750988
vn -0.9269848 1.000226E-16 0.3750988
vn -0.9269848 1.000226E-16 0.3750989
vn -0.9269848 1.000226E-16 0.3750988
vn -0.7674198 3.652898E-17 0.641145
vn -0.7674198 3.652898E-17 0.641145
vn -0.7674198 3.652898E-17 0.641145
vn -0.7674198 3.652898E-17 0.641145
vn -0.4252427 -5.671596E-17 0.9050794
vn -0.4252427 -5.671596E-17 0.9050794
vn -0.4252427 -5.671596E-17 0.9050794
vn -0.4252427 -5.671596E-17 0.9050794
vn 0.7187797 -2.155811E-16 0.695238
vn 0.7187797 -2.155811E-16 0.695238
vn 0.7187797 -2.155811E-16 0.695238
vn 0.7187797 -2.155811E-16 0.695238
vn 0.9557806 -1.984266E-16 0.294081
vn 0.9557806 -1.984266E-16 0.294081
vn 0.9557806 -1.984266E-16 0.294081
vn 0.9557806 -1.984266E-16 0.294081
vn 0.9127825 -2.073596E-16 0.4084459
vn 0.9127825 -2.073596E-16 0.4084459
vn 0.9127825 -2.073596E-16 0.4084459
vn 0.9127825 -2.073596E-16 0.4084459
vn 0.7539082 0.212757 -0.6215762
vn 0.7539082 0.212757 -0.6215762
vn 0.7539082 0.212757 -0.6215762
vn 0.7539082 0.212757 -0.6215762
vn 0.1346497 0.2212333 -0.9658806
vn 0.1346497 0.2212333 -0.9658806
vn 0.1346497 0.2212333 -0.9658806
vn 0.1346497 0.2212333 -0.9658806
vn -0.737275 0.2588965 -0.6240177
vn -0.7372751 0.2588965 -0.6240177
vn -0.737275 0.2588965 -0.6240178
vn -0.737275 0.2588965 -0.6240177
vn -0.5818323 0.2546348 -0.7724198
vn -0.5818323 0.2546348 -0.7724198
vn -0.5818323 0.2546347 -0.7724198
vn -0.5818324 0.2546348 -0.7724197
vn -0.887332 0.2437819 0.3914235
vn -0.887332 0.2437819 0.3914235
vn -0.887332 0.2437819 0.3914235
vn -0.887332 0.2437819 0.3914235
vn -0.7381936 0.2822602 0.6126983
vn -0.7381936 0.2822602 0.6126983
vn -0.7381936 0.2822602 0.6126983
vn -0.7381936 0.2822602 0.6126983
vn -0.4279398 0.2423859 0.8706988
vn -0.4279398 0.2423859 0.8706988
vn -0.4279398 0.2423859 0.8706988
vn -0.4279398 0.2423859 0.8706988
vn 0.7292419 0.1930069 0.6564714
vn 0.7292419 0.1930069 0.6564714
vn 0.7292418 0.1930069 0.6564714
vn 0.7292419 0.1930069 0.6564714
vn 0.9318713 0.2371581 0.2745395
vn 0.9318713 0.2371581 0.2745396
vn 0.9318714 0.2371581 0.2745396
vn 0.9318713 0.2371581 0.2745396
vn 0.8844625 0.178262 0.4312178
vn 0.8844625 0.178262 0.4312178
vn 0.8844625 0.178262 0.4312178
vn 0.8844625 0.178262 0.4312178
vn 0.4251437 0.8368364 -0.3449014
vn 0.4251438 0.8368364 -0.3449014
vn 0.4251437 0.8368364 -0.3449014
vn 0.4251438 0.8368364 -0.3449014
vn -0.04001644 0.8884322 -0.4572595
vn -0.04001644 0.8884321 -0.4572595
vn -0.04001644 0.8884322 -0.4572595
vn -0.04001641 0.8884322 -0.4572595
vn -0.3553232 0.8693342 -0.3435153
vn -0.3553232 0.8693342 -0.3435153
vn -0.3553232 0.8693342 -0.3435153
vn -0.3553232 0.8693342 -0.3435153
vn -0.3591545 0.8049012 -0.4723786
vn -0.3591545 0.8049012 -0.4723786
vn -0.3591545 0.8049012 -0.4723786
vn -0.3591545 0.8049012 -0.4723786
vn -0.5322722 0.8185278 0.2160973
vn -0.5322721 0.8185278 0.2160974
vn -0.5322722 0.8185278 0.2160974
vn -0.5322722 0.8185278 0.2160973
vn -0.4419802 0.8222618 0.3585228
vn -0.4419802 0.8222616 0.3585228
vn -0.4419803 0.8222616 0.3585228
vn -0.4419802 0.8222616 0.3585228
vn -0.282654 0.8172352 0.5022278
vn -0.282654 0.8172352 0.5022278
vn -0.282654 0.8172352 0.5022278
vn -0.282654 0.8172352 0.5022278
vn 0.4940427 0.796234 0.3491886
vn 0.4940427 0.796234 0.3491886
vn 0.4940427 0.796234 0.3491886
vn 0.4940427 0.796234 0.3491886
vn 0.5998445 0.7985129 0.05062711
vn 0.5998444 0.7985129 0.05062708
vn 0.5998445 0.7985129 0.05062709
vn 0.5998445 0.7985129 0.05062713
vn 0.5346291 0.7325383 0.4213773
vn 0.5346291 0.7325384 0.4213773
vn 0.5346291 0.7325383 0.4213773
vn 0.5346291 0.7325383 0.4213773
vn 0.2324921 0.9546865 -0.1857963
vn 0.2324921 0.9546865 -0.1857964
vn 0.2324921 0.9546865 -0.1857963
vn -0.1680349 0.9181486 -0.3588409
vn -0.1680349 0.9181486 -0.3588409
vn -0.1680349 0.9181486 -0.3588408
vn -0.2231181 0.9097521 -0.3500984
vn -0.2231181 0.9097521 -0.3500984
vn -0.2231181 0.9097521 -0.3500984
vn -0.2758105 0.9095348 -0.3109251
vn -0.2758105 0.9095348 -0.3109251
vn -0.2758105 0.9095348 -0.3109251
vn -0.3694108 0.9244465 0.0945185
vn -0.3694108 0.9244465 0.09451851
vn -0.3694108 0.9244465 0.0945185
vn -0.3037529 0.9219851 0.2401603
vn -0.303753 0.9219851 0.2401603
vn -0.303753 0.9219851 0.2401603
vn -0.1942951 0.9320197 0.3059214
vn -0.1942951 0.9320197 0.3059214
vn -0.1942951 0.9320197 0.3059214
vn 0.3461195 0.9190344 0.1886168
vn 0.3461196 0.9190344 0.1886169
vn 0.3461196 0.9190344 0.1886169
vn 0.5599174 0.8268818 -0.05252037
vn 0.5599174 0.8268818 -0.05252037
vn 0.5599174 0.8268818 -0.05252037
vn 0.412827 0.7785741 0.4726477
vn 0.4128269 0.7785741 0.4726478
vn 0.412827 0.7785741 0.4726478

vt 0.5482839 0.007647395
vt 0.5 0.15
vt 0.6264089 0.06440853
vt 0.4517161 0.00764741
vt 0.3735911 0.06440856
vt 0.34375 0.15625
vt 0.3735911 0.2480915
vt 0.4517161 0.3048526
vt 0.5482839 0.3048526
vt 0.6264089 0.2480914
vt 0.65625 0.15625
vt 0 0
vt 0 1
vt 1 1
vt 1 0
vt 0 0
vt 0 1
vt 1 1
vt 1 0
vt 0 0
vt 0 1
vt 1 1
vt 1 0
vt 0 0
vt 0 1
vt 1 1
vt 1 0
vt 0 0
vt 0 1
vt 1 1
vt 1 0
vt 0 0
vt 0 1
vt 1 1
vt 1 0
vt 0 0
vt 0 1
vt 1 1
vt 1 0
vt 0 0
vt 0 1
vt 1 1
vt 1 0
vt 0 0
vt 0 1
vt 1 1
vt 1 0
vt 0 0
vt 0 1
vt 1 1
vt 1 0
vt 0 0
vt 0 1
vt 1 1
vt 1 0
vt 0 0
vt 0 1
vt 1 1
vt 1 0
vt 0 0
vt 0 1
vt 1 1
vt 1 0
vt 0 0
vt 0 1
vt 1 1
vt 1 0
vt 0 0
vt 0 1
vt 1 1
vt 1 0
vt 0 0
vt 0 1
vt 1 1
vt 1 0
vt 0 0
vt 0 1
vt 1 1
vt 1 0
vt 0 0
vt 0 1
vt 1 1
vt 1 0
vt 0 0
vt 0 1
vt 1 1
vt 1 0
vt 0 0
vt 0 1
vt 1 1
vt 1 0
vt 0 0
vt 0 1
vt 1 1
vt 1 0
vt 0 0
vt 0 1
vt 1 1
vt 1 0
vt 0 0
vt 0 1
vt 1 1
vt 1 0
vt 0 0
vt 0 1
vt 1 1
vt 1 0
vt 0 0
vt 0 1
vt 1 1
vt 1 0
vt 0 0
vt 0 1
vt 1 1
vt 1 0
vt 0 0
vt 0 1
vt 1 1
vt 1 0
vt 0 0
vt 0 1
vt 1 1
vt 1 0
vt 0 0
vt 0 1
vt 1 1
vt 1 0
vt 0 0
vt 0 1
vt 1 1
vt 1 0
vt 0 0
vt 0 1
vt 1 1
vt 1 0
vt 0 0
vt 0 1
vt 1 1
vt 1 0
vt 0 0
vt 0 1
vt 1 1
vt 1 0
vt 0 0
vt 0 1
vt 1 1
vt 1 0
vt 0 0
vt 0 1
vt 1 1
vt 1 0
vt 0 0
vt 0 1
vt 1 1
vt 1 0
vt 0 0
vt 0 1
vt 1 1
vt 1 0
vt 0 0
vt 0 1
vt 1 1
vt 1 0
vt 0 0
vt 0 1
vt 1 1
vt 1 0
vt 0 0
vt 0 1
vt 1 1
vt 1 0
vt 0 0
vt 0.5 1
vt 1 0
vt 0 0
vt 0.5 1
vt 1 0
vt 0 0
vt 0.5 1
vt 1 0
vt 0 0
vt 0.5 1
vt 1 0
vt 0 0
vt 0.5 1
vt 1 0
vt 0 0
vt 0.5 1
vt 1 0
vt 0 0
vt 0.5 1
vt 1 0
vt 0 0
vt 0.5 1
vt 1 0
vt 0 0
vt 0.5 1
vt 1 0
vt 0 0
vt 0.5 1
vt 1 0

g pCylinder17_23_3481_71
usemtl pCylinder17_23_3481_71
usemap pCylinder17_23_3481_71
f 1/1/1 3/3/3 2/2/2
f 4/4/4 1/1/1 2/2/2
f 5/5/5 4/4/4 2/2/2
f 6/6/6 5/5/5 2/2/2
f 7/7/7 6/6/6 2/2/2
f 8/8/8 7/7/7 2/2/2
f 9/9/9 8/8/8 2/2/2
f 10/10/10 9/9/9 2/2/2
f 11/11/11 10/10/10 2/2/2
f 3/3/3 11/11/11 2/2/2
f 12/12/12 14/14/14 13/13/13
f 12/12/12 15/15/15 14/14/14
f 16/16/16 18/18/18 17/17/17
f 16/16/16 19/19/19 18/18/18
f 20/20/20 22/22/22 21/21/21
f 20/20/20 23/23/23 22/22/22
f 24/24/24 26/26/26 25/25/25
f 24/24/24 27/27/27 26/26/26
f 28/28/28 30/30/30 29/29/29
f 28/28/28 31/31/31 30/30/30
f 32/32/32 34/34/34 33/33/33
f 32/32/32 35/35/35 34/34/34
f 36/36/36 38/38/38 37/37/37
f 36/36/36 39/39/39 38/38/38
f 40/40/40 42/42/42 41/41/41
f 40/40/40 43/43/43 42/42/42
f 44/44/44 46/46/46 45/45/45
f 44/44/44 47/47/47 46/46/46
f 48/48/48 50/50/50 49/49/49
f 48/48/48 51/51/51 50/50/50
f 52/52/52 54/54/54 53/53/53
f 52/52/52 55/55/55 54/54/54
f 56/56/56 58/58/58 57/57/57
f 56/56/56 59/59/59 58/58/58
f 60/60/60 62/62/62 61/61/61
f 60/60/60 63/63/63 62/62/62
f 64/64/64 66/66/66 65/65/65
f 64/64/64 67/67/67 66/66/66
f 68/68/68 70/70/70 69/69/69
f 68/68/68 71/71/71 70/70/70
f 72/72/72 74/74/74 73/73/73
f 72/72/72 75/75/75 74/74/74
f 76/76/76 78/78/78 77/77/77
f 76/76/76 79/79/79 78/78/78
f 80/80/80 82/82/82 81/81/81
f 80/80/80 83/83/83 82/82/82
f 84/84/84 86/86/86 85/85/85
f 84/84/84 87/87/87 86/86/86
f 88/88/88 90/90/90 89/89/89
f 88/88/88 91/91/91 90/90/90
f 92/92/92 94/94/94 93/93/93
f 92/92/92 95/95/95 94/94/94
f 96/96/96 98/98/98 97/97/97
f 96/96/96 99/99/99 98/98/98
f 100/100/100 102/102/102 101/101/101
f 100/100/100 103/103/103 102/102/102
f 104/104/104 106/106/106 105/105/105
f 104/104/104 107/107/107 106/106/106
f 108/108/108 110/110/110 109/109/109
f 108/108/108 111/111/111 110/110/110
f 112/112/112 114/114/114 113/113/113
f 112/112/112 115/115/115 114/114/114
f 116/116/116 118/118/118 117/117/117
f 116/116/116 119/119/119 118/118/118
f 120/120/120 122/122/122 121/121/121
f 120/120/120 123/123/123 122/122/122
f 124/124/124 126/126/126 125/125/125
f 124/124/124 127/127/127 126/126/126
f 128/128/128 130/130/130 129/129/129
f 128/128/128 131/131/131 130/130/130
f 132/132/132 134/134/134 133/133/133
f 132/132/132 135/135/135 134/134/134
f 136/136/136 138/138/138 137/137/137
f 136/136/136 139/139/139 138/138/138
f 140/140/140 142/142/142 141/141/141
f 140/140/140 143/143/143 142/142/142
f 144/144/144 146/146/146 145/145/145
f 144/144/144 147/147/147 146/146/146
f 148/148/148 150/150/150 149/149/149
f 148/148/148 151/151/151 150/150/150
f 152/152/152 154/154/154 153/153/153
f 152/152/152 155/155/155 154/154/154
f 156/156/156 158/158/158 157/157/157
f 156/156/156 159/159/159 158/158/158
f 160/160/160 162/162/162 161/161/161
f 160/160/160 163/163/163 162/162/162
f 164/164/164 166/166/166 165/165/165
f 164/164/164 167/167/167 166/166/166
f 168/168/168 170/170/170 169/169/169
f 168/168/168 171/171/171 170/170/170
f 172/172/172 174/174/174 173/173/173
f 175/175/175 177/177/177 176/176/176
f 178/178/178 180/180/180 179/179/179
f 181/181/181 183/183/183 182/182/182
f 184/184/184 186/186/186 185/185/185
f 187/187/187 189/189/189 188/188/188
f 190/190/190 192/192/192 191/191/191
f 193/193/193 195/195/195 194/194/194
f 196/196/196 198/198/198 197/197/197
f 199/199/199 201/201/201 200/200/200
