#pCylinder18_2_3853_7.obj

v 0.01454577 -0.02577557 -0.04035792
v 0.004624385 -0.03397597 0.001091781
v 0.03878495 -0.02577557 -0.02105438
v -0.009662899 -0.02577557 -0.03817511
v -0.01825026 -0.02577557 -0.01778009
v -0.03822169 -0.02223257 0.001091762
v -0.02135037 -0.02577557 0.01996346
v -0.005297056 -0.02577557 0.03271834
v 0.0210945 -0.02577557 0.04035851
v 0.03059907 -0.02577557 0.01996347
v 0.03218995 -0.02223257 0.001091733
v 0.03878495 -0.02577557 -0.02105438
v 0.04796743 -0.01489251 -0.02772572
v 0.01805318 -0.01489251 -0.05115254
v 0.01454577 -0.02577557 -0.04035792
v 0.01454577 -0.02577557 -0.04035792
v 0.01805318 -0.01489251 -0.05115254
v -0.01317033 -0.01489251 -0.04896955
v -0.009662899 -0.02577557 -0.03817511
v -0.009662899 -0.02577557 -0.03817511
v -0.01317033 -0.01489251 -0.04896955
v -0.02743274 -0.01489251 -0.02445142
v -0.01825026 -0.02577557 -0.01778009
v -0.01825026 -0.02577557 -0.01778009
v -0.02743274 -0.01489251 -0.02445142
v -0.04796639 -0.01288853 0.001091821
v -0.03822169 -0.02223257 0.001091762
v -0.03822169 -0.02223257 0.001091762
v -0.04796639 -0.01288853 0.001091821
v -0.03053274 -0.01489251 0.02663494
v -0.02135037 -0.02577557 0.01996346
v -0.02135037 -0.02577557 0.01996346
v -0.03053274 -0.01489251 0.02663494
v -0.00880433 -0.01489251 0.04351286
v -0.005297056 -0.02577557 0.03271834
v -0.005297056 -0.02577557 0.03271834
v -0.00880433 -0.01489251 0.04351286
v 0.02460193 -0.01489251 0.05115295
v 0.0210945 -0.02577557 0.04035851
v 0.0210945 -0.02577557 0.04035851
v 0.02460193 -0.01489251 0.05115295
v 0.03978153 -0.01489251 0.02663504
v 0.03059907 -0.02577557 0.01996347
v 0.03059907 -0.02577557 0.01996347
v 0.03978153 -0.01489251 0.02663504
v 0.04193476 -0.01288853 0.001091809
v 0.03218995 -0.02223257 0.001091733
v 0.03218995 -0.02223257 0.001091733
v 0.04193476 -0.01288853 0.001091809
v 0.04796743 -0.01489251 -0.02772572
v 0.03878495 -0.02577557 -0.02105438
v 0.04796743 -0.01489251 -0.02772572
v 0.04796743 -0.0001483531 -0.02772572
v 0.01805329 -0.0001483531 -0.05115241
v 0.01805318 -0.01489251 -0.05115254
v 0.01805318 -0.01489251 -0.05115254
v 0.01805329 -0.0001483531 -0.05115241
v -0.01317033 -0.0001483531 -0.04896955
v -0.01317033 -0.01489251 -0.04896955
v -0.01317033 -0.01489251 -0.04896955
v -0.01317033 -0.0001483531 -0.04896955
v -0.02743274 -0.0001483531 -0.02445142
v -0.02743274 -0.01489251 -0.02445142
v -0.02743274 -0.01489251 -0.02445142
v -0.02743274 -0.0001483531 -0.02445142
v -0.04796639 -0.0002297933 0.001091821
v -0.04796639 -0.01288853 0.001091821
v -0.04796639 -0.01288853 0.001091821
v -0.04796639 -0.0002297933 0.001091821
v -0.03053274 -0.0001483531 0.02663494
v -0.03053274 -0.01489251 0.02663494
v -0.03053274 -0.01489251 0.02663494
v -0.03053274 -0.0001483531 0.02663494
v -0.00880433 -0.0001483531 0.04351286
v -0.00880433 -0.01489251 0.04351286
v -0.00880433 -0.01489251 0.04351286
v -0.00880433 -0.0001483531 0.04351286
v 0.02460193 -0.0001483531 0.05115295
v 0.02460193 -0.01489251 0.05115295
v 0.02460193 -0.01489251 0.05115295
v 0.02460193 -0.0001483531 0.05115295
v 0.03978153 -0.0001483531 0.02663504
v 0.03978153 -0.01489251 0.02663504
v 0.03978153 -0.01489251 0.02663504
v 0.03978153 -0.0001483531 0.02663504
v 0.04193476 -0.0002297933 0.001091809
v 0.04193476 -0.01288853 0.001091809
v 0.04193476 -0.01288853 0.001091809
v 0.04193476 -0.0002297933 0.001091809
v 0.04796743 -0.0001483531 -0.02772572
v 0.04796743 -0.01489251 -0.02772572
v 0.04796743 -0.0001483531 -0.02772572
v 0.04568938 0.01428327 -0.02539654
v 0.0171457 0.01428327 -0.04799098
v 0.01805329 -0.0001483531 -0.05115241
v 0.01805329 -0.0001483531 -0.05115241
v 0.0171457 0.01428327 -0.04799098
v -0.01182859 0.01428327 -0.04559736
v -0.01317033 -0.0001483531 -0.04896955
v -0.01317033 -0.0001483531 -0.04896955
v -0.01182859 0.01428327 -0.04559736
v -0.02320975 0.01428327 -0.02180612
v -0.02743274 -0.0001483531 -0.02445142
v -0.02743274 -0.0001483531 -0.02445142
v -0.02320975 0.01428327 -0.02180612
v -0.04530353 0.01197232 0.001197179
v -0.04796639 -0.0002297933 0.001091821
v -0.04796639 -0.0002297933 0.001091821
v -0.04530353 0.01197232 0.001197179
v -0.02660908 0.01428327 0.02420031
v -0.03053274 -0.0001483531 0.02663494
v -0.03053274 -0.0001483531 0.02663494
v -0.02660908 0.01428327 0.02420031
v -0.00704131 0.01428327 0.03961382
v -0.00880433 -0.0001483531 0.04351286
v -0.00880433 -0.0001483531 0.04351286
v -0.00704131 0.01428327 0.03961382
v 0.02432644 0.01428327 0.04799147
v 0.02460193 -0.0001483531 0.05115295
v 0.02460193 -0.0001483531 0.05115295
v 0.02432644 0.01428327 0.04799147
v 0.03671338 0.01428327 0.02420027
v 0.03978153 -0.0001483531 0.02663504
v 0.03978153 -0.0001483531 0.02663504
v 0.03671338 0.01428327 0.02420027
v 0.03865243 0.01197232 0.001197106
v 0.04193476 -0.0002297933 0.001091809
v 0.04193476 -0.0002297933 0.001091809
v 0.03865243 0.01197232 0.001197106
v 0.04568938 0.01428327 -0.02539654
v 0.04796743 -0.0001483531 -0.02772572
v 0.04568938 0.01428327 -0.02539654
v 0.032253 0.0243742 -0.01614742
v 0.01203704 0.0243742 -0.03256826
v 0.0171457 0.01428327 -0.04799098
v 0.0171457 0.01428327 -0.04799098
v 0.01203704 0.0243742 -0.03256826
v -0.002591729 0.0243742 -0.02139358
v -0.01182859 0.01428327 -0.04559736
v -0.01182859 0.01428327 -0.04559736
v -0.002591729 0.0243742 -0.02139358
v -0.01125259 0.0243742 -0.01279491
v -0.02320975 0.01428327 -0.02180612
v -0.02320975 0.01428327 -0.02180612
v -0.01125259 0.0243742 -0.01279491
v -0.03124423 0.02074628 0.001117876
v -0.04530353 0.01197232 0.001197179
v -0.04530353 0.01197232 0.001197179
v -0.03124423 0.02074628 0.001117876
v -0.01442664 0.0243742 0.0150306
v -0.02660908 0.01428327 0.02420031
v -0.02660908 0.01428327 0.02420031
v -0.01442664 0.0243742 0.0150306
v -0.00259171 0.0243742 0.02474651
v -0.00704131 0.01428327 0.03961382
v -0.00704131 0.01428327 0.03961382
v -0.00259171 0.0243742 0.02474651
v 0.01874188 0.0243742 0.03256892
v 0.02432644 0.01428327 0.04799147
v 0.02432644 0.01428327 0.04799147
v 0.01874188 0.0243742 0.03256892
v 0.02387186 0.0243742 0.01503044
v 0.03671338 0.01428327 0.02420027
v 0.03671338 0.01428327 0.02420027
v 0.02387186 0.0243742 0.01503044
v 0.02504461 0.02074628 0.001117795
v 0.03865243 0.01197232 0.001197106
v 0.03865243 0.01197232 0.001197106
v 0.02504461 0.02074628 0.001117795
v 0.032253 0.0243742 -0.01614742
v 0.04568938 0.01428327 -0.02539654
v 0.032253 0.0243742 -0.01614742
v 0.004624385 0.03397579 0.001091781
v 0.01203704 0.0243742 -0.03256826
v 0.01203704 0.0243742 -0.03256826
v 0.004624385 0.03397579 0.001091781
v -0.002591729 0.0243742 -0.02139358
v -0.002591729 0.0243742 -0.02139358
v 0.004624385 0.03397579 0.001091781
v -0.01125259 0.0243742 -0.01279491
v -0.01125259 0.0243742 -0.01279491
v 0.004624385 0.03397579 0.001091781
v -0.03124423 0.02074628 0.001117876
v -0.03124423 0.02074628 0.001117876
v 0.004624385 0.03397579 0.001091781
v -0.01442664 0.0243742 0.0150306
v -0.01442664 0.0243742 0.0150306
v 0.004624385 0.03397579 0.001091781
v -0.00259171 0.0243742 0.02474651
v -0.00259171 0.0243742 0.02474651
v 0.004624385 0.03397579 0.001091781
v 0.01874188 0.0243742 0.03256892
v 0.01874188 0.0243742 0.03256892
v 0.004624385 0.03397579 0.001091781
v 0.02387186 0.0243742 0.01503044
v 0.02387186 0.0243742 0.01503044
v 0.004624385 0.03397579 0.001091781
v 0.02504461 0.02074628 0.001117795
v 0.02504461 0.02074628 0.001117795
v 0.004624385 0.03397579 0.001091781
v 0.032253 0.0243742 -0.01614742

vn -0.1019629 -0.9818568 -0.1598763
vn 0.001042256 -0.9999984 -0.001306916
vn 0.08250365 -0.9784299 -0.1893876
vn -0.1882857 -0.9810987 -0.04464841
vn -0.24321 -0.9602384 0.1370791
vn -0.1804413 -0.9642733 0.1939522
vn -0.05659223 -0.9679798 0.2445649
vn 0.108253 -0.9703192 0.2162437
vn 0.177078 -0.9818349 0.06814098
vn 0.1989873 -0.9585602 -0.2038775
vn 0.3230074 -0.9154219 -0.2401427
vn -0.155757 -0.7039261 -0.6929846
vn -0.155757 -0.7039261 -0.6929845
vn -0.1557569 -0.7039261 -0.6929845
vn -0.155757 -0.7039261 -0.6929845
vn -0.5856445 -0.7031069 -0.4033123
vn -0.5856445 -0.703107 -0.4033123
vn -0.5856445 -0.7031069 -0.4033123
vn -0.5856445 -0.7031069 -0.4033124
vn -0.6847497 -0.6620907 0.3045544
vn -0.6847498 -0.6620907 0.3045544
vn -0.6847497 -0.6620907 0.3045544
vn -0.6847498 -0.6620907 0.3045545
vn -0.7069055 -0.6863983 0.1707098
vn -0.7069055 -0.6863982 0.1707099
vn -0.7069055 -0.6863982 0.1707099
vn -0.7069055 -0.6863982 0.1707099
vn -0.08589098 -0.6953635 0.7135068
vn -0.08589098 -0.6953635 0.7135068
vn -0.08589104 -0.6953635 0.7135069
vn -0.08589101 -0.6953635 0.7135069
vn 0.1577772 -0.703966 0.6924868
vn 0.1577772 -0.703966 0.6924868
vn 0.1577772 -0.703966 0.6924868
vn 0.1577772 -0.703966 0.6924868
vn 0.4299893 -0.6928936 0.5787981
vn 0.4299893 -0.6928937 0.5787982
vn 0.4299894 -0.6928937 0.5787982
vn 0.4299893 -0.6928936 0.5787981
vn 0.6893305 -0.6678945 -0.280607
vn 0.6893305 -0.6678945 -0.2806069
vn 0.6893305 -0.6678945 -0.2806069
vn 0.6893305 -0.6678945 -0.280607
vn 0.4445094 -0.6790239 -0.584241
vn 0.4445094 -0.679024 -0.584241
vn 0.4445094 -0.6790239 -0.584241
vn 0.4445094 -0.6790239 -0.584241
vn 0.6661859 -0.6155777 -0.421023
vn 0.6661859 -0.6155776 -0.421023
vn 0.6661859 -0.6155777 -0.421023
vn 0.6661859 -0.6155776 -0.421023
vn -0.2228665 1.770472E-17 -0.9748489
vn -0.2228664 1.770472E-17 -0.974849
vn -0.2228664 1.770472E-17 -0.974849
vn -0.2228665 1.770472E-17 -0.9748489
vn -0.818572 1.265866E-16 -0.5744038
vn -0.818572 1.265866E-16 -0.5744038
vn -0.818572 1.265866E-16 -0.5744038
vn -0.818572 1.265866E-16 -0.5744038
vn -0.9350984 1.653004E-16 0.354388
vn -0.9350984 1.653004E-16 0.354388
vn -0.9350984 1.653004E-16 0.354388
vn -0.9350984 1.653004E-16 0.354388
vn -0.9776083 1.695373E-16 0.2104325
vn -0.9776084 1.695373E-16 0.2104326
vn -0.9776083 1.695373E-16 0.2104325
vn -0.9776083 1.695373E-16 0.2104325
vn -0.08268455 3.438217E-17 0.9965757
vn -0.08268455 3.438217E-17 0.9965757
vn -0.08268443 3.438215E-17 0.9965758
vn -0.08268455 3.438217E-17 0.9965757
vn 0.2267183 -1.837392E-17 0.9739604
vn 0.2267183 -1.837392E-17 0.9739604
vn 0.2267183 -1.837392E-17 0.9739604
vn 0.2267183 -1.837392E-17 0.9739604
vn 0.6164954 -8.807234E-17 0.7873584
vn 0.6164954 -8.807234E-17 0.7873584
vn 0.6164954 -8.807234E-17 0.7873584
vn 0.6164954 -8.807234E-17 0.7873584
vn 0.9444882 -1.663582E-16 -0.3285455
vn 0.9444882 -1.663582E-16 -0.3285455
vn 0.9444882 -1.663582E-16 -0.3285455
vn 0.9444882 -1.663582E-16 -0.3285455
vn 0.6930968 -1.319032E-16 -0.7208446
vn 0.6930968 -1.319032E-16 -0.7208446
vn 0.6930968 -1.319032E-16 -0.7208446
vn 0.6930968 -1.319032E-16 -0.7208446
vn 0.7758323 -1.440455E-16 -0.6309391
vn 0.7758323 -1.440455E-16 -0.6309391
vn 0.7758323 -1.440455E-16 -0.6309391
vn 0.7758323 -1.440455E-16 -0.6309391
vn -0.2153338 0.212757 -0.9530823
vn -0.2153339 0.212757 -0.9530822
vn -0.2153339 0.212757 -0.9530822
vn -0.2153339 0.212757 -0.9530822
vn -0.8016795 0.2212333 -0.5553069
vn -0.8016795 0.2212333 -0.5553069
vn -0.8016795 0.2212333 -0.5553069
vn -0.8016795 0.2212333 -0.5553069
vn -0.8892345 0.2588966 0.37714
vn -0.8892345 0.2588966 0.37714
vn -0.8892345 0.2588966 0.3771399
vn -0.8892345 0.2588965 0.37714
vn -0.9517062 0.2546348 0.171512
vn -0.9517062 0.2546348 0.171512
vn -0.9517062 0.2546348 0.171512
vn -0.9517062 0.2546348 0.1715121
vn -0.05024782 0.2437819 0.9685276
vn -0.05024782 0.243782 0.9685276
vn -0.05024785 0.2437819 0.9685275
vn -0.05024782 0.2437819 0.9685276
vn 0.2144865 0.2822603 0.9350532
vn 0.2144865 0.2822603 0.9350532
vn 0.2144865 0.2822603 0.9350533
vn 0.2144865 0.2822603 0.9350533
vn 0.5845857 0.242386 0.7742794
vn 0.5845858 0.242386 0.7742793
vn 0.5845857 0.242386 0.7742794
vn 0.5845857 0.242386 0.7742794
vn 0.9145904 0.1930069 -0.3553489
vn 0.9145904 0.1930069 -0.3553489
vn 0.9145904 0.1930069 -0.3553488
vn 0.9145904 0.1930069 -0.3553489
vn 0.66488 0.2371581 -0.7083011
vn 0.66488 0.2371581 -0.7083012
vn 0.66488 0.2371581 -0.7083012
vn 0.66488 0.2371581 -0.7083012
vn 0.7834058 0.178262 -0.5953972
vn 0.7834058 0.178262 -0.5953972
vn 0.7834058 0.178262 -0.5953972
vn 0.7834058 0.1782621 -0.5953972
vn -0.1164155 0.8368366 -0.5349314
vn -0.1164156 0.8368366 -0.5349314
vn -0.1164155 0.8368366 -0.5349314
vn -0.1164156 0.8368366 -0.5349314
vn -0.4262653 0.8884323 -0.1702514
vn -0.4262653 0.8884323 -0.1702514
vn -0.4262653 0.8884323 -0.1702514
vn -0.4262652 0.8884323 -0.1702514
vn -0.4667485 0.8693344 0.1624906
vn -0.4667485 0.8693344 0.1624906
vn -0.4667485 0.8693344 0.1624906
vn -0.4667485 0.8693344 0.1624906
vn -0.5835229 0.8049014 0.1078631
vn -0.5835229 0.8049014 0.1078631
vn -0.5835229 0.8049014 0.1078631
vn -0.5835229 0.8049014 0.1078631
vn -0.04683739 0.8185279 0.5725539
vn -0.04683736 0.818528 0.5725538
vn -0.04683742 0.8185279 0.5725539
vn -0.04683739 0.8185279 0.5725539
vn 0.1209925 0.8222619 0.5560988
vn 0.1209925 0.8222618 0.5560988
vn 0.1209925 0.8222618 0.5560989
vn 0.1209925 0.8222618 0.5560988
vn 0.321062 0.8172354 0.4785867
vn 0.321062 0.8172354 0.4785867
vn 0.321062 0.8172354 0.4785867
vn 0.321062 0.8172354 0.4785867
vn 0.5343014 0.7962341 -0.2837831
vn 0.5343014 0.7962341 -0.2837832
vn 0.5343014 0.7962341 -0.2837831
vn 0.5343014 0.7962341 -0.2837832
vn 0.3154067 0.7985131 -0.5127331
vn 0.3154066 0.7985131 -0.512733
vn 0.3154066 0.7985131 -0.512733
vn 0.3154067 0.7985131 -0.5127331
vn 0.6170338 0.7325385 -0.2875003
vn 0.6170338 0.7325385 -0.2875003
vn 0.6170338 0.7325385 -0.2875003
vn 0.6170338 0.7325385 -0.2875003
vn -0.06114938 0.9546867 -0.2912621
vn -0.06114942 0.9546867 -0.2912621
vn -0.06114938 0.9546867 -0.2912621
vn -0.3960648 0.9181488 -0.01162323
vn -0.3960649 0.9181488 -0.01162325
vn -0.3960648 0.9181488 -0.01162325
vn -0.4130725 0.9097522 0.041493
vn -0.4130725 0.9097522 0.04149298
vn -0.4130725 0.9097522 0.04149301
vn -0.4018346 0.9095349 0.1061826
vn -0.4018347 0.9095349 0.1061826
vn -0.4018347 0.9095349 0.1061826
vn -0.08201972 0.9244466 0.3723854
vn -0.08201969 0.9244466 0.3723854
vn -0.08201972 0.9244466 0.3723854
vn 0.07758503 0.9219852 0.3793723
vn 0.07758503 0.9219853 0.3793724
vn 0.07758503 0.9219853 0.3793724
vn 0.1856028 0.9320198 0.3112717
vn 0.1856028 0.9320198 0.3112717
vn 0.1856028 0.9320198 0.3112717
vn 0.3243099 0.9190345 -0.2240494
vn 0.3243099 0.9190345 -0.2240494
vn 0.3243099 0.9190345 -0.2240494
vn 0.2053314 0.8268819 -0.5235504
vn 0.2053314 0.8268819 -0.5235503
vn 0.2053314 0.826882 -0.5235503
vn 0.6079406 0.7785742 -0.1556604
vn 0.6079406 0.7785742 -0.1556604
vn 0.6079406 0.7785742 -0.1556604

vt 0.5482839 0.007647395
vt 0.5 0.15
vt 0.6264089 0.06440853
vt 0.4517161 0.00764741
vt 0.3735911 0.06440856
vt 0.34375 0.15625
vt 0.3735911 0.2480915
vt 0.4517161 0.3048526
vt 0.5482839 0.3048526
vt 0.6264089 0.2480914
vt 0.65625 0.15625
vt 0 0
vt 0 1
vt 1 1
vt 1 0
vt 0 0
vt 0 1
vt 1 1
vt 1 0
vt 0 0
vt 0 1
vt 1 1
vt 1 0
vt 0 0
vt 0 1
vt 1 1
vt 1 0
vt 0 0
vt 0 1
vt 1 1
vt 1 0
vt 0 0
vt 0 1
vt 1 1
vt 1 0
vt 0 0
vt 0 1
vt 1 1
vt 1 0
vt 0 0
vt 0 1
vt 1 1
vt 1 0
vt 0 0
vt 0 1
vt 1 1
vt 1 0
vt 0 0
vt 0 1
vt 1 1
vt 1 0
vt 0 0
vt 0 1
vt 1 1
vt 1 0
vt 0 0
vt 0 1
vt 1 1
vt 1 0
vt 0 0
vt 0 1
vt 1 1
vt 1 0
vt 0 0
vt 0 1
vt 1 1
vt 1 0
vt 0 0
vt 0 1
vt 1 1
vt 1 0
vt 0 0
vt 0 1
vt 1 1
vt 1 0
vt 0 0
vt 0 1
vt 1 1
vt 1 0
vt 0 0
vt 0 1
vt 1 1
vt 1 0
vt 0 0
vt 0 1
vt 1 1
vt 1 0
vt 0 0
vt 0 1
vt 1 1
vt 1 0
vt 0 0
vt 0 1
vt 1 1
vt 1 0
vt 0 0
vt 0 1
vt 1 1
vt 1 0
vt 0 0
vt 0 1
vt 1 1
vt 1 0
vt 0 0
vt 0 1
vt 1 1
vt 1 0
vt 0 0
vt 0 1
vt 1 1
vt 1 0
vt 0 0
vt 0 1
vt 1 1
vt 1 0
vt 0 0
vt 0 1
vt 1 1
vt 1 0
vt 0 0
vt 0 1
vt 1 1
vt 1 0
vt 0 0
vt 0 1
vt 1 1
vt 1 0
vt 0 0
vt 0 1
vt 1 1
vt 1 0
vt 0 0
vt 0 1
vt 1 1
vt 1 0
vt 0 0
vt 0 1
vt 1 1
vt 1 0
vt 0 0
vt 0 1
vt 1 1
vt 1 0
vt 0 0
vt 0 1
vt 1 1
vt 1 0
vt 0 0
vt 0 1
vt 1 1
vt 1 0
vt 0 0
vt 0 1
vt 1 1
vt 1 0
vt 0 0
vt 0 1
vt 1 1
vt 1 0
vt 0 0
vt 0 1
vt 1 1
vt 1 0
vt 0 0
vt 0 1
vt 1 1
vt 1 0
vt 0 0
vt 0 1
vt 1 1
vt 1 0
vt 0 0
vt 0.5 1
vt 1 0
vt 0 0
vt 0.5 1
vt 1 0
vt 0 0
vt 0.5 1
vt 1 0
vt 0 0
vt 0.5 1
vt 1 0
vt 0 0
vt 0.5 1
vt 1 0
vt 0 0
vt 0.5 1
vt 1 0
vt 0 0
vt 0.5 1
vt 1 0
vt 0 0
vt 0.5 1
vt 1 0
vt 0 0
vt 0.5 1
vt 1 0
vt 0 0
vt 0.5 1
vt 1 0

g pCylinder18_2_3853_7
usemtl pCylinder18_2_3853_7
usemap pCylinder18_2_3853_7
f 1/1/1 3/3/3 2/2/2
f 4/4/4 1/1/1 2/2/2
f 5/5/5 4/4/4 2/2/2
f 6/6/6 5/5/5 2/2/2
f 7/7/7 6/6/6 2/2/2
f 8/8/8 7/7/7 2/2/2
f 9/9/9 8/8/8 2/2/2
f 10/10/10 9/9/9 2/2/2
f 11/11/11 10/10/10 2/2/2
f 3/3/3 11/11/11 2/2/2
f 12/12/12 14/14/14 13/13/13
f 12/12/12 15/15/15 14/14/14
f 16/16/16 18/18/18 17/17/17
f 16/16/16 19/19/19 18/18/18
f 20/20/20 22/22/22 21/21/21
f 20/20/20 23/23/23 22/22/22
f 24/24/24 26/26/26 25/25/25
f 24/24/24 27/27/27 26/26/26
f 28/28/28 30/30/30 29/29/29
f 28/28/28 31/31/31 30/30/30
f 32/32/32 34/34/34 33/33/33
f 32/32/32 35/35/35 34/34/34
f 36/36/36 38/38/38 37/37/37
f 36/36/36 39/39/39 38/38/38
f 40/40/40 42/42/42 41/41/41
f 40/40/40 43/43/43 42/42/42
f 44/44/44 46/46/46 45/45/45
f 44/44/44 47/47/47 46/46/46
f 48/48/48 50/50/50 49/49/49
f 48/48/48 51/51/51 50/50/50
f 52/52/52 54/54/54 53/53/53
f 52/52/52 55/55/55 54/54/54
f 56/56/56 58/58/58 57/57/57
f 56/56/56 59/59/59 58/58/58
f 60/60/60 62/62/62 61/61/61
f 60/60/60 63/63/63 62/62/62
f 64/64/64 66/66/66 65/65/65
f 64/64/64 67/67/67 66/66/66
f 68/68/68 70/70/70 69/69/69
f 68/68/68 71/71/71 70/70/70
f 72/72/72 74/74/74 73/73/73
f 72/72/72 75/75/75 74/74/74
f 76/76/76 78/78/78 77/77/77
f 76/76/76 79/79/79 78/78/78
f 80/80/80 82/82/82 81/81/81
f 80/80/80 83/83/83 82/82/82
f 84/84/84 86/86/86 85/85/85
f 84/84/84 87/87/87 86/86/86
f 88/88/88 90/90/90 89/89/89
f 88/88/88 91/91/91 90/90/90
f 92/92/92 94/94/94 93/93/93
f 92/92/92 95/95/95 94/94/94
f 96/96/96 98/98/98 97/97/97
f 96/96/96 99/99/99 98/98/98
f 100/100/100 102/102/102 101/101/101
f 100/100/100 103/103/103 102/102/102
f 104/104/104 106/106/106 105/105/105
f 104/104/104 107/107/107 106/106/106
f 108/108/108 110/110/110 109/109/109
f 108/108/108 111/111/111 110/110/110
f 112/112/112 114/114/114 113/113/113
f 112/112/112 115/115/115 114/114/114
f 116/116/116 118/118/118 117/117/117
f 116/116/116 119/119/119 118/118/118
f 120/120/120 122/122/122 121/121/121
f 120/120/120 123/123/123 122/122/122
f 124/124/124 126/126/126 125/125/125
f 124/124/124 127/127/127 126/126/126
f 128/128/128 130/130/130 129/129/129
f 128/128/128 131/131/131 130/130/130
f 132/132/132 134/134/134 133/133/133
f 132/132/132 135/135/135 134/134/134
f 136/136/136 138/138/138 137/137/137
f 136/136/136 139/139/139 138/138/138
f 140/140/140 142/142/142 141/141/141
f 140/140/140 143/143/143 142/142/142
f 144/144/144 146/146/146 145/145/145
f 144/144/144 147/147/147 146/146/146
f 148/148/148 150/150/150 149/149/149
f 148/148/148 151/151/151 150/150/150
f 152/152/152 154/154/154 153/153/153
f 152/152/152 155/155/155 154/154/154
f 156/156/156 158/158/158 157/157/157
f 156/156/156 159/159/159 158/158/158
f 160/160/160 162/162/162 161/161/161
f 160/160/160 163/163/163 162/162/162
f 164/164/164 166/166/166 165/165/165
f 164/164/164 167/167/167 166/166/166
f 168/168/168 170/170/170 169/169/169
f 168/168/168 171/171/171 170/170/170
f 172/172/172 174/174/174 173/173/173
f 175/175/175 177/177/177 176/176/176
f 178/178/178 180/180/180 179/179/179
f 181/181/181 183/183/183 182/182/182
f 184/184/184 186/186/186 185/185/185
f 187/187/187 189/189/189 188/188/188
f 190/190/190 192/192/192 191/191/191
f 193/193/193 195/195/195 194/194/194
f 196/196/196 198/198/198 197/197/197
f 199/199/199 201/201/201 200/200/200
