#pCylinder18_27_3829_211.obj

v 0.01453974 -0.0257756 -0.04035557
v 0.004618685 -0.03397599 0.001093736
v 0.03877872 -0.0257756 -0.02105238
v -0.009668928 -0.0257756 -0.03817177
v -0.01825625 -0.0257756 -0.01777788
v -0.03822744 -0.02223209 0.001095139
v -0.02135616 -0.0257756 0.01996519
v -0.005303267 -0.0257756 0.03272036
v 0.02108859 -0.0257756 0.04036069
v 0.0305935 -0.0257756 0.01996519
v 0.03218355 -0.02223209 0.001094892
v 0.03877872 -0.0257756 -0.02105238
v 0.04796151 -0.01489229 -0.02772346
v 0.01804713 -0.01489229 -0.05115017
v 0.01453974 -0.0257756 -0.04035557
v 0.01453974 -0.0257756 -0.04035557
v 0.01804713 -0.01489229 -0.05115017
v -0.0131766 -0.01489229 -0.0489663
v -0.009668928 -0.0257756 -0.03817177
v -0.009668928 -0.0257756 -0.03817177
v -0.0131766 -0.01489229 -0.0489663
v -0.0274391 -0.01489229 -0.02444828
v -0.01825625 -0.0257756 -0.01777788
v -0.01825625 -0.0257756 -0.01777788
v -0.0274391 -0.01489229 -0.02444828
v -0.04797271 -0.01288813 0.001093814
v -0.03822744 -0.02223209 0.001095139
v -0.03822744 -0.02223209 0.001095139
v -0.04797271 -0.01288813 0.001093814
v -0.03053849 -0.01489229 0.02663839
v -0.02135616 -0.0257756 0.01996519
v -0.02135616 -0.0257756 0.01996519
v -0.03053849 -0.01489229 0.02663839
v -0.008810657 -0.01489229 0.04351496
v -0.005303267 -0.0257756 0.03272036
v -0.005303267 -0.0257756 0.03272036
v -0.008810657 -0.01489229 0.04351496
v 0.02459626 -0.01489229 0.05115521
v 0.02108859 -0.0257756 0.04036069
v 0.02108859 -0.0257756 0.04036069
v 0.02459626 -0.01489229 0.05115521
v 0.03977587 -0.01489229 0.02663746
v 0.0305935 -0.0257756 0.01996519
v 0.0305935 -0.0257756 0.01996519
v 0.03977587 -0.01489229 0.02663746
v 0.0419293 -0.01288813 0.001094343
v 0.03218355 -0.02223209 0.001094892
v 0.03218355 -0.02223209 0.001094892
v 0.0419293 -0.01288813 0.001094343
v 0.04796151 -0.01489229 -0.02772346
v 0.03877872 -0.0257756 -0.02105238
v 0.04796151 -0.01489229 -0.02772346
v 0.04796151 -0.0001482505 -0.02772346
v 0.01804713 -0.0001482505 -0.05115017
v 0.01804713 -0.01489229 -0.05115017
v 0.01804713 -0.01489229 -0.05115017
v 0.01804713 -0.0001482505 -0.05115017
v -0.0131766 -0.0001482505 -0.0489663
v -0.0131766 -0.01489229 -0.0489663
v -0.0131766 -0.01489229 -0.0489663
v -0.0131766 -0.0001482505 -0.0489663
v -0.0274391 -0.0001482505 -0.02444828
v -0.0274391 -0.01489229 -0.02444828
v -0.0274391 -0.01489229 -0.02444828
v -0.0274391 -0.0001482505 -0.02444828
v -0.04797271 -0.0002293646 0.001093814
v -0.04797271 -0.01288813 0.001093814
v -0.04797271 -0.01288813 0.001093814
v -0.04797271 -0.0002293646 0.001093814
v -0.03053849 -0.0001482505 0.02663839
v -0.03053849 -0.01489229 0.02663839
v -0.03053849 -0.01489229 0.02663839
v -0.03053849 -0.0001482505 0.02663839
v -0.008810657 -0.0001482505 0.04351496
v -0.008810657 -0.01489229 0.04351496
v -0.008810657 -0.01489229 0.04351496
v -0.008810657 -0.0001482505 0.04351496
v 0.02459626 -0.0001482505 0.05115521
v 0.02459626 -0.01489229 0.05115521
v 0.02459626 -0.01489229 0.05115521
v 0.02459626 -0.0001482505 0.05115521
v 0.03977587 -0.0001482505 0.02663746
v 0.03977587 -0.01489229 0.02663746
v 0.03977587 -0.01489229 0.02663746
v 0.03977587 -0.0001482505 0.02663746
v 0.0419293 -0.0002293646 0.001094343
v 0.0419293 -0.01288813 0.001094343
v 0.0419293 -0.01288813 0.001094343
v 0.0419293 -0.0002293646 0.001094343
v 0.04796151 -0.0001482505 -0.02772346
v 0.04796151 -0.01489229 -0.02772346
v 0.04796151 -0.0001482505 -0.02772346
v 0.04568304 0.01428342 -0.02539411
v 0.01713929 0.01428342 -0.04798836
v 0.01804713 -0.0001482505 -0.05115017
v 0.01804713 -0.0001482505 -0.05115017
v 0.01713929 0.01428342 -0.04798836
v -0.01183463 0.01428342 -0.04559421
v -0.0131766 -0.0001482505 -0.0489663
v -0.0131766 -0.0001482505 -0.0489663
v -0.01183463 0.01428342 -0.04559421
v -0.02321625 0.01428342 -0.02180286
v -0.0274391 -0.0001482505 -0.02444828
v -0.0274391 -0.0001482505 -0.02444828
v -0.02321625 0.01428342 -0.02180286
v -0.04531007 0.01197221 0.001199747
v -0.04797271 -0.0002293646 0.001093814
v -0.04797271 -0.0002293646 0.001093814
v -0.04531007 0.01197221 0.001199747
v -0.02661529 0.01428342 0.02420337
v -0.03053849 -0.0001482505 0.02663839
v -0.03053849 -0.0001482505 0.02663839
v -0.02661529 0.01428342 0.02420337
v -0.007047496 0.01428342 0.0396171
v -0.008810657 -0.0001482505 0.04351496
v -0.008810657 -0.0001482505 0.04351496
v -0.007047496 0.01428342 0.0396171
v 0.02432055 0.01428342 0.04799307
v 0.02459626 -0.0001482505 0.05115521
v 0.02459626 -0.0001482505 0.05115521
v 0.02432055 0.01428342 0.04799307
v 0.03670792 0.01428342 0.02420262
v 0.03977587 -0.0001482505 0.02663746
v 0.03977587 -0.0001482505 0.02663746
v 0.03670792 0.01428342 0.02420262
v 0.03864693 0.01197221 0.001199684
v 0.0419293 -0.0002293646 0.001094343
v 0.0419293 -0.0002293646 0.001094343
v 0.03864693 0.01197221 0.001199684
v 0.04568304 0.01428342 -0.02539411
v 0.04796151 -0.0001482505 -0.02772346
v 0.04568304 0.01428342 -0.02539411
v 0.03224707 0.02437445 -0.01614459
v 0.01203095 0.02437445 -0.03256592
v 0.01713929 0.01428342 -0.04798836
v 0.01713929 0.01428342 -0.04798836
v 0.01203095 0.02437445 -0.03256592
v -0.00259751 0.02437445 -0.02139083
v -0.01183463 0.01428342 -0.04559421
v -0.01183463 0.01428342 -0.04559421
v -0.00259751 0.02437445 -0.02139083
v -0.01125867 0.02437445 -0.01279235
v -0.02321625 0.01428342 -0.02180286
v -0.02321625 0.01428342 -0.02180286
v -0.01125867 0.02437445 -0.01279235
v -0.03124955 0.02074656 0.00111952
v -0.04531007 0.01197221 0.001199747
v -0.04531007 0.01197221 0.001199747
v -0.03124955 0.02074656 0.00111952
v -0.01443316 0.02437445 0.01503341
v -0.02661529 0.01428342 0.02420337
v -0.02661529 0.01428342 0.02420337
v -0.01443316 0.02437445 0.01503341
v -0.002597542 0.02437445 0.02474937
v -0.007047496 0.01428342 0.0396171
v -0.007047496 0.01428342 0.0396171
v -0.002597542 0.02437445 0.02474937
v 0.018736 0.02437445 0.03257124
v 0.02432055 0.01428342 0.04799307
v 0.02432055 0.01428342 0.04799307
v 0.018736 0.02437445 0.03257124
v 0.02386588 0.02437445 0.0150325
v 0.03670792 0.01428342 0.02420262
v 0.03670792 0.01428342 0.02420262
v 0.02386588 0.02437445 0.0150325
v 0.02503843 0.02074656 0.001119696
v 0.03864693 0.01197221 0.001199684
v 0.03864693 0.01197221 0.001199684
v 0.02503843 0.02074656 0.001119696
v 0.03224707 0.02437445 -0.01614459
v 0.04568304 0.01428342 -0.02539411
v 0.03224707 0.02437445 -0.01614459
v 0.004618685 0.03397614 0.001093736
v 0.01203095 0.02437445 -0.03256592
v 0.01203095 0.02437445 -0.03256592
v 0.004618685 0.03397614 0.001093736
v -0.00259751 0.02437445 -0.02139083
v -0.00259751 0.02437445 -0.02139083
v 0.004618685 0.03397614 0.001093736
v -0.01125867 0.02437445 -0.01279235
v -0.01125867 0.02437445 -0.01279235
v 0.004618685 0.03397614 0.001093736
v -0.03124955 0.02074656 0.00111952
v -0.03124955 0.02074656 0.00111952
v 0.004618685 0.03397614 0.001093736
v -0.01443316 0.02437445 0.01503341
v -0.01443316 0.02437445 0.01503341
v 0.004618685 0.03397614 0.001093736
v -0.002597542 0.02437445 0.02474937
v -0.002597542 0.02437445 0.02474937
v 0.004618685 0.03397614 0.001093736
v 0.018736 0.02437445 0.03257124
v 0.018736 0.02437445 0.03257124
v 0.004618685 0.03397614 0.001093736
v 0.02386588 0.02437445 0.0150325
v 0.02386588 0.02437445 0.0150325
v 0.004618685 0.03397614 0.001093736
v 0.02503843 0.02074656 0.001119696
v 0.02503843 0.02074656 0.001119696
v 0.004618685 0.03397614 0.001093736
v 0.03224707 0.02437445 -0.01614459

vn 0.01359995 -0.9818565 -0.1891347
vn 0.001616263 -0.9999982 -0.0004266395
vn 0.1792265 -0.9784297 -0.1027247
vn -0.1244325 -0.9810984 -0.1481942
vn -0.2769581 -0.9602382 -0.03515654
vn -0.2605349 -0.9642731 0.04793819
vn -0.1913652 -0.9679796 0.1624624
vn -0.04219285 -0.970319 0.2381172
vn 0.1014193 -0.9818347 0.1603557
vn 0.2813394 -0.9585599 -0.04483397
vn 0.4024951 -0.9154217 8.227676E-05
vn 0.2885947 -0.703926 -0.6489999
vn 0.2885946 -0.703926 -0.6489999
vn 0.2885947 -0.703926 -0.6489999
vn 0.2885946 -0.703926 -0.6489999
vn -0.2292192 -0.7031067 -0.6731262
vn -0.2292192 -0.7031068 -0.6731262
vn -0.2292192 -0.7031067 -0.6731262
vn -0.2292192 -0.7031068 -0.6731262
vn -0.7311946 -0.6620906 -0.1642864
vn -0.7311946 -0.6620905 -0.1642865
vn -0.7311946 -0.6620906 -0.1642864
vn -0.7311946 -0.6620905 -0.1642864
vn -0.6690938 -0.6863981 -0.2849046
vn -0.6690939 -0.6863981 -0.2849046
vn -0.6690938 -0.6863981 -0.2849046
vn -0.6690938 -0.6863981 -0.2849045
vn -0.4947384 -0.6953633 0.5212515
vn -0.4947384 -0.6953633 0.5212515
vn -0.4947384 -0.6953633 0.5212516
vn -0.4947384 -0.6953633 0.5212516
vn -0.2866765 -0.7039658 0.6498062
vn -0.2866766 -0.7039658 0.6498062
vn -0.2866766 -0.7039658 0.6498061
vn -0.2866765 -0.7039658 0.6498061
vn -0.0004068464 -0.6928934 0.7210394
vn -0.0004068762 -0.6928935 0.7210395
vn -0.0004068315 -0.6928935 0.7210395
vn -0.0004068464 -0.6928934 0.7210394
vn 0.7205783 -0.6678944 0.1862354
vn 0.7205783 -0.6678944 0.1862354
vn 0.7205783 -0.6678944 0.1862354
vn 0.7205783 -0.6678944 0.1862354
vn 0.7053447 -0.6790238 -0.2035067
vn 0.7053447 -0.6790239 -0.2035067
vn 0.7053447 -0.6790238 -0.2035067
vn 0.7053447 -0.6790238 -0.2035067
vn 0.7858074 -0.6155775 0.0597543
vn 0.7858075 -0.6155774 0.05975425
vn 0.7858074 -0.6155775 0.0597543
vn 0.7858074 -0.6155775 0.05975427
vn 0.402963 -9.677577E-17 -0.9152162
vn 0.4029631 -9.67758E-17 -0.9152162
vn 0.4029631 -9.67758E-17 -0.9152162
vn 0.402963 -9.677577E-17 -0.9152162
vn -0.3140108 9.815009E-17 -0.9494194
vn -0.3140108 9.815009E-17 -0.9494194
vn -0.3140108 9.815009E-17 -0.9494194
vn -0.3140108 9.815009E-17 -0.9494194
vn -0.9618127 2.646066E-16 -0.2737083
vn -0.9618127 2.646066E-16 -0.2737083
vn -0.9618127 2.646066E-16 -0.2737083
vn -0.9618127 2.646066E-16 -0.2737083
vn -0.9100097 2.524832E-16 -0.4145867
vn -0.9100097 2.524832E-16 -0.4145867
vn -0.9100097 2.524832E-16 -0.4145867
vn -0.9100097 2.524832E-16 -0.4145867
vn -0.6611009 1.690435E-16 0.750297
vn -0.6611009 1.690435E-16 0.750297
vn -0.6611008 1.690435E-16 0.7502971
vn -0.6611009 1.690435E-16 0.750297
vn -0.3993421 9.577202E-17 0.9168019
vn -0.3993421 9.577202E-17 0.9168019
vn -0.3993421 9.577202E-17 0.9168019
vn -0.3993421 9.577202E-17 0.9168019
vn 0.02477528 -2.039097E-17 0.9996929
vn 0.02477528 -2.039097E-17 0.9996929
vn 0.02477528 -2.039097E-17 0.9996929
vn 0.02477528 -2.039097E-17 0.9996929
vn 0.9539241 -2.628273E-16 0.3000479
vn 0.9539241 -2.628273E-16 0.3000479
vn 0.9539241 -2.628273E-16 0.3000479
vn 0.9539241 -2.628273E-16 0.3000479
vn 0.9863338 -2.652609E-16 -0.1647594
vn 0.9863338 -2.652609E-16 -0.1647594
vn 0.9863338 -2.652609E-16 -0.1647594
vn 0.9863338 -2.652609E-16 -0.1647594
vn 0.9990645 -2.703756E-16 -0.04324359
vn 0.9990645 -2.703756E-16 -0.0432436
vn 0.9990645 -2.703756E-16 -0.04324359
vn 0.9990645 -2.703756E-16 -0.04324359
vn 0.3960168 0.212757 -0.8932554
vn 0.3960168 0.212757 -0.8932553
vn 0.3960168 0.212757 -0.8932553
vn 0.3960168 0.212757 -0.8932553
vn -0.3118534 0.2212333 -0.9240146
vn -0.3118534 0.2212333 -0.9240146
vn -0.3118534 0.2212333 -0.9240146
vn -0.3118534 0.2212333 -0.9240146
vn -0.9385902 0.2588965 -0.2280808
vn -0.9385902 0.2588965 -0.2280808
vn -0.9385902 0.2588965 -0.2280809
vn -0.9385902 0.2588965 -0.2280808
vn -0.8659984 0.2546348 -0.4303578
vn -0.8659983 0.2546348 -0.4303579
vn -0.8659984 0.2546347 -0.4303578
vn -0.8659983 0.2546348 -0.4303578
vn -0.6183348 0.2437819 0.7471495
vn -0.6183348 0.2437819 0.7471495
vn -0.6183348 0.2437819 0.7471495
vn -0.6183348 0.2437819 0.7471495
vn -0.385937 0.2822602 0.8782834
vn -0.3859371 0.2822602 0.8782833
vn -0.385937 0.2822602 0.8782834
vn -0.385937 0.2822602 0.8782834
vn 0.006976873 0.2423859 0.9701548
vn 0.006976888 0.2423859 0.9701548
vn 0.006976873 0.2423859 0.9701548
vn 0.006976873 0.2423859 0.9701548
vn 0.9459307 0.1930068 0.2606981
vn 0.9459307 0.1930068 0.2606981
vn 0.9459306 0.1930069 0.2606982
vn 0.9459307 0.1930069 0.2606981
vn 0.956207 0.2371581 -0.1715344
vn 0.956207 0.2371581 -0.1715344
vn 0.956207 0.2371581 -0.1715344
vn 0.956207 0.237158 -0.1715344
vn 0.9839301 0.178262 -0.01020521
vn 0.9839301 0.178262 -0.01020524
vn 0.9839301 0.178262 -0.01020521
vn 0.9839301 0.178262 -0.01020521
vn 0.2258359 0.8368363 -0.4987006
vn 0.2258359 0.8368363 -0.4987007
vn 0.2258359 0.8368363 -0.4987006
vn 0.2258359 0.8368363 -0.4987007
vn -0.2404253 0.8884321 -0.3910029
vn -0.2404253 0.8884321 -0.3910029
vn -0.2404253 0.8884321 -0.3910029
vn -0.2404253 0.8884321 -0.3910029
vn -0.4714888 0.8693342 -0.1481742
vn -0.4714889 0.8693342 -0.1481742
vn -0.4714888 0.8693342 -0.1481742
vn -0.4714889 0.8693342 -0.1481742
vn -0.5325859 0.8049012 -0.2616976
vn -0.5325859 0.8049012 -0.2616976
vn -0.5325859 0.8049012 -0.2616976
vn -0.5325859 0.8049012 -0.2616976
vn -0.3792816 0.8185277 0.4314593
vn -0.3792815 0.8185278 0.4314593
vn -0.3792816 0.8185277 0.4314594
vn -0.3792816 0.8185277 0.4314593
vn -0.2347961 0.8222617 0.5184167
vn -0.2347961 0.8222616 0.5184167
vn -0.2347961 0.8222616 0.5184168
vn -0.2347961 0.8222616 0.5184167
vn -0.02800299 0.8172351 0.575623
vn -0.02800298 0.8172351 0.575623
vn -0.02800298 0.8172351 0.575623
vn -0.02800298 0.8172351 0.575623
vn 0.5980799 0.796234 0.09116569
vn 0.59808 0.796234 0.09116569
vn 0.59808 0.796234 0.09116572
vn 0.59808 0.796234 0.09116569
vn 0.559078 0.7985129 -0.2231778
vn 0.5590779 0.7985129 -0.2231778
vn 0.559078 0.7985129 -0.2231778
vn 0.559078 0.7985129 -0.2231778
vn 0.6666821 0.7325383 0.1375577
vn 0.6666821 0.7325383 0.1375577
vn 0.6666821 0.7325383 0.1375577
vn 0.6666821 0.7325383 0.1375577
vn 0.1247593 0.9546865 -0.2701999
vn 0.1247593 0.9546865 -0.2701999
vn 0.1247593 0.9546865 -0.2701999
vn -0.310862 0.9181486 -0.2456975
vn -0.310862 0.9181486 -0.2456976
vn -0.3108619 0.9181486 -0.2456975
vn -0.3562085 0.909752 -0.2132277
vn -0.3562085 0.909752 -0.2132278
vn -0.3562085 0.909752 -0.2132277
vn -0.385798 0.9095348 -0.1546146
vn -0.3857981 0.9095348 -0.1546147
vn -0.3857981 0.9095348 -0.1546147
vn -0.2880511 0.9244464 0.2498493
vn -0.2880511 0.9244464 0.2498492
vn -0.2880511 0.9244464 0.2498493
vn -0.1641556 0.921985 0.3507075
vn -0.1641556 0.9219851 0.3507075
vn -0.1641556 0.9219851 0.3507075
vn -0.03684073 0.9320197 0.3605291
vn -0.03684075 0.9320197 0.3605291
vn -0.03684074 0.9320197 0.3605291
vn 0.3939357 0.9190344 0.01377274
vn 0.3939358 0.9190344 0.01377273
vn 0.3939358 0.9190343 0.01377273
vn 0.4772104 0.8268817 -0.2975503
vn 0.4772103 0.8268817 -0.2975503
vn 0.4772103 0.8268818 -0.2975503
vn 0.5807039 0.778574 0.237918
vn 0.5807038 0.778574 0.237918
vn 0.5807039 0.778574 0.237918

vt 0.5483398 0.007648468
vt 0.5 0.1500244
vt 0.6264648 0.06439209
vt 0.4516602 0.007648468
vt 0.3735352 0.06439209
vt 0.34375 0.15625
vt 0.3735352 0.2480469
vt 0.4516602 0.3049316
vt 0.5483398 0.3049316
vt 0.6264648 0.2480469
vt 0.65625 0.15625
vt 0 0
vt 0 1
vt 1 1
vt 1 0
vt 0 0
vt 0 1
vt 1 1
vt 1 0
vt 0 0
vt 0 1
vt 1 1
vt 1 0
vt 0 0
vt 0 1
vt 1 1
vt 1 0
vt 0 0
vt 0 1
vt 1 1
vt 1 0
vt 0 0
vt 0 1
vt 1 1
vt 1 0
vt 0 0
vt 0 1
vt 1 1
vt 1 0
vt 0 0
vt 0 1
vt 1 1
vt 1 0
vt 0 0
vt 0 1
vt 1 1
vt 1 0
vt 0 0
vt 0 1
vt 1 1
vt 1 0
vt 0 0
vt 0 1
vt 1 1
vt 1 0
vt 0 0
vt 0 1
vt 1 1
vt 1 0
vt 0 0
vt 0 1
vt 1 1
vt 1 0
vt 0 0
vt 0 1
vt 1 1
vt 1 0
vt 0 0
vt 0 1
vt 1 1
vt 1 0
vt 0 0
vt 0 1
vt 1 1
vt 1 0
vt 0 0
vt 0 1
vt 1 1
vt 1 0
vt 0 0
vt 0 1
vt 1 1
vt 1 0
vt 0 0
vt 0 1
vt 1 1
vt 1 0
vt 0 0
vt 0 1
vt 1 1
vt 1 0
vt 0 0
vt 0 1
vt 1 1
vt 1 0
vt 0 0
vt 0 1
vt 1 1
vt 1 0
vt 0 0
vt 0 1
vt 1 1
vt 1 0
vt 0 0
vt 0 1
vt 1 1
vt 1 0
vt 0 0
vt 0 1
vt 1 1
vt 1 0
vt 0 0
vt 0 1
vt 1 1
vt 1 0
vt 0 0
vt 0 1
vt 1 1
vt 1 0
vt 0 0
vt 0 1
vt 1 1
vt 1 0
vt 0 0
vt 0 1
vt 1 1
vt 1 0
vt 0 0
vt 0 1
vt 1 1
vt 1 0
vt 0 0
vt 0 1
vt 1 1
vt 1 0
vt 0 0
vt 0 1
vt 1 1
vt 1 0
vt 0 0
vt 0 1
vt 1 1
vt 1 0
vt 0 0
vt 0 1
vt 1 1
vt 1 0
vt 0 0
vt 0 1
vt 1 1
vt 1 0
vt 0 0
vt 0 1
vt 1 1
vt 1 0
vt 0 0
vt 0 1
vt 1 1
vt 1 0
vt 0 0
vt 0 1
vt 1 1
vt 1 0
vt 0 0
vt 0 1
vt 1 1
vt 1 0
vt 0 0
vt 0 1
vt 1 1
vt 1 0
vt 0 0
vt 0.5 1
vt 1 0
vt 0 0
vt 0.5 1
vt 1 0
vt 0 0
vt 0.5 1
vt 1 0
vt 0 0
vt 0.5 1
vt 1 0
vt 0 0
vt 0.5 1
vt 1 0
vt 0 0
vt 0.5 1
vt 1 0
vt 0 0
vt 0.5 1
vt 1 0
vt 0 0
vt 0.5 1
vt 1 0
vt 0 0
vt 0.5 1
vt 1 0
vt 0 0
vt 0.5 1
vt 1 0

g pCylinder18_27_3829_211
usemtl pCylinder18_27_3829_211
usemap pCylinder18_27_3829_211
f 1/1/1 3/3/3 2/2/2
f 4/4/4 1/1/1 2/2/2
f 5/5/5 4/4/4 2/2/2
f 6/6/6 5/5/5 2/2/2
f 7/7/7 6/6/6 2/2/2
f 8/8/8 7/7/7 2/2/2
f 9/9/9 8/8/8 2/2/2
f 10/10/10 9/9/9 2/2/2
f 11/11/11 10/10/10 2/2/2
f 3/3/3 11/11/11 2/2/2
f 12/12/12 14/14/14 13/13/13
f 12/12/12 15/15/15 14/14/14
f 16/16/16 18/18/18 17/17/17
f 16/16/16 19/19/19 18/18/18
f 20/20/20 22/22/22 21/21/21
f 20/20/20 23/23/23 22/22/22
f 24/24/24 26/26/26 25/25/25
f 24/24/24 27/27/27 26/26/26
f 28/28/28 30/30/30 29/29/29
f 28/28/28 31/31/31 30/30/30
f 32/32/32 34/34/34 33/33/33
f 32/32/32 35/35/35 34/34/34
f 36/36/36 38/38/38 37/37/37
f 36/36/36 39/39/39 38/38/38
f 40/40/40 42/42/42 41/41/41
f 40/40/40 43/43/43 42/42/42
f 44/44/44 46/46/46 45/45/45
f 44/44/44 47/47/47 46/46/46
f 48/48/48 50/50/50 49/49/49
f 48/48/48 51/51/51 50/50/50
f 52/52/52 54/54/54 53/53/53
f 52/52/52 55/55/55 54/54/54
f 56/56/56 58/58/58 57/57/57
f 56/56/56 59/59/59 58/58/58
f 60/60/60 62/62/62 61/61/61
f 60/60/60 63/63/63 62/62/62
f 64/64/64 66/66/66 65/65/65
f 64/64/64 67/67/67 66/66/66
f 68/68/68 70/70/70 69/69/69
f 68/68/68 71/71/71 70/70/70
f 72/72/72 74/74/74 73/73/73
f 72/72/72 75/75/75 74/74/74
f 76/76/76 78/78/78 77/77/77
f 76/76/76 79/79/79 78/78/78
f 80/80/80 82/82/82 81/81/81
f 80/80/80 83/83/83 82/82/82
f 84/84/84 86/86/86 85/85/85
f 84/84/84 87/87/87 86/86/86
f 88/88/88 90/90/90 89/89/89
f 88/88/88 91/91/91 90/90/90
f 92/92/92 94/94/94 93/93/93
f 92/92/92 95/95/95 94/94/94
f 96/96/96 98/98/98 97/97/97
f 96/96/96 99/99/99 98/98/98
f 100/100/100 102/102/102 101/101/101
f 100/100/100 103/103/103 102/102/102
f 104/104/104 106/106/106 105/105/105
f 104/104/104 107/107/107 106/106/106
f 108/108/108 110/110/110 109/109/109
f 108/108/108 111/111/111 110/110/110
f 112/112/112 114/114/114 113/113/113
f 112/112/112 115/115/115 114/114/114
f 116/116/116 118/118/118 117/117/117
f 116/116/116 119/119/119 118/118/118
f 120/120/120 122/122/122 121/121/121
f 120/120/120 123/123/123 122/122/122
f 124/124/124 126/126/126 125/125/125
f 124/124/124 127/127/127 126/126/126
f 128/128/128 130/130/130 129/129/129
f 128/128/128 131/131/131 130/130/130
f 132/132/132 134/134/134 133/133/133
f 132/132/132 135/135/135 134/134/134
f 136/136/136 138/138/138 137/137/137
f 136/136/136 139/139/139 138/138/138
f 140/140/140 142/142/142 141/141/141
f 140/140/140 143/143/143 142/142/142
f 144/144/144 146/146/146 145/145/145
f 144/144/144 147/147/147 146/146/146
f 148/148/148 150/150/150 149/149/149
f 148/148/148 151/151/151 150/150/150
f 152/152/152 154/154/154 153/153/153
f 152/152/152 155/155/155 154/154/154
f 156/156/156 158/158/158 157/157/157
f 156/156/156 159/159/159 158/158/158
f 160/160/160 162/162/162 161/161/161
f 160/160/160 163/163/163 162/162/162
f 164/164/164 166/166/166 165/165/165
f 164/164/164 167/167/167 166/166/166
f 168/168/168 170/170/170 169/169/169
f 168/168/168 171/171/171 170/170/170
f 172/172/172 174/174/174 173/173/173
f 175/175/175 177/177/177 176/176/176
f 178/178/178 180/180/180 179/179/179
f 181/181/181 183/183/183 182/182/182
f 184/184/184 186/186/186 185/185/185
f 187/187/187 189/189/189 188/188/188
f 190/190/190 192/192/192 191/191/191
f 193/193/193 195/195/195 194/194/194
f 196/196/196 198/198/198 197/197/197
f 199/199/199 201/201/201 200/200/200
