#pCylinder9_11_3320_198.obj

v 0.01454733 -0.0257757 -0.04035994
v 0.004625692 -0.03397612 0.001089929
v 0.03878632 -0.0257757 -0.02105619
v -0.009661632 -0.0257757 -0.03817674
v -0.01824895 -0.0257757 -0.01778187
v -0.03822013 -0.02223226 0.001089892
v -0.0213489 -0.0257757 0.01996138
v -0.005295773 -0.0257757 0.03271659
v 0.02109599 -0.0257757 0.04035679
v 0.03060034 -0.0257757 0.01996196
v 0.03219153 -0.02223226 0.001089576
v 0.03878632 -0.0257757 -0.02105619
v 0.04796857 -0.01489246 -0.02772761
v 0.01805433 -0.01489246 -0.0511543
v 0.01454733 -0.0257757 -0.04035994
v 0.01454733 -0.0257757 -0.04035994
v 0.01805433 -0.01489246 -0.0511543
v -0.01316895 -0.01489246 -0.04897135
v -0.009661632 -0.0257757 -0.03817674
v -0.009661632 -0.0257757 -0.03817674
v -0.01316895 -0.01489246 -0.04897135
v -0.027431 -0.01489246 -0.02445342
v -0.01824895 -0.0257757 -0.01778187
v -0.01824895 -0.0257757 -0.01778187
v -0.027431 -0.01489246 -0.02445342
v -0.04796496 -0.0128882 0.001089777
v -0.03822013 -0.02223226 0.001089892
v -0.03822013 -0.02223226 0.001089892
v -0.04796496 -0.0128882 0.001089777
v -0.03053161 -0.01489246 0.02663323
v -0.0213489 -0.0257757 0.01996138
v -0.0213489 -0.0257757 0.01996138
v -0.03053161 -0.01489246 0.02663323
v -0.008802981 -0.01489246 0.04351073
v -0.005295773 -0.0257757 0.03271659
v -0.005295773 -0.0257757 0.03271659
v -0.008802981 -0.01489246 0.04351073
v 0.0246031 -0.01489246 0.05115116
v 0.02109599 -0.0257757 0.04035679
v 0.02109599 -0.0257757 0.04035679
v 0.0246031 -0.01489246 0.05115116
v 0.03978285 -0.01489246 0.0266331
v 0.03060034 -0.0257757 0.01996196
v 0.03060034 -0.0257757 0.01996196
v 0.03978285 -0.01489246 0.0266331
v 0.04193635 -0.0128882 0.001089691
v 0.03219153 -0.02223226 0.001089576
v 0.03219153 -0.02223226 0.001089576
v 0.04193635 -0.0128882 0.001089691
v 0.04796857 -0.01489246 -0.02772761
v 0.03878632 -0.0257757 -0.02105619
v 0.04796857 -0.01489246 -0.02772761
v 0.04796857 -0.0001483231 -0.02772761
v 0.01805433 -0.0001483231 -0.0511543
v 0.01805433 -0.01489246 -0.0511543
v 0.01805433 -0.01489246 -0.0511543
v 0.01805433 -0.0001483231 -0.0511543
v -0.01316895 -0.0001483231 -0.04897135
v -0.01316895 -0.01489246 -0.04897135
v -0.01316895 -0.01489246 -0.04897135
v -0.01316895 -0.0001483231 -0.04897135
v -0.027431 -0.0001483231 -0.02445342
v -0.027431 -0.01489246 -0.02445342
v -0.027431 -0.01489246 -0.02445342
v -0.027431 -0.0001483231 -0.02445342
v -0.04796496 -0.0002294295 0.001089777
v -0.04796496 -0.0128882 0.001089777
v -0.04796496 -0.0128882 0.001089777
v -0.04796496 -0.0002294295 0.001089777
v -0.03053161 -0.0001483231 0.02663323
v -0.03053161 -0.01489246 0.02663323
v -0.03053161 -0.01489246 0.02663323
v -0.03053161 -0.0001483231 0.02663323
v -0.008802981 -0.0001483231 0.04351073
v -0.008802981 -0.01489246 0.04351073
v -0.008802981 -0.01489246 0.04351073
v -0.008802981 -0.0001483231 0.04351073
v 0.0246031 -0.0001483231 0.05115116
v 0.0246031 -0.01489246 0.05115116
v 0.0246031 -0.01489246 0.05115116
v 0.0246031 -0.0001483231 0.05115116
v 0.03978285 -0.0001483231 0.0266331
v 0.03978285 -0.01489246 0.0266331
v 0.03978285 -0.01489246 0.0266331
v 0.03978285 -0.0001483231 0.0266331
v 0.04193635 -0.0002294295 0.001089691
v 0.04193635 -0.0128882 0.001089691
v 0.04193635 -0.0128882 0.001089691
v 0.04193635 -0.0002294295 0.001089691
v 0.04796857 -0.0001483231 -0.02772761
v 0.04796857 -0.01489246 -0.02772761
v 0.04796857 -0.0001483231 -0.02772761
v 0.04569101 0.01428335 -0.02539861
v 0.01714684 0.01428335 -0.04799257
v 0.01805433 -0.0001483231 -0.0511543
v 0.01805433 -0.0001483231 -0.0511543
v 0.01714684 0.01428335 -0.04799257
v -0.01182717 0.01428335 -0.04559938
v -0.01316895 -0.0001483231 -0.04897135
v -0.01316895 -0.0001483231 -0.04897135
v -0.01182717 0.01428335 -0.04559938
v -0.02320845 0.01428335 -0.02180795
v -0.027431 -0.0001483231 -0.02445342
v -0.027431 -0.0001483231 -0.02445342
v -0.02320845 0.01428335 -0.02180795
v -0.0453024 0.01197202 0.001195237
v -0.04796496 -0.0002294295 0.001089777
v -0.04796496 -0.0002294295 0.001089777
v -0.0453024 0.01197202 0.001195237
v -0.02660798 0.01428335 0.0241985
v -0.03053161 -0.0001483231 0.02663323
v -0.03053161 -0.0001483231 0.02663323
v -0.02660798 0.01428335 0.0241985
v -0.007040264 0.01428335 0.03961206
v -0.008802981 -0.0001483231 0.04351073
v -0.008802981 -0.0001483231 0.04351073
v -0.007040264 0.01428335 0.03961206
v 0.02432787 0.01428335 0.04798958
v 0.0246031 -0.0001483231 0.05115116
v 0.0246031 -0.0001483231 0.05115116
v 0.02432787 0.01428335 0.04798958
v 0.0367145 0.01428335 0.02419849
v 0.03978285 -0.0001483231 0.0266331
v 0.03978285 -0.0001483231 0.0266331
v 0.0367145 0.01428335 0.02419849
v 0.03865416 0.01197202 0.001195104
v 0.04193635 -0.0002294295 0.001089691
v 0.04193635 -0.0002294295 0.001089691
v 0.03865416 0.01197202 0.001195104
v 0.04569101 0.01428335 -0.02539861
v 0.04796857 -0.0001483231 -0.02772761
v 0.04569101 0.01428335 -0.02539861
v 0.03225442 0.02437432 -0.01614912
v 0.01203847 0.02437432 -0.03257037
v 0.01714684 0.01428335 -0.04799257
v 0.01714684 0.01428335 -0.04799257
v 0.01203847 0.02437432 -0.03257037
v -0.002590215 0.02437432 -0.02139567
v -0.01182717 0.01428335 -0.04559938
v -0.01182717 0.01428335 -0.04559938
v -0.002590215 0.02437432 -0.02139567
v -0.01125126 0.02437432 -0.01279673
v -0.02320845 0.01428335 -0.02180795
v -0.02320845 0.01428335 -0.02180795
v -0.01125126 0.02437432 -0.01279673
v -0.03124263 0.02074649 0.001115674
v -0.0453024 0.01197202 0.001195237
v -0.0453024 0.01197202 0.001195237
v -0.03124263 0.02074649 0.001115674
v -0.0144255 0.02437432 0.01502869
v -0.02660798 0.01428335 0.0241985
v -0.02660798 0.01428335 0.0241985
v -0.0144255 0.02437432 0.01502869
v -0.002590121 0.02437432 0.02474456
v -0.007040264 0.01428335 0.03961206
v -0.007040264 0.01428335 0.03961206
v -0.002590121 0.02437432 0.02474456
v 0.01874296 0.02437432 0.03256709
v 0.02432787 0.01428335 0.04798958
v 0.02432787 0.01428335 0.04798958
v 0.01874296 0.02437432 0.03256709
v 0.02387326 0.02437432 0.01502844
v 0.0367145 0.01428335 0.02419849
v 0.0367145 0.01428335 0.02419849
v 0.02387326 0.02437432 0.01502844
v 0.02504626 0.02074649 0.001115645
v 0.03865416 0.01197202 0.001195104
v 0.03865416 0.01197202 0.001195104
v 0.02504626 0.02074649 0.001115645
v 0.03225442 0.02437432 -0.01614912
v 0.04569101 0.01428335 -0.02539861
v 0.03225442 0.02437432 -0.01614912
v 0.004625692 0.03397603 0.001089929
v 0.01203847 0.02437432 -0.03257037
v 0.01203847 0.02437432 -0.03257037
v 0.004625692 0.03397603 0.001089929
v -0.002590215 0.02437432 -0.02139567
v -0.002590215 0.02437432 -0.02139567
v 0.004625692 0.03397603 0.001089929
v -0.01125126 0.02437432 -0.01279673
v -0.01125126 0.02437432 -0.01279673
v 0.004625692 0.03397603 0.001089929
v -0.03124263 0.02074649 0.001115674
v -0.03124263 0.02074649 0.001115674
v 0.004625692 0.03397603 0.001089929
v -0.0144255 0.02437432 0.01502869
v -0.0144255 0.02437432 0.01502869
v 0.004625692 0.03397603 0.001089929
v -0.002590121 0.02437432 0.02474456
v -0.002590121 0.02437432 0.02474456
v 0.004625692 0.03397603 0.001089929
v 0.01874296 0.02437432 0.03256709
v 0.01874296 0.02437432 0.03256709
v 0.004625692 0.03397603 0.001089929
v 0.02387326 0.02437432 0.01502844
v 0.02387326 0.02437432 0.01502844
v 0.004625692 0.03397603 0.001089929
v 0.02504626 0.02074649 0.001115645
v 0.02504626 0.02074649 0.001115645
v 0.004625692 0.03397603 0.001089929
v 0.03225442 0.02437432 -0.01614912

vn 0.195441 -0.9746063 -0.1092949
vn 0.001480552 -0.999998 0.001327742
vn 0.2173441 -0.9698725 0.1100402
vn 0.06546772 -0.9735574 -0.2188605
vn -0.1437766 -0.9450634 -0.2935704
vn -0.2148405 -0.9505205 -0.2243981
vn -0.2828989 -0.9555561 -0.08295161
vn -0.2611225 -0.9587457 0.1123467
vn -0.09241786 -0.974576 0.204109
vn 0.2247061 -0.9428011 0.2462383
vn 0.2545811 -0.8860961 0.3873269
vn 0.7581118 -0.6400556 -0.1248813
vn 0.7581118 -0.6400556 -0.1248814
vn 0.7581118 -0.6400556 -0.1248813
vn 0.7581118 -0.6400556 -0.1248814
vn 0.4720695 -0.6391842 -0.6071193
vn 0.4720694 -0.6391843 -0.6071193
vn 0.4720695 -0.6391842 -0.6071193
vn 0.4720695 -0.6391843 -0.6071193
vn -0.2833205 -0.5961947 -0.7511867
vn -0.2833205 -0.5961946 -0.7511867
vn -0.2833205 -0.5961947 -0.7511867
vn -0.2833205 -0.5961946 -0.7511867
vn -0.1395762 -0.621523 -0.7708616
vn -0.1395763 -0.621523 -0.7708617
vn -0.1395763 -0.621523 -0.7708617
vn -0.1395764 -0.621523 -0.7708617
vn -0.7635975 -0.6309733 -0.1370826
vn -0.7635975 -0.6309733 -0.1370826
vn -0.7635975 -0.6309732 -0.1370826
vn -0.7635975 -0.6309733 -0.1370826
vn -0.7577079 -0.640098 0.1270954
vn -0.757708 -0.640098 0.1270954
vn -0.7577079 -0.640098 0.1270954
vn -0.7577079 -0.6400981 0.1270954
vn -0.6502254 -0.6283638 0.4270432
vn -0.6502254 -0.6283638 0.4270431
vn -0.6502254 -0.6283638 0.4270432
vn -0.6502254 -0.6283638 0.4270432
vn 0.2577606 -0.602204 0.7555858
vn 0.2577606 -0.602204 0.7555857
vn 0.2577606 -0.602204 0.7555857
vn 0.2577606 -0.602204 0.7555858
vn 0.5996132 -0.6137942 0.5135374
vn 0.5996132 -0.6137943 0.5135374
vn 0.5996132 -0.6137942 0.5135374
vn 0.5996132 -0.6137942 0.5135374
vn 0.4049985 -0.5488456 0.7312624
vn 0.4049985 -0.5488456 0.7312624
vn 0.4049985 -0.5488456 0.7312624
vn 0.4049985 -0.5488456 0.7312624
vn 0.9861002 -3.513139E-17 -0.166152
vn 0.9861002 -3.51314E-17 -0.166152
vn 0.9861002 -3.51314E-17 -0.166152
vn 0.9861002 -3.513139E-17 -0.166152
vn 0.6207535 1.491066E-16 -0.7840058
vn 0.6207535 1.491066E-16 -0.7840058
vn 0.6207535 1.491066E-16 -0.7840058
vn 0.6207535 1.491066E-16 -0.7840058
vn -0.2997512 2.638338E-16 -0.9540175
vn -0.2997512 2.638338E-16 -0.9540175
vn -0.2997512 2.638338E-16 -0.9540175
vn -0.2997512 2.638338E-16 -0.9540175
vn -0.1535795 2.610178E-16 -0.9881363
vn -0.1535795 2.610178E-16 -0.9881363
vn -0.1535795 2.610178E-16 -0.9881363
vn -0.1535795 2.610178E-16 -0.9881363
vn -0.9901312 1.126373E-16 -0.140144
vn -0.9901312 1.126373E-16 -0.140144
vn -0.9901311 1.126372E-16 -0.1401439
vn -0.9901312 1.126373E-16 -0.140144
vn -0.9854357 3.409747E-17 0.1700487
vn -0.9854357 3.409747E-17 0.1700487
vn -0.9854357 3.409747E-17 0.1700487
vn -0.9854357 3.409747E-17 0.1700487
vn -0.821673 -7.947396E-17 0.5699591
vn -0.821673 -7.947396E-17 0.5699591
vn -0.821673 -7.947396E-17 0.5699591
vn -0.821673 -7.947396E-17 0.5699591
vn 0.2734091 -2.637628E-16 0.9618979
vn 0.2734091 -2.637628E-16 0.9618979
vn 0.2734091 -2.637628E-16 0.9618979
vn 0.2734091 -2.637628E-16 0.9618979
vn 0.6795818 -2.379461E-16 0.7335998
vn 0.6795818 -2.379461E-16 0.7335998
vn 0.6795818 -2.379461E-16 0.7335998
vn 0.6795818 -2.379461E-16 0.7335998
vn 0.5850449 -2.5007E-16 0.8110009
vn 0.5850449 -2.5007E-16 0.8110009
vn 0.5850449 -2.5007E-16 0.8110009
vn 0.5850449 -2.5007E-16 0.8110009
vn 0.9704012 0.1800349 -0.1609627
vn 0.9704012 0.1800349 -0.1609627
vn 0.9704012 0.1800349 -0.1609627
vn 0.9704012 0.1800349 -0.1609627
vn 0.6050732 0.18731 -0.7738225
vn 0.6050732 0.18731 -0.7738225
vn 0.6050732 0.18731 -0.7738225
vn 0.6050732 0.18731 -0.7738225
vn -0.3283612 0.2197906 -0.9186245
vn -0.3283612 0.2197906 -0.9186245
vn -0.3283612 0.2197906 -0.9186245
vn -0.3283612 0.2197905 -0.9186245
vn -0.1173428 0.2161018 -0.9692939
vn -0.1173427 0.2161018 -0.9692939
vn -0.1173428 0.2161018 -0.9692939
vn -0.1173428 0.2161018 -0.9692939
vn -0.9725222 0.206724 -0.1070782
vn -0.9725222 0.206724 -0.1070782
vn -0.9725222 0.206724 -0.1070783
vn -0.9725222 0.206724 -0.1070782
vn -0.9571418 0.2400799 0.161991
vn -0.9571419 0.24008 0.1619909
vn -0.9571419 0.24008 0.161991
vn -0.9571419 0.24008 0.161991
vn -0.8138176 0.2055194 0.5435648
vn -0.8138176 0.2055194 0.5435648
vn -0.8138176 0.2055194 0.5435648
vn -0.8138176 0.2055194 0.5435648
vn 0.3035595 0.163128 0.9387443
vn 0.3035595 0.163128 0.9387443
vn 0.3035594 0.163128 0.9387443
vn 0.3035595 0.163128 0.9387443
vn 0.6742779 0.2010115 0.7105939
vn 0.6742778 0.2010115 0.7105939
vn 0.6742778 0.2010115 0.7105939
vn 0.6742778 0.2010115 0.7105939
vn 0.5517031 0.1505436 0.8203415
vn 0.5517031 0.1505436 0.8203415
vn 0.5517031 0.1505436 0.8203415
vn 0.5517031 0.1505436 0.8203415
vn 0.6066863 0.7891594 -0.09570313
vn 0.6066864 0.7891594 -0.09570315
vn 0.6066863 0.7891594 -0.09570313
vn 0.6066864 0.7891594 -0.09570315
vn 0.2220059 0.8519385 -0.4742512
vn 0.2220059 0.8519384 -0.4742512
vn 0.2220059 0.8519385 -0.4742512
vn 0.222006 0.8519385 -0.4742512
vn -0.1533075 0.8283319 -0.5388536
vn -0.1533075 0.8283318 -0.5388536
vn -0.1533075 0.8283319 -0.5388536
vn -0.1533075 0.8283318 -0.5388536
vn -0.08218158 0.751799 -0.654251
vn -0.08218158 0.7517991 -0.654251
vn -0.08218158 0.7517991 -0.654251
vn -0.08218158 0.7517991 -0.654251
vn -0.6346964 0.7676094 -0.08908688
vn -0.6346963 0.7676094 -0.08908683
vn -0.6346964 0.7676094 -0.08908688
vn -0.6346964 0.7676094 -0.08908688
vn -0.6278934 0.7719753 0.09901568
vn -0.6278934 0.7719752 0.09901565
vn -0.6278935 0.7719752 0.09901569
vn -0.6278934 0.7719752 0.09901565
vn -0.5535435 0.7661014 0.3266163
vn -0.5535435 0.7661014 0.3266163
vn -0.5535435 0.7661014 0.3266163
vn -0.5535435 0.7661014 0.3266163
vn 0.2797948 0.7418409 0.6094154
vn 0.2797948 0.7418408 0.6094154
vn 0.2797948 0.7418408 0.6094154
vn 0.2797948 0.7418408 0.6094154
vn 0.5475227 0.7444519 0.3821127
vn 0.5475227 0.744452 0.3821126
vn 0.5475227 0.744452 0.3821126
vn 0.5475227 0.7444519 0.3821127
vn 0.2738425 0.6708225 0.6892079
vn 0.2738425 0.6708226 0.6892079
vn 0.2738425 0.6708225 0.6892079
vn 0.2738425 0.6708225 0.6892079
vn 0.3438668 0.9375964 -0.05165841
vn 0.3438668 0.9375964 -0.05165846
vn 0.3438668 0.9375964 -0.05165841
vn 0.03976164 0.8896015 -0.4550035
vn 0.03976166 0.8896015 -0.4550035
vn 0.03976166 0.8896015 -0.4550035
vn -0.0201694 0.8788401 -0.4766898
vn -0.02016938 0.8788401 -0.4766898
vn -0.02016943 0.8788401 -0.4766898
vn -0.09512939 0.878563 -0.4680571
vn -0.09512939 0.878563 -0.4680571
vn -0.09512939 0.878563 -0.4680571
vn -0.4240246 0.8977368 -0.1194646
vn -0.4240246 0.8977368 -0.1194645
vn -0.4240246 0.8977368 -0.1194646
vn -0.4423468 0.8945507 0.0640965
vn -0.4423467 0.8945507 0.06409647
vn -0.4423467 0.8945507 0.06409647
vn -0.372434 0.9075937 0.1938205
vn -0.372434 0.9075938 0.1938205
vn -0.372434 0.9075938 0.1938205
vn 0.2362977 0.8907424 0.3882542
vn 0.2362977 0.8907423 0.3882543
vn 0.2362977 0.8907423 0.3882543
vn 0.571332 0.7773977 0.2631207
vn 0.571332 0.7773978 0.2631207
vn 0.571332 0.7773978 0.2631207
vn 0.1326387 0.7217777 0.6792966
vn 0.1326386 0.7217777 0.6792966
vn 0.1326387 0.7217777 0.6792966

vt 0.5482839 0.007647395
vt 0.5 0.15
vt 0.6264089 0.06440853
vt 0.4517161 0.00764741
vt 0.3735911 0.06440856
vt 0.34375 0.15625
vt 0.3735911 0.2480915
vt 0.4517161 0.3048526
vt 0.5482839 0.3048526
vt 0.6264089 0.2480914
vt 0.65625 0.15625
vt 0 0
vt 0 1
vt 1 1
vt 1 0
vt 0 0
vt 0 1
vt 1 1
vt 1 0
vt 0 0
vt 0 1
vt 1 1
vt 1 0
vt 0 0
vt 0 1
vt 1 1
vt 1 0
vt 0 0
vt 0 1
vt 1 1
vt 1 0
vt 0 0
vt 0 1
vt 1 1
vt 1 0
vt 0 0
vt 0 1
vt 1 1
vt 1 0
vt 0 0
vt 0 1
vt 1 1
vt 1 0
vt 0 0
vt 0 1
vt 1 1
vt 1 0
vt 0 0
vt 0 1
vt 1 1
vt 1 0
vt 0 0
vt 0 1
vt 1 1
vt 1 0
vt 0 0
vt 0 1
vt 1 1
vt 1 0
vt 0 0
vt 0 1
vt 1 1
vt 1 0
vt 0 0
vt 0 1
vt 1 1
vt 1 0
vt 0 0
vt 0 1
vt 1 1
vt 1 0
vt 0 0
vt 0 1
vt 1 1
vt 1 0
vt 0 0
vt 0 1
vt 1 1
vt 1 0
vt 0 0
vt 0 1
vt 1 1
vt 1 0
vt 0 0
vt 0 1
vt 1 1
vt 1 0
vt 0 0
vt 0 1
vt 1 1
vt 1 0
vt 0 0
vt 0 1
vt 1 1
vt 1 0
vt 0 0
vt 0 1
vt 1 1
vt 1 0
vt 0 0
vt 0 1
vt 1 1
vt 1 0
vt 0 0
vt 0 1
vt 1 1
vt 1 0
vt 0 0
vt 0 1
vt 1 1
vt 1 0
vt 0 0
vt 0 1
vt 1 1
vt 1 0
vt 0 0
vt 0 1
vt 1 1
vt 1 0
vt 0 0
vt 0 1
vt 1 1
vt 1 0
vt 0 0
vt 0 1
vt 1 1
vt 1 0
vt 0 0
vt 0 1
vt 1 1
vt 1 0
vt 0 0
vt 0 1
vt 1 1
vt 1 0
vt 0 0
vt 0 1
vt 1 1
vt 1 0
vt 0 0
vt 0 1
vt 1 1
vt 1 0
vt 0 0
vt 0 1
vt 1 1
vt 1 0
vt 0 0
vt 0 1
vt 1 1
vt 1 0
vt 0 0
vt 0 1
vt 1 1
vt 1 0
vt 0 0
vt 0 1
vt 1 1
vt 1 0
vt 0 0
vt 0 1
vt 1 1
vt 1 0
vt 0 0
vt 0 1
vt 1 1
vt 1 0
vt 0 0
vt 0 1
vt 1 1
vt 1 0
vt 0 0
vt 0.5 1
vt 1 0
vt 0 0
vt 0.5 1
vt 1 0
vt 0 0
vt 0.5 1
vt 1 0
vt 0 0
vt 0.5 1
vt 1 0
vt 0 0
vt 0.5 1
vt 1 0
vt 0 0
vt 0.5 1
vt 1 0
vt 0 0
vt 0.5 1
vt 1 0
vt 0 0
vt 0.5 1
vt 1 0
vt 0 0
vt 0.5 1
vt 1 0
vt 0 0
vt 0.5 1
vt 1 0

g pCylinder9_11_3320_198
usemtl pCylinder9_11_3320_198
usemap pCylinder9_11_3320_198
f 1/1/1 3/3/3 2/2/2
f 4/4/4 1/1/1 2/2/2
f 5/5/5 4/4/4 2/2/2
f 6/6/6 5/5/5 2/2/2
f 7/7/7 6/6/6 2/2/2
f 8/8/8 7/7/7 2/2/2
f 9/9/9 8/8/8 2/2/2
f 10/10/10 9/9/9 2/2/2
f 11/11/11 10/10/10 2/2/2
f 3/3/3 11/11/11 2/2/2
f 12/12/12 14/14/14 13/13/13
f 12/12/12 15/15/15 14/14/14
f 16/16/16 18/18/18 17/17/17
f 16/16/16 19/19/19 18/18/18
f 20/20/20 22/22/22 21/21/21
f 20/20/20 23/23/23 22/22/22
f 24/24/24 26/26/26 25/25/25
f 24/24/24 27/27/27 26/26/26
f 28/28/28 30/30/30 29/29/29
f 28/28/28 31/31/31 30/30/30
f 32/32/32 34/34/34 33/33/33
f 32/32/32 35/35/35 34/34/34
f 36/36/36 38/38/38 37/37/37
f 36/36/36 39/39/39 38/38/38
f 40/40/40 42/42/42 41/41/41
f 40/40/40 43/43/43 42/42/42
f 44/44/44 46/46/46 45/45/45
f 44/44/44 47/47/47 46/46/46
f 48/48/48 50/50/50 49/49/49
f 48/48/48 51/51/51 50/50/50
f 52/52/52 54/54/54 53/53/53
f 52/52/52 55/55/55 54/54/54
f 56/56/56 58/58/58 57/57/57
f 56/56/56 59/59/59 58/58/58
f 60/60/60 62/62/62 61/61/61
f 60/60/60 63/63/63 62/62/62
f 64/64/64 66/66/66 65/65/65
f 64/64/64 67/67/67 66/66/66
f 68/68/68 70/70/70 69/69/69
f 68/68/68 71/71/71 70/70/70
f 72/72/72 74/74/74 73/73/73
f 72/72/72 75/75/75 74/74/74
f 76/76/76 78/78/78 77/77/77
f 76/76/76 79/79/79 78/78/78
f 80/80/80 82/82/82 81/81/81
f 80/80/80 83/83/83 82/82/82
f 84/84/84 86/86/86 85/85/85
f 84/84/84 87/87/87 86/86/86
f 88/88/88 90/90/90 89/89/89
f 88/88/88 91/91/91 90/90/90
f 92/92/92 94/94/94 93/93/93
f 92/92/92 95/95/95 94/94/94
f 96/96/96 98/98/98 97/97/97
f 96/96/96 99/99/99 98/98/98
f 100/100/100 102/102/102 101/101/101
f 100/100/100 103/103/103 102/102/102
f 104/104/104 106/106/106 105/105/105
f 104/104/104 107/107/107 106/106/106
f 108/108/108 110/110/110 109/109/109
f 108/108/108 111/111/111 110/110/110
f 112/112/112 114/114/114 113/113/113
f 112/112/112 115/115/115 114/114/114
f 116/116/116 118/118/118 117/117/117
f 116/116/116 119/119/119 118/118/118
f 120/120/120 122/122/122 121/121/121
f 120/120/120 123/123/123 122/122/122
f 124/124/124 126/126/126 125/125/125
f 124/124/124 127/127/127 126/126/126
f 128/128/128 130/130/130 129/129/129
f 128/128/128 131/131/131 130/130/130
f 132/132/132 134/134/134 133/133/133
f 132/132/132 135/135/135 134/134/134
f 136/136/136 138/138/138 137/137/137
f 136/136/136 139/139/139 138/138/138
f 140/140/140 142/142/142 141/141/141
f 140/140/140 143/143/143 142/142/142
f 144/144/144 146/146/146 145/145/145
f 144/144/144 147/147/147 146/146/146
f 148/148/148 150/150/150 149/149/149
f 148/148/148 151/151/151 150/150/150
f 152/152/152 154/154/154 153/153/153
f 152/152/152 155/155/155 154/154/154
f 156/156/156 158/158/158 157/157/157
f 156/156/156 159/159/159 158/158/158
f 160/160/160 162/162/162 161/161/161
f 160/160/160 163/163/163 162/162/162
f 164/164/164 166/166/166 165/165/165
f 164/164/164 167/167/167 166/166/166
f 168/168/168 170/170/170 169/169/169
f 168/168/168 171/171/171 170/170/170
f 172/172/172 174/174/174 173/173/173
f 175/175/175 177/177/177 176/176/176
f 178/178/178 180/180/180 179/179/179
f 181/181/181 183/183/183 182/182/182
f 184/184/184 186/186/186 185/185/185
f 187/187/187 189/189/189 188/188/188
f 190/190/190 192/192/192 191/191/191
f 193/193/193 195/195/195 194/194/194
f 196/196/196 198/198/198 197/197/197
f 199/199/199 201/201/201 200/200/200
