#pCylinder17_3549_275.obj

v 0.01454573 -0.02577591 -0.04035775
v 0.004624323 -0.03397636 0.001091956
v 0.03878489 -0.02577591 -0.02105431
v -0.009662977 -0.02577591 -0.03817485
v -0.01825039 -0.02577591 -0.01777987
v -0.03822166 -0.02223227 0.001091992
v -0.02135049 -0.02577591 0.0199637
v -0.005297162 -0.02577591 0.03271852
v 0.02109447 -0.02577591 0.0403587
v 0.03059906 -0.02577591 0.01996374
v 0.03218998 -0.02223227 0.001091964
v 0.03878489 -0.02577591 -0.02105431
v 0.0479673 -0.01489291 -0.02772562
v 0.01805308 -0.01489291 -0.05115233
v 0.01454573 -0.02577591 -0.04035775
v 0.01454573 -0.02577591 -0.04035775
v 0.01805308 -0.01489291 -0.05115233
v -0.01317025 -0.01489291 -0.04896932
v -0.009662977 -0.02577591 -0.03817485
v -0.009662977 -0.02577591 -0.03817485
v -0.01317025 -0.01489291 -0.04896932
v -0.02743279 -0.01489291 -0.02445125
v -0.01825039 -0.02577591 -0.01777987
v -0.01825039 -0.02577591 -0.01777987
v -0.02743279 -0.01489291 -0.02445125
v -0.04796654 -0.0128888 0.001091875
v -0.03822166 -0.02223227 0.001091992
v -0.03822166 -0.02223227 0.001091992
v -0.04796654 -0.0128888 0.001091875
v -0.03053278 -0.01489291 0.02663513
v -0.02135049 -0.02577591 0.0199637
v -0.02135049 -0.02577591 0.0199637
v -0.03053278 -0.01489291 0.02663513
v -0.00880445 -0.01489291 0.04351304
v -0.005297162 -0.02577591 0.03271852
v -0.005297162 -0.02577591 0.03271852
v -0.00880445 -0.01489291 0.04351304
v 0.02460175 -0.01489291 0.05115318
v 0.02109447 -0.02577591 0.0403587
v 0.02109447 -0.02577591 0.0403587
v 0.02460175 -0.01489291 0.05115318
v 0.03978139 -0.01489291 0.02663518
v 0.03059906 -0.02577591 0.01996374
v 0.03059906 -0.02577591 0.01996374
v 0.03978139 -0.01489291 0.02663518
v 0.04193474 -0.0128888 0.001091956
v 0.03218998 -0.02223227 0.001091964
v 0.03218998 -0.02223227 0.001091964
v 0.04193474 -0.0128888 0.001091956
v 0.0479673 -0.01489291 -0.02772562
v 0.03878489 -0.02577591 -0.02105431
v 0.0479673 -0.01489291 -0.02772562
v 0.0479673 -0.000148914 -0.02772562
v 0.01805308 -0.000148914 -0.05115233
v 0.01805308 -0.01489291 -0.05115233
v 0.01805308 -0.01489291 -0.05115233
v 0.01805308 -0.000148914 -0.05115233
v -0.01317025 -0.000148914 -0.04896932
v -0.01317025 -0.01489291 -0.04896932
v -0.01317025 -0.01489291 -0.04896932
v -0.01317025 -0.000148914 -0.04896932
v -0.02743279 -0.000148914 -0.02445125
v -0.02743279 -0.01489291 -0.02445125
v -0.02743279 -0.01489291 -0.02445125
v -0.02743279 -0.000148914 -0.02445125
v -0.04796654 -0.0002294671 0.001091875
v -0.04796654 -0.0128888 0.001091875
v -0.04796654 -0.0128888 0.001091875
v -0.04796654 -0.0002294671 0.001091875
v -0.03053278 -0.000148914 0.02663513
v -0.03053278 -0.01489291 0.02663513
v -0.03053278 -0.01489291 0.02663513
v -0.03053278 -0.000148914 0.02663513
v -0.00880445 -0.000148914 0.04351304
v -0.00880445 -0.01489291 0.04351304
v -0.00880445 -0.01489291 0.04351304
v -0.00880445 -0.000148914 0.04351304
v 0.02460175 -0.000148914 0.05115318
v 0.02460175 -0.01489291 0.05115318
v 0.02460175 -0.01489291 0.05115318
v 0.02460175 -0.000148914 0.05115318
v 0.03978139 -0.000148914 0.02663518
v 0.03978139 -0.01489291 0.02663518
v 0.03978139 -0.01489291 0.02663518
v 0.03978139 -0.000148914 0.02663518
v 0.04193474 -0.0002294671 0.001091956
v 0.04193474 -0.0128888 0.001091956
v 0.04193474 -0.0128888 0.001091956
v 0.04193474 -0.0002294671 0.001091956
v 0.0479673 -0.000148914 -0.02772562
v 0.0479673 -0.01489291 -0.02772562
v 0.0479673 -0.000148914 -0.02772562
v 0.04568937 0.01428329 -0.02539628
v 0.01714558 0.01428329 -0.04799074
v 0.01805308 -0.000148914 -0.05115233
v 0.01805308 -0.000148914 -0.05115233
v 0.01714558 0.01428329 -0.04799074
v -0.01182865 0.01428329 -0.04559719
v -0.01317025 -0.000148914 -0.04896932
v -0.01317025 -0.000148914 -0.04896932
v -0.01182865 0.01428329 -0.04559719
v -0.02320991 0.01428329 -0.02180592
v -0.02743279 -0.000148914 -0.02445125
v -0.02743279 -0.000148914 -0.02445125
v -0.02320991 0.01428329 -0.02180592
v -0.04530361 0.01197155 0.001197353
v -0.04796654 -0.0002294671 0.001091875
v -0.04796654 -0.0002294671 0.001091875
v -0.04530361 0.01197155 0.001197353
v -0.02660915 0.01428329 0.02420052
v -0.03053278 -0.000148914 0.02663513
v -0.03053278 -0.000148914 0.02663513
v -0.02660915 0.01428329 0.02420052
v -0.007041466 0.01428329 0.03961407
v -0.00880445 -0.000148914 0.04351304
v -0.00880445 -0.000148914 0.04351304
v -0.007041466 0.01428329 0.03961407
v 0.0243263 0.01428329 0.04799169
v 0.02460175 -0.000148914 0.05115318
v 0.02460175 -0.000148914 0.05115318
v 0.0243263 0.01428329 0.04799169
v 0.03671317 0.01428329 0.02420045
v 0.03978139 -0.000148914 0.02663518
v 0.03978139 -0.000148914 0.02663518
v 0.03671317 0.01428329 0.02420045
v 0.03865236 0.01197155 0.001197301
v 0.04193474 -0.0002294671 0.001091956
v 0.04193474 -0.0002294671 0.001091956
v 0.03865236 0.01197155 0.001197301
v 0.04568937 0.01428329 -0.02539628
v 0.0479673 -0.000148914 -0.02772562
v 0.04568937 0.01428329 -0.02539628
v 0.03225287 0.02437395 -0.0161472
v 0.01203687 0.02437395 -0.03256813
v 0.01714558 0.01428329 -0.04799074
v 0.01714558 0.01428329 -0.04799074
v 0.01203687 0.02437395 -0.03256813
v -0.002591857 0.02437395 -0.02139332
v -0.01182865 0.01428329 -0.04559719
v -0.01182865 0.01428329 -0.04559719
v -0.002591857 0.02437395 -0.02139332
v -0.01125268 0.02437395 -0.01279471
v -0.02320991 0.01428329 -0.02180592
v -0.02320991 0.01428329 -0.02180592
v -0.01125268 0.02437395 -0.01279471
v -0.03124429 0.02074628 0.001118002
v -0.04530361 0.01197155 0.001197353
v -0.04530361 0.01197155 0.001197353
v -0.03124429 0.02074628 0.001118002
v -0.01442674 0.02437395 0.01503062
v -0.02660915 0.01428329 0.02420052
v -0.02660915 0.01428329 0.02420052
v -0.01442674 0.02437395 0.01503062
v -0.002591792 0.02437395 0.02474671
v -0.007041466 0.01428329 0.03961407
v -0.007041466 0.01428329 0.03961407
v -0.002591792 0.02437395 0.02474671
v 0.01874179 0.02437395 0.03256916
v 0.0243263 0.01428329 0.04799169
v 0.0243263 0.01428329 0.04799169
v 0.01874179 0.02437395 0.03256916
v 0.02387173 0.02437395 0.01503062
v 0.03671317 0.01428329 0.02420045
v 0.03671317 0.01428329 0.02420045
v 0.02387173 0.02437395 0.01503062
v 0.02504462 0.02074628 0.001117986
v 0.03865236 0.01197155 0.001197301
v 0.03865236 0.01197155 0.001197301
v 0.02504462 0.02074628 0.001117986
v 0.03225287 0.02437395 -0.0161472
v 0.04568937 0.01428329 -0.02539628
v 0.03225287 0.02437395 -0.0161472
v 0.004624323 0.03397574 0.001091956
v 0.01203687 0.02437395 -0.03256813
v 0.01203687 0.02437395 -0.03256813
v 0.004624323 0.03397574 0.001091956
v -0.002591857 0.02437395 -0.02139332
v -0.002591857 0.02437395 -0.02139332
v 0.004624323 0.03397574 0.001091956
v -0.01125268 0.02437395 -0.01279471
v -0.01125268 0.02437395 -0.01279471
v 0.004624323 0.03397574 0.001091956
v -0.03124429 0.02074628 0.001118002
v -0.03124429 0.02074628 0.001118002
v 0.004624323 0.03397574 0.001091956
v -0.01442674 0.02437395 0.01503062
v -0.01442674 0.02437395 0.01503062
v 0.004624323 0.03397574 0.001091956
v -0.002591792 0.02437395 0.02474671
v -0.002591792 0.02437395 0.02474671
v 0.004624323 0.03397574 0.001091956
v 0.01874179 0.02437395 0.03256916
v 0.01874179 0.02437395 0.03256916
v 0.004624323 0.03397574 0.001091956
v 0.02387173 0.02437395 0.01503062
v 0.02387173 0.02437395 0.01503062
v 0.004624323 0.03397574 0.001091956
v 0.02504462 0.02074628 0.001117986
v 0.02504462 0.02074628 0.001117986
v 0.004624323 0.03397574 0.001091956
v 0.03225287 0.02437395 -0.0161472

vn -0.08642699 -0.9818566 -0.1687817
vn 0.001160891 -0.9999983 -0.001202771
vn 0.1000009 -0.9784298 -0.1807605
vn -0.1832344 -0.9810985 -0.06221049
vn -0.2550563 -0.9602383 0.1135256
vn -0.1979324 -0.9642732 0.1760661
vn -0.07940991 -0.9679797 0.2381359
vn 0.08737183 -0.9703191 0.225491
vn 0.1698606 -0.9818348 0.08454107
vn 0.2173319 -0.95856 -0.1841977
vn 0.34422 -0.9154218 -0.2086023
vn -0.08969253 -0.7039261 -0.7045872
vn -0.08969256 -0.7039261 -0.7045871
vn -0.0896925 -0.7039261 -0.7045871
vn -0.08969256 -0.7039261 -0.7045871
vn -0.5449882 -0.7031068 -0.4567583
vn -0.5449882 -0.7031069 -0.4567583
vn -0.5449882 -0.7031068 -0.4567583
vn -0.5449883 -0.7031069 -0.4567584
vn -0.7104253 -0.6620907 0.2386033
vn -0.7104253 -0.6620906 0.2386033
vn -0.7104253 -0.6620907 0.2386033
vn -0.7104253 -0.6620906 0.2386033
vn -0.7198565 -0.6863982 0.1032655
vn -0.7198566 -0.6863981 0.1032656
vn -0.7198565 -0.6863981 0.1032656
vn -0.7198565 -0.6863981 0.1032656
vn -0.1528138 -0.6953635 0.702223
vn -0.1528138 -0.6953635 0.702223
vn -0.1528138 -0.6953634 0.7022231
vn -0.1528138 -0.6953635 0.7022231
vn 0.09175074 -0.703966 0.7042822
vn 0.09175068 -0.703966 0.7042822
vn 0.09175068 -0.703966 0.7042822
vn 0.09175068 -0.703966 0.7042821
vn 0.3734733 -0.6928936 0.6167785
vn 0.3734733 -0.6928936 0.6167785
vn 0.3734734 -0.6928936 0.6167785
vn 0.3734733 -0.6928936 0.6167785
vn 0.7127266 -0.6678944 -0.2143305
vn 0.7127265 -0.6678944 -0.2143305
vn 0.7127265 -0.6678944 -0.2143305
vn 0.7127266 -0.6678944 -0.2143306
vn 0.4976393 -0.6790239 -0.5397048
vn 0.4976393 -0.6790239 -0.5397048
vn 0.4976393 -0.6790239 -0.5397048
vn 0.4976393 -0.6790239 -0.5397048
vn 0.7029307 -0.6155776 -0.3563036
vn 0.7029308 -0.6155775 -0.3563037
vn 0.7029307 -0.6155776 -0.3563036
vn 0.7029307 -0.6155775 -0.3563036
vn -0.1299143 5.347077E-17 -0.9915252
vn -0.1299142 5.347077E-17 -0.9915252
vn -0.1299142 5.347077E-17 -0.9915252
vn -0.1299143 5.347077E-17 -0.9915252
vn -0.7607378 1.671204E-16 -0.6490592
vn -0.7607378 1.671204E-16 -0.6490592
vn -0.7607378 1.671204E-16 -0.6490592
vn -0.7607378 1.671204E-16 -0.6490592
vn -0.9643584 1.810697E-16 0.264599
vn -0.9643584 1.810697E-16 0.264599
vn -0.9643584 1.810697E-16 0.264599
vn -0.9643584 1.810697E-16 0.264599
vn -0.9930994 1.908599E-16 0.1172755
vn -0.9930994 1.908599E-16 0.1172755
vn -0.9930994 1.908599E-16 0.1172755
vn -0.9930994 1.908599E-16 0.1172755
vn -0.1763238 6.611291E-18 0.9843322
vn -0.1763238 6.611291E-18 0.9843322
vn -0.1763237 6.611271E-18 0.9843322
vn -0.1763238 6.611291E-18 0.9843322
vn 0.1338327 -5.422219E-17 0.9910039
vn 0.1338327 -5.422219E-17 0.9910039
vn 0.1338327 -5.422219E-17 0.9910039
vn 0.1338327 -5.422219E-17 0.9910039
vn 0.5394741 -1.293188E-16 0.8420021
vn 0.5394741 -1.293188E-16 0.8420021
vn 0.5394741 -1.293188E-16 0.8420021
vn 0.5394741 -1.293188E-16 0.8420021
vn 0.9712686 -1.831742E-16 -0.2379859
vn 0.9712686 -1.831742E-16 -0.2379859
vn 0.9712686 -1.831742E-16 -0.2379859
vn 0.9712686 -1.831742E-16 -0.2379859
vn 0.7580041 -1.297475E-16 -0.6522498
vn 0.7580041 -1.297475E-16 -0.6522498
vn 0.7580041 -1.297475E-16 -0.6522498
vn 0.7580041 -1.297475E-16 -0.6522498
vn 0.8318899 -1.46949E-16 -0.5549407
vn 0.8318899 -1.46949E-16 -0.5549407
vn 0.8318899 -1.46949E-16 -0.5549407
vn 0.8318899 -1.46949E-16 -0.5549407
vn -0.1244685 0.212757 -0.969145
vn -0.1244685 0.212757 -0.9691449
vn -0.1244685 0.212757 -0.9691449
vn -0.1244685 0.212757 -0.9691449
vn -0.745722 0.2212333 -0.6284539
vn -0.7457221 0.2212333 -0.6284539
vn -0.7457221 0.2212333 -0.6284539
vn -0.7457221 0.2212333 -0.6284539
vn -0.9208452 0.2588966 0.2915758
vn -0.9208453 0.2588966 0.2915759
vn -0.9208453 0.2588966 0.2915758
vn -0.9208452 0.2588965 0.2915758
vn -0.9636413 0.2546348 0.08097187
vn -0.9636413 0.2546348 0.08097181
vn -0.9636413 0.2546348 0.08097187
vn -0.9636413 0.2546348 0.08097193
vn -0.1413859 0.2437819 0.9594688
vn -0.1413859 0.2437819 0.9594688
vn -0.1413859 0.2437819 0.9594688
vn -0.1413859 0.2437819 0.9594688
vn 0.1253256 0.2822602 0.9511164
vn 0.1253256 0.2822602 0.9511164
vn 0.1253256 0.2822603 0.9511164
vn 0.1253256 0.2822603 0.9511164
vn 0.5089405 0.242386 0.8259712
vn 0.5089405 0.242386 0.8259712
vn 0.5089405 0.242386 0.8259712
vn 0.5089405 0.242386 0.8259712
vn 0.9440324 0.1930069 -0.2674902
vn 0.9440324 0.1930069 -0.2674902
vn 0.9440324 0.1930069 -0.2674901
vn 0.9440324 0.1930069 -0.2674902
vn 0.72873 0.2371581 -0.642424
vn 0.72873 0.2371581 -0.642424
vn 0.72873 0.2371581 -0.642424
vn 0.72873 0.2371581 -0.642424
vn 0.836077 0.178262 -0.5188428
vn 0.8360769 0.178262 -0.5188428
vn 0.836077 0.178262 -0.5188428
vn 0.836077 0.178262 -0.5188428
vn -0.06543584 0.8368365 -0.5435277
vn -0.06543587 0.8368365 -0.5435277
vn -0.06543584 0.8368365 -0.5435277
vn -0.06543587 0.8368365 -0.5435277
vn -0.4083045 0.8884323 -0.2097023
vn -0.4083045 0.8884322 -0.2097023
vn -0.4083045 0.8884323 -0.2097023
vn -0.4083045 0.8884323 -0.2097023
vn -0.4799951 0.8693343 0.1177372
vn -0.4799951 0.8693343 0.1177372
vn -0.4799951 0.8693343 0.1177372
vn -0.4799951 0.8693343 0.1177372
vn -0.5910957 0.8049012 0.05233791
vn -0.5910957 0.8049013 0.05233791
vn -0.5910957 0.8049013 0.05233791
vn -0.5910957 0.8049013 0.05233791
vn -0.1006381 0.8185278 0.5655826
vn -0.1006381 0.8185279 0.5655825
vn -0.1006381 0.8185278 0.5655826
vn -0.1006381 0.8185278 0.5655826
vn 0.06799562 0.8222618 0.5650325
vn 0.06799558 0.8222617 0.5650325
vn 0.06799561 0.8222617 0.5650325
vn 0.06799558 0.8222617 0.5650325
vn 0.2744848 0.8172352 0.5067387
vn 0.2744848 0.8172352 0.5067387
vn 0.2744848 0.8172352 0.5067387
vn 0.2744848 0.8172352 0.5067387
vn 0.5586884 0.796234 -0.2321165
vn 0.5586884 0.796234 -0.2321166
vn 0.5586885 0.796234 -0.2321166
vn 0.5586884 0.796234 -0.2321166
vn 0.3623668 0.7985129 -0.4806941
vn 0.3623667 0.798513 -0.4806941
vn 0.3623668 0.798513 -0.4806941
vn 0.3623668 0.7985129 -0.4806941
vn 0.6414025 0.7325384 -0.2280129
vn 0.6414025 0.7325385 -0.2280129
vn 0.6414025 0.7325384 -0.2280129
vn 0.6414025 0.7325384 -0.2280129
vn -0.03340168 0.9546866 -0.2957316
vn -0.03340171 0.9546866 -0.2957316
vn -0.03340168 0.9546866 -0.2957316
vn -0.3932023 0.9181486 -0.04893257
vn -0.3932023 0.9181486 -0.0489326
vn -0.3932023 0.9181486 -0.0489326
vn -0.4151446 0.9097521 0.002342448
vn -0.4151447 0.9097521 0.002342433
vn -0.4151447 0.9097521 0.002342477
vn -0.4100591 0.9095349 0.06780367
vn -0.4100592 0.9095349 0.06780368
vn -0.4100592 0.9095349 0.06780368
vn -0.1167814 0.9244465 0.3629879
vn -0.1167814 0.9244465 0.3629878
vn -0.1167814 0.9244465 0.3629879
vn 0.04145251 0.9219851 0.3849993
vn 0.04145251 0.9219851 0.3849993
vn 0.04145251 0.9219851 0.3849993
vn 0.1554126 0.9320197 0.3273918
vn 0.1554126 0.9320197 0.3273918
vn 0.1554126 0.9320197 0.3273918
vn 0.3439986 0.9190344 -0.1924579
vn 0.3439986 0.9190344 -0.1924579
vn 0.3439986 0.9190344 -0.1924579
vn 0.2538028 0.8268818 -0.5018467
vn 0.2538028 0.8268818 -0.5018466
vn 0.2538028 0.8268819 -0.5018466
vn 0.6199133 0.7785741 -0.09761873
vn 0.6199133 0.7785741 -0.09761864
vn 0.6199133 0.7785741 -0.0976187

vt 0.5483398 0.007648468
vt 0.5 0.1500244
vt 0.6264648 0.06439209
vt 0.4516602 0.007648468
vt 0.3735352 0.06439209
vt 0.34375 0.15625
vt 0.3735352 0.2480469
vt 0.4516602 0.3049316
vt 0.5483398 0.3049316
vt 0.6264648 0.2480469
vt 0.65625 0.15625
vt 0 0
vt 0 1
vt 1 1
vt 1 0
vt 0 0
vt 0 1
vt 1 1
vt 1 0
vt 0 0
vt 0 1
vt 1 1
vt 1 0
vt 0 0
vt 0 1
vt 1 1
vt 1 0
vt 0 0
vt 0 1
vt 1 1
vt 1 0
vt 0 0
vt 0 1
vt 1 1
vt 1 0
vt 0 0
vt 0 1
vt 1 1
vt 1 0
vt 0 0
vt 0 1
vt 1 1
vt 1 0
vt 0 0
vt 0 1
vt 1 1
vt 1 0
vt 0 0
vt 0 1
vt 1 1
vt 1 0
vt 0 0
vt 0 1
vt 1 1
vt 1 0
vt 0 0
vt 0 1
vt 1 1
vt 1 0
vt 0 0
vt 0 1
vt 1 1
vt 1 0
vt 0 0
vt 0 1
vt 1 1
vt 1 0
vt 0 0
vt 0 1
vt 1 1
vt 1 0
vt 0 0
vt 0 1
vt 1 1
vt 1 0
vt 0 0
vt 0 1
vt 1 1
vt 1 0
vt 0 0
vt 0 1
vt 1 1
vt 1 0
vt 0 0
vt 0 1
vt 1 1
vt 1 0
vt 0 0
vt 0 1
vt 1 1
vt 1 0
vt 0 0
vt 0 1
vt 1 1
vt 1 0
vt 0 0
vt 0 1
vt 1 1
vt 1 0
vt 0 0
vt 0 1
vt 1 1
vt 1 0
vt 0 0
vt 0 1
vt 1 1
vt 1 0
vt 0 0
vt 0 1
vt 1 1
vt 1 0
vt 0 0
vt 0 1
vt 1 1
vt 1 0
vt 0 0
vt 0 1
vt 1 1
vt 1 0
vt 0 0
vt 0 1
vt 1 1
vt 1 0
vt 0 0
vt 0 1
vt 1 1
vt 1 0
vt 0 0
vt 0 1
vt 1 1
vt 1 0
vt 0 0
vt 0 1
vt 1 1
vt 1 0
vt 0 0
vt 0 1
vt 1 1
vt 1 0
vt 0 0
vt 0 1
vt 1 1
vt 1 0
vt 0 0
vt 0 1
vt 1 1
vt 1 0
vt 0 0
vt 0 1
vt 1 1
vt 1 0
vt 0 0
vt 0 1
vt 1 1
vt 1 0
vt 0 0
vt 0 1
vt 1 1
vt 1 0
vt 0 0
vt 0 1
vt 1 1
vt 1 0
vt 0 0
vt 0 1
vt 1 1
vt 1 0
vt 0 0
vt 0 1
vt 1 1
vt 1 0
vt 0 0
vt 0.5 1
vt 1 0
vt 0 0
vt 0.5 1
vt 1 0
vt 0 0
vt 0.5 1
vt 1 0
vt 0 0
vt 0.5 1
vt 1 0
vt 0 0
vt 0.5 1
vt 1 0
vt 0 0
vt 0.5 1
vt 1 0
vt 0 0
vt 0.5 1
vt 1 0
vt 0 0
vt 0.5 1
vt 1 0
vt 0 0
vt 0.5 1
vt 1 0
vt 0 0
vt 0.5 1
vt 1 0

g pCylinder17_3549_275
usemtl pCylinder17_3549_275
usemap pCylinder17_3549_275
f 1/1/1 3/3/3 2/2/2
f 4/4/4 1/1/1 2/2/2
f 5/5/5 4/4/4 2/2/2
f 6/6/6 5/5/5 2/2/2
f 7/7/7 6/6/6 2/2/2
f 8/8/8 7/7/7 2/2/2
f 9/9/9 8/8/8 2/2/2
f 10/10/10 9/9/9 2/2/2
f 11/11/11 10/10/10 2/2/2
f 3/3/3 11/11/11 2/2/2
f 12/12/12 14/14/14 13/13/13
f 12/12/12 15/15/15 14/14/14
f 16/16/16 18/18/18 17/17/17
f 16/16/16 19/19/19 18/18/18
f 20/20/20 22/22/22 21/21/21
f 20/20/20 23/23/23 22/22/22
f 24/24/24 26/26/26 25/25/25
f 24/24/24 27/27/27 26/26/26
f 28/28/28 30/30/30 29/29/29
f 28/28/28 31/31/31 30/30/30
f 32/32/32 34/34/34 33/33/33
f 32/32/32 35/35/35 34/34/34
f 36/36/36 38/38/38 37/37/37
f 36/36/36 39/39/39 38/38/38
f 40/40/40 42/42/42 41/41/41
f 40/40/40 43/43/43 42/42/42
f 44/44/44 46/46/46 45/45/45
f 44/44/44 47/47/47 46/46/46
f 48/48/48 50/50/50 49/49/49
f 48/48/48 51/51/51 50/50/50
f 52/52/52 54/54/54 53/53/53
f 52/52/52 55/55/55 54/54/54
f 56/56/56 58/58/58 57/57/57
f 56/56/56 59/59/59 58/58/58
f 60/60/60 62/62/62 61/61/61
f 60/60/60 63/63/63 62/62/62
f 64/64/64 66/66/66 65/65/65
f 64/64/64 67/67/67 66/66/66
f 68/68/68 70/70/70 69/69/69
f 68/68/68 71/71/71 70/70/70
f 72/72/72 74/74/74 73/73/73
f 72/72/72 75/75/75 74/74/74
f 76/76/76 78/78/78 77/77/77
f 76/76/76 79/79/79 78/78/78
f 80/80/80 82/82/82 81/81/81
f 80/80/80 83/83/83 82/82/82
f 84/84/84 86/86/86 85/85/85
f 84/84/84 87/87/87 86/86/86
f 88/88/88 90/90/90 89/89/89
f 88/88/88 91/91/91 90/90/90
f 92/92/92 94/94/94 93/93/93
f 92/92/92 95/95/95 94/94/94
f 96/96/96 98/98/98 97/97/97
f 96/96/96 99/99/99 98/98/98
f 100/100/100 102/102/102 101/101/101
f 100/100/100 103/103/103 102/102/102
f 104/104/104 106/106/106 105/105/105
f 104/104/104 107/107/107 106/106/106
f 108/108/108 110/110/110 109/109/109
f 108/108/108 111/111/111 110/110/110
f 112/112/112 114/114/114 113/113/113
f 112/112/112 115/115/115 114/114/114
f 116/116/116 118/118/118 117/117/117
f 116/116/116 119/119/119 118/118/118
f 120/120/120 122/122/122 121/121/121
f 120/120/120 123/123/123 122/122/122
f 124/124/124 126/126/126 125/125/125
f 124/124/124 127/127/127 126/126/126
f 128/128/128 130/130/130 129/129/129
f 128/128/128 131/131/131 130/130/130
f 132/132/132 134/134/134 133/133/133
f 132/132/132 135/135/135 134/134/134
f 136/136/136 138/138/138 137/137/137
f 136/136/136 139/139/139 138/138/138
f 140/140/140 142/142/142 141/141/141
f 140/140/140 143/143/143 142/142/142
f 144/144/144 146/146/146 145/145/145
f 144/144/144 147/147/147 146/146/146
f 148/148/148 150/150/150 149/149/149
f 148/148/148 151/151/151 150/150/150
f 152/152/152 154/154/154 153/153/153
f 152/152/152 155/155/155 154/154/154
f 156/156/156 158/158/158 157/157/157
f 156/156/156 159/159/159 158/158/158
f 160/160/160 162/162/162 161/161/161
f 160/160/160 163/163/163 162/162/162
f 164/164/164 166/166/166 165/165/165
f 164/164/164 167/167/167 166/166/166
f 168/168/168 170/170/170 169/169/169
f 168/168/168 171/171/171 170/170/170
f 172/172/172 174/174/174 173/173/173
f 175/175/175 177/177/177 176/176/176
f 178/178/178 180/180/180 179/179/179
f 181/181/181 183/183/183 182/182/182
f 184/184/184 186/186/186 185/185/185
f 187/187/187 189/189/189 188/188/188
f 190/190/190 192/192/192 191/191/191
f 193/193/193 195/195/195 194/194/194
f 196/196/196 198/198/198 197/197/197
f 199/199/199 201/201/201 200/200/200
