#pCylinder8_27_3590_213.obj

v 0.01454406 -0.02577559 -0.04036024
v 0.004622616 -0.03397604 0.001089685
v 0.03878267 -0.02577559 -0.02105675
v -0.009664915 -0.02577559 -0.03817713
v -0.01825202 -0.02577559 -0.01778224
v -0.03822367 -0.02223221 0.001089784
v -0.02135256 -0.02577559 0.01996123
v -0.005298822 -0.02577559 0.03271601
v 0.02109268 -0.02577559 0.04035619
v 0.03059729 -0.02577559 0.01996122
v 0.03218767 -0.02223221 0.001089767
v 0.03878267 -0.02577559 -0.02105675
v 0.0479651 -0.01489237 -0.02772785
v 0.01805144 -0.01489237 -0.05115483
v 0.01454406 -0.02577559 -0.04036024
v 0.01454406 -0.02577559 -0.04036024
v 0.01805144 -0.01489237 -0.05115483
v -0.01317254 -0.01489237 -0.04897168
v -0.009664915 -0.02577559 -0.03817713
v -0.009664915 -0.02577559 -0.03817713
v -0.01317254 -0.01489237 -0.04897168
v -0.0274345 -0.01489237 -0.02445344
v -0.01825202 -0.02577559 -0.01778224
v -0.01825202 -0.02577559 -0.01778224
v -0.0274345 -0.01489237 -0.02445344
v -0.0479688 -0.01288822 0.001089543
v -0.03822367 -0.02223221 0.001089784
v -0.03822367 -0.02223221 0.001089784
v -0.0479688 -0.01288822 0.001089543
v -0.03053497 -0.01489237 0.02663276
v -0.02135256 -0.02577559 0.01996123
v -0.02135256 -0.02577559 0.01996123
v -0.03053497 -0.01489237 0.02663276
v -0.008806202 -0.01489237 0.0435106
v -0.005298822 -0.02577559 0.03271601
v -0.005298822 -0.02577559 0.03271601
v -0.008806202 -0.01489237 0.0435106
v 0.02459944 -0.01489237 0.05115077
v 0.02109268 -0.02577559 0.04035619
v 0.02109268 -0.02577559 0.04035619
v 0.02459944 -0.01489237 0.05115077
v 0.03977979 -0.01489237 0.02663286
v 0.03059729 -0.02577559 0.01996122
v 0.03059729 -0.02577559 0.01996122
v 0.03977979 -0.01489237 0.02663286
v 0.04193278 -0.01288822 0.001089578
v 0.03218767 -0.02223221 0.001089767
v 0.03218767 -0.02223221 0.001089767
v 0.04193278 -0.01288822 0.001089578
v 0.0479651 -0.01489237 -0.02772785
v 0.03878267 -0.02577559 -0.02105675
v 0.0479651 -0.01489237 -0.02772785
v 0.0479651 -0.0001482879 -0.02772785
v 0.01805144 -0.0001482879 -0.05115483
v 0.01805144 -0.01489237 -0.05115483
v 0.01805144 -0.01489237 -0.05115483
v 0.01805144 -0.0001482879 -0.05115483
v -0.01317254 -0.0001482879 -0.04897168
v -0.01317254 -0.01489237 -0.04897168
v -0.01317254 -0.01489237 -0.04897168
v -0.01317254 -0.0001482879 -0.04897168
v -0.0274345 -0.0001482879 -0.02445344
v -0.0274345 -0.01489237 -0.02445344
v -0.0274345 -0.01489237 -0.02445344
v -0.0274345 -0.0001482879 -0.02445344
v -0.0479688 -0.0002293845 0.001089543
v -0.0479688 -0.01288822 0.001089543
v -0.0479688 -0.01288822 0.001089543
v -0.0479688 -0.0002293845 0.001089543
v -0.03053497 -0.0001482879 0.02663276
v -0.03053497 -0.01489237 0.02663276
v -0.03053497 -0.01489237 0.02663276
v -0.03053497 -0.0001482879 0.02663276
v -0.008806202 -0.0001482879 0.0435106
v -0.008806202 -0.01489237 0.0435106
v -0.008806202 -0.01489237 0.0435106
v -0.008806202 -0.0001482879 0.0435106
v 0.02459944 -0.0001482879 0.05115077
v 0.02459944 -0.01489237 0.05115077
v 0.02459944 -0.01489237 0.05115077
v 0.02459944 -0.0001482879 0.05115077
v 0.03977979 -0.0001482879 0.02663286
v 0.03977979 -0.01489237 0.02663286
v 0.03977979 -0.01489237 0.02663286
v 0.03977979 -0.0001482879 0.02663286
v 0.04193278 -0.0002293845 0.001089578
v 0.04193278 -0.01288822 0.001089578
v 0.04193278 -0.01288822 0.001089578
v 0.04193278 -0.0002293845 0.001089578
v 0.0479651 -0.0001482879 -0.02772785
v 0.0479651 -0.01489237 -0.02772785
v 0.0479651 -0.0001482879 -0.02772785
v 0.04568762 0.01428337 -0.02539878
v 0.01714334 0.01428337 -0.047993
v 0.01805144 -0.0001482879 -0.05115483
v 0.01805144 -0.0001482879 -0.05115483
v 0.01714334 0.01428337 -0.047993
v -0.01183075 0.01428337 -0.04559953
v -0.01317254 -0.0001482879 -0.04897168
v -0.01317254 -0.0001482879 -0.04897168
v -0.01183075 0.01428337 -0.04559953
v -0.02321162 0.01428337 -0.02180817
v -0.0274345 -0.0001482879 -0.02445344
v -0.0274345 -0.0001482879 -0.02445344
v -0.02321162 0.01428337 -0.02180817
v -0.0453059 0.01197206 0.001194795
v -0.0479688 -0.0002293845 0.001089543
v -0.0479688 -0.0002293845 0.001089543
v -0.0453059 0.01197206 0.001194795
v -0.02661139 0.01428337 0.02419797
v -0.03053497 -0.0001482879 0.02663276
v -0.03053497 -0.0001482879 0.02663276
v -0.02661139 0.01428337 0.02419797
v -0.007043026 0.01428337 0.03961185
v -0.008806202 -0.0001482879 0.0435106
v -0.008806202 -0.0001482879 0.0435106
v -0.007043026 0.01428337 0.03961185
v 0.02432444 0.01428337 0.04798924
v 0.02459944 -0.0001482879 0.05115077
v 0.02459944 -0.0001482879 0.05115077
v 0.02432444 0.01428337 0.04798924
v 0.03671165 0.01428337 0.02419801
v 0.03977979 -0.0001482879 0.02663286
v 0.03977979 -0.0001482879 0.02663286
v 0.03671165 0.01428337 0.02419801
v 0.03865083 0.01197206 0.001194942
v 0.04193278 -0.0002293845 0.001089578
v 0.04193278 -0.0002293845 0.001089578
v 0.03865083 0.01197206 0.001194942
v 0.04568762 0.01428337 -0.02539878
v 0.0479651 -0.0001482879 -0.02772785
v 0.04568762 0.01428337 -0.02539878
v 0.03225124 0.02437446 -0.01614943
v 0.01203494 0.02437446 -0.03257039
v 0.01714334 0.01428337 -0.047993
v 0.01714334 0.01428337 -0.047993
v 0.01203494 0.02437446 -0.03257039
v -0.002593606 0.02437446 -0.02139566
v -0.01183075 0.01428337 -0.04559953
v -0.01183075 0.01428337 -0.04559953
v -0.002593606 0.02437446 -0.02139566
v -0.01125467 0.02437446 -0.01279688
v -0.02321162 0.01428337 -0.02180817
v -0.02321162 0.01428337 -0.02180817
v -0.01125467 0.02437446 -0.01279688
v -0.03124641 0.02074654 0.001115453
v -0.0453059 0.01197206 0.001194795
v -0.0453059 0.01197206 0.001194795
v -0.03124641 0.02074654 0.001115453
v -0.01442897 0.02437446 0.01502817
v -0.02661139 0.01428337 0.02419797
v -0.02661139 0.01428337 0.02419797
v -0.01442897 0.02437446 0.01502817
v -0.002593724 0.02437446 0.02474428
v -0.007043026 0.01428337 0.03961185
v -0.007043026 0.01428337 0.03961185
v -0.002593724 0.02437446 0.02474428
v 0.01874004 0.02437446 0.03256685
v 0.02432444 0.01428337 0.04798924
v 0.02432444 0.01428337 0.04798924
v 0.01874004 0.02437446 0.03256685
v 0.02386944 0.02437446 0.01502851
v 0.03671165 0.01428337 0.02419801
v 0.03671165 0.01428337 0.02419801
v 0.02386944 0.02437446 0.01502851
v 0.02504265 0.02074654 0.001115458
v 0.03865083 0.01197206 0.001194942
v 0.03865083 0.01197206 0.001194942
v 0.02504265 0.02074654 0.001115458
v 0.03225124 0.02437446 -0.01614943
v 0.04568762 0.01428337 -0.02539878
v 0.03225124 0.02437446 -0.01614943
v 0.004622616 0.03397607 0.001089685
v 0.01203494 0.02437446 -0.03257039
v 0.01203494 0.02437446 -0.03257039
v 0.004622616 0.03397607 0.001089685
v -0.002593606 0.02437446 -0.02139566
v -0.002593606 0.02437446 -0.02139566
v 0.004622616 0.03397607 0.001089685
v -0.01125467 0.02437446 -0.01279688
v -0.01125467 0.02437446 -0.01279688
v 0.004622616 0.03397607 0.001089685
v -0.03124641 0.02074654 0.001115453
v -0.03124641 0.02074654 0.001115453
v 0.004622616 0.03397607 0.001089685
v -0.01442897 0.02437446 0.01502817
v -0.01442897 0.02437446 0.01502817
v 0.004622616 0.03397607 0.001089685
v -0.002593724 0.02437446 0.02474428
v -0.002593724 0.02437446 0.02474428
v 0.004622616 0.03397607 0.001089685
v 0.01874004 0.02437446 0.03256685
v 0.01874004 0.02437446 0.03256685
v 0.004622616 0.03397607 0.001089685
v 0.02386944 0.02437446 0.01502851
v 0.02386944 0.02437446 0.01502851
v 0.004622616 0.03397607 0.001089685
v 0.02504265 0.02074654 0.001115458
v 0.02504265 0.02074654 0.001115458
v 0.004622616 0.03397607 0.001089685
v 0.03225124 0.02437446 -0.01614943

vn -0.1772794 -0.9818565 -0.06729703
vn 5.505926E-05 -0.9999982 -0.001670717
vn -0.04697927 -0.9784297 -0.2011653
vn -0.1776665 -0.9810984 0.07667845
vn -0.1131466 -0.9602382 0.2552246
vn -0.02883359 -0.9642731 0.2633346
vn 0.100722 -0.9679796 0.2299342
vn 0.2159981 -0.970319 0.1087423
vn 0.1827134 -0.9818347 -0.05114334
vn 0.03777679 -0.9585599 -0.2823737
vn 0.1155679 -0.9154217 -0.3855469
vn -0.5389027 -0.703926 -0.4626789
vn -0.5389027 -0.703926 -0.4626788
vn -0.5389026 -0.703926 -0.4626789
vn -0.5389027 -0.703926 -0.4626788
vn -0.7105922 -0.7031067 0.0264387
vn -0.7105922 -0.7031068 0.0264387
vn -0.7105922 -0.7031067 0.02643871
vn -0.7105923 -0.7031068 0.02643871
vn -0.3671821 -0.6620906 0.6533092
vn -0.3671821 -0.6620905 0.6533093
vn -0.3671821 -0.6620906 0.6533092
vn -0.3671821 -0.6620905 0.6533093
vn -0.4649096 -0.6863981 0.5592104
vn -0.4649096 -0.6863981 0.5592105
vn -0.4649096 -0.6863981 0.5592105
vn -0.4649096 -0.6863981 0.5592105
vn 0.3573766 -0.6953633 0.6234992
vn 0.3573766 -0.6953633 0.6234992
vn 0.3573766 -0.6953633 0.6234992
vn 0.3573766 -0.6953633 0.6234992
vn 0.5402254 -0.7039658 0.4610727
vn 0.5402254 -0.7039658 0.4610728
vn 0.5402253 -0.7039658 0.4610728
vn 0.5402253 -0.7039658 0.4610727
vn 0.6906036 -0.6928934 0.2072796
vn 0.6906036 -0.6928935 0.2072797
vn 0.6906036 -0.6928935 0.2072796
vn 0.6906036 -0.6928934 0.2072796
vn 0.385162 -0.6678944 -0.6368415
vn 0.385162 -0.6678944 -0.6368414
vn 0.385162 -0.6678944 -0.6368414
vn 0.385162 -0.6678944 -0.6368415
vn 0.007437205 -0.6790238 -0.7340783
vn 0.007437201 -0.6790239 -0.7340783
vn 0.007437205 -0.6790238 -0.7340783
vn 0.007437201 -0.6790238 -0.7340783
vn 0.2827156 -0.6155775 -0.7356194
vn 0.2827156 -0.6155774 -0.7356194
vn 0.2827156 -0.6155775 -0.7356194
vn 0.2827156 -0.6155775 -0.7356194
vn -0.7611087 2.117187E-16 -0.6486243
vn -0.7611087 2.117187E-16 -0.6486244
vn -0.7611087 2.117187E-16 -0.6486244
vn -0.7611087 2.117187E-16 -0.6486243
vn -0.999597 3.660178E-16 0.0283873
vn -0.999597 3.660178E-16 0.0283873
vn -0.999597 3.660178E-16 0.0283873
vn -0.999597 3.660178E-16 0.0283873
vn -0.5381747 2.79753E-16 0.8428333
vn -0.5381747 2.79753E-16 0.8428333
vn -0.5381747 2.79753E-16 0.8428333
vn -0.5381747 2.79753E-16 0.8428333
vn -0.6582654 3.143874E-16 0.752786
vn -0.6582654 3.143874E-16 0.752786
vn -0.6582654 3.143874E-16 0.752786
vn -0.6582654 3.143874E-16 0.752786
vn 0.529056 -1.074265E-16 0.8485869
vn 0.529056 -1.074265E-16 0.8485869
vn 0.5290561 -1.074265E-16 0.8485869
vn 0.529056 -1.074265E-16 0.8485869
vn 0.7636667 -2.129493E-16 0.6456107
vn 0.7636667 -2.129493E-16 0.6456107
vn 0.7636667 -2.129493E-16 0.6456107
vn 0.7636667 -2.129493E-16 0.6456107
vn 0.9647655 -3.242349E-16 0.2631112
vn 0.9647655 -3.242349E-16 0.2631112
vn 0.9647655 -3.242349E-16 0.2631112
vn 0.9647655 -3.242349E-16 0.2631112
vn 0.5611433 -2.865879E-16 -0.8277187
vn 0.5611433 -2.865879E-16 -0.8277187
vn 0.5611433 -2.865879E-16 -0.8277187
vn 0.5611433 -2.865879E-16 -0.8277187
vn 0.1251802 -1.446194E-16 -0.992134
vn 0.1251802 -1.446194E-16 -0.992134
vn 0.1251802 -1.446194E-16 -0.992134
vn 0.1251802 -1.446194E-16 -0.992134
vn 0.2452392 -1.859747E-16 -0.9694626
vn 0.2452392 -1.859747E-16 -0.9694626
vn 0.2452392 -1.859747E-16 -0.9694626
vn 0.2452392 -1.859747E-16 -0.9694626
vn -0.7420644 0.212757 -0.6356689
vn -0.7420644 0.212757 -0.6356689
vn -0.7420644 0.212757 -0.6356689
vn -0.7420644 0.212757 -0.6356689
vn -0.9746416 0.2212333 0.03361008
vn -0.9746416 0.2212333 0.03361008
vn -0.9746416 0.2212333 0.03361008
vn -0.9746416 0.2212333 0.03361008
vn -0.4878025 0.2588965 0.8336793
vn -0.4878026 0.2588965 0.8336794
vn -0.4878026 0.2588965 0.8336793
vn -0.4878025 0.2588965 0.8336793
vn -0.660745 0.2546348 0.7061
vn -0.660745 0.2546348 0.7060999
vn -0.660745 0.2546347 0.7061
vn -0.6607449 0.2546348 0.7061
vn 0.538312 0.2437819 0.806716
vn 0.538312 0.2437819 0.806716
vn 0.5383118 0.2437819 0.806716
vn 0.538312 0.2437819 0.806716
vn 0.7306142 0.2822602 0.621717
vn 0.7306141 0.2822602 0.621717
vn 0.7306142 0.2822602 0.621717
vn 0.7306142 0.2822602 0.621717
vn 0.9313623 0.2423859 0.2716858
vn 0.9313623 0.2423859 0.2716857
vn 0.9313623 0.2423859 0.2716858
vn 0.9313623 0.2423859 0.2716858
vn 0.5211545 0.1930068 -0.8313521
vn 0.5211545 0.1930068 -0.8313521
vn 0.5211546 0.1930069 -0.831352
vn 0.5211545 0.1930069 -0.8313521
vn 0.1100457 0.2371581 -0.9652181
vn 0.1100457 0.2371581 -0.9652182
vn 0.1100457 0.2371581 -0.9652182
vn 0.1100457 0.237158 -0.9652182
vn 0.2725458 0.178262 -0.9454848
vn 0.2725457 0.178262 -0.9454848
vn 0.2725458 0.178262 -0.9454848
vn 0.2725458 0.178262 -0.9454848
vn -0.4129309 0.8368363 -0.3594332
vn -0.412931 0.8368363 -0.3594332
vn -0.4129309 0.8368363 -0.3594332
vn -0.412931 0.8368363 -0.3594332
vn -0.4435474 0.8884321 0.1181241
vn -0.4435474 0.8884321 0.1181241
vn -0.4435474 0.8884321 0.1181241
vn -0.4435474 0.8884321 0.1181241
vn -0.2772292 0.8693342 0.4091471
vn -0.2772292 0.8693342 0.4091471
vn -0.2772292 0.8693342 0.4091471
vn -0.2772292 0.8693342 0.4091471
vn -0.4035098 0.8049012 0.4351015
vn -0.4035098 0.8049012 0.4351015
vn -0.4035098 0.8049012 0.4351015
vn -0.4035098 0.8049012 0.4351015
vn 0.3044885 0.8185277 0.4871329
vn 0.3044885 0.8185278 0.4871329
vn 0.3044885 0.8185277 0.487133
vn 0.3044885 0.8185277 0.4871329
vn 0.429247 0.8222617 0.3736739
vn 0.4292469 0.8222616 0.3736739
vn 0.429247 0.8222616 0.3736739
vn 0.4292469 0.8222616 0.3736739
vn 0.5433835 0.8172351 0.1919906
vn 0.5433835 0.8172351 0.1919906
vn 0.5433835 0.8172351 0.1919906
vn 0.5433835 0.8172351 0.1919906
vn 0.258941 0.796234 -0.5467727
vn 0.258941 0.796234 -0.5467727
vn 0.2589411 0.796234 -0.5467727
vn 0.258941 0.796234 -0.5467727
vn -0.0533755 0.7985129 -0.5996062
vn -0.05337551 0.7985129 -0.5996061
vn -0.05337551 0.7985129 -0.5996062
vn -0.05337548 0.7985129 -0.5996062
vn 0.3230665 0.7325383 -0.5991787
vn 0.3230665 0.7325383 -0.5991787
vn 0.3230665 0.7325383 -0.5991787
vn 0.3230665 0.7325383 -0.5991787
vn -0.2230407 0.9546865 -0.1970425
vn -0.2230407 0.9546865 -0.1970425
vn -0.2230407 0.9546865 -0.1970425
vn -0.3245627 0.9181486 0.2272918
vn -0.3245627 0.9181486 0.2272918
vn -0.3245627 0.9181486 0.2272917
vn -0.3064696 0.909752 0.2800482
vn -0.3064696 0.909752 0.2800482
vn -0.3064696 0.909752 0.2800482
vn -0.2588113 0.9095348 0.3252115
vn -0.2588114 0.9095348 0.3252115
vn -0.2588114 0.9095348 0.3252115
vn 0.1566919 0.9244464 0.3476288
vn 0.156692 0.9244464 0.3476287
vn 0.1566919 0.9244464 0.3476288
vn 0.2888589 0.921985 0.2578825
vn 0.2888589 0.9219851 0.2578825
vn 0.2888589 0.9219851 0.2578825
vn 0.3347984 0.9320197 0.1387393
vn 0.3347983 0.9320197 0.1387393
vn 0.3347983 0.9320197 0.1387393
vn 0.1262267 0.9190344 -0.3734192
vn 0.1262267 0.9190344 -0.3734192
vn 0.1262267 0.9190343 -0.3734193
vn -0.1481112 0.8268817 -0.542521
vn -0.1481112 0.8268817 -0.5425209
vn -0.1481112 0.8268818 -0.5425209
vn 0.3945367 0.778574 -0.4880192
vn 0.3945367 0.778574 -0.4880192
vn 0.3945367 0.778574 -0.4880192

vt 0.5483398 0.007648468
vt 0.5 0.1500244
vt 0.6264648 0.06439209
vt 0.4516602 0.007648468
vt 0.3735352 0.06439209
vt 0.34375 0.15625
vt 0.3735352 0.2480469
vt 0.4516602 0.3049316
vt 0.5483398 0.3049316
vt 0.6264648 0.2480469
vt 0.65625 0.15625
vt 0 0
vt 0 1
vt 1 1
vt 1 0
vt 0 0
vt 0 1
vt 1 1
vt 1 0
vt 0 0
vt 0 1
vt 1 1
vt 1 0
vt 0 0
vt 0 1
vt 1 1
vt 1 0
vt 0 0
vt 0 1
vt 1 1
vt 1 0
vt 0 0
vt 0 1
vt 1 1
vt 1 0
vt 0 0
vt 0 1
vt 1 1
vt 1 0
vt 0 0
vt 0 1
vt 1 1
vt 1 0
vt 0 0
vt 0 1
vt 1 1
vt 1 0
vt 0 0
vt 0 1
vt 1 1
vt 1 0
vt 0 0
vt 0 1
vt 1 1
vt 1 0
vt 0 0
vt 0 1
vt 1 1
vt 1 0
vt 0 0
vt 0 1
vt 1 1
vt 1 0
vt 0 0
vt 0 1
vt 1 1
vt 1 0
vt 0 0
vt 0 1
vt 1 1
vt 1 0
vt 0 0
vt 0 1
vt 1 1
vt 1 0
vt 0 0
vt 0 1
vt 1 1
vt 1 0
vt 0 0
vt 0 1
vt 1 1
vt 1 0
vt 0 0
vt 0 1
vt 1 1
vt 1 0
vt 0 0
vt 0 1
vt 1 1
vt 1 0
vt 0 0
vt 0 1
vt 1 1
vt 1 0
vt 0 0
vt 0 1
vt 1 1
vt 1 0
vt 0 0
vt 0 1
vt 1 1
vt 1 0
vt 0 0
vt 0 1
vt 1 1
vt 1 0
vt 0 0
vt 0 1
vt 1 1
vt 1 0
vt 0 0
vt 0 1
vt 1 1
vt 1 0
vt 0 0
vt 0 1
vt 1 1
vt 1 0
vt 0 0
vt 0 1
vt 1 1
vt 1 0
vt 0 0
vt 0 1
vt 1 1
vt 1 0
vt 0 0
vt 0 1
vt 1 1
vt 1 0
vt 0 0
vt 0 1
vt 1 1
vt 1 0
vt 0 0
vt 0 1
vt 1 1
vt 1 0
vt 0 0
vt 0 1
vt 1 1
vt 1 0
vt 0 0
vt 0 1
vt 1 1
vt 1 0
vt 0 0
vt 0 1
vt 1 1
vt 1 0
vt 0 0
vt 0 1
vt 1 1
vt 1 0
vt 0 0
vt 0 1
vt 1 1
vt 1 0
vt 0 0
vt 0 1
vt 1 1
vt 1 0
vt 0 0
vt 0 1
vt 1 1
vt 1 0
vt 0 0
vt 0 1
vt 1 1
vt 1 0
vt 0 0
vt 0.5 1
vt 1 0
vt 0 0
vt 0.5 1
vt 1 0
vt 0 0
vt 0.5 1
vt 1 0
vt 0 0
vt 0.5 1
vt 1 0
vt 0 0
vt 0.5 1
vt 1 0
vt 0 0
vt 0.5 1
vt 1 0
vt 0 0
vt 0.5 1
vt 1 0
vt 0 0
vt 0.5 1
vt 1 0
vt 0 0
vt 0.5 1
vt 1 0
vt 0 0
vt 0.5 1
vt 1 0

g pCylinder8_27_3590_213
usemtl pCylinder8_27_3590_213
usemap pCylinder8_27_3590_213
f 1/1/1 3/3/3 2/2/2
f 4/4/4 1/1/1 2/2/2
f 5/5/5 4/4/4 2/2/2
f 6/6/6 5/5/5 2/2/2
f 7/7/7 6/6/6 2/2/2
f 8/8/8 7/7/7 2/2/2
f 9/9/9 8/8/8 2/2/2
f 10/10/10 9/9/9 2/2/2
f 11/11/11 10/10/10 2/2/2
f 3/3/3 11/11/11 2/2/2
f 12/12/12 14/14/14 13/13/13
f 12/12/12 15/15/15 14/14/14
f 16/16/16 18/18/18 17/17/17
f 16/16/16 19/19/19 18/18/18
f 20/20/20 22/22/22 21/21/21
f 20/20/20 23/23/23 22/22/22
f 24/24/24 26/26/26 25/25/25
f 24/24/24 27/27/27 26/26/26
f 28/28/28 30/30/30 29/29/29
f 28/28/28 31/31/31 30/30/30
f 32/32/32 34/34/34 33/33/33
f 32/32/32 35/35/35 34/34/34
f 36/36/36 38/38/38 37/37/37
f 36/36/36 39/39/39 38/38/38
f 40/40/40 42/42/42 41/41/41
f 40/40/40 43/43/43 42/42/42
f 44/44/44 46/46/46 45/45/45
f 44/44/44 47/47/47 46/46/46
f 48/48/48 50/50/50 49/49/49
f 48/48/48 51/51/51 50/50/50
f 52/52/52 54/54/54 53/53/53
f 52/52/52 55/55/55 54/54/54
f 56/56/56 58/58/58 57/57/57
f 56/56/56 59/59/59 58/58/58
f 60/60/60 62/62/62 61/61/61
f 60/60/60 63/63/63 62/62/62
f 64/64/64 66/66/66 65/65/65
f 64/64/64 67/67/67 66/66/66
f 68/68/68 70/70/70 69/69/69
f 68/68/68 71/71/71 70/70/70
f 72/72/72 74/74/74 73/73/73
f 72/72/72 75/75/75 74/74/74
f 76/76/76 78/78/78 77/77/77
f 76/76/76 79/79/79 78/78/78
f 80/80/80 82/82/82 81/81/81
f 80/80/80 83/83/83 82/82/82
f 84/84/84 86/86/86 85/85/85
f 84/84/84 87/87/87 86/86/86
f 88/88/88 90/90/90 89/89/89
f 88/88/88 91/91/91 90/90/90
f 92/92/92 94/94/94 93/93/93
f 92/92/92 95/95/95 94/94/94
f 96/96/96 98/98/98 97/97/97
f 96/96/96 99/99/99 98/98/98
f 100/100/100 102/102/102 101/101/101
f 100/100/100 103/103/103 102/102/102
f 104/104/104 106/106/106 105/105/105
f 104/104/104 107/107/107 106/106/106
f 108/108/108 110/110/110 109/109/109
f 108/108/108 111/111/111 110/110/110
f 112/112/112 114/114/114 113/113/113
f 112/112/112 115/115/115 114/114/114
f 116/116/116 118/118/118 117/117/117
f 116/116/116 119/119/119 118/118/118
f 120/120/120 122/122/122 121/121/121
f 120/120/120 123/123/123 122/122/122
f 124/124/124 126/126/126 125/125/125
f 124/124/124 127/127/127 126/126/126
f 128/128/128 130/130/130 129/129/129
f 128/128/128 131/131/131 130/130/130
f 132/132/132 134/134/134 133/133/133
f 132/132/132 135/135/135 134/134/134
f 136/136/136 138/138/138 137/137/137
f 136/136/136 139/139/139 138/138/138
f 140/140/140 142/142/142 141/141/141
f 140/140/140 143/143/143 142/142/142
f 144/144/144 146/146/146 145/145/145
f 144/144/144 147/147/147 146/146/146
f 148/148/148 150/150/150 149/149/149
f 148/148/148 151/151/151 150/150/150
f 152/152/152 154/154/154 153/153/153
f 152/152/152 155/155/155 154/154/154
f 156/156/156 158/158/158 157/157/157
f 156/156/156 159/159/159 158/158/158
f 160/160/160 162/162/162 161/161/161
f 160/160/160 163/163/163 162/162/162
f 164/164/164 166/166/166 165/165/165
f 164/164/164 167/167/167 166/166/166
f 168/168/168 170/170/170 169/169/169
f 168/168/168 171/171/171 170/170/170
f 172/172/172 174/174/174 173/173/173
f 175/175/175 177/177/177 176/176/176
f 178/178/178 180/180/180 179/179/179
f 181/181/181 183/183/183 182/182/182
f 184/184/184 186/186/186 185/185/185
f 187/187/187 189/189/189 188/188/188
f 190/190/190 192/192/192 191/191/191
f 193/193/193 195/195/195 194/194/194
f 196/196/196 198/198/198 197/197/197
f 199/199/199 201/201/201 200/200/200
