#pCylinder8_22_3543_163.obj

v 0.01454257 -0.0257755 -0.04035722
v 0.004620772 -0.03397606 0.001092468
v 0.03878187 -0.0257755 -0.02105367
v -0.009666087 -0.0257755 -0.03817444
v -0.01825418 -0.0257755 -0.01777918
v -0.03822554 -0.02223201 0.001092634
v -0.02135362 -0.0257755 0.01996445
v -0.005300293 -0.0257755 0.03271918
v 0.02109092 -0.0257755 0.04035915
v 0.0305951 -0.0257755 0.01996429
v 0.03218641 -0.02223201 0.001092447
v 0.03878187 -0.0257755 -0.02105367
v 0.04796392 -0.01489217 -0.02772503
v 0.01804994 -0.01489217 -0.05115183
v 0.01454257 -0.0257755 -0.04035722
v 0.01454257 -0.0257755 -0.04035722
v 0.01804994 -0.01489217 -0.05115183
v -0.01317419 -0.01489217 -0.04896878
v -0.009666087 -0.0257755 -0.03817444
v -0.009666087 -0.0257755 -0.03817444
v -0.01317419 -0.01489217 -0.04896878
v -0.02743629 -0.01489217 -0.02445077
v -0.01825418 -0.0257755 -0.01777918
v -0.01825418 -0.0257755 -0.01777918
v -0.02743629 -0.01489217 -0.02445077
v -0.04796964 -0.01288813 0.001092401
v -0.03822554 -0.02223201 0.001092634
v -0.03822554 -0.02223201 0.001092634
v -0.04796964 -0.01288813 0.001092401
v -0.03053662 -0.01489217 0.02663559
v -0.02135362 -0.0257755 0.01996445
v -0.02135362 -0.0257755 0.01996445
v -0.03053662 -0.01489217 0.02663559
v -0.008807761 -0.01489217 0.04351337
v -0.005300293 -0.0257755 0.03271918
v -0.005300293 -0.0257755 0.03271918
v -0.008807761 -0.01489217 0.04351337
v 0.02459818 -0.01489217 0.05115369
v 0.02109092 -0.0257755 0.04035915
v 0.02109092 -0.0257755 0.04035915
v 0.02459818 -0.01489217 0.05115369
v 0.03977805 -0.01489217 0.02663568
v 0.0305951 -0.0257755 0.01996429
v 0.0305951 -0.0257755 0.01996429
v 0.03977805 -0.01489217 0.02663568
v 0.04193135 -0.01288813 0.001092484
v 0.03218641 -0.02223201 0.001092447
v 0.03218641 -0.02223201 0.001092447
v 0.04193135 -0.01288813 0.001092484
v 0.04796392 -0.01489217 -0.02772503
v 0.03878187 -0.0257755 -0.02105367
v 0.04796392 -0.01489217 -0.02772503
v 0.04796392 -0.0001483013 -0.02772503
v 0.01804994 -0.0001483013 -0.05115183
v 0.01804994 -0.01489217 -0.05115183
v 0.01804994 -0.01489217 -0.05115183
v 0.01804994 -0.0001483013 -0.05115183
v -0.01317419 -0.0001483013 -0.04896878
v -0.01317419 -0.01489217 -0.04896878
v -0.01317419 -0.01489217 -0.04896878
v -0.01317419 -0.0001483013 -0.04896878
v -0.02743629 -0.0001483013 -0.02445077
v -0.02743629 -0.01489217 -0.02445077
v -0.02743629 -0.01489217 -0.02445077
v -0.02743629 -0.0001483013 -0.02445077
v -0.04796964 -0.0002292903 0.001092401
v -0.04796964 -0.01288813 0.001092401
v -0.04796964 -0.01288813 0.001092401
v -0.04796964 -0.0002292903 0.001092401
v -0.03053662 -0.0001483013 0.02663559
v -0.03053662 -0.01489217 0.02663559
v -0.03053662 -0.01489217 0.02663559
v -0.03053662 -0.0001483013 0.02663559
v -0.008807761 -0.0001483013 0.04351337
v -0.008807761 -0.01489217 0.04351337
v -0.008807761 -0.01489217 0.04351337
v -0.008807761 -0.0001483013 0.04351337
v 0.02459818 -0.0001483013 0.05115369
v 0.02459818 -0.01489217 0.05115369
v 0.02459818 -0.01489217 0.05115369
v 0.02459818 -0.0001483013 0.05115369
v 0.03977805 -0.0001483013 0.02663568
v 0.03977805 -0.01489217 0.02663568
v 0.03977805 -0.01489217 0.02663568
v 0.03977805 -0.0001483013 0.02663568
v 0.04193135 -0.0002292903 0.001092484
v 0.04193135 -0.01288813 0.001092484
v 0.04193135 -0.01288813 0.001092484
v 0.04193135 -0.0002292903 0.001092484
v 0.04796392 -0.0001483013 -0.02772503
v 0.04796392 -0.01489217 -0.02772503
v 0.04796392 -0.0001483013 -0.02772503
v 0.04568588 0.01428346 -0.02539576
v 0.01714177 0.01428346 -0.04799015
v 0.01804994 -0.0001483013 -0.05115183
v 0.01804994 -0.0001483013 -0.05115183
v 0.01714177 0.01428346 -0.04799015
v -0.01183188 0.01428346 -0.04559654
v -0.01317419 -0.0001483013 -0.04896878
v -0.01317419 -0.0001483013 -0.04896878
v -0.01183188 0.01428346 -0.04559654
v -0.02321313 0.01428346 -0.02180542
v -0.02743629 -0.0001483013 -0.02445077
v -0.02743629 -0.0001483013 -0.02445077
v -0.02321313 0.01428346 -0.02180542
v -0.04530752 0.01197226 0.001197898
v -0.04796964 -0.0002292903 0.001092401
v -0.04796964 -0.0002292903 0.001092401
v -0.04530752 0.01197226 0.001197898
v -0.02661244 0.01428346 0.02420079
v -0.03053662 -0.0001483013 0.02663559
v -0.03053662 -0.0001483013 0.02663559
v -0.02661244 0.01428346 0.02420079
v -0.007045123 0.01428346 0.03961473
v -0.008807761 -0.0001483013 0.04351337
v -0.008807761 -0.0001483013 0.04351337
v -0.007045123 0.01428346 0.03961473
v 0.02432317 0.01428346 0.04799237
v 0.02459818 -0.0001483013 0.05115369
v 0.02459818 -0.0001483013 0.05115369
v 0.02432317 0.01428346 0.04799237
v 0.03670974 0.01428346 0.02420105
v 0.03977805 -0.0001483013 0.02663568
v 0.03977805 -0.0001483013 0.02663568
v 0.03670974 0.01428346 0.02420105
v 0.03864875 0.01197226 0.001197727
v 0.04193135 -0.0002292903 0.001092484
v 0.04193135 -0.0002292903 0.001092484
v 0.03864875 0.01197226 0.001197727
v 0.04568588 0.01428346 -0.02539576
v 0.04796392 -0.0001483013 -0.02772503
v 0.04568588 0.01428346 -0.02539576
v 0.03224948 0.02437456 -0.01614657
v 0.01203329 0.02437456 -0.03256753
v 0.01714177 0.01428346 -0.04799015
v 0.01714177 0.01428346 -0.04799015
v 0.01203329 0.02437456 -0.03256753
v -0.002595317 0.02437456 -0.02139271
v -0.01183188 0.01428346 -0.04559654
v -0.01183188 0.01428346 -0.04559654
v -0.002595317 0.02437456 -0.02139271
v -0.01125581 0.02437456 -0.01279411
v -0.02321313 0.01428346 -0.02180542
v -0.02321313 0.01428346 -0.02180542
v -0.01125581 0.02437456 -0.01279411
v -0.03124817 0.02074664 0.001118575
v -0.04530752 0.01197226 0.001197898
v -0.04530752 0.01197226 0.001197898
v -0.03124817 0.02074664 0.001118575
v -0.01442995 0.02437456 0.01503141
v -0.02661244 0.01428346 0.02420079
v -0.02661244 0.01428346 0.02420079
v -0.01442995 0.02437456 0.01503141
v -0.002595711 0.02437456 0.02474733
v -0.007045123 0.01428346 0.03961473
v -0.007045123 0.01428346 0.03961473
v -0.002595711 0.02437456 0.02474733
v 0.01873802 0.02437456 0.0325699
v 0.02432317 0.01428346 0.04799237
v 0.02432317 0.01428346 0.04799237
v 0.01873802 0.02437456 0.0325699
v 0.02386829 0.02437456 0.01503139
v 0.03670974 0.01428346 0.02420105
v 0.03670974 0.01428346 0.02420105
v 0.02386829 0.02437456 0.01503139
v 0.02504068 0.02074664 0.001118427
v 0.03864875 0.01197226 0.001197727
v 0.03864875 0.01197226 0.001197727
v 0.02504068 0.02074664 0.001118427
v 0.03224948 0.02437456 -0.01614657
v 0.04568588 0.01428346 -0.02539576
v 0.03224948 0.02437456 -0.01614657
v 0.004620772 0.03397627 0.001092468
v 0.01203329 0.02437456 -0.03256753
v 0.01203329 0.02437456 -0.03256753
v 0.004620772 0.03397627 0.001092468
v -0.002595317 0.02437456 -0.02139271
v -0.002595317 0.02437456 -0.02139271
v 0.004620772 0.03397627 0.001092468
v -0.01125581 0.02437456 -0.01279411
v -0.01125581 0.02437456 -0.01279411
v 0.004620772 0.03397627 0.001092468
v -0.03124817 0.02074664 0.001118575
v -0.03124817 0.02074664 0.001118575
v 0.004620772 0.03397627 0.001092468
v -0.01442995 0.02437456 0.01503141
v -0.01442995 0.02437456 0.01503141
v 0.004620772 0.03397627 0.001092468
v -0.002595711 0.02437456 0.02474733
v -0.002595711 0.02437456 0.02474733
v 0.004620772 0.03397627 0.001092468
v 0.01873802 0.02437456 0.0325699
v 0.01873802 0.02437456 0.0325699
v 0.004620772 0.03397627 0.001092468
v 0.02386829 0.02437456 0.01503139
v 0.02386829 0.02437456 0.01503139
v 0.004620772 0.03397627 0.001092468
v 0.02504068 0.02074664 0.001118427
v 0.02504068 0.02074664 0.001118427
v 0.004620772 0.03397627 0.001092468
v 0.03224948 0.02437456 -0.01614657

vn 0.09944098 -0.9818565 -0.161457
vn 0.00163054 -0.9999982 0.0003683276
vn 0.2064112 -0.9784297 -0.008302845
vn -0.0418919 -0.9810984 -0.1889181
vn -0.229387 -0.9602382 -0.1591332
vn -0.253211 -0.9642731 -0.07785049
vn -0.2447753 -0.9679796 0.05567508
vn -0.1474292 -0.970319 0.191689
vn 0.01586327 -0.9818347 0.1890719
vn 0.270228 -0.9585599 0.09021519
vn 0.3569277 -0.9154217 0.186024
vn 0.5557847 -0.703926 -0.442257
vn 0.5557846 -0.703926 -0.442257
vn 0.5557847 -0.703926 -0.4422569
vn 0.5557846 -0.703926 -0.442257
vn 0.107691 -0.7031067 -0.7028819
vn 0.107691 -0.7031068 -0.7028819
vn 0.107691 -0.7031067 -0.7028819
vn 0.107691 -0.7031068 -0.7028819
vn -0.5725837 -0.6620906 -0.4835115
vn -0.5725838 -0.6620905 -0.4835116
vn -0.5725837 -0.6620906 -0.4835115
vn -0.5725838 -0.6620905 -0.4835116
vn -0.4617826 -0.6863981 -0.5617954
vn -0.4617827 -0.6863981 -0.5617954
vn -0.4617826 -0.6863981 -0.5617954
vn -0.4617826 -0.6863981 -0.5617953
vn -0.6795906 -0.6953633 0.2337216
vn -0.6795906 -0.6953633 0.2337216
vn -0.6795907 -0.6953633 0.2337216
vn -0.6795907 -0.6953633 0.2337216
vn -0.554456 -0.7039658 0.4438581
vn -0.5544561 -0.7039658 0.4438581
vn -0.554456 -0.7039658 0.4438581
vn -0.554456 -0.7039658 0.4438581
vn -0.333478 -0.6928934 0.639289
vn -0.333478 -0.6928935 0.639289
vn -0.333478 -0.6928935 0.6392891
vn -0.333478 -0.6928934 0.639289
vn 0.553028 -0.6678944 0.498073
vn 0.553028 -0.6678944 0.498073
vn 0.553028 -0.6678944 0.498073
vn 0.5530281 -0.6678944 0.498073
vn 0.7195769 -0.6790238 0.1453799
vn 0.7195769 -0.6790239 0.1453799
vn 0.7195769 -0.6790238 0.1453799
vn 0.7195769 -0.6790238 0.1453799
vn 0.6693124 -0.6155775 0.4160347
vn 0.6693124 -0.6155774 0.4160347
vn 0.6693124 -0.6155775 0.4160347
vn 0.6693124 -0.6155775 0.4160347
vn 0.7802067 6.544714E-17 -0.6255217
vn 0.7802068 6.544713E-17 -0.6255217
vn 0.7802068 6.544713E-17 -0.6255217
vn 0.7802067 6.544714E-17 -0.6255217
vn 0.1601371 2.243628E-16 -0.9870948
vn 0.1601371 2.243628E-16 -0.9870948
vn 0.1601371 2.243628E-16 -0.9870948
vn 0.1601371 2.243628E-16 -0.9870948
vn -0.7265624 2.509163E-16 -0.6871004
vn -0.7265624 2.509163E-16 -0.6871004
vn -0.7265624 2.509163E-16 -0.6871004
vn -0.7265624 2.509163E-16 -0.6871004
vn -0.6155341 2.63176E-16 -0.7881102
vn -0.6155341 2.63176E-16 -0.7881102
vn -0.6155341 2.63176E-16 -0.7881102
vn -0.6155341 2.63176E-16 -0.7881102
vn -0.9329525 1.704312E-17 0.3599991
vn -0.9329525 1.704312E-17 0.3599991
vn -0.9329526 1.70431E-17 0.3599992
vn -0.9329525 1.704312E-17 0.3599991
vn -0.777728 -6.648374E-17 0.6286009
vn -0.777728 -6.648374E-17 0.6286009
vn -0.777728 -6.648374E-17 0.6286009
vn -0.777728 -6.648374E-17 0.6286009
vn -0.4398811 -1.70866E-16 0.8980559
vn -0.4398811 -1.70866E-16 0.8980559
vn -0.4398811 -1.70866E-16 0.8980559
vn -0.4398811 -1.70866E-16 0.8980559
vn 0.7073974 -2.535926E-16 0.7068161
vn 0.7073974 -2.535926E-16 0.7068161
vn 0.7073974 -2.535926E-16 0.7068161
vn 0.7073974 -2.535926E-16 0.7068161
vn 0.9508799 -1.835381E-16 0.3095599
vn 0.9508799 -1.835381E-16 0.3095599
vn 0.9508799 -1.835381E-16 0.3095599
vn 0.9508799 -1.835381E-16 0.3095599
vn 0.9060308 -2.063848E-16 0.4232116
vn 0.9060308 -2.063848E-16 0.4232116
vn 0.9060308 -2.063848E-16 0.4232116
vn 0.9060308 -2.063848E-16 0.4232116
vn 0.7639005 0.212757 -0.6092541
vn 0.7639004 0.212757 -0.6092541
vn 0.7639004 0.212757 -0.6092541
vn 0.7639004 0.212757 -0.6092541
vn 0.1503136 0.2212333 -0.9635671
vn 0.1503136 0.2212333 -0.9635671
vn 0.1503136 0.2212333 -0.9635671
vn 0.1503136 0.2212333 -0.9635671
vn -0.7270465 0.2588965 -0.6359055
vn -0.7270465 0.2588965 -0.6359056
vn -0.7270465 0.2588965 -0.6359056
vn -0.7270465 0.2588965 -0.6359055
vn -0.569215 0.2546348 -0.7817643
vn -0.5692149 0.2546348 -0.7817643
vn -0.569215 0.2546347 -0.7817643
vn -0.569215 0.2546348 -0.7817642
vn -0.89357 0.2437819 0.3769655
vn -0.89357 0.2437819 0.3769655
vn -0.89357 0.2437819 0.3769655
vn -0.89357 0.2437819 0.3769655
vn -0.7480438 0.2822602 0.6006325
vn -0.7480438 0.2822602 0.6006324
vn -0.7480439 0.2822602 0.6006325
vn -0.7480439 0.2822602 0.6006325
vn -0.4420197 0.2423859 0.8636361
vn -0.4420197 0.2423859 0.8636361
vn -0.4420197 0.2423859 0.8636361
vn -0.4420197 0.2423859 0.8636361
vn 0.7184876 0.1930068 0.6682245
vn 0.7184876 0.1930068 0.6682245
vn 0.7184875 0.1930069 0.6682245
vn 0.7184876 0.1930069 0.6682245
vn 0.9272911 0.2371581 0.2896328
vn 0.9272911 0.2371581 0.2896329
vn 0.9272911 0.2371581 0.2896329
vn 0.9272911 0.237158 0.2896329
vn 0.8773448 0.178262 0.4455207
vn 0.8773448 0.178262 0.4455207
vn 0.8773448 0.178262 0.4455207
vn 0.8773448 0.178262 0.4455207
vn 0.4306874 0.8368363 -0.3379535
vn 0.4306874 0.8368363 -0.3379535
vn 0.4306874 0.8368363 -0.3379535
vn 0.4306874 0.8368363 -0.3379535
vn -0.03258727 0.8884321 -0.457849
vn -0.03258727 0.8884321 -0.457849
vn -0.03258727 0.8884321 -0.457849
vn -0.03258725 0.8884321 -0.457849
vn -0.3496992 0.8693342 -0.3492389
vn -0.3496992 0.8693342 -0.3492389
vn -0.3496992 0.8693342 -0.3492389
vn -0.3496992 0.8693342 -0.3492389
vn -0.3514378 0.8049012 -0.4781474
vn -0.3514378 0.8049012 -0.4781474
vn -0.3514378 0.8049012 -0.4781474
vn -0.3514378 0.8049012 -0.4781474
vn -0.5357105 0.8185277 0.2074271
vn -0.5357104 0.8185278 0.2074271
vn -0.5357105 0.8185277 0.2074271
vn -0.5357105 0.8185277 0.2074271
vn -0.4477428 0.8222617 0.3512997
vn -0.4477428 0.8222616 0.3512997
vn -0.4477428 0.8222616 0.3512997
vn -0.4477428 0.8222616 0.3512997
vn -0.2907708 0.8172351 0.4975725
vn -0.2907707 0.8172351 0.4975725
vn -0.2907707 0.8172351 0.4975725
vn -0.2907707 0.8172351 0.4975725
vn 0.4883083 0.796234 0.3571636
vn 0.4883083 0.796234 0.3571637
vn 0.4883083 0.796234 0.3571637
vn 0.4883083 0.796234 0.3571637
vn 0.5989435 0.7985129 0.06035926
vn 0.5989434 0.7985129 0.06035924
vn 0.5989434 0.7985129 0.06035925
vn 0.5989435 0.7985129 0.06035928
vn 0.5277173 0.7325383 0.4300018
vn 0.5277173 0.7325383 0.4300018
vn 0.5277173 0.7325383 0.4300018
vn 0.5277173 0.7325383 0.4300018
vn 0.235478 0.9546865 -0.1819972
vn 0.235478 0.9546865 -0.1819972
vn 0.235478 0.9546865 -0.1819972
vn -0.1621867 0.9181486 -0.3615217
vn -0.1621867 0.9181486 -0.3615217
vn -0.1621867 0.9181486 -0.3615217
vn -0.2174046 0.909752 -0.3536747
vn -0.2174046 0.909752 -0.3536747
vn -0.2174047 0.909752 -0.3536747
vn -0.2707261 0.9095348 -0.315362
vn -0.2707261 0.9095348 -0.3153621
vn -0.2707261 0.9095348 -0.3153621
vn -0.3708967 0.9244464 0.08850843
vn -0.3708966 0.9244464 0.08850844
vn -0.3708967 0.9244464 0.08850843
vn -0.307612 0.921985 0.235197
vn -0.3076121 0.9219851 0.235197
vn -0.3076121 0.9219851 0.235197
vn -0.1992363 0.9320197 0.3027266
vn -0.1992363 0.9320197 0.3027266
vn -0.1992363 0.9320197 0.3027266
vn 0.3430116 0.9190344 0.1942114
vn 0.3430116 0.9190344 0.1942115
vn 0.3430117 0.9190343 0.1942115
vn 0.5606964 0.8268817 -0.04342286
vn 0.5606963 0.8268817 -0.04342286
vn 0.5606963 0.8268818 -0.04342286
vn 0.4050988 0.778574 0.4792879
vn 0.4050987 0.778574 0.4792879
vn 0.4050988 0.778574 0.479288

vt 0.5482839 0.007647395
vt 0.5 0.15
vt 0.6264089 0.06440853
vt 0.4517161 0.00764741
vt 0.3735911 0.06440856
vt 0.34375 0.15625
vt 0.3735911 0.2480915
vt 0.4517161 0.3048526
vt 0.5482839 0.3048526
vt 0.6264089 0.2480914
vt 0.65625 0.15625
vt 0 0
vt 0 1
vt 1 1
vt 1 0
vt 0 0
vt 0 1
vt 1 1
vt 1 0
vt 0 0
vt 0 1
vt 1 1
vt 1 0
vt 0 0
vt 0 1
vt 1 1
vt 1 0
vt 0 0
vt 0 1
vt 1 1
vt 1 0
vt 0 0
vt 0 1
vt 1 1
vt 1 0
vt 0 0
vt 0 1
vt 1 1
vt 1 0
vt 0 0
vt 0 1
vt 1 1
vt 1 0
vt 0 0
vt 0 1
vt 1 1
vt 1 0
vt 0 0
vt 0 1
vt 1 1
vt 1 0
vt 0 0
vt 0 1
vt 1 1
vt 1 0
vt 0 0
vt 0 1
vt 1 1
vt 1 0
vt 0 0
vt 0 1
vt 1 1
vt 1 0
vt 0 0
vt 0 1
vt 1 1
vt 1 0
vt 0 0
vt 0 1
vt 1 1
vt 1 0
vt 0 0
vt 0 1
vt 1 1
vt 1 0
vt 0 0
vt 0 1
vt 1 1
vt 1 0
vt 0 0
vt 0 1
vt 1 1
vt 1 0
vt 0 0
vt 0 1
vt 1 1
vt 1 0
vt 0 0
vt 0 1
vt 1 1
vt 1 0
vt 0 0
vt 0 1
vt 1 1
vt 1 0
vt 0 0
vt 0 1
vt 1 1
vt 1 0
vt 0 0
vt 0 1
vt 1 1
vt 1 0
vt 0 0
vt 0 1
vt 1 1
vt 1 0
vt 0 0
vt 0 1
vt 1 1
vt 1 0
vt 0 0
vt 0 1
vt 1 1
vt 1 0
vt 0 0
vt 0 1
vt 1 1
vt 1 0
vt 0 0
vt 0 1
vt 1 1
vt 1 0
vt 0 0
vt 0 1
vt 1 1
vt 1 0
vt 0 0
vt 0 1
vt 1 1
vt 1 0
vt 0 0
vt 0 1
vt 1 1
vt 1 0
vt 0 0
vt 0 1
vt 1 1
vt 1 0
vt 0 0
vt 0 1
vt 1 1
vt 1 0
vt 0 0
vt 0 1
vt 1 1
vt 1 0
vt 0 0
vt 0 1
vt 1 1
vt 1 0
vt 0 0
vt 0 1
vt 1 1
vt 1 0
vt 0 0
vt 0 1
vt 1 1
vt 1 0
vt 0 0
vt 0 1
vt 1 1
vt 1 0
vt 0 0
vt 0 1
vt 1 1
vt 1 0
vt 0 0
vt 0 1
vt 1 1
vt 1 0
vt 0 0
vt 0.5 1
vt 1 0
vt 0 0
vt 0.5 1
vt 1 0
vt 0 0
vt 0.5 1
vt 1 0
vt 0 0
vt 0.5 1
vt 1 0
vt 0 0
vt 0.5 1
vt 1 0
vt 0 0
vt 0.5 1
vt 1 0
vt 0 0
vt 0.5 1
vt 1 0
vt 0 0
vt 0.5 1
vt 1 0
vt 0 0
vt 0.5 1
vt 1 0
vt 0 0
vt 0.5 1
vt 1 0

g pCylinder8_22_3543_163
usemtl pCylinder8_22_3543_163
usemap pCylinder8_22_3543_163
f 1/1/1 3/3/3 2/2/2
f 4/4/4 1/1/1 2/2/2
f 5/5/5 4/4/4 2/2/2
f 6/6/6 5/5/5 2/2/2
f 7/7/7 6/6/6 2/2/2
f 8/8/8 7/7/7 2/2/2
f 9/9/9 8/8/8 2/2/2
f 10/10/10 9/9/9 2/2/2
f 11/11/11 10/10/10 2/2/2
f 3/3/3 11/11/11 2/2/2
f 12/12/12 14/14/14 13/13/13
f 12/12/12 15/15/15 14/14/14
f 16/16/16 18/18/18 17/17/17
f 16/16/16 19/19/19 18/18/18
f 20/20/20 22/22/22 21/21/21
f 20/20/20 23/23/23 22/22/22
f 24/24/24 26/26/26 25/25/25
f 24/24/24 27/27/27 26/26/26
f 28/28/28 30/30/30 29/29/29
f 28/28/28 31/31/31 30/30/30
f 32/32/32 34/34/34 33/33/33
f 32/32/32 35/35/35 34/34/34
f 36/36/36 38/38/38 37/37/37
f 36/36/36 39/39/39 38/38/38
f 40/40/40 42/42/42 41/41/41
f 40/40/40 43/43/43 42/42/42
f 44/44/44 46/46/46 45/45/45
f 44/44/44 47/47/47 46/46/46
f 48/48/48 50/50/50 49/49/49
f 48/48/48 51/51/51 50/50/50
f 52/52/52 54/54/54 53/53/53
f 52/52/52 55/55/55 54/54/54
f 56/56/56 58/58/58 57/57/57
f 56/56/56 59/59/59 58/58/58
f 60/60/60 62/62/62 61/61/61
f 60/60/60 63/63/63 62/62/62
f 64/64/64 66/66/66 65/65/65
f 64/64/64 67/67/67 66/66/66
f 68/68/68 70/70/70 69/69/69
f 68/68/68 71/71/71 70/70/70
f 72/72/72 74/74/74 73/73/73
f 72/72/72 75/75/75 74/74/74
f 76/76/76 78/78/78 77/77/77
f 76/76/76 79/79/79 78/78/78
f 80/80/80 82/82/82 81/81/81
f 80/80/80 83/83/83 82/82/82
f 84/84/84 86/86/86 85/85/85
f 84/84/84 87/87/87 86/86/86
f 88/88/88 90/90/90 89/89/89
f 88/88/88 91/91/91 90/90/90
f 92/92/92 94/94/94 93/93/93
f 92/92/92 95/95/95 94/94/94
f 96/96/96 98/98/98 97/97/97
f 96/96/96 99/99/99 98/98/98
f 100/100/100 102/102/102 101/101/101
f 100/100/100 103/103/103 102/102/102
f 104/104/104 106/106/106 105/105/105
f 104/104/104 107/107/107 106/106/106
f 108/108/108 110/110/110 109/109/109
f 108/108/108 111/111/111 110/110/110
f 112/112/112 114/114/114 113/113/113
f 112/112/112 115/115/115 114/114/114
f 116/116/116 118/118/118 117/117/117
f 116/116/116 119/119/119 118/118/118
f 120/120/120 122/122/122 121/121/121
f 120/120/120 123/123/123 122/122/122
f 124/124/124 126/126/126 125/125/125
f 124/124/124 127/127/127 126/126/126
f 128/128/128 130/130/130 129/129/129
f 128/128/128 131/131/131 130/130/130
f 132/132/132 134/134/134 133/133/133
f 132/132/132 135/135/135 134/134/134
f 136/136/136 138/138/138 137/137/137
f 136/136/136 139/139/139 138/138/138
f 140/140/140 142/142/142 141/141/141
f 140/140/140 143/143/143 142/142/142
f 144/144/144 146/146/146 145/145/145
f 144/144/144 147/147/147 146/146/146
f 148/148/148 150/150/150 149/149/149
f 148/148/148 151/151/151 150/150/150
f 152/152/152 154/154/154 153/153/153
f 152/152/152 155/155/155 154/154/154
f 156/156/156 158/158/158 157/157/157
f 156/156/156 159/159/159 158/158/158
f 160/160/160 162/162/162 161/161/161
f 160/160/160 163/163/163 162/162/162
f 164/164/164 166/166/166 165/165/165
f 164/164/164 167/167/167 166/166/166
f 168/168/168 170/170/170 169/169/169
f 168/168/168 171/171/171 170/170/170
f 172/172/172 174/174/174 173/173/173
f 175/175/175 177/177/177 176/176/176
f 178/178/178 180/180/180 179/179/179
f 181/181/181 183/183/183 182/182/182
f 184/184/184 186/186/186 185/185/185
f 187/187/187 189/189/189 188/188/188
f 190/190/190 192/192/192 191/191/191
f 193/193/193 195/195/195 194/194/194
f 196/196/196 198/198/198 197/197/197
f 199/199/199 201/201/201 200/200/200
