#pCylinder8_17_3732_153.obj

v 0.01454445 -0.02577564 -0.04035997
v 0.004622871 -0.03397598 0.0010896
v 0.03878356 -0.02577564 -0.02105653
v -0.009664189 -0.02577564 -0.03817697
v -0.01825163 -0.02577564 -0.01778206
v -0.03822298 -0.0222321 0.001089749
v -0.02135162 -0.02577564 0.01996163
v -0.005298448 -0.02577564 0.03271635
v 0.02109305 -0.02577564 0.04035639
v 0.0305976 -0.02577564 0.0199614
v 0.0321885 -0.0222321 0.001089626
v 0.03878356 -0.02577564 -0.02105653
v 0.04796605 -0.0148924 -0.02772782
v 0.01805184 -0.0148924 -0.05115445
v 0.01454445 -0.02577564 -0.04035997
v 0.01454445 -0.02577564 -0.04035997
v 0.01805184 -0.0148924 -0.05115445
v -0.01317174 -0.0148924 -0.04897167
v -0.009664189 -0.02577564 -0.03817697
v -0.009664189 -0.02577564 -0.03817697
v -0.01317174 -0.0148924 -0.04897167
v -0.0274343 -0.0148924 -0.02445371
v -0.01825163 -0.02577564 -0.01778206
v -0.01825163 -0.02577564 -0.01778206
v -0.0274343 -0.0148924 -0.02445371
v -0.04796775 -0.01288817 0.001089785
v -0.03822298 -0.0222321 0.001089749
v -0.03822298 -0.0222321 0.001089749
v -0.04796775 -0.01288817 0.001089785
v -0.03053413 -0.0148924 0.02663293
v -0.02135162 -0.02577564 0.01996163
v -0.02135162 -0.02577564 0.01996163
v -0.03053413 -0.0148924 0.02663293
v -0.008805821 -0.0148924 0.04351082
v -0.005298448 -0.02577564 0.03271635
v -0.005298448 -0.02577564 0.03271635
v -0.008805821 -0.0148924 0.04351082
v 0.02460061 -0.0148924 0.05115108
v 0.02109305 -0.02577564 0.04035639
v 0.02109305 -0.02577564 0.04035639
v 0.02460061 -0.0148924 0.05115108
v 0.03978026 -0.0148924 0.02663307
v 0.0305976 -0.02577564 0.0199614
v 0.0305976 -0.02577564 0.0199614
v 0.03978026 -0.0148924 0.02663307
v 0.04193328 -0.01288817 0.001089583
v 0.0321885 -0.0222321 0.001089626
v 0.0321885 -0.0222321 0.001089626
v 0.04193328 -0.01288817 0.001089583
v 0.04796605 -0.0148924 -0.02772782
v 0.03878356 -0.02577564 -0.02105653
v 0.04796605 -0.0148924 -0.02772782
v 0.04796605 -0.0001482146 -0.02772782
v 0.01805183 -0.0001482146 -0.05115445
v 0.01805184 -0.0148924 -0.05115445
v 0.01805184 -0.0148924 -0.05115445
v 0.01805183 -0.0001482146 -0.05115445
v -0.01317174 -0.0001482146 -0.04897167
v -0.01317174 -0.0148924 -0.04897167
v -0.01317174 -0.0148924 -0.04897167
v -0.01317174 -0.0001482146 -0.04897167
v -0.0274343 -0.0001482146 -0.02445371
v -0.0274343 -0.0148924 -0.02445371
v -0.0274343 -0.0148924 -0.02445371
v -0.0274343 -0.0001482146 -0.02445371
v -0.04796775 -0.0002293317 0.001089785
v -0.04796775 -0.01288817 0.001089785
v -0.04796775 -0.01288817 0.001089785
v -0.04796775 -0.0002293317 0.001089785
v -0.03053413 -0.0001482146 0.02663293
v -0.03053413 -0.0148924 0.02663293
v -0.03053413 -0.0148924 0.02663293
v -0.03053413 -0.0001482146 0.02663293
v -0.008805821 -0.0001482146 0.04351082
v -0.008805821 -0.0148924 0.04351082
v -0.008805821 -0.0148924 0.04351082
v -0.008805821 -0.0001482146 0.04351082
v 0.02460061 -0.0001482146 0.05115108
v 0.02460061 -0.0148924 0.05115108
v 0.02460061 -0.0148924 0.05115108
v 0.02460061 -0.0001482146 0.05115108
v 0.03978026 -0.0001482146 0.02663307
v 0.03978026 -0.0148924 0.02663307
v 0.03978026 -0.0148924 0.02663307
v 0.03978026 -0.0001482146 0.02663307
v 0.04193328 -0.0002293317 0.001089583
v 0.04193328 -0.01288817 0.001089583
v 0.04193328 -0.01288817 0.001089583
v 0.04193328 -0.0002293317 0.001089583
v 0.04796605 -0.0001482146 -0.02772782
v 0.04796605 -0.0148924 -0.02772782
v 0.04796605 -0.0001482146 -0.02772782
v 0.045688 0.01428342 -0.02539857
v 0.01714429 0.01428342 -0.04799294
v 0.01805183 -0.0001482146 -0.05115445
v 0.01805183 -0.0001482146 -0.05115445
v 0.01714429 0.01428342 -0.04799294
v -0.01183009 0.01428342 -0.04559947
v -0.01317174 -0.0001482146 -0.04897167
v -0.01317174 -0.0001482146 -0.04897167
v -0.01183009 0.01428342 -0.04559947
v -0.02321137 0.01428342 -0.02180832
v -0.0274343 -0.0001482146 -0.02445371
v -0.0274343 -0.0001482146 -0.02445371
v -0.02321137 0.01428342 -0.02180832
v -0.04530494 0.0119721 0.001195116
v -0.04796775 -0.0002293317 0.001089785
v -0.04796775 -0.0002293317 0.001089785
v -0.04530494 0.0119721 0.001195116
v -0.02661069 0.01428342 0.02419806
v -0.03053413 -0.0001482146 0.02663293
v -0.03053413 -0.0001482146 0.02663293
v -0.02661069 0.01428342 0.02419806
v -0.007042612 0.01428342 0.03961198
v -0.008805821 -0.0001482146 0.04351082
v -0.008805821 -0.0001482146 0.04351082
v -0.007042612 0.01428342 0.03961198
v 0.02432489 0.01428342 0.04798931
v 0.02460061 -0.0001482146 0.05115108
v 0.02460061 -0.0001482146 0.05115108
v 0.02432489 0.01428342 0.04798931
v 0.03671181 0.01428342 0.02419812
v 0.03978026 -0.0001482146 0.02663307
v 0.03978026 -0.0001482146 0.02663307
v 0.03671181 0.01428342 0.02419812
v 0.03865102 0.0119721 0.001194975
v 0.04193328 -0.0002293317 0.001089583
v 0.04193328 -0.0002293317 0.001089583
v 0.03865102 0.0119721 0.001194975
v 0.045688 0.01428342 -0.02539857
v 0.04796605 -0.0001482146 -0.02772782
v 0.045688 0.01428342 -0.02539857
v 0.03225144 0.02437449 -0.01614955
v 0.01203567 0.02437449 -0.03257028
v 0.01714429 0.01428342 -0.04799294
v 0.01714429 0.01428342 -0.04799294
v 0.01203567 0.02437449 -0.03257028
v -0.002593288 0.02437449 -0.02139571
v -0.01183009 0.01428342 -0.04559947
v -0.01183009 0.01428342 -0.04559947
v -0.002593288 0.02437449 -0.02139571
v -0.01125418 0.02437449 -0.01279713
v -0.02321137 0.01428342 -0.02180832
v -0.02321137 0.01428342 -0.02180832
v -0.01125418 0.02437449 -0.01279713
v -0.03124577 0.02074659 0.00111559
v -0.04530494 0.0119721 0.001195116
v -0.04530494 0.0119721 0.001195116
v -0.03124577 0.02074659 0.00111559
v -0.01442793 0.02437449 0.01502855
v -0.02661069 0.01428342 0.02419806
v -0.02661069 0.01428342 0.02419806
v -0.01442793 0.02437449 0.01502855
v -0.002593159 0.02437449 0.02474445
v -0.007042612 0.01428342 0.03961198
v -0.007042612 0.01428342 0.03961198
v -0.002593159 0.02437449 0.02474445
v 0.01874026 0.02437449 0.03256668
v 0.02432489 0.01428342 0.04798931
v 0.02432489 0.01428342 0.04798931
v 0.01874026 0.02437449 0.03256668
v 0.02387061 0.02437449 0.01502862
v 0.03671181 0.01428342 0.02419812
v 0.03671181 0.01428342 0.02419812
v 0.02387061 0.02437449 0.01502862
v 0.02504329 0.02074659 0.00111573
v 0.03865102 0.0119721 0.001194975
v 0.03865102 0.0119721 0.001194975
v 0.02504329 0.02074659 0.00111573
v 0.03225144 0.02437449 -0.01614955
v 0.045688 0.01428342 -0.02539857
v 0.03225144 0.02437449 -0.01614955
v 0.004622878 0.03397604 0.001089594
v 0.01203567 0.02437449 -0.03257028
v 0.01203567 0.02437449 -0.03257028
v 0.004622878 0.03397604 0.001089594
v -0.002593288 0.02437449 -0.02139571
v -0.002593288 0.02437449 -0.02139571
v 0.004622878 0.03397604 0.001089594
v -0.01125418 0.02437449 -0.01279713
v -0.01125418 0.02437449 -0.01279713
v 0.004622878 0.03397604 0.001089594
v -0.03124577 0.02074659 0.00111559
v -0.03124577 0.02074659 0.00111559
v 0.004622878 0.03397604 0.001089594
v -0.01442793 0.02437449 0.01502855
v -0.01442793 0.02437449 0.01502855
v 0.004622878 0.03397604 0.001089594
v -0.002593159 0.02437449 0.02474445
v -0.002593159 0.02437449 0.02474445
v 0.004622878 0.03397604 0.001089594
v 0.01874026 0.02437449 0.03256668
v 0.01874026 0.02437449 0.03256668
v 0.004622878 0.03397604 0.001089594
v 0.02387061 0.02437449 0.01502862
v 0.02387061 0.02437449 0.01502862
v 0.004622878 0.03397604 0.001089594
v 0.02504329 0.02074659 0.00111573
v 0.02504329 0.02074659 0.00111573
v 0.004622878 0.03397604 0.001089594
v 0.03225144 0.02437449 -0.01614955

vn -0.08380315 -0.9818565 -0.1700997
vn 0.001179376 -0.9999982 -0.001184651
vn 0.1027878 -0.9784297 -0.1791904
vn -0.1822491 -0.9810984 -0.06504028
vn -0.2567835 -0.9602382 0.1095626
vn -0.2006349 -0.9642731 0.1729801
vn -0.08308776 -0.9679796 0.2368778
vn 0.08386978 -0.970319 0.2268169
vn 0.1685312 -0.9818347 0.08716111
vn 0.220158 -0.9585599 -0.1808104
vn 0.3474087 -0.9154217 -0.2032473
vn -0.07877174 -0.703926 -0.7058915
vn -0.07877177 -0.703926 -0.7058915
vn -0.07877171 -0.703926 -0.7058915
vn -0.07877177 -0.703926 -0.7058915
vn -0.5378503 -0.7031067 -0.4651423
vn -0.5378503 -0.7031068 -0.4651423
vn -0.5378503 -0.7031067 -0.4651423
vn -0.5378503 -0.7031068 -0.4651423
vn -0.7140347 -0.6620906 0.2275742
vn -0.7140347 -0.6620905 0.2275742
vn -0.7140347 -0.6620906 0.2275742
vn -0.7140347 -0.6620905 0.2275743
vn -0.7213691 -0.6863981 0.09210667
vn -0.7213693 -0.6863981 0.09210673
vn -0.7213692 -0.6863981 0.0921067
vn -0.7213691 -0.6863981 0.09210676
vn -0.1636689 -0.6953633 0.6997726
vn -0.1636689 -0.6953633 0.6997726
vn -0.1636689 -0.6953633 0.6997726
vn -0.1636689 -0.6953633 0.6997726
vn 0.08083442 -0.7039658 0.7056184
vn 0.08083436 -0.7039658 0.7056184
vn 0.08083436 -0.7039658 0.7056184
vn 0.08083439 -0.7039658 0.7056183
vn 0.3638781 -0.6928934 0.6224875
vn 0.3638781 -0.6928935 0.6224875
vn 0.3638782 -0.6928935 0.6224875
vn 0.3638781 -0.6928934 0.6224875
vn 0.7159598 -0.6678944 -0.2032687
vn 0.7159598 -0.6678944 -0.2032687
vn 0.7159598 -0.6678944 -0.2032687
vn 0.7159599 -0.6678944 -0.2032688
vn 0.5059366 -0.6790238 -0.5319345
vn 0.5059366 -0.6790239 -0.5319345
vn 0.5059366 -0.6790238 -0.5319345
vn 0.5059366 -0.6790238 -0.5319345
vn 0.7083635 -0.6155775 -0.3453765
vn 0.7083636 -0.6155774 -0.3453766
vn 0.7083635 -0.6155775 -0.3453765
vn 0.7083635 -0.6155775 -0.3453765
vn -0.1145456 8.924298E-17 -0.9934179
vn -0.1145456 8.924297E-17 -0.993418
vn -0.1145456 8.924297E-17 -0.993418
vn -0.1145456 8.924298E-17 -0.9934179
vn -0.7505964 3.197867E-16 -0.6607609
vn -0.7505964 3.197867E-16 -0.6607609
vn -0.7505964 3.197867E-16 -0.6607609
vn -0.7505964 3.197867E-16 -0.6607609
vn -0.9683399 3.626213E-16 0.2496349
vn -0.9683399 3.626213E-16 0.2496349
vn -0.9683399 3.626213E-16 0.2496349
vn -0.9683399 3.626213E-16 0.2496349
vn -0.9947963 3.79532E-16 0.101884
vn -0.9947963 3.79532E-16 0.101884
vn -0.9947963 3.79532E-16 0.101884
vn -0.9947963 3.79532E-16 0.101884
vn -0.1915444 2.94967E-17 0.9814838
vn -0.1915444 2.94967E-17 0.9814838
vn -0.1915443 2.949668E-17 0.9814839
vn -0.1915444 2.94967E-17 0.9814838
vn 0.1184717 -9.073819E-17 0.9929574
vn 0.1184717 -9.073819E-17 0.9929574
vn 0.1184717 -9.073819E-17 0.9929574
vn 0.1184717 -9.073819E-17 0.9929574
vn 0.5263716 -2.417862E-16 0.8502545
vn 0.5263716 -2.417862E-16 0.8502545
vn 0.5263716 -2.417862E-16 0.8502545
vn 0.5263716 -2.417862E-16 0.8502545
vn 0.9748372 -3.663407E-16 -0.222918
vn 0.9748372 -3.663407E-16 -0.222918
vn 0.9748372 -3.663407E-16 -0.222918
vn 0.9748372 -3.663407E-16 -0.222918
vn 0.7680128 -2.675569E-16 -0.6404344
vn 0.7680128 -2.675569E-16 -0.6404344
vn 0.7680128 -2.675569E-16 -0.6404344
vn 0.7680128 -2.675569E-16 -0.6404344
vn 0.8403829 -2.999634E-16 -0.5419929
vn 0.8403829 -2.999634E-16 -0.5419929
vn 0.8403829 -2.999634E-16 -0.5419929
vn 0.8403829 -2.999634E-16 -0.5419929
vn -0.109447 0.212757 -0.9709561
vn -0.109447 0.212757 -0.9709561
vn -0.109447 0.212757 -0.9709561
vn -0.109447 0.212757 -0.9709561
vn -0.7359014 0.2212333 -0.6399255
vn -0.7359015 0.2212333 -0.6399255
vn -0.7359015 0.2212333 -0.6399255
vn -0.7359015 0.2212333 -0.6399255
vn -0.9252497 0.2588965 0.2772823
vn -0.9252497 0.2588965 0.2772823
vn -0.9252497 0.2588965 0.2772822
vn -0.9252497 0.2588965 0.2772823
vn -0.9647796 0.2546348 0.06604084
vn -0.9647796 0.2546348 0.06604078
vn -0.9647796 0.2546347 0.06604084
vn -0.9647795 0.2546348 0.0660409
vn -0.1562257 0.2437819 0.9571645
vn -0.1562257 0.2437819 0.9571645
vn -0.1562257 0.2437819 0.9571645
vn -0.1562257 0.2437819 0.9571645
vn 0.1105833 0.2822602 0.952943
vn 0.1105832 0.2822602 0.952943
vn 0.1105832 0.2822602 0.952943
vn 0.1105832 0.2822602 0.952943
vn 0.4960898 0.2423859 0.8337528
vn 0.4960898 0.2423859 0.8337528
vn 0.4960898 0.2423859 0.8337528
vn 0.4960898 0.2423859 0.8337528
vn 0.9480611 0.1930068 -0.2528404
vn 0.9480611 0.1930068 -0.2528404
vn 0.9480611 0.1930069 -0.2528403
vn 0.9480611 0.1930069 -0.2528404
vn 0.73859 0.2371581 -0.631063
vn 0.7385901 0.2371581 -0.6310631
vn 0.7385901 0.2371581 -0.6310631
vn 0.7385901 0.237158 -0.6310631
vn 0.8440106 0.178262 -0.5058346
vn 0.8440106 0.178262 -0.5058346
vn 0.8440106 0.178262 -0.5058346
vn 0.8440106 0.178262 -0.5058346
vn -0.05701183 0.8368363 -0.5444757
vn -0.05701189 0.8368363 -0.5444757
vn -0.05701183 0.8368363 -0.5444757
vn -0.05701189 0.8368363 -0.5444757
vn -0.4050085 0.8884321 -0.2159994
vn -0.4050085 0.8884321 -0.2159994
vn -0.4050085 0.8884321 -0.2159994
vn -0.4050084 0.8884321 -0.2159994
vn -0.4817606 0.8693342 0.1102907
vn -0.4817606 0.8693342 0.1102906
vn -0.4817606 0.8693342 0.1102907
vn -0.4817606 0.8693342 0.1102906
vn -0.5918353 0.8049012 0.04317892
vn -0.5918353 0.8049012 0.04317892
vn -0.5918353 0.8049012 0.04317892
vn -0.5918353 0.8049012 0.04317892
vn -0.1093837 0.8185277 0.5639564
vn -0.1093837 0.8185278 0.5639564
vn -0.1093837 0.8185277 0.5639565
vn -0.1093837 0.8185277 0.5639564
vn 0.05923831 0.8222617 0.5660176
vn 0.05923828 0.8222616 0.5660176
vn 0.05923831 0.8222616 0.5660176
vn 0.05923828 0.8222616 0.5660176
vn 0.2666054 0.8172351 0.5109282
vn 0.2666054 0.8172351 0.5109282
vn 0.2666054 0.8172351 0.5109282
vn 0.2666054 0.8172351 0.5109282
vn 0.5622156 0.796234 -0.2234378
vn 0.5622156 0.796234 -0.2234378
vn 0.5622156 0.796234 -0.2234378
vn 0.5622156 0.796234 -0.2234378
vn 0.3697666 0.7985129 -0.4750255
vn 0.3697665 0.7985129 -0.4750254
vn 0.3697665 0.7985129 -0.4750254
vn 0.3697666 0.7985129 -0.4750254
vn 0.6448562 0.7325383 -0.2180538
vn 0.6448562 0.7325383 -0.2180539
vn 0.6448562 0.7325383 -0.2180538
vn 0.6448562 0.7325383 -0.2180538
vn -0.02881847 0.9546865 -0.2962134
vn -0.02881852 0.9546865 -0.2962134
vn -0.02881847 0.9546865 -0.2962134
vn -0.3923975 0.9181486 -0.05501516
vn -0.3923975 0.9181486 -0.05501519
vn -0.3923975 0.9181486 -0.05501519
vn -0.4151312 0.909752 -0.004086047
vn -0.4151312 0.909752 -0.004086077
vn -0.4151312 0.909752 -0.004086033
vn -0.4110598 0.9095348 0.06144606
vn -0.4110599 0.9095348 0.06144609
vn -0.4110599 0.9095348 0.06144609
vn -0.1223881 0.9244464 0.3611361
vn -0.122388 0.9244464 0.361136
vn -0.1223881 0.9244464 0.3611361
vn 0.0354861 0.921985 0.385595
vn 0.03548609 0.9219851 0.385595
vn 0.03548609 0.9219851 0.385595
vn 0.1503246 0.9320197 0.329759
vn 0.1503246 0.9320197 0.329759
vn 0.1503246 0.9320197 0.329759
vn 0.3469374 0.9190344 -0.1871082
vn 0.3469374 0.9190344 -0.1871082
vn 0.3469374 0.9190343 -0.1871082
vn 0.2615431 0.8268817 -0.4978565
vn 0.2615431 0.8268817 -0.4978565
vn 0.2615431 0.8268818 -0.4978565
vn 0.6213505 0.778574 -0.08800808
vn 0.6213505 0.778574 -0.08800802
vn 0.6213505 0.778574 -0.08800808

vt 0.5482839 0.007647395
vt 0.5 0.15
vt 0.6264089 0.06440853
vt 0.4517161 0.00764741
vt 0.3735911 0.06440856
vt 0.34375 0.15625
vt 0.3735911 0.2480915
vt 0.4517161 0.3048526
vt 0.5482839 0.3048526
vt 0.6264089 0.2480914
vt 0.65625 0.15625
vt 0 0
vt 0 1
vt 1 1
vt 1 0
vt 0 0
vt 0 1
vt 1 1
vt 1 0
vt 0 0
vt 0 1
vt 1 1
vt 1 0
vt 0 0
vt 0 1
vt 1 1
vt 1 0
vt 0 0
vt 0 1
vt 1 1
vt 1 0
vt 0 0
vt 0 1
vt 1 1
vt 1 0
vt 0 0
vt 0 1
vt 1 1
vt 1 0
vt 0 0
vt 0 1
vt 1 1
vt 1 0
vt 0 0
vt 0 1
vt 1 1
vt 1 0
vt 0 0
vt 0 1
vt 1 1
vt 1 0
vt 0 0
vt 0 1
vt 1 1
vt 1 0
vt 0 0
vt 0 1
vt 1 1
vt 1 0
vt 0 0
vt 0 1
vt 1 1
vt 1 0
vt 0 0
vt 0 1
vt 1 1
vt 1 0
vt 0 0
vt 0 1
vt 1 1
vt 1 0
vt 0 0
vt 0 1
vt 1 1
vt 1 0
vt 0 0
vt 0 1
vt 1 1
vt 1 0
vt 0 0
vt 0 1
vt 1 1
vt 1 0
vt 0 0
vt 0 1
vt 1 1
vt 1 0
vt 0 0
vt 0 1
vt 1 1
vt 1 0
vt 0 0
vt 0 1
vt 1 1
vt 1 0
vt 0 0
vt 0 1
vt 1 1
vt 1 0
vt 0 0
vt 0 1
vt 1 1
vt 1 0
vt 0 0
vt 0 1
vt 1 1
vt 1 0
vt 0 0
vt 0 1
vt 1 1
vt 1 0
vt 0 0
vt 0 1
vt 1 1
vt 1 0
vt 0 0
vt 0 1
vt 1 1
vt 1 0
vt 0 0
vt 0 1
vt 1 1
vt 1 0
vt 0 0
vt 0 1
vt 1 1
vt 1 0
vt 0 0
vt 0 1
vt 1 1
vt 1 0
vt 0 0
vt 0 1
vt 1 1
vt 1 0
vt 0 0
vt 0 1
vt 1 1
vt 1 0
vt 0 0
vt 0 1
vt 1 1
vt 1 0
vt 0 0
vt 0 1
vt 1 1
vt 1 0
vt 0 0
vt 0 1
vt 1 1
vt 1 0
vt 0 0
vt 0 1
vt 1 1
vt 1 0
vt 0 0
vt 0 1
vt 1 1
vt 1 0
vt 0 0
vt 0 1
vt 1 1
vt 1 0
vt 0 0
vt 0 1
vt 1 1
vt 1 0
vt 0 0
vt 0 1
vt 1 1
vt 1 0
vt 0 0
vt 0.5 1
vt 1 0
vt 0 0
vt 0.5 1
vt 1 0
vt 0 0
vt 0.5 1
vt 1 0
vt 0 0
vt 0.5 1
vt 1 0
vt 0 0
vt 0.5 1
vt 1 0
vt 0 0
vt 0.5 1
vt 1 0
vt 0 0
vt 0.5 1
vt 1 0
vt 0 0
vt 0.5 1
vt 1 0
vt 0 0
vt 0.5 1
vt 1 0
vt 0 0
vt 0.5 1
vt 1 0

g pCylinder8_17_3732_153
usemtl pCylinder8_17_3732_153
usemap pCylinder8_17_3732_153
f 1/1/1 3/3/3 2/2/2
f 4/4/4 1/1/1 2/2/2
f 5/5/5 4/4/4 2/2/2
f 6/6/6 5/5/5 2/2/2
f 7/7/7 6/6/6 2/2/2
f 8/8/8 7/7/7 2/2/2
f 9/9/9 8/8/8 2/2/2
f 10/10/10 9/9/9 2/2/2
f 11/11/11 10/10/10 2/2/2
f 3/3/3 11/11/11 2/2/2
f 12/12/12 14/14/14 13/13/13
f 12/12/12 15/15/15 14/14/14
f 16/16/16 18/18/18 17/17/17
f 16/16/16 19/19/19 18/18/18
f 20/20/20 22/22/22 21/21/21
f 20/20/20 23/23/23 22/22/22
f 24/24/24 26/26/26 25/25/25
f 24/24/24 27/27/27 26/26/26
f 28/28/28 30/30/30 29/29/29
f 28/28/28 31/31/31 30/30/30
f 32/32/32 34/34/34 33/33/33
f 32/32/32 35/35/35 34/34/34
f 36/36/36 38/38/38 37/37/37
f 36/36/36 39/39/39 38/38/38
f 40/40/40 42/42/42 41/41/41
f 40/40/40 43/43/43 42/42/42
f 44/44/44 46/46/46 45/45/45
f 44/44/44 47/47/47 46/46/46
f 48/48/48 50/50/50 49/49/49
f 48/48/48 51/51/51 50/50/50
f 52/52/52 54/54/54 53/53/53
f 52/52/52 55/55/55 54/54/54
f 56/56/56 58/58/58 57/57/57
f 56/56/56 59/59/59 58/58/58
f 60/60/60 62/62/62 61/61/61
f 60/60/60 63/63/63 62/62/62
f 64/64/64 66/66/66 65/65/65
f 64/64/64 67/67/67 66/66/66
f 68/68/68 70/70/70 69/69/69
f 68/68/68 71/71/71 70/70/70
f 72/72/72 74/74/74 73/73/73
f 72/72/72 75/75/75 74/74/74
f 76/76/76 78/78/78 77/77/77
f 76/76/76 79/79/79 78/78/78
f 80/80/80 82/82/82 81/81/81
f 80/80/80 83/83/83 82/82/82
f 84/84/84 86/86/86 85/85/85
f 84/84/84 87/87/87 86/86/86
f 88/88/88 90/90/90 89/89/89
f 88/88/88 91/91/91 90/90/90
f 92/92/92 94/94/94 93/93/93
f 92/92/92 95/95/95 94/94/94
f 96/96/96 98/98/98 97/97/97
f 96/96/96 99/99/99 98/98/98
f 100/100/100 102/102/102 101/101/101
f 100/100/100 103/103/103 102/102/102
f 104/104/104 106/106/106 105/105/105
f 104/104/104 107/107/107 106/106/106
f 108/108/108 110/110/110 109/109/109
f 108/108/108 111/111/111 110/110/110
f 112/112/112 114/114/114 113/113/113
f 112/112/112 115/115/115 114/114/114
f 116/116/116 118/118/118 117/117/117
f 116/116/116 119/119/119 118/118/118
f 120/120/120 122/122/122 121/121/121
f 120/120/120 123/123/123 122/122/122
f 124/124/124 126/126/126 125/125/125
f 124/124/124 127/127/127 126/126/126
f 128/128/128 130/130/130 129/129/129
f 128/128/128 131/131/131 130/130/130
f 132/132/132 134/134/134 133/133/133
f 132/132/132 135/135/135 134/134/134
f 136/136/136 138/138/138 137/137/137
f 136/136/136 139/139/139 138/138/138
f 140/140/140 142/142/142 141/141/141
f 140/140/140 143/143/143 142/142/142
f 144/144/144 146/146/146 145/145/145
f 144/144/144 147/147/147 146/146/146
f 148/148/148 150/150/150 149/149/149
f 148/148/148 151/151/151 150/150/150
f 152/152/152 154/154/154 153/153/153
f 152/152/152 155/155/155 154/154/154
f 156/156/156 158/158/158 157/157/157
f 156/156/156 159/159/159 158/158/158
f 160/160/160 162/162/162 161/161/161
f 160/160/160 163/163/163 162/162/162
f 164/164/164 166/166/166 165/165/165
f 164/164/164 167/167/167 166/166/166
f 168/168/168 170/170/170 169/169/169
f 168/168/168 171/171/171 170/170/170
f 172/172/172 174/174/174 173/173/173
f 175/175/175 177/177/177 176/176/176
f 178/178/178 180/180/180 179/179/179
f 181/181/181 183/183/183 182/182/182
f 184/184/184 186/186/186 185/185/185
f 187/187/187 189/189/189 188/188/188
f 190/190/190 192/192/192 191/191/191
f 193/193/193 195/195/195 194/194/194
f 196/196/196 198/198/198 197/197/197
f 199/199/199 201/201/201 200/200/200
