#pCylinder7_23_3534_167.obj

v 0.01454386 -0.02577562 -0.04035581
v 0.004622328 -0.03397603 0.001094011
v 0.03878298 -0.02577562 -0.02105226
v -0.009664888 -0.02577562 -0.03817287
v -0.01825241 -0.02577562 -0.01777764
v -0.03822361 -0.02223216 0.00109412
v -0.0213526 -0.02577562 0.01996599
v -0.005299249 -0.02577562 0.03272071
v 0.02109247 -0.02577562 0.04036105
v 0.03059676 -0.02577562 0.01996608
v 0.03218787 -0.02223216 0.001094306
v 0.03878298 -0.02577562 -0.02105226
v 0.04796538 -0.01489234 -0.02772362
v 0.01805129 -0.01489234 -0.05115025
v 0.01454386 -0.02577562 -0.04035581
v 0.01454386 -0.02577562 -0.04035581
v 0.01805129 -0.01489234 -0.05115025
v -0.01317234 -0.01489234 -0.04896746
v -0.009664888 -0.02577562 -0.03817287
v -0.009664888 -0.02577562 -0.03817287
v -0.01317234 -0.01489234 -0.04896746
v -0.02743475 -0.01489234 -0.02444923
v -0.01825241 -0.02577562 -0.01777764
v -0.01825241 -0.02577562 -0.01777764
v -0.02743475 -0.01489234 -0.02444923
v -0.04796845 -0.01288812 0.001094015
v -0.03822361 -0.02223216 0.00109412
v -0.03822361 -0.02223216 0.00109412
v -0.04796845 -0.01288812 0.001094015
v -0.03053499 -0.01489234 0.02663734
v -0.0213526 -0.02577562 0.01996599
v -0.0213526 -0.02577562 0.01996599
v -0.03053499 -0.01489234 0.02663734
v -0.008806432 -0.01489234 0.04351531
v -0.005299249 -0.02577562 0.03272071
v -0.005299249 -0.02577562 0.03272071
v -0.008806432 -0.01489234 0.04351531
v 0.02459967 -0.01489234 0.05115548
v 0.02109247 -0.02577562 0.04036105
v 0.02109247 -0.02577562 0.04036105
v 0.02459967 -0.01489234 0.05115548
v 0.03977943 -0.01489234 0.02663716
v 0.03059676 -0.02577562 0.01996608
v 0.03059676 -0.02577562 0.01996608
v 0.03977943 -0.01489234 0.02663716
v 0.04193247 -0.01288812 0.001094251
v 0.03218787 -0.02223216 0.001094306
v 0.03218787 -0.02223216 0.001094306
v 0.04193247 -0.01288812 0.001094251
v 0.04796538 -0.01489234 -0.02772362
v 0.03878298 -0.02577562 -0.02105226
v 0.04796538 -0.01489234 -0.02772362
v 0.04796538 -0.0001482794 -0.02772362
v 0.01805129 -0.0001482794 -0.05115025
v 0.01805129 -0.01489234 -0.05115025
v 0.01805129 -0.01489234 -0.05115025
v 0.01805129 -0.0001482794 -0.05115025
v -0.01317234 -0.0001482794 -0.04896746
v -0.01317234 -0.01489234 -0.04896746
v -0.01317234 -0.01489234 -0.04896746
v -0.01317234 -0.0001482794 -0.04896746
v -0.02743475 -0.0001482794 -0.02444923
v -0.02743475 -0.01489234 -0.02444923
v -0.02743475 -0.01489234 -0.02444923
v -0.02743475 -0.0001482794 -0.02444923
v -0.04796845 -0.0002293635 0.001094015
v -0.04796845 -0.01288812 0.001094015
v -0.04796845 -0.01288812 0.001094015
v -0.04796845 -0.0002293635 0.001094015
v -0.03053499 -0.0001482794 0.02663734
v -0.03053499 -0.01489234 0.02663734
v -0.03053499 -0.01489234 0.02663734
v -0.03053499 -0.0001482794 0.02663734
v -0.008806432 -0.0001482794 0.04351531
v -0.008806432 -0.01489234 0.04351531
v -0.008806432 -0.01489234 0.04351531
v -0.008806432 -0.0001482794 0.04351531
v 0.02459967 -0.0001482794 0.05115548
v 0.02459967 -0.01489234 0.05115548
v 0.02459967 -0.01489234 0.05115548
v 0.02459967 -0.0001482794 0.05115548
v 0.03977943 -0.0001482794 0.02663716
v 0.03977943 -0.01489234 0.02663716
v 0.03977943 -0.01489234 0.02663716
v 0.03977943 -0.0001482794 0.02663716
v 0.04193247 -0.0002293635 0.001094251
v 0.04193247 -0.01288812 0.001094251
v 0.04193247 -0.01288812 0.001094251
v 0.04193247 -0.0002293635 0.001094251
v 0.04796538 -0.0001482794 -0.02772362
v 0.04796538 -0.01489234 -0.02772362
v 0.04796538 -0.0001482794 -0.02772362
v 0.04568714 0.01428341 -0.02539392
v 0.01714365 0.01428341 -0.04798854
v 0.01805129 -0.0001482794 -0.05115025
v 0.01805129 -0.0001482794 -0.05115025
v 0.01714365 0.01428341 -0.04798854
v -0.01183088 0.01428341 -0.04559476
v -0.01317234 -0.0001482794 -0.04896746
v -0.01317234 -0.0001482794 -0.04896746
v -0.01183088 0.01428341 -0.04559476
v -0.02321169 0.01428341 -0.02180375
v -0.02743475 -0.0001482794 -0.02444923
v -0.02743475 -0.0001482794 -0.02444923
v -0.02321169 0.01428341 -0.02180375
v -0.04530572 0.01197214 0.00119943
v -0.04796845 -0.0002293635 0.001094015
v -0.04796845 -0.0002293635 0.001094015
v -0.04530572 0.01197214 0.00119943
v -0.02661091 0.01428341 0.02420249
v -0.03053499 -0.0001482794 0.02663734
v -0.03053499 -0.0001482794 0.02663734
v -0.02661091 0.01428341 0.02420249
v -0.007043396 0.01428341 0.03961611
v -0.008806432 -0.0001482794 0.04351531
v -0.008806432 -0.0001482794 0.04351531
v -0.007043396 0.01428341 0.03961611
v 0.02432425 0.01428341 0.04799392
v 0.02459967 -0.0001482794 0.05115548
v 0.02459967 -0.0001482794 0.05115548
v 0.02432425 0.01428341 0.04799392
v 0.03671115 0.01428341 0.02420291
v 0.03977943 -0.0001482794 0.02663716
v 0.03977943 -0.0001482794 0.02663716
v 0.03671115 0.01428341 0.02420291
v 0.0386504 0.01197214 0.001199552
v 0.04193247 -0.0002293635 0.001094251
v 0.04193247 -0.0002293635 0.001094251
v 0.0386504 0.01197214 0.001199552
v 0.04568714 0.01428341 -0.02539392
v 0.04796538 -0.0001482794 -0.02772362
v 0.04568714 0.01428341 -0.02539392
v 0.03225072 0.02437448 -0.0161449
v 0.01203495 0.02437448 -0.032566
v 0.01714365 0.01428341 -0.04798854
v 0.01714365 0.01428341 -0.04798854
v 0.01203495 0.02437448 -0.032566
v -0.002593925 0.02437448 -0.02139125
v -0.01183088 0.01428341 -0.04559476
v -0.01183088 0.01428341 -0.04559476
v -0.002593925 0.02437448 -0.02139125
v -0.01125474 0.02437448 -0.01279261
v -0.02321169 0.01428341 -0.02180375
v -0.02321169 0.01428341 -0.02180375
v -0.01125474 0.02437448 -0.01279261
v -0.03124625 0.02074657 0.001120121
v -0.04530572 0.01197214 0.00119943
v -0.04530572 0.01197214 0.00119943
v -0.03124625 0.02074657 0.001120121
v -0.0144286 0.02437448 0.01503263
v -0.02661091 0.01428341 0.02420249
v -0.02661091 0.01428341 0.02420249
v -0.0144286 0.02437448 0.01503263
v -0.002593959 0.02437448 0.02474913
v -0.007043396 0.01428341 0.03961611
v -0.007043396 0.01428341 0.03961611
v -0.002593959 0.02437448 0.02474913
v 0.01873955 0.02437448 0.0325715
v 0.02432425 0.01428341 0.04799392
v 0.02432425 0.01428341 0.04799392
v 0.01873955 0.02437448 0.0325715
v 0.02386961 0.02437448 0.01503282
v 0.03671115 0.01428341 0.02420291
v 0.03671115 0.01428341 0.02420291
v 0.02386961 0.02437448 0.01503282
v 0.02504265 0.02074657 0.001120192
v 0.0386504 0.01197214 0.001199552
v 0.0386504 0.01197214 0.001199552
v 0.02504265 0.02074657 0.001120192
v 0.03225072 0.02437448 -0.0161449
v 0.04568714 0.01428341 -0.02539392
v 0.03225072 0.02437448 -0.0161449
v 0.004622328 0.03397613 0.001094011
v 0.01203495 0.02437448 -0.032566
v 0.01203495 0.02437448 -0.032566
v 0.004622328 0.03397613 0.001094011
v -0.002593925 0.02437448 -0.02139125
v -0.002593925 0.02437448 -0.02139125
v 0.004622328 0.03397613 0.001094011
v -0.01125474 0.02437448 -0.01279261
v -0.01125474 0.02437448 -0.01279261
v 0.004622328 0.03397613 0.001094011
v -0.03124625 0.02074657 0.001120121
v -0.03124625 0.02074657 0.001120121
v 0.004622328 0.03397613 0.001094011
v -0.0144286 0.02437448 0.01503263
v -0.0144286 0.02437448 0.01503263
v 0.004622328 0.03397613 0.001094011
v -0.002593959 0.02437448 0.02474913
v -0.002593959 0.02437448 0.02474913
v 0.004622328 0.03397613 0.001094011
v 0.01873955 0.02437448 0.0325715
v 0.01873955 0.02437448 0.0325715
v 0.004622328 0.03397613 0.001094011
v 0.02386961 0.02437448 0.01503282
v 0.02386961 0.02437448 0.01503282
v 0.004622328 0.03397613 0.001094011
v 0.02504265 0.02074657 0.001120192
v 0.02504265 0.02074657 0.001120192
v 0.004622328 0.03397613 0.001094011
v 0.03225072 0.02437448 -0.0161449

vn 0.1841268 -0.9818568 -0.04532341
vn 0.0009037747 -0.9999984 0.001406243
vn 0.1529393 -0.9784299 0.1388672
vn 0.1026569 -0.9810987 -0.1640321
vn -0.05186866 -0.9602384 -0.2743199
vn -0.1258636 -0.9642733 -0.2330984
vn -0.2135113 -0.9679798 -0.1320137
vn -0.2395353 -0.9703192 0.03320978
vn -0.1213162 -0.9818349 0.1458842
vn 0.129319 -0.9585602 0.2538475
vn 0.1239084 -0.9154219 0.3829478
vn 0.7063405 -0.7039261 0.07463953
vn 0.7063404 -0.7039261 0.0746395
vn 0.7063404 -0.7039261 0.07463956
vn 0.7063404 -0.7039261 0.0746395
vn 0.5697834 -0.7031069 -0.425426
vn 0.5697834 -0.703107 -0.425426
vn 0.5697834 -0.7031069 -0.425426
vn 0.5697834 -0.7031069 -0.425426
vn -0.06894347 -0.6620907 -0.7462456
vn -0.06894347 -0.6620907 -0.7462456
vn -0.06894347 -0.6620907 -0.7462456
vn -0.0689435 -0.6620907 -0.7462456
vn 0.06493914 -0.6863983 -0.7243205
vn 0.06493908 -0.6863982 -0.7243206
vn 0.06493911 -0.6863982 -0.7243205
vn 0.06493905 -0.6863982 -0.7243205
vn -0.6483058 -0.6953635 -0.3101111
vn -0.6483058 -0.6953635 -0.3101111
vn -0.6483058 -0.6953635 -0.3101112
vn -0.6483058 -0.6953635 -0.3101112
vn -0.7065166 -0.703966 -0.0725663
vn -0.7065167 -0.703966 -0.07256639
vn -0.7065166 -0.703966 -0.07256636
vn -0.7065166 -0.703966 -0.07256633
vn -0.6861019 -0.6928936 0.2217257
vn -0.6861019 -0.6928937 0.2217256
vn -0.686102 -0.6928937 0.2217257
vn -0.6861019 -0.6928936 0.2217257
vn 0.04479152 -0.6678945 0.7429068
vn 0.04479149 -0.6678945 0.7429068
vn 0.04479149 -0.6678945 0.7429068
vn 0.04479155 -0.6678945 0.7429069
vn 0.4108886 -0.6790239 0.6083559
vn 0.4108886 -0.679024 0.6083559
vn 0.4108886 -0.6790239 0.6083559
vn 0.4108886 -0.6790239 0.6083559
vn 0.1852157 -0.6155777 0.7660021
vn 0.1852157 -0.6155776 0.7660021
vn 0.1852157 -0.6155777 0.7660021
vn 0.1852157 -0.6155776 0.7660021
vn 0.9948417 -9.525431E-17 0.1014397
vn 0.9948417 -9.525432E-17 0.1014398
vn 0.9948417 -9.525432E-17 0.1014398
vn 0.9948417 -9.525431E-17 0.1014397
vn 0.8065213 -1.954433E-17 -0.5912051
vn 0.8065213 -1.954433E-17 -0.5912051
vn 0.8065213 -1.954433E-17 -0.5912051
vn 0.8065213 -1.954433E-17 -0.5912051
vn -0.03588337 8.871468E-17 -0.999356
vn -0.03588337 8.871468E-17 -0.999356
vn -0.03588337 8.871468E-17 -0.999356
vn -0.03588337 8.871468E-17 -0.999356
vn 0.114102 7.515948E-17 -0.9934691
vn 0.114102 7.515948E-17 -0.9934691
vn 0.114102 7.515948E-17 -0.9934691
vn 0.114102 7.515948E-17 -0.9934691
vn -0.9174603 1.139058E-16 -0.3978274
vn -0.9174603 1.139058E-16 -0.3978274
vn -0.9174604 1.139058E-16 -0.3978273
vn -0.9174603 1.139058E-16 -0.3978274
vn -0.995235 9.495165E-17 -0.0975064
vn -0.995235 9.495165E-17 -0.0975064
vn -0.995235 9.495165E-17 -0.0975064
vn -0.995235 9.495165E-17 -0.0975064
vn -0.9434478 5.370027E-17 0.3315212
vn -0.9434478 5.370027E-17 0.3315212
vn -0.9434478 5.370027E-17 0.3315212
vn -0.9434478 5.370027E-17 0.3315212
vn 0.008394569 -8.637488E-17 0.9999649
vn 0.008394569 -8.637488E-17 0.9999649
vn 0.008394569 -8.637488E-17 0.9999649
vn 0.008394569 -8.637488E-17 0.9999649
vn 0.4605828 -1.160998E-16 0.8876168
vn 0.4605828 -1.160998E-16 0.8876168
vn 0.4605828 -1.160998E-16 0.8876168
vn 0.4605828 -1.160998E-16 0.8876168
vn 0.3488978 -1.106248E-16 0.9371608
vn 0.3488978 -1.106248E-16 0.9371608
vn 0.3488978 -1.106248E-16 0.9371608
vn 0.3488978 -1.106248E-16 0.9371608
vn 0.9718091 0.212757 0.1015962
vn 0.971809 0.212757 0.1015962
vn 0.971809 0.212757 0.1015962
vn 0.971809 0.212757 0.1015962
vn 0.7830166 0.2212333 -0.5813268
vn 0.7830166 0.2212333 -0.5813268
vn 0.7830166 0.2212333 -0.5813268
vn 0.7830166 0.2212333 -0.5813268
vn -0.07213849 0.2588966 -0.9632074
vn -0.07213852 0.2588966 -0.9632075
vn -0.07213846 0.2588966 -0.9632075
vn -0.07213849 0.2588965 -0.9632074
vn 0.1426637 0.2546348 -0.9564561
vn 0.1426637 0.2546348 -0.9564561
vn 0.1426637 0.2546348 -0.9564561
vn 0.1426637 0.2546348 -0.9564561
vn -0.9012921 0.2437819 -0.3581105
vn -0.9012921 0.243782 -0.3581105
vn -0.9012921 0.2437819 -0.3581105
vn -0.9012921 0.2437819 -0.3581105
vn -0.9544601 0.2822603 -0.09661862
vn -0.95446 0.2822603 -0.09661871
vn -0.9544601 0.2822603 -0.09661868
vn -0.9544601 0.2822603 -0.09661868
vn -0.9208287 0.242386 0.3054891
vn -0.9208287 0.242386 0.3054891
vn -0.9208287 0.242386 0.3054891
vn -0.9208287 0.242386 0.3054891
vn 0.04336852 0.1930069 0.9802386
vn 0.04336852 0.1930069 0.9802386
vn 0.04336846 0.1930069 0.9802385
vn 0.04336852 0.1930069 0.9802386
vn 0.4577479 0.2371581 0.8568681
vn 0.457748 0.2371581 0.8568681
vn 0.457748 0.2371581 0.8568681
vn 0.457748 0.2371581 0.8568681
vn 0.3128039 0.178262 0.9329396
vn 0.3128039 0.178262 0.9329396
vn 0.3128039 0.178262 0.9329396
vn 0.3128039 0.1782621 0.9329396
vn 0.5440174 0.8368366 0.06123155
vn 0.5440174 0.8368366 0.06123152
vn 0.5440174 0.8368366 0.06123155
vn 0.5440174 0.8368366 0.06123152
vn 0.2979272 0.8884323 -0.3491805
vn 0.2979272 0.8884323 -0.3491805
vn 0.2979272 0.8884323 -0.3491805
vn 0.2979273 0.8884323 -0.3491804
vn -0.00427112 0.8693344 -0.4942055
vn -0.004271105 0.8693344 -0.4942055
vn -0.00427112 0.8693344 -0.4942055
vn -0.004271105 0.8693344 -0.4942055
vn 0.08491118 0.8049014 -0.5873019
vn 0.08491118 0.8049014 -0.5873019
vn 0.08491118 0.8049014 -0.5873019
vn 0.08491118 0.8049014 -0.5873019
vn -0.5273141 0.8185279 -0.2279288
vn -0.5273141 0.818528 -0.2279288
vn -0.5273142 0.8185279 -0.2279288
vn -0.5273141 0.8185279 -0.2279288
vn -0.5655348 0.8222619 -0.06368263
vn -0.5655348 0.8222618 -0.06368265
vn -0.5655349 0.8222618 -0.06368262
vn -0.5655348 0.8222618 -0.06368265
vn -0.5562577 0.8172354 0.1506766
vn -0.5562577 0.8172354 0.1506766
vn -0.5562577 0.8172354 0.1506766
vn -0.5562577 0.8172354 0.1506766
vn 0.09750317 0.7962341 0.5970796
vn 0.09750319 0.7962341 0.5970796
vn 0.09750316 0.7962341 0.5970796
vn 0.09750319 0.7962341 0.5970796
vn 0.3845463 0.7985131 0.4631422
vn 0.3845463 0.7985131 0.4631421
vn 0.3845463 0.7985131 0.4631422
vn 0.3845463 0.7985131 0.4631422
vn 0.07449964 0.7325385 0.6766366
vn 0.07449967 0.7325385 0.6766365
vn 0.07449964 0.7325385 0.6766366
vn 0.07449964 0.7325385 0.6766366
vn 0.2954921 0.9546867 0.0354587
vn 0.2954921 0.9546867 0.03545867
vn 0.2954921 0.9546867 0.0354587
vn 0.1379902 0.9181488 -0.3714313
vn 0.1379902 0.9181488 -0.3714313
vn 0.1379902 0.9181488 -0.3714312
vn 0.09313054 0.9097522 -0.4045705
vn 0.09313057 0.9097522 -0.4045705
vn 0.09313053 0.9097522 -0.4045705
vn 0.0282528 0.9095349 -0.4146657
vn 0.0282528 0.9095349 -0.4146658
vn 0.0282528 0.9095349 -0.4146658
vn -0.3264323 0.9244466 -0.1970789
vn -0.3264323 0.9244466 -0.1970788
vn -0.3264323 0.9244466 -0.1970789
vn -0.3842205 0.9219852 -0.04813924
vn -0.3842205 0.9219853 -0.04813926
vn -0.3842205 0.9219853 -0.04813926
vn -0.3543459 0.9320198 0.07601003
vn -0.3543459 0.9320198 0.07601
vn -0.3543459 0.9320198 0.07601001
vn 0.108247 0.9190345 0.379022
vn 0.108247 0.9190345 0.379022
vn 0.108247 0.9190345 0.379022
vn 0.4300833 0.8268819 0.3623456
vn 0.4300833 0.8268819 0.3623456
vn 0.4300833 0.826882 0.3623456
vn -0.04746544 0.7785742 0.6257548
vn -0.0474655 0.7785742 0.6257547
vn -0.04746547 0.7785742 0.6257548

vt 0.5482839 0.007647395
vt 0.5 0.15
vt 0.6264089 0.06440853
vt 0.4517161 0.00764741
vt 0.3735911 0.06440856
vt 0.34375 0.15625
vt 0.3735911 0.2480915
vt 0.4517161 0.3048526
vt 0.5482839 0.3048526
vt 0.6264089 0.2480914
vt 0.65625 0.15625
vt 0 0
vt 0 1
vt 1 1
vt 1 0
vt 0 0
vt 0 1
vt 1 1
vt 1 0
vt 0 0
vt 0 1
vt 1 1
vt 1 0
vt 0 0
vt 0 1
vt 1 1
vt 1 0
vt 0 0
vt 0 1
vt 1 1
vt 1 0
vt 0 0
vt 0 1
vt 1 1
vt 1 0
vt 0 0
vt 0 1
vt 1 1
vt 1 0
vt 0 0
vt 0 1
vt 1 1
vt 1 0
vt 0 0
vt 0 1
vt 1 1
vt 1 0
vt 0 0
vt 0 1
vt 1 1
vt 1 0
vt 0 0
vt 0 1
vt 1 1
vt 1 0
vt 0 0
vt 0 1
vt 1 1
vt 1 0
vt 0 0
vt 0 1
vt 1 1
vt 1 0
vt 0 0
vt 0 1
vt 1 1
vt 1 0
vt 0 0
vt 0 1
vt 1 1
vt 1 0
vt 0 0
vt 0 1
vt 1 1
vt 1 0
vt 0 0
vt 0 1
vt 1 1
vt 1 0
vt 0 0
vt 0 1
vt 1 1
vt 1 0
vt 0 0
vt 0 1
vt 1 1
vt 1 0
vt 0 0
vt 0 1
vt 1 1
vt 1 0
vt 0 0
vt 0 1
vt 1 1
vt 1 0
vt 0 0
vt 0 1
vt 1 1
vt 1 0
vt 0 0
vt 0 1
vt 1 1
vt 1 0
vt 0 0
vt 0 1
vt 1 1
vt 1 0
vt 0 0
vt 0 1
vt 1 1
vt 1 0
vt 0 0
vt 0 1
vt 1 1
vt 1 0
vt 0 0
vt 0 1
vt 1 1
vt 1 0
vt 0 0
vt 0 1
vt 1 1
vt 1 0
vt 0 0
vt 0 1
vt 1 1
vt 1 0
vt 0 0
vt 0 1
vt 1 1
vt 1 0
vt 0 0
vt 0 1
vt 1 1
vt 1 0
vt 0 0
vt 0 1
vt 1 1
vt 1 0
vt 0 0
vt 0 1
vt 1 1
vt 1 0
vt 0 0
vt 0 1
vt 1 1
vt 1 0
vt 0 0
vt 0 1
vt 1 1
vt 1 0
vt 0 0
vt 0 1
vt 1 1
vt 1 0
vt 0 0
vt 0 1
vt 1 1
vt 1 0
vt 0 0
vt 0 1
vt 1 1
vt 1 0
vt 0 0
vt 0 1
vt 1 1
vt 1 0
vt 0 0
vt 0 1
vt 1 1
vt 1 0
vt 0 0
vt 0.5 1
vt 1 0
vt 0 0
vt 0.5 1
vt 1 0
vt 0 0
vt 0.5 1
vt 1 0
vt 0 0
vt 0.5 1
vt 1 0
vt 0 0
vt 0.5 1
vt 1 0
vt 0 0
vt 0.5 1
vt 1 0
vt 0 0
vt 0.5 1
vt 1 0
vt 0 0
vt 0.5 1
vt 1 0
vt 0 0
vt 0.5 1
vt 1 0
vt 0 0
vt 0.5 1
vt 1 0

g pCylinder7_23_3534_167
usemtl pCylinder7_23_3534_167
usemap pCylinder7_23_3534_167
f 1/1/1 3/3/3 2/2/2
f 4/4/4 1/1/1 2/2/2
f 5/5/5 4/4/4 2/2/2
f 6/6/6 5/5/5 2/2/2
f 7/7/7 6/6/6 2/2/2
f 8/8/8 7/7/7 2/2/2
f 9/9/9 8/8/8 2/2/2
f 10/10/10 9/9/9 2/2/2
f 11/11/11 10/10/10 2/2/2
f 3/3/3 11/11/11 2/2/2
f 12/12/12 14/14/14 13/13/13
f 12/12/12 15/15/15 14/14/14
f 16/16/16 18/18/18 17/17/17
f 16/16/16 19/19/19 18/18/18
f 20/20/20 22/22/22 21/21/21
f 20/20/20 23/23/23 22/22/22
f 24/24/24 26/26/26 25/25/25
f 24/24/24 27/27/27 26/26/26
f 28/28/28 30/30/30 29/29/29
f 28/28/28 31/31/31 30/30/30
f 32/32/32 34/34/34 33/33/33
f 32/32/32 35/35/35 34/34/34
f 36/36/36 38/38/38 37/37/37
f 36/36/36 39/39/39 38/38/38
f 40/40/40 42/42/42 41/41/41
f 40/40/40 43/43/43 42/42/42
f 44/44/44 46/46/46 45/45/45
f 44/44/44 47/47/47 46/46/46
f 48/48/48 50/50/50 49/49/49
f 48/48/48 51/51/51 50/50/50
f 52/52/52 54/54/54 53/53/53
f 52/52/52 55/55/55 54/54/54
f 56/56/56 58/58/58 57/57/57
f 56/56/56 59/59/59 58/58/58
f 60/60/60 62/62/62 61/61/61
f 60/60/60 63/63/63 62/62/62
f 64/64/64 66/66/66 65/65/65
f 64/64/64 67/67/67 66/66/66
f 68/68/68 70/70/70 69/69/69
f 68/68/68 71/71/71 70/70/70
f 72/72/72 74/74/74 73/73/73
f 72/72/72 75/75/75 74/74/74
f 76/76/76 78/78/78 77/77/77
f 76/76/76 79/79/79 78/78/78
f 80/80/80 82/82/82 81/81/81
f 80/80/80 83/83/83 82/82/82
f 84/84/84 86/86/86 85/85/85
f 84/84/84 87/87/87 86/86/86
f 88/88/88 90/90/90 89/89/89
f 88/88/88 91/91/91 90/90/90
f 92/92/92 94/94/94 93/93/93
f 92/92/92 95/95/95 94/94/94
f 96/96/96 98/98/98 97/97/97
f 96/96/96 99/99/99 98/98/98
f 100/100/100 102/102/102 101/101/101
f 100/100/100 103/103/103 102/102/102
f 104/104/104 106/106/106 105/105/105
f 104/104/104 107/107/107 106/106/106
f 108/108/108 110/110/110 109/109/109
f 108/108/108 111/111/111 110/110/110
f 112/112/112 114/114/114 113/113/113
f 112/112/112 115/115/115 114/114/114
f 116/116/116 118/118/118 117/117/117
f 116/116/116 119/119/119 118/118/118
f 120/120/120 122/122/122 121/121/121
f 120/120/120 123/123/123 122/122/122
f 124/124/124 126/126/126 125/125/125
f 124/124/124 127/127/127 126/126/126
f 128/128/128 130/130/130 129/129/129
f 128/128/128 131/131/131 130/130/130
f 132/132/132 134/134/134 133/133/133
f 132/132/132 135/135/135 134/134/134
f 136/136/136 138/138/138 137/137/137
f 136/136/136 139/139/139 138/138/138
f 140/140/140 142/142/142 141/141/141
f 140/140/140 143/143/143 142/142/142
f 144/144/144 146/146/146 145/145/145
f 144/144/144 147/147/147 146/146/146
f 148/148/148 150/150/150 149/149/149
f 148/148/148 151/151/151 150/150/150
f 152/152/152 154/154/154 153/153/153
f 152/152/152 155/155/155 154/154/154
f 156/156/156 158/158/158 157/157/157
f 156/156/156 159/159/159 158/158/158
f 160/160/160 162/162/162 161/161/161
f 160/160/160 163/163/163 162/162/162
f 164/164/164 166/166/166 165/165/165
f 164/164/164 167/167/167 166/166/166
f 168/168/168 170/170/170 169/169/169
f 168/168/168 171/171/171 170/170/170
f 172/172/172 174/174/174 173/173/173
f 175/175/175 177/177/177 176/176/176
f 178/178/178 180/180/180 179/179/179
f 181/181/181 183/183/183 182/182/182
f 184/184/184 186/186/186 185/185/185
f 187/187/187 189/189/189 188/188/188
f 190/190/190 192/192/192 191/191/191
f 193/193/193 195/195/195 194/194/194
f 196/196/196 198/198/198 197/197/197
f 199/199/199 201/201/201 200/200/200
