#pCylinder7_29_3815_175.obj

v 0.01454625 -0.02577569 -0.04035911
v 0.004624643 -0.03397609 0.001090795
v 0.03878523 -0.02577569 -0.0210554
v -0.009662542 -0.02577569 -0.0381761
v -0.01824997 -0.02577569 -0.01778107
v -0.03822148 -0.02223217 0.001090972
v -0.02135025 -0.02577569 0.01996278
v -0.005296928 -0.02577569 0.0327175
v 0.02109484 -0.02577569 0.04035752
v 0.03059918 -0.02577569 0.0199627
v 0.03219027 -0.02223217 0.001090802
v 0.03878523 -0.02577569 -0.0210554
v 0.04796755 -0.01489241 -0.02772668
v 0.01805345 -0.01489241 -0.05115341
v 0.01454625 -0.02577569 -0.04035911
v 0.01454625 -0.02577569 -0.04035911
v 0.01805345 -0.01489241 -0.05115341
v -0.01317002 -0.01489241 -0.04897053
v -0.009662542 -0.02577569 -0.0381761
v -0.009662542 -0.02577569 -0.0381761
v -0.01317002 -0.01489241 -0.04897053
v -0.02743254 -0.01489241 -0.02445232
v -0.01824997 -0.02577569 -0.01778107
v -0.01824997 -0.02577569 -0.01778107
v -0.02743254 -0.01489241 -0.02445232
v -0.0479662 -0.01288825 0.00109087
v -0.03822148 -0.02223217 0.001090972
v -0.03822148 -0.02223217 0.001090972
v -0.0479662 -0.01288825 0.00109087
v -0.03053257 -0.01489241 0.02663406
v -0.02135025 -0.02577569 0.01996278
v -0.02135025 -0.02577569 0.01996278
v -0.03053257 -0.01489241 0.02663406
v -0.008804129 -0.01489241 0.0435118
v -0.005296928 -0.02577569 0.0327175
v -0.005296928 -0.02577569 0.0327175
v -0.008804129 -0.01489241 0.0435118
v 0.02460231 -0.01489241 0.05115195
v 0.02109484 -0.02577569 0.04035752
v 0.02109484 -0.02577569 0.04035752
v 0.02460231 -0.01489241 0.05115195
v 0.03978175 -0.01489241 0.02663395
v 0.03059918 -0.02577569 0.0199627
v 0.03059918 -0.02577569 0.0199627
v 0.03978175 -0.01489241 0.02663395
v 0.04193499 -0.01288825 0.001090904
v 0.03219027 -0.02223217 0.001090802
v 0.03219027 -0.02223217 0.001090802
v 0.04193499 -0.01288825 0.001090904
v 0.04796755 -0.01489241 -0.02772668
v 0.03878523 -0.02577569 -0.0210554
v 0.04796755 -0.01489241 -0.02772668
v 0.04796755 -0.0001483671 -0.02772668
v 0.01805345 -0.0001483671 -0.05115341
v 0.01805345 -0.01489241 -0.05115341
v 0.01805345 -0.01489241 -0.05115341
v 0.01805345 -0.0001483671 -0.05115341
v -0.01317002 -0.0001483671 -0.04897053
v -0.01317002 -0.01489241 -0.04897053
v -0.01317002 -0.01489241 -0.04897053
v -0.01317002 -0.0001483671 -0.04897053
v -0.02743254 -0.0001483671 -0.02445232
v -0.02743254 -0.01489241 -0.02445232
v -0.02743254 -0.01489241 -0.02445232
v -0.02743254 -0.0001483671 -0.02445232
v -0.0479662 -0.0002294518 0.00109087
v -0.0479662 -0.01288825 0.00109087
v -0.0479662 -0.01288825 0.00109087
v -0.0479662 -0.0002294518 0.00109087
v -0.03053257 -0.0001483671 0.02663406
v -0.03053257 -0.01489241 0.02663406
v -0.03053257 -0.01489241 0.02663406
v -0.03053257 -0.0001483671 0.02663406
v -0.008804129 -0.0001483671 0.0435118
v -0.008804129 -0.01489241 0.0435118
v -0.008804129 -0.01489241 0.0435118
v -0.008804129 -0.0001483671 0.0435118
v 0.02460231 -0.0001483671 0.05115195
v 0.02460231 -0.01489241 0.05115195
v 0.02460231 -0.01489241 0.05115195
v 0.02460231 -0.0001483671 0.05115195
v 0.03978175 -0.0001483671 0.02663395
v 0.03978175 -0.01489241 0.02663395
v 0.03978175 -0.01489241 0.02663395
v 0.03978175 -0.0001483671 0.02663395
v 0.04193499 -0.0002294518 0.001090904
v 0.04193499 -0.01288825 0.001090904
v 0.04193499 -0.01288825 0.001090904
v 0.04193499 -0.0002294518 0.001090904
v 0.04796755 -0.0001483671 -0.02772668
v 0.04796755 -0.01489241 -0.02772668
v 0.04796755 -0.0001483671 -0.02772668
v 0.04568962 0.01428333 -0.02539745
v 0.01714576 0.01428333 -0.04799186
v 0.01805345 -0.0001483671 -0.05115341
v 0.01805345 -0.0001483671 -0.05115341
v 0.01714576 0.01428333 -0.04799186
v -0.01182841 0.01428333 -0.04559826
v -0.01317002 -0.0001483671 -0.04897053
v -0.01317002 -0.0001483671 -0.04897053
v -0.01182841 0.01428333 -0.04559826
v -0.02320949 0.01428333 -0.02180702
v -0.02743254 -0.0001483671 -0.02445232
v -0.02743254 -0.0001483671 -0.02445232
v -0.02320949 0.01428333 -0.02180702
v -0.04530326 0.01197208 0.001196093
v -0.0479662 -0.0002294518 0.00109087
v -0.0479662 -0.0002294518 0.00109087
v -0.04530326 0.01197208 0.001196093
v -0.02660882 0.01428333 0.0241993
v -0.03053257 -0.0001483671 0.02663406
v -0.03053257 -0.0001483671 0.02663406
v -0.02660882 0.01428333 0.0241993
v -0.007041025 0.01428333 0.03961288
v -0.008804129 -0.0001483671 0.0435118
v -0.008804129 -0.0001483671 0.0435118
v -0.007041025 0.01428333 0.03961288
v 0.02432687 0.01428333 0.04799037
v 0.02460231 -0.0001483671 0.05115195
v 0.02460231 -0.0001483671 0.05115195
v 0.02432687 0.01428333 0.04799037
v 0.0367135 0.01428333 0.02419943
v 0.03978175 -0.0001483671 0.02663395
v 0.03978175 -0.0001483671 0.02663395
v 0.0367135 0.01428333 0.02419943
v 0.03865269 0.01197208 0.001196191
v 0.04193499 -0.0002294518 0.001090904
v 0.04193499 -0.0002294518 0.001090904
v 0.03865269 0.01197208 0.001196191
v 0.04568962 0.01428333 -0.02539745
v 0.04796755 -0.0001483671 -0.02772668
v 0.04568962 0.01428333 -0.02539745
v 0.03225338 0.02437438 -0.01614847
v 0.01203727 0.02437438 -0.03256934
v 0.01714576 0.01428333 -0.04799186
v 0.01714576 0.01428333 -0.04799186
v 0.01203727 0.02437438 -0.03256934
v -0.002591522 0.02437438 -0.02139438
v -0.01182841 0.01428333 -0.04559826
v -0.01182841 0.01428333 -0.04559826
v -0.002591522 0.02437438 -0.02139438
v -0.01125238 0.02437438 -0.0127959
v -0.02320949 0.01428333 -0.02180702
v -0.02320949 0.01428333 -0.02180702
v -0.01125238 0.02437438 -0.0127959
v -0.03124409 0.02074646 0.001116965
v -0.04530326 0.01197208 0.001196093
v -0.04530326 0.01197208 0.001196093
v -0.03124409 0.02074646 0.001116965
v -0.01442648 0.02437438 0.01502966
v -0.02660882 0.01428333 0.0241993
v -0.02660882 0.01428333 0.0241993
v -0.01442648 0.02437438 0.01502966
v -0.002591376 0.02437438 0.02474543
v -0.007041025 0.01428333 0.03961288
v -0.007041025 0.01428333 0.03961288
v -0.002591376 0.02437438 0.02474543
v 0.01874208 0.02437438 0.03256792
v 0.02432687 0.01428333 0.04799037
v 0.02432687 0.01428333 0.04799037
v 0.01874208 0.02437438 0.03256792
v 0.02387195 0.02437438 0.0150297
v 0.0367135 0.01428333 0.02419943
v 0.0367135 0.01428333 0.02419943
v 0.02387195 0.02437438 0.0150297
v 0.02504488 0.02074646 0.00111688
v 0.03865269 0.01197208 0.001196191
v 0.03865269 0.01197208 0.001196191
v 0.02504488 0.02074646 0.00111688
v 0.03225338 0.02437438 -0.01614847
v 0.04568962 0.01428333 -0.02539745
v 0.03225338 0.02437438 -0.01614847
v 0.004624643 0.03397606 0.001090795
v 0.01203727 0.02437438 -0.03256934
v 0.01203727 0.02437438 -0.03256934
v 0.004624643 0.03397606 0.001090795
v -0.002591522 0.02437438 -0.02139438
v -0.002591522 0.02437438 -0.02139438
v 0.004624643 0.03397606 0.001090795
v -0.01125238 0.02437438 -0.0127959
v -0.01125238 0.02437438 -0.0127959
v 0.004624643 0.03397606 0.001090795
v -0.03124409 0.02074646 0.001116965
v -0.03124409 0.02074646 0.001116965
v 0.004624643 0.03397606 0.001090795
v -0.01442648 0.02437438 0.01502966
v -0.01442648 0.02437438 0.01502966
v 0.004624643 0.03397606 0.001090795
v -0.002591376 0.02437438 0.02474543
v -0.002591376 0.02437438 0.02474543
v 0.004624643 0.03397606 0.001090795
v 0.01874208 0.02437438 0.03256792
v 0.01874208 0.02437438 0.03256792
v 0.004624643 0.03397606 0.001090795
v 0.02387195 0.02437438 0.0150297
v 0.02387195 0.02437438 0.0150297
v 0.004624643 0.03397606 0.001090795
v 0.02504488 0.02074646 0.00111688
v 0.02504488 0.02074646 0.00111688
v 0.004624643 0.03397606 0.001090795
v 0.03225338 0.02437438 -0.01614847

vn -0.1186101 -0.9720873 -0.2024303
vn 0.001457287 -0.999998 -0.001422479
vn 0.1210368 -0.9694696 -0.2132578
vn -0.2378859 -0.9682139 -0.07728009
vn -0.3194919 -0.9388354 0.1285026
vn -0.2454406 -0.9476805 0.2041093
vn -0.09165137 -0.9553642 0.2808546
vn 0.1216369 -0.9555762 0.2684745
vn 0.2218282 -0.96957 0.1035673
vn 0.2691042 -0.939326 -0.2127195
vn 0.4201173 -0.8768733 -0.2336551
vn -0.132633 -0.6329525 -0.7627447
vn -0.1326331 -0.6329526 -0.7627447
vn -0.132633 -0.6329525 -0.7627447
vn -0.1326331 -0.6329526 -0.7627447
vn -0.6299856 -0.6077362 -0.4835028
vn -0.6299855 -0.6077362 -0.4835028
vn -0.6299856 -0.6077362 -0.4835028
vn -0.6299855 -0.6077362 -0.4835028
vn -0.7870342 -0.570376 0.23505
vn -0.7870342 -0.5703759 0.23505
vn -0.7870342 -0.570376 0.23505
vn -0.7870342 -0.570376 0.2350501
vn -0.8015119 -0.5904369 0.09467334
vn -0.8015119 -0.5904368 0.0946734
vn -0.8015118 -0.5904368 0.09467338
vn -0.8015119 -0.5904369 0.09467344
vn -0.152208 -0.6299248 0.7615954
vn -0.152208 -0.6299248 0.7615954
vn -0.1522081 -0.6299247 0.7615954
vn -0.152208 -0.6299247 0.7615954
vn 0.1350121 -0.6329128 0.7623602
vn 0.135012 -0.6329128 0.7623603
vn 0.135012 -0.6329129 0.7623602
vn 0.135012 -0.6329129 0.7623602
vn 0.4492126 -0.6070125 0.6555485
vn 0.4492126 -0.6070126 0.6555485
vn 0.4492126 -0.6070125 0.6555485
vn 0.4492126 -0.6070125 0.6555485
vn 0.7905102 -0.5753627 -0.2098839
vn 0.7905102 -0.5753627 -0.2098838
vn 0.7905102 -0.5753627 -0.2098838
vn 0.7905103 -0.5753627 -0.2098839
vn 0.5560253 -0.6054044 -0.5694922
vn 0.5560253 -0.6054044 -0.5694922
vn 0.5560253 -0.6054044 -0.5694922
vn 0.5560253 -0.6054044 -0.5694922
vn 0.7710987 -0.5281833 -0.3555691
vn 0.7710986 -0.5281832 -0.3555692
vn 0.7710987 -0.5281833 -0.3555691
vn 0.7710986 -0.5281833 -0.3555691
vn -0.1751544 -1.275134E-17 -0.984541
vn -0.1751544 -1.275134E-17 -0.9845409
vn -0.1751544 -1.275134E-17 -0.9845409
vn -0.1751544 -1.275134E-17 -0.984541
vn -0.7882524 5.612698E-17 -0.6153519
vn -0.7882524 5.612698E-17 -0.6153519
vn -0.7882524 5.612698E-17 -0.6153519
vn -0.7882524 5.612698E-17 -0.6153519
vn -0.9722307 9.876976E-17 0.2340242
vn -0.9722307 9.876976E-17 0.2340242
vn -0.9722307 9.876976E-17 0.2340242
vn -0.9722307 9.876976E-17 0.2340242
vn -0.9955649 9.680963E-17 0.0940769
vn -0.9955649 9.680963E-17 0.09407689
vn -0.9955649 9.680963E-17 0.0940769
vn -0.9955649 9.680963E-17 0.0940769
vn -0.1560118 4.411884E-17 0.9877552
vn -0.1560118 4.411884E-17 0.9877552
vn -0.1560117 4.411883E-17 0.9877552
vn -0.1560118 4.411884E-17 0.9877552
vn 0.1792859 1.233907E-17 0.983797
vn 0.1792859 1.233907E-17 0.983797
vn 0.1792859 1.233907E-17 0.983797
vn 0.1792859 1.233907E-17 0.983797
vn 0.5856684 -3.118969E-17 0.8105508
vn 0.5856684 -3.118969E-17 0.8105508
vn 0.5856684 -3.118969E-17 0.8105508
vn 0.5856684 -3.118969E-17 0.8105508
vn 0.9780334 -9.85568E-17 -0.2084484
vn 0.9780334 -9.85568E-17 -0.2084484
vn 0.9780334 -9.85568E-17 -0.2084484
vn 0.9780334 -9.85568E-17 -0.2084484
vn 0.7796737 -9.225391E-17 -0.626186
vn 0.7796738 -9.225391E-17 -0.626186
vn 0.7796737 -9.225391E-17 -0.626186
vn 0.7796738 -9.225391E-17 -0.626186
vn 0.8517883 -9.602014E-17 -0.523886
vn 0.8517883 -9.602014E-17 -0.523886
vn 0.8517883 -9.602014E-17 -0.523886
vn 0.8517883 -9.602014E-17 -0.523886
vn -0.1697692 0.1767803 -0.9694985
vn -0.1697692 0.1767803 -0.9694985
vn -0.1697692 0.1767803 -0.9694985
vn -0.1697692 0.1767803 -0.9694985
vn -0.77981 0.1729604 -0.6016487
vn -0.77981 0.1729604 -0.6016487
vn -0.77981 0.1729604 -0.6016487
vn -0.77981 0.1729604 -0.6016487
vn -0.9422132 0.2058607 0.2643024
vn -0.9422132 0.2058606 0.2643024
vn -0.9422132 0.2058606 0.2643023
vn -0.9422132 0.2058606 0.2643024
vn -0.9780188 0.1992558 0.06145218
vn -0.9780188 0.1992558 0.06145213
vn -0.9780188 0.1992557 0.06145218
vn -0.9780188 0.1992558 0.06145218
vn -0.1198342 0.2058811 0.971212
vn -0.1198342 0.2058811 0.971212
vn -0.1198343 0.2058811 0.971212
vn -0.1198342 0.2058811 0.971212
vn 0.170957 0.2357958 0.9566473
vn 0.1709569 0.2357958 0.9566473
vn 0.170957 0.2357958 0.9566473
vn 0.170957 0.2357958 0.9566473
vn 0.560626 0.1946471 0.804867
vn 0.560626 0.1946471 0.804867
vn 0.560626 0.1946471 0.804867
vn 0.560626 0.1946471 0.804867
vn 0.9590322 0.1521991 -0.2389406
vn 0.9590322 0.1521991 -0.2389406
vn 0.9590323 0.1521991 -0.2389405
vn 0.9590322 0.1521991 -0.2389406
vn 0.7569824 0.1951954 -0.6235994
vn 0.7569825 0.1951954 -0.6235995
vn 0.7569825 0.1951954 -0.6235995
vn 0.7569825 0.1951953 -0.6235995
vn 0.8596671 0.1439267 -0.4901606
vn 0.8596671 0.1439267 -0.4901607
vn 0.8596671 0.1439267 -0.4901606
vn 0.8596671 0.1439267 -0.4901606
vn -0.101987 0.7836807 -0.6127343
vn -0.1019871 0.7836807 -0.6127343
vn -0.101987 0.7836807 -0.6127343
vn -0.1019871 0.7836807 -0.6127343
vn -0.5040659 0.8289261 -0.2424851
vn -0.504066 0.8289261 -0.2424851
vn -0.5040659 0.8289261 -0.2424851
vn -0.5040659 0.8289261 -0.2424851
vn -0.575733 0.8083563 0.1228479
vn -0.5757331 0.8083563 0.1228478
vn -0.575733 0.8083563 0.1228479
vn -0.5757331 0.8083563 0.1228478
vn -0.6889004 0.7233838 0.04617541
vn -0.6889003 0.7233838 0.04617541
vn -0.6889003 0.7233838 0.04617541
vn -0.6889003 0.7233838 0.04617541
vn -0.09939247 0.7665066 0.634499
vn -0.09939241 0.7665065 0.6344988
vn -0.09939244 0.7665066 0.634499
vn -0.09939247 0.7665066 0.634499
vn 0.1054647 0.7662401 0.63384
vn 0.1054646 0.7662401 0.6338401
vn 0.1054647 0.76624 0.6338401
vn 0.1054646 0.7662401 0.6338401
vn 0.3477774 0.749517 0.5632718
vn 0.3477774 0.749517 0.5632718
vn 0.3477774 0.749517 0.5632718
vn 0.3477774 0.749517 0.5632718
vn 0.6489103 0.7211123 -0.2427194
vn 0.6489103 0.7211122 -0.2427194
vn 0.6489103 0.7211122 -0.2427193
vn 0.6489103 0.7211122 -0.2427194
vn 0.417028 0.7395481 -0.5283526
vn 0.4170279 0.7395481 -0.5283526
vn 0.4170279 0.7395481 -0.5283525
vn 0.417028 0.7395481 -0.5283526
vn 0.7273121 0.6463675 -0.2307077
vn 0.7273121 0.6463675 -0.2307078
vn 0.7273121 0.6463675 -0.2307077
vn 0.7273121 0.6463675 -0.2307077
vn -0.05526099 0.9355574 -0.3488245
vn -0.05526103 0.9355574 -0.3488245
vn -0.05526099 0.9355574 -0.3488245
vn -0.4872036 0.8710108 -0.06303056
vn -0.4872036 0.8710108 -0.06303056
vn -0.4872035 0.8710108 -0.06303058
vn -0.5103229 0.8599685 -0.00497618
vn -0.5103229 0.8599685 -0.004976194
vn -0.5103229 0.8599685 -0.004976165
vn -0.5025233 0.8617557 0.06962296
vn -0.5025234 0.8617557 0.06962296
vn -0.5025234 0.8617557 0.06962296
vn -0.1320171 0.8973453 0.4211209
vn -0.132017 0.8973453 0.4211209
vn -0.1320171 0.8973453 0.4211209
vn 0.06842351 0.8914119 0.447999
vn 0.06842349 0.8914119 0.447999
vn 0.06842349 0.8914119 0.447999
vn 0.209016 0.8999121 0.3827146
vn 0.209016 0.8999121 0.3827146
vn 0.209016 0.8999121 0.3827146
vn 0.4209222 0.881179 -0.2152858
vn 0.4209222 0.881179 -0.2152859
vn 0.4209222 0.881179 -0.2152859
vn 0.2890746 0.7757065 -0.5609948
vn 0.2890746 0.7757065 -0.5609947
vn 0.2890746 0.7757066 -0.5609947
vn 0.7143639 0.6934702 -0.09371931
vn 0.7143639 0.6934702 -0.09371925
vn 0.7143639 0.6934702 -0.09371928

vt 0.5482839 0.007647395
vt 0.5 0.15
vt 0.6264089 0.06440853
vt 0.4517161 0.00764741
vt 0.3735911 0.06440856
vt 0.34375 0.15625
vt 0.3735911 0.2480915
vt 0.4517161 0.3048526
vt 0.5482839 0.3048526
vt 0.6264089 0.2480914
vt 0.65625 0.15625
vt 0 0
vt 0 1
vt 1 1
vt 1 0
vt 0 0
vt 0 1
vt 1 1
vt 1 0
vt 0 0
vt 0 1
vt 1 1
vt 1 0
vt 0 0
vt 0 1
vt 1 1
vt 1 0
vt 0 0
vt 0 1
vt 1 1
vt 1 0
vt 0 0
vt 0 1
vt 1 1
vt 1 0
vt 0 0
vt 0 1
vt 1 1
vt 1 0
vt 0 0
vt 0 1
vt 1 1
vt 1 0
vt 0 0
vt 0 1
vt 1 1
vt 1 0
vt 0 0
vt 0 1
vt 1 1
vt 1 0
vt 0 0
vt 0 1
vt 1 1
vt 1 0
vt 0 0
vt 0 1
vt 1 1
vt 1 0
vt 0 0
vt 0 1
vt 1 1
vt 1 0
vt 0 0
vt 0 1
vt 1 1
vt 1 0
vt 0 0
vt 0 1
vt 1 1
vt 1 0
vt 0 0
vt 0 1
vt 1 1
vt 1 0
vt 0 0
vt 0 1
vt 1 1
vt 1 0
vt 0 0
vt 0 1
vt 1 1
vt 1 0
vt 0 0
vt 0 1
vt 1 1
vt 1 0
vt 0 0
vt 0 1
vt 1 1
vt 1 0
vt 0 0
vt 0 1
vt 1 1
vt 1 0
vt 0 0
vt 0 1
vt 1 1
vt 1 0
vt 0 0
vt 0 1
vt 1 1
vt 1 0
vt 0 0
vt 0 1
vt 1 1
vt 1 0
vt 0 0
vt 0 1
vt 1 1
vt 1 0
vt 0 0
vt 0 1
vt 1 1
vt 1 0
vt 0 0
vt 0 1
vt 1 1
vt 1 0
vt 0 0
vt 0 1
vt 1 1
vt 1 0
vt 0 0
vt 0 1
vt 1 1
vt 1 0
vt 0 0
vt 0 1
vt 1 1
vt 1 0
vt 0 0
vt 0 1
vt 1 1
vt 1 0
vt 0 0
vt 0 1
vt 1 1
vt 1 0
vt 0 0
vt 0 1
vt 1 1
vt 1 0
vt 0 0
vt 0 1
vt 1 1
vt 1 0
vt 0 0
vt 0 1
vt 1 1
vt 1 0
vt 0 0
vt 0 1
vt 1 1
vt 1 0
vt 0 0
vt 0 1
vt 1 1
vt 1 0
vt 0 0
vt 0 1
vt 1 1
vt 1 0
vt 0 0
vt 0 1
vt 1 1
vt 1 0
vt 0 0
vt 0 1
vt 1 1
vt 1 0
vt 0 0
vt 0.5 1
vt 1 0
vt 0 0
vt 0.5 1
vt 1 0
vt 0 0
vt 0.5 1
vt 1 0
vt 0 0
vt 0.5 1
vt 1 0
vt 0 0
vt 0.5 1
vt 1 0
vt 0 0
vt 0.5 1
vt 1 0
vt 0 0
vt 0.5 1
vt 1 0
vt 0 0
vt 0.5 1
vt 1 0
vt 0 0
vt 0.5 1
vt 1 0
vt 0 0
vt 0.5 1
vt 1 0

g pCylinder7_29_3815_175
usemtl pCylinder7_29_3815_175
usemap pCylinder7_29_3815_175
f 1/1/1 3/3/3 2/2/2
f 4/4/4 1/1/1 2/2/2
f 5/5/5 4/4/4 2/2/2
f 6/6/6 5/5/5 2/2/2
f 7/7/7 6/6/6 2/2/2
f 8/8/8 7/7/7 2/2/2
f 9/9/9 8/8/8 2/2/2
f 10/10/10 9/9/9 2/2/2
f 11/11/11 10/10/10 2/2/2
f 3/3/3 11/11/11 2/2/2
f 12/12/12 14/14/14 13/13/13
f 12/12/12 15/15/15 14/14/14
f 16/16/16 18/18/18 17/17/17
f 16/16/16 19/19/19 18/18/18
f 20/20/20 22/22/22 21/21/21
f 20/20/20 23/23/23 22/22/22
f 24/24/24 26/26/26 25/25/25
f 24/24/24 27/27/27 26/26/26
f 28/28/28 30/30/30 29/29/29
f 28/28/28 31/31/31 30/30/30
f 32/32/32 34/34/34 33/33/33
f 32/32/32 35/35/35 34/34/34
f 36/36/36 38/38/38 37/37/37
f 36/36/36 39/39/39 38/38/38
f 40/40/40 42/42/42 41/41/41
f 40/40/40 43/43/43 42/42/42
f 44/44/44 46/46/46 45/45/45
f 44/44/44 47/47/47 46/46/46
f 48/48/48 50/50/50 49/49/49
f 48/48/48 51/51/51 50/50/50
f 52/52/52 54/54/54 53/53/53
f 52/52/52 55/55/55 54/54/54
f 56/56/56 58/58/58 57/57/57
f 56/56/56 59/59/59 58/58/58
f 60/60/60 62/62/62 61/61/61
f 60/60/60 63/63/63 62/62/62
f 64/64/64 66/66/66 65/65/65
f 64/64/64 67/67/67 66/66/66
f 68/68/68 70/70/70 69/69/69
f 68/68/68 71/71/71 70/70/70
f 72/72/72 74/74/74 73/73/73
f 72/72/72 75/75/75 74/74/74
f 76/76/76 78/78/78 77/77/77
f 76/76/76 79/79/79 78/78/78
f 80/80/80 82/82/82 81/81/81
f 80/80/80 83/83/83 82/82/82
f 84/84/84 86/86/86 85/85/85
f 84/84/84 87/87/87 86/86/86
f 88/88/88 90/90/90 89/89/89
f 88/88/88 91/91/91 90/90/90
f 92/92/92 94/94/94 93/93/93
f 92/92/92 95/95/95 94/94/94
f 96/96/96 98/98/98 97/97/97
f 96/96/96 99/99/99 98/98/98
f 100/100/100 102/102/102 101/101/101
f 100/100/100 103/103/103 102/102/102
f 104/104/104 106/106/106 105/105/105
f 104/104/104 107/107/107 106/106/106
f 108/108/108 110/110/110 109/109/109
f 108/108/108 111/111/111 110/110/110
f 112/112/112 114/114/114 113/113/113
f 112/112/112 115/115/115 114/114/114
f 116/116/116 118/118/118 117/117/117
f 116/116/116 119/119/119 118/118/118
f 120/120/120 122/122/122 121/121/121
f 120/120/120 123/123/123 122/122/122
f 124/124/124 126/126/126 125/125/125
f 124/124/124 127/127/127 126/126/126
f 128/128/128 130/130/130 129/129/129
f 128/128/128 131/131/131 130/130/130
f 132/132/132 134/134/134 133/133/133
f 132/132/132 135/135/135 134/134/134
f 136/136/136 138/138/138 137/137/137
f 136/136/136 139/139/139 138/138/138
f 140/140/140 142/142/142 141/141/141
f 140/140/140 143/143/143 142/142/142
f 144/144/144 146/146/146 145/145/145
f 144/144/144 147/147/147 146/146/146
f 148/148/148 150/150/150 149/149/149
f 148/148/148 151/151/151 150/150/150
f 152/152/152 154/154/154 153/153/153
f 152/152/152 155/155/155 154/154/154
f 156/156/156 158/158/158 157/157/157
f 156/156/156 159/159/159 158/158/158
f 160/160/160 162/162/162 161/161/161
f 160/160/160 163/163/163 162/162/162
f 164/164/164 166/166/166 165/165/165
f 164/164/164 167/167/167 166/166/166
f 168/168/168 170/170/170 169/169/169
f 168/168/168 171/171/171 170/170/170
f 172/172/172 174/174/174 173/173/173
f 175/175/175 177/177/177 176/176/176
f 178/178/178 180/180/180 179/179/179
f 181/181/181 183/183/183 182/182/182
f 184/184/184 186/186/186 185/185/185
f 187/187/187 189/189/189 188/188/188
f 190/190/190 192/192/192 191/191/191
f 193/193/193 195/195/195 194/194/194
f 196/196/196 198/198/198 197/197/197
f 199/199/199 201/201/201 200/200/200
