#pCylinder18_17_3598_305.obj

v 0.01453932 -0.02577556 -0.04035699
v 0.004618131 -0.03397598 0.001092618
v 0.03877921 -0.02577556 -0.02105384
v -0.009669169 -0.02577556 -0.03817422
v -0.01825584 -0.02577556 -0.01777959
v -0.03822796 -0.02223239 0.001092627
v -0.02135619 -0.02577556 0.01996415
v -0.005302452 -0.02577556 0.03271871
v 0.02108872 -0.02577556 0.04035918
v 0.03059296 -0.02577556 0.01996434
v 0.03218444 -0.02223239 0.001092222
v 0.03877921 -0.02577556 -0.02105384
v 0.04796175 -0.01489256 -0.02772528
v 0.01804701 -0.01489256 -0.05115167
v 0.01453932 -0.02577556 -0.04035699
v 0.01453932 -0.02577556 -0.04035699
v 0.01804701 -0.01489256 -0.05115167
v -0.01317599 -0.01489256 -0.04896901
v -0.009669169 -0.02577556 -0.03817422
v -0.009669169 -0.02577556 -0.03817422
v -0.01317599 -0.01489256 -0.04896901
v -0.02743874 -0.01489256 -0.02445069
v -0.01825584 -0.02577556 -0.01777959
v -0.01825584 -0.02577556 -0.01777959
v -0.02743874 -0.01489256 -0.02445069
v -0.04797281 -0.01288814 0.001092677
v -0.03822796 -0.02223239 0.001092627
v -0.03822796 -0.02223239 0.001092627
v -0.04797281 -0.01288814 0.001092677
v -0.03053871 -0.01489256 0.02663563
v -0.02135619 -0.02577556 0.01996415
v -0.02135619 -0.02577556 0.01996415
v -0.03053871 -0.01489256 0.02663563
v -0.008810137 -0.01489256 0.04351339
v -0.005302452 -0.02577556 0.03271871
v -0.005302452 -0.02577556 0.03271871
v -0.008810137 -0.01489256 0.04351339
v 0.02459554 -0.01489256 0.05115397
v 0.02108872 -0.02577556 0.04035918
v 0.02108872 -0.02577556 0.04035918
v 0.02459554 -0.01489256 0.05115397
v 0.03977586 -0.01489256 0.02663544
v 0.03059296 -0.02577556 0.01996434
v 0.03059296 -0.02577556 0.01996434
v 0.03977586 -0.01489256 0.02663544
v 0.0419293 -0.01288814 0.001092208
v 0.03218444 -0.02223239 0.001092222
v 0.03218444 -0.02223239 0.001092222
v 0.0419293 -0.01288814 0.001092208
v 0.04796175 -0.01489256 -0.02772528
v 0.03877921 -0.02577556 -0.02105384
v 0.04796175 -0.01489256 -0.02772528
v 0.04796175 -0.0001484486 -0.02772528
v 0.01804701 -0.0001484486 -0.05115167
v 0.01804701 -0.01489256 -0.05115167
v 0.01804701 -0.01489256 -0.05115167
v 0.01804701 -0.0001484486 -0.05115167
v -0.01317599 -0.0001484486 -0.04896901
v -0.01317599 -0.01489256 -0.04896901
v -0.01317599 -0.01489256 -0.04896901
v -0.01317599 -0.0001484486 -0.04896901
v -0.02743874 -0.0001484486 -0.02445069
v -0.02743874 -0.01489256 -0.02445069
v -0.02743874 -0.01489256 -0.02445069
v -0.02743874 -0.0001484486 -0.02445069
v -0.04797281 -0.0002294184 0.001092677
v -0.04797281 -0.01288814 0.001092677
v -0.04797281 -0.01288814 0.001092677
v -0.04797281 -0.0002294184 0.001092677
v -0.03053871 -0.0001484486 0.02663563
v -0.03053871 -0.01489256 0.02663563
v -0.03053871 -0.01489256 0.02663563
v -0.03053871 -0.0001484486 0.02663563
v -0.008810137 -0.0001484486 0.04351339
v -0.008810137 -0.01489256 0.04351339
v -0.008810137 -0.01489256 0.04351339
v -0.008810137 -0.0001484486 0.04351339
v 0.02459554 -0.0001484486 0.05115397
v 0.02459554 -0.01489256 0.05115397
v 0.02459554 -0.01489256 0.05115397
v 0.02459554 -0.0001484486 0.05115397
v 0.03977586 -0.0001484486 0.02663544
v 0.03977586 -0.01489256 0.02663544
v 0.03977586 -0.01489256 0.02663544
v 0.03977586 -0.0001484486 0.02663544
v 0.0419293 -0.0002294184 0.001092208
v 0.0419293 -0.01288814 0.001092208
v 0.0419293 -0.01288814 0.001092208
v 0.0419293 -0.0002294184 0.001092208
v 0.04796175 -0.0001484486 -0.02772528
v 0.04796175 -0.01489256 -0.02772528
v 0.04796175 -0.0001484486 -0.02772528
v 0.0456831 0.01428335 -0.02539564
v 0.01713959 0.01428335 -0.04799025
v 0.01804701 -0.0001484486 -0.05115167
v 0.01804701 -0.0001484486 -0.05115167
v 0.01713959 0.01428335 -0.04799025
v -0.01183437 0.01428335 -0.0455968
v -0.01317599 -0.0001484486 -0.04896901
v -0.01317599 -0.0001484486 -0.04896901
v -0.01183437 0.01428335 -0.0455968
v -0.02321586 0.01428335 -0.02180535
v -0.02743874 -0.0001484486 -0.02445069
v -0.02743874 -0.0001484486 -0.02445069
v -0.02321586 0.01428335 -0.02180535
v -0.04530986 0.01197191 0.001197942
v -0.04797281 -0.0002294184 0.001092677
v -0.04797281 -0.0002294184 0.001092677
v -0.04530986 0.01197191 0.001197942
v -0.02661482 0.01428335 0.02420086
v -0.03053871 -0.0001484486 0.02663563
v -0.03053871 -0.0001484486 0.02663563
v -0.02661482 0.01428335 0.02420086
v -0.007047768 0.01428335 0.03961483
v -0.008810137 -0.0001484486 0.04351339
v -0.008810137 -0.0001484486 0.04351339
v -0.007047768 0.01428335 0.03961483
v 0.02432003 0.01428335 0.04799248
v 0.02459554 -0.0001484486 0.05115397
v 0.02459554 -0.0001484486 0.05115397
v 0.02432003 0.01428335 0.04799248
v 0.03670792 0.01428335 0.02420068
v 0.03977586 -0.0001484486 0.02663544
v 0.03977586 -0.0001484486 0.02663544
v 0.03670792 0.01428335 0.02420068
v 0.03864641 0.01197191 0.001197885
v 0.0419293 -0.0002294184 0.001092208
v 0.0419293 -0.0002294184 0.001092208
v 0.03864641 0.01197191 0.001197885
v 0.0456831 0.01428335 -0.02539564
v 0.04796175 -0.0001484486 -0.02772528
v 0.0456831 0.01428335 -0.02539564
v 0.03224654 0.0243745 -0.01614644
v 0.0120306 0.0243745 -0.03256743
v 0.01713959 0.01428335 -0.04799025
v 0.01713959 0.01428335 -0.04799025
v 0.0120306 0.0243745 -0.03256743
v -0.002597792 0.0243745 -0.02139279
v -0.01183437 0.01428335 -0.0455968
v -0.01183437 0.01428335 -0.0455968
v -0.002597792 0.0243745 -0.02139279
v -0.0112581 0.0243745 -0.01279451
v -0.02321586 0.01428335 -0.02180535
v -0.02321586 0.01428335 -0.02180535
v -0.0112581 0.0243745 -0.01279451
v -0.03125051 0.02074639 0.001118665
v -0.04530986 0.01197191 0.001197942
v -0.04530986 0.01197191 0.001197942
v -0.03125051 0.02074639 0.001118665
v -0.01443224 0.0243745 0.01503104
v -0.02661482 0.01428335 0.02420086
v -0.02661482 0.01428335 0.02420086
v -0.01443224 0.0243745 0.01503104
v -0.002597868 0.0243745 0.02474731
v -0.007047768 0.01428335 0.03961483
v -0.007047768 0.01428335 0.03961483
v -0.002597868 0.0243745 0.02474731
v 0.0187362 0.0243745 0.03256941
v 0.02432003 0.01428335 0.04799248
v 0.02432003 0.01428335 0.04799248
v 0.0187362 0.0243745 0.03256941
v 0.02386616 0.0243745 0.01503106
v 0.03670792 0.01428335 0.02420068
v 0.03670792 0.01428335 0.02420068
v 0.02386616 0.0243745 0.01503106
v 0.02503833 0.02074639 0.001118713
v 0.03864641 0.01197191 0.001197885
v 0.03864641 0.01197191 0.001197885
v 0.02503833 0.02074639 0.001118713
v 0.03224654 0.0243745 -0.01614644
v 0.0456831 0.01428335 -0.02539564
v 0.03224654 0.0243745 -0.01614644
v 0.004618111 0.03397587 0.001092581
v 0.0120306 0.0243745 -0.03256743
v 0.0120306 0.0243745 -0.03256743
v 0.004618111 0.03397587 0.001092581
v -0.002597792 0.0243745 -0.02139279
v -0.002597792 0.0243745 -0.02139279
v 0.004618111 0.03397587 0.001092581
v -0.0112581 0.0243745 -0.01279451
v -0.0112581 0.0243745 -0.01279451
v 0.004618111 0.03397587 0.001092581
v -0.03125051 0.02074639 0.001118665
v -0.03125051 0.02074639 0.001118665
v 0.004618111 0.03397587 0.001092581
v -0.01443224 0.0243745 0.01503104
v -0.01443224 0.0243745 0.01503104
v 0.004618111 0.03397587 0.001092581
v -0.002597868 0.0243745 0.02474731
v -0.002597868 0.0243745 0.02474731
v 0.004618111 0.03397587 0.001092581
v 0.0187362 0.0243745 0.03256941
v 0.0187362 0.0243745 0.03256941
v 0.004618111 0.03397587 0.001092581
v 0.02386616 0.0243745 0.01503106
v 0.02386616 0.0243745 0.01503106
v 0.004618111 0.03397587 0.001092581
v 0.02503833 0.02074639 0.001118713
v 0.02503833 0.02074639 0.001118713
v 0.004618111 0.03397587 0.001092581
v 0.03224654 0.0243745 -0.01614644

vn 0.1389013 -0.9818565 -0.1290865
vn 0.001473239 -0.9999981 0.0007898688
vn 0.2011487 -0.9784296 0.04705009
vn 0.01001213 -0.9810984 -0.1932479
vn -0.1786352 -0.9602381 -0.2145489
vn -0.2232752 -0.964273 -0.1425647
vn -0.2507578 -0.9679795 -0.01162598
vn -0.1932144 -0.9703189 0.1454243
vn -0.03513893 -0.9818346 0.1864539
vn 0.236378 -0.9585599 0.1590201
vn 0.2943839 -0.9154217 0.2744822
vn 0.6536071 -0.703926 -0.2780029
vn 0.653607 -0.703926 -0.2780029
vn 0.6536071 -0.703926 -0.2780028
vn 0.653607 -0.703926 -0.2780029
vn 0.2912565 -0.7031067 -0.6486986
vn 0.2912565 -0.7031068 -0.6486986
vn 0.2912565 -0.7031067 -0.6486986
vn 0.2912565 -0.7031068 -0.6486987
vn -0.4228849 -0.6620905 -0.6187115
vn -0.4228849 -0.6620905 -0.6187116
vn -0.4228849 -0.6620905 -0.6187115
vn -0.4228849 -0.6620905 -0.6187116
vn -0.2952181 -0.6863981 -0.6646077
vn -0.2952182 -0.686398 -0.6646078
vn -0.2952182 -0.686398 -0.6646078
vn -0.2952182 -0.686398 -0.6646077
vn -0.7173096 -0.6953633 0.04400098
vn -0.7173096 -0.6953633 0.04400098
vn -0.7173097 -0.6953633 0.04400095
vn -0.7173097 -0.6953633 0.04400098
vn -0.6527536 -0.7039658 0.2799004
vn -0.6527537 -0.7039658 0.2799004
vn -0.6527536 -0.7039658 0.2799004
vn -0.6527536 -0.7039658 0.2799004
vn -0.4919038 -0.6928934 0.5271894
vn -0.4919038 -0.6928935 0.5271894
vn -0.4919038 -0.6928935 0.5271895
vn -0.4919038 -0.6928934 0.5271894
vn 0.4001538 -0.6678943 0.6275299
vn 0.4001537 -0.6678943 0.6275298
vn 0.4001537 -0.6678943 0.6275298
vn 0.4001538 -0.6678943 0.6275299
vn 0.6547369 -0.6790237 0.3320329
vn 0.6547369 -0.6790238 0.3320329
vn 0.6547369 -0.6790237 0.3320329
vn 0.6547369 -0.6790237 0.3320329
vn 0.5341064 -0.6155775 0.5794775
vn 0.5341065 -0.6155773 0.5794775
vn 0.5341064 -0.6155775 0.5794775
vn 0.5341064 -0.6155774 0.5794775
vn 0.9187785 -1.958229E-16 -0.3947732
vn 0.9187786 -1.958229E-16 -0.3947732
vn 0.9187786 -1.958229E-16 -0.3947732
vn 0.9187785 -1.958229E-16 -0.3947732
vn 0.4176056 -4.116195E-17 -0.9086283
vn 0.4176056 -4.116195E-17 -0.9086283
vn 0.4176056 -4.116195E-17 -0.9086283
vn 0.4176056 -4.116195E-17 -0.9086283
vn -0.5169864 1.809255E-16 -0.8559935
vn -0.5169864 1.809255E-16 -0.8559935
vn -0.5169864 1.809255E-16 -0.8559935
vn -0.5169864 1.809255E-16 -0.8559935
vn -0.3830394 1.530451E-16 -0.9237319
vn -0.3830395 1.530452E-16 -0.9237319
vn -0.3830394 1.530451E-16 -0.9237319
vn -0.3830394 1.530451E-16 -0.9237319
vn -0.9951736 2.337223E-16 0.09812987
vn -0.9951736 2.337223E-16 0.09812987
vn -0.9951736 2.337223E-16 0.09812999
vn -0.9951736 2.337223E-16 0.09812987
vn -0.9172109 1.952064E-16 0.398402
vn -0.9172109 1.952064E-16 0.398402
vn -0.9172109 1.952064E-16 0.398402
vn -0.9172109 1.952064E-16 0.398402
vn -0.6634687 1.110208E-16 0.7482039
vn -0.6634687 1.110208E-16 0.7482039
vn -0.6634687 1.110208E-16 0.7482039
vn -0.6634687 1.110208E-16 0.7482039
vn 0.4932572 -1.761104E-16 0.8698835
vn 0.4932572 -1.761104E-16 0.8698835
vn 0.4932572 -1.761104E-16 0.8698835
vn 0.4932572 -1.761104E-16 0.8698835
vn 0.8338726 -2.374498E-16 0.5519568
vn 0.8338726 -2.374498E-16 0.5519568
vn 0.8338726 -2.374498E-16 0.5519568
vn 0.8338726 -2.374498E-16 0.5519568
vn 0.760336 -2.261055E-16 0.6495299
vn 0.760336 -2.261055E-16 0.6495299
vn 0.760336 -2.261055E-16 0.6495299
vn 0.760336 -2.261055E-16 0.6495299
vn 0.8987242 0.2127569 -0.383444
vn 0.8987241 0.212757 -0.383444
vn 0.8987241 0.212757 -0.383444
vn 0.8987241 0.212757 -0.383444
vn 0.4018628 0.2212333 -0.8885729
vn 0.4018628 0.2212333 -0.8885729
vn 0.4018628 0.2212333 -0.8885729
vn 0.4018628 0.2212333 -0.8885729
vn -0.5311072 0.2588965 -0.8067822
vn -0.5311072 0.2588965 -0.8067822
vn -0.5311072 0.2588965 -0.8067822
vn -0.5311072 0.2588964 -0.8067822
vn -0.3400908 0.2546347 -0.905262
vn -0.3400907 0.2546347 -0.905262
vn -0.3400908 0.2546347 -0.905262
vn -0.3400908 0.2546347 -0.9052619
vn -0.9617427 0.2437819 0.1249854
vn -0.9617427 0.2437819 0.1249854
vn -0.9617426 0.2437819 0.1249854
vn -0.9617427 0.2437818 0.1249854
vn -0.8811424 0.2822602 0.3793639
vn -0.8811425 0.2822602 0.3793638
vn -0.8811425 0.2822602 0.3793638
vn -0.8811425 0.2822602 0.3793638
vn -0.6563497 0.2423859 0.7144607
vn -0.6563496 0.2423859 0.7144607
vn -0.6563497 0.2423859 0.7144607
vn -0.6563497 0.2423859 0.7144607
vn 0.5142385 0.1930068 0.8356477
vn 0.5142385 0.1930068 0.8356477
vn 0.5142384 0.1930068 0.8356477
vn 0.5142385 0.1930068 0.8356477
vn 0.816453 0.2371581 0.5264602
vn 0.8164531 0.237158 0.5264602
vn 0.8164531 0.237158 0.5264602
vn 0.8164531 0.237158 0.5264602
vn 0.7267389 0.178262 0.66338
vn 0.7267389 0.178262 0.66338
vn 0.7267389 0.178262 0.66338
vn 0.7267389 0.178262 0.66338
vn 0.5052223 0.8368363 -0.2108425
vn 0.5052224 0.8368363 -0.2108425
vn 0.5052223 0.8368363 -0.2108425
vn 0.5052224 0.8368363 -0.2108425
vn 0.09070659 0.8884321 -0.4499555
vn 0.09070659 0.888432 -0.4499555
vn 0.09070659 0.8884321 -0.4499555
vn 0.09070661 0.8884321 -0.4499554
vn -0.2438859 0.8693341 -0.4298569
vn -0.2438859 0.8693341 -0.4298569
vn -0.2438859 0.8693341 -0.4298569
vn -0.2438859 0.8693341 -0.4298569
vn -0.2111802 0.8049011 -0.5545596
vn -0.2111802 0.8049012 -0.5545596
vn -0.2111802 0.8049012 -0.5545596
vn -0.2111802 0.8049012 -0.5545596
vn -0.5716282 0.8185277 0.0570334
vn -0.5716282 0.8185278 0.05703343
vn -0.5716283 0.8185277 0.05703342
vn -0.5716282 0.8185277 0.0570334
vn -0.5252195 0.8222617 0.2191564
vn -0.5252196 0.8222616 0.2191564
vn -0.5252196 0.8222616 0.2191564
vn -0.5252196 0.8222616 0.2191564
vn -0.4129462 0.8172351 0.4019969
vn -0.4129461 0.8172351 0.4019969
vn -0.4129461 0.8172351 0.4019969
vn -0.4129461 0.8172351 0.4019969
vn 0.3753605 0.7962339 0.4744632
vn 0.3753605 0.7962339 0.4744632
vn 0.3753605 0.7962339 0.4744632
vn 0.3753605 0.7962339 0.4744632
vn 0.5611492 0.7985128 0.2179178
vn 0.5611491 0.7985129 0.2179177
vn 0.5611491 0.7985129 0.2179177
vn 0.5611492 0.7985128 0.2179178
vn 0.3939152 0.7325382 0.5551738
vn 0.3939152 0.7325383 0.5551737
vn 0.3939152 0.7325382 0.5551738
vn 0.3939152 0.7325382 0.5551738
vn 0.2754888 0.9546864 -0.1126
vn 0.2754888 0.9546864 -0.1126001
vn 0.2754888 0.9546864 -0.1126
vn -0.05988988 0.9181485 -0.3916831
vn -0.05988987 0.9181485 -0.3916831
vn -0.05988985 0.9181485 -0.3916831
vn -0.1152005 0.909752 -0.3988476
vn -0.1152005 0.909752 -0.3988476
vn -0.1152005 0.909752 -0.3988476
vn -0.1768088 0.9095347 -0.3761442
vn -0.1768089 0.9095347 -0.3761442
vn -0.1768089 0.9095347 -0.3761442
vn -0.3810677 0.9244463 -0.01361994
vn -0.3810677 0.9244463 -0.01361991
vn -0.3810677 0.9244463 -0.01361994
vn -0.3591989 0.921985 0.1446338
vn -0.3591989 0.921985 0.1446338
vn -0.3591989 0.921985 0.1446338
vn -0.2727599 0.9320196 0.2386222
vn -0.2727599 0.9320196 0.2386222
vn -0.2727598 0.9320196 0.2386222
vn 0.2787881 0.9190343 0.2786614
vn 0.2787882 0.9190343 0.2786615
vn 0.2787882 0.9190342 0.2786615
vn 0.5519673 0.8268817 0.1076941
vn 0.5519673 0.8268817 0.107694
vn 0.5519673 0.8268818 0.107694
vn 0.2625932 0.778574 0.5699708
vn 0.2625932 0.778574 0.5699708
vn 0.2625932 0.778574 0.5699708

vt 0.5482839 0.007647395
vt 0.5 0.15
vt 0.6264089 0.06440853
vt 0.4517161 0.00764741
vt 0.3735911 0.06440856
vt 0.34375 0.15625
vt 0.3735911 0.2480915
vt 0.4517161 0.3048526
vt 0.5482839 0.3048526
vt 0.6264089 0.2480914
vt 0.65625 0.15625
vt 0 0
vt 0 1
vt 1 1
vt 1 0
vt 0 0
vt 0 1
vt 1 1
vt 1 0
vt 0 0
vt 0 1
vt 1 1
vt 1 0
vt 0 0
vt 0 1
vt 1 1
vt 1 0
vt 0 0
vt 0 1
vt 1 1
vt 1 0
vt 0 0
vt 0 1
vt 1 1
vt 1 0
vt 0 0
vt 0 1
vt 1 1
vt 1 0
vt 0 0
vt 0 1
vt 1 1
vt 1 0
vt 0 0
vt 0 1
vt 1 1
vt 1 0
vt 0 0
vt 0 1
vt 1 1
vt 1 0
vt 0 0
vt 0 1
vt 1 1
vt 1 0
vt 0 0
vt 0 1
vt 1 1
vt 1 0
vt 0 0
vt 0 1
vt 1 1
vt 1 0
vt 0 0
vt 0 1
vt 1 1
vt 1 0
vt 0 0
vt 0 1
vt 1 1
vt 1 0
vt 0 0
vt 0 1
vt 1 1
vt 1 0
vt 0 0
vt 0 1
vt 1 1
vt 1 0
vt 0 0
vt 0 1
vt 1 1
vt 1 0
vt 0 0
vt 0 1
vt 1 1
vt 1 0
vt 0 0
vt 0 1
vt 1 1
vt 1 0
vt 0 0
vt 0 1
vt 1 1
vt 1 0
vt 0 0
vt 0 1
vt 1 1
vt 1 0
vt 0 0
vt 0 1
vt 1 1
vt 1 0
vt 0 0
vt 0 1
vt 1 1
vt 1 0
vt 0 0
vt 0 1
vt 1 1
vt 1 0
vt 0 0
vt 0 1
vt 1 1
vt 1 0
vt 0 0
vt 0 1
vt 1 1
vt 1 0
vt 0 0
vt 0 1
vt 1 1
vt 1 0
vt 0 0
vt 0 1
vt 1 1
vt 1 0
vt 0 0
vt 0 1
vt 1 1
vt 1 0
vt 0 0
vt 0 1
vt 1 1
vt 1 0
vt 0 0
vt 0 1
vt 1 1
vt 1 0
vt 0 0
vt 0 1
vt 1 1
vt 1 0
vt 0 0
vt 0 1
vt 1 1
vt 1 0
vt 0 0
vt 0 1
vt 1 1
vt 1 0
vt 0 0
vt 0 1
vt 1 1
vt 1 0
vt 0 0
vt 0 1
vt 1 1
vt 1 0
vt 0 0
vt 0 1
vt 1 1
vt 1 0
vt 0 0
vt 0 1
vt 1 1
vt 1 0
vt 0 0
vt 0 1
vt 1 1
vt 1 0
vt 0 0
vt 0.5 1
vt 1 0
vt 0 0
vt 0.5 1
vt 1 0
vt 0 0
vt 0.5 1
vt 1 0
vt 0 0
vt 0.5 1
vt 1 0
vt 0 0
vt 0.5 1
vt 1 0
vt 0 0
vt 0.5 1
vt 1 0
vt 0 0
vt 0.5 1
vt 1 0
vt 0 0
vt 0.5 1
vt 1 0
vt 0 0
vt 0.5 1
vt 1 0
vt 0 0
vt 0.5 1
vt 1 0

g pCylinder18_17_3598_305
usemtl pCylinder18_17_3598_305
usemap pCylinder18_17_3598_305
f 1/1/1 3/3/3 2/2/2
f 4/4/4 1/1/1 2/2/2
f 5/5/5 4/4/4 2/2/2
f 6/6/6 5/5/5 2/2/2
f 7/7/7 6/6/6 2/2/2
f 8/8/8 7/7/7 2/2/2
f 9/9/9 8/8/8 2/2/2
f 10/10/10 9/9/9 2/2/2
f 11/11/11 10/10/10 2/2/2
f 3/3/3 11/11/11 2/2/2
f 12/12/12 14/14/14 13/13/13
f 12/12/12 15/15/15 14/14/14
f 16/16/16 18/18/18 17/17/17
f 16/16/16 19/19/19 18/18/18
f 20/20/20 22/22/22 21/21/21
f 20/20/20 23/23/23 22/22/22
f 24/24/24 26/26/26 25/25/25
f 24/24/24 27/27/27 26/26/26
f 28/28/28 30/30/30 29/29/29
f 28/28/28 31/31/31 30/30/30
f 32/32/32 34/34/34 33/33/33
f 32/32/32 35/35/35 34/34/34
f 36/36/36 38/38/38 37/37/37
f 36/36/36 39/39/39 38/38/38
f 40/40/40 42/42/42 41/41/41
f 40/40/40 43/43/43 42/42/42
f 44/44/44 46/46/46 45/45/45
f 44/44/44 47/47/47 46/46/46
f 48/48/48 50/50/50 49/49/49
f 48/48/48 51/51/51 50/50/50
f 52/52/52 54/54/54 53/53/53
f 52/52/52 55/55/55 54/54/54
f 56/56/56 58/58/58 57/57/57
f 56/56/56 59/59/59 58/58/58
f 60/60/60 62/62/62 61/61/61
f 60/60/60 63/63/63 62/62/62
f 64/64/64 66/66/66 65/65/65
f 64/64/64 67/67/67 66/66/66
f 68/68/68 70/70/70 69/69/69
f 68/68/68 71/71/71 70/70/70
f 72/72/72 74/74/74 73/73/73
f 72/72/72 75/75/75 74/74/74
f 76/76/76 78/78/78 77/77/77
f 76/76/76 79/79/79 78/78/78
f 80/80/80 82/82/82 81/81/81
f 80/80/80 83/83/83 82/82/82
f 84/84/84 86/86/86 85/85/85
f 84/84/84 87/87/87 86/86/86
f 88/88/88 90/90/90 89/89/89
f 88/88/88 91/91/91 90/90/90
f 92/92/92 94/94/94 93/93/93
f 92/92/92 95/95/95 94/94/94
f 96/96/96 98/98/98 97/97/97
f 96/96/96 99/99/99 98/98/98
f 100/100/100 102/102/102 101/101/101
f 100/100/100 103/103/103 102/102/102
f 104/104/104 106/106/106 105/105/105
f 104/104/104 107/107/107 106/106/106
f 108/108/108 110/110/110 109/109/109
f 108/108/108 111/111/111 110/110/110
f 112/112/112 114/114/114 113/113/113
f 112/112/112 115/115/115 114/114/114
f 116/116/116 118/118/118 117/117/117
f 116/116/116 119/119/119 118/118/118
f 120/120/120 122/122/122 121/121/121
f 120/120/120 123/123/123 122/122/122
f 124/124/124 126/126/126 125/125/125
f 124/124/124 127/127/127 126/126/126
f 128/128/128 130/130/130 129/129/129
f 128/128/128 131/131/131 130/130/130
f 132/132/132 134/134/134 133/133/133
f 132/132/132 135/135/135 134/134/134
f 136/136/136 138/138/138 137/137/137
f 136/136/136 139/139/139 138/138/138
f 140/140/140 142/142/142 141/141/141
f 140/140/140 143/143/143 142/142/142
f 144/144/144 146/146/146 145/145/145
f 144/144/144 147/147/147 146/146/146
f 148/148/148 150/150/150 149/149/149
f 148/148/148 151/151/151 150/150/150
f 152/152/152 154/154/154 153/153/153
f 152/152/152 155/155/155 154/154/154
f 156/156/156 158/158/158 157/157/157
f 156/156/156 159/159/159 158/158/158
f 160/160/160 162/162/162 161/161/161
f 160/160/160 163/163/163 162/162/162
f 164/164/164 166/166/166 165/165/165
f 164/164/164 167/167/167 166/166/166
f 168/168/168 170/170/170 169/169/169
f 168/168/168 171/171/171 170/170/170
f 172/172/172 174/174/174 173/173/173
f 175/175/175 177/177/177 176/176/176
f 178/178/178 180/180/180 179/179/179
f 181/181/181 183/183/183 182/182/182
f 184/184/184 186/186/186 185/185/185
f 187/187/187 189/189/189 188/188/188
f 190/190/190 192/192/192 191/191/191
f 193/193/193 195/195/195 194/194/194
f 196/196/196 198/198/198 197/197/197
f 199/199/199 201/201/201 200/200/200
