#pCylinder17_2_3920_272.obj

v 0.0145458 -0.025776 -0.04035769
v 0.004624295 -0.03397645 0.001091905
v 0.03878487 -0.025776 -0.02105413
v -0.009663007 -0.025776 -0.03817481
v -0.01825044 -0.025776 -0.01777989
v -0.03822176 -0.02223236 0.001091993
v -0.02135046 -0.025776 0.01996371
v -0.005297272 -0.025776 0.03271852
v 0.02109439 -0.025776 0.04035886
v 0.03059888 -0.025776 0.01996374
v 0.03218979 -0.02223236 0.001091939
v 0.03878487 -0.025776 -0.02105413
v 0.04796723 -0.014893 -0.02772555
v 0.01805308 -0.014893 -0.05115231
v 0.0145458 -0.025776 -0.04035769
v 0.0145458 -0.025776 -0.04035769
v 0.01805308 -0.014893 -0.05115231
v -0.01317039 -0.014893 -0.04896932
v -0.009663007 -0.025776 -0.03817481
v -0.009663007 -0.025776 -0.03817481
v -0.01317039 -0.014893 -0.04896932
v -0.02743284 -0.014893 -0.02445126
v -0.01825044 -0.025776 -0.01777989
v -0.01825044 -0.025776 -0.01777989
v -0.02743284 -0.014893 -0.02445126
v -0.04796644 -0.01288889 0.001092013
v -0.03822176 -0.02223236 0.001091993
v -0.03822176 -0.02223236 0.001091993
v -0.04796644 -0.01288889 0.001092013
v -0.03053281 -0.014893 0.02663512
v -0.02135046 -0.025776 0.01996371
v -0.02135046 -0.025776 0.01996371
v -0.03053281 -0.014893 0.02663512
v -0.008804552 -0.014893 0.04351313
v -0.005297272 -0.025776 0.03271852
v -0.005297272 -0.025776 0.03271852
v -0.008804552 -0.014893 0.04351313
v 0.02460171 -0.014893 0.05115321
v 0.02109439 -0.025776 0.04035886
v 0.02109439 -0.025776 0.04035886
v 0.02460171 -0.014893 0.05115321
v 0.03978133 -0.014893 0.02663527
v 0.03059888 -0.025776 0.01996374
v 0.03059888 -0.025776 0.01996374
v 0.03978133 -0.014893 0.02663527
v 0.0419347 -0.01288889 0.001092024
v 0.03218979 -0.02223236 0.001091939
v 0.03218979 -0.02223236 0.001091939
v 0.0419347 -0.01288889 0.001092024
v 0.04796723 -0.014893 -0.02772555
v 0.03878487 -0.025776 -0.02105413
v 0.04796723 -0.014893 -0.02772555
v 0.04796723 -0.0001490029 -0.02772555
v 0.01805308 -0.0001490029 -0.05115231
v 0.01805308 -0.014893 -0.05115231
v 0.01805308 -0.014893 -0.05115231
v 0.01805308 -0.0001490029 -0.05115231
v -0.01317039 -0.0001490029 -0.04896932
v -0.01317039 -0.014893 -0.04896932
v -0.01317039 -0.014893 -0.04896932
v -0.01317039 -0.0001490029 -0.04896932
v -0.02743284 -0.0001490029 -0.02445126
v -0.02743284 -0.014893 -0.02445126
v -0.02743284 -0.014893 -0.02445126
v -0.02743284 -0.0001490029 -0.02445126
v -0.04796644 -0.000229556 0.001092013
v -0.04796644 -0.01288889 0.001092013
v -0.04796644 -0.01288889 0.001092013
v -0.04796644 -0.000229556 0.001092013
v -0.03053281 -0.0001490029 0.02663512
v -0.03053281 -0.014893 0.02663512
v -0.03053281 -0.014893 0.02663512
v -0.03053281 -0.0001490029 0.02663512
v -0.008804552 -0.0001490029 0.04351313
v -0.008804552 -0.014893 0.04351313
v -0.008804552 -0.014893 0.04351313
v -0.008804552 -0.0001490029 0.04351313
v 0.02460171 -0.0001490029 0.05115321
v 0.02460171 -0.014893 0.05115321
v 0.02460171 -0.014893 0.05115321
v 0.02460171 -0.0001490029 0.05115321
v 0.03978133 -0.0001490029 0.02663527
v 0.03978133 -0.014893 0.02663527
v 0.03978133 -0.014893 0.02663527
v 0.03978133 -0.0001490029 0.02663527
v 0.0419347 -0.000229556 0.001092024
v 0.0419347 -0.01288889 0.001092024
v 0.0419347 -0.01288889 0.001092024
v 0.0419347 -0.000229556 0.001092024
v 0.04796723 -0.0001490029 -0.02772555
v 0.04796723 -0.014893 -0.02772555
v 0.04796723 -0.0001490029 -0.02772555
v 0.04568935 0.0142832 -0.02539629
v 0.01714552 0.0142832 -0.04799079
v 0.01805308 -0.0001490029 -0.05115231
v 0.01805308 -0.0001490029 -0.05115231
v 0.01714552 0.0142832 -0.04799079
v -0.01182875 0.0142832 -0.04559716
v -0.01317039 -0.0001490029 -0.04896932
v -0.01317039 -0.0001490029 -0.04896932
v -0.01182875 0.0142832 -0.04559716
v -0.02320984 0.0142832 -0.02180584
v -0.02743284 -0.0001490029 -0.02445126
v -0.02743284 -0.0001490029 -0.02445126
v -0.02320984 0.0142832 -0.02180584
v -0.04530365 0.01197146 0.001197286
v -0.04796644 -0.000229556 0.001092013
v -0.04796644 -0.000229556 0.001092013
v -0.04530365 0.01197146 0.001197286
v -0.02660926 0.0142832 0.02420058
v -0.03053281 -0.0001490029 0.02663512
v -0.03053281 -0.0001490029 0.02663512
v -0.02660926 0.0142832 0.02420058
v -0.007041485 0.0142832 0.03961411
v -0.008804552 -0.0001490029 0.04351313
v -0.008804552 -0.0001490029 0.04351313
v -0.007041485 0.0142832 0.03961411
v 0.02432629 0.0142832 0.04799182
v 0.02460171 -0.0001490029 0.05115321
v 0.02460171 -0.0001490029 0.05115321
v 0.02432629 0.0142832 0.04799182
v 0.03671317 0.0142832 0.0242006
v 0.03978133 -0.0001490029 0.02663527
v 0.03978133 -0.0001490029 0.02663527
v 0.03671317 0.0142832 0.0242006
v 0.03865232 0.01197146 0.001197305
v 0.0419347 -0.000229556 0.001092024
v 0.0419347 -0.000229556 0.001092024
v 0.03865232 0.01197146 0.001197305
v 0.04568935 0.0142832 -0.02539629
v 0.04796723 -0.0001490029 -0.02772555
v 0.04568935 0.0142832 -0.02539629
v 0.03225281 0.02437386 -0.01614705
v 0.01203682 0.02437386 -0.03256801
v 0.01714552 0.0142832 -0.04799079
v 0.01714552 0.0142832 -0.04799079
v 0.01203682 0.02437386 -0.03256801
v -0.002591822 0.02437386 -0.02139326
v -0.01182875 0.0142832 -0.04559716
v -0.01182875 0.0142832 -0.04559716
v -0.002591822 0.02437386 -0.02139326
v -0.01125272 0.02437386 -0.01279475
v -0.02320984 0.0142832 -0.02180584
v -0.02320984 0.0142832 -0.02180584
v -0.01125272 0.02437386 -0.01279475
v -0.03124424 0.0207462 0.001118008
v -0.04530365 0.01197146 0.001197286
v -0.04530365 0.01197146 0.001197286
v -0.03124424 0.0207462 0.001118008
v -0.01442681 0.02437386 0.01503078
v -0.02660926 0.0142832 0.02420058
v -0.02660926 0.0142832 0.02420058
v -0.01442681 0.02437386 0.01503078
v -0.002591813 0.02437386 0.02474669
v -0.007041485 0.0142832 0.03961411
v -0.007041485 0.0142832 0.03961411
v -0.002591813 0.02437386 0.02474669
v 0.01874168 0.02437386 0.03256908
v 0.02432629 0.0142832 0.04799182
v 0.02432629 0.0142832 0.04799182
v 0.01874168 0.02437386 0.03256908
v 0.02387181 0.02437386 0.01503079
v 0.03671317 0.0142832 0.0242006
v 0.03671317 0.0142832 0.0242006
v 0.02387181 0.02437386 0.01503079
v 0.02504453 0.0207462 0.001118066
v 0.03865232 0.01197146 0.001197305
v 0.03865232 0.01197146 0.001197305
v 0.02504453 0.0207462 0.001118066
v 0.03225281 0.02437386 -0.01614705
v 0.04568935 0.0142832 -0.02539629
v 0.03225281 0.02437386 -0.01614705
v 0.004624295 0.03397565 0.001091905
v 0.01203682 0.02437386 -0.03256801
v 0.01203682 0.02437386 -0.03256801
v 0.004624295 0.03397565 0.001091905
v -0.002591822 0.02437386 -0.02139326
v -0.002591822 0.02437386 -0.02139326
v 0.004624295 0.03397565 0.001091905
v -0.01125272 0.02437386 -0.01279475
v -0.01125272 0.02437386 -0.01279475
v 0.004624295 0.03397565 0.001091905
v -0.03124424 0.0207462 0.001118008
v -0.03124424 0.0207462 0.001118008
v 0.004624295 0.03397565 0.001091905
v -0.01442681 0.02437386 0.01503078
v -0.01442681 0.02437386 0.01503078
v 0.004624295 0.03397565 0.001091905
v -0.002591813 0.02437386 0.02474669
v -0.002591813 0.02437386 0.02474669
v 0.004624295 0.03397565 0.001091905
v 0.01874168 0.02437386 0.03256908
v 0.01874168 0.02437386 0.03256908
v 0.004624295 0.03397565 0.001091905
v 0.02387181 0.02437386 0.01503079
v 0.02387181 0.02437386 0.01503079
v 0.004624295 0.03397565 0.001091905
v 0.02504453 0.0207462 0.001118066
v 0.02504453 0.0207462 0.001118066
v 0.004624295 0.03397565 0.001091905
v 0.03225281 0.02437386 -0.01614705

vn -0.1494151 -0.9818565 -0.1167562
vn 0.0005471263 -0.9999982 -0.00157955
vn 0.01467119 -0.9784297 -0.2060565
vn -0.1924018 -0.9810984 0.02065277
vn -0.183623 -0.9602382 0.2102958
vn -0.1054889 -0.9642731 0.2429992
vn 0.02814756 -0.9679796 0.2494441
vn 0.1741308 -0.970319 0.167805
vn 0.189664 -0.9818347 0.005231928
vn 0.1196669 -0.9585599 -0.2585378
vn 0.2245114 -0.9154217 -0.3340613
vn -0.3777996 -0.703926 -0.601461
vn -0.3777996 -0.703926 -0.6014609
vn -0.3777995 -0.703926 -0.6014609
vn -0.3777996 -0.703926 -0.6014609
vn -0.6865747 -0.7031067 -0.1850823
vn -0.6865747 -0.7031068 -0.1850823
vn -0.6865747 -0.7031067 -0.1850823
vn -0.6865748 -0.7031068 -0.1850823
vn -0.5441081 -0.6620906 0.5153464
vn -0.5441082 -0.6620905 0.5153465
vn -0.5441081 -0.6620906 0.5153464
vn -0.5441082 -0.6620905 0.5153465
vn -0.6096028 -0.6863981 0.3965369
vn -0.6096029 -0.6863981 0.396537
vn -0.6096029 -0.6863981 0.3965369
vn -0.6096028 -0.6863981 0.396537
vn 0.156805 -0.6953633 0.7013425
vn 0.156805 -0.6953633 0.7013425
vn 0.156805 -0.6953633 0.7013426
vn 0.1568051 -0.6953633 0.7013426
vn 0.3795384 -0.7039658 0.6003183
vn 0.3795384 -0.7039658 0.6003184
vn 0.3795384 -0.7039658 0.6003183
vn 0.3795384 -0.7039658 0.6003183
vn 0.5983008 -0.6928934 0.4024104
vn 0.5983008 -0.6928935 0.4024105
vn 0.5983008 -0.6928935 0.4024105
vn 0.5983008 -0.6928934 0.4024104
vn 0.5564078 -0.6678944 -0.4942945
vn 0.5564078 -0.6678944 -0.4942945
vn 0.5564078 -0.6678944 -0.4942945
vn 0.5564078 -0.6678944 -0.4942946
vn 0.2243921 -0.6790238 -0.6989809
vn 0.2243921 -0.6790239 -0.6989809
vn 0.2243921 -0.6790238 -0.6989809
vn 0.2243921 -0.6790238 -0.6989809
vn 0.4877907 -0.6155775 -0.6189702
vn 0.4877907 -0.6155774 -0.6189702
vn 0.4877907 -0.6155775 -0.6189702
vn 0.4877907 -0.6155775 -0.6189702
vn -0.5350078 5.347077E-17 -0.844847
vn -0.5350078 5.347077E-17 -0.8448471
vn -0.5350078 5.347077E-17 -0.8448471
vn -0.5350078 5.347077E-17 -0.844847
vn -0.9632052 1.671204E-16 -0.2687669
vn -0.9632052 1.671204E-16 -0.2687669
vn -0.9632052 1.671204E-16 -0.2687669
vn -0.9632052 1.671204E-16 -0.2687669
vn -0.7635375 1.810697E-16 0.6457633
vn -0.7635375 1.810697E-16 0.6457633
vn -0.7635375 1.810697E-16 0.6457633
vn -0.7635375 1.810697E-16 0.6457633
vn -0.8515924 1.908599E-16 0.5242043
vn -0.8515924 1.908599E-16 0.5242043
vn -0.8515924 1.908599E-16 0.5242043
vn -0.8515924 1.908599E-16 0.5242043
vn 0.2541648 6.611297E-18 0.9671608
vn 0.2541648 6.611297E-18 0.9671608
vn 0.2541649 6.611284E-18 0.9671609
vn 0.2541648 6.611297E-18 0.9671608
vn 0.5383433 -5.422218E-17 0.8427256
vn 0.5383433 -5.422218E-17 0.8427256
vn 0.5383433 -5.422218E-17 0.8427256
vn 0.5383433 -5.422218E-17 0.8427256
vn 0.8436506 -1.293188E-16 0.5368924
vn 0.8436506 -1.293188E-16 0.5368924
vn 0.8436506 -1.293188E-16 0.5368924
vn 0.8436506 -1.293188E-16 0.5368924
vn 0.7810029 -1.831742E-16 -0.6245273
vn 0.7810029 -1.831742E-16 -0.6245273
vn 0.7810029 -1.831742E-16 -0.6245273
vn 0.7810029 -1.831742E-16 -0.6245273
vn 0.4132435 -1.297475E-16 -0.9106205
vn 0.4132435 -1.297475E-16 -0.9106205
vn 0.4132435 -1.297475E-16 -0.9106205
vn 0.4132435 -1.297475E-16 -0.9106205
vn 0.5212116 -1.46949E-16 -0.8534274
vn 0.5212116 -1.46949E-16 -0.8534274
vn 0.5212116 -1.46949E-16 -0.8534274
vn 0.5212116 -1.46949E-16 -0.8534274
vn -0.5206518 0.212757 -0.826835
vn -0.5206517 0.212757 -0.8268349
vn -0.5206517 0.212757 -0.8268349
vn -0.5206517 0.212757 -0.8268349
vn -0.940914 0.2212333 -0.2563913
vn -0.940914 0.2212333 -0.2563913
vn -0.940914 0.2212333 -0.2563913
vn -0.940914 0.2212333 -0.2563913
vn -0.7127131 0.2588965 0.6519298
vn -0.7127131 0.2588965 0.6519299
vn -0.7127131 0.2588965 0.6519298
vn -0.7127131 0.2588965 0.6519298
vn -0.8401419 0.2546348 0.4788765
vn -0.8401419 0.2546348 0.4788764
vn -0.8401419 0.2546347 0.4788765
vn -0.8401418 0.2546348 0.4788765
vn 0.2753998 0.2437819 0.9299061
vn 0.2753998 0.2437819 0.9299061
vn 0.2753997 0.2437819 0.9299061
vn 0.2753998 0.2437819 0.9299061
vn 0.5138444 0.2822602 0.810119
vn 0.5138444 0.2822602 0.810119
vn 0.5138444 0.2822602 0.810119
vn 0.5138444 0.2822602 0.810119
vn 0.8092062 0.2423859 0.5351954
vn 0.8092062 0.2423859 0.5351953
vn 0.8092062 0.2423859 0.5351954
vn 0.8092062 0.2423859 0.5351954
vn 0.7438816 0.1930068 -0.6398346
vn 0.7438816 0.1930068 -0.6398346
vn 0.7438816 0.1930069 -0.6398346
vn 0.7438816 0.1930069 -0.6398346
vn 0.3908201 0.2371581 -0.8893905
vn 0.3908201 0.2371581 -0.8893906
vn 0.3908201 0.2371581 -0.8893906
vn 0.3908201 0.237158 -0.8893906
vn 0.540197 0.178262 -0.8224412
vn 0.540197 0.178262 -0.8224413
vn 0.540197 0.178262 -0.8224412
vn 0.540197 0.178262 -0.8224412
vn -0.2880337 0.8368363 -0.4655542
vn -0.2880338 0.8368363 -0.4655542
vn -0.2880337 0.8368363 -0.4655542
vn -0.2880338 0.8368363 -0.4655542
vn -0.4586358 0.8884321 -0.01845999
vn -0.4586358 0.8884321 -0.01845999
vn -0.4586358 0.8884321 -0.01845999
vn -0.4586358 0.8884321 -0.01846002
vn -0.3859139 0.8693342 0.3087519
vn -0.385914 0.8693342 0.3087519
vn -0.3859139 0.8693342 0.3087519
vn -0.385914 0.8693342 0.3087519
vn -0.5142181 0.8049012 0.296164
vn -0.5142181 0.8049012 0.296164
vn -0.5142181 0.8049012 0.296164
vn -0.5142181 0.8049012 0.296164
vn 0.1466516 0.8185277 0.5554322
vn 0.1466516 0.8185278 0.5554322
vn 0.1466516 0.8185277 0.5554323
vn 0.1466516 0.8185277 0.5554322
vn 0.2994034 0.8222617 0.4839863
vn 0.2994033 0.8222616 0.4839863
vn 0.2994034 0.8222616 0.4839863
vn 0.2994033 0.8222616 0.4839863
vn 0.4622037 0.8172351 0.3442293
vn 0.4622037 0.8172351 0.3442293
vn 0.4622037 0.8172351 0.3442293
vn 0.4622037 0.8172351 0.3442293
vn 0.4091827 0.796234 -0.4456235
vn 0.4091827 0.796234 -0.4456236
vn 0.4091827 0.796234 -0.4456236
vn 0.4091827 0.796234 -0.4456236
vn 0.1265006 0.7985129 -0.5885356
vn 0.1265006 0.7985129 -0.5885355
vn 0.1265006 0.7985129 -0.5885355
vn 0.1265007 0.7985129 -0.5885356
vn 0.4859468 0.7325383 -0.4766999
vn 0.4859468 0.7325383 -0.4766999
vn 0.4859468 0.7325383 -0.4766999
vn 0.4859468 0.7325383 -0.4766999
vn -0.1547208 0.9546865 -0.2542328
vn -0.1547208 0.9546865 -0.2542328
vn -0.1547208 0.9546865 -0.2542328
vn -0.3772968 0.9181486 0.1210353
vn -0.3772969 0.9181486 0.1210353
vn -0.3772968 0.9181486 0.1210352
vn -0.3756305 0.909752 0.1767831
vn -0.3756306 0.909752 0.1767831
vn -0.3756305 0.909752 0.1767831
vn -0.3434764 0.9095348 0.2340294
vn -0.3434764 0.9095348 0.2340295
vn -0.3434764 0.9095348 0.2340295
vn 0.04677162 0.9244464 0.3784317
vn 0.04677163 0.9244464 0.3784316
vn 0.04677162 0.9244464 0.3784317
vn 0.1995808 0.921985 0.3318287
vn 0.1995808 0.9219851 0.3318287
vn 0.1995808 0.9219851 0.3318287
vn 0.2787282 0.9320197 0.2316228
vn 0.2787281 0.9320197 0.2316228
vn 0.2787281 0.9320197 0.2316228
vn 0.2311027 0.9190344 -0.319322
vn 0.2311028 0.9190344 -0.3193221
vn 0.2311028 0.9190343 -0.3193221
vn 0.01911299 0.8268817 -0.5620503
vn 0.01911297 0.8268817 -0.5620503
vn 0.01911297 0.8268818 -0.5620503
vn 0.5213108 0.778574 -0.3493665
vn 0.5213109 0.778574 -0.3493664
vn 0.5213109 0.778574 -0.3493664

vt 0.5483398 0.007648468
vt 0.5 0.1500244
vt 0.6264648 0.06439209
vt 0.4516602 0.007648468
vt 0.3735352 0.06439209
vt 0.34375 0.15625
vt 0.3735352 0.2480469
vt 0.4516602 0.3049316
vt 0.5483398 0.3049316
vt 0.6264648 0.2480469
vt 0.65625 0.15625
vt 0 0
vt 0 1
vt 1 1
vt 1 0
vt 0 0
vt 0 1
vt 1 1
vt 1 0
vt 0 0
vt 0 1
vt 1 1
vt 1 0
vt 0 0
vt 0 1
vt 1 1
vt 1 0
vt 0 0
vt 0 1
vt 1 1
vt 1 0
vt 0 0
vt 0 1
vt 1 1
vt 1 0
vt 0 0
vt 0 1
vt 1 1
vt 1 0
vt 0 0
vt 0 1
vt 1 1
vt 1 0
vt 0 0
vt 0 1
vt 1 1
vt 1 0
vt 0 0
vt 0 1
vt 1 1
vt 1 0
vt 0 0
vt 0 1
vt 1 1
vt 1 0
vt 0 0
vt 0 1
vt 1 1
vt 1 0
vt 0 0
vt 0 1
vt 1 1
vt 1 0
vt 0 0
vt 0 1
vt 1 1
vt 1 0
vt 0 0
vt 0 1
vt 1 1
vt 1 0
vt 0 0
vt 0 1
vt 1 1
vt 1 0
vt 0 0
vt 0 1
vt 1 1
vt 1 0
vt 0 0
vt 0 1
vt 1 1
vt 1 0
vt 0 0
vt 0 1
vt 1 1
vt 1 0
vt 0 0
vt 0 1
vt 1 1
vt 1 0
vt 0 0
vt 0 1
vt 1 1
vt 1 0
vt 0 0
vt 0 1
vt 1 1
vt 1 0
vt 0 0
vt 0 1
vt 1 1
vt 1 0
vt 0 0
vt 0 1
vt 1 1
vt 1 0
vt 0 0
vt 0 1
vt 1 1
vt 1 0
vt 0 0
vt 0 1
vt 1 1
vt 1 0
vt 0 0
vt 0 1
vt 1 1
vt 1 0
vt 0 0
vt 0 1
vt 1 1
vt 1 0
vt 0 0
vt 0 1
vt 1 1
vt 1 0
vt 0 0
vt 0 1
vt 1 1
vt 1 0
vt 0 0
vt 0 1
vt 1 1
vt 1 0
vt 0 0
vt 0 1
vt 1 1
vt 1 0
vt 0 0
vt 0 1
vt 1 1
vt 1 0
vt 0 0
vt 0 1
vt 1 1
vt 1 0
vt 0 0
vt 0 1
vt 1 1
vt 1 0
vt 0 0
vt 0 1
vt 1 1
vt 1 0
vt 0 0
vt 0 1
vt 1 1
vt 1 0
vt 0 0
vt 0 1
vt 1 1
vt 1 0
vt 0 0
vt 0 1
vt 1 1
vt 1 0
vt 0 0
vt 0 1
vt 1 1
vt 1 0
vt 0 0
vt 0.5 1
vt 1 0
vt 0 0
vt 0.5 1
vt 1 0
vt 0 0
vt 0.5 1
vt 1 0
vt 0 0
vt 0.5 1
vt 1 0
vt 0 0
vt 0.5 1
vt 1 0
vt 0 0
vt 0.5 1
vt 1 0
vt 0 0
vt 0.5 1
vt 1 0
vt 0 0
vt 0.5 1
vt 1 0
vt 0 0
vt 0.5 1
vt 1 0
vt 0 0
vt 0.5 1
vt 1 0

g pCylinder17_2_3920_272
usemtl pCylinder17_2_3920_272
usemap pCylinder17_2_3920_272
f 1/1/1 3/3/3 2/2/2
f 4/4/4 1/1/1 2/2/2
f 5/5/5 4/4/4 2/2/2
f 6/6/6 5/5/5 2/2/2
f 7/7/7 6/6/6 2/2/2
f 8/8/8 7/7/7 2/2/2
f 9/9/9 8/8/8 2/2/2
f 10/10/10 9/9/9 2/2/2
f 11/11/11 10/10/10 2/2/2
f 3/3/3 11/11/11 2/2/2
f 12/12/12 14/14/14 13/13/13
f 12/12/12 15/15/15 14/14/14
f 16/16/16 18/18/18 17/17/17
f 16/16/16 19/19/19 18/18/18
f 20/20/20 22/22/22 21/21/21
f 20/20/20 23/23/23 22/22/22
f 24/24/24 26/26/26 25/25/25
f 24/24/24 27/27/27 26/26/26
f 28/28/28 30/30/30 29/29/29
f 28/28/28 31/31/31 30/30/30
f 32/32/32 34/34/34 33/33/33
f 32/32/32 35/35/35 34/34/34
f 36/36/36 38/38/38 37/37/37
f 36/36/36 39/39/39 38/38/38
f 40/40/40 42/42/42 41/41/41
f 40/40/40 43/43/43 42/42/42
f 44/44/44 46/46/46 45/45/45
f 44/44/44 47/47/47 46/46/46
f 48/48/48 50/50/50 49/49/49
f 48/48/48 51/51/51 50/50/50
f 52/52/52 54/54/54 53/53/53
f 52/52/52 55/55/55 54/54/54
f 56/56/56 58/58/58 57/57/57
f 56/56/56 59/59/59 58/58/58
f 60/60/60 62/62/62 61/61/61
f 60/60/60 63/63/63 62/62/62
f 64/64/64 66/66/66 65/65/65
f 64/64/64 67/67/67 66/66/66
f 68/68/68 70/70/70 69/69/69
f 68/68/68 71/71/71 70/70/70
f 72/72/72 74/74/74 73/73/73
f 72/72/72 75/75/75 74/74/74
f 76/76/76 78/78/78 77/77/77
f 76/76/76 79/79/79 78/78/78
f 80/80/80 82/82/82 81/81/81
f 80/80/80 83/83/83 82/82/82
f 84/84/84 86/86/86 85/85/85
f 84/84/84 87/87/87 86/86/86
f 88/88/88 90/90/90 89/89/89
f 88/88/88 91/91/91 90/90/90
f 92/92/92 94/94/94 93/93/93
f 92/92/92 95/95/95 94/94/94
f 96/96/96 98/98/98 97/97/97
f 96/96/96 99/99/99 98/98/98
f 100/100/100 102/102/102 101/101/101
f 100/100/100 103/103/103 102/102/102
f 104/104/104 106/106/106 105/105/105
f 104/104/104 107/107/107 106/106/106
f 108/108/108 110/110/110 109/109/109
f 108/108/108 111/111/111 110/110/110
f 112/112/112 114/114/114 113/113/113
f 112/112/112 115/115/115 114/114/114
f 116/116/116 118/118/118 117/117/117
f 116/116/116 119/119/119 118/118/118
f 120/120/120 122/122/122 121/121/121
f 120/120/120 123/123/123 122/122/122
f 124/124/124 126/126/126 125/125/125
f 124/124/124 127/127/127 126/126/126
f 128/128/128 130/130/130 129/129/129
f 128/128/128 131/131/131 130/130/130
f 132/132/132 134/134/134 133/133/133
f 132/132/132 135/135/135 134/134/134
f 136/136/136 138/138/138 137/137/137
f 136/136/136 139/139/139 138/138/138
f 140/140/140 142/142/142 141/141/141
f 140/140/140 143/143/143 142/142/142
f 144/144/144 146/146/146 145/145/145
f 144/144/144 147/147/147 146/146/146
f 148/148/148 150/150/150 149/149/149
f 148/148/148 151/151/151 150/150/150
f 152/152/152 154/154/154 153/153/153
f 152/152/152 155/155/155 154/154/154
f 156/156/156 158/158/158 157/157/157
f 156/156/156 159/159/159 158/158/158
f 160/160/160 162/162/162 161/161/161
f 160/160/160 163/163/163 162/162/162
f 164/164/164 166/166/166 165/165/165
f 164/164/164 167/167/167 166/166/166
f 168/168/168 170/170/170 169/169/169
f 168/168/168 171/171/171 170/170/170
f 172/172/172 174/174/174 173/173/173
f 175/175/175 177/177/177 176/176/176
f 178/178/178 180/180/180 179/179/179
f 181/181/181 183/183/183 182/182/182
f 184/184/184 186/186/186 185/185/185
f 187/187/187 189/189/189 188/188/188
f 190/190/190 192/192/192 191/191/191
f 193/193/193 195/195/195 194/194/194
f 196/196/196 198/198/198 197/197/197
f 199/199/199 201/201/201 200/200/200
