#pCylinder18_8_3766_93.obj

v 0.01455002 -0.02577532 -0.04036092
v 0.00462832 -0.03397588 0.00108916
v 0.03878845 -0.02577532 -0.02105675
v -0.009658603 -0.02577532 -0.03817819
v -0.01824685 -0.02577532 -0.01778238
v -0.03821747 -0.02223202 0.001088687
v -0.02134631 -0.02577532 0.01996052
v -0.00529362 -0.02577532 0.0327156
v 0.02109839 -0.02577532 0.0403557
v 0.0306039 -0.02577532 0.01996055
v 0.03219353 -0.02223202 0.001089368
v 0.03878845 -0.02577532 -0.02105675
v 0.04797179 -0.01489216 -0.02772875
v 0.01805673 -0.01489216 -0.05115533
v 0.01455002 -0.02577532 -0.04036092
v 0.01455002 -0.02577532 -0.04036092
v 0.01805673 -0.01489216 -0.05115533
v -0.01316702 -0.01489216 -0.0489722
v -0.009658603 -0.02577532 -0.03817819
v -0.009658603 -0.02577532 -0.03817819
v -0.01316702 -0.01489216 -0.0489722
v -0.02742965 -0.01489216 -0.02445407
v -0.01824685 -0.02577532 -0.01778238
v -0.01824685 -0.02577532 -0.01778238
v -0.02742965 -0.01489216 -0.02445407
v -0.04796256 -0.01288798 0.001089009
v -0.03821747 -0.02223202 0.001088687
v -0.03821747 -0.02223202 0.001088687
v -0.04796256 -0.01288798 0.001089009
v -0.03052965 -0.01489216 0.02663252
v -0.02134631 -0.02577532 0.01996052
v -0.02134631 -0.02577532 0.01996052
v -0.03052965 -0.01489216 0.02663252
v -0.008800332 -0.01489216 0.04351002
v -0.00529362 -0.02577532 0.0327156
v -0.00529362 -0.02577532 0.0327156
v -0.008800332 -0.01489216 0.04351002
v 0.02460509 -0.01489216 0.05115052
v 0.02109839 -0.02577532 0.0403557
v 0.02109839 -0.02577532 0.0403557
v 0.02460509 -0.01489216 0.05115052
v 0.03978477 -0.01489216 0.02663261
v 0.0306039 -0.02577532 0.01996055
v 0.0306039 -0.02577532 0.01996055
v 0.03978477 -0.01489216 0.02663261
v 0.04193862 -0.01288798 0.001089047
v 0.03219353 -0.02223202 0.001089368
v 0.03219353 -0.02223202 0.001089368
v 0.04193862 -0.01288798 0.001089047
v 0.04797179 -0.01489216 -0.02772875
v 0.03878845 -0.02577532 -0.02105675
v 0.04797179 -0.01489216 -0.02772875
v 0.04797179 -0.0001482197 -0.02772875
v 0.01805693 -0.0001482197 -0.0511549
v 0.01805673 -0.01489216 -0.05115533
v 0.01805673 -0.01489216 -0.05115533
v 0.01805693 -0.0001482197 -0.0511549
v -0.01316702 -0.0001482197 -0.0489722
v -0.01316702 -0.01489216 -0.0489722
v -0.01316702 -0.01489216 -0.0489722
v -0.01316702 -0.0001482197 -0.0489722
v -0.02742965 -0.0001482197 -0.02445407
v -0.02742965 -0.01489216 -0.02445407
v -0.02742965 -0.01489216 -0.02445407
v -0.02742965 -0.0001482197 -0.02445407
v -0.04796256 -0.0002291843 0.001089009
v -0.04796256 -0.01288798 0.001089009
v -0.04796256 -0.01288798 0.001089009
v -0.04796256 -0.0002291843 0.001089009
v -0.03052965 -0.0001482197 0.02663252
v -0.03052965 -0.01489216 0.02663252
v -0.03052965 -0.01489216 0.02663252
v -0.03052965 -0.0001482197 0.02663252
v -0.008800332 -0.0001482197 0.04351002
v -0.008800332 -0.01489216 0.04351002
v -0.008800332 -0.01489216 0.04351002
v -0.008800332 -0.0001482197 0.04351002
v 0.02460509 -0.0001482197 0.05115052
v 0.02460509 -0.01489216 0.05115052
v 0.02460509 -0.01489216 0.05115052
v 0.02460509 -0.0001482197 0.05115052
v 0.03978477 -0.0001482197 0.02663261
v 0.03978477 -0.01489216 0.02663261
v 0.03978477 -0.01489216 0.02663261
v 0.03978477 -0.0001482197 0.02663261
v 0.04193862 -0.0002291843 0.001089047
v 0.04193862 -0.01288798 0.001089047
v 0.04193862 -0.01288798 0.001089047
v 0.04193862 -0.0002291843 0.001089047
v 0.04797179 -0.0001482197 -0.02772875
v 0.04797179 -0.01489216 -0.02772875
v 0.04797179 -0.0001482197 -0.02772875
v 0.04569387 0.01428343 -0.02539931
v 0.01714999 0.01428343 -0.04799394
v 0.01805693 -0.0001482197 -0.0511549
v 0.01805693 -0.0001482197 -0.0511549
v 0.01714999 0.01428343 -0.04799394
v -0.01182544 0.01428343 -0.04559963
v -0.01316702 -0.0001482197 -0.0489722
v -0.01316702 -0.0001482197 -0.0489722
v -0.01182544 0.01428343 -0.04559963
v -0.02320674 0.01428343 -0.02180871
v -0.02742965 -0.0001482197 -0.02445407
v -0.02742965 -0.0001482197 -0.02445407
v -0.02320674 0.01428343 -0.02180871
v -0.045299 0.01197215 0.001193797
v -0.04796256 -0.0002291843 0.001089009
v -0.04796256 -0.0002291843 0.001089009
v -0.045299 0.01197215 0.001193797
v -0.02660507 0.01428343 0.02419765
v -0.03052965 -0.0001482197 0.02663252
v -0.03052965 -0.0001482197 0.02663252
v -0.02660507 0.01428343 0.02419765
v -0.007037376 0.01428343 0.03961095
v -0.008800332 -0.0001482197 0.04351002
v -0.008800332 -0.0001482197 0.04351002
v -0.007037376 0.01428343 0.03961095
v 0.0243309 0.01428343 0.04798872
v 0.02460509 -0.0001482197 0.05115052
v 0.02460509 -0.0001482197 0.05115052
v 0.0243309 0.01428343 0.04798872
v 0.03671695 0.01428343 0.02419751
v 0.03978477 -0.0001482197 0.02663261
v 0.03978477 -0.0001482197 0.02663261
v 0.03671695 0.01428343 0.02419751
v 0.03865675 0.01197215 0.001194074
v 0.04193862 -0.0002291843 0.001089047
v 0.04193862 -0.0002291843 0.001089047
v 0.03865675 0.01197215 0.001194074
v 0.04569387 0.01428343 -0.02539931
v 0.04797179 -0.0001482197 -0.02772875
v 0.04569387 0.01428343 -0.02539931
v 0.03225654 0.02437449 -0.0161501
v 0.01204161 0.02437449 -0.03257163
v 0.01714999 0.01428343 -0.04799394
v 0.01714999 0.01428343 -0.04799394
v 0.01204161 0.02437449 -0.03257163
v -0.002588392 0.02437449 -0.02139605
v -0.01182544 0.01428343 -0.04559963
v -0.01182544 0.01428343 -0.04559963
v -0.002588392 0.02437449 -0.02139605
v -0.01124787 0.02437449 -0.01279797
v -0.02320674 0.01428343 -0.02180871
v -0.02320674 0.01428343 -0.02180871
v -0.01124787 0.02437449 -0.01279797
v -0.03124023 0.02074664 0.001114817
v -0.045299 0.01197215 0.001193797
v -0.045299 0.01197215 0.001193797
v -0.03124023 0.02074664 0.001114817
v -0.01442264 0.02437449 0.01502748
v -0.02660507 0.01428343 0.02419765
v -0.02660507 0.01428343 0.02419765
v -0.01442264 0.02437449 0.01502748
v -0.002587561 0.02437449 0.02474377
v -0.007037376 0.01428343 0.03961095
v -0.007037376 0.01428343 0.03961095
v -0.002587561 0.02437449 0.02474377
v 0.01874551 0.02437449 0.03256605
v 0.0243309 0.01428343 0.04798872
v 0.0243309 0.01428343 0.04798872
v 0.01874551 0.02437449 0.03256605
v 0.02387583 0.02437449 0.01502746
v 0.03671695 0.01428343 0.02419751
v 0.03671695 0.01428343 0.02419751
v 0.02387583 0.02437449 0.01502746
v 0.02504797 0.02074664 0.001115413
v 0.03865675 0.01197215 0.001194074
v 0.03865675 0.01197215 0.001194074
v 0.02504797 0.02074664 0.001115413
v 0.03225654 0.02437449 -0.0161501
v 0.04569387 0.01428343 -0.02539931
v 0.03225654 0.02437449 -0.0161501
v 0.00462832 0.03397618 0.00108916
v 0.01204161 0.02437449 -0.03257163
v 0.01204161 0.02437449 -0.03257163
v 0.00462832 0.03397618 0.00108916
v -0.002588392 0.02437449 -0.02139605
v -0.002588392 0.02437449 -0.02139605
v 0.00462832 0.03397618 0.00108916
v -0.01124787 0.02437449 -0.01279797
v -0.01124787 0.02437449 -0.01279797
v 0.00462832 0.03397618 0.00108916
v -0.03124023 0.02074664 0.001114817
v -0.03124023 0.02074664 0.001114817
v 0.00462832 0.03397618 0.00108916
v -0.01442264 0.02437449 0.01502748
v -0.01442264 0.02437449 0.01502748
v 0.00462832 0.03397618 0.00108916
v -0.002587561 0.02437449 0.02474377
v -0.002587561 0.02437449 0.02474377
v 0.00462832 0.03397618 0.00108916
v 0.01874551 0.02437449 0.03256605
v 0.01874551 0.02437449 0.03256605
v 0.00462832 0.03397618 0.00108916
v 0.02387583 0.02437449 0.01502746
v 0.02387583 0.02437449 0.01502746
v 0.00462832 0.03397618 0.00108916
v 0.02504797 0.02074664 0.001115413
v 0.02504797 0.02074664 0.001115413
v 0.00462832 0.03397618 0.00108916
v 0.03225654 0.02437449 -0.0161501

vn 0.153784 -0.9746063 -0.1627668
vn 0.001810003 -0.9999981 0.0008239057
vn 0.2403124 -0.9698725 0.03996567
vn -0.003018431 -0.9735574 -0.2284225
vn -0.2250308 -0.9450633 -0.2371001
vn -0.2721413 -0.9505205 -0.1498334
vn -0.2947585 -0.955556 0.00549694
vn -0.2155432 -0.9587457 0.1853318
vn -0.0271109 -0.974576 0.2224107
vn 0.2880898 -0.9428011 0.1677211
vn 0.3588123 -0.8860961 0.2934066
vn 0.6860124 -0.6400555 -0.3459998
vn 0.6860123 -0.6400556 -0.3459999
vn 0.6860124 -0.6400556 -0.3459997
vn 0.6860123 -0.6400556 -0.3459999
vn 0.2687813 -0.6391842 -0.7205554
vn 0.2687812 -0.6391843 -0.7205554
vn 0.2687813 -0.6391843 -0.7205555
vn 0.2687812 -0.6391842 -0.7205554
vn -0.4951079 -0.5961946 -0.6319969
vn -0.4951079 -0.5961946 -0.631997
vn -0.4951079 -0.5961946 -0.6319969
vn -0.4951079 -0.5961946 -0.6319969
vn -0.3638364 -0.621523 -0.6937812
vn -0.3638366 -0.6215229 -0.6937812
vn -0.3638365 -0.6215229 -0.6937812
vn -0.3638365 -0.6215229 -0.6937811
vn -0.7696308 -0.6309733 0.09767912
vn -0.7696308 -0.6309733 0.09767912
vn -0.7696308 -0.6309732 0.09767909
vn -0.7696308 -0.6309732 0.09767912
vn -0.6849645 -0.640098 0.3479916
vn -0.6849646 -0.640098 0.3479915
vn -0.6849645 -0.640098 0.3479915
vn -0.6849645 -0.640098 0.3479915
vn -0.4926569 -0.6283638 0.6020367
vn -0.4926569 -0.6283638 0.6020367
vn -0.4926568 -0.6283638 0.6020367
vn -0.4926569 -0.6283638 0.6020367
vn 0.4720353 -0.602204 0.6438424
vn 0.4720353 -0.602204 0.6438423
vn 0.4720353 -0.602204 0.6438423
vn 0.4720354 -0.6022039 0.6438423
vn 0.7258011 -0.6137942 0.3105955
vn 0.7258011 -0.6137943 0.3105955
vn 0.7258011 -0.6137942 0.3105955
vn 0.7258011 -0.6137942 0.3105955
vn 0.6052495 -0.5488456 0.5765774
vn 0.6052496 -0.5488455 0.5765773
vn 0.6052495 -0.5488456 0.5765774
vn 0.6052496 -0.5488456 0.5765773
vn 0.8912066 1.488188E-17 -0.4535977
vn 0.8912066 1.488187E-17 -0.4535976
vn 0.8912066 1.488187E-17 -0.4535976
vn 0.8912066 1.488188E-17 -0.4535977
vn 0.357726 1.064037E-16 -0.9338266
vn 0.357726 1.064037E-16 -0.9338266
vn 0.357726 1.064037E-16 -0.9338266
vn 0.357726 1.064037E-16 -0.9338266
vn -0.5714763 1.38945E-16 -0.8206186
vn -0.5714763 1.38945E-16 -0.8206186
vn -0.5714763 1.38945E-16 -0.8206186
vn -0.5714763 1.38945E-16 -0.8206186
vn -0.4422103 1.425063E-16 -0.8969114
vn -0.4422103 1.425063E-16 -0.8969114
vn -0.4422103 1.425063E-16 -0.8969114
vn -0.4422103 1.425063E-16 -0.8969114
vn -0.9867019 2.89003E-17 0.1625407
vn -0.9867019 2.89003E-17 0.1625407
vn -0.9867018 2.890029E-17 0.1625408
vn -0.9867019 2.89003E-17 0.1625407
vn -0.8894066 -1.544438E-17 0.457117
vn -0.8894066 -1.544438E-17 0.457117
vn -0.8894066 -1.544438E-17 0.457117
vn -0.8894066 -1.544438E-17 0.457117
vn -0.6134868 -7.403011E-17 0.789705
vn -0.6134868 -7.403011E-17 0.789705
vn -0.6134868 -7.403011E-17 0.789705
vn -0.6134868 -7.403011E-17 0.789705
vn 0.548699 -1.398341E-16 0.8360201
vn 0.548699 -1.398341E-16 0.8360201
vn 0.548699 -1.398341E-16 0.8360201
vn 0.548699 -1.398341E-16 0.8360201
vn 0.8679522 -1.108726E-16 0.4966477
vn 0.8679522 -1.108726E-16 0.4966477
vn 0.8679522 -1.108726E-16 0.4966477
vn 0.8679522 -1.108726E-16 0.4966477
vn 0.8009063 -1.21079E-16 0.5987898
vn 0.8009063 -1.21079E-16 0.5987898
vn 0.8009063 -1.21079E-16 0.5987898
vn 0.8009063 -1.21079E-16 0.5987898
vn 0.8777795 0.1800348 -0.4439486
vn 0.8777796 0.1800349 -0.4439487
vn 0.8777796 0.1800349 -0.4439487
vn 0.8777796 0.1800349 -0.4439487
vn 0.345811 0.18731 -0.9194181
vn 0.345811 0.18731 -0.9194181
vn 0.345811 0.18731 -0.9194181
vn 0.345811 0.18731 -0.9194181
vn -0.5881854 0.2197906 -0.7782866
vn -0.5881854 0.2197906 -0.7782866
vn -0.5881853 0.2197906 -0.7782866
vn -0.5881854 0.2197905 -0.7782866
vn -0.4019958 0.2161018 -0.8897749
vn -0.4019957 0.2161018 -0.8897749
vn -0.4019958 0.2161017 -0.8897749
vn -0.4019958 0.2161018 -0.8897749
vn -0.9600059 0.206724 0.1888226
vn -0.9600059 0.206724 0.1888226
vn -0.9600058 0.206724 0.1888226
vn -0.9600059 0.206724 0.1888226
vn -0.8648201 0.2400799 0.4409625
vn -0.8648201 0.24008 0.4409624
vn -0.8648201 0.2400799 0.4409624
vn -0.8648201 0.2400799 0.4409624
vn -0.6138888 0.2055195 0.7621695
vn -0.6138888 0.2055195 0.7621695
vn -0.6138888 0.2055195 0.7621695
vn -0.6138888 0.2055195 0.7621695
vn 0.5705401 0.163128 0.8049058
vn 0.5705401 0.163128 0.8049058
vn 0.5705401 0.163128 0.8049058
vn 0.5705401 0.163128 0.8049058
vn 0.8560076 0.2010115 0.4762829
vn 0.8560076 0.2010115 0.4762829
vn 0.8560076 0.2010115 0.4762829
vn 0.8560076 0.2010115 0.4762829
vn 0.7718869 0.1505436 0.6176788
vn 0.7718869 0.1505436 0.6176788
vn 0.7718869 0.1505436 0.6176788
vn 0.7718869 0.1505436 0.6176788
vn 0.550255 0.7891594 -0.2728493
vn 0.5502551 0.7891594 -0.2728494
vn 0.550255 0.7891594 -0.2728493
vn 0.5502551 0.7891594 -0.2728494
vn 0.06993075 0.8519384 -0.5189515
vn 0.06993075 0.8519384 -0.5189515
vn 0.06993075 0.8519384 -0.5189515
vn 0.06993078 0.8519384 -0.5189514
vn -0.3075179 0.8283319 -0.4682939
vn -0.3075179 0.8283319 -0.4682939
vn -0.3075179 0.8283319 -0.4682939
vn -0.3075179 0.8283319 -0.4682939
vn -0.2741794 0.751799 -0.5996864
vn -0.2741794 0.7517991 -0.5996864
vn -0.2741794 0.7517991 -0.5996864
vn -0.2741794 0.7517991 -0.5996864
vn -0.6322742 0.7676093 0.1049065
vn -0.6322741 0.7676094 0.1049065
vn -0.6322742 0.7676093 0.1049065
vn -0.6322742 0.7676093 0.1049065
vn -0.5694994 0.7719753 0.2823556
vn -0.5694994 0.7719753 0.2823556
vn -0.5694994 0.7719752 0.2823557
vn -0.5694994 0.7719753 0.2823556
vn -0.4304539 0.7661014 0.477282
vn -0.4304539 0.7661014 0.477282
vn -0.4304539 0.7661014 0.477282
vn -0.4304539 0.7661014 0.477282
vn 0.4493234 0.7418408 0.4977758
vn 0.4493233 0.7418408 0.4977758
vn 0.4493233 0.7418408 0.4977759
vn 0.4493233 0.7418408 0.4977758
vn 0.6367727 0.7444519 0.2007782
vn 0.6367726 0.744452 0.2007782
vn 0.6367726 0.744452 0.2007782
vn 0.6367726 0.7444519 0.2007782
vn 0.4675191 0.6708224 0.5756937
vn 0.4675191 0.6708225 0.5756936
vn 0.4675191 0.6708224 0.5756937
vn 0.4675191 0.6708224 0.5756937
vn 0.3126555 0.9375964 -0.1521825
vn 0.3126555 0.9375964 -0.1521825
vn 0.3126555 0.9375964 -0.1521825
vn -0.09820479 0.8896015 -0.446055
vn -0.09820479 0.8896015 -0.446055
vn -0.09820475 0.8896015 -0.4460549
vn -0.161879 0.8788401 -0.4488153
vn -0.161879 0.8788401 -0.4488153
vn -0.161879 0.8788401 -0.4488153
vn -0.2308216 0.878563 -0.4181488
vn -0.2308217 0.878563 -0.4181489
vn -0.2308217 0.878563 -0.4181489
vn -0.4403438 0.8977368 0.01288403
vn -0.4403437 0.8977368 0.01288406
vn -0.4403438 0.8977368 0.01288403
vn -0.4029019 0.8945507 0.1935176
vn -0.4029019 0.8945507 0.1935176
vn -0.4029019 0.8945507 0.1935176
vn -0.2973766 0.9075938 0.2963792
vn -0.2973766 0.9075938 0.2963792
vn -0.2973766 0.9075938 0.2963792
vn 0.341644 0.8907424 0.2997622
vn 0.341644 0.8907424 0.2997622
vn 0.3416441 0.8907423 0.2997622
vn 0.6238866 0.7773978 0.08011369
vn 0.6238866 0.7773978 0.08011368
vn 0.6238866 0.7773978 0.08011368
vn 0.3298189 0.7217777 0.608487
vn 0.3298188 0.7217777 0.608487
vn 0.3298189 0.7217777 0.6084871

vt 0.5482839 0.007647395
vt 0.5 0.15
vt 0.6264089 0.06440853
vt 0.4517161 0.00764741
vt 0.3735911 0.06440856
vt 0.34375 0.15625
vt 0.3735911 0.2480915
vt 0.4517161 0.3048526
vt 0.5482839 0.3048526
vt 0.6264089 0.2480914
vt 0.65625 0.15625
vt 0 0
vt 0 1
vt 1 1
vt 1 0
vt 0 0
vt 0 1
vt 1 1
vt 1 0
vt 0 0
vt 0 1
vt 1 1
vt 1 0
vt 0 0
vt 0 1
vt 1 1
vt 1 0
vt 0 0
vt 0 1
vt 1 1
vt 1 0
vt 0 0
vt 0 1
vt 1 1
vt 1 0
vt 0 0
vt 0 1
vt 1 1
vt 1 0
vt 0 0
vt 0 1
vt 1 1
vt 1 0
vt 0 0
vt 0 1
vt 1 1
vt 1 0
vt 0 0
vt 0 1
vt 1 1
vt 1 0
vt 0 0
vt 0 1
vt 1 1
vt 1 0
vt 0 0
vt 0 1
vt 1 1
vt 1 0
vt 0 0
vt 0 1
vt 1 1
vt 1 0
vt 0 0
vt 0 1
vt 1 1
vt 1 0
vt 0 0
vt 0 1
vt 1 1
vt 1 0
vt 0 0
vt 0 1
vt 1 1
vt 1 0
vt 0 0
vt 0 1
vt 1 1
vt 1 0
vt 0 0
vt 0 1
vt 1 1
vt 1 0
vt 0 0
vt 0 1
vt 1 1
vt 1 0
vt 0 0
vt 0 1
vt 1 1
vt 1 0
vt 0 0
vt 0 1
vt 1 1
vt 1 0
vt 0 0
vt 0 1
vt 1 1
vt 1 0
vt 0 0
vt 0 1
vt 1 1
vt 1 0
vt 0 0
vt 0 1
vt 1 1
vt 1 0
vt 0 0
vt 0 1
vt 1 1
vt 1 0
vt 0 0
vt 0 1
vt 1 1
vt 1 0
vt 0 0
vt 0 1
vt 1 1
vt 1 0
vt 0 0
vt 0 1
vt 1 1
vt 1 0
vt 0 0
vt 0 1
vt 1 1
vt 1 0
vt 0 0
vt 0 1
vt 1 1
vt 1 0
vt 0 0
vt 0 1
vt 1 1
vt 1 0
vt 0 0
vt 0 1
vt 1 1
vt 1 0
vt 0 0
vt 0 1
vt 1 1
vt 1 0
vt 0 0
vt 0 1
vt 1 1
vt 1 0
vt 0 0
vt 0 1
vt 1 1
vt 1 0
vt 0 0
vt 0 1
vt 1 1
vt 1 0
vt 0 0
vt 0 1
vt 1 1
vt 1 0
vt 0 0
vt 0 1
vt 1 1
vt 1 0
vt 0 0
vt 0 1
vt 1 1
vt 1 0
vt 0 0
vt 0 1
vt 1 1
vt 1 0
vt 0 0
vt 0.5 1
vt 1 0
vt 0 0
vt 0.5 1
vt 1 0
vt 0 0
vt 0.5 1
vt 1 0
vt 0 0
vt 0.5 1
vt 1 0
vt 0 0
vt 0.5 1
vt 1 0
vt 0 0
vt 0.5 1
vt 1 0
vt 0 0
vt 0.5 1
vt 1 0
vt 0 0
vt 0.5 1
vt 1 0
vt 0 0
vt 0.5 1
vt 1 0
vt 0 0
vt 0.5 1
vt 1 0

g pCylinder18_8_3766_93
usemtl pCylinder18_8_3766_93
usemap pCylinder18_8_3766_93
f 1/1/1 3/3/3 2/2/2
f 4/4/4 1/1/1 2/2/2
f 5/5/5 4/4/4 2/2/2
f 6/6/6 5/5/5 2/2/2
f 7/7/7 6/6/6 2/2/2
f 8/8/8 7/7/7 2/2/2
f 9/9/9 8/8/8 2/2/2
f 10/10/10 9/9/9 2/2/2
f 11/11/11 10/10/10 2/2/2
f 3/3/3 11/11/11 2/2/2
f 12/12/12 14/14/14 13/13/13
f 12/12/12 15/15/15 14/14/14
f 16/16/16 18/18/18 17/17/17
f 16/16/16 19/19/19 18/18/18
f 20/20/20 22/22/22 21/21/21
f 20/20/20 23/23/23 22/22/22
f 24/24/24 26/26/26 25/25/25
f 24/24/24 27/27/27 26/26/26
f 28/28/28 30/30/30 29/29/29
f 28/28/28 31/31/31 30/30/30
f 32/32/32 34/34/34 33/33/33
f 32/32/32 35/35/35 34/34/34
f 36/36/36 38/38/38 37/37/37
f 36/36/36 39/39/39 38/38/38
f 40/40/40 42/42/42 41/41/41
f 40/40/40 43/43/43 42/42/42
f 44/44/44 46/46/46 45/45/45
f 44/44/44 47/47/47 46/46/46
f 48/48/48 50/50/50 49/49/49
f 48/48/48 51/51/51 50/50/50
f 52/52/52 54/54/54 53/53/53
f 52/52/52 55/55/55 54/54/54
f 56/56/56 58/58/58 57/57/57
f 56/56/56 59/59/59 58/58/58
f 60/60/60 62/62/62 61/61/61
f 60/60/60 63/63/63 62/62/62
f 64/64/64 66/66/66 65/65/65
f 64/64/64 67/67/67 66/66/66
f 68/68/68 70/70/70 69/69/69
f 68/68/68 71/71/71 70/70/70
f 72/72/72 74/74/74 73/73/73
f 72/72/72 75/75/75 74/74/74
f 76/76/76 78/78/78 77/77/77
f 76/76/76 79/79/79 78/78/78
f 80/80/80 82/82/82 81/81/81
f 80/80/80 83/83/83 82/82/82
f 84/84/84 86/86/86 85/85/85
f 84/84/84 87/87/87 86/86/86
f 88/88/88 90/90/90 89/89/89
f 88/88/88 91/91/91 90/90/90
f 92/92/92 94/94/94 93/93/93
f 92/92/92 95/95/95 94/94/94
f 96/96/96 98/98/98 97/97/97
f 96/96/96 99/99/99 98/98/98
f 100/100/100 102/102/102 101/101/101
f 100/100/100 103/103/103 102/102/102
f 104/104/104 106/106/106 105/105/105
f 104/104/104 107/107/107 106/106/106
f 108/108/108 110/110/110 109/109/109
f 108/108/108 111/111/111 110/110/110
f 112/112/112 114/114/114 113/113/113
f 112/112/112 115/115/115 114/114/114
f 116/116/116 118/118/118 117/117/117
f 116/116/116 119/119/119 118/118/118
f 120/120/120 122/122/122 121/121/121
f 120/120/120 123/123/123 122/122/122
f 124/124/124 126/126/126 125/125/125
f 124/124/124 127/127/127 126/126/126
f 128/128/128 130/130/130 129/129/129
f 128/128/128 131/131/131 130/130/130
f 132/132/132 134/134/134 133/133/133
f 132/132/132 135/135/135 134/134/134
f 136/136/136 138/138/138 137/137/137
f 136/136/136 139/139/139 138/138/138
f 140/140/140 142/142/142 141/141/141
f 140/140/140 143/143/143 142/142/142
f 144/144/144 146/146/146 145/145/145
f 144/144/144 147/147/147 146/146/146
f 148/148/148 150/150/150 149/149/149
f 148/148/148 151/151/151 150/150/150
f 152/152/152 154/154/154 153/153/153
f 152/152/152 155/155/155 154/154/154
f 156/156/156 158/158/158 157/157/157
f 156/156/156 159/159/159 158/158/158
f 160/160/160 162/162/162 161/161/161
f 160/160/160 163/163/163 162/162/162
f 164/164/164 166/166/166 165/165/165
f 164/164/164 167/167/167 166/166/166
f 168/168/168 170/170/170 169/169/169
f 168/168/168 171/171/171 170/170/170
f 172/172/172 174/174/174 173/173/173
f 175/175/175 177/177/177 176/176/176
f 178/178/178 180/180/180 179/179/179
f 181/181/181 183/183/183 182/182/182
f 184/184/184 186/186/186 185/185/185
f 187/187/187 189/189/189 188/188/188
f 190/190/190 192/192/192 191/191/191
f 193/193/193 195/195/195 194/194/194
f 196/196/196 198/198/198 197/197/197
f 199/199/199 201/201/201 200/200/200
