#pCylinder6_4_4012_311.obj

v 0.01454531 -0.02577571 -0.04035823
v 0.004623859 -0.03397622 0.001091481
v 0.03878449 -0.02577566 -0.02105471
v -0.00966342 -0.02577572 -0.03817531
v -0.0182508 -0.02577573 -0.01778034
v -0.03822213 -0.02223234 0.001091474
v -0.02135087 -0.02577571 0.01996327
v -0.005297603 -0.0257757 0.03271808
v 0.02109403 -0.02577578 0.04035828
v 0.03059856 -0.02577579 0.01996328
v 0.03218946 -0.02223233 0.001091475
v 0.03878449 -0.02577566 -0.02105471
v 0.04796689 -0.01489251 -0.02772608
v 0.01805267 -0.0148925 -0.05115274
v 0.01454531 -0.02577571 -0.04035823
v 0.01454531 -0.02577571 -0.04035823
v 0.01805267 -0.0148925 -0.05115274
v -0.01317077 -0.01489241 -0.04896982
v -0.00966342 -0.02577572 -0.03817531
v -0.00966342 -0.02577572 -0.03817531
v -0.01317077 -0.01489241 -0.04896982
v -0.02743319 -0.01489246 -0.02445172
v -0.0182508 -0.02577573 -0.01778034
v -0.0182508 -0.02577573 -0.01778034
v -0.02743319 -0.01489246 -0.02445172
v -0.04796693 -0.01288824 0.001091476
v -0.03822213 -0.02223234 0.001091474
v -0.03822213 -0.02223234 0.001091474
v -0.04796693 -0.01288824 0.001091476
v -0.03053327 -0.01489247 0.02663468
v -0.02135087 -0.02577571 0.01996327
v -0.02135087 -0.02577571 0.01996327
v -0.03053327 -0.01489247 0.02663468
v -0.008804955 -0.01489252 0.04351258
v -0.005297603 -0.0257757 0.03271808
v -0.005297603 -0.0257757 0.03271808
v -0.008804955 -0.01489252 0.04351258
v 0.02460138 -0.0148924 0.05115275
v 0.02109403 -0.02577578 0.04035828
v 0.02109403 -0.02577578 0.04035828
v 0.02460138 -0.0148924 0.05115275
v 0.03978097 -0.01489252 0.02663468
v 0.03059856 -0.02577579 0.01996328
v 0.03059856 -0.02577579 0.01996328
v 0.03978097 -0.01489252 0.02663468
v 0.04193427 -0.01288828 0.001091479
v 0.03218946 -0.02223233 0.001091475
v 0.03218946 -0.02223233 0.001091475
v 0.04193427 -0.01288828 0.001091479
v 0.04796689 -0.01489251 -0.02772608
v 0.03878449 -0.02577566 -0.02105471
v 0.04796689 -0.01489251 -0.02772608
v 0.04796689 -0.0001483774 -0.02772608
v 0.01805267 -0.0001483656 -0.05115273
v 0.01805267 -0.0148925 -0.05115274
v 0.01805267 -0.0148925 -0.05115274
v 0.01805267 -0.0001483656 -0.05115273
v -0.01317077 -0.0001484325 -0.04896982
v -0.01317077 -0.01489241 -0.04896982
v -0.01317077 -0.01489241 -0.04896982
v -0.01317077 -0.0001484325 -0.04896982
v -0.02743319 -0.0001483271 -0.02445172
v -0.02743319 -0.01489246 -0.02445172
v -0.02743319 -0.01489246 -0.02445172
v -0.02743319 -0.0001483271 -0.02445172
v -0.04796693 -0.0002295679 0.001091473
v -0.04796693 -0.01288824 0.001091476
v -0.04796693 -0.01288824 0.001091476
v -0.04796693 -0.0002295679 0.001091473
v -0.03053326 -0.0001483367 0.02663468
v -0.03053327 -0.01489247 0.02663468
v -0.03053327 -0.01489247 0.02663468
v -0.03053326 -0.0001483367 0.02663468
v -0.008804948 -0.0001483907 0.04351257
v -0.008804955 -0.01489252 0.04351258
v -0.008804955 -0.01489252 0.04351258
v -0.008804948 -0.0001483907 0.04351257
v 0.02460138 -0.0001484193 0.05115276
v 0.02460138 -0.0148924 0.05115275
v 0.02460138 -0.0148924 0.05115275
v 0.02460138 -0.0001484193 0.05115276
v 0.03978096 -0.0001483901 0.02663468
v 0.03978097 -0.01489252 0.02663468
v 0.03978097 -0.01489252 0.02663468
v 0.03978096 -0.0001483901 0.02663468
v 0.04193427 -0.0002294605 0.001091481
v 0.04193427 -0.01288828 0.001091479
v 0.04193427 -0.01288828 0.001091479
v 0.04193427 -0.0002294605 0.001091481
v 0.04796689 -0.0001483774 -0.02772608
v 0.04796689 -0.01489251 -0.02772608
v 0.04796689 -0.0001483774 -0.02772608
v 0.04568889 0.01428325 -0.02539678
v 0.0171451 0.01428321 -0.04799124
v 0.01805267 -0.0001483656 -0.05115273
v 0.01805267 -0.0001483656 -0.05115273
v 0.0171451 0.01428321 -0.04799124
v -0.01182911 0.01428326 -0.04559764
v -0.01317077 -0.0001484325 -0.04896982
v -0.01317077 -0.0001484325 -0.04896982
v -0.01182911 0.01428326 -0.04559764
v -0.02321029 0.01428329 -0.02180636
v -0.02743319 -0.0001483271 -0.02445172
v -0.02743319 -0.0001483271 -0.02445172
v -0.02321029 0.01428329 -0.02180636
v -0.0453041 0.01197198 0.001196828
v -0.04796693 -0.0002295679 0.001091473
v -0.04796693 -0.0002295679 0.001091473
v -0.0453041 0.01197198 0.001196828
v -0.0266096 0.01428333 0.02420002
v -0.03053326 -0.0001483367 0.02663468
v -0.03053326 -0.0001483367 0.02663468
v -0.0266096 0.01428333 0.02420002
v -0.00704188 0.01428327 0.0396136
v -0.008804948 -0.0001483907 0.04351257
v -0.008804948 -0.0001483907 0.04351257
v -0.00704188 0.01428327 0.0396136
v 0.02432594 0.0142833 0.04799127
v 0.02460138 -0.0001484193 0.05115276
v 0.02460138 -0.0001484193 0.05115276
v 0.02432594 0.0142833 0.04799127
v 0.03671281 0.01428332 0.02420002
v 0.03978096 -0.0001483901 0.02663468
v 0.03978096 -0.0001483901 0.02663468
v 0.03671281 0.01428332 0.02420002
v 0.03865199 0.01197194 0.001196831
v 0.04193427 -0.0002294605 0.001091481
v 0.04193427 -0.0002294605 0.001091481
v 0.03865199 0.01197194 0.001196831
v 0.04568889 0.01428325 -0.02539678
v 0.04796689 -0.0001483774 -0.02772608
v 0.04568889 0.01428325 -0.02539678
v 0.03225245 0.02437435 -0.01614765
v 0.01203645 0.02437427 -0.03256861
v 0.0171451 0.01428321 -0.04799124
v 0.0171451 0.01428321 -0.04799124
v 0.01203645 0.02437427 -0.03256861
v -0.002592246 0.02437426 -0.02139379
v -0.01182911 0.01428326 -0.04559764
v -0.01182911 0.01428326 -0.04559764
v -0.002592246 0.02437426 -0.02139379
v -0.01125313 0.02437439 -0.01279521
v -0.02321029 0.01428329 -0.02180636
v -0.02321029 0.01428329 -0.02180636
v -0.01125313 0.02437439 -0.01279521
v -0.03124472 0.02074638 0.001117503
v -0.0453041 0.01197198 0.001196828
v -0.0453041 0.01197198 0.001196828
v -0.03124472 0.02074638 0.001117503
v -0.01442713 0.02437431 0.01503023
v -0.0266096 0.01428333 0.02420002
v -0.0266096 0.01428333 0.02420002
v -0.01442713 0.02437431 0.01503023
v -0.002592246 0.02437429 0.02474625
v -0.00704188 0.01428327 0.0396136
v -0.00704188 0.01428327 0.0396136
v -0.002592246 0.02437429 0.02474625
v 0.01874133 0.0243743 0.03256863
v 0.02432594 0.0142833 0.04799127
v 0.02432594 0.0142833 0.04799127
v 0.01874133 0.0243743 0.03256863
v 0.02387133 0.02437439 0.01503024
v 0.03671281 0.01428332 0.02420002
v 0.03671281 0.01428332 0.02420002
v 0.02387133 0.02437439 0.01503024
v 0.02504418 0.02074637 0.001117501
v 0.03865199 0.01197194 0.001196831
v 0.03865199 0.01197194 0.001196831
v 0.02504418 0.02074637 0.001117501
v 0.03225245 0.02437435 -0.01614765
v 0.04568889 0.01428325 -0.02539678
v 0.03225245 0.02437435 -0.01614765
v 0.004623857 0.03397593 0.001091443
v 0.01203645 0.02437427 -0.03256861
v 0.01203645 0.02437427 -0.03256861
v 0.004623857 0.03397593 0.001091443
v -0.002592246 0.02437426 -0.02139379
v -0.002592246 0.02437426 -0.02139379
v 0.004623857 0.03397593 0.001091443
v -0.01125313 0.02437439 -0.01279521
v -0.01125313 0.02437439 -0.01279521
v 0.004623857 0.03397593 0.001091443
v -0.03124472 0.02074638 0.001117503
v -0.03124472 0.02074638 0.001117503
v 0.004623857 0.03397593 0.001091443
v -0.01442713 0.02437431 0.01503023
v -0.01442713 0.02437431 0.01503023
v 0.004623857 0.03397593 0.001091443
v -0.002592246 0.02437429 0.02474625
v -0.002592246 0.02437429 0.02474625
v 0.004623857 0.03397593 0.001091443
v 0.01874133 0.0243743 0.03256863
v 0.01874133 0.0243743 0.03256863
v 0.004623857 0.03397593 0.001091443
v 0.02387133 0.02437439 0.01503024
v 0.02387133 0.02437439 0.01503024
v 0.004623857 0.03397593 0.001091443
v 0.02504418 0.02074637 0.001117501
v 0.02504418 0.02074637 0.001117501
v 0.004623857 0.03397593 0.001091443
v 0.03225245 0.02437435 -0.01614765

vn -0.08213866 -0.9821197 -0.1693911
vn 0.004607993 -0.9999881 -0.001345914
vn 0.104338 -0.9780496 -0.1803658
vn -0.1795202 -0.9817125 -0.06334239
vn -0.2523581 -0.961129 0.1120077
vn -0.1955581 -0.9649779 0.1748542
vn -0.07735936 -0.9682871 0.2375605
vn 0.08949509 -0.9700506 0.2258131
vn 0.1727803 -0.9812588 0.0853074
vn 0.2216168 -0.9577758 -0.1831685
vn 0.3484852 -0.9141973 -0.2068834
vn -0.0834769 -0.7041121 -0.7051649
vn -0.08347693 -0.7041121 -0.7051649
vn -0.08347687 -0.7041121 -0.7051649
vn -0.08347693 -0.7041121 -0.7051649
vn -0.5400998 -0.7049005 -0.4597901
vn -0.5400998 -0.7049006 -0.4597901
vn -0.5400998 -0.7049005 -0.4597901
vn -0.5400999 -0.7049006 -0.4597901
vn -0.7094167 -0.6645705 0.2346772
vn -0.7094169 -0.6645705 0.2346772
vn -0.7094167 -0.6645705 0.2346772
vn -0.7094168 -0.6645705 0.2346772
vn -0.7180358 -0.6888876 0.09928703
vn -0.7180359 -0.6888875 0.09928709
vn -0.7180359 -0.6888875 0.09928706
vn -0.7180358 -0.6888875 0.09928709
vn -0.1541972 -0.6960028 0.7012864
vn -0.1541972 -0.6960028 0.7012864
vn -0.1541973 -0.6960028 0.7012866
vn -0.1541972 -0.6960028 0.7012866
vn 0.09038079 -0.7037644 0.7046607
vn 0.0903807 -0.7037644 0.7046607
vn 0.09038073 -0.7037644 0.7046606
vn 0.09038076 -0.7037644 0.7046606
vn 0.3725305 -0.6917084 0.6186762
vn 0.3725304 -0.6917084 0.6186762
vn 0.3725305 -0.6917084 0.6186762
vn 0.3725305 -0.6917084 0.6186762
vn 0.7161634 -0.6654028 -0.2105911
vn 0.7161634 -0.6654028 -0.210591
vn 0.7161634 -0.6654028 -0.210591
vn 0.7161635 -0.6654028 -0.2105911
vn 0.5028699 -0.6772174 -0.53712
vn 0.5028699 -0.6772174 -0.53712
vn 0.5028699 -0.6772174 -0.53712
vn 0.5028699 -0.6772174 -0.53712
vn 0.7069519 -0.6130961 -0.3526071
vn 0.7069519 -0.613096 -0.3526071
vn 0.7069519 -0.6130961 -0.3526071
vn 0.7069519 -0.6130961 -0.3526071
vn -0.1245756 -0.0002803791 -0.9922101
vn -0.1245756 -0.000280379 -0.9922101
vn -0.1245756 -0.000280379 -0.9922101
vn -0.1245756 -0.0002803791 -0.9922101
vn -0.7572293 -0.002507796 -0.6531443
vn -0.7572293 -0.002507796 -0.6531443
vn -0.7572293 -0.002507796 -0.6531443
vn -0.7572293 -0.002507796 -0.6531443
vn -0.9657627 -0.003361635 0.2594047
vn -0.9657627 -0.003361635 0.2594047
vn -0.9657627 -0.003361635 0.2594047
vn -0.9657627 -0.003361635 0.2594047
vn -0.9937102 -0.003435759 0.1119286
vn -0.9937102 -0.00343576 0.1119287
vn -0.9937102 -0.003435759 0.1119286
vn -0.9937102 -0.003435759 0.1119286
vn -0.1816175 -0.0007718116 0.9833689
vn -0.1816175 -0.0007718116 0.9833689
vn -0.1816174 -0.0007718112 0.983369
vn -0.1816175 -0.0007718116 0.9833689
vn 0.1284967 0.0002939452 0.9917099
vn 0.1284967 0.0002939452 0.9917099
vn 0.1284967 0.0002939452 0.9917099
vn 0.1284967 0.0002939452 0.9917099
vn 0.5349318 0.001714293 0.8448936
vn 0.5349318 0.001714293 0.8448936
vn 0.5349318 0.001714293 0.8448936
vn 0.5349318 0.001714293 0.8448936
vn 0.9725295 0.003380936 -0.2327549
vn 0.9725295 0.003380936 -0.2327549
vn 0.9725295 0.003380936 -0.2327549
vn 0.9725295 0.003380936 -0.2327549
vn 0.7614987 0.002716913 -0.6481605
vn 0.7614987 0.002716913 -0.6481605
vn 0.7614987 0.002716913 -0.6481605
vn 0.7614987 0.002716913 -0.6481605
vn 0.8348593 0.002954725 -0.5504552
vn 0.8348593 0.002954725 -0.5504552
vn 0.8348593 0.002954725 -0.5504552
vn 0.8348593 0.002954725 -0.5504552
vn -0.1199825 0.2124903 -0.9697691
vn -0.1199824 0.2124903 -0.9697691
vn -0.1199824 0.2124903 -0.9697691
vn -0.1199824 0.2124903 -0.9697691
vn -0.7430859 0.2187724 -0.6324254
vn -0.7430859 0.2187724 -0.6324254
vn -0.7430859 0.2187724 -0.6324254
vn -0.7430859 0.2187724 -0.6324254
vn -0.9232863 0.2556785 0.2866541
vn -0.9232864 0.2556785 0.2866541
vn -0.9232863 0.2556785 0.2866541
vn -0.9232863 0.2556784 0.2866541
vn -0.9649335 0.251305 0.07582209
vn -0.9649335 0.251305 0.07582209
vn -0.9649335 0.2513049 0.07582209
vn -0.9649335 0.251305 0.07582211
vn -0.1473852 0.243133 0.9587304
vn -0.1473852 0.243133 0.9587304
vn -0.1473853 0.243133 0.9587303
vn -0.1473852 0.243133 0.9587304
vn 0.1192334 0.2825299 0.9518194
vn 0.1192333 0.2825299 0.9518194
vn 0.1192333 0.28253 0.9518194
vn 0.1192333 0.28253 0.9518194
vn 0.503651 0.2439965 0.8287348
vn 0.503651 0.2439965 0.8287348
vn 0.503651 0.2439965 0.8287348
vn 0.503651 0.2439965 0.8287348
vn 0.9447886 0.1962979 -0.2623764
vn 0.9447886 0.1962979 -0.2623764
vn 0.9447886 0.1962979 -0.2623763
vn 0.9447886 0.1962979 -0.2623764
vn 0.7313563 0.2397713 -0.6384571
vn 0.7313564 0.2397712 -0.6384571
vn 0.7313564 0.2397712 -0.6384571
vn 0.7313564 0.2397712 -0.6384571
vn 0.8382387 0.181224 -0.5143087
vn 0.8382387 0.181224 -0.5143087
vn 0.8382387 0.181224 -0.5143087
vn 0.8382387 0.181224 -0.5143087
vn -0.06538871 0.8366976 -0.5437469
vn -0.06538877 0.8366976 -0.543747
vn -0.06538871 0.8366976 -0.5437469
vn -0.06538877 0.8366976 -0.543747
vn -0.4102244 0.8870577 -0.2117641
vn -0.4102244 0.8870576 -0.2117641
vn -0.4102244 0.8870577 -0.2117641
vn -0.4102244 0.8870577 -0.2117641
vn -0.4836099 0.8676582 0.1152819
vn -0.48361 0.8676582 0.1152819
vn -0.4836099 0.8676582 0.1152819
vn -0.48361 0.8676582 0.1152819
vn -0.5941347 0.8028544 0.04927596
vn -0.5941347 0.8028545 0.04927596
vn -0.5941347 0.8028545 0.04927596
vn -0.5941347 0.8028545 0.04927596
vn -0.1064961 0.8180817 0.565155
vn -0.1064961 0.8180818 0.565155
vn -0.1064961 0.8180817 0.5651551
vn -0.1064961 0.8180817 0.565155
vn 0.06212431 0.822396 0.5655131
vn 0.06212425 0.8223959 0.5655131
vn 0.06212431 0.8223959 0.5655131
vn 0.06212425 0.8223959 0.5655131
vn 0.2689403 0.8180894 0.5083308
vn 0.2689403 0.8180894 0.5083308
vn 0.2689403 0.8180894 0.5083308
vn 0.2689403 0.8180894 0.5083308
vn 0.5571865 0.7981901 -0.2289872
vn 0.5571866 0.7981901 -0.2289872
vn 0.5571866 0.7981901 -0.2289872
vn 0.5571866 0.7981901 -0.2289872
vn 0.3621989 0.7998354 -0.4786175
vn 0.3621988 0.7998354 -0.4786174
vn 0.3621988 0.7998354 -0.4786175
vn 0.3621989 0.7998354 -0.4786175
vn 0.6400961 0.7347786 -0.2244479
vn 0.6400961 0.7347786 -0.224448
vn 0.6400961 0.7347786 -0.2244479
vn 0.6400961 0.7347786 -0.2244479
vn -0.03509425 0.9546157 -0.2957645
vn -0.03509426 0.9546157 -0.2957645
vn -0.03509425 0.9546157 -0.2957645
vn -0.39609 0.9167989 -0.05091101
vn -0.39609 0.9167989 -0.05091104
vn -0.3960899 0.9167989 -0.05091104
vn -0.4182789 0.9083183 0.0002439171
vn -0.4182789 0.9083183 0.0002439022
vn -0.4182789 0.9083183 0.0002439469
vn -0.413545 0.9081076 0.06573154
vn -0.4135451 0.9081076 0.06573156
vn -0.4135451 0.9081076 0.06573156
vn -0.1219132 0.9239783 0.3624922
vn -0.1219132 0.9239783 0.3624922
vn -0.1219132 0.9239783 0.3624922
vn 0.03620751 0.9220576 0.3853546
vn 0.03620751 0.9220576 0.3853546
vn 0.03620751 0.9220576 0.3853546
vn 0.1504408 0.9324937 0.3283628
vn 0.1504408 0.9324937 0.3283628
vn 0.1504408 0.9324937 0.3283628
vn 0.3418652 0.9202446 -0.1904663
vn 0.3418652 0.9202446 -0.1904663
vn 0.3418652 0.9202446 -0.1904663
vn 0.2536533 0.8278342 -0.5003499
vn 0.2536533 0.8278342 -0.5003498
vn 0.2536533 0.8278342 -0.5003498
vn 0.6177472 0.7807182 -0.09416443
vn 0.6177471 0.7807182 -0.09416434
vn 0.6177472 0.7807182 -0.0941644

vt 0.5482839 0.007647395
vt 0.5 0.15
vt 0.6264089 0.06440853
vt 0.4517161 0.00764741
vt 0.3735911 0.06440856
vt 0.34375 0.15625
vt 0.3735911 0.2480915
vt 0.4517161 0.3048526
vt 0.5482839 0.3048526
vt 0.6264089 0.2480914
vt 0.65625 0.15625
vt 0 0
vt 0 1
vt 1 1
vt 1 0
vt 0 0
vt 0 1
vt 1 1
vt 1 0
vt 0 0
vt 0 1
vt 1 1
vt 1 0
vt 0 0
vt 0 1
vt 1 1
vt 1 0
vt 0 0
vt 0 1
vt 1 1
vt 1 0
vt 0 0
vt 0 1
vt 1 1
vt 1 0
vt 0 0
vt 0 1
vt 1 1
vt 1 0
vt 0 0
vt 0 1
vt 1 1
vt 1 0
vt 0 0
vt 0 1
vt 1 1
vt 1 0
vt 0 0
vt 0 1
vt 1 1
vt 1 0
vt 0 0
vt 0 1
vt 1 1
vt 1 0
vt 0 0
vt 0 1
vt 1 1
vt 1 0
vt 0 0
vt 0 1
vt 1 1
vt 1 0
vt 0 0
vt 0 1
vt 1 1
vt 1 0
vt 0 0
vt 0 1
vt 1 1
vt 1 0
vt 0 0
vt 0 1
vt 1 1
vt 1 0
vt 0 0
vt 0 1
vt 1 1
vt 1 0
vt 0 0
vt 0 1
vt 1 1
vt 1 0
vt 0 0
vt 0 1
vt 1 1
vt 1 0
vt 0 0
vt 0 1
vt 1 1
vt 1 0
vt 0 0
vt 0 1
vt 1 1
vt 1 0
vt 0 0
vt 0 1
vt 1 1
vt 1 0
vt 0 0
vt 0 1
vt 1 1
vt 1 0
vt 0 0
vt 0 1
vt 1 1
vt 1 0
vt 0 0
vt 0 1
vt 1 1
vt 1 0
vt 0 0
vt 0 1
vt 1 1
vt 1 0
vt 0 0
vt 0 1
vt 1 1
vt 1 0
vt 0 0
vt 0 1
vt 1 1
vt 1 0
vt 0 0
vt 0 1
vt 1 1
vt 1 0
vt 0 0
vt 0 1
vt 1 1
vt 1 0
vt 0 0
vt 0 1
vt 1 1
vt 1 0
vt 0 0
vt 0 1
vt 1 1
vt 1 0
vt 0 0
vt 0 1
vt 1 1
vt 1 0
vt 0 0
vt 0 1
vt 1 1
vt 1 0
vt 0 0
vt 0 1
vt 1 1
vt 1 0
vt 0 0
vt 0 1
vt 1 1
vt 1 0
vt 0 0
vt 0 1
vt 1 1
vt 1 0
vt 0 0
vt 0 1
vt 1 1
vt 1 0
vt 0 0
vt 0 1
vt 1 1
vt 1 0
vt 0 0
vt 0 1
vt 1 1
vt 1 0
vt 0 0
vt 0.5 1
vt 1 0
vt 0 0
vt 0.5 1
vt 1 0
vt 0 0
vt 0.5 1
vt 1 0
vt 0 0
vt 0.5 1
vt 1 0
vt 0 0
vt 0.5 1
vt 1 0
vt 0 0
vt 0.5 1
vt 1 0
vt 0 0
vt 0.5 1
vt 1 0
vt 0 0
vt 0.5 1
vt 1 0
vt 0 0
vt 0.5 1
vt 1 0
vt 0 0
vt 0.5 1
vt 1 0

g pCylinder6_4_4012_311
usemtl pCylinder6_4_4012_311
usemap pCylinder6_4_4012_311
f 1/1/1 3/3/3 2/2/2
f 4/4/4 1/1/1 2/2/2
f 5/5/5 4/4/4 2/2/2
f 6/6/6 5/5/5 2/2/2
f 7/7/7 6/6/6 2/2/2
f 8/8/8 7/7/7 2/2/2
f 9/9/9 8/8/8 2/2/2
f 10/10/10 9/9/9 2/2/2
f 11/11/11 10/10/10 2/2/2
f 3/3/3 11/11/11 2/2/2
f 12/12/12 14/14/14 13/13/13
f 12/12/12 15/15/15 14/14/14
f 16/16/16 18/18/18 17/17/17
f 16/16/16 19/19/19 18/18/18
f 20/20/20 22/22/22 21/21/21
f 20/20/20 23/23/23 22/22/22
f 24/24/24 26/26/26 25/25/25
f 24/24/24 27/27/27 26/26/26
f 28/28/28 30/30/30 29/29/29
f 28/28/28 31/31/31 30/30/30
f 32/32/32 34/34/34 33/33/33
f 32/32/32 35/35/35 34/34/34
f 36/36/36 38/38/38 37/37/37
f 36/36/36 39/39/39 38/38/38
f 40/40/40 42/42/42 41/41/41
f 40/40/40 43/43/43 42/42/42
f 44/44/44 46/46/46 45/45/45
f 44/44/44 47/47/47 46/46/46
f 48/48/48 50/50/50 49/49/49
f 48/48/48 51/51/51 50/50/50
f 52/52/52 54/54/54 53/53/53
f 52/52/52 55/55/55 54/54/54
f 56/56/56 58/58/58 57/57/57
f 56/56/56 59/59/59 58/58/58
f 60/60/60 62/62/62 61/61/61
f 60/60/60 63/63/63 62/62/62
f 64/64/64 66/66/66 65/65/65
f 64/64/64 67/67/67 66/66/66
f 68/68/68 70/70/70 69/69/69
f 68/68/68 71/71/71 70/70/70
f 72/72/72 74/74/74 73/73/73
f 72/72/72 75/75/75 74/74/74
f 76/76/76 78/78/78 77/77/77
f 76/76/76 79/79/79 78/78/78
f 80/80/80 82/82/82 81/81/81
f 80/80/80 83/83/83 82/82/82
f 84/84/84 86/86/86 85/85/85
f 84/84/84 87/87/87 86/86/86
f 88/88/88 90/90/90 89/89/89
f 88/88/88 91/91/91 90/90/90
f 92/92/92 94/94/94 93/93/93
f 92/92/92 95/95/95 94/94/94
f 96/96/96 98/98/98 97/97/97
f 96/96/96 99/99/99 98/98/98
f 100/100/100 102/102/102 101/101/101
f 100/100/100 103/103/103 102/102/102
f 104/104/104 106/106/106 105/105/105
f 104/104/104 107/107/107 106/106/106
f 108/108/108 110/110/110 109/109/109
f 108/108/108 111/111/111 110/110/110
f 112/112/112 114/114/114 113/113/113
f 112/112/112 115/115/115 114/114/114
f 116/116/116 118/118/118 117/117/117
f 116/116/116 119/119/119 118/118/118
f 120/120/120 122/122/122 121/121/121
f 120/120/120 123/123/123 122/122/122
f 124/124/124 126/126/126 125/125/125
f 124/124/124 127/127/127 126/126/126
f 128/128/128 130/130/130 129/129/129
f 128/128/128 131/131/131 130/130/130
f 132/132/132 134/134/134 133/133/133
f 132/132/132 135/135/135 134/134/134
f 136/136/136 138/138/138 137/137/137
f 136/136/136 139/139/139 138/138/138
f 140/140/140 142/142/142 141/141/141
f 140/140/140 143/143/143 142/142/142
f 144/144/144 146/146/146 145/145/145
f 144/144/144 147/147/147 146/146/146
f 148/148/148 150/150/150 149/149/149
f 148/148/148 151/151/151 150/150/150
f 152/152/152 154/154/154 153/153/153
f 152/152/152 155/155/155 154/154/154
f 156/156/156 158/158/158 157/157/157
f 156/156/156 159/159/159 158/158/158
f 160/160/160 162/162/162 161/161/161
f 160/160/160 163/163/163 162/162/162
f 164/164/164 166/166/166 165/165/165
f 164/164/164 167/167/167 166/166/166
f 168/168/168 170/170/170 169/169/169
f 168/168/168 171/171/171 170/170/170
f 172/172/172 174/174/174 173/173/173
f 175/175/175 177/177/177 176/176/176
f 178/178/178 180/180/180 179/179/179
f 181/181/181 183/183/183 182/182/182
f 184/184/184 186/186/186 185/185/185
f 187/187/187 189/189/189 188/188/188
f 190/190/190 192/192/192 191/191/191
f 193/193/193 195/195/195 194/194/194
f 196/196/196 198/198/198 197/197/197
f 199/199/199 201/201/201 200/200/200
