#pCylinder9_5_3432_269.obj

v 0.01454545 -0.02577561 -0.04035809
v 0.004624003 -0.03397585 0.001091586
v 0.03878462 -0.02577561 -0.02105456
v -0.009663266 -0.02577561 -0.0381752
v -0.01825066 -0.02577561 -0.01778025
v -0.03822201 -0.02223205 0.001091578
v -0.02135076 -0.02577561 0.01996338
v -0.005297492 -0.02577561 0.0327182
v 0.02109418 -0.02577561 0.0403584
v 0.0305987 -0.02577561 0.01996338
v 0.03218959 -0.02223205 0.001091618
v 0.03878462 -0.02577561 -0.02105456
v 0.04796704 -0.01489212 -0.02772595
v 0.01805284 -0.01489212 -0.05115262
v 0.01454545 -0.02577561 -0.04035809
v 0.01454545 -0.02577561 -0.04035809
v 0.01805284 -0.01489212 -0.05115262
v -0.01317065 -0.01489212 -0.04896971
v -0.009663266 -0.02577561 -0.0381752
v -0.009663266 -0.02577561 -0.0381752
v -0.01317065 -0.01489212 -0.04896971
v -0.02743306 -0.01489212 -0.0244516
v -0.01825066 -0.02577561 -0.01778025
v -0.01825066 -0.02577561 -0.01778025
v -0.02743306 -0.01489212 -0.0244516
v -0.0479668 -0.01288794 0.001091579
v -0.03822201 -0.02223205 0.001091578
v -0.03822201 -0.02223205 0.001091578
v -0.0479668 -0.01288794 0.001091579
v -0.03053312 -0.01489212 0.02663478
v -0.02135076 -0.02577561 0.01996338
v -0.02135076 -0.02577561 0.01996338
v -0.03053312 -0.01489212 0.02663478
v -0.008804827 -0.01489212 0.04351268
v -0.005297492 -0.02577561 0.0327182
v -0.005297492 -0.02577561 0.0327182
v -0.008804827 -0.01489212 0.04351268
v 0.02460151 -0.01489212 0.0511529
v 0.02109418 -0.02577561 0.0403584
v 0.02109418 -0.02577561 0.0403584
v 0.02460151 -0.01489212 0.0511529
v 0.03978112 -0.01489212 0.02663479
v 0.0305987 -0.02577561 0.01996338
v 0.0305987 -0.02577561 0.01996338
v 0.03978112 -0.01489212 0.02663479
v 0.04193439 -0.01288794 0.001091617
v 0.03218959 -0.02223205 0.001091618
v 0.03218959 -0.02223205 0.001091618
v 0.04193439 -0.01288794 0.001091617
v 0.04796704 -0.01489212 -0.02772595
v 0.03878462 -0.02577561 -0.02105456
v 0.04796704 -0.01489212 -0.02772595
v 0.04796704 -0.0001480123 -0.02772595
v 0.01805284 -0.0001480123 -0.05115262
v 0.01805284 -0.01489212 -0.05115262
v 0.01805284 -0.01489212 -0.05115262
v 0.01805284 -0.0001480123 -0.05115262
v -0.01317065 -0.0001480123 -0.04896971
v -0.01317065 -0.01489212 -0.04896971
v -0.01317065 -0.01489212 -0.04896971
v -0.01317065 -0.0001480123 -0.04896971
v -0.02743306 -0.0001480123 -0.0244516
v -0.02743306 -0.01489212 -0.0244516
v -0.02743306 -0.01489212 -0.0244516
v -0.02743306 -0.0001480123 -0.0244516
v -0.0479668 -0.0002292256 0.001091579
v -0.0479668 -0.01288794 0.001091579
v -0.0479668 -0.01288794 0.001091579
v -0.0479668 -0.0002292256 0.001091579
v -0.03053312 -0.0001480123 0.02663478
v -0.03053312 -0.01489212 0.02663478
v -0.03053312 -0.01489212 0.02663478
v -0.03053312 -0.0001480123 0.02663478
v -0.008804827 -0.0001480123 0.04351268
v -0.008804827 -0.01489212 0.04351268
v -0.008804827 -0.01489212 0.04351268
v -0.008804827 -0.0001480123 0.04351268
v 0.02460151 -0.0001480123 0.0511529
v 0.02460151 -0.01489212 0.0511529
v 0.02460151 -0.01489212 0.0511529
v 0.02460151 -0.0001480123 0.0511529
v 0.03978112 -0.0001480123 0.02663479
v 0.03978112 -0.01489212 0.02663479
v 0.03978112 -0.01489212 0.02663479
v 0.03978112 -0.0001480123 0.02663479
v 0.04193439 -0.0002292256 0.001091617
v 0.04193439 -0.01288794 0.001091617
v 0.04193439 -0.01288794 0.001091617
v 0.04193439 -0.0002292256 0.001091617
v 0.04796704 -0.0001480123 -0.02772595
v 0.04796704 -0.01489212 -0.02772595
v 0.04796704 -0.0001480123 -0.02772595
v 0.04568902 0.01428363 -0.02539664
v 0.01714527 0.01428363 -0.04799111
v 0.01805284 -0.0001480123 -0.05115262
v 0.01805284 -0.0001480123 -0.05115262
v 0.01714527 0.01428363 -0.04799111
v -0.01182897 0.01428363 -0.04559752
v -0.01317065 -0.0001480123 -0.04896971
v -0.01317065 -0.0001480123 -0.04896971
v -0.01182897 0.01428363 -0.04559752
v -0.02321012 0.01428363 -0.02180625
v -0.02743306 -0.0001480123 -0.0244516
v -0.02743306 -0.0001480123 -0.0244516
v -0.02321012 0.01428363 -0.02180625
v -0.04530399 0.01197249 0.001196925
v -0.0479668 -0.0002292256 0.001091579
v -0.0479668 -0.0002292256 0.001091579
v -0.04530399 0.01197249 0.001196925
v -0.02660945 0.01428363 0.02420013
v -0.03053312 -0.0001480123 0.02663478
v -0.03053312 -0.0001480123 0.02663478
v -0.02660945 0.01428363 0.02420013
v -0.007041743 0.01428363 0.03961371
v -0.008804827 -0.0001480123 0.04351268
v -0.008804827 -0.0001480123 0.04351268
v -0.007041743 0.01428363 0.03961371
v 0.02432609 0.01428363 0.04799138
v 0.02460151 -0.0001480123 0.0511529
v 0.02460151 -0.0001480123 0.0511529
v 0.02432609 0.01428363 0.04799138
v 0.03671297 0.01428363 0.02420013
v 0.03978112 -0.0001480123 0.02663479
v 0.03978112 -0.0001480123 0.02663479
v 0.03671297 0.01428363 0.02420013
v 0.03865212 0.01197249 0.001196973
v 0.04193439 -0.0002292256 0.001091617
v 0.04193439 -0.0002292256 0.001091617
v 0.03865212 0.01197249 0.001196973
v 0.04568902 0.01428363 -0.02539664
v 0.04796704 -0.0001480123 -0.02772595
v 0.04568902 0.01428363 -0.02539664
v 0.03225259 0.02437472 -0.01614752
v 0.01203661 0.02437472 -0.0325685
v 0.01714527 0.01428363 -0.04799111
v 0.01714527 0.01428363 -0.04799111
v 0.01203661 0.02437472 -0.0325685
v -0.002592098 0.02437472 -0.02139369
v -0.01182897 0.01428363 -0.04559752
v -0.01182897 0.01428363 -0.04559752
v -0.002592098 0.02437472 -0.02139369
v -0.011253 0.02437472 -0.0127951
v -0.02321012 0.01428363 -0.02180625
v -0.02321012 0.01428363 -0.02180625
v -0.011253 0.02437472 -0.0127951
v -0.03124457 0.02074673 0.001117597
v -0.04530399 0.01197249 0.001196925
v -0.04530399 0.01197249 0.001196925
v -0.03124457 0.02074673 0.001117597
v -0.01442701 0.02437472 0.01503035
v -0.02660945 0.01428363 0.02420013
v -0.02660945 0.01428363 0.02420013
v -0.01442701 0.02437472 0.01503035
v -0.002592126 0.02437472 0.02474639
v -0.007041743 0.01428363 0.03961371
v -0.007041743 0.01428363 0.03961371
v -0.002592126 0.02437472 0.02474639
v 0.01874144 0.02437472 0.03256877
v 0.02432609 0.01428363 0.04799138
v 0.02432609 0.01428363 0.04799138
v 0.01874144 0.02437472 0.03256877
v 0.02387145 0.02437472 0.01503035
v 0.03671297 0.01428363 0.02420013
v 0.03671297 0.01428363 0.02420013
v 0.02387145 0.02437472 0.01503035
v 0.02504432 0.02074673 0.001117628
v 0.03865212 0.01197249 0.001196973
v 0.03865212 0.01197249 0.001196973
v 0.02504432 0.02074673 0.001117628
v 0.03225259 0.02437472 -0.01614752
v 0.04568902 0.01428363 -0.02539664
v 0.03225259 0.02437472 -0.01614752
v 0.004623996 0.03397623 0.001091559
v 0.01203661 0.02437472 -0.0325685
v 0.01203661 0.02437472 -0.0325685
v 0.004623996 0.03397623 0.001091559
v -0.002592098 0.02437472 -0.02139369
v -0.002592098 0.02437472 -0.02139369
v 0.004623996 0.03397623 0.001091559
v -0.011253 0.02437472 -0.0127951
v -0.011253 0.02437472 -0.0127951
v 0.004623996 0.03397623 0.001091559
v -0.03124457 0.02074673 0.001117597
v -0.03124457 0.02074673 0.001117597
v 0.004623996 0.03397623 0.001091559
v -0.01442701 0.02437472 0.01503035
v -0.01442701 0.02437472 0.01503035
v 0.004623996 0.03397623 0.001091559
v -0.002592126 0.02437472 0.02474639
v -0.002592126 0.02437472 0.02474639
v 0.004623996 0.03397623 0.001091559
v 0.01874144 0.02437472 0.03256877
v 0.01874144 0.02437472 0.03256877
v 0.004623996 0.03397623 0.001091559
v 0.02387145 0.02437472 0.01503035
v 0.02387145 0.02437472 0.01503035
v 0.004623996 0.03397623 0.001091559
v 0.02504432 0.02074673 0.001117628
v 0.02504432 0.02074673 0.001117628
v 0.004623996 0.03397623 0.001091559
v 0.03225259 0.02437472 -0.01614752

vn 0.102261 -0.9818566 -0.1596858
vn 0.001623821 -0.9999983 0.0003969051
vn 0.2065252 -0.9784298 -0.004676737
vn -0.0385678 -0.9810985 -0.1896246
vn -0.226557 -0.9602383 -0.1631369
vn -0.2518048 -0.9642732 -0.08228517
vn -0.2457153 -0.9679797 0.05136794
vn -0.1507728 -0.9703191 0.1890704
vn 0.0125405 -0.9818348 0.1893213
vn 0.268602 -0.95856 0.0949468
vn 0.3536058 -0.9154218 0.1922634
vn 0.5634655 -0.7039261 -0.4324285
vn 0.5634655 -0.7039261 -0.4324285
vn 0.5634655 -0.7039261 -0.4324284
vn 0.5634655 -0.7039261 -0.4324285
vn 0.1200179 -0.7031068 -0.7008823
vn 0.1200179 -0.7031069 -0.7008823
vn 0.1200179 -0.7031068 -0.7008823
vn 0.1200179 -0.7031069 -0.7008824
vn -0.5640044 -0.6620907 -0.4934922
vn -0.5640045 -0.6620906 -0.4934922
vn -0.5640044 -0.6620907 -0.4934922
vn -0.5640045 -0.6620906 -0.4934922
vn -0.4518456 -0.6863982 -0.5698181
vn -0.4518457 -0.6863981 -0.5698181
vn -0.4518456 -0.6863981 -0.5698181
vn -0.4518456 -0.6863981 -0.5698181
vn -0.6835902 -0.6953635 0.2217512
vn -0.6835902 -0.6953635 0.2217512
vn -0.6835903 -0.6953634 0.2217511
vn -0.6835903 -0.6953635 0.2217512
vn -0.5621652 -0.703966 0.4340528
vn -0.5621653 -0.703966 0.4340527
vn -0.5621652 -0.703966 0.4340527
vn -0.5621651 -0.703966 0.4340527
vn -0.3446532 -0.6928936 0.6333342
vn -0.3446532 -0.6928936 0.6333342
vn -0.3446532 -0.6928936 0.6333342
vn -0.3446532 -0.6928936 0.6333342
vn 0.544196 -0.6678944 0.5077081
vn 0.544196 -0.6678944 0.507708
vn 0.544196 -0.6678944 0.507708
vn 0.5441961 -0.6678944 0.5077081
vn 0.7169129 -0.6790239 0.1579941
vn 0.7169129 -0.6790239 0.1579941
vn 0.7169129 -0.6790239 0.1579941
vn 0.7169129 -0.6790239 0.1579941
vn 0.6619031 -0.6155776 0.4277245
vn 0.6619031 -0.6155775 0.4277245
vn 0.6619031 -0.6155776 0.4277245
vn 0.6619031 -0.6155775 0.4277245
vn 0.7910714 -5.932322E-17 -0.6117238
vn 0.7910714 -5.932323E-17 -0.6117238
vn 0.7910714 -5.932323E-17 -0.6117238
vn 0.7910714 -5.932322E-17 -0.6117238
vn 0.177447 1.340332E-16 -0.9841303
vn 0.177447 1.340332E-16 -0.9841303
vn 0.177447 1.340332E-16 -0.9841303
vn 0.177447 1.340332E-16 -0.9841303
vn -0.7143841 2.714174E-16 -0.6997538
vn -0.7143841 2.714174E-16 -0.6997538
vn -0.7143841 2.714174E-16 -0.6997538
vn -0.7143841 2.714174E-16 -0.6997538
vn -0.601599 2.650176E-16 -0.7987981
vn -0.601599 2.650176E-16 -0.7987981
vn -0.601599 2.650176E-16 -0.7987981
vn -0.601599 2.650176E-16 -0.7987981
vn -0.9391307 1.369982E-16 0.3435599
vn -0.9391307 1.369982E-16 0.3435599
vn -0.9391307 1.369982E-16 0.34356
vn -0.9391307 1.369982E-16 0.3435599
vn -0.7886471 5.827208E-17 0.6148461
vn -0.7886471 5.827208E-17 0.6148461
vn -0.7886471 5.827208E-17 0.6148461
vn -0.7886471 5.827208E-17 0.6148461
vn -0.4555842 -5.941473E-17 0.8901926
vn -0.4555842 -5.941473E-17 0.8901926
vn -0.4555842 -5.941473E-17 0.8901926
vn -0.4555842 -5.941473E-17 0.8901926
vn 0.6948758 -2.707009E-16 0.7191298
vn 0.6948758 -2.707009E-16 0.7191298
vn 0.6948758 -2.707009E-16 0.7191298
vn 0.6948758 -2.707009E-16 0.7191298
vn 0.945297 -2.548123E-16 0.3262107
vn 0.945297 -2.548123E-16 0.3262107
vn 0.945297 -2.548123E-16 0.3262107
vn 0.945297 -2.548123E-16 0.3262107
vn 0.898459 -2.64631E-16 0.4390574
vn 0.898459 -2.64631E-16 0.4390573
vn 0.898459 -2.64631E-16 0.4390574
vn 0.898459 -2.64631E-16 0.4390574
vn 0.7744819 0.212757 -0.5957451
vn 0.7744818 0.212757 -0.5957451
vn 0.7744818 0.212757 -0.5957451
vn 0.7744818 0.212757 -0.5957451
vn 0.1672118 0.2212333 -0.9607788
vn 0.1672118 0.2212333 -0.9607788
vn 0.1672118 0.2212333 -0.9607788
vn 0.1672118 0.2212333 -0.9607788
vn -0.7157671 0.2588966 -0.6485752
vn -0.7157671 0.2588966 -0.6485752
vn -0.7157671 0.2588966 -0.6485753
vn -0.7157671 0.2588965 -0.6485752
vn -0.5553985 0.2546348 -0.7916398
vn -0.5553984 0.2546348 -0.7916398
vn -0.5553985 0.2546348 -0.7916398
vn -0.5553985 0.2546348 -0.7916397
vn -0.9000522 0.2437819 0.3612153
vn -0.9000522 0.2437819 0.3612153
vn -0.9000522 0.2437819 0.3612152
vn -0.9000522 0.2437819 0.3612153
vn -0.7584763 0.2822602 0.5874034
vn -0.7584763 0.2822602 0.5874033
vn -0.7584763 0.2822603 0.5874034
vn -0.7584763 0.2822603 0.5874034
vn -0.457118 0.242386 0.8557406
vn -0.457118 0.242386 0.8557406
vn -0.457118 0.242386 0.8557406
vn -0.457118 0.242386 0.8557406
vn 0.7066419 0.1930069 0.6807389
vn 0.7066419 0.1930069 0.6807389
vn 0.7066418 0.1930069 0.6807389
vn 0.7066419 0.1930069 0.6807389
vn 0.9220617 0.2371581 0.3058725
vn 0.9220618 0.2371581 0.3058725
vn 0.9220618 0.2371581 0.3058725
vn 0.9220618 0.2371581 0.3058725
vn 0.8693856 0.178262 0.4608592
vn 0.8693856 0.178262 0.4608592
vn 0.8693856 0.178262 0.4608592
vn 0.8693856 0.178262 0.4608592
vn 0.4365558 0.8368365 -0.330338
vn 0.4365558 0.8368365 -0.330338
vn 0.4365558 0.8368365 -0.330338
vn 0.4365558 0.8368365 -0.330338
vn -0.02454186 0.8884323 -0.4583506
vn -0.02454186 0.8884322 -0.4583506
vn -0.02454186 0.8884323 -0.4583506
vn -0.02454183 0.8884323 -0.4583506
vn -0.3435122 0.8693343 -0.3553261
vn -0.3435122 0.8693343 -0.3553262
vn -0.3435122 0.8693343 -0.3553261
vn -0.3435122 0.8693343 -0.3553262
vn -0.3429868 0.8049012 -0.4842453
vn -0.3429868 0.8049013 -0.4842453
vn -0.3429868 0.8049013 -0.4842453
vn -0.3429868 0.8049013 -0.4842453
vn -0.5392705 0.8185278 0.1979874
vn -0.5392704 0.8185279 0.1979874
vn -0.5392705 0.8185278 0.1979874
vn -0.5392705 0.8185278 0.1979874
vn -0.453843 0.8222618 0.3433827
vn -0.453843 0.8222617 0.3433826
vn -0.453843 0.8222617 0.3433827
vn -0.453843 0.8222617 0.3433826
vn -0.2994639 0.8172352 0.4923895
vn -0.2994639 0.8172352 0.4923895
vn -0.2994639 0.8172352 0.4923895
vn -0.2994639 0.8172352 0.4923895
vn 0.4819607 0.796234 0.3656838
vn 0.4819608 0.796234 0.3656839
vn 0.4819608 0.796234 0.3656839
vn 0.4819608 0.796234 0.3656839
vn 0.5977911 0.7985129 0.07086811
vn 0.597791 0.798513 0.07086809
vn 0.5977911 0.798513 0.0708681
vn 0.5977911 0.7985129 0.07086813
vn 0.5200846 0.7325384 0.4392028
vn 0.5200846 0.7325385 0.4392028
vn 0.5200846 0.7325384 0.4392028
vn 0.5200846 0.7325384 0.4392028
vn 0.2386378 0.9546866 -0.1778338
vn 0.2386377 0.9546866 -0.1778339
vn 0.2386378 0.9546866 -0.1778338
vn -0.1558129 0.9181486 -0.3643141
vn -0.1558129 0.9181486 -0.3643141
vn -0.1558129 0.9181486 -0.3643141
vn -0.2111602 0.9097521 -0.357438
vn -0.2111602 0.9097521 -0.3574381
vn -0.2111602 0.9097521 -0.357438
vn -0.2651462 0.9095349 -0.3200676
vn -0.2651462 0.9095349 -0.3200677
vn -0.2651462 0.9095349 -0.3200677
vn -0.3723938 0.9244465 0.08198139
vn -0.3723938 0.9244465 0.08198141
vn -0.3723938 0.9244465 0.08198139
vn -0.3116949 0.9219851 0.2297587
vn -0.3116949 0.9219851 0.2297587
vn -0.3116949 0.9219851 0.2297587
vn -0.2045218 0.9320197 0.2991811
vn -0.2045218 0.9320197 0.299181
vn -0.2045218 0.9320197 0.299181
vn 0.3395481 0.9190344 0.2002052
vn 0.3395481 0.9190344 0.2002052
vn 0.3395482 0.9190344 0.2002052
vn 0.5613724 0.8268818 -0.03356966
vn 0.5613723 0.8268818 -0.03356966
vn 0.5613723 0.8268819 -0.03356966
vn 0.3966194 0.7785741 0.486328
vn 0.3966194 0.7785741 0.486328
vn 0.3966194 0.7785741 0.486328

vt 0.5483398 0.007648468
vt 0.5 0.1500244
vt 0.6264648 0.06439209
vt 0.4516602 0.007648468
vt 0.3735352 0.06439209
vt 0.34375 0.15625
vt 0.3735352 0.2480469
vt 0.4516602 0.3049316
vt 0.5483398 0.3049316
vt 0.6264648 0.2480469
vt 0.65625 0.15625
vt 0 0
vt 0 1
vt 1 1
vt 1 0
vt 0 0
vt 0 1
vt 1 1
vt 1 0
vt 0 0
vt 0 1
vt 1 1
vt 1 0
vt 0 0
vt 0 1
vt 1 1
vt 1 0
vt 0 0
vt 0 1
vt 1 1
vt 1 0
vt 0 0
vt 0 1
vt 1 1
vt 1 0
vt 0 0
vt 0 1
vt 1 1
vt 1 0
vt 0 0
vt 0 1
vt 1 1
vt 1 0
vt 0 0
vt 0 1
vt 1 1
vt 1 0
vt 0 0
vt 0 1
vt 1 1
vt 1 0
vt 0 0
vt 0 1
vt 1 1
vt 1 0
vt 0 0
vt 0 1
vt 1 1
vt 1 0
vt 0 0
vt 0 1
vt 1 1
vt 1 0
vt 0 0
vt 0 1
vt 1 1
vt 1 0
vt 0 0
vt 0 1
vt 1 1
vt 1 0
vt 0 0
vt 0 1
vt 1 1
vt 1 0
vt 0 0
vt 0 1
vt 1 1
vt 1 0
vt 0 0
vt 0 1
vt 1 1
vt 1 0
vt 0 0
vt 0 1
vt 1 1
vt 1 0
vt 0 0
vt 0 1
vt 1 1
vt 1 0
vt 0 0
vt 0 1
vt 1 1
vt 1 0
vt 0 0
vt 0 1
vt 1 1
vt 1 0
vt 0 0
vt 0 1
vt 1 1
vt 1 0
vt 0 0
vt 0 1
vt 1 1
vt 1 0
vt 0 0
vt 0 1
vt 1 1
vt 1 0
vt 0 0
vt 0 1
vt 1 1
vt 1 0
vt 0 0
vt 0 1
vt 1 1
vt 1 0
vt 0 0
vt 0 1
vt 1 1
vt 1 0
vt 0 0
vt 0 1
vt 1 1
vt 1 0
vt 0 0
vt 0 1
vt 1 1
vt 1 0
vt 0 0
vt 0 1
vt 1 1
vt 1 0
vt 0 0
vt 0 1
vt 1 1
vt 1 0
vt 0 0
vt 0 1
vt 1 1
vt 1 0
vt 0 0
vt 0 1
vt 1 1
vt 1 0
vt 0 0
vt 0 1
vt 1 1
vt 1 0
vt 0 0
vt 0 1
vt 1 1
vt 1 0
vt 0 0
vt 0 1
vt 1 1
vt 1 0
vt 0 0
vt 0 1
vt 1 1
vt 1 0
vt 0 0
vt 0 1
vt 1 1
vt 1 0
vt 0 0
vt 0 1
vt 1 1
vt 1 0
vt 0 0
vt 0.5 1
vt 1 0
vt 0 0
vt 0.5 1
vt 1 0
vt 0 0
vt 0.5 1
vt 1 0
vt 0 0
vt 0.5 1
vt 1 0
vt 0 0
vt 0.5 1
vt 1 0
vt 0 0
vt 0.5 1
vt 1 0
vt 0 0
vt 0.5 1
vt 1 0
vt 0 0
vt 0.5 1
vt 1 0
vt 0 0
vt 0.5 1
vt 1 0
vt 0 0
vt 0.5 1
vt 1 0

g pCylinder9_5_3432_269
usemtl pCylinder9_5_3432_269
usemap pCylinder9_5_3432_269
f 1/1/1 3/3/3 2/2/2
f 4/4/4 1/1/1 2/2/2
f 5/5/5 4/4/4 2/2/2
f 6/6/6 5/5/5 2/2/2
f 7/7/7 6/6/6 2/2/2
f 8/8/8 7/7/7 2/2/2
f 9/9/9 8/8/8 2/2/2
f 10/10/10 9/9/9 2/2/2
f 11/11/11 10/10/10 2/2/2
f 3/3/3 11/11/11 2/2/2
f 12/12/12 14/14/14 13/13/13
f 12/12/12 15/15/15 14/14/14
f 16/16/16 18/18/18 17/17/17
f 16/16/16 19/19/19 18/18/18
f 20/20/20 22/22/22 21/21/21
f 20/20/20 23/23/23 22/22/22
f 24/24/24 26/26/26 25/25/25
f 24/24/24 27/27/27 26/26/26
f 28/28/28 30/30/30 29/29/29
f 28/28/28 31/31/31 30/30/30
f 32/32/32 34/34/34 33/33/33
f 32/32/32 35/35/35 34/34/34
f 36/36/36 38/38/38 37/37/37
f 36/36/36 39/39/39 38/38/38
f 40/40/40 42/42/42 41/41/41
f 40/40/40 43/43/43 42/42/42
f 44/44/44 46/46/46 45/45/45
f 44/44/44 47/47/47 46/46/46
f 48/48/48 50/50/50 49/49/49
f 48/48/48 51/51/51 50/50/50
f 52/52/52 54/54/54 53/53/53
f 52/52/52 55/55/55 54/54/54
f 56/56/56 58/58/58 57/57/57
f 56/56/56 59/59/59 58/58/58
f 60/60/60 62/62/62 61/61/61
f 60/60/60 63/63/63 62/62/62
f 64/64/64 66/66/66 65/65/65
f 64/64/64 67/67/67 66/66/66
f 68/68/68 70/70/70 69/69/69
f 68/68/68 71/71/71 70/70/70
f 72/72/72 74/74/74 73/73/73
f 72/72/72 75/75/75 74/74/74
f 76/76/76 78/78/78 77/77/77
f 76/76/76 79/79/79 78/78/78
f 80/80/80 82/82/82 81/81/81
f 80/80/80 83/83/83 82/82/82
f 84/84/84 86/86/86 85/85/85
f 84/84/84 87/87/87 86/86/86
f 88/88/88 90/90/90 89/89/89
f 88/88/88 91/91/91 90/90/90
f 92/92/92 94/94/94 93/93/93
f 92/92/92 95/95/95 94/94/94
f 96/96/96 98/98/98 97/97/97
f 96/96/96 99/99/99 98/98/98
f 100/100/100 102/102/102 101/101/101
f 100/100/100 103/103/103 102/102/102
f 104/104/104 106/106/106 105/105/105
f 104/104/104 107/107/107 106/106/106
f 108/108/108 110/110/110 109/109/109
f 108/108/108 111/111/111 110/110/110
f 112/112/112 114/114/114 113/113/113
f 112/112/112 115/115/115 114/114/114
f 116/116/116 118/118/118 117/117/117
f 116/116/116 119/119/119 118/118/118
f 120/120/120 122/122/122 121/121/121
f 120/120/120 123/123/123 122/122/122
f 124/124/124 126/126/126 125/125/125
f 124/124/124 127/127/127 126/126/126
f 128/128/128 130/130/130 129/129/129
f 128/128/128 131/131/131 130/130/130
f 132/132/132 134/134/134 133/133/133
f 132/132/132 135/135/135 134/134/134
f 136/136/136 138/138/138 137/137/137
f 136/136/136 139/139/139 138/138/138
f 140/140/140 142/142/142 141/141/141
f 140/140/140 143/143/143 142/142/142
f 144/144/144 146/146/146 145/145/145
f 144/144/144 147/147/147 146/146/146
f 148/148/148 150/150/150 149/149/149
f 148/148/148 151/151/151 150/150/150
f 152/152/152 154/154/154 153/153/153
f 152/152/152 155/155/155 154/154/154
f 156/156/156 158/158/158 157/157/157
f 156/156/156 159/159/159 158/158/158
f 160/160/160 162/162/162 161/161/161
f 160/160/160 163/163/163 162/162/162
f 164/164/164 166/166/166 165/165/165
f 164/164/164 167/167/167 166/166/166
f 168/168/168 170/170/170 169/169/169
f 168/168/168 171/171/171 170/170/170
f 172/172/172 174/174/174 173/173/173
f 175/175/175 177/177/177 176/176/176
f 178/178/178 180/180/180 179/179/179
f 181/181/181 183/183/183 182/182/182
f 184/184/184 186/186/186 185/185/185
f 187/187/187 189/189/189 188/188/188
f 190/190/190 192/192/192 191/191/191
f 193/193/193 195/195/195 194/194/194
f 196/196/196 198/198/198 197/197/197
f 199/199/199 201/201/201 200/200/200
