#pCylinder17_16_4305_65.obj

v 0.01454325 -0.02577589 -0.04035336
v 0.004621642 -0.03397629 0.001096859
v 0.03878262 -0.02577589 -0.02105032
v -0.009665418 -0.02577589 -0.03817063
v -0.01825265 -0.02577589 -0.01777601
v -0.03822405 -0.02223212 0.001095816
v -0.021353 -0.02577589 0.01996841
v -0.005299484 -0.02577589 0.0327226
v 0.02109208 -0.02577589 0.04036288
v 0.03059651 -0.02577589 0.01996868
v 0.03218739 -0.02223212 0.001096915
v 0.03878262 -0.02577589 -0.02105032
v 0.04796476 -0.01489242 -0.02772092
v 0.01805078 -0.01489242 -0.05114847
v 0.01454325 -0.02577589 -0.04035336
v 0.01454325 -0.02577589 -0.04035336
v 0.01805078 -0.01489242 -0.05114847
v -0.01317291 -0.01489242 -0.04896481
v -0.009665418 -0.02577589 -0.03817063
v -0.009665418 -0.02577589 -0.03817063
v -0.01317291 -0.01489242 -0.04896481
v -0.02743524 -0.01489242 -0.02444682
v -0.01825265 -0.02577589 -0.01777601
v -0.01825265 -0.02577589 -0.01777601
v -0.02743524 -0.01489242 -0.02444682
v -0.04796901 -0.01288817 0.001096852
v -0.03822405 -0.02223212 0.001095816
v -0.03822405 -0.02223212 0.001095816
v -0.04796901 -0.01288817 0.001096852
v -0.03053513 -0.01489242 0.02663902
v -0.021353 -0.02577589 0.01996841
v -0.021353 -0.02577589 0.01996841
v -0.03053513 -0.01489242 0.02663902
v -0.008807009 -0.01489242 0.04351771
v -0.005299484 -0.02577589 0.0327226
v -0.005299484 -0.02577589 0.0327226
v -0.008807009 -0.01489242 0.04351771
v 0.02459956 -0.01489242 0.05115706
v 0.02109208 -0.02577589 0.04036288
v 0.02109208 -0.02577589 0.04036288
v 0.02459956 -0.01489242 0.05115706
v 0.03977892 -0.01489242 0.02663944
v 0.03059651 -0.02577589 0.01996868
v 0.03059651 -0.02577589 0.01996868
v 0.03977892 -0.01489242 0.02663944
v 0.04193235 -0.01288817 0.001095879
v 0.03218739 -0.02223212 0.001096915
v 0.03218739 -0.02223212 0.001096915
v 0.04193235 -0.01288817 0.001095879
v 0.04796476 -0.01489242 -0.02772092
v 0.03878262 -0.02577589 -0.02105032
v 0.04796476 -0.01489242 -0.02772092
v 0.04796476 -0.0001483347 -0.02772092
v 0.01805078 -0.0001483347 -0.05114847
v 0.01805078 -0.01489242 -0.05114847
v 0.01805078 -0.01489242 -0.05114847
v 0.01805078 -0.0001483347 -0.05114847
v -0.01317291 -0.0001483347 -0.04896481
v -0.01317291 -0.01489242 -0.04896481
v -0.01317291 -0.01489242 -0.04896481
v -0.01317291 -0.0001483347 -0.04896481
v -0.02743524 -0.0001483347 -0.02444682
v -0.02743524 -0.01489242 -0.02444682
v -0.02743524 -0.01489242 -0.02444682
v -0.02743524 -0.0001483347 -0.02444682
v -0.04796901 -0.0002293036 0.001096852
v -0.04796901 -0.01288817 0.001096852
v -0.04796901 -0.01288817 0.001096852
v -0.04796901 -0.0002293036 0.001096852
v -0.03053513 -0.0001483347 0.02663902
v -0.03053513 -0.01489242 0.02663902
v -0.03053513 -0.01489242 0.02663902
v -0.03053513 -0.0001483347 0.02663902
v -0.008807009 -0.0001483347 0.04351771
v -0.008807009 -0.01489242 0.04351771
v -0.008807009 -0.01489242 0.04351771
v -0.008807009 -0.0001483347 0.04351771
v 0.02459956 -0.0001483347 0.05115706
v 0.02459956 -0.01489242 0.05115706
v 0.02459956 -0.01489242 0.05115706
v 0.02459956 -0.0001483347 0.05115706
v 0.03977892 -0.0001483347 0.02663944
v 0.03977892 -0.01489242 0.02663944
v 0.03977892 -0.01489242 0.02663944
v 0.03977892 -0.0001483347 0.02663944
v 0.04193235 -0.0002293036 0.001095879
v 0.04193235 -0.01288817 0.001095879
v 0.04193235 -0.01288817 0.001095879
v 0.04193235 -0.0002293036 0.001095879
v 0.04796476 -0.0001483347 -0.02772092
v 0.04796476 -0.01489242 -0.02772092
v 0.04796476 -0.0001483347 -0.02772092
v 0.04568711 0.01428334 -0.02539272
v 0.01714325 0.01428334 -0.04798689
v 0.01805078 -0.0001483347 -0.05114847
v 0.01805078 -0.0001483347 -0.05114847
v 0.01714325 0.01428334 -0.04798689
v -0.0118309 0.01428334 -0.04559328
v -0.01317291 -0.0001483347 -0.04896481
v -0.01317291 -0.0001483347 -0.04896481
v -0.0118309 0.01428334 -0.04559328
v -0.02321215 0.01428334 -0.02180225
v -0.02743524 -0.0001483347 -0.02444682
v -0.02743524 -0.0001483347 -0.02444682
v -0.02321215 0.01428334 -0.02180225
v -0.04530588 0.01197185 0.001201091
v -0.04796901 -0.0002293036 0.001096852
v -0.04796901 -0.0002293036 0.001096852
v -0.04530588 0.01197185 0.001201091
v -0.02661148 0.01428334 0.02420469
v -0.03053513 -0.0001483347 0.02663902
v -0.03053513 -0.0001483347 0.02663902
v -0.02661148 0.01428334 0.02420469
v -0.007043994 0.01428334 0.03961878
v -0.008807009 -0.0001483347 0.04351771
v -0.008807009 -0.0001483347 0.04351771
v -0.007043994 0.01428334 0.03961878
v 0.02432402 0.01428334 0.04799565
v 0.02459956 -0.0001483347 0.05115706
v 0.02459956 -0.0001483347 0.05115706
v 0.02432402 0.01428334 0.04799565
v 0.03671091 0.01428334 0.02420479
v 0.03977892 -0.0001483347 0.02663944
v 0.03977892 -0.0001483347 0.02663944
v 0.03671091 0.01428334 0.02420479
v 0.03864996 0.01197185 0.00120189
v 0.04193235 -0.0002293036 0.001095879
v 0.04193235 -0.0002293036 0.001095879
v 0.03864996 0.01197185 0.00120189
v 0.04568711 0.01428334 -0.02539272
v 0.04796476 -0.0001483347 -0.02772092
v 0.04568711 0.01428334 -0.02539272
v 0.0322504 0.02437449 -0.01614249
v 0.01203456 0.02437449 -0.03256438
v 0.01714325 0.01428334 -0.04798689
v 0.01714325 0.01428334 -0.04798689
v 0.01203456 0.02437449 -0.03256438
v -0.002594341 0.02437449 -0.02138869
v -0.0118309 0.01428334 -0.04559328
v -0.0118309 0.01428334 -0.04559328
v -0.002594341 0.02437449 -0.02138869
v -0.011255 0.02437449 -0.0127912
v -0.02321215 0.01428334 -0.02180225
v -0.02321215 0.01428334 -0.02180225
v -0.011255 0.02437449 -0.0127912
v -0.03124682 0.02074642 0.001122848
v -0.04530588 0.01197185 0.001201091
v -0.04530588 0.01197185 0.001201091
v -0.03124682 0.02074642 0.001122848
v -0.01442911 0.02437449 0.01503474
v -0.02661148 0.01428334 0.02420469
v -0.02661148 0.01428334 0.02420469
v -0.01442911 0.02437449 0.01503474
v -0.002594279 0.02437449 0.02475142
v -0.007043994 0.01428334 0.03961878
v -0.007043994 0.01428334 0.03961878
v -0.002594279 0.02437449 0.02475142
v 0.01873954 0.02437449 0.03257291
v 0.02432402 0.01428334 0.04799565
v 0.02432402 0.01428334 0.04799565
v 0.01873954 0.02437449 0.03257291
v 0.02386927 0.02437449 0.01503513
v 0.03671091 0.01428334 0.02420479
v 0.03671091 0.01428334 0.02420479
v 0.02386927 0.02437449 0.01503513
v 0.02504231 0.02074642 0.001121932
v 0.03864996 0.01197185 0.00120189
v 0.03864996 0.01197185 0.00120189
v 0.02504231 0.02074642 0.001121932
v 0.0322504 0.02437449 -0.01614249
v 0.04568711 0.01428334 -0.02539272
v 0.0322504 0.02437449 -0.01614249
v 0.004621642 0.03397613 0.001096859
v 0.01203456 0.02437449 -0.03256438
v 0.01203456 0.02437449 -0.03256438
v 0.004621642 0.03397613 0.001096859
v -0.002594341 0.02437449 -0.02138869
v -0.002594341 0.02437449 -0.02138869
v 0.004621642 0.03397613 0.001096859
v -0.011255 0.02437449 -0.0127912
v -0.011255 0.02437449 -0.0127912
v 0.004621642 0.03397613 0.001096859
v -0.03124682 0.02074642 0.001122848
v -0.03124682 0.02074642 0.001122848
v 0.004621642 0.03397613 0.001096859
v -0.01442911 0.02437449 0.01503474
v -0.01442911 0.02437449 0.01503474
v 0.004621642 0.03397613 0.001096859
v -0.002594279 0.02437449 0.02475142
v -0.002594279 0.02437449 0.02475142
v 0.004621642 0.03397613 0.001096859
v 0.01873954 0.02437449 0.03257291
v 0.01873954 0.02437449 0.03257291
v 0.004621642 0.03397613 0.001096859
v 0.02386927 0.02437449 0.01503513
v 0.02386927 0.02437449 0.01503513
v 0.004621642 0.03397613 0.001096859
v 0.02504231 0.02074642 0.001121932
v 0.02504231 0.02074642 0.001121932
v 0.004621642 0.03397613 0.001096859
v 0.0322504 0.02437449 -0.01614249

vn 0.1893534 -0.9818563 0.01010796
vn 0.0004563881 -0.999998 0.001608116
vn 0.1060141 -0.9784295 0.1773007
vn 0.1458731 -0.9810982 -0.1271456
vn 0.03004047 -0.960238 -0.2775596
vn -0.05273709 -0.9642729 -0.259606
vn -0.1659656 -0.9679794 -0.1883351
vn -0.2388552 -0.9703188 -0.03779222
vn -0.1584571 -0.9818345 0.1043607
vn 0.05001726 -0.9585598 0.2804643
vn 0.007344075 -0.9154215 0.4024281
vn 0.6542142 -0.7039258 0.276571
vn 0.6542142 -0.7039258 0.2765709
vn 0.6542141 -0.7039258 0.276571
vn 0.6542142 -0.7039258 0.2765709
vn 0.6687823 -0.7031066 -0.2415999
vn 0.6687823 -0.7031067 -0.2415999
vn 0.6687823 -0.7031066 -0.2415999
vn 0.6687824 -0.7031066 -0.2415999
vn 0.1507674 -0.6620905 -0.7341013
vn 0.1507674 -0.6620904 -0.7341014
vn 0.1507674 -0.6620905 -0.7341013
vn 0.1507674 -0.6620904 -0.7341014
vn 0.2725109 -0.686398 -0.6742366
vn 0.2725108 -0.6863979 -0.6742367
vn 0.2725108 -0.6863979 -0.6742367
vn 0.2725108 -0.6863979 -0.6742366
vn -0.5302911 -0.6953632 -0.4850366
vn -0.5302911 -0.6953632 -0.4850366
vn -0.5302911 -0.6953632 -0.4850367
vn -0.5302911 -0.6953632 -0.4850367
vn -0.654985 -0.7039657 -0.2746383
vn -0.654985 -0.7039657 -0.2746384
vn -0.6549849 -0.7039657 -0.2746384
vn -0.6549849 -0.7039657 -0.2746384
vn -0.7209241 -0.6928933 0.01289694
vn -0.7209241 -0.6928934 0.01289691
vn -0.7209242 -0.6928934 0.01289696
vn -0.7209241 -0.6928933 0.01289694
vn -0.1729085 -0.6678942 0.7238918
vn -0.1729085 -0.6678942 0.7238917
vn -0.1729085 -0.6678942 0.7238917
vn -0.1729085 -0.6678942 0.7238919
vn 0.2164862 -0.6790237 0.7014698
vn 0.2164862 -0.6790237 0.7014698
vn 0.2164862 -0.6790237 0.7014698
vn 0.2164862 -0.6790237 0.7014698
vn -0.04524538 -0.6155774 0.7867762
vn -0.04524533 -0.6155773 0.7867762
vn -0.04524538 -0.6155774 0.7867762
vn -0.04524535 -0.6155773 0.7867762
vn 0.9224954 -8.506907E-17 0.386008
vn 0.9224954 -8.506907E-17 0.3860081
vn 0.9224954 -8.506907E-17 0.3860081
vn 0.9224954 -8.506907E-17 0.386008
vn 0.943464 -4.49791E-17 -0.3314748
vn 0.943464 -4.49791E-17 -0.3314748
vn 0.943464 -4.49791E-17 -0.3314748
vn 0.943464 -4.49791E-17 -0.3314748
vn 0.2559155 3.85331E-17 -0.9666991
vn 0.2559155 3.85331E-17 -0.9666991
vn 0.2559155 3.85331E-17 -0.9666991
vn 0.2559155 3.85331E-17 -0.9666991
vn 0.3977258 2.604286E-17 -0.9175043
vn 0.3977258 2.604287E-17 -0.9175043
vn 0.3977258 2.604286E-17 -0.9175043
vn 0.3977258 2.604286E-17 -0.9175043
vn -0.762367 8.928993E-17 -0.6471448
vn -0.762367 8.928993E-17 -0.6471448
vn -0.7623671 8.928993E-17 -0.6471447
vn -0.762367 8.928993E-17 -0.6471448
vn -0.924014 8.496116E-17 -0.3823584
vn -0.924014 8.496116E-17 -0.3823584
vn -0.924014 8.496116E-17 -0.3823584
vn -0.924014 8.496116E-17 -0.3823584
vn -0.9990656 6.543983E-17 0.04321615
vn -0.9990656 6.543983E-17 0.04321615
vn -0.9990656 6.543983E-17 0.04321615
vn -0.9990656 6.543983E-17 0.04321615
vn -0.2823963 -3.630405E-17 0.9592978
vn -0.2823963 -3.630405E-17 0.9592978
vn -0.2823963 -3.630405E-17 0.9592978
vn -0.2823963 -3.630405E-17 0.9592978
vn 0.1829299 -6.932686E-17 0.9831259
vn 0.1829299 -6.932686E-17 0.9831259
vn 0.1829299 -6.932686E-17 0.9831259
vn 0.1829299 -6.932686E-17 0.9831259
vn 0.06166972 -6.194693E-17 0.9980965
vn 0.06166974 -6.194693E-17 0.9980965
vn 0.06166972 -6.194693E-17 0.9980965
vn 0.06166972 -6.194693E-17 0.9980965
vn 0.9004101 0.2127569 0.3794682
vn 0.90041 0.2127569 0.3794681
vn 0.90041 0.2127569 0.3794681
vn 0.90041 0.2127569 0.3794681
vn 0.9181034 0.2212332 -0.3288491
vn 0.9181034 0.2212332 -0.3288491
vn 0.9181034 0.2212332 -0.3288491
vn 0.9181034 0.2212332 -0.3288491
vn 0.2107243 0.2588965 -0.9426386
vn 0.2107243 0.2588965 -0.9426387
vn 0.2107244 0.2588965 -0.9426387
vn 0.2107243 0.2588964 -0.9426386
vn 0.4143063 0.2546347 -0.8737913
vn 0.4143063 0.2546347 -0.8737913
vn 0.4143063 0.2546347 -0.8737913
vn 0.4143062 0.2546347 -0.8737913
vn -0.7584311 0.2437818 -0.604444
vn -0.7584311 0.2437819 -0.604444
vn -0.758431 0.2437818 -0.604444
vn -0.7584311 0.2437818 -0.604444
vn -0.8852546 0.2822601 -0.3696663
vn -0.8852546 0.2822601 -0.3696664
vn -0.8852546 0.2822602 -0.3696664
vn -0.8852546 0.2822602 -0.3696664
vn -0.9698608 0.2423859 0.02487576
vn -0.9698608 0.2423859 0.02487577
vn -0.9698608 0.2423859 0.02487576
vn -0.9698608 0.2423859 0.02487576
vn -0.2432006 0.1930068 0.9505796
vn -0.2432006 0.1930068 0.9505796
vn -0.2432007 0.1930068 0.9505796
vn -0.2432006 0.1930068 0.9505796
vn 0.1891479 0.237158 0.9528793
vn 0.1891479 0.237158 0.9528794
vn 0.1891479 0.237158 0.9528794
vn 0.1891479 0.237158 0.9528794
vn 0.02835771 0.178262 0.9835742
vn 0.02835774 0.178262 0.9835742
vn 0.02835771 0.178262 0.9835742
vn 0.02835771 0.178262 0.9835742
vn 0.5027825 0.8368362 0.216596
vn 0.5027826 0.8368362 0.216596
vn 0.5027825 0.8368362 0.216596
vn 0.5027826 0.8368362 0.216596
vn 0.3865003 0.888432 -0.2475987
vn 0.3865003 0.8884319 -0.2475987
vn 0.3865003 0.888432 -0.2475987
vn 0.3865003 0.888432 -0.2475987
vn 0.1394496 0.869334 -0.4741425
vn 0.1394497 0.869334 -0.4741425
vn 0.1394496 0.869334 -0.4741425
vn 0.1394497 0.869334 -0.4741425
vn 0.2518264 0.804901 -0.5373238
vn 0.2518264 0.8049011 -0.5373238
vn 0.2518264 0.8049011 -0.5373238
vn 0.2518264 0.8049011 -0.5373238
vn -0.4383839 0.8185276 -0.3712562
vn -0.4383839 0.8185276 -0.3712562
vn -0.4383839 0.8185276 -0.3712563
vn -0.4383839 0.8185276 -0.3712562
vn -0.5226606 0.8222616 -0.2251909
vn -0.5226606 0.8222615 -0.225191
vn -0.5226606 0.8222615 -0.225191
vn -0.5226606 0.8222615 -0.225191
vn -0.5760417 0.817235 -0.01737756
vn -0.5760417 0.817235 -0.01737754
vn -0.5760417 0.817235 -0.01737754
vn -0.5760417 0.817235 -0.01737754
vn -0.08011514 0.7962338 0.5996602
vn -0.08011514 0.7962338 0.5996602
vn -0.08011517 0.7962338 0.5996602
vn -0.08011514 0.7962338 0.5996602
vn 0.2334552 0.7985127 0.554865
vn 0.2334552 0.7985128 0.5548649
vn 0.2334552 0.7985128 0.5548649
vn 0.2334552 0.7985127 0.554865
vn -0.1252335 0.7325382 0.6691066
vn -0.1252335 0.7325382 0.6691066
vn -0.1252335 0.7325382 0.6691066
vn -0.1252335 0.7325382 0.6691066
vn 0.2724558 0.9546863 0.1197527
vn 0.2724558 0.9546863 0.1197526
vn 0.2724558 0.9546863 0.1197527
vn 0.2399201 0.9181484 -0.3153424
vn 0.2399201 0.9181484 -0.3153424
vn 0.2399201 0.9181484 -0.3153423
vn 0.2066191 0.9097518 -0.3600821
vn 0.2066191 0.9097518 -0.3600821
vn 0.2066191 0.9097518 -0.3600821
vn 0.1474701 0.9095346 -0.3885851
vn 0.1474701 0.9095346 -0.3885852
vn 0.1474701 0.9095346 -0.3885852
vn -0.2551215 0.9244462 -0.2833922
vn -0.2551215 0.9244462 -0.2833921
vn -0.2551215 0.9244462 -0.2833922
vn -0.3536766 0.9219849 -0.1576568
vn -0.3536766 0.9219849 -0.1576568
vn -0.3536766 0.9219849 -0.1576568
vn -0.3611475 0.9320195 -0.03018243
vn -0.3611475 0.9320195 -0.03018245
vn -0.3611475 0.9320195 -0.03018244
vn -0.006501988 0.9190342 0.3941228
vn -0.006501973 0.9190342 0.3941228
vn -0.006501973 0.9190341 0.3941228
vn 0.3063045 0.8268816 0.4716392
vn 0.3063045 0.8268816 0.4716391
vn 0.3063045 0.8268816 0.4716391
vn -0.227163 0.7785739 0.5849947
vn -0.2271631 0.7785739 0.5849947
vn -0.2271631 0.7785739 0.5849947

vt 0.5482839 0.007647395
vt 0.5 0.15
vt 0.6264089 0.06440853
vt 0.4517161 0.00764741
vt 0.3735911 0.06440856
vt 0.34375 0.15625
vt 0.3735911 0.2480915
vt 0.4517161 0.3048526
vt 0.5482839 0.3048526
vt 0.6264089 0.2480914
vt 0.65625 0.15625
vt 0 0
vt 0 1
vt 1 1
vt 1 0
vt 0 0
vt 0 1
vt 1 1
vt 1 0
vt 0 0
vt 0 1
vt 1 1
vt 1 0
vt 0 0
vt 0 1
vt 1 1
vt 1 0
vt 0 0
vt 0 1
vt 1 1
vt 1 0
vt 0 0
vt 0 1
vt 1 1
vt 1 0
vt 0 0
vt 0 1
vt 1 1
vt 1 0
vt 0 0
vt 0 1
vt 1 1
vt 1 0
vt 0 0
vt 0 1
vt 1 1
vt 1 0
vt 0 0
vt 0 1
vt 1 1
vt 1 0
vt 0 0
vt 0 1
vt 1 1
vt 1 0
vt 0 0
vt 0 1
vt 1 1
vt 1 0
vt 0 0
vt 0 1
vt 1 1
vt 1 0
vt 0 0
vt 0 1
vt 1 1
vt 1 0
vt 0 0
vt 0 1
vt 1 1
vt 1 0
vt 0 0
vt 0 1
vt 1 1
vt 1 0
vt 0 0
vt 0 1
vt 1 1
vt 1 0
vt 0 0
vt 0 1
vt 1 1
vt 1 0
vt 0 0
vt 0 1
vt 1 1
vt 1 0
vt 0 0
vt 0 1
vt 1 1
vt 1 0
vt 0 0
vt 0 1
vt 1 1
vt 1 0
vt 0 0
vt 0 1
vt 1 1
vt 1 0
vt 0 0
vt 0 1
vt 1 1
vt 1 0
vt 0 0
vt 0 1
vt 1 1
vt 1 0
vt 0 0
vt 0 1
vt 1 1
vt 1 0
vt 0 0
vt 0 1
vt 1 1
vt 1 0
vt 0 0
vt 0 1
vt 1 1
vt 1 0
vt 0 0
vt 0 1
vt 1 1
vt 1 0
vt 0 0
vt 0 1
vt 1 1
vt 1 0
vt 0 0
vt 0 1
vt 1 1
vt 1 0
vt 0 0
vt 0 1
vt 1 1
vt 1 0
vt 0 0
vt 0 1
vt 1 1
vt 1 0
vt 0 0
vt 0 1
vt 1 1
vt 1 0
vt 0 0
vt 0 1
vt 1 1
vt 1 0
vt 0 0
vt 0 1
vt 1 1
vt 1 0
vt 0 0
vt 0 1
vt 1 1
vt 1 0
vt 0 0
vt 0 1
vt 1 1
vt 1 0
vt 0 0
vt 0 1
vt 1 1
vt 1 0
vt 0 0
vt 0 1
vt 1 1
vt 1 0
vt 0 0
vt 0 1
vt 1 1
vt 1 0
vt 0 0
vt 0.5 1
vt 1 0
vt 0 0
vt 0.5 1
vt 1 0
vt 0 0
vt 0.5 1
vt 1 0
vt 0 0
vt 0.5 1
vt 1 0
vt 0 0
vt 0.5 1
vt 1 0
vt 0 0
vt 0.5 1
vt 1 0
vt 0 0
vt 0.5 1
vt 1 0
vt 0 0
vt 0.5 1
vt 1 0
vt 0 0
vt 0.5 1
vt 1 0
vt 0 0
vt 0.5 1
vt 1 0

g pCylinder17_16_4305_65
usemtl pCylinder17_16_4305_65
usemap pCylinder17_16_4305_65
f 1/1/1 3/3/3 2/2/2
f 4/4/4 1/1/1 2/2/2
f 5/5/5 4/4/4 2/2/2
f 6/6/6 5/5/5 2/2/2
f 7/7/7 6/6/6 2/2/2
f 8/8/8 7/7/7 2/2/2
f 9/9/9 8/8/8 2/2/2
f 10/10/10 9/9/9 2/2/2
f 11/11/11 10/10/10 2/2/2
f 3/3/3 11/11/11 2/2/2
f 12/12/12 14/14/14 13/13/13
f 12/12/12 15/15/15 14/14/14
f 16/16/16 18/18/18 17/17/17
f 16/16/16 19/19/19 18/18/18
f 20/20/20 22/22/22 21/21/21
f 20/20/20 23/23/23 22/22/22
f 24/24/24 26/26/26 25/25/25
f 24/24/24 27/27/27 26/26/26
f 28/28/28 30/30/30 29/29/29
f 28/28/28 31/31/31 30/30/30
f 32/32/32 34/34/34 33/33/33
f 32/32/32 35/35/35 34/34/34
f 36/36/36 38/38/38 37/37/37
f 36/36/36 39/39/39 38/38/38
f 40/40/40 42/42/42 41/41/41
f 40/40/40 43/43/43 42/42/42
f 44/44/44 46/46/46 45/45/45
f 44/44/44 47/47/47 46/46/46
f 48/48/48 50/50/50 49/49/49
f 48/48/48 51/51/51 50/50/50
f 52/52/52 54/54/54 53/53/53
f 52/52/52 55/55/55 54/54/54
f 56/56/56 58/58/58 57/57/57
f 56/56/56 59/59/59 58/58/58
f 60/60/60 62/62/62 61/61/61
f 60/60/60 63/63/63 62/62/62
f 64/64/64 66/66/66 65/65/65
f 64/64/64 67/67/67 66/66/66
f 68/68/68 70/70/70 69/69/69
f 68/68/68 71/71/71 70/70/70
f 72/72/72 74/74/74 73/73/73
f 72/72/72 75/75/75 74/74/74
f 76/76/76 78/78/78 77/77/77
f 76/76/76 79/79/79 78/78/78
f 80/80/80 82/82/82 81/81/81
f 80/80/80 83/83/83 82/82/82
f 84/84/84 86/86/86 85/85/85
f 84/84/84 87/87/87 86/86/86
f 88/88/88 90/90/90 89/89/89
f 88/88/88 91/91/91 90/90/90
f 92/92/92 94/94/94 93/93/93
f 92/92/92 95/95/95 94/94/94
f 96/96/96 98/98/98 97/97/97
f 96/96/96 99/99/99 98/98/98
f 100/100/100 102/102/102 101/101/101
f 100/100/100 103/103/103 102/102/102
f 104/104/104 106/106/106 105/105/105
f 104/104/104 107/107/107 106/106/106
f 108/108/108 110/110/110 109/109/109
f 108/108/108 111/111/111 110/110/110
f 112/112/112 114/114/114 113/113/113
f 112/112/112 115/115/115 114/114/114
f 116/116/116 118/118/118 117/117/117
f 116/116/116 119/119/119 118/118/118
f 120/120/120 122/122/122 121/121/121
f 120/120/120 123/123/123 122/122/122
f 124/124/124 126/126/126 125/125/125
f 124/124/124 127/127/127 126/126/126
f 128/128/128 130/130/130 129/129/129
f 128/128/128 131/131/131 130/130/130
f 132/132/132 134/134/134 133/133/133
f 132/132/132 135/135/135 134/134/134
f 136/136/136 138/138/138 137/137/137
f 136/136/136 139/139/139 138/138/138
f 140/140/140 142/142/142 141/141/141
f 140/140/140 143/143/143 142/142/142
f 144/144/144 146/146/146 145/145/145
f 144/144/144 147/147/147 146/146/146
f 148/148/148 150/150/150 149/149/149
f 148/148/148 151/151/151 150/150/150
f 152/152/152 154/154/154 153/153/153
f 152/152/152 155/155/155 154/154/154
f 156/156/156 158/158/158 157/157/157
f 156/156/156 159/159/159 158/158/158
f 160/160/160 162/162/162 161/161/161
f 160/160/160 163/163/163 162/162/162
f 164/164/164 166/166/166 165/165/165
f 164/164/164 167/167/167 166/166/166
f 168/168/168 170/170/170 169/169/169
f 168/168/168 171/171/171 170/170/170
f 172/172/172 174/174/174 173/173/173
f 175/175/175 177/177/177 176/176/176
f 178/178/178 180/180/180 179/179/179
f 181/181/181 183/183/183 182/182/182
f 184/184/184 186/186/186 185/185/185
f 187/187/187 189/189/189 188/188/188
f 190/190/190 192/192/192 191/191/191
f 193/193/193 195/195/195 194/194/194
f 196/196/196 198/198/198 197/197/197
f 199/199/199 201/201/201 200/200/200
