#pCylinder1_4_3421_227.obj

v 0.01454533 -0.02577554 -0.04035822
v 0.004623875 -0.0339759 0.001091479
v 0.03878451 -0.02577549 -0.0210547
v -0.009663397 -0.02577559 -0.03817532
v -0.01825077 -0.02577549 -0.01778034
v -0.03822211 -0.02223204 0.001091471
v -0.02135085 -0.0257756 0.01996326
v -0.005297583 -0.02577552 0.03271807
v 0.02109405 -0.02577558 0.04035827
v 0.03059858 -0.02577559 0.01996327
v 0.03218948 -0.02223215 0.001091482
v 0.03878451 -0.02577549 -0.0210547
v 0.0479669 -0.01489228 -0.02772608
v 0.01805268 -0.01489226 -0.05115273
v 0.01454533 -0.02577554 -0.04035822
v 0.01454533 -0.02577554 -0.04035822
v 0.01805268 -0.01489226 -0.05115273
v -0.01317075 -0.01489231 -0.04896982
v -0.009663397 -0.02577559 -0.03817532
v -0.009663397 -0.02577559 -0.03817532
v -0.01317075 -0.01489231 -0.04896982
v -0.02743317 -0.01489233 -0.02445173
v -0.01825077 -0.02577549 -0.01778034
v -0.01825077 -0.02577549 -0.01778034
v -0.02743317 -0.01489233 -0.02445173
v -0.0479669 -0.01288807 0.001091469
v -0.03822211 -0.02223204 0.001091471
v -0.03822211 -0.02223204 0.001091471
v -0.0479669 -0.01288807 0.001091469
v -0.03053324 -0.01489233 0.02663467
v -0.02135085 -0.0257756 0.01996326
v -0.02135085 -0.0257756 0.01996326
v -0.03053324 -0.01489233 0.02663467
v -0.008804935 -0.0148923 0.04351256
v -0.005297583 -0.02577552 0.03271807
v -0.005297583 -0.02577552 0.03271807
v -0.008804935 -0.0148923 0.04351256
v 0.0246014 -0.01489222 0.05115276
v 0.02109405 -0.02577558 0.04035827
v 0.02109405 -0.02577558 0.04035827
v 0.0246014 -0.01489222 0.05115276
v 0.03978098 -0.01489226 0.02663468
v 0.03059858 -0.02577559 0.01996327
v 0.03059858 -0.02577559 0.01996327
v 0.03978098 -0.01489226 0.02663468
v 0.04193429 -0.01288813 0.00109148
v 0.03218948 -0.02223215 0.001091482
v 0.03218948 -0.02223215 0.001091482
v 0.04193429 -0.01288813 0.00109148
v 0.0479669 -0.01489228 -0.02772608
v 0.03878451 -0.02577549 -0.0210547
v 0.0479669 -0.01489228 -0.02772608
v 0.04796691 -0.0001481394 -0.02772608
v 0.01805268 -0.0001482818 -0.05115273
v 0.01805268 -0.01489226 -0.05115273
v 0.01805268 -0.01489226 -0.05115273
v 0.01805268 -0.0001482818 -0.05115273
v -0.01317075 -0.000148172 -0.04896982
v -0.01317075 -0.01489231 -0.04896982
v -0.01317075 -0.01489231 -0.04896982
v -0.01317075 -0.000148172 -0.04896982
v -0.02743317 -0.0001481916 -0.02445173
v -0.02743317 -0.01489233 -0.02445173
v -0.02743317 -0.01489233 -0.02445173
v -0.02743317 -0.0001481916 -0.02445173
v -0.0479669 -0.0002292329 0.001091468
v -0.0479669 -0.01288807 0.001091469
v -0.0479669 -0.01288807 0.001091469
v -0.0479669 -0.0002292329 0.001091468
v -0.03053324 -0.0001481946 0.02663467
v -0.03053324 -0.01489233 0.02663467
v -0.03053324 -0.01489233 0.02663467
v -0.03053324 -0.0001481946 0.02663467
v -0.008804936 -0.0001481646 0.04351257
v -0.008804935 -0.0148923 0.04351256
v -0.008804935 -0.0148923 0.04351256
v -0.008804936 -0.0001481646 0.04351257
v 0.02460139 -0.0001482379 0.05115276
v 0.0246014 -0.01489222 0.05115276
v 0.0246014 -0.01489222 0.05115276
v 0.02460139 -0.0001482379 0.05115276
v 0.03978098 -0.0001482815 0.02663467
v 0.03978098 -0.01489226 0.02663468
v 0.03978098 -0.01489226 0.02663468
v 0.03978098 -0.0001482815 0.02663467
v 0.04193429 -0.0002292935 0.001091479
v 0.04193429 -0.01288813 0.00109148
v 0.04193429 -0.01288813 0.00109148
v 0.04193429 -0.0002292935 0.001091479
v 0.04796691 -0.0001481394 -0.02772608
v 0.0479669 -0.01489228 -0.02772608
v 0.04796691 -0.0001481394 -0.02772608
v 0.0456889 0.01428345 -0.02539678
v 0.01714512 0.01428354 -0.04799124
v 0.01805268 -0.0001482818 -0.05115273
v 0.01805268 -0.0001482818 -0.05115273
v 0.01714512 0.01428354 -0.04799124
v -0.0118291 0.01428348 -0.04559763
v -0.01317075 -0.000148172 -0.04896982
v -0.01317075 -0.000148172 -0.04896982
v -0.0118291 0.01428348 -0.04559763
v -0.02321027 0.01428345 -0.02180637
v -0.02743317 -0.0001481916 -0.02445173
v -0.02743317 -0.0001481916 -0.02445173
v -0.02321027 0.01428345 -0.02180637
v -0.04530407 0.0119722 0.001196819
v -0.0479669 -0.0002292329 0.001091468
v -0.0479669 -0.0002292329 0.001091468
v -0.04530407 0.0119722 0.001196819
v -0.02660958 0.01428341 0.02420001
v -0.03053324 -0.0001481946 0.02663467
v -0.03053324 -0.0001481946 0.02663467
v -0.02660958 0.01428341 0.02420001
v -0.007041867 0.01428345 0.03961359
v -0.008804936 -0.0001481646 0.04351257
v -0.008804936 -0.0001481646 0.04351257
v -0.007041867 0.01428345 0.03961359
v 0.02432595 0.01428344 0.04799126
v 0.02460139 -0.0001482379 0.05115276
v 0.02460139 -0.0001482379 0.05115276
v 0.02432595 0.01428344 0.04799126
v 0.03671283 0.01428341 0.02420002
v 0.03978098 -0.0001482815 0.02663467
v 0.03978098 -0.0001482815 0.02663467
v 0.03671283 0.01428341 0.02420002
v 0.038652 0.01197218 0.001196831
v 0.04193429 -0.0002292935 0.001091479
v 0.04193429 -0.0002292935 0.001091479
v 0.038652 0.01197218 0.001196831
v 0.0456889 0.01428345 -0.02539678
v 0.04796691 -0.0001481394 -0.02772608
v 0.0456889 0.01428345 -0.02539678
v 0.03225246 0.02437452 -0.01614765
v 0.01203646 0.02437454 -0.03256861
v 0.01714512 0.01428354 -0.04799124
v 0.01714512 0.01428354 -0.04799124
v 0.01203646 0.02437454 -0.03256861
v -0.002592228 0.02437458 -0.02139379
v -0.0118291 0.01428348 -0.04559763
v -0.0118291 0.01428348 -0.04559763
v -0.002592228 0.02437458 -0.02139379
v -0.01125312 0.02437451 -0.01279521
v -0.02321027 0.01428345 -0.02180637
v -0.02321027 0.01428345 -0.02180637
v -0.01125312 0.02437451 -0.01279521
v -0.03124471 0.02074664 0.001117494
v -0.04530407 0.0119722 0.001196819
v -0.04530407 0.0119722 0.001196819
v -0.03124471 0.02074664 0.001117494
v -0.01442712 0.02437453 0.01503022
v -0.02660958 0.01428341 0.02420001
v -0.02660958 0.01428341 0.02420001
v -0.01442712 0.02437453 0.01503022
v -0.002592231 0.02437444 0.02474624
v -0.007041867 0.01428345 0.03961359
v -0.007041867 0.01428345 0.03961359
v -0.002592231 0.02437444 0.02474624
v 0.01874134 0.02437447 0.03256863
v 0.02432595 0.01428344 0.04799126
v 0.02432595 0.01428344 0.04799126
v 0.01874134 0.02437447 0.03256863
v 0.02387134 0.0243745 0.01503023
v 0.03671283 0.01428341 0.02420002
v 0.03671283 0.01428341 0.02420002
v 0.02387134 0.0243745 0.01503023
v 0.02504419 0.02074657 0.001117501
v 0.038652 0.01197218 0.001196831
v 0.038652 0.01197218 0.001196831
v 0.02504419 0.02074657 0.001117501
v 0.03225246 0.02437452 -0.01614765
v 0.0456889 0.01428345 -0.02539678
v 0.03225246 0.02437452 -0.01614765
v 0.004623867 0.03397613 0.001091441
v 0.01203646 0.02437454 -0.03256861
v 0.01203646 0.02437454 -0.03256861
v 0.004623867 0.03397613 0.001091441
v -0.002592228 0.02437458 -0.02139379
v -0.002592228 0.02437458 -0.02139379
v 0.004623867 0.03397613 0.001091441
v -0.01125312 0.02437451 -0.01279521
v -0.01125312 0.02437451 -0.01279521
v 0.004623867 0.03397613 0.001091441
v -0.03124471 0.02074664 0.001117494
v -0.03124471 0.02074664 0.001117494
v 0.004623867 0.03397613 0.001091441
v -0.01442712 0.02437453 0.01503022
v -0.01442712 0.02437453 0.01503022
v 0.004623867 0.03397613 0.001091441
v -0.002592231 0.02437444 0.02474624
v -0.002592231 0.02437444 0.02474624
v 0.004623867 0.03397613 0.001091441
v 0.01874134 0.02437447 0.03256863
v 0.01874134 0.02437447 0.03256863
v 0.004623867 0.03397613 0.001091441
v 0.02387134 0.0243745 0.01503023
v 0.02387134 0.0243745 0.01503023
v 0.004623867 0.03397613 0.001091441
v 0.02504419 0.02074657 0.001117501
v 0.02504419 0.02074657 0.001117501
v 0.004623867 0.03397613 0.001091441
v 0.03225246 0.02437452 -0.01614765

vn 0.05525046 -0.9816452 -0.1825367
vn 0.005109941 -0.9999867 -0.0002375852
vn 0.19977 -0.9777388 -0.06417525
vn -0.08823133 -0.9813826 -0.1705962
vn -0.260669 -0.9611274 -0.09102425
vn -0.261517 -0.965178 -0.006327065
vn -0.2171351 -0.9687505 0.1198928
vn -0.08651176 -0.9706562 0.2243698
vn 0.06997597 -0.9816265 0.1775174
vn 0.2878675 -0.9575774 0.01332017
vn 0.3971728 -0.9140731 0.08199917
vn 0.4172626 -0.7024085 -0.5766404
vn 0.4172626 -0.7024085 -0.5766404
vn 0.4172626 -0.7024085 -0.5766404
vn 0.4172626 -0.7024085 -0.5766404
vn -0.08475789 -0.7032973 -0.7058249
vn -0.08475789 -0.7032974 -0.7058249
vn -0.08475791 -0.7032973 -0.7058249
vn -0.08475791 -0.7032973 -0.705825
vn -0.6800641 -0.6643882 -0.3100015
vn -0.6800641 -0.6643882 -0.3100015
vn -0.6800641 -0.6643882 -0.3100015
vn -0.6800641 -0.6643882 -0.3100015
vn -0.5945944 -0.6883861 -0.4154299
vn -0.5945945 -0.688386 -0.4154299
vn -0.5945944 -0.688386 -0.4154299
vn -0.5945944 -0.688386 -0.4154298
vn -0.5882179 -0.6974527 0.40934
vn -0.5882179 -0.6974527 0.40934
vn -0.5882179 -0.6974527 0.40934
vn -0.5882179 -0.6974527 0.40934
vn -0.4107051 -0.7054696 0.5776105
vn -0.4107051 -0.7054696 0.5776105
vn -0.4107051 -0.7054696 0.5776104
vn -0.4107051 -0.7054696 0.5776104
vn -0.1450091 -0.6935021 0.7057103
vn -0.1450091 -0.6935022 0.7057103
vn -0.1450091 -0.6935022 0.7057104
vn -0.1450091 -0.6935021 0.7057103
vn 0.6697722 -0.6656432 0.3291265
vn 0.6697721 -0.6656432 0.3291265
vn 0.6697721 -0.6656432 0.3291265
vn 0.6697723 -0.6656432 0.3291265
vn 0.7343518 -0.676493 -0.05553783
vn 0.7343518 -0.676493 -0.05553783
vn 0.7343518 -0.676493 -0.05553783
vn 0.7343518 -0.676493 -0.05553783
vn 0.7592362 -0.6130018 0.2186075
vn 0.7592362 -0.6130016 0.2186074
vn 0.7592362 -0.6130018 0.2186075
vn 0.7592362 -0.6130017 0.2186075
vn 0.5810786 0.0021209 -0.8138447
vn 0.5810787 0.002120901 -0.8138447
vn 0.5810787 0.002120901 -0.8138447
vn 0.5810786 0.0021209 -0.8138447
vn -0.1138609 -0.0002433211 -0.9934968
vn -0.1138609 -0.0002433211 -0.9934968
vn -0.1138609 -0.0002433211 -0.9934968
vn -0.1138609 -0.0002433211 -0.9934968
vn -0.8858083 -0.002978449 -0.4640418
vn -0.8858083 -0.002978449 -0.4640418
vn -0.8858083 -0.002978449 -0.4640418
vn -0.8858083 -0.002978449 -0.4640418
vn -0.8063734 -0.00268611 -0.5914007
vn -0.8063735 -0.002686111 -0.5914007
vn -0.8063734 -0.00268611 -0.5914007
vn -0.8063734 -0.00268611 -0.5914007
vn -0.8001725 -0.002842746 0.5997633
vn -0.8001725 -0.002842746 0.5997633
vn -0.8001725 -0.002842746 0.5997634
vn -0.8001725 -0.002842746 0.5997633
vn -0.5778571 -0.002110158 0.8161354
vn -0.5778571 -0.002110158 0.8161354
vn -0.5778571 -0.002110158 0.8161354
vn -0.5778571 -0.002110158 0.8161354
vn -0.1795477 -0.000764747 0.983749
vn -0.1795477 -0.000764747 0.983749
vn -0.1795477 -0.000764747 0.983749
vn -0.1795477 -0.000764747 0.983749
vn 0.8727157 0.002929789 0.4882201
vn 0.8727157 0.002929789 0.4882201
vn 0.8727157 0.002929789 0.4882201
vn 0.8727157 0.002929789 0.4882201
vn 0.9992025 0.003431991 0.0397815
vn 0.9992025 0.003431991 0.03978151
vn 0.9992025 0.003431991 0.0397815
vn 0.9992025 0.003431991 0.03978151
vn 0.986893 0.003371475 0.1613407
vn 0.986893 0.003371475 0.1613407
vn 0.986893 0.003371475 0.1613407
vn 0.986893 0.003371475 0.1613407
vn 0.5690693 0.2148349 -0.7937294
vn 0.5690692 0.2148349 -0.7937294
vn 0.5690692 0.2148349 -0.7937294
vn 0.5690692 0.2148349 -0.7937294
vn -0.1176892 0.2209744 -0.9681527
vn -0.1176892 0.2209744 -0.9681527
vn -0.1176892 0.2209744 -0.9681527
vn -0.1176892 0.2209744 -0.9681527
vn -0.8732663 0.2559555 -0.4145996
vn -0.8732664 0.2559555 -0.4145996
vn -0.8732663 0.2559555 -0.4145997
vn -0.8732663 0.2559554 -0.4145996
vn -0.7609475 0.2521075 -0.5978301
vn -0.7609475 0.2521075 -0.5978301
vn -0.7609475 0.2521075 -0.5978301
vn -0.7609475 0.2521075 -0.5978301
vn -0.7585019 0.2410832 0.6054369
vn -0.7585019 0.2410832 0.6054369
vn -0.7585019 0.2410832 0.6054369
vn -0.7585019 0.2410832 0.6054369
vn -0.557852 0.2802258 0.7812008
vn -0.5578521 0.2802258 0.7812007
vn -0.5578521 0.2802259 0.7812008
vn -0.5578521 0.2802259 0.7812008
vn -0.1917844 0.2415854 0.9512389
vn -0.1917844 0.2415854 0.9512389
vn -0.1917844 0.2415854 0.9512389
vn -0.1917844 0.2415854 0.9512389
vn 0.8722482 0.1959422 0.4480959
vn 0.8722482 0.1959422 0.4480959
vn 0.8722481 0.1959422 0.4480959
vn 0.8722482 0.1959422 0.4480959
vn 0.9702739 0.2404939 0.02704239
vn 0.9702739 0.2404939 0.0270424
vn 0.9702739 0.2404939 0.02704239
vn 0.9702739 0.2404939 0.0270424
vn 0.9647278 0.1815539 0.1906264
vn 0.9647278 0.1815539 0.1906264
vn 0.9647278 0.1815539 0.1906264
vn 0.9647278 0.181554 0.1906264
vn 0.3198801 0.8380082 -0.4420618
vn 0.3198801 0.8380082 -0.4420619
vn 0.3198801 0.8380082 -0.4420618
vn 0.3198801 0.8380082 -0.4420619
vn -0.1587197 0.887956 -0.4316734
vn -0.1587197 0.887956 -0.4316734
vn -0.1587197 0.887956 -0.4316734
vn -0.1587197 0.887956 -0.4316734
vn -0.4343678 0.867881 -0.2410534
vn -0.4343678 0.867881 -0.2410534
vn -0.4343678 0.867881 -0.2410534
vn -0.4343678 0.867881 -0.2410534
vn -0.4708163 0.8033407 -0.364658
vn -0.4708163 0.8033408 -0.364658
vn -0.4708163 0.8033408 -0.364658
vn -0.4708163 0.8033408 -0.364658
vn -0.4620898 0.8168913 0.3451975
vn -0.4620897 0.8168914 0.3451975
vn -0.4620898 0.8168913 0.3451976
vn -0.4620898 0.8168913 0.3451975
vn -0.3383799 0.8210338 0.459785
vn -0.33838 0.8210337 0.459785
vn -0.33838 0.8210337 0.4597851
vn -0.33838 0.8210337 0.459785
vn -0.147576 0.8166491 0.5579475
vn -0.147576 0.8166491 0.5579475
vn -0.147576 0.8166491 0.5579475
vn -0.147576 0.8166491 0.5579475
vn 0.564191 0.7981485 0.2112987
vn 0.564191 0.7981485 0.2112987
vn 0.564191 0.7981485 0.2112988
vn 0.564191 0.7981485 0.2112987
vn 0.5900842 0.8005637 -0.104394
vn 0.5900841 0.8005638 -0.104394
vn 0.5900841 0.8005638 -0.104394
vn 0.5900842 0.8005637 -0.104394
vn 0.6221134 0.7346429 0.2706926
vn 0.6221134 0.734643 0.2706926
vn 0.6221134 0.7346429 0.2706926
vn 0.6221134 0.7346429 0.2706926
vn 0.1739381 0.9553266 -0.2389484
vn 0.173938 0.9553266 -0.2389485
vn 0.1739381 0.9553266 -0.2389484
vn -0.2574016 0.9173139 -0.3037748
vn -0.2574016 0.9173139 -0.3037749
vn -0.2574016 0.9173139 -0.3037749
vn -0.3083861 0.9087386 -0.2812329
vn -0.3083861 0.9087386 -0.2812329
vn -0.3083861 0.9087386 -0.2812329
vn -0.3493024 0.9083729 -0.2298831
vn -0.3493025 0.9083729 -0.2298831
vn -0.3493025 0.9083729 -0.2298831
vn -0.3361163 0.9232678 0.1860162
vn -0.3361163 0.9232678 0.1860162
vn -0.3361163 0.9232678 0.1860162
vn -0.2353764 0.9211345 0.3100141
vn -0.2353764 0.9211346 0.3100141
vn -0.2353764 0.9211346 0.3100141
vn -0.1127729 0.9315857 0.3455862
vn -0.1127729 0.9315857 0.3455862
vn -0.1127729 0.9315857 0.3455862
vn 0.3796904 0.9203324 0.09393124
vn 0.3796905 0.9203324 0.09393124
vn 0.3796905 0.9203323 0.09393124
vn 0.5250008 0.8287222 -0.1938905
vn 0.5250008 0.8287222 -0.1938905
vn 0.5250007 0.8287222 -0.1938905
vn 0.517323 0.7803063 0.351424
vn 0.517323 0.7803063 0.351424
vn 0.517323 0.7803063 0.351424

vt 0.5483398 0.007648468
vt 0.5 0.1500244
vt 0.6264648 0.06439209
vt 0.4516602 0.007648468
vt 0.3735352 0.06439209
vt 0.34375 0.15625
vt 0.3735352 0.2480469
vt 0.4516602 0.3049316
vt 0.5483398 0.3049316
vt 0.6264648 0.2480469
vt 0.65625 0.15625
vt 0 0
vt 0 1
vt 1 1
vt 1 0
vt 0 0
vt 0 1
vt 1 1
vt 1 0
vt 0 0
vt 0 1
vt 1 1
vt 1 0
vt 0 0
vt 0 1
vt 1 1
vt 1 0
vt 0 0
vt 0 1
vt 1 1
vt 1 0
vt 0 0
vt 0 1
vt 1 1
vt 1 0
vt 0 0
vt 0 1
vt 1 1
vt 1 0
vt 0 0
vt 0 1
vt 1 1
vt 1 0
vt 0 0
vt 0 1
vt 1 1
vt 1 0
vt 0 0
vt 0 1
vt 1 1
vt 1 0
vt 0 0
vt 0 1
vt 1 1
vt 1 0
vt 0 0
vt 0 1
vt 1 1
vt 1 0
vt 0 0
vt 0 1
vt 1 1
vt 1 0
vt 0 0
vt 0 1
vt 1 1
vt 1 0
vt 0 0
vt 0 1
vt 1 1
vt 1 0
vt 0 0
vt 0 1
vt 1 1
vt 1 0
vt 0 0
vt 0 1
vt 1 1
vt 1 0
vt 0 0
vt 0 1
vt 1 1
vt 1 0
vt 0 0
vt 0 1
vt 1 1
vt 1 0
vt 0 0
vt 0 1
vt 1 1
vt 1 0
vt 0 0
vt 0 1
vt 1 1
vt 1 0
vt 0 0
vt 0 1
vt 1 1
vt 1 0
vt 0 0
vt 0 1
vt 1 1
vt 1 0
vt 0 0
vt 0 1
vt 1 1
vt 1 0
vt 0 0
vt 0 1
vt 1 1
vt 1 0
vt 0 0
vt 0 1
vt 1 1
vt 1 0
vt 0 0
vt 0 1
vt 1 1
vt 1 0
vt 0 0
vt 0 1
vt 1 1
vt 1 0
vt 0 0
vt 0 1
vt 1 1
vt 1 0
vt 0 0
vt 0 1
vt 1 1
vt 1 0
vt 0 0
vt 0 1
vt 1 1
vt 1 0
vt 0 0
vt 0 1
vt 1 1
vt 1 0
vt 0 0
vt 0 1
vt 1 1
vt 1 0
vt 0 0
vt 0 1
vt 1 1
vt 1 0
vt 0 0
vt 0 1
vt 1 1
vt 1 0
vt 0 0
vt 0 1
vt 1 1
vt 1 0
vt 0 0
vt 0 1
vt 1 1
vt 1 0
vt 0 0
vt 0 1
vt 1 1
vt 1 0
vt 0 0
vt 0 1
vt 1 1
vt 1 0
vt 0 0
vt 0 1
vt 1 1
vt 1 0
vt 0 0
vt 0.5 1
vt 1 0
vt 0 0
vt 0.5 1
vt 1 0
vt 0 0
vt 0.5 1
vt 1 0
vt 0 0
vt 0.5 1
vt 1 0
vt 0 0
vt 0.5 1
vt 1 0
vt 0 0
vt 0.5 1
vt 1 0
vt 0 0
vt 0.5 1
vt 1 0
vt 0 0
vt 0.5 1
vt 1 0
vt 0 0
vt 0.5 1
vt 1 0
vt 0 0
vt 0.5 1
vt 1 0

g pCylinder1_4_3421_227
usemtl pCylinder1_4_3421_227
usemap pCylinder1_4_3421_227
f 1/1/1 3/3/3 2/2/2
f 4/4/4 1/1/1 2/2/2
f 5/5/5 4/4/4 2/2/2
f 6/6/6 5/5/5 2/2/2
f 7/7/7 6/6/6 2/2/2
f 8/8/8 7/7/7 2/2/2
f 9/9/9 8/8/8 2/2/2
f 10/10/10 9/9/9 2/2/2
f 11/11/11 10/10/10 2/2/2
f 3/3/3 11/11/11 2/2/2
f 12/12/12 14/14/14 13/13/13
f 12/12/12 15/15/15 14/14/14
f 16/16/16 18/18/18 17/17/17
f 16/16/16 19/19/19 18/18/18
f 20/20/20 22/22/22 21/21/21
f 20/20/20 23/23/23 22/22/22
f 24/24/24 26/26/26 25/25/25
f 24/24/24 27/27/27 26/26/26
f 28/28/28 30/30/30 29/29/29
f 28/28/28 31/31/31 30/30/30
f 32/32/32 34/34/34 33/33/33
f 32/32/32 35/35/35 34/34/34
f 36/36/36 38/38/38 37/37/37
f 36/36/36 39/39/39 38/38/38
f 40/40/40 42/42/42 41/41/41
f 40/40/40 43/43/43 42/42/42
f 44/44/44 46/46/46 45/45/45
f 44/44/44 47/47/47 46/46/46
f 48/48/48 50/50/50 49/49/49
f 48/48/48 51/51/51 50/50/50
f 52/52/52 54/54/54 53/53/53
f 52/52/52 55/55/55 54/54/54
f 56/56/56 58/58/58 57/57/57
f 56/56/56 59/59/59 58/58/58
f 60/60/60 62/62/62 61/61/61
f 60/60/60 63/63/63 62/62/62
f 64/64/64 66/66/66 65/65/65
f 64/64/64 67/67/67 66/66/66
f 68/68/68 70/70/70 69/69/69
f 68/68/68 71/71/71 70/70/70
f 72/72/72 74/74/74 73/73/73
f 72/72/72 75/75/75 74/74/74
f 76/76/76 78/78/78 77/77/77
f 76/76/76 79/79/79 78/78/78
f 80/80/80 82/82/82 81/81/81
f 80/80/80 83/83/83 82/82/82
f 84/84/84 86/86/86 85/85/85
f 84/84/84 87/87/87 86/86/86
f 88/88/88 90/90/90 89/89/89
f 88/88/88 91/91/91 90/90/90
f 92/92/92 94/94/94 93/93/93
f 92/92/92 95/95/95 94/94/94
f 96/96/96 98/98/98 97/97/97
f 96/96/96 99/99/99 98/98/98
f 100/100/100 102/102/102 101/101/101
f 100/100/100 103/103/103 102/102/102
f 104/104/104 106/106/106 105/105/105
f 104/104/104 107/107/107 106/106/106
f 108/108/108 110/110/110 109/109/109
f 108/108/108 111/111/111 110/110/110
f 112/112/112 114/114/114 113/113/113
f 112/112/112 115/115/115 114/114/114
f 116/116/116 118/118/118 117/117/117
f 116/116/116 119/119/119 118/118/118
f 120/120/120 122/122/122 121/121/121
f 120/120/120 123/123/123 122/122/122
f 124/124/124 126/126/126 125/125/125
f 124/124/124 127/127/127 126/126/126
f 128/128/128 130/130/130 129/129/129
f 128/128/128 131/131/131 130/130/130
f 132/132/132 134/134/134 133/133/133
f 132/132/132 135/135/135 134/134/134
f 136/136/136 138/138/138 137/137/137
f 136/136/136 139/139/139 138/138/138
f 140/140/140 142/142/142 141/141/141
f 140/140/140 143/143/143 142/142/142
f 144/144/144 146/146/146 145/145/145
f 144/144/144 147/147/147 146/146/146
f 148/148/148 150/150/150 149/149/149
f 148/148/148 151/151/151 150/150/150
f 152/152/152 154/154/154 153/153/153
f 152/152/152 155/155/155 154/154/154
f 156/156/156 158/158/158 157/157/157
f 156/156/156 159/159/159 158/158/158
f 160/160/160 162/162/162 161/161/161
f 160/160/160 163/163/163 162/162/162
f 164/164/164 166/166/166 165/165/165
f 164/164/164 167/167/167 166/166/166
f 168/168/168 170/170/170 169/169/169
f 168/168/168 171/171/171 170/170/170
f 172/172/172 174/174/174 173/173/173
f 175/175/175 177/177/177 176/176/176
f 178/178/178 180/180/180 179/179/179
f 181/181/181 183/183/183 182/182/182
f 184/184/184 186/186/186 185/185/185
f 187/187/187 189/189/189 188/188/188
f 190/190/190 192/192/192 191/191/191
f 193/193/193 195/195/195 194/194/194
f 196/196/196 198/198/198 197/197/197
f 199/199/199 201/201/201 200/200/200
