#pCylinder2_2_3311_141.obj

v 0.01454535 -0.02577554 -0.04035841
v 0.004623912 -0.03397604 0.001091308
v 0.03878454 -0.02577554 -0.02105488
v -0.009663378 -0.02577554 -0.03817552
v -0.01825074 -0.02577554 -0.01778055
v -0.03822206 -0.02223208 0.001091261
v -0.02135082 -0.02577554 0.01996305
v -0.005297559 -0.02577554 0.0327179
v 0.02109407 -0.02577554 0.04035807
v 0.03059862 -0.02577554 0.01996308
v 0.03218949 -0.02223208 0.001091305
v 0.03878454 -0.02577554 -0.02105488
v 0.04796693 -0.01489235 -0.02772629
v 0.01805272 -0.01489235 -0.05115292
v 0.01454535 -0.02577554 -0.04035841
v 0.01454535 -0.02577554 -0.04035841
v 0.01805272 -0.01489235 -0.05115292
v -0.01317073 -0.01489235 -0.04897004
v -0.009663378 -0.02577554 -0.03817552
v -0.009663378 -0.02577554 -0.03817552
v -0.01317073 -0.01489235 -0.04897004
v -0.02743313 -0.01489235 -0.02445192
v -0.01825074 -0.02577554 -0.01778055
v -0.01825074 -0.02577554 -0.01778055
v -0.02743313 -0.01489235 -0.02445192
v -0.0479669 -0.01288804 0.00109125
v -0.03822206 -0.02223208 0.001091261
v -0.03822206 -0.02223208 0.001091261
v -0.0479669 -0.01288804 0.00109125
v -0.03053322 -0.01489235 0.02663447
v -0.02135082 -0.02577554 0.01996305
v -0.02135082 -0.02577554 0.01996305
v -0.03053322 -0.01489235 0.02663447
v -0.008804916 -0.01489235 0.04351236
v -0.005297559 -0.02577554 0.0327179
v -0.005297559 -0.02577554 0.0327179
v -0.008804916 -0.01489235 0.04351236
v 0.02460144 -0.01489235 0.05115254
v 0.02109407 -0.02577554 0.04035807
v 0.02109407 -0.02577554 0.04035807
v 0.02460144 -0.01489235 0.05115254
v 0.039781 -0.01489235 0.02663451
v 0.03059862 -0.02577554 0.01996308
v 0.03059862 -0.02577554 0.01996308
v 0.039781 -0.01489235 0.02663451
v 0.04193431 -0.01288804 0.001091313
v 0.03218949 -0.02223208 0.001091305
v 0.03218949 -0.02223208 0.001091305
v 0.04193431 -0.01288804 0.001091313
v 0.04796693 -0.01489235 -0.02772629
v 0.03878454 -0.02577554 -0.02105488
v 0.04796693 -0.01489235 -0.02772629
v 0.04796693 -0.0001482786 -0.02772629
v 0.01805272 -0.0001482786 -0.05115292
v 0.01805272 -0.01489235 -0.05115292
v 0.01805272 -0.01489235 -0.05115292
v 0.01805272 -0.0001482786 -0.05115292
v -0.01317073 -0.0001482786 -0.04897004
v -0.01317073 -0.01489235 -0.04897004
v -0.01317073 -0.01489235 -0.04897004
v -0.01317073 -0.0001482786 -0.04897004
v -0.02743313 -0.0001482786 -0.02445192
v -0.02743313 -0.01489235 -0.02445192
v -0.02743313 -0.01489235 -0.02445192
v -0.02743313 -0.0001482786 -0.02445192
v -0.0479669 -0.0002292522 0.00109125
v -0.0479669 -0.01288804 0.00109125
v -0.0479669 -0.01288804 0.00109125
v -0.0479669 -0.0002292522 0.00109125
v -0.03053322 -0.0001482786 0.02663447
v -0.03053322 -0.01489235 0.02663447
v -0.03053322 -0.01489235 0.02663447
v -0.03053322 -0.0001482786 0.02663447
v -0.008804916 -0.0001482786 0.04351236
v -0.008804916 -0.01489235 0.04351236
v -0.008804916 -0.01489235 0.04351236
v -0.008804916 -0.0001482786 0.04351236
v 0.02460144 -0.0001482786 0.05115254
v 0.02460144 -0.01489235 0.05115254
v 0.02460144 -0.01489235 0.05115254
v 0.02460144 -0.0001482786 0.05115254
v 0.039781 -0.0001482786 0.02663451
v 0.039781 -0.01489235 0.02663451
v 0.039781 -0.01489235 0.02663451
v 0.039781 -0.0001482786 0.02663451
v 0.04193431 -0.0002292522 0.001091313
v 0.04193431 -0.01288804 0.001091313
v 0.04193431 -0.01288804 0.001091313
v 0.04193431 -0.0002292522 0.001091313
v 0.04796693 -0.0001482786 -0.02772629
v 0.04796693 -0.01489235 -0.02772629
v 0.04796693 -0.0001482786 -0.02772629
v 0.04568893 0.01428353 -0.025397
v 0.01714515 0.01428353 -0.04799142
v 0.01805272 -0.0001482786 -0.05115292
v 0.01805272 -0.0001482786 -0.05115292
v 0.01714515 0.01428353 -0.04799142
v -0.01182907 0.01428353 -0.04559783
v -0.01317073 -0.0001482786 -0.04897004
v -0.01317073 -0.0001482786 -0.04897004
v -0.01182907 0.01428353 -0.04559783
v -0.02321024 0.01428353 -0.02180656
v -0.02743313 -0.0001482786 -0.02445192
v -0.02743313 -0.0001482786 -0.02445192
v -0.02321024 0.01428353 -0.02180656
v -0.04530405 0.01197212 0.001196633
v -0.0479669 -0.0002292522 0.00109125
v -0.0479669 -0.0002292522 0.00109125
v -0.04530405 0.01197212 0.001196633
v -0.02660957 0.01428353 0.02419983
v -0.03053322 -0.0001482786 0.02663447
v -0.03053322 -0.0001482786 0.02663447
v -0.02660957 0.01428353 0.02419983
v -0.007041846 0.01428353 0.03961339
v -0.008804916 -0.0001482786 0.04351236
v -0.008804916 -0.0001482786 0.04351236
v -0.007041846 0.01428353 0.03961339
v 0.02432597 0.01428353 0.04799106
v 0.02460144 -0.0001482786 0.05115254
v 0.02460144 -0.0001482786 0.05115254
v 0.02432597 0.01428353 0.04799106
v 0.03671286 0.01428353 0.02419983
v 0.039781 -0.0001482786 0.02663451
v 0.039781 -0.0001482786 0.02663451
v 0.03671286 0.01428353 0.02419983
v 0.03865201 0.01197212 0.001196618
v 0.04193431 -0.0002292522 0.001091313
v 0.04193431 -0.0002292522 0.001091313
v 0.03865201 0.01197212 0.001196618
v 0.04568893 0.01428353 -0.025397
v 0.04796693 -0.0001482786 -0.02772629
v 0.04568893 0.01428353 -0.025397
v 0.0322525 0.02437442 -0.01614783
v 0.01203649 0.02437442 -0.03256882
v 0.01714515 0.01428353 -0.04799142
v 0.01714515 0.01428353 -0.04799142
v 0.01203649 0.02437442 -0.03256882
v -0.002592199 0.02437442 -0.02139396
v -0.01182907 0.01428353 -0.04559783
v -0.01182907 0.01428353 -0.04559783
v -0.002592199 0.02437442 -0.02139396
v -0.01125308 0.02437442 -0.01279538
v -0.02321024 0.01428353 -0.02180656
v -0.02321024 0.01428353 -0.02180656
v -0.01125308 0.02437442 -0.01279538
v -0.03124471 0.02074655 0.001117324
v -0.04530405 0.01197212 0.001196633
v -0.04530405 0.01197212 0.001196633
v -0.03124471 0.02074655 0.001117324
v -0.01442708 0.02437442 0.01503001
v -0.02660957 0.01428353 0.02419983
v -0.02660957 0.01428353 0.02419983
v -0.01442708 0.02437442 0.01503001
v -0.00259221 0.02437442 0.02474603
v -0.007041846 0.01428353 0.03961339
v -0.007041846 0.01428353 0.03961339
v -0.00259221 0.02437442 0.02474603
v 0.01874137 0.02437442 0.03256845
v 0.02432597 0.01428353 0.04799106
v 0.02432597 0.01428353 0.04799106
v 0.01874137 0.02437442 0.03256845
v 0.02387138 0.02437442 0.01503002
v 0.03671286 0.01428353 0.02419983
v 0.03671286 0.01428353 0.02419983
v 0.02387138 0.02437442 0.01503002
v 0.0250442 0.02074655 0.001117331
v 0.03865201 0.01197212 0.001196618
v 0.03865201 0.01197212 0.001196618
v 0.0250442 0.02074655 0.001117331
v 0.0322525 0.02437442 -0.01614783
v 0.04568893 0.01428353 -0.025397
v 0.0322525 0.02437442 -0.01614783
v 0.00462389 0.03397624 0.001091251
v 0.01203649 0.02437442 -0.03256882
v 0.01203649 0.02437442 -0.03256882
v 0.00462389 0.03397624 0.001091251
v -0.002592199 0.02437442 -0.02139396
v -0.002592199 0.02437442 -0.02139396
v 0.00462389 0.03397624 0.001091251
v -0.01125308 0.02437442 -0.01279538
v -0.01125308 0.02437442 -0.01279538
v 0.00462389 0.03397624 0.001091251
v -0.03124471 0.02074655 0.001117324
v -0.03124471 0.02074655 0.001117324
v 0.00462389 0.03397624 0.001091251
v -0.01442708 0.02437442 0.01503001
v -0.01442708 0.02437442 0.01503001
v 0.00462389 0.03397624 0.001091251
v -0.00259221 0.02437442 0.02474603
v -0.00259221 0.02437442 0.02474603
v 0.00462389 0.03397624 0.001091251
v 0.01874137 0.02437442 0.03256845
v 0.01874137 0.02437442 0.03256845
v 0.00462389 0.03397624 0.001091251
v 0.02387138 0.02437442 0.01503002
v 0.02387138 0.02437442 0.01503002
v 0.00462389 0.03397624 0.001091251
v 0.0250442 0.02074655 0.001117331
v 0.0250442 0.02074655 0.001117331
v 0.00462389 0.03397624 0.001091251
v 0.0322525 0.02437442 -0.01614783

vn 0.184868 -0.9818569 0.0421983
vn 0.0001759393 -0.9999986 0.001662339
vn 0.07428049 -0.9784301 0.1927614
vn 0.1653903 -0.9810988 -0.1004541
vn 0.07685713 -0.9602386 -0.2683929
vn -0.007768564 -0.9642735 -0.2647946
vn -0.131478 -0.96798 -0.2138416
vn -0.2289338 -0.9703194 -0.07790618
vn -0.1739114 -0.9818351 0.07585934
vn 0.001537263 -0.9585603 0.2848853
vn -0.06127755 -0.9154221 0.3978032
vn 0.5975762 -0.7039263 0.3839149
vn 0.5975761 -0.7039263 0.3839148
vn 0.5975761 -0.7039263 0.3839149
vn 0.5975761 -0.7039263 0.3839148
vn 0.7001515 -0.703107 -0.1242107
vn 0.7001515 -0.7031071 -0.1242107
vn 0.7001515 -0.703107 -0.1242108
vn 0.7001516 -0.7031071 -0.1242108
vn 0.2735489 -0.6620908 -0.6977153
vn 0.2735489 -0.6620908 -0.6977154
vn 0.2735489 -0.6620908 -0.6977153
vn 0.2735489 -0.6620908 -0.6977154
vn 0.3833228 -0.6863984 -0.6179975
vn 0.3833228 -0.6863983 -0.6179976
vn 0.3833228 -0.6863983 -0.6179975
vn 0.3833228 -0.6863983 -0.6179975
vn -0.4399704 -0.6953636 -0.5682389
vn -0.4399704 -0.6953636 -0.5682389
vn -0.4399704 -0.6953636 -0.5682389
vn -0.4399704 -0.6953636 -0.5682389
vn -0.5986647 -0.7039661 -0.3821416
vn -0.5986647 -0.7039661 -0.3821417
vn -0.5986646 -0.7039661 -0.3821417
vn -0.5986646 -0.7039661 -0.3821416
vn -0.7125948 -0.6928937 -0.1100305
vn -0.7125948 -0.6928938 -0.1100306
vn -0.7125949 -0.6928938 -0.1100305
vn -0.7125948 -0.6928937 -0.1100305
vn -0.2936286 -0.6678946 0.6838853
vn -0.2936286 -0.6678946 0.6838853
vn -0.2936286 -0.6678946 0.6838853
vn -0.2936286 -0.6678946 0.6838854
vn 0.09389856 -0.679024 0.7280861
vn 0.09389856 -0.6790241 0.7280861
vn 0.09389856 -0.679024 0.7280861
vn 0.09389856 -0.679024 0.7280861
vn -0.1785355 -0.6155778 0.7675866
vn -0.1785355 -0.6155776 0.7675866
vn -0.1785355 -0.6155778 0.7675866
vn -0.1785355 -0.6155777 0.7675866
vn 0.8433086 0 0.5374297
vn 0.8433086 0 0.5374297
vn 0.8433086 0 0.5374297
vn 0.8433086 0 0.5374297
vn 0.9861244 0 -0.1660084
vn 0.9861244 0 -0.1660084
vn 0.9861244 0 -0.1660084
vn 0.9861244 0 -0.1660084
vn 0.4167624 0 -0.9090155
vn 0.4167624 0 -0.9090155
vn 0.4167624 0 -0.9090155
vn 0.4167624 0 -0.9090155
vn 0.5481267 0 -0.8363954
vn 0.5481267 0 -0.8363954
vn 0.5481267 0 -0.8363954
vn 0.5481267 0 -0.8363954
vn -0.6410589 0 -0.7674918
vn -0.6410589 0 -0.7674918
vn -0.641059 0 -0.7674918
vn -0.6410589 0 -0.7674918
vn -0.8454264 0 -0.534092
vn -0.8454264 0 -0.534092
vn -0.8454264 0 -0.534092
vn -0.8454264 0 -0.534092
vn -0.9918375 0 -0.1275083
vn -0.9918375 0 -0.1275083
vn -0.9918375 0 -0.1275083
vn -0.9918375 0 -0.1275083
vn -0.4415963 0 0.8972139
vn -0.4415963 0 0.8972139
vn -0.4415963 0 0.8972139
vn -0.4415963 0 0.8972139
vn 0.01287956 0 0.9999171
vn 0.01287955 0 0.9999171
vn 0.01287956 0 0.9999171
vn 0.01287955 0 0.9999171
vn -0.1091591 0 0.9940244
vn -0.1091591 0 0.9940244
vn -0.1091591 0 0.9940244
vn -0.1091591 0 0.9940244
vn 0.8226592 0.2127571 0.5272253
vn 0.8226591 0.2127571 0.5272253
vn 0.8226591 0.2127571 0.5272253
vn 0.8226591 0.2127571 0.5272253
vn 0.960687 0.2212334 -0.1677386
vn 0.960687 0.2212334 -0.1677386
vn 0.960687 0.2212334 -0.1677386
vn 0.960687 0.2212334 -0.1677386
vn 0.3681345 0.2588966 -0.8930003
vn 0.3681345 0.2588966 -0.8930004
vn 0.3681346 0.2588966 -0.8930003
vn 0.3681345 0.2588966 -0.8930003
vn 0.5570229 0.2546349 -0.7904978
vn 0.5570229 0.2546349 -0.7904978
vn 0.5570229 0.2546348 -0.7904978
vn 0.5570228 0.2546349 -0.7904978
vn -0.6444503 0.243782 -0.7247444
vn -0.6444503 0.243782 -0.7247444
vn -0.6444502 0.243782 -0.7247444
vn -0.6444503 0.243782 -0.7247444
vn -0.8093938 0.2822603 -0.5149863
vn -0.8093938 0.2822603 -0.5149863
vn -0.8093938 0.2822603 -0.5149863
vn -0.8093938 0.2822603 -0.5149863
vn -0.9599366 0.242386 -0.1406087
vn -0.9599366 0.242386 -0.1406087
vn -0.9599366 0.242386 -0.1406087
vn -0.9599366 0.242386 -0.1406087
vn -0.4014887 0.1930069 0.8952962
vn -0.4014887 0.1930069 0.8952962
vn -0.4014887 0.1930069 0.8952962
vn -0.4014887 0.1930069 0.8952962
vn 0.0241563 0.2371582 0.9711707
vn 0.0241563 0.2371582 0.9711708
vn 0.02415631 0.2371582 0.9711708
vn 0.0241563 0.2371581 0.9711708
vn -0.1395123 0.1782621 0.9740426
vn -0.1395123 0.1782621 0.9740426
vn -0.1395123 0.1782621 0.9740426
vn -0.1395123 0.1782621 0.9740426
vn 0.4585662 0.8368367 0.2990339
vn 0.4585663 0.8368367 0.2990339
vn 0.4585662 0.8368367 0.2990339
vn 0.4585663 0.8368367 0.2990339
vn 0.4230119 0.8884325 -0.1781813
vn 0.4230119 0.8884324 -0.1781813
vn 0.4230119 0.8884325 -0.1781813
vn 0.4230119 0.8884325 -0.1781812
vn 0.2181377 0.8693345 -0.4434786
vn 0.2181377 0.8693345 -0.4434786
vn 0.2181377 0.8693345 -0.4434786
vn 0.2181377 0.8693345 -0.4434786
vn 0.3396307 0.8049015 -0.4866051
vn 0.3396307 0.8049015 -0.4866051
vn 0.3396307 0.8049015 -0.4866051
vn 0.3396307 0.8049015 -0.4866051
vn -0.3687764 0.8185281 -0.4404721
vn -0.3687764 0.8185281 -0.4404721
vn -0.3687765 0.8185281 -0.4404721
vn -0.3687764 0.8185281 -0.4404721
vn -0.4766907 0.822262 -0.3108876
vn -0.4766907 0.8222619 -0.3108876
vn -0.4766908 0.8222619 -0.3108876
vn -0.4766907 0.8222619 -0.3108876
vn -0.5646733 0.8172355 -0.1151964
vn -0.5646733 0.8172355 -0.1151964
vn -0.5646733 0.8172355 -0.1151964
vn -0.5646733 0.8172355 -0.1151964
vn -0.1810392 0.7962343 0.5772657
vn -0.1810392 0.7962343 0.5772657
vn -0.1810392 0.7962343 0.5772657
vn -0.1810392 0.7962343 0.5772657
vn 0.1355797 0.7985132 0.5865107
vn 0.1355797 0.7985132 0.5865105
vn 0.1355797 0.7985132 0.5865106
vn 0.1355797 0.7985132 0.5865107
vn -0.2373223 0.7325386 0.6380167
vn -0.2373223 0.7325386 0.6380167
vn -0.2373223 0.7325386 0.6380167
vn -0.2373223 0.7325386 0.6380167
vn 0.2480899 0.9546869 0.1643906
vn 0.2480899 0.9546869 0.1643906
vn 0.2480899 0.9546869 0.1643906
vn 0.2901052 0.9181489 -0.2698915
vn 0.2901053 0.9181489 -0.2698915
vn 0.2901052 0.9181489 -0.2698915
vn 0.2649075 0.9097524 -0.3196476
vn 0.2649075 0.9097524 -0.3196476
vn 0.2649075 0.9097524 -0.3196477
vn 0.2114747 0.9095351 -0.3578048
vn 0.2114747 0.9095351 -0.3578049
vn 0.2114747 0.9095351 -0.3578049
vn -0.2031486 0.9244468 -0.3226899
vn -0.2031486 0.9244468 -0.3226899
vn -0.2031486 0.9244468 -0.3226899
vn -0.3216716 0.9219854 -0.2155695
vn -0.3216716 0.9219854 -0.2155695
vn -0.3216716 0.9219854 -0.2155695
vn -0.3507363 0.93202 -0.09122807
vn -0.3507363 0.93202 -0.09122809
vn -0.3507363 0.93202 -0.09122808
vn -0.07350748 0.9190347 0.3872618
vn -0.07350747 0.9190347 0.3872619
vn -0.07350748 0.9190347 0.3872619
vn 0.2215349 0.8268821 0.5169026
vn 0.2215349 0.8268821 0.5169025
vn 0.2215349 0.8268821 0.5169025
vn -0.3234434 0.7785743 0.537779
vn -0.3234435 0.7785743 0.537779
vn -0.3234435 0.7785743 0.5377791

vt 0.5482839 0.007647395
vt 0.5 0.15
vt 0.6264089 0.06440853
vt 0.4517161 0.00764741
vt 0.3735911 0.06440856
vt 0.34375 0.15625
vt 0.3735911 0.2480915
vt 0.4517161 0.3048526
vt 0.5482839 0.3048526
vt 0.6264089 0.2480914
vt 0.65625 0.15625
vt 0 0
vt 0 1
vt 1 1
vt 1 0
vt 0 0
vt 0 1
vt 1 1
vt 1 0
vt 0 0
vt 0 1
vt 1 1
vt 1 0
vt 0 0
vt 0 1
vt 1 1
vt 1 0
vt 0 0
vt 0 1
vt 1 1
vt 1 0
vt 0 0
vt 0 1
vt 1 1
vt 1 0
vt 0 0
vt 0 1
vt 1 1
vt 1 0
vt 0 0
vt 0 1
vt 1 1
vt 1 0
vt 0 0
vt 0 1
vt 1 1
vt 1 0
vt 0 0
vt 0 1
vt 1 1
vt 1 0
vt 0 0
vt 0 1
vt 1 1
vt 1 0
vt 0 0
vt 0 1
vt 1 1
vt 1 0
vt 0 0
vt 0 1
vt 1 1
vt 1 0
vt 0 0
vt 0 1
vt 1 1
vt 1 0
vt 0 0
vt 0 1
vt 1 1
vt 1 0
vt 0 0
vt 0 1
vt 1 1
vt 1 0
vt 0 0
vt 0 1
vt 1 1
vt 1 0
vt 0 0
vt 0 1
vt 1 1
vt 1 0
vt 0 0
vt 0 1
vt 1 1
vt 1 0
vt 0 0
vt 0 1
vt 1 1
vt 1 0
vt 0 0
vt 0 1
vt 1 1
vt 1 0
vt 0 0
vt 0 1
vt 1 1
vt 1 0
vt 0 0
vt 0 1
vt 1 1
vt 1 0
vt 0 0
vt 0 1
vt 1 1
vt 1 0
vt 0 0
vt 0 1
vt 1 1
vt 1 0
vt 0 0
vt 0 1
vt 1 1
vt 1 0
vt 0 0
vt 0 1
vt 1 1
vt 1 0
vt 0 0
vt 0 1
vt 1 1
vt 1 0
vt 0 0
vt 0 1
vt 1 1
vt 1 0
vt 0 0
vt 0 1
vt 1 1
vt 1 0
vt 0 0
vt 0 1
vt 1 1
vt 1 0
vt 0 0
vt 0 1
vt 1 1
vt 1 0
vt 0 0
vt 0 1
vt 1 1
vt 1 0
vt 0 0
vt 0 1
vt 1 1
vt 1 0
vt 0 0
vt 0 1
vt 1 1
vt 1 0
vt 0 0
vt 0 1
vt 1 1
vt 1 0
vt 0 0
vt 0 1
vt 1 1
vt 1 0
vt 0 0
vt 0 1
vt 1 1
vt 1 0
vt 0 0
vt 0 1
vt 1 1
vt 1 0
vt 0 0
vt 0 1
vt 1 1
vt 1 0
vt 0 0
vt 0.5 1
vt 1 0
vt 0 0
vt 0.5 1
vt 1 0
vt 0 0
vt 0.5 1
vt 1 0
vt 0 0
vt 0.5 1
vt 1 0
vt 0 0
vt 0.5 1
vt 1 0
vt 0 0
vt 0.5 1
vt 1 0
vt 0 0
vt 0.5 1
vt 1 0
vt 0 0
vt 0.5 1
vt 1 0
vt 0 0
vt 0.5 1
vt 1 0
vt 0 0
vt 0.5 1
vt 1 0

g pCylinder2_2_3311_141
usemtl pCylinder2_2_3311_141
usemap pCylinder2_2_3311_141
f 1/1/1 3/3/3 2/2/2
f 4/4/4 1/1/1 2/2/2
f 5/5/5 4/4/4 2/2/2
f 6/6/6 5/5/5 2/2/2
f 7/7/7 6/6/6 2/2/2
f 8/8/8 7/7/7 2/2/2
f 9/9/9 8/8/8 2/2/2
f 10/10/10 9/9/9 2/2/2
f 11/11/11 10/10/10 2/2/2
f 3/3/3 11/11/11 2/2/2
f 12/12/12 14/14/14 13/13/13
f 12/12/12 15/15/15 14/14/14
f 16/16/16 18/18/18 17/17/17
f 16/16/16 19/19/19 18/18/18
f 20/20/20 22/22/22 21/21/21
f 20/20/20 23/23/23 22/22/22
f 24/24/24 26/26/26 25/25/25
f 24/24/24 27/27/27 26/26/26
f 28/28/28 30/30/30 29/29/29
f 28/28/28 31/31/31 30/30/30
f 32/32/32 34/34/34 33/33/33
f 32/32/32 35/35/35 34/34/34
f 36/36/36 38/38/38 37/37/37
f 36/36/36 39/39/39 38/38/38
f 40/40/40 42/42/42 41/41/41
f 40/40/40 43/43/43 42/42/42
f 44/44/44 46/46/46 45/45/45
f 44/44/44 47/47/47 46/46/46
f 48/48/48 50/50/50 49/49/49
f 48/48/48 51/51/51 50/50/50
f 52/52/52 54/54/54 53/53/53
f 52/52/52 55/55/55 54/54/54
f 56/56/56 58/58/58 57/57/57
f 56/56/56 59/59/59 58/58/58
f 60/60/60 62/62/62 61/61/61
f 60/60/60 63/63/63 62/62/62
f 64/64/64 66/66/66 65/65/65
f 64/64/64 67/67/67 66/66/66
f 68/68/68 70/70/70 69/69/69
f 68/68/68 71/71/71 70/70/70
f 72/72/72 74/74/74 73/73/73
f 72/72/72 75/75/75 74/74/74
f 76/76/76 78/78/78 77/77/77
f 76/76/76 79/79/79 78/78/78
f 80/80/80 82/82/82 81/81/81
f 80/80/80 83/83/83 82/82/82
f 84/84/84 86/86/86 85/85/85
f 84/84/84 87/87/87 86/86/86
f 88/88/88 90/90/90 89/89/89
f 88/88/88 91/91/91 90/90/90
f 92/92/92 94/94/94 93/93/93
f 92/92/92 95/95/95 94/94/94
f 96/96/96 98/98/98 97/97/97
f 96/96/96 99/99/99 98/98/98
f 100/100/100 102/102/102 101/101/101
f 100/100/100 103/103/103 102/102/102
f 104/104/104 106/106/106 105/105/105
f 104/104/104 107/107/107 106/106/106
f 108/108/108 110/110/110 109/109/109
f 108/108/108 111/111/111 110/110/110
f 112/112/112 114/114/114 113/113/113
f 112/112/112 115/115/115 114/114/114
f 116/116/116 118/118/118 117/117/117
f 116/116/116 119/119/119 118/118/118
f 120/120/120 122/122/122 121/121/121
f 120/120/120 123/123/123 122/122/122
f 124/124/124 126/126/126 125/125/125
f 124/124/124 127/127/127 126/126/126
f 128/128/128 130/130/130 129/129/129
f 128/128/128 131/131/131 130/130/130
f 132/132/132 134/134/134 133/133/133
f 132/132/132 135/135/135 134/134/134
f 136/136/136 138/138/138 137/137/137
f 136/136/136 139/139/139 138/138/138
f 140/140/140 142/142/142 141/141/141
f 140/140/140 143/143/143 142/142/142
f 144/144/144 146/146/146 145/145/145
f 144/144/144 147/147/147 146/146/146
f 148/148/148 150/150/150 149/149/149
f 148/148/148 151/151/151 150/150/150
f 152/152/152 154/154/154 153/153/153
f 152/152/152 155/155/155 154/154/154
f 156/156/156 158/158/158 157/157/157
f 156/156/156 159/159/159 158/158/158
f 160/160/160 162/162/162 161/161/161
f 160/160/160 163/163/163 162/162/162
f 164/164/164 166/166/166 165/165/165
f 164/164/164 167/167/167 166/166/166
f 168/168/168 170/170/170 169/169/169
f 168/168/168 171/171/171 170/170/170
f 172/172/172 174/174/174 173/173/173
f 175/175/175 177/177/177 176/176/176
f 178/178/178 180/180/180 179/179/179
f 181/181/181 183/183/183 182/182/182
f 184/184/184 186/186/186 185/185/185
f 187/187/187 189/189/189 188/188/188
f 190/190/190 192/192/192 191/191/191
f 193/193/193 195/195/195 194/194/194
f 196/196/196 198/198/198 197/197/197
f 199/199/199 201/201/201 200/200/200
