#pCylinder17_3_4217_20.obj

v 0.01454532 -0.0257753 -0.04035809
v 0.004623903 -0.03397591 0.001091621
v 0.0387845 -0.02577526 -0.02105457
v -0.009663372 -0.02577565 -0.03817518
v -0.01825076 -0.02577545 -0.01778021
v -0.03822209 -0.02223173 0.001091601
v -0.02135082 -0.02577537 0.01996341
v -0.005297567 -0.02577514 0.03271822
v 0.02109404 -0.02577536 0.04035841
v 0.03059861 -0.02577581 0.01996342
v 0.03218951 -0.02223188 0.001091624
v 0.0387845 -0.02577526 -0.02105457
v 0.04796693 -0.01489238 -0.02772593
v 0.0180527 -0.01489244 -0.05115259
v 0.01454532 -0.0257753 -0.04035809
v 0.01454532 -0.0257753 -0.04035809
v 0.0180527 -0.01489244 -0.05115259
v -0.01317075 -0.01489245 -0.04896969
v -0.009663372 -0.02577565 -0.03817518
v -0.009663372 -0.02577565 -0.03817518
v -0.01317075 -0.01489245 -0.04896969
v -0.02743317 -0.01489227 -0.02445159
v -0.01825076 -0.02577545 -0.01778021
v -0.01825076 -0.02577545 -0.01778021
v -0.02743317 -0.01489227 -0.02445159
v -0.0479669 -0.01288782 0.001091593
v -0.03822209 -0.02223173 0.001091601
v -0.03822209 -0.02223173 0.001091601
v -0.0479669 -0.01288782 0.001091593
v -0.03053322 -0.01489212 0.0266348
v -0.02135082 -0.02577537 0.01996341
v -0.02135082 -0.02577537 0.01996341
v -0.03053322 -0.01489212 0.0266348
v -0.008804941 -0.01489187 0.0435127
v -0.005297567 -0.02577514 0.03271822
v -0.005297567 -0.02577514 0.03271822
v -0.008804941 -0.01489187 0.0435127
v 0.02460143 -0.01489242 0.0511529
v 0.02109404 -0.02577536 0.04035841
v 0.02109404 -0.02577536 0.04035841
v 0.02460143 -0.01489242 0.0511529
v 0.03978101 -0.01489217 0.02663482
v 0.03059861 -0.02577581 0.01996342
v 0.03059861 -0.02577581 0.01996342
v 0.03978101 -0.01489217 0.02663482
v 0.0419343 -0.01288806 0.001091626
v 0.03218951 -0.02223188 0.001091624
v 0.03218951 -0.02223188 0.001091624
v 0.0419343 -0.01288806 0.001091626
v 0.04796693 -0.01489238 -0.02772593
v 0.0387845 -0.02577526 -0.02105457
v 0.04796693 -0.01489238 -0.02772593
v 0.0479669 -0.0001482952 -0.02772595
v 0.01805271 -0.0001483528 -0.05115259
v 0.0180527 -0.01489244 -0.05115259
v 0.0180527 -0.01489244 -0.05115259
v 0.01805271 -0.0001483528 -0.05115259
v -0.01317074 -0.0001483656 -0.04896969
v -0.01317075 -0.01489245 -0.04896969
v -0.01317075 -0.01489245 -0.04896969
v -0.01317074 -0.0001483656 -0.04896969
v -0.02743316 -0.0001481855 -0.02445159
v -0.02743317 -0.01489227 -0.02445159
v -0.02743317 -0.01489227 -0.02445159
v -0.02743316 -0.0001481855 -0.02445159
v -0.04796689 -0.0002291011 0.001091603
v -0.0479669 -0.01288782 0.001091593
v -0.0479669 -0.01288782 0.001091593
v -0.04796689 -0.0002291011 0.001091603
v -0.03053325 -0.000148032 0.0266348
v -0.03053322 -0.01489212 0.0266348
v -0.03053322 -0.01489212 0.0266348
v -0.03053325 -0.000148032 0.0266348
v -0.008804929 -0.0001477916 0.04351269
v -0.008804941 -0.01489187 0.0435127
v -0.008804941 -0.01489187 0.0435127
v -0.008804929 -0.0001477916 0.04351269
v 0.02460144 -0.0001483401 0.05115291
v 0.02460143 -0.01489242 0.0511529
v 0.02460143 -0.01489242 0.0511529
v 0.02460144 -0.0001483401 0.05115291
v 0.03978102 -0.0001480831 0.02663482
v 0.03978101 -0.01489217 0.02663482
v 0.03978101 -0.01489217 0.02663482
v 0.03978102 -0.0001480831 0.02663482
v 0.04193428 -0.0002293394 0.001091616
v 0.0419343 -0.01288806 0.001091626
v 0.0419343 -0.01288806 0.001091626
v 0.04193428 -0.0002293394 0.001091616
v 0.0479669 -0.0001482952 -0.02772595
v 0.04796693 -0.01489238 -0.02772593
v 0.0479669 -0.0001482952 -0.02772595
v 0.04568894 0.01428359 -0.02539664
v 0.01714512 0.01428345 -0.0479911
v 0.01805271 -0.0001483528 -0.05115259
v 0.01805271 -0.0001483528 -0.05115259
v 0.01714512 0.01428345 -0.0479911
v -0.01182908 0.01428388 -0.0455975
v -0.01317074 -0.0001483656 -0.04896969
v -0.01317074 -0.0001483656 -0.04896969
v -0.01182908 0.01428388 -0.0455975
v -0.02321027 0.01428354 -0.02180624
v -0.02743316 -0.0001481855 -0.02445159
v -0.02743316 -0.0001481855 -0.02445159
v -0.02321027 0.01428354 -0.02180624
v -0.04530407 0.01197235 0.001196954
v -0.04796689 -0.0002291011 0.001091603
v -0.04796689 -0.0002291011 0.001091603
v -0.04530407 0.01197235 0.001196954
v -0.02660956 0.0142833 0.02420015
v -0.03053325 -0.000148032 0.0266348
v -0.03053325 -0.000148032 0.0266348
v -0.02660956 0.0142833 0.02420015
v -0.007041852 0.01428375 0.03961373
v -0.008804929 -0.0001477916 0.04351269
v -0.008804929 -0.0001477916 0.04351269
v -0.007041852 0.01428375 0.03961373
v 0.02432595 0.01428357 0.04799139
v 0.02460144 -0.0001483401 0.05115291
v 0.02460144 -0.0001483401 0.05115291
v 0.02432595 0.01428357 0.04799139
v 0.03671286 0.01428356 0.02420017
v 0.03978102 -0.0001480831 0.02663482
v 0.03978102 -0.0001480831 0.02663482
v 0.03671286 0.01428356 0.02420017
v 0.03865199 0.01197203 0.00119697
v 0.04193428 -0.0002293394 0.001091616
v 0.04193428 -0.0002293394 0.001091616
v 0.03865199 0.01197203 0.00119697
v 0.04568894 0.01428359 -0.02539664
v 0.0479669 -0.0001482952 -0.02772595
v 0.04568894 0.01428359 -0.02539664
v 0.03225249 0.02437488 -0.01614751
v 0.01203647 0.02437457 -0.03256848
v 0.01714512 0.01428345 -0.0479911
v 0.01714512 0.01428345 -0.0479911
v 0.01203647 0.02437457 -0.03256848
v -0.002592228 0.02437437 -0.02139366
v -0.01182908 0.01428388 -0.0455975
v -0.01182908 0.01428388 -0.0455975
v -0.002592228 0.02437437 -0.02139366
v -0.0112531 0.02437479 -0.01279507
v -0.02321027 0.01428354 -0.02180624
v -0.02321027 0.01428354 -0.02180624
v -0.0112531 0.02437479 -0.01279507
v -0.03124471 0.02074687 0.001117626
v -0.04530407 0.01197235 0.001196954
v -0.04530407 0.01197235 0.001196954
v -0.03124471 0.02074687 0.001117626
v -0.01442711 0.02437432 0.01503036
v -0.02660956 0.0142833 0.02420015
v -0.02660956 0.0142833 0.02420015
v -0.01442711 0.02437432 0.01503036
v -0.002592205 0.0243745 0.0247464
v -0.007041852 0.01428375 0.03961373
v -0.007041852 0.01428375 0.03961373
v -0.002592205 0.0243745 0.0247464
v 0.01874134 0.02437458 0.03256876
v 0.02432595 0.01428357 0.04799139
v 0.02432595 0.01428357 0.04799139
v 0.01874134 0.02437458 0.03256876
v 0.02387135 0.02437486 0.01503037
v 0.03671286 0.01428356 0.02420017
v 0.03671286 0.01428356 0.02420017
v 0.02387135 0.02437486 0.01503037
v 0.02504419 0.02074679 0.001117635
v 0.03865199 0.01197203 0.00119697
v 0.03865199 0.01197203 0.00119697
v 0.02504419 0.02074679 0.001117635
v 0.03225249 0.02437488 -0.01614751
v 0.04568894 0.01428359 -0.02539664
v 0.03225249 0.02437488 -0.01614751
v 0.004623875 0.0339759 0.00109158
v 0.01203647 0.02437457 -0.03256848
v 0.01203647 0.02437457 -0.03256848
v 0.004623875 0.0339759 0.00109158
v -0.002592228 0.02437437 -0.02139366
v -0.002592228 0.02437437 -0.02139366
v 0.004623875 0.0339759 0.00109158
v -0.0112531 0.02437479 -0.01279507
v -0.0112531 0.02437479 -0.01279507
v 0.004623875 0.0339759 0.00109158
v -0.03124471 0.02074687 0.001117626
v -0.03124471 0.02074687 0.001117626
v 0.004623875 0.0339759 0.00109158
v -0.01442711 0.02437432 0.01503036
v -0.01442711 0.02437432 0.01503036
v 0.004623875 0.0339759 0.00109158
v -0.002592205 0.0243745 0.0247464
v -0.002592205 0.0243745 0.0247464
v 0.004623875 0.0339759 0.00109158
v 0.01874134 0.02437458 0.03256876
v 0.01874134 0.02437458 0.03256876
v 0.004623875 0.0339759 0.00109158
v 0.02387135 0.02437486 0.01503037
v 0.02387135 0.02437486 0.01503037
v 0.004623875 0.0339759 0.00109158
v 0.02504419 0.02074679 0.001117635
v 0.02504419 0.02074679 0.001117635
v 0.004623875 0.0339759 0.00109158
v 0.03225249 0.02437488 -0.01614751

vn 0.1929254 -0.9811979 -0.005467616
vn 0.004026275 -0.9999906 0.001416277
vn 0.1234444 -0.978036 0.167948
vn 0.1384273 -0.9806074 -0.1387315
vn 0.0106777 -0.9601656 -0.2792266
vn -0.07035173 -0.964483 -0.2546028
vn -0.1773972 -0.9685698 -0.1743623
vn -0.2377971 -0.9711403 -0.01839191
vn -0.1460684 -0.9823607 0.1167519
vn 0.07595262 -0.9583455 0.2753259
vn 0.04318882 -0.9153385 0.4003619
vn 0.676953 -0.7016343 0.2223592
vn 0.676953 -0.7016343 0.2223591
vn 0.676953 -0.7016343 0.2223592
vn 0.676953 -0.7016343 0.2223591
vn 0.64934 -0.7008327 -0.2952805
vn 0.64934 -0.7008328 -0.2952805
vn 0.64934 -0.7008327 -0.2952805
vn 0.6493401 -0.7008328 -0.2952805
vn 0.09285922 -0.6616639 -0.744028
vn 0.09285922 -0.6616639 -0.7440281
vn 0.09285922 -0.6616639 -0.744028
vn 0.09285919 -0.6616639 -0.7440281
vn 0.2191498 -0.6855446 -0.6942636
vn 0.2191498 -0.6855445 -0.6942637
vn 0.2191498 -0.6855445 -0.6942636
vn 0.2191497 -0.6855445 -0.6942636
vn -0.5655757 -0.6972477 -0.4404193
vn -0.5655757 -0.6972477 -0.4404193
vn -0.5655757 -0.6972477 -0.4404194
vn -0.5655757 -0.6972477 -0.4404194
vn -0.67272 -0.7062518 -0.2205806
vn -0.6727201 -0.7062518 -0.2205807
vn -0.67272 -0.7062518 -0.2205806
vn -0.67272 -0.7062518 -0.2205806
vn -0.7151005 -0.6953688 0.07136559
vn -0.7151005 -0.6953688 0.07136557
vn -0.7151006 -0.6953688 0.07136562
vn -0.7151005 -0.6953688 0.07136559
vn -0.111181 -0.6683908 0.7354538
vn -0.111181 -0.6683908 0.7354538
vn -0.111181 -0.6683908 0.7354538
vn -0.111181 -0.6683908 0.7354539
vn 0.2751375 -0.6781831 0.6814446
vn 0.2751375 -0.6781831 0.6814446
vn 0.2751375 -0.6781831 0.6814446
vn 0.2751375 -0.6781831 0.6814446
vn 0.02099156 -0.6156268 0.7877581
vn 0.02099162 -0.6156266 0.7877582
vn 0.02099156 -0.6156268 0.7877581
vn 0.02099159 -0.6156267 0.7877581
vn 0.9508201 0.00322519 0.3097264
vn 0.9508201 0.00322519 0.3097264
vn 0.9508201 0.00322519 0.3097264
vn 0.9508201 0.00322519 0.3097264
vn 0.9133843 0.003203483 -0.407086
vn 0.9133843 0.003203483 -0.407086
vn 0.9133843 0.003203483 -0.407086
vn 0.9133843 0.003203483 -0.407086
vn 0.1764692 0.0007542379 -0.9843059
vn 0.1764692 0.0007542379 -0.9843059
vn 0.1764692 0.0007542379 -0.9843059
vn 0.1764692 0.0007542379 -0.9843059
vn 0.3218089 0.001248702 -0.9468039
vn 0.3218089 0.001248702 -0.9468039
vn 0.3218089 0.001248702 -0.9468039
vn 0.3218089 0.001248702 -0.9468039
vn -0.8124547 -0.002708287 -0.5830178
vn -0.8124547 -0.002708287 -0.5830178
vn -0.8124548 -0.002708287 -0.5830178
vn -0.8124547 -0.002708287 -0.5830178
vn -0.9520371 -0.003229938 -0.3059655
vn -0.9520371 -0.003229938 -0.3059655
vn -0.9520371 -0.003229938 -0.3059655
vn -0.9520371 -0.003229938 -0.3059655
vn -0.9922384 -0.003432544 0.1243023
vn -0.9922384 -0.003432544 0.1243023
vn -0.9922384 -0.003432544 0.1243023
vn -0.9922384 -0.003432544 0.1243023
vn -0.2034639 -0.0008463374 0.9790822
vn -0.2034639 -0.0008463374 0.9790822
vn -0.2034639 -0.0008463374 0.9790822
vn -0.2034639 -0.0008463374 0.9790822
vn 0.2622564 0.00075816 0.9649979
vn 0.2622563 0.00075816 0.9649979
vn 0.2622564 0.00075816 0.9649979
vn 0.2622563 0.00075816 0.9649979
vn 0.1426155 0.0003428121 0.9897781
vn 0.1426155 0.0003428122 0.9897781
vn 0.1426155 0.0003428121 0.9897781
vn 0.1426155 0.0003428121 0.9897781
vn 0.9275445 0.2159041 0.3050356
vn 0.9275444 0.2159041 0.3050356
vn 0.9275444 0.2159041 0.3050356
vn 0.9275444 0.2159041 0.3050356
vn 0.8875601 0.2243485 -0.4023739
vn 0.8875601 0.2243486 -0.4023739
vn 0.8875601 0.2243486 -0.4023739
vn 0.8875601 0.2243486 -0.4023739
vn 0.1324933 0.2594969 -0.9566122
vn 0.1324933 0.2594969 -0.9566122
vn 0.1324934 0.2594969 -0.9566122
vn 0.1324933 0.2594968 -0.9566122
vn 0.3410124 0.2559448 -0.9045458
vn 0.3410124 0.2559448 -0.9045457
vn 0.3410124 0.2559448 -0.9045458
vn 0.3410124 0.2559448 -0.9045457
vn -0.8058988 0.2410913 -0.5407421
vn -0.8058988 0.2410914 -0.5407421
vn -0.8058987 0.2410913 -0.5407421
vn -0.8058988 0.2410913 -0.5407421
vn -0.9133455 0.2791637 -0.2964244
vn -0.9133455 0.2791637 -0.2964245
vn -0.9133455 0.2791637 -0.2964245
vn -0.9133455 0.2791637 -0.2964245
vn -0.9654556 0.2390501 0.1036844
vn -0.9654555 0.2390501 0.1036844
vn -0.9654556 0.2390501 0.1036844
vn -0.9654556 0.2390501 0.1036844
vn -0.1657712 0.1922931 0.967235
vn -0.1657712 0.1922931 0.967235
vn -0.1657712 0.1922932 0.9672349
vn -0.1657712 0.1922932 0.967235
vn 0.2651785 0.2379323 0.9343813
vn 0.2651785 0.2379323 0.9343814
vn 0.2651785 0.2379323 0.9343814
vn 0.2651785 0.2379323 0.9343814
vn 0.1076199 0.1784872 0.978039
vn 0.1076199 0.1784872 0.978039
vn 0.1076199 0.1784872 0.978039
vn 0.1076199 0.1784872 0.978039
vn 0.5158461 0.8385901 0.1751251
vn 0.5158461 0.8385901 0.1751251
vn 0.5158461 0.8385901 0.1751251
vn 0.5158461 0.8385901 0.1751251
vn 0.3620306 0.8897247 -0.2780707
vn 0.3620306 0.8897247 -0.2780707
vn 0.3620306 0.8897247 -0.2780707
vn 0.3620306 0.8897247 -0.2780707
vn 0.09744586 0.869747 -0.4837809
vn 0.09744589 0.869747 -0.4837809
vn 0.09744586 0.869747 -0.4837809
vn 0.09744589 0.869747 -0.4837809
vn 0.2045346 0.8056929 -0.5558994
vn 0.2045346 0.8056929 -0.5558994
vn 0.2045346 0.8056929 -0.5558994
vn 0.2045346 0.8056929 -0.5558994
vn -0.4699312 0.8169658 -0.334262
vn -0.4699312 0.8169658 -0.3342619
vn -0.4699313 0.8169658 -0.334262
vn -0.4699312 0.8169658 -0.334262
vn -0.5420654 0.8204288 -0.1818275
vn -0.5420654 0.8204287 -0.1818276
vn -0.5420654 0.8204287 -0.1818276
vn -0.5420654 0.8204287 -0.1818276
vn -0.5783558 0.8152457 0.02963726
vn -0.5783558 0.8152457 0.02963728
vn -0.5783558 0.8152457 0.02963728
vn -0.5783558 0.8152457 0.02963728
vn -0.03383358 0.796032 0.6043077
vn -0.03383358 0.796032 0.6043077
vn -0.03383361 0.796032 0.6043078
vn -0.03383358 0.796032 0.6043077
vn 0.2750468 0.7993842 0.5341663
vn 0.2750468 0.7993843 0.5341662
vn 0.2750468 0.7993843 0.5341662
vn 0.2750468 0.7993842 0.5341663
vn -0.07293683 0.7321906 0.677183
vn -0.0729368 0.7321907 0.677183
vn -0.07293683 0.7321906 0.677183
vn -0.07293683 0.7321906 0.677183
vn 0.2780039 0.9556343 0.09734675
vn 0.2780039 0.9556343 0.09734673
vn 0.2780039 0.9556343 0.09734675
vn 0.2103264 0.9189277 -0.3336679
vn 0.2103264 0.9189277 -0.3336679
vn 0.2103264 0.9189277 -0.3336679
vn 0.1735272 0.9104106 -0.3755533
vn 0.1735272 0.9104106 -0.3755533
vn 0.1735272 0.9104106 -0.3755533
vn 0.1122576 0.9099861 -0.3991528
vn 0.1122576 0.9099861 -0.3991528
vn 0.1122576 0.9099861 -0.3991528
vn -0.2804973 0.923526 -0.2615731
vn -0.2804973 0.923526 -0.2615731
vn -0.2804973 0.923526 -0.2615731
vn -0.3684941 0.9207419 -0.1282414
vn -0.3684941 0.9207419 -0.1282414
vn -0.3684941 0.9207419 -0.1282414
vn -0.3656105 0.9307674 -0.0005800799
vn -0.3656104 0.9307674 -0.0005801022
vn -0.3656104 0.9307674 -0.0005800873
vn 0.02240167 0.9190582 0.3934839
vn 0.02240168 0.9190582 0.3934839
vn 0.02240169 0.9190581 0.393484
vn 0.3407903 0.8279927 0.4452971
vn 0.3407902 0.8279927 0.4452971
vn 0.3407902 0.8279928 0.4452971
vn -0.1815254 0.7778643 0.6016439
vn -0.1815254 0.7778643 0.6016438
vn -0.1815254 0.7778643 0.6016439

vt 0.5482839 0.007647395
vt 0.5 0.15
vt 0.6264089 0.06440853
vt 0.4517161 0.00764741
vt 0.3735911 0.06440856
vt 0.34375 0.15625
vt 0.3735911 0.2480915
vt 0.4517161 0.3048526
vt 0.5482839 0.3048526
vt 0.6264089 0.2480914
vt 0.65625 0.15625
vt 0 0
vt 0 1
vt 1 1
vt 1 0
vt 0 0
vt 0 1
vt 1 1
vt 1 0
vt 0 0
vt 0 1
vt 1 1
vt 1 0
vt 0 0
vt 0 1
vt 1 1
vt 1 0
vt 0 0
vt 0 1
vt 1 1
vt 1 0
vt 0 0
vt 0 1
vt 1 1
vt 1 0
vt 0 0
vt 0 1
vt 1 1
vt 1 0
vt 0 0
vt 0 1
vt 1 1
vt 1 0
vt 0 0
vt 0 1
vt 1 1
vt 1 0
vt 0 0
vt 0 1
vt 1 1
vt 1 0
vt 0 0
vt 0 1
vt 1 1
vt 1 0
vt 0 0
vt 0 1
vt 1 1
vt 1 0
vt 0 0
vt 0 1
vt 1 1
vt 1 0
vt 0 0
vt 0 1
vt 1 1
vt 1 0
vt 0 0
vt 0 1
vt 1 1
vt 1 0
vt 0 0
vt 0 1
vt 1 1
vt 1 0
vt 0 0
vt 0 1
vt 1 1
vt 1 0
vt 0 0
vt 0 1
vt 1 1
vt 1 0
vt 0 0
vt 0 1
vt 1 1
vt 1 0
vt 0 0
vt 0 1
vt 1 1
vt 1 0
vt 0 0
vt 0 1
vt 1 1
vt 1 0
vt 0 0
vt 0 1
vt 1 1
vt 1 0
vt 0 0
vt 0 1
vt 1 1
vt 1 0
vt 0 0
vt 0 1
vt 1 1
vt 1 0
vt 0 0
vt 0 1
vt 1 1
vt 1 0
vt 0 0
vt 0 1
vt 1 1
vt 1 0
vt 0 0
vt 0 1
vt 1 1
vt 1 0
vt 0 0
vt 0 1
vt 1 1
vt 1 0
vt 0 0
vt 0 1
vt 1 1
vt 1 0
vt 0 0
vt 0 1
vt 1 1
vt 1 0
vt 0 0
vt 0 1
vt 1 1
vt 1 0
vt 0 0
vt 0 1
vt 1 1
vt 1 0
vt 0 0
vt 0 1
vt 1 1
vt 1 0
vt 0 0
vt 0 1
vt 1 1
vt 1 0
vt 0 0
vt 0 1
vt 1 1
vt 1 0
vt 0 0
vt 0 1
vt 1 1
vt 1 0
vt 0 0
vt 0 1
vt 1 1
vt 1 0
vt 0 0
vt 0 1
vt 1 1
vt 1 0
vt 0 0
vt 0 1
vt 1 1
vt 1 0
vt 0 0
vt 0 1
vt 1 1
vt 1 0
vt 0 0
vt 0.5 1
vt 1 0
vt 0 0
vt 0.5 1
vt 1 0
vt 0 0
vt 0.5 1
vt 1 0
vt 0 0
vt 0.5 1
vt 1 0
vt 0 0
vt 0.5 1
vt 1 0
vt 0 0
vt 0.5 1
vt 1 0
vt 0 0
vt 0.5 1
vt 1 0
vt 0 0
vt 0.5 1
vt 1 0
vt 0 0
vt 0.5 1
vt 1 0
vt 0 0
vt 0.5 1
vt 1 0

g pCylinder17_3_4217_20
usemtl pCylinder17_3_4217_20
usemap pCylinder17_3_4217_20
f 1/1/1 3/3/3 2/2/2
f 4/4/4 1/1/1 2/2/2
f 5/5/5 4/4/4 2/2/2
f 6/6/6 5/5/5 2/2/2
f 7/7/7 6/6/6 2/2/2
f 8/8/8 7/7/7 2/2/2
f 9/9/9 8/8/8 2/2/2
f 10/10/10 9/9/9 2/2/2
f 11/11/11 10/10/10 2/2/2
f 3/3/3 11/11/11 2/2/2
f 12/12/12 14/14/14 13/13/13
f 12/12/12 15/15/15 14/14/14
f 16/16/16 18/18/18 17/17/17
f 16/16/16 19/19/19 18/18/18
f 20/20/20 22/22/22 21/21/21
f 20/20/20 23/23/23 22/22/22
f 24/24/24 26/26/26 25/25/25
f 24/24/24 27/27/27 26/26/26
f 28/28/28 30/30/30 29/29/29
f 28/28/28 31/31/31 30/30/30
f 32/32/32 34/34/34 33/33/33
f 32/32/32 35/35/35 34/34/34
f 36/36/36 38/38/38 37/37/37
f 36/36/36 39/39/39 38/38/38
f 40/40/40 42/42/42 41/41/41
f 40/40/40 43/43/43 42/42/42
f 44/44/44 46/46/46 45/45/45
f 44/44/44 47/47/47 46/46/46
f 48/48/48 50/50/50 49/49/49
f 48/48/48 51/51/51 50/50/50
f 52/52/52 54/54/54 53/53/53
f 52/52/52 55/55/55 54/54/54
f 56/56/56 58/58/58 57/57/57
f 56/56/56 59/59/59 58/58/58
f 60/60/60 62/62/62 61/61/61
f 60/60/60 63/63/63 62/62/62
f 64/64/64 66/66/66 65/65/65
f 64/64/64 67/67/67 66/66/66
f 68/68/68 70/70/70 69/69/69
f 68/68/68 71/71/71 70/70/70
f 72/72/72 74/74/74 73/73/73
f 72/72/72 75/75/75 74/74/74
f 76/76/76 78/78/78 77/77/77
f 76/76/76 79/79/79 78/78/78
f 80/80/80 82/82/82 81/81/81
f 80/80/80 83/83/83 82/82/82
f 84/84/84 86/86/86 85/85/85
f 84/84/84 87/87/87 86/86/86
f 88/88/88 90/90/90 89/89/89
f 88/88/88 91/91/91 90/90/90
f 92/92/92 94/94/94 93/93/93
f 92/92/92 95/95/95 94/94/94
f 96/96/96 98/98/98 97/97/97
f 96/96/96 99/99/99 98/98/98
f 100/100/100 102/102/102 101/101/101
f 100/100/100 103/103/103 102/102/102
f 104/104/104 106/106/106 105/105/105
f 104/104/104 107/107/107 106/106/106
f 108/108/108 110/110/110 109/109/109
f 108/108/108 111/111/111 110/110/110
f 112/112/112 114/114/114 113/113/113
f 112/112/112 115/115/115 114/114/114
f 116/116/116 118/118/118 117/117/117
f 116/116/116 119/119/119 118/118/118
f 120/120/120 122/122/122 121/121/121
f 120/120/120 123/123/123 122/122/122
f 124/124/124 126/126/126 125/125/125
f 124/124/124 127/127/127 126/126/126
f 128/128/128 130/130/130 129/129/129
f 128/128/128 131/131/131 130/130/130
f 132/132/132 134/134/134 133/133/133
f 132/132/132 135/135/135 134/134/134
f 136/136/136 138/138/138 137/137/137
f 136/136/136 139/139/139 138/138/138
f 140/140/140 142/142/142 141/141/141
f 140/140/140 143/143/143 142/142/142
f 144/144/144 146/146/146 145/145/145
f 144/144/144 147/147/147 146/146/146
f 148/148/148 150/150/150 149/149/149
f 148/148/148 151/151/151 150/150/150
f 152/152/152 154/154/154 153/153/153
f 152/152/152 155/155/155 154/154/154
f 156/156/156 158/158/158 157/157/157
f 156/156/156 159/159/159 158/158/158
f 160/160/160 162/162/162 161/161/161
f 160/160/160 163/163/163 162/162/162
f 164/164/164 166/166/166 165/165/165
f 164/164/164 167/167/167 166/166/166
f 168/168/168 170/170/170 169/169/169
f 168/168/168 171/171/171 170/170/170
f 172/172/172 174/174/174 173/173/173
f 175/175/175 177/177/177 176/176/176
f 178/178/178 180/180/180 179/179/179
f 181/181/181 183/183/183 182/182/182
f 184/184/184 186/186/186 185/185/185
f 187/187/187 189/189/189 188/188/188
f 190/190/190 192/192/192 191/191/191
f 193/193/193 195/195/195 194/194/194
f 196/196/196 198/198/198 197/197/197
f 199/199/199 201/201/201 200/200/200
