#pCylinder19_25_3536_51.obj

v 0.488067 -0.215758 -0.1400609
v 0.4237673 -0.1185501 -0.3230577
v 0.3794695 -0.1185509 -0.355234
v 0.4436037 -0.2157576 -0.1742307
v 0.4436037 -0.2157576 -0.1742307
v 0.3794695 -0.1185509 -0.355234
v 0.3247223 -0.1185503 -0.3552373
v 0.3886464 -0.2157574 -0.1742401
v 0.3886464 -0.2157574 -0.1742401
v 0.3247223 -0.1185503 -0.3552373
v 0.2804279 -0.1185496 -0.3230636
v 0.3441794 -0.2157574 -0.1400664
v 0.3441794 -0.2157574 -0.1400664
v 0.2804279 -0.1185496 -0.3230636
v 0.263512 -0.11855 -0.2709901
v 0.3271918 -0.2157582 -0.08476992
v 0.3271918 -0.2157582 -0.08476992
v 0.263512 -0.11855 -0.2709901
v 0.2804304 -0.1185505 -0.2189303
v 0.3441778 -0.2157582 -0.02947911
v 0.3441778 -0.2157582 -0.02947911
v 0.2804304 -0.1185505 -0.2189303
v 0.3247224 -0.1185503 -0.1867406
v 0.3886439 -0.2157574 0.004680289
v 0.3886439 -0.2157574 0.004680289
v 0.3247224 -0.1185503 -0.1867406
v 0.3794692 -0.1185495 -0.1867487
v 0.4436043 -0.215758 0.004688072
v 0.4436043 -0.215758 0.004688072
v 0.3794692 -0.1185495 -0.1867487
v 0.4237598 -0.118551 -0.2189309
v 0.4880714 -0.2157578 -0.02948439
v 0.4880714 -0.2157578 -0.02948439
v 0.4237598 -0.118551 -0.2189309
v 0.4406796 -0.1185497 -0.2709946
v 0.5050589 -0.2157573 -0.08478212
v 0.5050589 -0.2157573 -0.08478212
v 0.4406796 -0.1185497 -0.2709946
v 0.4237673 -0.1185501 -0.3230577
v 0.488067 -0.215758 -0.1400609
v 0.4237673 -0.1185501 -0.3230577
v 0.3384652 -0.03329551 -0.3396199
v 0.2971222 -0.03329595 -0.3696494
v 0.3794695 -0.1185509 -0.355234
v 0.3794695 -0.1185509 -0.355234
v 0.2971222 -0.03329595 -0.3696494
v 0.2460229 -0.03329616 -0.3696464
v 0.3247223 -0.1185503 -0.3552373
v 0.3247223 -0.1185503 -0.3552373
v 0.2460229 -0.03329616 -0.3696464
v 0.2046859 -0.03329653 -0.3396094
v 0.2804279 -0.1185496 -0.3230636
v 0.2804279 -0.1185496 -0.3230636
v 0.2046859 -0.03329653 -0.3396094
v 0.1888937 -0.03329595 -0.2910217
v 0.263512 -0.11855 -0.2709901
v 0.263512 -0.11855 -0.2709901
v 0.1888937 -0.03329595 -0.2910217
v 0.2046795 -0.03329582 -0.2424266
v 0.2804304 -0.1185505 -0.2189303
v 0.2804304 -0.1185505 -0.2189303
v 0.2046795 -0.03329582 -0.2424266
v 0.2460232 -0.03329644 -0.2123831
v 0.3247224 -0.1185503 -0.1867406
v 0.3247224 -0.1185503 -0.1867406
v 0.2460232 -0.03329644 -0.2123831
v 0.2971284 -0.03329531 -0.212397
v 0.3794692 -0.1185495 -0.1867487
v 0.3794692 -0.1185495 -0.1867487
v 0.2971284 -0.03329531 -0.212397
v 0.3384625 -0.03329632 -0.2424248
v 0.4237598 -0.118551 -0.2189309
v 0.4237598 -0.118551 -0.2189309
v 0.3384625 -0.03329632 -0.2424248
v 0.3542574 -0.03329583 -0.2910242
v 0.4406796 -0.1185497 -0.2709946
v 0.4406796 -0.1185497 -0.2709946
v 0.3542574 -0.03329583 -0.2910242
v 0.3384652 -0.03329551 -0.3396199
v 0.4237673 -0.1185501 -0.3230577
v 0.3384652 -0.03329551 -0.3396199
v 0.26521 0.05132611 -0.2866905
v 0.2254271 0.0513267 -0.3155873
v 0.2971222 -0.03329595 -0.3696494
v 0.2971222 -0.03329595 -0.3696494
v 0.2254271 0.0513267 -0.3155873
v 0.1762656 0.05132647 -0.3155929
v 0.2460229 -0.03329616 -0.3696464
v 0.2460229 -0.03329616 -0.3696464
v 0.1762656 0.05132647 -0.3155929
v 0.1364715 0.05132641 -0.286686
v 0.2046859 -0.03329653 -0.3396094
v 0.2046859 -0.03329653 -0.3396094
v 0.1364715 0.05132641 -0.286686
v 0.1212816 0.05132645 -0.2399216
v 0.1888937 -0.03329595 -0.2910217
v 0.1888937 -0.03329595 -0.2910217
v 0.1212816 0.05132645 -0.2399216
v 0.1364788 0.0513266 -0.1931625
v 0.2046795 -0.03329582 -0.2424266
v 0.2046795 -0.03329582 -0.2424266
v 0.1364788 0.0513266 -0.1931625
v 0.176262 0.05132649 -0.1642619
v 0.2460232 -0.03329644 -0.2123831
v 0.2460232 -0.03329644 -0.2123831
v 0.176262 0.05132649 -0.1642619
v 0.2254266 0.05132626 -0.1642578
v 0.2971284 -0.03329531 -0.212397
v 0.2971284 -0.03329531 -0.212397
v 0.2254266 0.05132626 -0.1642578
v 0.2652043 0.05132705 -0.1931695
v 0.3384625 -0.03329632 -0.2424248
v 0.3384625 -0.03329632 -0.2424248
v 0.2652043 0.05132705 -0.1931695
v 0.2804043 0.05132688 -0.2399285
v 0.3542574 -0.03329583 -0.2910242
v 0.3542574 -0.03329583 -0.2910242
v 0.2804043 0.05132688 -0.2399285
v 0.26521 0.05132611 -0.2866905
v 0.3384652 -0.03329551 -0.3396199
v 0.26521 0.05132611 -0.2866905
v 0.2157403 0.1185055 -0.04959027
v 0.1842316 0.1185051 -0.07248146
v 0.2254271 0.0513267 -0.3155873
v 0.2254271 0.0513267 -0.3155873
v 0.1842316 0.1185051 -0.07248146
v 0.1452749 0.1185052 -0.07248187
v 0.1762656 0.05132647 -0.3155929
v 0.1762656 0.05132647 -0.3155929
v 0.1452749 0.1185052 -0.07248187
v 0.1137573 0.1185058 -0.04959394
v 0.1364715 0.05132641 -0.286686
v 0.1364715 0.05132641 -0.286686
v 0.1137573 0.1185058 -0.04959394
v 0.101727 0.118506 -0.01254895
v 0.1212816 0.05132645 -0.2399216
v 0.1212816 0.05132645 -0.2399216
v 0.101727 0.118506 -0.01254895
v 0.1137533 0.1185048 0.02450267
v 0.1364788 0.0513266 -0.1931625
v 0.1364788 0.0513266 -0.1931625
v 0.1137533 0.1185048 0.02450267
v 0.1452753 0.118505 0.04740145
v 0.176262 0.05132649 -0.1642619
v 0.176262 0.05132649 -0.1642619
v 0.1452753 0.118505 0.04740145
v 0.1842289 0.1185052 0.04740218
v 0.2254266 0.05132626 -0.1642578
v 0.2254266 0.05132626 -0.1642578
v 0.1842289 0.1185052 0.04740218
v 0.2157425 0.1185057 0.02449809
v 0.2652043 0.05132705 -0.1931695
v 0.2652043 0.05132705 -0.1931695
v 0.2157425 0.1185057 0.02449809
v 0.2277825 0.118505 -0.0125453
v 0.2804043 0.05132688 -0.2399285
v 0.2804043 0.05132688 -0.2399285
v 0.2277825 0.118505 -0.0125453
v 0.2157403 0.1185055 -0.04959027
v 0.26521 0.05132611 -0.2866905
v 0.2157403 0.1185055 -0.04959027
v 0.1845977 0.2104067 0.4701535
v 0.1605477 0.2104066 0.4526706
v 0.1842316 0.1185051 -0.07248146
v 0.1842316 0.1185051 -0.07248146
v 0.1605477 0.2104066 0.4526706
v 0.1308115 0.2104077 0.4526641
v 0.1452749 0.1185052 -0.07248187
v 0.1452749 0.1185052 -0.07248187
v 0.1308115 0.2104077 0.4526641
v 0.1067484 0.2104068 0.4701489
v 0.1137573 0.1185058 -0.04959394
v 0.1137573 0.1185058 -0.04959394
v 0.1067484 0.2104068 0.4701489
v 0.09756279 0.2104066 0.4984263
v 0.101727 0.118506 -0.01254895
v 0.101727 0.118506 -0.01254895
v 0.09756279 0.2104066 0.4984263
v 0.1067542 0.2104069 0.526704
v 0.1137533 0.1185048 0.02450267
v 0.1137533 0.1185048 0.02450267
v 0.1067542 0.2104069 0.526704
v 0.1308099 0.2104076 0.5441736
v 0.1452753 0.118505 0.04740145
v 0.1452753 0.118505 0.04740145
v 0.1308099 0.2104076 0.5441736
v 0.1605464 0.210407 0.5441839
v 0.1842289 0.1185052 0.04740218
v 0.1842289 0.1185052 0.04740218
v 0.1605464 0.210407 0.5441839
v 0.1845966 0.2104066 0.5267029
v 0.2157425 0.1185057 0.02449809
v 0.2157425 0.1185057 0.02449809
v 0.1845966 0.2104066 0.5267029
v 0.1937884 0.210408 0.4984173
v 0.2277825 0.118505 -0.0125453
v 0.2277825 0.118505 -0.0125453
v 0.1937884 0.210408 0.4984173
v 0.1845977 0.2104067 0.4701535
v 0.2157403 0.1185055 -0.04959027
v 0.1845977 0.2104067 0.4701535
v 0.2441619 0.3175435 0.5633689
v 0.2350309 0.317544 0.5567267
v 0.1605477 0.2104066 0.4526706
v 0.1605477 0.2104066 0.4526706
v 0.2350309 0.317544 0.5567267
v 0.2237299 0.3175442 0.556725
v 0.1308115 0.2104077 0.4526641
v 0.1308115 0.2104077 0.4526641
v 0.2237299 0.3175442 0.556725
v 0.2145937 0.3175432 0.5633712
v 0.1067484 0.2104068 0.4701489
v 0.1067484 0.2104068 0.4701489
v 0.2145937 0.3175432 0.5633712
v 0.2111038 0.3175439 0.5741077
v 0.09756279 0.2104066 0.4984263
v 0.09756279 0.2104066 0.4984263
v 0.2111038 0.3175439 0.5741077
v 0.2145936 0.3175434 0.5848549
v 0.1067542 0.2104069 0.526704
v 0.1067542 0.2104069 0.526704
v 0.2145936 0.3175434 0.5848549
v 0.2237305 0.317544 0.5914875
v 0.1308099 0.2104076 0.5441736
v 0.1308099 0.2104076 0.5441736
v 0.2237305 0.317544 0.5914875
v 0.2350249 0.3175438 0.5914848
v 0.1605464 0.210407 0.5441839
v 0.1605464 0.210407 0.5441839
v 0.2350249 0.3175438 0.5914848
v 0.2441618 0.3175437 0.5848525
v 0.1845966 0.2104066 0.5267029
v 0.1845966 0.2104066 0.5267029
v 0.2441618 0.3175437 0.5848525
v 0.2476514 0.3175447 0.5741072
v 0.1937884 0.210408 0.4984173
v 0.1937884 0.210408 0.4984173
v 0.2476514 0.3175447 0.5741072
v 0.2441619 0.3175435 0.5633689
v 0.1845977 0.2104067 0.4701535
v 0.4436037 -0.2157576 -0.1742307
v 0.4161223 -0.2157582 -0.08477127
v 0.488067 -0.215758 -0.1400609
v 0.3886464 -0.2157574 -0.1742401
v 0.4161223 -0.2157582 -0.08477127
v 0.4436037 -0.2157576 -0.1742307
v 0.3441794 -0.2157574 -0.1400664
v 0.4161223 -0.2157582 -0.08477127
v 0.3886464 -0.2157574 -0.1742401
v 0.3271918 -0.2157582 -0.08476992
v 0.4161223 -0.2157582 -0.08477127
v 0.3441794 -0.2157574 -0.1400664
v 0.3441778 -0.2157582 -0.02947911
v 0.4161223 -0.2157582 -0.08477127
v 0.3271918 -0.2157582 -0.08476992
v 0.3886439 -0.2157574 0.004680289
v 0.4161223 -0.2157582 -0.08477127
v 0.3441778 -0.2157582 -0.02947911
v 0.4436043 -0.215758 0.004688072
v 0.4161223 -0.2157582 -0.08477127
v 0.3886439 -0.2157574 0.004680289
v 0.4880714 -0.2157578 -0.02948439
v 0.4161223 -0.2157582 -0.08477127
v 0.4436043 -0.215758 0.004688072
v 0.5050589 -0.2157573 -0.08478212
v 0.4161223 -0.2157582 -0.08477127
v 0.4880714 -0.2157578 -0.02948439
v 0.488067 -0.215758 -0.1400609
v 0.4161223 -0.2157582 -0.08477127
v 0.5050589 -0.2157573 -0.08478212

vn 0.3715686 -0.62008 -0.6909686
vn 0.3715686 -0.62008 -0.6909686
vn 0.3715687 -0.6200799 -0.6909686
vn 0.3715686 -0.62008 -0.6909685
vn -0.1847893 -0.8420526 -0.5067547
vn -0.1847893 -0.8420526 -0.5067547
vn -0.1847893 -0.8420526 -0.5067547
vn -0.1847893 -0.8420526 -0.5067547
vn -0.6606728 -0.739229 -0.1305825
vn -0.6606728 -0.739229 -0.1305825
vn -0.6606728 -0.7392291 -0.1305826
vn -0.6606728 -0.739229 -0.1305826
vn -0.8857908 -0.3626179 0.2896254
vn -0.8857908 -0.3626179 0.2896254
vn -0.8857908 -0.3626179 0.2896254
vn -0.8857908 -0.3626179 0.2896254
vn -0.7822203 0.1562912 0.6030791
vn -0.7822203 0.1562913 0.6030791
vn -0.7822204 0.1562912 0.6030791
vn -0.7822204 0.1562912 0.6030791
vn -0.3740483 0.6254276 0.6847832
vn -0.3740484 0.6254276 0.6847833
vn -0.3740484 0.6254276 0.6847833
vn -0.3740484 0.6254276 0.6847833
vn 0.1801139 0.8486172 0.4974011
vn 0.1801139 0.8486172 0.4974012
vn 0.1801139 0.8486172 0.4974012
vn 0.1801138 0.8486171 0.4974011
vn 0.6566292 0.7437845 0.1249904
vn 0.6566293 0.7437845 0.1249904
vn 0.6566293 0.7437845 0.1249904
vn 0.6566292 0.7437845 0.1249904
vn 0.8848929 0.3639451 -0.2907036
vn 0.8848929 0.3639451 -0.2907036
vn 0.8848929 0.3639451 -0.2907036
vn 0.8848929 0.3639451 -0.2907036
vn 0.7815846 -0.1548566 -0.6042722
vn 0.7815846 -0.1548566 -0.6042722
vn 0.7815846 -0.1548566 -0.6042722
vn 0.7815846 -0.1548566 -0.6042722
vn 0.300674 -0.4991776 -0.8126604
vn 0.300674 -0.4991776 -0.8126604
vn 0.300674 -0.4991776 -0.8126604
vn 0.300674 -0.4991776 -0.8126604
vn -0.2575451 -0.7175074 -0.647189
vn -0.2575451 -0.7175074 -0.647189
vn -0.2575451 -0.7175074 -0.6471891
vn -0.2575451 -0.7175074 -0.647189
vn -0.7164426 -0.6569563 -0.2347734
vn -0.7164426 -0.6569563 -0.2347734
vn -0.7164426 -0.6569562 -0.2347733
vn -0.7164426 -0.6569563 -0.2347733
vn -0.9012005 -0.3446828 0.2627386
vn -0.9012005 -0.3446828 0.2627386
vn -0.9012005 -0.3446828 0.2627386
vn -0.9012004 -0.3446827 0.2627387
vn -0.7458658 0.09989625 0.6585628
vn -0.7458658 0.09989624 0.6585628
vn -0.7458658 0.09989625 0.6585628
vn -0.7458658 0.09989624 0.6585628
vn -0.3062727 0.5107914 0.803299
vn -0.3062728 0.5107914 0.803299
vn -0.3062727 0.5107914 0.803299
vn -0.3062727 0.5107914 0.803299
vn 0.2521936 0.7285171 0.6369154
vn 0.2521936 0.7285171 0.6369154
vn 0.2521936 0.7285171 0.6369154
vn 0.2521936 0.7285171 0.6369154
vn 0.7102024 0.6672592 0.2244498
vn 0.7102025 0.6672591 0.2244498
vn 0.7102025 0.6672592 0.2244498
vn 0.7102025 0.6672591 0.2244498
vn 0.8942714 0.3553072 -0.2720946
vn 0.8942714 0.3553072 -0.2720947
vn 0.8942714 0.3553073 -0.2720946
vn 0.8942714 0.3553073 -0.2720946
vn 0.7394596 -0.08841769 -0.6673694
vn 0.7394596 -0.08841767 -0.6673694
vn 0.7394596 -0.08841772 -0.6673693
vn 0.7394596 -0.08841772 -0.6673693
vn 0.2755131 -0.4462751 -0.8514289
vn 0.2755131 -0.4462751 -0.8514289
vn 0.2755131 -0.4462751 -0.8514289
vn 0.275513 -0.4462751 -0.8514289
vn -0.2892142 -0.6462311 -0.7062156
vn -0.2892142 -0.6462311 -0.7062156
vn -0.2892142 -0.6462311 -0.7062156
vn -0.2892142 -0.6462311 -0.7062156
vn -0.7474859 -0.5979773 -0.2892889
vn -0.7474859 -0.5979773 -0.289289
vn -0.7474859 -0.5979773 -0.2892889
vn -0.7474859 -0.5979773 -0.2892889
vn -0.9177402 -0.3174685 0.2386772
vn -0.9177401 -0.3174685 0.2386772
vn -0.9177402 -0.3174684 0.2386773
vn -0.9177402 -0.3174685 0.2386772
vn -0.7366784 0.08373254 0.6710393
vn -0.7366784 0.08373253 0.6710393
vn -0.7366784 0.08373255 0.6710393
vn -0.7366784 0.08373255 0.6710393
vn -0.278683 0.4526639 0.8470131
vn -0.2786829 0.452664 0.8470131
vn -0.278683 0.4526639 0.8470131
vn -0.2786829 0.452664 0.8470131
vn 0.2866529 0.6526536 0.7013369
vn 0.2866529 0.6526536 0.7013369
vn 0.2866529 0.6526536 0.7013369
vn 0.2866529 0.6526536 0.7013369
vn 0.7447229 0.6039728 0.2839095
vn 0.744723 0.6039727 0.2839095
vn 0.7447229 0.6039728 0.2839096
vn 0.7447229 0.6039728 0.2839095
vn 0.914355 0.3232985 -0.2437891
vn 0.914355 0.3232985 -0.2437891
vn 0.914355 0.3232985 -0.2437891
vn 0.914355 0.3232985 -0.2437891
vn 0.7331911 -0.07759783 -0.6755807
vn 0.7331911 -0.07759783 -0.6755807
vn 0.7331911 -0.07759783 -0.6755807
vn 0.7331911 -0.0775978 -0.6755807
vn 0.1729535 -0.2360145 -0.9562343
vn 0.1729535 -0.2360146 -0.9562345
vn 0.1729535 -0.2360145 -0.9562345
vn 0.1729535 -0.2360145 -0.9562343
vn -0.3753842 -0.3588021 -0.8546038
vn -0.3753843 -0.358802 -0.8546038
vn -0.3753843 -0.358802 -0.8546038
vn -0.3753842 -0.3588021 -0.8546038
vn -0.8118597 -0.3543177 -0.4640505
vn -0.8118597 -0.3543177 -0.4640504
vn -0.8118597 -0.3543177 -0.4640503
vn -0.8118597 -0.3543177 -0.4640503
vn -0.96973 -0.2018699 0.1373761
vn -0.9697301 -0.2018699 0.1373761
vn -0.9697301 -0.2018699 0.1373761
vn -0.9697301 -0.2018699 0.1373761
vn -0.7171998 0.05121947 0.6949827
vn -0.7171998 0.05121947 0.6949827
vn -0.7171999 0.05121947 0.6949827
vn -0.7171998 0.05121947 0.6949827
vn -0.194055 0.278486 0.9406318
vn -0.1940549 0.278486 0.9406318
vn -0.194055 0.278486 0.9406318
vn -0.194055 0.278486 0.9406318
vn 0.3653159 0.4036347 0.8388226
vn 0.3653159 0.4036347 0.8388226
vn 0.3653159 0.4036347 0.8388226
vn 0.3653159 0.4036347 0.8388226
vn 0.8064008 0.3986655 0.4367876
vn 0.8064009 0.3986655 0.4367876
vn 0.8064008 0.3986656 0.4367877
vn 0.8064009 0.3986655 0.4367876
vn 0.954496 0.2428989 -0.1730246
vn 0.954496 0.2428989 -0.1730246
vn 0.954496 0.2428989 -0.1730246
vn 0.954496 0.2428989 -0.1730246
vn 0.6914343 -0.01134973 -0.7223502
vn 0.6914343 -0.01134973 -0.7223502
vn 0.6914343 -0.01134976 -0.7223502
vn 0.6914343 -0.01134976 -0.7223502
vn 0.1094887 -0.1092349 -0.9879676
vn 0.1094886 -0.109235 -0.9879676
vn 0.1094885 -0.1092351 -0.9879676
vn 0.1094886 -0.1092351 -0.9879676
vn -0.4062028 -0.173918 -0.8970796
vn -0.4062028 -0.1739181 -0.8970796
vn -0.4062028 -0.173918 -0.8970796
vn -0.4062028 -0.1739181 -0.8970796
vn -0.8135546 -0.1849771 -0.5512826
vn -0.8135545 -0.1849771 -0.5512826
vn -0.8135545 -0.1849771 -0.5512826
vn -0.8135545 -0.1849772 -0.5512826
vn -0.9901471 -0.1223165 0.06817138
vn -0.9901471 -0.1223165 0.06817138
vn -0.9901471 -0.1223165 0.06817138
vn -0.9901471 -0.1223165 0.06817138
vn -0.6931201 0.01385971 0.7206888
vn -0.6931201 0.01385971 0.7206888
vn -0.6931201 0.01385971 0.7206888
vn -0.6931201 0.01385968 0.7206888
vn -0.1220256 0.1343725 0.9833889
vn -0.1220256 0.1343726 0.9833889
vn -0.1220255 0.1343725 0.9833889
vn -0.1220255 0.1343725 0.9833889
vn 0.4028319 0.1991638 0.8933422
vn 0.4028319 0.1991638 0.8933422
vn 0.4028319 0.1991638 0.8933422
vn 0.4028319 0.1991638 0.8933422
vn 0.8153856 0.2114918 0.5389041
vn 0.8153856 0.2114918 0.538904
vn 0.8153856 0.2114918 0.5389041
vn 0.8153856 0.2114918 0.5389041
vn 0.9845375 0.1493496 -0.09154554
vn 0.9845375 0.1493496 -0.09154557
vn 0.9845375 0.1493496 -0.09154554
vn 0.9845375 0.1493496 -0.09154556
vn 0.6753131 0.01199583 -0.7374336
vn 0.6753131 0.01199581 -0.7374336
vn 0.6753132 0.01199581 -0.7374336
vn 0.6753131 0.01199581 -0.7374336
vn 0.3030556 -0.5039148 -0.8088431
vn 0.3030556 -0.5039148 -0.8088431
vn 0.3030556 -0.5039148 -0.8088431
vn 0.3030555 -0.5039149 -0.8088431
vn -0.3013526 -0.6153152 -0.728405
vn -0.3013526 -0.6153152 -0.728405
vn -0.3013526 -0.6153152 -0.728405
vn -0.3013526 -0.6153152 -0.728405
vn -0.7886357 -0.4833733 -0.3800052
vn -0.7886357 -0.4833733 -0.3800052
vn -0.7886357 -0.4833733 -0.3800052
vn -0.7886356 -0.4833733 -0.3800052
vn -0.9815327 -0.1616542 0.1022811
vn -0.9815327 -0.1616542 0.1022811
vn -0.9815327 -0.1616543 0.1022811
vn -0.9815327 -0.1616542 0.1022811
vn -0.8076332 0.2325378 0.5418992
vn -0.8076332 0.2325378 0.5418992
vn -0.8076332 0.2325378 0.5418991
vn -0.8076332 0.2325378 0.5418991
vn -0.3244568 0.549968 0.7695862
vn -0.3244568 0.549968 0.7695862
vn -0.3244569 0.549968 0.7695862
vn -0.3244568 0.549968 0.7695862
vn 0.2817447 0.664181 0.6924475
vn 0.2817447 0.664181 0.6924475
vn 0.2817447 0.664181 0.6924475
vn 0.2817447 0.664181 0.6924475
vn 0.7736759 0.532581 0.3431953
vn 0.7736759 0.532581 0.3431953
vn 0.7736759 0.532581 0.3431953
vn 0.7736759 0.5325811 0.3431954
vn 0.9675822 0.2081377 -0.1430504
vn 0.9675822 0.2081377 -0.1430504
vn 0.9675822 0.2081377 -0.1430504
vn 0.9675822 0.2081377 -0.1430504
vn 0.7897452 -0.1878276 -0.5839719
vn 0.7897452 -0.1878277 -0.5839719
vn 0.7897452 -0.1878277 -0.5839719
vn 0.7897452 -0.1878277 -0.5839719
vn 0.3314974 -0.7090403 0.6223916
vn 0.3314974 -0.7090403 0.6223916
vn 0.3314974 -0.7090403 0.6223916
vn 0.3315801 -0.7090175 0.6223736
vn 0.3315801 -0.7090175 0.6223736
vn 0.3315801 -0.7090175 0.6223736
vn 0.3315256 -0.709007 0.6224146
vn 0.3315256 -0.709007 0.6224146
vn 0.3315256 -0.709007 0.6224146
vn 0.3315232 -0.7090003 0.6224235
vn 0.3315232 -0.7090003 0.6224235
vn 0.3315232 -0.7090003 0.6224235
vn 0.3315232 -0.7090003 0.6224235
vn 0.3315232 -0.7090003 0.6224235
vn 0.3315232 -0.7090003 0.6224235
vn 0.3315309 -0.708993 0.6224278
vn 0.3315309 -0.708993 0.6224278
vn 0.3315309 -0.708993 0.6224278
vn 0.33154 -0.7089897 0.6224267
vn 0.33154 -0.7089897 0.6224267
vn 0.33154 -0.7089897 0.6224267
vn 0.3315469 -0.7089921 0.6224203
vn 0.3315469 -0.7089921 0.6224203
vn 0.3315469 -0.7089921 0.6224203
vn 0.3315493 -0.7089987 0.6224114
vn 0.3315493 -0.7089987 0.6224114
vn 0.3315493 -0.7089987 0.6224114
vn 0.3315493 -0.7089987 0.6224114
vn 0.3315493 -0.7089987 0.6224114
vn 0.3315493 -0.7089987 0.6224114

vt 0 0
vt 0 1
vt 1 1
vt 1 0
vt 0 0
vt 0 1
vt 1 1
vt 1 0
vt 0 0
vt 0 1
vt 1 1
vt 1 0
vt 0 0
vt 0 1
vt 1 1
vt 1 0
vt 0 0
vt 0 1
vt 1 1
vt 1 0
vt 0 0
vt 0 1
vt 1 1
vt 1 0
vt 0 0
vt 0 1
vt 1 1
vt 1 0
vt 0 0
vt 0 1
vt 1 1
vt 1 0
vt 0 0
vt 0 1
vt 1 1
vt 1 0
vt 0 0
vt 0 1
vt 1 1
vt 1 0
vt 0 0
vt 0 1
vt 1 1
vt 1 0
vt 0 0
vt 0 1
vt 1 1
vt 1 0
vt 0 0
vt 0 1
vt 1 1
vt 1 0
vt 0 0
vt 0 1
vt 1 1
vt 1 0
vt 0 0
vt 0 1
vt 1 1
vt 1 0
vt 0 0
vt 0 1
vt 1 1
vt 1 0
vt 0 0
vt 0 1
vt 1 1
vt 1 0
vt 0 0
vt 0 1
vt 1 1
vt 1 0
vt 0 0
vt 0 1
vt 1 1
vt 1 0
vt 0 0
vt 0 1
vt 1 1
vt 1 0
vt 0 0
vt 0 1
vt 1 1
vt 1 0
vt 0 0
vt 0 1
vt 1 1
vt 1 0
vt 0 0
vt 0 1
vt 1 1
vt 1 0
vt 0 0
vt 0 1
vt 1 1
vt 1 0
vt 0 0
vt 0 1
vt 1 1
vt 1 0
vt 0 0
vt 0 1
vt 1 1
vt 1 0
vt 0 0
vt 0 1
vt 1 1
vt 1 0
vt 0 0
vt 0 1
vt 1 1
vt 1 0
vt 0 0
vt 0 1
vt 1 1
vt 1 0
vt 0 0
vt 0 1
vt 1 1
vt 1 0
vt 0 0
vt 0 1
vt 1 1
vt 1 0
vt 0 0
vt 0 1
vt 1 1
vt 1 0
vt 0 0
vt 0 1
vt 1 1
vt 1 0
vt 0 0
vt 0 1
vt 1 1
vt 1 0
vt 0 0
vt 0 1
vt 1 1
vt 1 0
vt 0 0
vt 0 1
vt 1 1
vt 1 0
vt 0 0
vt 0 1
vt 1 1
vt 1 0
vt 0 0
vt 0 1
vt 1 1
vt 1 0
vt 0 0
vt 0 1
vt 1 1
vt 1 0
vt 0 0
vt 0 1
vt 1 1
vt 1 0
vt 0 0
vt 0 1
vt 1 1
vt 1 0
vt 0 0
vt 0 1
vt 1 1
vt 1 0
vt 0 0
vt 0 1
vt 1 1
vt 1 0
vt 0 0
vt 0 1
vt 1 1
vt 1 0
vt 0 0
vt 0 1
vt 1 1
vt 1 0
vt 0 0
vt 0 1
vt 1 1
vt 1 0
vt 0 0
vt 0 1
vt 1 1
vt 1 0
vt 0 0
vt 0 1
vt 1 1
vt 1 0
vt 0 0
vt 0 1
vt 1 1
vt 1 0
vt 0 0
vt 0 1
vt 1 1
vt 1 0
vt 0 0
vt 0 1
vt 1 1
vt 1 0
vt 0 0
vt 0 1
vt 1 1
vt 1 0
vt 0 0
vt 0 1
vt 1 1
vt 1 0
vt 0 0
vt 0 1
vt 1 1
vt 1 0
vt 0 0
vt 0 1
vt 1 1
vt 1 0
vt 0 0
vt 0 1
vt 1 1
vt 1 0
vt 0 0
vt 0 1
vt 1 1
vt 1 0
vt 0 0
vt 0 1
vt 1 1
vt 1 0
vt 0 0
vt 0 1
vt 1 1
vt 1 0
vt 0 0
vt 0 1
vt 1 1
vt 1 0
vt 0 0
vt 0.5 1
vt 1 0
vt 0 0
vt 0.5 1
vt 1 0
vt 0 0
vt 0.5 1
vt 1 0
vt 0 0
vt 0.5 1
vt 1 0
vt 0 0
vt 0.5 1
vt 1 0
vt 0 0
vt 0.5 1
vt 1 0
vt 0 0
vt 0.5 1
vt 1 0
vt 0 0
vt 0.5 1
vt 1 0
vt 0 0
vt 0.5 1
vt 1 0
vt 0 0
vt 0.5 1
vt 1 0

g pCylinder19_25_3536_51
usemtl pCylinder19_25_3536_51
usemap pCylinder19_25_3536_51
f 1/1/1 3/3/3 2/2/2
f 1/1/1 4/4/4 3/3/3
f 5/5/5 7/7/7 6/6/6
f 5/5/5 8/8/8 7/7/7
f 9/9/9 11/11/11 10/10/10
f 9/9/9 12/12/12 11/11/11
f 13/13/13 15/15/15 14/14/14
f 13/13/13 16/16/16 15/15/15
f 17/17/17 19/19/19 18/18/18
f 17/17/17 20/20/20 19/19/19
f 21/21/21 23/23/23 22/22/22
f 21/21/21 24/24/24 23/23/23
f 25/25/25 27/27/27 26/26/26
f 25/25/25 28/28/28 27/27/27
f 29/29/29 31/31/31 30/30/30
f 29/29/29 32/32/32 31/31/31
f 33/33/33 35/35/35 34/34/34
f 33/33/33 36/36/36 35/35/35
f 37/37/37 39/39/39 38/38/38
f 37/37/37 40/40/40 39/39/39
f 41/41/41 43/43/43 42/42/42
f 41/41/41 44/44/44 43/43/43
f 45/45/45 47/47/47 46/46/46
f 45/45/45 48/48/48 47/47/47
f 49/49/49 51/51/51 50/50/50
f 49/49/49 52/52/52 51/51/51
f 53/53/53 55/55/55 54/54/54
f 53/53/53 56/56/56 55/55/55
f 57/57/57 59/59/59 58/58/58
f 57/57/57 60/60/60 59/59/59
f 61/61/61 63/63/63 62/62/62
f 61/61/61 64/64/64 63/63/63
f 65/65/65 67/67/67 66/66/66
f 65/65/65 68/68/68 67/67/67
f 69/69/69 71/71/71 70/70/70
f 69/69/69 72/72/72 71/71/71
f 73/73/73 75/75/75 74/74/74
f 73/73/73 76/76/76 75/75/75
f 77/77/77 79/79/79 78/78/78
f 77/77/77 80/80/80 79/79/79
f 81/81/81 83/83/83 82/82/82
f 81/81/81 84/84/84 83/83/83
f 85/85/85 87/87/87 86/86/86
f 85/85/85 88/88/88 87/87/87
f 89/89/89 91/91/91 90/90/90
f 89/89/89 92/92/92 91/91/91
f 93/93/93 95/95/95 94/94/94
f 93/93/93 96/96/96 95/95/95
f 97/97/97 99/99/99 98/98/98
f 97/97/97 100/100/100 99/99/99
f 101/101/101 103/103/103 102/102/102
f 101/101/101 104/104/104 103/103/103
f 105/105/105 107/107/107 106/106/106
f 105/105/105 108/108/108 107/107/107
f 109/109/109 111/111/111 110/110/110
f 109/109/109 112/112/112 111/111/111
f 113/113/113 115/115/115 114/114/114
f 113/113/113 116/116/116 115/115/115
f 117/117/117 119/119/119 118/118/118
f 117/117/117 120/120/120 119/119/119
f 121/121/121 123/123/123 122/122/122
f 121/121/121 124/124/124 123/123/123
f 125/125/125 127/127/127 126/126/126
f 125/125/125 128/128/128 127/127/127
f 129/129/129 131/131/131 130/130/130
f 129/129/129 132/132/132 131/131/131
f 133/133/133 135/135/135 134/134/134
f 133/133/133 136/136/136 135/135/135
f 137/137/137 139/139/139 138/138/138
f 137/137/137 140/140/140 139/139/139
f 141/141/141 143/143/143 142/142/142
f 141/141/141 144/144/144 143/143/143
f 145/145/145 147/147/147 146/146/146
f 145/145/145 148/148/148 147/147/147
f 149/149/149 151/151/151 150/150/150
f 149/149/149 152/152/152 151/151/151
f 153/153/153 155/155/155 154/154/154
f 153/153/153 156/156/156 155/155/155
f 157/157/157 159/159/159 158/158/158
f 157/157/157 160/160/160 159/159/159
f 161/161/161 163/163/163 162/162/162
f 161/161/161 164/164/164 163/163/163
f 165/165/165 167/167/167 166/166/166
f 165/165/165 168/168/168 167/167/167
f 169/169/169 171/171/171 170/170/170
f 169/169/169 172/172/172 171/171/171
f 173/173/173 175/175/175 174/174/174
f 173/173/173 176/176/176 175/175/175
f 177/177/177 179/179/179 178/178/178
f 177/177/177 180/180/180 179/179/179
f 181/181/181 183/183/183 182/182/182
f 181/181/181 184/184/184 183/183/183
f 185/185/185 187/187/187 186/186/186
f 185/185/185 188/188/188 187/187/187
f 189/189/189 191/191/191 190/190/190
f 189/189/189 192/192/192 191/191/191
f 193/193/193 195/195/195 194/194/194
f 193/193/193 196/196/196 195/195/195
f 197/197/197 199/199/199 198/198/198
f 197/197/197 200/200/200 199/199/199
f 201/201/201 203/203/203 202/202/202
f 201/201/201 204/204/204 203/203/203
f 205/205/205 207/207/207 206/206/206
f 205/205/205 208/208/208 207/207/207
f 209/209/209 211/211/211 210/210/210
f 209/209/209 212/212/212 211/211/211
f 213/213/213 215/215/215 214/214/214
f 213/213/213 216/216/216 215/215/215
f 217/217/217 219/219/219 218/218/218
f 217/217/217 220/220/220 219/219/219
f 221/221/221 223/223/223 222/222/222
f 221/221/221 224/224/224 223/223/223
f 225/225/225 227/227/227 226/226/226
f 225/225/225 228/228/228 227/227/227
f 229/229/229 231/231/231 230/230/230
f 229/229/229 232/232/232 231/231/231
f 233/233/233 235/235/235 234/234/234
f 233/233/233 236/236/236 235/235/235
f 237/237/237 239/239/239 238/238/238
f 237/237/237 240/240/240 239/239/239
f 241/241/241 243/243/243 242/242/242
f 244/244/244 246/246/246 245/245/245
f 247/247/247 249/249/249 248/248/248
f 250/250/250 252/252/252 251/251/251
f 253/253/253 255/255/255 254/254/254
f 256/256/256 258/258/258 257/257/257
f 259/259/259 261/261/261 260/260/260
f 262/262/262 264/264/264 263/263/263
f 265/265/265 267/267/267 266/266/266
f 268/268/268 270/270/270 269/269/269
