#pCylinder6_10_4257_237.obj

v 0.01454595 -0.02577561 -0.04035861
v 0.004624445 -0.03397606 0.001091018
v 0.03878513 -0.02577561 -0.02105521
v -0.00966277 -0.02577561 -0.03817578
v -0.01825017 -0.02577561 -0.01778081
v -0.03822153 -0.0222322 0.001091037
v -0.02135029 -0.02577561 0.01996287
v -0.005296992 -0.02577561 0.03271767
v 0.02109475 -0.02577561 0.04035775
v 0.0305992 -0.02577561 0.0199628
v 0.03219011 -0.0222322 0.001091062
v 0.03878513 -0.02577561 -0.02105521
v 0.04796755 -0.01489237 -0.02772649
v 0.0180533 -0.01489237 -0.05115314
v 0.01454595 -0.02577561 -0.04035861
v 0.01454595 -0.02577561 -0.04035861
v 0.0180533 -0.01489237 -0.05115314
v -0.01317017 -0.01489237 -0.04897027
v -0.00966277 -0.02577561 -0.03817578
v -0.00966277 -0.02577561 -0.03817578
v -0.01317017 -0.01489237 -0.04897027
v -0.02743253 -0.01489237 -0.0244522
v -0.01825017 -0.02577561 -0.01778081
v -0.01825017 -0.02577561 -0.01778081
v -0.02743253 -0.01489237 -0.0244522
v -0.04796629 -0.01288815 0.001091103
v -0.03822153 -0.0222322 0.001091037
v -0.03822153 -0.0222322 0.001091037
v -0.04796629 -0.01288815 0.001091103
v -0.03053264 -0.01489237 0.02663423
v -0.02135029 -0.02577561 0.01996287
v -0.02135029 -0.02577561 0.01996287
v -0.03053264 -0.01489237 0.02663423
v -0.008804346 -0.01489237 0.0435122
v -0.005296992 -0.02577561 0.03271767
v -0.005296992 -0.02577561 0.03271767
v -0.008804346 -0.01489237 0.0435122
v 0.02460199 -0.01489237 0.05115238
v 0.02109475 -0.02577561 0.04035775
v 0.02109475 -0.02577561 0.04035775
v 0.02460199 -0.01489237 0.05115238
v 0.03978159 -0.01489237 0.02663423
v 0.0305992 -0.02577561 0.0199628
v 0.0305992 -0.02577561 0.0199628
v 0.03978159 -0.01489237 0.02663423
v 0.04193493 -0.01288815 0.001091076
v 0.03219011 -0.0222322 0.001091062
v 0.03219011 -0.0222322 0.001091062
v 0.04193493 -0.01288815 0.001091076
v 0.04796755 -0.01489237 -0.02772649
v 0.03878513 -0.02577561 -0.02105521
v 0.04796755 -0.01489237 -0.02772649
v 0.04796755 -0.000148289 -0.02772649
v 0.0180533 -0.000148289 -0.05115314
v 0.0180533 -0.01489237 -0.05115314
v 0.0180533 -0.01489237 -0.05115314
v 0.0180533 -0.000148289 -0.05115314
v -0.01317017 -0.000148289 -0.04897027
v -0.01317017 -0.01489237 -0.04897027
v -0.01317017 -0.01489237 -0.04897027
v -0.01317017 -0.000148289 -0.04897027
v -0.02743253 -0.000148289 -0.0244522
v -0.02743253 -0.01489237 -0.0244522
v -0.02743253 -0.01489237 -0.0244522
v -0.02743253 -0.000148289 -0.0244522
v -0.04796629 -0.0002294284 0.001091103
v -0.04796629 -0.01288815 0.001091103
v -0.04796629 -0.01288815 0.001091103
v -0.04796629 -0.0002294284 0.001091103
v -0.03053264 -0.000148289 0.02663423
v -0.03053264 -0.01489237 0.02663423
v -0.03053264 -0.01489237 0.02663423
v -0.03053264 -0.000148289 0.02663423
v -0.008804346 -0.000148289 0.0435122
v -0.008804346 -0.01489237 0.0435122
v -0.008804346 -0.01489237 0.0435122
v -0.008804346 -0.000148289 0.0435122
v 0.02460199 -0.000148289 0.05115238
v 0.02460199 -0.01489237 0.05115238
v 0.02460199 -0.01489237 0.05115238
v 0.02460199 -0.000148289 0.05115238
v 0.03978159 -0.000148289 0.02663423
v 0.03978159 -0.01489237 0.02663423
v 0.03978159 -0.01489237 0.02663423
v 0.03978159 -0.000148289 0.02663423
v 0.04193493 -0.0002294284 0.001091076
v 0.04193493 -0.01288815 0.001091076
v 0.04193493 -0.01288815 0.001091076
v 0.04193493 -0.0002294284 0.001091076
v 0.04796755 -0.000148289 -0.02772649
v 0.04796755 -0.01489237 -0.02772649
v 0.04796755 -0.000148289 -0.02772649
v 0.04568963 0.01428337 -0.02539726
v 0.01714568 0.01428337 -0.04799159
v 0.0180533 -0.000148289 -0.05115314
v 0.0180533 -0.000148289 -0.05115314
v 0.01714568 0.01428337 -0.04799159
v -0.0118284 0.01428337 -0.04559808
v -0.01317017 -0.000148289 -0.04897027
v -0.01317017 -0.000148289 -0.04897027
v -0.0118284 0.01428337 -0.04559808
v -0.02320965 0.01428337 -0.02180683
v -0.02743253 -0.000148289 -0.0244522
v -0.02743253 -0.000148289 -0.0244522
v -0.02320965 0.01428337 -0.02180683
v -0.04530345 0.01197208 0.001196391
v -0.04796629 -0.0002294284 0.001091103
v -0.04796629 -0.0002294284 0.001091103
v -0.04530345 0.01197208 0.001196391
v -0.02660891 0.01428337 0.02419951
v -0.03053264 -0.000148289 0.02663423
v -0.03053264 -0.000148289 0.02663423
v -0.02660891 0.01428337 0.02419951
v -0.007041181 0.01428337 0.03961312
v -0.008804346 -0.000148289 0.0435122
v -0.008804346 -0.000148289 0.0435122
v -0.007041181 0.01428337 0.03961312
v 0.02432663 0.01428337 0.04799079
v 0.02460199 -0.000148289 0.05115238
v 0.02460199 -0.000148289 0.05115238
v 0.02432663 0.01428337 0.04799079
v 0.03671354 0.01428337 0.02419954
v 0.03978159 -0.000148289 0.02663423
v 0.03978159 -0.000148289 0.02663423
v 0.03671354 0.01428337 0.02419954
v 0.03865268 0.01197208 0.001196364
v 0.04193493 -0.0002294284 0.001091076
v 0.04193493 -0.0002294284 0.001091076
v 0.03865268 0.01197208 0.001196364
v 0.04568963 0.01428337 -0.02539726
v 0.04796755 -0.000148289 -0.02772649
v 0.04568963 0.01428337 -0.02539726
v 0.03225304 0.02437446 -0.0161481
v 0.01203715 0.02437446 -0.03256907
v 0.01714568 0.01428337 -0.04799159
v 0.01714568 0.01428337 -0.04799159
v 0.01203715 0.02437446 -0.03256907
v -0.002591674 0.02437446 -0.02139423
v -0.0118284 0.01428337 -0.04559808
v -0.0118284 0.01428337 -0.04559808
v -0.002591674 0.02437446 -0.02139423
v -0.01125244 0.02437446 -0.01279574
v -0.02320965 0.01428337 -0.02180683
v -0.02320965 0.01428337 -0.02180683
v -0.01125244 0.02437446 -0.01279574
v -0.03124411 0.02074648 0.001117131
v -0.04530345 0.01197208 0.001196391
v -0.04530345 0.01197208 0.001196391
v -0.03124411 0.02074648 0.001117131
v -0.01442648 0.02437446 0.01502975
v -0.02660891 0.01428337 0.02419951
v -0.02660891 0.01428337 0.02419951
v -0.01442648 0.02437446 0.01502975
v -0.002591658 0.02437446 0.02474589
v -0.007041181 0.01428337 0.03961312
v -0.007041181 0.01428337 0.03961312
v -0.002591658 0.02437446 0.02474589
v 0.01874204 0.02437446 0.03256818
v 0.02432663 0.01428337 0.04799079
v 0.02432663 0.01428337 0.04799079
v 0.01874204 0.02437446 0.03256818
v 0.02387194 0.02437446 0.01502986
v 0.03671354 0.01428337 0.02419954
v 0.03671354 0.01428337 0.02419954
v 0.02387194 0.02437446 0.01502986
v 0.02504482 0.02074648 0.001117023
v 0.03865268 0.01197208 0.001196364
v 0.03865268 0.01197208 0.001196364
v 0.02504482 0.02074648 0.001117023
v 0.03225304 0.02437446 -0.0161481
v 0.04568963 0.01428337 -0.02539726
v 0.03225304 0.02437446 -0.0161481
v 0.004624445 0.03397608 0.001091018
v 0.01203715 0.02437446 -0.03256907
v 0.01203715 0.02437446 -0.03256907
v 0.004624445 0.03397608 0.001091018
v -0.002591674 0.02437446 -0.02139423
v -0.002591674 0.02437446 -0.02139423
v 0.004624445 0.03397608 0.001091018
v -0.01125244 0.02437446 -0.01279574
v -0.01125244 0.02437446 -0.01279574
v 0.004624445 0.03397608 0.001091018
v -0.03124411 0.02074648 0.001117131
v -0.03124411 0.02074648 0.001117131
v 0.004624445 0.03397608 0.001091018
v -0.01442648 0.02437446 0.01502975
v -0.01442648 0.02437446 0.01502975
v 0.004624445 0.03397608 0.001091018
v -0.002591658 0.02437446 0.02474589
v -0.002591658 0.02437446 0.02474589
v 0.004624445 0.03397608 0.001091018
v 0.01874204 0.02437446 0.03256818
v 0.01874204 0.02437446 0.03256818
v 0.004624445 0.03397608 0.001091018
v 0.02387194 0.02437446 0.01502986
v 0.02387194 0.02437446 0.01502986
v 0.004624445 0.03397608 0.001091018
v 0.02504482 0.02074648 0.001117023
v 0.02504482 0.02074648 0.001117023
v 0.004624445 0.03397608 0.001091018
v 0.03225304 0.02437446 -0.0161481

vn 0.1910233 -0.9746063 -0.1168446
vn 0.001531278 -0.999998 0.001268905
vn 0.221476 -0.9698725 0.1014676
vn 0.05686999 -0.9735574 -0.2212504
vn -0.1551326 -0.9450633 -0.2877311
vn -0.2234407 -0.9505205 -0.2158361
vn -0.2859229 -0.955556 -0.07183946
vn -0.2565355 -0.9587457 0.1224594
vn -0.0843757 -0.9745761 0.2075627
vn 0.2341517 -0.9428011 0.2372743
vn 0.2695143 -0.8860961 0.3770886
vn 0.752656 -0.6400554 -0.1543948
vn 0.752656 -0.6400555 -0.1543948
vn 0.752656 -0.6400555 -0.1543947
vn 0.752656 -0.6400555 -0.1543948
vn 0.4479977 -0.6391842 -0.6250932
vn 0.4479977 -0.6391843 -0.6250932
vn 0.4479977 -0.6391842 -0.6250932
vn 0.4479977 -0.6391842 -0.6250933
vn -0.3124426 -0.5961946 -0.7395483
vn -0.3124426 -0.5961946 -0.7395483
vn -0.3124426 -0.5961946 -0.7395483
vn -0.3124426 -0.5961946 -0.7395483
vn -0.1695765 -0.621523 -0.7648222
vn -0.1695766 -0.6215229 -0.7648222
vn -0.1695765 -0.6215229 -0.7648222
vn -0.1695766 -0.621523 -0.7648222
vn -0.7683688 -0.6309732 -0.107155
vn -0.7683688 -0.6309732 -0.107155
vn -0.7683688 -0.6309731 -0.107155
vn -0.7683688 -0.6309732 -0.107155
vn -0.752166 -0.640098 0.1565914
vn -0.752166 -0.640098 0.1565913
vn -0.752166 -0.640098 0.1565914
vn -0.752166 -0.640098 0.1565914
vn -0.6330507 -0.6283637 0.4521125
vn -0.6330507 -0.6283638 0.4521125
vn -0.6330507 -0.6283637 0.4521125
vn -0.6330507 -0.6283637 0.4521125
vn 0.287074 -0.602204 0.7449421
vn 0.287074 -0.602204 0.7449422
vn 0.287074 -0.602204 0.7449422
vn 0.2870741 -0.602204 0.7449422
vn 0.6192124 -0.6137941 0.4897272
vn 0.6192123 -0.6137942 0.4897271
vn 0.6192124 -0.6137941 0.4897272
vn 0.6192124 -0.6137941 0.4897272
vn 0.4332496 -0.5488456 0.7148869
vn 0.4332497 -0.5488455 0.7148869
vn 0.4332496 -0.5488456 0.7148869
vn 0.4332496 -0.5488456 0.7148868
vn 0.9788585 1.810895E-17 -0.2045383
vn 0.9788585 1.810895E-17 -0.2045382
vn 0.9788585 1.810895E-17 -0.2045382
vn 0.9788585 1.810895E-17 -0.2045383
vn 0.5896598 4.728281E-17 -0.8076517
vn 0.5896598 4.728281E-17 -0.8076517
vn 0.5896598 4.728281E-17 -0.8076517
vn 0.5896598 4.728281E-17 -0.8076517
vn -0.3367825 4.75492E-17 -0.9415824
vn -0.3367825 4.75492E-17 -0.9415824
vn -0.3367825 4.75492E-17 -0.9415824
vn -0.3367825 4.75492E-17 -0.9415824
vn -0.1920549 5.073474E-17 -0.9813842
vn -0.1920549 5.073473E-17 -0.9813842
vn -0.1920549 5.073474E-17 -0.9813842
vn -0.1920549 5.073474E-17 -0.9813842
vn -0.9948491 -1.970087E-18 -0.1013666
vn -0.9948491 -1.970087E-18 -0.1013666
vn -0.9948491 -1.970093E-18 -0.1013665
vn -0.9948491 -1.970087E-18 -0.1013666
vn -0.9780424 -1.830846E-17 0.208406
vn -0.9780424 -1.830846E-17 0.208406
vn -0.9780424 -1.830846E-17 0.208406
vn -0.9780424 -1.830846E-17 0.208406
vn -0.7987859 -3.787968E-17 0.6016154
vn -0.7987859 -3.787968E-17 0.6016154
vn -0.7987859 -3.787968E-17 0.6016154
vn -0.7987859 -3.787968E-17 0.6016154
vn 0.3107683 -4.821474E-17 0.9504856
vn 0.3107683 -4.821474E-17 0.9504856
vn 0.3107683 -4.821474E-17 0.9504856
vn 0.3107683 -4.821474E-17 0.9504856
vn 0.7077147 -3.231268E-17 0.7064983
vn 0.7077147 -3.231268E-17 0.7064983
vn 0.7077147 -3.231268E-17 0.7064983
vn 0.7077147 -3.231268E-17 0.7064983
vn 0.6162729 -3.729543E-17 0.7875326
vn 0.6162729 -3.729543E-17 0.7875326
vn 0.6162729 -3.729543E-17 0.7875326
vn 0.6162729 -3.729543E-17 0.7875326
vn 0.9633743 0.1800348 -0.1987398
vn 0.9633743 0.1800349 -0.1987397
vn 0.9633743 0.1800349 -0.1987397
vn 0.9633743 0.1800349 -0.1987397
vn 0.5743893 0.18731 -0.7968639
vn 0.5743893 0.1873101 -0.7968639
vn 0.5743893 0.1873101 -0.7968639
vn 0.5743893 0.1873101 -0.7968639
vn -0.3639885 0.2197906 -0.9050992
vn -0.3639885 0.2197905 -0.9050992
vn -0.3639884 0.2197906 -0.9050993
vn -0.3639885 0.2197905 -0.9050992
vn -0.1551099 0.2161017 -0.9639715
vn -0.1551099 0.2161018 -0.9639715
vn -0.1551099 0.2161017 -0.9639715
vn -0.1551099 0.2161017 -0.9639714
vn -0.9759623 0.206724 -0.06901382
vn -0.9759623 0.206724 -0.06901382
vn -0.9759623 0.206724 -0.06901386
vn -0.9759623 0.206724 -0.06901382
vn -0.9500849 0.2400799 0.1992494
vn -0.9500849 0.2400799 0.1992493
vn -0.9500849 0.2400799 0.1992494
vn -0.9500849 0.2400799 0.1992494
vn -0.7919673 0.2055194 0.5749345
vn -0.7919673 0.2055194 0.5749345
vn -0.7919673 0.2055194 0.5749345
vn -0.7919673 0.2055194 0.5749345
vn 0.3399914 0.163128 0.9261723
vn 0.3399914 0.163128 0.9261723
vn 0.3399914 0.163128 0.9261723
vn 0.3399914 0.163128 0.9261723
vn 0.7015163 0.2010115 0.6837172
vn 0.7015163 0.2010115 0.6837173
vn 0.7015163 0.2010114 0.6837172
vn 0.7015163 0.2010114 0.6837173
vn 0.5833215 0.1505436 0.7981684
vn 0.5833215 0.1505436 0.7981684
vn 0.5833215 0.1505436 0.7981684
vn 0.5833215 0.1505436 0.7981684
vn 0.6024857 0.7891594 -0.1193248
vn 0.6024858 0.7891594 -0.1193248
vn 0.6024857 0.7891594 -0.1193248
vn 0.6024858 0.7891594 -0.1193248
vn 0.2033142 0.8519384 -0.4825601
vn 0.2033142 0.8519384 -0.4825601
vn 0.2033142 0.8519384 -0.4825601
vn 0.2033143 0.8519385 -0.4825601
vn -0.174236 0.8283318 -0.5324549
vn -0.174236 0.8283318 -0.5324549
vn -0.174236 0.8283318 -0.5324549
vn -0.174236 0.8283318 -0.5324549
vn -0.1076713 0.751799 -0.6505421
vn -0.1076713 0.7517991 -0.6505421
vn -0.1076713 0.7517991 -0.6505421
vn -0.1076713 0.7517991 -0.6505421
vn -0.6376916 0.7676094 -0.06423026
vn -0.6376916 0.7676094 -0.06423023
vn -0.6376915 0.7676092 -0.06423027
vn -0.6376916 0.7676094 -0.06423026
vn -0.6235472 0.7719753 0.1234631
vn -0.6235473 0.7719752 0.123463
vn -0.6235473 0.7719752 0.1234631
vn -0.6235473 0.7719752 0.123463
vn -0.5403649 0.7661014 0.3479863
vn -0.5403649 0.7661014 0.3479863
vn -0.5403649 0.7661014 0.3479863
vn -0.5403649 0.7661014 0.3479863
vn 0.3033826 0.7418408 0.5980228
vn 0.3033826 0.7418408 0.5980228
vn 0.3033825 0.7418407 0.5980228
vn 0.3033826 0.7418408 0.5980228
vn 0.5620288 0.7444518 0.3604371
vn 0.5620288 0.744452 0.3604371
vn 0.5620288 0.744452 0.3604371
vn 0.5620288 0.7444518 0.3604372
vn 0.3005512 0.6708224 0.6779869
vn 0.3005512 0.6708225 0.6779868
vn 0.3005512 0.6708224 0.6779869
vn 0.3005512 0.6708224 0.6779869
vn 0.3415869 0.9375964 -0.06504904
vn 0.3415869 0.9375964 -0.06504909
vn 0.3415869 0.9375964 -0.06504904
vn 0.02196072 0.8896015 -0.4562094
vn 0.02196074 0.8896015 -0.4562094
vn 0.02196074 0.8896015 -0.4562093
vn -0.03877157 0.8788401 -0.4755384
vn -0.03877155 0.8788401 -0.4755384
vn -0.03877161 0.8788401 -0.4755384
vn -0.1133372 0.878563 -0.4639846
vn -0.1133372 0.878563 -0.4639847
vn -0.1133372 0.878563 -0.4639847
vn -0.4283669 0.8977368 -0.1028128
vn -0.4283669 0.8977368 -0.1028127
vn -0.4283669 0.8977368 -0.1028128
vn -0.4395059 0.8945507 0.08132387
vn -0.4395059 0.8945507 0.08132385
vn -0.4395059 0.8945507 0.08132385
vn -0.36458 0.9075938 0.2082184
vn -0.36458 0.9075938 0.2082184
vn -0.36458 0.9075938 0.2082184
vn 0.2512811 0.8907424 0.3787292
vn 0.2512811 0.8907424 0.3787292
vn 0.2512812 0.8907423 0.3787293
vn 0.5811725 0.7773977 0.2406061
vn 0.5811725 0.7773978 0.2406061
vn 0.5811725 0.7773978 0.2406061
vn 0.1590681 0.7217777 0.6735981
vn 0.159068 0.7217777 0.6735981
vn 0.159068 0.7217777 0.6735981

vt 0.5482839 0.007647395
vt 0.5 0.15
vt 0.6264089 0.06440853
vt 0.4517161 0.00764741
vt 0.3735911 0.06440856
vt 0.34375 0.15625
vt 0.3735911 0.2480915
vt 0.4517161 0.3048526
vt 0.5482839 0.3048526
vt 0.6264089 0.2480914
vt 0.65625 0.15625
vt 0 0
vt 0 1
vt 1 1
vt 1 0
vt 0 0
vt 0 1
vt 1 1
vt 1 0
vt 0 0
vt 0 1
vt 1 1
vt 1 0
vt 0 0
vt 0 1
vt 1 1
vt 1 0
vt 0 0
vt 0 1
vt 1 1
vt 1 0
vt 0 0
vt 0 1
vt 1 1
vt 1 0
vt 0 0
vt 0 1
vt 1 1
vt 1 0
vt 0 0
vt 0 1
vt 1 1
vt 1 0
vt 0 0
vt 0 1
vt 1 1
vt 1 0
vt 0 0
vt 0 1
vt 1 1
vt 1 0
vt 0 0
vt 0 1
vt 1 1
vt 1 0
vt 0 0
vt 0 1
vt 1 1
vt 1 0
vt 0 0
vt 0 1
vt 1 1
vt 1 0
vt 0 0
vt 0 1
vt 1 1
vt 1 0
vt 0 0
vt 0 1
vt 1 1
vt 1 0
vt 0 0
vt 0 1
vt 1 1
vt 1 0
vt 0 0
vt 0 1
vt 1 1
vt 1 0
vt 0 0
vt 0 1
vt 1 1
vt 1 0
vt 0 0
vt 0 1
vt 1 1
vt 1 0
vt 0 0
vt 0 1
vt 1 1
vt 1 0
vt 0 0
vt 0 1
vt 1 1
vt 1 0
vt 0 0
vt 0 1
vt 1 1
vt 1 0
vt 0 0
vt 0 1
vt 1 1
vt 1 0
vt 0 0
vt 0 1
vt 1 1
vt 1 0
vt 0 0
vt 0 1
vt 1 1
vt 1 0
vt 0 0
vt 0 1
vt 1 1
vt 1 0
vt 0 0
vt 0 1
vt 1 1
vt 1 0
vt 0 0
vt 0 1
vt 1 1
vt 1 0
vt 0 0
vt 0 1
vt 1 1
vt 1 0
vt 0 0
vt 0 1
vt 1 1
vt 1 0
vt 0 0
vt 0 1
vt 1 1
vt 1 0
vt 0 0
vt 0 1
vt 1 1
vt 1 0
vt 0 0
vt 0 1
vt 1 1
vt 1 0
vt 0 0
vt 0 1
vt 1 1
vt 1 0
vt 0 0
vt 0 1
vt 1 1
vt 1 0
vt 0 0
vt 0 1
vt 1 1
vt 1 0
vt 0 0
vt 0 1
vt 1 1
vt 1 0
vt 0 0
vt 0 1
vt 1 1
vt 1 0
vt 0 0
vt 0 1
vt 1 1
vt 1 0
vt 0 0
vt 0 1
vt 1 1
vt 1 0
vt 0 0
vt 0.5 1
vt 1 0
vt 0 0
vt 0.5 1
vt 1 0
vt 0 0
vt 0.5 1
vt 1 0
vt 0 0
vt 0.5 1
vt 1 0
vt 0 0
vt 0.5 1
vt 1 0
vt 0 0
vt 0.5 1
vt 1 0
vt 0 0
vt 0.5 1
vt 1 0
vt 0 0
vt 0.5 1
vt 1 0
vt 0 0
vt 0.5 1
vt 1 0
vt 0 0
vt 0.5 1
vt 1 0

g pCylinder6_10_4257_237
usemtl pCylinder6_10_4257_237
usemap pCylinder6_10_4257_237
f 1/1/1 3/3/3 2/2/2
f 4/4/4 1/1/1 2/2/2
f 5/5/5 4/4/4 2/2/2
f 6/6/6 5/5/5 2/2/2
f 7/7/7 6/6/6 2/2/2
f 8/8/8 7/7/7 2/2/2
f 9/9/9 8/8/8 2/2/2
f 10/10/10 9/9/9 2/2/2
f 11/11/11 10/10/10 2/2/2
f 3/3/3 11/11/11 2/2/2
f 12/12/12 14/14/14 13/13/13
f 12/12/12 15/15/15 14/14/14
f 16/16/16 18/18/18 17/17/17
f 16/16/16 19/19/19 18/18/18
f 20/20/20 22/22/22 21/21/21
f 20/20/20 23/23/23 22/22/22
f 24/24/24 26/26/26 25/25/25
f 24/24/24 27/27/27 26/26/26
f 28/28/28 30/30/30 29/29/29
f 28/28/28 31/31/31 30/30/30
f 32/32/32 34/34/34 33/33/33
f 32/32/32 35/35/35 34/34/34
f 36/36/36 38/38/38 37/37/37
f 36/36/36 39/39/39 38/38/38
f 40/40/40 42/42/42 41/41/41
f 40/40/40 43/43/43 42/42/42
f 44/44/44 46/46/46 45/45/45
f 44/44/44 47/47/47 46/46/46
f 48/48/48 50/50/50 49/49/49
f 48/48/48 51/51/51 50/50/50
f 52/52/52 54/54/54 53/53/53
f 52/52/52 55/55/55 54/54/54
f 56/56/56 58/58/58 57/57/57
f 56/56/56 59/59/59 58/58/58
f 60/60/60 62/62/62 61/61/61
f 60/60/60 63/63/63 62/62/62
f 64/64/64 66/66/66 65/65/65
f 64/64/64 67/67/67 66/66/66
f 68/68/68 70/70/70 69/69/69
f 68/68/68 71/71/71 70/70/70
f 72/72/72 74/74/74 73/73/73
f 72/72/72 75/75/75 74/74/74
f 76/76/76 78/78/78 77/77/77
f 76/76/76 79/79/79 78/78/78
f 80/80/80 82/82/82 81/81/81
f 80/80/80 83/83/83 82/82/82
f 84/84/84 86/86/86 85/85/85
f 84/84/84 87/87/87 86/86/86
f 88/88/88 90/90/90 89/89/89
f 88/88/88 91/91/91 90/90/90
f 92/92/92 94/94/94 93/93/93
f 92/92/92 95/95/95 94/94/94
f 96/96/96 98/98/98 97/97/97
f 96/96/96 99/99/99 98/98/98
f 100/100/100 102/102/102 101/101/101
f 100/100/100 103/103/103 102/102/102
f 104/104/104 106/106/106 105/105/105
f 104/104/104 107/107/107 106/106/106
f 108/108/108 110/110/110 109/109/109
f 108/108/108 111/111/111 110/110/110
f 112/112/112 114/114/114 113/113/113
f 112/112/112 115/115/115 114/114/114
f 116/116/116 118/118/118 117/117/117
f 116/116/116 119/119/119 118/118/118
f 120/120/120 122/122/122 121/121/121
f 120/120/120 123/123/123 122/122/122
f 124/124/124 126/126/126 125/125/125
f 124/124/124 127/127/127 126/126/126
f 128/128/128 130/130/130 129/129/129
f 128/128/128 131/131/131 130/130/130
f 132/132/132 134/134/134 133/133/133
f 132/132/132 135/135/135 134/134/134
f 136/136/136 138/138/138 137/137/137
f 136/136/136 139/139/139 138/138/138
f 140/140/140 142/142/142 141/141/141
f 140/140/140 143/143/143 142/142/142
f 144/144/144 146/146/146 145/145/145
f 144/144/144 147/147/147 146/146/146
f 148/148/148 150/150/150 149/149/149
f 148/148/148 151/151/151 150/150/150
f 152/152/152 154/154/154 153/153/153
f 152/152/152 155/155/155 154/154/154
f 156/156/156 158/158/158 157/157/157
f 156/156/156 159/159/159 158/158/158
f 160/160/160 162/162/162 161/161/161
f 160/160/160 163/163/163 162/162/162
f 164/164/164 166/166/166 165/165/165
f 164/164/164 167/167/167 166/166/166
f 168/168/168 170/170/170 169/169/169
f 168/168/168 171/171/171 170/170/170
f 172/172/172 174/174/174 173/173/173
f 175/175/175 177/177/177 176/176/176
f 178/178/178 180/180/180 179/179/179
f 181/181/181 183/183/183 182/182/182
f 184/184/184 186/186/186 185/185/185
f 187/187/187 189/189/189 188/188/188
f 190/190/190 192/192/192 191/191/191
f 193/193/193 195/195/195 194/194/194
f 196/196/196 198/198/198 197/197/197
f 199/199/199 201/201/201 200/200/200
