#pCylinder8_21_3746_165.obj

v 0.0145452 -0.02577559 -0.04035421
v 0.004623623 -0.03397604 0.001095979
v 0.03878441 -0.02577559 -0.02105052
v -0.009663315 -0.02577559 -0.03817114
v -0.01825094 -0.02577559 -0.01777622
v -0.03822246 -0.02223221 0.001095967
v -0.02135092 -0.02577559 0.01996774
v -0.005297432 -0.02577559 0.03272213
v 0.02109409 -0.02577559 0.04036242
v 0.03059821 -0.02577559 0.01996798
v 0.0321896 -0.02223221 0.001095523
v 0.03878441 -0.02577559 -0.02105052
v 0.04796688 -0.01489237 -0.02772204
v 0.01805248 -0.01489237 -0.05114867
v 0.0145452 -0.02577559 -0.04035421
v 0.0145452 -0.02577559 -0.04035421
v 0.01805248 -0.01489237 -0.05114867
v -0.01317069 -0.01489237 -0.0489654
v -0.009663315 -0.02577559 -0.03817114
v -0.009663315 -0.02577559 -0.03817114
v -0.01317069 -0.01489237 -0.0489654
v -0.02743331 -0.01489237 -0.02444756
v -0.01825094 -0.02577559 -0.01777622
v -0.01825094 -0.02577559 -0.01777622
v -0.02743331 -0.01489237 -0.02444756
v -0.04796709 -0.01288822 0.00109602
v -0.03822246 -0.02223221 0.001095967
v -0.03822246 -0.02223221 0.001095967
v -0.04796709 -0.01288822 0.00109602
v -0.03053339 -0.01489237 0.02663926
v -0.02135092 -0.02577559 0.01996774
v -0.02135092 -0.02577559 0.01996774
v -0.03053339 -0.01489237 0.02663926
v -0.00880513 -0.01489237 0.0435165
v -0.005297432 -0.02577559 0.03272213
v -0.005297432 -0.02577559 0.03272213
v -0.00880513 -0.01489237 0.0435165
v 0.02460129 -0.01489237 0.05115752
v 0.02109409 -0.02577559 0.04036242
v 0.02109409 -0.02577559 0.04036242
v 0.02460129 -0.01489237 0.05115752
v 0.039781 -0.01489237 0.0266394
v 0.03059821 -0.02577559 0.01996798
v 0.03059821 -0.02577559 0.01996798
v 0.039781 -0.01489237 0.0266394
v 0.04193422 -0.01288822 0.001095471
v 0.0321896 -0.02223221 0.001095523
v 0.0321896 -0.02223221 0.001095523
v 0.04193422 -0.01288822 0.001095471
v 0.04796688 -0.01489237 -0.02772204
v 0.03878441 -0.02577559 -0.02105052
v 0.04796688 -0.01489237 -0.02772204
v 0.04796688 -0.0001482879 -0.02772204
v 0.01805248 -0.0001482879 -0.05114867
v 0.01805248 -0.01489237 -0.05114867
v 0.01805248 -0.01489237 -0.05114867
v 0.01805248 -0.0001482879 -0.05114867
v -0.01317069 -0.0001482879 -0.0489654
v -0.01317069 -0.01489237 -0.0489654
v -0.01317069 -0.01489237 -0.0489654
v -0.01317069 -0.0001482879 -0.0489654
v -0.02743331 -0.0001482879 -0.02444756
v -0.02743331 -0.01489237 -0.02444756
v -0.02743331 -0.01489237 -0.02444756
v -0.02743331 -0.0001482879 -0.02444756
v -0.04796709 -0.0002293845 0.00109602
v -0.04796709 -0.01288822 0.00109602
v -0.04796709 -0.01288822 0.00109602
v -0.04796709 -0.0002293845 0.00109602
v -0.03053339 -0.0001482879 0.02663926
v -0.03053339 -0.01489237 0.02663926
v -0.03053339 -0.01489237 0.02663926
v -0.03053339 -0.0001482879 0.02663926
v -0.00880513 -0.0001482879 0.0435165
v -0.00880513 -0.01489237 0.0435165
v -0.00880513 -0.01489237 0.0435165
v -0.00880513 -0.0001482879 0.0435165
v 0.02460129 -0.0001482879 0.05115752
v 0.02460129 -0.01489237 0.05115752
v 0.02460129 -0.01489237 0.05115752
v 0.02460129 -0.0001482879 0.05115752
v 0.039781 -0.0001482879 0.0266394
v 0.039781 -0.01489237 0.0266394
v 0.039781 -0.01489237 0.0266394
v 0.039781 -0.0001482879 0.0266394
v 0.04193422 -0.0002293845 0.001095471
v 0.04193422 -0.01288822 0.001095471
v 0.04193422 -0.01288822 0.001095471
v 0.04193422 -0.0002293845 0.001095471
v 0.04796688 -0.0001482879 -0.02772204
v 0.04796688 -0.01489237 -0.02772204
v 0.04796688 -0.0001482879 -0.02772204
v 0.04568886 0.01428337 -0.02539218
v 0.01714483 0.01428337 -0.04798719
v 0.01805248 -0.0001482879 -0.05114867
v 0.01805248 -0.0001482879 -0.05114867
v 0.01714483 0.01428337 -0.04798719
v -0.0118291 0.01428337 -0.04559367
v -0.01317069 -0.0001482879 -0.0489654
v -0.01317069 -0.0001482879 -0.0489654
v -0.0118291 0.01428337 -0.04559367
v -0.02321054 0.01428337 -0.02180196
v -0.02743331 -0.0001482879 -0.02444756
v -0.02743331 -0.0001482879 -0.02444756
v -0.02321054 0.01428337 -0.02180196
v -0.04530437 0.01197206 0.001201286
v -0.04796709 -0.0002293845 0.00109602
v -0.04796709 -0.0002293845 0.00109602
v -0.04530437 0.01197206 0.001201286
v -0.02660976 0.01428337 0.02420415
v -0.03053339 -0.0001482879 0.02663926
v -0.03053339 -0.0001482879 0.02663926
v -0.02660976 0.01428337 0.02420415
v -0.007042008 0.01428337 0.03961822
v -0.00880513 -0.0001482879 0.0435165
v -0.00880513 -0.0001482879 0.0435165
v -0.007042008 0.01428337 0.03961822
v 0.02432572 0.01428337 0.04799558
v 0.02460129 -0.0001482879 0.05115752
v 0.02460129 -0.0001482879 0.05115752
v 0.02432572 0.01428337 0.04799558
v 0.03671279 0.01428337 0.02420468
v 0.039781 -0.0001482879 0.0266394
v 0.039781 -0.0001482879 0.0266394
v 0.03671279 0.01428337 0.02420468
v 0.0386517 0.01197206 0.001201374
v 0.04193422 -0.0002293845 0.001095471
v 0.04193422 -0.0002293845 0.001095471
v 0.0386517 0.01197206 0.001201374
v 0.04568886 0.01428337 -0.02539218
v 0.04796688 -0.0001482879 -0.02772204
v 0.04568886 0.01428337 -0.02539218
v 0.03225238 0.02437446 -0.01614366
v 0.01203617 0.02437446 -0.03256419
v 0.01714483 0.01428337 -0.04798719
v 0.01714483 0.01428337 -0.04798719
v 0.01203617 0.02437446 -0.03256419
v -0.002592253 0.02437446 -0.02138979
v -0.0118291 0.01428337 -0.04559367
v -0.0118291 0.01428337 -0.04559367
v -0.002592253 0.02437446 -0.02138979
v -0.0112533 0.02437446 -0.01279087
v -0.02321054 0.01428337 -0.02180196
v -0.02321054 0.01428337 -0.02180196
v -0.0112533 0.02437446 -0.01279087
v -0.03124467 0.02074654 0.001121761
v -0.04530437 0.01197206 0.001201286
v -0.04530437 0.01197206 0.001201286
v -0.03124467 0.02074654 0.001121761
v -0.01442744 0.02437446 0.01503495
v -0.02660976 0.01428337 0.02420415
v -0.02660976 0.01428337 0.02420415
v -0.01442744 0.02437446 0.01503495
v -0.002592485 0.02437446 0.02475089
v -0.007042008 0.01428337 0.03961822
v -0.007042008 0.01428337 0.03961822
v -0.002592485 0.02437446 0.02475089
v 0.01874107 0.02437446 0.03257272
v 0.02432572 0.01428337 0.04799558
v 0.02432572 0.01428337 0.04799558
v 0.01874107 0.02437446 0.03257272
v 0.02387138 0.02437446 0.01503439
v 0.03671279 0.01428337 0.02420468
v 0.03671279 0.01428337 0.02420468
v 0.02387138 0.02437446 0.01503439
v 0.02504397 0.02074654 0.00112213
v 0.0386517 0.01197206 0.001201374
v 0.0386517 0.01197206 0.001201374
v 0.02504397 0.02074654 0.00112213
v 0.03225238 0.02437446 -0.01614366
v 0.04568886 0.01428337 -0.02539218
v 0.03225238 0.02437446 -0.01614366
v 0.004623623 0.03397607 0.001095979
v 0.01203617 0.02437446 -0.03256419
v 0.01203617 0.02437446 -0.03256419
v 0.004623623 0.03397607 0.001095979
v -0.002592253 0.02437446 -0.02138979
v -0.002592253 0.02437446 -0.02138979
v 0.004623623 0.03397607 0.001095979
v -0.0112533 0.02437446 -0.01279087
v -0.0112533 0.02437446 -0.01279087
v 0.004623623 0.03397607 0.001095979
v -0.03124467 0.02074654 0.001121761
v -0.03124467 0.02074654 0.001121761
v 0.004623623 0.03397607 0.001095979
v -0.01442744 0.02437446 0.01503495
v -0.01442744 0.02437446 0.01503495
v 0.004623623 0.03397607 0.001095979
v -0.002592485 0.02437446 0.02475089
v -0.002592485 0.02437446 0.02475089
v 0.004623623 0.03397607 0.001095979
v 0.01874107 0.02437446 0.03257272
v 0.01874107 0.02437446 0.03257272
v 0.004623623 0.03397607 0.001095979
v 0.02387138 0.02437446 0.01503439
v 0.02387138 0.02437446 0.01503439
v 0.004623623 0.03397607 0.001095979
v 0.02504397 0.02074654 0.00112213
v 0.02504397 0.02074654 0.00112213
v 0.004623623 0.03397607 0.001095979
v 0.03225238 0.02437446 -0.01614366

vn 0.1881877 -0.9818565 0.02328651
vn 0.0003431473 -0.9999982 0.001636024
vn 0.09339336 -0.9784297 0.1842612
vn 0.1543836 -0.9810984 -0.1166648
vn 0.0493209 -0.9602382 -0.2747894
vn -0.03450704 -0.9642731 -0.2626514
vn -0.1524295 -0.9679796 -0.199449
vn -0.2356387 -0.970319 -0.05435502
vn -0.1653483 -0.9818347 0.09305784
vn 0.03033943 -0.9585599 0.2832693
vn -0.02073412 -0.9154217 0.4019607
vn 0.6333373 -0.703926 0.3215146
vn 0.6333373 -0.703926 0.3215145
vn 0.6333373 -0.703926 0.3215146
vn 0.6333373 -0.703926 0.3215145
vn 0.6840007 -0.7031067 -0.1943793
vn 0.6840007 -0.7031068 -0.1943793
vn 0.6840007 -0.7031067 -0.1943793
vn 0.6840007 -0.7031068 -0.1943793
vn 0.2015875 -0.6620906 -0.7218019
vn 0.2015875 -0.6620905 -0.721802
vn 0.2015875 -0.6620906 -0.7218019
vn 0.2015875 -0.6620905 -0.721802
vn 0.3188604 -0.6863981 -0.653594
vn 0.3188604 -0.6863981 -0.6535941
vn 0.3188604 -0.6863981 -0.6535941
vn 0.3188604 -0.6863981 -0.6535941
vn -0.49518 -0.6953633 -0.520832
vn -0.49518 -0.6953633 -0.520832
vn -0.49518 -0.6953633 -0.5208321
vn -0.49518 -0.6953633 -0.5208321
vn -0.6342409 -0.7039658 -0.3196404
vn -0.634241 -0.7039658 -0.3196405
vn -0.6342409 -0.7039658 -0.3196404
vn -0.6342409 -0.7039658 -0.3196404
vn -0.7200688 -0.6928934 -0.03740272
vn -0.7200688 -0.6928935 -0.03740275
vn -0.7200689 -0.6928935 -0.0374027
vn -0.7200688 -0.6928934 -0.03740272
vn -0.2229629 -0.6678944 0.7100734
vn -0.2229629 -0.6678944 0.7100734
vn -0.2229629 -0.6678944 0.7100734
vn -0.2229629 -0.6678944 0.7100735
vn 0.1670475 -0.6790238 0.7148575
vn 0.1670475 -0.6790239 0.7148575
vn 0.1670475 -0.6790238 0.7148575
vn 0.1670475 -0.6790238 0.7148575
vn -0.09999523 -0.6155775 0.7817063
vn -0.09999518 -0.6155774 0.7817064
vn -0.09999523 -0.6155775 0.7817063
vn -0.0999952 -0.6155775 0.7817063
vn 0.8933347 4.596446E-17 0.4493918
vn 0.8933347 4.596445E-17 0.4493919
vn 0.8933347 4.596445E-17 0.4493919
vn 0.8933347 4.596446E-17 0.4493918
vn 0.9642805 1.169501E-16 -0.2648827
vn 0.9642805 1.169501E-16 -0.2648827
vn 0.9642805 1.169501E-16 -0.2648827
vn 0.9642805 1.169501E-16 -0.2648827
vn 0.3226982 1.161601E-16 -0.9465018
vn 0.3226982 1.161601E-16 -0.9465018
vn 0.3226982 1.161601E-16 -0.9465018
vn 0.3226982 1.161601E-16 -0.9465018
vn 0.4607331 1.242029E-16 -0.8875387
vn 0.4607331 1.242029E-16 -0.8875387
vn 0.4607331 1.242029E-16 -0.8875387
vn 0.4607331 1.242029E-16 -0.8875387
vn -0.7153877 -6.384875E-18 -0.6987277
vn -0.7153877 -6.384875E-18 -0.6987277
vn -0.7153878 -6.384888E-18 -0.6987276
vn -0.7153877 -6.384875E-18 -0.6987277
vn -0.8951041 -4.64528E-17 -0.445857
vn -0.8951041 -4.64528E-17 -0.445857
vn -0.8951041 -4.64528E-17 -0.445857
vn -0.8951041 -4.64528E-17 -0.445857
vn -0.9996473 -9.420088E-17 -0.02655141
vn -0.9996473 -9.420088E-17 -0.02655141
vn -0.9996473 -9.420088E-17 -0.02655141
vn -0.9996473 -9.420088E-17 -0.02655141
vn -0.3485984 -1.178339E-16 0.9372722
vn -0.3485984 -1.178339E-16 0.9372722
vn -0.3485984 -1.178339E-16 0.9372722
vn -0.3485984 -1.178339E-16 0.9372722
vn 0.1139337 -7.819192E-17 0.9934883
vn 0.1139337 -7.819192E-17 0.9934883
vn 0.1139337 -7.819192E-17 0.9934883
vn 0.1139337 -7.819192E-17 0.9934883
vn -0.008075207 -9.056201E-17 0.9999673
vn -0.008075193 -9.056201E-17 0.9999673
vn -0.008075207 -9.056201E-17 0.9999673
vn -0.008075207 -9.056201E-17 0.9999673
vn 0.8717592 0.212757 0.441328
vn 0.8717591 0.212757 0.4413279
vn 0.8717591 0.212757 0.4413279
vn 0.8717591 0.212757 0.4413279
vn 0.9387987 0.2212333 -0.2640316
vn 0.9387987 0.2212333 -0.2640316
vn 0.9387987 0.2212333 -0.2640316
vn 0.9387987 0.2212333 -0.2640316
vn 0.2759393 0.2588965 -0.925651
vn 0.2759393 0.2588965 -0.9256511
vn 0.2759393 0.2588965 -0.925651
vn 0.2759393 0.2588965 -0.925651
vn 0.4742252 0.2546348 -0.8427761
vn 0.4742252 0.2546348 -0.842776
vn 0.4742252 0.2546347 -0.8427761
vn 0.4742251 0.2546348 -0.8427761
vn -0.7144387 0.2437819 -0.6558564
vn -0.7144387 0.2437819 -0.6558564
vn -0.7144387 0.2437819 -0.6558564
vn -0.7144387 0.2437819 -0.6558564
vn -0.8573241 0.2822602 -0.4304931
vn -0.8573241 0.2822602 -0.4304932
vn -0.8573241 0.2822602 -0.4304932
vn -0.8573241 0.2822602 -0.4304932
vn -0.9692348 0.2423859 -0.0428108
vn -0.9692348 0.2423859 -0.04281078
vn -0.9692348 0.2423859 -0.0428108
vn -0.9692348 0.2423859 -0.0428108
vn -0.3088903 0.1930068 0.9313083
vn -0.3088903 0.1930068 0.9313083
vn -0.3088903 0.1930069 0.9313082
vn -0.3088903 0.1930069 0.9313083
vn 0.1222456 0.2371581 0.9637488
vn 0.1222456 0.2371581 0.9637489
vn 0.1222456 0.2371581 0.9637489
vn 0.1222456 0.237158 0.9637489
vn -0.04029351 0.178262 0.9831576
vn -0.04029348 0.178262 0.9831576
vn -0.04029351 0.178262 0.9831576
vn -0.04029351 0.178262 0.9831576
vn 0.4864561 0.8368363 0.2511266
vn 0.4864562 0.8368363 0.2511266
vn 0.4864561 0.8368363 0.2511266
vn 0.4864562 0.8368363 0.2511266
vn 0.402824 0.8884321 -0.2200464
vn 0.402824 0.8884321 -0.2200464
vn 0.402824 0.8884321 -0.2200464
vn 0.402824 0.8884321 -0.2200463
vn 0.172171 0.8693342 -0.463265
vn 0.1721711 0.8693342 -0.463265
vn 0.172171 0.8693342 -0.463265
vn 0.1721711 0.8693342 -0.463265
vn 0.2886798 0.8049012 -0.5184567
vn 0.2886798 0.8049012 -0.5184567
vn 0.2886798 0.8049012 -0.5184567
vn 0.2886798 0.8049012 -0.5184567
vn -0.4114302 0.8185277 -0.4009201
vn -0.4114301 0.8185278 -0.40092
vn -0.4114302 0.8185277 -0.4009201
vn -0.4114302 0.8185277 -0.4009201
vn -0.5056865 0.8222617 -0.2610867
vn -0.5056865 0.8222616 -0.2610867
vn -0.5056865 0.8222616 -0.2610867
vn -0.5056865 0.8222616 -0.2610867
vn -0.573428 0.8172351 -0.05750123
vn -0.573428 0.8172351 -0.05750121
vn -0.573428 0.8172351 -0.05750121
vn -0.573428 0.8172351 -0.05750121
vn -0.121733 0.796234 0.5926144
vn -0.121733 0.796234 0.5926145
vn -0.121733 0.796234 0.5926145
vn -0.121733 0.796234 0.5926145
vn 0.1941976 0.7985129 0.5697928
vn 0.1941976 0.7985129 0.5697927
vn 0.1941976 0.7985129 0.5697927
vn 0.1941976 0.7985129 0.5697928
vn -0.1715839 0.7325383 0.6587458
vn -0.1715838 0.7325383 0.6587458
vn -0.1715839 0.7325383 0.6587458
vn -0.1715839 0.7325383 0.6587458
vn 0.2634426 0.9546865 0.1384589
vn 0.2634426 0.9546865 0.1384588
vn 0.2634426 0.9546865 0.1384589
vn 0.2613242 0.9181486 -0.2978458
vn 0.2613242 0.9181486 -0.2978458
vn 0.2613242 0.9181486 -0.2978458
vn 0.2312239 0.909752 -0.3447986
vn 0.2312239 0.909752 -0.3447986
vn 0.2312239 0.909752 -0.3447986
vn 0.1742062 0.9095348 -0.3773566
vn 0.1742062 0.9095348 -0.3773566
vn 0.1742062 0.9095348 -0.3773566
vn -0.2347403 0.9244464 -0.3004914
vn -0.2347403 0.9244464 -0.3004914
vn -0.2347403 0.9244464 -0.3004914
vn -0.3418227 0.921985 -0.1819341
vn -0.3418227 0.9219851 -0.1819341
vn -0.3418227 0.9219851 -0.1819341
vn -0.358164 0.9320197 -0.05529089
vn -0.3581639 0.9320197 -0.05529092
vn -0.3581639 0.9320197 -0.0552909
vn -0.03396738 0.9190344 0.3927101
vn -0.03396736 0.9190344 0.3927102
vn -0.03396737 0.9190343 0.3927102
vn 0.2726728 0.8268817 0.491849
vn 0.2726727 0.8268817 0.491849
vn 0.2726727 0.8268818 0.491849
vn -0.2674004 0.778574 0.5677314
vn -0.2674004 0.778574 0.5677313
vn -0.2674004 0.778574 0.5677314

vt 0.5482839 0.007647395
vt 0.5 0.15
vt 0.6264089 0.06440853
vt 0.4517161 0.00764741
vt 0.3735911 0.06440856
vt 0.34375 0.15625
vt 0.3735911 0.2480915
vt 0.4517161 0.3048526
vt 0.5482839 0.3048526
vt 0.6264089 0.2480914
vt 0.65625 0.15625
vt 0 0
vt 0 1
vt 1 1
vt 1 0
vt 0 0
vt 0 1
vt 1 1
vt 1 0
vt 0 0
vt 0 1
vt 1 1
vt 1 0
vt 0 0
vt 0 1
vt 1 1
vt 1 0
vt 0 0
vt 0 1
vt 1 1
vt 1 0
vt 0 0
vt 0 1
vt 1 1
vt 1 0
vt 0 0
vt 0 1
vt 1 1
vt 1 0
vt 0 0
vt 0 1
vt 1 1
vt 1 0
vt 0 0
vt 0 1
vt 1 1
vt 1 0
vt 0 0
vt 0 1
vt 1 1
vt 1 0
vt 0 0
vt 0 1
vt 1 1
vt 1 0
vt 0 0
vt 0 1
vt 1 1
vt 1 0
vt 0 0
vt 0 1
vt 1 1
vt 1 0
vt 0 0
vt 0 1
vt 1 1
vt 1 0
vt 0 0
vt 0 1
vt 1 1
vt 1 0
vt 0 0
vt 0 1
vt 1 1
vt 1 0
vt 0 0
vt 0 1
vt 1 1
vt 1 0
vt 0 0
vt 0 1
vt 1 1
vt 1 0
vt 0 0
vt 0 1
vt 1 1
vt 1 0
vt 0 0
vt 0 1
vt 1 1
vt 1 0
vt 0 0
vt 0 1
vt 1 1
vt 1 0
vt 0 0
vt 0 1
vt 1 1
vt 1 0
vt 0 0
vt 0 1
vt 1 1
vt 1 0
vt 0 0
vt 0 1
vt 1 1
vt 1 0
vt 0 0
vt 0 1
vt 1 1
vt 1 0
vt 0 0
vt 0 1
vt 1 1
vt 1 0
vt 0 0
vt 0 1
vt 1 1
vt 1 0
vt 0 0
vt 0 1
vt 1 1
vt 1 0
vt 0 0
vt 0 1
vt 1 1
vt 1 0
vt 0 0
vt 0 1
vt 1 1
vt 1 0
vt 0 0
vt 0 1
vt 1 1
vt 1 0
vt 0 0
vt 0 1
vt 1 1
vt 1 0
vt 0 0
vt 0 1
vt 1 1
vt 1 0
vt 0 0
vt 0 1
vt 1 1
vt 1 0
vt 0 0
vt 0 1
vt 1 1
vt 1 0
vt 0 0
vt 0 1
vt 1 1
vt 1 0
vt 0 0
vt 0 1
vt 1 1
vt 1 0
vt 0 0
vt 0 1
vt 1 1
vt 1 0
vt 0 0
vt 0 1
vt 1 1
vt 1 0
vt 0 0
vt 0 1
vt 1 1
vt 1 0
vt 0 0
vt 0.5 1
vt 1 0
vt 0 0
vt 0.5 1
vt 1 0
vt 0 0
vt 0.5 1
vt 1 0
vt 0 0
vt 0.5 1
vt 1 0
vt 0 0
vt 0.5 1
vt 1 0
vt 0 0
vt 0.5 1
vt 1 0
vt 0 0
vt 0.5 1
vt 1 0
vt 0 0
vt 0.5 1
vt 1 0
vt 0 0
vt 0.5 1
vt 1 0
vt 0 0
vt 0.5 1
vt 1 0

g pCylinder8_21_3746_165
usemtl pCylinder8_21_3746_165
usemap pCylinder8_21_3746_165
f 1/1/1 3/3/3 2/2/2
f 4/4/4 1/1/1 2/2/2
f 5/5/5 4/4/4 2/2/2
f 6/6/6 5/5/5 2/2/2
f 7/7/7 6/6/6 2/2/2
f 8/8/8 7/7/7 2/2/2
f 9/9/9 8/8/8 2/2/2
f 10/10/10 9/9/9 2/2/2
f 11/11/11 10/10/10 2/2/2
f 3/3/3 11/11/11 2/2/2
f 12/12/12 14/14/14 13/13/13
f 12/12/12 15/15/15 14/14/14
f 16/16/16 18/18/18 17/17/17
f 16/16/16 19/19/19 18/18/18
f 20/20/20 22/22/22 21/21/21
f 20/20/20 23/23/23 22/22/22
f 24/24/24 26/26/26 25/25/25
f 24/24/24 27/27/27 26/26/26
f 28/28/28 30/30/30 29/29/29
f 28/28/28 31/31/31 30/30/30
f 32/32/32 34/34/34 33/33/33
f 32/32/32 35/35/35 34/34/34
f 36/36/36 38/38/38 37/37/37
f 36/36/36 39/39/39 38/38/38
f 40/40/40 42/42/42 41/41/41
f 40/40/40 43/43/43 42/42/42
f 44/44/44 46/46/46 45/45/45
f 44/44/44 47/47/47 46/46/46
f 48/48/48 50/50/50 49/49/49
f 48/48/48 51/51/51 50/50/50
f 52/52/52 54/54/54 53/53/53
f 52/52/52 55/55/55 54/54/54
f 56/56/56 58/58/58 57/57/57
f 56/56/56 59/59/59 58/58/58
f 60/60/60 62/62/62 61/61/61
f 60/60/60 63/63/63 62/62/62
f 64/64/64 66/66/66 65/65/65
f 64/64/64 67/67/67 66/66/66
f 68/68/68 70/70/70 69/69/69
f 68/68/68 71/71/71 70/70/70
f 72/72/72 74/74/74 73/73/73
f 72/72/72 75/75/75 74/74/74
f 76/76/76 78/78/78 77/77/77
f 76/76/76 79/79/79 78/78/78
f 80/80/80 82/82/82 81/81/81
f 80/80/80 83/83/83 82/82/82
f 84/84/84 86/86/86 85/85/85
f 84/84/84 87/87/87 86/86/86
f 88/88/88 90/90/90 89/89/89
f 88/88/88 91/91/91 90/90/90
f 92/92/92 94/94/94 93/93/93
f 92/92/92 95/95/95 94/94/94
f 96/96/96 98/98/98 97/97/97
f 96/96/96 99/99/99 98/98/98
f 100/100/100 102/102/102 101/101/101
f 100/100/100 103/103/103 102/102/102
f 104/104/104 106/106/106 105/105/105
f 104/104/104 107/107/107 106/106/106
f 108/108/108 110/110/110 109/109/109
f 108/108/108 111/111/111 110/110/110
f 112/112/112 114/114/114 113/113/113
f 112/112/112 115/115/115 114/114/114
f 116/116/116 118/118/118 117/117/117
f 116/116/116 119/119/119 118/118/118
f 120/120/120 122/122/122 121/121/121
f 120/120/120 123/123/123 122/122/122
f 124/124/124 126/126/126 125/125/125
f 124/124/124 127/127/127 126/126/126
f 128/128/128 130/130/130 129/129/129
f 128/128/128 131/131/131 130/130/130
f 132/132/132 134/134/134 133/133/133
f 132/132/132 135/135/135 134/134/134
f 136/136/136 138/138/138 137/137/137
f 136/136/136 139/139/139 138/138/138
f 140/140/140 142/142/142 141/141/141
f 140/140/140 143/143/143 142/142/142
f 144/144/144 146/146/146 145/145/145
f 144/144/144 147/147/147 146/146/146
f 148/148/148 150/150/150 149/149/149
f 148/148/148 151/151/151 150/150/150
f 152/152/152 154/154/154 153/153/153
f 152/152/152 155/155/155 154/154/154
f 156/156/156 158/158/158 157/157/157
f 156/156/156 159/159/159 158/158/158
f 160/160/160 162/162/162 161/161/161
f 160/160/160 163/163/163 162/162/162
f 164/164/164 166/166/166 165/165/165
f 164/164/164 167/167/167 166/166/166
f 168/168/168 170/170/170 169/169/169
f 168/168/168 171/171/171 170/170/170
f 172/172/172 174/174/174 173/173/173
f 175/175/175 177/177/177 176/176/176
f 178/178/178 180/180/180 179/179/179
f 181/181/181 183/183/183 182/182/182
f 184/184/184 186/186/186 185/185/185
f 187/187/187 189/189/189 188/188/188
f 190/190/190 192/192/192 191/191/191
f 193/193/193 195/195/195 194/194/194
f 196/196/196 198/198/198 197/197/197
f 199/199/199 201/201/201 200/200/200
