#pCylinder17_5_4078_144.obj

v 0.01454571 -0.0257754 -0.04035829
v 0.004624256 -0.03397584 0.001091395
v 0.03878491 -0.0257754 -0.02105481
v -0.009663044 -0.0257754 -0.03817537
v -0.01825041 -0.0257754 -0.01778039
v -0.03822175 -0.02223175 0.001091381
v -0.02135046 -0.0257754 0.01996318
v -0.005297209 -0.0257754 0.03271803
v 0.02109444 -0.0257754 0.0403582
v 0.03059897 -0.0257754 0.01996318
v 0.03218987 -0.02223175 0.001091376
v 0.03878491 -0.0257754 -0.02105481
v 0.04796733 -0.01489239 -0.02772615
v 0.01805306 -0.01489239 -0.05115279
v 0.01454571 -0.0257754 -0.04035829
v 0.01454571 -0.0257754 -0.04035829
v 0.01805306 -0.01489239 -0.05115279
v -0.01317038 -0.01489239 -0.04896991
v -0.009663044 -0.0257754 -0.03817537
v -0.009663044 -0.0257754 -0.03817537
v -0.01317038 -0.01489239 -0.04896991
v -0.02743278 -0.01489239 -0.02445183
v -0.01825041 -0.0257754 -0.01778039
v -0.01825041 -0.0257754 -0.01778039
v -0.02743278 -0.01489239 -0.02445183
v -0.04796655 -0.01288829 0.00109144
v -0.03822175 -0.02223175 0.001091381
v -0.03822175 -0.02223175 0.001091381
v -0.04796655 -0.01288829 0.00109144
v -0.03053287 -0.01489239 0.02663461
v -0.02135046 -0.0257754 0.01996318
v -0.02135046 -0.0257754 0.01996318
v -0.03053287 -0.01489239 0.02663461
v -0.00880456 -0.01489239 0.04351252
v -0.005297209 -0.0257754 0.03271803
v -0.005297209 -0.0257754 0.03271803
v -0.00880456 -0.01489239 0.04351252
v 0.02460177 -0.01489239 0.05115274
v 0.02109444 -0.0257754 0.0403582
v 0.02109444 -0.0257754 0.0403582
v 0.02460177 -0.01489239 0.05115274
v 0.03978139 -0.01489239 0.02663463
v 0.03059897 -0.0257754 0.01996318
v 0.03059897 -0.0257754 0.01996318
v 0.03978139 -0.01489239 0.02663463
v 0.04193468 -0.01288829 0.001091414
v 0.03218987 -0.02223175 0.001091376
v 0.03218987 -0.02223175 0.001091376
v 0.04193468 -0.01288829 0.001091414
v 0.04796733 -0.01489239 -0.02772615
v 0.03878491 -0.0257754 -0.02105481
v 0.04796733 -0.01489239 -0.02772615
v 0.04796733 -0.0001483979 -0.02772615
v 0.01805306 -0.0001483979 -0.05115279
v 0.01805306 -0.01489239 -0.05115279
v 0.01805306 -0.01489239 -0.05115279
v 0.01805306 -0.0001483979 -0.05115279
v -0.01317038 -0.0001483979 -0.04896991
v -0.01317038 -0.01489239 -0.04896991
v -0.01317038 -0.01489239 -0.04896991
v -0.01317038 -0.0001483979 -0.04896991
v -0.02743278 -0.0001483979 -0.02445183
v -0.02743278 -0.01489239 -0.02445183
v -0.02743278 -0.01489239 -0.02445183
v -0.02743278 -0.0001483979 -0.02445183
v -0.04796655 -0.000228951 0.00109144
v -0.04796655 -0.01288829 0.00109144
v -0.04796655 -0.01288829 0.00109144
v -0.04796655 -0.000228951 0.00109144
v -0.03053287 -0.0001483979 0.02663461
v -0.03053287 -0.01489239 0.02663461
v -0.03053287 -0.01489239 0.02663461
v -0.03053287 -0.0001483979 0.02663461
v -0.00880456 -0.0001483979 0.04351252
v -0.00880456 -0.01489239 0.04351252
v -0.00880456 -0.01489239 0.04351252
v -0.00880456 -0.0001483979 0.04351252
v 0.02460177 -0.0001483979 0.05115274
v 0.02460177 -0.01489239 0.05115274
v 0.02460177 -0.01489239 0.05115274
v 0.02460177 -0.0001483979 0.05115274
v 0.03978139 -0.0001483979 0.02663463
v 0.03978139 -0.01489239 0.02663463
v 0.03978139 -0.01489239 0.02663463
v 0.03978139 -0.0001483979 0.02663463
v 0.04193468 -0.000228951 0.001091414
v 0.04193468 -0.01288829 0.001091414
v 0.04193468 -0.01288829 0.001091414
v 0.04193468 -0.000228951 0.001091414
v 0.04796733 -0.0001483979 -0.02772615
v 0.04796733 -0.01489239 -0.02772615
v 0.04796733 -0.0001483979 -0.02772615
v 0.0456893 0.0142838 -0.02539683
v 0.01714554 0.0142838 -0.04799133
v 0.01805306 -0.0001483979 -0.05115279
v 0.01805306 -0.0001483979 -0.05115279
v 0.01714554 0.0142838 -0.04799133
v -0.01182871 0.0142838 -0.04559769
v -0.01317038 -0.0001483979 -0.04896991
v -0.01317038 -0.0001483979 -0.04896991
v -0.01182871 0.0142838 -0.04559769
v -0.02320987 0.0142838 -0.02180644
v -0.02743278 -0.0001483979 -0.02445183
v -0.02743278 -0.0001483979 -0.02445183
v -0.02320987 0.0142838 -0.02180644
v -0.0453037 0.01197207 0.001196764
v -0.04796655 -0.000228951 0.00109144
v -0.04796655 -0.000228951 0.00109144
v -0.0453037 0.01197207 0.001196764
v -0.02660923 0.0142838 0.02419999
v -0.03053287 -0.0001483979 0.02663461
v -0.03053287 -0.0001483979 0.02663461
v -0.02660923 0.0142838 0.02419999
v -0.007041487 0.0142838 0.03961352
v -0.00880456 -0.0001483979 0.04351252
v -0.00880456 -0.0001483979 0.04351252
v -0.007041487 0.0142838 0.03961352
v 0.02432635 0.0142838 0.04799121
v 0.02460177 -0.0001483979 0.05115274
v 0.02460177 -0.0001483979 0.05115274
v 0.02432635 0.0142838 0.04799121
v 0.03671321 0.0142838 0.0242
v 0.03978139 -0.0001483979 0.02663463
v 0.03978139 -0.0001483979 0.02663463
v 0.03671321 0.0142838 0.0242
v 0.03865239 0.01197207 0.001196791
v 0.04193468 -0.000228951 0.001091414
v 0.04193468 -0.000228951 0.001091414
v 0.03865239 0.01197207 0.001196791
v 0.0456893 0.0142838 -0.02539683
v 0.04796733 -0.0001483979 -0.02772615
v 0.0456893 0.0142838 -0.02539683
v 0.03225284 0.02437447 -0.01614771
v 0.01203685 0.02437447 -0.03256869
v 0.01714554 0.0142838 -0.04799133
v 0.01714554 0.0142838 -0.04799133
v 0.01203685 0.02437447 -0.03256869
v -0.002591816 0.02437447 -0.0213939
v -0.01182871 0.0142838 -0.04559769
v -0.01182871 0.0142838 -0.04559769
v -0.002591816 0.02437447 -0.0213939
v -0.01125274 0.02437447 -0.01279525
v -0.02320987 0.0142838 -0.02180644
v -0.02320987 0.0142838 -0.02180644
v -0.01125274 0.02437447 -0.01279525
v -0.03124433 0.0207468 0.001117407
v -0.0453037 0.01197207 0.001196764
v -0.0453037 0.01197207 0.001196764
v -0.03124433 0.0207468 0.001117407
v -0.01442674 0.02437447 0.0150302
v -0.02660923 0.0142838 0.02419999
v -0.02660923 0.0142838 0.02419999
v -0.01442674 0.02437447 0.0150302
v -0.002591864 0.02437447 0.02474616
v -0.007041487 0.0142838 0.03961352
v -0.007041487 0.0142838 0.03961352
v -0.002591864 0.02437447 0.02474616
v 0.0187417 0.02437447 0.03256858
v 0.02432635 0.0142838 0.04799121
v 0.02432635 0.0142838 0.04799121
v 0.0187417 0.02437447 0.03256858
v 0.02387174 0.02437447 0.01503017
v 0.03671321 0.0142838 0.0242
v 0.03671321 0.0142838 0.0242
v 0.02387174 0.02437447 0.01503017
v 0.02504458 0.0207468 0.001117466
v 0.03865239 0.01197207 0.001196791
v 0.03865239 0.01197207 0.001196791
v 0.02504458 0.0207468 0.001117466
v 0.03225284 0.02437447 -0.01614771
v 0.0456893 0.0142838 -0.02539683
v 0.03225284 0.02437447 -0.01614771
v 0.004624256 0.03397626 0.001091395
v 0.01203685 0.02437447 -0.03256869
v 0.01203685 0.02437447 -0.03256869
v 0.004624256 0.03397626 0.001091395
v -0.002591816 0.02437447 -0.0213939
v -0.002591816 0.02437447 -0.0213939
v 0.004624256 0.03397626 0.001091395
v -0.01125274 0.02437447 -0.01279525
v -0.01125274 0.02437447 -0.01279525
v 0.004624256 0.03397626 0.001091395
v -0.03124433 0.0207468 0.001117407
v -0.03124433 0.0207468 0.001117407
v 0.004624256 0.03397626 0.001091395
v -0.01442674 0.02437447 0.0150302
v -0.01442674 0.02437447 0.0150302
v 0.004624256 0.03397626 0.001091395
v -0.002591864 0.02437447 0.02474616
v -0.002591864 0.02437447 0.02474616
v 0.004624256 0.03397626 0.001091395
v 0.0187417 0.02437447 0.03256858
v 0.0187417 0.02437447 0.03256858
v 0.004624256 0.03397626 0.001091395
v 0.02387174 0.02437447 0.01503017
v 0.02387174 0.02437447 0.01503017
v 0.004624256 0.03397626 0.001091395
v 0.02504458 0.0207468 0.001117466
v 0.02504458 0.0207468 0.001117466
v 0.004624256 0.03397626 0.001091395
v 0.03225284 0.02437447 -0.01614771

vn 0.189268 -0.9818563 -0.01159725
vn 0.0006371711 -0.999998 0.001545425
vn 0.1255812 -0.9784295 0.164024
vn 0.1303875 -0.9810982 -0.1429828
vn -0.001875386 -0.960238 -0.2791742
vn -0.08205895 -0.9642729 -0.2518786
vn -0.1864009 -0.9679794 -0.168135
vn -0.2416092 -0.9703188 -0.01024866
vn -0.1454929 -0.9818345 0.1217852
vn 0.08174059 -0.9585598 0.2729111
vn 0.05328479 -0.9154215 0.3989524
vn 0.6815345 -0.7039258 0.1999966
vn 0.6815344 -0.7039258 0.1999966
vn 0.6815344 -0.7039258 0.1999966
vn 0.6815344 -0.7039258 0.1999966
vn 0.6367913 -0.7031066 -0.3164445
vn 0.6367913 -0.7031067 -0.3164445
vn 0.6367913 -0.7031066 -0.3164445
vn 0.6367914 -0.7031066 -0.3164445
vn 0.06588781 -0.6620905 -0.7465216
vn 0.06588781 -0.6620904 -0.7465217
vn 0.06588781 -0.6620905 -0.7465216
vn 0.06588778 -0.6620904 -0.7465217
vn 0.1936749 -0.686398 -0.7009616
vn 0.1936749 -0.6863979 -0.7009618
vn 0.1936749 -0.6863979 -0.7009617
vn 0.1936748 -0.6863979 -0.7009617
vn -0.5822462 -0.6953632 -0.4212583
vn -0.5822462 -0.6953632 -0.4212583
vn -0.5822462 -0.6953632 -0.4212584
vn -0.5822463 -0.6953632 -0.4212584
vn -0.6820793 -0.7039657 -0.1979885
vn -0.6820793 -0.7039657 -0.1979886
vn -0.6820793 -0.7039657 -0.1979886
vn -0.6820792 -0.7039657 -0.1979885
vn -0.7147275 -0.6928933 0.0951985
vn -0.7147275 -0.6928934 0.09519847
vn -0.7147275 -0.6928934 0.09519853
vn -0.7147275 -0.6928933 0.0951985
vn -0.08905059 -0.6678942 0.7389092
vn -0.08905061 -0.6678942 0.7389091
vn -0.08905061 -0.6678942 0.7389091
vn -0.08905056 -0.6678942 0.7389092
vn 0.2952307 -0.6790237 0.6721347
vn 0.2952307 -0.6790237 0.6721347
vn 0.2952307 -0.6790237 0.6721347
vn 0.2952307 -0.6790237 0.6721347
vn 0.04496251 -0.6155774 0.7867924
vn 0.04496257 -0.6155773 0.7867925
vn 0.04496251 -0.6155774 0.7867924
vn 0.04496254 -0.6155773 0.7867924
vn 0.9605643 -1.491049E-16 0.278058
vn 0.9605643 -1.491049E-16 0.278058
vn 0.9605643 -1.491049E-16 0.278058
vn 0.9605643 -1.491049E-16 0.278058
vn 0.8994029 -6.917955E-17 -0.4371208
vn 0.8994029 -6.917955E-17 -0.4371208
vn 0.8994029 -6.917955E-17 -0.4371208
vn 0.8994029 -6.917955E-17 -0.4371208
vn 0.1437662 8.181784E-17 -0.9896117
vn 0.1437662 8.181784E-17 -0.9896117
vn 0.1437662 8.181784E-17 -0.9896117
vn 0.1437662 8.181784E-17 -0.9896117
vn 0.2902693 6.006047E-17 -0.956945
vn 0.2902693 6.006047E-17 -0.9569451
vn 0.2902693 6.006047E-17 -0.956945
vn 0.2902693 6.006047E-17 -0.956945
vn -0.8313273 1.608665E-16 -0.5557832
vn -0.8313273 1.608665E-16 -0.5557832
vn -0.8313274 1.608665E-16 -0.5557832
vn -0.8313273 1.608665E-16 -0.5557832
vn -0.961656 1.488588E-16 -0.2742588
vn -0.961656 1.488588E-16 -0.2742588
vn -0.961656 1.488588E-16 -0.2742588
vn -0.961656 1.488588E-16 -0.2742588
vn -0.9875819 1.085659E-16 0.1571046
vn -0.9875819 1.085659E-16 0.1571046
vn -0.9875819 1.085659E-16 0.1571046
vn -0.9875819 1.085659E-16 0.1571046
vn -0.1709193 -7.795979E-17 0.9852851
vn -0.1709193 -7.795979E-17 0.9852851
vn -0.1709193 -7.795979E-17 0.9852851
vn -0.1709193 -7.795979E-17 0.9852851
vn 0.2940816 -1.335682E-16 0.9557803
vn 0.2940816 -1.335682E-16 0.9557803
vn 0.2940816 -1.335682E-16 0.9557803
vn 0.2940816 -1.335682E-16 0.9557803
vn 0.1753265 -1.215068E-16 0.9845104
vn 0.1753266 -1.215068E-16 0.9845104
vn 0.1753265 -1.215068E-16 0.9845104
vn 0.1753265 -1.215068E-16 0.9845104
vn 0.9378764 0.2127569 0.2740848
vn 0.9378763 0.2127569 0.2740848
vn 0.9378763 0.2127569 0.2740848
vn 0.9378763 0.2127569 0.2740848
vn 0.8745084 0.2212332 -0.4316141
vn 0.8745084 0.2212332 -0.4316141
vn 0.8745084 0.2212332 -0.4316141
vn 0.8745084 0.2212332 -0.4316141
vn 0.1016206 0.2588965 -0.9605445
vn 0.1016206 0.2588965 -0.9605446
vn 0.1016207 0.2588965 -0.9605446
vn 0.1016206 0.2588964 -0.9605445
vn 0.3117366 0.2546347 -0.9154133
vn 0.3117367 0.2546347 -0.9154133
vn 0.3117366 0.2546347 -0.9154133
vn 0.3117366 0.2546347 -0.9154133
vn -0.8225374 0.2437818 -0.5138119
vn -0.8225374 0.2437819 -0.5138119
vn -0.8225373 0.2437818 -0.513812
vn -0.8225374 0.2437818 -0.5138119
vn -0.9217001 0.2822601 -0.2660791
vn -0.9217001 0.2822601 -0.2660792
vn -0.9217001 0.2822602 -0.2660792
vn -0.9217001 0.2822602 -0.2660792
vn -0.9606643 0.2423859 0.1355469
vn -0.9606643 0.2423859 0.1355469
vn -0.9606643 0.2423859 0.1355469
vn -0.9606643 0.2423859 0.1355469
vn -0.1329767 0.1930068 0.9721448
vn -0.1329767 0.1930068 0.9721448
vn -0.1329767 0.1930068 0.9721448
vn -0.1329767 0.1930068 0.9721448
vn 0.2968022 0.237158 0.9250214
vn 0.2968023 0.237158 0.9250214
vn 0.2968023 0.237158 0.9250214
vn 0.2968023 0.237158 0.9250214
vn 0.1405732 0.178262 0.97389
vn 0.1405732 0.178262 0.97389
vn 0.1405732 0.178262 0.97389
vn 0.1405732 0.178262 0.97389
vn 0.524241 0.8368362 0.1577199
vn 0.5242411 0.8368362 0.1577199
vn 0.524241 0.8368362 0.1577199
vn 0.5242411 0.8368362 0.1577199
vn 0.3556731 0.888432 -0.2901453
vn 0.3556731 0.8884319 -0.2901453
vn 0.3556731 0.888432 -0.2901453
vn 0.3556731 0.888432 -0.2901452
vn 0.08435184 0.869334 -0.4869724
vn 0.08435187 0.869334 -0.4869724
vn 0.08435184 0.869334 -0.4869724
vn 0.08435187 0.869334 -0.4869724
vn 0.1887722 0.804901 -0.562582
vn 0.1887722 0.8049011 -0.562582
vn 0.1887722 0.8049011 -0.562582
vn 0.1887722 0.8049011 -0.562582
vn -0.4779385 0.8185276 -0.3187263
vn -0.4779385 0.8185276 -0.3187262
vn -0.4779386 0.8185276 -0.3187263
vn -0.4779385 0.8185276 -0.3187263
vn -0.544971 0.8222616 -0.1639869
vn -0.544971 0.8222615 -0.1639869
vn -0.5449711 0.8222615 -0.1639869
vn -0.544971 0.8222615 -0.1639869
vn -0.5742539 0.817235 0.04856539
vn -0.5742539 0.817235 0.0485654
vn -0.5742539 0.817235 0.0485654
vn -0.5742539 0.817235 0.0485654
vn -0.01106212 0.7962338 0.6048872
vn -0.01106212 0.7962338 0.6048872
vn -0.01106213 0.7962338 0.6048872
vn -0.01106212 0.7962338 0.6048872
vn 0.2953349 0.7985127 0.5245511
vn 0.2953348 0.7985128 0.524551
vn 0.2953349 0.7985128 0.524551
vn 0.2953349 0.7985127 0.5245511
vn -0.04794869 0.7325382 0.6790347
vn -0.04794866 0.7325382 0.6790347
vn -0.04794869 0.7325382 0.6790347
vn -0.04794869 0.7325382 0.6790347
vn 0.284356 0.9546863 0.08783234
vn 0.2843561 0.9546863 0.08783232
vn 0.284356 0.9546863 0.08783234
vn 0.2023115 0.9181484 -0.3406942
vn 0.2023115 0.9181484 -0.3406942
vn 0.2023115 0.9181484 -0.3406942
vn 0.1641159 0.9097518 -0.3813352
vn 0.164116 0.9097518 -0.3813352
vn 0.1641159 0.9097518 -0.3813353
vn 0.1020971 0.9095346 -0.4028921
vn 0.1020971 0.9095346 -0.4028921
vn 0.1020971 0.9095346 -0.4028921
vn -0.2858357 0.9244462 -0.2523808
vn -0.2858357 0.9244462 -0.2523807
vn -0.2858357 0.9244462 -0.2523808
vn -0.3693764 0.9219849 -0.1162064
vn -0.3693764 0.9219849 -0.1162064
vn -0.3693764 0.9219849 -0.1162064
vn -0.3622308 0.9320195 0.01128665
vn -0.3622307 0.9320195 0.01128662
vn -0.3622307 0.9320195 0.01128663
vn 0.03858031 0.9190342 0.3922839
vn 0.03858034 0.9190342 0.3922839
vn 0.03858034 0.9190341 0.3922839
vn 0.358196 0.8268816 0.4335454
vn 0.358196 0.8268816 0.4335453
vn 0.358196 0.8268816 0.4335453
vn -0.1588226 0.7785739 0.6071222
vn -0.1588226 0.7785739 0.6071221
vn -0.1588226 0.7785739 0.6071222

vt 0.5482839 0.007647395
vt 0.5 0.15
vt 0.6264089 0.06440853
vt 0.4517161 0.00764741
vt 0.3735911 0.06440856
vt 0.34375 0.15625
vt 0.3735911 0.2480915
vt 0.4517161 0.3048526
vt 0.5482839 0.3048526
vt 0.6264089 0.2480914
vt 0.65625 0.15625
vt 0 0
vt 0 1
vt 1 1
vt 1 0
vt 0 0
vt 0 1
vt 1 1
vt 1 0
vt 0 0
vt 0 1
vt 1 1
vt 1 0
vt 0 0
vt 0 1
vt 1 1
vt 1 0
vt 0 0
vt 0 1
vt 1 1
vt 1 0
vt 0 0
vt 0 1
vt 1 1
vt 1 0
vt 0 0
vt 0 1
vt 1 1
vt 1 0
vt 0 0
vt 0 1
vt 1 1
vt 1 0
vt 0 0
vt 0 1
vt 1 1
vt 1 0
vt 0 0
vt 0 1
vt 1 1
vt 1 0
vt 0 0
vt 0 1
vt 1 1
vt 1 0
vt 0 0
vt 0 1
vt 1 1
vt 1 0
vt 0 0
vt 0 1
vt 1 1
vt 1 0
vt 0 0
vt 0 1
vt 1 1
vt 1 0
vt 0 0
vt 0 1
vt 1 1
vt 1 0
vt 0 0
vt 0 1
vt 1 1
vt 1 0
vt 0 0
vt 0 1
vt 1 1
vt 1 0
vt 0 0
vt 0 1
vt 1 1
vt 1 0
vt 0 0
vt 0 1
vt 1 1
vt 1 0
vt 0 0
vt 0 1
vt 1 1
vt 1 0
vt 0 0
vt 0 1
vt 1 1
vt 1 0
vt 0 0
vt 0 1
vt 1 1
vt 1 0
vt 0 0
vt 0 1
vt 1 1
vt 1 0
vt 0 0
vt 0 1
vt 1 1
vt 1 0
vt 0 0
vt 0 1
vt 1 1
vt 1 0
vt 0 0
vt 0 1
vt 1 1
vt 1 0
vt 0 0
vt 0 1
vt 1 1
vt 1 0
vt 0 0
vt 0 1
vt 1 1
vt 1 0
vt 0 0
vt 0 1
vt 1 1
vt 1 0
vt 0 0
vt 0 1
vt 1 1
vt 1 0
vt 0 0
vt 0 1
vt 1 1
vt 1 0
vt 0 0
vt 0 1
vt 1 1
vt 1 0
vt 0 0
vt 0 1
vt 1 1
vt 1 0
vt 0 0
vt 0 1
vt 1 1
vt 1 0
vt 0 0
vt 0 1
vt 1 1
vt 1 0
vt 0 0
vt 0 1
vt 1 1
vt 1 0
vt 0 0
vt 0 1
vt 1 1
vt 1 0
vt 0 0
vt 0 1
vt 1 1
vt 1 0
vt 0 0
vt 0 1
vt 1 1
vt 1 0
vt 0 0
vt 0 1
vt 1 1
vt 1 0
vt 0 0
vt 0.5 1
vt 1 0
vt 0 0
vt 0.5 1
vt 1 0
vt 0 0
vt 0.5 1
vt 1 0
vt 0 0
vt 0.5 1
vt 1 0
vt 0 0
vt 0.5 1
vt 1 0
vt 0 0
vt 0.5 1
vt 1 0
vt 0 0
vt 0.5 1
vt 1 0
vt 0 0
vt 0.5 1
vt 1 0
vt 0 0
vt 0.5 1
vt 1 0
vt 0 0
vt 0.5 1
vt 1 0

g pCylinder17_5_4078_144
usemtl pCylinder17_5_4078_144
usemap pCylinder17_5_4078_144
f 1/1/1 3/3/3 2/2/2
f 4/4/4 1/1/1 2/2/2
f 5/5/5 4/4/4 2/2/2
f 6/6/6 5/5/5 2/2/2
f 7/7/7 6/6/6 2/2/2
f 8/8/8 7/7/7 2/2/2
f 9/9/9 8/8/8 2/2/2
f 10/10/10 9/9/9 2/2/2
f 11/11/11 10/10/10 2/2/2
f 3/3/3 11/11/11 2/2/2
f 12/12/12 14/14/14 13/13/13
f 12/12/12 15/15/15 14/14/14
f 16/16/16 18/18/18 17/17/17
f 16/16/16 19/19/19 18/18/18
f 20/20/20 22/22/22 21/21/21
f 20/20/20 23/23/23 22/22/22
f 24/24/24 26/26/26 25/25/25
f 24/24/24 27/27/27 26/26/26
f 28/28/28 30/30/30 29/29/29
f 28/28/28 31/31/31 30/30/30
f 32/32/32 34/34/34 33/33/33
f 32/32/32 35/35/35 34/34/34
f 36/36/36 38/38/38 37/37/37
f 36/36/36 39/39/39 38/38/38
f 40/40/40 42/42/42 41/41/41
f 40/40/40 43/43/43 42/42/42
f 44/44/44 46/46/46 45/45/45
f 44/44/44 47/47/47 46/46/46
f 48/48/48 50/50/50 49/49/49
f 48/48/48 51/51/51 50/50/50
f 52/52/52 54/54/54 53/53/53
f 52/52/52 55/55/55 54/54/54
f 56/56/56 58/58/58 57/57/57
f 56/56/56 59/59/59 58/58/58
f 60/60/60 62/62/62 61/61/61
f 60/60/60 63/63/63 62/62/62
f 64/64/64 66/66/66 65/65/65
f 64/64/64 67/67/67 66/66/66
f 68/68/68 70/70/70 69/69/69
f 68/68/68 71/71/71 70/70/70
f 72/72/72 74/74/74 73/73/73
f 72/72/72 75/75/75 74/74/74
f 76/76/76 78/78/78 77/77/77
f 76/76/76 79/79/79 78/78/78
f 80/80/80 82/82/82 81/81/81
f 80/80/80 83/83/83 82/82/82
f 84/84/84 86/86/86 85/85/85
f 84/84/84 87/87/87 86/86/86
f 88/88/88 90/90/90 89/89/89
f 88/88/88 91/91/91 90/90/90
f 92/92/92 94/94/94 93/93/93
f 92/92/92 95/95/95 94/94/94
f 96/96/96 98/98/98 97/97/97
f 96/96/96 99/99/99 98/98/98
f 100/100/100 102/102/102 101/101/101
f 100/100/100 103/103/103 102/102/102
f 104/104/104 106/106/106 105/105/105
f 104/104/104 107/107/107 106/106/106
f 108/108/108 110/110/110 109/109/109
f 108/108/108 111/111/111 110/110/110
f 112/112/112 114/114/114 113/113/113
f 112/112/112 115/115/115 114/114/114
f 116/116/116 118/118/118 117/117/117
f 116/116/116 119/119/119 118/118/118
f 120/120/120 122/122/122 121/121/121
f 120/120/120 123/123/123 122/122/122
f 124/124/124 126/126/126 125/125/125
f 124/124/124 127/127/127 126/126/126
f 128/128/128 130/130/130 129/129/129
f 128/128/128 131/131/131 130/130/130
f 132/132/132 134/134/134 133/133/133
f 132/132/132 135/135/135 134/134/134
f 136/136/136 138/138/138 137/137/137
f 136/136/136 139/139/139 138/138/138
f 140/140/140 142/142/142 141/141/141
f 140/140/140 143/143/143 142/142/142
f 144/144/144 146/146/146 145/145/145
f 144/144/144 147/147/147 146/146/146
f 148/148/148 150/150/150 149/149/149
f 148/148/148 151/151/151 150/150/150
f 152/152/152 154/154/154 153/153/153
f 152/152/152 155/155/155 154/154/154
f 156/156/156 158/158/158 157/157/157
f 156/156/156 159/159/159 158/158/158
f 160/160/160 162/162/162 161/161/161
f 160/160/160 163/163/163 162/162/162
f 164/164/164 166/166/166 165/165/165
f 164/164/164 167/167/167 166/166/166
f 168/168/168 170/170/170 169/169/169
f 168/168/168 171/171/171 170/170/170
f 172/172/172 174/174/174 173/173/173
f 175/175/175 177/177/177 176/176/176
f 178/178/178 180/180/180 179/179/179
f 181/181/181 183/183/183 182/182/182
f 184/184/184 186/186/186 185/185/185
f 187/187/187 189/189/189 188/188/188
f 190/190/190 192/192/192 191/191/191
f 193/193/193 195/195/195 194/194/194
f 196/196/196 198/198/198 197/197/197
f 199/199/199 201/201/201 200/200/200
