#pCylinder8_8_3947_189.obj

v 0.01454719 -0.02577576 -0.04035653
v 0.004625313 -0.0339761 0.001092677
v 0.03878629 -0.02577576 -0.0210529
v -0.009661723 -0.02577576 -0.03817378
v -0.01824938 -0.02577576 -0.01777902
v -0.03822026 -0.02223223 0.001093182
v -0.02134933 -0.02577576 0.01996467
v -0.005296183 -0.02577576 0.03271931
v 0.02109548 -0.02577576 0.04035967
v 0.03059988 -0.02577576 0.01996448
v 0.03219122 -0.02223223 0.001093194
v 0.03878629 -0.02577576 -0.0210529
v 0.04796864 -0.0148925 -0.02772427
v 0.01805421 -0.0148925 -0.05115144
v 0.01454719 -0.02577576 -0.04035653
v 0.01454719 -0.02577576 -0.04035653
v 0.01805421 -0.0148925 -0.05115144
v -0.01316937 -0.0148925 -0.04896846
v -0.009661723 -0.02577576 -0.03817378
v -0.009661723 -0.02577576 -0.03817378
v -0.01316937 -0.0148925 -0.04896846
v -0.0274317 -0.0148925 -0.02445024
v -0.01824938 -0.02577576 -0.01777902
v -0.01824938 -0.02577576 -0.01777902
v -0.0274317 -0.0148925 -0.02445024
v -0.04796528 -0.01288826 0.001092876
v -0.03822026 -0.02223223 0.001093182
v -0.03822026 -0.02223223 0.001093182
v -0.04796528 -0.01288826 0.001092876
v -0.03053169 -0.0148925 0.02663603
v -0.02134933 -0.02577576 0.01996467
v -0.02134933 -0.02577576 0.01996467
v -0.03053169 -0.0148925 0.02663603
v -0.008803209 -0.0148925 0.04351422
v -0.005296183 -0.02577576 0.03271931
v -0.005296183 -0.02577576 0.03271931
v -0.008803209 -0.0148925 0.04351422
v 0.02460313 -0.0148925 0.05115435
v 0.02109548 -0.02577576 0.04035967
v 0.02109548 -0.02577576 0.04035967
v 0.02460313 -0.0148925 0.05115435
v 0.03978276 -0.0148925 0.02663633
v 0.03059988 -0.02577576 0.01996448
v 0.03059988 -0.02577576 0.01996448
v 0.03978276 -0.0148925 0.02663633
v 0.04193568 -0.01288826 0.001092868
v 0.03219122 -0.02223223 0.001093194
v 0.03219122 -0.02223223 0.001093194
v 0.04193568 -0.01288826 0.001092868
v 0.04796864 -0.0148925 -0.02772427
v 0.03878629 -0.02577576 -0.0210529
v 0.04796864 -0.0148925 -0.02772427
v 0.04796864 -0.0001483919 -0.02772427
v 0.01805405 -0.0001483919 -0.0511513
v 0.01805421 -0.0148925 -0.05115144
v 0.01805421 -0.0148925 -0.05115144
v 0.01805405 -0.0001483919 -0.0511513
v -0.01316937 -0.0001483919 -0.04896846
v -0.01316937 -0.0148925 -0.04896846
v -0.01316937 -0.0148925 -0.04896846
v -0.01316937 -0.0001483919 -0.04896846
v -0.0274317 -0.0001483919 -0.02445024
v -0.0274317 -0.0148925 -0.02445024
v -0.0274317 -0.0148925 -0.02445024
v -0.0274317 -0.0001483919 -0.02445024
v -0.04796528 -0.0002294074 0.001092876
v -0.04796528 -0.01288826 0.001092876
v -0.04796528 -0.01288826 0.001092876
v -0.04796528 -0.0002294074 0.001092876
v -0.03053169 -0.0001483919 0.02663603
v -0.03053169 -0.0148925 0.02663603
v -0.03053169 -0.0148925 0.02663603
v -0.03053169 -0.0001483919 0.02663603
v -0.008803209 -0.0001483919 0.04351422
v -0.008803209 -0.0148925 0.04351422
v -0.008803209 -0.0148925 0.04351422
v -0.008803209 -0.0001483919 0.04351422
v 0.02460313 -0.0001483919 0.05115435
v 0.02460313 -0.0148925 0.05115435
v 0.02460313 -0.0148925 0.05115435
v 0.02460313 -0.0001483919 0.05115435
v 0.03978276 -0.0001483919 0.02663633
v 0.03978276 -0.0148925 0.02663633
v 0.03978276 -0.0148925 0.02663633
v 0.03978276 -0.0001483919 0.02663633
v 0.04193568 -0.0002294074 0.001092868
v 0.04193568 -0.01288826 0.001092868
v 0.04193568 -0.01288826 0.001092868
v 0.04193568 -0.0002294074 0.001092868
v 0.04796864 -0.0001483919 -0.02772427
v 0.04796864 -0.0148925 -0.02772427
v 0.04796864 -0.0001483919 -0.02772427
v 0.04569072 0.01428338 -0.0253951
v 0.01714678 0.01428338 -0.04798965
v 0.01805405 -0.0001483919 -0.0511513
v 0.01805405 -0.0001483919 -0.0511513
v 0.01714678 0.01428338 -0.04798965
v -0.01182729 0.01428338 -0.04559593
v -0.01316937 -0.0001483919 -0.04896846
v -0.01316937 -0.0001483919 -0.04896846
v -0.01182729 0.01428338 -0.04559593
v -0.02320867 0.01428338 -0.02180492
v -0.0274317 -0.0001483919 -0.02445024
v -0.0274317 -0.0001483919 -0.02445024
v -0.02320867 0.01428338 -0.02180492
v -0.04530235 0.01197213 0.001198583
v -0.04796528 -0.0002294074 0.001092876
v -0.04796528 -0.0002294074 0.001092876
v -0.04530235 0.01197213 0.001198583
v -0.02660801 0.01428338 0.02420139
v -0.03053169 -0.0001483919 0.02663603
v -0.03053169 -0.0001483919 0.02663603
v -0.02660801 0.01428338 0.02420139
v -0.007040481 0.01428338 0.03961477
v -0.008803209 -0.0001483919 0.04351422
v -0.008803209 -0.0001483919 0.04351422
v -0.007040481 0.01428338 0.03961477
v 0.02432778 0.01428338 0.04799307
v 0.02460313 -0.0001483919 0.05115435
v 0.02460313 -0.0001483919 0.05115435
v 0.02432778 0.01428338 0.04799307
v 0.0367141 0.01428338 0.02420127
v 0.03978276 -0.0001483919 0.02663633
v 0.03978276 -0.0001483919 0.02663633
v 0.0367141 0.01428338 0.02420127
v 0.03865354 0.01197213 0.001198225
v 0.04193568 -0.0002294074 0.001092868
v 0.04193568 -0.0002294074 0.001092868
v 0.03865354 0.01197213 0.001198225
v 0.04569072 0.01428338 -0.0253951
v 0.04796864 -0.0001483919 -0.02772427
v 0.04569072 0.01428338 -0.0253951
v 0.03225422 0.02437443 -0.01614579
v 0.01203782 0.02437443 -0.0325672
v 0.01714678 0.01428338 -0.04798965
v 0.01714678 0.01428338 -0.04798965
v 0.01203782 0.02437443 -0.0325672
v -0.002590504 0.02437443 -0.02139196
v -0.01182729 0.01428338 -0.04559593
v -0.01182729 0.01428338 -0.04559593
v -0.002590504 0.02437443 -0.02139196
v -0.01125153 0.02437443 -0.01279378
v -0.02320867 0.01428338 -0.02180492
v -0.02320867 0.01428338 -0.02180492
v -0.01125153 0.02437443 -0.01279378
v -0.03124292 0.0207465 0.001119359
v -0.04530235 0.01197213 0.001198583
v -0.04530235 0.01197213 0.001198583
v -0.03124292 0.0207465 0.001119359
v -0.01442559 0.02437443 0.01503178
v -0.02660801 0.01428338 0.02420139
v -0.02660801 0.01428338 0.02420139
v -0.01442559 0.02437443 0.01503178
v -0.00259075 0.02437443 0.02474778
v -0.007040481 0.01428338 0.03961477
v -0.007040481 0.01428338 0.03961477
v -0.00259075 0.02437443 0.02474778
v 0.01874284 0.02437443 0.0325699
v 0.02432778 0.01428338 0.04799307
v 0.02432778 0.01428338 0.04799307
v 0.01874284 0.02437443 0.0325699
v 0.02387278 0.02437443 0.01503154
v 0.0367141 0.01428338 0.02420127
v 0.0367141 0.01428338 0.02420127
v 0.02387278 0.02437443 0.01503154
v 0.02504583 0.0207465 0.001119116
v 0.03865354 0.01197213 0.001198225
v 0.03865354 0.01197213 0.001198225
v 0.02504583 0.0207465 0.001119116
v 0.03225422 0.02437443 -0.01614579
v 0.04569072 0.01428338 -0.0253951
v 0.03225422 0.02437443 -0.01614579
v 0.004625313 0.03397601 0.001092677
v 0.01203782 0.02437443 -0.0325672
v 0.01203782 0.02437443 -0.0325672
v 0.004625313 0.03397601 0.001092677
v -0.002590504 0.02437443 -0.02139196
v -0.002590504 0.02437443 -0.02139196
v 0.004625313 0.03397601 0.001092677
v -0.01125153 0.02437443 -0.01279378
v -0.01125153 0.02437443 -0.01279378
v 0.004625313 0.03397601 0.001092677
v -0.03124292 0.0207465 0.001119359
v -0.03124292 0.0207465 0.001119359
v 0.004625313 0.03397601 0.001092677
v -0.01442559 0.02437443 0.01503178
v -0.01442559 0.02437443 0.01503178
v 0.004625313 0.03397601 0.001092677
v -0.00259075 0.02437443 0.02474778
v -0.00259075 0.02437443 0.02474778
v 0.004625313 0.03397601 0.001092677
v 0.01874284 0.02437443 0.0325699
v 0.01874284 0.02437443 0.0325699
v 0.004625313 0.03397601 0.001092677
v 0.02387278 0.02437443 0.01503154
v 0.02387278 0.02437443 0.01503154
v 0.004625313 0.03397601 0.001092677
v 0.02504583 0.0207465 0.001119116
v 0.02504583 0.0207465 0.001119116
v 0.004625313 0.03397601 0.001092677
v 0.03225422 0.02437443 -0.01614579

vn -0.1117969 -0.9746063 -0.1940207
vn 0.00130861 -0.999998 -0.001497488
vn 0.1072386 -0.9698725 -0.21874
vn -0.2196836 -0.9735575 -0.06265041
vn -0.291699 -0.9450634 0.1475366
vn -0.2216193 -0.9505205 0.2177059
vn -0.07931009 -0.955556 0.2839413
vn 0.1156923 -0.9587457 0.2596575
vn 0.2052795 -0.9745761 0.08978786
vn 0.243331 -0.9428011 -0.2278512
vn 0.3840241 -0.8860961 -0.2595365
vn -0.1346113 -0.6400555 -0.7564448
vn -0.1346113 -0.6400556 -0.7564448
vn -0.1346112 -0.6400556 -0.7564448
vn -0.1346113 -0.6400556 -0.7564448
vn -0.6131344 -0.6391843 -0.4642302
vn -0.6131343 -0.6391843 -0.4642302
vn -0.6131344 -0.6391843 -0.4642302
vn -0.6131344 -0.6391842 -0.4642302
vn -0.7474846 -0.5961946 0.2929483
vn -0.7474847 -0.5961945 0.2929483
vn -0.7474846 -0.5961946 0.2929483
vn -0.7474847 -0.5961946 0.2929484
vn -0.7690047 -0.621523 0.1494688
vn -0.7690048 -0.6215229 0.1494689
vn -0.7690048 -0.6215229 0.1494688
vn -0.7690048 -0.621523 0.1494689
vn -0.1272605 -0.6309732 0.7652958
vn -0.1272605 -0.6309732 0.7652958
vn -0.1272606 -0.6309732 0.7652958
vn -0.1272606 -0.6309732 0.7652958
vn 0.13682 -0.640098 0.7560124
vn 0.1368199 -0.640098 0.7560125
vn 0.1368199 -0.640098 0.7560124
vn 0.1368199 -0.640098 0.7560124
vn 0.4353621 -0.6283637 0.6446851
vn 0.4353621 -0.6283638 0.6446851
vn 0.4353621 -0.6283637 0.644685
vn 0.4353621 -0.6283637 0.6446851
vn 0.7522117 -0.602204 -0.2674471
vn 0.7522117 -0.602204 -0.2674471
vn 0.7522117 -0.602204 -0.2674471
vn 0.7522116 -0.6022039 -0.2674472
vn 0.5057912 -0.6137942 -0.6061617
vn 0.5057912 -0.6137943 -0.6061616
vn 0.5057912 -0.6137942 -0.6061617
vn 0.5057912 -0.6137942 -0.6061617
vn 0.7259986 -0.5488456 -0.4143603
vn 0.7259986 -0.5488455 -0.4143604
vn 0.7259986 -0.5488456 -0.4143603
vn 0.7259986 -0.5488456 -0.4143603
vn -0.1788078 1.376044E-16 -0.983884
vn -0.1788077 1.376044E-16 -0.983884
vn -0.1788077 1.376044E-16 -0.983884
vn -0.1788078 1.376044E-16 -0.983884
vn -0.7919165 2.023005E-16 -0.6106293
vn -0.7919165 2.023005E-16 -0.6106293
vn -0.7919165 2.023005E-16 -0.6106293
vn -0.7919165 2.023005E-16 -0.6106293
vn -0.9500875 1.292036E-16 0.3119837
vn -0.9500875 1.292036E-16 0.3119837
vn -0.9500875 1.292036E-16 0.3119837
vn -0.9500875 1.292036E-16 0.3119837
vn -0.9860816 1.512167E-16 0.1662624
vn -0.9860816 1.512167E-16 0.1662624
vn -0.9860816 1.512167E-16 0.1662624
vn -0.9860816 1.512167E-16 0.1662624
vn -0.1274112 -8.590078E-17 0.99185
vn -0.1274112 -8.590078E-17 0.99185
vn -0.1274111 -8.590078E-17 0.99185
vn -0.1274112 -8.590078E-17 0.99185
vn 0.1826956 -1.381942E-16 0.9831695
vn 0.1826956 -1.381942E-16 0.9831695
vn 0.1826956 -1.381942E-16 0.9831695
vn 0.1826956 -1.381942E-16 0.9831695
vn 0.580469 -1.881297E-16 0.8142824
vn 0.580469 -1.881297E-16 0.8142824
vn 0.580469 -1.881297E-16 0.8142824
vn 0.580469 -1.881297E-16 0.8142824
vn 0.9583057 -1.334655E-16 -0.2857451
vn 0.9583057 -1.334655E-16 -0.2857451
vn 0.9583057 -1.334655E-16 -0.2857451
vn 0.9583057 -1.334655E-16 -0.2857451
vn 0.7248079 -4.956835E-17 -0.688951
vn 0.7248079 -4.956836E-17 -0.688951
vn 0.7248079 -4.956835E-17 -0.688951
vn 0.7248079 -4.956836E-17 -0.688951
vn 0.8034173 -7.322681E-17 -0.5954164
vn 0.8034173 -7.322679E-17 -0.5954164
vn 0.8034173 -7.322681E-17 -0.5954164
vn 0.8034173 -7.322681E-17 -0.5954164
vn -0.1734171 0.1800348 -0.968253
vn -0.1734172 0.1800349 -0.968253
vn -0.1734172 0.1800349 -0.968253
vn -0.1734172 0.1800349 -0.968253
vn -0.7815327 0.18731 -0.5950812
vn -0.7815327 0.18731 -0.5950812
vn -0.7815327 0.18731 -0.5950812
vn -0.7815327 0.18731 -0.5950812
vn -0.9143299 0.2197906 0.3401367
vn -0.9143299 0.2197905 0.3401367
vn -0.9143299 0.2197905 0.3401366
vn -0.9143299 0.2197905 0.3401367
vn -0.9677063 0.2161017 0.1297866
vn -0.9677063 0.2161018 0.1297865
vn -0.9677063 0.2161017 0.1297866
vn -0.9677063 0.2161018 0.1297866
vn -0.09457438 0.206724 0.9738177
vn -0.09457438 0.206724 0.9738177
vn -0.09457443 0.206724 0.9738177
vn -0.09457438 0.206724 0.9738177
vn 0.174275 0.2400799 0.9549816
vn 0.174275 0.2400799 0.9549816
vn 0.174275 0.2400799 0.9549816
vn 0.174275 0.2400799 0.9549816
vn 0.553976 0.2055194 0.8067667
vn 0.553976 0.2055194 0.8067666
vn 0.553976 0.2055194 0.8067667
vn 0.553976 0.2055194 0.8067667
vn 0.9347667 0.163128 -0.3155954
vn 0.9347667 0.163128 -0.3155954
vn 0.9347667 0.163128 -0.3155954
vn 0.9347667 0.163128 -0.3155954
vn 0.7018721 0.2010115 -0.683352
vn 0.7018721 0.2010114 -0.6833519
vn 0.7018722 0.2010115 -0.683352
vn 0.7018721 0.2010114 -0.6833519
vn 0.8131856 0.1505436 -0.5621974
vn 0.8131856 0.1505436 -0.5621974
vn 0.8131856 0.1505436 -0.5621974
vn 0.8131856 0.1505436 -0.5621974
vn -0.10349 0.7891594 -0.6054067
vn -0.10349 0.7891594 -0.6054067
vn -0.10349 0.7891594 -0.6054067
vn -0.10349 0.7891594 -0.6054067
vn -0.4770645 0.8519384 -0.2158944
vn -0.4770645 0.8519384 -0.2158944
vn -0.4770645 0.8519384 -0.2158944
vn -0.4770645 0.8519384 -0.2158944
vn -0.5368395 0.8283319 0.1602181
vn -0.5368395 0.8283318 0.1602181
vn -0.5368395 0.8283319 0.1602181
vn -0.5368395 0.8283318 0.1602181
vn -0.6531411 0.7517991 0.09058067
vn -0.6531411 0.7517991 0.09058066
vn -0.6531411 0.7517991 0.09058066
vn -0.6531411 0.7517991 0.09058066
vn -0.08092492 0.7676094 0.6357886
vn -0.08092488 0.7676094 0.6357886
vn -0.08092489 0.7676093 0.6357886
vn -0.08092492 0.7676094 0.6357886
vn 0.1070747 0.7719752 0.6265694
vn 0.1070747 0.7719752 0.6265694
vn 0.1070747 0.7719752 0.6265695
vn 0.1070747 0.7719752 0.6265694
vn 0.3337013 0.7661013 0.5493015
vn 0.3337013 0.7661013 0.5493015
vn 0.3337013 0.7661013 0.5493015
vn 0.3337013 0.7661013 0.5493015
vn 0.6057703 0.7418408 -0.2876015
vn 0.6057703 0.7418408 -0.2876015
vn 0.6057703 0.7418408 -0.2876014
vn 0.6057703 0.7418408 -0.2876015
vn 0.3750466 0.7444519 -0.552387
vn 0.3750465 0.7444519 -0.5523869
vn 0.3750466 0.7444519 -0.552387
vn 0.3750466 0.7444519 -0.552387
vn 0.6856327 0.6708224 -0.2826749
vn 0.6856326 0.6708225 -0.2826749
vn 0.6856327 0.6708224 -0.2826749
vn 0.6856327 0.6708224 -0.2826749
vn -0.05607219 0.9375964 -0.3431748
vn -0.05607224 0.9375964 -0.3431748
vn -0.05607219 0.9375964 -0.3431748
vn -0.4554769 0.8896015 -0.03391245
vn -0.4554769 0.8896014 -0.03391247
vn -0.4554769 0.8896015 -0.03391247
vn -0.4763913 0.8788401 0.02629228
vn -0.4763913 0.8788401 0.02629226
vn -0.4763913 0.8788401 0.0262923
vn -0.4667963 0.878563 0.1011352
vn -0.4667963 0.8785629 0.1011351
vn -0.4667963 0.8785629 0.1011351
vn -0.1140068 0.8977367 0.4255245
vn -0.1140068 0.8977368 0.4255245
vn -0.1140068 0.8977367 0.4255245
vn 0.06977452 0.8945507 0.4414867
vn 0.0697745 0.8945507 0.4414867
vn 0.0697745 0.8945507 0.4414867
vn 0.1985896 0.9075938 0.3699131
vn 0.1985896 0.9075938 0.3699131
vn 0.1985896 0.9075938 0.3699131
vn 0.3851863 0.8907424 -0.2412665
vn 0.3851863 0.8907424 -0.2412666
vn 0.3851863 0.8907424 -0.2412666
vn 0.2557585 0.7773977 -0.5746655
vn 0.2557585 0.7773978 -0.5746654
vn 0.2557585 0.7773978 -0.5746654
vn 0.6775364 0.7217777 -0.1413554
vn 0.6775364 0.7217777 -0.1413553
vn 0.6775365 0.7217777 -0.1413554

vt 0.5482839 0.007647395
vt 0.5 0.15
vt 0.6264089 0.06440853
vt 0.4517161 0.00764741
vt 0.3735911 0.06440856
vt 0.34375 0.15625
vt 0.3735911 0.2480915
vt 0.4517161 0.3048526
vt 0.5482839 0.3048526
vt 0.6264089 0.2480914
vt 0.65625 0.15625
vt 0 0
vt 0 1
vt 1 1
vt 1 0
vt 0 0
vt 0 1
vt 1 1
vt 1 0
vt 0 0
vt 0 1
vt 1 1
vt 1 0
vt 0 0
vt 0 1
vt 1 1
vt 1 0
vt 0 0
vt 0 1
vt 1 1
vt 1 0
vt 0 0
vt 0 1
vt 1 1
vt 1 0
vt 0 0
vt 0 1
vt 1 1
vt 1 0
vt 0 0
vt 0 1
vt 1 1
vt 1 0
vt 0 0
vt 0 1
vt 1 1
vt 1 0
vt 0 0
vt 0 1
vt 1 1
vt 1 0
vt 0 0
vt 0 1
vt 1 1
vt 1 0
vt 0 0
vt 0 1
vt 1 1
vt 1 0
vt 0 0
vt 0 1
vt 1 1
vt 1 0
vt 0 0
vt 0 1
vt 1 1
vt 1 0
vt 0 0
vt 0 1
vt 1 1
vt 1 0
vt 0 0
vt 0 1
vt 1 1
vt 1 0
vt 0 0
vt 0 1
vt 1 1
vt 1 0
vt 0 0
vt 0 1
vt 1 1
vt 1 0
vt 0 0
vt 0 1
vt 1 1
vt 1 0
vt 0 0
vt 0 1
vt 1 1
vt 1 0
vt 0 0
vt 0 1
vt 1 1
vt 1 0
vt 0 0
vt 0 1
vt 1 1
vt 1 0
vt 0 0
vt 0 1
vt 1 1
vt 1 0
vt 0 0
vt 0 1
vt 1 1
vt 1 0
vt 0 0
vt 0 1
vt 1 1
vt 1 0
vt 0 0
vt 0 1
vt 1 1
vt 1 0
vt 0 0
vt 0 1
vt 1 1
vt 1 0
vt 0 0
vt 0 1
vt 1 1
vt 1 0
vt 0 0
vt 0 1
vt 1 1
vt 1 0
vt 0 0
vt 0 1
vt 1 1
vt 1 0
vt 0 0
vt 0 1
vt 1 1
vt 1 0
vt 0 0
vt 0 1
vt 1 1
vt 1 0
vt 0 0
vt 0 1
vt 1 1
vt 1 0
vt 0 0
vt 0 1
vt 1 1
vt 1 0
vt 0 0
vt 0 1
vt 1 1
vt 1 0
vt 0 0
vt 0 1
vt 1 1
vt 1 0
vt 0 0
vt 0 1
vt 1 1
vt 1 0
vt 0 0
vt 0 1
vt 1 1
vt 1 0
vt 0 0
vt 0 1
vt 1 1
vt 1 0
vt 0 0
vt 0 1
vt 1 1
vt 1 0
vt 0 0
vt 0.5 1
vt 1 0
vt 0 0
vt 0.5 1
vt 1 0
vt 0 0
vt 0.5 1
vt 1 0
vt 0 0
vt 0.5 1
vt 1 0
vt 0 0
vt 0.5 1
vt 1 0
vt 0 0
vt 0.5 1
vt 1 0
vt 0 0
vt 0.5 1
vt 1 0
vt 0 0
vt 0.5 1
vt 1 0
vt 0 0
vt 0.5 1
vt 1 0
vt 0 0
vt 0.5 1
vt 1 0

g pCylinder8_8_3947_189
usemtl pCylinder8_8_3947_189
usemap pCylinder8_8_3947_189
f 1/1/1 3/3/3 2/2/2
f 4/4/4 1/1/1 2/2/2
f 5/5/5 4/4/4 2/2/2
f 6/6/6 5/5/5 2/2/2
f 7/7/7 6/6/6 2/2/2
f 8/8/8 7/7/7 2/2/2
f 9/9/9 8/8/8 2/2/2
f 10/10/10 9/9/9 2/2/2
f 11/11/11 10/10/10 2/2/2
f 3/3/3 11/11/11 2/2/2
f 12/12/12 14/14/14 13/13/13
f 12/12/12 15/15/15 14/14/14
f 16/16/16 18/18/18 17/17/17
f 16/16/16 19/19/19 18/18/18
f 20/20/20 22/22/22 21/21/21
f 20/20/20 23/23/23 22/22/22
f 24/24/24 26/26/26 25/25/25
f 24/24/24 27/27/27 26/26/26
f 28/28/28 30/30/30 29/29/29
f 28/28/28 31/31/31 30/30/30
f 32/32/32 34/34/34 33/33/33
f 32/32/32 35/35/35 34/34/34
f 36/36/36 38/38/38 37/37/37
f 36/36/36 39/39/39 38/38/38
f 40/40/40 42/42/42 41/41/41
f 40/40/40 43/43/43 42/42/42
f 44/44/44 46/46/46 45/45/45
f 44/44/44 47/47/47 46/46/46
f 48/48/48 50/50/50 49/49/49
f 48/48/48 51/51/51 50/50/50
f 52/52/52 54/54/54 53/53/53
f 52/52/52 55/55/55 54/54/54
f 56/56/56 58/58/58 57/57/57
f 56/56/56 59/59/59 58/58/58
f 60/60/60 62/62/62 61/61/61
f 60/60/60 63/63/63 62/62/62
f 64/64/64 66/66/66 65/65/65
f 64/64/64 67/67/67 66/66/66
f 68/68/68 70/70/70 69/69/69
f 68/68/68 71/71/71 70/70/70
f 72/72/72 74/74/74 73/73/73
f 72/72/72 75/75/75 74/74/74
f 76/76/76 78/78/78 77/77/77
f 76/76/76 79/79/79 78/78/78
f 80/80/80 82/82/82 81/81/81
f 80/80/80 83/83/83 82/82/82
f 84/84/84 86/86/86 85/85/85
f 84/84/84 87/87/87 86/86/86
f 88/88/88 90/90/90 89/89/89
f 88/88/88 91/91/91 90/90/90
f 92/92/92 94/94/94 93/93/93
f 92/92/92 95/95/95 94/94/94
f 96/96/96 98/98/98 97/97/97
f 96/96/96 99/99/99 98/98/98
f 100/100/100 102/102/102 101/101/101
f 100/100/100 103/103/103 102/102/102
f 104/104/104 106/106/106 105/105/105
f 104/104/104 107/107/107 106/106/106
f 108/108/108 110/110/110 109/109/109
f 108/108/108 111/111/111 110/110/110
f 112/112/112 114/114/114 113/113/113
f 112/112/112 115/115/115 114/114/114
f 116/116/116 118/118/118 117/117/117
f 116/116/116 119/119/119 118/118/118
f 120/120/120 122/122/122 121/121/121
f 120/120/120 123/123/123 122/122/122
f 124/124/124 126/126/126 125/125/125
f 124/124/124 127/127/127 126/126/126
f 128/128/128 130/130/130 129/129/129
f 128/128/128 131/131/131 130/130/130
f 132/132/132 134/134/134 133/133/133
f 132/132/132 135/135/135 134/134/134
f 136/136/136 138/138/138 137/137/137
f 136/136/136 139/139/139 138/138/138
f 140/140/140 142/142/142 141/141/141
f 140/140/140 143/143/143 142/142/142
f 144/144/144 146/146/146 145/145/145
f 144/144/144 147/147/147 146/146/146
f 148/148/148 150/150/150 149/149/149
f 148/148/148 151/151/151 150/150/150
f 152/152/152 154/154/154 153/153/153
f 152/152/152 155/155/155 154/154/154
f 156/156/156 158/158/158 157/157/157
f 156/156/156 159/159/159 158/158/158
f 160/160/160 162/162/162 161/161/161
f 160/160/160 163/163/163 162/162/162
f 164/164/164 166/166/166 165/165/165
f 164/164/164 167/167/167 166/166/166
f 168/168/168 170/170/170 169/169/169
f 168/168/168 171/171/171 170/170/170
f 172/172/172 174/174/174 173/173/173
f 175/175/175 177/177/177 176/176/176
f 178/178/178 180/180/180 179/179/179
f 181/181/181 183/183/183 182/182/182
f 184/184/184 186/186/186 185/185/185
f 187/187/187 189/189/189 188/188/188
f 190/190/190 192/192/192 191/191/191
f 193/193/193 195/195/195 194/194/194
f 196/196/196 198/198/198 197/197/197
f 199/199/199 201/201/201 200/200/200
