#pCylinder7_3982_207.obj

v 0.01454542 -0.02577555 -0.04035816
v 0.004623976 -0.03397606 0.001091545
v 0.03878459 -0.02577555 -0.02105464
v -0.009663282 -0.02577555 -0.03817525
v -0.01825066 -0.02577555 -0.01778028
v -0.03822202 -0.0222321 0.001091536
v -0.02135073 -0.02577555 0.01996333
v -0.005297499 -0.02577555 0.03271814
v 0.02109413 -0.02577555 0.04035833
v 0.0305987 -0.02577555 0.01996333
v 0.0321896 -0.0222321 0.001091545
v 0.03878459 -0.02577555 -0.02105464
v 0.04796701 -0.01489237 -0.02772602
v 0.01805277 -0.01489237 -0.05115268
v 0.01454542 -0.02577555 -0.04035816
v 0.01454542 -0.02577555 -0.04035816
v 0.01805277 -0.01489237 -0.05115268
v -0.01317064 -0.01489237 -0.04896976
v -0.009663282 -0.02577555 -0.03817525
v -0.009663282 -0.02577555 -0.03817525
v -0.01317064 -0.01489237 -0.04896976
v -0.02743309 -0.01489237 -0.02445166
v -0.01825066 -0.02577555 -0.01778028
v -0.01825066 -0.02577555 -0.01778028
v -0.02743309 -0.01489237 -0.02445166
v -0.04796679 -0.01288806 0.001091535
v -0.03822202 -0.0222321 0.001091536
v -0.03822202 -0.0222321 0.001091536
v -0.04796679 -0.01288806 0.001091535
v -0.03053315 -0.01489237 0.02663474
v -0.02135073 -0.02577555 0.01996333
v -0.02135073 -0.02577555 0.01996333
v -0.03053315 -0.01489237 0.02663474
v -0.008804848 -0.01489237 0.04351263
v -0.005297499 -0.02577555 0.03271814
v -0.005297499 -0.02577555 0.03271814
v -0.008804848 -0.01489237 0.04351263
v 0.02460149 -0.01489237 0.05115283
v 0.02109413 -0.02577555 0.04035833
v 0.02109413 -0.02577555 0.04035833
v 0.02460149 -0.01489237 0.05115283
v 0.03978108 -0.01489237 0.02663474
v 0.0305987 -0.02577555 0.01996333
v 0.0305987 -0.02577555 0.01996333
v 0.03978108 -0.01489237 0.02663474
v 0.04193437 -0.01288806 0.001091546
v 0.0321896 -0.0222321 0.001091545
v 0.0321896 -0.0222321 0.001091545
v 0.04193437 -0.01288806 0.001091546
v 0.04796701 -0.01489237 -0.02772602
v 0.03878459 -0.02577555 -0.02105464
v 0.04796701 -0.01489237 -0.02772602
v 0.04796701 -0.0001482944 -0.02772602
v 0.01805277 -0.0001482944 -0.05115266
v 0.01805277 -0.01489237 -0.05115268
v 0.01805277 -0.01489237 -0.05115268
v 0.01805277 -0.0001482944 -0.05115266
v -0.01317064 -0.0001482944 -0.04896976
v -0.01317064 -0.01489237 -0.04896976
v -0.01317064 -0.01489237 -0.04896976
v -0.01317064 -0.0001482944 -0.04896976
v -0.02743309 -0.0001482944 -0.02445166
v -0.02743309 -0.01489237 -0.02445166
v -0.02743309 -0.01489237 -0.02445166
v -0.02743309 -0.0001482944 -0.02445166
v -0.04796679 -0.000229268 0.001091535
v -0.04796679 -0.01288806 0.001091535
v -0.04796679 -0.01288806 0.001091535
v -0.04796679 -0.000229268 0.001091535
v -0.03053315 -0.0001482944 0.02663474
v -0.03053315 -0.01489237 0.02663474
v -0.03053315 -0.01489237 0.02663474
v -0.03053315 -0.0001482944 0.02663474
v -0.008804848 -0.0001482944 0.04351263
v -0.008804848 -0.01489237 0.04351263
v -0.008804848 -0.01489237 0.04351263
v -0.008804848 -0.0001482944 0.04351263
v 0.02460149 -0.0001482944 0.05115283
v 0.02460149 -0.01489237 0.05115283
v 0.02460149 -0.01489237 0.05115283
v 0.02460149 -0.0001482944 0.05115283
v 0.03978108 -0.0001482944 0.02663474
v 0.03978108 -0.01489237 0.02663474
v 0.03978108 -0.01489237 0.02663474
v 0.03978108 -0.0001482944 0.02663474
v 0.04193437 -0.000229268 0.001091546
v 0.04193437 -0.01288806 0.001091546
v 0.04193437 -0.01288806 0.001091546
v 0.04193437 -0.000229268 0.001091546
v 0.04796701 -0.0001482944 -0.02772602
v 0.04796701 -0.01489237 -0.02772602
v 0.04796701 -0.0001482944 -0.02772602
v 0.04568902 0.01428351 -0.02539672
v 0.01714522 0.01428351 -0.04799117
v 0.01805277 -0.0001482944 -0.05115266
v 0.01805277 -0.0001482944 -0.05115266
v 0.01714522 0.01428351 -0.04799117
v -0.01182901 0.01428351 -0.04559757
v -0.01317064 -0.0001482944 -0.04896976
v -0.01317064 -0.0001482944 -0.04896976
v -0.01182901 0.01428351 -0.04559757
v -0.02321019 0.01428351 -0.0218063
v -0.02743309 -0.0001482944 -0.02445166
v -0.02743309 -0.0001482944 -0.02445166
v -0.02321019 0.01428351 -0.0218063
v -0.04530397 0.01197211 0.001196894
v -0.04796679 -0.000229268 0.001091535
v -0.04796679 -0.000229268 0.001091535
v -0.04530397 0.01197211 0.001196894
v -0.02660947 0.01428351 0.02420008
v -0.03053315 -0.0001482944 0.02663474
v -0.03053315 -0.0001482944 0.02663474
v -0.02660947 0.01428351 0.02420008
v -0.007041769 0.01428351 0.03961366
v -0.008804848 -0.0001482944 0.04351263
v -0.008804848 -0.0001482944 0.04351263
v -0.007041769 0.01428351 0.03961366
v 0.02432603 0.01428351 0.04799133
v 0.02460149 -0.0001482944 0.05115283
v 0.02460149 -0.0001482944 0.05115283
v 0.02432603 0.01428351 0.04799133
v 0.03671292 0.01428351 0.02420009
v 0.03978108 -0.0001482944 0.02663474
v 0.03978108 -0.0001482944 0.02663474
v 0.03671292 0.01428351 0.02420009
v 0.03865209 0.01197211 0.001196899
v 0.04193437 -0.000229268 0.001091546
v 0.04193437 -0.000229268 0.001091546
v 0.03865209 0.01197211 0.001196899
v 0.04568902 0.01428351 -0.02539672
v 0.04796701 -0.0001482944 -0.02772602
v 0.04568902 0.01428351 -0.02539672
v 0.03225259 0.0243744 -0.01614758
v 0.01203655 0.0243744 -0.03256854
v 0.01714522 0.01428351 -0.04799117
v 0.01714522 0.01428351 -0.04799117
v 0.01203655 0.0243744 -0.03256854
v -0.002592123 0.0243744 -0.02139372
v -0.01182901 0.01428351 -0.04559757
v -0.01182901 0.01428351 -0.04559757
v -0.002592123 0.0243744 -0.02139372
v -0.01125299 0.0243744 -0.01279514
v -0.02321019 0.01428351 -0.0218063
v -0.02321019 0.01428351 -0.0218063
v -0.01125299 0.0243744 -0.01279514
v -0.03124459 0.02074653 0.001117563
v -0.04530397 0.01197211 0.001196894
v -0.04530397 0.01197211 0.001196894
v -0.03124459 0.02074653 0.001117563
v -0.01442703 0.0243744 0.0150303
v -0.02660947 0.01428351 0.02420008
v -0.02660947 0.01428351 0.02420008
v -0.01442703 0.0243744 0.0150303
v -0.002592153 0.0243744 0.02474632
v -0.007041769 0.01428351 0.03961366
v -0.007041769 0.01428351 0.03961366
v -0.002592153 0.0243744 0.02474632
v 0.01874146 0.0243744 0.03256869
v 0.02432603 0.01428351 0.04799133
v 0.02432603 0.01428351 0.04799133
v 0.01874146 0.0243744 0.03256869
v 0.02387147 0.0243744 0.01503031
v 0.03671292 0.01428351 0.02420009
v 0.03671292 0.01428351 0.02420009
v 0.02387147 0.0243744 0.01503031
v 0.02504431 0.02074653 0.001117574
v 0.03865209 0.01197211 0.001196899
v 0.03865209 0.01197211 0.001196899
v 0.02504431 0.02074653 0.001117574
v 0.03225259 0.0243744 -0.01614758
v 0.04568902 0.01428351 -0.02539672
v 0.03225259 0.0243744 -0.01614758
v 0.004623976 0.03397623 0.001091511
v 0.01203655 0.0243744 -0.03256854
v 0.01203655 0.0243744 -0.03256854
v 0.004623976 0.03397623 0.001091511
v -0.002592123 0.0243744 -0.02139372
v -0.002592123 0.0243744 -0.02139372
v 0.004623976 0.03397623 0.001091511
v -0.01125299 0.0243744 -0.01279514
v -0.01125299 0.0243744 -0.01279514
v 0.004623976 0.03397623 0.001091511
v -0.03124459 0.02074653 0.001117563
v -0.03124459 0.02074653 0.001117563
v 0.004623976 0.03397623 0.001091511
v -0.01442703 0.0243744 0.0150303
v -0.01442703 0.0243744 0.0150303
v 0.004623976 0.03397623 0.001091511
v -0.002592153 0.0243744 0.02474632
v -0.002592153 0.0243744 0.02474632
v 0.004623976 0.03397623 0.001091511
v 0.01874146 0.0243744 0.03256869
v 0.01874146 0.0243744 0.03256869
v 0.004623976 0.03397623 0.001091511
v 0.02387147 0.0243744 0.01503031
v 0.02387147 0.0243744 0.01503031
v 0.004623976 0.03397623 0.001091511
v 0.02504431 0.02074653 0.001117574
v 0.02504431 0.02074653 0.001117574
v 0.004623976 0.03397623 0.001091511
v 0.03225259 0.0243744 -0.01614758

vn 0.05972083 -0.9818566 -0.1799731
vn 0.001671549 -0.9999983 -1.581969E-05
vn 0.1989928 -0.9784298 -0.05546536
vn -0.08414162 -0.9810985 -0.174256
vn -0.259792 -0.9602383 -0.1022247
vn -0.2643202 -0.9642732 -0.01764369
vn -0.2254574 -0.9679797 0.1103794
vn -0.09948739 -0.9703191 0.220414
vn 0.05884343 -0.9818348 0.1803809
vn 0.2837213 -0.95856 0.0257717
vn 0.3900997 -0.9154218 0.09911884
vn 0.4394163 -0.7039261 -0.5580333
vn 0.4394162 -0.7039261 -0.5580333
vn 0.4394163 -0.7039261 -0.5580332
vn 0.4394162 -0.7039261 -0.5580333
vn -0.05654024 -0.7031068 -0.7088325
vn -0.05654024 -0.7031069 -0.7088325
vn -0.05654024 -0.7031068 -0.7088325
vn -0.05654024 -0.7031069 -0.7088326
vn -0.6682884 -0.6620907 -0.3391551
vn -0.6682885 -0.6620906 -0.3391552
vn -0.6682884 -0.6620907 -0.3391551
vn -0.6682885 -0.6620906 -0.3391551
vn -0.5784173 -0.6863982 -0.4407841
vn -0.5784174 -0.6863981 -0.4407841
vn -0.5784174 -0.6863981 -0.4407841
vn -0.5784174 -0.6863981 -0.440784
vn -0.6077877 -0.6953635 0.3834883
vn -0.6077877 -0.6953635 0.3834883
vn -0.6077878 -0.6953634 0.3834883
vn -0.6077878 -0.6953635 0.3834883
vn -0.4377555 -0.703966 0.5592867
vn -0.4377556 -0.703966 0.5592867
vn -0.4377556 -0.703966 0.5592867
vn -0.4377555 -0.703966 0.5592867
vn -0.1778154 -0.6928936 0.6987702
vn -0.1778154 -0.6928936 0.6987702
vn -0.1778154 -0.6928936 0.6987702
vn -0.1778154 -0.6928936 0.6987702
vn 0.6525977 -0.6678944 0.357817
vn 0.6525976 -0.6678944 0.357817
vn 0.6525976 -0.6678944 0.357817
vn 0.6525977 -0.6678944 0.357817
vn 0.7337335 -0.6790239 -0.02369047
vn 0.7337335 -0.6790239 -0.02369047
vn 0.7337335 -0.6790239 -0.02369047
vn 0.7337335 -0.6790239 -0.02369047
vn 0.7469435 -0.6155776 0.2512751
vn 0.7469436 -0.6155775 0.2512751
vn 0.7469435 -0.6155776 0.2512751
vn 0.7469435 -0.6155775 0.2512751
vn 0.6157742 -1.546154E-17 -0.7879226
vn 0.6157743 -1.546155E-17 -0.7879226
vn 0.6157743 -1.546155E-17 -0.7879226
vn 0.6157742 -1.546154E-17 -0.7879226
vn -0.07073934 7.247786E-17 -0.9974948
vn -0.07073934 7.247786E-17 -0.9974948
vn -0.07073934 7.247786E-17 -0.9974948
vn -0.07073934 7.247786E-17 -0.9974948
vn -0.8648912 1.262503E-16 -0.5019592
vn -0.8648912 1.262503E-16 -0.5019592
vn -0.8648912 1.262503E-16 -0.5019592
vn -0.8648912 1.262503E-16 -0.5019592
vn -0.7800161 1.251067E-16 -0.6257594
vn -0.7800161 1.251067E-16 -0.6257594
vn -0.7800161 1.251067E-16 -0.6257594
vn -0.7800161 1.251067E-16 -0.6257594
vn -0.8253948 5.266968E-17 0.5645558
vn -0.8253948 5.266968E-17 0.5645558
vn -0.8253948 5.266967E-17 0.5645559
vn -0.8253948 5.266968E-17 0.5645558
vn -0.6126548 1.496607E-17 0.7903506
vn -0.6126548 1.496607E-17 0.7903506
vn -0.6126548 1.496607E-17 0.7903506
vn -0.6126548 1.496607E-17 0.7903506
vn -0.2219738 -3.933084E-17 0.9750525
vn -0.2219738 -3.933084E-17 0.9750525
vn -0.2219738 -3.933084E-17 0.9750525
vn -0.2219738 -3.933084E-17 0.9750525
vn 0.850764 -1.262538E-16 0.525548
vn 0.850764 -1.262538E-16 0.525548
vn 0.850764 -1.262538E-16 0.525548
vn 0.850764 -1.262538E-16 0.525548
vn 0.996549 -1.132788E-16 0.08300646
vn 0.996549 -1.132788E-16 0.08300646
vn 0.996549 -1.132788E-16 0.08300646
vn 0.996549 -1.132788E-16 0.08300646
vn 0.9789878 -1.192348E-16 0.2039187
vn 0.9789878 -1.192348E-16 0.2039187
vn 0.9789878 -1.192348E-16 0.2039187
vn 0.9789878 -1.192348E-16 0.2039187
vn 0.6036379 0.212757 -0.7683462
vn 0.6036378 0.212757 -0.7683461
vn 0.6036378 0.212757 -0.7683461
vn 0.6036378 0.212757 -0.7683461
vn -0.07489944 0.2212333 -0.9723403
vn -0.07489944 0.2212333 -0.9723403
vn -0.07489944 0.2212333 -0.9723403
vn -0.07489944 0.2212333 -0.9723403
vn -0.8536099 0.2588966 -0.4520204
vn -0.85361 0.2588966 -0.4520204
vn -0.8536099 0.2588966 -0.4520205
vn -0.8536099 0.2588965 -0.4520204
vn -0.7334772 0.2546348 -0.6302161
vn -0.7334771 0.2546348 -0.6302161
vn -0.7334772 0.2546348 -0.6302161
vn -0.7334772 0.2546348 -0.630216
vn -0.7831692 0.2437819 0.5720284
vn -0.7831692 0.2437819 0.5720284
vn -0.7831692 0.2437819 0.5720283
vn -0.7831692 0.2437819 0.5720284
vn -0.5901839 0.2822602 0.7563148
vn -0.5901839 0.2822602 0.7563147
vn -0.5901839 0.2822603 0.7563148
vn -0.5901839 0.2822603 0.7563148
vn -0.2319567 0.242386 0.942043
vn -0.2319567 0.242386 0.942043
vn -0.2319567 0.242386 0.942043
vn -0.2319567 0.242386 0.942043
vn 0.8526987 0.1930069 0.4854411
vn 0.8526987 0.1930069 0.4854411
vn 0.8526987 0.1930069 0.4854411
vn 0.8526987 0.1930069 0.4854411
vn 0.9690156 0.2371581 0.0690267
vn 0.9690157 0.2371581 0.06902671
vn 0.9690157 0.2371581 0.0690267
vn 0.9690157 0.2371581 0.06902671
vn 0.9561891 0.178262 0.2322172
vn 0.9561891 0.178262 0.2322172
vn 0.9561891 0.178262 0.2322172
vn 0.9561891 0.178262 0.2322172
vn 0.341604 0.8368365 -0.4277977
vn 0.341604 0.8368365 -0.4277977
vn 0.341604 0.8368365 -0.4277977
vn 0.341604 0.8368365 -0.4277977
vn -0.1368219 0.8884323 -0.4381408
vn -0.1368219 0.8884322 -0.4381408
vn -0.1368219 0.8884323 -0.4381408
vn -0.1368219 0.8884323 -0.4381408
vn -0.4205322 0.8693343 -0.2596343
vn -0.4205322 0.8693343 -0.2596343
vn -0.4205322 0.8693343 -0.2596343
vn -0.4205322 0.8693343 -0.2596343
vn -0.4518169 0.8049012 -0.384701
vn -0.4518169 0.8049013 -0.384701
vn -0.4518169 0.8049013 -0.384701
vn -0.4518169 0.8049013 -0.384701
vn -0.4737862 0.8185278 0.3248665
vn -0.4737862 0.8185279 0.3248665
vn -0.4737863 0.8185278 0.3248665
vn -0.4737862 0.8185278 0.3248665
vn -0.3551401 0.8222618 0.4447028
vn -0.3551402 0.8222617 0.4447028
vn -0.3551402 0.8222617 0.4447028
vn -0.3551402 0.8222617 0.4447028
vn -0.1687815 0.8172352 0.5510343
vn -0.1687815 0.8172352 0.5510343
vn -0.1687815 0.8172352 0.5510343
vn -0.1687815 0.8172352 0.5510343
vn 0.5572588 0.796234 0.235528
vn 0.5572588 0.796234 0.235528
vn 0.5572588 0.796234 0.235528
vn 0.5572588 0.796234 0.235528
vn 0.5968043 0.7985129 -0.0787476
vn 0.5968042 0.798513 -0.07874761
vn 0.5968043 0.798513 -0.07874761
vn 0.5968043 0.7985129 -0.07874759
vn 0.6123363 0.7325384 0.2973741
vn 0.6123363 0.7325385 0.2973741
vn 0.6123363 0.7325384 0.2973741
vn 0.6123363 0.7325384 0.2973741
vn 0.1874096 0.9546866 -0.2311937
vn 0.1874096 0.9546866 -0.2311937
vn 0.1874096 0.9546866 -0.2311937
vn -0.2408471 0.9181486 -0.3146349
vn -0.2408471 0.9181486 -0.3146349
vn -0.2408471 0.9181486 -0.3146349
vn -0.292789 0.9097521 -0.2943215
vn -0.292789 0.9097521 -0.2943215
vn -0.2927891 0.9097521 -0.2943215
vn -0.3358913 0.9095349 -0.2447914
vn -0.3358914 0.9095349 -0.2447914
vn -0.3358914 0.9095349 -0.2447914
vn -0.3406733 0.9244465 0.1712887
vn -0.3406733 0.9244465 0.1712887
vn -0.3406733 0.9244465 0.1712887
vn -0.2454045 0.9219851 0.299532
vn -0.2454045 0.9219851 0.299532
vn -0.2454045 0.9219851 0.299532
vn -0.1244209 0.9320197 0.3403791
vn -0.1244209 0.9320197 0.3403791
vn -0.1244209 0.9320197 0.3403791
vn 0.3784347 0.9190344 0.1102822
vn 0.3784348 0.9190344 0.1102822
vn 0.3784348 0.9190344 0.1102822
vn 0.5357541 0.8268818 -0.170978
vn 0.535754 0.8268818 -0.170978
vn 0.535754 0.8268819 -0.170978
vn 0.5043067 0.7785741 0.3734926
vn 0.5043066 0.7785741 0.3734926
vn 0.5043067 0.7785741 0.3734926

vt 0.5483398 0.007648468
vt 0.5 0.1500244
vt 0.6264648 0.06439209
vt 0.4516602 0.007648468
vt 0.3735352 0.06439209
vt 0.34375 0.15625
vt 0.3735352 0.2480469
vt 0.4516602 0.3049316
vt 0.5483398 0.3049316
vt 0.6264648 0.2480469
vt 0.65625 0.15625
vt 0 0
vt 0 1
vt 1 1
vt 1 0
vt 0 0
vt 0 1
vt 1 1
vt 1 0
vt 0 0
vt 0 1
vt 1 1
vt 1 0
vt 0 0
vt 0 1
vt 1 1
vt 1 0
vt 0 0
vt 0 1
vt 1 1
vt 1 0
vt 0 0
vt 0 1
vt 1 1
vt 1 0
vt 0 0
vt 0 1
vt 1 1
vt 1 0
vt 0 0
vt 0 1
vt 1 1
vt 1 0
vt 0 0
vt 0 1
vt 1 1
vt 1 0
vt 0 0
vt 0 1
vt 1 1
vt 1 0
vt 0 0
vt 0 1
vt 1 1
vt 1 0
vt 0 0
vt 0 1
vt 1 1
vt 1 0
vt 0 0
vt 0 1
vt 1 1
vt 1 0
vt 0 0
vt 0 1
vt 1 1
vt 1 0
vt 0 0
vt 0 1
vt 1 1
vt 1 0
vt 0 0
vt 0 1
vt 1 1
vt 1 0
vt 0 0
vt 0 1
vt 1 1
vt 1 0
vt 0 0
vt 0 1
vt 1 1
vt 1 0
vt 0 0
vt 0 1
vt 1 1
vt 1 0
vt 0 0
vt 0 1
vt 1 1
vt 1 0
vt 0 0
vt 0 1
vt 1 1
vt 1 0
vt 0 0
vt 0 1
vt 1 1
vt 1 0
vt 0 0
vt 0 1
vt 1 1
vt 1 0
vt 0 0
vt 0 1
vt 1 1
vt 1 0
vt 0 0
vt 0 1
vt 1 1
vt 1 0
vt 0 0
vt 0 1
vt 1 1
vt 1 0
vt 0 0
vt 0 1
vt 1 1
vt 1 0
vt 0 0
vt 0 1
vt 1 1
vt 1 0
vt 0 0
vt 0 1
vt 1 1
vt 1 0
vt 0 0
vt 0 1
vt 1 1
vt 1 0
vt 0 0
vt 0 1
vt 1 1
vt 1 0
vt 0 0
vt 0 1
vt 1 1
vt 1 0
vt 0 0
vt 0 1
vt 1 1
vt 1 0
vt 0 0
vt 0 1
vt 1 1
vt 1 0
vt 0 0
vt 0 1
vt 1 1
vt 1 0
vt 0 0
vt 0 1
vt 1 1
vt 1 0
vt 0 0
vt 0 1
vt 1 1
vt 1 0
vt 0 0
vt 0 1
vt 1 1
vt 1 0
vt 0 0
vt 0 1
vt 1 1
vt 1 0
vt 0 0
vt 0 1
vt 1 1
vt 1 0
vt 0 0
vt 0.5 1
vt 1 0
vt 0 0
vt 0.5 1
vt 1 0
vt 0 0
vt 0.5 1
vt 1 0
vt 0 0
vt 0.5 1
vt 1 0
vt 0 0
vt 0.5 1
vt 1 0
vt 0 0
vt 0.5 1
vt 1 0
vt 0 0
vt 0.5 1
vt 1 0
vt 0 0
vt 0.5 1
vt 1 0
vt 0 0
vt 0.5 1
vt 1 0
vt 0 0
vt 0.5 1
vt 1 0

g pCylinder7_3982_207
usemtl pCylinder7_3982_207
usemap pCylinder7_3982_207
f 1/1/1 3/3/3 2/2/2
f 4/4/4 1/1/1 2/2/2
f 5/5/5 4/4/4 2/2/2
f 6/6/6 5/5/5 2/2/2
f 7/7/7 6/6/6 2/2/2
f 8/8/8 7/7/7 2/2/2
f 9/9/9 8/8/8 2/2/2
f 10/10/10 9/9/9 2/2/2
f 11/11/11 10/10/10 2/2/2
f 3/3/3 11/11/11 2/2/2
f 12/12/12 14/14/14 13/13/13
f 12/12/12 15/15/15 14/14/14
f 16/16/16 18/18/18 17/17/17
f 16/16/16 19/19/19 18/18/18
f 20/20/20 22/22/22 21/21/21
f 20/20/20 23/23/23 22/22/22
f 24/24/24 26/26/26 25/25/25
f 24/24/24 27/27/27 26/26/26
f 28/28/28 30/30/30 29/29/29
f 28/28/28 31/31/31 30/30/30
f 32/32/32 34/34/34 33/33/33
f 32/32/32 35/35/35 34/34/34
f 36/36/36 38/38/38 37/37/37
f 36/36/36 39/39/39 38/38/38
f 40/40/40 42/42/42 41/41/41
f 40/40/40 43/43/43 42/42/42
f 44/44/44 46/46/46 45/45/45
f 44/44/44 47/47/47 46/46/46
f 48/48/48 50/50/50 49/49/49
f 48/48/48 51/51/51 50/50/50
f 52/52/52 54/54/54 53/53/53
f 52/52/52 55/55/55 54/54/54
f 56/56/56 58/58/58 57/57/57
f 56/56/56 59/59/59 58/58/58
f 60/60/60 62/62/62 61/61/61
f 60/60/60 63/63/63 62/62/62
f 64/64/64 66/66/66 65/65/65
f 64/64/64 67/67/67 66/66/66
f 68/68/68 70/70/70 69/69/69
f 68/68/68 71/71/71 70/70/70
f 72/72/72 74/74/74 73/73/73
f 72/72/72 75/75/75 74/74/74
f 76/76/76 78/78/78 77/77/77
f 76/76/76 79/79/79 78/78/78
f 80/80/80 82/82/82 81/81/81
f 80/80/80 83/83/83 82/82/82
f 84/84/84 86/86/86 85/85/85
f 84/84/84 87/87/87 86/86/86
f 88/88/88 90/90/90 89/89/89
f 88/88/88 91/91/91 90/90/90
f 92/92/92 94/94/94 93/93/93
f 92/92/92 95/95/95 94/94/94
f 96/96/96 98/98/98 97/97/97
f 96/96/96 99/99/99 98/98/98
f 100/100/100 102/102/102 101/101/101
f 100/100/100 103/103/103 102/102/102
f 104/104/104 106/106/106 105/105/105
f 104/104/104 107/107/107 106/106/106
f 108/108/108 110/110/110 109/109/109
f 108/108/108 111/111/111 110/110/110
f 112/112/112 114/114/114 113/113/113
f 112/112/112 115/115/115 114/114/114
f 116/116/116 118/118/118 117/117/117
f 116/116/116 119/119/119 118/118/118
f 120/120/120 122/122/122 121/121/121
f 120/120/120 123/123/123 122/122/122
f 124/124/124 126/126/126 125/125/125
f 124/124/124 127/127/127 126/126/126
f 128/128/128 130/130/130 129/129/129
f 128/128/128 131/131/131 130/130/130
f 132/132/132 134/134/134 133/133/133
f 132/132/132 135/135/135 134/134/134
f 136/136/136 138/138/138 137/137/137
f 136/136/136 139/139/139 138/138/138
f 140/140/140 142/142/142 141/141/141
f 140/140/140 143/143/143 142/142/142
f 144/144/144 146/146/146 145/145/145
f 144/144/144 147/147/147 146/146/146
f 148/148/148 150/150/150 149/149/149
f 148/148/148 151/151/151 150/150/150
f 152/152/152 154/154/154 153/153/153
f 152/152/152 155/155/155 154/154/154
f 156/156/156 158/158/158 157/157/157
f 156/156/156 159/159/159 158/158/158
f 160/160/160 162/162/162 161/161/161
f 160/160/160 163/163/163 162/162/162
f 164/164/164 166/166/166 165/165/165
f 164/164/164 167/167/167 166/166/166
f 168/168/168 170/170/170 169/169/169
f 168/168/168 171/171/171 170/170/170
f 172/172/172 174/174/174 173/173/173
f 175/175/175 177/177/177 176/176/176
f 178/178/178 180/180/180 179/179/179
f 181/181/181 183/183/183 182/182/182
f 184/184/184 186/186/186 185/185/185
f 187/187/187 189/189/189 188/188/188
f 190/190/190 192/192/192 191/191/191
f 193/193/193 195/195/195 194/194/194
f 196/196/196 198/198/198 197/197/197
f 199/199/199 201/201/201 200/200/200
