#pCylinder6_31_3699_224.obj

v 0.01454603 -0.02577569 -0.04035865
v 0.004624653 -0.0339761 0.001091009
v 0.03878523 -0.02577569 -0.02105516
v -0.009662594 -0.02577569 -0.03817583
v -0.01824995 -0.02577569 -0.01778084
v -0.03822131 -0.02223223 0.001090994
v -0.02135006 -0.02577569 0.0199628
v -0.005296867 -0.02577569 0.03271763
v 0.02109484 -0.02577569 0.04035778
v 0.03059928 -0.02577569 0.01996287
v 0.03219019 -0.02223223 0.00109103
v 0.03878523 -0.02577569 -0.02105516
v 0.04796758 -0.01489244 -0.0277265
v 0.01805341 -0.01489244 -0.05115319
v 0.01454603 -0.02577569 -0.04035865
v 0.01454603 -0.02577569 -0.04035865
v 0.01805341 -0.01489244 -0.05115319
v -0.01317006 -0.01489244 -0.04897023
v -0.009662594 -0.02577569 -0.03817583
v -0.009662594 -0.02577569 -0.03817583
v -0.01317006 -0.01489244 -0.04897023
v -0.02743243 -0.01489244 -0.02445216
v -0.01824995 -0.02577569 -0.01778084
v -0.01824995 -0.02577569 -0.01778084
v -0.02743243 -0.01489244 -0.02445216
v -0.04796619 -0.01288823 0.001091069
v -0.03822131 -0.02223223 0.001090994
v -0.03822131 -0.02223223 0.001090994
v -0.04796619 -0.01288823 0.001091069
v -0.03053257 -0.01489244 0.02663425
v -0.02135006 -0.02577569 0.0199628
v -0.02135006 -0.02577569 0.0199628
v -0.03053257 -0.01489244 0.02663425
v -0.008804249 -0.01489244 0.04351216
v -0.005296867 -0.02577569 0.03271763
v -0.005296867 -0.02577569 0.03271763
v -0.008804249 -0.01489244 0.04351216
v 0.02460215 -0.01489244 0.05115229
v 0.02109484 -0.02577569 0.04035778
v 0.02109484 -0.02577569 0.04035778
v 0.02460215 -0.01489244 0.05115229
v 0.03978177 -0.01489244 0.02663419
v 0.03059928 -0.02577569 0.01996287
v 0.03059928 -0.02577569 0.01996287
v 0.03978177 -0.01489244 0.02663419
v 0.04193509 -0.01288823 0.001091001
v 0.03219019 -0.02223223 0.00109103
v 0.03219019 -0.02223223 0.00109103
v 0.04193509 -0.01288823 0.001091001
v 0.04796758 -0.01489244 -0.0277265
v 0.03878523 -0.02577569 -0.02105516
v 0.04796758 -0.01489244 -0.0277265
v 0.04796758 -0.0001483584 -0.0277265
v 0.01805341 -0.0001483584 -0.05115319
v 0.01805341 -0.01489244 -0.05115319
v 0.01805341 -0.01489244 -0.05115319
v 0.01805341 -0.0001483584 -0.05115319
v -0.01317006 -0.0001483584 -0.04897023
v -0.01317006 -0.01489244 -0.04897023
v -0.01317006 -0.01489244 -0.04897023
v -0.01317006 -0.0001483584 -0.04897023
v -0.02743243 -0.0001483584 -0.02445216
v -0.02743243 -0.01489244 -0.02445216
v -0.02743243 -0.01489244 -0.02445216
v -0.02743243 -0.0001483584 -0.02445216
v -0.04796619 -0.000229474 0.001091069
v -0.04796619 -0.01288823 0.001091069
v -0.04796619 -0.01288823 0.001091069
v -0.04796619 -0.000229474 0.001091069
v -0.03053257 -0.0001483584 0.02663425
v -0.03053257 -0.01489244 0.02663425
v -0.03053257 -0.01489244 0.02663425
v -0.03053257 -0.0001483584 0.02663425
v -0.008804249 -0.0001483584 0.04351216
v -0.008804249 -0.01489244 0.04351216
v -0.008804249 -0.01489244 0.04351216
v -0.008804249 -0.0001483584 0.04351216
v 0.02460215 -0.0001483584 0.05115229
v 0.02460215 -0.01489244 0.05115229
v 0.02460215 -0.01489244 0.05115229
v 0.02460215 -0.0001483584 0.05115229
v 0.03978177 -0.0001483584 0.02663419
v 0.03978177 -0.01489244 0.02663419
v 0.03978177 -0.01489244 0.02663419
v 0.03978177 -0.0001483584 0.02663419
v 0.04193509 -0.000229474 0.001091001
v 0.04193509 -0.01288823 0.001091001
v 0.04193509 -0.01288823 0.001091001
v 0.04193509 -0.000229474 0.001091001
v 0.04796758 -0.0001483584 -0.0277265
v 0.04796758 -0.01489244 -0.0277265
v 0.04796758 -0.0001483584 -0.0277265
v 0.04568961 0.01428331 -0.02539722
v 0.01714583 0.01428331 -0.04799167
v 0.01805341 -0.0001483584 -0.05115319
v 0.01805341 -0.0001483584 -0.05115319
v 0.01714583 0.01428331 -0.04799167
v -0.01182835 0.01428331 -0.04559809
v -0.01317006 -0.0001483584 -0.04897023
v -0.01317006 -0.0001483584 -0.04897023
v -0.01182835 0.01428331 -0.04559809
v -0.0232095 0.01428331 -0.02180683
v -0.02743243 -0.0001483584 -0.02445216
v -0.02743243 -0.0001483584 -0.02445216
v -0.0232095 0.01428331 -0.02180683
v -0.04530336 0.01197204 0.001196372
v -0.04796619 -0.000229474 0.001091069
v -0.04796619 -0.000229474 0.001091069
v -0.04530336 0.01197204 0.001196372
v -0.02660889 0.01428331 0.02419962
v -0.03053257 -0.0001483584 0.02663425
v -0.03053257 -0.0001483584 0.02663425
v -0.02660889 0.01428331 0.02419962
v -0.007041127 0.01428331 0.03961316
v -0.008804249 -0.0001483584 0.04351216
v -0.008804249 -0.0001483584 0.04351216
v -0.007041127 0.01428331 0.03961316
v 0.02432668 0.01428331 0.04799081
v 0.02460215 -0.0001483584 0.05115229
v 0.02460215 -0.0001483584 0.05115229
v 0.02432668 0.01428331 0.04799081
v 0.03671349 0.01428331 0.02419959
v 0.03978177 -0.0001483584 0.02663419
v 0.03978177 -0.0001483584 0.02663419
v 0.03671349 0.01428331 0.02419959
v 0.03865273 0.01197204 0.001196385
v 0.04193509 -0.000229474 0.001091001
v 0.04193509 -0.000229474 0.001091001
v 0.03865273 0.01197204 0.001196385
v 0.04568961 0.01428331 -0.02539722
v 0.04796758 -0.0001483584 -0.0277265
v 0.04568961 0.01428331 -0.02539722
v 0.03225328 0.02437435 -0.01614818
v 0.01203723 0.02437435 -0.03256905
v 0.01714583 0.01428331 -0.04799167
v 0.01714583 0.01428331 -0.04799167
v 0.01203723 0.02437435 -0.03256905
v -0.002591518 0.02437435 -0.0213942
v -0.01182835 0.01428331 -0.04559809
v -0.01182835 0.01428331 -0.04559809
v -0.002591518 0.02437435 -0.0213942
v -0.01125234 0.02437435 -0.01279567
v -0.0232095 0.01428331 -0.02180683
v -0.0232095 0.01428331 -0.02180683
v -0.01125234 0.02437435 -0.01279567
v -0.031244 0.02074644 0.001117039
v -0.04530336 0.01197204 0.001196372
v -0.04530336 0.01197204 0.001196372
v -0.031244 0.02074644 0.001117039
v -0.01442633 0.02437435 0.01502972
v -0.02660889 0.01428331 0.02419962
v -0.02660889 0.01428331 0.02419962
v -0.01442633 0.02437435 0.01502972
v -0.002591468 0.02437435 0.02474578
v -0.007041127 0.01428331 0.03961316
v -0.007041127 0.01428331 0.03961316
v -0.002591468 0.02437435 0.02474578
v 0.01874207 0.02437435 0.03256816
v 0.02432668 0.01428331 0.04799081
v 0.02432668 0.01428331 0.04799081
v 0.01874207 0.02437435 0.03256816
v 0.02387212 0.02437435 0.01502978
v 0.03671349 0.01428331 0.02419959
v 0.03671349 0.01428331 0.02419959
v 0.02387212 0.02437435 0.01502978
v 0.0250449 0.02074644 0.00111708
v 0.03865273 0.01197204 0.001196385
v 0.03865273 0.01197204 0.001196385
v 0.0250449 0.02074644 0.00111708
v 0.03225328 0.02437435 -0.01614818
v 0.04568961 0.01428331 -0.02539722
v 0.03225328 0.02437435 -0.01614818
v 0.004624625 0.03397602 0.001090964
v 0.01203723 0.02437435 -0.03256905
v 0.01203723 0.02437435 -0.03256905
v 0.004624625 0.03397602 0.001090964
v -0.002591518 0.02437435 -0.0213942
v -0.002591518 0.02437435 -0.0213942
v 0.004624625 0.03397602 0.001090964
v -0.01125234 0.02437435 -0.01279567
v -0.01125234 0.02437435 -0.01279567
v 0.004624625 0.03397602 0.001090964
v -0.031244 0.02074644 0.001117039
v -0.031244 0.02074644 0.001117039
v 0.004624625 0.03397602 0.001090964
v -0.01442633 0.02437435 0.01502972
v -0.01442633 0.02437435 0.01502972
v 0.004624625 0.03397602 0.001090964
v -0.002591468 0.02437435 0.02474578
v -0.002591468 0.02437435 0.02474578
v 0.004624625 0.03397602 0.001090964
v 0.01874207 0.02437435 0.03256816
v 0.01874207 0.02437435 0.03256816
v 0.004624625 0.03397602 0.001090964
v 0.02387212 0.02437435 0.01502978
v 0.02387212 0.02437435 0.01502978
v 0.004624625 0.03397602 0.001090964
v 0.0250449 0.02074644 0.00111708
v 0.0250449 0.02074644 0.00111708
v 0.004624625 0.03397602 0.001090964
v 0.03225328 0.02437435 -0.01614818

vn -0.1564927 -0.9711502 -0.1799372
vn 0.00112772 -0.999998 -0.001663679
vn 0.07429919 -0.9697416 -0.2325528
vn -0.247195 -0.9683226 -0.03529653
vn -0.285199 -0.9407759 0.1833096
vn -0.1974584 -0.9490992 0.2453994
vn -0.03190785 -0.955166 0.2943463
vn 0.1727791 -0.9540833 0.2446883
vn 0.236868 -0.9694223 0.06413809
vn 0.2188177 -0.9410005 -0.2581412
vn 0.3625005 -0.8803548 -0.3058901
vn -0.2817932 -0.626954 -0.7263066
vn -0.2817933 -0.626954 -0.7263064
vn -0.2817932 -0.626954 -0.7263066
vn -0.2817933 -0.626954 -0.7263064
vn -0.707065 -0.6040335 -0.3676993
vn -0.7070649 -0.6040336 -0.3676992
vn -0.707065 -0.6040335 -0.3676993
vn -0.707065 -0.6040335 -0.3676993
vn -0.7260385 -0.5769867 0.3741048
vn -0.7260386 -0.5769867 0.3741048
vn -0.7260385 -0.5769867 0.3741048
vn -0.7260386 -0.5769867 0.3741048
vn -0.7676647 -0.5960654 0.2353657
vn -0.7676647 -0.5960653 0.2353658
vn -0.7676647 -0.5960653 0.2353658
vn -0.7676646 -0.5960653 0.2353658
vn 0.007133492 -0.6274917 0.7785906
vn 0.007133492 -0.6274917 0.7785906
vn 0.007133492 -0.6274916 0.7785907
vn 0.00713353 -0.6274916 0.7785906
vn 0.2839993 -0.6268955 0.7254972
vn 0.2839993 -0.6268955 0.7254974
vn 0.2839993 -0.6268955 0.7254972
vn 0.2839993 -0.6268955 0.7254972
vn 0.5646573 -0.6006805 0.5659902
vn 0.5646573 -0.6006806 0.5659902
vn 0.5646574 -0.6006806 0.5659902
vn 0.5646573 -0.6006805 0.5659902
vn 0.734428 -0.5818569 -0.3493682
vn 0.7344279 -0.5818569 -0.3493682
vn 0.7344279 -0.5818569 -0.3493682
vn 0.7344279 -0.5818568 -0.3493682
vn 0.4282014 -0.6102118 -0.6665472
vn 0.4282014 -0.6102118 -0.6665472
vn 0.4282014 -0.6102118 -0.6665472
vn 0.4282014 -0.6102118 -0.6665472
vn 0.6863134 -0.534933 -0.4927683
vn 0.6863134 -0.5349329 -0.4927684
vn 0.6863134 -0.534933 -0.4927683
vn 0.6863134 -0.5349329 -0.4927683
vn -0.3652266 1.748819E-17 -0.9309186
vn -0.3652265 1.748818E-17 -0.9309187
vn -0.3652265 1.748818E-17 -0.9309187
vn -0.3652266 1.748819E-17 -0.9309186
vn -0.8834485 4.313227E-17 -0.4685284
vn -0.8834485 4.313227E-17 -0.4685284
vn -0.8834485 4.313227E-17 -0.4685284
vn -0.8834485 4.313227E-17 -0.4685284
vn -0.9131195 4.499603E-17 0.4076919
vn -0.9131195 4.499603E-17 0.4076919
vn -0.9131195 4.499603E-17 0.4076919
vn -0.9131195 4.499603E-17 0.4076919
vn -0.962842 4.737183E-17 0.2700651
vn -0.962842 4.737183E-17 0.2700651
vn -0.962842 4.737183E-17 0.2700651
vn -0.962842 4.737183E-17 0.2700651
vn 0.04917644 -1.948189E-18 0.9987901
vn 0.04917644 -1.948189E-18 0.9987901
vn 0.04917654 -1.948195E-18 0.9987901
vn 0.04917644 -1.948189E-18 0.9987901
vn 0.3690093 -1.76745E-17 0.9294257
vn 0.3690093 -1.76745E-17 0.9294257
vn 0.3690093 -1.76745E-17 0.9294257
vn 0.3690093 -1.76745E-17 0.9294257
vn 0.7231594 -3.516358E-17 0.6906811
vn 0.7231594 -3.516358E-17 0.6906811
vn 0.7231594 -3.516358E-17 0.6906811
vn 0.7231594 -3.516358E-17 0.6906811
vn 0.9238324 -4.551012E-17 -0.3827973
vn 0.9238324 -4.551012E-17 -0.3827973
vn 0.9238324 -4.551012E-17 -0.3827973
vn 0.9238324 -4.551012E-17 -0.3827973
vn 0.6405008 -3.178646E-17 -0.7679574
vn 0.6405008 -3.178646E-17 -0.7679574
vn 0.6405008 -3.178646E-17 -0.7679574
vn 0.6405008 -3.178646E-17 -0.7679574
vn 0.73422 -3.634376E-17 -0.6789117
vn 0.73422 -3.634376E-17 -0.6789117
vn 0.73422 -3.634376E-17 -0.6789117
vn 0.73422 -3.634376E-17 -0.6789117
vn -0.3572413 0.1740927 -0.917644
vn -0.3572414 0.1740927 -0.9176439
vn -0.3572414 0.1740927 -0.9176439
vn -0.3572414 0.1740927 -0.9176439
vn -0.8729476 0.1713349 -0.4567348
vn -0.8729476 0.1713349 -0.4567348
vn -0.8729476 0.1713349 -0.4567348
vn -0.8729476 0.1713349 -0.4567348
vn -0.8768814 0.2092407 0.4327786
vn -0.8768814 0.2092407 0.4327786
vn -0.8768814 0.2092407 0.4327785
vn -0.8768814 0.2092407 0.4327786
vn -0.9510857 0.2018433 0.2338704
vn -0.9510857 0.2018433 0.2338703
vn -0.9510857 0.2018433 0.2338704
vn -0.9510857 0.2018433 0.2338704
vn 0.08069848 0.20416 0.9756057
vn 0.08069848 0.20416 0.9756057
vn 0.08069842 0.20416 0.9756057
vn 0.08069848 0.20416 0.9756057
vn 0.3559164 0.2322872 0.9051885
vn 0.3559163 0.2322872 0.9051885
vn 0.3559163 0.2322872 0.9051884
vn 0.3559163 0.2322872 0.9051884
vn 0.6983107 0.1915971 0.6896757
vn 0.6983107 0.1915971 0.6896757
vn 0.6983107 0.1915971 0.6896757
vn 0.6983107 0.1915971 0.6896757
vn 0.8987811 0.1547007 -0.4101954
vn 0.8987811 0.1547007 -0.4101954
vn 0.8987811 0.1547007 -0.4101954
vn 0.8987811 0.1547007 -0.4101954
vn 0.6181213 0.1980243 -0.7607316
vn 0.6181213 0.1980242 -0.7607316
vn 0.6181213 0.1980242 -0.7607316
vn 0.6181213 0.1980242 -0.7607316
vn 0.7489571 0.1463847 -0.6462466
vn 0.7489571 0.1463848 -0.6462467
vn 0.7489571 0.1463848 -0.6462466
vn 0.7489571 0.1463848 -0.6462466
vn -0.2227375 0.7789109 -0.5862473
vn -0.2227376 0.7789109 -0.5862473
vn -0.2227375 0.7789109 -0.5862473
vn -0.2227376 0.7789109 -0.5862473
vn -0.5392828 0.8281627 -0.1527102
vn -0.5392829 0.8281627 -0.1527102
vn -0.5392828 0.8281627 -0.1527102
vn -0.5392828 0.8281627 -0.1527102
vn -0.5380242 0.8128724 0.2230881
vn -0.5380242 0.8128724 0.2230881
vn -0.5380242 0.8128724 0.2230881
vn -0.5380242 0.8128724 0.2230881
vn -0.6650005 0.7280349 0.1665518
vn -0.6650005 0.728035 0.1665518
vn -0.6650005 0.728035 0.1665518
vn -0.6650005 0.728035 0.1665518
vn 0.03253062 0.7640493 0.6443372
vn 0.03253067 0.7640493 0.6443372
vn 0.03253062 0.7640493 0.6443372
vn 0.03253062 0.7640493 0.6443372
vn 0.2302779 0.7612532 0.6061895
vn 0.2302778 0.7612532 0.6061895
vn 0.2302779 0.7612531 0.6061895
vn 0.2302778 0.7612532 0.6061895
vn 0.4497233 0.7438899 0.494345
vn 0.4497233 0.7438899 0.4943449
vn 0.4497233 0.7438899 0.4943449
vn 0.4497233 0.7438899 0.4943449
vn 0.5866826 0.7271768 -0.3563951
vn 0.5866826 0.7271767 -0.3563952
vn 0.5866826 0.7271767 -0.3563952
vn 0.5866826 0.7271767 -0.3563952
vn 0.2992905 0.7427606 -0.5989422
vn 0.2992904 0.7427607 -0.5989422
vn 0.2992905 0.7427607 -0.5989422
vn 0.2992905 0.7427606 -0.5989422
vn 0.6671512 0.652869 -0.3587078
vn 0.6671512 0.652869 -0.3587078
vn 0.6671512 0.652869 -0.3587078
vn 0.6671512 0.652869 -0.3587078
vn -0.1246107 0.9337206 -0.3356157
vn -0.1246108 0.9337206 -0.3356157
vn -0.1246107 0.9337206 -0.3356157
vn -0.4877455 0.8727035 0.02220075
vn -0.4877455 0.8727035 0.02220073
vn -0.4877455 0.8727036 0.02220073
vn -0.498951 0.8625507 0.0839903
vn -0.498951 0.8625506 0.08399028
vn -0.498951 0.8625506 0.08399034
vn -0.4764848 0.8650597 0.1569521
vn -0.4764849 0.8650597 0.1569521
vn -0.4764849 0.8650597 0.1569521
vn -0.04256994 0.8968587 0.4402639
vn -0.0425699 0.8968587 0.4402639
vn -0.04256994 0.8968587 0.4402639
vn 0.157368 0.8885532 0.4309392
vn 0.157368 0.8885532 0.4309391
vn 0.157368 0.8885532 0.4309391
vn 0.2803914 0.8968888 0.3420106
vn 0.2803914 0.8968887 0.3420106
vn 0.2803914 0.8968888 0.3420106
vn 0.3670137 0.8846009 -0.2877191
vn 0.3670137 0.8846009 -0.2877191
vn 0.3670138 0.8846008 -0.2877192
vn 0.1670878 0.7767207 -0.6072782
vn 0.1670878 0.7767207 -0.607278
vn 0.1670877 0.7767207 -0.607278
vn 0.6810409 0.6988145 -0.2187273
vn 0.6810409 0.6988145 -0.2187272
vn 0.6810409 0.6988145 -0.2187273

vt 0.5482839 0.007647395
vt 0.5 0.15
vt 0.6264089 0.06440853
vt 0.4517161 0.00764741
vt 0.3735911 0.06440856
vt 0.34375 0.15625
vt 0.3735911 0.2480915
vt 0.4517161 0.3048526
vt 0.5482839 0.3048526
vt 0.6264089 0.2480914
vt 0.65625 0.15625
vt 0 0
vt 0 1
vt 1 1
vt 1 0
vt 0 0
vt 0 1
vt 1 1
vt 1 0
vt 0 0
vt 0 1
vt 1 1
vt 1 0
vt 0 0
vt 0 1
vt 1 1
vt 1 0
vt 0 0
vt 0 1
vt 1 1
vt 1 0
vt 0 0
vt 0 1
vt 1 1
vt 1 0
vt 0 0
vt 0 1
vt 1 1
vt 1 0
vt 0 0
vt 0 1
vt 1 1
vt 1 0
vt 0 0
vt 0 1
vt 1 1
vt 1 0
vt 0 0
vt 0 1
vt 1 1
vt 1 0
vt 0 0
vt 0 1
vt 1 1
vt 1 0
vt 0 0
vt 0 1
vt 1 1
vt 1 0
vt 0 0
vt 0 1
vt 1 1
vt 1 0
vt 0 0
vt 0 1
vt 1 1
vt 1 0
vt 0 0
vt 0 1
vt 1 1
vt 1 0
vt 0 0
vt 0 1
vt 1 1
vt 1 0
vt 0 0
vt 0 1
vt 1 1
vt 1 0
vt 0 0
vt 0 1
vt 1 1
vt 1 0
vt 0 0
vt 0 1
vt 1 1
vt 1 0
vt 0 0
vt 0 1
vt 1 1
vt 1 0
vt 0 0
vt 0 1
vt 1 1
vt 1 0
vt 0 0
vt 0 1
vt 1 1
vt 1 0
vt 0 0
vt 0 1
vt 1 1
vt 1 0
vt 0 0
vt 0 1
vt 1 1
vt 1 0
vt 0 0
vt 0 1
vt 1 1
vt 1 0
vt 0 0
vt 0 1
vt 1 1
vt 1 0
vt 0 0
vt 0 1
vt 1 1
vt 1 0
vt 0 0
vt 0 1
vt 1 1
vt 1 0
vt 0 0
vt 0 1
vt 1 1
vt 1 0
vt 0 0
vt 0 1
vt 1 1
vt 1 0
vt 0 0
vt 0 1
vt 1 1
vt 1 0
vt 0 0
vt 0 1
vt 1 1
vt 1 0
vt 0 0
vt 0 1
vt 1 1
vt 1 0
vt 0 0
vt 0 1
vt 1 1
vt 1 0
vt 0 0
vt 0 1
vt 1 1
vt 1 0
vt 0 0
vt 0 1
vt 1 1
vt 1 0
vt 0 0
vt 0 1
vt 1 1
vt 1 0
vt 0 0
vt 0 1
vt 1 1
vt 1 0
vt 0 0
vt 0 1
vt 1 1
vt 1 0
vt 0 0
vt 0 1
vt 1 1
vt 1 0
vt 0 0
vt 0.5 1
vt 1 0
vt 0 0
vt 0.5 1
vt 1 0
vt 0 0
vt 0.5 1
vt 1 0
vt 0 0
vt 0.5 1
vt 1 0
vt 0 0
vt 0.5 1
vt 1 0
vt 0 0
vt 0.5 1
vt 1 0
vt 0 0
vt 0.5 1
vt 1 0
vt 0 0
vt 0.5 1
vt 1 0
vt 0 0
vt 0.5 1
vt 1 0
vt 0 0
vt 0.5 1
vt 1 0

g pCylinder6_31_3699_224
usemtl pCylinder6_31_3699_224
usemap pCylinder6_31_3699_224
f 1/1/1 3/3/3 2/2/2
f 4/4/4 1/1/1 2/2/2
f 5/5/5 4/4/4 2/2/2
f 6/6/6 5/5/5 2/2/2
f 7/7/7 6/6/6 2/2/2
f 8/8/8 7/7/7 2/2/2
f 9/9/9 8/8/8 2/2/2
f 10/10/10 9/9/9 2/2/2
f 11/11/11 10/10/10 2/2/2
f 3/3/3 11/11/11 2/2/2
f 12/12/12 14/14/14 13/13/13
f 12/12/12 15/15/15 14/14/14
f 16/16/16 18/18/18 17/17/17
f 16/16/16 19/19/19 18/18/18
f 20/20/20 22/22/22 21/21/21
f 20/20/20 23/23/23 22/22/22
f 24/24/24 26/26/26 25/25/25
f 24/24/24 27/27/27 26/26/26
f 28/28/28 30/30/30 29/29/29
f 28/28/28 31/31/31 30/30/30
f 32/32/32 34/34/34 33/33/33
f 32/32/32 35/35/35 34/34/34
f 36/36/36 38/38/38 37/37/37
f 36/36/36 39/39/39 38/38/38
f 40/40/40 42/42/42 41/41/41
f 40/40/40 43/43/43 42/42/42
f 44/44/44 46/46/46 45/45/45
f 44/44/44 47/47/47 46/46/46
f 48/48/48 50/50/50 49/49/49
f 48/48/48 51/51/51 50/50/50
f 52/52/52 54/54/54 53/53/53
f 52/52/52 55/55/55 54/54/54
f 56/56/56 58/58/58 57/57/57
f 56/56/56 59/59/59 58/58/58
f 60/60/60 62/62/62 61/61/61
f 60/60/60 63/63/63 62/62/62
f 64/64/64 66/66/66 65/65/65
f 64/64/64 67/67/67 66/66/66
f 68/68/68 70/70/70 69/69/69
f 68/68/68 71/71/71 70/70/70
f 72/72/72 74/74/74 73/73/73
f 72/72/72 75/75/75 74/74/74
f 76/76/76 78/78/78 77/77/77
f 76/76/76 79/79/79 78/78/78
f 80/80/80 82/82/82 81/81/81
f 80/80/80 83/83/83 82/82/82
f 84/84/84 86/86/86 85/85/85
f 84/84/84 87/87/87 86/86/86
f 88/88/88 90/90/90 89/89/89
f 88/88/88 91/91/91 90/90/90
f 92/92/92 94/94/94 93/93/93
f 92/92/92 95/95/95 94/94/94
f 96/96/96 98/98/98 97/97/97
f 96/96/96 99/99/99 98/98/98
f 100/100/100 102/102/102 101/101/101
f 100/100/100 103/103/103 102/102/102
f 104/104/104 106/106/106 105/105/105
f 104/104/104 107/107/107 106/106/106
f 108/108/108 110/110/110 109/109/109
f 108/108/108 111/111/111 110/110/110
f 112/112/112 114/114/114 113/113/113
f 112/112/112 115/115/115 114/114/114
f 116/116/116 118/118/118 117/117/117
f 116/116/116 119/119/119 118/118/118
f 120/120/120 122/122/122 121/121/121
f 120/120/120 123/123/123 122/122/122
f 124/124/124 126/126/126 125/125/125
f 124/124/124 127/127/127 126/126/126
f 128/128/128 130/130/130 129/129/129
f 128/128/128 131/131/131 130/130/130
f 132/132/132 134/134/134 133/133/133
f 132/132/132 135/135/135 134/134/134
f 136/136/136 138/138/138 137/137/137
f 136/136/136 139/139/139 138/138/138
f 140/140/140 142/142/142 141/141/141
f 140/140/140 143/143/143 142/142/142
f 144/144/144 146/146/146 145/145/145
f 144/144/144 147/147/147 146/146/146
f 148/148/148 150/150/150 149/149/149
f 148/148/148 151/151/151 150/150/150
f 152/152/152 154/154/154 153/153/153
f 152/152/152 155/155/155 154/154/154
f 156/156/156 158/158/158 157/157/157
f 156/156/156 159/159/159 158/158/158
f 160/160/160 162/162/162 161/161/161
f 160/160/160 163/163/163 162/162/162
f 164/164/164 166/166/166 165/165/165
f 164/164/164 167/167/167 166/166/166
f 168/168/168 170/170/170 169/169/169
f 168/168/168 171/171/171 170/170/170
f 172/172/172 174/174/174 173/173/173
f 175/175/175 177/177/177 176/176/176
f 178/178/178 180/180/180 179/179/179
f 181/181/181 183/183/183 182/182/182
f 184/184/184 186/186/186 185/185/185
f 187/187/187 189/189/189 188/188/188
f 190/190/190 192/192/192 191/191/191
f 193/193/193 195/195/195 194/194/194
f 196/196/196 198/198/198 197/197/197
f 199/199/199 201/201/201 200/200/200
