#pCylinder8_32_3725_191.obj

v 0.01454653 -0.02577569 -0.04035933
v 0.004625229 -0.03397617 0.001090307
v 0.03878567 -0.02577569 -0.02105568
v -0.009662274 -0.02577569 -0.03817628
v -0.01824941 -0.02577569 -0.01778149
v -0.03822096 -0.02223222 0.001090417
v -0.02134955 -0.02577569 0.01996213
v -0.005296348 -0.02577569 0.03271701
v 0.02109525 -0.02577569 0.04035717
v 0.03059997 -0.02577569 0.01996215
v 0.03219058 -0.02223222 0.001090495
v 0.03878567 -0.02577569 -0.02105568
v 0.04796815 -0.01489237 -0.0277271
v 0.01805381 -0.01489237 -0.05115372
v 0.01454653 -0.02577569 -0.04035933
v 0.01454653 -0.02577569 -0.04035933
v 0.01805381 -0.01489237 -0.05115372
v -0.01316938 -0.01489237 -0.04897097
v -0.009662274 -0.02577569 -0.03817628
v -0.009662274 -0.02577569 -0.03817628
v -0.01316938 -0.01489237 -0.04897097
v -0.02743185 -0.01489237 -0.02445289
v -0.01824941 -0.02577569 -0.01778149
v -0.01824941 -0.02577569 -0.01778149
v -0.02743185 -0.01489237 -0.02445289
v -0.04796561 -0.01288829 0.001090307
v -0.03822096 -0.02223222 0.001090417
v -0.03822096 -0.02223222 0.001090417
v -0.04796561 -0.01288829 0.001090307
v -0.03053203 -0.01489237 0.02663355
v -0.02134955 -0.02577569 0.01996213
v -0.02134955 -0.02577569 0.01996213
v -0.03053203 -0.01489237 0.02663355
v -0.008803627 -0.01489237 0.04351139
v -0.005296348 -0.02577569 0.03271701
v -0.005296348 -0.02577569 0.03271701
v -0.008803627 -0.01489237 0.04351139
v 0.02460267 -0.01489237 0.05115163
v 0.02109525 -0.02577569 0.04035717
v 0.02109525 -0.02577569 0.04035717
v 0.02460267 -0.01489237 0.05115163
v 0.03978202 -0.01489237 0.02663369
v 0.03059997 -0.02577569 0.01996215
v 0.03059997 -0.02577569 0.01996215
v 0.03978202 -0.01489237 0.02663369
v 0.04193555 -0.01288829 0.001090369
v 0.03219058 -0.02223222 0.001090495
v 0.03219058 -0.02223222 0.001090495
v 0.04193555 -0.01288829 0.001090369
v 0.04796815 -0.01489237 -0.0277271
v 0.03878567 -0.02577569 -0.02105568
v 0.04796815 -0.01489237 -0.0277271
v 0.04796809 -0.0001483816 -0.02772719
v 0.01805381 -0.0001483816 -0.05115372
v 0.01805381 -0.01489237 -0.05115372
v 0.01805381 -0.01489237 -0.05115372
v 0.01805381 -0.0001483816 -0.05115372
v -0.01316938 -0.0001483816 -0.04897097
v -0.01316938 -0.01489237 -0.04897097
v -0.01316938 -0.01489237 -0.04897097
v -0.01316938 -0.0001483816 -0.04897097
v -0.02743185 -0.0001483816 -0.02445289
v -0.02743185 -0.01489237 -0.02445289
v -0.02743185 -0.01489237 -0.02445289
v -0.02743185 -0.0001483816 -0.02445289
v -0.04796561 -0.0002294458 0.001090307
v -0.04796561 -0.01288829 0.001090307
v -0.04796561 -0.01288829 0.001090307
v -0.04796561 -0.0002294458 0.001090307
v -0.03053203 -0.0001483816 0.02663355
v -0.03053203 -0.01489237 0.02663355
v -0.03053203 -0.01489237 0.02663355
v -0.03053203 -0.0001483816 0.02663355
v -0.008803627 -0.0001483816 0.04351139
v -0.008803627 -0.01489237 0.04351139
v -0.008803627 -0.01489237 0.04351139
v -0.008803627 -0.0001483816 0.04351139
v 0.02460267 -0.0001483816 0.05115163
v 0.02460267 -0.01489237 0.05115163
v 0.02460267 -0.01489237 0.05115163
v 0.02460267 -0.0001483816 0.05115163
v 0.03978202 -0.0001483816 0.02663369
v 0.03978202 -0.01489237 0.02663369
v 0.03978202 -0.01489237 0.02663369
v 0.03978202 -0.0001483816 0.02663369
v 0.04193555 -0.0002294458 0.001090369
v 0.04193555 -0.01288829 0.001090369
v 0.04193555 -0.01288829 0.001090369
v 0.04193555 -0.0002294458 0.001090369
v 0.04796809 -0.0001483816 -0.02772719
v 0.04796815 -0.01489237 -0.0277271
v 0.04796809 -0.0001483816 -0.02772719
v 0.04569006 0.01428335 -0.02539784
v 0.0171462 0.01428335 -0.04799217
v 0.01805381 -0.0001483816 -0.05115372
v 0.01805381 -0.0001483816 -0.05115372
v 0.0171462 0.01428335 -0.04799217
v -0.01182795 0.01428335 -0.04559866
v -0.01316938 -0.0001483816 -0.04897097
v -0.01316938 -0.0001483816 -0.04897097
v -0.01182795 0.01428335 -0.04559866
v -0.02320899 0.01428335 -0.02180752
v -0.02743185 -0.0001483816 -0.02445289
v -0.02743185 -0.0001483816 -0.02445289
v -0.02320899 0.01428335 -0.02180752
v -0.04530274 0.01197195 0.00119565
v -0.04796561 -0.0002294458 0.001090307
v -0.04796561 -0.0002294458 0.001090307
v -0.04530274 0.01197195 0.00119565
v -0.02660829 0.01428335 0.02419895
v -0.03053203 -0.0001483816 0.02663355
v -0.03053203 -0.0001483816 0.02663355
v -0.02660829 0.01428335 0.02419895
v -0.007040662 0.01428335 0.0396126
v -0.008803627 -0.0001483816 0.04351139
v -0.008803627 -0.0001483816 0.04351139
v -0.007040662 0.01428335 0.0396126
v 0.02432717 0.01428335 0.04799026
v 0.02460267 -0.0001483816 0.05115163
v 0.02460267 -0.0001483816 0.05115163
v 0.02432717 0.01428335 0.04799026
v 0.0367139 0.01428335 0.02419902
v 0.03978202 -0.0001483816 0.02663369
v 0.03978202 -0.0001483816 0.02663369
v 0.0367139 0.01428335 0.02419902
v 0.03865326 0.01197195 0.001195677
v 0.04193555 -0.0002294458 0.001090369
v 0.04193555 -0.0002294458 0.001090369
v 0.03865326 0.01197195 0.001195677
v 0.04569006 0.01428335 -0.02539784
v 0.04796809 -0.0001483816 -0.02772719
v 0.04569006 0.01428335 -0.02539784
v 0.03225385 0.02437429 -0.01614877
v 0.01203766 0.02437429 -0.03256969
v 0.0171462 0.01428335 -0.04799217
v 0.0171462 0.01428335 -0.04799217
v 0.01203766 0.02437429 -0.03256969
v -0.002590918 0.02437429 -0.02139487
v -0.01182795 0.01428335 -0.04559866
v -0.01182795 0.01428335 -0.04559866
v -0.002590918 0.02437429 -0.02139487
v -0.01125203 0.02437429 -0.01279623
v -0.02320899 0.01428335 -0.02180752
v -0.02320899 0.01428335 -0.02180752
v -0.01125203 0.02437429 -0.01279623
v -0.03124348 0.02074646 0.001116473
v -0.04530274 0.01197195 0.00119565
v -0.04530274 0.01197195 0.00119565
v -0.03124348 0.02074646 0.001116473
v -0.01442605 0.02437429 0.01502924
v -0.02660829 0.01428335 0.02419895
v -0.02660829 0.01428335 0.02419895
v -0.01442605 0.02437429 0.01502924
v -0.002590948 0.02437429 0.02474509
v -0.007040662 0.01428335 0.0396126
v -0.007040662 0.01428335 0.0396126
v -0.002590948 0.02437429 0.02474509
v 0.01874239 0.02437429 0.03256768
v 0.02432717 0.01428335 0.04799026
v 0.02432717 0.01428335 0.04799026
v 0.01874239 0.02437429 0.03256768
v 0.0238724 0.02437429 0.01502926
v 0.0367139 0.01428335 0.02419902
v 0.0367139 0.01428335 0.02419902
v 0.0238724 0.02437429 0.01502926
v 0.02504546 0.02074646 0.001116467
v 0.03865326 0.01197195 0.001195677
v 0.03865326 0.01197195 0.001195677
v 0.02504546 0.02074646 0.001116467
v 0.03225385 0.02437429 -0.01614877
v 0.04569006 0.01428335 -0.02539784
v 0.03225385 0.02437429 -0.01614877
v 0.004625229 0.03397604 0.001090307
v 0.01203766 0.02437429 -0.03256969
v 0.01203766 0.02437429 -0.03256969
v 0.004625229 0.03397604 0.001090307
v -0.002590918 0.02437429 -0.02139487
v -0.002590918 0.02437429 -0.02139487
v 0.004625229 0.03397604 0.001090307
v -0.01125203 0.02437429 -0.01279623
v -0.01125203 0.02437429 -0.01279623
v 0.004625229 0.03397604 0.001090307
v -0.03124348 0.02074646 0.001116473
v -0.03124348 0.02074646 0.001116473
v 0.004625229 0.03397604 0.001090307
v -0.01442605 0.02437429 0.01502924
v -0.01442605 0.02437429 0.01502924
v 0.004625229 0.03397604 0.001090307
v -0.002590948 0.02437429 0.02474509
v -0.002590948 0.02437429 0.02474509
v 0.004625229 0.03397604 0.001090307
v 0.01874239 0.02437429 0.03256768
v 0.01874239 0.02437429 0.03256768
v 0.004625229 0.03397604 0.001090307
v 0.0238724 0.02437429 0.01502926
v 0.0238724 0.02437429 0.01502926
v 0.004625229 0.03397604 0.001090307
v 0.02504546 0.02074646 0.001116467
v 0.02504546 0.02074646 0.001116467
v 0.004625229 0.03397604 0.001090307
v 0.03225385 0.02437429 -0.01614877

vn -0.1490863 -0.9713383 -0.1851354
vn 0.001199517 -0.9999979 -0.001618451
vn 0.08423448 -0.9697196 -0.2292344
vn -0.2459797 -0.9682701 -0.04412357
vn -0.2931765 -0.9403782 0.1724424
vn -0.208029 -0.9488407 0.2375399
vn -0.04441614 -0.9552567 0.292424
vn 0.1626734 -0.9543925 0.2503443
vn 0.2344327 -0.9694238 0.07251656
vn 0.2299343 -0.9406915 -0.2494587
vn 0.375592 -0.879668 -0.2917446
vn -0.2519005 -0.6282863 -0.7360724
vn -0.2519006 -0.6282863 -0.7360723
vn -0.2519004 -0.6282863 -0.7360723
vn -0.2519006 -0.6282863 -0.7360723
vn -0.6930155 -0.6046316 -0.3926197
vn -0.6930155 -0.6046317 -0.3926197
vn -0.6930155 -0.6046316 -0.3926197
vn -0.6930154 -0.6046315 -0.3926197
vn -0.7409285 -0.5755771 0.3460289
vn -0.7409285 -0.5755771 0.3460289
vn -0.7409285 -0.5755771 0.3460289
vn -0.7409285 -0.575577 0.3460289
vn -0.7768834 -0.5947951 0.2065694
vn -0.7768835 -0.594795 0.2065694
vn -0.7768835 -0.594795 0.2065694
vn -0.7768834 -0.594795 0.2065694
vn -0.02586251 -0.628204 0.7776188
vn -0.02586251 -0.628204 0.7776188
vn -0.02586255 -0.6282039 0.7776188
vn -0.02586255 -0.6282039 0.7776188
vn 0.2541493 -0.6282305 0.7353466
vn 0.2541493 -0.6282304 0.7353466
vn 0.2541493 -0.6282305 0.7353466
vn 0.2541493 -0.6282305 0.7353466
vn 0.5424621 -0.6019085 0.5860385
vn 0.5424621 -0.6019085 0.5860385
vn 0.5424621 -0.6019085 0.5860385
vn 0.5424621 -0.6019085 0.5860385
vn 0.748293 -0.5804592 -0.3211307
vn 0.7482929 -0.5804592 -0.3211306
vn 0.7482929 -0.5804592 -0.3211306
vn 0.748293 -0.5804591 -0.3211307
vn 0.4563195 -0.6093851 -0.6483998
vn 0.4563195 -0.6093851 -0.6483998
vn 0.4563195 -0.6093851 -0.6483998
vn 0.4563195 -0.6093851 -0.6483998
vn 0.7061711 -0.5335537 -0.4654492
vn 0.7061711 -0.5335536 -0.4654492
vn 0.7061711 -0.5335537 -0.4654492
vn 0.706171 -0.5335537 -0.4654492
vn -0.3273801 -3.404639E-17 -0.9448926
vn -0.3273801 -3.404641E-17 -0.9448928
vn -0.3273801 -3.404641E-17 -0.9448928
vn -0.3273801 -3.404639E-17 -0.9448926
vn -0.8660478 1.362374E-16 -0.4999612
vn -0.8660478 1.362374E-16 -0.4999612
vn -0.8660478 1.362374E-16 -0.4999612
vn -0.8660478 1.362374E-16 -0.4999612
vn -0.9281222 2.487703E-16 0.3722756
vn -0.9281222 2.487703E-16 0.3722756
vn -0.9281222 2.487703E-16 0.3722756
vn -0.9281222 2.487703E-16 0.3722756
vn -0.9722814 2.42932E-16 0.2338138
vn -0.9722813 2.42932E-16 0.2338138
vn -0.9722814 2.42932E-16 0.2338138
vn -0.9722814 2.42932E-16 0.2338138
vn 0.006948292 1.116219E-16 0.9999759
vn 0.006948292 1.116219E-16 0.9999759
vn 0.006948399 1.116219E-16 0.9999759
vn 0.006948292 1.116219E-16 0.9999759
vn 0.3312471 3.303282E-17 0.9435441
vn 0.3312471 3.303282E-17 0.9435441
vn 0.3312471 3.303282E-17 0.9435441
vn 0.3312471 3.303282E-17 0.9435441
vn 0.6969261 -7.400498E-17 0.7171429
vn 0.6969261 -7.400498E-17 0.7171429
vn 0.6969261 -7.400498E-17 0.7171429
vn 0.6969261 -7.400498E-17 0.7171429
vn 0.9378027 -2.480842E-16 -0.3471686
vn 0.9378027 -2.480842E-16 -0.3471686
vn 0.9378027 -2.480842E-16 -0.3471686
vn 0.9378027 -2.480842E-16 -0.3471686
vn 0.6718851 -2.334112E-16 -0.7406554
vn 0.6718851 -2.334112E-16 -0.7406554
vn 0.6718851 -2.334112E-16 -0.7406554
vn 0.6718851 -2.334112E-16 -0.7406554
vn 0.7613024 -2.428783E-16 -0.6483971
vn 0.7613024 -2.428783E-16 -0.6483971
vn 0.7613024 -2.428783E-16 -0.6483971
vn 0.7613024 -2.428783E-16 -0.6483971
vn -0.3198855 0.1746853 -0.9312134
vn -0.3198855 0.1746854 -0.9312134
vn -0.3198855 0.1746854 -0.9312134
vn -0.3198855 0.1746854 -0.9312134
vn -0.8559465 0.1715972 -0.4877602
vn -0.8559465 0.1715972 -0.4877602
vn -0.8559465 0.1715972 -0.4877602
vn -0.8559465 0.1715972 -0.4877602
vn -0.8931288 0.2085121 0.398552
vn -0.8931288 0.2085121 0.3985521
vn -0.8931288 0.2085121 0.398552
vn -0.8931288 0.2085121 0.398552
vn -0.9592581 0.2012434 0.1983055
vn -0.9592581 0.2012434 0.1983054
vn -0.9592581 0.2012434 0.1983055
vn -0.9592581 0.2012434 0.1983055
vn 0.03956266 0.2046138 0.978043
vn 0.03956266 0.2046138 0.978043
vn 0.03956259 0.2046138 0.978043
vn 0.03956266 0.2046137 0.978043
vn 0.3190596 0.2330602 0.9186316
vn 0.3190595 0.2330602 0.9186317
vn 0.3190595 0.2330602 0.9186316
vn 0.3190595 0.2330602 0.9186316
vn 0.6719783 0.1921832 0.7151999
vn 0.6719783 0.1921832 0.7151999
vn 0.6719783 0.1921832 0.7151999
vn 0.6719783 0.1921832 0.7151999
vn 0.9139915 0.1541563 -0.3753069
vn 0.9139915 0.1541563 -0.3753069
vn 0.9139916 0.1541564 -0.3753069
vn 0.9139915 0.1541564 -0.3753069
vn 0.6493469 0.1974994 -0.7343994
vn 0.6493469 0.1974994 -0.7343995
vn 0.6493469 0.1974994 -0.7343995
vn 0.6493469 0.1974994 -0.7343995
vn 0.774609 0.145894 -0.6153827
vn 0.774609 0.145894 -0.6153828
vn 0.774609 0.145894 -0.6153827
vn 0.774609 0.145894 -0.6153827
vn -0.1984438 0.7799773 -0.5935112
vn -0.1984438 0.7799773 -0.5935112
vn -0.1984438 0.7799773 -0.5935112
vn -0.1984438 0.7799773 -0.5935112
vn -0.5334727 0.8281913 -0.1717732
vn -0.5334727 0.8281913 -0.1717732
vn -0.5334727 0.8281913 -0.1717732
vn -0.5334726 0.8281913 -0.1717733
vn -0.5474485 0.8118912 0.2028124
vn -0.5474485 0.8118912 0.2028124
vn -0.5474485 0.8118912 0.2028124
vn -0.5474485 0.8118912 0.2028124
vn -0.671855 0.7269667 0.1418814
vn -0.671855 0.7269667 0.1418814
vn -0.671855 0.7269667 0.1418814
vn -0.671855 0.7269667 0.1418814
vn 0.00528463 0.7647255 0.6443345
vn 0.00528467 0.7647255 0.6443344
vn 0.00528465 0.7647255 0.6443346
vn 0.00528463 0.7647255 0.6443345
vn 0.2051771 0.7623676 0.6137573
vn 0.205177 0.7623675 0.6137574
vn 0.2051771 0.7623675 0.6137574
vn 0.205177 0.7623675 0.6137574
vn 0.4299618 0.7450026 0.5100039
vn 0.4299618 0.7450026 0.5100039
vn 0.4299618 0.7450026 0.5100039
vn 0.4299618 0.7450026 0.5100039
vn 0.6014267 0.7259151 -0.3336663
vn 0.6014267 0.7259151 -0.3336663
vn 0.6014267 0.7259151 -0.3336663
vn 0.6014267 0.7259151 -0.3336663
vn 0.3247971 0.7422699 -0.5861247
vn 0.324797 0.7422701 -0.5861246
vn 0.324797 0.7422701 -0.5861247
vn 0.3247971 0.7422699 -0.5861247
vn 0.6816935 0.6514924 -0.3329438
vn 0.6816934 0.6514925 -0.3329438
vn 0.6816935 0.6514924 -0.3329438
vn 0.6816935 0.6514924 -0.3329438
vn -0.1105933 0.9341345 -0.3393552
vn -0.1105933 0.9341344 -0.3393552
vn -0.1105933 0.9341345 -0.3393552
vn -0.4890166 0.8722627 0.004527911
vn -0.4890166 0.8722627 0.004527891
vn -0.4890166 0.8722627 0.004527891
vn -0.5027413 0.8619366 0.0657008
vn -0.5027413 0.8619366 0.06570078
vn -0.5027413 0.8619366 0.06570082
vn -0.4832858 0.8643247 0.1392043
vn -0.4832858 0.8643246 0.1392043
vn -0.4832858 0.8643246 0.1392043
vn -0.06128056 0.8970631 0.4376329
vn -0.06128052 0.8970631 0.4376328
vn -0.06128056 0.8970631 0.4376329
vn 0.1394042 0.8891976 0.4357684
vn 0.1394042 0.8891977 0.4357684
vn 0.1394042 0.8891977 0.4357684
vn 0.2664201 0.8974998 0.3514462
vn 0.26642 0.8974998 0.3514462
vn 0.2664201 0.8974998 0.3514462
vn 0.3793411 0.8839179 -0.2734764
vn 0.3793411 0.8839179 -0.2734765
vn 0.3793412 0.8839179 -0.2734765
vn 0.1929992 0.7766955 -0.5995793
vn 0.1929992 0.7766956 -0.5995793
vn 0.1929992 0.7766956 -0.5995793
vn 0.6899271 0.6976168 -0.1932131
vn 0.6899272 0.6976169 -0.193213
vn 0.6899271 0.6976168 -0.1932131

vt 0.5482839 0.007647395
vt 0.5 0.15
vt 0.6264089 0.06440853
vt 0.4517161 0.00764741
vt 0.3735911 0.06440856
vt 0.34375 0.15625
vt 0.3735911 0.2480915
vt 0.4517161 0.3048526
vt 0.5482839 0.3048526
vt 0.6264089 0.2480914
vt 0.65625 0.15625
vt 0 0
vt 0 1
vt 1 1
vt 1 0
vt 0 0
vt 0 1
vt 1 1
vt 1 0
vt 0 0
vt 0 1
vt 1 1
vt 1 0
vt 0 0
vt 0 1
vt 1 1
vt 1 0
vt 0 0
vt 0 1
vt 1 1
vt 1 0
vt 0 0
vt 0 1
vt 1 1
vt 1 0
vt 0 0
vt 0 1
vt 1 1
vt 1 0
vt 0 0
vt 0 1
vt 1 1
vt 1 0
vt 0 0
vt 0 1
vt 1 1
vt 1 0
vt 0 0
vt 0 1
vt 1 1
vt 1 0
vt 0 0
vt 0 1
vt 1 1
vt 1 0
vt 0 0
vt 0 1
vt 1 1
vt 1 0
vt 0 0
vt 0 1
vt 1 1
vt 1 0
vt 0 0
vt 0 1
vt 1 1
vt 1 0
vt 0 0
vt 0 1
vt 1 1
vt 1 0
vt 0 0
vt 0 1
vt 1 1
vt 1 0
vt 0 0
vt 0 1
vt 1 1
vt 1 0
vt 0 0
vt 0 1
vt 1 1
vt 1 0
vt 0 0
vt 0 1
vt 1 1
vt 1 0
vt 0 0
vt 0 1
vt 1 1
vt 1 0
vt 0 0
vt 0 1
vt 1 1
vt 1 0
vt 0 0
vt 0 1
vt 1 1
vt 1 0
vt 0 0
vt 0 1
vt 1 1
vt 1 0
vt 0 0
vt 0 1
vt 1 1
vt 1 0
vt 0 0
vt 0 1
vt 1 1
vt 1 0
vt 0 0
vt 0 1
vt 1 1
vt 1 0
vt 0 0
vt 0 1
vt 1 1
vt 1 0
vt 0 0
vt 0 1
vt 1 1
vt 1 0
vt 0 0
vt 0 1
vt 1 1
vt 1 0
vt 0 0
vt 0 1
vt 1 1
vt 1 0
vt 0 0
vt 0 1
vt 1 1
vt 1 0
vt 0 0
vt 0 1
vt 1 1
vt 1 0
vt 0 0
vt 0 1
vt 1 1
vt 1 0
vt 0 0
vt 0 1
vt 1 1
vt 1 0
vt 0 0
vt 0 1
vt 1 1
vt 1 0
vt 0 0
vt 0 1
vt 1 1
vt 1 0
vt 0 0
vt 0 1
vt 1 1
vt 1 0
vt 0 0
vt 0 1
vt 1 1
vt 1 0
vt 0 0
vt 0 1
vt 1 1
vt 1 0
vt 0 0
vt 0 1
vt 1 1
vt 1 0
vt 0 0
vt 0.5 1
vt 1 0
vt 0 0
vt 0.5 1
vt 1 0
vt 0 0
vt 0.5 1
vt 1 0
vt 0 0
vt 0.5 1
vt 1 0
vt 0 0
vt 0.5 1
vt 1 0
vt 0 0
vt 0.5 1
vt 1 0
vt 0 0
vt 0.5 1
vt 1 0
vt 0 0
vt 0.5 1
vt 1 0
vt 0 0
vt 0.5 1
vt 1 0
vt 0 0
vt 0.5 1
vt 1 0

g pCylinder8_32_3725_191
usemtl pCylinder8_32_3725_191
usemap pCylinder8_32_3725_191
f 1/1/1 3/3/3 2/2/2
f 4/4/4 1/1/1 2/2/2
f 5/5/5 4/4/4 2/2/2
f 6/6/6 5/5/5 2/2/2
f 7/7/7 6/6/6 2/2/2
f 8/8/8 7/7/7 2/2/2
f 9/9/9 8/8/8 2/2/2
f 10/10/10 9/9/9 2/2/2
f 11/11/11 10/10/10 2/2/2
f 3/3/3 11/11/11 2/2/2
f 12/12/12 14/14/14 13/13/13
f 12/12/12 15/15/15 14/14/14
f 16/16/16 18/18/18 17/17/17
f 16/16/16 19/19/19 18/18/18
f 20/20/20 22/22/22 21/21/21
f 20/20/20 23/23/23 22/22/22
f 24/24/24 26/26/26 25/25/25
f 24/24/24 27/27/27 26/26/26
f 28/28/28 30/30/30 29/29/29
f 28/28/28 31/31/31 30/30/30
f 32/32/32 34/34/34 33/33/33
f 32/32/32 35/35/35 34/34/34
f 36/36/36 38/38/38 37/37/37
f 36/36/36 39/39/39 38/38/38
f 40/40/40 42/42/42 41/41/41
f 40/40/40 43/43/43 42/42/42
f 44/44/44 46/46/46 45/45/45
f 44/44/44 47/47/47 46/46/46
f 48/48/48 50/50/50 49/49/49
f 48/48/48 51/51/51 50/50/50
f 52/52/52 54/54/54 53/53/53
f 52/52/52 55/55/55 54/54/54
f 56/56/56 58/58/58 57/57/57
f 56/56/56 59/59/59 58/58/58
f 60/60/60 62/62/62 61/61/61
f 60/60/60 63/63/63 62/62/62
f 64/64/64 66/66/66 65/65/65
f 64/64/64 67/67/67 66/66/66
f 68/68/68 70/70/70 69/69/69
f 68/68/68 71/71/71 70/70/70
f 72/72/72 74/74/74 73/73/73
f 72/72/72 75/75/75 74/74/74
f 76/76/76 78/78/78 77/77/77
f 76/76/76 79/79/79 78/78/78
f 80/80/80 82/82/82 81/81/81
f 80/80/80 83/83/83 82/82/82
f 84/84/84 86/86/86 85/85/85
f 84/84/84 87/87/87 86/86/86
f 88/88/88 90/90/90 89/89/89
f 88/88/88 91/91/91 90/90/90
f 92/92/92 94/94/94 93/93/93
f 92/92/92 95/95/95 94/94/94
f 96/96/96 98/98/98 97/97/97
f 96/96/96 99/99/99 98/98/98
f 100/100/100 102/102/102 101/101/101
f 100/100/100 103/103/103 102/102/102
f 104/104/104 106/106/106 105/105/105
f 104/104/104 107/107/107 106/106/106
f 108/108/108 110/110/110 109/109/109
f 108/108/108 111/111/111 110/110/110
f 112/112/112 114/114/114 113/113/113
f 112/112/112 115/115/115 114/114/114
f 116/116/116 118/118/118 117/117/117
f 116/116/116 119/119/119 118/118/118
f 120/120/120 122/122/122 121/121/121
f 120/120/120 123/123/123 122/122/122
f 124/124/124 126/126/126 125/125/125
f 124/124/124 127/127/127 126/126/126
f 128/128/128 130/130/130 129/129/129
f 128/128/128 131/131/131 130/130/130
f 132/132/132 134/134/134 133/133/133
f 132/132/132 135/135/135 134/134/134
f 136/136/136 138/138/138 137/137/137
f 136/136/136 139/139/139 138/138/138
f 140/140/140 142/142/142 141/141/141
f 140/140/140 143/143/143 142/142/142
f 144/144/144 146/146/146 145/145/145
f 144/144/144 147/147/147 146/146/146
f 148/148/148 150/150/150 149/149/149
f 148/148/148 151/151/151 150/150/150
f 152/152/152 154/154/154 153/153/153
f 152/152/152 155/155/155 154/154/154
f 156/156/156 158/158/158 157/157/157
f 156/156/156 159/159/159 158/158/158
f 160/160/160 162/162/162 161/161/161
f 160/160/160 163/163/163 162/162/162
f 164/164/164 166/166/166 165/165/165
f 164/164/164 167/167/167 166/166/166
f 168/168/168 170/170/170 169/169/169
f 168/168/168 171/171/171 170/170/170
f 172/172/172 174/174/174 173/173/173
f 175/175/175 177/177/177 176/176/176
f 178/178/178 180/180/180 179/179/179
f 181/181/181 183/183/183 182/182/182
f 184/184/184 186/186/186 185/185/185
f 187/187/187 189/189/189 188/188/188
f 190/190/190 192/192/192 191/191/191
f 193/193/193 195/195/195 194/194/194
f 196/196/196 198/198/198 197/197/197
f 199/199/199 201/201/201 200/200/200
