#pCylinder19_11_3911_183.obj

v 0.4881445 -0.215756 -0.1400805
v 0.423841 -0.1185484 -0.3230794
v 0.3795445 -0.1185487 -0.3552578
v 0.4436797 -0.2157557 -0.1742522
v 0.4436797 -0.2157557 -0.1742522
v 0.3795445 -0.1185487 -0.3552578
v 0.3248005 -0.1185484 -0.3552594
v 0.3887157 -0.2157559 -0.1742584
v 0.3887157 -0.2157559 -0.1742584
v 0.3248005 -0.1185484 -0.3552594
v 0.2804979 -0.1185484 -0.3230787
v 0.3442522 -0.215756 -0.1400832
v 0.3442522 -0.215756 -0.1400832
v 0.2804979 -0.1185484 -0.3230787
v 0.2635888 -0.1185481 -0.2710142
v 0.3272642 -0.2157559 -0.0847941
v 0.3272642 -0.2157559 -0.0847941
v 0.2635888 -0.1185481 -0.2710142
v 0.2805034 -0.1185485 -0.2189541
v 0.3442537 -0.215756 -0.02950404
v 0.3442537 -0.215756 -0.02950404
v 0.2805034 -0.1185485 -0.2189541
v 0.3247975 -0.1185484 -0.186762
v 0.3887126 -0.2157559 0.004664084
v 0.3887126 -0.2157559 0.004664084
v 0.3247975 -0.1185484 -0.186762
v 0.3795425 -0.1185483 -0.1867629
v 0.4436772 -0.215756 0.004663686
v 0.4436772 -0.215756 0.004663686
v 0.3795425 -0.1185483 -0.1867629
v 0.4238319 -0.1185485 -0.2189544
v 0.488139 -0.2157561 -0.02950454
v 0.488139 -0.2157561 -0.02950454
v 0.4238319 -0.1185485 -0.2189544
v 0.4407492 -0.1185479 -0.2710141
v 0.5051287 -0.2157559 -0.0848006
v 0.5051287 -0.2157559 -0.0848006
v 0.4407492 -0.1185479 -0.2710141
v 0.423841 -0.1185484 -0.3230794
v 0.4881445 -0.215756 -0.1400805
v 0.423841 -0.1185484 -0.3230794
v 0.3385348 -0.03329383 -0.3396373
v 0.2971982 -0.03329409 -0.3696711
v 0.3795445 -0.1185487 -0.3552578
v 0.3795445 -0.1185487 -0.3552578
v 0.2971982 -0.03329409 -0.3696711
v 0.2460955 -0.03329394 -0.3696702
v 0.3248005 -0.1185484 -0.3552594
v 0.3248005 -0.1185484 -0.3552594
v 0.2460955 -0.03329394 -0.3696702
v 0.2047596 -0.03329458 -0.3396338
v 0.2804979 -0.1185484 -0.3230787
v 0.2804979 -0.1185484 -0.3230787
v 0.2047596 -0.03329458 -0.3396338
v 0.1889631 -0.03329451 -0.2910393
v 0.2635888 -0.1185481 -0.2710142
v 0.2635888 -0.1185481 -0.2710142
v 0.1889631 -0.03329451 -0.2910393
v 0.2047497 -0.03329401 -0.2424465
v 0.2805034 -0.1185485 -0.2189541
v 0.2805034 -0.1185485 -0.2189541
v 0.2047497 -0.03329401 -0.2424465
v 0.2460982 -0.03329445 -0.2124036
v 0.3247975 -0.1185484 -0.186762
v 0.3247975 -0.1185484 -0.186762
v 0.2460982 -0.03329445 -0.2124036
v 0.2971958 -0.03329409 -0.2124125
v 0.3795425 -0.1185483 -0.1867629
v 0.3795425 -0.1185483 -0.1867629
v 0.2971958 -0.03329409 -0.2124125
v 0.3385365 -0.03329446 -0.2424451
v 0.4238319 -0.1185485 -0.2189544
v 0.4238319 -0.1185485 -0.2189544
v 0.3385365 -0.03329446 -0.2424451
v 0.3543262 -0.03329435 -0.2910406
v 0.4407492 -0.1185479 -0.2710141
v 0.4407492 -0.1185479 -0.2710141
v 0.3543262 -0.03329435 -0.2910406
v 0.3385348 -0.03329383 -0.3396373
v 0.423841 -0.1185484 -0.3230794
v 0.3385348 -0.03329383 -0.3396373
v 0.2652834 0.05132761 -0.2867086
v 0.2255035 0.05132832 -0.3156082
v 0.2971982 -0.03329409 -0.3696711
v 0.2971982 -0.03329409 -0.3696711
v 0.2255035 0.05132832 -0.3156082
v 0.1763352 0.0513282 -0.3156108
v 0.2460955 -0.03329394 -0.3696702
v 0.2460955 -0.03329394 -0.3696702
v 0.1763352 0.0513282 -0.3156108
v 0.1365461 0.05132864 -0.2867078
v 0.2047596 -0.03329458 -0.3396338
v 0.2047596 -0.03329458 -0.3396338
v 0.1365461 0.05132864 -0.2867078
v 0.1213537 0.05132859 -0.2399448
v 0.1889631 -0.03329451 -0.2910393
v 0.1889631 -0.03329451 -0.2910393
v 0.1213537 0.05132859 -0.2399448
v 0.1365567 0.05132851 -0.1931851
v 0.2047497 -0.03329401 -0.2424465
v 0.2047497 -0.03329401 -0.2424465
v 0.1365567 0.05132851 -0.1931851
v 0.1763282 0.05132767 -0.1642796
v 0.2460982 -0.03329445 -0.2124036
v 0.2460982 -0.03329445 -0.2124036
v 0.1763282 0.05132767 -0.1642796
v 0.2254974 0.05132808 -0.1642794
v 0.2971958 -0.03329409 -0.2124125
v 0.2971958 -0.03329409 -0.2124125
v 0.2254974 0.05132808 -0.1642794
v 0.2652747 0.05132858 -0.1931894
v 0.3385365 -0.03329446 -0.2424451
v 0.3385365 -0.03329446 -0.2424451
v 0.2652747 0.05132858 -0.1931894
v 0.2804722 0.05132813 -0.2399444
v 0.3543262 -0.03329435 -0.2910406
v 0.3543262 -0.03329435 -0.2910406
v 0.2804722 0.05132813 -0.2399444
v 0.2652834 0.05132761 -0.2867086
v 0.3385348 -0.03329383 -0.3396373
v 0.2652834 0.05132761 -0.2867086
v 0.2158117 0.1185074 -0.04961251
v 0.1843085 0.118507 -0.07250489
v 0.2255035 0.05132832 -0.3156082
v 0.2255035 0.05132832 -0.3156082
v 0.1843085 0.118507 -0.07250489
v 0.1453469 0.118507 -0.07250219
v 0.1763352 0.0513282 -0.3156108
v 0.1763352 0.0513282 -0.3156108
v 0.1453469 0.118507 -0.07250219
v 0.1138324 0.1185072 -0.04961121
v 0.1365461 0.05132864 -0.2867078
v 0.1365461 0.05132864 -0.2867078
v 0.1138324 0.1185072 -0.04961121
v 0.1017918 0.1185072 -0.01256577
v 0.1213537 0.05132859 -0.2399448
v 0.1213537 0.05132859 -0.2399448
v 0.1017918 0.1185072 -0.01256577
v 0.1138294 0.1185069 0.02447991
v 0.1365567 0.05132851 -0.1931851
v 0.1365567 0.05132851 -0.1931851
v 0.1138294 0.1185069 0.02447991
v 0.1453454 0.1185069 0.04737893
v 0.1763282 0.05132767 -0.1642796
v 0.1763282 0.05132767 -0.1642796
v 0.1453454 0.1185069 0.04737893
v 0.1842985 0.1185068 0.04738218
v 0.2254974 0.05132808 -0.1642794
v 0.2254974 0.05132808 -0.1642794
v 0.1842985 0.1185068 0.04738218
v 0.2158156 0.1185072 0.02448175
v 0.2652747 0.05132858 -0.1931894
v 0.2652747 0.05132858 -0.1931894
v 0.2158156 0.1185072 0.02448175
v 0.227856 0.118507 -0.01256579
v 0.2804722 0.05132813 -0.2399444
v 0.2804722 0.05132813 -0.2399444
v 0.227856 0.118507 -0.01256579
v 0.2158117 0.1185074 -0.04961251
v 0.2652834 0.05132761 -0.2867086
v 0.2158117 0.1185074 -0.04961251
v 0.1846739 0.2104086 0.4701317
v 0.160619 0.2104085 0.4526481
v 0.1843085 0.118507 -0.07250489
v 0.1843085 0.118507 -0.07250489
v 0.160619 0.2104085 0.4526481
v 0.1308843 0.2104089 0.452648
v 0.1453469 0.118507 -0.07250219
v 0.1453469 0.118507 -0.07250219
v 0.1308843 0.2104089 0.452648
v 0.1068203 0.2104093 0.4701244
v 0.1138324 0.1185072 -0.04961121
v 0.1138324 0.1185072 -0.04961121
v 0.1068203 0.2104093 0.4701244
v 0.09763732 0.2104087 0.4984042
v 0.1017918 0.1185072 -0.01256577
v 0.1017918 0.1185072 -0.01256577
v 0.09763732 0.2104087 0.4984042
v 0.1068265 0.2104088 0.526682
v 0.1138294 0.1185069 0.02447991
v 0.1138294 0.1185069 0.02447991
v 0.1068265 0.2104088 0.526682
v 0.1308828 0.2104089 0.5441564
v 0.1453454 0.1185069 0.04737893
v 0.1453454 0.1185069 0.04737893
v 0.1308828 0.2104089 0.5441564
v 0.1606179 0.210409 0.5441607
v 0.1842985 0.1185068 0.04738218
v 0.1842985 0.1185068 0.04738218
v 0.1606179 0.210409 0.5441607
v 0.184675 0.2104086 0.5266812
v 0.2158156 0.1185072 0.02448175
v 0.2158156 0.1185072 0.02448175
v 0.184675 0.2104086 0.5266812
v 0.1938588 0.2104095 0.4983989
v 0.227856 0.118507 -0.01256579
v 0.227856 0.118507 -0.01256579
v 0.1938588 0.2104095 0.4983989
v 0.1846739 0.2104086 0.4701317
v 0.2158117 0.1185074 -0.04961251
v 0.1846739 0.2104086 0.4701317
v 0.2442383 0.3175457 0.5633452
v 0.2351029 0.3175454 0.5567107
v 0.160619 0.2104085 0.4526481
v 0.160619 0.2104085 0.4526481
v 0.2351029 0.3175454 0.5567107
v 0.2238042 0.3175455 0.5567085
v 0.1308843 0.2104089 0.452648
v 0.1308843 0.2104089 0.452648
v 0.2238042 0.3175455 0.5567085
v 0.2146629 0.3175453 0.5633478
v 0.1068203 0.2104093 0.4701244
v 0.1068203 0.2104093 0.4701244
v 0.2146629 0.3175453 0.5633478
v 0.2111712 0.3175457 0.5740889
v 0.09763732 0.2104087 0.4984042
v 0.09763732 0.2104087 0.4984042
v 0.2111712 0.3175457 0.5740889
v 0.2146673 0.3175451 0.5848349
v 0.1068265 0.2104088 0.526682
v 0.1068265 0.2104088 0.526682
v 0.2146673 0.3175451 0.5848349
v 0.2238018 0.3175451 0.5914719
v 0.1308828 0.2104089 0.5441564
v 0.1308828 0.2104089 0.5441564
v 0.2238018 0.3175451 0.5914719
v 0.2350945 0.3175453 0.5914685
v 0.1606179 0.210409 0.5441607
v 0.1606179 0.210409 0.5441607
v 0.2350945 0.3175453 0.5914685
v 0.2442359 0.3175457 0.5848313
v 0.184675 0.2104086 0.5266812
v 0.184675 0.2104086 0.5266812
v 0.2442359 0.3175457 0.5848313
v 0.2477212 0.317546 0.5740933
v 0.1938588 0.2104095 0.4983989
v 0.1938588 0.2104095 0.4983989
v 0.2477212 0.317546 0.5740933
v 0.2442383 0.3175457 0.5633452
v 0.1846739 0.2104086 0.4701317
v 0.4436797 -0.2157557 -0.1742522
v 0.4161994 -0.215756 -0.08479455
v 0.4881445 -0.215756 -0.1400805
v 0.3887157 -0.2157559 -0.1742584
v 0.4161994 -0.215756 -0.08479455
v 0.4436797 -0.2157557 -0.1742522
v 0.3442522 -0.215756 -0.1400832
v 0.4161994 -0.215756 -0.08479455
v 0.3887157 -0.2157559 -0.1742584
v 0.3272642 -0.2157559 -0.0847941
v 0.4161994 -0.215756 -0.08479455
v 0.3442522 -0.215756 -0.1400832
v 0.3442537 -0.215756 -0.02950404
v 0.4161994 -0.215756 -0.08479455
v 0.3272642 -0.2157559 -0.0847941
v 0.3887126 -0.2157559 0.004664084
v 0.4161994 -0.215756 -0.08479455
v 0.3442537 -0.215756 -0.02950404
v 0.4436772 -0.215756 0.004663686
v 0.4161994 -0.215756 -0.08479455
v 0.3887126 -0.2157559 0.004664084
v 0.488139 -0.2157561 -0.02950454
v 0.4161994 -0.215756 -0.08479455
v 0.4436772 -0.215756 0.004663686
v 0.5051287 -0.2157559 -0.0848006
v 0.4161994 -0.215756 -0.08479455
v 0.488139 -0.2157561 -0.02950454
v 0.4881445 -0.215756 -0.1400805
v 0.4161994 -0.215756 -0.08479455
v 0.5051287 -0.2157559 -0.0848006

vn 0.5134141 -0.553368 -0.6558886
vn 0.5134141 -0.553368 -0.6558886
vn 0.5134141 -0.553368 -0.6558886
vn 0.5134141 -0.553368 -0.6558886
vn -0.1078638 -0.7953653 -0.5964558
vn -0.1078638 -0.7953653 -0.5964558
vn -0.1078638 -0.7953653 -0.5964558
vn -0.1078638 -0.7953653 -0.5964558
vn -0.6863061 -0.6781129 -0.2629577
vn -0.6863061 -0.6781129 -0.2629577
vn -0.6863061 -0.678113 -0.2629577
vn -0.6863061 -0.678113 -0.2629578
vn -0.9404475 -0.3108588 0.1375695
vn -0.9404475 -0.3108588 0.1375695
vn -0.9404475 -0.3108588 0.1375695
vn -0.9404475 -0.3108587 0.1375695
vn -0.8764728 0.1318455 0.4630465
vn -0.8764728 0.1318455 0.4630466
vn -0.8764728 0.1318455 0.4630465
vn -0.8764728 0.1318455 0.4630465
vn -0.5154606 0.5587562 0.6496859
vn -0.5154607 0.5587562 0.6496859
vn -0.5154607 0.5587562 0.6496859
vn -0.5154607 0.5587562 0.6496859
vn 0.1046879 0.8032193 0.5864121
vn 0.1046879 0.8032193 0.5864121
vn 0.1046879 0.8032193 0.5864121
vn 0.1046879 0.8032193 0.5864121
vn 0.6838022 0.6830987 0.2564968
vn 0.6838022 0.6830987 0.2564968
vn 0.6838022 0.6830988 0.2564968
vn 0.6838022 0.6830987 0.2564968
vn 0.9398702 0.3120424 -0.1388292
vn 0.9398702 0.3120424 -0.1388292
vn 0.9398702 0.3120424 -0.1388292
vn 0.9398702 0.3120424 -0.1388292
vn 0.8759898 -0.1306266 -0.4643044
vn 0.8759898 -0.1306266 -0.4643044
vn 0.8759898 -0.1306266 -0.4643044
vn 0.8759898 -0.1306266 -0.4643044
vn 0.4512078 -0.4358256 -0.7787603
vn 0.4512077 -0.4358256 -0.7787603
vn 0.4512078 -0.4358256 -0.7787603
vn 0.4512078 -0.4358256 -0.7787603
vn -0.1560951 -0.6545775 -0.7397044
vn -0.1560951 -0.6545775 -0.7397044
vn -0.1560951 -0.6545775 -0.7397044
vn -0.1560951 -0.6545775 -0.7397044
vn -0.7127939 -0.5908974 -0.3778425
vn -0.7127939 -0.5908974 -0.3778425
vn -0.712794 -0.5908974 -0.3778425
vn -0.712794 -0.5908974 -0.3778425
vn -0.9494386 -0.2949132 0.1076684
vn -0.9494386 -0.2949132 0.1076684
vn -0.9494386 -0.2949132 0.1076685
vn -0.9494386 -0.2949132 0.1076685
vn -0.8481713 0.08409192 0.5230048
vn -0.8481713 0.08409192 0.5230048
vn -0.8481713 0.08409192 0.5230048
vn -0.8481714 0.08409192 0.5230048
vn -0.456134 0.4467958 0.7696202
vn -0.456134 0.4467958 0.7696202
vn -0.456134 0.4467958 0.7696202
vn -0.456134 0.4467958 0.7696202
vn 0.152687 0.666458 0.72974
vn 0.152687 0.666458 0.72974
vn 0.152687 0.666458 0.72974
vn 0.152687 0.666458 0.72974
vn 0.7097197 0.6015447 0.3666632
vn 0.7097197 0.6015447 0.3666632
vn 0.7097197 0.6015447 0.3666632
vn 0.7097197 0.6015447 0.3666632
vn 0.9451758 0.3043479 -0.1183859
vn 0.9451758 0.3043479 -0.118386
vn 0.9451758 0.3043479 -0.1183859
vn 0.9451758 0.3043479 -0.1183859
vn 0.8430796 -0.07440568 -0.5326167
vn 0.8430796 -0.07440566 -0.5326167
vn 0.8430796 -0.07440569 -0.5326168
vn 0.8430796 -0.07440569 -0.5326168
vn 0.4289134 -0.3865882 -0.8164452
vn 0.4289134 -0.3865882 -0.8164452
vn 0.4289134 -0.3865882 -0.8164452
vn 0.4289134 -0.3865882 -0.8164452
vn -0.1761457 -0.5798905 -0.7954242
vn -0.1761457 -0.5798905 -0.7954242
vn -0.1761457 -0.5798905 -0.7954242
vn -0.1761457 -0.5798905 -0.7954242
vn -0.7266357 -0.531283 -0.4355904
vn -0.7266356 -0.531283 -0.4355904
vn -0.7266357 -0.531283 -0.4355904
vn -0.7266357 -0.531283 -0.4355904
vn -0.9592432 -0.2708873 0.08045148
vn -0.9592432 -0.2708873 0.08045148
vn -0.9592433 -0.2708873 0.08045153
vn -0.9592432 -0.2708873 0.08045148
vn -0.8408603 0.07045463 0.536647
vn -0.8408603 0.07045463 0.536647
vn -0.8408603 0.07045466 0.536647
vn -0.8408603 0.07045464 0.536647
vn -0.431746 0.3924738 0.8121327
vn -0.4317459 0.392474 0.8121328
vn -0.431746 0.3924738 0.8121327
vn -0.4317459 0.392474 0.8121328
vn 0.1745798 0.5864723 0.7909312
vn 0.1745798 0.5864724 0.7909312
vn 0.1745798 0.5864724 0.7909312
vn 0.1745798 0.5864723 0.7909312
vn 0.7255817 0.5372448 0.429999
vn 0.7255818 0.5372448 0.429999
vn 0.7255816 0.5372449 0.4299991
vn 0.7255817 0.5372448 0.429999
vn 0.9572795 0.2760179 -0.08619788
vn 0.9572795 0.2760179 -0.0861979
vn 0.9572795 0.2760179 -0.0861979
vn 0.9572795 0.2760179 -0.0861979
vn 0.8380708 -0.06528325 -0.5416415
vn 0.8380708 -0.06528325 -0.5416415
vn 0.8380708 -0.06528325 -0.5416415
vn 0.8380708 -0.06528324 -0.5416415
vn 0.3356875 -0.2000259 -0.9204909
vn 0.3356875 -0.2000259 -0.920491
vn 0.3356874 -0.2000258 -0.9204909
vn 0.3356875 -0.2000259 -0.9204909
vn -0.2290691 -0.3074584 -0.9235783
vn -0.2290691 -0.3074584 -0.9235782
vn -0.2290691 -0.3074584 -0.9235782
vn -0.2290691 -0.3074584 -0.9235783
vn -0.7348585 -0.3034678 -0.6065395
vn -0.7348585 -0.3034678 -0.6065395
vn -0.7348586 -0.3034678 -0.6065395
vn -0.7348586 -0.3034678 -0.6065395
vn -0.9848774 -0.1707076 -0.02958713
vn -0.9848775 -0.1707076 -0.02958713
vn -0.9848775 -0.1707076 -0.02958709
vn -0.9848775 -0.1707076 -0.02958709
vn -0.825186 0.04306955 0.5632167
vn -0.825186 0.04306955 0.5632167
vn -0.825186 0.04306954 0.5632166
vn -0.825186 0.04306955 0.5632167
vn -0.3551404 0.2367942 0.904325
vn -0.3551403 0.2367942 0.9043251
vn -0.3551404 0.2367942 0.904325
vn -0.3551403 0.2367942 0.9043251
vn 0.2228527 0.3476925 0.9107395
vn 0.2228527 0.3476925 0.9107395
vn 0.2228527 0.3476925 0.9107395
vn 0.2228527 0.3476925 0.9107395
vn 0.7378609 0.3432015 0.5811832
vn 0.737861 0.3432014 0.5811831
vn 0.737861 0.3432015 0.5811833
vn 0.737861 0.3432015 0.5811832
vn 0.9785241 0.205962 -0.008381936
vn 0.9785241 0.205962 -0.008381969
vn 0.9785241 0.205962 -0.008381936
vn 0.9785241 0.205962 -0.008381936
vn 0.8041433 -0.009540229 -0.5943589
vn 0.8041433 -0.009540229 -0.5943589
vn 0.8041432 -0.009540244 -0.5943589
vn 0.8041432 -0.009540244 -0.5943589
vn 0.2762673 -0.09197962 -0.9566693
vn 0.2762673 -0.09197967 -0.9566693
vn 0.2762672 -0.09197973 -0.9566693
vn 0.2762673 -0.09197973 -0.9566693
vn -0.2489601 -0.1468416 -0.9573173
vn -0.2489601 -0.1468417 -0.9573173
vn -0.2489601 -0.1468416 -0.9573173
vn -0.2489601 -0.1468416 -0.9573173
vn -0.7116234 -0.1562709 -0.6849609
vn -0.7116234 -0.156271 -0.684961
vn -0.7116234 -0.156271 -0.684961
vn -0.7116234 -0.156271 -0.684961
vn -0.9895054 -0.1030409 -0.1013
vn -0.9895054 -0.1030409 -0.1013
vn -0.9895054 -0.1030409 -0.1013
vn -0.9895054 -0.1030409 -0.1013
vn -0.8055298 0.01165018 0.5924408
vn -0.8055298 0.01165018 0.5924408
vn -0.8055298 0.01165018 0.5924408
vn -0.8055298 0.01165014 0.5924407
vn -0.2881241 0.1132485 0.9508729
vn -0.2881241 0.1132485 0.9508729
vn -0.2881241 0.1132485 0.9508729
vn -0.2881241 0.1132485 0.9508729
vn 0.2466054 0.168392 0.9543741
vn 0.2466054 0.168392 0.9543741
vn 0.2466054 0.168392 0.9543741
vn 0.2466054 0.168392 0.9543741
vn 0.7166686 0.1789499 0.6740645
vn 0.7166687 0.1789499 0.6740645
vn 0.7166686 0.1789499 0.6740645
vn 0.7166687 0.1789499 0.6740645
vn 0.989017 0.1259503 0.07734349
vn 0.989017 0.1259502 0.07734345
vn 0.989017 0.1259502 0.07734352
vn 0.989017 0.1259502 0.07734348
vn 0.7908213 0.01008352 -0.6119641
vn 0.7908213 0.0100835 -0.6119641
vn 0.7908213 0.0100835 -0.6119641
vn 0.7908213 0.0100835 -0.6119641
vn 0.4533129 -0.440293 -0.7750159
vn 0.4533128 -0.440293 -0.7750159
vn 0.4533128 -0.440293 -0.7750159
vn 0.4533128 -0.440293 -0.7750159
vn -0.183696 -0.548582 -0.8156675
vn -0.183696 -0.548582 -0.8156676
vn -0.183696 -0.548582 -0.8156675
vn -0.183696 -0.548582 -0.8156675
vn -0.7383534 -0.4209936 -0.5268764
vn -0.7383534 -0.4209936 -0.5268763
vn -0.7383534 -0.4209936 -0.5268764
vn -0.7383534 -0.4209937 -0.5268764
vn -0.9884353 -0.1364042 -0.06625445
vn -0.9884353 -0.1364042 -0.06625448
vn -0.9884353 -0.1364042 -0.06625447
vn -0.9884353 -0.1364042 -0.06625445
vn -0.8951031 0.1970314 0.3999614
vn -0.8951031 0.1970314 0.3999614
vn -0.895103 0.1970314 0.3999614
vn -0.895103 0.1970314 0.3999614
vn -0.4719467 0.4842726 0.7367132
vn -0.4719467 0.4842726 0.7367132
vn -0.4719468 0.4842726 0.7367132
vn -0.4719467 0.4842726 0.7367132
vn 0.1714609 0.5983559 0.7826694
vn 0.1714609 0.5983559 0.7826694
vn 0.1714609 0.5983559 0.7826694
vn 0.1714609 0.5983559 0.7826694
vn 0.7353737 0.4675478 0.4905348
vn 0.7353738 0.4675478 0.4905348
vn 0.7353737 0.4675478 0.4905348
vn 0.7353738 0.4675478 0.4905348
vn 0.9840937 0.1760751 0.02360348
vn 0.9840937 0.1760751 0.02360352
vn 0.9840937 0.1760751 0.02360352
vn 0.9840937 0.1760751 0.02360352
vn 0.8820723 -0.158704 -0.4435781
vn 0.8820723 -0.158704 -0.4435781
vn 0.8820723 -0.158704 -0.4435781
vn 0.8820723 -0.158704 -0.4435782
vn 0.2392658 -0.6455069 0.7253088
vn 0.2392658 -0.6455069 0.7253088
vn 0.2392658 -0.6455069 0.7253088
vn 0.239356 -0.6454825 0.7253007
vn 0.239356 -0.6454825 0.7253007
vn 0.239356 -0.6454825 0.7253007
vn 0.2392896 -0.6454713 0.7253326
vn 0.2392896 -0.6454713 0.7253326
vn 0.2392896 -0.6454713 0.7253326
vn 0.2392851 -0.6454641 0.7253404
vn 0.2392851 -0.6454641 0.7253404
vn 0.2392851 -0.6454641 0.7253404
vn 0.2392851 -0.6454641 0.7253404
vn 0.2392851 -0.6454641 0.7253404
vn 0.2392851 -0.6454641 0.7253404
vn 0.239292 -0.6454563 0.7253451
vn 0.239292 -0.6454563 0.7253451
vn 0.239292 -0.6454563 0.7253451
vn 0.2393017 -0.6454527 0.725345
vn 0.2393017 -0.6454527 0.725345
vn 0.2393017 -0.6454527 0.725345
vn 0.2393105 -0.6454552 0.7253399
vn 0.2393105 -0.6454552 0.7253399
vn 0.2393105 -0.6454552 0.7253399
vn 0.239315 -0.6454624 0.7253321
vn 0.239315 -0.6454624 0.7253321
vn 0.239315 -0.6454624 0.7253321
vn 0.239315 -0.6454624 0.7253321
vn 0.239315 -0.6454624 0.7253321
vn 0.239315 -0.6454624 0.7253321

vt 0 0
vt 0 1
vt 1 1
vt 1 0
vt 0 0
vt 0 1
vt 1 1
vt 1 0
vt 0 0
vt 0 1
vt 1 1
vt 1 0
vt 0 0
vt 0 1
vt 1 1
vt 1 0
vt 0 0
vt 0 1
vt 1 1
vt 1 0
vt 0 0
vt 0 1
vt 1 1
vt 1 0
vt 0 0
vt 0 1
vt 1 1
vt 1 0
vt 0 0
vt 0 1
vt 1 1
vt 1 0
vt 0 0
vt 0 1
vt 1 1
vt 1 0
vt 0 0
vt 0 1
vt 1 1
vt 1 0
vt 0 0
vt 0 1
vt 1 1
vt 1 0
vt 0 0
vt 0 1
vt 1 1
vt 1 0
vt 0 0
vt 0 1
vt 1 1
vt 1 0
vt 0 0
vt 0 1
vt 1 1
vt 1 0
vt 0 0
vt 0 1
vt 1 1
vt 1 0
vt 0 0
vt 0 1
vt 1 1
vt 1 0
vt 0 0
vt 0 1
vt 1 1
vt 1 0
vt 0 0
vt 0 1
vt 1 1
vt 1 0
vt 0 0
vt 0 1
vt 1 1
vt 1 0
vt 0 0
vt 0 1
vt 1 1
vt 1 0
vt 0 0
vt 0 1
vt 1 1
vt 1 0
vt 0 0
vt 0 1
vt 1 1
vt 1 0
vt 0 0
vt 0 1
vt 1 1
vt 1 0
vt 0 0
vt 0 1
vt 1 1
vt 1 0
vt 0 0
vt 0 1
vt 1 1
vt 1 0
vt 0 0
vt 0 1
vt 1 1
vt 1 0
vt 0 0
vt 0 1
vt 1 1
vt 1 0
vt 0 0
vt 0 1
vt 1 1
vt 1 0
vt 0 0
vt 0 1
vt 1 1
vt 1 0
vt 0 0
vt 0 1
vt 1 1
vt 1 0
vt 0 0
vt 0 1
vt 1 1
vt 1 0
vt 0 0
vt 0 1
vt 1 1
vt 1 0
vt 0 0
vt 0 1
vt 1 1
vt 1 0
vt 0 0
vt 0 1
vt 1 1
vt 1 0
vt 0 0
vt 0 1
vt 1 1
vt 1 0
vt 0 0
vt 0 1
vt 1 1
vt 1 0
vt 0 0
vt 0 1
vt 1 1
vt 1 0
vt 0 0
vt 0 1
vt 1 1
vt 1 0
vt 0 0
vt 0 1
vt 1 1
vt 1 0
vt 0 0
vt 0 1
vt 1 1
vt 1 0
vt 0 0
vt 0 1
vt 1 1
vt 1 0
vt 0 0
vt 0 1
vt 1 1
vt 1 0
vt 0 0
vt 0 1
vt 1 1
vt 1 0
vt 0 0
vt 0 1
vt 1 1
vt 1 0
vt 0 0
vt 0 1
vt 1 1
vt 1 0
vt 0 0
vt 0 1
vt 1 1
vt 1 0
vt 0 0
vt 0 1
vt 1 1
vt 1 0
vt 0 0
vt 0 1
vt 1 1
vt 1 0
vt 0 0
vt 0 1
vt 1 1
vt 1 0
vt 0 0
vt 0 1
vt 1 1
vt 1 0
vt 0 0
vt 0 1
vt 1 1
vt 1 0
vt 0 0
vt 0 1
vt 1 1
vt 1 0
vt 0 0
vt 0 1
vt 1 1
vt 1 0
vt 0 0
vt 0 1
vt 1 1
vt 1 0
vt 0 0
vt 0 1
vt 1 1
vt 1 0
vt 0 0
vt 0 1
vt 1 1
vt 1 0
vt 0 0
vt 0 1
vt 1 1
vt 1 0
vt 0 0
vt 0 1
vt 1 1
vt 1 0
vt 0 0
vt 0 1
vt 1 1
vt 1 0
vt 0 0
vt 0 1
vt 1 1
vt 1 0
vt 0 0
vt 0.5 1
vt 1 0
vt 0 0
vt 0.5 1
vt 1 0
vt 0 0
vt 0.5 1
vt 1 0
vt 0 0
vt 0.5 1
vt 1 0
vt 0 0
vt 0.5 1
vt 1 0
vt 0 0
vt 0.5 1
vt 1 0
vt 0 0
vt 0.5 1
vt 1 0
vt 0 0
vt 0.5 1
vt 1 0
vt 0 0
vt 0.5 1
vt 1 0
vt 0 0
vt 0.5 1
vt 1 0

g pCylinder19_11_3911_183
usemtl pCylinder19_11_3911_183
usemap pCylinder19_11_3911_183
f 1/1/1 3/3/3 2/2/2
f 1/1/1 4/4/4 3/3/3
f 5/5/5 7/7/7 6/6/6
f 5/5/5 8/8/8 7/7/7
f 9/9/9 11/11/11 10/10/10
f 9/9/9 12/12/12 11/11/11
f 13/13/13 15/15/15 14/14/14
f 13/13/13 16/16/16 15/15/15
f 17/17/17 19/19/19 18/18/18
f 17/17/17 20/20/20 19/19/19
f 21/21/21 23/23/23 22/22/22
f 21/21/21 24/24/24 23/23/23
f 25/25/25 27/27/27 26/26/26
f 25/25/25 28/28/28 27/27/27
f 29/29/29 31/31/31 30/30/30
f 29/29/29 32/32/32 31/31/31
f 33/33/33 35/35/35 34/34/34
f 33/33/33 36/36/36 35/35/35
f 37/37/37 39/39/39 38/38/38
f 37/37/37 40/40/40 39/39/39
f 41/41/41 43/43/43 42/42/42
f 41/41/41 44/44/44 43/43/43
f 45/45/45 47/47/47 46/46/46
f 45/45/45 48/48/48 47/47/47
f 49/49/49 51/51/51 50/50/50
f 49/49/49 52/52/52 51/51/51
f 53/53/53 55/55/55 54/54/54
f 53/53/53 56/56/56 55/55/55
f 57/57/57 59/59/59 58/58/58
f 57/57/57 60/60/60 59/59/59
f 61/61/61 63/63/63 62/62/62
f 61/61/61 64/64/64 63/63/63
f 65/65/65 67/67/67 66/66/66
f 65/65/65 68/68/68 67/67/67
f 69/69/69 71/71/71 70/70/70
f 69/69/69 72/72/72 71/71/71
f 73/73/73 75/75/75 74/74/74
f 73/73/73 76/76/76 75/75/75
f 77/77/77 79/79/79 78/78/78
f 77/77/77 80/80/80 79/79/79
f 81/81/81 83/83/83 82/82/82
f 81/81/81 84/84/84 83/83/83
f 85/85/85 87/87/87 86/86/86
f 85/85/85 88/88/88 87/87/87
f 89/89/89 91/91/91 90/90/90
f 89/89/89 92/92/92 91/91/91
f 93/93/93 95/95/95 94/94/94
f 93/93/93 96/96/96 95/95/95
f 97/97/97 99/99/99 98/98/98
f 97/97/97 100/100/100 99/99/99
f 101/101/101 103/103/103 102/102/102
f 101/101/101 104/104/104 103/103/103
f 105/105/105 107/107/107 106/106/106
f 105/105/105 108/108/108 107/107/107
f 109/109/109 111/111/111 110/110/110
f 109/109/109 112/112/112 111/111/111
f 113/113/113 115/115/115 114/114/114
f 113/113/113 116/116/116 115/115/115
f 117/117/117 119/119/119 118/118/118
f 117/117/117 120/120/120 119/119/119
f 121/121/121 123/123/123 122/122/122
f 121/121/121 124/124/124 123/123/123
f 125/125/125 127/127/127 126/126/126
f 125/125/125 128/128/128 127/127/127
f 129/129/129 131/131/131 130/130/130
f 129/129/129 132/132/132 131/131/131
f 133/133/133 135/135/135 134/134/134
f 133/133/133 136/136/136 135/135/135
f 137/137/137 139/139/139 138/138/138
f 137/137/137 140/140/140 139/139/139
f 141/141/141 143/143/143 142/142/142
f 141/141/141 144/144/144 143/143/143
f 145/145/145 147/147/147 146/146/146
f 145/145/145 148/148/148 147/147/147
f 149/149/149 151/151/151 150/150/150
f 149/149/149 152/152/152 151/151/151
f 153/153/153 155/155/155 154/154/154
f 153/153/153 156/156/156 155/155/155
f 157/157/157 159/159/159 158/158/158
f 157/157/157 160/160/160 159/159/159
f 161/161/161 163/163/163 162/162/162
f 161/161/161 164/164/164 163/163/163
f 165/165/165 167/167/167 166/166/166
f 165/165/165 168/168/168 167/167/167
f 169/169/169 171/171/171 170/170/170
f 169/169/169 172/172/172 171/171/171
f 173/173/173 175/175/175 174/174/174
f 173/173/173 176/176/176 175/175/175
f 177/177/177 179/179/179 178/178/178
f 177/177/177 180/180/180 179/179/179
f 181/181/181 183/183/183 182/182/182
f 181/181/181 184/184/184 183/183/183
f 185/185/185 187/187/187 186/186/186
f 185/185/185 188/188/188 187/187/187
f 189/189/189 191/191/191 190/190/190
f 189/189/189 192/192/192 191/191/191
f 193/193/193 195/195/195 194/194/194
f 193/193/193 196/196/196 195/195/195
f 197/197/197 199/199/199 198/198/198
f 197/197/197 200/200/200 199/199/199
f 201/201/201 203/203/203 202/202/202
f 201/201/201 204/204/204 203/203/203
f 205/205/205 207/207/207 206/206/206
f 205/205/205 208/208/208 207/207/207
f 209/209/209 211/211/211 210/210/210
f 209/209/209 212/212/212 211/211/211
f 213/213/213 215/215/215 214/214/214
f 213/213/213 216/216/216 215/215/215
f 217/217/217 219/219/219 218/218/218
f 217/217/217 220/220/220 219/219/219
f 221/221/221 223/223/223 222/222/222
f 221/221/221 224/224/224 223/223/223
f 225/225/225 227/227/227 226/226/226
f 225/225/225 228/228/228 227/227/227
f 229/229/229 231/231/231 230/230/230
f 229/229/229 232/232/232 231/231/231
f 233/233/233 235/235/235 234/234/234
f 233/233/233 236/236/236 235/235/235
f 237/237/237 239/239/239 238/238/238
f 237/237/237 240/240/240 239/239/239
f 241/241/241 243/243/243 242/242/242
f 244/244/244 246/246/246 245/245/245
f 247/247/247 249/249/249 248/248/248
f 250/250/250 252/252/252 251/251/251
f 253/253/253 255/255/255 254/254/254
f 256/256/256 258/258/258 257/257/257
f 259/259/259 261/261/261 260/260/260
f 262/262/262 264/264/264 263/263/263
f 265/265/265 267/267/267 266/266/266
f 268/268/268 270/270/270 269/269/269
