#pCylinder17_22_3927_78.obj

v 0.0145423 -0.02577557 -0.04035142
v 0.004621433 -0.03397634 0.001098313
v 0.03878129 -0.02577557 -0.02104798
v -0.009666546 -0.02577557 -0.03816729
v -0.01825415 -0.02577557 -0.017773
v -0.03822516 -0.02223236 0.001099844
v -0.02135396 -0.02577557 0.0199707
v -0.00530045 -0.02577557 0.03272577
v 0.02109106 -0.02577557 0.04036486
v 0.03059523 -0.02577557 0.01997067
v 0.03218663 -0.02223236 0.00109856
v 0.03878129 -0.02577557 -0.02104798
v 0.04796378 -0.01489268 -0.02771912
v 0.01804979 -0.01489268 -0.05114514
v 0.0145423 -0.02577557 -0.04035142
v 0.0145423 -0.02577557 -0.04035142
v 0.01804979 -0.01489268 -0.05114514
v -0.01317425 -0.01489268 -0.04896162
v -0.009666546 -0.02577557 -0.03816729
v -0.009666546 -0.02577557 -0.03816729
v -0.01317425 -0.01489268 -0.04896162
v -0.02743658 -0.01489268 -0.02444347
v -0.01825415 -0.02577557 -0.017773
v -0.01825415 -0.02577557 -0.017773
v -0.02743658 -0.01489268 -0.02444347
v -0.04797018 -0.01288832 0.001098976
v -0.03822516 -0.02223236 0.001099844
v -0.03822516 -0.02223236 0.001099844
v -0.04797018 -0.01288832 0.001098976
v -0.03053645 -0.01489268 0.02664183
v -0.02135396 -0.02577557 0.0199707
v -0.02135396 -0.02577557 0.0199707
v -0.03053645 -0.01489268 0.02664183
v -0.008807942 -0.01489268 0.04351949
v -0.00530045 -0.02577557 0.03272577
v -0.00530045 -0.02577557 0.03272577
v -0.008807942 -0.01489268 0.04351949
v 0.02459802 -0.01489268 0.05116098
v 0.02109106 -0.02577557 0.04036486
v 0.02109106 -0.02577557 0.04036486
v 0.02459802 -0.01489268 0.05116098
v 0.03977856 -0.01489268 0.02664152
v 0.03059523 -0.02577557 0.01997067
v 0.03059523 -0.02577557 0.01997067
v 0.03977856 -0.01489268 0.02664152
v 0.04193075 -0.01288832 0.001099052
v 0.03218663 -0.02223236 0.00109856
v 0.03218663 -0.02223236 0.00109856
v 0.04193075 -0.01288832 0.001099052
v 0.04796378 -0.01489268 -0.02771912
v 0.03878129 -0.02577557 -0.02104798
v 0.04796378 -0.01489268 -0.02771912
v 0.04796378 -0.0001481946 -0.02771912
v 0.01804979 -0.0001481946 -0.05114514
v 0.01804979 -0.01489268 -0.05114514
v 0.01804979 -0.01489268 -0.05114514
v 0.01804979 -0.0001481946 -0.05114514
v -0.01317425 -0.0001481946 -0.04896162
v -0.01317425 -0.01489268 -0.04896162
v -0.01317425 -0.01489268 -0.04896162
v -0.01317425 -0.0001481946 -0.04896162
v -0.02743658 -0.0001481946 -0.02444347
v -0.02743658 -0.01489268 -0.02444347
v -0.02743658 -0.01489268 -0.02444347
v -0.02743658 -0.0001481946 -0.02444347
v -0.04797018 -0.0002297198 0.001098976
v -0.04797018 -0.01288832 0.001098976
v -0.04797018 -0.01288832 0.001098976
v -0.04797018 -0.0002297198 0.001098976
v -0.03053645 -0.0001481946 0.02664183
v -0.03053645 -0.01489268 0.02664183
v -0.03053645 -0.01489268 0.02664183
v -0.03053645 -0.0001481946 0.02664183
v -0.008807942 -0.0001481946 0.04351949
v -0.008807942 -0.01489268 0.04351949
v -0.008807942 -0.01489268 0.04351949
v -0.008807942 -0.0001481946 0.04351949
v 0.02459802 -0.0001481946 0.05116098
v 0.02459802 -0.01489268 0.05116098
v 0.02459802 -0.01489268 0.05116098
v 0.02459802 -0.0001481946 0.05116098
v 0.03977856 -0.0001481946 0.02664152
v 0.03977856 -0.01489268 0.02664152
v 0.03977856 -0.01489268 0.02664152
v 0.03977856 -0.0001481946 0.02664152
v 0.04193075 -0.0002297198 0.001099052
v 0.04193075 -0.01288832 0.001099052
v 0.04193075 -0.01288832 0.001099052
v 0.04193075 -0.0002297198 0.001099052
v 0.04796378 -0.0001481946 -0.02771912
v 0.04796378 -0.01489268 -0.02771912
v 0.04796378 -0.0001481946 -0.02771912
v 0.0456856 0.01428322 -0.02538923
v 0.01714223 0.01428322 -0.0479841
v 0.01804979 -0.0001481946 -0.05114514
v 0.01804979 -0.0001481946 -0.05114514
v 0.01714223 0.01428322 -0.0479841
v -0.01183152 0.01428322 -0.04559043
v -0.01317425 -0.0001481946 -0.04896162
v -0.01317425 -0.0001481946 -0.04896162
v -0.01183152 0.01428322 -0.04559043
v -0.02321393 0.01428322 -0.02179838
v -0.02743658 -0.0001481946 -0.02444347
v -0.02743658 -0.0001481946 -0.02444347
v -0.02321393 0.01428322 -0.02179838
v -0.04530713 0.01197205 0.001205074
v -0.04797018 -0.0002297198 0.001098976
v -0.04797018 -0.0002297198 0.001098976
v -0.04530713 0.01197205 0.001205074
v -0.0266125 0.01428322 0.02420775
v -0.03053645 -0.0001481946 0.02664183
v -0.03053645 -0.0001481946 0.02664183
v -0.0266125 0.01428322 0.02420775
v -0.007044571 0.01428322 0.03962051
v -0.008807942 -0.0001481946 0.04351949
v -0.008807942 -0.0001481946 0.04351949
v -0.007044571 0.01428322 0.03962051
v 0.02432347 0.01428322 0.04799856
v 0.02459802 -0.0001481946 0.05116098
v 0.02459802 -0.0001481946 0.05116098
v 0.02432347 0.01428322 0.04799856
v 0.03670987 0.01428322 0.02420798
v 0.03977856 -0.0001481946 0.02664152
v 0.03977856 -0.0001481946 0.02664152
v 0.03670987 0.01428322 0.02420798
v 0.03864909 0.01197205 0.001204787
v 0.04193075 -0.0002297198 0.001099052
v 0.04193075 -0.0002297198 0.001099052
v 0.03864909 0.01197205 0.001204787
v 0.0456856 0.01428322 -0.02538923
v 0.04796378 -0.0001481946 -0.02771912
v 0.0456856 0.01428322 -0.02538923
v 0.03224931 0.02437449 -0.01614069
v 0.01203369 0.02437449 -0.03256069
v 0.01714223 0.01428322 -0.0479841
v 0.01714223 0.01428322 -0.0479841
v 0.01203369 0.02437449 -0.03256069
v -0.002595346 0.02437449 -0.02138634
v -0.01183152 0.01428322 -0.04559043
v -0.01183152 0.01428322 -0.04559043
v -0.002595346 0.02437449 -0.02138634
v -0.01125665 0.02437449 -0.01278724
v -0.02321393 0.01428322 -0.02179838
v -0.02321393 0.01428322 -0.02179838
v -0.01125665 0.02437449 -0.01278724
v -0.03124735 0.02074638 0.001124453
v -0.04530713 0.01197205 0.001205074
v -0.04530713 0.01197205 0.001205074
v -0.03124735 0.02074638 0.001124453
v -0.01443014 0.02437449 0.0150385
v -0.0266125 0.01428322 0.02420775
v -0.0266125 0.01428322 0.02420775
v -0.01443014 0.02437449 0.0150385
v -0.002595832 0.02437449 0.02475396
v -0.007044571 0.01428322 0.03962051
v -0.007044571 0.01428322 0.03962051
v -0.002595832 0.02437449 0.02475396
v 0.01873851 0.02437449 0.03257535
v 0.02432347 0.01428322 0.04799856
v 0.02432347 0.01428322 0.04799856
v 0.01873851 0.02437449 0.03257535
v 0.02386834 0.02437449 0.01503861
v 0.03670987 0.01428322 0.02420798
v 0.03670987 0.01428322 0.02420798
v 0.02386834 0.02437449 0.01503861
v 0.0250417 0.02074638 0.001124782
v 0.03864909 0.01197205 0.001204787
v 0.03864909 0.01197205 0.001204787
v 0.0250417 0.02074638 0.001124782
v 0.03224931 0.02437449 -0.01614069
v 0.0456856 0.01428322 -0.02538923
v 0.03224931 0.02437449 -0.01614069
v 0.004621433 0.03397614 0.001098313
v 0.01203369 0.02437449 -0.03256069
v 0.01203369 0.02437449 -0.03256069
v 0.004621433 0.03397614 0.001098313
v -0.002595346 0.02437449 -0.02138634
v -0.002595346 0.02437449 -0.02138634
v 0.004621433 0.03397614 0.001098313
v -0.01125665 0.02437449 -0.01278724
v -0.01125665 0.02437449 -0.01278724
v 0.004621433 0.03397614 0.001098313
v -0.03124735 0.02074638 0.001124453
v -0.03124735 0.02074638 0.001124453
v 0.004621433 0.03397614 0.001098313
v -0.01443014 0.02437449 0.0150385
v -0.01443014 0.02437449 0.0150385
v 0.004621433 0.03397614 0.001098313
v -0.002595832 0.02437449 0.02475396
v -0.002595832 0.02437449 0.02475396
v 0.004621433 0.03397614 0.001098313
v 0.01873851 0.02437449 0.03257535
v 0.01873851 0.02437449 0.03257535
v 0.004621433 0.03397614 0.001098313
v 0.02386834 0.02437449 0.01503861
v 0.02386834 0.02437449 0.01503861
v 0.004621433 0.03397614 0.001098313
v 0.0250417 0.02074638 0.001124782
v 0.0250417 0.02074638 0.001124782
v 0.004621433 0.03397614 0.001098313
v 0.03224931 0.02437449 -0.01614069

vn 0.1890352 -0.9818563 -0.01491923
vn 0.0006642122 -0.999998 0.001533997
vn 0.1284423 -0.9784295 0.1617934
vn 0.1278564 -0.9810982 -0.1452505
vn -0.006777726 -0.960238 -0.2790982
vn -0.08646957 -0.9642729 -0.2503987
vn -0.1893248 -0.9679794 -0.1648356
vn -0.2417519 -0.9703188 -0.00600414
vn -0.1433318 -0.9818345 0.1243215
vn 0.08652061 -0.9585598 0.2714335
vn 0.06028263 -0.9154215 0.3979551
vn 0.6849414 -0.7039258 0.1879972
vn 0.6849414 -0.7039258 0.1879972
vn 0.6849414 -0.7039258 0.1879972
vn 0.6849414 -0.7039258 0.1879972
vn 0.631136 -0.7031066 -0.3275784
vn 0.631136 -0.7031067 -0.3275784
vn 0.6311359 -0.7031066 -0.3275784
vn 0.6311361 -0.7031066 -0.3275785
vn 0.05276784 -0.6620905 -0.7475635
vn 0.05276784 -0.6620904 -0.7475635
vn 0.05276784 -0.6620905 -0.7475635
vn 0.05276781 -0.6620904 -0.7475635
vn 0.1813353 -0.686398 -0.7042546
vn 0.1813353 -0.6863979 -0.7042547
vn 0.1813353 -0.6863979 -0.7042547
vn 0.1813353 -0.6863979 -0.7042547
vn -0.5895542 -0.6953632 -0.4109684
vn -0.5895542 -0.6953632 -0.4109684
vn -0.5895542 -0.6953632 -0.4109684
vn -0.5895543 -0.6953632 -0.4109684
vn -0.6854509 -0.7039657 -0.1859799
vn -0.685451 -0.7039657 -0.1859799
vn -0.6854509 -0.7039657 -0.1859799
vn -0.6854509 -0.7039657 -0.1859799
vn -0.7129453 -0.6928933 0.1077353
vn -0.7129454 -0.6928934 0.1077352
vn -0.7129455 -0.6928934 0.1077353
vn -0.7129453 -0.6928933 0.1077353
vn -0.07606074 -0.6678942 0.740359
vn -0.07606077 -0.6678942 0.7403589
vn -0.07606077 -0.6678942 0.7403589
vn -0.07606071 -0.6678942 0.7403591
vn 0.3069887 -0.6790237 0.6668463
vn 0.3069887 -0.6790237 0.6668463
vn 0.3069887 -0.6790237 0.6668463
vn 0.3069887 -0.6790237 0.6668463
vn 0.05877258 -0.6155774 0.7858815
vn 0.05877264 -0.6155773 0.7858815
vn 0.05877258 -0.6155774 0.7858815
vn 0.05877261 -0.6155773 0.7858814
vn 0.9652991 -7.274712E-17 0.2611464
vn 0.9652991 -7.274713E-17 0.2611465
vn 0.9652991 -7.274713E-17 0.2611465
vn 0.9652991 -7.274712E-17 0.2611464
vn 0.8915877 5.365802E-17 -0.452848
vn 0.8915877 5.365802E-17 -0.452848
vn 0.8915877 5.365802E-17 -0.452848
vn 0.8915877 5.365802E-17 -0.452848
vn 0.1263653 1.691559E-16 -0.9919837
vn 0.1263653 1.691559E-16 -0.9919837
vn 0.1263653 1.691559E-16 -0.9919837
vn 0.1263653 1.691559E-16 -0.9919837
vn 0.2734194 1.597615E-16 -0.9618948
vn 0.2734194 1.597615E-16 -0.9618949
vn 0.2734194 1.597615E-16 -0.9618948
vn 0.2734194 1.597615E-16 -0.9618948
vn -0.8409592 1.179796E-16 -0.5410983
vn -0.8409592 1.179796E-16 -0.5410983
vn -0.8409593 1.179796E-16 -0.5410982
vn -0.8409592 1.179796E-16 -0.5410983
vn -0.9663239 7.211132E-17 -0.2573287
vn -0.9663239 7.211132E-17 -0.2573287
vn -0.9663239 7.211132E-17 -0.2573287
vn -0.9663239 7.211132E-17 -0.2573287
vn -0.9846706 -2.547941E-18 0.1744235
vn -0.9846706 -2.547941E-18 0.1744235
vn -0.9846706 -2.547941E-18 0.1744235
vn -0.9846706 -2.547941E-18 0.1744235
vn -0.1535901 -1.677164E-16 0.9881346
vn -0.1535901 -1.677164E-16 0.9881346
vn -0.1535901 -1.677164E-16 0.9881346
vn -0.1535901 -1.677164E-16 0.9881346
vn 0.3108208 -1.742804E-16 0.9504685
vn 0.3108208 -1.742804E-16 0.9504685
vn 0.3108208 -1.742804E-16 0.9504685
vn 0.3108208 -1.742804E-16 0.9504685
vn 0.1925886 -1.763045E-16 0.9812795
vn 0.1925887 -1.763045E-16 0.9812794
vn 0.1925886 -1.763045E-16 0.9812795
vn 0.1925886 -1.763045E-16 0.9812795
vn 0.9425449 0.2127569 0.2575723
vn 0.9425448 0.2127569 0.2575723
vn 0.9425448 0.2127569 0.2575723
vn 0.9425448 0.2127569 0.2575723
vn 0.8667939 0.2212332 -0.4469049
vn 0.8667939 0.2212332 -0.4469049
vn 0.8667939 0.2212332 -0.4469049
vn 0.8667939 0.2212332 -0.4469049
vn 0.08473665 0.2588965 -0.9621809
vn 0.08473662 0.2588965 -0.9621809
vn 0.0847367 0.2588965 -0.9621809
vn 0.08473665 0.2588964 -0.9621809
vn 0.2956128 0.2546347 -0.9207464
vn 0.2956128 0.2546347 -0.9207464
vn 0.2956128 0.2546347 -0.9207464
vn 0.2956127 0.2546347 -0.9207464
vn -0.8314337 0.2437818 -0.499288
vn -0.8314337 0.2437819 -0.499288
vn -0.8314335 0.2437818 -0.499288
vn -0.8314337 0.2437818 -0.499288
vn -0.9262305 0.2822601 -0.2498519
vn -0.9262304 0.2822601 -0.249852
vn -0.9262305 0.2822602 -0.249852
vn -0.9262305 0.2822602 -0.249852
vn -0.9581358 0.2423859 0.1523964
vn -0.9581358 0.2423859 0.1523964
vn -0.9581358 0.2423859 0.1523964
vn -0.9581358 0.2423859 0.1523964
vn -0.1158842 0.1930068 0.9743301
vn -0.1158842 0.1930068 0.9743301
vn -0.1158842 0.1930068 0.97433
vn -0.1158842 0.1930068 0.9743301
vn 0.3130009 0.237158 0.9196663
vn 0.3130009 0.237158 0.9196664
vn 0.3130009 0.237158 0.9196664
vn 0.3130009 0.237158 0.9196664
vn 0.1576542 0.178262 0.9712712
vn 0.1576542 0.178262 0.9712712
vn 0.1576542 0.178262 0.9712712
vn 0.1576542 0.178262 0.9712712
vn 0.5269299 0.8368362 0.1484893
vn 0.5269299 0.8368362 0.1484892
vn 0.5269299 0.8368362 0.1484893
vn 0.5269299 0.8368362 0.1484892
vn 0.3505229 0.888432 -0.2963465
vn 0.3505229 0.8884319 -0.2963465
vn 0.3505229 0.888432 -0.2963465
vn 0.3505229 0.888432 -0.2963465
vn 0.07578702 0.869334 -0.4883786
vn 0.07578705 0.869334 -0.4883786
vn 0.07578702 0.869334 -0.4883786
vn 0.07578705 0.869334 -0.4883786
vn 0.1788634 0.804901 -0.5658102
vn 0.1788634 0.8049011 -0.5658102
vn 0.1788634 0.8049011 -0.5658102
vn 0.1788634 0.8049011 -0.5658102
vn -0.483462 0.8185276 -0.310284
vn -0.483462 0.8185276 -0.3102839
vn -0.483462 0.8185276 -0.310284
vn -0.483462 0.8185276 -0.310284
vn -0.5477667 0.8222616 -0.1543913
vn -0.5477667 0.8222615 -0.1543913
vn -0.5477668 0.8222615 -0.1543913
vn -0.5477667 0.8222615 -0.1543913
vn -0.5733123 0.817235 0.05864248
vn -0.5733123 0.817235 0.05864249
vn -0.5733123 0.817235 0.05864249
vn -0.5733123 0.817235 0.05864249
vn -0.0004378855 0.7962338 0.6049881
vn -0.0004378706 0.7962338 0.6049882
vn -0.0004378855 0.7962338 0.6049882
vn -0.0004378706 0.7962338 0.6049882
vn 0.304501 0.7985127 0.5192838
vn 0.304501 0.7985128 0.5192837
vn 0.304501 0.7985128 0.5192837
vn 0.304501 0.7985127 0.5192838
vn -0.03601666 0.7325382 0.679772
vn -0.03601663 0.7325382 0.679772
vn -0.03601666 0.7325382 0.679772
vn -0.03601666 0.7325382 0.679772
vn 0.2858546 0.9546863 0.08282515
vn 0.2858546 0.9546863 0.08282513
vn 0.2858546 0.9546863 0.08282515
vn 0.1962973 0.9181484 -0.3441944
vn 0.1962973 0.9181484 -0.3441944
vn 0.1962973 0.9181484 -0.3441944
vn 0.1573939 0.9097518 -0.3841584
vn 0.1573939 0.9097518 -0.3841584
vn 0.1573939 0.9097518 -0.3841585
vn 0.09500608 0.9095346 -0.4046229
vn 0.09500609 0.9095346 -0.4046229
vn 0.09500609 0.9095346 -0.4046229
vn -0.2902237 0.9244462 -0.2473222
vn -0.2902237 0.9244462 -0.2473222
vn -0.2902237 0.9244462 -0.2473222
vn -0.3713601 0.9219849 -0.1097018
vn -0.3713601 0.9219849 -0.1097018
vn -0.3713601 0.9219849 -0.1097018
vn -0.3619767 0.9320195 0.0176461
vn -0.3619766 0.9320195 0.01764608
vn -0.3619766 0.9320195 0.01764609
vn 0.04546332 0.9190342 0.3915458
vn 0.04546334 0.9190342 0.3915458
vn 0.04546335 0.9190341 0.3915459
vn 0.3657543 0.8268816 0.4271881
vn 0.3657543 0.8268816 0.4271881
vn 0.3657543 0.8268816 0.4271881
vn -0.1481363 0.7785739 0.6098176
vn -0.1481364 0.7785739 0.6098176
vn -0.1481364 0.7785739 0.6098176

vt 0.5482839 0.007647395
vt 0.5 0.15
vt 0.6264089 0.06440853
vt 0.4517161 0.00764741
vt 0.3735911 0.06440856
vt 0.34375 0.15625
vt 0.3735911 0.2480915
vt 0.4517161 0.3048526
vt 0.5482839 0.3048526
vt 0.6264089 0.2480914
vt 0.65625 0.15625
vt 0 0
vt 0 1
vt 1 1
vt 1 0
vt 0 0
vt 0 1
vt 1 1
vt 1 0
vt 0 0
vt 0 1
vt 1 1
vt 1 0
vt 0 0
vt 0 1
vt 1 1
vt 1 0
vt 0 0
vt 0 1
vt 1 1
vt 1 0
vt 0 0
vt 0 1
vt 1 1
vt 1 0
vt 0 0
vt 0 1
vt 1 1
vt 1 0
vt 0 0
vt 0 1
vt 1 1
vt 1 0
vt 0 0
vt 0 1
vt 1 1
vt 1 0
vt 0 0
vt 0 1
vt 1 1
vt 1 0
vt 0 0
vt 0 1
vt 1 1
vt 1 0
vt 0 0
vt 0 1
vt 1 1
vt 1 0
vt 0 0
vt 0 1
vt 1 1
vt 1 0
vt 0 0
vt 0 1
vt 1 1
vt 1 0
vt 0 0
vt 0 1
vt 1 1
vt 1 0
vt 0 0
vt 0 1
vt 1 1
vt 1 0
vt 0 0
vt 0 1
vt 1 1
vt 1 0
vt 0 0
vt 0 1
vt 1 1
vt 1 0
vt 0 0
vt 0 1
vt 1 1
vt 1 0
vt 0 0
vt 0 1
vt 1 1
vt 1 0
vt 0 0
vt 0 1
vt 1 1
vt 1 0
vt 0 0
vt 0 1
vt 1 1
vt 1 0
vt 0 0
vt 0 1
vt 1 1
vt 1 0
vt 0 0
vt 0 1
vt 1 1
vt 1 0
vt 0 0
vt 0 1
vt 1 1
vt 1 0
vt 0 0
vt 0 1
vt 1 1
vt 1 0
vt 0 0
vt 0 1
vt 1 1
vt 1 0
vt 0 0
vt 0 1
vt 1 1
vt 1 0
vt 0 0
vt 0 1
vt 1 1
vt 1 0
vt 0 0
vt 0 1
vt 1 1
vt 1 0
vt 0 0
vt 0 1
vt 1 1
vt 1 0
vt 0 0
vt 0 1
vt 1 1
vt 1 0
vt 0 0
vt 0 1
vt 1 1
vt 1 0
vt 0 0
vt 0 1
vt 1 1
vt 1 0
vt 0 0
vt 0 1
vt 1 1
vt 1 0
vt 0 0
vt 0 1
vt 1 1
vt 1 0
vt 0 0
vt 0 1
vt 1 1
vt 1 0
vt 0 0
vt 0 1
vt 1 1
vt 1 0
vt 0 0
vt 0 1
vt 1 1
vt 1 0
vt 0 0
vt 0 1
vt 1 1
vt 1 0
vt 0 0
vt 0.5 1
vt 1 0
vt 0 0
vt 0.5 1
vt 1 0
vt 0 0
vt 0.5 1
vt 1 0
vt 0 0
vt 0.5 1
vt 1 0
vt 0 0
vt 0.5 1
vt 1 0
vt 0 0
vt 0.5 1
vt 1 0
vt 0 0
vt 0.5 1
vt 1 0
vt 0 0
vt 0.5 1
vt 1 0
vt 0 0
vt 0.5 1
vt 1 0
vt 0 0
vt 0.5 1
vt 1 0

g pCylinder17_22_3927_78
usemtl pCylinder17_22_3927_78
usemap pCylinder17_22_3927_78
f 1/1/1 3/3/3 2/2/2
f 4/4/4 1/1/1 2/2/2
f 5/5/5 4/4/4 2/2/2
f 6/6/6 5/5/5 2/2/2
f 7/7/7 6/6/6 2/2/2
f 8/8/8 7/7/7 2/2/2
f 9/9/9 8/8/8 2/2/2
f 10/10/10 9/9/9 2/2/2
f 11/11/11 10/10/10 2/2/2
f 3/3/3 11/11/11 2/2/2
f 12/12/12 14/14/14 13/13/13
f 12/12/12 15/15/15 14/14/14
f 16/16/16 18/18/18 17/17/17
f 16/16/16 19/19/19 18/18/18
f 20/20/20 22/22/22 21/21/21
f 20/20/20 23/23/23 22/22/22
f 24/24/24 26/26/26 25/25/25
f 24/24/24 27/27/27 26/26/26
f 28/28/28 30/30/30 29/29/29
f 28/28/28 31/31/31 30/30/30
f 32/32/32 34/34/34 33/33/33
f 32/32/32 35/35/35 34/34/34
f 36/36/36 38/38/38 37/37/37
f 36/36/36 39/39/39 38/38/38
f 40/40/40 42/42/42 41/41/41
f 40/40/40 43/43/43 42/42/42
f 44/44/44 46/46/46 45/45/45
f 44/44/44 47/47/47 46/46/46
f 48/48/48 50/50/50 49/49/49
f 48/48/48 51/51/51 50/50/50
f 52/52/52 54/54/54 53/53/53
f 52/52/52 55/55/55 54/54/54
f 56/56/56 58/58/58 57/57/57
f 56/56/56 59/59/59 58/58/58
f 60/60/60 62/62/62 61/61/61
f 60/60/60 63/63/63 62/62/62
f 64/64/64 66/66/66 65/65/65
f 64/64/64 67/67/67 66/66/66
f 68/68/68 70/70/70 69/69/69
f 68/68/68 71/71/71 70/70/70
f 72/72/72 74/74/74 73/73/73
f 72/72/72 75/75/75 74/74/74
f 76/76/76 78/78/78 77/77/77
f 76/76/76 79/79/79 78/78/78
f 80/80/80 82/82/82 81/81/81
f 80/80/80 83/83/83 82/82/82
f 84/84/84 86/86/86 85/85/85
f 84/84/84 87/87/87 86/86/86
f 88/88/88 90/90/90 89/89/89
f 88/88/88 91/91/91 90/90/90
f 92/92/92 94/94/94 93/93/93
f 92/92/92 95/95/95 94/94/94
f 96/96/96 98/98/98 97/97/97
f 96/96/96 99/99/99 98/98/98
f 100/100/100 102/102/102 101/101/101
f 100/100/100 103/103/103 102/102/102
f 104/104/104 106/106/106 105/105/105
f 104/104/104 107/107/107 106/106/106
f 108/108/108 110/110/110 109/109/109
f 108/108/108 111/111/111 110/110/110
f 112/112/112 114/114/114 113/113/113
f 112/112/112 115/115/115 114/114/114
f 116/116/116 118/118/118 117/117/117
f 116/116/116 119/119/119 118/118/118
f 120/120/120 122/122/122 121/121/121
f 120/120/120 123/123/123 122/122/122
f 124/124/124 126/126/126 125/125/125
f 124/124/124 127/127/127 126/126/126
f 128/128/128 130/130/130 129/129/129
f 128/128/128 131/131/131 130/130/130
f 132/132/132 134/134/134 133/133/133
f 132/132/132 135/135/135 134/134/134
f 136/136/136 138/138/138 137/137/137
f 136/136/136 139/139/139 138/138/138
f 140/140/140 142/142/142 141/141/141
f 140/140/140 143/143/143 142/142/142
f 144/144/144 146/146/146 145/145/145
f 144/144/144 147/147/147 146/146/146
f 148/148/148 150/150/150 149/149/149
f 148/148/148 151/151/151 150/150/150
f 152/152/152 154/154/154 153/153/153
f 152/152/152 155/155/155 154/154/154
f 156/156/156 158/158/158 157/157/157
f 156/156/156 159/159/159 158/158/158
f 160/160/160 162/162/162 161/161/161
f 160/160/160 163/163/163 162/162/162
f 164/164/164 166/166/166 165/165/165
f 164/164/164 167/167/167 166/166/166
f 168/168/168 170/170/170 169/169/169
f 168/168/168 171/171/171 170/170/170
f 172/172/172 174/174/174 173/173/173
f 175/175/175 177/177/177 176/176/176
f 178/178/178 180/180/180 179/179/179
f 181/181/181 183/183/183 182/182/182
f 184/184/184 186/186/186 185/185/185
f 187/187/187 189/189/189 188/188/188
f 190/190/190 192/192/192 191/191/191
f 193/193/193 195/195/195 194/194/194
f 196/196/196 198/198/198 197/197/197
f 199/199/199 201/201/201 200/200/200
