#pCylinder1_1_3428_301.obj

v 0.01454534 -0.02577566 -0.04035812
v 0.004623877 -0.03397612 0.001091579
v 0.03878453 -0.02577566 -0.0210546
v -0.009663396 -0.02577566 -0.03817521
v -0.01825076 -0.02577566 -0.01778025
v -0.03822212 -0.02223223 0.001091575
v -0.02135085 -0.02577566 0.01996337
v -0.005297564 -0.02577566 0.03271818
v 0.02109406 -0.02577566 0.04035837
v 0.03059861 -0.02577566 0.01996337
v 0.03218949 -0.02223223 0.001091578
v 0.03878453 -0.02577566 -0.0210546
v 0.04796691 -0.01489232 -0.02772597
v 0.01805269 -0.01489232 -0.05115264
v 0.01454534 -0.02577566 -0.04035812
v 0.01454534 -0.02577566 -0.04035812
v 0.01805269 -0.01489232 -0.05115264
v -0.01317074 -0.01489232 -0.04896972
v -0.009663396 -0.02577566 -0.03817521
v -0.009663396 -0.02577566 -0.03817521
v -0.01317074 -0.01489232 -0.04896972
v -0.02743317 -0.01489232 -0.02445162
v -0.01825076 -0.02577566 -0.01778025
v -0.01825076 -0.02577566 -0.01778025
v -0.02743317 -0.01489232 -0.02445162
v -0.04796691 -0.01288814 0.001091582
v -0.03822212 -0.02223223 0.001091575
v -0.03822212 -0.02223223 0.001091575
v -0.04796691 -0.01288814 0.001091582
v -0.03053324 -0.01489232 0.02663476
v -0.02135085 -0.02577566 0.01996337
v -0.02135085 -0.02577566 0.01996337
v -0.03053324 -0.01489232 0.02663476
v -0.008804929 -0.01489232 0.04351268
v -0.005297564 -0.02577566 0.03271818
v -0.005297564 -0.02577566 0.03271818
v -0.008804929 -0.01489232 0.04351268
v 0.02460141 -0.01489232 0.05115286
v 0.02109406 -0.02577566 0.04035837
v 0.02109406 -0.02577566 0.04035837
v 0.02460141 -0.01489232 0.05115286
v 0.039781 -0.01489232 0.02663478
v 0.03059861 -0.02577566 0.01996337
v 0.03059861 -0.02577566 0.01996337
v 0.039781 -0.01489232 0.02663478
v 0.04193431 -0.01288814 0.001091592
v 0.03218949 -0.02223223 0.001091578
v 0.03218949 -0.02223223 0.001091578
v 0.04193431 -0.01288814 0.001091592
v 0.04796691 -0.01489232 -0.02772597
v 0.03878453 -0.02577566 -0.0210546
v 0.04796691 -0.01489232 -0.02772597
v 0.04796691 -0.0001482746 -0.02772599
v 0.01805269 -0.0001482746 -0.05115264
v 0.01805269 -0.01489232 -0.05115264
v 0.01805269 -0.01489232 -0.05115264
v 0.01805269 -0.0001482746 -0.05115264
v -0.01317074 -0.0001482746 -0.04896972
v -0.01317074 -0.01489232 -0.04896972
v -0.01317074 -0.01489232 -0.04896972
v -0.01317074 -0.0001482746 -0.04896972
v -0.02743317 -0.0001482746 -0.02445162
v -0.02743317 -0.01489232 -0.02445162
v -0.02743317 -0.01489232 -0.02445162
v -0.02743317 -0.0001482746 -0.02445162
v -0.04796691 -0.0002293769 0.001091582
v -0.04796691 -0.01288814 0.001091582
v -0.04796691 -0.01288814 0.001091582
v -0.04796691 -0.0002293769 0.001091582
v -0.03053324 -0.0001482746 0.02663476
v -0.03053324 -0.01489232 0.02663476
v -0.03053324 -0.01489232 0.02663476
v -0.03053324 -0.0001482746 0.02663476
v -0.008804929 -0.0001482746 0.04351268
v -0.008804929 -0.01489232 0.04351268
v -0.008804929 -0.01489232 0.04351268
v -0.008804929 -0.0001482746 0.04351268
v 0.02460141 -0.0001482746 0.05115286
v 0.02460141 -0.01489232 0.05115286
v 0.02460141 -0.01489232 0.05115286
v 0.02460141 -0.0001482746 0.05115286
v 0.039781 -0.0001482746 0.02663478
v 0.039781 -0.01489232 0.02663478
v 0.039781 -0.01489232 0.02663478
v 0.039781 -0.0001482746 0.02663478
v 0.04193431 -0.0002293769 0.001091592
v 0.04193431 -0.01288814 0.001091592
v 0.04193431 -0.01288814 0.001091592
v 0.04193431 -0.0002293769 0.001091592
v 0.04796691 -0.0001482746 -0.02772599
v 0.04796691 -0.01489232 -0.02772597
v 0.04796691 -0.0001482746 -0.02772599
v 0.04568892 0.01428344 -0.02539667
v 0.01714512 0.01428344 -0.04799114
v 0.01805269 -0.0001482746 -0.05115264
v 0.01805269 -0.0001482746 -0.05115264
v 0.01714512 0.01428344 -0.04799114
v -0.01182908 0.01428344 -0.04559753
v -0.01317074 -0.0001482746 -0.04896972
v -0.01317074 -0.0001482746 -0.04896972
v -0.01182908 0.01428344 -0.04559753
v -0.02321026 0.01428344 -0.02180625
v -0.02743317 -0.0001482746 -0.02445162
v -0.02743317 -0.0001482746 -0.02445162
v -0.02321026 0.01428344 -0.02180625
v -0.04530408 0.01197202 0.001196925
v -0.04796691 -0.0002293769 0.001091582
v -0.04796691 -0.0002293769 0.001091582
v -0.04530408 0.01197202 0.001196925
v -0.02660957 0.01428344 0.02420013
v -0.03053324 -0.0001482746 0.02663476
v -0.03053324 -0.0001482746 0.02663476
v -0.02660957 0.01428344 0.02420013
v -0.007041865 0.01428344 0.0396137
v -0.008804929 -0.0001482746 0.04351268
v -0.008804929 -0.0001482746 0.04351268
v -0.007041865 0.01428344 0.0396137
v 0.02432597 0.01428344 0.04799136
v 0.02460141 -0.0001482746 0.05115286
v 0.02460141 -0.0001482746 0.05115286
v 0.02432597 0.01428344 0.04799136
v 0.03671284 0.01428344 0.02420012
v 0.039781 -0.0001482746 0.02663478
v 0.039781 -0.0001482746 0.02663478
v 0.03671284 0.01428344 0.02420012
v 0.03865201 0.01197202 0.001196934
v 0.04193431 -0.0002293769 0.001091592
v 0.04193431 -0.0002293769 0.001091592
v 0.03865201 0.01197202 0.001196934
v 0.04568892 0.01428344 -0.02539667
v 0.04796691 -0.0001482746 -0.02772599
v 0.04568892 0.01428344 -0.02539667
v 0.03225249 0.02437448 -0.01614754
v 0.01203648 0.02437448 -0.03256851
v 0.01714512 0.01428344 -0.04799114
v 0.01714512 0.01428344 -0.04799114
v 0.01203648 0.02437448 -0.03256851
v -0.002592217 0.02437448 -0.02139368
v -0.01182908 0.01428344 -0.04559753
v -0.01182908 0.01428344 -0.04559753
v -0.002592217 0.02437448 -0.02139368
v -0.01125312 0.02437448 -0.01279511
v -0.02321026 0.01428344 -0.02180625
v -0.02321026 0.01428344 -0.02180625
v -0.01125312 0.02437448 -0.01279511
v -0.0312447 0.02074655 0.001117607
v -0.04530408 0.01197202 0.001196925
v -0.04530408 0.01197202 0.001196925
v -0.0312447 0.02074655 0.001117607
v -0.01442711 0.02437448 0.01503033
v -0.02660957 0.01428344 0.02420013
v -0.02660957 0.01428344 0.02420013
v -0.01442711 0.02437448 0.01503033
v -0.002592221 0.02437448 0.02474636
v -0.007041865 0.01428344 0.0396137
v -0.007041865 0.01428344 0.0396137
v -0.002592221 0.02437448 0.02474636
v 0.01874137 0.02437448 0.03256872
v 0.02432597 0.01428344 0.04799136
v 0.02432597 0.01428344 0.04799136
v 0.01874137 0.02437448 0.03256872
v 0.02387137 0.02437448 0.01503034
v 0.03671284 0.01428344 0.02420012
v 0.03671284 0.01428344 0.02420012
v 0.02387137 0.02437448 0.01503034
v 0.0250442 0.02074655 0.001117615
v 0.03865201 0.01197202 0.001196934
v 0.03865201 0.01197202 0.001196934
v 0.0250442 0.02074655 0.001117615
v 0.03225249 0.02437448 -0.01614754
v 0.04568892 0.01428344 -0.02539667
v 0.03225249 0.02437448 -0.01614754
v 0.004623879 0.03397612 0.00109156
v 0.01203648 0.02437448 -0.03256851
v 0.01203648 0.02437448 -0.03256851
v 0.004623879 0.03397612 0.00109156
v -0.002592217 0.02437448 -0.02139368
v -0.002592217 0.02437448 -0.02139368
v 0.004623879 0.03397612 0.00109156
v -0.01125312 0.02437448 -0.01279511
v -0.01125312 0.02437448 -0.01279511
v 0.004623879 0.03397612 0.00109156
v -0.0312447 0.02074655 0.001117607
v -0.0312447 0.02074655 0.001117607
v 0.004623879 0.03397612 0.00109156
v -0.01442711 0.02437448 0.01503033
v -0.01442711 0.02437448 0.01503033
v 0.004623879 0.03397612 0.00109156
v -0.002592221 0.02437448 0.02474636
v -0.002592221 0.02437448 0.02474636
v 0.004623879 0.03397612 0.00109156
v 0.01874137 0.02437448 0.03256872
v 0.01874137 0.02437448 0.03256872
v 0.004623879 0.03397612 0.00109156
v 0.02387137 0.02437448 0.01503034
v 0.02387137 0.02437448 0.01503034
v 0.004623879 0.03397612 0.00109156
v 0.0250442 0.02074655 0.001117615
v 0.0250442 0.02074655 0.001117615
v 0.004623879 0.03397612 0.00109156
v 0.03225249 0.02437448 -0.01614754

vn 0.1831654 -0.9818566 0.04906448
vn 0.0001138118 -0.9999983 0.001667745
vn 0.06703882 -0.9784298 0.1953979
vn 0.1690221 -0.9810985 -0.09421518
vn 0.08681466 -0.9602383 -0.2653393
vn 0.002113642 -0.9642732 -0.2649
vn -0.1234103 -0.9679797 -0.2185968
vn -0.2258686 -0.9703191 -0.08639117
vn -0.1766199 -0.9818348 0.06931967
vn -0.009089986 -0.95856 0.2847444
vn -0.07607291 -0.9154218 0.3952407
vn 0.5828403 -0.7039261 0.4059372
vn 0.5828403 -0.7039261 0.4059371
vn 0.5828403 -0.7039261 0.4059372
vn 0.5828403 -0.7039261 0.4059371
vn 0.7042972 -0.7031068 -0.09800874
vn 0.7042972 -0.7031069 -0.09800874
vn 0.7042972 -0.7031068 -0.09800875
vn 0.7042972 -0.7031069 -0.09800875
vn 0.2993832 -0.6620907 -0.6870264
vn 0.2993832 -0.6620906 -0.6870265
vn 0.2993832 -0.6620907 -0.6870264
vn 0.2993832 -0.6620906 -0.6870265
vn 0.4061073 -0.6863982 -0.6032695
vn 0.4061073 -0.6863981 -0.6032696
vn 0.4061073 -0.6863981 -0.6032695
vn 0.4061072 -0.6863981 -0.6032695
vn -0.418469 -0.6953635 -0.5842542
vn -0.418469 -0.6953635 -0.5842542
vn -0.418469 -0.6953634 -0.5842543
vn -0.418469 -0.6953635 -0.5842543
vn -0.5839942 -0.703966 -0.4042058
vn -0.5839942 -0.703966 -0.4042059
vn -0.5839942 -0.703966 -0.4042058
vn -0.5839942 -0.703966 -0.4042058
vn -0.7079948 -0.6928936 -0.1365336
vn -0.7079948 -0.6928936 -0.1365337
vn -0.7079949 -0.6928936 -0.1365336
vn -0.7079948 -0.6928936 -0.1365336
vn -0.3189331 -0.6678944 0.672457
vn -0.3189331 -0.6678944 0.672457
vn -0.3189331 -0.6678944 0.672457
vn -0.3189331 -0.6678944 0.6724571
vn 0.0666757 -0.6790239 0.7310818
vn 0.0666757 -0.6790239 0.7310818
vn 0.0666757 -0.6790239 0.7310818
vn 0.0666757 -0.6790239 0.7310818
vn -0.2070421 -0.6155776 0.760393
vn -0.2070421 -0.6155775 0.760393
vn -0.2070421 -0.6155776 0.760393
vn -0.2070421 -0.6155775 0.760393
vn 0.8226756 0 0.5685109
vn 0.8226756 0 0.568511
vn 0.8226756 0 0.568511
vn 0.8226756 0 0.5685109
vn 0.9916302 0 -0.1291105
vn 0.9916302 0 -0.1291105
vn 0.9916302 0 -0.1291105
vn 0.9916302 0 -0.1291105
vn 0.4503784 0 -0.8928378
vn 0.4503784 0 -0.8928378
vn 0.4503784 0 -0.8928378
vn 0.4503784 0 -0.8928378
vn 0.5789426 0 -0.8153682
vn 0.5789426 0 -0.8153683
vn 0.5789426 0 -0.8153682
vn 0.5789426 0 -0.8153682
vn -0.6119854 0 -0.790869
vn -0.6119854 0 -0.790869
vn -0.6119855 0 -0.790869
vn -0.6119854 0 -0.790869
vn -0.8249165 0 -0.5652546
vn -0.8249165 0 -0.5652546
vn -0.8249165 0 -0.5652546
vn -0.8249165 0 -0.5652546
vn -0.9863912 0 -0.1644149
vn -0.9863912 0 -0.1644149
vn -0.9863912 0 -0.1644149
vn -0.9863912 0 -0.1644149
vn -0.474755 0 0.880118
vn -0.474755 0 0.880118
vn -0.474755 0 0.880118
vn -0.474755 0 0.880118
vn -0.02442618 0 0.9997016
vn -0.02442618 0 0.9997017
vn -0.02442618 0 0.9997016
vn -0.02442618 0 0.9997017
vn -0.1461601 0 0.989261
vn -0.1461601 0 0.989261
vn -0.1461601 0 0.989261
vn -0.1461601 0 0.989261
vn 0.8024213 0.212757 0.5575434
vn 0.8024212 0.212757 0.5575433
vn 0.8024212 0.212757 0.5575433
vn 0.8024212 0.212757 0.5575433
vn 0.9662751 0.2212333 -0.1317884
vn 0.9662751 0.2212333 -0.1317884
vn 0.9662751 0.2212333 -0.1317884
vn 0.9662751 0.2212333 -0.1317884
vn 0.4011871 0.2588966 -0.8786474
vn 0.4011871 0.2588966 -0.8786475
vn 0.4011872 0.2588966 -0.8786474
vn 0.4011871 0.2588965 -0.8786474
vn 0.5861207 0.2546348 -0.7691708
vn 0.5861207 0.2546348 -0.7691708
vn 0.5861207 0.2546348 -0.7691708
vn 0.5861206 0.2546348 -0.7691708
vn -0.6169689 0.2437819 -0.7482779
vn -0.6169689 0.2437819 -0.7482779
vn -0.6169688 0.2437819 -0.7482779
vn -0.6169689 0.2437819 -0.7482779
vn -0.7896216 0.2822602 -0.5448181
vn -0.7896215 0.2822602 -0.5448182
vn -0.7896216 0.2822603 -0.5448182
vn -0.7896216 0.2822603 -0.5448182
vn -0.9540238 0.242386 -0.1763164
vn -0.9540238 0.242386 -0.1763163
vn -0.9540238 0.242386 -0.1763164
vn -0.9540238 0.242386 -0.1763164
vn -0.4346037 0.1930069 0.8796976
vn -0.4346037 0.1930069 0.8796976
vn -0.4346037 0.1930069 0.8796976
vn -0.4346037 0.1930069 0.8796976
vn -0.01208503 0.2371581 0.9713959
vn -0.01208504 0.2371581 0.9713959
vn -0.01208503 0.2371581 0.9713959
vn -0.01208504 0.2371581 0.9713959
vn -0.1757469 0.178262 0.9681609
vn -0.1757468 0.178262 0.9681609
vn -0.1757469 0.178262 0.9681609
vn -0.1757469 0.178262 0.9681609
vn 0.4470932 0.8368365 0.3159302
vn 0.4470932 0.8368365 0.3159302
vn 0.4470932 0.8368365 0.3159302
vn 0.4470932 0.8368365 0.3159302
vn 0.4293636 0.8884323 -0.162279
vn 0.4293636 0.8884322 -0.162279
vn 0.4293636 0.8884323 -0.162279
vn 0.4293636 0.8884323 -0.1622789
vn 0.2345276 0.8693343 -0.4350335
vn 0.2345276 0.8693343 -0.4350335
vn 0.2345276 0.8693343 -0.4350335
vn 0.2345276 0.8693343 -0.4350335
vn 0.3575446 0.8049012 -0.4735982
vn 0.3575446 0.8049013 -0.4735982
vn 0.3575446 0.8049013 -0.4735982
vn 0.3575446 0.8049013 -0.4735982
vn -0.3520902 0.8185278 -0.4539209
vn -0.3520902 0.8185279 -0.4539208
vn -0.3520903 0.8185278 -0.4539209
vn -0.3520902 0.8185278 -0.4539209
vn -0.4647629 0.8222618 -0.3284517
vn -0.4647629 0.8222617 -0.3284518
vn -0.464763 0.8222617 -0.3284518
vn -0.4647629 0.8222617 -0.3284518
vn -0.5599834 0.8172352 -0.1361785
vn -0.5599834 0.8172352 -0.1361785
vn -0.5599834 0.8172352 -0.1361785
vn -0.5599834 0.8172352 -0.1361785
vn -0.2024451 0.796234 0.5701112
vn -0.2024451 0.796234 0.5701113
vn -0.2024452 0.796234 0.5701113
vn -0.2024451 0.796234 0.5701113
vn 0.1136086 0.7985129 0.5911596
vn 0.1136086 0.798513 0.5911595
vn 0.1136086 0.798513 0.5911595
vn 0.1136086 0.7985129 0.5911596
vn -0.2609551 0.7325384 0.6287206
vn -0.260955 0.7325385 0.6287206
vn -0.2609551 0.7325384 0.6287206
vn -0.2609551 0.7325384 0.6287206
vn 0.2417855 0.9546866 0.17353
vn 0.2417855 0.9546866 0.1735299
vn 0.2417855 0.9546866 0.17353
vn 0.2999702 0.9181486 -0.2588828
vn 0.2999702 0.9181486 -0.2588828
vn 0.2999702 0.9181486 -0.2588828
vn 0.2766459 0.9097521 -0.3095442
vn 0.276646 0.9097521 -0.3095442
vn 0.2766459 0.9097521 -0.3095442
vn 0.2246736 0.9095349 -0.3496678
vn 0.2246736 0.9095349 -0.3496679
vn 0.2246736 0.9095349 -0.3496679
vn -0.1909709 0.9244465 -0.3300427
vn -0.1909709 0.9244465 -0.3300427
vn -0.1909709 0.9244465 -0.3300427
vn -0.313407 0.9219851 -0.2274177
vn -0.313407 0.9219851 -0.2274178
vn -0.313407 0.9219851 -0.2274178
vn -0.3470894 0.9320197 -0.104247
vn -0.3470894 0.9320197 -0.104247
vn -0.3470894 0.9320197 -0.104247
vn -0.08790113 0.9190344 0.3842505
vn -0.08790113 0.9190344 0.3842505
vn -0.08790113 0.9190344 0.3842506
vn 0.2021003 0.8268818 0.5248061
vn 0.2021003 0.8268818 0.524806
vn 0.2021003 0.8268819 0.524806
vn -0.3432774 0.7785741 0.5253404
vn -0.3432775 0.7785741 0.5253404
vn -0.3432775 0.7785741 0.5253404

vt 0.5482839 0.007647395
vt 0.5 0.15
vt 0.6264089 0.06440853
vt 0.4517161 0.00764741
vt 0.3735911 0.06440856
vt 0.34375 0.15625
vt 0.3735911 0.2480915
vt 0.4517161 0.3048526
vt 0.5482839 0.3048526
vt 0.6264089 0.2480914
vt 0.65625 0.15625
vt 0 0
vt 0 1
vt 1 1
vt 1 0
vt 0 0
vt 0 1
vt 1 1
vt 1 0
vt 0 0
vt 0 1
vt 1 1
vt 1 0
vt 0 0
vt 0 1
vt 1 1
vt 1 0
vt 0 0
vt 0 1
vt 1 1
vt 1 0
vt 0 0
vt 0 1
vt 1 1
vt 1 0
vt 0 0
vt 0 1
vt 1 1
vt 1 0
vt 0 0
vt 0 1
vt 1 1
vt 1 0
vt 0 0
vt 0 1
vt 1 1
vt 1 0
vt 0 0
vt 0 1
vt 1 1
vt 1 0
vt 0 0
vt 0 1
vt 1 1
vt 1 0
vt 0 0
vt 0 1
vt 1 1
vt 1 0
vt 0 0
vt 0 1
vt 1 1
vt 1 0
vt 0 0
vt 0 1
vt 1 1
vt 1 0
vt 0 0
vt 0 1
vt 1 1
vt 1 0
vt 0 0
vt 0 1
vt 1 1
vt 1 0
vt 0 0
vt 0 1
vt 1 1
vt 1 0
vt 0 0
vt 0 1
vt 1 1
vt 1 0
vt 0 0
vt 0 1
vt 1 1
vt 1 0
vt 0 0
vt 0 1
vt 1 1
vt 1 0
vt 0 0
vt 0 1
vt 1 1
vt 1 0
vt 0 0
vt 0 1
vt 1 1
vt 1 0
vt 0 0
vt 0 1
vt 1 1
vt 1 0
vt 0 0
vt 0 1
vt 1 1
vt 1 0
vt 0 0
vt 0 1
vt 1 1
vt 1 0
vt 0 0
vt 0 1
vt 1 1
vt 1 0
vt 0 0
vt 0 1
vt 1 1
vt 1 0
vt 0 0
vt 0 1
vt 1 1
vt 1 0
vt 0 0
vt 0 1
vt 1 1
vt 1 0
vt 0 0
vt 0 1
vt 1 1
vt 1 0
vt 0 0
vt 0 1
vt 1 1
vt 1 0
vt 0 0
vt 0 1
vt 1 1
vt 1 0
vt 0 0
vt 0 1
vt 1 1
vt 1 0
vt 0 0
vt 0 1
vt 1 1
vt 1 0
vt 0 0
vt 0 1
vt 1 1
vt 1 0
vt 0 0
vt 0 1
vt 1 1
vt 1 0
vt 0 0
vt 0 1
vt 1 1
vt 1 0
vt 0 0
vt 0 1
vt 1 1
vt 1 0
vt 0 0
vt 0 1
vt 1 1
vt 1 0
vt 0 0
vt 0 1
vt 1 1
vt 1 0
vt 0 0
vt 0.5 1
vt 1 0
vt 0 0
vt 0.5 1
vt 1 0
vt 0 0
vt 0.5 1
vt 1 0
vt 0 0
vt 0.5 1
vt 1 0
vt 0 0
vt 0.5 1
vt 1 0
vt 0 0
vt 0.5 1
vt 1 0
vt 0 0
vt 0.5 1
vt 1 0
vt 0 0
vt 0.5 1
vt 1 0
vt 0 0
vt 0.5 1
vt 1 0
vt 0 0
vt 0.5 1
vt 1 0

g pCylinder1_1_3428_301
usemtl pCylinder1_1_3428_301
usemap pCylinder1_1_3428_301
f 1/1/1 3/3/3 2/2/2
f 4/4/4 1/1/1 2/2/2
f 5/5/5 4/4/4 2/2/2
f 6/6/6 5/5/5 2/2/2
f 7/7/7 6/6/6 2/2/2
f 8/8/8 7/7/7 2/2/2
f 9/9/9 8/8/8 2/2/2
f 10/10/10 9/9/9 2/2/2
f 11/11/11 10/10/10 2/2/2
f 3/3/3 11/11/11 2/2/2
f 12/12/12 14/14/14 13/13/13
f 12/12/12 15/15/15 14/14/14
f 16/16/16 18/18/18 17/17/17
f 16/16/16 19/19/19 18/18/18
f 20/20/20 22/22/22 21/21/21
f 20/20/20 23/23/23 22/22/22
f 24/24/24 26/26/26 25/25/25
f 24/24/24 27/27/27 26/26/26
f 28/28/28 30/30/30 29/29/29
f 28/28/28 31/31/31 30/30/30
f 32/32/32 34/34/34 33/33/33
f 32/32/32 35/35/35 34/34/34
f 36/36/36 38/38/38 37/37/37
f 36/36/36 39/39/39 38/38/38
f 40/40/40 42/42/42 41/41/41
f 40/40/40 43/43/43 42/42/42
f 44/44/44 46/46/46 45/45/45
f 44/44/44 47/47/47 46/46/46
f 48/48/48 50/50/50 49/49/49
f 48/48/48 51/51/51 50/50/50
f 52/52/52 54/54/54 53/53/53
f 52/52/52 55/55/55 54/54/54
f 56/56/56 58/58/58 57/57/57
f 56/56/56 59/59/59 58/58/58
f 60/60/60 62/62/62 61/61/61
f 60/60/60 63/63/63 62/62/62
f 64/64/64 66/66/66 65/65/65
f 64/64/64 67/67/67 66/66/66
f 68/68/68 70/70/70 69/69/69
f 68/68/68 71/71/71 70/70/70
f 72/72/72 74/74/74 73/73/73
f 72/72/72 75/75/75 74/74/74
f 76/76/76 78/78/78 77/77/77
f 76/76/76 79/79/79 78/78/78
f 80/80/80 82/82/82 81/81/81
f 80/80/80 83/83/83 82/82/82
f 84/84/84 86/86/86 85/85/85
f 84/84/84 87/87/87 86/86/86
f 88/88/88 90/90/90 89/89/89
f 88/88/88 91/91/91 90/90/90
f 92/92/92 94/94/94 93/93/93
f 92/92/92 95/95/95 94/94/94
f 96/96/96 98/98/98 97/97/97
f 96/96/96 99/99/99 98/98/98
f 100/100/100 102/102/102 101/101/101
f 100/100/100 103/103/103 102/102/102
f 104/104/104 106/106/106 105/105/105
f 104/104/104 107/107/107 106/106/106
f 108/108/108 110/110/110 109/109/109
f 108/108/108 111/111/111 110/110/110
f 112/112/112 114/114/114 113/113/113
f 112/112/112 115/115/115 114/114/114
f 116/116/116 118/118/118 117/117/117
f 116/116/116 119/119/119 118/118/118
f 120/120/120 122/122/122 121/121/121
f 120/120/120 123/123/123 122/122/122
f 124/124/124 126/126/126 125/125/125
f 124/124/124 127/127/127 126/126/126
f 128/128/128 130/130/130 129/129/129
f 128/128/128 131/131/131 130/130/130
f 132/132/132 134/134/134 133/133/133
f 132/132/132 135/135/135 134/134/134
f 136/136/136 138/138/138 137/137/137
f 136/136/136 139/139/139 138/138/138
f 140/140/140 142/142/142 141/141/141
f 140/140/140 143/143/143 142/142/142
f 144/144/144 146/146/146 145/145/145
f 144/144/144 147/147/147 146/146/146
f 148/148/148 150/150/150 149/149/149
f 148/148/148 151/151/151 150/150/150
f 152/152/152 154/154/154 153/153/153
f 152/152/152 155/155/155 154/154/154
f 156/156/156 158/158/158 157/157/157
f 156/156/156 159/159/159 158/158/158
f 160/160/160 162/162/162 161/161/161
f 160/160/160 163/163/163 162/162/162
f 164/164/164 166/166/166 165/165/165
f 164/164/164 167/167/167 166/166/166
f 168/168/168 170/170/170 169/169/169
f 168/168/168 171/171/171 170/170/170
f 172/172/172 174/174/174 173/173/173
f 175/175/175 177/177/177 176/176/176
f 178/178/178 180/180/180 179/179/179
f 181/181/181 183/183/183 182/182/182
f 184/184/184 186/186/186 185/185/185
f 187/187/187 189/189/189 188/188/188
f 190/190/190 192/192/192 191/191/191
f 193/193/193 195/195/195 194/194/194
f 196/196/196 198/198/198 197/197/197
f 199/199/199 201/201/201 200/200/200
