#pCylinder9_19_3446_248.obj

v 0.0145419 -0.02577567 -0.0403574
v 0.004620223 -0.03397618 0.001092395
v 0.03878059 -0.02577567 -0.02105368
v -0.009667354 -0.02577567 -0.03817431
v -0.01825468 -0.02577567 -0.01777934
v -0.03822594 -0.02223226 0.001092455
v -0.02135444 -0.02577567 0.01996413
v -0.005301378 -0.02577567 0.03271903
v 0.02109016 -0.02577567 0.04035929
v 0.03059506 -0.02577567 0.01996413
v 0.03218525 -0.02223226 0.001092602
v 0.03878059 -0.02577567 -0.02105368
v 0.04796286 -0.01489249 -0.02772501
v 0.01804885 -0.01489249 -0.05115176
v 0.0145419 -0.02577567 -0.0403574
v 0.0145419 -0.02577567 -0.0403574
v 0.01804885 -0.01489249 -0.05115176
v -0.01317454 -0.01489249 -0.04896887
v -0.009667354 -0.02577567 -0.03817431
v -0.009667354 -0.02577567 -0.03817431
v -0.01317454 -0.01489249 -0.04896887
v -0.0274369 -0.01489249 -0.0244508
v -0.01825468 -0.02577567 -0.01777934
v -0.01825468 -0.02577567 -0.01777934
v -0.0274369 -0.01489249 -0.0244508
v -0.04797095 -0.01288823 0.001092535
v -0.03822594 -0.02223226 0.001092455
v -0.03822594 -0.02223226 0.001092455
v -0.04797095 -0.01288823 0.001092535
v -0.03053669 -0.01489249 0.02663551
v -0.02135444 -0.02577567 0.01996413
v -0.02135444 -0.02577567 0.01996413
v -0.03053669 -0.01489249 0.02663551
v -0.008809233 -0.01489249 0.04351373
v -0.005301378 -0.02577567 0.03271903
v -0.005301378 -0.02577567 0.03271903
v -0.008809233 -0.01489249 0.04351373
v 0.02459733 -0.01489249 0.05115382
v 0.02109016 -0.02577567 0.04035929
v 0.02109016 -0.02577567 0.04035929
v 0.02459733 -0.01489249 0.05115382
v 0.03977729 -0.01489249 0.02663561
v 0.03059506 -0.02577567 0.01996413
v 0.03059506 -0.02577567 0.01996413
v 0.03977729 -0.01489249 0.02663561
v 0.04193026 -0.01288823 0.001092522
v 0.03218525 -0.02223226 0.001092602
v 0.03218525 -0.02223226 0.001092602
v 0.04193026 -0.01288823 0.001092522
v 0.04796286 -0.01489249 -0.02772501
v 0.03878059 -0.02577567 -0.02105368
v 0.04796286 -0.01489249 -0.02772501
v 0.04796285 -0.0001483435 -0.02772504
v 0.01804885 -0.0001483435 -0.05115176
v 0.01804885 -0.01489249 -0.05115176
v 0.01804885 -0.01489249 -0.05115176
v 0.01804885 -0.0001483435 -0.05115176
v -0.01317454 -0.0001483435 -0.04896887
v -0.01317454 -0.01489249 -0.04896887
v -0.01317454 -0.01489249 -0.04896887
v -0.01317454 -0.0001483435 -0.04896887
v -0.0274369 -0.0001483435 -0.0244508
v -0.0274369 -0.01489249 -0.0244508
v -0.0274369 -0.01489249 -0.0244508
v -0.0274369 -0.0001483435 -0.0244508
v -0.04797095 -0.0002294473 0.001092535
v -0.04797095 -0.01288823 0.001092535
v -0.04797095 -0.01288823 0.001092535
v -0.04797095 -0.0002294473 0.001092535
v -0.03053669 -0.0001483435 0.02663551
v -0.03053669 -0.01489249 0.02663551
v -0.03053669 -0.01489249 0.02663551
v -0.03053669 -0.0001483435 0.02663551
v -0.008809233 -0.0001483435 0.04351373
v -0.008809233 -0.01489249 0.04351373
v -0.008809233 -0.01489249 0.04351373
v -0.008809233 -0.0001483435 0.04351373
v 0.02459733 -0.0001483435 0.05115382
v 0.02459733 -0.01489249 0.05115382
v 0.02459733 -0.01489249 0.05115382
v 0.02459733 -0.0001483435 0.05115382
v 0.03977729 -0.0001483435 0.02663561
v 0.03977729 -0.01489249 0.02663561
v 0.03977729 -0.01489249 0.02663561
v 0.03977729 -0.0001483435 0.02663561
v 0.04193026 -0.0002294473 0.001092522
v 0.04193026 -0.01288823 0.001092522
v 0.04193026 -0.01288823 0.001092522
v 0.04193026 -0.0002294473 0.001092522
v 0.04796285 -0.0001483435 -0.02772504
v 0.04796286 -0.01489249 -0.02772501
v 0.04796285 -0.0001483435 -0.02772504
v 0.0456852 0.01428336 -0.02539586
v 0.01714158 0.01428336 -0.04799039
v 0.01804885 -0.0001483435 -0.05115176
v 0.01804885 -0.0001483435 -0.05115176
v 0.01714158 0.01428336 -0.04799039
v -0.01183306 0.01428336 -0.0455966
v -0.01317454 -0.0001483435 -0.04896887
v -0.01317454 -0.0001483435 -0.04896887
v -0.01183306 0.01428336 -0.0455966
v -0.02321389 0.01428336 -0.02180547
v -0.0274369 -0.0001483435 -0.0244508
v -0.0274369 -0.0001483435 -0.0244508
v -0.02321389 0.01428336 -0.02180547
v -0.04530768 0.01197203 0.001197731
v -0.04797095 -0.0002294473 0.001092535
v -0.04797095 -0.0002294473 0.001092535
v -0.04530768 0.01197203 0.001197731
v -0.02661321 0.01428336 0.02420091
v -0.03053669 -0.0001483435 0.02663551
v -0.03053669 -0.0001483435 0.02663551
v -0.02661321 0.01428336 0.02420091
v -0.007045866 0.01428336 0.03961463
v -0.008809233 -0.0001483435 0.04351373
v -0.008809233 -0.0001483435 0.04351373
v -0.007045866 0.01428336 0.03961463
v 0.0243224 0.01428336 0.04799215
v 0.02459733 -0.0001483435 0.05115382
v 0.02459733 -0.0001483435 0.05115382
v 0.0243224 0.01428336 0.04799215
v 0.03670871 0.01428336 0.02420111
v 0.03977729 -0.0001483435 0.02663561
v 0.03977729 -0.0001483435 0.02663561
v 0.03670871 0.01428336 0.02420111
v 0.03864773 0.01197203 0.001197978
v 0.04193026 -0.0002294473 0.001092522
v 0.04193026 -0.0002294473 0.001092522
v 0.03864773 0.01197203 0.001197978
v 0.0456852 0.01428336 -0.02539586
v 0.04796285 -0.0001483435 -0.02772504
v 0.0456852 0.01428336 -0.02539586
v 0.03224821 0.02437431 -0.01614652
v 0.01203302 0.02437431 -0.03256778
v 0.01714158 0.01428336 -0.04799039
v 0.01714158 0.01428336 -0.04799039
v 0.01203302 0.02437431 -0.03256778
v -0.002596231 0.02437431 -0.02139275
v -0.01183306 0.01428336 -0.0455966
v -0.01183306 0.01428336 -0.0455966
v -0.002596231 0.02437431 -0.02139275
v -0.01125716 0.02437431 -0.01279416
v -0.02321389 0.01428336 -0.02180547
v -0.02321389 0.01428336 -0.02180547
v -0.01125716 0.02437431 -0.01279416
v -0.03124898 0.02074638 0.001118659
v -0.04530768 0.01197203 0.001197731
v -0.04530768 0.01197203 0.001197731
v -0.03124898 0.02074638 0.001118659
v -0.01443055 0.02437431 0.01503106
v -0.02661321 0.01428336 0.02420091
v -0.02661321 0.01428336 0.02420091
v -0.01443055 0.02437431 0.01503106
v -0.002596152 0.02437431 0.02474728
v -0.007045866 0.01428336 0.03961463
v -0.007045866 0.01428336 0.03961463
v -0.002596152 0.02437431 0.02474728
v 0.01873793 0.02437431 0.03256945
v 0.0243224 0.01428336 0.04799215
v 0.0243224 0.01428336 0.04799215
v 0.01873793 0.02437431 0.03256945
v 0.02386721 0.02437431 0.01503132
v 0.03670871 0.01428336 0.02420111
v 0.03670871 0.01428336 0.02420111
v 0.02386721 0.02437431 0.01503132
v 0.02503999 0.02074638 0.001118614
v 0.03864773 0.01197203 0.001197978
v 0.03864773 0.01197203 0.001197978
v 0.02503999 0.02074638 0.001118614
v 0.03224821 0.02437431 -0.01614652
v 0.0456852 0.01428336 -0.02539586
v 0.03224821 0.02437431 -0.01614652
v 0.004620212 0.03397606 0.001092366
v 0.01203302 0.02437431 -0.03256778
v 0.01203302 0.02437431 -0.03256778
v 0.004620212 0.03397606 0.001092366
v -0.002596231 0.02437431 -0.02139275
v -0.002596231 0.02437431 -0.02139275
v 0.004620212 0.03397606 0.001092366
v -0.01125716 0.02437431 -0.01279416
v -0.01125716 0.02437431 -0.01279416
v 0.004620212 0.03397606 0.001092366
v -0.03124898 0.02074638 0.001118659
v -0.03124898 0.02074638 0.001118659
v 0.004620212 0.03397606 0.001092366
v -0.01443055 0.02437431 0.01503106
v -0.01443055 0.02437431 0.01503106
v 0.004620212 0.03397606 0.001092366
v -0.002596152 0.02437431 0.02474728
v -0.002596152 0.02437431 0.02474728
v 0.004620212 0.03397606 0.001092366
v 0.01873793 0.02437431 0.03256945
v 0.01873793 0.02437431 0.03256945
v 0.004620212 0.03397606 0.001092366
v 0.02386721 0.02437431 0.01503132
v 0.02386721 0.02437431 0.01503132
v 0.004620212 0.03397606 0.001092366
v 0.02503999 0.02074638 0.001118614
v 0.02503999 0.02074638 0.001118614
v 0.004620212 0.03397606 0.001092366
v 0.03224821 0.02437431 -0.01614652

vn 0.1198397 -0.9818567 -0.1469535
vn 0.001567825 -0.9999983 0.0005798723
vn 0.2057067 -0.9784299 0.01895525
vn -0.01664517 -0.9810986 -0.1927898
vn -0.2064298 -0.9602383 -0.1879588
vn -0.2407517 -0.9642733 -0.1105219
vn -0.2499758 -0.9679797 0.02295151
vn -0.1713917 -0.9703192 0.1706017
vn -0.00917697 -0.9818348 0.1895141
vn 0.2559921 -0.9585601 0.1250202
vn 0.3293177 -0.9154218 0.2314133
vn 0.6091914 -0.7039261 -0.3652037
vn 0.6091914 -0.7039261 -0.3652037
vn 0.6091914 -0.7039261 -0.3652036
vn 0.6091914 -0.7039261 -0.3652037
vn 0.1993273 -0.7031068 -0.6825753
vn 0.1993273 -0.7031069 -0.6825753
vn 0.1993272 -0.7031068 -0.6825753
vn 0.1993272 -0.7031069 -0.6825753
vn -0.5039141 -0.6620907 -0.5547127
vn -0.5039141 -0.6620907 -0.5547128
vn -0.5039141 -0.6620907 -0.5547127
vn -0.5039141 -0.6620907 -0.5547128
vn -0.3837677 -0.6863983 -0.6177213
vn -0.3837678 -0.6863982 -0.6177214
vn -0.3837677 -0.6863982 -0.6177213
vn -0.3837677 -0.6863982 -0.6177213
vn -0.7044533 -0.6953635 0.1421789
vn -0.7044533 -0.6953635 0.1421789
vn -0.7044533 -0.6953635 0.1421789
vn -0.7044533 -0.6953635 0.1421789
vn -0.6080852 -0.703966 0.3669659
vn -0.6080853 -0.703966 0.3669659
vn -0.6080852 -0.703966 0.3669659
vn -0.6080852 -0.703966 0.3669659
vn -0.4147717 -0.6928936 0.5897987
vn -0.4147717 -0.6928937 0.5897987
vn -0.4147717 -0.6928937 0.5897987
vn -0.4147717 -0.6928936 0.5897987
vn 0.4826109 -0.6678945 0.5665718
vn 0.4826108 -0.6678945 0.5665717
vn 0.4826108 -0.6678945 0.5665717
vn 0.4826109 -0.6678945 0.5665718
vn 0.694161 -0.6790239 0.2388866
vn 0.694161 -0.679024 0.2388866
vn 0.694161 -0.6790239 0.2388866
vn 0.694161 -0.6790239 0.2388866
vn 0.6086872 -0.6155776 0.5005636
vn 0.6086873 -0.6155775 0.5005636
vn 0.6086872 -0.6155776 0.5005636
vn 0.6086872 -0.6155776 0.5005635
vn 0.8557956 -4.968848E-17 -0.5173141
vn 0.8557957 -4.968849E-17 -0.517314
vn 0.8557957 -4.968849E-17 -0.517314
vn 0.8557956 -4.968848E-17 -0.5173141
vn 0.2887493 9.277494E-17 -0.9574048
vn 0.2887493 9.277494E-17 -0.9574048
vn 0.2887493 9.277494E-17 -0.9574048
vn 0.2887493 9.277494E-17 -0.9574048
vn -0.6297374 1.985202E-16 -0.7768081
vn -0.6297374 1.985202E-16 -0.7768081
vn -0.6297374 1.985202E-16 -0.7768081
vn -0.6297374 1.985202E-16 -0.7768081
vn -0.5063725 1.928875E-16 -0.8623148
vn -0.5063726 1.928876E-16 -0.8623148
vn -0.5063725 1.928875E-16 -0.8623148
vn -0.5063725 1.928875E-16 -0.8623148
vn -0.9722397 1.059422E-16 0.2339869
vn -0.9722397 1.059422E-16 0.2339869
vn -0.9722398 1.059422E-16 0.233987
vn -0.9722397 1.059422E-16 0.2339869
vn -0.8537441 4.892307E-17 0.5206929
vn -0.8537441 4.892307E-17 0.5206929
vn -0.8537441 4.892307E-17 0.5206929
vn -0.8537441 4.892307E-17 0.5206929
vn -0.5543293 -3.738666E-17 0.8322974
vn -0.5543293 -3.738666E-17 0.8322974
vn -0.5543293 -3.738666E-17 0.8322974
vn -0.5543293 -3.738666E-17 0.8322974
vn 0.6081426 -1.978214E-16 0.7938279
vn 0.6081426 -1.978214E-16 0.7938279
vn 0.6081426 -1.978214E-16 0.7938279
vn 0.6081426 -1.978214E-16 0.7938279
vn 0.9018254 -1.89099E-16 0.4321006
vn 0.9018254 -1.89099E-16 0.4321006
vn 0.9018254 -1.89099E-16 0.4321006
vn 0.9018254 -1.89099E-16 0.4321006
vn 0.8423983 -1.955596E-16 0.5388554
vn 0.8423983 -1.955596E-16 0.5388553
vn 0.8423983 -1.955596E-16 0.5388554
vn 0.8423983 -1.955596E-16 0.5388554
vn 0.8374889 0.212757 -0.5033359
vn 0.8374888 0.212757 -0.5033358
vn 0.8374888 0.212757 -0.5033358
vn 0.8374888 0.212757 -0.5033358
vn 0.2759126 0.2212333 -0.9353759
vn 0.2759126 0.2212333 -0.9353759
vn 0.2759126 0.2212333 -0.9353759
vn 0.2759126 0.2212333 -0.9353759
vn -0.6369599 0.2588966 -0.726123
vn -0.63696 0.2588966 -0.726123
vn -0.6369599 0.2588966 -0.726123
vn -0.6369599 0.2588965 -0.726123
vn -0.4612927 0.2546348 -0.8499236
vn -0.4612927 0.2546348 -0.8499236
vn -0.4612927 0.2546348 -0.8499236
vn -0.4612928 0.2546348 -0.8499236
vn -0.9354348 0.2437819 0.2559924
vn -0.9354348 0.243782 0.2559924
vn -0.9354348 0.2437819 0.2559924
vn -0.9354348 0.2437819 0.2559924
vn -0.8206348 0.2822602 0.4968778
vn -0.8206348 0.2822602 0.4968778
vn -0.8206348 0.2822603 0.4968778
vn -0.8206348 0.2822603 0.4968778
vn -0.5519159 0.242386 0.7978958
vn -0.5519159 0.242386 0.7978958
vn -0.5519159 0.242386 0.7978958
vn -0.5519159 0.242386 0.7978958
vn 0.6242189 0.1930069 0.7570331
vn 0.6242189 0.1930069 0.7570331
vn 0.6242188 0.1930069 0.7570331
vn 0.6242189 0.1930069 0.7570331
vn 0.8810666 0.2371581 0.4092403
vn 0.8810666 0.2371581 0.4092404
vn 0.8810666 0.2371581 0.4092404
vn 0.8810666 0.2371581 0.4092404
vn 0.8110239 0.178262 0.557192
vn 0.811024 0.178262 0.5571919
vn 0.8110239 0.178262 0.557192
vn 0.8110239 0.178262 0.557192
vn 0.4714463 0.8368365 -0.278285
vn 0.4714464 0.8368365 -0.2782851
vn 0.4714463 0.8368365 -0.278285
vn 0.4714464 0.8368365 -0.2782851
vn 0.02799843 0.8884323 -0.4581525
vn 0.02799843 0.8884323 -0.4581525
vn 0.02799843 0.8884323 -0.4581525
vn 0.02799846 0.8884323 -0.4581525
vn -0.3006557 0.8693343 -0.3922544
vn -0.3006557 0.8693343 -0.3922544
vn -0.3006557 0.8693343 -0.3922544
vn -0.3006557 0.8693343 -0.3922544
vn -0.285401 0.8049013 -0.5202689
vn -0.285401 0.8049014 -0.5202689
vn -0.285401 0.8049014 -0.5202689
vn -0.285401 0.8049014 -0.5202689
vn -0.5583633 0.8185279 0.1350634
vn -0.5583633 0.8185279 0.1350635
vn -0.5583634 0.8185279 0.1350635
vn -0.5583633 0.8185279 0.1350634
vn -0.490111 0.8222619 0.2892687
vn -0.490111 0.8222618 0.2892686
vn -0.490111 0.8222618 0.2892687
vn -0.490111 0.8222618 0.2892686
vn -0.3537715 0.8172353 0.4549415
vn -0.3537714 0.8172353 0.4549415
vn -0.3537714 0.8172353 0.4549415
vn -0.3537714 0.8172353 0.4549415
vn 0.4370136 0.7962341 0.4183658
vn 0.4370136 0.7962341 0.4183658
vn 0.4370136 0.7962341 0.4183659
vn 0.4370136 0.7962341 0.4183658
vn 0.5857763 0.798513 0.1387184
vn 0.5857762 0.7985131 0.1387184
vn 0.5857762 0.7985131 0.1387184
vn 0.5857762 0.798513 0.1387184
vn 0.4664861 0.7325384 0.4957599
vn 0.4664861 0.7325385 0.4957599
vn 0.4664861 0.7325384 0.4957599
vn 0.4664861 0.7325384 0.4957599
vn 0.257397 0.9546866 -0.1493977
vn 0.257397 0.9546866 -0.1493977
vn 0.257397 0.9546866 -0.1493977
vn -0.113159 0.9181487 -0.3797335
vn -0.113159 0.9181487 -0.3797335
vn -0.113159 0.9181487 -0.3797335
vn -0.1689294 0.9097521 -0.3792274
vn -0.1689294 0.9097521 -0.3792275
vn -0.1689294 0.9097521 -0.3792275
vn -0.2268324 0.9095349 -0.3482713
vn -0.2268324 0.9095349 -0.3482713
vn -0.2268324 0.9095349 -0.3482713
vn -0.3793229 0.9244465 0.03888779
vn -0.3793229 0.9244465 0.03888781
vn -0.3793229 0.9244465 0.03888779
vn -0.3359094 0.9219851 0.1926335
vn -0.3359094 0.9219852 0.1926335
vn -0.3359094 0.9219852 0.1926335
vn -0.2373719 0.9320198 0.2738487
vn -0.2373719 0.9320198 0.2738487
vn -0.2373719 0.9320198 0.2738487
vn 0.3144446 0.9190345 0.2376966
vn 0.3144446 0.9190345 0.2376966
vn 0.3144447 0.9190344 0.2376966
vn 0.5615311 0.8268819 0.03080295
vn 0.5615311 0.8268819 0.03080295
vn 0.5615311 0.8268819 0.03080295
vn 0.3384444 0.7785742 0.528467
vn 0.3384443 0.7785742 0.528467
vn 0.3384444 0.7785742 0.5284671

vt 0.5482839 0.007647395
vt 0.5 0.15
vt 0.6264089 0.06440853
vt 0.4517161 0.00764741
vt 0.3735911 0.06440856
vt 0.34375 0.15625
vt 0.3735911 0.2480915
vt 0.4517161 0.3048526
vt 0.5482839 0.3048526
vt 0.6264089 0.2480914
vt 0.65625 0.15625
vt 0 0
vt 0 1
vt 1 1
vt 1 0
vt 0 0
vt 0 1
vt 1 1
vt 1 0
vt 0 0
vt 0 1
vt 1 1
vt 1 0
vt 0 0
vt 0 1
vt 1 1
vt 1 0
vt 0 0
vt 0 1
vt 1 1
vt 1 0
vt 0 0
vt 0 1
vt 1 1
vt 1 0
vt 0 0
vt 0 1
vt 1 1
vt 1 0
vt 0 0
vt 0 1
vt 1 1
vt 1 0
vt 0 0
vt 0 1
vt 1 1
vt 1 0
vt 0 0
vt 0 1
vt 1 1
vt 1 0
vt 0 0
vt 0 1
vt 1 1
vt 1 0
vt 0 0
vt 0 1
vt 1 1
vt 1 0
vt 0 0
vt 0 1
vt 1 1
vt 1 0
vt 0 0
vt 0 1
vt 1 1
vt 1 0
vt 0 0
vt 0 1
vt 1 1
vt 1 0
vt 0 0
vt 0 1
vt 1 1
vt 1 0
vt 0 0
vt 0 1
vt 1 1
vt 1 0
vt 0 0
vt 0 1
vt 1 1
vt 1 0
vt 0 0
vt 0 1
vt 1 1
vt 1 0
vt 0 0
vt 0 1
vt 1 1
vt 1 0
vt 0 0
vt 0 1
vt 1 1
vt 1 0
vt 0 0
vt 0 1
vt 1 1
vt 1 0
vt 0 0
vt 0 1
vt 1 1
vt 1 0
vt 0 0
vt 0 1
vt 1 1
vt 1 0
vt 0 0
vt 0 1
vt 1 1
vt 1 0
vt 0 0
vt 0 1
vt 1 1
vt 1 0
vt 0 0
vt 0 1
vt 1 1
vt 1 0
vt 0 0
vt 0 1
vt 1 1
vt 1 0
vt 0 0
vt 0 1
vt 1 1
vt 1 0
vt 0 0
vt 0 1
vt 1 1
vt 1 0
vt 0 0
vt 0 1
vt 1 1
vt 1 0
vt 0 0
vt 0 1
vt 1 1
vt 1 0
vt 0 0
vt 0 1
vt 1 1
vt 1 0
vt 0 0
vt 0 1
vt 1 1
vt 1 0
vt 0 0
vt 0 1
vt 1 1
vt 1 0
vt 0 0
vt 0 1
vt 1 1
vt 1 0
vt 0 0
vt 0 1
vt 1 1
vt 1 0
vt 0 0
vt 0 1
vt 1 1
vt 1 0
vt 0 0
vt 0 1
vt 1 1
vt 1 0
vt 0 0
vt 0 1
vt 1 1
vt 1 0
vt 0 0
vt 0.5 1
vt 1 0
vt 0 0
vt 0.5 1
vt 1 0
vt 0 0
vt 0.5 1
vt 1 0
vt 0 0
vt 0.5 1
vt 1 0
vt 0 0
vt 0.5 1
vt 1 0
vt 0 0
vt 0.5 1
vt 1 0
vt 0 0
vt 0.5 1
vt 1 0
vt 0 0
vt 0.5 1
vt 1 0
vt 0 0
vt 0.5 1
vt 1 0
vt 0 0
vt 0.5 1
vt 1 0

g pCylinder9_19_3446_248
usemtl pCylinder9_19_3446_248
usemap pCylinder9_19_3446_248
f 1/1/1 3/3/3 2/2/2
f 4/4/4 1/1/1 2/2/2
f 5/5/5 4/4/4 2/2/2
f 6/6/6 5/5/5 2/2/2
f 7/7/7 6/6/6 2/2/2
f 8/8/8 7/7/7 2/2/2
f 9/9/9 8/8/8 2/2/2
f 10/10/10 9/9/9 2/2/2
f 11/11/11 10/10/10 2/2/2
f 3/3/3 11/11/11 2/2/2
f 12/12/12 14/14/14 13/13/13
f 12/12/12 15/15/15 14/14/14
f 16/16/16 18/18/18 17/17/17
f 16/16/16 19/19/19 18/18/18
f 20/20/20 22/22/22 21/21/21
f 20/20/20 23/23/23 22/22/22
f 24/24/24 26/26/26 25/25/25
f 24/24/24 27/27/27 26/26/26
f 28/28/28 30/30/30 29/29/29
f 28/28/28 31/31/31 30/30/30
f 32/32/32 34/34/34 33/33/33
f 32/32/32 35/35/35 34/34/34
f 36/36/36 38/38/38 37/37/37
f 36/36/36 39/39/39 38/38/38
f 40/40/40 42/42/42 41/41/41
f 40/40/40 43/43/43 42/42/42
f 44/44/44 46/46/46 45/45/45
f 44/44/44 47/47/47 46/46/46
f 48/48/48 50/50/50 49/49/49
f 48/48/48 51/51/51 50/50/50
f 52/52/52 54/54/54 53/53/53
f 52/52/52 55/55/55 54/54/54
f 56/56/56 58/58/58 57/57/57
f 56/56/56 59/59/59 58/58/58
f 60/60/60 62/62/62 61/61/61
f 60/60/60 63/63/63 62/62/62
f 64/64/64 66/66/66 65/65/65
f 64/64/64 67/67/67 66/66/66
f 68/68/68 70/70/70 69/69/69
f 68/68/68 71/71/71 70/70/70
f 72/72/72 74/74/74 73/73/73
f 72/72/72 75/75/75 74/74/74
f 76/76/76 78/78/78 77/77/77
f 76/76/76 79/79/79 78/78/78
f 80/80/80 82/82/82 81/81/81
f 80/80/80 83/83/83 82/82/82
f 84/84/84 86/86/86 85/85/85
f 84/84/84 87/87/87 86/86/86
f 88/88/88 90/90/90 89/89/89
f 88/88/88 91/91/91 90/90/90
f 92/92/92 94/94/94 93/93/93
f 92/92/92 95/95/95 94/94/94
f 96/96/96 98/98/98 97/97/97
f 96/96/96 99/99/99 98/98/98
f 100/100/100 102/102/102 101/101/101
f 100/100/100 103/103/103 102/102/102
f 104/104/104 106/106/106 105/105/105
f 104/104/104 107/107/107 106/106/106
f 108/108/108 110/110/110 109/109/109
f 108/108/108 111/111/111 110/110/110
f 112/112/112 114/114/114 113/113/113
f 112/112/112 115/115/115 114/114/114
f 116/116/116 118/118/118 117/117/117
f 116/116/116 119/119/119 118/118/118
f 120/120/120 122/122/122 121/121/121
f 120/120/120 123/123/123 122/122/122
f 124/124/124 126/126/126 125/125/125
f 124/124/124 127/127/127 126/126/126
f 128/128/128 130/130/130 129/129/129
f 128/128/128 131/131/131 130/130/130
f 132/132/132 134/134/134 133/133/133
f 132/132/132 135/135/135 134/134/134
f 136/136/136 138/138/138 137/137/137
f 136/136/136 139/139/139 138/138/138
f 140/140/140 142/142/142 141/141/141
f 140/140/140 143/143/143 142/142/142
f 144/144/144 146/146/146 145/145/145
f 144/144/144 147/147/147 146/146/146
f 148/148/148 150/150/150 149/149/149
f 148/148/148 151/151/151 150/150/150
f 152/152/152 154/154/154 153/153/153
f 152/152/152 155/155/155 154/154/154
f 156/156/156 158/158/158 157/157/157
f 156/156/156 159/159/159 158/158/158
f 160/160/160 162/162/162 161/161/161
f 160/160/160 163/163/163 162/162/162
f 164/164/164 166/166/166 165/165/165
f 164/164/164 167/167/167 166/166/166
f 168/168/168 170/170/170 169/169/169
f 168/168/168 171/171/171 170/170/170
f 172/172/172 174/174/174 173/173/173
f 175/175/175 177/177/177 176/176/176
f 178/178/178 180/180/180 179/179/179
f 181/181/181 183/183/183 182/182/182
f 184/184/184 186/186/186 185/185/185
f 187/187/187 189/189/189 188/188/188
f 190/190/190 192/192/192 191/191/191
f 193/193/193 195/195/195 194/194/194
f 196/196/196 198/198/198 197/197/197
f 199/199/199 201/201/201 200/200/200
