#pCylinder7_27_3621_219.obj

v 0.01454397 -0.02577564 -0.04035635
v 0.004622572 -0.03397605 0.001093091
v 0.0387832 -0.02577564 -0.02105309
v -0.009664563 -0.02577564 -0.03817316
v -0.01825213 -0.02577564 -0.01777846
v -0.03822335 -0.02223218 0.001093332
v -0.02135219 -0.02577564 0.01996497
v -0.005298952 -0.02577564 0.03272015
v 0.02109272 -0.02577564 0.04035994
v 0.03059728 -0.02577564 0.01996532
v 0.03218807 -0.02223218 0.00109342
v 0.0387832 -0.02577564 -0.02105309
v 0.04796545 -0.01489235 -0.02772441
v 0.01805127 -0.01489235 -0.05115099
v 0.01454397 -0.02577564 -0.04035635
v 0.01454397 -0.02577564 -0.04035635
v 0.01805127 -0.01489235 -0.05115099
v -0.01317222 -0.01489235 -0.0489678
v -0.009664563 -0.02577564 -0.03817316
v -0.009664563 -0.02577564 -0.03817316
v -0.01317222 -0.01489235 -0.0489678
v -0.02743436 -0.01489235 -0.02444954
v -0.01825213 -0.02577564 -0.01777846
v -0.01825213 -0.02577564 -0.01777846
v -0.02743436 -0.01489235 -0.02444954
v -0.04796809 -0.01288814 0.001093566
v -0.03822335 -0.02223218 0.001093332
v -0.03822335 -0.02223218 0.001093332
v -0.04796809 -0.01288814 0.001093566
v -0.03053473 -0.01489235 0.02663636
v -0.02135219 -0.02577564 0.01996497
v -0.02135219 -0.02577564 0.01996497
v -0.03053473 -0.01489235 0.02663636
v -0.008806372 -0.01489235 0.04351421
v -0.005298952 -0.02577564 0.03272015
v -0.005298952 -0.02577564 0.03272015
v -0.008806372 -0.01489235 0.04351421
v 0.02460008 -0.01489235 0.05115464
v 0.02109272 -0.02577564 0.04035994
v 0.02109272 -0.02577564 0.04035994
v 0.02460008 -0.01489235 0.05115464
v 0.03977951 -0.01489235 0.02663641
v 0.03059728 -0.02577564 0.01996532
v 0.03059728 -0.02577564 0.01996532
v 0.03977951 -0.01489235 0.02663641
v 0.04193281 -0.01288814 0.001093186
v 0.03218807 -0.02223218 0.00109342
v 0.03218807 -0.02223218 0.00109342
v 0.04193281 -0.01288814 0.001093186
v 0.04796545 -0.01489235 -0.02772441
v 0.0387832 -0.02577564 -0.02105309
v 0.04796545 -0.01489235 -0.02772441
v 0.04796545 -0.0001482981 -0.02772441
v 0.01805127 -0.0001482981 -0.05115099
v 0.01805127 -0.01489235 -0.05115099
v 0.01805127 -0.01489235 -0.05115099
v 0.01805127 -0.0001482981 -0.05115099
v -0.01317222 -0.0001482981 -0.0489678
v -0.01317222 -0.01489235 -0.0489678
v -0.01317222 -0.01489235 -0.0489678
v -0.01317222 -0.0001482981 -0.0489678
v -0.02743436 -0.0001482981 -0.02444954
v -0.02743436 -0.01489235 -0.02444954
v -0.02743436 -0.01489235 -0.02444954
v -0.02743436 -0.0001482981 -0.02444954
v -0.04796809 -0.0002293822 0.001093566
v -0.04796809 -0.01288814 0.001093566
v -0.04796809 -0.01288814 0.001093566
v -0.04796809 -0.0002293822 0.001093566
v -0.03053473 -0.0001482981 0.02663636
v -0.03053473 -0.01489235 0.02663636
v -0.03053473 -0.01489235 0.02663636
v -0.03053473 -0.0001482981 0.02663636
v -0.008806372 -0.0001482981 0.04351421
v -0.008806372 -0.01489235 0.04351421
v -0.008806372 -0.01489235 0.04351421
v -0.008806372 -0.0001482981 0.04351421
v 0.02460008 -0.0001482981 0.05115464
v 0.02460008 -0.01489235 0.05115464
v 0.02460008 -0.01489235 0.05115464
v 0.02460008 -0.0001482981 0.05115464
v 0.03977951 -0.0001482981 0.02663641
v 0.03977951 -0.01489235 0.02663641
v 0.03977951 -0.01489235 0.02663641
v 0.03977951 -0.0001482981 0.02663641
v 0.04193281 -0.0002293822 0.001093186
v 0.04193281 -0.01288814 0.001093186
v 0.04193281 -0.01288814 0.001093186
v 0.04193281 -0.0002293822 0.001093186
v 0.04796545 -0.0001482981 -0.02772441
v 0.04796545 -0.01489235 -0.02772441
v 0.04796545 -0.0001482981 -0.02772441
v 0.04568767 0.01428339 -0.02539477
v 0.01714364 0.01428339 -0.0479893
v 0.01805127 -0.0001482981 -0.05115099
v 0.01805127 -0.0001482981 -0.05115099
v 0.01714364 0.01428339 -0.0479893
v -0.01183043 0.01428339 -0.0455956
v -0.01317222 -0.0001482981 -0.0489678
v -0.01317222 -0.0001482981 -0.0489678
v -0.01183043 0.01428339 -0.0455956
v -0.02321146 0.01428339 -0.02180436
v -0.02743436 -0.0001482981 -0.02444954
v -0.02743436 -0.0001482981 -0.02444954
v -0.02321146 0.01428339 -0.02180436
v -0.04530535 0.01197212 0.001198894
v -0.04796809 -0.0002293822 0.001093566
v -0.04796809 -0.0002293822 0.001093566
v -0.04530535 0.01197212 0.001198894
v -0.02661087 0.01428339 0.02420221
v -0.03053473 -0.0001482981 0.02663636
v -0.03053473 -0.0001482981 0.02663636
v -0.02661087 0.01428339 0.02420221
v -0.007043093 0.01428339 0.03961548
v -0.008806372 -0.0001482981 0.04351421
v -0.008806372 -0.0001482981 0.04351421
v -0.007043093 0.01428339 0.03961548
v 0.02432461 0.01428339 0.04799298
v 0.02460008 -0.0001482981 0.05115464
v 0.02460008 -0.0001482981 0.05115464
v 0.02432461 0.01428339 0.04799298
v 0.03671153 0.01428339 0.02420175
v 0.03977951 -0.0001482981 0.02663641
v 0.03977951 -0.0001482981 0.02663641
v 0.03671153 0.01428339 0.02420175
v 0.03865068 0.01197212 0.001198671
v 0.04193281 -0.0002293822 0.001093186
v 0.04193281 -0.0002293822 0.001093186
v 0.03865068 0.01197212 0.001198671
v 0.04568767 0.01428339 -0.02539477
v 0.04796545 -0.0001482981 -0.02772441
v 0.04568767 0.01428339 -0.02539477
v 0.03225107 0.02437446 -0.01614565
v 0.0120351 0.02437446 -0.03256682
v 0.01714364 0.01428339 -0.0479893
v 0.01714364 0.01428339 -0.0479893
v 0.0120351 0.02437446 -0.03256682
v -0.002593596 0.02437446 -0.02139203
v -0.01183043 0.01428339 -0.0455956
v -0.01183043 0.01428339 -0.0455956
v -0.002593596 0.02437446 -0.02139203
v -0.0112543 0.02437446 -0.01279313
v -0.02321146 0.01428339 -0.02180436
v -0.02321146 0.01428339 -0.02180436
v -0.0112543 0.02437446 -0.01279313
v -0.03124607 0.02074655 0.001119464
v -0.04530535 0.01197212 0.001198894
v -0.04530535 0.01197212 0.001198894
v -0.03124607 0.02074655 0.001119464
v -0.01442843 0.02437446 0.01503202
v -0.02661087 0.01428339 0.02420221
v -0.02661087 0.01428339 0.02420221
v -0.01442843 0.02437446 0.01503202
v -0.002593528 0.02437446 0.02474813
v -0.007043093 0.01428339 0.03961548
v -0.007043093 0.01428339 0.03961548
v -0.002593528 0.02437446 0.02474813
v 0.0187399 0.02437446 0.03257046
v 0.02432461 0.01428339 0.04799298
v 0.02432461 0.01428339 0.04799298
v 0.0187399 0.02437446 0.03257046
v 0.02386997 0.02437446 0.01503212
v 0.03671153 0.01428339 0.02420175
v 0.03671153 0.01428339 0.02420175
v 0.02386997 0.02437446 0.01503212
v 0.02504278 0.02074655 0.001119201
v 0.03865068 0.01197212 0.001198671
v 0.03865068 0.01197212 0.001198671
v 0.02504278 0.02074655 0.001119201
v 0.03225107 0.02437446 -0.01614565
v 0.04568767 0.01428339 -0.02539477
v 0.03225107 0.02437446 -0.01614565
v 0.004622572 0.03397612 0.001093091
v 0.0120351 0.02437446 -0.03256682
v 0.0120351 0.02437446 -0.03256682
v 0.004622572 0.03397612 0.001093091
v -0.002593596 0.02437446 -0.02139203
v -0.002593596 0.02437446 -0.02139203
v 0.004622572 0.03397612 0.001093091
v -0.0112543 0.02437446 -0.01279313
v -0.0112543 0.02437446 -0.01279313
v 0.004622572 0.03397612 0.001093091
v -0.03124607 0.02074655 0.001119464
v -0.03124607 0.02074655 0.001119464
v 0.004622572 0.03397612 0.001093091
v -0.01442843 0.02437446 0.01503202
v -0.01442843 0.02437446 0.01503202
v 0.004622572 0.03397612 0.001093091
v -0.002593528 0.02437446 0.02474813
v -0.002593528 0.02437446 0.02474813
v 0.004622572 0.03397612 0.001093091
v 0.0187399 0.02437446 0.03257046
v 0.0187399 0.02437446 0.03257046
v 0.004622572 0.03397612 0.001093091
v 0.02386997 0.02437446 0.01503212
v 0.02386997 0.02437446 0.01503212
v 0.004622572 0.03397612 0.001093091
v 0.02504278 0.02074655 0.001119201
v 0.02504278 0.02074655 0.001119201
v 0.004622572 0.03397612 0.001093091
v 0.03225107 0.02437446 -0.01614565

vn 0.0951515 -0.9818566 -0.1640216
vn 0.001639681 -0.9999983 0.0003252294
vn 0.2061207 -0.9784298 -0.01373961
vn -0.046856 -0.9810985 -0.1877485
vn -0.233501 -0.9602383 -0.1530328
vn -0.2551747 -0.9642732 -0.07115048
vn -0.2432231 -0.9679797 0.06210642
vn -0.1423264 -0.9703191 0.1955077
vn 0.02084046 -0.9818348 0.1885882
vn 0.2725117 -0.95856 0.08306243
vn 0.3617061 -0.9154218 0.1765531
vn 0.5439367 -0.7039261 -0.4567502
vn 0.5439367 -0.7039261 -0.4567502
vn 0.5439367 -0.7039261 -0.4567502
vn 0.5439367 -0.7039261 -0.4567502
vn 0.08913027 -0.7031068 -0.7054758
vn 0.08913027 -0.7031069 -0.7054758
vn 0.08913027 -0.7031068 -0.7054758
vn 0.08913028 -0.7031069 -0.7054759
vn -0.5851272 -0.6620907 -0.4682541
vn -0.5851272 -0.6620906 -0.4682541
vn -0.5851272 -0.6620907 -0.4682541
vn -0.5851272 -0.6620906 -0.4682541
vn -0.4764275 -0.6863982 -0.5494307
vn -0.4764276 -0.6863981 -0.5494307
vn -0.4764276 -0.6863981 -0.5494307
vn -0.4764276 -0.6863981 -0.5494307
vn -0.6731952 -0.6953635 0.25155
vn -0.6731952 -0.6953635 0.25155
vn -0.6731953 -0.6953634 0.25155
vn -0.6731954 -0.6953635 0.25155
vn -0.5425663 -0.703966 0.4583159
vn -0.5425664 -0.703966 0.4583159
vn -0.5425664 -0.703966 0.4583158
vn -0.5425663 -0.703966 0.4583158
vn -0.3165147 -0.6928936 0.6478553
vn -0.3165148 -0.6928936 0.6478553
vn -0.3165147 -0.6928936 0.6478554
vn -0.3165147 -0.6928936 0.6478553
vn 0.565962 -0.6678944 0.4833259
vn 0.5659619 -0.6678944 0.4833259
vn 0.5659619 -0.6678944 0.4833259
vn 0.565962 -0.6678944 0.4833259
vn 0.7231583 -0.6790239 0.126366
vn 0.7231583 -0.6790239 0.126366
vn 0.7231583 -0.6790239 0.126366
vn 0.7231583 -0.6790239 0.126366
vn 0.6800439 -0.6155776 0.3982516
vn 0.680044 -0.6155775 0.3982516
vn 0.6800439 -0.6155776 0.3982516
vn 0.6800439 -0.6155775 0.3982516
vn 0.7634512 -1.553618E-16 -0.6458656
vn 0.7634513 -1.553619E-16 -0.6458656
vn 0.7634513 -1.553619E-16 -0.6458656
vn 0.7634512 -1.553618E-16 -0.6458656
vn 0.1340682 -1.418538E-17 -0.9909722
vn 0.1340682 -1.418538E-17 -0.9909722
vn 0.1340682 -1.418538E-17 -0.9909722
vn 0.1340682 -1.418538E-17 -0.9909722
vn -0.7444176 1.708533E-16 -0.6677144
vn -0.7444176 1.708533E-16 -0.6677144
vn -0.7444176 1.708533E-16 -0.6677144
vn -0.7444176 1.708533E-16 -0.6677144
vn -0.6360897 1.489916E-16 -0.7716151
vn -0.6360898 1.489916E-16 -0.7716151
vn -0.6360897 1.489916E-16 -0.7716151
vn -0.6360897 1.489916E-16 -0.7716151
vn -0.9231414 1.937764E-16 0.3844607
vn -0.9231414 1.937764E-16 0.3844607
vn -0.9231414 1.937764E-16 0.3844608
vn -0.9231414 1.937764E-16 0.3844607
vn -0.7608922 1.547638E-16 0.6488785
vn -0.7608922 1.547638E-16 0.6488785
vn -0.7608922 1.547638E-16 0.6488785
vn -0.7608922 1.547638E-16 0.6488785
vn -0.4160616 7.634976E-17 0.9093365
vn -0.4160616 7.634976E-17 0.9093365
vn -0.4160616 7.634976E-17 0.9093365
vn -0.4160616 7.634976E-17 0.9093365
vn 0.7257788 -1.671266E-16 0.6879283
vn 0.7257788 -1.671266E-16 0.6879283
vn 0.7257788 -1.671266E-16 0.6879283
vn 0.7257788 -1.671266E-16 0.6879283
vn 0.9587077 -2.114458E-16 0.2843934
vn 0.9587077 -2.114458E-16 0.2843934
vn 0.9587077 -2.114458E-16 0.2843934
vn 0.9587077 -2.114458E-16 0.2843934
vn 0.9168693 -2.041168E-16 0.3991876
vn 0.9168693 -2.041168E-16 0.3991876
vn 0.9168693 -2.041168E-16 0.3991876
vn 0.9168693 -2.041168E-16 0.3991876
vn 0.7475793 0.212757 -0.629174
vn 0.7475792 0.212757 -0.6291739
vn 0.7475792 0.212757 -0.6291739
vn 0.7475792 0.212757 -0.6291739
vn 0.1248681 0.2212333 -0.9671938
vn 0.1248681 0.2212333 -0.9671938
vn 0.1248681 0.2212333 -0.9671938
vn 0.1248681 0.2212333 -0.9671938
vn -0.7435523 0.2588966 -0.6165245
vn -0.7435524 0.2588966 -0.6165246
vn -0.7435523 0.2588966 -0.6165246
vn -0.7435523 0.2588965 -0.6165245
vn -0.5896195 0.2546348 -0.7664921
vn -0.5896195 0.2546348 -0.7664921
vn -0.5896195 0.2546348 -0.7664921
vn -0.5896195 0.2546348 -0.766492
vn -0.8833255 0.2437819 0.4003833
vn -0.8833255 0.2437819 0.4003833
vn -0.8833254 0.2437819 0.4003832
vn -0.8833255 0.2437819 0.4003833
vn -0.7319553 0.2822602 0.6201375
vn -0.7319554 0.2822602 0.6201375
vn -0.7319554 0.2822603 0.6201375
vn -0.7319554 0.2822603 0.6201375
vn -0.4191065 0.242386 0.874985
vn -0.4191065 0.242386 0.874985
vn -0.4191065 0.242386 0.874985
vn -0.4191065 0.242386 0.874985
vn 0.7358481 0.1930069 0.6490578
vn 0.7358481 0.1930069 0.6490578
vn 0.735848 0.1930069 0.6490579
vn 0.7358481 0.1930069 0.6490578
vn 0.9346019 0.2371581 0.265095
vn 0.934602 0.2371581 0.265095
vn 0.934602 0.2371581 0.265095
vn 0.934602 0.2371581 0.265095
vn 0.8887811 0.178262 0.422245
vn 0.8887811 0.178262 0.4222449
vn 0.8887811 0.178262 0.422245
vn 0.8887811 0.178262 0.422245
vn 0.4216316 0.8368365 -0.3491862
vn 0.4216316 0.8368365 -0.3491863
vn 0.4216316 0.8368365 -0.3491862
vn 0.4216316 0.8368365 -0.3491863
vn -0.04464184 0.8884323 -0.4568312
vn -0.04464184 0.8884322 -0.4568312
vn -0.04464184 0.8884323 -0.4568312
vn -0.04464182 0.8884323 -0.4568312
vn -0.3587814 0.8693343 -0.3399019
vn -0.3587814 0.8693343 -0.3399019
vn -0.3587814 0.8693343 -0.3399019
vn -0.3587814 0.8693343 -0.3399019
vn -0.3639166 0.8049012 -0.4687197
vn -0.3639166 0.8049013 -0.4687197
vn -0.3639166 0.8049013 -0.4687197
vn -0.3639166 0.8049013 -0.4687197
vn -0.530058 0.8185278 0.2214729
vn -0.530058 0.8185279 0.2214729
vn -0.530058 0.8185278 0.2214729
vn -0.530058 0.8185278 0.2214729
vn -0.4383294 0.8222618 0.3629773
vn -0.4383294 0.8222617 0.3629773
vn -0.4383294 0.8222617 0.3629773
vn -0.4383294 0.8222617 0.3629773
vn -0.277557 0.8172352 0.5050625
vn -0.277557 0.8172352 0.5050625
vn -0.277557 0.8172352 0.5050625
vn -0.277557 0.8172352 0.5050625
vn 0.4975512 0.796234 0.344171
vn 0.4975512 0.796234 0.344171
vn 0.4975512 0.796234 0.344171
vn 0.4975512 0.796234 0.344171
vn 0.6003262 0.7985129 0.04455408
vn 0.6003261 0.798513 0.04455405
vn 0.6003262 0.798513 0.04455407
vn 0.6003262 0.7985129 0.0445541
vn 0.5388661 0.7325384 0.4159454
vn 0.5388661 0.7325385 0.4159453
vn 0.5388661 0.7325384 0.4159454
vn 0.5388661 0.7325384 0.4159454
vn 0.2306 0.9546866 -0.1881396
vn 0.2306 0.9546866 -0.1881397
vn 0.2306 0.9546866 -0.1881396
vn -0.1716578 0.9181486 -0.357122
vn -0.1716577 0.9181486 -0.357122
vn -0.1716577 0.9181486 -0.357122
vn -0.2266497 0.9097521 -0.3478225
vn -0.2266497 0.9097521 -0.3478225
vn -0.2266497 0.9097521 -0.3478225
vn -0.2789429 0.9095349 -0.308118
vn -0.278943 0.9095349 -0.308118
vn -0.278943 0.9095349 -0.308118
vn -0.3684354 0.9244465 0.0982521
vn -0.3684354 0.9244465 0.09825212
vn -0.3684354 0.9244465 0.0982521
vn -0.301307 0.9219851 0.243222
vn -0.301307 0.9219851 0.243222
vn -0.301307 0.9219851 0.243222
vn -0.1911893 0.9320197 0.307872
vn -0.1911893 0.9320197 0.307872
vn -0.1911893 0.9320197 0.307872
vn 0.3480106 0.9190344 0.1851045
vn 0.3480107 0.9190344 0.1851045
vn 0.3480107 0.9190344 0.1851045
vn 0.5593573 0.8268818 -0.05818406
vn 0.5593573 0.8268818 -0.05818406
vn 0.5593573 0.8268819 -0.05818406
vn 0.417589 0.7785741 0.4684457
vn 0.4175889 0.7785741 0.4684458
vn 0.417589 0.7785741 0.4684458

vt 0.5483398 0.007648468
vt 0.5 0.1500244
vt 0.6264648 0.06439209
vt 0.4516602 0.007648468
vt 0.3735352 0.06439209
vt 0.34375 0.15625
vt 0.3735352 0.2480469
vt 0.4516602 0.3049316
vt 0.5483398 0.3049316
vt 0.6264648 0.2480469
vt 0.65625 0.15625
vt 0 0
vt 0 1
vt 1 1
vt 1 0
vt 0 0
vt 0 1
vt 1 1
vt 1 0
vt 0 0
vt 0 1
vt 1 1
vt 1 0
vt 0 0
vt 0 1
vt 1 1
vt 1 0
vt 0 0
vt 0 1
vt 1 1
vt 1 0
vt 0 0
vt 0 1
vt 1 1
vt 1 0
vt 0 0
vt 0 1
vt 1 1
vt 1 0
vt 0 0
vt 0 1
vt 1 1
vt 1 0
vt 0 0
vt 0 1
vt 1 1
vt 1 0
vt 0 0
vt 0 1
vt 1 1
vt 1 0
vt 0 0
vt 0 1
vt 1 1
vt 1 0
vt 0 0
vt 0 1
vt 1 1
vt 1 0
vt 0 0
vt 0 1
vt 1 1
vt 1 0
vt 0 0
vt 0 1
vt 1 1
vt 1 0
vt 0 0
vt 0 1
vt 1 1
vt 1 0
vt 0 0
vt 0 1
vt 1 1
vt 1 0
vt 0 0
vt 0 1
vt 1 1
vt 1 0
vt 0 0
vt 0 1
vt 1 1
vt 1 0
vt 0 0
vt 0 1
vt 1 1
vt 1 0
vt 0 0
vt 0 1
vt 1 1
vt 1 0
vt 0 0
vt 0 1
vt 1 1
vt 1 0
vt 0 0
vt 0 1
vt 1 1
vt 1 0
vt 0 0
vt 0 1
vt 1 1
vt 1 0
vt 0 0
vt 0 1
vt 1 1
vt 1 0
vt 0 0
vt 0 1
vt 1 1
vt 1 0
vt 0 0
vt 0 1
vt 1 1
vt 1 0
vt 0 0
vt 0 1
vt 1 1
vt 1 0
vt 0 0
vt 0 1
vt 1 1
vt 1 0
vt 0 0
vt 0 1
vt 1 1
vt 1 0
vt 0 0
vt 0 1
vt 1 1
vt 1 0
vt 0 0
vt 0 1
vt 1 1
vt 1 0
vt 0 0
vt 0 1
vt 1 1
vt 1 0
vt 0 0
vt 0 1
vt 1 1
vt 1 0
vt 0 0
vt 0 1
vt 1 1
vt 1 0
vt 0 0
vt 0 1
vt 1 1
vt 1 0
vt 0 0
vt 0 1
vt 1 1
vt 1 0
vt 0 0
vt 0 1
vt 1 1
vt 1 0
vt 0 0
vt 0 1
vt 1 1
vt 1 0
vt 0 0
vt 0 1
vt 1 1
vt 1 0
vt 0 0
vt 0 1
vt 1 1
vt 1 0
vt 0 0
vt 0.5 1
vt 1 0
vt 0 0
vt 0.5 1
vt 1 0
vt 0 0
vt 0.5 1
vt 1 0
vt 0 0
vt 0.5 1
vt 1 0
vt 0 0
vt 0.5 1
vt 1 0
vt 0 0
vt 0.5 1
vt 1 0
vt 0 0
vt 0.5 1
vt 1 0
vt 0 0
vt 0.5 1
vt 1 0
vt 0 0
vt 0.5 1
vt 1 0
vt 0 0
vt 0.5 1
vt 1 0

g pCylinder7_27_3621_219
usemtl pCylinder7_27_3621_219
usemap pCylinder7_27_3621_219
f 1/1/1 3/3/3 2/2/2
f 4/4/4 1/1/1 2/2/2
f 5/5/5 4/4/4 2/2/2
f 6/6/6 5/5/5 2/2/2
f 7/7/7 6/6/6 2/2/2
f 8/8/8 7/7/7 2/2/2
f 9/9/9 8/8/8 2/2/2
f 10/10/10 9/9/9 2/2/2
f 11/11/11 10/10/10 2/2/2
f 3/3/3 11/11/11 2/2/2
f 12/12/12 14/14/14 13/13/13
f 12/12/12 15/15/15 14/14/14
f 16/16/16 18/18/18 17/17/17
f 16/16/16 19/19/19 18/18/18
f 20/20/20 22/22/22 21/21/21
f 20/20/20 23/23/23 22/22/22
f 24/24/24 26/26/26 25/25/25
f 24/24/24 27/27/27 26/26/26
f 28/28/28 30/30/30 29/29/29
f 28/28/28 31/31/31 30/30/30
f 32/32/32 34/34/34 33/33/33
f 32/32/32 35/35/35 34/34/34
f 36/36/36 38/38/38 37/37/37
f 36/36/36 39/39/39 38/38/38
f 40/40/40 42/42/42 41/41/41
f 40/40/40 43/43/43 42/42/42
f 44/44/44 46/46/46 45/45/45
f 44/44/44 47/47/47 46/46/46
f 48/48/48 50/50/50 49/49/49
f 48/48/48 51/51/51 50/50/50
f 52/52/52 54/54/54 53/53/53
f 52/52/52 55/55/55 54/54/54
f 56/56/56 58/58/58 57/57/57
f 56/56/56 59/59/59 58/58/58
f 60/60/60 62/62/62 61/61/61
f 60/60/60 63/63/63 62/62/62
f 64/64/64 66/66/66 65/65/65
f 64/64/64 67/67/67 66/66/66
f 68/68/68 70/70/70 69/69/69
f 68/68/68 71/71/71 70/70/70
f 72/72/72 74/74/74 73/73/73
f 72/72/72 75/75/75 74/74/74
f 76/76/76 78/78/78 77/77/77
f 76/76/76 79/79/79 78/78/78
f 80/80/80 82/82/82 81/81/81
f 80/80/80 83/83/83 82/82/82
f 84/84/84 86/86/86 85/85/85
f 84/84/84 87/87/87 86/86/86
f 88/88/88 90/90/90 89/89/89
f 88/88/88 91/91/91 90/90/90
f 92/92/92 94/94/94 93/93/93
f 92/92/92 95/95/95 94/94/94
f 96/96/96 98/98/98 97/97/97
f 96/96/96 99/99/99 98/98/98
f 100/100/100 102/102/102 101/101/101
f 100/100/100 103/103/103 102/102/102
f 104/104/104 106/106/106 105/105/105
f 104/104/104 107/107/107 106/106/106
f 108/108/108 110/110/110 109/109/109
f 108/108/108 111/111/111 110/110/110
f 112/112/112 114/114/114 113/113/113
f 112/112/112 115/115/115 114/114/114
f 116/116/116 118/118/118 117/117/117
f 116/116/116 119/119/119 118/118/118
f 120/120/120 122/122/122 121/121/121
f 120/120/120 123/123/123 122/122/122
f 124/124/124 126/126/126 125/125/125
f 124/124/124 127/127/127 126/126/126
f 128/128/128 130/130/130 129/129/129
f 128/128/128 131/131/131 130/130/130
f 132/132/132 134/134/134 133/133/133
f 132/132/132 135/135/135 134/134/134
f 136/136/136 138/138/138 137/137/137
f 136/136/136 139/139/139 138/138/138
f 140/140/140 142/142/142 141/141/141
f 140/140/140 143/143/143 142/142/142
f 144/144/144 146/146/146 145/145/145
f 144/144/144 147/147/147 146/146/146
f 148/148/148 150/150/150 149/149/149
f 148/148/148 151/151/151 150/150/150
f 152/152/152 154/154/154 153/153/153
f 152/152/152 155/155/155 154/154/154
f 156/156/156 158/158/158 157/157/157
f 156/156/156 159/159/159 158/158/158
f 160/160/160 162/162/162 161/161/161
f 160/160/160 163/163/163 162/162/162
f 164/164/164 166/166/166 165/165/165
f 164/164/164 167/167/167 166/166/166
f 168/168/168 170/170/170 169/169/169
f 168/168/168 171/171/171 170/170/170
f 172/172/172 174/174/174 173/173/173
f 175/175/175 177/177/177 176/176/176
f 178/178/178 180/180/180 179/179/179
f 181/181/181 183/183/183 182/182/182
f 184/184/184 186/186/186 185/185/185
f 187/187/187 189/189/189 188/188/188
f 190/190/190 192/192/192 191/191/191
f 193/193/193 195/195/195 194/194/194
f 196/196/196 198/198/198 197/197/197
f 199/199/199 201/201/201 200/200/200
