#pCylinder6_6_3704_2.obj

v 0.01454526 -0.02577554 -0.040358
v 0.004623814 -0.03397603 0.001091689
v 0.03878444 -0.02577554 -0.02105451
v -0.009663458 -0.02577554 -0.03817511
v -0.01825083 -0.02577554 -0.01778014
v -0.03822217 -0.02223213 0.00109168
v -0.02135091 -0.02577554 0.01996347
v -0.005297638 -0.02577554 0.03271827
v 0.02109398 -0.02577554 0.04035849
v 0.03059853 -0.02577554 0.01996348
v 0.03218942 -0.02223213 0.00109168
v 0.03878444 -0.02577554 -0.02105451
v 0.04796684 -0.01489233 -0.02772586
v 0.01805261 -0.01489233 -0.05115252
v 0.01454526 -0.02577554 -0.040358
v 0.01454526 -0.02577554 -0.040358
v 0.01805261 -0.01489233 -0.05115252
v -0.01317081 -0.01489233 -0.04896962
v -0.009663458 -0.02577554 -0.03817511
v -0.009663458 -0.02577554 -0.03817511
v -0.01317081 -0.01489233 -0.04896962
v -0.02743324 -0.01489233 -0.02445151
v -0.01825083 -0.02577554 -0.01778014
v -0.01825083 -0.02577554 -0.01778014
v -0.02743324 -0.01489233 -0.02445151
v -0.04796696 -0.01288819 0.001091679
v -0.03822217 -0.02223213 0.00109168
v -0.03822217 -0.02223213 0.00109168
v -0.04796696 -0.01288819 0.001091679
v -0.03053331 -0.01489233 0.02663487
v -0.02135091 -0.02577554 0.01996347
v -0.02135091 -0.02577554 0.01996347
v -0.03053331 -0.01489233 0.02663487
v -0.008805 -0.01489233 0.04351279
v -0.005297638 -0.02577554 0.03271827
v -0.005297638 -0.02577554 0.03271827
v -0.008805 -0.01489233 0.04351279
v 0.02460134 -0.01489233 0.05115296
v 0.02109398 -0.02577554 0.04035849
v 0.02109398 -0.02577554 0.04035849
v 0.02460134 -0.01489233 0.05115296
v 0.03978091 -0.01489233 0.02663488
v 0.03059853 -0.02577554 0.01996348
v 0.03059853 -0.02577554 0.01996348
v 0.03978091 -0.01489233 0.02663488
v 0.04193423 -0.01288819 0.001091685
v 0.03218942 -0.02223213 0.00109168
v 0.03218942 -0.02223213 0.00109168
v 0.04193423 -0.01288819 0.001091685
v 0.04796684 -0.01489233 -0.02772586
v 0.03878444 -0.02577554 -0.02105451
v 0.04796684 -0.01489233 -0.02772586
v 0.04796684 -0.0001482854 -0.02772586
v 0.01805262 -0.0001482854 -0.05115252
v 0.01805261 -0.01489233 -0.05115252
v 0.01805261 -0.01489233 -0.05115252
v 0.01805262 -0.0001482854 -0.05115252
v -0.01317081 -0.0001482854 -0.04896962
v -0.01317081 -0.01489233 -0.04896962
v -0.01317081 -0.01489233 -0.04896962
v -0.01317081 -0.0001482854 -0.04896962
v -0.02743324 -0.0001482854 -0.02445151
v -0.02743324 -0.01489233 -0.02445151
v -0.02743324 -0.01489233 -0.02445151
v -0.02743324 -0.0001482854 -0.02445151
v -0.04796696 -0.0002292915 0.001091679
v -0.04796696 -0.01288819 0.001091679
v -0.04796696 -0.01288819 0.001091679
v -0.04796696 -0.0002292915 0.001091679
v -0.03053331 -0.0001482854 0.02663487
v -0.03053331 -0.01489233 0.02663487
v -0.03053331 -0.01489233 0.02663487
v -0.03053331 -0.0001482854 0.02663487
v -0.008805 -0.0001482854 0.04351279
v -0.008805 -0.01489233 0.04351279
v -0.008805 -0.01489233 0.04351279
v -0.008805 -0.0001482854 0.04351279
v 0.02460134 -0.0001482854 0.05115296
v 0.02460134 -0.01489233 0.05115296
v 0.02460134 -0.01489233 0.05115296
v 0.02460134 -0.0001482854 0.05115296
v 0.03978091 -0.0001482854 0.02663488
v 0.03978091 -0.01489233 0.02663488
v 0.03978091 -0.01489233 0.02663488
v 0.03978091 -0.0001482854 0.02663488
v 0.04193423 -0.0002292915 0.001091685
v 0.04193423 -0.01288819 0.001091685
v 0.04193423 -0.01288819 0.001091685
v 0.04193423 -0.0002292915 0.001091685
v 0.04796684 -0.0001482854 -0.02772586
v 0.04796684 -0.01489233 -0.02772586
v 0.04796684 -0.0001482854 -0.02772586
v 0.04568883 0.01428339 -0.02539657
v 0.01714505 0.01428339 -0.04799102
v 0.01805262 -0.0001482854 -0.05115252
v 0.01805262 -0.0001482854 -0.05115252
v 0.01714505 0.01428339 -0.04799102
v -0.01182917 0.01428339 -0.04559741
v -0.01317081 -0.0001482854 -0.04896962
v -0.01317081 -0.0001482854 -0.04896962
v -0.01182917 0.01428339 -0.04559741
v -0.02321033 0.01428339 -0.02180614
v -0.02743324 -0.0001482854 -0.02445151
v -0.02743324 -0.0001482854 -0.02445151
v -0.02321033 0.01428339 -0.02180614
v -0.04530414 0.01197211 0.001197024
v -0.04796696 -0.0002292915 0.001091679
v -0.04796696 -0.0002292915 0.001091679
v -0.04530414 0.01197211 0.001197024
v -0.02660964 0.01428339 0.02420023
v -0.03053331 -0.0001482854 0.02663487
v -0.03053331 -0.0001482854 0.02663487
v -0.02660964 0.01428339 0.02420023
v -0.007041929 0.01428339 0.03961379
v -0.008805 -0.0001482854 0.04351279
v -0.008805 -0.0001482854 0.04351279
v -0.007041929 0.01428339 0.03961379
v 0.0243259 0.01428339 0.04799147
v 0.02460134 -0.0001482854 0.05115296
v 0.02460134 -0.0001482854 0.05115296
v 0.0243259 0.01428339 0.04799147
v 0.03671276 0.01428339 0.02420024
v 0.03978091 -0.0001482854 0.02663488
v 0.03978091 -0.0001482854 0.02663488
v 0.03671276 0.01428339 0.02420024
v 0.03865194 0.01197211 0.00119704
v 0.04193423 -0.0002292915 0.001091685
v 0.04193423 -0.0002292915 0.001091685
v 0.03865194 0.01197211 0.00119704
v 0.04568883 0.01428339 -0.02539657
v 0.04796684 -0.0001482854 -0.02772586
v 0.04568883 0.01428339 -0.02539657
v 0.0322524 0.02437449 -0.01614745
v 0.0120364 0.02437449 -0.0325684
v 0.01714505 0.01428339 -0.04799102
v 0.01714505 0.01428339 -0.04799102
v 0.0120364 0.02437449 -0.0325684
v -0.002592294 0.02437449 -0.02139356
v -0.01182917 0.01428339 -0.04559741
v -0.01182917 0.01428339 -0.04559741
v -0.002592294 0.02437449 -0.02139356
v -0.01125318 0.02437449 -0.01279498
v -0.02321033 0.01428339 -0.02180614
v -0.02321033 0.01428339 -0.02180614
v -0.01125318 0.02437449 -0.01279498
v -0.03124477 0.02074655 0.001117726
v -0.04530414 0.01197211 0.001197024
v -0.04530414 0.01197211 0.001197024
v -0.03124477 0.02074655 0.001117726
v -0.01442718 0.02437449 0.01503046
v -0.02660964 0.01428339 0.02420023
v -0.02660964 0.01428339 0.02420023
v -0.01442718 0.02437449 0.01503046
v -0.002592293 0.02437449 0.02474646
v -0.007041929 0.01428339 0.03961379
v -0.007041929 0.01428339 0.03961379
v -0.002592293 0.02437449 0.02474646
v 0.01874128 0.02437449 0.03256884
v 0.0243259 0.01428339 0.04799147
v 0.0243259 0.01428339 0.04799147
v 0.01874128 0.02437449 0.03256884
v 0.02387128 0.02437449 0.01503046
v 0.03671276 0.01428339 0.02420024
v 0.03671276 0.01428339 0.02420024
v 0.02387128 0.02437449 0.01503046
v 0.02504411 0.02074655 0.001117734
v 0.03865194 0.01197211 0.00119704
v 0.03865194 0.01197211 0.00119704
v 0.02504411 0.02074655 0.001117734
v 0.0322524 0.02437449 -0.01614745
v 0.04568883 0.01428339 -0.02539657
v 0.0322524 0.02437449 -0.01614745
v 0.004623802 0.03397617 0.001091648
v 0.0120364 0.02437449 -0.0325684
v 0.0120364 0.02437449 -0.0325684
v 0.004623802 0.03397617 0.001091648
v -0.002592294 0.02437449 -0.02139356
v -0.002592294 0.02437449 -0.02139356
v 0.004623802 0.03397617 0.001091648
v -0.01125318 0.02437449 -0.01279498
v -0.01125318 0.02437449 -0.01279498
v 0.004623802 0.03397617 0.001091648
v -0.03124477 0.02074655 0.001117726
v -0.03124477 0.02074655 0.001117726
v 0.004623802 0.03397617 0.001091648
v -0.01442718 0.02437449 0.01503046
v -0.01442718 0.02437449 0.01503046
v 0.004623802 0.03397617 0.001091648
v -0.002592293 0.02437449 0.02474646
v -0.002592293 0.02437449 0.02474646
v 0.004623802 0.03397617 0.001091648
v 0.01874128 0.02437449 0.03256884
v 0.01874128 0.02437449 0.03256884
v 0.004623802 0.03397617 0.001091648
v 0.02387128 0.02437449 0.01503046
v 0.02387128 0.02437449 0.01503046
v 0.004623802 0.03397617 0.001091648
v 0.02504411 0.02074655 0.001117734
v 0.02504411 0.02074655 0.001117734
v 0.004623802 0.03397617 0.001091648
v 0.0322524 0.02437449 -0.01614745

vn 0.02482925 -0.9818568 -0.1879904
vn 0.001638784 -0.9999984 -0.000329717
vn 0.1850211 -0.9784299 -0.09187889
vn -0.1153946 -0.9810987 -0.1553353
vn -0.2743756 -0.9602384 -0.05157308
vn -0.2629256 -0.9642733 0.0323516
vn -0.2006926 -0.9679798 0.1507885
vn -0.05628591 -0.9703192 0.2351849
vn 0.09169851 -0.9818349 0.166106
vn 0.2835086 -0.9585602 -0.02801502
vn 0.4017771 -0.9154219 0.02403032
vn 0.3266985 -0.7039261 -0.6306789
vn 0.3266984 -0.7039261 -0.6306789
vn 0.3266985 -0.7039261 -0.6306788
vn 0.3266984 -0.7039261 -0.6306789
vn -0.1887625 -0.7031069 -0.685572
vn -0.1887625 -0.703107 -0.685572
vn -0.1887625 -0.7031069 -0.685572
vn -0.1887625 -0.7031069 -0.685572
vn -0.7201242 -0.6620907 -0.207501
vn -0.7201242 -0.6620907 -0.207501
vn -0.7201242 -0.6620907 -0.207501
vn -0.7201242 -0.6620907 -0.207501
vn -0.6509567 -0.6863983 -0.3242105
vn -0.6509569 -0.6863982 -0.3242105
vn -0.6509567 -0.6863982 -0.3242105
vn -0.6509567 -0.6863982 -0.3242104
vn -0.524876 -0.6953635 0.4908914
vn -0.524876 -0.6953635 0.4908914
vn -0.5248761 -0.6953635 0.4908914
vn -0.524876 -0.6953635 0.4908914
vn -0.3248317 -0.703966 0.6315979
vn -0.3248318 -0.703966 0.6315979
vn -0.3248317 -0.703966 0.6315978
vn -0.3248317 -0.703966 0.6315978
vn -0.0433075 -0.6928936 0.7197378
vn -0.04330753 -0.6928937 0.7197378
vn -0.0433075 -0.6928937 0.7197378
vn -0.0433075 -0.6928936 0.7197378
vn 0.7082208 -0.6678945 0.2287794
vn 0.7082207 -0.6678945 0.2287794
vn 0.7082207 -0.6678945 0.2287794
vn 0.7082208 -0.6678945 0.2287794
vn 0.7162036 -0.6790239 -0.1611786
vn 0.7162036 -0.679024 -0.1611786
vn 0.7162036 -0.6790239 -0.1611786
vn 0.7162036 -0.6790239 -0.1611786
vn 0.7808599 -0.6155777 0.1064035
vn 0.7808599 -0.6155776 0.1064034
vn 0.7808599 -0.6155777 0.1064035
vn 0.7808599 -0.6155776 0.1064034
vn 0.4567038 2.15439E-17 -0.8896186
vn 0.4567039 2.154389E-17 -0.8896186
vn 0.4567039 2.154389E-17 -0.8896186
vn 0.4567038 2.15439E-17 -0.8896186
vn -0.2569646 5.625153E-17 -0.9664207
vn -0.2569646 5.625153E-17 -0.9664207
vn -0.2569646 5.625153E-17 -0.9664207
vn -0.2569646 5.625153E-17 -0.9664207
vn -0.9438232 5.656847E-17 -0.3304506
vn -0.9438232 5.656847E-17 -0.3304506
vn -0.9438232 5.656847E-17 -0.3304506
vn -0.9438232 5.656847E-17 -0.3304506
vn -0.8837298 6.035824E-17 -0.4679972
vn -0.8837299 6.035824E-17 -0.4679971
vn -0.8837298 6.035824E-17 -0.4679972
vn -0.8837298 6.035824E-17 -0.4679972
vn -0.7045717 -2.34377E-18 0.7096326
vn -0.7045717 -2.34377E-18 0.7096326
vn -0.7045717 -2.343777E-18 0.7096327
vn -0.7045717 -2.34377E-18 0.7096326
vn -0.4531837 -2.178126E-17 0.891417
vn -0.4531837 -2.178126E-17 0.891417
vn -0.4531837 -2.178126E-17 0.891417
vn -0.4531837 -2.178126E-17 0.891417
vn -0.03474969 -4.506479E-17 0.9993959
vn -0.03474969 -4.506479E-17 0.9993959
vn -0.03474969 -4.506479E-17 0.9993959
vn -0.03474969 -4.506479E-17 0.9993959
vn 0.9343814 -5.736025E-17 0.3562742
vn 0.9343814 -5.736025E-17 0.3562742
vn 0.9343814 -5.736025E-17 0.3562742
vn 0.9343814 -5.736025E-17 0.3562742
vn 0.9943894 -3.844185E-17 -0.1057813
vn 0.9943894 -3.844185E-17 -0.1057812
vn 0.9943894 -3.844185E-17 -0.1057813
vn 0.9943894 -3.844185E-17 -0.1057812
vn 0.9998674 -4.436974E-17 0.01627672
vn 0.9998674 -4.436973E-17 0.0162767
vn 0.9998674 -4.436974E-17 0.01627672
vn 0.9998674 -4.436974E-17 0.01627672
vn 0.4484633 0.212757 -0.8681101
vn 0.4484633 0.212757 -0.8681099
vn 0.4484633 0.212757 -0.8681099
vn 0.4484633 0.212757 -0.8681099
vn -0.2563226 0.2212333 -0.9409327
vn -0.2563227 0.2212333 -0.9409327
vn -0.2563227 0.2212333 -0.9409327
vn -0.2563227 0.2212333 -0.9409327
vn -0.9233566 0.2588966 -0.2835222
vn -0.9233567 0.2588966 -0.2835222
vn -0.9233566 0.2588966 -0.2835223
vn -0.9233566 0.2588965 -0.2835222
vn -0.838858 0.2546348 -0.4811217
vn -0.838858 0.2546348 -0.4811217
vn -0.838858 0.2546348 -0.4811217
vn -0.838858 0.2546348 -0.4811217
vn -0.6616942 0.2437819 0.7090353
vn -0.6616942 0.243782 0.7090353
vn -0.6616942 0.2437819 0.7090353
vn -0.6616942 0.2437819 0.7090353
vn -0.4375105 0.2822603 0.8537642
vn -0.4375106 0.2822603 0.8537642
vn -0.4375106 0.2822603 0.8537643
vn -0.4375106 0.2822603 0.8537643
vn -0.05075906 0.242386 0.968851
vn -0.05075905 0.242386 0.968851
vn -0.05075906 0.242386 0.968851
vn -0.05075906 0.242386 0.968851
vn 0.9287434 0.1930069 0.3165185
vn 0.9287434 0.1930069 0.3165185
vn 0.9287433 0.1930069 0.3165185
vn 0.9287434 0.1930069 0.3165185
vn 0.9647191 0.2371581 -0.1143368
vn 0.9647192 0.2371581 -0.1143368
vn 0.9647192 0.2371581 -0.1143368
vn 0.9647192 0.2371581 -0.1143368
vn 0.982794 0.178262 0.04835606
vn 0.982794 0.178262 0.04835603
vn 0.982794 0.178262 0.04835606
vn 0.982794 0.1782621 0.04835606
vn 0.2551081 0.8368366 -0.48438
vn 0.2551081 0.8368366 -0.48438
vn 0.2551081 0.8368366 -0.48438
vn 0.2551081 0.8368366 -0.48438
vn -0.216735 0.8884323 -0.4046153
vn -0.216735 0.8884323 -0.4046153
vn -0.216735 0.8884323 -0.4046153
vn -0.2167349 0.8884323 -0.4046153
vn -0.4618372 0.8693344 -0.1759649
vn -0.4618373 0.8693344 -0.175965
vn -0.4618372 0.8693344 -0.1759649
vn -0.4618373 0.8693344 -0.175965
vn -0.5160715 0.8049014 -0.2929225
vn -0.5160715 0.8049014 -0.2929225
vn -0.5160715 0.8049014 -0.2929225
vn -0.5160715 0.8049014 -0.2929225
vn -0.4042811 0.8185279 0.4081279
vn -0.4042811 0.818528 0.4081279
vn -0.4042812 0.8185279 0.408128
vn -0.4042811 0.8185279 0.4081279
vn -0.2652256 0.8222619 0.503528
vn -0.2652256 0.8222618 0.503528
vn -0.2652256 0.8222618 0.5035281
vn -0.2652256 0.8222618 0.503528
vn -0.06220258 0.8172354 0.572937
vn -0.06220257 0.8172354 0.572937
vn -0.06220257 0.8172354 0.572937
vn -0.06220257 0.8172354 0.572937
vn 0.591596 0.7962341 0.1265895
vn 0.5915961 0.7962341 0.1265895
vn 0.5915961 0.7962341 0.1265896
vn 0.5915961 0.7962341 0.1265895
vn 0.5713664 0.7985131 -0.1895176
vn 0.5713663 0.7985131 -0.1895176
vn 0.5713664 0.7985131 -0.1895176
vn 0.5713664 0.7985131 -0.1895176
vn 0.6573163 0.7325385 0.1769812
vn 0.6573163 0.7325385 0.1769812
vn 0.6573163 0.7325385 0.1769812
vn 0.6573163 0.7325385 0.1769812
vn 0.140615 0.9546867 -0.2622981
vn 0.1406149 0.9546867 -0.2622981
vn 0.140615 0.9546867 -0.2622981
vn -0.2956924 0.9181488 -0.2637583
vn -0.2956924 0.9181488 -0.2637584
vn -0.2956924 0.9181488 -0.2637583
vn -0.3428905 0.9097522 -0.2340441
vn -0.3428905 0.9097522 -0.2340442
vn -0.3428905 0.9097522 -0.2340441
vn -0.3759151 0.9095349 -0.1772954
vn -0.3759151 0.9095349 -0.1772955
vn -0.3759151 0.9095349 -0.1772955
vn -0.3024067 0.9244466 0.2322677
vn -0.3024066 0.9244466 0.2322677
vn -0.3024067 0.9244466 0.2322677
vn -0.1847316 0.9219852 0.340319
vn -0.1847316 0.9219853 0.340319
vn -0.1847316 0.9219853 0.340319
vn -0.05822671 0.9320198 0.3576984
vn -0.05822673 0.9320198 0.3576984
vn -0.05822672 0.9320198 0.3576984
vn 0.3924183 0.9190345 0.03718726
vn 0.3924184 0.9190345 0.03718726
vn 0.3924184 0.9190345 0.03718726
vn 0.494069 0.8268819 -0.2686294
vn 0.4940689 0.8268819 -0.2686294
vn 0.4940689 0.826882 -0.2686294
vn 0.565519 0.7785742 0.2720479
vn 0.565519 0.7785742 0.272048
vn 0.565519 0.7785742 0.272048

vt 0.5482839 0.007647395
vt 0.5 0.15
vt 0.6264089 0.06440853
vt 0.4517161 0.00764741
vt 0.3735911 0.06440856
vt 0.34375 0.15625
vt 0.3735911 0.2480915
vt 0.4517161 0.3048526
vt 0.5482839 0.3048526
vt 0.6264089 0.2480914
vt 0.65625 0.15625
vt 0 0
vt 0 1
vt 1 1
vt 1 0
vt 0 0
vt 0 1
vt 1 1
vt 1 0
vt 0 0
vt 0 1
vt 1 1
vt 1 0
vt 0 0
vt 0 1
vt 1 1
vt 1 0
vt 0 0
vt 0 1
vt 1 1
vt 1 0
vt 0 0
vt 0 1
vt 1 1
vt 1 0
vt 0 0
vt 0 1
vt 1 1
vt 1 0
vt 0 0
vt 0 1
vt 1 1
vt 1 0
vt 0 0
vt 0 1
vt 1 1
vt 1 0
vt 0 0
vt 0 1
vt 1 1
vt 1 0
vt 0 0
vt 0 1
vt 1 1
vt 1 0
vt 0 0
vt 0 1
vt 1 1
vt 1 0
vt 0 0
vt 0 1
vt 1 1
vt 1 0
vt 0 0
vt 0 1
vt 1 1
vt 1 0
vt 0 0
vt 0 1
vt 1 1
vt 1 0
vt 0 0
vt 0 1
vt 1 1
vt 1 0
vt 0 0
vt 0 1
vt 1 1
vt 1 0
vt 0 0
vt 0 1
vt 1 1
vt 1 0
vt 0 0
vt 0 1
vt 1 1
vt 1 0
vt 0 0
vt 0 1
vt 1 1
vt 1 0
vt 0 0
vt 0 1
vt 1 1
vt 1 0
vt 0 0
vt 0 1
vt 1 1
vt 1 0
vt 0 0
vt 0 1
vt 1 1
vt 1 0
vt 0 0
vt 0 1
vt 1 1
vt 1 0
vt 0 0
vt 0 1
vt 1 1
vt 1 0
vt 0 0
vt 0 1
vt 1 1
vt 1 0
vt 0 0
vt 0 1
vt 1 1
vt 1 0
vt 0 0
vt 0 1
vt 1 1
vt 1 0
vt 0 0
vt 0 1
vt 1 1
vt 1 0
vt 0 0
vt 0 1
vt 1 1
vt 1 0
vt 0 0
vt 0 1
vt 1 1
vt 1 0
vt 0 0
vt 0 1
vt 1 1
vt 1 0
vt 0 0
vt 0 1
vt 1 1
vt 1 0
vt 0 0
vt 0 1
vt 1 1
vt 1 0
vt 0 0
vt 0 1
vt 1 1
vt 1 0
vt 0 0
vt 0 1
vt 1 1
vt 1 0
vt 0 0
vt 0 1
vt 1 1
vt 1 0
vt 0 0
vt 0 1
vt 1 1
vt 1 0
vt 0 0
vt 0 1
vt 1 1
vt 1 0
vt 0 0
vt 0 1
vt 1 1
vt 1 0
vt 0 0
vt 0.5 1
vt 1 0
vt 0 0
vt 0.5 1
vt 1 0
vt 0 0
vt 0.5 1
vt 1 0
vt 0 0
vt 0.5 1
vt 1 0
vt 0 0
vt 0.5 1
vt 1 0
vt 0 0
vt 0.5 1
vt 1 0
vt 0 0
vt 0.5 1
vt 1 0
vt 0 0
vt 0.5 1
vt 1 0
vt 0 0
vt 0.5 1
vt 1 0
vt 0 0
vt 0.5 1
vt 1 0

g pCylinder6_6_3704_2
usemtl pCylinder6_6_3704_2
usemap pCylinder6_6_3704_2
f 1/1/1 3/3/3 2/2/2
f 4/4/4 1/1/1 2/2/2
f 5/5/5 4/4/4 2/2/2
f 6/6/6 5/5/5 2/2/2
f 7/7/7 6/6/6 2/2/2
f 8/8/8 7/7/7 2/2/2
f 9/9/9 8/8/8 2/2/2
f 10/10/10 9/9/9 2/2/2
f 11/11/11 10/10/10 2/2/2
f 3/3/3 11/11/11 2/2/2
f 12/12/12 14/14/14 13/13/13
f 12/12/12 15/15/15 14/14/14
f 16/16/16 18/18/18 17/17/17
f 16/16/16 19/19/19 18/18/18
f 20/20/20 22/22/22 21/21/21
f 20/20/20 23/23/23 22/22/22
f 24/24/24 26/26/26 25/25/25
f 24/24/24 27/27/27 26/26/26
f 28/28/28 30/30/30 29/29/29
f 28/28/28 31/31/31 30/30/30
f 32/32/32 34/34/34 33/33/33
f 32/32/32 35/35/35 34/34/34
f 36/36/36 38/38/38 37/37/37
f 36/36/36 39/39/39 38/38/38
f 40/40/40 42/42/42 41/41/41
f 40/40/40 43/43/43 42/42/42
f 44/44/44 46/46/46 45/45/45
f 44/44/44 47/47/47 46/46/46
f 48/48/48 50/50/50 49/49/49
f 48/48/48 51/51/51 50/50/50
f 52/52/52 54/54/54 53/53/53
f 52/52/52 55/55/55 54/54/54
f 56/56/56 58/58/58 57/57/57
f 56/56/56 59/59/59 58/58/58
f 60/60/60 62/62/62 61/61/61
f 60/60/60 63/63/63 62/62/62
f 64/64/64 66/66/66 65/65/65
f 64/64/64 67/67/67 66/66/66
f 68/68/68 70/70/70 69/69/69
f 68/68/68 71/71/71 70/70/70
f 72/72/72 74/74/74 73/73/73
f 72/72/72 75/75/75 74/74/74
f 76/76/76 78/78/78 77/77/77
f 76/76/76 79/79/79 78/78/78
f 80/80/80 82/82/82 81/81/81
f 80/80/80 83/83/83 82/82/82
f 84/84/84 86/86/86 85/85/85
f 84/84/84 87/87/87 86/86/86
f 88/88/88 90/90/90 89/89/89
f 88/88/88 91/91/91 90/90/90
f 92/92/92 94/94/94 93/93/93
f 92/92/92 95/95/95 94/94/94
f 96/96/96 98/98/98 97/97/97
f 96/96/96 99/99/99 98/98/98
f 100/100/100 102/102/102 101/101/101
f 100/100/100 103/103/103 102/102/102
f 104/104/104 106/106/106 105/105/105
f 104/104/104 107/107/107 106/106/106
f 108/108/108 110/110/110 109/109/109
f 108/108/108 111/111/111 110/110/110
f 112/112/112 114/114/114 113/113/113
f 112/112/112 115/115/115 114/114/114
f 116/116/116 118/118/118 117/117/117
f 116/116/116 119/119/119 118/118/118
f 120/120/120 122/122/122 121/121/121
f 120/120/120 123/123/123 122/122/122
f 124/124/124 126/126/126 125/125/125
f 124/124/124 127/127/127 126/126/126
f 128/128/128 130/130/130 129/129/129
f 128/128/128 131/131/131 130/130/130
f 132/132/132 134/134/134 133/133/133
f 132/132/132 135/135/135 134/134/134
f 136/136/136 138/138/138 137/137/137
f 136/136/136 139/139/139 138/138/138
f 140/140/140 142/142/142 141/141/141
f 140/140/140 143/143/143 142/142/142
f 144/144/144 146/146/146 145/145/145
f 144/144/144 147/147/147 146/146/146
f 148/148/148 150/150/150 149/149/149
f 148/148/148 151/151/151 150/150/150
f 152/152/152 154/154/154 153/153/153
f 152/152/152 155/155/155 154/154/154
f 156/156/156 158/158/158 157/157/157
f 156/156/156 159/159/159 158/158/158
f 160/160/160 162/162/162 161/161/161
f 160/160/160 163/163/163 162/162/162
f 164/164/164 166/166/166 165/165/165
f 164/164/164 167/167/167 166/166/166
f 168/168/168 170/170/170 169/169/169
f 168/168/168 171/171/171 170/170/170
f 172/172/172 174/174/174 173/173/173
f 175/175/175 177/177/177 176/176/176
f 178/178/178 180/180/180 179/179/179
f 181/181/181 183/183/183 182/182/182
f 184/184/184 186/186/186 185/185/185
f 187/187/187 189/189/189 188/188/188
f 190/190/190 192/192/192 191/191/191
f 193/193/193 195/195/195 194/194/194
f 196/196/196 198/198/198 197/197/197
f 199/199/199 201/201/201 200/200/200
