#pCylinder7_9_4108_166.obj

v 0.01454689 -0.02577565 -0.04035832
v 0.004625313 -0.03397619 0.001091447
v 0.0387861 -0.02577565 -0.02105476
v -0.009662055 -0.02577565 -0.03817536
v -0.01824922 -0.02577565 -0.01778031
v -0.0382205 -0.02223221 0.001091385
v -0.02134953 -0.02577565 0.01996323
v -0.005296226 -0.02577565 0.03271801
v 0.02109549 -0.02577565 0.04035822
v 0.03060015 -0.02577565 0.01996325
v 0.03219096 -0.02223221 0.001091354
v 0.0387861 -0.02577565 -0.02105476
v 0.04796837 -0.01489249 -0.0277261
v 0.01805415 -0.01489249 -0.05115278
v 0.01454689 -0.02577565 -0.04035832
v 0.01454689 -0.02577565 -0.04035832
v 0.01805415 -0.01489249 -0.05115278
v -0.01316923 -0.01489249 -0.0489698
v -0.009662055 -0.02577565 -0.03817536
v -0.009662055 -0.02577565 -0.03817536
v -0.01316923 -0.01489249 -0.0489698
v -0.02743169 -0.01489249 -0.02445173
v -0.01824922 -0.02577565 -0.01778031
v -0.01824922 -0.02577565 -0.01778031
v -0.02743169 -0.01489249 -0.02445173
v -0.04796533 -0.01288829 0.001091389
v -0.0382205 -0.02223221 0.001091385
v -0.0382205 -0.02223221 0.001091385
v -0.04796533 -0.01288829 0.001091389
v -0.03053179 -0.01489249 0.02663456
v -0.02134953 -0.02577565 0.01996323
v -0.02134953 -0.02577565 0.01996323
v -0.03053179 -0.01489249 0.02663456
v -0.008803487 -0.01489249 0.04351248
v -0.005296226 -0.02577565 0.03271801
v -0.005296226 -0.02577565 0.03271801
v -0.008803487 -0.01489249 0.04351248
v 0.02460295 -0.01489249 0.05115273
v 0.02109549 -0.02577565 0.04035822
v 0.02109549 -0.02577565 0.04035822
v 0.02460295 -0.01489249 0.05115273
v 0.03978233 -0.01489249 0.0266346
v 0.03060015 -0.02577565 0.01996325
v 0.03060015 -0.02577565 0.01996325
v 0.03978233 -0.01489249 0.0266346
v 0.04193579 -0.01288829 0.00109135
v 0.03219096 -0.02223221 0.001091354
v 0.03219096 -0.02223221 0.001091354
v 0.04193579 -0.01288829 0.00109135
v 0.04796837 -0.01489249 -0.0277261
v 0.0387861 -0.02577565 -0.02105476
v 0.04796837 -0.01489249 -0.0277261
v 0.04796837 -0.000148386 -0.0277261
v 0.01805415 -0.000148386 -0.05115278
v 0.01805415 -0.01489249 -0.05115278
v 0.01805415 -0.01489249 -0.05115278
v 0.01805415 -0.000148386 -0.05115278
v -0.01316923 -0.000148386 -0.0489698
v -0.01316923 -0.01489249 -0.0489698
v -0.01316923 -0.01489249 -0.0489698
v -0.01316923 -0.000148386 -0.0489698
v -0.02743169 -0.000148386 -0.02445173
v -0.02743169 -0.01489249 -0.02445173
v -0.02743169 -0.01489249 -0.02445173
v -0.02743169 -0.000148386 -0.02445173
v -0.04796533 -0.0002294572 0.001091389
v -0.04796533 -0.01288829 0.001091389
v -0.04796533 -0.01288829 0.001091389
v -0.04796533 -0.0002294572 0.001091389
v -0.03053179 -0.000148386 0.02663456
v -0.03053179 -0.01489249 0.02663456
v -0.03053179 -0.01489249 0.02663456
v -0.03053179 -0.000148386 0.02663456
v -0.008803487 -0.000148386 0.04351248
v -0.008803487 -0.01489249 0.04351248
v -0.008803487 -0.01489249 0.04351248
v -0.008803487 -0.000148386 0.04351248
v 0.02460295 -0.000148386 0.05115273
v 0.02460295 -0.01489249 0.05115273
v 0.02460295 -0.01489249 0.05115273
v 0.02460295 -0.000148386 0.05115273
v 0.03978233 -0.000148386 0.0266346
v 0.03978233 -0.01489249 0.0266346
v 0.03978233 -0.01489249 0.0266346
v 0.03978233 -0.000148386 0.0266346
v 0.04193579 -0.0002294572 0.00109135
v 0.04193579 -0.01288829 0.00109135
v 0.04193579 -0.01288829 0.00109135
v 0.04193579 -0.0002294572 0.00109135
v 0.04796837 -0.000148386 -0.0277261
v 0.04796837 -0.01489249 -0.0277261
v 0.04796837 -0.000148386 -0.0277261
v 0.04569037 0.01428328 -0.02539679
v 0.01714646 0.01428328 -0.04799136
v 0.01805415 -0.000148386 -0.05115278
v 0.01805415 -0.000148386 -0.05115278
v 0.01714646 0.01428328 -0.04799136
v -0.01182778 0.01428328 -0.04559771
v -0.01316923 -0.000148386 -0.0489698
v -0.01316923 -0.000148386 -0.0489698
v -0.01182778 0.01428328 -0.04559771
v -0.0232088 0.01428328 -0.02180643
v -0.02743169 -0.000148386 -0.02445173
v -0.02743169 -0.000148386 -0.02445173
v -0.0232088 0.01428328 -0.02180643
v -0.04530273 0.01197207 0.001196727
v -0.04796533 -0.0002294572 0.001091389
v -0.04796533 -0.0002294572 0.001091389
v -0.04530273 0.01197207 0.001196727
v -0.0266081 0.01428328 0.02419992
v -0.03053179 -0.000148386 0.02663456
v -0.03053179 -0.000148386 0.02663456
v -0.0266081 0.01428328 0.02419992
v -0.007040362 0.01428328 0.0396135
v -0.008803487 -0.000148386 0.04351248
v -0.008803487 -0.000148386 0.04351248
v -0.007040362 0.01428328 0.0396135
v 0.02432754 0.01428328 0.04799126
v 0.02460295 -0.000148386 0.05115273
v 0.02460295 -0.000148386 0.05115273
v 0.02432754 0.01428328 0.04799126
v 0.03671433 0.01428328 0.02419993
v 0.03978233 -0.000148386 0.0266346
v 0.03978233 -0.000148386 0.0266346
v 0.03671433 0.01428328 0.02419993
v 0.03865337 0.01197207 0.001196706
v 0.04193579 -0.0002294572 0.00109135
v 0.04193579 -0.0002294572 0.00109135
v 0.03865337 0.01197207 0.001196706
v 0.04569037 0.01428328 -0.02539679
v 0.04796837 -0.000148386 -0.0277261
v 0.04569037 0.01428328 -0.02539679
v 0.03225401 0.02437436 -0.0161477
v 0.01203793 0.02437436 -0.03256866
v 0.01714646 0.01428328 -0.04799136
v 0.01714646 0.01428328 -0.04799136
v 0.01203793 0.02437436 -0.03256866
v -0.002590857 0.02437436 -0.02139391
v -0.01182778 0.01428328 -0.04559771
v -0.01182778 0.01428328 -0.04559771
v -0.002590857 0.02437436 -0.02139391
v -0.01125164 0.02437436 -0.01279523
v -0.0232088 0.01428328 -0.02180643
v -0.0232088 0.01428328 -0.02180643
v -0.01125164 0.02437436 -0.01279523
v -0.03124311 0.02074639 0.001117437
v -0.04530273 0.01197207 0.001196727
v -0.04530273 0.01197207 0.001196727
v -0.03124311 0.02074639 0.001117437
v -0.01442565 0.02437436 0.01503014
v -0.0266081 0.01428328 0.02419992
v -0.0266081 0.01428328 0.02419992
v -0.01442565 0.02437436 0.01503014
v -0.002590794 0.02437436 0.02474615
v -0.007040362 0.01428328 0.0396135
v -0.007040362 0.01428328 0.0396135
v -0.002590794 0.02437436 0.02474615
v 0.01874281 0.02437436 0.03256853
v 0.02432754 0.01428328 0.04799126
v 0.02432754 0.01428328 0.04799126
v 0.01874281 0.02437436 0.03256853
v 0.02387296 0.02437436 0.01503015
v 0.03671433 0.01428328 0.02419993
v 0.03671433 0.01428328 0.02419993
v 0.02387296 0.02437436 0.01503015
v 0.0250458 0.02074639 0.0011174
v 0.03865337 0.01197207 0.001196706
v 0.03865337 0.01197207 0.001196706
v 0.0250458 0.02074639 0.0011174
v 0.03225401 0.02437436 -0.0161477
v 0.04569037 0.01428328 -0.02539679
v 0.03225401 0.02437436 -0.0161477
v 0.004625313 0.03397606 0.001091447
v 0.01203793 0.02437436 -0.03256866
v 0.01203793 0.02437436 -0.03256866
v 0.004625313 0.03397606 0.001091447
v -0.002590857 0.02437436 -0.02139391
v -0.002590857 0.02437436 -0.02139391
v 0.004625313 0.03397606 0.001091447
v -0.01125164 0.02437436 -0.01279523
v -0.01125164 0.02437436 -0.01279523
v 0.004625313 0.03397606 0.001091447
v -0.03124311 0.02074639 0.001117437
v -0.03124311 0.02074639 0.001117437
v 0.004625313 0.03397606 0.001091447
v -0.01442565 0.02437436 0.01503014
v -0.01442565 0.02437436 0.01503014
v 0.004625313 0.03397606 0.001091447
v -0.002590794 0.02437436 0.02474615
v -0.002590794 0.02437436 0.02474615
v 0.004625313 0.03397606 0.001091447
v 0.01874281 0.02437436 0.03256853
v 0.01874281 0.02437436 0.03256853
v 0.004625313 0.03397606 0.001091447
v 0.02387296 0.02437436 0.01503015
v 0.02387296 0.02437436 0.01503015
v 0.004625313 0.03397606 0.001091447
v 0.0250458 0.02074639 0.0011174
v 0.0250458 0.02074639 0.0011174
v 0.004625313 0.03397606 0.001091447
v 0.03225401 0.02437436 -0.0161477

vn 0.01544574 -0.9746064 -0.223392
vn 0.001921435 -0.999998 -0.0005128524
vn 0.2110238 -0.9698725 -0.1217219
vn -0.147378 -0.9735575 -0.1745442
vn -0.3243971 -0.9450634 -0.04027199
vn -0.3053773 -0.9505205 0.05705801
vn -0.2242161 -0.955556 0.1914154
vn -0.04882727 -0.9587458 0.2800404
vn 0.1202851 -0.9745761 0.1890318
vn 0.3290564 -0.9428012 -0.0533666
vn 0.4635 -0.8860961 -0.001180188
vn 0.3102512 -0.6400556 -0.7029032
vn 0.3102512 -0.6400556 -0.7029032
vn 0.3102513 -0.6400557 -0.7029032
vn 0.3102512 -0.6400556 -0.7029032
vn -0.2499074 -0.6391842 -0.7273167
vn -0.2499074 -0.6391844 -0.7273167
vn -0.2499074 -0.6391843 -0.7273167
vn -0.2499074 -0.6391843 -0.7273168
vn -0.7837929 -0.5961947 -0.1738409
vn -0.7837929 -0.5961946 -0.173841
vn -0.7837929 -0.5961947 -0.1738409
vn -0.7837929 -0.5961946 -0.1738409
vn -0.7216154 -0.621523 -0.3049266
vn -0.7216156 -0.621523 -0.3049266
vn -0.7216156 -0.621523 -0.3049266
vn -0.7216156 -0.621523 -0.3049265
vn -0.5325295 -0.6309733 0.5641676
vn -0.5325295 -0.6309733 0.5641676
vn -0.5325295 -0.6309733 0.5641676
vn -0.5325295 -0.6309733 0.5641676
vn -0.308177 -0.6400982 0.7037765
vn -0.3081771 -0.6400982 0.7037765
vn -0.308177 -0.6400982 0.7037764
vn -0.308177 -0.6400982 0.7037764
vn 0.001700844 -0.6283638 0.7779177
vn 0.001700818 -0.6283638 0.7779177
vn 0.001700857 -0.6283638 0.7779177
vn 0.001700844 -0.6283638 0.7779177
vn 0.7734906 -0.6022041 0.1976426
vn 0.7734905 -0.6022041 0.1976426
vn 0.7734905 -0.6022041 0.1976426
vn 0.7734906 -0.602204 0.1976426
vn 0.7579207 -0.6137943 -0.2209361
vn 0.7579207 -0.6137943 -0.220936
vn 0.7579207 -0.6137943 -0.2209361
vn 0.7579207 -0.6137943 -0.2209361
vn 0.8336885 -0.5488457 0.06108928
vn 0.8336885 -0.5488456 0.06108923
vn 0.8336885 -0.5488457 0.06108928
vn 0.8336885 -0.5488457 0.06108925
vn 0.4004441 -1.299636E-17 -0.9163212
vn 0.4004441 -1.299637E-17 -0.9163211
vn 0.4004441 -1.299637E-17 -0.9163211
vn 0.4004441 -1.299636E-17 -0.9163212
vn -0.3166212 6.092203E-17 -0.9485521
vn -0.3166212 6.092203E-17 -0.9485521
vn -0.3166212 6.092203E-17 -0.9485521
vn -0.3166212 6.092203E-17 -0.9485521
vn -0.962562 1.061211E-16 -0.2710617
vn -0.962562 1.061211E-16 -0.2710617
vn -0.962562 1.061211E-16 -0.2710617
vn -0.962562 1.061211E-16 -0.2710617
vn -0.9111468 1.051598E-16 -0.412082
vn -0.9111468 1.051598E-16 -0.412082
vn -0.9111468 1.051598E-16 -0.412082
vn -0.9111468 1.051598E-16 -0.412082
vn -0.6590347 4.427205E-17 0.7521126
vn -0.6590347 4.427205E-17 0.7521126
vn -0.6590346 4.427204E-17 0.7521126
vn -0.6590347 4.427205E-17 0.7521126
vn -0.3968188 1.257988E-17 0.9178969
vn -0.3968188 1.257988E-17 0.9178969
vn -0.3968188 1.257988E-17 0.9178969
vn -0.3968188 1.257988E-17 0.9178969
vn 0.02752502 -3.305996E-17 0.9996211
vn 0.02752502 -3.305996E-17 0.9996211
vn 0.02752502 -3.305996E-17 0.9996211
vn 0.02752502 -3.305996E-17 0.9996211
vn 0.9547458 -1.061239E-16 0.2974229
vn 0.9547458 -1.061239E-16 0.2974229
vn 0.9547458 -1.061239E-16 0.2974229
vn 0.9547458 -1.061239E-16 0.2974229
vn 0.9858769 -9.521767E-17 -0.1674718
vn 0.9858769 -9.521767E-17 -0.1674718
vn 0.9858769 -9.521767E-17 -0.1674718
vn 0.9858769 -9.521767E-17 -0.1674718
vn 0.9989418 -1.002241E-16 -0.04599151
vn 0.9989418 -1.002241E-16 -0.04599152
vn 0.9989418 -1.002241E-16 -0.04599151
vn 0.9989418 -1.002241E-16 -0.04599151
vn 0.3961986 0.1800349 -0.9003411
vn 0.3961986 0.1800349 -0.9003411
vn 0.3961986 0.1800349 -0.9003411
vn 0.3961986 0.1800349 -0.9003411
vn -0.3166764 0.18731 -0.9298554
vn -0.3166763 0.18731 -0.9298553
vn -0.3166763 0.18731 -0.9298553
vn -0.3166763 0.18731 -0.9298553
vn -0.9485897 0.2197906 -0.2277492
vn -0.9485897 0.2197906 -0.2277492
vn -0.9485897 0.2197906 -0.2277493
vn -0.9485897 0.2197905 -0.2277492
vn -0.8755487 0.2161018 -0.4321048
vn -0.8755485 0.2161018 -0.4321049
vn -0.8755487 0.2161018 -0.4321048
vn -0.8755487 0.2161018 -0.4321047
vn -0.6217226 0.206724 0.7554641
vn -0.6217226 0.2067241 0.7554641
vn -0.6217227 0.2067241 0.7554642
vn -0.6217226 0.206724 0.7554641
vn -0.3880833 0.24008 0.889805
vn -0.3880834 0.24008 0.889805
vn -0.3880833 0.24008 0.889805
vn -0.3880833 0.24008 0.889805
vn 0.009729641 0.2055195 0.9786046
vn 0.009729666 0.2055195 0.9786046
vn 0.009729641 0.2055195 0.9786046
vn 0.009729641 0.2055195 0.9786046
vn 0.9518613 0.1631281 0.2595176
vn 0.9518613 0.1631281 0.2595176
vn 0.9518613 0.1631281 0.2595177
vn 0.9518613 0.1631281 0.2595176
vn 0.9637179 0.2010116 -0.1756193
vn 0.9637179 0.2010115 -0.1756193
vn 0.9637179 0.2010115 -0.1756193
vn 0.9637179 0.2010115 -0.1756193
vn 0.9885183 0.1505436 -0.01297225
vn 0.9885183 0.1505436 -0.01297228
vn 0.9885183 0.1505436 -0.01297225
vn 0.9885183 0.1505436 -0.01297225
vn 0.251826 0.7891595 -0.5601884
vn 0.2518259 0.7891595 -0.5601884
vn 0.251826 0.7891595 -0.5601884
vn 0.2518259 0.7891595 -0.5601884
vn -0.2755066 0.8519385 -0.4453055
vn -0.2755066 0.8519384 -0.4453055
vn -0.2755066 0.8519385 -0.4453055
vn -0.2755066 0.8519385 -0.4453055
vn -0.5349258 0.8283318 -0.1664951
vn -0.5349258 0.8283318 -0.1664951
vn -0.5349258 0.8283318 -0.1664951
vn -0.5349258 0.8283318 -0.1664951
vn -0.5926044 0.7517992 -0.289168
vn -0.5926043 0.7517991 -0.289168
vn -0.5926043 0.7517991 -0.289168
vn -0.5926043 0.7517991 -0.289168
vn -0.4218294 0.7676094 0.4825306
vn -0.4218293 0.7676094 0.4825306
vn -0.4218295 0.7676094 0.4825307
vn -0.4218294 0.7676094 0.4825306
vn -0.2606561 0.7719754 0.5797521
vn -0.2606561 0.7719753 0.5797521
vn -0.2606561 0.7719752 0.5797521
vn -0.2606561 0.7719753 0.5797521
vn -0.02946427 0.7661015 0.642044
vn -0.02946425 0.7661015 0.642044
vn -0.02946425 0.7661015 0.642044
vn -0.02946425 0.7661015 0.642044
vn 0.6631941 0.7418409 0.09922525
vn 0.6631942 0.7418409 0.09922524
vn 0.6631942 0.7418409 0.09922529
vn 0.6631942 0.7418409 0.09922524
vn 0.6194116 0.7444519 -0.2492398
vn 0.6194116 0.7444521 -0.2492398
vn 0.6194115 0.744452 -0.2492398
vn 0.6194116 0.7444519 -0.2492397
vn 0.7267278 0.6708225 0.1478642
vn 0.7267278 0.6708226 0.1478641
vn 0.7267278 0.6708225 0.1478642
vn 0.7267278 0.6708225 0.1478642
vn 0.144898 0.9375964 -0.3160973
vn 0.144898 0.9375964 -0.3160974
vn 0.144898 0.9375964 -0.3160973
vn -0.359106 0.8896015 -0.282227
vn -0.359106 0.8896015 -0.282227
vn -0.3591059 0.8896015 -0.282227
vn -0.4100483 0.8788402 -0.2439268
vn -0.4100483 0.8788402 -0.2439269
vn -0.4100483 0.8788402 -0.2439268
vn -0.4438349 0.878563 -0.1764584
vn -0.4438349 0.878563 -0.1764585
vn -0.4438349 0.878563 -0.1764585
vn -0.3319929 0.8977368 0.2895674
vn -0.3319929 0.8977368 0.2895674
vn -0.3319929 0.8977368 0.2895674
vn -0.1883677 0.8945508 0.4053351
vn -0.1883677 0.8945507 0.4053351
vn -0.1883677 0.8945507 0.4053351
vn -0.04153108 0.9075938 0.4177901
vn -0.0415311 0.9075938 0.4177901
vn -0.04153109 0.9075938 0.4177901
vn 0.4542729 0.8907425 0.01463129
vn 0.454273 0.8907424 0.01463127
vn 0.454273 0.8907424 0.01463128
vn 0.5328361 0.7773978 -0.334273
vn 0.532836 0.7773978 -0.3342729
vn 0.532836 0.7773978 -0.3342729
vn 0.6411752 0.7217777 0.260636
vn 0.6411752 0.7217777 0.2606361
vn 0.6411752 0.7217777 0.2606361

vt 0.5482839 0.007647395
vt 0.5 0.15
vt 0.6264089 0.06440853
vt 0.4517161 0.00764741
vt 0.3735911 0.06440856
vt 0.34375 0.15625
vt 0.3735911 0.2480915
vt 0.4517161 0.3048526
vt 0.5482839 0.3048526
vt 0.6264089 0.2480914
vt 0.65625 0.15625
vt 0 0
vt 0 1
vt 1 1
vt 1 0
vt 0 0
vt 0 1
vt 1 1
vt 1 0
vt 0 0
vt 0 1
vt 1 1
vt 1 0
vt 0 0
vt 0 1
vt 1 1
vt 1 0
vt 0 0
vt 0 1
vt 1 1
vt 1 0
vt 0 0
vt 0 1
vt 1 1
vt 1 0
vt 0 0
vt 0 1
vt 1 1
vt 1 0
vt 0 0
vt 0 1
vt 1 1
vt 1 0
vt 0 0
vt 0 1
vt 1 1
vt 1 0
vt 0 0
vt 0 1
vt 1 1
vt 1 0
vt 0 0
vt 0 1
vt 1 1
vt 1 0
vt 0 0
vt 0 1
vt 1 1
vt 1 0
vt 0 0
vt 0 1
vt 1 1
vt 1 0
vt 0 0
vt 0 1
vt 1 1
vt 1 0
vt 0 0
vt 0 1
vt 1 1
vt 1 0
vt 0 0
vt 0 1
vt 1 1
vt 1 0
vt 0 0
vt 0 1
vt 1 1
vt 1 0
vt 0 0
vt 0 1
vt 1 1
vt 1 0
vt 0 0
vt 0 1
vt 1 1
vt 1 0
vt 0 0
vt 0 1
vt 1 1
vt 1 0
vt 0 0
vt 0 1
vt 1 1
vt 1 0
vt 0 0
vt 0 1
vt 1 1
vt 1 0
vt 0 0
vt 0 1
vt 1 1
vt 1 0
vt 0 0
vt 0 1
vt 1 1
vt 1 0
vt 0 0
vt 0 1
vt 1 1
vt 1 0
vt 0 0
vt 0 1
vt 1 1
vt 1 0
vt 0 0
vt 0 1
vt 1 1
vt 1 0
vt 0 0
vt 0 1
vt 1 1
vt 1 0
vt 0 0
vt 0 1
vt 1 1
vt 1 0
vt 0 0
vt 0 1
vt 1 1
vt 1 0
vt 0 0
vt 0 1
vt 1 1
vt 1 0
vt 0 0
vt 0 1
vt 1 1
vt 1 0
vt 0 0
vt 0 1
vt 1 1
vt 1 0
vt 0 0
vt 0 1
vt 1 1
vt 1 0
vt 0 0
vt 0 1
vt 1 1
vt 1 0
vt 0 0
vt 0 1
vt 1 1
vt 1 0
vt 0 0
vt 0 1
vt 1 1
vt 1 0
vt 0 0
vt 0 1
vt 1 1
vt 1 0
vt 0 0
vt 0 1
vt 1 1
vt 1 0
vt 0 0
vt 0 1
vt 1 1
vt 1 0
vt 0 0
vt 0.5 1
vt 1 0
vt 0 0
vt 0.5 1
vt 1 0
vt 0 0
vt 0.5 1
vt 1 0
vt 0 0
vt 0.5 1
vt 1 0
vt 0 0
vt 0.5 1
vt 1 0
vt 0 0
vt 0.5 1
vt 1 0
vt 0 0
vt 0.5 1
vt 1 0
vt 0 0
vt 0.5 1
vt 1 0
vt 0 0
vt 0.5 1
vt 1 0
vt 0 0
vt 0.5 1
vt 1 0

g pCylinder7_9_4108_166
usemtl pCylinder7_9_4108_166
usemap pCylinder7_9_4108_166
f 1/1/1 3/3/3 2/2/2
f 4/4/4 1/1/1 2/2/2
f 5/5/5 4/4/4 2/2/2
f 6/6/6 5/5/5 2/2/2
f 7/7/7 6/6/6 2/2/2
f 8/8/8 7/7/7 2/2/2
f 9/9/9 8/8/8 2/2/2
f 10/10/10 9/9/9 2/2/2
f 11/11/11 10/10/10 2/2/2
f 3/3/3 11/11/11 2/2/2
f 12/12/12 14/14/14 13/13/13
f 12/12/12 15/15/15 14/14/14
f 16/16/16 18/18/18 17/17/17
f 16/16/16 19/19/19 18/18/18
f 20/20/20 22/22/22 21/21/21
f 20/20/20 23/23/23 22/22/22
f 24/24/24 26/26/26 25/25/25
f 24/24/24 27/27/27 26/26/26
f 28/28/28 30/30/30 29/29/29
f 28/28/28 31/31/31 30/30/30
f 32/32/32 34/34/34 33/33/33
f 32/32/32 35/35/35 34/34/34
f 36/36/36 38/38/38 37/37/37
f 36/36/36 39/39/39 38/38/38
f 40/40/40 42/42/42 41/41/41
f 40/40/40 43/43/43 42/42/42
f 44/44/44 46/46/46 45/45/45
f 44/44/44 47/47/47 46/46/46
f 48/48/48 50/50/50 49/49/49
f 48/48/48 51/51/51 50/50/50
f 52/52/52 54/54/54 53/53/53
f 52/52/52 55/55/55 54/54/54
f 56/56/56 58/58/58 57/57/57
f 56/56/56 59/59/59 58/58/58
f 60/60/60 62/62/62 61/61/61
f 60/60/60 63/63/63 62/62/62
f 64/64/64 66/66/66 65/65/65
f 64/64/64 67/67/67 66/66/66
f 68/68/68 70/70/70 69/69/69
f 68/68/68 71/71/71 70/70/70
f 72/72/72 74/74/74 73/73/73
f 72/72/72 75/75/75 74/74/74
f 76/76/76 78/78/78 77/77/77
f 76/76/76 79/79/79 78/78/78
f 80/80/80 82/82/82 81/81/81
f 80/80/80 83/83/83 82/82/82
f 84/84/84 86/86/86 85/85/85
f 84/84/84 87/87/87 86/86/86
f 88/88/88 90/90/90 89/89/89
f 88/88/88 91/91/91 90/90/90
f 92/92/92 94/94/94 93/93/93
f 92/92/92 95/95/95 94/94/94
f 96/96/96 98/98/98 97/97/97
f 96/96/96 99/99/99 98/98/98
f 100/100/100 102/102/102 101/101/101
f 100/100/100 103/103/103 102/102/102
f 104/104/104 106/106/106 105/105/105
f 104/104/104 107/107/107 106/106/106
f 108/108/108 110/110/110 109/109/109
f 108/108/108 111/111/111 110/110/110
f 112/112/112 114/114/114 113/113/113
f 112/112/112 115/115/115 114/114/114
f 116/116/116 118/118/118 117/117/117
f 116/116/116 119/119/119 118/118/118
f 120/120/120 122/122/122 121/121/121
f 120/120/120 123/123/123 122/122/122
f 124/124/124 126/126/126 125/125/125
f 124/124/124 127/127/127 126/126/126
f 128/128/128 130/130/130 129/129/129
f 128/128/128 131/131/131 130/130/130
f 132/132/132 134/134/134 133/133/133
f 132/132/132 135/135/135 134/134/134
f 136/136/136 138/138/138 137/137/137
f 136/136/136 139/139/139 138/138/138
f 140/140/140 142/142/142 141/141/141
f 140/140/140 143/143/143 142/142/142
f 144/144/144 146/146/146 145/145/145
f 144/144/144 147/147/147 146/146/146
f 148/148/148 150/150/150 149/149/149
f 148/148/148 151/151/151 150/150/150
f 152/152/152 154/154/154 153/153/153
f 152/152/152 155/155/155 154/154/154
f 156/156/156 158/158/158 157/157/157
f 156/156/156 159/159/159 158/158/158
f 160/160/160 162/162/162 161/161/161
f 160/160/160 163/163/163 162/162/162
f 164/164/164 166/166/166 165/165/165
f 164/164/164 167/167/167 166/166/166
f 168/168/168 170/170/170 169/169/169
f 168/168/168 171/171/171 170/170/170
f 172/172/172 174/174/174 173/173/173
f 175/175/175 177/177/177 176/176/176
f 178/178/178 180/180/180 179/179/179
f 181/181/181 183/183/183 182/182/182
f 184/184/184 186/186/186 185/185/185
f 187/187/187 189/189/189 188/188/188
f 190/190/190 192/192/192 191/191/191
f 193/193/193 195/195/195 194/194/194
f 196/196/196 198/198/198 197/197/197
f 199/199/199 201/201/201 200/200/200
