#polySurface169_1776_94.obj

v 0.05500071 -0.02538313 -0.5775976
v 0.03599695 -0.6017157 -0.5202728
v 0.1069738 -0.5693827 0.6084114
v 0.05602485 0.0356488 0.6356144
v 0.07901169 0.5109662 -0.5385317
v 0.05236551 0.5649818 0.5985203

vn 0.9754978 -0.01867832 -0.2192146
vn 0.9754978 -0.01867832 -0.2192146
vn 0.9754978 -0.01867832 -0.2192146
vn 0.9754978 -0.01867832 -0.2192146
vn 0.9754978 -0.01867832 -0.2192146
vn 0.9754978 -0.01867832 -0.2192146

vt 0.5371094 0.4909668
vt 0.3999023 0
vt 0.0859375 0
vt 0 0.5356445
vt 0.3818359 1
vt 0.1571045 0.9838867

g polySurface169_1776_94
usemtl polySurface169_1776_94
usemap polySurface169_1776_94
f 1/1/1 3/3/3 2/2/2
f 3/3/3 1/1/1 4/4/4
f 4/4/4 1/1/1 5/5/5
f 4/4/4 5/5/5 6/6/6
