#polySurface169_1776_95.obj

v -0.06831054 -0.6395848 0.6365595
v -0.1392869 -0.6731778 -0.5369829
v -0.120284 -0.02726625 -0.6158719
v -0.1192589 0.04233936 0.6738891
v -0.1213202 0.6552431 -0.1661991
v -0.1229186 0.6350445 0.6125537
v -0.06831054 -0.6395848 0.6365595
v 0.1743298 -0.639585 0.6365598
v 0.1033534 -0.673178 -0.5369826
v -0.1392869 -0.6731778 -0.5369829
v -0.1392869 -0.6731778 -0.5369829
v 0.1033534 -0.673178 -0.5369826
v 0.1223572 -0.02726636 -0.6158714
v -0.120284 -0.02726625 -0.6158719
v -0.120284 -0.02726625 -0.6158719
v 0.1223572 -0.02726636 -0.6158714
v 0.1463679 0.5824283 -0.5566572
v -0.1213202 0.6552431 -0.1661991
v -0.1213202 0.6552431 -0.1661991
v 0.1463679 0.5824283 -0.5566572
v 0.1197218 0.6350443 0.6125541
v -0.1229186 0.6350445 0.6125537
v -0.1229186 0.6350445 0.6125537
v 0.1197218 0.6350443 0.6125541
v 0.1233814 0.0423396 0.6738895
v -0.1192589 0.04233936 0.6738891
v -0.1192589 0.04233936 0.6738891
v 0.1233814 0.0423396 0.6738895
v 0.1743298 -0.639585 0.6365598
v -0.06831054 -0.6395848 0.6365595
v 0.1743298 -0.639585 0.6365598
v 0.1743306 -0.5693826 0.6084114
v 0.1033537 -0.6017156 -0.5202728
v 0.1033534 -0.673178 -0.5369826
v 0.1033534 -0.673178 -0.5369826
v 0.1033537 -0.6017156 -0.5202728
v 0.1223575 -0.02538306 -0.5775976
v 0.1223572 -0.02726636 -0.6158714
v 0.1223572 -0.02726636 -0.6158714
v 0.1223575 -0.02538306 -0.5775976
v 0.1463685 0.5109663 -0.5385318
v 0.1463679 0.5824283 -0.5566572
v 0.1463679 0.5824283 -0.5566572
v 0.1463685 0.5109663 -0.5385318
v 0.1197215 0.5649818 0.5985201
v 0.1197218 0.6350443 0.6125541
v 0.1233816 0.03564887 0.6356144
v 0.1233814 0.0423396 0.6738895
v 0.1233814 0.0423396 0.6738895
v 0.1233816 0.03564887 0.6356144
v 0.1743306 -0.5693826 0.6084114
v 0.1743298 -0.639585 0.6365598
v 0.1743306 -0.5693826 0.6084114
v 0.1069738 -0.5693827 0.6084114
v 0.03599695 -0.6017157 -0.5202728
v 0.1033537 -0.6017156 -0.5202728
v 0.1033537 -0.6017156 -0.5202728
v 0.03599695 -0.6017157 -0.5202728
v 0.05500071 -0.02538313 -0.5775976
v 0.1223575 -0.02538306 -0.5775976
v 0.1223575 -0.02538306 -0.5775976
v 0.05500071 -0.02538313 -0.5775976
v 0.07901169 0.5109662 -0.5385317
v 0.1463685 0.5109663 -0.5385318
v 0.1463685 0.5109663 -0.5385318
v 0.07901169 0.5109662 -0.5385317
v 0.05236551 0.5649818 0.5985203
v 0.1197215 0.5649818 0.5985201
v 0.1197215 0.5649818 0.5985201
v 0.05236551 0.5649818 0.5985203
v 0.05602485 0.0356488 0.6356144
v 0.1233816 0.03564887 0.6356144
v 0.1233816 0.03564887 0.6356144
v 0.05602485 0.0356488 0.6356144
v 0.1069738 -0.5693827 0.6084114
v 0.1743306 -0.5693826 0.6084114
v 0.05221413 -0.6174161 0.08020787
v 0.05221368 -0.02386365 0.01832792
v 0.09023939 -0.02386337 0.01832807
v 0.09024002 -0.6174163 0.08020722
v 0.05427513 -0.04287212 0.649004
v 0.05427498 0.004015525 0.6490034
v 0.09230071 0.004015387 0.6490036
v 0.09230085 -0.04287226 0.6490042
v 0.05221416 0.02302407 0.01832834
v 0.05316722 0.5770242 0.003526777
v 0.09119295 0.577024 0.00352693
v 0.09024005 0.02302393 0.01832769
v 0.05316722 0.5770242 0.003526777
v 0.05316737 0.5770241 -0.03449843
v 0.09119327 0.577024 -0.03449908
v 0.09119295 0.577024 0.00352693
v 0.05316737 0.5770241 -0.03449843
v 0.05221368 0.02302391 -0.01969784
v 0.0902394 0.02302418 -0.01969769
v 0.09119327 0.577024 -0.03449908
v 0.05325112 0.0130226 -0.5923553
v 0.05325045 -0.0338647 -0.5923549
v 0.09127618 -0.03386484 -0.5923548
v 0.09127683 0.01302287 -0.5923551
v 0.05221399 -0.02386333 -0.01969809
v 0.05221365 -0.6174163 0.04218169
v 0.09023937 -0.6174164 0.04218185
v 0.09023971 -0.02386347 -0.01969793
v 0.05221365 -0.6174163 0.04218169
v 0.05221413 -0.6174161 0.08020787
v 0.09024002 -0.6174163 0.08020722
v 0.09023937 -0.6174164 0.04218185
v 0.09024002 -0.6174163 0.08020722
v 0.09023939 -0.02386337 0.01832807
v 0.09023971 -0.02386347 -0.01969793
v 0.09023937 -0.6174164 0.04218185
v 0.0902394 0.02302418 -0.01969769
v 0.09024005 0.02302393 0.01832769
v 0.09119327 0.577024 -0.03449908
v 0.09119295 0.577024 0.00352693
v 0.05221365 -0.6174163 0.04218169
v 0.05221399 -0.02386333 -0.01969809
v 0.05221368 -0.02386365 0.01832792
v 0.05221413 -0.6174161 0.08020787
v 0.05221416 0.02302407 0.01832834
v 0.05221368 0.02302391 -0.01969784
v 0.05316722 0.5770242 0.003526777
v 0.05316737 0.5770241 -0.03449843
v 0.05221368 -0.02386365 0.01832792
v 0.05427513 -0.04287212 0.649004
v 0.09230085 -0.04287226 0.6490042
v 0.09023939 -0.02386337 0.01832807
v 0.09023939 -0.02386337 0.01832807
v 0.09230085 -0.04287226 0.6490042
v 0.09230071 0.004015387 0.6490036
v 0.09024005 0.02302393 0.01832769
v 0.09024005 0.02302393 0.01832769
v 0.09230071 0.004015387 0.6490036
v 0.05427498 0.004015525 0.6490034
v 0.05221416 0.02302407 0.01832834
v 0.05221416 0.02302407 0.01832834
v 0.05427498 0.004015525 0.6490034
v 0.05427513 -0.04287212 0.649004
v 0.05221368 -0.02386365 0.01832792
v 0.05221368 0.02302391 -0.01969784
v 0.05325112 0.0130226 -0.5923553
v 0.09127683 0.01302287 -0.5923551
v 0.0902394 0.02302418 -0.01969769
v 0.0902394 0.02302418 -0.01969769
v 0.09127683 0.01302287 -0.5923551
v 0.09127618 -0.03386484 -0.5923548
v 0.09023971 -0.02386347 -0.01969793
v 0.09023971 -0.02386347 -0.01969793
v 0.09127618 -0.03386484 -0.5923548
v 0.05325045 -0.0338647 -0.5923549
v 0.05221399 -0.02386333 -0.01969809
v 0.05221399 -0.02386333 -0.01969809
v 0.05325045 -0.0338647 -0.5923549
v 0.05325112 0.0130226 -0.5923553
v 0.05221368 0.02302391 -0.01969784

vn -0.974425 0.008887297 0.224537
vn -0.974425 0.008887297 0.224537
vn -0.974425 0.008887296 0.224537
vn -0.974425 0.008887296 0.224537
vn -0.974425 0.008887298 0.224537
vn -0.974425 0.008887297 0.224537
vn -0.07292373 -0.9970116 0.02549611
vn -0.07292373 -0.9970116 0.02549612
vn -0.07292373 -0.9970116 0.02549611
vn -0.07292373 -0.9970116 0.02549612
vn -0.2157839 -0.1152295 -0.9696181
vn -0.2157839 -0.1152295 -0.9696181
vn -0.2157839 -0.1152295 -0.9696181
vn -0.2157839 -0.1152295 -0.9696181
vn -0.6803828 0.3361564 -0.6512129
vn -0.6803827 0.3361564 -0.6512129
vn -0.6803827 0.3361564 -0.6512129
vn -0.6803828 0.3361564 -0.6512129
vn 0.2008494 0.9788588 -0.03866496
vn 0.2008494 0.9788588 -0.03866496
vn 0.2008494 0.9788588 -0.03866496
vn 0.2008494 0.9788588 -0.03866496
vn 0.2148208 0.09698599 0.971826
vn 0.2148208 0.09698599 0.971826
vn 0.2148208 0.09698599 0.971826
vn 0.2148208 0.09698599 0.971826
vn 0.2035952 -0.060396 0.9771906
vn 0.2035952 -0.060396 0.9771906
vn 0.2035952 -0.060396 0.9771906
vn 0.2035952 -0.060396 0.9771906
vn 0.9629472 -0.02800601 -0.2682321
vn 0.9629472 -0.02800601 -0.2682321
vn 0.9629472 -0.02800601 -0.2682321
vn 0.9629472 -0.02800601 -0.2682321
vn 0.9835675 -0.05073546 -0.1732649
vn 0.9835675 -0.05073546 -0.1732649
vn 0.9835675 -0.05073546 -0.1732649
vn 0.9835675 -0.05073546 -0.1732649
vn 0.965183 -0.06106431 -0.254348
vn 0.965183 -0.06106431 -0.254348
vn 0.965183 -0.06106431 -0.254348
vn 0.965183 -0.0610643 -0.254348
vn 0.982317 -0.02290094 -0.1858197
vn 0.982317 -0.02290094 -0.1858197
vn 0.982317 -0.02290094 -0.1858197
vn 0.982317 -0.02290094 -0.1858197
vn 0.9760866 -0.01760911 -0.2166676
vn 0.9760866 -0.01760911 -0.2166676
vn 0.9893478 0.05118494 -0.1362757
vn 0.9893478 0.05118494 -0.1362757
vn 0.9893478 0.05118494 -0.1362757
vn 0.9893478 0.05118494 -0.1362757
vn 0.07291923 0.9970113 -0.02551714
vn 0.07291923 0.9970113 -0.02551715
vn 0.07291923 0.9970113 -0.02551714
vn 0.07291923 0.9970113 -0.02551715
vn 0.2146032 0.09304068 0.9722597
vn 0.2146032 0.09304069 0.9722597
vn 0.2146032 0.09304068 0.9722597
vn 0.2146032 0.09304069 0.9722597
vn 0.2019801 -0.07838812 0.9762476
vn 0.2019801 -0.07838812 0.9762476
vn 0.2019801 -0.07838812 0.9762476
vn 0.2019801 -0.07838812 0.9762476
vn -0.06897161 -0.9966522 0.04390038
vn -0.06897161 -0.9966522 0.04390038
vn -0.06897161 -0.9966522 0.04390038
vn -0.06897161 -0.9966522 0.04390038
vn -0.2129026 -0.06404506 -0.9749721
vn -0.2129026 -0.06404508 -0.9749721
vn -0.2129026 -0.06404506 -0.9749721
vn -0.2129026 -0.06404508 -0.9749721
vn -0.2044415 0.05065027 -0.9775675
vn -0.2044415 0.05065027 -0.9775675
vn -0.2044415 0.05065027 -0.9775675
vn -0.2044415 0.05065027 -0.9775675
vn 0.214862 0.09774038 0.9717413
vn 0.214862 0.09774038 0.9717413
vn 0.214862 0.09774038 0.9717413
vn 0.214862 0.09774038 0.9717413
vn 0.2080826 -0.005752143 0.9780943
vn 0.2080826 -0.005752143 0.9780943
vn 0.2080826 -0.005752143 0.9780943
vn 0.2080826 -0.005752143 0.9780943
vn 0.2100457 0.02092507 0.9774676
vn 0.2100457 0.02092507 0.9774676
vn 0.2100457 0.02092507 0.9774676
vn 0.2100457 0.02092507 0.9774676
vn 0.07886956 0.996882 0.002439491
vn 0.07886956 0.996882 0.002439491
vn 0.07886956 0.996882 0.002439491
vn 0.07886956 0.996882 0.002439491
vn -0.2100457 -0.02092507 -0.9774676
vn -0.2100457 -0.02092507 -0.9774676
vn -0.2100457 -0.02092507 -0.9774676
vn -0.2100457 -0.02092507 -0.9774676
vn -0.2080826 0.005752143 -0.9780943
vn -0.2080826 0.005752143 -0.9780943
vn -0.2080826 0.005752143 -0.9780943
vn -0.2080826 0.005752143 -0.9780943
vn -0.214862 -0.09774038 -0.9717413
vn -0.214862 -0.09774038 -0.9717413
vn -0.214862 -0.09774038 -0.9717413
vn -0.214862 -0.09774038 -0.9717413
vn -0.07886956 -0.996882 -0.002439491
vn -0.07886956 -0.996882 -0.002439491
vn -0.07886956 -0.996882 -0.002439491
vn -0.07886956 -0.996882 -0.002439491
vn 0.9777496 -0.023442 -0.2084612
vn 0.9777496 -0.023442 -0.2084612
vn 0.9777496 -0.023442 -0.2084612
vn 0.9777496 -0.023442 -0.2084612
vn 0.9777057 -0.02503231 -0.2084825
vn 0.9777058 -0.02502809 -0.2084825
vn 0.9777019 -0.02516466 -0.2084843
vn 0.9777019 -0.02516466 -0.2084843
vn -0.9777496 0.023442 0.2084612
vn -0.9777496 0.023442 0.2084612
vn -0.9777496 0.023442 0.2084612
vn -0.9777496 0.023442 0.2084612
vn -0.9777058 0.02502809 0.2084825
vn -0.9777057 0.02503231 0.2084825
vn -0.9777019 0.02516466 0.2084843
vn -0.9777019 0.02516466 0.2084843
vn -0.08505552 -0.9958677 -0.03182752
vn -0.08505552 -0.9958677 -0.03182753
vn -0.08505552 -0.9958677 -0.03182752
vn -0.08505552 -0.9958677 -0.03182753
vn 0.9770631 -0.02342305 -0.2116579
vn 0.9770631 -0.02342305 -0.2116579
vn 0.9770631 -0.02342305 -0.2116579
vn 0.9770631 -0.02342305 -0.2116579
vn 0.0850554 0.9958677 0.0318269
vn 0.0850554 0.9958677 0.0318269
vn 0.0850554 0.9958677 0.0318269
vn 0.0850554 0.9958677 0.0318269
vn -0.9770631 0.02342305 0.2116579
vn -0.9770631 0.02342305 0.2116579
vn -0.9770631 0.02342305 0.2116579
vn -0.9770631 0.02342305 0.2116579
vn 0.0752491 0.9970577 -0.01460645
vn 0.0752491 0.9970577 -0.01460644
vn 0.0752491 0.9970577 -0.01460645
vn 0.0752491 0.9970577 -0.01460644
vn 0.9781255 -0.0234524 -0.2066892
vn 0.9781255 -0.0234524 -0.2066892
vn 0.9781255 -0.0234524 -0.2066892
vn 0.9781255 -0.0234524 -0.2066892
vn -0.07524916 -0.9970577 0.01460619
vn -0.07524916 -0.9970577 0.01460619
vn -0.07524916 -0.9970577 0.01460619
vn -0.07524916 -0.9970577 0.01460619
vn -0.9781255 0.0234524 0.2066892
vn -0.9781255 0.0234524 0.2066892
vn -0.9781255 0.0234524 0.2066892
vn -0.9781255 0.0234524 0.2066892

vt 0.0859375 0
vt 0.3999023 0
vt 0.5371094 0.4909668
vt 0 0.5356445
vt 0.3818359 1
vt 0.1571045 0.9838867
vt 0.0859375 0
vt 0.0859375 0
vt 0.3999023 0
vt 0.3999023 0
vt 0.3999023 0
vt 0.3999023 0
vt 0.5371094 0.4909668
vt 0.5371094 0.4909668
vt 0.5371094 0.4909668
vt 0.5371094 0.4909668
vt 0.3818359 1
vt 0.3818359 1
vt 0.3818359 1
vt 0.3818359 1
vt 0.1571045 0.9838867
vt 0.1571045 0.9838867
vt 0.1571045 0.9838867
vt 0.1571045 0.9838867
vt 0 0.5356445
vt 0 0.5356445
vt 0 0.5356445
vt 0 0.5356445
vt 0.0859375 0
vt 0.0859375 0
vt 0.0859375 0
vt 0.0859375 0
vt 0.3999023 0
vt 0.3999023 0
vt 0.3999023 0
vt 0.3999023 0
vt 0.5371094 0.4909668
vt 0.5371094 0.4909668
vt 0.5371094 0.4909668
vt 0.5371094 0.4909668
vt 0.3818359 1
vt 0.3818359 1
vt 0.3818359 1
vt 0.3818359 1
vt 0.1571045 0.9838867
vt 0.1571045 0.9838867
vt 0 0.5356445
vt 0 0.5356445
vt 0 0.5356445
vt 0 0.5356445
vt 0.0859375 0
vt 0.0859375 0
vt 0.0859375 0
vt 0.0859375 0
vt 0.3999023 0
vt 0.3999023 0
vt 0.3999023 0
vt 0.3999023 0
vt 0.5371094 0.4909668
vt 0.5371094 0.4909668
vt 0.5371094 0.4909668
vt 0.5371094 0.4909668
vt 0.3818359 1
vt 0.3818359 1
vt 0.3818359 1
vt 0.3818359 1
vt 0.1571045 0.9838867
vt 0.1571045 0.9838867
vt 0.1571045 0.9838867
vt 0.1571045 0.9838867
vt 0 0.5356445
vt 0 0.5356445
vt 0 0.5356445
vt 0 0.5356445
vt 0.0859375 0
vt 0.0859375 0
vt 0.375 0
vt 0.375 0.08331299
vt 0.625 0.08331299
vt 0.625 0
vt 0.375 0.08331299
vt 0.375 0.166626
vt 0.625 0.166626
vt 0.625 0.08331299
vt 0.375 0.166626
vt 0.375 0.25
vt 0.625 0.25
vt 0.625 0.166626
vt 0.375 0.25
vt 0.375 0.5
vt 0.625 0.5
vt 0.625 0.25
vt 0.375 0.5
vt 0.375 0.5834961
vt 0.625 0.5834961
vt 0.625 0.5
vt 0.375 0.5834961
vt 0.375 0.6665039
vt 0.625 0.6665039
vt 0.625 0.5834961
vt 0.375 0.6665039
vt 0.375 0.75
vt 0.625 0.75
vt 0.625 0.6665039
vt 0.375 0.75
vt 0.375 1
vt 0.625 1
vt 0.625 0.75
vt 0.625 0
vt 0.625 0.08331299
vt 0.875 0.08331299
vt 0.875 0
vt 0.875 0.166626
vt 0.625 0.166626
vt 0.875 0.25
vt 0.625 0.25
vt 0.125 0
vt 0.125 0.08331299
vt 0.375 0.08331299
vt 0.375 0
vt 0.375 0.166626
vt 0.125 0.166626
vt 0.375 0.25
vt 0.125 0.25
vt 0.375 0.08331299
vt 0.375 0.08331299
vt 0.625 0.08331299
vt 0.625 0.08331299
vt 0.625 0.08331299
vt 0.625 0.08331299
vt 0.625 0.166626
vt 0.625 0.166626
vt 0.625 0.166626
vt 0.625 0.166626
vt 0.375 0.166626
vt 0.375 0.166626
vt 0.375 0.166626
vt 0.375 0.166626
vt 0.375 0.08331299
vt 0.375 0.08331299
vt 0.375 0.5834961
vt 0.375 0.5834961
vt 0.625 0.5834961
vt 0.625 0.5834961
vt 0.625 0.5834961
vt 0.625 0.5834961
vt 0.625 0.6665039
vt 0.625 0.6665039
vt 0.625 0.6665039
vt 0.625 0.6665039
vt 0.375 0.6665039
vt 0.375 0.6665039
vt 0.375 0.6665039
vt 0.375 0.6665039
vt 0.375 0.5834961
vt 0.375 0.5834961

g polySurface169_1776_95
usemtl polySurface169_1776_95
usemap polySurface169_1776_95
f 1/1/1 3/3/3 2/2/2
f 3/3/3 1/1/1 4/4/4
f 3/3/3 4/4/4 5/5/5
f 5/5/5 4/4/4 6/6/6
f 7/7/7 9/9/9 8/8/8
f 7/7/7 10/10/10 9/9/9
f 11/11/11 13/13/13 12/12/12
f 11/11/11 14/14/14 13/13/13
f 15/15/15 17/17/17 16/16/16
f 15/15/15 18/18/18 17/17/17
f 19/19/19 21/21/21 20/20/20
f 19/19/19 22/22/22 21/21/21
f 23/23/23 25/25/25 24/24/24
f 23/23/23 26/26/26 25/25/25
f 27/27/27 29/29/29 28/28/28
f 27/27/27 30/30/30 29/29/29
f 31/31/31 33/33/33 32/32/32
f 31/31/31 34/34/34 33/33/33
f 35/35/35 37/37/37 36/36/36
f 35/35/35 38/38/38 37/37/37
f 39/39/39 41/41/41 40/40/40
f 39/39/39 42/42/42 41/41/41
f 43/43/43 45/45/45 44/44/44
f 43/43/43 46/46/46 45/45/45
f 46/46/46 47/47/47 45/45/45
f 46/46/46 48/48/48 47/47/47
f 49/49/49 51/51/51 50/50/50
f 49/49/49 52/52/52 51/51/51
f 53/53/53 55/55/55 54/54/54
f 53/53/53 56/56/56 55/55/55
f 57/57/57 59/59/59 58/58/58
f 57/57/57 60/60/60 59/59/59
f 61/61/61 63/63/63 62/62/62
f 61/61/61 64/64/64 63/63/63
f 65/65/65 67/67/67 66/66/66
f 65/65/65 68/68/68 67/67/67
f 69/69/69 71/71/71 70/70/70
f 69/69/69 72/72/72 71/71/71
f 73/73/73 75/75/75 74/74/74
f 73/73/73 76/76/76 75/75/75
f 77/77/77 79/79/79 78/78/78
f 77/77/77 80/80/80 79/79/79
f 81/81/81 83/83/83 82/82/82
f 81/81/81 84/84/84 83/83/83
f 85/85/85 87/87/87 86/86/86
f 85/85/85 88/88/88 87/87/87
f 89/89/89 91/91/91 90/90/90
f 89/89/89 92/92/92 91/91/91
f 93/93/93 95/95/95 94/94/94
f 93/93/93 96/96/96 95/95/95
f 97/97/97 99/99/99 98/98/98
f 97/97/97 100/100/100 99/99/99
f 101/101/101 103/103/103 102/102/102
f 101/101/101 104/104/104 103/103/103
f 105/105/105 107/107/107 106/106/106
f 105/105/105 108/108/108 107/107/107
f 109/109/109 111/111/111 110/110/110
f 109/109/109 112/112/112 111/111/111
f 110/110/110 111/111/111 113/113/113
f 110/110/110 113/113/113 114/114/114
f 114/114/114 113/113/113 115/115/115
f 114/114/114 115/115/115 116/116/116
f 117/117/117 119/119/119 118/118/118
f 117/117/117 120/120/120 119/119/119
f 118/118/118 119/119/119 121/121/121
f 118/118/118 121/121/121 122/122/122
f 122/122/122 121/121/121 123/123/123
f 122/122/122 123/123/123 124/124/124
f 125/125/125 127/127/127 126/126/126
f 125/125/125 128/128/128 127/127/127
f 129/129/129 131/131/131 130/130/130
f 129/129/129 132/132/132 131/131/131
f 133/133/133 135/135/135 134/134/134
f 133/133/133 136/136/136 135/135/135
f 137/137/137 139/139/139 138/138/138
f 137/137/137 140/140/140 139/139/139
f 141/141/141 143/143/143 142/142/142
f 141/141/141 144/144/144 143/143/143
f 145/145/145 147/147/147 146/146/146
f 145/145/145 148/148/148 147/147/147
f 149/149/149 151/151/151 150/150/150
f 149/149/149 152/152/152 151/151/151
f 153/153/153 155/155/155 154/154/154
f 153/153/153 156/156/156 155/155/155
