#polySurface43_1757_118.obj

v 0.0588338 -0.6497359 0.2580885
v 0.05241521 -0.6635083 -0.1532272
v 0.03340458 -0.03210134 -0.3509449
v 0.03340563 0.04651062 0.3509448
v 0.0334051 0.6404058 -0.1661982
v 0.03340546 0.627571 0.1286775
v 0.0588338 -0.6497359 0.2580885
v 0.1213217 -0.6436905 0.2580888
v 0.1213204 -0.655242 -0.153227
v 0.05241521 -0.6635083 -0.1532272
v 0.05241521 -0.6635083 -0.1532272
v 0.1213204 -0.655242 -0.153227
v 0.1213206 -0.01726252 -0.3509449
v 0.03340458 -0.03210134 -0.3509449
v 0.03340458 -0.03210134 -0.3509449
v 0.1213206 -0.01726252 -0.3509449
v 0.1213211 0.6552459 -0.1661983
v 0.0334051 0.6404058 -0.1661982
v 0.0334051 0.6404058 -0.1661982
v 0.1213211 0.6552459 -0.1661983
v 0.1213215 0.6424111 0.1286774
v 0.03340546 0.627571 0.1286775
v 0.03340546 0.627571 0.1286775
v 0.1213215 0.6424111 0.1286774
v 0.1213216 0.06135007 0.3509447
v 0.03340563 0.04651062 0.3509448
v 0.03340563 0.04651062 0.3509448
v 0.1213216 0.06135007 0.3509447
v 0.1213217 -0.6436905 0.2580888
v 0.0588338 -0.6497359 0.2580885
v 0.1213217 -0.6436905 0.2580888
v 0.1213215 -0.5734879 0.2299411
v 0.1213216 -0.5837795 -0.1365163
v 0.1213204 -0.655242 -0.153227
v 0.1213212 -0.01537934 -0.3126701
v 0.1213206 -0.01726252 -0.3509449
v 0.121321 0.5837829 -0.1480728
v 0.1213211 0.6552459 -0.1661983
v 0.1213215 0.5723488 0.1146446
v 0.1213215 0.6424111 0.1286774
v 0.1213202 0.05465907 0.3126695
v 0.1213216 0.06135007 0.3509447
v 0.1213215 -0.5734879 0.2299411
v 0.05396387 -0.5734888 0.2299408
v 0.05396402 -0.5837791 -0.136516
v 0.1213216 -0.5837795 -0.1365163
v 0.1213216 -0.5837795 -0.1365163
v 0.05396402 -0.5837791 -0.136516
v 0.05396618 -0.01537847 -0.3126699
v 0.1213212 -0.01537934 -0.3126701
v 0.1213212 -0.01537934 -0.3126701
v 0.05396618 -0.01537847 -0.3126699
v 0.05396604 0.5837837 -0.1480726
v 0.121321 0.5837829 -0.1480728
v 0.121321 0.5837829 -0.1480728
v 0.05396604 0.5837837 -0.1480726
v 0.05396389 0.5723479 0.1146443
v 0.1213215 0.5723488 0.1146446
v 0.1213215 0.5723488 0.1146446
v 0.05396389 0.5723479 0.1146443
v 0.05396523 0.05465931 0.3126697
v 0.1213202 0.05465907 0.3126695
v 0.1213202 0.05465907 0.3126695
v 0.05396523 0.05465931 0.3126697
v 0.05396387 -0.5734888 0.2299408
v 0.1213215 -0.5734879 0.2299411
v 0.05221566 -0.6174134 0.08020773
v 0.05221404 -0.02386073 0.01832774
v 0.09023973 -0.02386099 0.01832826
v 0.09024135 -0.6174136 0.08020825
v 0.0522151 -0.02386115 0.3260585
v 0.05221597 0.02302709 0.3260583
v 0.09024163 0.02302679 0.3260582
v 0.09024076 -0.02386082 0.3260584
v 0.05221493 0.02302692 0.01832819
v 0.05221615 0.6165792 0.003583561
v 0.09024182 0.6165796 0.003583437
v 0.09024061 0.02302725 0.01832806
v 0.05221615 0.6165792 0.003583561
v 0.05221528 0.6165795 -0.03444153
v 0.09024095 0.6165798 -0.03444166
v 0.09024182 0.6165796 0.003583437
v 0.05221528 0.6165795 -0.03444153
v 0.05221403 0.02302713 -0.01969754
v 0.09023972 0.02302687 -0.01969702
v 0.09024095 0.6165798 -0.03444166
v 0.05221556 0.02302681 -0.3274271
v 0.05221467 -0.02386084 -0.3274276
v 0.09024032 -0.02386114 -0.3274277
v 0.09024123 0.02302714 -0.3274273
v 0.05221569 -0.0238613 -0.01969747
v 0.05221479 -0.6174131 0.04218264
v 0.09024044 -0.6174134 0.04218252
v 0.09024136 -0.02386097 -0.01969759
v 0.05221479 -0.6174131 0.04218264
v 0.05221566 -0.6174134 0.08020773
v 0.09024135 -0.6174136 0.08020825
v 0.09024044 -0.6174134 0.04218252
v 0.09024135 -0.6174136 0.08020825
v 0.09023973 -0.02386099 0.01832826
v 0.09024136 -0.02386097 -0.01969759
v 0.09024044 -0.6174134 0.04218252
v 0.09023972 0.02302687 -0.01969702
v 0.09024061 0.02302725 0.01832806
v 0.09024095 0.6165798 -0.03444166
v 0.09024182 0.6165796 0.003583437
v 0.05221479 -0.6174131 0.04218264
v 0.05221569 -0.0238613 -0.01969747
v 0.05221404 -0.02386073 0.01832774
v 0.05221566 -0.6174134 0.08020773
v 0.05221493 0.02302692 0.01832819
v 0.05221403 0.02302713 -0.01969754
v 0.05221615 0.6165792 0.003583561
v 0.05221528 0.6165795 -0.03444153
v 0.05221404 -0.02386073 0.01832774
v 0.0522151 -0.02386115 0.3260585
v 0.09024076 -0.02386082 0.3260584
v 0.09023973 -0.02386099 0.01832826
v 0.09023973 -0.02386099 0.01832826
v 0.09024076 -0.02386082 0.3260584
v 0.09024163 0.02302679 0.3260582
v 0.09024061 0.02302725 0.01832806
v 0.09024061 0.02302725 0.01832806
v 0.09024163 0.02302679 0.3260582
v 0.05221597 0.02302709 0.3260583
v 0.05221493 0.02302692 0.01832819
v 0.05221493 0.02302692 0.01832819
v 0.05221597 0.02302709 0.3260583
v 0.0522151 -0.02386115 0.3260585
v 0.05221404 -0.02386073 0.01832774
v 0.05221403 0.02302713 -0.01969754
v 0.05221556 0.02302681 -0.3274271
v 0.09024123 0.02302714 -0.3274273
v 0.09023972 0.02302687 -0.01969702
v 0.09023972 0.02302687 -0.01969702
v 0.09024123 0.02302714 -0.3274273
v 0.09024032 -0.02386114 -0.3274277
v 0.09024136 -0.02386097 -0.01969759
v 0.09024136 -0.02386097 -0.01969759
v 0.09024032 -0.02386114 -0.3274277
v 0.05221467 -0.02386084 -0.3274276
v 0.05221569 -0.0238613 -0.01969747
v 0.05221569 -0.0238613 -0.01969747
v 0.05221467 -0.02386084 -0.3274276
v 0.05221556 0.02302681 -0.3274271
v 0.05221403 0.02302713 -0.01969754

vn -0.04808075 -0.03979932 0.9980502
vn -0.04808075 -0.03979932 0.9980502
vn -0.04808075 -0.03979931 0.9980502
vn -0.04808075 -0.03979932 0.9980502
vn -0.04808075 -0.03979932 0.9980502
vn -0.04808075 -0.03979931 0.9980502
vn -0.02618673 -0.9833754 -0.1796866
vn -0.02618674 -0.9833754 -0.1796866
vn -0.02618673 -0.9833754 -0.1796866
vn -0.02618674 -0.9833754 -0.1796866
vn -0.9556313 -0.2723958 -0.1121126
vn -0.9556313 -0.2723958 -0.1121126
vn -0.9556313 -0.2723958 -0.1121126
vn -0.9556313 -0.2723958 -0.1121126
vn -0.9581445 0.2858182 0.01634354
vn -0.9581445 0.2858183 0.01634353
vn -0.9581445 0.2858182 0.01634353
vn -0.9581445 0.2858183 0.01634354
vn 0.09410099 0.9665047 0.2387753
vn 0.09410097 0.9665047 0.2387753
vn 0.09410097 0.9665047 0.2387753
vn 0.09410099 0.9665047 0.2387753
vn 0.9345198 0.3307753 0.1313792
vn 0.9345198 0.3307753 0.1313792
vn 0.9345198 0.3307753 0.1313792
vn 0.9345198 0.3307753 0.1313792
vn 0.988252 -0.1512698 0.02180296
vn 0.988252 -0.1512698 0.02180296
vn 0.988252 -0.1512698 0.02180296
vn 0.988252 -0.1512699 0.02180295
vn 0.05154403 0.02188281 -0.9984309
vn 0.05154403 0.02188281 -0.9984309
vn 0.05154403 0.02188281 -0.9984309
vn 0.05154403 0.02188281 -0.9984309
vn 0.05154403 0.02188281 -0.9984309
vn 0.05154403 0.02188281 -0.9984309
vn 0.05154403 0.02188281 -0.9984309
vn 0.05154403 0.02188281 -0.9984309
vn 0.05154403 0.02188281 -0.9984309
vn 0.05154403 0.02188281 -0.9984309
vn 0.05154403 0.02188281 -0.9984309
vn 0.05154403 0.02188281 -0.9984309
vn 0.03391955 0.9967279 0.07336891
vn 0.03391955 0.9967279 0.07336891
vn 0.03391955 0.9967279 0.07336891
vn 0.03391955 0.9967279 0.07336891
vn 0.9595349 0.2729678 0.06914801
vn 0.9595349 0.2729678 0.06914801
vn 0.9595349 0.2729678 0.06914801
vn 0.9595349 0.2729678 0.06914801
vn 0.9574127 -0.2872844 0.02878588
vn 0.9574127 -0.2872844 0.02878588
vn 0.9574127 -0.2872844 0.02878588
vn 0.9574127 -0.2872844 0.02878588
vn -0.1048227 -0.9915326 -0.07665036
vn -0.1048227 -0.9915326 -0.07665036
vn -0.1048227 -0.9915326 -0.07665036
vn -0.1048227 -0.9915326 -0.07665036
vn -0.9401456 -0.3329802 -0.07245877
vn -0.9401457 -0.3329802 -0.07245877
vn -0.9401456 -0.3329802 -0.07245877
vn -0.9401456 -0.3329802 -0.07245877
vn -0.9876838 0.1512308 -0.04012371
vn -0.9876838 0.1512308 -0.04012371
vn -0.9876838 0.1512308 -0.04012371
vn -0.9876838 0.1512308 -0.04012371
vn 0.994879 0.08323401 0.05734081
vn 0.994879 0.08323401 0.05734081
vn 0.994879 0.08323401 0.05734081
vn 0.994879 0.08323401 0.05734081
vn 0.9985421 -0.0200694 0.05010785
vn 0.9985421 -0.0200694 0.05010785
vn 0.9985421 -0.0200694 0.05010785
vn 0.9985421 -0.0200694 0.05010785
vn 0.9986413 0.004739793 0.05189544
vn 0.9986413 0.004739795 0.05189544
vn 0.9986413 0.004739795 0.05189544
vn 0.9986413 0.004739793 0.05189544
vn 0.06182588 0.9952862 0.07472037
vn 0.06182588 0.9952862 0.07472037
vn 0.06182588 0.9952862 0.07472037
vn 0.06182588 0.9952862 0.07472037
vn -0.9986413 -0.004739795 -0.05189544
vn -0.9986413 -0.004739793 -0.05189544
vn -0.9986413 -0.004739793 -0.05189544
vn -0.9986413 -0.004739795 -0.05189544
vn -0.9985421 0.0200694 -0.05010785
vn -0.9985421 0.0200694 -0.05010785
vn -0.9985421 0.0200694 -0.05010785
vn -0.9985421 0.0200694 -0.05010785
vn -0.994879 -0.08323338 -0.05734076
vn -0.994879 -0.08323338 -0.05734076
vn -0.994879 -0.08323338 -0.05734076
vn -0.994879 -0.08323338 -0.05734076
vn -0.06182697 -0.9952875 -0.07470048
vn -0.06182697 -0.9952875 -0.07470048
vn -0.06182697 -0.9952875 -0.07470048
vn -0.06182697 -0.9952875 -0.07470048
vn 0.05154403 0.02188281 -0.9984309
vn 0.05154403 0.02188281 -0.9984309
vn 0.05154403 0.02188281 -0.9984309
vn 0.05154403 0.02188281 -0.9984309
vn 0.05154403 0.02188281 -0.9984309
vn 0.05154403 0.02188281 -0.9984309
vn 0.05154403 0.02188281 -0.9984309
vn 0.05154403 0.02188281 -0.9984309
vn -0.05154403 -0.02188281 0.9984309
vn -0.05154403 -0.02188281 0.9984309
vn -0.05154403 -0.02188281 0.9984309
vn -0.05154403 -0.02188281 0.9984309
vn -0.05154403 -0.02188281 0.9984309
vn -0.05154403 -0.02188281 0.9984309
vn -0.05154403 -0.02188281 0.9984309
vn -0.05154403 -0.02188281 0.9984309
vn -0.06182697 -0.9952875 -0.07470048
vn -0.06182697 -0.9952875 -0.07470048
vn -0.06182697 -0.9952875 -0.07470048
vn -0.06182697 -0.9952875 -0.07470048
vn 0.05154403 0.02188281 -0.9984309
vn 0.05154403 0.02188281 -0.9984309
vn 0.05154403 0.02188281 -0.9984309
vn 0.05154403 0.02188281 -0.9984309
vn 0.06182697 0.9952875 0.07470048
vn 0.06182697 0.9952875 0.07470048
vn 0.06182697 0.9952875 0.07470048
vn 0.06182697 0.9952875 0.07470048
vn -0.05154369 -0.02187752 0.9984311
vn -0.05154369 -0.02187752 0.9984311
vn -0.05154369 -0.02187752 0.9984311
vn -0.05154369 -0.02187752 0.9984311
vn 0.06182697 0.9952875 0.07470048
vn 0.06182697 0.9952875 0.07470048
vn 0.06182697 0.9952875 0.07470048
vn 0.06182697 0.9952875 0.07470048
vn 0.05154403 0.02188281 -0.9984309
vn 0.05154403 0.02188281 -0.9984309
vn 0.05154403 0.02188281 -0.9984309
vn 0.05154403 0.02188281 -0.9984309
vn -0.06182697 -0.9952875 -0.07470048
vn -0.06182697 -0.9952875 -0.07470048
vn -0.06182697 -0.9952875 -0.07470048
vn -0.06182697 -0.9952875 -0.07470048
vn -0.05154403 -0.02188281 0.9984309
vn -0.05154403 -0.02188281 0.9984309
vn -0.05154403 -0.02188281 0.9984309
vn -0.05154403 -0.02188281 0.9984309

vt 0.0859375 0
vt 0.3999023 0
vt 0.5371094 0.4909668
vt 0 0.5356445
vt 0.3818359 1
vt 0.1571045 0.9838867
vt 0.0859375 0
vt 0.0859375 0
vt 0.3999023 0
vt 0.3999023 0
vt 0.3999023 0
vt 0.3999023 0
vt 0.5371094 0.4909668
vt 0.5371094 0.4909668
vt 0.5371094 0.4909668
vt 0.5371094 0.4909668
vt 0.3818359 1
vt 0.3818359 1
vt 0.3818359 1
vt 0.3818359 1
vt 0.1571045 0.9838867
vt 0.1571045 0.9838867
vt 0.1571045 0.9838867
vt 0.1571045 0.9838867
vt 0 0.5356445
vt 0 0.5356445
vt 0 0.5356445
vt 0 0.5356445
vt 0.0859375 0
vt 0.0859375 0
vt 0.0859375 0
vt 0.0859375 0
vt 0.3999023 0
vt 0.3999023 0
vt 0.5371094 0.4909668
vt 0.5371094 0.4909668
vt 0.3818359 1
vt 0.3818359 1
vt 0.1571045 0.9838867
vt 0.1571045 0.9838867
vt 0 0.5356445
vt 0 0.5356445
vt 0.0859375 0
vt 0.0859375 0
vt 0.3999023 0
vt 0.3999023 0
vt 0.3999023 0
vt 0.3999023 0
vt 0.5371094 0.4909668
vt 0.5371094 0.4909668
vt 0.5371094 0.4909668
vt 0.5371094 0.4909668
vt 0.3818359 1
vt 0.3818359 1
vt 0.3818359 1
vt 0.3818359 1
vt 0.1571045 0.9838867
vt 0.1571045 0.9838867
vt 0.1571045 0.9838867
vt 0.1571045 0.9838867
vt 0 0.5356445
vt 0 0.5356445
vt 0 0.5356445
vt 0 0.5356445
vt 0.0859375 0
vt 0.0859375 0
vt 0.375 0
vt 0.375 0.08331299
vt 0.625 0.08331299
vt 0.625 0
vt 0.375 0.08331299
vt 0.375 0.166626
vt 0.625 0.166626
vt 0.625 0.08331299
vt 0.375 0.166626
vt 0.375 0.25
vt 0.625 0.25
vt 0.625 0.166626
vt 0.375 0.25
vt 0.375 0.5
vt 0.625 0.5
vt 0.625 0.25
vt 0.375 0.5
vt 0.375 0.5834961
vt 0.625 0.5834961
vt 0.625 0.5
vt 0.375 0.5834961
vt 0.375 0.6665039
vt 0.625 0.6665039
vt 0.625 0.5834961
vt 0.375 0.6665039
vt 0.375 0.75
vt 0.625 0.75
vt 0.625 0.6665039
vt 0.375 0.75
vt 0.375 1
vt 0.625 1
vt 0.625 0.75
vt 0.625 0
vt 0.625 0.08331299
vt 0.875 0.08331299
vt 0.875 0
vt 0.875 0.166626
vt 0.625 0.166626
vt 0.875 0.25
vt 0.625 0.25
vt 0.125 0
vt 0.125 0.08331299
vt 0.375 0.08331299
vt 0.375 0
vt 0.375 0.166626
vt 0.125 0.166626
vt 0.375 0.25
vt 0.125 0.25
vt 0.375 0.08331299
vt 0.375 0.08331299
vt 0.625 0.08331299
vt 0.625 0.08331299
vt 0.625 0.08331299
vt 0.625 0.08331299
vt 0.625 0.166626
vt 0.625 0.166626
vt 0.625 0.166626
vt 0.625 0.166626
vt 0.375 0.166626
vt 0.375 0.166626
vt 0.375 0.166626
vt 0.375 0.166626
vt 0.375 0.08331299
vt 0.375 0.08331299
vt 0.375 0.5834961
vt 0.375 0.5834961
vt 0.625 0.5834961
vt 0.625 0.5834961
vt 0.625 0.5834961
vt 0.625 0.5834961
vt 0.625 0.6665039
vt 0.625 0.6665039
vt 0.625 0.6665039
vt 0.625 0.6665039
vt 0.375 0.6665039
vt 0.375 0.6665039
vt 0.375 0.6665039
vt 0.375 0.6665039
vt 0.375 0.5834961
vt 0.375 0.5834961

g polySurface43_1757_118
usemtl polySurface43_1757_118
usemap polySurface43_1757_118
f 1/1/1 3/3/3 2/2/2
f 3/3/3 1/1/1 4/4/4
f 3/3/3 4/4/4 5/5/5
f 5/5/5 4/4/4 6/6/6
f 7/7/7 9/9/9 8/8/8
f 7/7/7 10/10/10 9/9/9
f 11/11/11 13/13/13 12/12/12
f 11/11/11 14/14/14 13/13/13
f 15/15/15 17/17/17 16/16/16
f 15/15/15 18/18/18 17/17/17
f 19/19/19 21/21/21 20/20/20
f 19/19/19 22/22/22 21/21/21
f 23/23/23 25/25/25 24/24/24
f 23/23/23 26/26/26 25/25/25
f 27/27/27 29/29/29 28/28/28
f 27/27/27 30/30/30 29/29/29
f 31/31/31 33/33/33 32/32/32
f 31/31/31 34/34/34 33/33/33
f 34/34/34 35/35/35 33/33/33
f 34/34/34 36/36/36 35/35/35
f 36/36/36 37/37/37 35/35/35
f 36/36/36 38/38/38 37/37/37
f 38/38/38 39/39/39 37/37/37
f 38/38/38 40/40/40 39/39/39
f 40/40/40 41/41/41 39/39/39
f 40/40/40 42/42/42 41/41/41
f 42/42/42 32/32/32 41/41/41
f 42/42/42 31/31/31 32/32/32
f 43/43/43 45/45/45 44/44/44
f 43/43/43 46/46/46 45/45/45
f 47/47/47 49/49/49 48/48/48
f 47/47/47 50/50/50 49/49/49
f 51/51/51 53/53/53 52/52/52
f 51/51/51 54/54/54 53/53/53
f 55/55/55 57/57/57 56/56/56
f 55/55/55 58/58/58 57/57/57
f 59/59/59 61/61/61 60/60/60
f 59/59/59 62/62/62 61/61/61
f 63/63/63 65/65/65 64/64/64
f 63/63/63 66/66/66 65/65/65
f 67/67/67 69/69/69 68/68/68
f 67/67/67 70/70/70 69/69/69
f 71/71/71 73/73/73 72/72/72
f 71/71/71 74/74/74 73/73/73
f 75/75/75 77/77/77 76/76/76
f 75/75/75 78/78/78 77/77/77
f 79/79/79 81/81/81 80/80/80
f 79/79/79 82/82/82 81/81/81
f 83/83/83 85/85/85 84/84/84
f 83/83/83 86/86/86 85/85/85
f 87/87/87 89/89/89 88/88/88
f 87/87/87 90/90/90 89/89/89
f 91/91/91 93/93/93 92/92/92
f 91/91/91 94/94/94 93/93/93
f 95/95/95 97/97/97 96/96/96
f 95/95/95 98/98/98 97/97/97
f 99/99/99 101/101/101 100/100/100
f 99/99/99 102/102/102 101/101/101
f 100/100/100 101/101/101 103/103/103
f 100/100/100 103/103/103 104/104/104
f 104/104/104 103/103/103 105/105/105
f 104/104/104 105/105/105 106/106/106
f 107/107/107 109/109/109 108/108/108
f 107/107/107 110/110/110 109/109/109
f 108/108/108 109/109/109 111/111/111
f 108/108/108 111/111/111 112/112/112
f 112/112/112 111/111/111 113/113/113
f 112/112/112 113/113/113 114/114/114
f 115/115/115 117/117/117 116/116/116
f 115/115/115 118/118/118 117/117/117
f 119/119/119 121/121/121 120/120/120
f 119/119/119 122/122/122 121/121/121
f 123/123/123 125/125/125 124/124/124
f 123/123/123 126/126/126 125/125/125
f 127/127/127 129/129/129 128/128/128
f 127/127/127 130/130/130 129/129/129
f 131/131/131 133/133/133 132/132/132
f 131/131/131 134/134/134 133/133/133
f 135/135/135 137/137/137 136/136/136
f 135/135/135 138/138/138 137/137/137
f 139/139/139 141/141/141 140/140/140
f 139/139/139 142/142/142 141/141/141
f 143/143/143 145/145/145 144/144/144
f 143/143/143 146/146/146 145/145/145
