#polySurface26_1979_99.obj

v 0.05396405 0.5837801 -0.1480718
v 0.05396357 0.5723445 0.1146443
v 0.05396329 0.05465556 0.3126704
v 0.05396393 -0.01538209 -0.312669
v 0.05396308 -0.5734923 0.2299414
v 0.05396422 -0.5837826 -0.1365164

vn -0.9876581 0 0.1566253
vn -0.9876581 0 0.1566253
vn -0.9876581 0 0.1566253
vn -0.9876581 0 0.1566253
vn -0.9876581 0 0.1566253
vn -0.9876581 0 0.1566253

vt 0.3818359 1
vt 0.1571045 0.9838867
vt 0 0.5356445
vt 0.5371094 0.4909668
vt 0.0859375 0
vt 0.3999023 0

g polySurface26_1979_99
usemtl polySurface26_1979_99
usemap polySurface26_1979_99
f 1/1/1 3/3/3 2/2/2
f 4/4/4 3/3/3 1/1/1
f 4/4/4 5/5/5 3/3/3
f 5/5/5 4/4/4 6/6/6
