#polySurface28_1667_148.obj

v 0.05396382 0.5837801 -0.1480716
v 0.05396344 0.5723445 0.1146457
v 0.05396328 0.05465556 0.3126705
v 0.05396407 -0.01538209 -0.3126684
v 0.0539631 -0.5734923 0.2299421
v 0.05396362 -0.5837826 -0.1365152

vn -0.9843222 0 -0.17638
vn -0.9843222 0 -0.17638
vn -0.9843222 0 -0.17638
vn -0.9843222 0 -0.17638
vn -0.9843222 0 -0.17638
vn -0.9843222 0 -0.17638

vt 0.3818359 1
vt 0.1571045 0.9838867
vt 0 0.5356445
vt 0.5371094 0.4909668
vt 0.0859375 0
vt 0.3999023 0

g polySurface28_1667_148
usemtl polySurface28_1667_148
usemap polySurface28_1667_148
f 1/1/1 3/3/3 2/2/2
f 4/4/4 3/3/3 1/1/1
f 4/4/4 5/5/5 3/3/3
f 5/5/5 4/4/4 6/6/6
