#polySurface18_1960_13.obj

v 0.05500063 -0.02538488 -0.5775958
v 0.03599765 -0.6017177 -0.5202711
v 0.106974 -0.5693845 0.6084124
v 0.05602513 0.03564704 0.6356153
v 0.07901221 0.5109645 -0.5385301
v 0.05236554 0.5649797 0.5985216

vn 0.9968233 0.07962959 -0.001528837
vn 0.9968233 0.07962959 -0.001528838
vn 0.9968233 0.07962959 -0.001528839
vn 0.9968233 0.07962959 -0.001528837
vn 0.9968233 0.07962959 -0.00152884
vn 0.9968233 0.07962959 -0.001528837

vt 0.5371094 0.4909668
vt 0.3999023 0
vt 0.0859375 0
vt 0 0.5356445
vt 0.3818359 1
vt 0.1571045 0.9838867

g polySurface18_1960_13
usemtl polySurface18_1960_13
usemap polySurface18_1960_13
f 1/1/1 3/3/3 2/2/2
f 3/3/3 1/1/1 4/4/4
f 4/4/4 1/1/1 5/5/5
f 4/4/4 5/5/5 6/6/6
