#polySurface29_1718_180.obj

v -0.06831063 -0.6395861 0.636559
v -0.1392874 -0.6731794 -0.5369825
v -0.1202841 -0.02726788 -0.6158723
v -0.11926 0.04233791 0.6738894
v -0.03038317 0.6476198 -0.6897703
v -0.1229193 0.635043 0.612554
v -0.06831063 -0.6395861 0.636559
v 0.1743299 -0.6395862 0.636559
v 0.1033532 -0.6731796 -0.5369825
v -0.1392874 -0.6731794 -0.5369825
v -0.1392874 -0.6731794 -0.5369825
v 0.1033532 -0.6731796 -0.5369825
v 0.1223565 -0.02726755 -0.6158724
v -0.1202841 -0.02726788 -0.6158723
v -0.1202841 -0.02726788 -0.6158723
v 0.1223565 -0.02726755 -0.6158724
v 0.1463676 0.582427 -0.5566579
v -0.03038317 0.6476198 -0.6897703
v -0.03038317 0.6476198 -0.6897703
v 0.1463676 0.582427 -0.5566579
v 0.1197212 0.6350424 0.612554
v -0.1229193 0.635043 0.612554
v -0.1229193 0.635043 0.612554
v 0.1197212 0.6350424 0.612554
v 0.1233806 0.04233824 0.6738894
v -0.11926 0.04233791 0.6738894
v -0.11926 0.04233791 0.6738894
v 0.1233806 0.04233824 0.6738894
v 0.1743299 -0.6395862 0.636559
v -0.06831063 -0.6395861 0.636559
v 0.1743299 -0.6395862 0.636559
v 0.1743294 -0.5693838 0.6084119
v 0.1033529 -0.6017171 -0.5202719
v 0.1033532 -0.6731796 -0.5369825
v 0.1033532 -0.6731796 -0.5369825
v 0.1033529 -0.6017171 -0.5202719
v 0.1223565 -0.02538471 -0.5775972
v 0.1223565 -0.02726755 -0.6158724
v 0.1223565 -0.02726755 -0.6158724
v 0.1223565 -0.02538471 -0.5775972
v 0.1463675 0.510965 -0.5385318
v 0.1463676 0.582427 -0.5566579
v 0.1463676 0.582427 -0.5566579
v 0.1463675 0.510965 -0.5385318
v 0.1197207 0.5649802 0.5985209
v 0.1197212 0.6350424 0.612554
v 0.1233811 0.03564736 0.635615
v 0.1233806 0.04233824 0.6738894
v 0.1233806 0.04233824 0.6738894
v 0.1233811 0.03564736 0.635615
v 0.1743294 -0.5693838 0.6084119
v 0.1743299 -0.6395862 0.636559
v 0.1743294 -0.5693838 0.6084119
v 0.1069735 -0.5693841 0.6084118
v 0.03599695 -0.6017174 -0.520272
v 0.1033529 -0.6017171 -0.5202719
v 0.1033529 -0.6017171 -0.5202719
v 0.03599695 -0.6017174 -0.520272
v 0.05499975 -0.02538493 -0.5775973
v 0.1223565 -0.02538471 -0.5775972
v 0.1223565 -0.02538471 -0.5775972
v 0.05499975 -0.02538493 -0.5775973
v 0.07901075 0.5109648 -0.5385311
v 0.1463675 0.510965 -0.5385318
v 0.1463675 0.510965 -0.5385318
v 0.07901075 0.5109648 -0.5385311
v 0.05236479 0.5649807 0.5985209
v 0.1197207 0.5649802 0.5985209
v 0.1197207 0.5649802 0.5985209
v 0.05236479 0.5649807 0.5985209
v 0.05602434 0.03564755 0.6356149
v 0.1233811 0.03564736 0.635615
v 0.1233811 0.03564736 0.635615
v 0.05602434 0.03564755 0.6356149
v 0.1069735 -0.5693841 0.6084118
v 0.1743294 -0.5693838 0.6084119
v 0.05221322 -0.6174175 0.08020717
v 0.05221312 -0.02386489 0.01832877
v 0.09023888 -0.02386495 0.01832857
v 0.09023898 -0.6174176 0.08020698
v 0.05427399 -0.04287332 0.6490032
v 0.05427435 0.004014027 0.6490039
v 0.09230011 0.004013974 0.6490037
v 0.09229968 -0.04287337 0.6490046
v 0.05221355 0.02302286 0.01832788
v 0.05316664 0.5770225 0.003526451
v 0.09119239 0.5770224 0.003526251
v 0.09023931 0.02302281 0.01832767
v 0.05316664 0.5770225 0.003526451
v 0.05316698 0.5770224 -0.03449879
v 0.09119274 0.5770224 -0.03449899
v 0.09119239 0.5770224 0.003526251
v 0.05316698 0.5770224 -0.03449879
v 0.05221307 0.02302285 -0.01969739
v 0.09023883 0.0230228 -0.01969759
v 0.09119274 0.5770224 -0.03449899
v 0.05324993 0.01302129 -0.5923551
v 0.05325034 -0.03386652 -0.592355
v 0.09127607 -0.03386657 -0.5923544
v 0.09127565 0.01302125 -0.5923545
v 0.05221352 -0.02386497 -0.01969811
v 0.05221356 -0.6174176 0.04218193
v 0.09023932 -0.6174176 0.04218173
v 0.09023928 -0.02386502 -0.01969831
v 0.05221356 -0.6174176 0.04218193
v 0.05221322 -0.6174175 0.08020717
v 0.09023898 -0.6174176 0.08020698
v 0.09023932 -0.6174176 0.04218173
v 0.09023898 -0.6174176 0.08020698
v 0.09023888 -0.02386495 0.01832857
v 0.09023928 -0.02386502 -0.01969831
v 0.09023932 -0.6174176 0.04218173
v 0.09023883 0.0230228 -0.01969759
v 0.09023931 0.02302281 0.01832767
v 0.09119274 0.5770224 -0.03449899
v 0.09119239 0.5770224 0.003526251
v 0.05221356 -0.6174176 0.04218193
v 0.05221352 -0.02386497 -0.01969811
v 0.05221312 -0.02386489 0.01832877
v 0.05221322 -0.6174175 0.08020717
v 0.05221355 0.02302286 0.01832788
v 0.05221307 0.02302285 -0.01969739
v 0.05316664 0.5770225 0.003526451
v 0.05316698 0.5770224 -0.03449879
v 0.05221312 -0.02386489 0.01832877
v 0.05427399 -0.04287332 0.6490032
v 0.09229968 -0.04287337 0.6490046
v 0.09023888 -0.02386495 0.01832857
v 0.09023888 -0.02386495 0.01832857
v 0.09229968 -0.04287337 0.6490046
v 0.09230011 0.004013974 0.6490037
v 0.09023931 0.02302281 0.01832767
v 0.09023931 0.02302281 0.01832767
v 0.09230011 0.004013974 0.6490037
v 0.05427435 0.004014027 0.6490039
v 0.05221355 0.02302286 0.01832788
v 0.05221355 0.02302286 0.01832788
v 0.05427435 0.004014027 0.6490039
v 0.05427399 -0.04287332 0.6490032
v 0.05221312 -0.02386489 0.01832877
v 0.05221307 0.02302285 -0.01969739
v 0.05324993 0.01302129 -0.5923551
v 0.09127565 0.01302125 -0.5923545
v 0.09023883 0.0230228 -0.01969759
v 0.09023883 0.0230228 -0.01969759
v 0.09127565 0.01302125 -0.5923545
v 0.09127607 -0.03386657 -0.5923544
v 0.09023928 -0.02386502 -0.01969831
v 0.09023928 -0.02386502 -0.01969831
v 0.09127607 -0.03386657 -0.5923544
v 0.05325034 -0.03386652 -0.592355
v 0.05221352 -0.02386497 -0.01969811
v 0.05221352 -0.02386497 -0.01969811
v 0.05325034 -0.03386652 -0.592355
v 0.05324993 0.01302129 -0.5923551
v 0.05221307 0.02302285 -0.01969739

vn -0.03214411 -0.0004645848 -0.9994831
vn -0.03214411 -0.0004645869 -0.9994831
vn -0.03214411 -0.0004645848 -0.9994831
vn -0.03214411 -0.0004645869 -0.9994831
vn -0.03214411 -0.0004645869 -0.9994831
vn -0.03214411 -0.0004645848 -0.9994831
vn -0.02356453 -0.9972803 0.06983268
vn -0.02356453 -0.9972803 0.06983268
vn -0.02356453 -0.9972803 0.06983268
vn -0.02356453 -0.9972803 0.06983268
vn 0.9923683 -0.1203476 -0.02686459
vn 0.9923683 -0.1203476 -0.02686459
vn 0.9923683 -0.1203476 -0.02686459
vn 0.9923683 -0.1203476 -0.02686459
vn 0.9637188 -0.03020184 0.2652052
vn 0.9637188 -0.03020184 0.2652053
vn 0.9637188 -0.03020184 0.2652053
vn 0.9637188 -0.03020184 0.2652052
vn 0.009114104 0.9960689 0.08811202
vn 0.009114103 0.9960689 0.088112
vn 0.009114104 0.9960689 0.08811202
vn 0.009114102 0.9960689 0.088112
vn -0.9943777 0.1020662 0.02820065
vn -0.9943777 0.1020662 0.02820065
vn -0.9943777 0.1020662 0.02820065
vn -0.9943777 0.1020662 0.02820065
vn -0.9976939 -0.05540062 0.03921263
vn -0.9976939 -0.05540062 0.03921263
vn -0.9976939 -0.05540062 0.03921263
vn -0.9976939 -0.05540062 0.03921263
vn 0.09675829 0.01613528 0.9951771
vn 0.09675829 0.01613528 0.9951771
vn 0.09675829 0.01613528 0.9951771
vn 0.09675829 0.01613528 0.9951771
vn -0.0005380728 -0.00599274 0.9999819
vn -0.0005380685 -0.005992735 0.9999819
vn -0.0005380685 -0.005992735 0.9999819
vn -0.0005380728 -0.00599274 0.9999819
vn 0.0820651 -0.01670088 0.996487
vn 0.0820651 -0.01670088 0.996487
vn 0.0820651 -0.01670088 0.996487
vn 0.08206509 -0.01670088 0.996487
vn 0.01235069 0.02173133 0.9996876
vn 0.01235069 0.02173133 0.9996876
vn 0.01235069 0.02173133 0.9996876
vn 0.01235069 0.02173133 0.9996876
vn 0.04389129 0.02687814 0.9986747
vn 0.04389129 0.02687814 0.9986747
vn -0.03711248 0.09638974 0.9946516
vn -0.03711249 0.09638974 0.9946516
vn -0.03711249 0.09638974 0.9946516
vn -0.03711248 0.09638974 0.9946516
vn 0.02358602 0.9972798 -0.06983342
vn 0.02358602 0.9972798 -0.06983342
vn 0.02358602 0.9972798 -0.06983342
vn 0.02358602 0.9972798 -0.06983342
vn -0.9947674 0.09811347 0.02848794
vn -0.9947674 0.09811348 0.02848794
vn -0.9947674 0.09811347 0.02848794
vn -0.9947674 0.09811348 0.02848794
vn -0.9964853 -0.07337481 0.04041331
vn -0.9964853 -0.07337482 0.04041331
vn -0.9964853 -0.07337481 0.04041331
vn -0.9964853 -0.07337482 0.04041331
vn -0.04236548 -0.996615 0.07045337
vn -0.04236548 -0.996615 0.07045337
vn -0.04236548 -0.996615 0.07045337
vn -0.04236548 -0.996615 0.07045337
vn 0.9971429 -0.06907149 -0.03058145
vn 0.9971429 -0.06907149 -0.03058145
vn 0.9971429 -0.06907149 -0.03058145
vn 0.9971429 -0.06907149 -0.03058145
vn 0.9982125 0.04566228 -0.03855726
vn 0.9982125 0.04566228 -0.03855726
vn 0.9982125 0.04566228 -0.03855726
vn 0.9982125 0.04566228 -0.03855726
vn -0.9943016 0.1028221 0.02814566
vn -0.9943016 0.1028221 0.02814566
vn -0.9943016 0.1028221 0.02814566
vn -0.9943016 0.1028221 0.02814566
vn -0.9993696 -0.0007767535 0.03549288
vn -0.9993696 -0.0007767535 0.03549288
vn -0.9993696 -0.0007767535 0.03549288
vn -0.9993696 -0.0007767535 0.03549288
vn -0.9990982 0.0259098 0.03363694
vn -0.9990982 0.0259098 0.03363694
vn -0.9990982 0.0259098 0.03363694
vn -0.9990982 0.0259098 0.03363694
vn -0.004986811 0.997615 -0.06884337
vn -0.004986811 0.997615 -0.06884337
vn -0.004986811 0.997615 -0.06884337
vn -0.004986811 0.997615 -0.06884337
vn 0.9990982 -0.0259098 -0.03363694
vn 0.9990982 -0.0259098 -0.03363694
vn 0.9990982 -0.0259098 -0.03363694
vn 0.9990982 -0.0259098 -0.03363694
vn 0.9993696 0.0007767535 -0.03549288
vn 0.9993696 0.0007767535 -0.03549288
vn 0.9993696 0.0007767535 -0.03549288
vn 0.9993696 0.0007767535 -0.03549288
vn 0.9943016 -0.1028221 -0.02814566
vn 0.9943016 -0.1028221 -0.02814566
vn 0.9943016 -0.1028221 -0.02814566
vn 0.9943016 -0.1028221 -0.02814566
vn 0.004986811 -0.997615 0.06884337
vn 0.004986811 -0.997615 0.06884337
vn 0.004986811 -0.997615 0.06884337
vn 0.004986811 -0.997615 0.06884337
vn 0.03543127 0.02108719 0.9991497
vn 0.03543127 0.02108719 0.9991497
vn 0.03543127 0.02108719 0.9991497
vn 0.03543127 0.02108719 0.9991497
vn 0.03543646 0.0194973 0.9991817
vn 0.03543645 0.01950151 0.9991816
vn 0.03543689 0.019365 0.9991843
vn 0.03543689 0.019365 0.9991843
vn -0.03543127 -0.02108719 -0.9991497
vn -0.03543127 -0.02108719 -0.9991497
vn -0.03543127 -0.02108719 -0.9991497
vn -0.03543127 -0.02108719 -0.9991497
vn -0.03543645 -0.01950151 -0.9991816
vn -0.03543646 -0.0194973 -0.9991817
vn -0.03543689 -0.019365 -0.9991843
vn -0.03543689 -0.019365 -0.9991843
vn 0.03504028 -0.9970874 0.06774113
vn 0.03504029 -0.9970874 0.06774113
vn 0.03504028 -0.9970874 0.06774113
vn 0.03504029 -0.9970874 0.06774113
vn 0.0386984 0.02108962 0.9990284
vn 0.0386984 0.02108962 0.9990284
vn 0.0386984 0.02108962 0.9990284
vn 0.0386984 0.02108962 0.9990284
vn -0.03503964 0.9970874 -0.06774116
vn -0.03503964 0.9970874 -0.06774116
vn -0.03503964 0.9970874 -0.06774116
vn -0.03503964 0.9970874 -0.06774116
vn -0.0386984 -0.02108962 -0.9990284
vn -0.0386984 -0.02108962 -0.9990284
vn -0.0386984 -0.02108962 -0.9990284
vn -0.0386984 -0.02108962 -0.9990284
vn 0.01243679 0.9975076 -0.06945381
vn 0.01243679 0.9975076 -0.06945381
vn 0.01243679 0.9975076 -0.06945381
vn 0.01243679 0.9975076 -0.06945381
vn 0.03362104 0.02108575 0.9992122
vn 0.03362104 0.02108575 0.9992122
vn 0.03362104 0.02108575 0.9992122
vn 0.03362104 0.02108575 0.9992122
vn -0.01243653 -0.9975077 0.0694538
vn -0.01243653 -0.9975077 0.0694538
vn -0.01243653 -0.9975077 0.0694538
vn -0.01243653 -0.9975077 0.0694538
vn -0.03362104 -0.02108575 -0.9992122
vn -0.03362104 -0.02108575 -0.9992122
vn -0.03362104 -0.02108575 -0.9992122
vn -0.03362104 -0.02108575 -0.9992122

vt 0.0859375 0
vt 0.3999023 0
vt 0.5371094 0.4909668
vt 0 0.5356445
vt 0.3818359 1
vt 0.1571045 0.9838867
vt 0.0859375 0
vt 0.0859375 0
vt 0.3999023 0
vt 0.3999023 0
vt 0.3999023 0
vt 0.3999023 0
vt 0.5371094 0.4909668
vt 0.5371094 0.4909668
vt 0.5371094 0.4909668
vt 0.5371094 0.4909668
vt 0.3818359 1
vt 0.3818359 1
vt 0.3818359 1
vt 0.3818359 1
vt 0.1571045 0.9838867
vt 0.1571045 0.9838867
vt 0.1571045 0.9838867
vt 0.1571045 0.9838867
vt 0 0.5356445
vt 0 0.5356445
vt 0 0.5356445
vt 0 0.5356445
vt 0.0859375 0
vt 0.0859375 0
vt 0.0859375 0
vt 0.0859375 0
vt 0.3999023 0
vt 0.3999023 0
vt 0.3999023 0
vt 0.3999023 0
vt 0.5371094 0.4909668
vt 0.5371094 0.4909668
vt 0.5371094 0.4909668
vt 0.5371094 0.4909668
vt 0.3818359 1
vt 0.3818359 1
vt 0.3818359 1
vt 0.3818359 1
vt 0.1571045 0.9838867
vt 0.1571045 0.9838867
vt 0 0.5356445
vt 0 0.5356445
vt 0 0.5356445
vt 0 0.5356445
vt 0.0859375 0
vt 0.0859375 0
vt 0.0859375 0
vt 0.0859375 0
vt 0.3999023 0
vt 0.3999023 0
vt 0.3999023 0
vt 0.3999023 0
vt 0.5371094 0.4909668
vt 0.5371094 0.4909668
vt 0.5371094 0.4909668
vt 0.5371094 0.4909668
vt 0.3818359 1
vt 0.3818359 1
vt 0.3818359 1
vt 0.3818359 1
vt 0.1571045 0.9838867
vt 0.1571045 0.9838867
vt 0.1571045 0.9838867
vt 0.1571045 0.9838867
vt 0 0.5356445
vt 0 0.5356445
vt 0 0.5356445
vt 0 0.5356445
vt 0.0859375 0
vt 0.0859375 0
vt 0.375 0
vt 0.375 0.08331299
vt 0.625 0.08331299
vt 0.625 0
vt 0.375 0.08331299
vt 0.375 0.166626
vt 0.625 0.166626
vt 0.625 0.08331299
vt 0.375 0.166626
vt 0.375 0.25
vt 0.625 0.25
vt 0.625 0.166626
vt 0.375 0.25
vt 0.375 0.5
vt 0.625 0.5
vt 0.625 0.25
vt 0.375 0.5
vt 0.375 0.5834961
vt 0.625 0.5834961
vt 0.625 0.5
vt 0.375 0.5834961
vt 0.375 0.6665039
vt 0.625 0.6665039
vt 0.625 0.5834961
vt 0.375 0.6665039
vt 0.375 0.75
vt 0.625 0.75
vt 0.625 0.6665039
vt 0.375 0.75
vt 0.375 1
vt 0.625 1
vt 0.625 0.75
vt 0.625 0
vt 0.625 0.08331299
vt 0.875 0.08331299
vt 0.875 0
vt 0.875 0.166626
vt 0.625 0.166626
vt 0.875 0.25
vt 0.625 0.25
vt 0.125 0
vt 0.125 0.08331299
vt 0.375 0.08331299
vt 0.375 0
vt 0.375 0.166626
vt 0.125 0.166626
vt 0.375 0.25
vt 0.125 0.25
vt 0.375 0.08331299
vt 0.375 0.08331299
vt 0.625 0.08331299
vt 0.625 0.08331299
vt 0.625 0.08331299
vt 0.625 0.08331299
vt 0.625 0.166626
vt 0.625 0.166626
vt 0.625 0.166626
vt 0.625 0.166626
vt 0.375 0.166626
vt 0.375 0.166626
vt 0.375 0.166626
vt 0.375 0.166626
vt 0.375 0.08331299
vt 0.375 0.08331299
vt 0.375 0.5834961
vt 0.375 0.5834961
vt 0.625 0.5834961
vt 0.625 0.5834961
vt 0.625 0.5834961
vt 0.625 0.5834961
vt 0.625 0.6665039
vt 0.625 0.6665039
vt 0.625 0.6665039
vt 0.625 0.6665039
vt 0.375 0.6665039
vt 0.375 0.6665039
vt 0.375 0.6665039
vt 0.375 0.6665039
vt 0.375 0.5834961
vt 0.375 0.5834961

g polySurface29_1718_180
usemtl polySurface29_1718_180
usemap polySurface29_1718_180
f 1/1/1 3/3/3 2/2/2
f 3/3/3 1/1/1 4/4/4
f 3/3/3 4/4/4 5/5/5
f 5/5/5 4/4/4 6/6/6
f 7/7/7 9/9/9 8/8/8
f 7/7/7 10/10/10 9/9/9
f 11/11/11 13/13/13 12/12/12
f 11/11/11 14/14/14 13/13/13
f 15/15/15 17/17/17 16/16/16
f 15/15/15 18/18/18 17/17/17
f 19/19/19 21/21/21 20/20/20
f 19/19/19 22/22/22 21/21/21
f 23/23/23 25/25/25 24/24/24
f 23/23/23 26/26/26 25/25/25
f 27/27/27 29/29/29 28/28/28
f 27/27/27 30/30/30 29/29/29
f 31/31/31 33/33/33 32/32/32
f 31/31/31 34/34/34 33/33/33
f 35/35/35 37/37/37 36/36/36
f 35/35/35 38/38/38 37/37/37
f 39/39/39 41/41/41 40/40/40
f 39/39/39 42/42/42 41/41/41
f 43/43/43 45/45/45 44/44/44
f 43/43/43 46/46/46 45/45/45
f 46/46/46 47/47/47 45/45/45
f 46/46/46 48/48/48 47/47/47
f 49/49/49 51/51/51 50/50/50
f 49/49/49 52/52/52 51/51/51
f 53/53/53 55/55/55 54/54/54
f 53/53/53 56/56/56 55/55/55
f 57/57/57 59/59/59 58/58/58
f 57/57/57 60/60/60 59/59/59
f 61/61/61 63/63/63 62/62/62
f 61/61/61 64/64/64 63/63/63
f 65/65/65 67/67/67 66/66/66
f 65/65/65 68/68/68 67/67/67
f 69/69/69 71/71/71 70/70/70
f 69/69/69 72/72/72 71/71/71
f 73/73/73 75/75/75 74/74/74
f 73/73/73 76/76/76 75/75/75
f 77/77/77 79/79/79 78/78/78
f 77/77/77 80/80/80 79/79/79
f 81/81/81 83/83/83 82/82/82
f 81/81/81 84/84/84 83/83/83
f 85/85/85 87/87/87 86/86/86
f 85/85/85 88/88/88 87/87/87
f 89/89/89 91/91/91 90/90/90
f 89/89/89 92/92/92 91/91/91
f 93/93/93 95/95/95 94/94/94
f 93/93/93 96/96/96 95/95/95
f 97/97/97 99/99/99 98/98/98
f 97/97/97 100/100/100 99/99/99
f 101/101/101 103/103/103 102/102/102
f 101/101/101 104/104/104 103/103/103
f 105/105/105 107/107/107 106/106/106
f 105/105/105 108/108/108 107/107/107
f 109/109/109 111/111/111 110/110/110
f 109/109/109 112/112/112 111/111/111
f 110/110/110 111/111/111 113/113/113
f 110/110/110 113/113/113 114/114/114
f 114/114/114 113/113/113 115/115/115
f 114/114/114 115/115/115 116/116/116
f 117/117/117 119/119/119 118/118/118
f 117/117/117 120/120/120 119/119/119
f 118/118/118 119/119/119 121/121/121
f 118/118/118 121/121/121 122/122/122
f 122/122/122 121/121/121 123/123/123
f 122/122/122 123/123/123 124/124/124
f 125/125/125 127/127/127 126/126/126
f 125/125/125 128/128/128 127/127/127
f 129/129/129 131/131/131 130/130/130
f 129/129/129 132/132/132 131/131/131
f 133/133/133 135/135/135 134/134/134
f 133/133/133 136/136/136 135/135/135
f 137/137/137 139/139/139 138/138/138
f 137/137/137 140/140/140 139/139/139
f 141/141/141 143/143/143 142/142/142
f 141/141/141 144/144/144 143/143/143
f 145/145/145 147/147/147 146/146/146
f 145/145/145 148/148/148 147/147/147
f 149/149/149 151/151/151 150/150/150
f 149/149/149 152/152/152 151/151/151
f 153/153/153 155/155/155 154/154/154
f 153/153/153 156/156/156 155/155/155
