#polySurface24_1703_119.obj

v 0.05396378 -0.01538209 -0.3126699
v 0.05396339 -0.5837826 -0.1365167
v 0.0539639 -0.5734923 0.229941
v 0.05396378 0.05465556 0.3126694
v 0.05396365 0.5837801 -0.1480727
v 0.05396331 0.5723445 0.1146446

vn 0.9876581 0 -0.1566253
vn 0.9876581 0 -0.1566253
vn 0.9876581 0 -0.1566253
vn 0.9876581 0 -0.1566253
vn 0.9876581 0 -0.1566253
vn 0.9876581 0 -0.1566253

vt 0.5371094 0.4909668
vt 0.3999023 0
vt 0.0859375 0
vt 0 0.5356445
vt 0.3818359 1
vt 0.1571045 0.9838867

g polySurface24_1703_119
usemtl polySurface24_1703_119
usemap polySurface24_1703_119
f 1/1/1 3/3/3 2/2/2
f 3/3/3 1/1/1 4/4/4
f 4/4/4 1/1/1 5/5/5
f 4/4/4 5/5/5 6/6/6
