#polySurface3_1800_124.obj

v -0.05944203 6.489899 -0.3291297
v -0.04451323 6.489899 -0.3407642
v -0.02444566 6.489899 -0.3354354
v -0.0186289 6.489899 -0.319913
v -0.05730715 6.489899 -0.3086711
v -0.02473478 6.489899 -0.3103242
v -0.04189353 6.489899 -0.3049936
v -0.08395564 5.875153 -0.4695697
v -0.2063964 5.875153 -0.3741615
v -0.3168408 5.337186 -0.4163497
v -0.05667441 5.337186 -0.6190774
v -0.2063964 5.875153 -0.3741615
v -0.1889053 5.875153 -0.2064015
v -0.2796748 5.337186 -0.0598868
v -0.3168408 5.337186 -0.4163497
v -0.1889053 5.875153 -0.2064015
v -0.06248859 5.875153 -0.1761883
v -0.01106105 5.337186 0.004309379
v -0.2796748 5.337186 -0.0598868
v -0.06248859 5.875153 -0.1761883
v 0.07823854 5.875153 -0.2199176
v 0.2879624 5.337186 -0.08860765
v -0.01106105 5.337186 0.004309379
v 0.07823854 5.875153 -0.2199176
v 0.1283281 5.875153 -0.2986299
v 0.3943934 5.337186 -0.2558571
v 0.2879624 5.337186 -0.08860765
v 0.1283281 5.875153 -0.2986299
v 0.08062436 5.875153 -0.4258409
v 0.293031 5.337186 -0.5261609
v 0.3943934 5.337186 -0.2558571
v 0.08062436 5.875153 -0.4258409
v -0.08395564 5.875153 -0.4695697
v -0.05667441 5.337186 -0.6190774
v 0.293031 5.337186 -0.5261609
v -0.3168408 5.337186 -0.4163497
v -0.5916428 4.861877 -0.4659321
v -0.1311391 4.861877 -0.8247675
v -0.05667441 5.337186 -0.6190774
v -0.2796748 5.337186 -0.0598868
v -0.525857 4.861877 0.1650189
v -0.5916428 4.861877 -0.4659321
v -0.3168408 5.337186 -0.4163497
v -0.01106105 5.337186 0.004309379
v -0.05040143 4.861877 0.2786512
v -0.525857 4.861877 0.1650189
v -0.2796748 5.337186 -0.0598868
v 0.2879624 5.337186 -0.08860765
v 0.4788805 4.861877 0.114184
v -0.05040143 4.861877 0.2786512
v -0.01106105 5.337186 0.004309379
v 0.3943934 5.337186 -0.2558571
v 0.6672669 4.861877 -0.1818539
v 0.4788805 4.861877 0.114184
v 0.2879624 5.337186 -0.08860765
v 0.293031 5.337186 -0.5261609
v 0.4878518 4.861877 -0.6603013
v 0.6672669 4.861877 -0.1818539
v 0.3943934 5.337186 -0.2558571
v -0.05667441 5.337186 -0.6190774
v -0.1311391 4.861877 -0.8247675
v 0.4878518 4.861877 -0.6603013
v 0.293031 5.337186 -0.5261609
v -0.5916428 4.861877 -0.4659321
v -0.7633193 4.52513 -0.5185356
v -0.1772189 4.52513 -0.9752398
v -0.1311391 4.861877 -0.8247675
v -0.525857 4.861877 0.1650189
v -0.6795911 4.52513 0.2844998
v -0.7633193 4.52513 -0.5185356
v -0.5916428 4.861877 -0.4659321
v -0.05040143 4.861877 0.2786512
v -0.07446015 4.52513 0.4291233
v -0.6795911 4.52513 0.2844998
v -0.525857 4.861877 0.1650189
v 0.4788805 4.861877 0.114184
v 0.599177 4.52513 0.2197993
v -0.07446015 4.52513 0.4291233
v -0.05040143 4.861877 0.2786512
v 0.6672669 4.861877 -0.1818539
v 0.8389434 4.52513 -0.1569794
v 0.599177 4.52513 0.2197993
v 0.4788805 4.861877 0.114184
v 0.4878518 4.861877 -0.6603013
v 0.610595 4.52513 -0.7659173
v 0.8389434 4.52513 -0.1569794
v 0.6672669 4.861877 -0.1818539
v -0.1311391 4.861877 -0.8247675
v -0.1772189 4.52513 -0.9752398
v 0.610595 4.52513 -0.7659173
v 0.4878518 4.861877 -0.6603013
v -0.7633193 4.52513 -0.5185356
v -0.9300251 4.233356 -0.5696165
v -0.2219642 4.233356 -1.121355
v -0.1772189 4.52513 -0.9752398
v -0.6795911 4.52513 0.2844998
v -0.8288739 4.233356 0.4005213
v -0.9300251 4.233356 -0.5696165
v -0.7633193 4.52513 -0.5185356
v -0.07446015 4.52513 0.4291233
v -0.09782282 4.233356 0.5752392
v -0.8288739 4.233356 0.4005213
v -0.6795911 4.52513 0.2844998
v 0.599177 4.52513 0.2197993
v 0.7159901 4.233356 0.3223575
v -0.09782282 4.233356 0.5752392
v -0.07446015 4.52513 0.4291233
v 0.8389434 4.52513 -0.1569794
v 1.00565 4.233356 -0.1328248
v 0.7159901 4.233356 0.3223575
v 0.599177 4.52513 0.2197993
v 0.610595 4.52513 -0.7659173
v 0.7297842 4.233356 -0.8684764
v 1.00565 4.233356 -0.1328248
v 0.8389434 4.52513 -0.1569794
v -0.1772189 4.52513 -0.9752398
v -0.2219642 4.233356 -1.121355
v 0.7297842 4.233356 -0.8684764
v 0.610595 4.52513 -0.7659173
v -0.9300251 4.233356 -0.5696165
v -1.115393 4.018426 -0.6264159
v -0.2717183 4.018426 -1.283827
v -0.2219642 4.233356 -1.121355
v -0.8288739 4.233356 0.4005213
v -0.9948682 4.018426 0.5295305
v -1.115393 4.018426 -0.6264159
v -0.9300251 4.233356 -0.5696165
v -0.09782282 4.233356 0.5752392
v -0.1238005 4.018426 0.7377114
v -0.9948682 4.018426 0.5295305
v -0.8288739 4.233356 0.4005213
v 0.7159901 4.233356 0.3223575
v 0.8458802 4.018426 0.436396
v -0.1238005 4.018426 0.7377114
v -0.09782282 4.233356 0.5752392
v 1.00565 4.233356 -0.1328248
v 1.191018 4.018426 -0.1059664
v 0.8458802 4.018426 0.436396
v 0.7159901 4.233356 0.3223575
v 0.7297842 4.233356 -0.8684764
v 0.8623161 4.018426 -0.9825149
v 1.191018 4.018426 -0.1059664
v 1.00565 4.233356 -0.1328248
v -0.2219642 4.233356 -1.121355
v -0.2717183 4.018426 -1.283827
v 0.8623161 4.018426 -0.9825149
v 0.7297842 4.233356 -0.8684764
v -1.115393 4.018426 -0.6264159
v -1.115393 3.945818 -0.6264159
v -0.2717183 3.945818 -1.283827
v -0.2717183 4.018426 -1.283827
v -0.9948682 4.018426 0.5295305
v -0.9948683 3.945818 0.529531
v -1.115393 3.945818 -0.6264159
v -1.115393 4.018426 -0.6264159
v -0.1238005 4.018426 0.7377114
v -0.1238005 3.945818 0.7377114
v -0.9948683 3.945818 0.529531
v -0.9948682 4.018426 0.5295305
v 0.8458802 4.018426 0.436396
v 0.8458799 3.945818 0.436396
v -0.1238005 3.945818 0.7377114
v -0.1238005 4.018426 0.7377114
v 1.191018 4.018426 -0.1059664
v 1.191017 3.945818 -0.1059664
v 0.8458799 3.945818 0.436396
v 0.8458802 4.018426 0.436396
v 0.8623161 4.018426 -0.9825149
v 0.8623161 3.945818 -0.9825149
v 1.191017 3.945818 -0.1059664
v 1.191018 4.018426 -0.1059664
v -0.2717183 4.018426 -1.283827
v -0.2717183 3.945818 -1.283827
v 0.8623161 3.945818 -0.9825149
v 0.8623161 4.018426 -0.9825149
v -1.115393 3.945818 -0.6264159
v -0.5708119 4.180418 -0.4595483
v -0.1255478 4.180418 -0.8065087
v -0.2717183 3.945818 -1.283827
v -0.9948683 3.945818 0.529531
v -0.5072027 4.180418 0.1505223
v -0.5708119 4.180418 -0.4595483
v -1.115393 3.945818 -0.6264159
v -0.1238005 3.945818 0.7377114
v -0.04748157 4.180418 0.2603931
v -0.5072027 4.180418 0.1505223
v -0.9948683 3.945818 0.529531
v 0.8458799 3.945818 0.436396
v 0.4642835 4.180418 0.1013686
v -0.04748157 4.180418 0.2603931
v -0.1238005 3.945818 0.7377114
v 1.191017 3.945818 -0.1059664
v 0.6464359 4.180418 -0.1848721
v 0.4642835 4.180418 0.1013686
v 0.8458799 3.945818 0.436396
v 0.8623161 3.945818 -0.9825149
v 0.4729584 4.180418 -0.6474864
v 0.6464359 4.180418 -0.1848721
v 1.191017 3.945818 -0.1059664
v -0.2717183 3.945818 -1.283827
v -0.1255478 4.180418 -0.8065087
v 0.4729584 4.180418 -0.6474864
v 0.8623161 3.945818 -0.9825149
v -0.08395564 5.875153 -0.4695697
v -0.04451323 6.489899 -0.3407642
v -0.05944203 6.489899 -0.3291297
v -0.2063964 5.875153 -0.3741615
v -0.2063964 5.875153 -0.3741615
v -0.05944203 6.489899 -0.3291297
v -0.05730715 6.489899 -0.3086711
v -0.1889053 5.875153 -0.2064015
v -0.1889053 5.875153 -0.2064015
v -0.05730715 6.489899 -0.3086711
v -0.04189353 6.489899 -0.3049936
v -0.06248859 5.875153 -0.1761883
v -0.06248859 5.875153 -0.1761883
v -0.04189353 6.489899 -0.3049936
v -0.02473478 6.489899 -0.3103242
v 0.07823854 5.875153 -0.2199176
v 0.07823854 5.875153 -0.2199176
v -0.02473478 6.489899 -0.3103242
v -0.0186289 6.489899 -0.319913
v 0.1283281 5.875153 -0.2986299
v 0.1283281 5.875153 -0.2986299
v -0.0186289 6.489899 -0.319913
v -0.02444566 6.489899 -0.3354354
v 0.08062436 5.875153 -0.4258409
v 0.08062436 5.875153 -0.4258409
v -0.02444566 6.489899 -0.3354354
v -0.04451323 6.489899 -0.3407642
v -0.08395564 5.875153 -0.4695697

vn -3.982351E-07 1 -8.142536E-06
vn -3.982351E-07 1 -8.142536E-06
vn -3.982352E-07 1 -8.142537E-06
vn -3.982351E-07 1 -8.142536E-06
vn -3.982351E-07 1 -8.142536E-06
vn -3.982351E-07 1 -8.142536E-06
vn -3.982351E-07 1 -8.142536E-06
vn -0.6648033 0.1947727 -0.7211797
vn -0.6648033 0.1947727 -0.7211797
vn -0.6648033 0.1947727 -0.7211797
vn -0.6648033 0.1947727 -0.7211797
vn -0.9704236 0.1948403 0.1425314
vn -0.9704236 0.1948403 0.1425314
vn -0.9704236 0.1948403 0.1425314
vn -0.9704236 0.1948403 0.1425314
vn -0.19052 0.3122874 0.9306872
vn -0.19052 0.3122874 0.9306872
vn -0.19052 0.3122874 0.9306872
vn -0.19052 0.3122874 0.9306872
vn 0.3388165 0.3519987 0.8725252
vn 0.3388166 0.3519987 0.8725252
vn 0.3388166 0.3519987 0.8725252
vn 0.3388165 0.3519987 0.8725252
vn 0.7984257 0.4287913 0.4226754
vn 0.7984257 0.4287914 0.4226753
vn 0.7984257 0.4287913 0.4226754
vn 0.7984256 0.4287913 0.4226753
vn 0.8468683 0.4059295 -0.3435624
vn 0.8468683 0.4059296 -0.3435625
vn 0.8468683 0.4059296 -0.3435625
vn 0.8468683 0.4059296 -0.3435625
vn 0.2168006 0.2909868 -0.9318391
vn 0.2168006 0.2909868 -0.9318391
vn 0.2168006 0.2909868 -0.9318391
vn 0.2168006 0.2909868 -0.9318391
vn -0.6152574 0.4195148 -0.667432
vn -0.6152574 0.4195148 -0.667432
vn -0.6152575 0.4195149 -0.667432
vn -0.6152574 0.4195148 -0.667432
vn -0.8589399 0.4962927 0.1261579
vn -0.8589399 0.4962927 0.1261579
vn -0.8589399 0.4962926 0.1261579
vn -0.8589399 0.4962927 0.1261579
vn -0.1698665 0.5315937 0.8297912
vn -0.1698665 0.5315937 0.8297912
vn -0.1698665 0.5315937 0.8297912
vn -0.1698665 0.5315937 0.8297912
vn 0.3147762 0.4937819 0.8106143
vn 0.3147762 0.4937819 0.8106143
vn 0.3147762 0.4937817 0.8106143
vn 0.3147762 0.4937817 0.8106143
vn 0.762491 0.5056397 0.403653
vn 0.7624911 0.5056397 0.4036531
vn 0.7624911 0.5056397 0.4036531
vn 0.7624911 0.5056397 0.403653
vn 0.8311793 0.4420848 -0.3371973
vn 0.8311793 0.4420848 -0.3371973
vn 0.8311793 0.4420848 -0.3371973
vn 0.8311793 0.4420848 -0.3371973
vn 0.2097964 0.377967 -0.9017352
vn 0.2097964 0.377967 -0.9017352
vn 0.2097964 0.377967 -0.9017352
vn 0.2097964 0.377967 -0.9017352
vn -0.615522 0.4186697 -0.6677188
vn -0.615522 0.4186697 -0.6677187
vn -0.615522 0.4186697 -0.6677187
vn -0.615522 0.4186697 -0.6677187
vn -0.8858737 0.4453067 0.1301137
vn -0.8858737 0.4453067 0.1301137
vn -0.8858737 0.4453067 0.1301137
vn -0.8858738 0.4453067 0.1301137
vn -0.1802536 0.4383771 0.8805307
vn -0.1802536 0.4383771 0.8805307
vn -0.1802536 0.4383771 0.8805307
vn -0.1802536 0.4383771 0.8805307
vn 0.3316649 0.4006246 0.8541068
vn 0.3316648 0.4006246 0.8541068
vn 0.3316648 0.4006246 0.8541068
vn 0.3316648 0.4006246 0.8541068
vn 0.7952749 0.4362233 0.4210073
vn 0.7952748 0.4362234 0.4210074
vn 0.7952749 0.4362233 0.4210073
vn 0.7952748 0.4362234 0.4210073
vn 0.8416121 0.4184681 -0.3414287
vn 0.841612 0.4184681 -0.3414286
vn 0.8416121 0.4184681 -0.3414287
vn 0.841612 0.4184682 -0.3414287
vn 0.2082926 0.3938341 -0.8952703
vn 0.2082926 0.3938341 -0.8952703
vn 0.2082926 0.3938341 -0.8952703
vn 0.2082926 0.3938341 -0.8952703
vn -0.60216 0.4590227 -0.6532239
vn -0.6021599 0.4590227 -0.6532239
vn -0.6021599 0.4590227 -0.6532239
vn -0.6021599 0.4590228 -0.6532239
vn -0.8642099 0.4868568 0.1269319
vn -0.8642099 0.4868567 0.1269319
vn -0.8642099 0.4868568 0.1269319
vn -0.8642099 0.4868568 0.1269319
vn -0.1759769 0.4796387 0.8596388
vn -0.1759768 0.4796387 0.8596388
vn -0.1759768 0.4796387 0.8596388
vn -0.1759769 0.4796387 0.8596388
vn 0.3250537 0.4400361 0.8370832
vn 0.3250538 0.4400361 0.8370833
vn 0.3250537 0.4400361 0.8370832
vn 0.3250538 0.4400361 0.8370833
vn 0.7765845 0.4773918 0.4111125
vn 0.7765844 0.4773918 0.4111126
vn 0.7765844 0.4773918 0.4111126
vn 0.7765845 0.4773918 0.4111126
vn 0.8233587 0.4588117 -0.3340242
vn 0.8233587 0.4588117 -0.3340243
vn 0.8233587 0.4588117 -0.3340243
vn 0.8233587 0.4588117 -0.3340243
vn 0.2042763 0.4328648 -0.8780086
vn 0.2042763 0.432865 -0.8780086
vn 0.2042763 0.432865 -0.8780086
vn 0.2042763 0.4328649 -0.8780086
vn -0.5344561 0.6149905 -0.5797786
vn -0.5344561 0.6149905 -0.5797787
vn -0.5344561 0.6149906 -0.5797787
vn -0.5344561 0.6149905 -0.5797787
vn -0.7570698 0.6438019 0.1111957
vn -0.7570698 0.6438019 0.1111957
vn -0.7570698 0.6438019 0.1111957
vn -0.7570698 0.6438019 0.1111957
vn -0.1546903 0.6364378 0.7556573
vn -0.1546903 0.6364378 0.7556573
vn -0.1546903 0.6364378 0.7556573
vn -0.1546903 0.6364378 0.7556573
vn 0.2910194 0.5946874 0.7494362
vn 0.2910194 0.5946874 0.7494362
vn 0.2910194 0.5946874 0.7494362
vn 0.2910194 0.5946874 0.7494362
vn 0.6833745 0.634131 0.3617695
vn 0.6833744 0.6341311 0.3617695
vn 0.6833745 0.6341311 0.3617695
vn 0.6833745 0.6341311 0.3617696
vn 0.7308558 0.6147677 -0.2964967
vn 0.7308558 0.6147678 -0.2964967
vn 0.7308559 0.6147678 -0.2964967
vn 0.7308558 0.6147678 -0.2964967
vn 0.1834767 0.586881 -0.7886108
vn 0.1834767 0.586881 -0.7886108
vn 0.1834767 0.586881 -0.7886108
vn 0.1834767 0.586881 -0.7886108
vn -0.6777834 0 -0.7352616
vn -0.6777834 0 -0.7352616
vn -0.6777834 0 -0.7352616
vn -0.6777834 0 -0.7352616
vn -0.9893851 0 0.1453172
vn -0.9893851 0 0.1453172
vn -0.9893851 0 0.1453172
vn -0.9893851 0 0.1453172
vn -0.200551 0 0.9796833
vn -0.200551 0 0.9796833
vn -0.200551 0 0.9796833
vn -0.200551 0 0.9796833
vn 0.3619829 0 0.9321848
vn 0.3619829 0 0.9321848
vn 0.3619829 0 0.9321848
vn 0.3619829 0 0.9321848
vn 0.8837969 0 0.4678708
vn 0.8837969 0 0.4678708
vn 0.8837969 0 0.4678707
vn 0.8837969 0 0.4678708
vn 0.9266487 0 -0.3759285
vn 0.9266487 0 -0.3759285
vn 0.9266487 0 -0.3759285
vn 0.9266487 0 -0.3759285
vn 0.226606 0 -0.9739864
vn 0.226606 0 -0.9739864
vn 0.226606 0 -0.9739864
vn 0.226606 0 -0.9739864
vn 0.2914975 -0.9027935 0.3162171
vn 0.2914975 -0.9027935 0.3162171
vn 0.2914975 -0.9027935 0.3162171
vn 0.2914975 -0.9027933 0.3162171
vn 0.3996705 -0.9147773 -0.05870204
vn 0.3996706 -0.9147773 -0.05870205
vn 0.3996705 -0.9147773 -0.05870204
vn 0.3996705 -0.9147773 -0.05870204
vn 0.08234194 -0.9118249 -0.4022377
vn 0.08234195 -0.9118249 -0.4022377
vn 0.08234194 -0.9118249 -0.4022377
vn 0.08234195 -0.9118249 -0.4022377
vn -0.1624742 -0.8936103 -0.418405
vn -0.1624742 -0.8936103 -0.418405
vn -0.1624742 -0.8936103 -0.418405
vn -0.1624742 -0.8936103 -0.418405
vn -0.3647084 -0.9108847 -0.1930722
vn -0.3647083 -0.9108847 -0.1930722
vn -0.3647084 -0.9108847 -0.1930722
vn -0.3647083 -0.9108847 -0.1930722
vn -0.3987173 -0.902696 0.1617538
vn -0.3987174 -0.902696 0.1617538
vn -0.3987174 -0.902696 0.1617538
vn -0.3987173 -0.902696 0.1617538
vn -0.1033659 -0.8899038 0.4442821
vn -0.1033659 -0.8899038 0.4442821
vn -0.1033659 -0.8899038 0.4442821
vn -0.1033659 -0.8899038 0.4442821
vn -0.6624857 0.211292 -0.7186573
vn -0.6624858 0.211292 -0.7186573
vn -0.6624858 0.211292 -0.7186573
vn -0.6624857 0.2112919 -0.7186574
vn -0.9635306 0.227109 0.1415285
vn -0.9635306 0.227109 0.1415285
vn -0.9635306 0.2271089 0.1415285
vn -0.9635306 0.2271089 0.1415285
vn -0.1954583 0.2229387 0.9550363
vn -0.1954584 0.2229387 0.9550363
vn -0.1954583 0.2229387 0.9550363
vn -0.1954583 0.2229387 0.9550363
vn 0.3545965 0.2008476 0.913193
vn 0.3545965 0.2008476 0.913193
vn 0.3545964 0.2008476 0.913193
vn 0.3545965 0.2008476 0.913193
vn 0.8617989 0.2216552 0.4562581
vn 0.8617989 0.2216552 0.4562581
vn 0.8617991 0.2216553 0.456258
vn 0.8617991 0.2216553 0.456258
vn 0.9057604 0.2111783 -0.3674261
vn 0.9057603 0.2111782 -0.3674262
vn 0.9057604 0.2111783 -0.3674262
vn 0.9057604 0.2111783 -0.3674262
vn 0.2221539 0.1969701 -0.9549086
vn 0.2221539 0.1969702 -0.9549086
vn 0.2221539 0.1969702 -0.9549086
vn 0.2221539 0.1969701 -0.9549086

vt 0.7431641 0
vt 0.2961426 0
vt 0 0.3903809
vt 0.1166992 0.7636719
vt 1 0.4118652
vt 0.3696289 0.8535156
vt 0.7666016 0.7041016
vt 0 0
vt 1 0
vt 1 1
vt 0 1
vt 0 0
vt 1 0
vt 1 1
vt 0 1
vt 0 0
vt 1 0
vt 1 1
vt 0 1
vt 0 0
vt 1 0
vt 1 1
vt 0 1
vt 0 0
vt 1 0
vt 1 1
vt 0 1
vt 0 0
vt 1 0
vt 1 1
vt 0 1
vt 0 0
vt 1 0
vt 1 1
vt 0 1
vt 0 0
vt 0 1
vt 1 1
vt 1 0
vt 0 0
vt 0 1
vt 1 1
vt 1 0
vt 0 0
vt 0 1
vt 1 1
vt 1 0
vt 0 0
vt 0 1
vt 1 1
vt 1 0
vt 0 0
vt 0 1
vt 1 1
vt 1 0
vt 0 0
vt 0 1
vt 1 1
vt 1 0
vt 0 0
vt 0 1
vt 1 1
vt 1 0
vt 0 0
vt 0 1
vt 1 1
vt 1 0
vt 0 0
vt 0 1
vt 1 1
vt 1 0
vt 0 0
vt 0 1
vt 1 1
vt 1 0
vt 0 0
vt 0 1
vt 1 1
vt 1 0
vt 0 0
vt 0 1
vt 1 1
vt 1 0
vt 0 0
vt 0 1
vt 1 1
vt 1 0
vt 0 0
vt 0 1
vt 1 1
vt 1 0
vt 0 0
vt 0 1
vt 1 1
vt 1 0
vt 0 0
vt 0 1
vt 1 1
vt 1 0
vt 0 0
vt 0 1
vt 1 1
vt 1 0
vt 0 0
vt 0 1
vt 1 1
vt 1 0
vt 0 0
vt 0 1
vt 1 1
vt 1 0
vt 0 0
vt 0 1
vt 1 1
vt 1 0
vt 0 0
vt 0 1
vt 1 1
vt 1 0
vt 0 0
vt 0 1
vt 1 1
vt 1 0
vt 0 0
vt 0 1
vt 1 1
vt 1 0
vt 0 0
vt 0 1
vt 1 1
vt 1 0
vt 0 0
vt 0 1
vt 1 1
vt 1 0
vt 0 0
vt 0 1
vt 1 1
vt 1 0
vt 0 0
vt 0 1
vt 1 1
vt 1 0
vt 0 0
vt 0 1
vt 1 1
vt 1 0
vt 0 0
vt 0 1
vt 1 1
vt 1 0
vt 0 0
vt 0 1
vt 1 1
vt 1 0
vt 0 0
vt 0 1
vt 1 1
vt 1 0
vt 0 0
vt 0 1
vt 1 1
vt 1 0
vt 0 0
vt 0 1
vt 1 1
vt 1 0
vt 0 0
vt 0 1
vt 1 1
vt 1 0
vt 0 0
vt 0 1
vt 1 1
vt 1 0
vt 0 0
vt 0 1
vt 1 1
vt 1 0
vt 0 0
vt 0 1
vt 1 1
vt 1 0
vt 0 0
vt 0 1
vt 1 1
vt 1 0
vt 0 0
vt 0 1
vt 1 1
vt 1 0
vt 0 0
vt 0 1
vt 1 1
vt 1 0
vt 0 0
vt 0 1
vt 1 1
vt 1 0
vt 0 0
vt 0 1
vt 1 1
vt 1 0
vt 0.2961426 0
vt 0.2961426 0
vt 0.7431641 0
vt 0.7431641 0
vt 0.7431641 0
vt 0.7431641 0
vt 1 0.4118652
vt 1 0.4118652
vt 1 0.4118652
vt 1 0.4118652
vt 0.7666016 0.7041016
vt 0.7666016 0.7041016
vt 0.7666016 0.7041016
vt 0.7666016 0.7041016
vt 0.3696289 0.8535156
vt 0.3696289 0.8535156
vt 0.3696289 0.8535156
vt 0.3696289 0.8535156
vt 0.1166992 0.7636719
vt 0.1166992 0.7636719
vt 0.1166992 0.7636719
vt 0.1166992 0.7636719
vt 0 0.3903809
vt 0 0.3903809
vt 0 0.3903809
vt 0 0.3903809
vt 0.2961426 0
vt 0.2961426 0

g polySurface3_1800_124
usemtl polySurface3_1800_124
usemap polySurface3_1800_124
f 1/1/1 3/3/3 2/2/2
f 3/3/3 1/1/1 4/4/4
f 4/4/4 1/1/1 5/5/5
f 4/4/4 5/5/5 6/6/6
f 6/6/6 5/5/5 7/7/7
f 8/8/8 10/10/10 9/9/9
f 8/8/8 11/11/11 10/10/10
f 12/12/12 14/14/14 13/13/13
f 12/12/12 15/15/15 14/14/14
f 16/16/16 18/18/18 17/17/17
f 16/16/16 19/19/19 18/18/18
f 20/20/20 22/22/22 21/21/21
f 20/20/20 23/23/23 22/22/22
f 24/24/24 26/26/26 25/25/25
f 24/24/24 27/27/27 26/26/26
f 28/28/28 30/30/30 29/29/29
f 28/28/28 31/31/31 30/30/30
f 32/32/32 34/34/34 33/33/33
f 32/32/32 35/35/35 34/34/34
f 36/36/36 38/38/38 37/37/37
f 36/36/36 39/39/39 38/38/38
f 40/40/40 42/42/42 41/41/41
f 40/40/40 43/43/43 42/42/42
f 44/44/44 46/46/46 45/45/45
f 44/44/44 47/47/47 46/46/46
f 48/48/48 50/50/50 49/49/49
f 48/48/48 51/51/51 50/50/50
f 52/52/52 54/54/54 53/53/53
f 52/52/52 55/55/55 54/54/54
f 56/56/56 58/58/58 57/57/57
f 56/56/56 59/59/59 58/58/58
f 60/60/60 62/62/62 61/61/61
f 60/60/60 63/63/63 62/62/62
f 64/64/64 66/66/66 65/65/65
f 64/64/64 67/67/67 66/66/66
f 68/68/68 70/70/70 69/69/69
f 68/68/68 71/71/71 70/70/70
f 72/72/72 74/74/74 73/73/73
f 72/72/72 75/75/75 74/74/74
f 76/76/76 78/78/78 77/77/77
f 76/76/76 79/79/79 78/78/78
f 80/80/80 82/82/82 81/81/81
f 80/80/80 83/83/83 82/82/82
f 84/84/84 86/86/86 85/85/85
f 84/84/84 87/87/87 86/86/86
f 88/88/88 90/90/90 89/89/89
f 88/88/88 91/91/91 90/90/90
f 92/92/92 94/94/94 93/93/93
f 92/92/92 95/95/95 94/94/94
f 96/96/96 98/98/98 97/97/97
f 96/96/96 99/99/99 98/98/98
f 100/100/100 102/102/102 101/101/101
f 100/100/100 103/103/103 102/102/102
f 104/104/104 106/106/106 105/105/105
f 104/104/104 107/107/107 106/106/106
f 108/108/108 110/110/110 109/109/109
f 108/108/108 111/111/111 110/110/110
f 112/112/112 114/114/114 113/113/113
f 112/112/112 115/115/115 114/114/114
f 116/116/116 118/118/118 117/117/117
f 116/116/116 119/119/119 118/118/118
f 120/120/120 122/122/122 121/121/121
f 120/120/120 123/123/123 122/122/122
f 124/124/124 126/126/126 125/125/125
f 124/124/124 127/127/127 126/126/126
f 128/128/128 130/130/130 129/129/129
f 128/128/128 131/131/131 130/130/130
f 132/132/132 134/134/134 133/133/133
f 132/132/132 135/135/135 134/134/134
f 136/136/136 138/138/138 137/137/137
f 136/136/136 139/139/139 138/138/138
f 140/140/140 142/142/142 141/141/141
f 140/140/140 143/143/143 142/142/142
f 144/144/144 146/146/146 145/145/145
f 144/144/144 147/147/147 146/146/146
f 148/148/148 150/150/150 149/149/149
f 148/148/148 151/151/151 150/150/150
f 152/152/152 154/154/154 153/153/153
f 152/152/152 155/155/155 154/154/154
f 156/156/156 158/158/158 157/157/157
f 156/156/156 159/159/159 158/158/158
f 160/160/160 162/162/162 161/161/161
f 160/160/160 163/163/163 162/162/162
f 164/164/164 166/166/166 165/165/165
f 164/164/164 167/167/167 166/166/166
f 168/168/168 170/170/170 169/169/169
f 168/168/168 171/171/171 170/170/170
f 172/172/172 174/174/174 173/173/173
f 172/172/172 175/175/175 174/174/174
f 176/176/176 178/178/178 177/177/177
f 176/176/176 179/179/179 178/178/178
f 180/180/180 182/182/182 181/181/181
f 180/180/180 183/183/183 182/182/182
f 184/184/184 186/186/186 185/185/185
f 184/184/184 187/187/187 186/186/186
f 188/188/188 190/190/190 189/189/189
f 188/188/188 191/191/191 190/190/190
f 192/192/192 194/194/194 193/193/193
f 192/192/192 195/195/195 194/194/194
f 196/196/196 198/198/198 197/197/197
f 196/196/196 199/199/199 198/198/198
f 200/200/200 202/202/202 201/201/201
f 200/200/200 203/203/203 202/202/202
f 204/204/204 206/206/206 205/205/205
f 204/204/204 207/207/207 206/206/206
f 208/208/208 210/210/210 209/209/209
f 208/208/208 211/211/211 210/210/210
f 212/212/212 214/214/214 213/213/213
f 212/212/212 215/215/215 214/214/214
f 216/216/216 218/218/218 217/217/217
f 216/216/216 219/219/219 218/218/218
f 220/220/220 222/222/222 221/221/221
f 220/220/220 223/223/223 222/222/222
f 224/224/224 226/226/226 225/225/225
f 224/224/224 227/227/227 226/226/226
f 228/228/228 230/230/230 229/229/229
f 228/228/228 231/231/231 230/230/230
