#polySurface199_2053_211.obj

v 1.257728 0.2614436 -1.256781
v 2.986934 0.2614436 -1.317948
v 3.189807 0.2614436 -0.2372137
v -0.9781935 0.2614436 -1.232408
v -2.578413 0.2614436 -0.9565558
v -3.252172 0.2614436 -0.2328348
v 1.633381 0.2614436 0.2847772
v -3.057035 0.2614436 0.8495047
v -0.4199621 0.2614436 0.8922813
v -2.100769 0.2614436 1.133425
v 5.050918 -2.101625E-07 -0.2272955
v 4.73279 -2.101625E-07 -1.922112
v 2.021185 -2.101625E-07 -1.826241
v -1.485027 -2.101625E-07 -1.787957
v -3.994373 -2.101625E-07 -1.355377
v -5.050915 -2.101625E-07 -0.2206064
v 2.61026 -2.101625E-07 0.5912774
v -4.744905 -2.101625E-07 1.476708
v -0.6096488 -2.101625E-07 1.543798
v -3.245368 -2.101625E-07 1.922094
v -4.744905 -2.101625E-07 1.476708
v -5.050915 -2.101625E-07 -0.2206064
v -4.167756 0.1219276 -0.2266124
v -3.916185 0.1219276 1.168731
v -3.252172 0.2614436 -0.2328348
v -3.057035 0.2614436 0.8495047
v -5.050915 -2.101625E-07 -0.2206064
v -3.994373 -2.101625E-07 -1.355377
v -3.29916 0.1219276 -1.159547
v -4.167756 0.1219276 -0.2266124
v -2.578413 0.2614436 -0.9565558
v -3.252172 0.2614436 -0.2328348
v -3.994373 -2.101625E-07 -1.355377
v -1.485027 -2.101625E-07 -1.787957
v -1.236179 0.1219276 -1.515157
v -3.29916 0.1219276 -1.159547
v -0.9781935 0.2614436 -1.232408
v -2.578413 0.2614436 -0.9565558
v -1.485027 -2.101625E-07 -1.787957
v 2.021185 -2.101625E-07 -1.826241
v 1.646337 0.1219276 -1.546645
v -1.236179 0.1219276 -1.515157
v 3.8756 0.1219276 -1.625499
v 4.73279 -2.101625E-07 -1.922112
v 1.257728 0.2614436 -1.256781
v -0.9781935 0.2614436 -1.232408
v 1.646337 0.1219276 -1.546645
v 2.986934 0.2614436 -1.317948
v 4.73279 -2.101625E-07 -1.922112
v 5.050918 -2.101625E-07 -0.2272955
v 4.137133 0.1219276 -0.2321601
v 3.8756 0.1219276 -1.625499
v 3.189807 0.2614436 -0.2372137
v 2.986934 0.2614436 -1.317948
v 5.050918 -2.101625E-07 -0.2272955
v 2.61026 -2.101625E-07 0.5912774
v 2.130625 0.1219276 0.4408013
v 4.137133 0.1219276 -0.2321601
v -0.5165157 0.1219276 1.22387
v -0.6096488 -2.101625E-07 1.543798
v 1.633381 0.2614436 0.2847772
v 3.189807 0.2614436 -0.2372137
v 2.130625 0.1219276 0.4408013
v -0.4199621 0.2614436 0.8922813
v -0.6096488 -2.101625E-07 1.543798
v -3.245368 -2.101625E-07 1.922094
v -2.683384 0.1219276 1.534868
v -0.5165157 0.1219276 1.22387
v -2.100769 0.2614436 1.133425
v -0.4199621 0.2614436 0.8922813
v -3.245368 -2.101625E-07 1.922094
v -4.744905 -2.101625E-07 1.476708
v -3.916185 0.1219276 1.168731
v -2.683384 0.1219276 1.534868
v -3.057035 0.2614436 0.8495047
v -2.100769 0.2614436 1.133425

vn 0 1 0
vn 0 1 0
vn 0 1 0
vn 0 1 0
vn 0 1 0
vn 0 1 0
vn 0 1 0
vn 0 1 0
vn 0 1 0
vn 0 1 0
vn 0 -1 0
vn 0 -1 0
vn 0 -1 0
vn 0 -1 0
vn 0 -1 0
vn 0 -1 0
vn 0 -1 0
vn 0 -1 0
vn 0 -1 0
vn 0 -1 0
vn -0.138748 0.9903265 0.001571642
vn -0.138748 0.9903265 0.00157164
vn -0.138748 0.9903265 0.001571644
vn -0.138748 0.9903265 0.001571642
vn -0.1528207 0.9882524 0.001731111
vn -0.1528206 0.9882524 0.001731114
vn -0.1134708 0.9824535 -0.1480185
vn -0.1134708 0.9824535 -0.1480185
vn -0.1134708 0.9824535 -0.1480185
vn -0.1134708 0.9824535 -0.1480185
vn -0.1247704 0.9787464 -0.1627512
vn -0.1247704 0.9787464 -0.1627512
vn -0.001333486 0.9310452 -0.3649013
vn -0.001333486 0.9310452 -0.3649013
vn -0.00133349 0.9310452 -0.3649013
vn -0.00133349 0.9310452 -0.3649012
vn -0.001450911 0.9177851 -0.3970748
vn -0.001450911 0.9177851 -0.3970748
vn 0.0629309 0.9144433 -0.3997913
vn 0.0629309 0.9144433 -0.3997913
vn 0.0629309 0.9144433 -0.3997913
vn 0.0629309 0.9144433 -0.3997913
vn 0.05469353 0.9091415 -0.4128807
vn 0.05469353 0.9091415 -0.4128806
vn 0.0682596 0.8985074 -0.4336187
vn 0.06825961 0.8985074 -0.4336188
vn 0.05924799 0.8924211 -0.4472966
vn 0.059248 0.8924211 -0.4472967
vn 0.1346372 0.9908918 -0.002490511
vn 0.1346372 0.9908918 -0.002490511
vn 0.1346372 0.9908918 -0.002490507
vn 0.1346372 0.9908918 -0.002490507
vn 0.1483099 0.9889371 -0.002744133
vn 0.1483098 0.9889371 -0.002744136
vn 0.05952346 0.9242554 0.3771059
vn 0.05952346 0.9242554 0.377106
vn 0.05952346 0.9242554 0.3771059
vn 0.05952346 0.9242554 0.377106
vn 0.04796758 0.9170316 0.3959193
vn 0.04796758 0.9170316 0.3959193
vn 0.0646734 0.9099041 0.4097461
vn 0.06467339 0.9099041 0.4097461
vn 0.05205808 0.9015033 0.4296298
vn 0.05205809 0.9015033 0.4296298
vn -0.00913246 0.9278997 0.3727179
vn -0.009132456 0.9278998 0.3727179
vn -0.009132456 0.9278997 0.3727179
vn -0.009132449 0.9278998 0.3727179
vn -0.009940621 0.9141237 0.4053136
vn -0.009940628 0.9141237 0.4053137
vn -0.09846808 0.9746538 0.2008828
vn -0.09846808 0.9746538 0.2008828
vn -0.09846809 0.9746538 0.2008828
vn -0.09846809 0.9746538 0.2008828
vn -0.1080937 0.9693686 0.2205451
vn -0.1080937 0.9693686 0.2205451

vt 0.2866211 0.7285156
vt 0.2476807 0.9985352
vt 0.07427979 1
vt 0.345459 0.3808594
vt 0.3474121 0.1248169
vt 0.2539063 0
vt 0.03683472 0.7436523
vt 0.08044434 0
vt 0 0.4082031
vt 0.009590149 0.1405029
vt 0.07427979 1
vt 0.2476807 0.9985352
vt 0.2866211 0.7285156
vt 0.345459 0.3808594
vt 0.3474121 0.1248169
vt 0.2539063 0
vt 0.03683472 0.7436523
vt 0.08044434 0
vt 0 0.4082031
vt 0.009590149 0.1405029
vt 0.08044434 0
vt 0.2539063 0
vt 0.2539063 0
vt 0.08044434 0
vt 0.2539063 0
vt 0.08044434 0
vt 0.2539063 0
vt 0.3474121 0.1248169
vt 0.3474121 0.1248169
vt 0.2539063 0
vt 0.3474121 0.1248169
vt 0.2539063 0
vt 0.3474121 0.1248169
vt 0.345459 0.3808594
vt 0.345459 0.3808594
vt 0.3474121 0.1248169
vt 0.345459 0.3808594
vt 0.3474121 0.1248169
vt 0.345459 0.3808594
vt 0.2866211 0.7285156
vt 0.2866211 0.7285156
vt 0.345459 0.3808594
vt 0.2476807 0.9985352
vt 0.2476807 0.9985352
vt 0.2866211 0.7285156
vt 0.345459 0.3808594
vt 0.2866211 0.7285156
vt 0.2476807 0.9985352
vt 0.2476807 0.9985352
vt 0.07427979 1
vt 0.07427979 1
vt 0.2476807 0.9985352
vt 0.07427979 1
vt 0.2476807 0.9985352
vt 0.07427979 1
vt 0.03683472 0.7436523
vt 0.03683472 0.7436523
vt 0.07427979 1
vt 0 0.4082031
vt 0 0.4082031
vt 0.03683472 0.7436523
vt 0.07427979 1
vt 0.03683472 0.7436523
vt 0 0.4082031
vt 0 0.4082031
vt 0.009590149 0.1405029
vt 0.009590149 0.1405029
vt 0 0.4082031
vt 0.009590149 0.1405029
vt 0 0.4082031
vt 0.009590149 0.1405029
vt 0.08044434 0
vt 0.08044434 0
vt 0.009590149 0.1405029
vt 0.08044434 0
vt 0.009590149 0.1405029

g polySurface199_2053_211
usemtl polySurface199_2053_211
usemap polySurface199_2053_211
f 1/1/1 3/3/3 2/2/2
f 3/3/3 1/1/1 4/4/4
f 3/3/3 4/4/4 5/5/5
f 3/3/3 5/5/5 6/6/6
f 3/3/3 6/6/6 7/7/7
f 7/7/7 6/6/6 8/8/8
f 7/7/7 8/8/8 9/9/9
f 9/9/9 8/8/8 10/10/10
f 11/11/11 13/13/13 12/12/12
f 13/13/13 11/11/11 14/14/14
f 14/14/14 11/11/11 15/15/15
f 15/15/15 11/11/11 16/16/16
f 16/16/16 11/11/11 17/17/17
f 16/16/16 17/17/17 18/18/18
f 18/18/18 17/17/17 19/19/19
f 18/18/18 19/19/19 20/20/20
f 21/21/21 23/23/23 22/22/22
f 21/21/21 24/24/24 23/23/23
f 24/24/24 25/25/25 23/23/23
f 24/24/24 26/26/26 25/25/25
f 27/27/27 29/29/29 28/28/28
f 27/27/27 30/30/30 29/29/29
f 30/30/30 31/31/31 29/29/29
f 30/30/30 32/32/32 31/31/31
f 33/33/33 35/35/35 34/34/34
f 33/33/33 36/36/36 35/35/35
f 36/36/36 37/37/37 35/35/35
f 36/36/36 38/38/38 37/37/37
f 39/39/39 41/41/41 40/40/40
f 39/39/39 42/42/42 41/41/41
f 40/40/40 41/41/41 43/43/43
f 40/40/40 43/43/43 44/44/44
f 42/42/42 45/45/45 41/41/41
f 42/42/42 46/46/46 45/45/45
f 47/47/47 48/48/48 43/43/43
f 47/47/47 45/45/45 48/48/48
f 49/49/49 51/51/51 50/50/50
f 49/49/49 52/52/52 51/51/51
f 52/52/52 53/53/53 51/51/51
f 52/52/52 54/54/54 53/53/53
f 55/55/55 57/57/57 56/56/56
f 55/55/55 58/58/58 57/57/57
f 56/56/56 57/57/57 59/59/59
f 56/56/56 59/59/59 60/60/60
f 58/58/58 61/61/61 57/57/57
f 58/58/58 62/62/62 61/61/61
f 63/63/63 64/64/64 59/59/59
f 63/63/63 61/61/61 64/64/64
f 65/65/65 67/67/67 66/66/66
f 65/65/65 68/68/68 67/67/67
f 68/68/68 69/69/69 67/67/67
f 68/68/68 70/70/70 69/69/69
f 71/71/71 73/73/73 72/72/72
f 71/71/71 74/74/74 73/73/73
f 74/74/74 75/75/75 73/73/73
f 74/74/74 76/76/76 75/75/75
