#polySurface12_1982_103.obj

v 0.05396366 -0.01537826 -0.3126694
v 0.05396327 -0.5837787 -0.1365159
v 0.05396321 -0.5734885 0.2299415
v 0.05396366 0.0546594 0.3126697
v 0.05396368 0.5837839 -0.1480719
v 0.05396328 0.5723483 0.1146443

vn 0.9988061 0 -0.04884961
vn 0.9988061 0 -0.04884961
vn 0.9988061 0 -0.04884961
vn 0.9988061 0 -0.04884961
vn 0.9988061 0 -0.04884961
vn 0.9988061 0 -0.04884961

vt 0.5371094 0.4909668
vt 0.3999023 0
vt 0.0859375 0
vt 0 0.5356445
vt 0.3818359 1
vt 0.1571045 0.9838867

g polySurface12_1982_103
usemtl polySurface12_1982_103
usemap polySurface12_1982_103
f 1/1/1 3/3/3 2/2/2
f 3/3/3 1/1/1 4/4/4
f 4/4/4 1/1/1 5/5/5
f 4/4/4 5/5/5 6/6/6
