#polySurface34_2055_124.obj

v 0.05500074 -0.02538157 -0.5775983
v 0.03599715 -0.6017142 -0.5202735
v 0.1069738 -0.5693811 0.6084099
v 0.05602483 0.03565045 0.6356128
v 0.07901181 0.5109679 -0.5385325
v 0.05236527 0.5649835 0.5985192

vn 0.9968233 0.07962959 -0.001528837
vn 0.9968233 0.07962959 -0.001528838
vn 0.9968233 0.07962959 -0.001528839
vn 0.9968233 0.07962959 -0.001528837
vn 0.9968233 0.07962959 -0.00152884
vn 0.9968233 0.07962959 -0.001528837

vt 0.5371094 0.4909668
vt 0.3999023 0
vt 0.0859375 0
vt 0 0.5356445
vt 0.3818359 1
vt 0.1571045 0.9838867

g polySurface34_2055_124
usemtl polySurface34_2055_124
usemap polySurface34_2055_124
f 1/1/1 3/3/3 2/2/2
f 3/3/3 1/1/1 4/4/4
f 4/4/4 1/1/1 5/5/5
f 4/4/4 5/5/5 6/6/6
