#polySurface24_1703_122.obj

v 0.09885823 0.8359502 -0.2300812
v -1.094482 0.8359502 -0.2300811
v -1.094482 -0.01915378 -0.4858392
v 0.0988581 -0.01915378 -0.4858394
v 0.09885853 0.8196305 0.1781386
v -1.094481 0.8196305 0.1781381
v -1.094482 0.8359502 -0.2300811
v 0.09885823 0.8359502 -0.2300812
v 0.09885799 0.08080229 0.4858388
v -1.094482 0.08080229 0.4858389
v -1.094481 0.8196305 0.1781381
v 0.09885853 0.8196305 0.1781386
v 0.03217379 0.7247729 -0.1877067
v 0.09885823 0.8359502 -0.2300812
v 0.0988581 -0.01915378 -0.4858394
v 0.03217378 -0.03476403 -0.3963611
v 0.03217378 -0.03476403 -0.3963611
v 0.0988581 -0.01915378 -0.4858394
v -1.094482 -0.01915378 -0.4858392
v -1.027797 -0.03476403 -0.396361
v -1.027797 -0.03476403 -0.396361
v -1.094482 -0.01915378 -0.4858392
v -1.094482 0.8359502 -0.2300811
v -1.027797 0.7247729 -0.1877066
v 0.03217386 0.710277 0.1453304
v 0.09885853 0.8196305 0.1781386
v 0.09885823 0.8359502 -0.2300812
v 0.03217379 0.7247729 -0.1877067
v -1.027797 0.7247729 -0.1877066
v -1.094482 0.8359502 -0.2300811
v -1.094481 0.8196305 0.1781381
v -1.027797 0.710277 0.1453305
v 0.032174 0.05402103 0.3963606
v 0.09885799 0.08080229 0.4858388
v 0.09885853 0.8196305 0.1781386
v 0.03217386 0.710277 0.1453304
v -1.027797 0.710277 0.1453305
v -1.094481 0.8196305 0.1781381
v -1.094482 0.08080229 0.4858389
v -1.027798 0.05402103 0.3963606
v -1.027798 0.05402103 0.3963606
v -1.094482 0.08080229 0.4858389
v 0.09885799 0.08080229 0.4858388
v 0.032174 0.05402103 0.3963606

vn -0.1500571 0.2865533 -0.94624
vn -0.1500571 0.2865533 -0.94624
vn -0.1500571 0.2865533 -0.94624
vn -0.1500571 0.2865533 -0.94624
vn 0.006256575 0.9992018 0.03945313
vn 0.006256575 0.9992018 0.03945313
vn 0.006256576 0.9992018 0.03945313
vn 0.006256575 0.9992018 0.03945313
vn 0.1445872 0.3844616 0.9117478
vn 0.1445872 0.3844615 0.9117478
vn 0.1445872 0.3844616 0.9117478
vn 0.1445872 0.3844615 0.9117478
vn 0.8578029 -0.1758423 0.4829634
vn 0.8578029 -0.1758423 0.4829635
vn 0.8578029 -0.1758423 0.4829634
vn 0.8578029 -0.1758423 0.4829634
vn -0.02691778 -0.9851212 -0.1697399
vn -0.02691778 -0.9851212 -0.1697399
vn -0.02691778 -0.9851212 -0.1697399
vn -0.02691778 -0.9851212 -0.1697399
vn -0.666295 -0.1758421 0.7246588
vn -0.666295 -0.1758421 0.7246588
vn -0.666295 -0.1758421 0.7246588
vn -0.6662951 -0.1758421 0.7246589
vn 0.8411505 -0.5180535 -0.1551981
vn 0.8411505 -0.5180535 -0.1551981
vn 0.8411505 -0.5180535 -0.1551981
vn 0.8411505 -0.5180535 -0.1551981
vn -0.8478967 -0.5180538 0.1126568
vn -0.8478967 -0.5180537 0.1126568
vn -0.8478967 -0.5180537 0.1126568
vn -0.8478968 -0.5180537 0.1126569
vn 0.6748217 -0.2344593 -0.6997461
vn 0.6748217 -0.2344593 -0.6997461
vn 0.6748217 -0.2344593 -0.6997461
vn 0.6748217 -0.2344593 -0.6997461
vn -0.8582032 -0.234459 -0.456636
vn -0.8582032 -0.234459 -0.456636
vn -0.8582032 -0.234459 -0.456636
vn -0.8582032 -0.234459 -0.456636
vn 0.04490966 -0.9580105 0.2831943
vn 0.04490966 -0.9580105 0.2831943
vn 0.04490966 -0.9580105 0.2831943
vn 0.04490966 -0.9580105 0.2831943

vt 0 0
vt 0 1
vt 1 1
vt 1 0
vt 0 0
vt 0 1
vt 1 1
vt 1 0
vt 0 0
vt 0 1
vt 1 1
vt 1 0
vt 0 0
vt 0 0
vt 1 0
vt 1 0
vt 1 0
vt 1 0
vt 1 1
vt 1 1
vt 1 1
vt 1 1
vt 0 1
vt 0 1
vt 0 0
vt 0 0
vt 1 0
vt 1 0
vt 1 1
vt 1 1
vt 0 1
vt 0 1
vt 0 0
vt 0 0
vt 1 0
vt 1 0
vt 1 1
vt 1 1
vt 0 1
vt 0 1
vt 0 1
vt 0 1
vt 0 0
vt 0 0

g polySurface24_1703_122
usemtl polySurface24_1703_122
usemap polySurface24_1703_122
f 1/1/1 3/3/3 2/2/2
f 1/1/1 4/4/4 3/3/3
f 5/5/5 7/7/7 6/6/6
f 5/5/5 8/8/8 7/7/7
f 9/9/9 11/11/11 10/10/10
f 9/9/9 12/12/12 11/11/11
f 13/13/13 15/15/15 14/14/14
f 13/13/13 16/16/16 15/15/15
f 17/17/17 19/19/19 18/18/18
f 17/17/17 20/20/20 19/19/19
f 21/21/21 23/23/23 22/22/22
f 21/21/21 24/24/24 23/23/23
f 25/25/25 27/27/27 26/26/26
f 25/25/25 28/28/28 27/27/27
f 29/29/29 31/31/31 30/30/30
f 29/29/29 32/32/32 31/31/31
f 33/33/33 35/35/35 34/34/34
f 33/33/33 36/36/36 35/35/35
f 37/37/37 39/39/39 38/38/38
f 37/37/37 40/40/40 39/39/39
f 41/41/41 43/43/43 42/42/42
f 41/41/41 44/44/44 43/43/43
