#polySurface27_1891_65.obj

v 0.05396264 0.5837801 -0.1480737
v 0.05396332 0.5723445 0.1146437
v 0.05396321 0.05465556 0.3126692
v 0.05396355 -0.01538209 -0.3126706
v 0.05396276 -0.5734923 0.2299407
v 0.05396321 -0.5837826 -0.1365166

vn -0.9987097 0 0.05078151
vn -0.9987097 0 0.05078151
vn -0.9987097 0 0.05078151
vn -0.9987097 0 0.05078151
vn -0.9987097 0 0.05078151
vn -0.9987097 0 0.05078151

vt 0.3818359 1
vt 0.1571045 0.9838867
vt 0 0.5356445
vt 0.5371094 0.4909668
vt 0.0859375 0
vt 0.3999023 0

g polySurface27_1891_65
usemtl polySurface27_1891_65
usemap polySurface27_1891_65
f 1/1/1 3/3/3 2/2/2
f 4/4/4 3/3/3 1/1/1
f 4/4/4 5/5/5 3/3/3
f 5/5/5 4/4/4 6/6/6
