#polySurface197_1842_56.obj

v -0.5217852 2.800212 -0.5158976
v 0.1540201 2.800212 -0.691291
v 0.5456042 2.800212 0.3314844
v -0.09716488 2.800212 0.6296079
v -0.6706083 -1.763958E-07 -0.9173957
v 0.04963274 -1.763958E-07 1.025573
v 0.6788228 -1.763958E-07 0.6908897
v 0.02223312 -1.763958E-07 -1.04676
v -0.6706083 -1.763958E-07 -0.9173957
v -0.7487101 0.966821 -1.128061
v 0.1266401 0.966821 1.23333
v 0.04963274 -1.763958E-07 1.025573
v 0.1219061 2.03244 1.220559
v -0.743913 2.03244 -1.115122
v 0.02052966 2.567675 0.9470942
v -0.6411994 2.567675 -0.838025
v -0.09716488 2.800212 0.6296079
v -0.5217852 2.800212 -0.5158976
v 0.04963274 -1.763958E-07 1.025573
v 0.1266401 0.966821 1.23333
v 0.7487082 0.966821 0.8794127
v 0.6788228 -1.763958E-07 0.6908897
v 0.6788228 -1.763958E-07 0.6908897
v 0.7487082 0.966821 0.8794127
v -0.0469212 0.966821 -1.233338
v 0.02223312 -1.763958E-07 -1.04676
v -0.04267452 2.03244 -1.221882
v 0.7444112 2.03244 0.867822
v 0.04827963 2.567675 -0.9765236
v 0.6524119 2.567675 0.6196278
v 0.1540201 2.800212 -0.691291
v 0.5456042 2.800212 0.3314844
v 0.02223312 -1.763958E-07 -1.04676
v -0.0469212 0.966821 -1.233338
v -0.7487101 0.966821 -1.128061
v -0.6706083 -1.763958E-07 -0.9173957
v 0.1266401 0.966821 1.23333
v 0.1219061 2.03244 1.220559
v 0.7444112 2.03244 0.867822
v 0.7487082 0.966821 0.8794127
v -0.0469212 0.966821 -1.233338
v -0.04267452 2.03244 -1.221882
v -0.743913 2.03244 -1.115122
v -0.7487101 0.966821 -1.128061
v 0.1219061 2.03244 1.220559
v 0.02052966 2.567675 0.9470942
v 0.6524119 2.567675 0.6196278
v 0.7444112 2.03244 0.867822
v 0.5456042 2.800212 0.3314844
v -0.09716488 2.800212 0.6296079
v -0.04267452 2.03244 -1.221882
v 0.04827963 2.567675 -0.9765236
v -0.6411994 2.567675 -0.838025
v -0.743913 2.03244 -1.115122
v -0.5217852 2.800212 -0.5158976
v 0.1540201 2.800212 -0.691291

vn 0 1 0
vn 0 1 0
vn 0 1 0
vn 0 1 0
vn 0 -1 0
vn 0 -1 0
vn 0 -1 0
vn 0 -1 0
vn -0.9742881 -7.494855E-06 -0.2253058
vn -0.9742881 -7.494855E-06 -0.2253059
vn -0.9742881 -7.494854E-06 -0.2253058
vn -0.9742881 -7.494855E-06 -0.2253059
vn -0.9742881 0 -0.2253055
vn -0.9742881 0 -0.2253055
vn -0.974288 -6.17922E-06 -0.2253059
vn -0.974288 -6.181488E-06 -0.2253059
vn -0.9742874 -4.198924E-06 -0.2253088
vn -0.9742874 -4.198924E-06 -0.2253088
vn -0.07728496 -0.2112929 0.9743625
vn -0.07728496 -0.2112929 0.9743625
vn -0.07728496 -0.2112929 0.9743625
vn -0.0772849 -0.211293 0.9743625
vn 0.9755509 0 0.2197731
vn 0.9755509 0 0.2197731
vn 0.9755509 0 0.2197731
vn 0.9755509 0 0.2197731
vn 0.9754464 0 0.2202368
vn 0.9754463 0 0.2202369
vn 0.975654 -2.600861E-05 0.2193151
vn 0.9756536 -2.596102E-05 0.219317
vn 0.9761316 -8.009606E-05 0.21718
vn 0.9761316 -8.009607E-05 0.2171799
vn 0.3946621 -0.2104079 -0.8944106
vn 0.3946621 -0.2104079 -0.8944106
vn 0.3946621 -0.2104079 -0.8944106
vn 0.3946621 -0.2104079 -0.8944106
vn -0.06579697 0.01203201 0.9977604
vn -0.06579706 0.01203201 0.9977604
vn -0.065797 0.01203201 0.9977604
vn -0.065797 0.01203201 0.9977604
vn 0.4188888 0.0119515 -0.9079589
vn 0.4188888 0.0119515 -0.9079588
vn 0.4188888 0.0119515 -0.9079589
vn 0.4188888 0.0119515 -0.9079589
vn -0.07581392 0.4574979 0.8859728
vn -0.07699415 0.6039984 0.7932577
vn -0.07697725 0.621939 0.779273
vn -0.07581383 0.4574979 0.8859729
vn -0.07367375 0.8100927 0.5816545
vn -0.07367375 0.8100927 0.5816545
vn 0.3529075 0.4557834 -0.8171399
vn 0.2979782 0.6231174 -0.7231416
vn 0.3067618 0.6001775 -0.7387043
vn 0.3529075 0.4557834 -0.8171399
vn 0.2045336 0.8099946 -0.5496133
vn 0.2045336 0.8099946 -0.5496132

vt 0 0
vt 0.05767822 0.3352051
vt 0.9541016 0.3408203
vt 1 0
vt 0 0
vt 1 0
vt 0.9541016 0.3408203
vt 0.05767822 0.3352051
vt 0 0
vt 0 0
vt 1 0
vt 1 0
vt 1 0
vt 0 0
vt 1 0
vt 0 0
vt 1 0
vt 0 0
vt 1 0
vt 1 0
vt 0.9541016 0.3408203
vt 0.9541016 0.3408203
vt 0.9541016 0.3408203
vt 0.9541016 0.3408203
vt 0.05767822 0.3352051
vt 0.05767822 0.3352051
vt 0.05767822 0.3352051
vt 0.9541016 0.3408203
vt 0.05767822 0.3352051
vt 0.9541016 0.3408203
vt 0.05767822 0.3352051
vt 0.9541016 0.3408203
vt 0.05767822 0.3352051
vt 0.05767822 0.3352051
vt 0 0
vt 0 0
vt 1 0
vt 1 0
vt 0.9541016 0.3408203
vt 0.9541016 0.3408203
vt 0.05767822 0.3352051
vt 0.05767822 0.3352051
vt 0 0
vt 0 0
vt 1 0
vt 1 0
vt 0.9541016 0.3408203
vt 0.9541016 0.3408203
vt 0.9541016 0.3408203
vt 1 0
vt 0.05767822 0.3352051
vt 0.05767822 0.3352051
vt 0 0
vt 0 0
vt 0 0
vt 0.05767822 0.3352051

g polySurface197_1842_56
usemtl polySurface197_1842_56
usemap polySurface197_1842_56
f 1/1/1 3/3/3 2/2/2
f 1/1/1 4/4/4 3/3/3
f 5/5/5 7/7/7 6/6/6
f 5/5/5 8/8/8 7/7/7
f 9/9/9 11/11/11 10/10/10
f 9/9/9 12/12/12 11/11/11
f 10/10/10 11/11/11 13/13/13
f 10/10/10 13/13/13 14/14/14
f 14/14/14 13/13/13 15/15/15
f 14/14/14 15/15/15 16/16/16
f 16/16/16 15/15/15 17/17/17
f 16/16/16 17/17/17 18/18/18
f 19/19/19 21/21/21 20/20/20
f 19/19/19 22/22/22 21/21/21
f 23/23/23 25/25/25 24/24/24
f 23/23/23 26/26/26 25/25/25
f 24/24/24 25/25/25 27/27/27
f 24/24/24 27/27/27 28/28/28
f 28/28/28 27/27/27 29/29/29
f 28/28/28 29/29/29 30/30/30
f 30/30/30 29/29/29 31/31/31
f 30/30/30 31/31/31 32/32/32
f 33/33/33 35/35/35 34/34/34
f 33/33/33 36/36/36 35/35/35
f 37/37/37 39/39/39 38/38/38
f 37/37/37 40/40/40 39/39/39
f 41/41/41 43/43/43 42/42/42
f 41/41/41 44/44/44 43/43/43
f 45/45/45 47/47/47 46/46/46
f 45/45/45 48/48/48 47/47/47
f 46/46/46 47/47/47 49/49/49
f 46/46/46 49/49/49 50/50/50
f 51/51/51 53/53/53 52/52/52
f 51/51/51 54/54/54 53/53/53
f 52/52/52 53/53/53 55/55/55
f 52/52/52 55/55/55 56/56/56
