#polySurface22_1829_6.obj

v 0.05883299 -0.6497357 0.2580889
v 0.05241289 -0.6635076 -0.1532262
v 0.03340355 -0.03210085 -0.3509439
v 0.03340358 0.04651131 0.3509455
v 0.03340345 0.6404062 -0.1661982
v 0.03340377 0.6275714 0.1286786
v 0.05883299 -0.6497357 0.2580889
v 0.1213196 -0.6436905 0.2580888
v 0.1213197 -0.6552415 -0.1532265
v 0.05241289 -0.6635076 -0.1532262
v 0.05241289 -0.6635076 -0.1532262
v 0.1213197 -0.6552415 -0.1532265
v 0.1213195 -0.0172622 -0.3509447
v 0.03340355 -0.03210085 -0.3509439
v 0.03340355 -0.03210085 -0.3509439
v 0.1213195 -0.0172622 -0.3509447
v 0.1213198 0.6552461 -0.1661978
v 0.03340345 0.6404062 -0.1661982
v 0.03340345 0.6404062 -0.1661982
v 0.1213198 0.6552461 -0.1661978
v 0.1213194 0.6424114 0.1286778
v 0.03340377 0.6275714 0.1286786
v 0.03340377 0.6275714 0.1286786
v 0.1213194 0.6424114 0.1286778
v 0.1213196 0.06135059 0.3509459
v 0.03340358 0.04651131 0.3509455
v 0.03340358 0.04651131 0.3509455
v 0.1213196 0.06135059 0.3509459
v 0.1213196 -0.6436905 0.2580888
v 0.05883299 -0.6497357 0.2580889
v 0.1213196 -0.6436905 0.2580888
v 0.1213195 -0.5734878 0.2299421
v 0.1213195 -0.5837787 -0.1365162
v 0.1213197 -0.6552415 -0.1532265
v 0.1213198 -0.01537889 -0.3126694
v 0.1213195 -0.0172622 -0.3509447
v 0.1213195 0.5837833 -0.1480719
v 0.1213198 0.6552461 -0.1661978
v 0.1213196 0.572349 0.1146451
v 0.1213194 0.6424114 0.1286778
v 0.1213196 0.0546594 0.3126706
v 0.1213196 0.06135059 0.3509459
v 0.1213195 -0.5734878 0.2299421
v 0.05396308 -0.5734885 0.2299417
v 0.05396311 -0.5837787 -0.1365154
v 0.1213195 -0.5837787 -0.1365162
v 0.1213195 -0.5837787 -0.1365162
v 0.05396311 -0.5837787 -0.1365154
v 0.05396344 -0.01537826 -0.3126686
v 0.1213198 -0.01537889 -0.3126694
v 0.1213198 -0.01537889 -0.3126694
v 0.05396344 -0.01537826 -0.3126686
v 0.05396345 0.5837839 -0.1480724
v 0.1213195 0.5837833 -0.1480719
v 0.1213195 0.5837833 -0.1480719
v 0.05396345 0.5837839 -0.1480724
v 0.05396317 0.5723483 0.1146446
v 0.1213196 0.572349 0.1146451
v 0.1213196 0.572349 0.1146451
v 0.05396317 0.5723483 0.1146446
v 0.05396352 0.0546594 0.3126701
v 0.1213196 0.0546594 0.3126706
v 0.1213196 0.0546594 0.3126706
v 0.05396352 0.0546594 0.3126701
v 0.05396308 -0.5734885 0.2299417
v 0.1213195 -0.5734878 0.2299421
v 0.05221312 -0.617413 0.08020847
v 0.05221331 -0.02386075 0.01832906
v 0.09023917 -0.02386075 0.01832884
v 0.09023898 -0.617413 0.08020825
v 0.05221314 -0.02386075 0.3260591
v 0.05221345 0.02302709 0.3260591
v 0.090239 0.02302709 0.3260589
v 0.090239 -0.02386075 0.3260589
v 0.05221331 0.02302709 0.01832906
v 0.05221331 0.6165794 0.003584139
v 0.09023917 0.6165806 0.003583922
v 0.09023917 0.02302709 0.01832884
v 0.05221331 0.6165794 0.003584139
v 0.05221343 0.6165794 -0.0344411
v 0.09023897 0.6165806 -0.03444131
v 0.09023917 0.6165806 0.003583922
v 0.05221343 0.6165794 -0.0344411
v 0.05221343 0.02302709 -0.01969618
v 0.09023897 0.02302709 -0.01969639
v 0.09023897 0.6165806 -0.03444131
v 0.05221329 0.02302709 -0.3274262
v 0.05221329 -0.02386075 -0.3274262
v 0.09023914 -0.02386075 -0.3274264
v 0.09023914 0.02302709 -0.3274264
v 0.05221311 -0.02386075 -0.01969617
v 0.05221324 -0.617413 0.04218323
v 0.0902391 -0.617413 0.04218301
v 0.09023897 -0.02386075 -0.01969639
v 0.05221324 -0.617413 0.04218323
v 0.05221312 -0.617413 0.08020847
v 0.09023898 -0.617413 0.08020825
v 0.0902391 -0.617413 0.04218301
v 0.09023898 -0.617413 0.08020825
v 0.09023917 -0.02386075 0.01832884
v 0.09023897 -0.02386075 -0.01969639
v 0.0902391 -0.617413 0.04218301
v 0.09023897 0.02302709 -0.01969639
v 0.09023917 0.02302709 0.01832884
v 0.09023897 0.6165806 -0.03444131
v 0.09023917 0.6165806 0.003583922
v 0.05221324 -0.617413 0.04218323
v 0.05221311 -0.02386075 -0.01969617
v 0.05221331 -0.02386075 0.01832906
v 0.05221312 -0.617413 0.08020847
v 0.05221331 0.02302709 0.01832906
v 0.05221343 0.02302709 -0.01969618
v 0.05221331 0.6165794 0.003584139
v 0.05221343 0.6165794 -0.0344411
v 0.05221331 -0.02386075 0.01832906
v 0.05221314 -0.02386075 0.3260591
v 0.090239 -0.02386075 0.3260589
v 0.09023917 -0.02386075 0.01832884
v 0.09023917 -0.02386075 0.01832884
v 0.090239 -0.02386075 0.3260589
v 0.090239 0.02302709 0.3260589
v 0.09023917 0.02302709 0.01832884
v 0.09023917 0.02302709 0.01832884
v 0.090239 0.02302709 0.3260589
v 0.05221345 0.02302709 0.3260591
v 0.05221331 0.02302709 0.01832906
v 0.05221331 0.02302709 0.01832906
v 0.05221345 0.02302709 0.3260591
v 0.05221314 -0.02386075 0.3260591
v 0.05221331 -0.02386075 0.01832906
v 0.05221343 0.02302709 -0.01969618
v 0.05221329 0.02302709 -0.3274262
v 0.09023914 0.02302709 -0.3274264
v 0.09023897 0.02302709 -0.01969639
v 0.09023897 0.02302709 -0.01969639
v 0.09023914 0.02302709 -0.3274264
v 0.09023914 -0.02386075 -0.3274264
v 0.09023897 -0.02386075 -0.01969639
v 0.09023897 -0.02386075 -0.01969639
v 0.09023914 -0.02386075 -0.3274264
v 0.05221329 -0.02386075 -0.3274262
v 0.05221311 -0.02386075 -0.01969617
v 0.05221311 -0.02386075 -0.01969617
v 0.05221329 -0.02386075 -0.3274262
v 0.05221329 0.02302709 -0.3274262
v 0.05221343 0.02302709 -0.01969618

vn -0.9995614 -0.01780814 -0.02366142
vn -0.9995614 -0.01780814 -0.02366141
vn -0.9995614 -0.01780814 -0.02366141
vn -0.9995614 -0.01780814 -0.02366141
vn -0.9995614 -0.01780814 -0.02366141
vn -0.9995614 -0.01780814 -0.02366142
vn 0.1073459 -0.9936808 0.03279176
vn 0.1073459 -0.9936808 0.03279176
vn 0.1073459 -0.9936808 0.03279176
vn 0.1073459 -0.9936808 0.03279176
vn 0.07064517 -0.2965392 -0.9524042
vn 0.07064517 -0.2965392 -0.9524042
vn 0.07064517 -0.2965392 -0.9524042
vn 0.07064517 -0.2965392 -0.9524042
vn -0.01741402 0.2646344 -0.9641916
vn -0.01741401 0.2646344 -0.9641915
vn -0.01741401 0.2646344 -0.9641916
vn -0.01741402 0.2646344 -0.9641915
vn -0.1674349 0.9851443 0.03816086
vn -0.167435 0.9851443 0.03816086
vn -0.1674349 0.9851443 0.03816086
vn -0.167435 0.9851443 0.03816086
vn -0.08653149 0.3566259 0.9302313
vn -0.08653148 0.3566258 0.9302313
vn -0.08653148 0.3566259 0.9302313
vn -0.08653148 0.3566258 0.9302313
vn -0.009837316 -0.1310347 0.991329
vn -0.00983732 -0.1310347 0.991329
vn -0.009837318 -0.1310347 0.991329
vn -0.009837316 -0.1310348 0.991329
vn 0.9996002 0 0.02827348
vn 0.9996002 0 0.02827348
vn 0.9996002 0 0.02827348
vn 0.9996002 0 0.02827348
vn 0.9996002 0 0.02827348
vn 0.9996002 0 0.02827348
vn 0.9996002 0 0.02827348
vn 0.9996002 0 0.02827348
vn 0.9996002 0 0.02827348
vn 0.9996002 0 0.02827348
vn 0.9996002 0 0.02827348
vn 0.9996002 0 0.02827348
vn 0.0007880207 0.9996059 -0.02806044
vn 0.0007880207 0.9996059 -0.02806044
vn 0.0007880208 0.9996059 -0.02806045
vn 0.0007880208 0.9996059 -0.02806045
vn -0.0270063 0.2960212 0.9547995
vn -0.0270063 0.2960211 0.9547995
vn -0.0270063 0.2960212 0.9547995
vn -0.0270063 0.2960211 0.9547995
vn -0.02726345 -0.2648982 0.9638909
vn -0.02726345 -0.2648982 0.9638909
vn -0.02726345 -0.2648982 0.9638909
vn -0.02726345 -0.2648982 0.9638909
vn 0.001229474 -0.9990541 -0.0434677
vn 0.001229474 -0.9990541 -0.0434677
vn 0.001229474 -0.9990541 -0.0434677
vn 0.001229474 -0.9990541 -0.04346769
vn 0.02640744 -0.3572715 -0.9336272
vn 0.02640744 -0.3572715 -0.9336272
vn 0.02640744 -0.3572715 -0.9336272
vn 0.02640744 -0.3572715 -0.9336272
vn 0.02803141 0.1305749 -0.9910421
vn 0.02803141 0.1305749 -0.9910421
vn 0.02803141 0.1305749 -0.9910421
vn 0.02803141 0.1305749 -0.9910421
vn -0.02812107 0.103692 0.9942119
vn -0.02812107 0.103692 0.9942119
vn -0.02812107 0.103692 0.9942119
vn -0.02812107 0.103692 0.9942119
vn -0.02827348 0 0.9996002
vn -0.02827348 0 0.9996002
vn -0.02827348 0 0.9996002
vn -0.02827348 0 0.9996002
vn -0.02826476 0.02483288 0.999292
vn -0.02826476 0.02483289 0.999292
vn -0.02826476 0.02483289 0.999292
vn -0.02826476 0.02483288 0.999292
vn -2.005578E-05 1 -5.672733E-07
vn -2.005578E-05 1 -5.672733E-07
vn -2.005578E-05 1 -5.672733E-07
vn -2.005578E-05 1 -5.672733E-07
vn 0.02826476 -0.02483289 -0.999292
vn 0.02826476 -0.02483288 -0.999292
vn 0.02826476 -0.02483288 -0.999292
vn 0.02826476 -0.02483289 -0.999292
vn 0.02827348 0 -0.9996002
vn 0.02827348 0 -0.9996002
vn 0.02827348 0 -0.9996002
vn 0.02827348 0 -0.9996002
vn 0.02812107 -0.1036914 -0.9942119
vn 0.02812107 -0.1036914 -0.9942119
vn 0.02812107 -0.1036914 -0.9942119
vn 0.02812107 -0.1036914 -0.9942119
vn 0 -1 0
vn 0 -1 0
vn 0 -1 0
vn 0 -1 0
vn 0.9996002 0 0.02827348
vn 0.9996002 0 0.02827348
vn 0.9996002 0 0.02827348
vn 0.9996002 0 0.02827348
vn 0.9996002 0 0.02827348
vn 0.9996002 0 0.02827348
vn 0.9996002 0 0.02827348
vn 0.9996002 0 0.02827348
vn -0.9996002 0 -0.02827348
vn -0.9996002 0 -0.02827348
vn -0.9996002 0 -0.02827348
vn -0.9996002 0 -0.02827348
vn -0.9996002 0 -0.02827348
vn -0.9996002 0 -0.02827348
vn -0.9996002 0 -0.02827348
vn -0.9996002 0 -0.02827348
vn 0 -1 0
vn 0 -1 0
vn 0 -1 0
vn 0 -1 0
vn 0.9996002 0 0.02827348
vn 0.9996002 0 0.02827348
vn 0.9996002 0 0.02827348
vn 0.9996002 0 0.02827348
vn 0 1 0
vn 0 1 0
vn 0 1 0
vn 0 1 0
vn -0.9996002 5.287593E-06 -0.02827348
vn -0.9996002 5.287593E-06 -0.02827348
vn -0.9996002 5.287593E-06 -0.02827348
vn -0.9996002 5.287593E-06 -0.02827348
vn 0 1 0
vn 0 1 0
vn 0 1 0
vn 0 1 0
vn 0.9996002 0 0.02827348
vn 0.9996002 0 0.02827348
vn 0.9996002 0 0.02827348
vn 0.9996002 0 0.02827348
vn 0 -1 0
vn 0 -1 0
vn 0 -1 0
vn 0 -1 0
vn -0.9996002 0 -0.02827348
vn -0.9996002 0 -0.02827348
vn -0.9996002 0 -0.02827348
vn -0.9996002 0 -0.02827348

vt 0.0859375 0
vt 0.3999023 0
vt 0.5371094 0.4909668
vt 0 0.5356445
vt 0.3818359 1
vt 0.1571045 0.9838867
vt 0.0859375 0
vt 0.0859375 0
vt 0.3999023 0
vt 0.3999023 0
vt 0.3999023 0
vt 0.3999023 0
vt 0.5371094 0.4909668
vt 0.5371094 0.4909668
vt 0.5371094 0.4909668
vt 0.5371094 0.4909668
vt 0.3818359 1
vt 0.3818359 1
vt 0.3818359 1
vt 0.3818359 1
vt 0.1571045 0.9838867
vt 0.1571045 0.9838867
vt 0.1571045 0.9838867
vt 0.1571045 0.9838867
vt 0 0.5356445
vt 0 0.5356445
vt 0 0.5356445
vt 0 0.5356445
vt 0.0859375 0
vt 0.0859375 0
vt 0.0859375 0
vt 0.0859375 0
vt 0.3999023 0
vt 0.3999023 0
vt 0.5371094 0.4909668
vt 0.5371094 0.4909668
vt 0.3818359 1
vt 0.3818359 1
vt 0.1571045 0.9838867
vt 0.1571045 0.9838867
vt 0 0.5356445
vt 0 0.5356445
vt 0.0859375 0
vt 0.0859375 0
vt 0.3999023 0
vt 0.3999023 0
vt 0.3999023 0
vt 0.3999023 0
vt 0.5371094 0.4909668
vt 0.5371094 0.4909668
vt 0.5371094 0.4909668
vt 0.5371094 0.4909668
vt 0.3818359 1
vt 0.3818359 1
vt 0.3818359 1
vt 0.3818359 1
vt 0.1571045 0.9838867
vt 0.1571045 0.9838867
vt 0.1571045 0.9838867
vt 0.1571045 0.9838867
vt 0 0.5356445
vt 0 0.5356445
vt 0 0.5356445
vt 0 0.5356445
vt 0.0859375 0
vt 0.0859375 0
vt 0.375 0
vt 0.375 0.08331299
vt 0.625 0.08331299
vt 0.625 0
vt 0.375 0.08331299
vt 0.375 0.166626
vt 0.625 0.166626
vt 0.625 0.08331299
vt 0.375 0.166626
vt 0.375 0.25
vt 0.625 0.25
vt 0.625 0.166626
vt 0.375 0.25
vt 0.375 0.5
vt 0.625 0.5
vt 0.625 0.25
vt 0.375 0.5
vt 0.375 0.5834961
vt 0.625 0.5834961
vt 0.625 0.5
vt 0.375 0.5834961
vt 0.375 0.6665039
vt 0.625 0.6665039
vt 0.625 0.5834961
vt 0.375 0.6665039
vt 0.375 0.75
vt 0.625 0.75
vt 0.625 0.6665039
vt 0.375 0.75
vt 0.375 1
vt 0.625 1
vt 0.625 0.75
vt 0.625 0
vt 0.625 0.08331299
vt 0.875 0.08331299
vt 0.875 0
vt 0.875 0.166626
vt 0.625 0.166626
vt 0.875 0.25
vt 0.625 0.25
vt 0.125 0
vt 0.125 0.08331299
vt 0.375 0.08331299
vt 0.375 0
vt 0.375 0.166626
vt 0.125 0.166626
vt 0.375 0.25
vt 0.125 0.25
vt 0.375 0.08331299
vt 0.375 0.08331299
vt 0.625 0.08331299
vt 0.625 0.08331299
vt 0.625 0.08331299
vt 0.625 0.08331299
vt 0.625 0.166626
vt 0.625 0.166626
vt 0.625 0.166626
vt 0.625 0.166626
vt 0.375 0.166626
vt 0.375 0.166626
vt 0.375 0.166626
vt 0.375 0.166626
vt 0.375 0.08331299
vt 0.375 0.08331299
vt 0.375 0.5834961
vt 0.375 0.5834961
vt 0.625 0.5834961
vt 0.625 0.5834961
vt 0.625 0.5834961
vt 0.625 0.5834961
vt 0.625 0.6665039
vt 0.625 0.6665039
vt 0.625 0.6665039
vt 0.625 0.6665039
vt 0.375 0.6665039
vt 0.375 0.6665039
vt 0.375 0.6665039
vt 0.375 0.6665039
vt 0.375 0.5834961
vt 0.375 0.5834961

g polySurface22_1829_6
usemtl polySurface22_1829_6
usemap polySurface22_1829_6
f 1/1/1 3/3/3 2/2/2
f 3/3/3 1/1/1 4/4/4
f 3/3/3 4/4/4 5/5/5
f 5/5/5 4/4/4 6/6/6
f 7/7/7 9/9/9 8/8/8
f 7/7/7 10/10/10 9/9/9
f 11/11/11 13/13/13 12/12/12
f 11/11/11 14/14/14 13/13/13
f 15/15/15 17/17/17 16/16/16
f 15/15/15 18/18/18 17/17/17
f 19/19/19 21/21/21 20/20/20
f 19/19/19 22/22/22 21/21/21
f 23/23/23 25/25/25 24/24/24
f 23/23/23 26/26/26 25/25/25
f 27/27/27 29/29/29 28/28/28
f 27/27/27 30/30/30 29/29/29
f 31/31/31 33/33/33 32/32/32
f 31/31/31 34/34/34 33/33/33
f 34/34/34 35/35/35 33/33/33
f 34/34/34 36/36/36 35/35/35
f 36/36/36 37/37/37 35/35/35
f 36/36/36 38/38/38 37/37/37
f 38/38/38 39/39/39 37/37/37
f 38/38/38 40/40/40 39/39/39
f 40/40/40 41/41/41 39/39/39
f 40/40/40 42/42/42 41/41/41
f 42/42/42 32/32/32 41/41/41
f 42/42/42 31/31/31 32/32/32
f 43/43/43 45/45/45 44/44/44
f 43/43/43 46/46/46 45/45/45
f 47/47/47 49/49/49 48/48/48
f 47/47/47 50/50/50 49/49/49
f 51/51/51 53/53/53 52/52/52
f 51/51/51 54/54/54 53/53/53
f 55/55/55 57/57/57 56/56/56
f 55/55/55 58/58/58 57/57/57
f 59/59/59 61/61/61 60/60/60
f 59/59/59 62/62/62 61/61/61
f 63/63/63 65/65/65 64/64/64
f 63/63/63 66/66/66 65/65/65
f 67/67/67 69/69/69 68/68/68
f 67/67/67 70/70/70 69/69/69
f 71/71/71 73/73/73 72/72/72
f 71/71/71 74/74/74 73/73/73
f 75/75/75 77/77/77 76/76/76
f 75/75/75 78/78/78 77/77/77
f 79/79/79 81/81/81 80/80/80
f 79/79/79 82/82/82 81/81/81
f 83/83/83 85/85/85 84/84/84
f 83/83/83 86/86/86 85/85/85
f 87/87/87 89/89/89 88/88/88
f 87/87/87 90/90/90 89/89/89
f 91/91/91 93/93/93 92/92/92
f 91/91/91 94/94/94 93/93/93
f 95/95/95 97/97/97 96/96/96
f 95/95/95 98/98/98 97/97/97
f 99/99/99 101/101/101 100/100/100
f 99/99/99 102/102/102 101/101/101
f 100/100/100 101/101/101 103/103/103
f 100/100/100 103/103/103 104/104/104
f 104/104/104 103/103/103 105/105/105
f 104/104/104 105/105/105 106/106/106
f 107/107/107 109/109/109 108/108/108
f 107/107/107 110/110/110 109/109/109
f 108/108/108 109/109/109 111/111/111
f 108/108/108 111/111/111 112/112/112
f 112/112/112 111/111/111 113/113/113
f 112/112/112 113/113/113 114/114/114
f 115/115/115 117/117/117 116/116/116
f 115/115/115 118/118/118 117/117/117
f 119/119/119 121/121/121 120/120/120
f 119/119/119 122/122/122 121/121/121
f 123/123/123 125/125/125 124/124/124
f 123/123/123 126/126/126 125/125/125
f 127/127/127 129/129/129 128/128/128
f 127/127/127 130/130/130 129/129/129
f 131/131/131 133/133/133 132/132/132
f 131/131/131 134/134/134 133/133/133
f 135/135/135 137/137/137 136/136/136
f 135/135/135 138/138/138 137/137/137
f 139/139/139 141/141/141 140/140/140
f 139/139/139 142/142/142 141/141/141
f 143/143/143 145/145/145 144/144/144
f 143/143/143 146/146/146 145/145/145
