#polySurface39_1947_86.obj

v -0.3428172 4.879432 -0.08144712
v 0.02948519 4.879432 -0.2460452
v 0.3428171 4.879432 -0.05572438
v -0.1459318 4.879432 0.2460468
v 0.2697144 4.879432 0.2180973
v 0.3428171 1.010648E-06 -0.05572438
v 0.02948519 1.010648E-06 -0.2460452
v -0.3428172 1.010648E-06 -0.08144712
v -0.1459318 1.010648E-06 0.2460468
v 0.2697144 1.010648E-06 0.2180973
v -0.3428172 1.010648E-06 -0.08144712
v -0.3428172 4.879432 -0.08144712
v -0.1459318 4.879432 0.2460468
v -0.1459318 1.010648E-06 0.2460468
v -0.1459318 1.010648E-06 0.2460468
v -0.1459318 4.879432 0.2460468
v 0.2697144 4.879432 0.2180973
v 0.2697144 1.010648E-06 0.2180973
v 0.2697144 1.010648E-06 0.2180973
v 0.2697144 4.879432 0.2180973
v 0.3428171 4.879432 -0.05572438
v 0.3428171 1.010648E-06 -0.05572438
v 0.3428171 1.010648E-06 -0.05572438
v 0.3428171 4.879432 -0.05572438
v 0.02948519 4.879432 -0.2460452
v 0.02948519 1.010648E-06 -0.2460452
v 0.02948519 1.010648E-06 -0.2460452
v 0.02948519 4.879432 -0.2460452
v -0.3428172 4.879432 -0.08144712
v -0.3428172 1.010648E-06 -0.08144712

vn 0 1 0
vn 0 1 0
vn 0 1 0
vn 0 1 0
vn 0 1 0
vn 0 -1 0
vn 0 -1 0
vn 0 -1 0
vn 0 -1 0
vn 0 -1 0
vn -0.83085 0 0.5564963
vn -0.83085 0 0.5564963
vn -0.83085 0 0.5564963
vn -0.83085 0 0.5564963
vn 0.1157511 0 0.9932782
vn 0.1157511 0 0.9932782
vn 0.1157511 0 0.9932782
vn 0.1157511 0 0.9932782
vn 0.9776079 0 0.2104348
vn 0.9776079 0 0.2104348
vn 0.9776079 0 0.2104348
vn 0.9776079 0 0.2104348
vn 0.4767757 0 -0.8790249
vn 0.4767757 0 -0.8790249
vn 0.4767757 0 -0.8790249
vn 0.4767757 0 -0.8790249
vn -0.4485489 0 -0.8937583
vn -0.4485489 0 -0.8937583
vn -0.4485489 0 -0.8937583
vn -0.4485489 0 -0.8937583

vt 0 0
vt 0.08837891 0.703125
vt 0.6533203 1
vt 0.6655273 0
vt 0.996582 0.6455078
vt 0.6533203 1
vt 0.08837891 0.703125
vt 0 0
vt 0.6655273 0
vt 0.996582 0.6455078
vt 0 0
vt 0 0
vt 0.6655273 0
vt 0.6655273 0
vt 0.6655273 0
vt 0.6655273 0
vt 0.996582 0.6455078
vt 0.996582 0.6455078
vt 0.996582 0.6455078
vt 0.996582 0.6455078
vt 0.6533203 1
vt 0.6533203 1
vt 0.6533203 1
vt 0.6533203 1
vt 0.08837891 0.703125
vt 0.08837891 0.703125
vt 0.08837891 0.703125
vt 0.08837891 0.703125
vt 0 0
vt 0 0

g polySurface39_1947_86
usemtl polySurface39_1947_86
usemap polySurface39_1947_86
f 1/1/1 3/3/3 2/2/2
f 3/3/3 1/1/1 4/4/4
f 3/3/3 4/4/4 5/5/5
f 6/6/6 8/8/8 7/7/7
f 8/8/8 6/6/6 9/9/9
f 9/9/9 6/6/6 10/10/10
f 11/11/11 13/13/13 12/12/12
f 11/11/11 14/14/14 13/13/13
f 15/15/15 17/17/17 16/16/16
f 15/15/15 18/18/18 17/17/17
f 19/19/19 21/21/21 20/20/20
f 19/19/19 22/22/22 21/21/21
f 23/23/23 25/25/25 24/24/24
f 23/23/23 26/26/26 25/25/25
f 27/27/27 29/29/29 28/28/28
f 27/27/27 30/30/30 29/29/29
