#polySurface22_1829_7.obj

v 0.05883299 -0.6497357 0.2580889
v 0.05241289 -0.6635076 -0.1532262
v 0.05364274 -0.7478795 -0.1730563
v 0.06089367 -0.7323238 0.2914892
v 0.05241289 -0.6635076 -0.1532262
v 0.03340355 -0.03210085 -0.3509439
v 0.03217356 -0.03476019 -0.3963601
v 0.05364274 -0.7478795 -0.1730563
v 0.03340355 -0.03210085 -0.3509439
v 0.03340345 0.6404062 -0.1661982
v 0.03217333 0.7247768 -0.1877057
v 0.03217356 -0.03476019 -0.3963601
v 0.03340345 0.6404062 -0.1661982
v 0.03340377 0.6275714 0.1286786
v 0.03217354 0.7102808 0.145331
v 0.03217333 0.7247768 -0.1877057
v 0.03340377 0.6275714 0.1286786
v 0.03340358 0.04651131 0.3509455
v 0.03217343 0.05402486 0.3963615
v 0.03217354 0.7102808 0.145331
v 0.03340358 0.04651131 0.3509455
v 0.05883299 -0.6497357 0.2580889
v 0.06089367 -0.7323238 0.2914892
v 0.03217343 0.05402486 0.3963615
v 0.05364274 -0.7478795 -0.1730563
v -1.006329 -0.7478795 -0.1730565
v -0.9990777 -0.7323238 0.2914891
v 0.06089367 -0.7323238 0.2914892
v 0.03217356 -0.03476019 -0.3963601
v -1.027798 -0.03476019 -0.3963602
v -1.006329 -0.7478795 -0.1730565
v 0.05364274 -0.7478795 -0.1730563
v 0.06089367 -0.7323238 0.2914892
v -0.9990777 -0.7323238 0.2914891
v -1.027798 0.05402486 0.3963614
v 0.03217343 0.05402486 0.3963615

vn 0.9997583 0.01838741 0.01205179
vn 0.9997583 0.01838741 0.01205179
vn 0.9997583 0.01838741 0.01205179
vn 0.9997583 0.0183874 0.01205179
vn 0.9997748 0.02122226 -4.203431E-05
vn 0.9997748 0.02122226 -4.203804E-05
vn 0.9997748 0.02122226 -4.203431E-05
vn 0.9997748 0.02122227 -4.203804E-05
vn 0.9999712 0.007558732 0.0007574782
vn 0.9999712 0.007558732 0.0007574782
vn 0.9999712 0.007558732 0.0007574782
vn 0.9999712 0.007558732 0.0007574819
vn 0.9994733 0.01474036 0.02891116
vn 0.9994733 0.01474036 0.02891116
vn 0.9994733 0.01474036 0.02891116
vn 0.9994733 0.01474036 0.02891116
vn 0.9985088 0.009738935 0.05371552
vn 0.9985088 0.009738936 0.05371552
vn 0.9985088 0.009738935 0.05371552
vn 0.9985088 0.009738935 0.05371552
vn 0.9981959 0.03362735 0.04974069
vn 0.9981959 0.03362735 0.04974069
vn 0.9981959 0.03362734 0.04974069
vn 0.9981959 0.03362734 0.04974069
vn -0.0009462172 -0.9994398 0.03345323
vn -0.0009462173 -0.9994398 0.03345323
vn -0.0009462172 -0.9994398 0.03345323
vn -0.0009462173 -0.9994398 0.03345323
vn 0.02698157 -0.2988289 -0.9539252
vn 0.02698157 -0.2988288 -0.9539252
vn 0.02698157 -0.2988289 -0.9539252
vn 0.02698157 -0.2988288 -0.9539252
vn -0.02802533 -0.1321965 0.9908273
vn -0.02802533 -0.1321964 0.9908273
vn -0.02802533 -0.1321965 0.9908273
vn -0.02802533 -0.1321964 0.9908273

vt 0 0
vt 1 0
vt 1 1
vt 0 1
vt 0 0
vt 1 0
vt 1 1
vt 0 1
vt 0 0
vt 1 0
vt 1 1
vt 0 1
vt 0 0
vt 1 0
vt 1 1
vt 0 1
vt 0 0
vt 1 0
vt 1 1
vt 0 1
vt 0 0
vt 1 0
vt 1 1
vt 0 1
vt 0 0
vt 0 1
vt 1 1
vt 1 0
vt 0 0
vt 0 1
vt 1 1
vt 1 0
vt 0 0
vt 0 1
vt 1 1
vt 1 0

g polySurface22_1829_7
usemtl polySurface22_1829_7
usemap polySurface22_1829_7
f 1/1/1 3/3/3 2/2/2
f 1/1/1 4/4/4 3/3/3
f 5/5/5 7/7/7 6/6/6
f 5/5/5 8/8/8 7/7/7
f 9/9/9 11/11/11 10/10/10
f 9/9/9 12/12/12 11/11/11
f 13/13/13 15/15/15 14/14/14
f 13/13/13 16/16/16 15/15/15
f 17/17/17 19/19/19 18/18/18
f 17/17/17 20/20/20 19/19/19
f 21/21/21 23/23/23 22/22/22
f 21/21/21 24/24/24 23/23/23
f 25/25/25 27/27/27 26/26/26
f 25/25/25 28/28/28 27/27/27
f 29/29/29 31/31/31 30/30/30
f 29/29/29 32/32/32 31/31/31
f 33/33/33 35/35/35 34/34/34
f 33/33/33 36/36/36 35/35/35
