#polySurface31_2043_117.obj

v -0.06831063 -0.6395809 0.6365601
v -0.1392872 -0.6731741 -0.5369826
v -0.1202836 -0.02726198 -0.6158713
v -0.1192599 0.0423435 0.6738899
v -0.04458334 0.6425083 -0.539734
v -0.1229197 0.6350483 0.6125547
v -0.06831063 -0.6395809 0.6365601
v 0.1743297 -0.6395808 0.6365603
v 0.1033531 -0.673174 -0.5369824
v -0.1392872 -0.6731741 -0.5369826
v -0.1392872 -0.6731741 -0.5369826
v 0.1033531 -0.673174 -0.5369824
v 0.1223568 -0.02726188 -0.6158718
v -0.1202836 -0.02726198 -0.6158713
v -0.1202836 -0.02726198 -0.6158713
v 0.1223568 -0.02726188 -0.6158718
v 0.1463678 0.5824322 -0.5566567
v -0.04458334 0.6425083 -0.539734
v -0.04458334 0.6425083 -0.539734
v 0.1463678 0.5824322 -0.5566567
v 0.1197215 0.6350483 0.6125542
v -0.1229197 0.6350483 0.6125547
v -0.1229197 0.6350483 0.6125547
v 0.1197215 0.6350483 0.6125542
v 0.1233812 0.04234355 0.6738902
v -0.1192599 0.0423435 0.6738899
v -0.1192599 0.0423435 0.6738899
v 0.1233812 0.04234355 0.6738902
v 0.1743297 -0.6395808 0.6365603
v -0.06831063 -0.6395809 0.6365601
v 0.1743297 -0.6395808 0.6365603
v 0.17433 -0.5693784 0.6084127
v 0.1033536 -0.6017118 -0.5202714
v 0.1033531 -0.673174 -0.5369824
v 0.1033531 -0.673174 -0.5369824
v 0.1033536 -0.6017118 -0.5202714
v 0.1223566 -0.02537903 -0.5775965
v 0.1223568 -0.02726188 -0.6158718
v 0.1223568 -0.02726188 -0.6158718
v 0.1223566 -0.02537903 -0.5775965
v 0.1463681 0.5109706 -0.5385312
v 0.1463678 0.5824322 -0.5566567
v 0.1463678 0.5824322 -0.5566567
v 0.1463681 0.5109706 -0.5385312
v 0.1197212 0.5649858 0.5985209
v 0.1197215 0.6350483 0.6125542
v 0.1233811 0.03565305 0.6356148
v 0.1233812 0.04234355 0.6738902
v 0.1233812 0.04234355 0.6738902
v 0.1233811 0.03565305 0.6356148
v 0.17433 -0.5693784 0.6084127
v 0.1743297 -0.6395808 0.6365603
v 0.17433 -0.5693784 0.6084127
v 0.1069734 -0.5693787 0.608412
v 0.03599707 -0.6017117 -0.5202713
v 0.1033536 -0.6017118 -0.5202714
v 0.1033536 -0.6017118 -0.5202714
v 0.03599707 -0.6017117 -0.5202713
v 0.05500008 -0.02537894 -0.5775965
v 0.1223566 -0.02537903 -0.5775965
v 0.1223566 -0.02537903 -0.5775965
v 0.05500008 -0.02537894 -0.5775965
v 0.07901158 0.5109703 -0.5385311
v 0.1463681 0.5109706 -0.5385312
v 0.1463681 0.5109706 -0.5385312
v 0.07901158 0.5109703 -0.5385311
v 0.05236464 0.5649863 0.5985209
v 0.1197212 0.5649858 0.5985209
v 0.1197212 0.5649858 0.5985209
v 0.05236464 0.5649863 0.5985209
v 0.05602454 0.03565314 0.6356149
v 0.1233811 0.03565305 0.6356148
v 0.1233811 0.03565305 0.6356148
v 0.05602454 0.03565314 0.6356149
v 0.1069734 -0.5693787 0.608412
v 0.17433 -0.5693784 0.6084127
v 0.05221354 -0.6174121 0.08020804
v 0.05221341 -0.02385936 0.01832888
v 0.09023938 -0.02385949 0.01832853
v 0.09023948 -0.6174123 0.08020851
v 0.05427453 -0.04286792 0.6490044
v 0.05427413 0.00401986 0.6490045
v 0.09230009 0.004019735 0.6490042
v 0.09230049 -0.04286804 0.649004
v 0.05221384 0.02302834 0.01832902
v 0.05316726 0.5770285 0.00352806
v 0.09119242 0.5770288 0.003527689
v 0.09023898 0.02302829 0.01832865
v 0.05316726 0.5770285 0.00352806
v 0.05316705 0.5770282 -0.03449777
v 0.09119302 0.5770285 -0.03449812
v 0.09119242 0.5770288 0.003527689
v 0.05316705 0.5770282 -0.03449777
v 0.05221363 0.0230281 -0.01969681
v 0.0902396 0.02302838 -0.01969716
v 0.09119302 0.5770285 -0.03449812
v 0.05325057 0.01302671 -0.5923544
v 0.05325016 -0.03386059 -0.5923545
v 0.0912761 -0.0338607 -0.592354
v 0.09127571 0.01302708 -0.5923539
v 0.05221321 -0.0238592 -0.01969695
v 0.05221334 -0.617412 0.04218221
v 0.09023928 -0.6174121 0.04218268
v 0.09023917 -0.02385932 -0.0196973
v 0.05221334 -0.617412 0.04218221
v 0.05221354 -0.6174121 0.08020804
v 0.09023948 -0.6174123 0.08020851
v 0.09023928 -0.6174121 0.04218268
v 0.09023948 -0.6174123 0.08020851
v 0.09023938 -0.02385949 0.01832853
v 0.09023917 -0.02385932 -0.0196973
v 0.09023928 -0.6174121 0.04218268
v 0.0902396 0.02302838 -0.01969716
v 0.09023898 0.02302829 0.01832865
v 0.09119302 0.5770285 -0.03449812
v 0.09119242 0.5770288 0.003527689
v 0.05221334 -0.617412 0.04218221
v 0.05221321 -0.0238592 -0.01969695
v 0.05221341 -0.02385936 0.01832888
v 0.05221354 -0.6174121 0.08020804
v 0.05221384 0.02302834 0.01832902
v 0.05221363 0.0230281 -0.01969681
v 0.05316726 0.5770285 0.00352806
v 0.05316705 0.5770282 -0.03449777
v 0.05221341 -0.02385936 0.01832888
v 0.05427453 -0.04286792 0.6490044
v 0.09230049 -0.04286804 0.649004
v 0.09023938 -0.02385949 0.01832853
v 0.09023938 -0.02385949 0.01832853
v 0.09230049 -0.04286804 0.649004
v 0.09230009 0.004019735 0.6490042
v 0.09023898 0.02302829 0.01832865
v 0.09023898 0.02302829 0.01832865
v 0.09230009 0.004019735 0.6490042
v 0.05427413 0.00401986 0.6490045
v 0.05221384 0.02302834 0.01832902
v 0.05221384 0.02302834 0.01832902
v 0.05427413 0.00401986 0.6490045
v 0.05427453 -0.04286792 0.6490044
v 0.05221341 -0.02385936 0.01832888
v 0.05221363 0.0230281 -0.01969681
v 0.05325057 0.01302671 -0.5923544
v 0.09127571 0.01302708 -0.5923539
v 0.0902396 0.02302838 -0.01969716
v 0.0902396 0.02302838 -0.01969716
v 0.09127571 0.01302708 -0.5923539
v 0.0912761 -0.0338607 -0.592354
v 0.09023917 -0.02385932 -0.0196973
v 0.09023917 -0.02385932 -0.0196973
v 0.0912761 -0.0338607 -0.592354
v 0.05325016 -0.03386059 -0.5923545
v 0.05221321 -0.0238592 -0.01969695
v 0.05221321 -0.0238592 -0.01969695
v 0.05325016 -0.03386059 -0.5923545
v 0.05325057 0.01302671 -0.5923544
v 0.05221363 0.0230281 -0.01969681

vn -0.02395829 -0.01035866 -0.9996593
vn -0.02395829 -0.01035866 -0.9996593
vn -0.02395829 -0.01035866 -0.9996593
vn -0.02395829 -0.01035866 -0.9996593
vn -0.02395829 -0.01035866 -0.9996593
vn -0.02395829 -0.01035866 -0.9996593
vn -0.01013093 -0.9962238 0.08622958
vn -0.01013094 -0.9962238 0.08622958
vn -0.01013093 -0.9962238 0.08622958
vn -0.01013094 -0.9962238 0.08622958
vn 0.9931524 -0.1159804 -0.01402957
vn 0.9931524 -0.1159804 -0.01402957
vn 0.9931524 -0.1159804 -0.01402957
vn 0.9931524 -0.1159804 -0.01402957
vn 0.9921089 0.1113384 -0.05765048
vn 0.9921089 0.1113384 -0.05765048
vn 0.9921089 0.1113384 -0.05765048
vn 0.9921089 0.1113384 -0.05765048
vn -0.001908284 0.9986683 0.0515551
vn -0.001908284 0.9986683 0.0515551
vn -0.001908283 0.9986683 0.05155514
vn -0.001908282 0.9986683 0.05155514
vn -0.9950892 0.09773632 0.0156511
vn -0.9950892 0.09773632 0.0156511
vn -0.9950892 0.09773632 0.0156511
vn -0.9950892 0.09773632 0.0156511
vn -0.9977913 -0.05961611 0.02929764
vn -0.9977913 -0.05961611 0.02929764
vn -0.9977913 -0.05961611 0.02929764
vn -0.9977913 -0.05961611 0.02929764
vn 0.08563884 0.02160792 0.9960919
vn 0.08563884 0.02160792 0.9960919
vn 0.08563884 0.02160792 0.9960919
vn 0.08563884 0.02160792 0.9960919
vn -0.01140617 -0.0009268453 0.9999345
vn -0.01140616 -0.0009268431 0.9999345
vn -0.01140616 -0.0009268431 0.9999345
vn -0.01140617 -0.0009268453 0.9999345
vn 0.07136738 -0.01128689 0.9973863
vn 0.07136738 -0.01128689 0.9973863
vn 0.07136738 -0.01128689 0.9973863
vn 0.07136737 -0.01128689 0.9973863
vn 0.001090056 0.02685791 0.9996387
vn 0.001090056 0.02685791 0.9996387
vn 0.001090054 0.02685791 0.9996387
vn 0.001090056 0.02685791 0.9996387
vn 0.03257685 0.03214159 0.9989523
vn 0.03257685 0.03214159 0.9989523
vn -0.04943022 0.1013715 0.9936199
vn -0.04943023 0.1013715 0.9936199
vn -0.04943023 0.1013715 0.9936199
vn -0.04943022 0.1013715 0.9936199
vn 0.01015242 0.9962235 -0.08623007
vn 0.01015242 0.9962235 -0.08623007
vn 0.01015242 0.9962235 -0.08623007
vn 0.01015242 0.9962235 -0.08623007
vn -0.9954634 0.09379097 0.01600068
vn -0.9954634 0.09379099 0.01600068
vn -0.9954634 0.09379097 0.01600068
vn -0.9954634 0.09379099 0.01600068
vn -0.9965081 -0.07760055 0.03081882
vn -0.9965081 -0.07760056 0.03081882
vn -0.9965081 -0.07760055 0.03081882
vn -0.9965081 -0.07760056 0.03081882
vn -0.02893785 -0.9958185 0.08664983
vn -0.02893785 -0.9958185 0.08664983
vn -0.02893785 -0.9958185 0.08664983
vn -0.02893785 -0.9958185 0.08664983
vn 0.997726 -0.06479632 -0.01855799
vn 0.997726 -0.06479634 -0.01855798
vn 0.997726 -0.06479632 -0.01855799
vn 0.997726 -0.06479634 -0.01855798
vn 0.9983496 0.04987416 -0.02847032
vn 0.9983496 0.04987416 -0.02847032
vn 0.9983496 0.04987416 -0.02847032
vn 0.9983496 0.04987416 -0.02847032
vn -0.9950159 0.09849072 0.01558422
vn -0.9950159 0.09849072 0.01558422
vn -0.9950159 0.09849072 0.01558422
vn -0.9950159 0.09849072 0.01558422
vn -0.9996843 -0.004989968 0.02462866
vn -0.9996843 -0.004989968 0.02462866
vn -0.9996843 -0.004989968 0.02462866
vn -0.9996843 -0.004989968 0.02462866
vn -0.9995157 0.02168158 0.02232255
vn -0.9995157 0.02168158 0.02232255
vn -0.9995157 0.02168158 0.02232255
vn -0.9995157 0.02168158 0.02232255
vn -0.01840739 0.9961652 -0.08553373
vn -0.01840739 0.9961652 -0.08553373
vn -0.01840739 0.9961652 -0.08553373
vn -0.01840739 0.9961652 -0.08553373
vn 0.9995157 -0.02168158 -0.02232255
vn 0.9995157 -0.02168158 -0.02232255
vn 0.9995157 -0.02168158 -0.02232255
vn 0.9995157 -0.02168158 -0.02232255
vn 0.9996843 0.004989968 -0.02462866
vn 0.9996843 0.004989968 -0.02462866
vn 0.9996843 0.004989968 -0.02462866
vn 0.9996843 0.004989968 -0.02462866
vn 0.9950159 -0.09849072 -0.01558422
vn 0.9950159 -0.09849072 -0.01558422
vn 0.9950159 -0.09849072 -0.01558422
vn 0.9950159 -0.09849072 -0.01558422
vn 0.01840739 -0.9961652 0.08553373
vn 0.01840739 -0.9961652 0.08553373
vn 0.01840739 -0.9961652 0.08553373
vn 0.01840739 -0.9961652 0.08553373
vn 0.0241901 0.02631236 0.999361
vn 0.0241901 0.02631236 0.999361
vn 0.0241901 0.02631236 0.999361
vn 0.0241901 0.02631236 0.999361
vn 0.02421711 0.02472185 0.999401
vn 0.02421704 0.02472607 0.999401
vn 0.02421935 0.0245895 0.9994042
vn 0.02421935 0.0245895 0.9994042
vn -0.0241901 -0.02631236 -0.999361
vn -0.0241901 -0.02631236 -0.999361
vn -0.0241901 -0.02631236 -0.999361
vn -0.0241901 -0.02631236 -0.999361
vn -0.02421704 -0.02472607 -0.999401
vn -0.02421711 -0.02472185 -0.999401
vn -0.02421935 -0.0245895 -0.9994042
vn -0.02421935 -0.0245895 -0.9994042
vn 0.04841855 -0.9952272 0.08472633
vn 0.04841856 -0.9952272 0.08472633
vn 0.04841855 -0.9952272 0.08472633
vn 0.04841856 -0.9952272 0.08472633
vn 0.02745917 0.02632856 0.9992761
vn 0.02745917 0.02632856 0.9992761
vn 0.02745917 0.02632856 0.9992761
vn 0.02745917 0.02632856 0.9992761
vn -0.04841791 0.9952272 -0.08472634
vn -0.04841791 0.9952272 -0.08472634
vn -0.04841791 0.9952272 -0.08472634
vn -0.04841791 0.9952272 -0.08472634
vn -0.02745917 -0.02632856 -0.9992761
vn -0.02745917 -0.02632856 -0.9992761
vn -0.02745917 -0.02632856 -0.9992761
vn -0.02745917 -0.02632856 -0.9992761
vn -0.0009948912 0.9962975 -0.08596663
vn -0.0009948934 0.9962975 -0.08596663
vn -0.0009948912 0.9962975 -0.08596663
vn -0.0009948934 0.9962975 -0.08596663
vn 0.02237884 0.02630326 0.9994035
vn 0.02237884 0.02630326 0.9994035
vn 0.02237884 0.02630326 0.9994035
vn 0.02237884 0.02630326 0.9994035
vn 0.0009951537 -0.9962975 0.08596662
vn 0.0009951515 -0.9962975 0.08596663
vn 0.0009951537 -0.9962975 0.08596662
vn 0.0009951515 -0.9962975 0.08596663
vn -0.02237884 -0.02630326 -0.9994035
vn -0.02237884 -0.02630326 -0.9994035
vn -0.02237884 -0.02630326 -0.9994035
vn -0.02237884 -0.02630326 -0.9994035

vt 0.0859375 0
vt 0.3999023 0
vt 0.5371094 0.4909668
vt 0 0.5356445
vt 0.3818359 1
vt 0.1571045 0.9838867
vt 0.0859375 0
vt 0.0859375 0
vt 0.3999023 0
vt 0.3999023 0
vt 0.3999023 0
vt 0.3999023 0
vt 0.5371094 0.4909668
vt 0.5371094 0.4909668
vt 0.5371094 0.4909668
vt 0.5371094 0.4909668
vt 0.3818359 1
vt 0.3818359 1
vt 0.3818359 1
vt 0.3818359 1
vt 0.1571045 0.9838867
vt 0.1571045 0.9838867
vt 0.1571045 0.9838867
vt 0.1571045 0.9838867
vt 0 0.5356445
vt 0 0.5356445
vt 0 0.5356445
vt 0 0.5356445
vt 0.0859375 0
vt 0.0859375 0
vt 0.0859375 0
vt 0.0859375 0
vt 0.3999023 0
vt 0.3999023 0
vt 0.3999023 0
vt 0.3999023 0
vt 0.5371094 0.4909668
vt 0.5371094 0.4909668
vt 0.5371094 0.4909668
vt 0.5371094 0.4909668
vt 0.3818359 1
vt 0.3818359 1
vt 0.3818359 1
vt 0.3818359 1
vt 0.1571045 0.9838867
vt 0.1571045 0.9838867
vt 0 0.5356445
vt 0 0.5356445
vt 0 0.5356445
vt 0 0.5356445
vt 0.0859375 0
vt 0.0859375 0
vt 0.0859375 0
vt 0.0859375 0
vt 0.3999023 0
vt 0.3999023 0
vt 0.3999023 0
vt 0.3999023 0
vt 0.5371094 0.4909668
vt 0.5371094 0.4909668
vt 0.5371094 0.4909668
vt 0.5371094 0.4909668
vt 0.3818359 1
vt 0.3818359 1
vt 0.3818359 1
vt 0.3818359 1
vt 0.1571045 0.9838867
vt 0.1571045 0.9838867
vt 0.1571045 0.9838867
vt 0.1571045 0.9838867
vt 0 0.5356445
vt 0 0.5356445
vt 0 0.5356445
vt 0 0.5356445
vt 0.0859375 0
vt 0.0859375 0
vt 0.375 0
vt 0.375 0.08331299
vt 0.625 0.08331299
vt 0.625 0
vt 0.375 0.08331299
vt 0.375 0.166626
vt 0.625 0.166626
vt 0.625 0.08331299
vt 0.375 0.166626
vt 0.375 0.25
vt 0.625 0.25
vt 0.625 0.166626
vt 0.375 0.25
vt 0.375 0.5
vt 0.625 0.5
vt 0.625 0.25
vt 0.375 0.5
vt 0.375 0.5834961
vt 0.625 0.5834961
vt 0.625 0.5
vt 0.375 0.5834961
vt 0.375 0.6665039
vt 0.625 0.6665039
vt 0.625 0.5834961
vt 0.375 0.6665039
vt 0.375 0.75
vt 0.625 0.75
vt 0.625 0.6665039
vt 0.375 0.75
vt 0.375 1
vt 0.625 1
vt 0.625 0.75
vt 0.625 0
vt 0.625 0.08331299
vt 0.875 0.08331299
vt 0.875 0
vt 0.875 0.166626
vt 0.625 0.166626
vt 0.875 0.25
vt 0.625 0.25
vt 0.125 0
vt 0.125 0.08331299
vt 0.375 0.08331299
vt 0.375 0
vt 0.375 0.166626
vt 0.125 0.166626
vt 0.375 0.25
vt 0.125 0.25
vt 0.375 0.08331299
vt 0.375 0.08331299
vt 0.625 0.08331299
vt 0.625 0.08331299
vt 0.625 0.08331299
vt 0.625 0.08331299
vt 0.625 0.166626
vt 0.625 0.166626
vt 0.625 0.166626
vt 0.625 0.166626
vt 0.375 0.166626
vt 0.375 0.166626
vt 0.375 0.166626
vt 0.375 0.166626
vt 0.375 0.08331299
vt 0.375 0.08331299
vt 0.375 0.5834961
vt 0.375 0.5834961
vt 0.625 0.5834961
vt 0.625 0.5834961
vt 0.625 0.5834961
vt 0.625 0.5834961
vt 0.625 0.6665039
vt 0.625 0.6665039
vt 0.625 0.6665039
vt 0.625 0.6665039
vt 0.375 0.6665039
vt 0.375 0.6665039
vt 0.375 0.6665039
vt 0.375 0.6665039
vt 0.375 0.5834961
vt 0.375 0.5834961

g polySurface31_2043_117
usemtl polySurface31_2043_117
usemap polySurface31_2043_117
f 1/1/1 3/3/3 2/2/2
f 3/3/3 1/1/1 4/4/4
f 3/3/3 4/4/4 5/5/5
f 5/5/5 4/4/4 6/6/6
f 7/7/7 9/9/9 8/8/8
f 7/7/7 10/10/10 9/9/9
f 11/11/11 13/13/13 12/12/12
f 11/11/11 14/14/14 13/13/13
f 15/15/15 17/17/17 16/16/16
f 15/15/15 18/18/18 17/17/17
f 19/19/19 21/21/21 20/20/20
f 19/19/19 22/22/22 21/21/21
f 23/23/23 25/25/25 24/24/24
f 23/23/23 26/26/26 25/25/25
f 27/27/27 29/29/29 28/28/28
f 27/27/27 30/30/30 29/29/29
f 31/31/31 33/33/33 32/32/32
f 31/31/31 34/34/34 33/33/33
f 35/35/35 37/37/37 36/36/36
f 35/35/35 38/38/38 37/37/37
f 39/39/39 41/41/41 40/40/40
f 39/39/39 42/42/42 41/41/41
f 43/43/43 45/45/45 44/44/44
f 43/43/43 46/46/46 45/45/45
f 46/46/46 47/47/47 45/45/45
f 46/46/46 48/48/48 47/47/47
f 49/49/49 51/51/51 50/50/50
f 49/49/49 52/52/52 51/51/51
f 53/53/53 55/55/55 54/54/54
f 53/53/53 56/56/56 55/55/55
f 57/57/57 59/59/59 58/58/58
f 57/57/57 60/60/60 59/59/59
f 61/61/61 63/63/63 62/62/62
f 61/61/61 64/64/64 63/63/63
f 65/65/65 67/67/67 66/66/66
f 65/65/65 68/68/68 67/67/67
f 69/69/69 71/71/71 70/70/70
f 69/69/69 72/72/72 71/71/71
f 73/73/73 75/75/75 74/74/74
f 73/73/73 76/76/76 75/75/75
f 77/77/77 79/79/79 78/78/78
f 77/77/77 80/80/80 79/79/79
f 81/81/81 83/83/83 82/82/82
f 81/81/81 84/84/84 83/83/83
f 85/85/85 87/87/87 86/86/86
f 85/85/85 88/88/88 87/87/87
f 89/89/89 91/91/91 90/90/90
f 89/89/89 92/92/92 91/91/91
f 93/93/93 95/95/95 94/94/94
f 93/93/93 96/96/96 95/95/95
f 97/97/97 99/99/99 98/98/98
f 97/97/97 100/100/100 99/99/99
f 101/101/101 103/103/103 102/102/102
f 101/101/101 104/104/104 103/103/103
f 105/105/105 107/107/107 106/106/106
f 105/105/105 108/108/108 107/107/107
f 109/109/109 111/111/111 110/110/110
f 109/109/109 112/112/112 111/111/111
f 110/110/110 111/111/111 113/113/113
f 110/110/110 113/113/113 114/114/114
f 114/114/114 113/113/113 115/115/115
f 114/114/114 115/115/115 116/116/116
f 117/117/117 119/119/119 118/118/118
f 117/117/117 120/120/120 119/119/119
f 118/118/118 119/119/119 121/121/121
f 118/118/118 121/121/121 122/122/122
f 122/122/122 121/121/121 123/123/123
f 122/122/122 123/123/123 124/124/124
f 125/125/125 127/127/127 126/126/126
f 125/125/125 128/128/128 127/127/127
f 129/129/129 131/131/131 130/130/130
f 129/129/129 132/132/132 131/131/131
f 133/133/133 135/135/135 134/134/134
f 133/133/133 136/136/136 135/135/135
f 137/137/137 139/139/139 138/138/138
f 137/137/137 140/140/140 139/139/139
f 141/141/141 143/143/143 142/142/142
f 141/141/141 144/144/144 143/143/143
f 145/145/145 147/147/147 146/146/146
f 145/145/145 148/148/148 147/147/147
f 149/149/149 151/151/151 150/150/150
f 149/149/149 152/152/152 151/151/151
f 153/153/153 155/155/155 154/154/154
f 153/153/153 156/156/156 155/155/155
