#polySurface7_1969_109.obj

v 0.05396372 -0.01538249 -0.3126705
v 0.05396353 -0.5837828 -0.1365171
v 0.05396362 -0.5734918 0.2299405
v 0.05396358 0.05465668 0.3126698
v 0.05396365 0.58378 -0.1480732
v 0.05396372 0.5723452 0.1146439

vn 0.9999641 1.397034E-09 0.008470675
vn 0.9999641 1.397034E-09 0.008470675
vn 0.9999641 1.397034E-09 0.008470675
vn 0.9999641 1.397034E-09 0.008470675
vn 0.9999641 1.397034E-09 0.008470675
vn 0.9999641 1.397034E-09 0.008470675

vt 0.5371094 0.4909668
vt 0.3999023 0
vt 0.0859375 0
vt 0 0.5356445
vt 0.3818359 1
vt 0.1571045 0.9838867

g polySurface7_1969_109
usemtl polySurface7_1969_109
usemap polySurface7_1969_109
f 1/1/1 3/3/3 2/2/2
f 3/3/3 1/1/1 4/4/4
f 4/4/4 1/1/1 5/5/5
f 4/4/4 5/5/5 6/6/6
