#polySurface18_1960_14.obj

v -0.06830988 -0.6395869 0.6365615
v -0.1392866 -0.6731799 -0.536982
v -0.1202833 -0.02726799 -0.6158717
v -0.1192592 0.04233757 0.6738905
v -0.08432993 0.666751 -0.5718583
v -0.1229182 0.6350424 0.6125548
v -0.06830988 -0.6395869 0.6365615
v 0.1743307 -0.6395869 0.6365601
v 0.1033539 -0.6731799 -0.5369818
v -0.1392866 -0.6731799 -0.536982
v -0.1392866 -0.6731799 -0.536982
v 0.1033539 -0.6731799 -0.5369818
v 0.1223572 -0.02726797 -0.6158714
v -0.1202833 -0.02726799 -0.6158717
v -0.1202833 -0.02726799 -0.6158717
v 0.1223572 -0.02726797 -0.6158714
v 0.1463687 0.5824261 -0.5566567
v -0.08432993 0.666751 -0.5718583
v -0.08432993 0.666751 -0.5718583
v 0.1463687 0.5824261 -0.5566567
v 0.1197223 0.6350425 0.612555
v -0.1229182 0.6350424 0.6125548
v -0.1229182 0.6350424 0.6125548
v 0.1197223 0.6350425 0.612555
v 0.1233814 0.04233759 0.6738907
v -0.1192592 0.04233757 0.6738905
v -0.1192592 0.04233757 0.6738905
v 0.1233814 0.04233759 0.6738907
v 0.1743307 -0.6395869 0.6365601
v -0.06830988 -0.6395869 0.6365615
v 0.1743307 -0.6395869 0.6365601
v 0.1743304 -0.5693843 0.608413
v 0.103354 -0.6017175 -0.5202704
v 0.1033539 -0.6731799 -0.5369818
v 0.1033539 -0.6731799 -0.5369818
v 0.103354 -0.6017175 -0.5202704
v 0.1223578 -0.02538501 -0.5775968
v 0.1223572 -0.02726797 -0.6158714
v 0.1223572 -0.02726797 -0.6158714
v 0.1223578 -0.02538501 -0.5775968
v 0.1463686 0.5109642 -0.5385294
v 0.1463687 0.5824261 -0.5566567
v 0.1463687 0.5824261 -0.5566567
v 0.1463686 0.5109642 -0.5385294
v 0.1197219 0.5649801 0.5985207
v 0.1197223 0.6350425 0.612555
v 0.1233815 0.03564711 0.6356159
v 0.1233814 0.04233759 0.6738907
v 0.1233814 0.04233759 0.6738907
v 0.1233815 0.03564711 0.6356159
v 0.1743304 -0.5693843 0.608413
v 0.1743307 -0.6395869 0.6365601
v 0.1743304 -0.5693843 0.608413
v 0.106974 -0.5693845 0.6084124
v 0.03599765 -0.6017177 -0.5202711
v 0.103354 -0.6017175 -0.5202704
v 0.103354 -0.6017175 -0.5202704
v 0.03599765 -0.6017177 -0.5202711
v 0.05500063 -0.02538488 -0.5775958
v 0.1223578 -0.02538501 -0.5775968
v 0.1223578 -0.02538501 -0.5775968
v 0.05500063 -0.02538488 -0.5775958
v 0.07901221 0.5109645 -0.5385301
v 0.1463686 0.5109642 -0.5385294
v 0.1463686 0.5109642 -0.5385294
v 0.07901221 0.5109645 -0.5385301
v 0.05236554 0.5649797 0.5985216
v 0.1197219 0.5649801 0.5985207
v 0.1197219 0.5649801 0.5985207
v 0.05236554 0.5649797 0.5985216
v 0.05602513 0.03564704 0.6356153
v 0.1233815 0.03564711 0.6356159
v 0.1233815 0.03564711 0.6356159
v 0.05602513 0.03564704 0.6356153
v 0.106974 -0.5693845 0.6084124
v 0.1743304 -0.5693843 0.608413
v 0.05221396 -0.6174181 0.08020908
v 0.0522141 -0.02386521 0.01832989
v 0.09023999 -0.02386522 0.01832956
v 0.09023985 -0.6174181 0.08020876
v 0.05427485 -0.04287383 0.6490052
v 0.05427551 0.004013726 0.6490057
v 0.09230055 0.004013511 0.6490054
v 0.09230074 -0.04287384 0.6490048
v 0.0522139 0.02302215 0.01832883
v 0.05316762 0.5770223 0.003528998
v 0.09119354 0.5770226 0.00352867
v 0.09023979 0.02302214 0.0183285
v 0.05316762 0.5770223 0.003528998
v 0.05316777 0.5770224 -0.03449724
v 0.09119363 0.577022 -0.03449757
v 0.09119354 0.5770226 0.00352867
v 0.05316777 0.5770224 -0.03449724
v 0.05221406 0.02302234 -0.01969577
v 0.09023995 0.02302233 -0.0196961
v 0.09119363 0.577022 -0.03449757
v 0.05325085 0.01302078 -0.5923528
v 0.05325104 -0.03386657 -0.5923534
v 0.09127693 -0.03386658 -0.5923537
v 0.09127674 0.01302077 -0.5923532
v 0.05221422 -0.02386541 -0.01969635
v 0.0522141 -0.6174179 0.04218284
v 0.09023996 -0.6174183 0.04218252
v 0.09024011 -0.02386542 -0.01969668
v 0.0522141 -0.6174179 0.04218284
v 0.05221396 -0.6174181 0.08020908
v 0.09023985 -0.6174181 0.08020876
v 0.09023996 -0.6174183 0.04218252
v 0.09023985 -0.6174181 0.08020876
v 0.09023999 -0.02386522 0.01832956
v 0.09024011 -0.02386542 -0.01969668
v 0.09023996 -0.6174183 0.04218252
v 0.09023995 0.02302233 -0.0196961
v 0.09023979 0.02302214 0.0183285
v 0.09119363 0.577022 -0.03449757
v 0.09119354 0.5770226 0.00352867
v 0.0522141 -0.6174179 0.04218284
v 0.05221422 -0.02386541 -0.01969635
v 0.0522141 -0.02386521 0.01832989
v 0.05221396 -0.6174181 0.08020908
v 0.0522139 0.02302215 0.01832883
v 0.05221406 0.02302234 -0.01969577
v 0.05316762 0.5770223 0.003528998
v 0.05316777 0.5770224 -0.03449724
v 0.0522141 -0.02386521 0.01832989
v 0.05427485 -0.04287383 0.6490052
v 0.09230074 -0.04287384 0.6490048
v 0.09023999 -0.02386522 0.01832956
v 0.09023999 -0.02386522 0.01832956
v 0.09230074 -0.04287384 0.6490048
v 0.09230055 0.004013511 0.6490054
v 0.09023979 0.02302214 0.0183285
v 0.09023979 0.02302214 0.0183285
v 0.09230055 0.004013511 0.6490054
v 0.05427551 0.004013726 0.6490057
v 0.0522139 0.02302215 0.01832883
v 0.0522139 0.02302215 0.01832883
v 0.05427551 0.004013726 0.6490057
v 0.05427485 -0.04287383 0.6490052
v 0.0522141 -0.02386521 0.01832989
v 0.05221406 0.02302234 -0.01969577
v 0.05325085 0.01302078 -0.5923528
v 0.09127674 0.01302077 -0.5923532
v 0.09023995 0.02302233 -0.0196961
v 0.09023995 0.02302233 -0.0196961
v 0.09127674 0.01302077 -0.5923532
v 0.09127693 -0.03386658 -0.5923537
v 0.09024011 -0.02386542 -0.01969668
v 0.09024011 -0.02386542 -0.01969668
v 0.09127693 -0.03386658 -0.5923537
v 0.05325104 -0.03386657 -0.5923534
v 0.05221422 -0.02386541 -0.01969635
v 0.05221422 -0.02386541 -0.01969635
v 0.05325104 -0.03386657 -0.5923534
v 0.05325085 0.01302078 -0.5923528
v 0.05221406 0.02302234 -0.01969577

vn -0.9972312 -0.07433698 -0.001963253
vn -0.9972312 -0.07433698 -0.001963252
vn -0.9972312 -0.07433698 -0.001963252
vn -0.9972312 -0.07433698 -0.001963252
vn -0.9972312 -0.07433698 -0.001963252
vn -0.9972312 -0.07433698 -0.001963252
vn 0.2386469 -0.9704862 0.03470341
vn 0.2386469 -0.9704862 0.03470341
vn 0.2386469 -0.9704862 0.03470341
vn 0.2386469 -0.9704862 0.03470341
vn 0.03950763 -0.1214713 -0.9918084
vn 0.03950763 -0.1214713 -0.9918084
vn 0.03950763 -0.1214713 -0.9918084
vn 0.03950763 -0.1214713 -0.9918084
vn 0.03649213 0.07814142 -0.9962742
vn 0.03649212 0.07814141 -0.9962742
vn 0.03649212 0.07814141 -0.9962742
vn 0.03649212 0.07814141 -0.9962742
vn -0.06682783 0.9977241 -0.00898216
vn -0.06682783 0.9977241 -0.00898216
vn -0.06682784 0.9977241 -0.00898216
vn -0.06682783 0.9977241 -0.00898216
vn -0.03506467 0.1033416 0.9940276
vn -0.03506467 0.1033416 0.9940276
vn -0.03506467 0.1033416 0.9940276
vn -0.03506467 0.1033416 0.9940276
vn 0.003342737 -0.05280687 0.9985992
vn 0.003342737 -0.05280687 0.9985992
vn 0.003342737 -0.05280687 0.9985992
vn 0.003342737 -0.05280687 0.9985992
vn 0.9962093 0.06967529 -0.05207976
vn 0.9962093 0.06967529 -0.05207976
vn 0.9962093 0.06967529 -0.05207976
vn 0.9962093 0.06967529 -0.05207976
vn 0.9978065 0.04768939 0.0459123
vn 0.9978065 0.04768939 0.04591229
vn 0.9978065 0.04768939 0.04591229
vn 0.9978065 0.04768939 0.0459123
vn 0.9986455 0.03675025 -0.0368319
vn 0.9986455 0.03675025 -0.0368319
vn 0.9986455 0.03675025 -0.0368319
vn 0.9986455 0.03675025 -0.0368319
vn 0.9965974 0.07559006 0.03286037
vn 0.9965974 0.07559006 0.03286037
vn 0.9965974 0.07559006 0.03286037
vn 0.9965974 0.07559006 0.03286037
vn 0.9967353 0.08073157 0.00107465
vn 0.9967353 0.08073157 0.00107465
vn 0.9850228 0.1514449 0.0824286
vn 0.9850228 0.1514449 0.08242862
vn 0.9850228 0.1514449 0.08242862
vn 0.9850228 0.1514449 0.0824286
vn -0.2386465 0.9704854 -0.0347245
vn -0.2386465 0.9704854 -0.0347245
vn -0.2386465 0.9704854 -0.0347245
vn -0.2386465 0.9704854 -0.0347245
vn -0.03410352 0.09942146 0.9944608
vn -0.03410352 0.09942148 0.9944608
vn -0.03410352 0.09942146 0.9944608
vn -0.03410352 0.09942148 0.9944608
vn 0.007739531 -0.07061761 0.9974734
vn 0.007739533 -0.07061762 0.9974734
vn 0.007739531 -0.07061761 0.9974734
vn 0.007739533 -0.07061762 0.9974734
vn 0.2382846 -0.9697397 0.05315488
vn 0.2382846 -0.9697397 0.05315487
vn 0.2382846 -0.9697397 0.05315488
vn 0.2382846 -0.9697397 0.05315487
vn 0.02703639 -0.07061738 -0.997137
vn 0.0270364 -0.0706174 -0.997137
vn 0.02703639 -0.07061738 -0.997137
vn 0.0270364 -0.0706174 -0.997137
vn -0.0009614821 0.04315523 -0.9990679
vn -0.0009614821 0.04315523 -0.9990679
vn -0.0009614821 0.04315523 -0.9990679
vn -0.0009614821 0.04315523 -0.9990679
vn -0.03524844 0.1040912 0.993943
vn -0.03524844 0.1040912 0.993943
vn -0.03524844 0.1040912 0.993943
vn -0.03524844 0.1040912 0.993943
vn -0.01000506 0.00134426 0.999949
vn -0.01000506 0.00134426 0.999949
vn -0.01000506 0.00134426 0.999949
vn -0.01000506 0.00134426 0.999949
vn -0.01651744 0.02780897 0.9994767
vn -0.01651744 0.02780897 0.9994767
vn -0.01651744 0.02780897 0.9994767
vn -0.01651744 0.02780897 0.9994767
vn -0.2390413 0.9709865 -0.006670759
vn -0.2390413 0.9709865 -0.006670759
vn -0.2390413 0.9709865 -0.006670759
vn -0.2390413 0.9709865 -0.006670759
vn 0.01651744 -0.02780897 -0.9994767
vn 0.01651744 -0.02780897 -0.9994767
vn 0.01651744 -0.02780897 -0.9994767
vn 0.01651744 -0.02780897 -0.9994767
vn 0.01000506 -0.00134426 -0.999949
vn 0.01000506 -0.00134426 -0.999949
vn 0.01000506 -0.00134426 -0.999949
vn 0.01000506 -0.00134426 -0.999949
vn 0.03524844 -0.1040912 -0.993943
vn 0.03524844 -0.1040912 -0.993943
vn 0.03524844 -0.1040912 -0.993943
vn 0.03524844 -0.1040912 -0.993943
vn 0.2390413 -0.9709865 0.006670759
vn 0.2390413 -0.9709865 0.006670759
vn 0.2390413 -0.9709865 0.006670759
vn 0.2390413 -0.9709865 0.006670759
vn 0.9971441 0.07490481 0.009646904
vn 0.9971441 0.07490481 0.009646904
vn 0.9971441 0.07490481 0.009646904
vn 0.9971441 0.07490481 0.009646904
vn 0.9972632 0.07330061 0.009655165
vn 0.9972628 0.07330487 0.009655142
vn 0.9972729 0.07316715 0.00965585
vn 0.9972729 0.07316715 0.00965585
vn -0.9971441 -0.07490481 -0.009646904
vn -0.9971441 -0.07490481 -0.009646904
vn -0.9971441 -0.07490481 -0.009646904
vn -0.9971441 -0.07490481 -0.009646904
vn -0.9972628 -0.07330487 -0.009655142
vn -0.9972632 -0.07330061 -0.009655165
vn -0.9972729 -0.07316715 -0.00965585
vn -0.9972729 -0.07316715 -0.00965585
vn 0.2392535 -0.9706882 -0.02285487
vn 0.2392535 -0.9706882 -0.02285487
vn 0.2392535 -0.9706882 -0.02285487
vn 0.2392535 -0.9706882 -0.02285487
vn 0.9971708 0.07489992 0.006358483
vn 0.9971708 0.07489992 0.006358483
vn 0.9971708 0.07489992 0.006358483
vn 0.9971708 0.07489992 0.006358483
vn -0.2392535 0.9706882 0.02285424
vn -0.2392535 0.9706882 0.02285424
vn -0.2392535 0.9706882 0.02285424
vn -0.2392535 0.9706882 0.02285424
vn -0.9971708 -0.07489992 -0.006358483
vn -0.9971708 -0.07489992 -0.006358483
vn -0.9971708 -0.07489992 -0.006358483
vn -0.9971708 -0.07489992 -0.006358483
vn -0.238823 0.970772 -0.02377966
vn -0.238823 0.970772 -0.02377966
vn -0.238823 0.970772 -0.02377966
vn -0.238823 0.970772 -0.02377966
vn 0.9971246 0.07490715 0.01146873
vn 0.9971246 0.07490715 0.01146873
vn 0.9971246 0.07490715 0.01146873
vn 0.9971246 0.07490715 0.01146873
vn 0.238823 -0.970772 0.0237794
vn 0.238823 -0.970772 0.02377941
vn 0.238823 -0.970772 0.0237794
vn 0.238823 -0.970772 0.02377941
vn -0.9971246 -0.07490715 -0.01146873
vn -0.9971246 -0.07490715 -0.01146873
vn -0.9971246 -0.07490715 -0.01146873
vn -0.9971246 -0.07490715 -0.01146873

vt 0.0859375 0
vt 0.3999023 0
vt 0.5371094 0.4909668
vt 0 0.5356445
vt 0.3818359 1
vt 0.1571045 0.9838867
vt 0.0859375 0
vt 0.0859375 0
vt 0.3999023 0
vt 0.3999023 0
vt 0.3999023 0
vt 0.3999023 0
vt 0.5371094 0.4909668
vt 0.5371094 0.4909668
vt 0.5371094 0.4909668
vt 0.5371094 0.4909668
vt 0.3818359 1
vt 0.3818359 1
vt 0.3818359 1
vt 0.3818359 1
vt 0.1571045 0.9838867
vt 0.1571045 0.9838867
vt 0.1571045 0.9838867
vt 0.1571045 0.9838867
vt 0 0.5356445
vt 0 0.5356445
vt 0 0.5356445
vt 0 0.5356445
vt 0.0859375 0
vt 0.0859375 0
vt 0.0859375 0
vt 0.0859375 0
vt 0.3999023 0
vt 0.3999023 0
vt 0.3999023 0
vt 0.3999023 0
vt 0.5371094 0.4909668
vt 0.5371094 0.4909668
vt 0.5371094 0.4909668
vt 0.5371094 0.4909668
vt 0.3818359 1
vt 0.3818359 1
vt 0.3818359 1
vt 0.3818359 1
vt 0.1571045 0.9838867
vt 0.1571045 0.9838867
vt 0 0.5356445
vt 0 0.5356445
vt 0 0.5356445
vt 0 0.5356445
vt 0.0859375 0
vt 0.0859375 0
vt 0.0859375 0
vt 0.0859375 0
vt 0.3999023 0
vt 0.3999023 0
vt 0.3999023 0
vt 0.3999023 0
vt 0.5371094 0.4909668
vt 0.5371094 0.4909668
vt 0.5371094 0.4909668
vt 0.5371094 0.4909668
vt 0.3818359 1
vt 0.3818359 1
vt 0.3818359 1
vt 0.3818359 1
vt 0.1571045 0.9838867
vt 0.1571045 0.9838867
vt 0.1571045 0.9838867
vt 0.1571045 0.9838867
vt 0 0.5356445
vt 0 0.5356445
vt 0 0.5356445
vt 0 0.5356445
vt 0.0859375 0
vt 0.0859375 0
vt 0.375 0
vt 0.375 0.08331299
vt 0.625 0.08331299
vt 0.625 0
vt 0.375 0.08331299
vt 0.375 0.166626
vt 0.625 0.166626
vt 0.625 0.08331299
vt 0.375 0.166626
vt 0.375 0.25
vt 0.625 0.25
vt 0.625 0.166626
vt 0.375 0.25
vt 0.375 0.5
vt 0.625 0.5
vt 0.625 0.25
vt 0.375 0.5
vt 0.375 0.5834961
vt 0.625 0.5834961
vt 0.625 0.5
vt 0.375 0.5834961
vt 0.375 0.6665039
vt 0.625 0.6665039
vt 0.625 0.5834961
vt 0.375 0.6665039
vt 0.375 0.75
vt 0.625 0.75
vt 0.625 0.6665039
vt 0.375 0.75
vt 0.375 1
vt 0.625 1
vt 0.625 0.75
vt 0.625 0
vt 0.625 0.08331299
vt 0.875 0.08331299
vt 0.875 0
vt 0.875 0.166626
vt 0.625 0.166626
vt 0.875 0.25
vt 0.625 0.25
vt 0.125 0
vt 0.125 0.08331299
vt 0.375 0.08331299
vt 0.375 0
vt 0.375 0.166626
vt 0.125 0.166626
vt 0.375 0.25
vt 0.125 0.25
vt 0.375 0.08331299
vt 0.375 0.08331299
vt 0.625 0.08331299
vt 0.625 0.08331299
vt 0.625 0.08331299
vt 0.625 0.08331299
vt 0.625 0.166626
vt 0.625 0.166626
vt 0.625 0.166626
vt 0.625 0.166626
vt 0.375 0.166626
vt 0.375 0.166626
vt 0.375 0.166626
vt 0.375 0.166626
vt 0.375 0.08331299
vt 0.375 0.08331299
vt 0.375 0.5834961
vt 0.375 0.5834961
vt 0.625 0.5834961
vt 0.625 0.5834961
vt 0.625 0.5834961
vt 0.625 0.5834961
vt 0.625 0.6665039
vt 0.625 0.6665039
vt 0.625 0.6665039
vt 0.625 0.6665039
vt 0.375 0.6665039
vt 0.375 0.6665039
vt 0.375 0.6665039
vt 0.375 0.6665039
vt 0.375 0.5834961
vt 0.375 0.5834961

g polySurface18_1960_14
usemtl polySurface18_1960_14
usemap polySurface18_1960_14
f 1/1/1 3/3/3 2/2/2
f 3/3/3 1/1/1 4/4/4
f 3/3/3 4/4/4 5/5/5
f 5/5/5 4/4/4 6/6/6
f 7/7/7 9/9/9 8/8/8
f 7/7/7 10/10/10 9/9/9
f 11/11/11 13/13/13 12/12/12
f 11/11/11 14/14/14 13/13/13
f 15/15/15 17/17/17 16/16/16
f 15/15/15 18/18/18 17/17/17
f 19/19/19 21/21/21 20/20/20
f 19/19/19 22/22/22 21/21/21
f 23/23/23 25/25/25 24/24/24
f 23/23/23 26/26/26 25/25/25
f 27/27/27 29/29/29 28/28/28
f 27/27/27 30/30/30 29/29/29
f 31/31/31 33/33/33 32/32/32
f 31/31/31 34/34/34 33/33/33
f 35/35/35 37/37/37 36/36/36
f 35/35/35 38/38/38 37/37/37
f 39/39/39 41/41/41 40/40/40
f 39/39/39 42/42/42 41/41/41
f 43/43/43 45/45/45 44/44/44
f 43/43/43 46/46/46 45/45/45
f 46/46/46 47/47/47 45/45/45
f 46/46/46 48/48/48 47/47/47
f 49/49/49 51/51/51 50/50/50
f 49/49/49 52/52/52 51/51/51
f 53/53/53 55/55/55 54/54/54
f 53/53/53 56/56/56 55/55/55
f 57/57/57 59/59/59 58/58/58
f 57/57/57 60/60/60 59/59/59
f 61/61/61 63/63/63 62/62/62
f 61/61/61 64/64/64 63/63/63
f 65/65/65 67/67/67 66/66/66
f 65/65/65 68/68/68 67/67/67
f 69/69/69 71/71/71 70/70/70
f 69/69/69 72/72/72 71/71/71
f 73/73/73 75/75/75 74/74/74
f 73/73/73 76/76/76 75/75/75
f 77/77/77 79/79/79 78/78/78
f 77/77/77 80/80/80 79/79/79
f 81/81/81 83/83/83 82/82/82
f 81/81/81 84/84/84 83/83/83
f 85/85/85 87/87/87 86/86/86
f 85/85/85 88/88/88 87/87/87
f 89/89/89 91/91/91 90/90/90
f 89/89/89 92/92/92 91/91/91
f 93/93/93 95/95/95 94/94/94
f 93/93/93 96/96/96 95/95/95
f 97/97/97 99/99/99 98/98/98
f 97/97/97 100/100/100 99/99/99
f 101/101/101 103/103/103 102/102/102
f 101/101/101 104/104/104 103/103/103
f 105/105/105 107/107/107 106/106/106
f 105/105/105 108/108/108 107/107/107
f 109/109/109 111/111/111 110/110/110
f 109/109/109 112/112/112 111/111/111
f 110/110/110 111/111/111 113/113/113
f 110/110/110 113/113/113 114/114/114
f 114/114/114 113/113/113 115/115/115
f 114/114/114 115/115/115 116/116/116
f 117/117/117 119/119/119 118/118/118
f 117/117/117 120/120/120 119/119/119
f 118/118/118 119/119/119 121/121/121
f 118/118/118 121/121/121 122/122/122
f 122/122/122 121/121/121 123/123/123
f 122/122/122 123/123/123 124/124/124
f 125/125/125 127/127/127 126/126/126
f 125/125/125 128/128/128 127/127/127
f 129/129/129 131/131/131 130/130/130
f 129/129/129 132/132/132 131/131/131
f 133/133/133 135/135/135 134/134/134
f 133/133/133 136/136/136 135/135/135
f 137/137/137 139/139/139 138/138/138
f 137/137/137 140/140/140 139/139/139
f 141/141/141 143/143/143 142/142/142
f 141/141/141 144/144/144 143/143/143
f 145/145/145 147/147/147 146/146/146
f 145/145/145 148/148/148 147/147/147
f 149/149/149 151/151/151 150/150/150
f 149/149/149 152/152/152 151/151/151
f 153/153/153 155/155/155 154/154/154
f 153/153/153 156/156/156 155/155/155
