#polySurface23_1886_46.obj

v 0.05883333 -0.6497395 0.2580889
v 0.05241307 -0.6635115 -0.1532275
v 0.0536431 -0.7478833 -0.1730568
v 0.06089435 -0.7323277 0.2914879
v 0.05241307 -0.6635115 -0.1532275
v 0.03340397 -0.03210468 -0.3509446
v 0.03217384 -0.03476403 -0.396361
v 0.0536431 -0.7478833 -0.1730568
v 0.03340397 -0.03210468 -0.3509446
v 0.03340418 0.6404024 -0.1661983
v 0.03217385 0.7247729 -0.1877065
v 0.03217384 -0.03476403 -0.396361
v 0.03340418 0.6404024 -0.1661983
v 0.03340393 0.6275676 0.1286776
v 0.03217392 0.710277 0.1453306
v 0.03217385 0.7247729 -0.1877065
v 0.03340393 0.6275676 0.1286776
v 0.03340391 0.04650747 0.3509446
v 0.03217406 0.05402103 0.3963608
v 0.03217392 0.710277 0.1453306
v 0.03340391 0.04650747 0.3509446
v 0.05883333 -0.6497395 0.2580889
v 0.06089435 -0.7323277 0.2914879
v 0.03217406 0.05402103 0.3963608
v 0.0536431 -0.7478833 -0.1730568
v -1.006328 -0.7478833 -0.1730567
v -0.9990773 -0.7323277 0.2914879
v 0.06089435 -0.7323277 0.2914879
v 0.03217384 -0.03476403 -0.396361
v -1.027797 -0.03476403 -0.3963608
v -1.006328 -0.7478833 -0.1730567
v 0.0536431 -0.7478833 -0.1730568
v 0.06089435 -0.7323277 0.2914879
v -0.9990773 -0.7323277 0.2914879
v -1.027798 0.05402103 0.3963608
v 0.03217406 0.05402103 0.3963608

vn 0.9848208 0.01838741 -0.1725977
vn 0.9848208 0.01838741 -0.1725977
vn 0.9848208 0.01838741 -0.1725977
vn 0.9848208 0.0183874 -0.1725977
vn 0.9826059 0.02122226 -0.184487
vn 0.9826059 0.02122226 -0.184487
vn 0.9826059 0.02122226 -0.184487
vn 0.9826059 0.02122227 -0.184487
vn 0.9829463 0.007558732 -0.1837374
vn 0.9829463 0.007558732 -0.1837374
vn 0.9829463 0.007558732 -0.1837374
vn 0.9829463 0.007558732 -0.1837374
vn 0.987651 0.01474036 -0.1559751
vn 0.987651 0.01474036 -0.1559751
vn 0.987651 0.01474036 -0.1559751
vn 0.987651 0.01474036 -0.1559751
vn 0.9912791 0.009738935 -0.1314186
vn 0.9912791 0.009738936 -0.1314186
vn 0.9912791 0.009738935 -0.1314186
vn 0.9912791 0.009738935 -0.1314186
vn 0.9902384 0.03362735 -0.1352675
vn 0.9902384 0.03362735 -0.1352675
vn 0.9902384 0.03362734 -0.1352675
vn 0.9902384 0.03362734 -0.1352675
vn 0.005241716 -0.9994398 0.03305356
vn 0.005241717 -0.9994398 0.03305357
vn 0.005241716 -0.9994398 0.03305356
vn 0.005241717 -0.9994398 0.03305357
vn -0.1494686 -0.2988289 -0.9425288
vn -0.1494686 -0.2988288 -0.9425288
vn -0.1494686 -0.2988289 -0.9425288
vn -0.1494686 -0.2988288 -0.9425288
vn 0.1552507 -0.1321965 0.97899
vn 0.1552507 -0.1321964 0.97899
vn 0.1552507 -0.1321965 0.97899
vn 0.1552507 -0.1321964 0.97899

vt 0 0
vt 1 0
vt 1 1
vt 0 1
vt 0 0
vt 1 0
vt 1 1
vt 0 1
vt 0 0
vt 1 0
vt 1 1
vt 0 1
vt 0 0
vt 1 0
vt 1 1
vt 0 1
vt 0 0
vt 1 0
vt 1 1
vt 0 1
vt 0 0
vt 1 0
vt 1 1
vt 0 1
vt 0 0
vt 0 1
vt 1 1
vt 1 0
vt 0 0
vt 0 1
vt 1 1
vt 1 0
vt 0 0
vt 0 1
vt 1 1
vt 1 0

g polySurface23_1886_46
usemtl polySurface23_1886_46
usemap polySurface23_1886_46
f 1/1/1 3/3/3 2/2/2
f 1/1/1 4/4/4 3/3/3
f 5/5/5 7/7/7 6/6/6
f 5/5/5 8/8/8 7/7/7
f 9/9/9 11/11/11 10/10/10
f 9/9/9 12/12/12 11/11/11
f 13/13/13 15/15/15 14/14/14
f 13/13/13 16/16/16 15/15/15
f 17/17/17 19/19/19 18/18/18
f 17/17/17 20/20/20 19/19/19
f 21/21/21 23/23/23 22/22/22
f 21/21/21 24/24/24 23/23/23
f 25/25/25 27/27/27 26/26/26
f 25/25/25 28/28/28 27/27/27
f 29/29/29 31/31/31 30/30/30
f 29/29/29 32/32/32 31/31/31
f 33/33/33 35/35/35 34/34/34
f 33/33/33 36/36/36 35/35/35
