#polySurface33_1992_88.obj

v 0.09029466 -3.894213 1.491892
v -0.1926541 -3.927917 1.420468
v -0.5085272 -3.837661 1.611724
v 0.152778 -3.785601 1.722043
v -0.4382681 -3.645939 2.017994
v -0.1292539 -3.623725 2.065064

vn -0.03950511 -0.9043578 0.424943
vn -0.03950511 -0.9043578 0.424943
vn -0.03950511 -0.9043578 0.424943
vn -0.03950512 -0.9043578 0.4249431
vn -0.03950511 -0.9043578 0.424943
vn -0.03950511 -0.9043578 0.424943

vt 1 0.2583008
vt 0.8652344 0.6088867
vt 0.4072266 0.7714844
vt 0.7866211 0
vt 0 0.3566895
vt 0.182373 0

g polySurface33_1992_88
usemtl polySurface33_1992_88
usemap polySurface33_1992_88
f 1/1/1 3/3/3 2/2/2
f 3/3/3 1/1/1 4/4/4
f 3/3/3 4/4/4 5/5/5
f 5/5/5 4/4/4 6/6/6
