#polySurface16_2063_137.obj

v 0.05500076 -0.02538336 -0.5775965
v 0.03599699 -0.6017159 -0.5202715
v 0.1069741 -0.5693827 0.6084122
v 0.05602528 0.03564895 0.6356157
v 0.07901194 0.5109663 -0.5385303
v 0.05236504 0.5649819 0.5985209

vn 0.9705716 -0.01854387 -0.2400972
vn 0.9705716 -0.01854387 -0.2400972
vn 0.9705716 -0.01854387 -0.2400972
vn 0.9705716 -0.01854387 -0.2400972
vn 0.9705716 -0.01854387 -0.2400972
vn 0.9705716 -0.01854387 -0.2400972

vt 0.5371094 0.4909668
vt 0.3999023 0
vt 0.0859375 0
vt 0 0.5356445
vt 0.3818359 1
vt 0.1571045 0.9838867

g polySurface16_2063_137
usemtl polySurface16_2063_137
usemap polySurface16_2063_137
f 1/1/1 3/3/3 2/2/2
f 3/3/3 1/1/1 4/4/4
f 4/4/4 1/1/1 5/5/5
f 4/4/4 5/5/5 6/6/6
