#polySurface14_1735_112.obj

v -0.06831013 -0.6395863 0.6365591
v -0.1392871 -0.6731796 -0.5369837
v -0.120283 -0.02726779 -0.6158733
v -0.1192592 0.04233799 0.6738888
v -0.1213196 0.6552412 -0.1661997
v -0.1229191 0.6350429 0.6125536
v -0.06831013 -0.6395863 0.6365591
v 0.1743306 -0.6395863 0.6365588
v 0.1033535 -0.6731791 -0.5369833
v -0.1392871 -0.6731796 -0.5369837
v -0.1392871 -0.6731796 -0.5369837
v 0.1033535 -0.6731791 -0.5369833
v 0.1223575 -0.02726777 -0.6158727
v -0.120283 -0.02726779 -0.6158733
v -0.120283 -0.02726779 -0.6158733
v 0.1223575 -0.02726777 -0.6158727
v 0.1463687 0.5824266 -0.5566582
v -0.1213196 0.6552412 -0.1661997
v -0.1213196 0.6552412 -0.1661997
v 0.1463687 0.5824266 -0.5566582
v 0.1197216 0.6350425 0.6125533
v -0.1229191 0.6350429 0.6125536
v -0.1229191 0.6350429 0.6125536
v 0.1197216 0.6350425 0.6125533
v 0.1233815 0.042338 0.6738885
v -0.1192592 0.04233799 0.6738888
v -0.1192592 0.04233799 0.6738888
v 0.1233815 0.042338 0.6738885
v 0.1743306 -0.6395863 0.6365588
v -0.06831013 -0.6395863 0.6365591
v 0.1743306 -0.6395863 0.6365588
v 0.1743302 -0.5693842 0.6084113
v 0.1033535 -0.6017172 -0.5202731
v 0.1033535 -0.6731791 -0.5369833
v 0.1033535 -0.6731791 -0.5369833
v 0.1033535 -0.6017172 -0.5202731
v 0.1223576 -0.0253847 -0.577598
v 0.1223575 -0.02726777 -0.6158727
v 0.1223575 -0.02726777 -0.6158727
v 0.1223576 -0.0253847 -0.577598
v 0.1463681 0.5109643 -0.5385326
v 0.1463687 0.5824266 -0.5566582
v 0.1463687 0.5824266 -0.5566582
v 0.1463681 0.5109643 -0.5385326
v 0.1197221 0.5649807 0.5985199
v 0.1197216 0.6350425 0.6125533
v 0.1233814 0.03564741 0.6356143
v 0.1233815 0.042338 0.6738885
v 0.1233815 0.042338 0.6738885
v 0.1233814 0.03564741 0.6356143
v 0.1743302 -0.5693842 0.6084113
v 0.1743306 -0.6395863 0.6365588
v 0.1743302 -0.5693842 0.6084113
v 0.1069739 -0.5693843 0.6084116
v 0.03599722 -0.6017173 -0.5202729
v 0.1033535 -0.6017172 -0.5202731
v 0.1033535 -0.6017172 -0.5202731
v 0.03599722 -0.6017173 -0.5202729
v 0.05500046 -0.02538483 -0.5775979
v 0.1223576 -0.0253847 -0.577598
v 0.1223576 -0.0253847 -0.577598
v 0.05500046 -0.02538483 -0.5775979
v 0.07901175 0.5109651 -0.5385323
v 0.1463681 0.5109643 -0.5385326
v 0.1463681 0.5109643 -0.5385326
v 0.07901175 0.5109651 -0.5385323
v 0.05236512 0.5649805 0.5985191
v 0.1197221 0.5649807 0.5985199
v 0.1197221 0.5649807 0.5985199
v 0.05236512 0.5649805 0.5985191
v 0.05602527 0.03564732 0.6356137
v 0.1233814 0.03564741 0.6356143
v 0.1233814 0.03564741 0.6356143
v 0.05602527 0.03564732 0.6356137
v 0.1069739 -0.5693843 0.6084116
v 0.1743302 -0.5693842 0.6084113
v 0.05221416 -0.6174175 0.08020706
v 0.05221444 -0.02386482 0.01832769
v 0.09024018 -0.02386485 0.01832748
v 0.0902399 -0.6174176 0.08020686
v 0.05427527 -0.04287355 0.6490029
v 0.05427465 0.00401377 0.6490033
v 0.09230117 0.004014205 0.6490033
v 0.09230083 -0.04287356 0.6490034
v 0.052214 0.02302248 0.01832737
v 0.05316772 0.577023 0.003526431
v 0.09119346 0.5770229 0.003526221
v 0.09023974 0.02302245 0.01832716
v 0.05316772 0.577023 0.003526431
v 0.05316785 0.5770225 -0.03449906
v 0.09119358 0.5770225 -0.03449927
v 0.09119346 0.5770229 0.003526221
v 0.05316785 0.5770225 -0.03449906
v 0.05221412 0.02302247 -0.01969812
v 0.09023985 0.02302244 -0.01969833
v 0.09119358 0.5770225 -0.03449927
v 0.05325093 0.01302133 -0.5923556
v 0.05325058 -0.03386644 -0.5923555
v 0.09127632 -0.03386647 -0.5923557
v 0.09127667 0.0130213 -0.5923558
v 0.05221394 -0.0238649 -0.01969878
v 0.05221428 -0.6174175 0.04218157
v 0.09024002 -0.6174176 0.04218137
v 0.0902395 -0.02386491 -0.01969819
v 0.05221428 -0.6174175 0.04218157
v 0.05221416 -0.6174175 0.08020706
v 0.0902399 -0.6174176 0.08020686
v 0.09024002 -0.6174176 0.04218137
v 0.0902399 -0.6174176 0.08020686
v 0.09024018 -0.02386485 0.01832748
v 0.0902395 -0.02386491 -0.01969819
v 0.09024002 -0.6174176 0.04218137
v 0.09023985 0.02302244 -0.01969833
v 0.09023974 0.02302245 0.01832716
v 0.09119358 0.5770225 -0.03449927
v 0.09119346 0.5770229 0.003526221
v 0.05221428 -0.6174175 0.04218157
v 0.05221394 -0.0238649 -0.01969878
v 0.05221444 -0.02386482 0.01832769
v 0.05221416 -0.6174175 0.08020706
v 0.052214 0.02302248 0.01832737
v 0.05221412 0.02302247 -0.01969812
v 0.05316772 0.577023 0.003526431
v 0.05316785 0.5770225 -0.03449906
v 0.05221444 -0.02386482 0.01832769
v 0.05427527 -0.04287355 0.6490029
v 0.09230083 -0.04287356 0.6490034
v 0.09024018 -0.02386485 0.01832748
v 0.09024018 -0.02386485 0.01832748
v 0.09230083 -0.04287356 0.6490034
v 0.09230117 0.004014205 0.6490033
v 0.09023974 0.02302245 0.01832716
v 0.09023974 0.02302245 0.01832716
v 0.09230117 0.004014205 0.6490033
v 0.05427465 0.00401377 0.6490033
v 0.052214 0.02302248 0.01832737
v 0.052214 0.02302248 0.01832737
v 0.05427465 0.00401377 0.6490033
v 0.05427527 -0.04287355 0.6490029
v 0.05221444 -0.02386482 0.01832769
v 0.05221412 0.02302247 -0.01969812
v 0.05325093 0.01302133 -0.5923556
v 0.09127667 0.0130213 -0.5923558
v 0.09023985 0.02302244 -0.01969833
v 0.09023985 0.02302244 -0.01969833
v 0.09127667 0.0130213 -0.5923558
v 0.09127632 -0.03386647 -0.5923557
v 0.0902395 -0.02386491 -0.01969819
v 0.0902395 -0.02386491 -0.01969819
v 0.09127632 -0.03386647 -0.5923557
v 0.05325058 -0.03386644 -0.5923555
v 0.05221394 -0.0238649 -0.01969878
v 0.05221394 -0.0238649 -0.01969878
v 0.05325058 -0.03386644 -0.5923555
v 0.05325093 0.01302133 -0.5923556
v 0.05221412 0.02302247 -0.01969812

vn -0.9719157 0.003431994 0.2353045
vn -0.9719157 0.003431994 0.2353045
vn -0.9719157 0.003431991 0.2353045
vn -0.9719157 0.003431991 0.2353045
vn -0.9719157 0.003431994 0.2353045
vn -0.9719157 0.003431994 0.2353045
vn -0.05688732 -0.9982557 0.01579154
vn -0.05688731 -0.9982557 0.01579154
vn -0.05688732 -0.9982557 0.01579154
vn -0.05688731 -0.9982557 0.01579154
vn -0.2245241 -0.1131457 -0.9678776
vn -0.2245241 -0.1131457 -0.9678776
vn -0.2245241 -0.1131457 -0.9678776
vn -0.2245241 -0.1131457 -0.9678776
vn -0.6921597 0.3345616 -0.6395181
vn -0.6921597 0.3345616 -0.6395181
vn -0.6921597 0.3345616 -0.6395181
vn -0.6921597 0.3345616 -0.6395181
vn 0.1853264 0.9822 -0.03061466
vn 0.1853264 0.9822 -0.03061466
vn 0.1853264 0.9822 -0.03061466
vn 0.1853264 0.9822 -0.03061466
vn 0.2238931 0.0949088 0.9699816
vn 0.2238931 0.0949088 0.9699816
vn 0.2238931 0.0949088 0.9699816
vn 0.2238931 0.0949088 0.9699816
vn 0.2153843 -0.06251228 0.9745265
vn 0.2153843 -0.06251228 0.9745265
vn 0.2153843 -0.06251228 0.9745265
vn 0.2153843 -0.06251228 0.9745265
vn 0.9600282 -0.02246037 -0.2790009
vn 0.9600282 -0.02246037 -0.2790009
vn 0.9600282 -0.02246037 -0.2790009
vn 0.9600282 -0.02246037 -0.2790009
vn 0.981787 -0.04536934 -0.1844885
vn 0.981787 -0.04536934 -0.1844885
vn 0.981787 -0.04536934 -0.1844885
vn 0.981787 -0.04536934 -0.1844885
vn 0.9625426 -0.05551643 -0.2653859
vn 0.9625426 -0.05551643 -0.2653859
vn 0.9625426 -0.05551643 -0.2653859
vn 0.9625426 -0.05551643 -0.2653859
vn 0.9802882 -0.01752489 -0.196794
vn 0.9802882 -0.01752489 -0.196794
vn 0.9802882 -0.01752489 -0.196794
vn 0.9802882 -0.01752489 -0.196794
vn 0.9736969 -0.01216816 -0.227522
vn 0.9736969 -0.01216816 -0.227522
vn 0.9875692 0.0564663 -0.1466926
vn 0.9875692 0.0564663 -0.1466926
vn 0.9875692 0.0564663 -0.1466926
vn 0.9875692 0.0564663 -0.1466926
vn 0.05688259 0.9982556 -0.01581254
vn 0.05688259 0.9982556 -0.01581254
vn 0.05688259 0.9982556 -0.01581254
vn 0.05688259 0.9982556 -0.01581254
vn 0.2237469 0.09096466 0.9703931
vn 0.2237469 0.09096467 0.9703931
vn 0.2237469 0.09096466 0.9703931
vn 0.2237469 0.09096467 0.9703931
vn 0.2140622 -0.08052056 0.9734957
vn 0.2140622 -0.08052057 0.9734957
vn 0.2140622 -0.08052056 0.9734957
vn 0.2140622 -0.08052057 0.9734957
vn -0.05273914 -0.9980234 0.03417366
vn -0.05273914 -0.9980234 0.03417365
vn -0.05273914 -0.9980234 0.03417366
vn -0.05273914 -0.9980234 0.03417365
vn -0.2225658 -0.06197436 -0.9729458
vn -0.2225658 -0.06197437 -0.9729458
vn -0.2225658 -0.06197436 -0.9729458
vn -0.2225658 -0.06197437 -0.9729458
vn -0.2160703 0.05275882 -0.9749513
vn -0.2160703 0.05275882 -0.9749513
vn -0.2160703 0.05275882 -0.9749513
vn -0.2160703 0.05275882 -0.9749513
vn 0.2239207 0.09566296 0.9699011
vn 0.2239207 0.09566296 0.9699011
vn 0.2239207 0.09566296 0.9699011
vn 0.2239207 0.09566296 0.9699011
vn 0.2189592 -0.00783434 0.9757025
vn 0.2189592 -0.00783434 0.9757025
vn 0.2189592 -0.00783434 0.9757025
vn 0.2189592 -0.00783434 0.9757025
vn 0.2204647 0.01885143 0.9752128
vn 0.2204647 0.01885143 0.9752128
vn 0.2204647 0.01885143 0.9752128
vn 0.2204647 0.01885143 0.9752128
vn 0.0631399 0.9979314 0.01209767
vn 0.0631399 0.9979314 0.01209767
vn 0.0631399 0.9979314 0.01209767
vn 0.0631399 0.9979314 0.01209767
vn -0.2204647 -0.01885143 -0.9752128
vn -0.2204647 -0.01885143 -0.9752128
vn -0.2204647 -0.01885143 -0.9752128
vn -0.2204647 -0.01885143 -0.9752128
vn -0.2189592 0.00783434 -0.9757025
vn -0.2189592 0.00783434 -0.9757025
vn -0.2189592 0.00783434 -0.9757025
vn -0.2189592 0.00783434 -0.9757025
vn -0.2239207 -0.09566296 -0.9699011
vn -0.2239207 -0.09566296 -0.9699011
vn -0.2239207 -0.09566296 -0.9699011
vn -0.2239207 -0.09566296 -0.9699011
vn -0.0631399 -0.9979314 -0.01209767
vn -0.0631399 -0.9979314 -0.01209767
vn -0.0631399 -0.9979314 -0.01209767
vn -0.0631399 -0.9979314 -0.01209767
vn 0.9754727 -0.01801623 -0.2193818
vn 0.9754727 -0.01801623 -0.2193818
vn 0.9754727 -0.01801623 -0.2193818
vn 0.9754727 -0.01801623 -0.2193818
vn 0.9754346 -0.01960581 -0.2194151
vn 0.9754347 -0.01960159 -0.219415
vn 0.9754313 -0.0197381 -0.2194178
vn 0.9754313 -0.0197381 -0.2194178
vn -0.9754727 0.01801623 0.2193818
vn -0.9754727 0.01801623 0.2193818
vn -0.9754727 0.01801623 0.2193818
vn -0.9754727 0.01801623 0.2193818
vn -0.9754347 0.01960159 0.219415
vn -0.9754346 0.01960581 0.2194151
vn -0.9754313 0.0197381 0.2194178
vn -0.9754313 0.0197381 0.2194178
vn -0.06966057 -0.9967105 -0.04142021
vn -0.06966057 -0.9967105 -0.04142021
vn -0.06966057 -0.9967105 -0.04142021
vn -0.06966057 -0.9967105 -0.04142021
vn 0.9747508 -0.01799051 -0.2225697
vn 0.9747508 -0.01799051 -0.2225697
vn 0.9747508 -0.01799051 -0.2225697
vn 0.9747508 -0.01799051 -0.2225697
vn 0.06966043 0.9967106 0.04141958
vn 0.06966043 0.9967106 0.04141958
vn 0.06966043 0.9967106 0.04141958
vn 0.06966043 0.9967106 0.04141958
vn -0.9747508 0.01799051 0.2225697
vn -0.9747508 0.01799051 0.2225697
vn -0.9747508 0.01799051 0.2225697
vn -0.9747508 0.01799051 0.2225697
vn 0.05933094 0.9982262 -0.004918121
vn 0.05933094 0.9982262 -0.00491812
vn 0.05933094 0.9982262 -0.004918121
vn 0.05933094 0.9982262 -0.00491812
vn 0.9758682 -0.0180304 -0.2176146
vn 0.9758682 -0.0180304 -0.2176146
vn 0.9758682 -0.0180304 -0.2176146
vn 0.9758682 -0.0180304 -0.2176146
vn -0.059331 -0.9982262 0.004917866
vn -0.05933099 -0.9982262 0.004917867
vn -0.059331 -0.9982262 0.004917866
vn -0.05933099 -0.9982262 0.004917867
vn -0.9758682 0.0180304 0.2176146
vn -0.9758682 0.0180304 0.2176146
vn -0.9758682 0.0180304 0.2176146
vn -0.9758682 0.0180304 0.2176146

vt 0.0859375 0
vt 0.3999023 0
vt 0.5371094 0.4909668
vt 0 0.5356445
vt 0.3818359 1
vt 0.1571045 0.9838867
vt 0.0859375 0
vt 0.0859375 0
vt 0.3999023 0
vt 0.3999023 0
vt 0.3999023 0
vt 0.3999023 0
vt 0.5371094 0.4909668
vt 0.5371094 0.4909668
vt 0.5371094 0.4909668
vt 0.5371094 0.4909668
vt 0.3818359 1
vt 0.3818359 1
vt 0.3818359 1
vt 0.3818359 1
vt 0.1571045 0.9838867
vt 0.1571045 0.9838867
vt 0.1571045 0.9838867
vt 0.1571045 0.9838867
vt 0 0.5356445
vt 0 0.5356445
vt 0 0.5356445
vt 0 0.5356445
vt 0.0859375 0
vt 0.0859375 0
vt 0.0859375 0
vt 0.0859375 0
vt 0.3999023 0
vt 0.3999023 0
vt 0.3999023 0
vt 0.3999023 0
vt 0.5371094 0.4909668
vt 0.5371094 0.4909668
vt 0.5371094 0.4909668
vt 0.5371094 0.4909668
vt 0.3818359 1
vt 0.3818359 1
vt 0.3818359 1
vt 0.3818359 1
vt 0.1571045 0.9838867
vt 0.1571045 0.9838867
vt 0 0.5356445
vt 0 0.5356445
vt 0 0.5356445
vt 0 0.5356445
vt 0.0859375 0
vt 0.0859375 0
vt 0.0859375 0
vt 0.0859375 0
vt 0.3999023 0
vt 0.3999023 0
vt 0.3999023 0
vt 0.3999023 0
vt 0.5371094 0.4909668
vt 0.5371094 0.4909668
vt 0.5371094 0.4909668
vt 0.5371094 0.4909668
vt 0.3818359 1
vt 0.3818359 1
vt 0.3818359 1
vt 0.3818359 1
vt 0.1571045 0.9838867
vt 0.1571045 0.9838867
vt 0.1571045 0.9838867
vt 0.1571045 0.9838867
vt 0 0.5356445
vt 0 0.5356445
vt 0 0.5356445
vt 0 0.5356445
vt 0.0859375 0
vt 0.0859375 0
vt 0.375 0
vt 0.375 0.08331299
vt 0.625 0.08331299
vt 0.625 0
vt 0.375 0.08331299
vt 0.375 0.166626
vt 0.625 0.166626
vt 0.625 0.08331299
vt 0.375 0.166626
vt 0.375 0.25
vt 0.625 0.25
vt 0.625 0.166626
vt 0.375 0.25
vt 0.375 0.5
vt 0.625 0.5
vt 0.625 0.25
vt 0.375 0.5
vt 0.375 0.5834961
vt 0.625 0.5834961
vt 0.625 0.5
vt 0.375 0.5834961
vt 0.375 0.6665039
vt 0.625 0.6665039
vt 0.625 0.5834961
vt 0.375 0.6665039
vt 0.375 0.75
vt 0.625 0.75
vt 0.625 0.6665039
vt 0.375 0.75
vt 0.375 1
vt 0.625 1
vt 0.625 0.75
vt 0.625 0
vt 0.625 0.08331299
vt 0.875 0.08331299
vt 0.875 0
vt 0.875 0.166626
vt 0.625 0.166626
vt 0.875 0.25
vt 0.625 0.25
vt 0.125 0
vt 0.125 0.08331299
vt 0.375 0.08331299
vt 0.375 0
vt 0.375 0.166626
vt 0.125 0.166626
vt 0.375 0.25
vt 0.125 0.25
vt 0.375 0.08331299
vt 0.375 0.08331299
vt 0.625 0.08331299
vt 0.625 0.08331299
vt 0.625 0.08331299
vt 0.625 0.08331299
vt 0.625 0.166626
vt 0.625 0.166626
vt 0.625 0.166626
vt 0.625 0.166626
vt 0.375 0.166626
vt 0.375 0.166626
vt 0.375 0.166626
vt 0.375 0.166626
vt 0.375 0.08331299
vt 0.375 0.08331299
vt 0.375 0.5834961
vt 0.375 0.5834961
vt 0.625 0.5834961
vt 0.625 0.5834961
vt 0.625 0.5834961
vt 0.625 0.5834961
vt 0.625 0.6665039
vt 0.625 0.6665039
vt 0.625 0.6665039
vt 0.625 0.6665039
vt 0.375 0.6665039
vt 0.375 0.6665039
vt 0.375 0.6665039
vt 0.375 0.6665039
vt 0.375 0.5834961
vt 0.375 0.5834961

g polySurface14_1735_112
usemtl polySurface14_1735_112
usemap polySurface14_1735_112
f 1/1/1 3/3/3 2/2/2
f 3/3/3 1/1/1 4/4/4
f 3/3/3 4/4/4 5/5/5
f 5/5/5 4/4/4 6/6/6
f 7/7/7 9/9/9 8/8/8
f 7/7/7 10/10/10 9/9/9
f 11/11/11 13/13/13 12/12/12
f 11/11/11 14/14/14 13/13/13
f 15/15/15 17/17/17 16/16/16
f 15/15/15 18/18/18 17/17/17
f 19/19/19 21/21/21 20/20/20
f 19/19/19 22/22/22 21/21/21
f 23/23/23 25/25/25 24/24/24
f 23/23/23 26/26/26 25/25/25
f 27/27/27 29/29/29 28/28/28
f 27/27/27 30/30/30 29/29/29
f 31/31/31 33/33/33 32/32/32
f 31/31/31 34/34/34 33/33/33
f 35/35/35 37/37/37 36/36/36
f 35/35/35 38/38/38 37/37/37
f 39/39/39 41/41/41 40/40/40
f 39/39/39 42/42/42 41/41/41
f 43/43/43 45/45/45 44/44/44
f 43/43/43 46/46/46 45/45/45
f 46/46/46 47/47/47 45/45/45
f 46/46/46 48/48/48 47/47/47
f 49/49/49 51/51/51 50/50/50
f 49/49/49 52/52/52 51/51/51
f 53/53/53 55/55/55 54/54/54
f 53/53/53 56/56/56 55/55/55
f 57/57/57 59/59/59 58/58/58
f 57/57/57 60/60/60 59/59/59
f 61/61/61 63/63/63 62/62/62
f 61/61/61 64/64/64 63/63/63
f 65/65/65 67/67/67 66/66/66
f 65/65/65 68/68/68 67/67/67
f 69/69/69 71/71/71 70/70/70
f 69/69/69 72/72/72 71/71/71
f 73/73/73 75/75/75 74/74/74
f 73/73/73 76/76/76 75/75/75
f 77/77/77 79/79/79 78/78/78
f 77/77/77 80/80/80 79/79/79
f 81/81/81 83/83/83 82/82/82
f 81/81/81 84/84/84 83/83/83
f 85/85/85 87/87/87 86/86/86
f 85/85/85 88/88/88 87/87/87
f 89/89/89 91/91/91 90/90/90
f 89/89/89 92/92/92 91/91/91
f 93/93/93 95/95/95 94/94/94
f 93/93/93 96/96/96 95/95/95
f 97/97/97 99/99/99 98/98/98
f 97/97/97 100/100/100 99/99/99
f 101/101/101 103/103/103 102/102/102
f 101/101/101 104/104/104 103/103/103
f 105/105/105 107/107/107 106/106/106
f 105/105/105 108/108/108 107/107/107
f 109/109/109 111/111/111 110/110/110
f 109/109/109 112/112/112 111/111/111
f 110/110/110 111/111/111 113/113/113
f 110/110/110 113/113/113 114/114/114
f 114/114/114 113/113/113 115/115/115
f 114/114/114 115/115/115 116/116/116
f 117/117/117 119/119/119 118/118/118
f 117/117/117 120/120/120 119/119/119
f 118/118/118 119/119/119 121/121/121
f 118/118/118 121/121/121 122/122/122
f 122/122/122 121/121/121 123/123/123
f 122/122/122 123/123/123 124/124/124
f 125/125/125 127/127/127 126/126/126
f 125/125/125 128/128/128 127/127/127
f 129/129/129 131/131/131 130/130/130
f 129/129/129 132/132/132 131/131/131
f 133/133/133 135/135/135 134/134/134
f 133/133/133 136/136/136 135/135/135
f 137/137/137 139/139/139 138/138/138
f 137/137/137 140/140/140 139/139/139
f 141/141/141 143/143/143 142/142/142
f 141/141/141 144/144/144 143/143/143
f 145/145/145 147/147/147 146/146/146
f 145/145/145 148/148/148 147/147/147
f 149/149/149 151/151/151 150/150/150
f 149/149/149 152/152/152 151/151/151
f 153/153/153 155/155/155 154/154/154
f 153/153/153 156/156/156 155/155/155
