#polySurface42_1740_174.obj

v 0.0988583 0.8359497 -0.2300804
v -1.094482 0.8359497 -0.2300809
v -1.094482 -0.01915393 -0.485838
v 0.09885804 -0.01915396 -0.4858386
v 0.09885839 0.8196303 0.1781389
v -1.094482 0.8196303 0.1781395
v -1.094482 0.8359497 -0.2300809
v 0.0988583 0.8359497 -0.2300804
v 0.09885803 0.0808019 0.4858397
v -1.094482 0.08080187 0.485839
v -1.094482 0.8196303 0.1781395
v 0.09885839 0.8196303 0.1781389
v 0.03217364 0.7247728 -0.1877055
v 0.0988583 0.8359497 -0.2300804
v 0.09885804 -0.01915396 -0.4858386
v 0.03217385 -0.03476372 -0.3963606
v 0.03217385 -0.03476372 -0.3963606
v 0.09885804 -0.01915396 -0.4858386
v -1.094482 -0.01915393 -0.485838
v -1.027798 -0.03476374 -0.3963609
v -1.027798 -0.03476374 -0.3963609
v -1.094482 -0.01915393 -0.485838
v -1.094482 0.8359497 -0.2300809
v -1.027798 0.7247728 -0.1877057
v 0.03217393 0.7102772 0.145331
v 0.09885839 0.8196303 0.1781389
v 0.0988583 0.8359497 -0.2300804
v 0.03217364 0.7247728 -0.1877055
v -1.027798 0.7247728 -0.1877057
v -1.094482 0.8359497 -0.2300809
v -1.094482 0.8196303 0.1781395
v -1.027797 0.7102772 0.1453307
v 0.03217412 0.05402105 0.3963615
v 0.09885803 0.0808019 0.4858397
v 0.09885839 0.8196303 0.1781389
v 0.03217393 0.7102772 0.145331
v -1.027797 0.7102772 0.1453307
v -1.094482 0.8196303 0.1781395
v -1.094482 0.08080187 0.485839
v -1.027798 0.05402104 0.3963613
v -1.027798 0.05402104 0.3963613
v -1.094482 0.08080187 0.485839
v 0.09885803 0.0808019 0.4858397
v 0.03217412 0.05402105 0.3963615

vn 0.110786 0.3014598 -0.9470208
vn 0.110786 0.3014598 -0.9470208
vn 0.110786 0.3014598 -0.9470208
vn 0.110786 0.3014598 -0.9470208
vn -0.009581228 0.9965944 0.08190221
vn -0.009581228 0.9965944 0.08190221
vn -0.009581228 0.9965944 0.08190222
vn -0.009581228 0.9965944 0.08190221
vn -0.1080151 0.3684927 0.9233341
vn -0.1080151 0.3684926 0.9233341
vn -0.1080151 0.3684927 0.9233341
vn -0.1080151 0.3684927 0.9233341
vn 0.6984721 -0.1843573 0.6914832
vn 0.6984721 -0.1843573 0.6914833
vn 0.6984721 -0.1843573 0.6914832
vn 0.6984721 -0.1843573 0.6914832
vn 0.02471304 -0.9771193 -0.2112519
vn 0.02471304 -0.9771193 -0.2112519
vn 0.02471304 -0.9771193 -0.2112519
vn 0.02471304 -0.9771193 -0.2112519
vn -0.8392131 -0.1843571 0.5115992
vn -0.8392131 -0.1843571 0.5115992
vn -0.8392131 -0.1843571 0.5115992
vn -0.8392131 -0.1843571 0.5115992
vn 0.8539302 -0.5173696 0.05596324
vn 0.8539302 -0.5173696 0.05596324
vn 0.8539302 -0.5173696 0.05596324
vn 0.8539302 -0.5173696 0.05596324
vn -0.8437902 -0.5173699 -0.1426409
vn -0.8437902 -0.5173699 -0.1426409
vn -0.8437902 -0.5173699 -0.1426409
vn -0.8437902 -0.5173699 -0.1426409
vn 0.836625 -0.225856 -0.4990469
vn 0.8366249 -0.225856 -0.4990469
vn 0.836625 -0.225856 -0.4990469
vn 0.836625 -0.225856 -0.4990469
vn -0.6988505 -0.2258557 -0.6786732
vn -0.6988504 -0.2258557 -0.6786733
vn -0.6988504 -0.2258557 -0.6786733
vn -0.6988504 -0.2258557 -0.6786733
vn -0.02877162 -0.9688566 0.2459454
vn -0.02877162 -0.9688566 0.2459455
vn -0.02877162 -0.9688566 0.2459455
vn -0.02877162 -0.9688566 0.2459454

vt 0 0
vt 0 1
vt 1 1
vt 1 0
vt 0 0
vt 0 1
vt 1 1
vt 1 0
vt 0 0
vt 0 1
vt 1 1
vt 1 0
vt 0 0
vt 0 0
vt 1 0
vt 1 0
vt 1 0
vt 1 0
vt 1 1
vt 1 1
vt 1 1
vt 1 1
vt 0 1
vt 0 1
vt 0 0
vt 0 0
vt 1 0
vt 1 0
vt 1 1
vt 1 1
vt 0 1
vt 0 1
vt 0 0
vt 0 0
vt 1 0
vt 1 0
vt 1 1
vt 1 1
vt 0 1
vt 0 1
vt 0 1
vt 0 1
vt 0 0
vt 0 0

g polySurface42_1740_174
usemtl polySurface42_1740_174
usemap polySurface42_1740_174
f 1/1/1 3/3/3 2/2/2
f 1/1/1 4/4/4 3/3/3
f 5/5/5 7/7/7 6/6/6
f 5/5/5 8/8/8 7/7/7
f 9/9/9 11/11/11 10/10/10
f 9/9/9 12/12/12 11/11/11
f 13/13/13 15/15/15 14/14/14
f 13/13/13 16/16/16 15/15/15
f 17/17/17 19/19/19 18/18/18
f 17/17/17 20/20/20 19/19/19
f 21/21/21 23/23/23 22/22/22
f 21/21/21 24/24/24 23/23/23
f 25/25/25 27/27/27 26/26/26
f 25/25/25 28/28/28 27/27/27
f 29/29/29 31/31/31 30/30/30
f 29/29/29 32/32/32 31/31/31
f 33/33/33 35/35/35 34/34/34
f 33/33/33 36/36/36 35/35/35
f 37/37/37 39/39/39 38/38/38
f 37/37/37 40/40/40 39/39/39
f 41/41/41 43/43/43 42/42/42
f 41/41/41 44/44/44 43/43/43
