#polySurface23_1886_44.obj

v 0.05396383 -0.01538209 -0.3126698
v 0.05396345 -0.5837826 -0.1365165
v 0.05396396 -0.5734923 0.2299412
v 0.05396384 0.05465556 0.3126696
v 0.05396371 0.5837801 -0.1480725
v 0.05396337 0.5723445 0.1146447

vn 0.9876581 0 -0.1566253
vn 0.9876581 0 -0.1566253
vn 0.9876581 0 -0.1566253
vn 0.9876581 0 -0.1566253
vn 0.9876581 0 -0.1566253
vn 0.9876581 0 -0.1566253

vt 0.5371094 0.4909668
vt 0.3999023 0
vt 0.0859375 0
vt 0 0.5356445
vt 0.3818359 1
vt 0.1571045 0.9838867

g polySurface23_1886_44
usemtl polySurface23_1886_44
usemap polySurface23_1886_44
f 1/1/1 3/3/3 2/2/2
f 3/3/3 1/1/1 4/4/4
f 4/4/4 1/1/1 5/5/5
f 4/4/4 5/5/5 6/6/6
