#polySurface22_1829_5.obj

v 0.05396344 -0.01537826 -0.3126686
v 0.05396311 -0.5837787 -0.1365154
v 0.05396308 -0.5734885 0.2299417
v 0.05396352 0.0546594 0.3126701
v 0.05396345 0.5837839 -0.1480724
v 0.05396317 0.5723483 0.1146446

vn 0.9996002 0 0.02827348
vn 0.9996002 0 0.02827348
vn 0.9996002 0 0.02827348
vn 0.9996002 0 0.02827348
vn 0.9996002 0 0.02827348
vn 0.9996002 0 0.02827348

vt 0.5371094 0.4909668
vt 0.3999023 0
vt 0.0859375 0
vt 0 0.5356445
vt 0.3818359 1
vt 0.1571045 0.9838867

g polySurface22_1829_5
usemtl polySurface22_1829_5
usemap polySurface22_1829_5
f 1/1/1 3/3/3 2/2/2
f 3/3/3 1/1/1 4/4/4
f 4/4/4 1/1/1 5/5/5
f 4/4/4 5/5/5 6/6/6
