#polySurface16_2063_138.obj

v -0.0683106 -0.6395848 0.6365604
v -0.1392866 -0.6731782 -0.5369819
v -0.120283 -0.02726639 -0.6158712
v -0.1192587 0.04233936 0.6738898
v -0.1213205 0.655243 -0.1661982
v -0.1229187 0.635044 0.6125549
v -0.0683106 -0.6395848 0.6365604
v 0.1743304 -0.6395848 0.6365605
v 0.1033536 -0.6731783 -0.5369821
v -0.1392866 -0.6731782 -0.5369819
v -0.1392866 -0.6731782 -0.5369819
v 0.1033536 -0.6731783 -0.5369821
v 0.1223572 -0.02726647 -0.6158714
v -0.120283 -0.02726639 -0.6158712
v -0.120283 -0.02726639 -0.6158712
v 0.1223572 -0.02726647 -0.6158714
v 0.1463684 0.5824281 -0.5566566
v -0.1213205 0.655243 -0.1661982
v -0.1213205 0.655243 -0.1661982
v 0.1463684 0.5824281 -0.5566566
v 0.1197222 0.635044 0.6125549
v -0.1229187 0.635044 0.6125549
v -0.1229187 0.635044 0.6125549
v 0.1197222 0.635044 0.6125549
v 0.1233813 0.04233928 0.6738904
v -0.1192587 0.04233936 0.6738898
v -0.1192587 0.04233936 0.6738898
v 0.1233813 0.04233928 0.6738904
v 0.1743304 -0.6395848 0.6365605
v -0.0683106 -0.6395848 0.6365604
v 0.1743304 -0.6395848 0.6365605
v 0.1743307 -0.5693828 0.6084128
v 0.1033538 -0.6017159 -0.5202718
v 0.1033536 -0.6731783 -0.5369821
v 0.1033536 -0.6731783 -0.5369821
v 0.1033538 -0.6017159 -0.5202718
v 0.1223576 -0.02538343 -0.5775967
v 0.1223572 -0.02726647 -0.6158714
v 0.1223572 -0.02726647 -0.6158714
v 0.1223576 -0.02538343 -0.5775967
v 0.1463687 0.5109662 -0.5385306
v 0.1463684 0.5824281 -0.5566566
v 0.1463684 0.5824281 -0.5566566
v 0.1463687 0.5109662 -0.5385306
v 0.1197218 0.5649818 0.5985206
v 0.1197222 0.635044 0.6125549
v 0.1233813 0.03564882 0.6356153
v 0.1233813 0.04233928 0.6738904
v 0.1233813 0.04233928 0.6738904
v 0.1233813 0.03564882 0.6356153
v 0.1743307 -0.5693828 0.6084128
v 0.1743304 -0.6395848 0.6365605
v 0.1743307 -0.5693828 0.6084128
v 0.1069741 -0.5693827 0.6084122
v 0.03599699 -0.6017159 -0.5202715
v 0.1033538 -0.6017159 -0.5202718
v 0.1033538 -0.6017159 -0.5202718
v 0.03599699 -0.6017159 -0.5202715
v 0.05500076 -0.02538336 -0.5775965
v 0.1223576 -0.02538343 -0.5775967
v 0.1223576 -0.02538343 -0.5775967
v 0.05500076 -0.02538336 -0.5775965
v 0.07901194 0.5109663 -0.5385303
v 0.1463687 0.5109662 -0.5385306
v 0.1463687 0.5109662 -0.5385306
v 0.07901194 0.5109663 -0.5385303
v 0.05236504 0.5649819 0.5985209
v 0.1197218 0.5649818 0.5985206
v 0.1197218 0.5649818 0.5985206
v 0.05236504 0.5649819 0.5985209
v 0.05602528 0.03564895 0.6356157
v 0.1233813 0.03564882 0.6356153
v 0.1233813 0.03564882 0.6356153
v 0.05602528 0.03564895 0.6356157
v 0.1069741 -0.5693827 0.6084122
v 0.1743307 -0.5693828 0.6084128
v 0.05221414 -0.6174164 0.08020803
v 0.0522139 -0.02386344 0.01832891
v 0.09024001 -0.02386362 0.01832856
v 0.09024005 -0.6174161 0.08020848
v 0.05427549 -0.04287223 0.6490044
v 0.05427517 0.00401542 0.6490046
v 0.09230047 0.004015181 0.6490041
v 0.0923006 -0.04287206 0.6490047
v 0.05221458 0.02302386 0.01832853
v 0.05316734 0.5770239 0.003527431
v 0.09119325 0.5770241 0.003527879
v 0.09023969 0.02302403 0.01832879
v 0.05316734 0.5770239 0.003527431
v 0.05316789 0.5770241 -0.03449816
v 0.09119302 0.5770239 -0.0344979
v 0.09119325 0.5770241 0.003527879
v 0.05316789 0.5770241 -0.03449816
v 0.05221433 0.023024 -0.01969725
v 0.09024024 0.02302424 -0.0196968
v 0.09119302 0.5770239 -0.0344979
v 0.05325055 0.0130226 -0.5923544
v 0.05325069 -0.03386505 -0.5923538
v 0.09127679 -0.03386481 -0.5923541
v 0.09127647 0.01302242 -0.5923539
v 0.05221447 -0.02386364 -0.01969669
v 0.05221389 -0.6174163 0.04218225
v 0.09023982 -0.6174164 0.0421827
v 0.09023976 -0.02386347 -0.01969722
v 0.05221389 -0.6174163 0.04218225
v 0.05221414 -0.6174164 0.08020803
v 0.09024005 -0.6174161 0.08020848
v 0.09023982 -0.6174164 0.0421827
v 0.09024005 -0.6174161 0.08020848
v 0.09024001 -0.02386362 0.01832856
v 0.09023976 -0.02386347 -0.01969722
v 0.09023982 -0.6174164 0.0421827
v 0.09024024 0.02302424 -0.0196968
v 0.09023969 0.02302403 0.01832879
v 0.09119302 0.5770239 -0.0344979
v 0.09119325 0.5770241 0.003527879
v 0.05221389 -0.6174163 0.04218225
v 0.05221447 -0.02386364 -0.01969669
v 0.0522139 -0.02386344 0.01832891
v 0.05221414 -0.6174164 0.08020803
v 0.05221458 0.02302386 0.01832853
v 0.05221433 0.023024 -0.01969725
v 0.05316734 0.5770239 0.003527431
v 0.05316789 0.5770241 -0.03449816
v 0.0522139 -0.02386344 0.01832891
v 0.05427549 -0.04287223 0.6490044
v 0.0923006 -0.04287206 0.6490047
v 0.09024001 -0.02386362 0.01832856
v 0.09024001 -0.02386362 0.01832856
v 0.0923006 -0.04287206 0.6490047
v 0.09230047 0.004015181 0.6490041
v 0.09023969 0.02302403 0.01832879
v 0.09023969 0.02302403 0.01832879
v 0.09230047 0.004015181 0.6490041
v 0.05427517 0.00401542 0.6490046
v 0.05221458 0.02302386 0.01832853
v 0.05221458 0.02302386 0.01832853
v 0.05427517 0.00401542 0.6490046
v 0.05427549 -0.04287223 0.6490044
v 0.0522139 -0.02386344 0.01832891
v 0.05221433 0.023024 -0.01969725
v 0.05325055 0.0130226 -0.5923544
v 0.09127647 0.01302242 -0.5923539
v 0.09024024 0.02302424 -0.0196968
v 0.09024024 0.02302424 -0.0196968
v 0.09127647 0.01302242 -0.5923539
v 0.09127679 -0.03386481 -0.5923541
v 0.09023976 -0.02386347 -0.01969722
v 0.09023976 -0.02386347 -0.01969722
v 0.09127679 -0.03386481 -0.5923541
v 0.05325069 -0.03386505 -0.5923538
v 0.05221447 -0.02386364 -0.01969669
v 0.05221447 -0.02386364 -0.01969669
v 0.05325069 -0.03386505 -0.5923538
v 0.05325055 0.0130226 -0.5923544
v 0.05221433 0.023024 -0.01969725

vn -0.9693875 0.0087502 0.2453795
vn -0.9693875 0.0087502 0.2453795
vn -0.9693875 0.008750198 0.2453795
vn -0.9693875 0.008750198 0.2453795
vn -0.9693875 0.008750201 0.2453795
vn -0.9693875 0.0087502 0.2453795
vn -0.07232883 -0.9970583 0.02536288
vn -0.07232883 -0.9970583 0.02536288
vn -0.07232883 -0.9970583 0.02536288
vn -0.07232883 -0.9970583 0.02536288
vn -0.2364765 -0.114718 -0.9648413
vn -0.2364765 -0.114718 -0.9648412
vn -0.2364765 -0.114718 -0.9648413
vn -0.2364765 -0.114718 -0.9648412
vn -0.6943633 0.3365613 -0.6360708
vn -0.6943633 0.3365613 -0.6360709
vn -0.6943633 0.3365613 -0.6360709
vn -0.6943633 0.3365613 -0.6360708
vn 0.1999519 0.9789348 -0.04130201
vn 0.1999519 0.9789348 -0.04130201
vn 0.1999518 0.9789348 -0.041302
vn 0.1999519 0.9789348 -0.04130201
vn 0.2355664 0.09647758 0.9670576
vn 0.2355664 0.09647758 0.9670576
vn 0.2355664 0.09647758 0.9670576
vn 0.2355664 0.09647758 0.9670576
vn 0.2245051 -0.06090099 0.972568
vn 0.2245051 -0.06090099 0.972568
vn 0.2245051 -0.06090099 0.972568
vn 0.2245051 -0.06090099 0.972568
vn 0.9569697 -0.02784631 -0.2888487
vn 0.9569697 -0.02784631 -0.2888487
vn 0.9569697 -0.02784631 -0.2888487
vn 0.9569697 -0.02784631 -0.2888487
vn 0.9796183 -0.05062405 -0.1943843
vn 0.9796183 -0.05062404 -0.1943843
vn 0.9796183 -0.05062404 -0.1943843
vn 0.9796183 -0.05062405 -0.1943843
vn 0.9594931 -0.06091072 -0.275069
vn 0.9594931 -0.06091072 -0.275069
vn 0.9594931 -0.06091072 -0.275069
vn 0.9594931 -0.06091071 -0.2750689
vn 0.9781045 -0.02278357 -0.2068634
vn 0.9781045 -0.02278357 -0.2068634
vn 0.9781045 -0.02278357 -0.2068634
vn 0.9781045 -0.02278357 -0.2068634
vn 0.9712152 -0.01747598 -0.2375617
vn 0.9712152 -0.01747598 -0.2375617
vn 0.9862093 0.05127722 -0.1573587
vn 0.9862093 0.05127722 -0.1573587
vn 0.9862093 0.05127722 -0.1573587
vn 0.9862093 0.05127722 -0.1573587
vn 0.07232388 0.9970582 -0.02538381
vn 0.07232388 0.9970582 -0.02538381
vn 0.07232388 0.9970582 -0.02538381
vn 0.07232388 0.9970582 -0.02538381
vn 0.2353593 0.09253288 0.9674935
vn 0.2353593 0.0925329 0.9674935
vn 0.2353593 0.09253288 0.9674935
vn 0.2353593 0.0925329 0.9674935
vn 0.2228752 -0.07889551 0.9716492
vn 0.2228752 -0.07889552 0.9716492
vn 0.2228752 -0.07889551 0.9716492
vn 0.2228752 -0.07889552 0.9716492
vn -0.06798457 -0.9967297 0.04368037
vn -0.06798457 -0.9967297 0.04368036
vn -0.06798457 -0.9967297 0.04368037
vn -0.06798457 -0.9967297 0.04368036
vn -0.2337261 -0.06354097 -0.970224
vn -0.2337261 -0.06354099 -0.970224
vn -0.2337261 -0.06354097 -0.970224
vn -0.2337261 -0.06354099 -0.970224
vn -0.2253565 0.05115421 -0.9729325
vn -0.2253565 0.05115421 -0.9729325
vn -0.2253565 0.05115421 -0.9729325
vn -0.2253565 0.05115421 -0.9729325
vn 0.2356056 0.09723184 0.9669726
vn 0.2356056 0.09723184 0.9669726
vn 0.2356056 0.09723184 0.9669726
vn 0.2356056 0.09723184 0.9669726
vn 0.228995 -0.006253359 0.9734075
vn 0.228995 -0.006253359 0.9734075
vn 0.228995 -0.006253359 0.9734075
vn 0.228995 -0.006253359 0.9734075
vn 0.2309362 0.02042377 0.9727545
vn 0.2309362 0.02042377 0.9727545
vn 0.2309362 0.02042377 0.9727545
vn 0.2309362 0.02042377 0.9727545
vn 0.07886954 0.996882 0.002439497
vn 0.07886954 0.996882 0.002439497
vn 0.07886954 0.996882 0.002439497
vn 0.07886954 0.996882 0.002439497
vn -0.2309362 -0.02042377 -0.9727545
vn -0.2309362 -0.02042377 -0.9727545
vn -0.2309362 -0.02042377 -0.9727545
vn -0.2309362 -0.02042377 -0.9727545
vn -0.228995 0.006253359 -0.9734075
vn -0.228995 0.006253359 -0.9734075
vn -0.228995 0.006253359 -0.9734075
vn -0.228995 0.006253359 -0.9734075
vn -0.2356056 -0.09723184 -0.9669726
vn -0.2356056 -0.09723184 -0.9669726
vn -0.2356056 -0.09723184 -0.9669726
vn -0.2356056 -0.09723184 -0.9669726
vn -0.07886954 -0.996882 -0.002439497
vn -0.07886954 -0.996882 -0.002439497
vn -0.07886954 -0.996882 -0.002439497
vn -0.07886954 -0.996882 -0.002439497
vn 0.9730524 -0.02331301 -0.2294024
vn 0.9730524 -0.02331301 -0.2294024
vn 0.9730524 -0.02331301 -0.2294024
vn 0.9730524 -0.02331301 -0.2294024
vn 0.9730076 -0.02490328 -0.2294254
vn 0.9730077 -0.02489906 -0.2294253
vn 0.9730038 -0.02503563 -0.2294273
vn 0.9730038 -0.02503563 -0.2294273
vn -0.9730524 0.02331301 0.2294024
vn -0.9730524 0.02331301 0.2294024
vn -0.9730524 0.02331301 0.2294024
vn -0.9730524 0.02331301 0.2294024
vn -0.9730077 0.02489906 0.2294253
vn -0.9730076 0.02490328 0.2294254
vn -0.9730038 0.02503563 0.2294273
vn -0.9730038 0.02503563 0.2294273
vn -0.08568091 -0.9958187 -0.03168542
vn -0.08568092 -0.9958187 -0.03168542
vn -0.08568091 -0.9958187 -0.03168542
vn -0.08568092 -0.9958187 -0.03168542
vn 0.9722974 -0.02329241 -0.2325836
vn 0.9722974 -0.02329241 -0.2325836
vn 0.9722974 -0.02329241 -0.2325836
vn 0.9722974 -0.02329241 -0.2325836
vn 0.08568078 0.9958187 0.0316848
vn 0.08568078 0.9958187 0.0316848
vn 0.08568078 0.9958187 0.0316848
vn 0.08568078 0.9958187 0.0316848
vn -0.9722974 0.02329241 0.2325836
vn -0.9722974 0.02329241 0.2325836
vn -0.9722974 0.02329241 0.2325836
vn -0.9722974 0.02329241 0.2325836
vn 0.07488614 0.9970863 -0.01452493
vn 0.07488614 0.9970863 -0.01452493
vn 0.07488614 0.9970863 -0.01452493
vn 0.07488614 0.9970863 -0.01452493
vn 0.9734662 -0.02332431 -0.2276389
vn 0.9734662 -0.02332431 -0.2276389
vn 0.9734662 -0.02332431 -0.2276389
vn 0.9734662 -0.02332431 -0.2276389
vn -0.0748862 -0.9970863 0.01452467
vn -0.0748862 -0.9970863 0.01452468
vn -0.0748862 -0.9970863 0.01452467
vn -0.0748862 -0.9970863 0.01452468
vn -0.9734662 0.02332431 0.2276389
vn -0.9734662 0.02332431 0.2276389
vn -0.9734662 0.02332431 0.2276389
vn -0.9734662 0.02332431 0.2276389

vt 0.0859375 0
vt 0.3999023 0
vt 0.5371094 0.4909668
vt 0 0.5356445
vt 0.3818359 1
vt 0.1571045 0.9838867
vt 0.0859375 0
vt 0.0859375 0
vt 0.3999023 0
vt 0.3999023 0
vt 0.3999023 0
vt 0.3999023 0
vt 0.5371094 0.4909668
vt 0.5371094 0.4909668
vt 0.5371094 0.4909668
vt 0.5371094 0.4909668
vt 0.3818359 1
vt 0.3818359 1
vt 0.3818359 1
vt 0.3818359 1
vt 0.1571045 0.9838867
vt 0.1571045 0.9838867
vt 0.1571045 0.9838867
vt 0.1571045 0.9838867
vt 0 0.5356445
vt 0 0.5356445
vt 0 0.5356445
vt 0 0.5356445
vt 0.0859375 0
vt 0.0859375 0
vt 0.0859375 0
vt 0.0859375 0
vt 0.3999023 0
vt 0.3999023 0
vt 0.3999023 0
vt 0.3999023 0
vt 0.5371094 0.4909668
vt 0.5371094 0.4909668
vt 0.5371094 0.4909668
vt 0.5371094 0.4909668
vt 0.3818359 1
vt 0.3818359 1
vt 0.3818359 1
vt 0.3818359 1
vt 0.1571045 0.9838867
vt 0.1571045 0.9838867
vt 0 0.5356445
vt 0 0.5356445
vt 0 0.5356445
vt 0 0.5356445
vt 0.0859375 0
vt 0.0859375 0
vt 0.0859375 0
vt 0.0859375 0
vt 0.3999023 0
vt 0.3999023 0
vt 0.3999023 0
vt 0.3999023 0
vt 0.5371094 0.4909668
vt 0.5371094 0.4909668
vt 0.5371094 0.4909668
vt 0.5371094 0.4909668
vt 0.3818359 1
vt 0.3818359 1
vt 0.3818359 1
vt 0.3818359 1
vt 0.1571045 0.9838867
vt 0.1571045 0.9838867
vt 0.1571045 0.9838867
vt 0.1571045 0.9838867
vt 0 0.5356445
vt 0 0.5356445
vt 0 0.5356445
vt 0 0.5356445
vt 0.0859375 0
vt 0.0859375 0
vt 0.375 0
vt 0.375 0.08331299
vt 0.625 0.08331299
vt 0.625 0
vt 0.375 0.08331299
vt 0.375 0.166626
vt 0.625 0.166626
vt 0.625 0.08331299
vt 0.375 0.166626
vt 0.375 0.25
vt 0.625 0.25
vt 0.625 0.166626
vt 0.375 0.25
vt 0.375 0.5
vt 0.625 0.5
vt 0.625 0.25
vt 0.375 0.5
vt 0.375 0.5834961
vt 0.625 0.5834961
vt 0.625 0.5
vt 0.375 0.5834961
vt 0.375 0.6665039
vt 0.625 0.6665039
vt 0.625 0.5834961
vt 0.375 0.6665039
vt 0.375 0.75
vt 0.625 0.75
vt 0.625 0.6665039
vt 0.375 0.75
vt 0.375 1
vt 0.625 1
vt 0.625 0.75
vt 0.625 0
vt 0.625 0.08331299
vt 0.875 0.08331299
vt 0.875 0
vt 0.875 0.166626
vt 0.625 0.166626
vt 0.875 0.25
vt 0.625 0.25
vt 0.125 0
vt 0.125 0.08331299
vt 0.375 0.08331299
vt 0.375 0
vt 0.375 0.166626
vt 0.125 0.166626
vt 0.375 0.25
vt 0.125 0.25
vt 0.375 0.08331299
vt 0.375 0.08331299
vt 0.625 0.08331299
vt 0.625 0.08331299
vt 0.625 0.08331299
vt 0.625 0.08331299
vt 0.625 0.166626
vt 0.625 0.166626
vt 0.625 0.166626
vt 0.625 0.166626
vt 0.375 0.166626
vt 0.375 0.166626
vt 0.375 0.166626
vt 0.375 0.166626
vt 0.375 0.08331299
vt 0.375 0.08331299
vt 0.375 0.5834961
vt 0.375 0.5834961
vt 0.625 0.5834961
vt 0.625 0.5834961
vt 0.625 0.5834961
vt 0.625 0.5834961
vt 0.625 0.6665039
vt 0.625 0.6665039
vt 0.625 0.6665039
vt 0.625 0.6665039
vt 0.375 0.6665039
vt 0.375 0.6665039
vt 0.375 0.6665039
vt 0.375 0.6665039
vt 0.375 0.5834961
vt 0.375 0.5834961

g polySurface16_2063_138
usemtl polySurface16_2063_138
usemap polySurface16_2063_138
f 1/1/1 3/3/3 2/2/2
f 3/3/3 1/1/1 4/4/4
f 3/3/3 4/4/4 5/5/5
f 5/5/5 4/4/4 6/6/6
f 7/7/7 9/9/9 8/8/8
f 7/7/7 10/10/10 9/9/9
f 11/11/11 13/13/13 12/12/12
f 11/11/11 14/14/14 13/13/13
f 15/15/15 17/17/17 16/16/16
f 15/15/15 18/18/18 17/17/17
f 19/19/19 21/21/21 20/20/20
f 19/19/19 22/22/22 21/21/21
f 23/23/23 25/25/25 24/24/24
f 23/23/23 26/26/26 25/25/25
f 27/27/27 29/29/29 28/28/28
f 27/27/27 30/30/30 29/29/29
f 31/31/31 33/33/33 32/32/32
f 31/31/31 34/34/34 33/33/33
f 35/35/35 37/37/37 36/36/36
f 35/35/35 38/38/38 37/37/37
f 39/39/39 41/41/41 40/40/40
f 39/39/39 42/42/42 41/41/41
f 43/43/43 45/45/45 44/44/44
f 43/43/43 46/46/46 45/45/45
f 46/46/46 47/47/47 45/45/45
f 46/46/46 48/48/48 47/47/47
f 49/49/49 51/51/51 50/50/50
f 49/49/49 52/52/52 51/51/51
f 53/53/53 55/55/55 54/54/54
f 53/53/53 56/56/56 55/55/55
f 57/57/57 59/59/59 58/58/58
f 57/57/57 60/60/60 59/59/59
f 61/61/61 63/63/63 62/62/62
f 61/61/61 64/64/64 63/63/63
f 65/65/65 67/67/67 66/66/66
f 65/65/65 68/68/68 67/67/67
f 69/69/69 71/71/71 70/70/70
f 69/69/69 72/72/72 71/71/71
f 73/73/73 75/75/75 74/74/74
f 73/73/73 76/76/76 75/75/75
f 77/77/77 79/79/79 78/78/78
f 77/77/77 80/80/80 79/79/79
f 81/81/81 83/83/83 82/82/82
f 81/81/81 84/84/84 83/83/83
f 85/85/85 87/87/87 86/86/86
f 85/85/85 88/88/88 87/87/87
f 89/89/89 91/91/91 90/90/90
f 89/89/89 92/92/92 91/91/91
f 93/93/93 95/95/95 94/94/94
f 93/93/93 96/96/96 95/95/95
f 97/97/97 99/99/99 98/98/98
f 97/97/97 100/100/100 99/99/99
f 101/101/101 103/103/103 102/102/102
f 101/101/101 104/104/104 103/103/103
f 105/105/105 107/107/107 106/106/106
f 105/105/105 108/108/108 107/107/107
f 109/109/109 111/111/111 110/110/110
f 109/109/109 112/112/112 111/111/111
f 110/110/110 111/111/111 113/113/113
f 110/110/110 113/113/113 114/114/114
f 114/114/114 113/113/113 115/115/115
f 114/114/114 115/115/115 116/116/116
f 117/117/117 119/119/119 118/118/118
f 117/117/117 120/120/120 119/119/119
f 118/118/118 119/119/119 121/121/121
f 118/118/118 121/121/121 122/122/122
f 122/122/122 121/121/121 123/123/123
f 122/122/122 123/123/123 124/124/124
f 125/125/125 127/127/127 126/126/126
f 125/125/125 128/128/128 127/127/127
f 129/129/129 131/131/131 130/130/130
f 129/129/129 132/132/132 131/131/131
f 133/133/133 135/135/135 134/134/134
f 133/133/133 136/136/136 135/135/135
f 137/137/137 139/139/139 138/138/138
f 137/137/137 140/140/140 139/139/139
f 141/141/141 143/143/143 142/142/142
f 141/141/141 144/144/144 143/143/143
f 145/145/145 147/147/147 146/146/146
f 145/145/145 148/148/148 147/147/147
f 149/149/149 151/151/151 150/150/150
f 149/149/149 152/152/152 151/151/151
f 153/153/153 155/155/155 154/154/154
f 153/153/153 156/156/156 155/155/155
