#polySurface168_1709_112.obj

v 0.05500151 -0.02538703 -0.5775979
v 0.03599781 -0.6017197 -0.5202728
v 0.1069744 -0.5693865 0.6084119
v 0.05602544 0.03564478 0.6356148
v 0.07901254 0.5109623 -0.5385319
v 0.05236587 0.5649782 0.5985205

vn 0.9807287 -0.01882301 -0.1944656
vn 0.9807287 -0.01882301 -0.1944656
vn 0.9807287 -0.01882302 -0.1944656
vn 0.9807287 -0.01882302 -0.1944656
vn 0.9807287 -0.01882301 -0.1944656
vn 0.9807287 -0.01882302 -0.1944656

vt 0.5371094 0.4909668
vt 0.3999023 0
vt 0.0859375 0
vt 0 0.5356445
vt 0.3818359 1
vt 0.1571045 0.9838867

g polySurface168_1709_112
usemtl polySurface168_1709_112
usemap polySurface168_1709_112
f 1/1/1 3/3/3 2/2/2
f 3/3/3 1/1/1 4/4/4
f 4/4/4 1/1/1 5/5/5
f 4/4/4 5/5/5 6/6/6
