#polySurface4_1676_122.obj

v 1.303156 -1.804155E-07 -1.645377
v 1.251382 1.488968 -1.775539
v -0.8099719 1.488968 -2.217822
v -0.7581981 -1.804155E-07 -2.08766
v 1.251382 1.488968 -1.775539
v -0.8033059 2.194935 -2.285573
v 1.321315 2.194935 -1.829716
v -0.7581981 -1.804155E-07 -2.08766
v -0.8099719 1.488968 -2.217822
v -3.305711 1.488968 -1.246378
v -3.253937 -1.804155E-07 -1.116217
v -3.375644 2.321123 -1.284314
v -0.8033059 2.194935 -2.285573
v -3.375644 3.159663 -1.369938
v -0.8033062 3.159663 -2.371195
v -3.253937 -1.804155E-07 -1.116217
v -3.305711 1.488968 -1.246378
v -2.942409 1.488968 1.89699
v -2.890635 -1.804155E-07 2.027153
v -2.627615 -1.804155E-07 4.880504
v -2.672343 1.488968 4.750341
v -2.627615 -1.804155E-07 4.880504
v -2.672343 1.488968 4.750341
v 0.7528375 1.488968 5.050463
v 0.7975652 -1.804155E-07 5.180624
v 3.894271 -1.804155E-07 2.327273
v 3.842498 1.488968 2.197111
v 4.071537 1.488968 -1.775538
v 4.12331 -1.804155E-07 -1.645377
v -3.305711 1.488968 -1.246378
v -3.375644 2.321123 -1.284314
v -3.001191 2.194935 1.95553
v -2.942409 1.488968 1.89699
v -3.001191 3.159663 1.869907
v -3.375644 3.159663 -1.369938
v -3.001191 2.194935 1.95553
v -2.672343 1.488968 4.750341
v -2.723126 2.194935 4.808881
v -2.672343 1.488968 4.750341
v -2.723126 2.194935 4.808881
v 0.8071802 2.194935 5.118213
v 0.7528375 1.488968 5.050463
v 1.321315 2.194935 -1.829716
v 1.321315 3.159663 -1.915339
v -0.8033062 3.159663 -2.371195
v -0.8033059 2.194935 -2.285573
v -3.001191 2.194935 1.95553
v -3.001191 3.159663 1.869907
v 1.085246 3.159663 2.179239
v 1.085246 2.194935 2.264863
v 1.085246 2.194935 2.264863
v 1.085246 3.159663 2.179239
v 1.321315 3.159663 -1.915339
v 1.321315 2.194935 -1.829716
v 1.074117 -1.804155E-07 2.327272
v 0.7975652 -1.804155E-07 5.180624
v 0.7528375 1.488968 5.050463
v 1.022343 1.488968 2.197111
v 1.022343 1.488968 2.197111
v 0.7528375 1.488968 5.050463
v 0.8071802 2.194935 5.118213
v 1.085246 2.194935 2.264863
v 1.085246 2.194935 2.264863
v 1.581657 3.729514 1.955821
v -3.4976 3.729514 1.571336
v -3.001191 2.194935 1.95553
v -3.001191 2.194935 1.95553
v -3.4976 3.729514 1.571336
v -3.151978 3.729514 5.117923
v -2.723126 2.194935 4.808881
v -2.723126 2.194935 4.808881
v -3.151978 3.729514 5.117923
v 1.236033 3.729514 5.502409
v 0.8071802 2.194935 5.118213
v 0.8071802 2.194935 5.118213
v 1.236033 3.729514 5.502409
v 1.581657 3.729514 1.955821
v 1.085246 2.194935 2.264863
v 1.303156 -1.804155E-07 -1.645377
v 4.12331 -1.804155E-07 -1.645377
v 4.071537 1.488968 -1.775538
v 1.251382 1.488968 -1.775539
v 1.022343 1.488968 2.197111
v 3.842498 1.488968 2.197111
v 3.894271 -1.804155E-07 2.327273
v 1.074117 -1.804155E-07 2.327272
v 1.321315 2.194935 -1.829716
v 1.251382 1.488968 -1.775539
v 1.022343 1.488968 2.197111
v 1.085246 2.194935 2.264863
v 1.251382 1.488968 -1.775539
v 4.071537 1.488968 -1.775538
v 3.842498 1.488968 2.197111
v 1.022343 1.488968 2.197111

vn 0.1616214 -0.04313858 -0.9859095
vn 0.1616214 -0.04313858 -0.9859095
vn 0.1616214 -0.04313859 -0.9859095
vn 0.1616214 -0.04313858 -0.9859095
vn 0.1615458 -0.05284628 -0.9854493
vn 0.1615698 -0.04993494 -0.9855971
vn 0.1615699 -0.04990861 -0.9855984
vn -0.4072712 -0.05189003 -0.9118319
vn -0.4072712 -0.05189003 -0.9118319
vn -0.4072712 -0.05189004 -0.9118319
vn -0.4072712 -0.05189003 -0.9118319
vn -0.4091466 -0.04650556 -0.9112828
vn -0.4091451 -0.04639488 -0.9112892
vn -0.4091773 -0.04878142 -0.91115
vn -0.4091772 -0.04878142 -0.91115
vn -0.9865022 -0.01353337 0.1631875
vn -0.9865022 -0.01353337 0.1631875
vn -0.9865022 -0.01353337 0.1631875
vn -0.9865022 -0.01353337 0.1631875
vn -0.9898452 -0.01332872 0.1415233
vn -0.9898452 -0.01332872 0.1415233
vn -0.03847842 0.04659893 0.9981723
vn -0.0384784 0.04659893 0.9981723
vn -0.03847841 0.04659893 0.9981723
vn -0.0384784 0.04659893 0.9981723
vn 0.9997212 0.02194651 0.008719031
vn 0.9997212 0.02194651 0.008719031
vn 0.9997212 0.02194651 0.008719031
vn 0.9997212 0.02194651 0.008719031
vn -0.9857854 -0.04670867 0.1613857
vn -0.9865574 -0.01619172 0.1626114
vn -0.986526 -0.01891088 0.1625083
vn -0.9857854 -0.04670866 0.1613857
vn -0.9865401 0.006032933 0.1634082
vn -0.9865401 0.006032933 0.1634082
vn -0.9884668 -0.04698977 0.1439629
vn -0.9884668 -0.04698978 0.1439629
vn -0.9884668 -0.04698977 0.1439629
vn -0.03847403 -0.04903294 0.9980559
vn -0.038474 -0.04903293 0.9980559
vn -0.03847402 -0.04903294 0.9980559
vn -0.03847402 -0.04903294 0.9980559
vn 0.1615699 -0.04990861 -0.9855984
vn 0.1615858 -0.04787426 -0.9856968
vn 0.1615858 -0.04787426 -0.9856968
vn 0.1615698 -0.04993494 -0.9855971
vn -0.02664905 0.04882246 0.9984519
vn -0.02664906 0.04882246 0.9984519
vn -0.02664905 0.04882246 0.9984519
vn -0.02664906 0.04882246 0.9984519
vn 0.999958 0.002821558 0.008721133
vn 0.999958 0.002821558 0.008721139
vn 0.999958 0.002821557 0.008721133
vn 0.999958 0.002821558 0.00872115
vn 0.9986669 0.02241012 0.04649897
vn 0.9986669 0.02241012 0.04649899
vn 0.9986669 0.02241012 0.04649899
vn 0.9986669 0.02241012 0.04649898
vn 0.9976233 -0.05065198 0.04671329
vn 0.9976233 -0.05065197 0.0467133
vn 0.9976233 -0.05065197 0.0467133
vn 0.9976233 -0.05065197 0.04671329
vn 0.02647685 -0.1234452 -0.9919981
vn 0.02647685 -0.1234452 -0.9919981
vn 0.02647685 -0.1234452 -0.9919981
vn 0.02647686 -0.1234452 -0.9919981
vn -0.9762524 -0.1622321 0.1435687
vn -0.9762524 -0.1622321 0.1435687
vn -0.9762524 -0.1622321 0.1435687
vn -0.9762524 -0.1622321 0.1435687
vn -0.03822606 -0.1233277 0.9916294
vn -0.03822608 -0.1233277 0.9916294
vn -0.03822607 -0.1233277 0.9916294
vn -0.03822607 -0.1233277 0.9916294
vn 0.9851859 -0.1647515 0.04759838
vn 0.9851859 -0.1647515 0.0475984
vn 0.985186 -0.1647515 0.04759838
vn 0.9851859 -0.1647515 0.04759838
vn -0.04879277 -0.04822593 -0.997644
vn -0.04879277 -0.04822593 -0.997644
vn -0.04879277 -0.04822593 -0.997644
vn -0.04879277 -0.04822593 -0.997644
vn 0.04879277 0.04822593 0.997644
vn 0.04879277 0.04822593 0.997644
vn 0.04879277 0.04822593 0.997644
vn 0.04879277 0.04822593 0.997644
vn 0.9986033 -0.05211132 0.008709236
vn 0.9986033 -0.05211133 0.008709236
vn 0.9986033 -0.05211133 0.008709242
vn 0.9986033 -0.05211133 0.008709242
vn 0 1 0
vn 0 1 0
vn 0 1 0
vn 0 1 0

vt 0.1230469 0
vt 0.1237183 -6.860495E-05
vt 0.5483398 0
vt 0.5483398 0
vt 0.1237183 -6.860495E-05
vt 0.5483398 0
vt 0.1200562 -0.0003113747
vt 0.5483398 0
vt 0.5483398 0
vt 1 0.2973633
vt 1 0.2973633
vt 1 0.2973633
vt 0.5483398 0
vt 1 0.2973633
vt 0.5483398 0
vt 1 0.2973633
vt 1 0.2973633
vt 0.7954102 0.9023438
vt 0.7954102 0.9023438
vt 0.7954102 0.9023438
vt 0.7954102 0.9023438
vt 0.7954102 0.9023438
vt 0.7954102 0.9023438
vt 0 0.7939453
vt 0 0.7939453
vt 0 0.7939453
vt 0.0005350113 0.7905273
vt 0.1231689 -0.0004148483
vt 0.1230469 0
vt 1 0.2973633
vt 1 0.2973633
vt 0.7954102 0.9023438
vt 0.7954102 0.9023438
vt 0.7954102 0.9023438
vt 1 0.2973633
vt 0.7954102 0.9023438
vt 0.7954102 0.9023438
vt 0.7954102 0.9023438
vt 0.7954102 0.9023438
vt 0.7954102 0.9023438
vt 0 0.7939453
vt 0 0.7939453
vt 0.1200562 -0.0003113747
vt 0.1230469 0
vt 0.5483398 0
vt 0.5483398 0
vt 0.7954102 0.9023438
vt 0.7954102 0.9023438
vt 0 0.7939453
vt 0.0198822 0.6728516
vt 0.0198822 0.6728516
vt 0 0.7939453
vt 0.1230469 0
vt 0.1200562 -0.0003113747
vt 0 0.7939453
vt 0 0.7939453
vt 0 0.7939453
vt 0.00428009 0.7675781
vt 0.00428009 0.7675781
vt 0 0.7939453
vt 0 0.7939453
vt 0.0198822 0.6728516
vt 0.0198822 0.6728516
vt 0 0.7939453
vt 0.7954102 0.9023438
vt 0.7954102 0.9023438
vt 0.7954102 0.9023438
vt 0.7954102 0.9023438
vt 0.7954102 0.9023438
vt 0.7954102 0.9023438
vt 0.7954102 0.9023438
vt 0.7954102 0.9023438
vt 0 0.7939453
vt 0 0.7939453
vt 0 0.7939453
vt 0 0.7939453
vt 0 0.7939453
vt 0.0198822 0.6728516
vt 0.1230469 0
vt 0.1230469 0
vt 0.1231689 -0.0004148483
vt 0.1237183 -6.860495E-05
vt 0.00428009 0.7675781
vt 0.0005350113 0.7905273
vt 0 0.7939453
vt 0 0.7939453
vt -0.00124073 2.032518E-05
vt 0.2851563 1.125
vt 1.250977 1.125
vt 0.9985352 5.65052E-05
vt 0 0
vt 2.980232E-07 1.342773
vt 1 1.342773
vt 1 0

g polySurface4_1676_122
usemtl polySurface4_1676_122
usemap polySurface4_1676_122
f 1/1/1 3/3/3 2/2/2
f 1/1/1 4/4/4 3/3/3
f 5/5/5 3/3/3 6/6/6
f 5/5/5 6/6/6 7/7/7
f 8/8/8 10/10/10 9/9/9
f 8/8/8 11/11/11 10/10/10
f 9/9/9 10/10/10 12/12/12
f 9/9/9 12/12/12 13/13/13
f 13/13/13 12/12/12 14/14/14
f 13/13/13 14/14/14 15/15/15
f 16/16/16 18/18/18 17/17/17
f 16/16/16 19/19/19 18/18/18
f 18/18/18 19/19/19 20/20/20
f 18/18/18 20/20/20 21/21/21
f 22/22/22 24/24/24 23/23/23
f 22/22/22 25/25/25 24/24/24
f 26/26/26 28/28/28 27/27/27
f 26/26/26 29/29/29 28/28/28
f 30/30/30 32/32/32 31/31/31
f 30/30/30 33/33/33 32/32/32
f 31/31/31 32/32/32 34/34/34
f 31/31/31 34/34/34 35/35/35
f 36/36/36 33/33/33 37/37/37
f 36/36/36 37/37/37 38/38/38
f 39/39/39 41/41/41 40/40/40
f 39/39/39 42/42/42 41/41/41
f 43/43/43 45/45/45 44/44/44
f 43/43/43 46/46/46 45/45/45
f 47/47/47 49/49/49 48/48/48
f 47/47/47 50/50/50 49/49/49
f 51/51/51 53/53/53 52/52/52
f 51/51/51 54/54/54 53/53/53
f 55/55/55 57/57/57 56/56/56
f 55/55/55 58/58/58 57/57/57
f 59/59/59 61/61/61 60/60/60
f 59/59/59 62/62/62 61/61/61
f 63/63/63 65/65/65 64/64/64
f 63/63/63 66/66/66 65/65/65
f 67/67/67 69/69/69 68/68/68
f 67/67/67 70/70/70 69/69/69
f 71/71/71 73/73/73 72/72/72
f 71/71/71 74/74/74 73/73/73
f 75/75/75 77/77/77 76/76/76
f 75/75/75 78/78/78 77/77/77
f 79/79/79 81/81/81 80/80/80
f 79/79/79 82/82/82 81/81/81
f 83/83/83 85/85/85 84/84/84
f 83/83/83 86/86/86 85/85/85
f 87/87/87 89/89/89 88/88/88
f 87/87/87 90/90/90 89/89/89
f 91/91/91 93/93/93 92/92/92
f 91/91/91 94/94/94 93/93/93
