#polySurface198_2027_93.obj

v -0.381808 4.279497 0.2283617
v -0.3727554 4.279497 -0.2413986
v 0.3552473 4.279497 -0.2172221
v 0.3754849 4.279497 0.2407307
v -0.40086 -1.602277E-07 1.216582
v 0.3566264 -1.602277E-07 1.219488
v 0.3739281 -1.602277E-07 -1.186122
v -0.3532467 -1.602277E-07 -1.253501
v -0.40086 -1.602277E-07 1.216582
v -0.3532467 -1.602277E-07 -1.253501
v -0.3508701 0.3606292 -1.376865
v -0.4031799 0.3606292 1.336888
v -0.3724985 0.5341878 -0.2548775
v -0.382078 0.5341878 0.2419723
v -0.3724985 2.595796 -0.2548775
v -0.382078 2.595796 0.2419723
v -0.3724985 2.96536 -0.2548775
v -0.382078 2.96536 0.2419723
v -0.3724985 3.674213 -0.2548775
v -0.382078 3.674213 0.2419723
v -0.369741 3.875319 -0.3980011
v -0.3847257 3.875319 0.3794928
v -0.369741 4.109564 -0.3980011
v -0.3847257 4.109564 0.3794928
v -0.3727554 4.279497 -0.2413986
v -0.381808 4.279497 0.2283617
v -0.3396498 2.96536 -1.220851
v -0.3396498 2.595796 -1.220851
v -0.3976919 2.595796 1.208379
v -0.3976919 2.96536 1.208379
v -0.3344549 3.057163 -1.373625
v -0.3344549 2.503993 -1.373625
v -0.400161 2.503993 1.361223
v -0.400161 3.057163 1.361223
v -0.3266106 3.057163 -1.60424
v -0.3266106 2.503993 -1.60424
v -0.403888 2.503993 1.591942
v -0.403888 3.057163 1.591942
v -0.3218399 2.969168 -1.744542
v -0.3218399 2.591987 -1.744542
v -0.4061558 2.591987 1.732304
v -0.4061558 2.969168 1.732304
v -0.3532467 -1.602277E-07 -1.253501
v 0.3739281 -1.602277E-07 -1.186122
v 0.3762034 0.3606292 -1.304213
v -0.3508701 0.3606292 -1.376865
v 0.3739281 -1.602277E-07 -1.186122
v 0.3566264 -1.602277E-07 1.219488
v 0.3543299 0.3606292 1.338625
v 0.3762034 0.3606292 -1.304213
v 0.3752309 0.5341878 0.2542084
v 0.3554987 0.5341878 -0.2301204
v 0.3752309 2.595796 0.2542084
v 0.3554987 2.595796 -0.2301204
v 0.3554987 2.595796 -0.2301204
v 0.3752309 2.96536 0.2542084
v 0.3554987 2.96536 -0.2301204
v 0.3883474 2.595796 -1.196093
v 0.3883474 2.96536 -1.196093
v 0.3596174 2.96536 1.220614
v 0.3596174 2.595796 1.220614
v 0.3935423 2.503993 -1.348868
v 0.3935423 3.057163 -1.348868
v 0.3571485 3.057163 1.373458
v 0.3571485 2.503993 1.373458
v 0.4013866 2.503993 -1.579482
v 0.4013866 3.057163 -1.579482
v 0.3534213 3.057163 1.604177
v 0.3534213 2.503993 1.604177
v 0.4061573 2.591987 -1.719784
v 0.4061573 2.969168 -1.719784
v 0.3511535 2.969168 1.744539
v 0.3511535 2.591987 1.744539
v 0.3566264 -1.602277E-07 1.219488
v -0.40086 -1.602277E-07 1.216582
v -0.4031799 0.3606292 1.336888
v 0.3543299 0.3606292 1.338625
v -0.3508701 0.3606292 -1.376865
v 0.3762034 0.3606292 -1.304213
v 0.3554987 0.5341878 -0.2301204
v -0.3724985 0.5341878 -0.2548775
v 0.3543299 0.3606292 1.338625
v -0.4031799 0.3606292 1.336888
v -0.382078 0.5341878 0.2419723
v 0.3752309 0.5341878 0.2542084
v -0.3724985 0.5341878 -0.2548775
v 0.3554987 0.5341878 -0.2301204
v 0.3554987 2.595796 -0.2301204
v -0.3724985 2.595796 -0.2548775
v 0.3752309 0.5341878 0.2542084
v -0.382078 0.5341878 0.2419723
v -0.382078 2.595796 0.2419723
v 0.3752309 2.595796 0.2542084
v -0.3218399 2.591987 -1.744542
v 0.4061573 2.591987 -1.719784
v 0.4061573 2.969168 -1.719784
v -0.3218399 2.969168 -1.744542
v 0.3511535 2.591987 1.744539
v -0.4061558 2.591987 1.732304
v -0.4061558 2.969168 1.732304
v 0.3511535 2.969168 1.744539
v -0.3724985 2.96536 -0.2548775
v 0.3554987 2.96536 -0.2301204
v 0.3554987 3.674213 -0.2301204
v -0.3724985 3.674213 -0.2548775
v 0.3554987 2.96536 -0.2301204
v 0.3752309 3.674213 0.2542084
v 0.3554987 3.674213 -0.2301204
v 0.3726047 3.875319 0.3904013
v 0.3581414 3.875319 -0.36719
v 0.3726047 4.109564 0.3904013
v 0.3581414 4.109564 -0.36719
v 0.3754849 4.279497 0.2407307
v 0.3552473 4.279497 -0.2172221
v 0.3752309 2.96536 0.2542084
v -0.382078 2.96536 0.2419723
v -0.382078 3.674213 0.2419723
v 0.3752309 3.674213 0.2542084
v -0.3724985 3.674213 -0.2548775
v 0.3554987 3.674213 -0.2301204
v 0.3581414 3.875319 -0.36719
v -0.369741 3.875319 -0.3980011
v 0.3752309 3.674213 0.2542084
v -0.382078 3.674213 0.2419723
v -0.3847257 3.875319 0.3794928
v 0.3726047 3.875319 0.3904013
v -0.369741 3.875319 -0.3980011
v 0.3581414 3.875319 -0.36719
v 0.3581414 4.109564 -0.36719
v -0.369741 4.109564 -0.3980011
v 0.3726047 3.875319 0.3904013
v -0.3847257 3.875319 0.3794928
v -0.3847257 4.109564 0.3794928
v 0.3726047 4.109564 0.3904013
v -0.369741 4.109564 -0.3980011
v 0.3581414 4.109564 -0.36719
v 0.3552473 4.279497 -0.2172221
v -0.3727554 4.279497 -0.2413986
v 0.3726047 4.109564 0.3904013
v -0.3847257 4.109564 0.3794928
v -0.381808 4.279497 0.2283617
v 0.3754849 4.279497 0.2407307
v -0.3724985 2.96536 -0.2548775
v -0.3396498 2.96536 -1.220851
v 0.3883474 2.96536 -1.196093
v 0.3554987 2.96536 -0.2301204
v 0.3554987 2.595796 -0.2301204
v 0.3883474 2.595796 -1.196093
v -0.3396498 2.595796 -1.220851
v -0.3724985 2.595796 -0.2548775
v 0.3752309 2.96536 0.2542084
v 0.3596174 2.96536 1.220614
v -0.3976919 2.96536 1.208379
v -0.382078 2.96536 0.2419723
v -0.382078 2.595796 0.2419723
v -0.3976919 2.595796 1.208379
v 0.3596174 2.595796 1.220614
v 0.3752309 2.595796 0.2542084
v -0.3396498 2.96536 -1.220851
v -0.3344549 3.057163 -1.373625
v 0.3935423 3.057163 -1.348868
v 0.3883474 2.96536 -1.196093
v 0.3883474 2.595796 -1.196093
v 0.3935423 2.503993 -1.348868
v -0.3344549 2.503993 -1.373625
v -0.3396498 2.595796 -1.220851
v 0.3596174 2.96536 1.220614
v 0.3571485 3.057163 1.373458
v -0.400161 3.057163 1.361223
v -0.3976919 2.96536 1.208379
v -0.3976919 2.595796 1.208379
v -0.400161 2.503993 1.361223
v 0.3571485 2.503993 1.373458
v 0.3596174 2.595796 1.220614
v -0.3344549 3.057163 -1.373625
v -0.3266106 3.057163 -1.60424
v 0.4013866 3.057163 -1.579482
v 0.3935423 3.057163 -1.348868
v 0.3935423 2.503993 -1.348868
v 0.4013866 2.503993 -1.579482
v -0.3266106 2.503993 -1.60424
v -0.3344549 2.503993 -1.373625
v 0.3571485 3.057163 1.373458
v 0.3534213 3.057163 1.604177
v -0.403888 3.057163 1.591942
v -0.400161 3.057163 1.361223
v -0.400161 2.503993 1.361223
v -0.403888 2.503993 1.591942
v 0.3534213 2.503993 1.604177
v 0.3571485 2.503993 1.373458
v -0.3266106 3.057163 -1.60424
v -0.3218399 2.969168 -1.744542
v 0.4061573 2.969168 -1.719784
v 0.4013866 3.057163 -1.579482
v 0.4013866 2.503993 -1.579482
v 0.4061573 2.591987 -1.719784
v -0.3218399 2.591987 -1.744542
v -0.3266106 2.503993 -1.60424
v 0.3534213 3.057163 1.604177
v 0.3511535 2.969168 1.744539
v -0.4061558 2.969168 1.732304
v -0.403888 3.057163 1.591942
v -0.403888 2.503993 1.591942
v -0.4061558 2.591987 1.732304
v 0.3511535 2.591987 1.744539
v 0.3534213 2.503993 1.604177

vn 0 1 0
vn 0 1 0
vn 0 1 0
vn 0 1 0
vn 0 -1 0
vn 0 -1 0
vn 0 -1 0
vn 0 -1 0
vn -0.9342247 0 0.3566851
vn -0.9342247 0 0.3566851
vn -0.9342247 0 0.3566851
vn -0.9342247 0 0.3566851
vn -0.9342248 -1.367475E-05 0.3566847
vn -0.9342248 -1.367475E-05 0.3566847
vn -0.9342251 0 0.3566837
vn -0.9342251 0 0.3566837
vn -0.9376482 0 0.3475858
vn -0.9334886 0 0.358607
vn -0.9342253 0 0.3566837
vn -0.9342253 0 0.3566837
vn -0.9342248 0 0.3566847
vn -0.9342248 0 0.3566847
vn -0.9342245 0 0.3566855
vn -0.9342245 0 0.3566855
vn -0.9342239 2.246972E-05 0.3566871
vn -0.9342239 2.246972E-05 0.3566871
vn -0.9393738 0 0.342895
vn -0.9393738 0 0.342895
vn -0.933108 0 0.3595963
vn -0.933108 0 0.3595963
vn -0.9393745 0 0.3428927
vn -0.9393745 0 0.3428927
vn -0.9331067 0 0.3595994
vn -0.9331067 0 0.3595994
vn -0.9393745 0 0.3428927
vn -0.9393745 0 0.3428927
vn -0.933107 0 0.3595991
vn -0.933107 0 0.3595991
vn -0.9393743 0 0.3428936
vn -0.9393743 0 0.3428936
vn -0.9331071 0 0.3595984
vn -0.9331071 0 0.3595984
vn -0.2748531 -0.2521247 -0.9278411
vn -0.2748531 -0.2521247 -0.9278411
vn -0.2748531 -0.2521247 -0.9278411
vn -0.2748531 -0.2521246 -0.9278411
vn 0.9300561 1.412784E-05 -0.3674174
vn 0.9300561 1.412783E-05 -0.3674174
vn 0.9300561 1.412784E-05 -0.3674174
vn 0.9300561 1.412784E-05 -0.3674174
vn 0.9274333 -0.0004265315 -0.3739884
vn 0.9274333 -0.0004265315 -0.3739884
vn 0.9111575 0 -0.4120583
vn 0.9111575 0 -0.4120583
vn 0.9305269 0 -0.3662236
vn 0.9261098 0 -0.3772539
vn 0.9305269 0 -0.3662236
vn 0.9393738 0 -0.342895
vn 0.9393738 0 -0.342895
vn 0.933108 0 -0.3595963
vn 0.933108 0 -0.3595963
vn 0.9393745 0 -0.3428927
vn 0.9393745 0 -0.3428927
vn 0.9331067 0 -0.3595994
vn 0.9331067 0 -0.3595994
vn 0.9393745 0 -0.3428929
vn 0.9393745 0 -0.3428929
vn 0.933107 0 -0.3595991
vn 0.933107 0 -0.3595991
vn 0.9393741 0 -0.3428941
vn 0.9393741 0 -0.3428941
vn 0.9331071 0 -0.3595984
vn 0.9331071 0 -0.3595984
vn 0.3598991 -0.2508191 0.8986447
vn 0.3598992 -0.2508191 0.8986448
vn 0.3598992 -0.2508191 0.8986448
vn 0.3598992 -0.2508192 0.8986448
vn -0.06196104 0.9800638 -0.1887746
vn -0.06196104 0.9800638 -0.1887746
vn -0.06196104 0.9800638 -0.1887746
vn -0.06196104 0.9800638 -0.1887746
vn 0.07318971 0.9798079 0.1860639
vn 0.07318971 0.9798079 0.1860639
vn 0.07318974 0.9798079 0.1860639
vn 0.07318974 0.9798079 0.1860639
vn -0.3428942 0 -0.939374
vn -0.3428942 0 -0.939374
vn -0.3428942 0 -0.939374
vn -0.3428942 0 -0.939374
vn 0.3595966 0 0.9331079
vn 0.3595966 0 0.9331079
vn 0.3595966 0 0.9331079
vn 0.3595966 0 0.9331079
vn -0.342895 0 -0.9393737
vn -0.342895 0 -0.9393737
vn -0.342895 0 -0.9393737
vn -0.342895 0 -0.9393737
vn 0.3595989 0 0.933107
vn 0.3595989 0 0.933107
vn 0.3595989 0 0.933107
vn 0.3595989 0 0.933107
vn -0.3428951 0 -0.9393737
vn -0.3428951 0 -0.9393737
vn -0.3428951 0 -0.9393737
vn -0.3428951 0 -0.9393737
vn 0.9111575 0 -0.4120582
vn 0.9111575 0 -0.4120582
vn 0.9111575 0 -0.4120582
vn 0.9165144 -7.625874E-05 -0.4000018
vn 0.9165144 -7.625876E-05 -0.4000018
vn 0.9198576 0 -0.3922525
vn 0.9198576 0 -0.3922525
vn 0.9161091 4.840639E-05 -0.4009289
vn 0.9161091 4.84064E-05 -0.4009289
vn 0.3595945 0 0.9331087
vn 0.3595945 0 0.9331087
vn 0.3595945 0 0.9331087
vn 0.3595945 0 0.9331087
vn -0.2978212 -0.4776445 -0.8265339
vn -0.2978212 -0.4776445 -0.8265339
vn -0.2978212 -0.4776445 -0.8265339
vn -0.2978212 -0.4776445 -0.8265339
vn 0.3182949 -0.4691128 0.8237849
vn 0.3182949 -0.4691127 0.8237849
vn 0.3182949 -0.4691128 0.8237849
vn 0.3182949 -0.4691127 0.8237849
vn -0.335079 0 -0.94219
vn -0.335079 0 -0.94219
vn -0.335079 0 -0.94219
vn -0.335079 0 -0.94219
vn 0.3612295 0 0.932477
vn 0.3612295 0 0.932477
vn 0.3612295 0 0.932477
vn 0.3612295 0 0.932477
vn -0.2774983 0.5756437 -0.7691742
vn -0.2774983 0.5756437 -0.7691742
vn -0.2774983 0.5756437 -0.7691742
vn -0.2774982 0.5756438 -0.7691742
vn 0.296463 0.5683943 0.7674878
vn 0.296463 0.5683943 0.7674878
vn 0.296463 0.5683944 0.7674878
vn 0.296463 0.5683944 0.7674878
vn 0 1 0
vn 0 1 0
vn 0 1 0
vn 0 1 0
vn 0 -1 0
vn 0 -1 0
vn 0 -1 0
vn 0 -1 0
vn 0 1 0
vn 0 1 0
vn 0 1 0
vn 0 1 0
vn 0 -1 0
vn 0 -1 0
vn 0 -1 0
vn 0 -1 0
vn 0.209116 0.7925124 0.5728828
vn 0.209116 0.7925123 0.5728828
vn 0.209116 0.7925124 0.5728828
vn 0.209116 0.7925123 0.5728828
vn 0.2091155 -0.7925134 0.5728816
vn 0.2091155 -0.7925133 0.5728816
vn 0.2091155 -0.7925134 0.5728816
vn 0.2091155 -0.7925133 0.5728816
vn -0.2193007 0.792516 -0.5690567
vn -0.2193007 0.792516 -0.5690567
vn -0.2193007 0.792516 -0.5690567
vn -0.2193007 0.792516 -0.5690567
vn -0.2193014 -0.7925172 -0.5690549
vn -0.2193013 -0.7925172 -0.5690548
vn -0.2193014 -0.7925172 -0.5690549
vn -0.2193013 -0.7925172 -0.5690548
vn 0 1 0
vn 0 1 0
vn 0 1 0
vn 0 1 0
vn 0 -1 0
vn 0 -1 0
vn 0 -1 0
vn 0 -1 0
vn 0 1 0
vn 0 1 0
vn 0 1 0
vn 0 1 0
vn 0 -1 0
vn 0 -1 0
vn 0 -1 0
vn 0 -1 0
vn -0.2147209 0.7796613 -0.5882373
vn -0.214721 0.7796613 -0.5882373
vn -0.2147209 0.7796613 -0.5882373
vn -0.214721 0.7796613 -0.5882373
vn -0.2147213 -0.7796605 -0.5882382
vn -0.2147213 -0.7796605 -0.5882382
vn -0.2147213 -0.7796605 -0.5882382
vn -0.2147213 -0.7796605 -0.5882382
vn 0.2251831 0.7796569 0.5843181
vn 0.2251831 0.7796569 0.5843181
vn 0.2251831 0.7796569 0.5843181
vn 0.2251831 0.7796569 0.5843181
vn 0.225183 -0.7796572 0.5843177
vn 0.225183 -0.7796572 0.5843177
vn 0.225183 -0.7796572 0.5843177
vn 0.225183 -0.7796572 0.5843177

vt 0 0
vt 1 0
vt 0.9785156 0.2949219
vt 0.004734039 0.3066406
vt 0 0
vt 0.004734039 0.3066406
vt 0.9785156 0.2949219
vt 1 0
vt 0 0
vt 1 0
vt 1 0
vt 0 0
vt 1 0
vt 0 0
vt 1 0
vt 0 0
vt 1 0
vt 0 0
vt 1 0
vt 0 0
vt 1 0
vt 0 0
vt 1 0
vt 0 0
vt 1 0
vt 0 0
vt 1 0
vt 1 0
vt 0 0
vt 0 0
vt 1 0
vt 1 0
vt 0 0
vt 0 0
vt 1 0
vt 1 0
vt 0 0
vt 0 0
vt 1 0
vt 1 0
vt 0 0
vt 0 0
vt 1 0
vt 0.9785156 0.2949219
vt 0.9785156 0.2949219
vt 1 0
vt 0.9785156 0.2949219
vt 0.004734039 0.3066406
vt 0.004734039 0.3066406
vt 0.9785156 0.2949219
vt 0.004734039 0.3066406
vt 0.9785156 0.2949219
vt 0.004734039 0.3066406
vt 0.9785156 0.2949219
vt 0.9785156 0.2949219
vt 0.004734039 0.3066406
vt 0.9785156 0.2949219
vt 0.9785156 0.2949219
vt 0.9785156 0.2949219
vt 0.004734039 0.3066406
vt 0.004734039 0.3066406
vt 0.9785156 0.2949219
vt 0.9785156 0.2949219
vt 0.004734039 0.3066406
vt 0.004734039 0.3066406
vt 0.9785156 0.2949219
vt 0.9785156 0.2949219
vt 0.004734039 0.3066406
vt 0.004734039 0.3066406
vt 0.9785156 0.2949219
vt 0.9785156 0.2949219
vt 0.004734039 0.3066406
vt 0.004734039 0.3066406
vt 0.004734039 0.3066406
vt 0 0
vt 0 0
vt 0.004734039 0.3066406
vt 1 0
vt 0.9785156 0.2949219
vt 0.9785156 0.2949219
vt 1 0
vt 0.004734039 0.3066406
vt 0 0
vt 0 0
vt 0.004734039 0.3066406
vt 1 0
vt 0.9785156 0.2949219
vt 0.9785156 0.2949219
vt 1 0
vt 0.004734039 0.3066406
vt 0 0
vt 0 0
vt 0.004734039 0.3066406
vt 1 0
vt 0.9785156 0.2949219
vt 0.9785156 0.2949219
vt 1 0
vt 0.004734039 0.3066406
vt 0 0
vt 0 0
vt 0.004734039 0.3066406
vt 1 0
vt 0.9785156 0.2949219
vt 0.9785156 0.2949219
vt 1 0
vt 0.9785156 0.2949219
vt 0.004734039 0.3066406
vt 0.9785156 0.2949219
vt 0.004734039 0.3066406
vt 0.9785156 0.2949219
vt 0.004734039 0.3066406
vt 0.9785156 0.2949219
vt 0.004734039 0.3066406
vt 0.9785156 0.2949219
vt 0.004734039 0.3066406
vt 0 0
vt 0 0
vt 0.004734039 0.3066406
vt 1 0
vt 0.9785156 0.2949219
vt 0.9785156 0.2949219
vt 1 0
vt 0.004734039 0.3066406
vt 0 0
vt 0 0
vt 0.004734039 0.3066406
vt 1 0
vt 0.9785156 0.2949219
vt 0.9785156 0.2949219
vt 1 0
vt 0.004734039 0.3066406
vt 0 0
vt 0 0
vt 0.004734039 0.3066406
vt 1 0
vt 0.9785156 0.2949219
vt 0.9785156 0.2949219
vt 1 0
vt 0.004734039 0.3066406
vt 0 0
vt 0 0
vt 0.004734039 0.3066406
vt 1 0
vt 1 0
vt 0.9785156 0.2949219
vt 0.9785156 0.2949219
vt 0.9785156 0.2949219
vt 0.9785156 0.2949219
vt 1 0
vt 1 0
vt 0.004734039 0.3066406
vt 0.004734039 0.3066406
vt 0 0
vt 0 0
vt 0 0
vt 0 0
vt 0.004734039 0.3066406
vt 0.004734039 0.3066406
vt 1 0
vt 1 0
vt 0.9785156 0.2949219
vt 0.9785156 0.2949219
vt 0.9785156 0.2949219
vt 0.9785156 0.2949219
vt 1 0
vt 1 0
vt 0.004734039 0.3066406
vt 0.004734039 0.3066406
vt 0 0
vt 0 0
vt 0 0
vt 0 0
vt 0.004734039 0.3066406
vt 0.004734039 0.3066406
vt 1 0
vt 1 0
vt 0.9785156 0.2949219
vt 0.9785156 0.2949219
vt 0.9785156 0.2949219
vt 0.9785156 0.2949219
vt 1 0
vt 1 0
vt 0.004734039 0.3066406
vt 0.004734039 0.3066406
vt 0 0
vt 0 0
vt 0 0
vt 0 0
vt 0.004734039 0.3066406
vt 0.004734039 0.3066406
vt 1 0
vt 1 0
vt 0.9785156 0.2949219
vt 0.9785156 0.2949219
vt 0.9785156 0.2949219
vt 0.9785156 0.2949219
vt 1 0
vt 1 0
vt 0.004734039 0.3066406
vt 0.004734039 0.3066406
vt 0 0
vt 0 0
vt 0 0
vt 0 0
vt 0.004734039 0.3066406
vt 0.004734039 0.3066406

g polySurface198_2027_93
usemtl polySurface198_2027_93
usemap polySurface198_2027_93
f 1/1/1 3/3/3 2/2/2
f 1/1/1 4/4/4 3/3/3
f 5/5/5 7/7/7 6/6/6
f 5/5/5 8/8/8 7/7/7
f 9/9/9 11/11/11 10/10/10
f 9/9/9 12/12/12 11/11/11
f 12/12/12 13/13/13 11/11/11
f 12/12/12 14/14/14 13/13/13
f 14/14/14 15/15/15 13/13/13
f 14/14/14 16/16/16 15/15/15
f 16/16/16 17/17/17 15/15/15
f 16/16/16 18/18/18 17/17/17
f 18/18/18 19/19/19 17/17/17
f 18/18/18 20/20/20 19/19/19
f 20/20/20 21/21/21 19/19/19
f 20/20/20 22/22/22 21/21/21
f 22/22/22 23/23/23 21/21/21
f 22/22/22 24/24/24 23/23/23
f 24/24/24 25/25/25 23/23/23
f 24/24/24 26/26/26 25/25/25
f 15/15/15 17/17/17 27/27/27
f 15/15/15 27/27/27 28/28/28
f 18/18/18 16/16/16 29/29/29
f 18/18/18 29/29/29 30/30/30
f 28/28/28 27/27/27 31/31/31
f 28/28/28 31/31/31 32/32/32
f 30/30/30 29/29/29 33/33/33
f 30/30/30 33/33/33 34/34/34
f 32/32/32 31/31/31 35/35/35
f 32/32/32 35/35/35 36/36/36
f 34/34/34 33/33/33 37/37/37
f 34/34/34 37/37/37 38/38/38
f 36/36/36 35/35/35 39/39/39
f 36/36/36 39/39/39 40/40/40
f 38/38/38 37/37/37 41/41/41
f 38/38/38 41/41/41 42/42/42
f 43/43/43 45/45/45 44/44/44
f 43/43/43 46/46/46 45/45/45
f 47/47/47 49/49/49 48/48/48
f 47/47/47 50/50/50 49/49/49
f 50/50/50 51/51/51 49/49/49
f 50/50/50 52/52/52 51/51/51
f 52/52/52 53/53/53 51/51/51
f 52/52/52 54/54/54 53/53/53
f 55/55/55 56/56/56 53/53/53
f 55/55/55 57/57/57 56/56/56
f 57/57/57 55/55/55 58/58/58
f 57/57/57 58/58/58 59/59/59
f 53/53/53 56/56/56 60/60/60
f 53/53/53 60/60/60 61/61/61
f 59/59/59 58/58/58 62/62/62
f 59/59/59 62/62/62 63/63/63
f 61/61/61 60/60/60 64/64/64
f 61/61/61 64/64/64 65/65/65
f 63/63/63 62/62/62 66/66/66
f 63/63/63 66/66/66 67/67/67
f 65/65/65 64/64/64 68/68/68
f 65/65/65 68/68/68 69/69/69
f 67/67/67 66/66/66 70/70/70
f 67/67/67 70/70/70 71/71/71
f 69/69/69 68/68/68 72/72/72
f 69/69/69 72/72/72 73/73/73
f 74/74/74 76/76/76 75/75/75
f 74/74/74 77/77/77 76/76/76
f 78/78/78 80/80/80 79/79/79
f 78/78/78 81/81/81 80/80/80
f 82/82/82 84/84/84 83/83/83
f 82/82/82 85/85/85 84/84/84
f 86/86/86 88/88/88 87/87/87
f 86/86/86 89/89/89 88/88/88
f 90/90/90 92/92/92 91/91/91
f 90/90/90 93/93/93 92/92/92
f 94/94/94 96/96/96 95/95/95
f 94/94/94 97/97/97 96/96/96
f 98/98/98 100/100/100 99/99/99
f 98/98/98 101/101/101 100/100/100
f 102/102/102 104/104/104 103/103/103
f 102/102/102 105/105/105 104/104/104
f 106/106/106 107/107/107 56/56/56
f 106/106/106 108/108/108 107/107/107
f 108/108/108 109/109/109 107/107/107
f 108/108/108 110/110/110 109/109/109
f 110/110/110 111/111/111 109/109/109
f 110/110/110 112/112/112 111/111/111
f 112/112/112 113/113/113 111/111/111
f 112/112/112 114/114/114 113/113/113
f 115/115/115 117/117/117 116/116/116
f 115/115/115 118/118/118 117/117/117
f 119/119/119 121/121/121 120/120/120
f 119/119/119 122/122/122 121/121/121
f 123/123/123 125/125/125 124/124/124
f 123/123/123 126/126/126 125/125/125
f 127/127/127 129/129/129 128/128/128
f 127/127/127 130/130/130 129/129/129
f 131/131/131 133/133/133 132/132/132
f 131/131/131 134/134/134 133/133/133
f 135/135/135 137/137/137 136/136/136
f 135/135/135 138/138/138 137/137/137
f 139/139/139 141/141/141 140/140/140
f 139/139/139 142/142/142 141/141/141
f 143/143/143 145/145/145 144/144/144
f 143/143/143 146/146/146 145/145/145
f 147/147/147 149/149/149 148/148/148
f 147/147/147 150/150/150 149/149/149
f 151/151/151 153/153/153 152/152/152
f 151/151/151 154/154/154 153/153/153
f 155/155/155 157/157/157 156/156/156
f 155/155/155 158/158/158 157/157/157
f 159/159/159 161/161/161 160/160/160
f 159/159/159 162/162/162 161/161/161
f 163/163/163 165/165/165 164/164/164
f 163/163/163 166/166/166 165/165/165
f 167/167/167 169/169/169 168/168/168
f 167/167/167 170/170/170 169/169/169
f 171/171/171 173/173/173 172/172/172
f 171/171/171 174/174/174 173/173/173
f 175/175/175 177/177/177 176/176/176
f 175/175/175 178/178/178 177/177/177
f 179/179/179 181/181/181 180/180/180
f 179/179/179 182/182/182 181/181/181
f 183/183/183 185/185/185 184/184/184
f 183/183/183 186/186/186 185/185/185
f 187/187/187 189/189/189 188/188/188
f 187/187/187 190/190/190 189/189/189
f 191/191/191 193/193/193 192/192/192
f 191/191/191 194/194/194 193/193/193
f 195/195/195 197/197/197 196/196/196
f 195/195/195 198/198/198 197/197/197
f 199/199/199 201/201/201 200/200/200
f 199/199/199 202/202/202 201/201/201
f 203/203/203 205/205/205 204/204/204
f 203/203/203 206/206/206 205/205/205
