#polySurface181_1803_31.obj

v -0.173869 1.717083 0.06932259
v -0.03971837 1.717083 -0.1517555
v 0.173875 1.717083 -0.01980086
v 0.07376581 1.717083 0.1517696
v -0.173869 -4.74635E-06 0.06932259
v 0.07376581 -4.74635E-06 0.1517696
v 0.173875 -4.74635E-06 -0.01980086
v -0.03971837 -4.74635E-06 -0.1517555
v -0.173869 -4.74635E-06 0.06932259
v -0.173869 0.39897 0.06932259
v 0.07376581 0.39897 0.1517696
v 0.07376581 -4.74635E-06 0.1517696
v 0.07376581 0.4620676 0.1517696
v -0.173869 0.4620676 0.06932259
v 0.07376581 0.5238518 0.1517696
v -0.173869 0.5238518 0.06932259
v 0.07376581 0.898023 0.1517696
v -0.173869 0.898023 0.06932259
v 0.07376581 0.9588656 0.1517696
v -0.173869 0.9588656 0.06932259
v 0.07376581 1.401779 0.1517696
v -0.173869 1.401779 0.06932259
v 0.07376581 1.470872 0.1517696
v -0.173869 1.470872 0.06932259
v 0.07376581 1.538492 0.1517696
v -0.173869 1.538492 0.06932259
v 0.07376581 1.717083 0.1517696
v -0.173869 1.717083 0.06932259
v 0.07376581 -4.74635E-06 0.1517696
v 0.07376581 0.39897 0.1517696
v 0.173875 0.39897 -0.01980086
v 0.173875 -4.74635E-06 -0.01980086
v 0.173875 0.4620676 -0.01980086
v 0.07376581 0.4620676 0.1517696
v 0.173875 0.5238518 -0.01980086
v 0.07376581 0.5238518 0.1517696
v 0.173875 0.898023 -0.01980086
v 0.07376581 0.898023 0.1517696
v 0.173875 0.9588656 -0.01980086
v 0.07376581 0.9588656 0.1517696
v 0.173875 1.401779 -0.01980086
v 0.07376581 1.401779 0.1517696
v 0.173875 1.470872 -0.01980086
v 0.07376581 1.470872 0.1517696
v 0.173875 1.538492 -0.01980086
v 0.07376581 1.538492 0.1517696
v 0.173875 1.717083 -0.01980086
v 0.07376581 1.717083 0.1517696
v 0.173875 -4.74635E-06 -0.01980086
v 0.173875 0.39897 -0.01980086
v -0.03971837 0.39897 -0.1517555
v -0.03971837 -4.74635E-06 -0.1517555
v -0.03971837 -4.74635E-06 -0.1517555
v -0.03971837 0.39897 -0.1517555
v -0.173869 0.39897 0.06932259
v -0.173869 -4.74635E-06 0.06932259
v -0.173869 0.4620676 0.06932259
v -0.03971837 0.4620676 -0.1517555
v -0.03971837 1.470872 -0.1517555
v -0.03971837 1.538492 -0.1517555
v -0.173869 1.538492 0.06932259
v -0.173869 1.470872 0.06932259
v -0.03971837 1.401779 -0.1517555
v -0.173869 1.401779 0.06932259
v -0.03971837 0.9588656 -0.1517555
v -0.173869 0.9588656 0.06932259
v -0.03971837 0.898023 -0.1517555
v -0.173869 0.898023 0.06932259
v -0.03971837 0.5238518 -0.1517555
v -0.173869 0.5238518 0.06932259
v -0.03971837 0.4620676 -0.1517555
v -0.173869 0.4620676 0.06932259
v -0.173869 1.717083 0.06932259
v -0.03971837 1.717083 -0.1517555
v 1.422089 1.472008 -2.424202
v 1.422089 1.539626 -2.424202
v 1.208492 1.539626 -2.556173
v 1.208492 1.472008 -2.556173
v 1.430252 0.3869389 -2.440643
v 1.430252 0.4560313 -2.440643
v 1.216654 0.4560313 -2.572614
v 1.216654 0.3869389 -2.572614
v 0.173875 0.9588656 -0.01980086
v 0.173875 1.401779 -0.01980086
v -0.03971837 1.401779 -0.1517555
v -0.03971837 0.9588656 -0.1517555
v 1.430252 0.898023 -2.440643
v 1.430252 0.9588656 -2.440643
v 1.216654 0.9588656 -2.572614
v 1.216654 0.898023 -2.572614
v 0.173875 0.5238518 -0.01980086
v 0.173875 0.898023 -0.01980086
v -0.03971837 0.898023 -0.1517555
v -0.03971837 0.5238518 -0.1517555
v 1.430252 1.408936 -2.440643
v 1.430252 1.470718 -2.440643
v 1.216654 1.470718 -2.572614
v 1.216654 1.408936 -2.572614
v 0.173875 1.401779 -0.01980086
v 1.430252 0.3869389 -2.440643
v 1.216654 0.3869389 -2.572614
v -0.03971837 1.401779 -0.1517555
v -0.03971837 1.401779 -0.1517555
v 1.216654 0.3869389 -2.572614
v 1.216654 0.4560313 -2.572614
v -0.03971837 1.470872 -0.1517555
v 1.208492 1.472008 -2.556173
v 1.208492 1.539626 -2.556173
v -0.03971837 1.538492 -0.1517555
v -0.03971837 1.470872 -0.1517555
v 1.216654 0.4560313 -2.572614
v 1.430252 0.4560313 -2.440643
v 0.173875 1.470872 -0.01980086
v 0.173875 1.470872 -0.01980086
v 1.430252 0.4560313 -2.440643
v 1.430252 0.3869389 -2.440643
v 0.173875 1.401779 -0.01980086
v 0.173875 1.538492 -0.01980086
v 1.422089 1.472008 -2.424202
v 1.422089 1.539626 -2.424202
v 0.173875 0.898023 -0.01980086
v 1.430252 0.898023 -2.440643
v 1.216654 0.898023 -2.572614
v -0.03971837 0.898023 -0.1517555
v -0.03971837 0.898023 -0.1517555
v 1.216654 0.898023 -2.572614
v 1.216654 0.9588656 -2.572614
v -0.03971837 0.9588656 -0.1517555
v -0.03971837 0.9588656 -0.1517555
v 1.216654 0.9588656 -2.572614
v 1.430252 0.9588656 -2.440643
v 0.173875 0.9588656 -0.01980086
v 0.173875 0.9588656 -0.01980086
v 1.430252 0.9588656 -2.440643
v 1.430252 0.898023 -2.440643
v 0.173875 0.898023 -0.01980086
v 0.173875 0.4620676 -0.01980086
v 1.430252 1.408936 -2.440643
v 1.216654 1.408936 -2.572614
v -0.03971837 0.4620676 -0.1517555
v -0.03971837 0.4620676 -0.1517555
v 1.216654 1.408936 -2.572614
v 1.216654 1.470718 -2.572614
v -0.03971837 0.5238518 -0.1517555
v -0.03971837 0.39897 -0.1517555
v 1.208492 0.4632041 -2.556173
v 1.208492 0.4001047 -2.556173
v -0.03971837 0.5238518 -0.1517555
v 1.216654 1.470718 -2.572614
v 1.430252 1.470718 -2.440643
v 0.173875 0.5238518 -0.01980086
v 0.173875 0.5238518 -0.01980086
v 1.430252 1.470718 -2.440643
v 1.430252 1.408936 -2.440643
v 0.173875 0.4620676 -0.01980086
v 1.422089 0.4632041 -2.424202
v 1.422089 0.4001047 -2.424202
v 0.173875 0.39897 -0.01980086
v 0.173875 1.538492 -0.01980086
v 0.173875 1.717083 -0.01980086
v -0.03971837 1.717083 -0.1517555
v -0.03971837 1.538492 -0.1517555
v 1.422089 0.4001047 -2.424202
v 1.422089 0.4632041 -2.424202
v 1.208492 0.4632041 -2.556173
v 1.208492 0.4001047 -2.556173
v 0.173875 1.470872 -0.01980086
v 1.422089 1.472008 -2.424202
v 1.208492 1.472008 -2.556173
v -0.03971837 1.470872 -0.1517555
v -0.03971837 1.538492 -0.1517555
v 1.208492 1.539626 -2.556173
v 1.422089 1.539626 -2.424202
v 0.173875 1.538492 -0.01980086
v 0.173875 0.39897 -0.01980086
v 1.422089 0.4001047 -2.424202
v 1.208492 0.4001047 -2.556173
v -0.03971837 0.39897 -0.1517555
v -0.03971837 0.4620676 -0.1517555
v 1.208492 0.4632041 -2.556173
v 1.422089 0.4632041 -2.424202
v 0.173875 0.4620676 -0.01980086

vn 0 1 0
vn 0 1 0
vn 0 1 0
vn 0 1 0
vn 0 -1 0
vn 0 -1 0
vn 0 -1 0
vn 0 -1 0
vn -0.5331826 0 0.8460002
vn -0.5331826 0 0.8460002
vn -0.5331826 0 0.8460002
vn -0.5331826 0 0.8460002
vn -0.5331826 0 0.8460002
vn -0.5331826 0 0.8460002
vn -0.5331827 0 0.8460002
vn -0.5331827 0 0.8460002
vn -0.5331827 0 0.8460002
vn -0.5331827 0 0.8460002
vn -0.5331825 0 0.8460003
vn -0.5331825 0 0.8460003
vn -0.5331824 0 0.8460003
vn -0.5331824 0 0.8460003
vn -0.5331826 0 0.8460002
vn -0.5331826 0 0.8460002
vn -0.5331827 0 0.8460001
vn -0.5331827 0 0.8460001
vn -0.5331827 0 0.8460001
vn -0.5331827 0 0.8460001
vn 0.7184936 0 0.6955336
vn 0.7184937 0 0.6955336
vn 0.7184936 0 0.6955336
vn 0.7184936 0 0.6955336
vn 0.7184936 0 0.6955336
vn 0.7184936 0 0.6955336
vn 0.7184937 0 0.6955336
vn 0.7184937 0 0.6955336
vn 0.7184936 0 0.6955336
vn 0.7184936 0 0.6955336
vn 0.7184935 0 0.6955337
vn 0.7184935 0 0.6955337
vn 0.7184934 0 0.6955338
vn 0.7184934 0 0.6955338
vn 0.7184946 0 0.6955326
vn 0.7184946 0 0.6955326
vn 0.7184958 0 0.6955314
vn 0.7184958 0 0.6955314
vn 0.7184958 0 0.6955314
vn 0.7184958 0 0.6955314
vn 0.7134076 0 -0.7007493
vn 0.7134076 0 -0.7007493
vn 0.7134076 0 -0.7007493
vn 0.7134076 0 -0.7007493
vn -0.7064295 0 -0.7077835
vn -0.7064295 0 -0.7077835
vn -0.7064295 0 -0.7077835
vn -0.7064295 0 -0.7077835
vn -0.7064295 0 -0.7077835
vn -0.7064295 0 -0.7077835
vn -0.7064297 0 -0.7077833
vn -0.7064295 0 -0.7077834
vn -0.7064295 0 -0.7077834
vn -0.7064297 0 -0.7077833
vn -0.7064297 0 -0.7077833
vn -0.7064297 0 -0.7077833
vn -0.7064297 0 -0.7077833
vn -0.7064297 0 -0.7077833
vn -0.7064295 0 -0.7077835
vn -0.7064295 0 -0.7077835
vn -0.7064295 0 -0.7077835
vn -0.7064295 0 -0.7077835
vn -0.7064295 0 -0.7077835
vn -0.7064295 0 -0.7077835
vn -0.7064294 0 -0.7077835
vn -0.7064294 0 -0.7077835
vn 0.713409 0 -0.7007478
vn 0.713409 0 -0.7007478
vn 0.7134089 0 -0.7007479
vn 0.7134089 0 -0.7007479
vn 0.7134067 0 -0.7007502
vn 0.7134067 0 -0.7007502
vn 0.7134067 0 -0.7007502
vn 0.7134067 0 -0.7007502
vn 0.7134079 0 -0.7007489
vn 0.7134079 0 -0.7007489
vn 0.7134079 0 -0.7007489
vn 0.7134079 0 -0.7007489
vn 0.7134067 0 -0.7007502
vn 0.7134067 0 -0.7007502
vn 0.7134067 0 -0.7007502
vn 0.7134067 0 -0.7007502
vn 0.7134077 0 -0.7007492
vn 0.7134077 0 -0.7007492
vn 0.7134077 0 -0.7007492
vn 0.7134077 0 -0.7007492
vn 0.713407 0 -0.7007501
vn 0.713407 0 -0.7007501
vn 0.713407 0 -0.7007501
vn 0.713407 0 -0.7007501
vn -0.4721611 -0.7496456 0.4637837
vn -0.4721611 -0.7496456 0.4637837
vn -0.4721611 -0.7496456 0.4637836
vn -0.4721611 -0.7496456 0.4637837
vn -0.7520274 0 -0.6591319
vn -0.7520273 0 -0.6591319
vn -0.7520274 0 -0.6591319
vn -0.7520273 0 -0.6591319
vn -0.7519471 0 -0.6592234
vn -0.7519471 0 -0.6592234
vn -0.7519471 0 -0.6592234
vn 0.4721611 0.7496456 -0.4637837
vn 0.4721611 0.7496456 -0.4637836
vn 0.4721611 0.7496456 -0.4637837
vn 0.4721611 0.7496456 -0.4637837
vn 0.7520271 0 0.6591322
vn 0.7520271 0 0.6591322
vn 0.7520271 0 0.6591322
vn 0.7520271 0 0.6591322
vn 0.7519471 5.632483E-06 0.6592234
vn 0.7519471 5.632483E-06 0.6592234
vn 0.7519471 5.632483E-06 0.6592234
vn 0 -1 0
vn 0 -1 0
vn 0 -1 0
vn 0 -1 0
vn -0.7520273 0 -0.659132
vn -0.7520273 0 -0.659132
vn -0.7520273 0 -0.659132
vn -0.7520273 0 -0.659132
vn 0 1 0
vn 0 1 0
vn 0 1 0
vn 0 1 0
vn 0.752027 -6.217732E-06 0.6591324
vn 0.7520269 -6.217732E-06 0.6591324
vn 0.7520269 -6.217732E-06 0.6591324
vn 0.752027 -6.217732E-06 0.6591324
vn 0.4535865 -0.7718514 -0.4455387
vn 0.4535865 -0.7718514 -0.4455387
vn 0.4535865 -0.7718514 -0.4455387
vn 0.4535865 -0.7718514 -0.4455387
vn -0.7520273 0 -0.659132
vn -0.7520273 0 -0.659132
vn -0.7520273 0 -0.659132
vn -0.7520273 0 -0.659132
vn -0.7519475 0 -0.659223
vn -0.7519475 0 -0.659223
vn -0.7519475 0 -0.659223
vn -0.4535865 0.7718514 0.4455387
vn -0.4535865 0.7718514 0.4455387
vn -0.4535865 0.7718514 0.4455387
vn -0.4535865 0.7718514 0.4455387
vn 0.752027 0 0.6591324
vn 0.7520269 0 0.6591324
vn 0.752027 0 0.6591324
vn 0.7520269 0 0.6591324
vn 0.7519475 0 0.659223
vn 0.7519475 0 0.659223
vn 0.7519475 0 0.659223
vn 0.7134088 0 -0.7007482
vn 0.7134088 0 -0.7007481
vn 0.7134088 0 -0.7007482
vn 0.7134088 0 -0.7007482
vn 0.7134079 0 -0.7007489
vn 0.7134079 0 -0.7007489
vn 0.7134079 0 -0.7007489
vn 0.7134079 0 -0.7007489
vn 0.0007095395 -0.9999995 -0.0006971774
vn 0.0007095395 -0.9999995 -0.0006971774
vn 0.0007095395 -0.9999995 -0.0006971774
vn 0.0007095395 -0.9999995 -0.0006971774
vn -0.000709542 0.9999995 0.0006971799
vn -0.0007095421 0.9999995 0.0006971799
vn -0.000709542 0.9999995 0.0006971799
vn -0.0007095421 0.9999995 0.0006971799
vn 0.0007094675 -0.9999995 -0.0006969242
vn 0.0007094675 -0.9999995 -0.0006969242
vn 0.0007094675 -0.9999995 -0.0006969242
vn 0.0007094675 -0.9999995 -0.0006969242
vn -0.000709425 0.9999995 0.0006967975
vn -0.0007094251 0.9999995 0.0006967975
vn -0.000709425 0.9999995 0.0006967975
vn -0.0007094251 0.9999995 0.0006967975

vt 0 0
vt 0.1903076 0.8354492
vt 1 0.644043
vt 0.8647461 0
vt 0 0
vt 0.8647461 0
vt 1 0.644043
vt 0.1903076 0.8354492
vt 0 0
vt 0 0
vt 0.8647461 0
vt 0.8647461 0
vt 0.8647461 0
vt 0 0
vt 0.8647461 0
vt 0 0
vt 0.8647461 0
vt 0 0
vt 0.8647461 0
vt 0 0
vt 0.8647461 0
vt 0 0
vt 0.8647461 0
vt 0 0
vt 0.8647461 0
vt 0 0
vt 0.8647461 0
vt 0 0
vt 0.8647461 0
vt 0.8647461 0
vt 1 0.644043
vt 1 0.644043
vt 1 0.644043
vt 0.8647461 0
vt 1 0.644043
vt 0.8647461 0
vt 1 0.644043
vt 0.8647461 0
vt 1 0.644043
vt 0.8647461 0
vt 1 0.644043
vt 0.8647461 0
vt 1 0.644043
vt 0.8647461 0
vt 1 0.644043
vt 0.8647461 0
vt 1 0.644043
vt 0.8647461 0
vt 1 0.644043
vt 1 0.644043
vt 0.1903076 0.8354492
vt 0.1903076 0.8354492
vt 0.1903076 0.8354492
vt 0.1903076 0.8354492
vt 0 0
vt 0 0
vt 0 0
vt 0.1903076 0.8354492
vt 0.1903076 0.8354492
vt 0.1903076 0.8354492
vt 0 0
vt 0 0
vt 0.1903076 0.8354492
vt 0 0
vt 0.1903076 0.8354492
vt 0 0
vt 0.1903076 0.8354492
vt 0 0
vt 0.1903076 0.8354492
vt 0 0
vt 0.1903076 0.8354492
vt 0 0
vt 0 0
vt 0.1903076 0.8354492
vt 1 0.644043
vt 1 0.644043
vt 0.1903076 0.8354492
vt 0.1903076 0.8354492
vt 1 0.644043
vt 1 0.644043
vt 0.1903076 0.8354492
vt 0.1903076 0.8354492
vt 1 0.644043
vt 1 0.644043
vt 0.1903076 0.8354492
vt 0.1903076 0.8354492
vt 1 0.644043
vt 1 0.644043
vt 0.1903076 0.8354492
vt 0.1903076 0.8354492
vt 1 0.644043
vt 1 0.644043
vt 0.1903076 0.8354492
vt 0.1903076 0.8354492
vt 1 0.644043
vt 1 0.644043
vt 0.1903076 0.8354492
vt 0.1903076 0.8354492
vt 1 0.644043
vt 1 0.644043
vt 0.1903076 0.8354492
vt 0.1903076 0.8354492
vt 0.1903076 0.8354492
vt 0.1903076 0.8354492
vt 0.1903076 0.8354492
vt 0.1903076 0.8354492
vt 0.1903076 0.8354492
vt 0.1903076 0.8354492
vt 0.1903076 0.8354492
vt 0.1903076 0.8354492
vt 0.1903076 0.8354492
vt 1 0.644043
vt 1 0.644043
vt 1 0.644043
vt 1 0.644043
vt 1 0.644043
vt 1 0.644043
vt 1 0.644043
vt 1 0.644043
vt 1 0.644043
vt 1 0.644043
vt 1 0.644043
vt 0.1903076 0.8354492
vt 0.1903076 0.8354492
vt 0.1903076 0.8354492
vt 0.1903076 0.8354492
vt 0.1903076 0.8354492
vt 0.1903076 0.8354492
vt 0.1903076 0.8354492
vt 0.1903076 0.8354492
vt 1 0.644043
vt 1 0.644043
vt 1 0.644043
vt 1 0.644043
vt 1 0.644043
vt 1 0.644043
vt 1 0.644043
vt 1 0.644043
vt 0.1903076 0.8354492
vt 0.1903076 0.8354492
vt 0.1903076 0.8354492
vt 0.1903076 0.8354492
vt 0.1903076 0.8354492
vt 0.1903076 0.8354492
vt 0.1903076 0.8354492
vt 0.1903076 0.8354492
vt 0.1903076 0.8354492
vt 0.1903076 0.8354492
vt 0.1903076 0.8354492
vt 1 0.644043
vt 1 0.644043
vt 1 0.644043
vt 1 0.644043
vt 1 0.644043
vt 1 0.644043
vt 1 0.644043
vt 1 0.644043
vt 1 0.644043
vt 1 0.644043
vt 1 0.644043
vt 0.1903076 0.8354492
vt 0.1903076 0.8354492
vt 1 0.644043
vt 1 0.644043
vt 0.1903076 0.8354492
vt 0.1903076 0.8354492
vt 1 0.644043
vt 1 0.644043
vt 0.1903076 0.8354492
vt 0.1903076 0.8354492
vt 0.1903076 0.8354492
vt 0.1903076 0.8354492
vt 1 0.644043
vt 1 0.644043
vt 1 0.644043
vt 1 0.644043
vt 0.1903076 0.8354492
vt 0.1903076 0.8354492
vt 0.1903076 0.8354492
vt 0.1903076 0.8354492
vt 1 0.644043
vt 1 0.644043

g polySurface181_1803_31
usemtl polySurface181_1803_31
usemap polySurface181_1803_31
f 1/1/1 3/3/3 2/2/2
f 1/1/1 4/4/4 3/3/3
f 5/5/5 7/7/7 6/6/6
f 5/5/5 8/8/8 7/7/7
f 9/9/9 11/11/11 10/10/10
f 9/9/9 12/12/12 11/11/11
f 10/10/10 11/11/11 13/13/13
f 10/10/10 13/13/13 14/14/14
f 14/14/14 13/13/13 15/15/15
f 14/14/14 15/15/15 16/16/16
f 16/16/16 15/15/15 17/17/17
f 16/16/16 17/17/17 18/18/18
f 18/18/18 17/17/17 19/19/19
f 18/18/18 19/19/19 20/20/20
f 20/20/20 19/19/19 21/21/21
f 20/20/20 21/21/21 22/22/22
f 22/22/22 21/21/21 23/23/23
f 22/22/22 23/23/23 24/24/24
f 24/24/24 23/23/23 25/25/25
f 24/24/24 25/25/25 26/26/26
f 26/26/26 25/25/25 27/27/27
f 26/26/26 27/27/27 28/28/28
f 29/29/29 31/31/31 30/30/30
f 29/29/29 32/32/32 31/31/31
f 30/30/30 31/31/31 33/33/33
f 30/30/30 33/33/33 34/34/34
f 34/34/34 33/33/33 35/35/35
f 34/34/34 35/35/35 36/36/36
f 36/36/36 35/35/35 37/37/37
f 36/36/36 37/37/37 38/38/38
f 38/38/38 37/37/37 39/39/39
f 38/38/38 39/39/39 40/40/40
f 40/40/40 39/39/39 41/41/41
f 40/40/40 41/41/41 42/42/42
f 42/42/42 41/41/41 43/43/43
f 42/42/42 43/43/43 44/44/44
f 44/44/44 43/43/43 45/45/45
f 44/44/44 45/45/45 46/46/46
f 46/46/46 45/45/45 47/47/47
f 46/46/46 47/47/47 48/48/48
f 49/49/49 51/51/51 50/50/50
f 49/49/49 52/52/52 51/51/51
f 53/53/53 55/55/55 54/54/54
f 53/53/53 56/56/56 55/55/55
f 54/54/54 55/55/55 57/57/57
f 54/54/54 57/57/57 58/58/58
f 59/59/59 61/61/61 60/60/60
f 59/59/59 62/62/62 61/61/61
f 63/63/63 62/62/62 59/59/59
f 63/63/63 64/64/64 62/62/62
f 65/65/65 64/64/64 63/63/63
f 65/65/65 66/66/66 64/64/64
f 67/67/67 66/66/66 65/65/65
f 67/67/67 68/68/68 66/66/66
f 69/69/69 68/68/68 67/67/67
f 69/69/69 70/70/70 68/68/68
f 71/71/71 70/70/70 69/69/69
f 71/71/71 72/72/72 70/70/70
f 60/60/60 61/61/61 73/73/73
f 60/60/60 73/73/73 74/74/74
f 75/75/75 77/77/77 76/76/76
f 75/75/75 78/78/78 77/77/77
f 79/79/79 81/81/81 80/80/80
f 79/79/79 82/82/82 81/81/81
f 83/83/83 85/85/85 84/84/84
f 83/83/83 86/86/86 85/85/85
f 87/87/87 89/89/89 88/88/88
f 87/87/87 90/90/90 89/89/89
f 91/91/91 93/93/93 92/92/92
f 91/91/91 94/94/94 93/93/93
f 95/95/95 97/97/97 96/96/96
f 95/95/95 98/98/98 97/97/97
f 99/99/99 101/101/101 100/100/100
f 99/99/99 102/102/102 101/101/101
f 103/103/103 105/105/105 104/104/104
f 103/103/103 106/106/106 105/105/105
f 106/106/106 108/108/108 107/107/107
f 106/106/106 109/109/109 108/108/108
f 110/110/110 112/112/112 111/111/111
f 110/110/110 113/113/113 112/112/112
f 114/114/114 116/116/116 115/115/115
f 114/114/114 117/117/117 116/116/116
f 118/118/118 114/114/114 119/119/119
f 118/118/118 119/119/119 120/120/120
f 121/121/121 123/123/123 122/122/122
f 121/121/121 124/124/124 123/123/123
f 125/125/125 127/127/127 126/126/126
f 125/125/125 128/128/128 127/127/127
f 129/129/129 131/131/131 130/130/130
f 129/129/129 132/132/132 131/131/131
f 133/133/133 135/135/135 134/134/134
f 133/133/133 136/136/136 135/135/135
f 137/137/137 139/139/139 138/138/138
f 137/137/137 140/140/140 139/139/139
f 141/141/141 143/143/143 142/142/142
f 141/141/141 144/144/144 143/143/143
f 145/145/145 141/141/141 146/146/146
f 145/145/145 146/146/146 147/147/147
f 148/148/148 150/150/150 149/149/149
f 148/148/148 151/151/151 150/150/150
f 152/152/152 154/154/154 153/153/153
f 152/152/152 155/155/155 154/154/154
f 155/155/155 157/157/157 156/156/156
f 155/155/155 158/158/158 157/157/157
f 159/159/159 161/161/161 160/160/160
f 159/159/159 162/162/162 161/161/161
f 163/163/163 165/165/165 164/164/164
f 163/163/163 166/166/166 165/165/165
f 167/167/167 169/169/169 168/168/168
f 167/167/167 170/170/170 169/169/169
f 171/171/171 173/173/173 172/172/172
f 171/171/171 174/174/174 173/173/173
f 175/175/175 177/177/177 176/176/176
f 175/175/175 178/178/178 177/177/177
f 179/179/179 181/181/181 180/180/180
f 179/179/179 182/182/182 181/181/181
