#satellite02_1065_36.obj

v 0.3710952 0.05901823 -0.4468837
v 0.372363 0.06627268 -0.433468
v 0.3556958 0.07425258 -0.4439153
v 0.3620771 0.06333724 -0.4525381
v 0.3620771 0.06333724 -0.4525381
v 0.3556958 0.07425258 -0.4439153
v 0.3408324 0.06627268 -0.4567976
v 0.354032 0.05901823 -0.45951
v 0.354032 0.05901823 -0.45951
v 0.3408324 0.06627268 -0.4567976
v 0.3364767 0.04700421 -0.4645695
v 0.3516746 0.04859037 -0.4637156
v 0.3516746 0.04859037 -0.4637156
v 0.3364767 0.04700421 -0.4645695
v 0.3451834 0.02773702 -0.4626777
v 0.3563869 0.03816251 -0.4626926
v 0.3563869 0.03816251 -0.4626926
v 0.3451834 0.02773702 -0.4626777
v 0.3618483 0.01975583 -0.4522302
v 0.3654052 0.03384349 -0.4570379
v 0.3654052 0.03384349 -0.4570379
v 0.3618483 0.01975583 -0.4522302
v 0.3767143 0.02773702 -0.4393477
v 0.3734501 0.03816251 -0.4500663
v 0.3734501 0.03816251 -0.4500663
v 0.3767143 0.02773702 -0.4393477
v 0.3810677 0.04700421 -0.4315763
v 0.3758079 0.04859037 -0.4458596
v 0.3758079 0.04859037 -0.4458596
v 0.3810677 0.04700421 -0.4315763
v 0.372363 0.06627268 -0.433468
v 0.3710952 0.05901823 -0.4468837
v 0.372363 0.06627268 -0.433468
v 0.3690925 0.06980655 -0.4189408
v 0.3473165 0.08023331 -0.4325912
v 0.3556958 0.07425258 -0.4439153
v 0.3556958 0.07425258 -0.4439153
v 0.3473165 0.08023331 -0.4325912
v 0.3278959 0.06980655 -0.4494232
v 0.3408324 0.06627268 -0.4567976
v 0.3408324 0.06627268 -0.4567976
v 0.3278959 0.06980655 -0.4494232
v 0.322206 0.04463181 -0.4595774
v 0.3364767 0.04700421 -0.4645695
v 0.3364767 0.04700421 -0.4645695
v 0.322206 0.04463181 -0.4595774
v 0.3335813 0.01945707 -0.4571058
v 0.3451834 0.02773702 -0.4626777
v 0.3451834 0.02773702 -0.4626777
v 0.3335813 0.01945707 -0.4571058
v 0.355355 0.009030484 -0.4434552
v 0.3618483 0.01975583 -0.4522302
v 0.3618483 0.01975583 -0.4522302
v 0.355355 0.009030484 -0.4434552
v 0.3747776 0.01945707 -0.4266232
v 0.3767143 0.02773702 -0.4393477
v 0.3767143 0.02773702 -0.4393477
v 0.3747776 0.01945707 -0.4266232
v 0.3804655 0.04463181 -0.416469
v 0.3810677 0.04700421 -0.4315763
v 0.3810677 0.04700421 -0.4315763
v 0.3804655 0.04463181 -0.416469
v 0.3690925 0.06980655 -0.4189408
v 0.372363 0.06627268 -0.433468
v 0.3690925 0.06980655 -0.4189408
v 0.3617842 0.06908108 -0.4055144
v 0.3382138 0.08036837 -0.4202889
v 0.3473165 0.08023331 -0.4325912
v 0.3473165 0.08023331 -0.4325912
v 0.3382138 0.08036837 -0.4202889
v 0.3171935 0.06908108 -0.4385079
v 0.3278959 0.06980655 -0.4494232
v 0.3278959 0.06980655 -0.4494232
v 0.3171935 0.06908108 -0.4385079
v 0.3110342 0.04183271 -0.4494986
v 0.322206 0.04463181 -0.4595774
v 0.322206 0.04463181 -0.4595774
v 0.3110342 0.04183271 -0.4494986
v 0.3233457 0.01458415 -0.4468231
v 0.3335813 0.01945707 -0.4571058
v 0.3335813 0.01945707 -0.4571058
v 0.3233457 0.01458415 -0.4468231
v 0.3469161 0.003296865 -0.4320487
v 0.355355 0.009030484 -0.4434552
v 0.355355 0.009030484 -0.4434552
v 0.3469161 0.003296865 -0.4320487
v 0.3679364 0.01458415 -0.4138297
v 0.3747776 0.01945707 -0.4266232
v 0.3747776 0.01945707 -0.4266232
v 0.3679364 0.01458415 -0.4138297
v 0.3740957 0.04183271 -0.402839
v 0.3804655 0.04463181 -0.416469
v 0.3804655 0.04463181 -0.416469
v 0.3740957 0.04183271 -0.402839
v 0.3617842 0.06908108 -0.4055144
v 0.3690925 0.06980655 -0.4189408
v 0.3617842 0.06908108 -0.4055144
v 0.3515486 0.06420816 -0.3952318
v 0.3297752 0.07463475 -0.4088826
v 0.3382138 0.08036837 -0.4202889
v 0.3382138 0.08036837 -0.4202889
v 0.3297752 0.07463475 -0.4088826
v 0.3103523 0.06420816 -0.4257144
v 0.3171935 0.06908108 -0.4385079
v 0.3171935 0.06908108 -0.4385079
v 0.3103523 0.06420816 -0.4257144
v 0.3046644 0.03903342 -0.4358686
v 0.3110342 0.04183271 -0.4494986
v 0.3110342 0.04183271 -0.4494986
v 0.3046644 0.03903342 -0.4358686
v 0.3160374 0.01385869 -0.4333968
v 0.3233457 0.01458415 -0.4468231
v 0.3233457 0.01458415 -0.4468231
v 0.3160374 0.01385869 -0.4333968
v 0.3378134 0.00343192 -0.4197464
v 0.3469161 0.003296865 -0.4320487
v 0.3469161 0.003296865 -0.4320487
v 0.3378134 0.00343192 -0.4197464
v 0.3572339 0.01385869 -0.4029144
v 0.3679364 0.01458415 -0.4138297
v 0.3679364 0.01458415 -0.4138297
v 0.3572339 0.01385869 -0.4029144
v 0.3629239 0.03903342 -0.3927602
v 0.3740957 0.04183271 -0.402839
v 0.3740957 0.04183271 -0.402839
v 0.3629239 0.03903342 -0.3927602
v 0.3515486 0.06420816 -0.3952318
v 0.3617842 0.06908108 -0.4055144
v 0.3515486 0.06420816 -0.3952318
v 0.3399465 0.05592822 -0.3896599
v 0.3232818 0.0639094 -0.4001071
v 0.3297752 0.07463475 -0.4088826
v 0.3297752 0.07463475 -0.4088826
v 0.3232818 0.0639094 -0.4001071
v 0.3084159 0.05592822 -0.4129901
v 0.3103523 0.06420816 -0.4257144
v 0.3103523 0.06420816 -0.4257144
v 0.3084159 0.05592822 -0.4129901
v 0.3040625 0.03666103 -0.4207616
v 0.3046644 0.03903342 -0.4358686
v 0.3046644 0.03903342 -0.4358686
v 0.3040625 0.03666103 -0.4207616
v 0.3127668 0.01739256 -0.4188696
v 0.3160374 0.01385869 -0.4333968
v 0.3160374 0.01385869 -0.4333968
v 0.3127668 0.01739256 -0.4188696
v 0.3294341 0.009412652 -0.4084223
v 0.3378134 0.00343192 -0.4197464
v 0.3378134 0.00343192 -0.4197464
v 0.3294341 0.009412652 -0.4084223
v 0.3442975 0.01739256 -0.3955399
v 0.3572339 0.01385869 -0.4029144
v 0.3572339 0.01385869 -0.4029144
v 0.3442975 0.01739256 -0.3955399
v 0.3486532 0.03666103 -0.3877681
v 0.3629239 0.03903342 -0.3927602
v 0.3629239 0.03903342 -0.3927602
v 0.3486532 0.03666103 -0.3877681
v 0.3399465 0.05592822 -0.3896599
v 0.3515486 0.06420816 -0.3952318
v 0.3399465 0.05592822 -0.3896599
v 0.328743 0.04550273 -0.389645
v 0.3197249 0.04982174 -0.3952994
v 0.3232818 0.0639094 -0.4001071
v 0.3232818 0.0639094 -0.4001071
v 0.3197249 0.04982174 -0.3952994
v 0.3116798 0.04550273 -0.4022713
v 0.3084159 0.05592822 -0.4129901
v 0.3084159 0.05592822 -0.4129901
v 0.3116798 0.04550273 -0.4022713
v 0.3093222 0.03507486 -0.4064782
v 0.3040625 0.03666103 -0.4207616
v 0.3040625 0.03666103 -0.4207616
v 0.3093222 0.03507486 -0.4064782
v 0.3140347 0.024647 -0.4054539
v 0.3127668 0.01739256 -0.4188696
v 0.3127668 0.01739256 -0.4188696
v 0.3140347 0.024647 -0.4054539
v 0.3230528 0.02032799 -0.3997995
v 0.3294341 0.009412652 -0.4084223
v 0.3294341 0.009412652 -0.4084223
v 0.3230528 0.02032799 -0.3997995
v 0.3310979 0.024647 -0.3928276
v 0.3442975 0.01739256 -0.3955399
v 0.3442975 0.01739256 -0.3955399
v 0.3310979 0.024647 -0.3928276
v 0.3334553 0.03507486 -0.3886219
v 0.3486532 0.03666103 -0.3877681
v 0.3486532 0.03666103 -0.3877681
v 0.3334553 0.03507486 -0.3886219
v 0.328743 0.04550273 -0.389645
v 0.3399465 0.05592822 -0.3896599
v 0.354032 0.05901823 -0.45951
v 0.3516746 0.04859037 -0.4637156
v 0.3654853 0.04914647 -0.4571455
v 0.3620771 0.06333724 -0.4525381
v 0.3563869 0.03816251 -0.4626926
v 0.3654052 0.03384349 -0.4570379
v 0.3654853 0.04914647 -0.4571455
v 0.3516746 0.04859037 -0.4637156
v 0.3734501 0.03816251 -0.4500663
v 0.3758079 0.04859037 -0.4458596
v 0.3654853 0.04914647 -0.4571455
v 0.3654052 0.03384349 -0.4570379
v 0.3710952 0.05901823 -0.4468837
v 0.3620771 0.06333724 -0.4525381
v 0.3654853 0.04914647 -0.4571455
v 0.3758079 0.04859037 -0.4458596
v 0.3196446 0.03451877 -0.395192
v 0.3093222 0.03507486 -0.4064782
v 0.3116798 0.04550273 -0.4022713
v 0.3197249 0.04982174 -0.3952994
v 0.3196446 0.03451877 -0.395192
v 0.3230528 0.02032799 -0.3997995
v 0.3140347 0.024647 -0.4054539
v 0.3093222 0.03507486 -0.4064782
v 0.3196446 0.03451877 -0.395192
v 0.3334553 0.03507486 -0.3886219
v 0.3310979 0.024647 -0.3928276
v 0.3230528 0.02032799 -0.3997995
v 0.3196446 0.03451877 -0.395192
v 0.3197249 0.04982174 -0.3952994
v 0.328743 0.04550273 -0.389645
v 0.3334553 0.03507486 -0.3886219

vn 0.08772972 0.6829901 -0.72514
vn 0.08772972 0.6829902 -0.72514
vn 0.08772972 0.6829901 -0.72514
vn 0.08772972 0.6829901 -0.72514
vn -0.3524853 0.6831094 -0.6396214
vn -0.3524852 0.6831096 -0.6396214
vn -0.3524852 0.6831095 -0.6396214
vn -0.3524853 0.6831095 -0.6396215
vn -0.6751358 0.3714427 -0.6373556
vn -0.6751358 0.3714427 -0.6373556
vn -0.6751358 0.3714427 -0.6373556
vn -0.6751358 0.3714427 -0.6373556
vn -0.6911526 -0.0692095 -0.7193873
vn -0.6911526 -0.06920949 -0.7193873
vn -0.6911526 -0.06920949 -0.7193873
vn -0.6911526 -0.06920949 -0.7193873
vn -0.3910461 -0.3808585 -0.8378721
vn -0.3910461 -0.3808585 -0.8378722
vn -0.3910461 -0.3808585 -0.8378722
vn -0.3910461 -0.3808585 -0.8378722
vn 0.04924086 -0.3808206 -0.9233369
vn 0.04924092 -0.3808206 -0.9233369
vn 0.04924086 -0.3808206 -0.9233369
vn 0.04924086 -0.3808206 -0.9233369
vn 0.3719182 -0.06916107 -0.9256854
vn 0.3719181 -0.06916107 -0.9256855
vn 0.3719181 -0.06916109 -0.9256855
vn 0.3719181 -0.06916107 -0.9256855
vn 0.3878361 0.3713946 -0.843593
vn 0.3878361 0.3713947 -0.843593
vn 0.3878361 0.3713947 -0.843593
vn 0.3878361 0.3713947 -0.843593
vn 0.2492598 0.8703564 -0.4246755
vn 0.2492599 0.8703564 -0.4246755
vn 0.2492599 0.8703564 -0.4246755
vn 0.2492598 0.8703564 -0.4246755
vn -0.3900565 0.8703143 -0.3006809
vn -0.3900565 0.8703143 -0.3006809
vn -0.3900565 0.8703143 -0.3006809
vn -0.3900565 0.8703143 -0.3006809
vn -0.858505 0.4178854 -0.2972222
vn -0.858505 0.4178854 -0.2972222
vn -0.858505 0.4178854 -0.2972222
vn -0.858505 0.4178854 -0.2972222
vn -0.8816336 -0.2220092 -0.4164543
vn -0.8816336 -0.2220092 -0.4164543
vn -0.8816335 -0.2220092 -0.4164543
vn -0.8816336 -0.2220092 -0.4164543
vn -0.4458409 -0.674425 -0.5885378
vn -0.4458409 -0.674425 -0.5885379
vn -0.4458409 -0.674425 -0.5885378
vn -0.4458409 -0.674425 -0.5885378
vn 0.1933685 -0.6745493 -0.7124548
vn 0.1933685 -0.6745493 -0.7124549
vn 0.1933685 -0.6745493 -0.7124548
vn 0.1933685 -0.6745493 -0.7124548
vn 0.6619425 -0.2219157 -0.7159508
vn 0.6619425 -0.2219158 -0.7159508
vn 0.6619425 -0.2219157 -0.7159508
vn 0.6619425 -0.2219157 -0.7159508
vn 0.685072 0.4177896 -0.5967649
vn 0.685072 0.4177896 -0.5967649
vn 0.6850719 0.4177896 -0.5967649
vn 0.6850719 0.4177897 -0.5967648
vn 0.3678966 0.9264456 -0.07969074
vn 0.3678966 0.9264456 -0.07969077
vn 0.3678966 0.9264456 -0.07969074
vn 0.3678966 0.9264456 -0.07969077
vn -0.3710101 0.9264408 0.0637088
vn -0.3710102 0.9264408 0.06370881
vn -0.3710102 0.9264408 0.06370884
vn -0.3710102 0.9264408 0.06370884
vn -0.9124852 0.4034635 0.06773394
vn -0.9124852 0.4034635 0.06773394
vn -0.9124852 0.4034635 0.06773394
vn -0.9124854 0.4034635 0.06773391
vn -0.9391933 -0.3361349 -0.07020974
vn -0.9391933 -0.3361348 -0.07020983
vn -0.9391932 -0.3361349 -0.07020983
vn -0.9391932 -0.3361349 -0.07020983
vn -0.4356492 -0.8589814 -0.2689996
vn -0.4356492 -0.8589814 -0.2689996
vn -0.4356492 -0.8589814 -0.2689996
vn -0.4356492 -0.8589814 -0.2689996
vn 0.3033424 -0.8590598 -0.4123102
vn 0.3033424 -0.8590598 -0.4123102
vn 0.3033424 -0.8590598 -0.4123102
vn 0.3033424 -0.8590598 -0.4123102
vn 0.8448669 -0.3359864 -0.416309
vn 0.8448669 -0.3359863 -0.416309
vn 0.8448669 -0.3359864 -0.416309
vn 0.8448669 -0.3359863 -0.4163089
vn 0.8715665 0.4034556 -0.2785595
vn 0.8715665 0.4034556 -0.2785595
vn 0.8715665 0.4034556 -0.2785595
vn 0.8715665 0.4034556 -0.2785595
vn 0.4356106 0.8590057 0.2689845
vn 0.4356106 0.8590057 0.2689845
vn 0.4356106 0.8590057 0.2689845
vn 0.4356106 0.8590057 0.2689844
vn -0.3033254 0.8590139 0.4124185
vn -0.3033254 0.8590138 0.4124185
vn -0.3033254 0.8590139 0.4124185
vn -0.3033254 0.8590139 0.4124185
vn -0.8448337 0.3360476 0.4163271
vn -0.8448337 0.3360476 0.416327
vn -0.8448337 0.3360476 0.416327
vn -0.8448337 0.3360476 0.416327
vn -0.8715742 -0.4034375 0.278562
vn -0.8715742 -0.4034375 0.2785619
vn -0.8715742 -0.4034375 0.2785619
vn -0.8715742 -0.4034374 0.278562
vn -0.3679738 -0.926416 0.07967938
vn -0.3679737 -0.926416 0.07967937
vn -0.3679738 -0.926416 0.07967937
vn -0.3679738 -0.926416 0.07967937
vn 0.3710031 -0.9264443 -0.06369983
vn 0.3710031 -0.9264443 -0.06369983
vn 0.3710031 -0.9264443 -0.06369981
vn 0.371003 -0.9264443 -0.06369981
vn 0.912461 -0.4035296 -0.06766728
vn 0.912461 -0.4035296 -0.06766734
vn 0.912461 -0.4035296 -0.06766728
vn 0.912461 -0.4035296 -0.06766734
vn 0.9392065 0.3361146 0.07012925
vn 0.9392066 0.3361146 0.07012922
vn 0.9392065 0.3361146 0.07012925
vn 0.9392066 0.3361146 0.07012922
vn 0.4459291 0.6743712 0.5885326
vn 0.4459291 0.6743713 0.5885327
vn 0.4459291 0.6743712 0.5885326
vn 0.4459291 0.6743712 0.5885326
vn -0.1934385 0.6744668 0.7125139
vn -0.1934385 0.6744668 0.7125139
vn -0.1934385 0.6744668 0.7125139
vn -0.1934385 0.6744668 0.7125139
vn -0.6619517 0.2218043 0.7159769
vn -0.6619517 0.2218043 0.7159769
vn -0.6619517 0.2218043 0.7159769
vn -0.6619517 0.2218043 0.7159769
vn -0.6850213 -0.4178874 0.5967546
vn -0.6850213 -0.4178875 0.5967545
vn -0.6850213 -0.4178875 0.5967545
vn -0.6850213 -0.4178875 0.5967545
vn -0.2493046 -0.8703231 0.4247173
vn -0.2493046 -0.8703231 0.4247174
vn -0.2493046 -0.8703231 0.4247174
vn -0.2493046 -0.8703231 0.4247173
vn 0.3900564 -0.8703143 0.3006809
vn 0.3900564 -0.8703143 0.3006809
vn 0.3900565 -0.8703143 0.3006809
vn 0.3900565 -0.8703143 0.3006809
vn 0.8584889 -0.417892 0.2972593
vn 0.8584889 -0.417892 0.2972593
vn 0.8584889 -0.417892 0.2972593
vn 0.8584889 -0.417892 0.2972593
vn 0.8815875 0.2219828 0.4165659
vn 0.8815875 0.2219829 0.4165659
vn 0.8815875 0.2219828 0.4165659
vn 0.8815875 0.2219828 0.4165659
vn 0.3910441 0.3808704 0.8378677
vn 0.3910441 0.3808704 0.8378677
vn 0.391044 0.3808704 0.8378678
vn 0.391044 0.3808704 0.8378679
vn -0.0492219 0.3808928 0.9233082
vn -0.04922196 0.3808928 0.9233081
vn -0.04922187 0.3808928 0.9233081
vn -0.04922196 0.3808928 0.9233081
vn -0.371886 0.06925689 0.9256912
vn -0.371886 0.06925689 0.9256912
vn -0.371886 0.06925689 0.9256912
vn -0.3718861 0.06925689 0.9256912
vn -0.3878289 -0.3714231 0.8435838
vn -0.3878289 -0.371423 0.8435838
vn -0.3878289 -0.371423 0.8435838
vn -0.3878289 -0.371423 0.8435838
vn -0.08769274 -0.6830052 0.7251303
vn -0.08769274 -0.6830052 0.7251303
vn -0.08769274 -0.6830052 0.7251303
vn -0.08769274 -0.6830052 0.7251303
vn 0.3525742 -0.6830096 0.6396791
vn 0.3525742 -0.6830095 0.6396793
vn 0.3525742 -0.6830095 0.6396792
vn 0.3525742 -0.6830096 0.6396791
vn 0.6752197 -0.3713692 0.6373096
vn 0.6752197 -0.3713692 0.6373096
vn 0.6752197 -0.3713691 0.6373096
vn 0.6752197 -0.3713691 0.6373096
vn 0.6911852 0.06920969 0.7193561
vn 0.6911852 0.06920969 0.7193561
vn 0.6911852 0.06920969 0.7193561
vn 0.6911852 0.06920969 0.7193561
vn -0.314045 0.3182305 -0.894486
vn -0.3140449 0.3182305 -0.894486
vn -0.314045 0.3182305 -0.894486
vn -0.314045 0.3182305 -0.894486
vn -0.3238608 0.04742607 -0.9449153
vn -0.3238607 0.04742607 -0.9449154
vn -0.3238607 0.04742608 -0.9449154
vn -0.3238607 0.04742607 -0.9449154
vn -0.0531145 0.04735826 -0.9974649
vn -0.05311459 0.04735826 -0.9974649
vn -0.05311462 0.04735825 -0.9974648
vn -0.0531145 0.04735826 -0.9974649
vn -0.04321432 0.3183633 -0.9469833
vn -0.04321438 0.3183634 -0.9469833
vn -0.04321438 0.3183634 -0.9469833
vn -0.04321432 0.3183633 -0.9469833
vn 0.05307016 -0.0474221 0.9974642
vn 0.05307016 -0.04742211 0.9974642
vn 0.05307019 -0.04742211 0.9974642
vn 0.05307016 -0.04742211 0.9974642
vn 0.04325017 -0.3183216 0.9469957
vn 0.04325011 -0.3183216 0.9469957
vn 0.04325017 -0.3183216 0.9469957
vn 0.04325017 -0.3183216 0.9469957
vn 0.3140118 -0.3184668 0.8944135
vn 0.3140118 -0.3184668 0.8944135
vn 0.3140118 -0.3184668 0.8944135
vn 0.3140118 -0.3184668 0.8944135
vn 0.3238385 -0.04741373 0.9449235
vn 0.3238385 -0.04741372 0.9449235
vn 0.3238385 -0.04741372 0.9449235
vn 0.3238385 -0.04741373 0.9449235

vt 0 0.125
vt 0 0.25
vt 0.125 0.25
vt 0.125 0.125
vt 0.125 0.125
vt 0.125 0.25
vt 0.25 0.25
vt 0.25 0.125
vt 0.25 0.125
vt 0.25 0.25
vt 0.375 0.25
vt 0.375 0.125
vt 0.375 0.125
vt 0.375 0.25
vt 0.5 0.25
vt 0.5 0.125
vt 0.5 0.125
vt 0.5 0.25
vt 0.625 0.25
vt 0.625 0.125
vt 0.625 0.125
vt 0.625 0.25
vt 0.75 0.25
vt 0.75 0.125
vt 0.75 0.125
vt 0.75 0.25
vt 0.875 0.25
vt 0.875 0.125
vt 0.875 0.125
vt 0.875 0.25
vt 1 0.25
vt 1 0.125
vt 0 0.25
vt 0 0.375
vt 0.125 0.375
vt 0.125 0.25
vt 0.125 0.25
vt 0.125 0.375
vt 0.25 0.375
vt 0.25 0.25
vt 0.25 0.25
vt 0.25 0.375
vt 0.375 0.375
vt 0.375 0.25
vt 0.375 0.25
vt 0.375 0.375
vt 0.5 0.375
vt 0.5 0.25
vt 0.5 0.25
vt 0.5 0.375
vt 0.625 0.375
vt 0.625 0.25
vt 0.625 0.25
vt 0.625 0.375
vt 0.75 0.375
vt 0.75 0.25
vt 0.75 0.25
vt 0.75 0.375
vt 0.875 0.375
vt 0.875 0.25
vt 0.875 0.25
vt 0.875 0.375
vt 1 0.375
vt 1 0.25
vt 0 0.375
vt 0 0.5
vt 0.125 0.5
vt 0.125 0.375
vt 0.125 0.375
vt 0.125 0.5
vt 0.25 0.5
vt 0.25 0.375
vt 0.25 0.375
vt 0.25 0.5
vt 0.375 0.5
vt 0.375 0.375
vt 0.375 0.375
vt 0.375 0.5
vt 0.5 0.5
vt 0.5 0.375
vt 0.5 0.375
vt 0.5 0.5
vt 0.625 0.5
vt 0.625 0.375
vt 0.625 0.375
vt 0.625 0.5
vt 0.75 0.5
vt 0.75 0.375
vt 0.75 0.375
vt 0.75 0.5
vt 0.875 0.5
vt 0.875 0.375
vt 0.875 0.375
vt 0.875 0.5
vt 1 0.5
vt 1 0.375
vt 0 0.5
vt 0 0.625
vt 0.125 0.625
vt 0.125 0.5
vt 0.125 0.5
vt 0.125 0.625
vt 0.25 0.625
vt 0.25 0.5
vt 0.25 0.5
vt 0.25 0.625
vt 0.375 0.625
vt 0.375 0.5
vt 0.375 0.5
vt 0.375 0.625
vt 0.5 0.625
vt 0.5 0.5
vt 0.5 0.5
vt 0.5 0.625
vt 0.625 0.625
vt 0.625 0.5
vt 0.625 0.5
vt 0.625 0.625
vt 0.75 0.625
vt 0.75 0.5
vt 0.75 0.5
vt 0.75 0.625
vt 0.875 0.625
vt 0.875 0.5
vt 0.875 0.5
vt 0.875 0.625
vt 1 0.625
vt 1 0.5
vt 0 0.625
vt 0 0.75
vt 0.125 0.75
vt 0.125 0.625
vt 0.125 0.625
vt 0.125 0.75
vt 0.25 0.75
vt 0.25 0.625
vt 0.25 0.625
vt 0.25 0.75
vt 0.375 0.75
vt 0.375 0.625
vt 0.375 0.625
vt 0.375 0.75
vt 0.5 0.75
vt 0.5 0.625
vt 0.5 0.625
vt 0.5 0.75
vt 0.625 0.75
vt 0.625 0.625
vt 0.625 0.625
vt 0.625 0.75
vt 0.75 0.75
vt 0.75 0.625
vt 0.75 0.625
vt 0.75 0.75
vt 0.875 0.75
vt 0.875 0.625
vt 0.875 0.625
vt 0.875 0.75
vt 1 0.75
vt 1 0.625
vt 0 0.75
vt 0 0.875
vt 0.125 0.875
vt 0.125 0.75
vt 0.125 0.75
vt 0.125 0.875
vt 0.25 0.875
vt 0.25 0.75
vt 0.25 0.75
vt 0.25 0.875
vt 0.375 0.875
vt 0.375 0.75
vt 0.375 0.75
vt 0.375 0.875
vt 0.5 0.875
vt 0.5 0.75
vt 0.5 0.75
vt 0.5 0.875
vt 0.625 0.875
vt 0.625 0.75
vt 0.625 0.75
vt 0.625 0.875
vt 0.75 0.875
vt 0.75 0.75
vt 0.75 0.75
vt 0.75 0.875
vt 0.875 0.875
vt 0.875 0.75
vt 0.875 0.75
vt 0.875 0.875
vt 1 0.875
vt 1 0.75
vt 0.25 0.125
vt 0.375 0.125
vt 0.3125 0
vt 0.125 0.125
vt 0.5 0.125
vt 0.625 0.125
vt 0.5625 0
vt 0.375 0.125
vt 0.75 0.125
vt 0.875 0.125
vt 0.8125 0
vt 0.625 0.125
vt 1 0.125
vt 0.125 0.125
vt 0.0625 0
vt 0.875 0.125
vt 0.1875 1
vt 0.375 0.875
vt 0.25 0.875
vt 0.125 0.875
vt 0.4375 1
vt 0.625 0.875
vt 0.5 0.875
vt 0.375 0.875
vt 0.6875 1
vt 0.875 0.875
vt 0.75 0.875
vt 0.625 0.875
vt 0.9375 1
vt 0.125 0.875
vt 0 0.875
vt 0.875 0.875

g satellite02_1065_36
usemtl satellite02_1065_36
usemap satellite02_1065_36
f 1/1/1 3/3/3 2/2/2
f 1/1/1 4/4/4 3/3/3
f 5/5/5 7/7/7 6/6/6
f 5/5/5 8/8/8 7/7/7
f 9/9/9 11/11/11 10/10/10
f 9/9/9 12/12/12 11/11/11
f 13/13/13 15/15/15 14/14/14
f 13/13/13 16/16/16 15/15/15
f 17/17/17 19/19/19 18/18/18
f 17/17/17 20/20/20 19/19/19
f 21/21/21 23/23/23 22/22/22
f 21/21/21 24/24/24 23/23/23
f 25/25/25 27/27/27 26/26/26
f 25/25/25 28/28/28 27/27/27
f 29/29/29 31/31/31 30/30/30
f 29/29/29 32/32/32 31/31/31
f 33/33/33 35/35/35 34/34/34
f 33/33/33 36/36/36 35/35/35
f 37/37/37 39/39/39 38/38/38
f 37/37/37 40/40/40 39/39/39
f 41/41/41 43/43/43 42/42/42
f 41/41/41 44/44/44 43/43/43
f 45/45/45 47/47/47 46/46/46
f 45/45/45 48/48/48 47/47/47
f 49/49/49 51/51/51 50/50/50
f 49/49/49 52/52/52 51/51/51
f 53/53/53 55/55/55 54/54/54
f 53/53/53 56/56/56 55/55/55
f 57/57/57 59/59/59 58/58/58
f 57/57/57 60/60/60 59/59/59
f 61/61/61 63/63/63 62/62/62
f 61/61/61 64/64/64 63/63/63
f 65/65/65 67/67/67 66/66/66
f 65/65/65 68/68/68 67/67/67
f 69/69/69 71/71/71 70/70/70
f 69/69/69 72/72/72 71/71/71
f 73/73/73 75/75/75 74/74/74
f 73/73/73 76/76/76 75/75/75
f 77/77/77 79/79/79 78/78/78
f 77/77/77 80/80/80 79/79/79
f 81/81/81 83/83/83 82/82/82
f 81/81/81 84/84/84 83/83/83
f 85/85/85 87/87/87 86/86/86
f 85/85/85 88/88/88 87/87/87
f 89/89/89 91/91/91 90/90/90
f 89/89/89 92/92/92 91/91/91
f 93/93/93 95/95/95 94/94/94
f 93/93/93 96/96/96 95/95/95
f 97/97/97 99/99/99 98/98/98
f 97/97/97 100/100/100 99/99/99
f 101/101/101 103/103/103 102/102/102
f 101/101/101 104/104/104 103/103/103
f 105/105/105 107/107/107 106/106/106
f 105/105/105 108/108/108 107/107/107
f 109/109/109 111/111/111 110/110/110
f 109/109/109 112/112/112 111/111/111
f 113/113/113 115/115/115 114/114/114
f 113/113/113 116/116/116 115/115/115
f 117/117/117 119/119/119 118/118/118
f 117/117/117 120/120/120 119/119/119
f 121/121/121 123/123/123 122/122/122
f 121/121/121 124/124/124 123/123/123
f 125/125/125 127/127/127 126/126/126
f 125/125/125 128/128/128 127/127/127
f 129/129/129 131/131/131 130/130/130
f 129/129/129 132/132/132 131/131/131
f 133/133/133 135/135/135 134/134/134
f 133/133/133 136/136/136 135/135/135
f 137/137/137 139/139/139 138/138/138
f 137/137/137 140/140/140 139/139/139
f 141/141/141 143/143/143 142/142/142
f 141/141/141 144/144/144 143/143/143
f 145/145/145 147/147/147 146/146/146
f 145/145/145 148/148/148 147/147/147
f 149/149/149 151/151/151 150/150/150
f 149/149/149 152/152/152 151/151/151
f 153/153/153 155/155/155 154/154/154
f 153/153/153 156/156/156 155/155/155
f 157/157/157 159/159/159 158/158/158
f 157/157/157 160/160/160 159/159/159
f 161/161/161 163/163/163 162/162/162
f 161/161/161 164/164/164 163/163/163
f 165/165/165 167/167/167 166/166/166
f 165/165/165 168/168/168 167/167/167
f 169/169/169 171/171/171 170/170/170
f 169/169/169 172/172/172 171/171/171
f 173/173/173 175/175/175 174/174/174
f 173/173/173 176/176/176 175/175/175
f 177/177/177 179/179/179 178/178/178
f 177/177/177 180/180/180 179/179/179
f 181/181/181 183/183/183 182/182/182
f 181/181/181 184/184/184 183/183/183
f 185/185/185 187/187/187 186/186/186
f 185/185/185 188/188/188 187/187/187
f 189/189/189 191/191/191 190/190/190
f 189/189/189 192/192/192 191/191/191
f 193/193/193 195/195/195 194/194/194
f 193/193/193 196/196/196 195/195/195
f 197/197/197 199/199/199 198/198/198
f 197/197/197 200/200/200 199/199/199
f 201/201/201 203/203/203 202/202/202
f 201/201/201 204/204/204 203/203/203
f 205/205/205 207/207/207 206/206/206
f 205/205/205 208/208/208 207/207/207
f 209/209/209 211/211/211 210/210/210
f 209/209/209 212/212/212 211/211/211
f 213/213/213 215/215/215 214/214/214
f 213/213/213 216/216/216 215/215/215
f 217/217/217 219/219/219 218/218/218
f 217/217/217 220/220/220 219/219/219
f 221/221/221 223/223/223 222/222/222
f 221/221/221 224/224/224 223/223/223
