#saucer_1_1027_8.obj

v 0.1726058 -0.1119484 -0.1726058
v 0.1972773 -0.09091977 -0.1972774
v 2.202576E-08 -0.0909198 -0.2789922
v 9.511457E-09 -0.1119484 -0.2441016
v 2.82955E-08 -0.0574025 -0.3154529
v 0.2230591 -0.0574025 -0.2230592
v 9.511457E-09 -0.1119484 -0.2441016
v 2.202576E-08 -0.0909198 -0.2789922
v -0.1972772 -0.09091982 -0.1972774
v -0.1726058 -0.1119484 -0.1726059
v -0.223059 -0.05740253 -0.2230592
v 2.82955E-08 -0.0574025 -0.3154529
v -0.1726058 -0.1119484 -0.1726059
v -0.1972772 -0.09091982 -0.1972774
v -0.2789921 -0.09091984 -6.662828E-08
v -0.2441015 -0.1119484 -7.983466E-08
v -0.3154528 -0.05740257 -9.68987E-08
v -0.223059 -0.05740253 -0.2230592
v -0.2441015 -0.1119484 -7.983466E-08
v -0.2789921 -0.09091984 -6.662828E-08
v -0.1972773 -0.09091985 0.1972772
v -0.1726058 -0.1119484 0.1726057
v -0.223059 -0.05740254 0.223059
v -0.3154528 -0.05740257 -9.68987E-08
v -0.1726058 -0.1119484 0.1726057
v -0.1972773 -0.09091985 0.1972772
v -4.204935E-08 -0.09091983 0.2789921
v -3.504275E-08 -0.1119484 0.2441014
v -4.608021E-08 -0.05740254 0.3154527
v -0.223059 -0.05740254 0.223059
v -3.504275E-08 -0.1119484 0.2441014
v -4.204935E-08 -0.09091983 0.2789921
v 0.1972772 -0.09091979 0.1972772
v 0.1726058 -0.1119484 0.1726057
v 0.223059 -0.05740252 0.2230591
v -4.608021E-08 -0.05740254 0.3154527
v 0.1726058 -0.1119484 0.1726057
v 0.1972772 -0.09091979 0.1972772
v 0.2789921 -0.09091981 -4.495364E-08
v 0.2441015 -0.1119483 -4.865235E-08
v 0.3154529 -0.0574025 -5.409552E-08
v 0.223059 -0.05740252 0.2230591
v 0.2441015 -0.1119483 -4.865235E-08
v 0.2789921 -0.09091981 -4.495364E-08
v 0.1972773 -0.09091977 -0.1972774
v 0.1726058 -0.1119484 -0.1726058
v 0.2230591 -0.0574025 -0.2230592
v 0.3154529 -0.0574025 -5.409552E-08
v -0.1216639 -0.110465 -0.121664
v -0.1726058 -0.1119484 -0.1726059
v -0.2441015 -0.1119484 -7.983466E-08
v -0.1720589 -0.110465 -8.789131E-08
v 9.694796E-09 -0.110465 -0.172059
v 9.511457E-09 -0.1119484 -0.2441016
v -0.1726058 -0.1119484 -0.1726059
v -0.1216639 -0.110465 -0.121664
v 0.1216639 -0.110465 -0.121664
v 0.1726058 -0.1119484 -0.1726058
v 9.511457E-09 -0.1119484 -0.2441016
v 9.694796E-09 -0.110465 -0.172059
v 0.1720588 -0.110465 -6.414343E-08
v 0.2441015 -0.1119483 -4.865235E-08
v 0.1726058 -0.1119484 -0.1726058
v 0.1216639 -0.110465 -0.121664
v 0.1216639 -0.110465 0.1216638
v 0.1726058 -0.1119484 0.1726057
v 0.2441015 -0.1119483 -4.865235E-08
v 0.1720588 -0.110465 -6.414343E-08
v -1.271157E-08 -0.110465 0.1720588
v -3.504275E-08 -0.1119484 0.2441014
v 0.1726058 -0.1119484 0.1726057
v 0.1216639 -0.110465 0.1216638
v -0.1216639 -0.110465 0.1216638
v -0.1726058 -0.1119484 0.1726057
v -3.504275E-08 -0.1119484 0.2441014
v -1.271157E-08 -0.110465 0.1720588
v -0.1720589 -0.110465 -8.789131E-08
v -0.2441015 -0.1119484 -7.983466E-08
v -0.1726058 -0.1119484 0.1726057
v -0.1216639 -0.110465 0.1216638

vn 0.3124394 -0.9324983 0.1811863
vn 0.3336754 -0.8991137 0.2832935
vn 0.3336754 -0.8991138 0.2832935
vn 0.3124394 -0.9324983 0.1811864
vn 0.343081 -0.8776433 0.3347202
vn 0.343081 -0.8776432 0.3347203
vn 0.5195832 -0.8543852 0.007693109
vn 0.5968965 -0.7998541 0.06283278
vn 0.5968965 -0.7998541 0.06283278
vn 0.5195832 -0.8543852 0.007693156
vn 0.6340405 -0.7679236 0.09102744
vn 0.6340405 -0.7679236 0.09102744
vn 0.5383545 -0.7991506 -0.2674556
vn 0.6207495 -0.7296666 -0.2868045
vn 0.6207494 -0.7296667 -0.2868044
vn 0.5383545 -0.7991508 -0.2674556
vn 0.6604069 -0.6903398 -0.2954551
vn 0.6604068 -0.6903398 -0.295455
vn 0.3577568 -0.7991508 -0.483082
vn 0.391261 -0.7296666 -0.5608044
vn 0.391261 -0.7296666 -0.5608044
vn 0.3577568 -0.7991508 -0.483082
vn 0.406735 -0.6903398 -0.5983291
vn 0.406735 -0.6903397 -0.5983291
vn 0.08358222 -0.8543851 -0.5128744
vn 0.04286167 -0.7998539 -0.5986623
vn 0.0428617 -0.799854 -0.5986623
vn 0.08358226 -0.8543851 -0.5128743
vn 0.02162094 -0.7679235 -0.6401766
vn 0.02162091 -0.7679235 -0.6401765
vn -0.1235616 -0.9324982 -0.3393811
vn -0.2203593 -0.8991137 -0.3782015
vn -0.2203593 -0.8991137 -0.3782015
vn -0.1235616 -0.9324982 -0.3393811
vn -0.2693384 -0.8776432 -0.3964837
vn -0.2693383 -0.8776432 -0.3964836
vn -0.1423324 -0.9877326 -0.06423225
vn -0.244212 -0.9693011 -0.02856426
vn -0.2442119 -0.9693011 -0.02856428
vn -0.1423325 -0.9877326 -0.06423226
vn -0.2957045 -0.9552271 -0.01000123
vn -0.2957045 -0.9552271 -0.01000123
vn 0.03826502 -0.9877326 0.1513939
vn -0.01472354 -0.9693011 0.2454355
vn -0.01472347 -0.9693011 0.2454355
vn 0.03826502 -0.9877326 0.1513939
vn -0.04203254 -0.9552271 0.2928727
vn -0.04203255 -0.9552271 0.2928727
vn 0.3201543 -0.9239001 -0.209547
vn 0.2003883 -0.9640378 -0.1745731
vn 0.2003883 -0.9640378 -0.1745731
vn 0.3201541 -0.9239001 -0.2095469
vn 0.3141578 -0.9415439 -0.121655
vn 0.2010777 -0.962009 -0.1846795
vn 0.2010777 -0.962009 -0.1846795
vn 0.3141581 -0.9415439 -0.1216549
vn 0.247989 -0.9664959 -0.06623509
vn 0.2086863 -0.9591398 -0.191052
vn 0.2086863 -0.9591398 -0.191052
vn 0.247989 -0.9664959 -0.06623538
vn 0.1604083 -0.9841397 -0.07575195
vn 0.2187569 -0.957111 -0.1899577
vn 0.2187569 -0.957111 -0.1899577
vn 0.1604082 -0.9841397 -0.07575174
vn 0.1027191 -0.9841397 -0.1446304
vn 0.2253903 -0.957111 -0.1820376
vn 0.2253903 -0.957111 -0.1820376
vn 0.1027193 -0.9841397 -0.1446304
vn 0.1087156 -0.9664959 -0.2325222
vn 0.2247009 -0.9591398 -0.1719312
vn 0.2247009 -0.9591398 -0.1719312
vn 0.1087153 -0.9664959 -0.2325224
vn 0.1748843 -0.9415439 -0.2879422
vn 0.2170924 -0.962009 -0.1655587
vn 0.2170924 -0.962009 -0.1655587
vn 0.1748844 -0.9415439 -0.2879418
vn 0.2624649 -0.9239002 -0.2784253
vn 0.2070217 -0.9640378 -0.166653
vn 0.2070217 -0.9640378 -0.166653
vn 0.262465 -0.9239001 -0.2784255

vt 0 0.25
vt 0 0.2980957
vt 0.125 0.2980957
vt 0.125 0.25
vt 0.125 0.375
vt 0 0.375
vt 0.125 0.25
vt 0.125 0.2980957
vt 0.25 0.2980957
vt 0.25 0.25
vt 0.25 0.375
vt 0.125 0.375
vt 0.25 0.25
vt 0.25 0.2980957
vt 0.375 0.2980957
vt 0.375 0.25
vt 0.375 0.375
vt 0.25 0.375
vt 0.375 0.25
vt 0.375 0.2980957
vt 0.5 0.2980957
vt 0.5 0.25
vt 0.5 0.375
vt 0.375 0.375
vt 0.5 0.25
vt 0.5 0.2980957
vt 0.625 0.2980957
vt 0.625 0.25
vt 0.625 0.375
vt 0.5 0.375
vt 0.625 0.25
vt 0.625 0.2980957
vt 0.75 0.2980957
vt 0.75 0.25
vt 0.75 0.375
vt 0.625 0.375
vt 0.75 0.25
vt 0.75 0.2980957
vt 0.875 0.2980957
vt 0.875 0.25
vt 0.875 0.375
vt 0.75 0.375
vt 0.875 0.25
vt 0.875 0.2980957
vt 1 0.2980957
vt 1 0.25
vt 1 0.375
vt 0.875 0.375
vt 0.25 0.1976318
vt 0.25 0.25
vt 0.375 0.25
vt 0.375 0.1976318
vt 0.125 0.1976318
vt 0.125 0.25
vt 0.25 0.25
vt 0.25 0.1976318
vt 0 0.1976318
vt 0 0.25
vt 0.125 0.25
vt 0.125 0.1976318
vt 0.875 0.1976318
vt 0.875 0.25
vt 1 0.25
vt 1 0.1976318
vt 0.75 0.1976318
vt 0.75 0.25
vt 0.875 0.25
vt 0.875 0.1976318
vt 0.625 0.1976318
vt 0.625 0.25
vt 0.75 0.25
vt 0.75 0.1976318
vt 0.5 0.1976318
vt 0.5 0.25
vt 0.625 0.25
vt 0.625 0.1976318
vt 0.375 0.1976318
vt 0.375 0.25
vt 0.5 0.25
vt 0.5 0.1976318

g saucer_1_1027_8
usemtl saucer_1_1027_8
usemap saucer_1_1027_8
f 1/1/1 3/3/3 2/2/2
f 1/1/1 4/4/4 3/3/3
f 2/2/2 3/3/3 5/5/5
f 2/2/2 5/5/5 6/6/6
f 7/7/7 9/9/9 8/8/8
f 7/7/7 10/10/10 9/9/9
f 8/8/8 9/9/9 11/11/11
f 8/8/8 11/11/11 12/12/12
f 13/13/13 15/15/15 14/14/14
f 13/13/13 16/16/16 15/15/15
f 14/14/14 15/15/15 17/17/17
f 14/14/14 17/17/17 18/18/18
f 19/19/19 21/21/21 20/20/20
f 19/19/19 22/22/22 21/21/21
f 20/20/20 21/21/21 23/23/23
f 20/20/20 23/23/23 24/24/24
f 25/25/25 27/27/27 26/26/26
f 25/25/25 28/28/28 27/27/27
f 26/26/26 27/27/27 29/29/29
f 26/26/26 29/29/29 30/30/30
f 31/31/31 33/33/33 32/32/32
f 31/31/31 34/34/34 33/33/33
f 32/32/32 33/33/33 35/35/35
f 32/32/32 35/35/35 36/36/36
f 37/37/37 39/39/39 38/38/38
f 37/37/37 40/40/40 39/39/39
f 38/38/38 39/39/39 41/41/41
f 38/38/38 41/41/41 42/42/42
f 43/43/43 45/45/45 44/44/44
f 43/43/43 46/46/46 45/45/45
f 44/44/44 45/45/45 47/47/47
f 44/44/44 47/47/47 48/48/48
f 49/49/49 51/51/51 50/50/50
f 49/49/49 52/52/52 51/51/51
f 53/53/53 55/55/55 54/54/54
f 53/53/53 56/56/56 55/55/55
f 57/57/57 59/59/59 58/58/58
f 57/57/57 60/60/60 59/59/59
f 61/61/61 63/63/63 62/62/62
f 61/61/61 64/64/64 63/63/63
f 65/65/65 67/67/67 66/66/66
f 65/65/65 68/68/68 67/67/67
f 69/69/69 71/71/71 70/70/70
f 69/69/69 72/72/72 71/71/71
f 73/73/73 75/75/75 74/74/74
f 73/73/73 76/76/76 75/75/75
f 77/77/77 79/79/79 78/78/78
f 77/77/77 80/80/80 79/79/79
