#Ship_989_5.obj

v 64.74013 57.73392 -7.647305
v 67.03797 63.43642 -7.647305
v 91.86842 52.02599 -7.647305
v 89.10616 46.51624 -7.647305
v 63.32227 58.38666 -7.647305
v 66.02802 63.91987 -7.647305
v 18.17654 -100.0192 -7.647303
v 90.65731 45.66426 -7.647305
v 55.45082 -46.20891 -7.647304
v 93.04002 44.35553 -7.647305
v 46.71444 -67.25761 -7.647304
v 24.41393 -95.14371 -7.647303
v 59.52925 60.0484 -7.647305
v 44.64031 53.09341 -7.647305
v 30.09421 72.94409 -7.647305
v 25.20785 61.1942 -7.647305
v 6.023809 69.15591 -7.647305
v 0.9760505 84.36926 -7.647306
v -12.92936 23.57052 -7.647305
v -3.676246 86.19469 -7.647306
v -16.98197 91.13295 -7.647306
v -2.57372 92.32552 -7.647306
v -28.33656 101.9176 -7.647306
v -30.28771 96.0712 -7.647306
v -1.668573 92.01764 -7.647306
v -14.40232 7.800081 -7.647305
v -18.79086 -4.708952 -7.647305
v -70.74507 -98.85036 -7.647303
v -31.94537 96.55605 -7.647306
v -83.95484 -57.74618 -7.647304
v -34.59543 97.33118 -7.647306
v -72.18459 6.766734 -7.647305
v -80.92094 -14.28198 -7.647305
v -84.92145 -49.76357 -7.647304
v -73.49638 -94.10975 -7.647303
v -78.4233 -78.42461 -7.647304
v -83.3502 -62.73946 -7.647304
v -8.354743 -19.69183 -7.647305
v -53.52494 -128.5214 -7.647303
v -19.44697 -119.5251 -7.647303
v 6.83438 -17.01547 -7.647305
v -13.46315 -117.5375 -7.647303
v 13.14037 -3.810954 -7.647305
v 14.11598 -103.1932 -7.647303
v 25.75619 7.543622 -7.647305
v -15.05567 -118.3658 -7.647303
v 6.250181 15.51908 -7.647305
v 4.245164 10.66539 -7.647305
v 79.89907 108.3665 -3.824138
v 78.08965 104.007 -3.824138
v 48.2496 116.6863 -3.824138
v 50.03658 120.9917 -3.824138
v 20.81111 132.8974 -3.824138
v 19.00229 128.5394 -3.824138
v 34.96539 84.68033 -3.824138
v 5.555729 96.14223 -3.824138
v 64.63862 71.59923 -3.824138
v 25.27207 143.6453 -3.824138
v 20.61123 145.5682 -3.824138
v 16.14167 134.7996 -3.824138
v 54.44368 131.6098 -3.824138
v 84.3615 119.118 -3.824138
v 88.21674 117.5083 -3.824138
v 83.74716 106.7396 -3.824138
v 89.64231 116.8784 -3.824138
v 85.1704 106.1042 -3.824138
v 7.306952 150.7408 -3.824138
v 2.815881 139.9203 -3.824138
v -5.997321 155.9134 -3.824138
v -10.50992 145.0411 -3.824138
v -10.30613 157.5803 -3.824138
v -14.82621 146.69 -3.824138
v 114.3304 105.9708 -3.824138
v 109.8178 95.09854 -3.824138
v 118.6574 104.0504 -3.824138
v 114.1372 93.15965 -3.824138
v 105.4258 176.9411 -0.6509061
v 85.20466 128.2218 -0.6509061
v 57.76887 139.6213 -0.6509061
v 77.98608 188.331 -0.6509061
v 51.2771 199.4159 -0.6509061
v 31.05604 150.6968 -0.6509061
v 108.9617 175.4734 -0.6509061
v 88.74004 126.7529 -0.6509061
v 110.2797 174.9242 -0.6509061
v 90.04832 126.1804 -0.6509061
v 133.1044 165.4133 -0.6509061
v 112.7051 116.2651 -0.6509061
v 137.1074 163.7448 -0.6509061
v 116.6766 114.5204 -0.6509061
v 47.00972 201.1869 -0.6509061
v 26.78806 152.4664 -0.6509061
v 34.92439 206.1832 -0.6509077
v 14.61395 157.2488 -0.6509061
v 22.83904 211.1795 -0.6509077
v 2.439857 162.0312 -0.6509061
v 18.92754 212.7961 -0.6509077
v -1.502515 163.5735 -0.6509061
v 6.981332 17.25771 -8.182345
v -37.58273 -89.67414 -8.182344
v 3.70883 -106.3428 -8.182344
v 24.63413 10.04224 -8.182345
v 105.2372 105.2175 -8.182347
v 42.07972 52.12123 -8.182346
v 24.04959 11.92036 -8.182345
v 40.33757 51.20719 -8.182346
v -10.37462 24.54534 -8.182345
v -8.636142 25.4611 -8.182345
v 7.568149 18.65704 -8.182345
v 7.71058 64.77897 -8.182346
v 7.13389 66.65759 -8.182346
v -77.90854 -72.58289 -8.182344
v 0.3373631 148.8911 -8.182348
v 24.49452 59.45263 -8.182346
v 52.45729 127.2613 -8.182347
v 23.91924 58.05209 -8.182346
v -37.58273 -89.67414 -8.182344
v 3.70883 -106.3428 -8.182344
v 3.70883 -106.3428 -7.693543
v -37.58273 -89.67414 -7.693543
v -77.90854 -72.58289 -7.693552
v -77.90854 -72.58289 -8.182344
v 105.2372 105.2175 -8.182347
v 105.2372 105.2175 -7.693546
v 3.70883 -106.3428 -7.693543
v 3.70883 -106.3428 -8.182344

vn 4.576344E-08 1 1.100752E-07
vn 4.576344E-08 1 1.100752E-07
vn 4.576344E-08 1 1.100752E-07
vn 4.576344E-08 1 1.100752E-07
vn 4.576344E-08 1 1.100752E-07
vn 4.576344E-08 1 1.100752E-07
vn 4.576344E-08 1 1.100752E-07
vn 4.576344E-08 1 1.100752E-07
vn 4.576344E-08 1 1.100752E-07
vn 4.576344E-08 1 1.100752E-07
vn 4.576344E-08 1 1.100752E-07
vn 4.576344E-08 1 1.100752E-07
vn 4.576344E-08 1 1.100752E-07
vn 4.576344E-08 1 1.100752E-07
vn 4.576344E-08 1 1.100752E-07
vn 4.576344E-08 1 1.100752E-07
vn 4.576344E-08 1 1.100752E-07
vn 4.576344E-08 1 1.100752E-07
vn 4.576344E-08 1 1.100752E-07
vn 4.576344E-08 1 1.100752E-07
vn 4.576344E-08 1 1.100752E-07
vn 4.576344E-08 1 1.100752E-07
vn 4.576344E-08 1 1.100752E-07
vn 4.576344E-08 1 1.100752E-07
vn 4.576344E-08 1 1.100752E-07
vn 4.576344E-08 1 1.100752E-07
vn 4.576344E-08 1 1.100752E-07
vn 4.576344E-08 1 1.100752E-07
vn 4.576344E-08 1 1.100752E-07
vn 4.576344E-08 1 1.100752E-07
vn 4.576344E-08 1 1.100752E-07
vn 4.576344E-08 1 1.100752E-07
vn 4.576344E-08 1 1.100752E-07
vn 4.576344E-08 1 1.100752E-07
vn 4.576344E-08 1 1.100752E-07
vn 4.576344E-08 1 1.100752E-07
vn 4.576344E-08 1 1.100752E-07
vn 4.576344E-08 1 1.100752E-07
vn 4.576344E-08 1 1.100752E-07
vn 4.576344E-08 1 1.100752E-07
vn 4.576344E-08 1 1.100752E-07
vn 4.576344E-08 1 1.100752E-07
vn 4.576344E-08 1 1.100752E-07
vn 4.576344E-08 1 1.100752E-07
vn 4.576344E-08 1 1.100752E-07
vn 4.576344E-08 1 1.100752E-07
vn 4.576344E-08 1 1.100752E-07
vn 4.576344E-08 1 1.100752E-07
vn 4.576344E-08 1 1.100752E-07
vn 4.576344E-08 1 1.100752E-07
vn 4.576344E-08 1 1.100752E-07
vn 4.576344E-08 1 1.100752E-07
vn 4.576344E-08 1 1.100752E-07
vn 4.576344E-08 1 1.100752E-07
vn 4.576344E-08 1 1.100752E-07
vn 4.576344E-08 1 1.100752E-07
vn 4.576344E-08 1 1.100752E-07
vn 4.576344E-08 1 1.100752E-07
vn 4.576344E-08 1 1.100752E-07
vn 4.576344E-08 1 1.100752E-07
vn 4.576344E-08 1 1.100752E-07
vn 4.576344E-08 1 1.100752E-07
vn 4.576344E-08 1 1.100752E-07
vn 4.576344E-08 1 1.100752E-07
vn 4.576344E-08 1 1.100752E-07
vn 4.576344E-08 1 1.100752E-07
vn 4.576344E-08 1 1.100752E-07
vn 4.576344E-08 1 1.100752E-07
vn 4.576344E-08 1 1.100752E-07
vn 4.576344E-08 1 1.100752E-07
vn 4.576344E-08 1 1.100752E-07
vn 4.576344E-08 1 1.100752E-07
vn 4.576344E-08 1 1.100752E-07
vn 4.576344E-08 1 1.100752E-07
vn 4.576344E-08 1 1.100752E-07
vn 4.576344E-08 1 1.100752E-07
vn 4.576344E-08 1 1.100752E-07
vn 4.576344E-08 1 1.100752E-07
vn 4.576344E-08 1 1.100752E-07
vn 4.576344E-08 1 1.100752E-07
vn 4.576344E-08 1 1.100752E-07
vn 4.576344E-08 1 1.100752E-07
vn 4.576344E-08 1 1.100752E-07
vn 4.576344E-08 1 1.100752E-07
vn 4.576344E-08 1 1.100752E-07
vn 4.576344E-08 1 1.100752E-07
vn 4.576344E-08 1 1.100752E-07
vn 4.576344E-08 1 1.100752E-07
vn 4.576344E-08 1 1.100752E-07
vn 4.576344E-08 1 1.100752E-07
vn 4.576344E-08 1 1.100752E-07
vn 4.576344E-08 1 1.100752E-07
vn 4.576344E-08 1 1.100752E-07
vn 4.576344E-08 1 1.100752E-07
vn 4.576344E-08 1 1.100752E-07
vn 4.576344E-08 1 1.100752E-07
vn 4.576344E-08 1 1.100752E-07
vn 4.576344E-08 1 1.100752E-07
vn -4.576344E-08 -1 -1.100752E-07
vn -4.576344E-08 -1 -1.100752E-07
vn -4.576344E-08 -1 -1.100752E-07
vn -4.576344E-08 -1 -1.100752E-07
vn -4.576344E-08 -1 -1.100752E-07
vn -4.576344E-08 -1 -1.100752E-07
vn -4.576344E-08 -1 -1.100752E-07
vn -4.576344E-08 -1 -1.100752E-07
vn -4.576344E-08 -1 -1.100752E-07
vn -4.576344E-08 -1 -1.100752E-07
vn -4.576344E-08 -1 -1.100752E-07
vn -4.576344E-08 -1 -1.100752E-07
vn -4.576344E-08 -1 -1.100752E-07
vn -4.576344E-08 -1 -1.100752E-07
vn -4.576344E-08 -1 -1.100752E-07
vn -4.576344E-08 -1 -1.100752E-07
vn -4.576344E-08 -1 -1.100752E-07
vn -4.576344E-08 -1 -1.100752E-07
vn 0.01032954 1.192029E-07 0.9999467
vn 0.01032954 1.192029E-07 0.9999467
vn 0.01032954 1.192029E-07 0.9999467
vn 0.01032954 1.192029E-07 0.9999467
vn -0.006870731 1.192064E-07 0.9999764
vn -0.006870731 1.192064E-07 0.9999764
vn 0.9985728 6.366809E-09 0.0534087
vn 0.9985728 6.366809E-09 0.0534087
vn 0.9985728 6.366809E-09 0.0534087
vn 0.9985728 6.366809E-09 0.0534087

vt 0 0
vt 0 0
vt 0 0
vt 0 0
vt 0 0
vt 0 0
vt 0 0
vt 0 0
vt 0 0
vt 0 0
vt 0 0
vt 0 0
vt 0 0
vt 0 0
vt 0 0
vt 0 0
vt 0 0
vt 0 0
vt 0 0
vt 0 0
vt 0 0
vt 0 0
vt 0 0
vt 0 0
vt 0 0
vt 0 0
vt 0 0
vt 0 0
vt 0 0
vt 0 0
vt 0 0
vt 0 0
vt 0 0
vt 0 0
vt 0 0
vt 0 0
vt 0 0
vt 0 0
vt 0 0
vt 0 0
vt 0 0
vt 0 0
vt 0 0
vt 0 0
vt 0 0
vt 0 0
vt 0 0
vt 0 0
vt 0 0
vt 0 0
vt 0 0
vt 0 0
vt 0 0
vt 0 0
vt 0 0
vt 0 0
vt 0 0
vt 0 0
vt 0 0
vt 0 0
vt 0 0
vt 0 0
vt 0 0
vt 0 0
vt 0 0
vt 0 0
vt 0 0
vt 0 0
vt 0 0
vt 0 0
vt 0 0
vt 0 0
vt 0 0
vt 0 0
vt 0 0
vt 0 0
vt 0 0
vt 0 0
vt 0 0
vt 0 0
vt 0 0
vt 0 0
vt 0 0
vt 0 0
vt 0 0
vt 0 0
vt 0 0
vt 0 0
vt 0 0
vt 0 0
vt 0 0
vt 0 0
vt 0 0
vt 0 0
vt 0 0
vt 0 0
vt 0 0
vt 0 0
vt 0 0
vt 0 0
vt 0 0
vt 0 0
vt 0 0
vt 0 0
vt 0 0
vt 0 0
vt 0 0
vt 0 0
vt 0 0
vt 0 0
vt 0 0
vt 0 0
vt 0 0
vt 0 0
vt 0 0
vt 0 0
vt 0 0
vt 0 0
vt 0 0
vt 0 0
vt 0 0
vt 0 0
vt 0 0
vt 0 0
vt 0 0
vt 0 0

g Ship_989_5
usemtl Ship_989_5
usemap Ship_989_5
f 1/1/1 3/3/3 2/2/2
f 1/1/1 4/4/4 3/3/3
f 5/5/5 1/1/1 2/2/2
f 5/5/5 2/2/2 6/6/6
f 7/7/7 4/4/4 1/1/1
f 7/7/7 1/1/1 5/5/5
f 4/4/4 7/7/7 8/8/8
f 9/9/9 8/8/8 7/7/7
f 8/8/8 9/9/9 10/10/10
f 9/9/9 7/7/7 11/11/11
f 11/11/11 7/7/7 12/12/12
f 7/7/7 5/5/5 13/13/13
f 7/7/7 13/13/13 14/14/14
f 14/14/14 13/13/13 15/15/15
f 14/14/14 15/15/15 16/16/16
f 17/17/17 16/16/16 15/15/15
f 17/17/17 15/15/15 18/18/18
f 18/18/18 19/19/19 17/17/17
f 19/19/19 18/18/18 20/20/20
f 19/19/19 20/20/20 21/21/21
f 20/20/20 22/22/22 21/21/21
f 21/21/21 22/22/22 23/23/23
f 21/21/21 23/23/23 24/24/24
f 20/20/20 25/25/25 22/22/22
f 19/19/19 21/21/21 26/26/26
f 26/26/26 21/21/21 27/27/27
f 27/27/27 21/21/21 24/24/24
f 27/27/27 24/24/24 28/28/28
f 28/28/28 24/24/24 29/29/29
f 28/28/28 29/29/29 30/30/30
f 31/31/31 30/30/30 29/29/29
f 30/30/30 31/31/31 32/32/32
f 30/30/30 32/32/32 33/33/33
f 30/30/30 33/33/33 34/34/34
f 28/28/28 30/30/30 35/35/35
f 35/35/35 30/30/30 36/36/36
f 36/36/36 30/30/30 37/37/37
f 28/28/28 38/38/38 27/27/27
f 28/28/28 39/39/39 38/38/38
f 40/40/40 38/38/38 39/39/39
f 40/40/40 41/41/41 38/38/38
f 42/42/42 41/41/41 40/40/40
f 42/42/42 43/43/43 41/41/41
f 44/44/44 43/43/43 42/42/42
f 7/7/7 43/43/43 44/44/44
f 7/7/7 45/45/45 43/43/43
f 7/7/7 14/14/14 45/45/45
f 42/42/42 40/40/40 46/46/46
f 43/43/43 45/45/45 47/47/47
f 43/43/43 47/47/47 48/48/48
f 26/26/26 48/48/48 47/47/47
f 26/26/26 47/47/47 19/19/19
f 49/49/49 51/51/51 50/50/50
f 49/49/49 52/52/52 51/51/51
f 53/53/53 51/51/51 52/52/52
f 53/53/53 54/54/54 51/51/51
f 54/54/54 55/55/55 51/51/51
f 50/50/50 51/51/51 55/55/55
f 54/54/54 56/56/56 55/55/55
f 50/50/50 55/55/55 57/57/57
f 58/58/58 53/53/53 52/52/52
f 59/59/59 53/53/53 58/58/58
f 59/59/59 60/60/60 53/53/53
f 58/58/58 52/52/52 61/61/61
f 62/62/62 52/52/52 49/49/49
f 62/62/62 61/61/61 52/52/52
f 63/63/63 62/62/62 49/49/49
f 63/63/63 49/49/49 64/64/64
f 64/64/64 65/65/65 63/63/63
f 64/64/64 66/66/66 65/65/65
f 60/60/60 59/59/59 67/67/67
f 60/60/60 67/67/67 68/68/68
f 68/68/68 67/67/67 69/69/69
f 68/68/68 69/69/69 70/70/70
f 71/71/71 70/70/70 69/69/69
f 71/71/71 72/72/72 70/70/70
f 66/66/66 73/73/73 65/65/65
f 66/66/66 74/74/74 73/73/73
f 75/75/75 73/73/73 74/74/74
f 75/75/75 74/74/74 76/76/76
f 77/77/77 79/79/79 78/78/78
f 77/77/77 80/80/80 79/79/79
f 81/81/81 79/79/79 80/80/80
f 81/81/81 82/82/82 79/79/79
f 83/83/83 77/77/77 78/78/78
f 83/83/83 78/78/78 84/84/84
f 85/85/85 83/83/83 84/84/84
f 85/85/85 84/84/84 86/86/86
f 87/87/87 85/85/85 86/86/86
f 87/87/87 86/86/86 88/88/88
f 89/89/89 87/87/87 88/88/88
f 89/89/89 88/88/88 90/90/90
f 91/91/91 82/82/82 81/81/81
f 91/91/91 92/92/92 82/82/82
f 93/93/93 92/92/92 91/91/91
f 93/93/93 94/94/94 92/92/92
f 95/95/95 94/94/94 93/93/93
f 95/95/95 96/96/96 94/94/94
f 97/97/97 96/96/96 95/95/95
f 97/97/97 98/98/98 96/96/96
f 99/99/99 101/101/101 100/100/100
f 99/99/99 102/102/102 101/101/101
f 102/102/102 103/103/103 101/101/101
f 102/102/102 104/104/104 103/103/103
f 104/104/104 102/102/102 105/105/105
f 104/104/104 105/105/105 106/106/106
f 107/107/107 99/99/99 100/100/100
f 99/99/99 107/107/107 108/108/108
f 99/99/99 108/108/108 109/109/109
f 102/102/102 109/109/109 105/105/105
f 102/102/102 99/99/99 109/109/109
f 107/107/107 110/110/110 108/108/108
f 107/107/107 111/111/111 110/110/110
f 111/111/111 107/107/107 112/112/112
f 107/107/107 100/100/100 112/112/112
f 111/111/111 112/112/112 113/113/113
f 114/114/114 111/111/111 113/113/113
f 114/114/114 104/104/104 106/106/106
f 114/114/114 113/113/113 115/115/115
f 104/104/104 115/115/115 103/103/103
f 104/104/104 114/114/114 115/115/115
f 111/111/111 116/116/116 110/110/110
f 111/111/111 114/114/114 116/116/116
f 114/114/114 106/106/106 116/116/116
f 117/117/117 119/119/119 118/118/118
f 117/117/117 120/120/120 119/119/119
f 117/117/117 121/121/121 120/120/120
f 117/117/117 122/122/122 121/121/121
f 123/123/123 125/125/125 124/124/124
f 123/123/123 126/126/126 125/125/125
