#Ship_1029_26.obj

v 0.0003296137 21.91088 5.306046
v -2.245093 21.91088 5.306046
v -1.587414 23.49863 5.306046
v 0.0003296137 24.1563 5.306046
v 0.0003296137 21.91088 5.306046
v 1.588074 23.49863 5.306046
v 2.245752 21.91088 5.306046
v 0.0003296137 21.91088 5.306046
v 0.0003296137 17.09507 5.306046
v -2.245093 17.09507 5.306046
v -2.245093 21.91088 5.306046
v 2.245752 21.91088 5.306046
v 2.245752 17.09507 5.306046
v 0.0003296137 17.09507 5.306046
v 0.0003296137 21.91088 5.306046

vn 0 0 1
vn 0 0 1
vn 0 0 1
vn 0 0 1
vn 0 0 1
vn 0 0 1
vn 0 0 1
vn 0 0 1
vn 0 0 1
vn 0 0 1
vn 0 0 1
vn 0 0 1
vn 0 0 1
vn 0 0 1
vn 0 0 1

vt 0.5 0.8374023
vt 0.34375 0.84375
vt 0.3894043 0.9541016
vt 0.5 1
vt 0.5 0.8374023
vt 0.6103516 0.9541016
vt 0.65625 0.84375
vt 0 0
vt 0 1
vt 1 1
vt 1 0
vt 0 0
vt 0 1
vt 1 1
vt 1 0

g Ship_1029_26
usemtl Ship_1029_26
usemap Ship_1029_26
f 1/1/1 3/3/3 2/2/2
f 1/1/1 4/4/4 3/3/3
f 5/5/5 6/6/6 4/4/4
f 5/5/5 7/7/7 6/6/6
f 8/8/8 10/10/10 9/9/9
f 8/8/8 11/11/11 10/10/10
f 12/12/12 14/14/14 13/13/13
f 12/12/12 15/15/15 14/14/14
