#Ship_1029_23.obj

v -1.726721 38.59048 9.614709
v -2.960376 39.82411 9.228356
v 0.0003296137 41.05048 9.228356
v 0.0003296137 39.30587 9.614709
v -2.442077 36.8634 9.614709
v -4.186706 36.8634 9.228356
v -2.960376 39.82411 9.228356
v -1.726721 38.59048 9.614709
v 1.72738 38.59048 9.614709
v 0.0003296137 39.30587 9.614709
v 0.0003296137 41.05048 9.228356
v 2.961035 39.82411 9.228356
v -4.186706 36.8634 9.228356
v -2.442077 36.8634 9.614709
v -1.726721 35.13633 9.614709
v -2.960376 33.9027 9.228356
v 2.442737 36.8634 9.614709
v 1.72738 38.59048 9.614709
v 2.961035 39.82411 9.228356
v 4.187366 36.8634 9.228356
v -2.960376 33.9027 9.228356
v -1.726721 35.13633 9.614709
v 0.0003296137 34.42094 9.614709
v 0.0003296137 32.67634 9.228356
v 1.72738 35.13633 9.614709
v 2.442737 36.8634 9.614709
v 4.187366 36.8634 9.228356
v 2.961035 33.9027 9.228356
v 0.0003296137 34.42094 9.614709
v 1.72738 35.13633 9.614709
v 2.961035 33.9027 9.228356
v 0.0003296137 32.67634 9.228356
v 0.0003296137 36.8634 9.614709
v -2.442077 36.8634 9.614709
v -1.726721 38.59048 9.614709
v 0.0003296137 39.30587 9.614709
v -1.726721 35.13633 9.614709
v 0.0003296137 34.42094 9.614709
v 0.0003296137 36.8634 9.614709
v 0.0003296137 39.30587 9.614709
v 1.72738 38.59048 9.614709
v 2.442737 36.8634 9.614709
v 1.72738 35.13633 9.614709
v 0.0003296137 34.42094 9.614709

vn -0.08920297 0.2153524 0.9724537
vn -0.08920297 0.2153524 0.9724537
vn -0.08920296 0.2153524 0.9724537
vn -0.08920298 0.2153524 0.9724537
vn -0.2153527 0.08920116 0.9724538
vn -0.2153527 0.08920115 0.9724538
vn -0.2153527 0.08920116 0.9724538
vn -0.2153527 0.08920114 0.9724538
vn 0.08920288 0.2153524 0.9724537
vn 0.08920288 0.2153524 0.9724537
vn 0.08920288 0.2153524 0.9724537
vn 0.08920289 0.2153524 0.9724537
vn -0.2153525 -0.08920129 0.9724538
vn -0.2153525 -0.08920128 0.9724538
vn -0.2153525 -0.08920127 0.9724538
vn -0.2153525 -0.08920128 0.9724538
vn 0.2153525 0.08920113 0.9724538
vn 0.2153525 0.08920112 0.9724538
vn 0.2153525 0.08920112 0.9724538
vn 0.2153525 0.08920113 0.9724538
vn -0.08920298 -0.2153529 0.9724536
vn -0.08920299 -0.2153528 0.9724536
vn -0.08920299 -0.2153529 0.9724536
vn -0.08920298 -0.2153528 0.9724536
vn 0.2153525 -0.08920129 0.9724538
vn 0.2153526 -0.0892013 0.9724538
vn 0.2153526 -0.08920129 0.9724538
vn 0.2153526 -0.08920129 0.9724538
vn 0.08920307 -0.2153528 0.9724535
vn 0.08920305 -0.2153528 0.9724536
vn 0.08920307 -0.2153529 0.9724535
vn 0.08920307 -0.2153528 0.9724535
vn 0 0 1
vn 0 0 1
vn 0 0 1
vn 0 0 1
vn 0 0 1
vn 0 0 1
vn 0 0 1
vn 0 0 1
vn 0 0 1
vn 0 0 1
vn 0 0 1
vn 0 0 1

vt 0.6103516 0.9541016
vt 0.6103516 0.9541016
vt 0.5 1
vt 0.5 1
vt 0.65625 0.84375
vt 0.65625 0.84375
vt 0.6103516 0.9541016
vt 0.6103516 0.9541016
vt 0.6103516 0.9541016
vt 0.5 1
vt 0.5 1
vt 0.6103516 0.9541016
vt 0.65625 0.84375
vt 0.65625 0.84375
vt 0.6103516 0.7333984
vt 0.6103516 0.7333984
vt 0.65625 0.84375
vt 0.6103516 0.9541016
vt 0.6103516 0.9541016
vt 0.65625 0.84375
vt 0.6103516 0.7333984
vt 0.6103516 0.7333984
vt 0.5 0.6875
vt 0.5 0.6875
vt 0.6103516 0.7333984
vt 0.65625 0.84375
vt 0.65625 0.84375
vt 0.6103516 0.7333984
vt 0.5 0.6875
vt 0.6103516 0.7333984
vt 0.6103516 0.7333984
vt 0.5 0.6875
vt 0.5 0.8374023
vt 0.65625 0.84375
vt 0.6103516 0.9541016
vt 0.5 1
vt 0.6103516 0.7333984
vt 0.5 0.6875
vt 0.5 0.8374023
vt 0.5 1
vt 0.6103516 0.9541016
vt 0.65625 0.84375
vt 0.6103516 0.7333984
vt 0.5 0.6875

g Ship_1029_23
usemtl Ship_1029_23
usemap Ship_1029_23
f 1/1/1 3/3/3 2/2/2
f 1/1/1 4/4/4 3/3/3
f 5/5/5 7/7/7 6/6/6
f 5/5/5 8/8/8 7/7/7
f 9/9/9 11/11/11 10/10/10
f 9/9/9 12/12/12 11/11/11
f 13/13/13 15/15/15 14/14/14
f 13/13/13 16/16/16 15/15/15
f 17/17/17 19/19/19 18/18/18
f 17/17/17 20/20/20 19/19/19
f 21/21/21 23/23/23 22/22/22
f 21/21/21 24/24/24 23/23/23
f 25/25/25 27/27/27 26/26/26
f 25/25/25 28/28/28 27/27/27
f 29/29/29 31/31/31 30/30/30
f 29/29/29 32/32/32 31/31/31
f 33/33/33 35/35/35 34/34/34
f 33/33/33 36/36/36 35/35/35
f 33/33/33 34/34/34 37/37/37
f 33/33/33 37/37/37 38/38/38
f 39/39/39 41/41/41 40/40/40
f 39/39/39 42/42/42 41/41/41
f 39/39/39 43/43/43 42/42/42
f 39/39/39 44/44/44 43/43/43
